<?xml version="1.0" encoding="utf-8"?>
<!-- Generator: Adobe Illustrator 29.7.1, SVG Export Plug-In . SVG Version: 9.03 Build 0)  -->
<svg version="1.1" id="Layer_1" xmlns="http://www.w3.org/2000/svg" xmlns:xlink="http://www.w3.org/1999/xlink" x="0px" y="0px"
	 viewBox="0 0 684.796 682.606" style="enable-background:new 0 0 684.796 682.606;" xml:space="preserve">
<g>
	<path d="M684.772,319.937l-38.447-5.927l0.666-13.339c1.338-1.825,8.333-2.205,10.966-2.826c2.595-0.612,4.485,1.464,3.734-2.978
		l-44.096,2.697c-2.645-5.571-5.289-11.143-7.934-16.714c-1.538-3.24-3.076-6.48-4.614-9.72c-1.346-2.836-2.559-5.791-4.185-8.494
		c-0.383-0.637-0.811-1.243-1.273-1.82l9.066-2.79c9.124,8.08,16.27,8.174,28.415,7.331l-15.355-5.17l-4.427-8.852l15.172-9.539
		l-25.687,5.544c0.138-0.404,0.27-0.812,0.37-1.231c1.09-4.58-0.136-9.105-2.523-13.122c-1.287-2.167-2.892-4.153-4.523-6.09
		c-1.516-1.8-3.025-3.685-4.871-5.189c-2.021-1.645-4.345-2.774-7.034-2.891c-2.99-0.131-6.066,0.854-8.952,1.488
		c-5.944,1.307-11.887,2.614-17.831,3.921c-0.023-0.058-0.046-0.145-0.074-0.263c-0.01-0.049-0.046-0.216-0.049-0.262
		c-0.011-0.189-0.009-0.387,0.005-0.577c0.021-0.29,0.102-0.593,0.272-1.084c0.512-1.473,1.724-2.931,3-4.032
		c1.396-1.204,3.173-1.887,4.852-2.651c1.879-0.855,3.774-1.718,5.496-2.845c3.881-2.539,6.47-6.233,5.719-10.896
		c-0.421-2.612-1.804-4.981-3.1-7.278c-1.35-2.392-2.744-4.762-4.182-7.107c-3.312-5.401-6.858-10.667-10.612-15.796
		c-0.16-0.219-0.359-0.407-0.572-0.579c2.649-2.911,5.301-5.816,7.957-8.71c2.517-2.743,11.486-9.776,12.405-11.83
		c1.433-3.204-1.58-5.531-0.146-8.735c1.235-2.76,14.403-13.162,17.773-17.006c1.452-1.656,3.732-2.398,3.059-5.164
		c-1.16-1.236-26.865,18.447-27.813,19.856c-2.886,4.294,1.799,6.766-1.265,10.443l-36.329,26.912l-14.442-22.355l47.549-48.111
		l-37.555,24.643c0.18-0.702,0.435-1.385,0.65-1.975c0.623-1.71,1.47-3.366,1.81-5.158c0.584-3.082,0.325-6.731-2.156-9.043
		c-3.48-3.244-8.324-1.192-12.255-0.019c-4.526,1.351-9.053,2.701-13.579,4.052c-2.127,0.635-4.254,1.269-6.381,1.904
		c3.867-5.028,6.833-10.678,8.697-16.693c0.399-1.289-0.48-2.981-1.925-3.248c-17.798-3.286-35.595-6.573-53.393-9.859
		l12.898-38.548c0.139-3.99-0.151-2.966-1.895-0.334c-3.525,5.318-6.885,11.351-8.858,17.381l-6.165-2.448l10.085-47.67
		l-26.949,61.059c-13.286,1.12-26.736,0.894-39.943-0.889c-1.702-0.23-3.4-0.486-5.094-0.761c0.196-1.84,0.368-3.68,0.496-5.521
		c0.118-1.698,1.107-8.166-1.584-8.16l-4.353,12.714c-0.05-0.01-0.101-0.017-0.151-0.027c-3.251-0.632-6.5-1.572-9.823-1.783
		c-2.951-0.187-6.081,0.552-8.129,2.715c-1.507,1.591-2.317,3.633-2.694,5.726c-0.224,1.244-0.356,2.503-0.467,3.761
		c-0.052,0.586-0.098,1.172-0.155,1.757c-0.042,0.434-0.128,1.13-0.128,1.13c-0.079,0.485-0.172,0.969-0.303,1.444
		c-0.006,0.02-0.013,0.04-0.019,0.061c-6.07-10.093-18.551-16.024-30.711-15.024L324.686,0l-2.874,11.231
		c-1.381,10.142-4.652,62.454-8.248,66.539c-1.494,1.697-6.496,1.891-8.864,1.843l-7.681-29.486l2.622,28.411
		c-1.477-0.461-3.036-0.712-4.65-0.725c-2.564-0.02-5.128,0.466-7.64,0.905c-2.638,0.461-5.27,0.953-7.896,1.476
		c-5.338,1.063-10.649,2.255-15.925,3.573c-2.595,0.648-5.182,1.325-7.759,2.036c-2.169,0.598-4.372,1.269-6.187,2.596
		c-2.841,2.076-4.018,5.342-3.7,8.694c0.32,3.368,1.577,6.505,2.471,9.75c0.206,0.748,0.389,1.502,0.523,2.266
		c0.005,0.03,0.008,0.048,0.013,0.073c0.018,0.16,0.03,0.32,0.041,0.481c-3.975-4.768-10.075-9.069-15.897-5.313
		c-3.792,2.446-5.282,7.331-6.699,11.266c-0.934,2.593-1.69,5.237-2.311,7.911c-5.273-8.158-8.588-17.045-5.518-26.228l-6.893,7.364
		l-22.313-28.004l22.87,46.476l-26.513,15.36l-45.599-58.887c3.112,14.125,18.735,30.002,22.399,42.741
		c1.932,6.718-7.463,17.405-10.971,23.588l-33.765-22.09l-0.747,2.182l26.408,27.238c-6.08,3.997-12.24,9.342-13.361,16.384
		c-1.314,8.248,5.139,13.616,9.949,19.494c0.89,1.088,2.058,2.8,2.439,3.894c0.169,0.486,0.273,0.893,0.325,1.278
		c-6.831-1.527-14.232,0.542-19.895,4.396c-7.296,4.966-11.618,12.475-14.343,20.493c-1.144,3.367-2.01,6.809-2.795,10.268
		l-46.474-18.63c-6.024,0.419,7.812,6.707,6.947,8.094l-47.687-9.575l39.889,20.763l-9.059,25.722l-49.296-0.781l65.585,11.422
		c-6.165,9.779-10.803,21.111-8.282,32.587c2.025,9.216,10.592,17.054,20.313,18.608c0.52,0.083,1.036,0.129,1.553,0.176
		l2.385,6.468c-2.929,2.854-19.123-1.152-21.549,4.425c5.489-1.837,19.991,2.108,23.552,1.265c2.401-0.569,3.706-4.015,5.705-4.92
		c2.216-1.003,5.297-0.865,8.729-0.185c-2.06,2.903-3.767,6.058-5.035,9.425c-2.112,5.609-3.231,11.924-8.191,15.992
		c-2.539,2.083-5.589,3.559-8.284,5.447c-2.703,1.894-5.27,3.964-7.633,6.24c-4.339,4.179-8.028,8.984-10.915,14.191l-21.015,4.171
		c-0.051-3.333,0.838-6.689-1.425-9.7c-2.4-3.193-15.575-10.529-20.113-12.409c1.68,4.239,12.774,10.876,13.599,14.279
		c0.307,1.266-1.35,9.795-2.039,10.79C25.026,386.136,4.28,388.971,0,391.426l65.282-5.341c2.955,6.102,0.346,12.966-2.965,18.531
		c-4.389,7.375-10.472,13.794-15.999,20.387c-5.398,6.44-11.897,12.97-14.281,21.125c-2.033,6.956,0.561,14.541,7.557,17.837
		c3.744,1.764,7.88,2.325,12.05,2.271c-1.886,1.751-3.476,3.753-4.499,6.148c-1.304,3.055-1.524,6.753-0.322,9.887l-31.42,21.925
		l27.698-10.291c0.661,0.515-9.453,11.634-6.932,14.721l15.03-18.772l3.999-1.897c6.454,4.24,11.412,10.177,15.733,16.386
		c5.098,7.325,9.598,15.001,15.054,22.098c5.912,7.69,12.513,14.882,19.789,21.414c3.655,3.282,7.465,6.421,11.445,9.337
		c4.211,3.086,8.893,4.936,14.22,3.54c2.867-0.751,5.508-2.175,8.115-3.506c2.82-1.44,5.639-2.88,8.459-4.319
		c4.482-2.288,8.963-4.577,13.445-6.865l-26.013,31.885l24.038-19.064l9.492,9.464l-45.84,56.778l47.82-44.982
		c-2.983,5.536-6.242,10.937-9.755,16.182c-1.22,1.822,0.426,3.803,2.38,3.973c20.429,1.772,40.067,10.535,54.963,23.991
		c3.707,3.349,7.174,6.98,10.23,10.888c3.079,3.937,5.422,8.954,9.658,11.891c5.056,3.505,11.625,1.375,16.676-1.018
		c4.602-2.181,8.797-5.487,11.467-9.729c3.63-5.768,2.908-12.237,3.583-18.653c0.337-3.208,2.407-8.396,6.032-9.446
		c-3.66,13.745-2.129,28.477,4.168,41.337c0.935,1.909,3.721,1.515,4.759,0c5.057-7.38,10.429-14.605,16.78-21.025
		c5.894-5.957,12.807-11.487,20.983-14.267c0.298-0.101,0.599-0.188,0.898-0.281l-0.597,25.877
		c3.552,0.075,5.196-16.839,9.193-13.256c0.507,6.547,9.696,16.223,10.795,21.372c2.003,9.383-1.477,24.548,0,34.647
		c2.399,0.02,2.171-5.186,2.564-7.124c1.425-7.026,5.139-22.905,4.913-29.075c-0.19-5.19-7.63-11.575-7.42-17.463
		c0.145-4.086,3.469-10.883,6.997-17.865c13.52,6.468,28.458,12.871,43.865,10.2c6.414-1.112,11.966-4.359,17.918-6.654
		l9.625,25.219l-1.522-17.67l9.232,4.394c-1.537-1.885-3.26-8.746-4.177-14.82c3.496-0.266,7.025-0.239,10.528-0.091
		c13.415,0.569,27.729,3.286,40.725-1.264c3.31-1.159,6.391-2.724,9.221-4.734c2.126-1.511,4.121-3.185,6.193-4.761l39.056,44.851
		l-25.759-51.023c2.852-0.762,5.693-1.638,8.121-3.304c10.099-6.928,8.905-20.072,5.881-30.689
		c5.52,2.653,9.943,7.509,15.085,10.675c7.826,4.818,17.462,5.083,26.022,1.915c9.07-3.358,15.984-9.773,21.736-17.119
		c2.889-3.69,5.466-7.592,8.009-11.505c0.981-1.51,1.998-3.056,2.606-4.741c6.561-2.077,13.803-6.234,16.965-5.548l14.454,12.552
		l-2.308-8.831l12.295,1.451l-25.78-12.965c-5.646-1.935-8.547,3.624-13.755,1.599c-1.656-0.644-8.267-6.62-14.631-12.907
		c2.035-0.501,4.034-1.203,5.966-2.145c6.876-3.353,12.128-9.261,15.832-15.635c3.876-6.669,6.378-14.095,7.768-21.594
		c1.602-8.648,2.054-17.453,3.434-26.132c1.523-9.579,4.126-19.078,10.271-26.951c0.133-0.17,0.22-0.357,0.286-0.55
		c10.016-1.687,26.525-3.126,22.211-12.392c-0.94-2.018-14.063-12.105-13.13-13.307c6.079-1.104,20.149-9.081,19.97-15.534
		c-0.241-8.67-21.545-9.32-21.482-11.76c6.489-6.47,12.674-14.607,10.519-24.116c-11.853-4.913-23.517,1.247-35.158,2.741
		c-3.205-10.26-4.449-29.539-20.005-25.792l2.466-5.264c30.211,1.093,60.353,5.676,90.636,4.516
		C681.275,321.324,685.132,322.508,684.772,319.937z M248.894,109.192C248.96,109.575,248.909,109.312,248.894,109.192
		L248.894,109.192z M550.619,183.661c0.648-0.365,1.293-0.734,1.924-1.127c2.647-1.648,5.139-3.528,7.424-5.616
		c2.383,3.355,4.705,6.75,6.901,10.22c1.427,2.255,2.814,4.534,4.159,6.834c1.222,2.089,2.592,4.195,3.54,6.415
		c0.738,1.729,1.016,3.591,0.101,5.11c-0.707,1.172-1.991,2.148-3.29,2.922c-3.348,1.996-7.249,3.059-10.296,5.508
		c-2.908,2.337-5.547,6.129-5.297,9.915c0.126,1.906,0.96,3.713,2.496,4.961c1.471,1.194,2.789,0.911,4.53,0.528
		c1.403-0.309,2.807-0.617,4.21-0.926c5.526-1.215,11.052-2.43,16.577-3.646c2.166-0.476,4.48-1.169,6.559-0.073
		c1.929,1.017,3.351,2.818,4.733,4.414c3.019,3.487,6.561,7.582,7.12,12.182c0.315,2.593-0.441,5.798-2.464,7.617l-62.997,13.597
		l-20.796-37.945C526.916,210.662,538.657,197.057,550.619,183.661z M453.131,95.813c16.916,3.123,33.831,6.247,50.747,9.37
		c-2.71,7.153-7.137,13.59-12.939,18.829c-1.984,1.792,0.063,5.194,2.681,4.413c10.881-3.247,21.758-6.506,32.643-9.74
		c0.923-0.274,2.01-0.737,2.997-0.555c0.452,0.083,0.652,0.299,0.88,0.71c0.512,0.925,0.567,2.53,0.294,3.749
		c-0.473,2.118-1.57,4.059-2.183,6.14c-0.57,1.934-0.696,3.765-0.277,5.602l-42.545,27.917l-3.74-0.808
		c-12.596-10.542-26.336-19.993-41.627-26.565L453.131,95.813z M388.287,83.768c0.977,0.154,1.952,0.319,2.931,0.458
		c7.223,1.024,14.5,1.671,21.8,1.872c6.17,0.17,12.344,0.026,18.498-0.413l-6.772,15.344c-2.852,2.078-7.023-0.779-9.337,0.015
		c-4.611,1.582-12.759,16.22-14.679,16.661l-14.404-2.778C385.357,104.477,386.989,94.117,388.287,83.768z M352.892,90.011
		c2.298,2.159,4.195,4.781,5.328,7.634c0.495,1.246,1.885,2.375,3.39,1.844c4.736-1.67,5.606-6.016,5.992-10.336
		c0.183-2.049,0.203-3.455,0.801-5.311c0.075-0.231,0.157-0.465,0.253-0.689c0.023-0.04,0.053-0.092,0.098-0.171
		c0.131-0.23,0.263-0.46,0.422-0.674c-0.068,0.091-0.3,0.315,0.074-0.083c0.741-0.791,1.663-1.105,2.761-1.186
		c2.928-0.216,5.963,0.84,8.792,1.407c0.309,0.062,0.62,0.112,0.929,0.172l-10.84,31.66l-37.056,0.067l-2.542-31.764
		C339.078,81.941,347.251,84.711,352.892,90.011z M230.86,119.347c0.602-1.872,1.282-3.721,2.039-5.54
		c0.6-1.442,1.205-3.073,2.26-4.274c1.739-1.981,3.86-1.321,5.924,0.034c2.519,1.655,4.427,4.221,5.898,6.741
		c0.674,1.155,2.579,1.778,3.77,0.947c5.727-3.993,3.338-10.445,1.681-15.869c-0.406-1.33-0.797-2.676-1.01-4.049
		c-0.001-0.005-0.001-0.006-0.002-0.01c-0.002-0.023-0.004-0.051-0.009-0.1c-0.013-0.134-0.027-0.267-0.037-0.401
		c-0.026-0.349-0.038-0.699-0.029-1.048c0.005-0.215,0.02-0.431,0.042-0.645c0.015,0.036,0.158-0.644,0.187-0.761
		c0.025-0.1,0.064-0.201,0.102-0.299c0.018-0.043,0.037-0.085,0.048-0.106c0.142-0.258,0.287-0.53,0.478-0.759
		c0.443-0.53,1.172-0.959,1.859-1.279c2.021-0.941,4.376-1.371,6.532-1.94c10.029-2.649,20.22-4.94,30.489-6.563
		c2.221-0.351,4.575-0.576,6.763,0.05c0.736,0.21,1.646,0.65,2.354,1.106l3.013,32.646l-18.521,3.013L269.32,95.824l7.04,29.538
		l-38.279,16.007c-3.007-3.615-6.461-7.542-9.68-11.71C228.972,126.171,229.775,122.723,230.86,119.347z M133.172,199.734
		c3.681-0.977,7.391-0.844,10.938,0.534c1.5,0.583,2.873-0.659,3.39-1.844c2.959-6.789-3.267-12.588-7.427-17.312
		c-2.06-2.339-4.15-4.896-4.657-7.892c-0.553-3.271,1.131-6.493,3.27-8.956c2.419-2.784,5.371-5.062,8.496-7.081l29.849,30.787
		l-48.734,50.561l-17.43-6.987C113.797,218.62,118.441,203.642,133.172,199.734z M95.321,304.345l-18.324,7.561l0.099,0.268
		c-2.893-0.769-5.728-2.263-7.988-4.154c-3.064-2.565-5.296-5.727-6.258-9.466c-1.385-5.386-0.67-10.991,1.046-16.226
		c1.726-5.266,4.453-10.17,7.531-14.825l30.154,5.252L95.321,304.345z M65.213,374.768c1.817-2.708,3.869-5.269,6.169-7.635
		c2.167-2.23,4.517-4.328,7.043-6.182c2.588-1.9,5.442-3.416,8.075-5.25c2.693-1.876,4.963-4.062,6.622-6.851
		c1.621-2.725,2.665-5.741,3.659-8.716c1.654-4.953,3.602-9.632,6.853-13.785c6.026,1.791,12.273,4.207,16.447,4.593l2.86,32.37
		L65.213,374.768z M51.602,478.938c-0.277-1.704,0.062-3.548,0.889-5.154c2.105-4.087,6.507-6.617,10.389-8.955
		c2.736-1.648,0.902-5.357-2.123-4.826c-5.728,1.006-12.299,1.794-17.812-0.349c-2.303-0.895-4.338-2.57-5.399-4.905
		c-1.382-3.039-0.666-6.463,0.587-9.419c1.406-3.314,3.604-6.373,5.883-9.186c2.866-3.538,5.852-6.993,8.78-10.485
		c5.302-6.325,11.066-12.515,15.053-19.722c3.48-6.291,5.543-13.578,3.156-20.321l28.289-2.315l6.167,19.246
		c-5.814,4.196-19.002,12.408-22.444,18.275c-2.203,3.755-0.53,8.155-2.928,10.463c-2.399,2.309-18.856,7.14-23.126,9.549
		c-0.372,2.647,3.358,1.349,4.984,1.094c5.419-0.852,10.579-3.633,16.541-2.577c-3.257,8.219-3.781,12.159,1.501,19.779
		L51.602,478.938z M165.523,540.315c-0.777-0.846-2.041-1.285-3.373-0.605c-4.914,2.509-9.829,5.019-14.743,7.528
		c-4.731,2.416-9.409,4.993-14.237,7.226c-1.945,0.9-4.141,1.703-6.341,1.501c-2.266-0.207-4.295-1.532-6.078-2.788
		c-3.77-2.658-7.308-5.687-10.73-8.741c-7-6.249-13.448-13.099-19.134-20.474c-5.344-6.931-9.777-14.411-14.721-21.596
		c-4.341-6.31-9.249-12.355-15.43-17.035l22.357-10.607c-0.592,5.634,8.184,22.547,14.562,20.621l3.243-4.502
		c17.021,4.319,24.108,14.566,36.049,24.448c9.371,7.755,18.907,15.403,28.596,22.799L165.523,540.315z M323.903,608.441
		c-13.826,3.736-25.151,14.532-33.86,25.315c-2.348,2.907-4.581,5.892-6.747,8.923c-4.462-11.581-4.737-24.497-0.849-36.283
		c0.459-1.39-0.543-2.84-1.925-3.248c-5.577-1.647-10.809,1.937-13.487,6.439c-3.109,5.227-2.317,11.306-2.907,17.06
		c-0.508,4.95-3.097,9.109-7.196,12.126c-1.845,1.358-3.944,2.499-6.09,3.356c-2.301,0.92-5.366,2.096-7.862,1.289
		c-1.994-0.644-3.362-2.388-4.501-3.994c-1.486-2.095-2.879-4.24-4.446-6.283c-3.135-4.087-6.591-7.942-10.378-11.487
		c-7.498-7.018-16.199-12.919-25.607-17.348c-9.419-4.434-19.47-7.411-29.836-8.795c5.317-8.318,9.975-16.995,13.981-25.96
		l4.761-4.479c16.593,9.534,34.366,16.837,53.052,21.796l-8.41,35.283l28.512-58.979c20.869,5.773,42.763,10.107,64.601,10.326
		L323.903,608.441z M409.375,609.994c-3.418,1.388-6.699,3.089-10.159,4.379c-15.884,5.923-32.331-1.197-46.601-8.039
		c2.737-5.474,5.184-10.708,5.877-14.461l42.951-4.923l8.686,22.758C409.879,609.807,409.625,609.893,409.375,609.994z
		 M413.289,591.002l-5.894-11.217c-3.483-3.28-16.715,1.733-22.119,2.368c-7.265,0.854-29.01,0.936-32.794,3.965
		c-1.341,1.073-1.917,3.579-3.176,4.351c-3.906,2.394-10.628-1.661-15.359-0.758c-0.736-5.438,1.668-15.39-1.658-19.788
		c-2.86-3.782-27.326-4.431-34.262-5.506c-9.816-1.521-30.87-7.417-38.808-7.196c-5.825,0.162-5.808,4.017-9.156,7.433
		c-0.099-10.365,10.293-25.151,17.753-33.118c55.498-59.261,173.039-33.181,192.187,45.454
		C458.397,581.575,420.189,589.577,413.289,591.002z M477.347,604.33c-11.682,5.409-25.722,2.991-38.137,2.231
		c-4.879-0.299-9.772-0.428-14.635-0.048c-0.151-2.347-0.062-4.143,0.371-4.792l49.81-20.434l13.564,15.576
		C484.804,599.55,481.447,602.432,477.347,604.33z M585.676,541.051c0.058,0.005,0.121-0.001,0.18,0.004
		c-2.259,3.569-4.614,7.102-7.137,10.504c-4.962,6.689-11.02,12.943-18.99,16.294c-7.19,3.023-15.418,3.32-22.232-0.704
		c-7.338-4.333-12.95-11.586-21.849-13.144c-1.916-0.335-4.116,1.182-3.39,3.248c1.796,5.109,3.259,10.437,3.447,15.85
		c0.163,4.694-0.641,9.62-4.218,12.912c-2.23,2.052-5.189,2.938-8.135,3.708c-0.221,0.058-0.441,0.117-0.662,0.175l-15.714-31.126
		l38.541-32.5c6.042,0.006,23.871,22.784,29.256,25.107c0.819,0.354,2.613,0.279,2.278-0.716l-9.317-16.131l10.102-6.221
		C561.899,528.081,578.588,540.383,585.676,541.051z M604.875,469.37c-0.955,7.225-2.617,14.446-5.731,21.122
		c-2.838,6.084-6.828,12.133-12.567,16.038c-3.21,2.185-6.751,3.643-10.644,4.245c-0.179,0.028-0.359,0.036-0.539,0.059
		c-4.816-4.976-8.663-9.376-8.775-10.533c0.982-5.432,5.377-9.315,7.652-14.245c3.208-6.95,9.376-28.306,12.692-32.069
		c4.193-4.758,13.908-11.18,19.376-16.819c2.069-2.134,4.945-6.647,7.476-9.869C607.223,440.142,606.728,455.353,604.875,469.37z
		 M588.66,328.696c8.398-1.413,10.694,21.103,13.22,26.42l33.652-5.699c1.412,7.985-15.125,17.62-13.936,24.181l23.171,6.789
		c3.037,3.872-20.951,13.092-21.545,15.49l13.852,16.911l-25.17,5.784c-1.809,4.056-4.179,7.788-7.19,11.141
		c-31.287,34.839-83.191,57.952-129.2,68.62c-0.366,2.56,3.498,1.397,5.353,1.458c4.291,0.142,8.632-0.387,12.886,0.207
		c2.38,12.539,15.068,31.181,4.9,41.873c-3.633,3.82-17.411,12.475-19.371,15.437c-2.205,3.331,2.47,8.015,2.359,11.712
		l-16.891,5.959c-29.413-107.307-205.005-109.342-224.812,4.31c-4.004,2.656-34.47-12.344-39.938-15.617l1.559-51.052
		c2.199-3.398,17.62-1.56,20.045-6.918c-5.989-1.288-12.164,1.577-17.623,1.515c-22.655-0.257-83.258-7.884-100.816-21.479
		c-2.444-1.892-3.243-4.56-5.433-6.559c-3.927,1.961,0.068,8.507-5.371,7.345c-0.881-0.929-2.437-13.028-3.396-15.243
		c-0.975-2.253-4.111-2.07-4.427-3.454c-0.58-2.543,2.004-6.746,1.799-10.075c-0.2-3.251-2.702-4.907-3.185-7.455
		c-1.001-5.282,5.087-24.147,8.336-28.731c11.474-16.192,54.929-27.725,74.532-30.675c21.258,43.613,74.538,71.307,123.285,76.448
		l-36.422-12.997c-79.928-32.875-97.642-77.405-86.477-158.557c13.559-98.553,74.575-164.575,183.748-157.262
		c89.956,6.026,140.024,73.523,154.106,153.113c9.709,54.875,7.755,95.131-38.802,132.919
		c-22.962,18.637-45.952,26.648-72.691,37.98c-1.87,0.792-4.552,0.741-4.971,3.331c57.657-10.857,113.862-48.21,127.62-105.495
		c19.419-2.658,38.946-4.189,58.577-3.604c-0.835-1.297-0.797-2.319-0.1-3.673C578.006,345.095,584.398,336.802,588.66,328.696z
		 M589.367,299.29l-4.613-33.91l9.107-2.802c0.723,0.611,1.372,1.355,1.913,2.192c1.589,2.459,2.705,5.214,3.951,7.84
		c1.426,3.003,2.851,6.006,4.277,9.009c2.58,5.435,5.16,10.869,7.739,16.304L589.367,299.29z"/>
	<path d="M254.982,350.422c5.823-4.976,7.918-20.851,8.241-28.218c0.987-22.464-8.639-86.135-44.787-75.338
		c-23.476,7.012-28.943,73.89-22.211,92.208C202.441,355.982,243.021,360.643,254.982,350.422z M241.194,259.88
		c8.032,7.876,7.664,35.916-6.272,34.673C215.807,292.848,226.183,245.161,241.194,259.88z M205.453,283.071
		c-0.919,16.366,1.658,58.05,27.571,54.492c11.709-1.608,20.495-22.129,20.91-32.377c2.472,0.238,2.886,6.33,3.045,8.12
		c0.68,7.658,0.424,26.205-5.308,31.738c-8.034,7.755-40.435,5.237-47.724-3.045C197.061,334.176,198.777,293.121,205.453,283.071z"
		/>
	<path d="M413.281,344.891c9.175,12.508,52.605,7.489,59.749-7.437c5.276-11.024,2.542-42.914-0.396-55.327
		c-3.525-14.897-14.538-42.781-34.437-40.019c-12.988,1.802-21.404,16.791-25.026,27.675
		C407.84,285.798,403.291,331.272,413.281,344.891z M439.219,258.118c9.201,14.404,0.848,42.244-14.058,30.401
		C412.54,278.493,427.835,240.298,439.219,258.118z M413.952,303.704l12.347,22.817c10.624,12.983,24.567,8.126,30.772-5.83
		c1.022-2.298,4.583-13.111,4.583-14.775v-28.749l5.401,13.255c2.742,11.34,6.78,37.184-0.759,46.48
		c-7.692,9.484-39.043,13.913-47.785,4.454c-1.283-1.388-4.559-9.058-4.559-10.375V303.704z"/>
	<path d="M480.12,368.589c-29.826,9.541-60.493,13.646-91.566,17.669c-11.83,1.532-24.194,0.966-36.203,3.646
		c-4.935,1.102-11.802,5.242-16.083,5.276c-5.131,0.041-19.072-4.84-26.377-5.783c-9.063-1.169-20.05-0.629-29.037-1.666
		c-30.46-3.516-60.633-6.97-90.043-15.458c0.715,4.792,7.33,5.861,10.26,8.603c5.186,4.853,10.494,14.86,15.956,20.83
		c56.749,62.025,162.219,66.712,225.352,11.059C457.641,399.312,466.098,382.829,480.12,368.589z M463.193,378.909
		c-1.705,3.25-14.083,20.639-16.159,20.6l-8.425-13.99C438.71,383.702,459.521,379.869,463.193,378.909z M210.846,381.844
		l23.962,5.817c2.167,2.794-3.534,13.784-6.3,16.296C226.383,404.436,208.706,384.557,210.846,381.844z M270.828,433.445
		l-15.288-8.31l6.998-10.792C267.796,413.269,272.325,429.257,270.828,433.445z M417.881,423.109
		c-1.155,2.11-13.814,8.302-14.692,7.38l6.123-17.028C414.412,410.726,420.098,419.058,417.881,423.109z M423.174,418.087
		c-2.337-1.218-4.057-6.598-7.818-8.87c-15.593-9.421-13.656,21.671-19.224,25.583c-2.906,2.042-18.873,6.065-23.409,7.058
		c-32.088,7.026-66.474,6.763-96.511-6.921c-0.705-17.5-11.698-39.568-23.897-13.335c-1.985,1.345-15.737-8.235-17.661-10.245
		c-4.907-5.126,3.915-16.11,6.451-22.191c23.278,2.931,47.073,3.209,70.322,6.135c6.831,0.86,20.262,5.515,24.815,5.522
		c4.511,0.007,19.171-5.82,26.373-6.984c17.823-2.879,45.096-6.473,62.894-7.546c3.204-0.193,6.581-0.38,9.735,0.225l7.533,16.722
		C439.807,406.454,427.259,420.217,423.174,418.087z"/>
	<path d="M250.84,238.848l15.372,23.575C267.113,252.583,260.477,242.312,250.84,238.848z"/>
	<path d="M415.49,235.899c-3.772-3.361-17.207,18.805-13.833,23.575L415.49,235.899z"/>
</g>
</svg>
