<?xml version="1.0" encoding="utf-8"?>
<!-- Generator: Adobe Illustrator 29.7.1, SVG Export Plug-In . SVG Version: 9.03 Build 0)  -->
<svg version="1.1" id="Layer_1" xmlns="http://www.w3.org/2000/svg" xmlns:xlink="http://www.w3.org/1999/xlink" x="0px" y="0px"
	 viewBox="0 0 653.817 631.944" style="enable-background:new 0 0 653.817 631.944;" xml:space="preserve">
<g>
	<path d="M601.918,442.283l-17.115-8.266c1.272-5.028,3.211-9.882,5.841-14.423c1.697-2.93,3.644-5.728,5.85-8.328
		c2.16-2.547,4.528-5.046,6.048-8.015c1.782-3.482,1.955-7.032,1.747-10.842c-0.206-3.78-0.139-7.554,0.302-11.318
		c0.411-3.514,1.188-7.001,2.221-10.394c0.941-3.088,2.553-6.244,2.427-9.535c-0.019-0.493-0.08-0.979-0.183-1.453l30.359,4.543
		l-28.326-9.496c0.015-0.034,0.035-0.064,0.049-0.099c2.485-6.155,4.988-12.303,7.456-18.464c1.242-3.102,1.73-6.002,0.916-9.281
		c-0.765-3.083-1.766-6.073-2.325-9.207c-1.143-6.414-0.704-12.747-0.357-19.199c0.317-5.892,0.086-12.123-3.19-17.312
		c-0.811-1.284-1.802-2.505-2.93-3.597l25.827-1.654l-14.402-1.36l1.355-9.062l15.932,0.764c-0.5-2.654-3.01-2.277-4.969-2.814
		c-4.746-1.301-30.51-4.954-31.85-6.739c-0.029-0.827-0.072-1.652-0.108-2.477c0.796,1.399,2.834,2.216,4.37,0.758
		c4.559-4.327,7.394-10.017,8.132-16.114c0.324-2.679,0.038-5.332-0.051-8.014c-0.07-2.105-0.18-4.7,1.267-6.451
		c1.391-1.683,3.964-2.229,5.748-3.445c2.779-1.894,4.087-4.792,3.412-8.039c-0.632-3.037-2.712-5.563-4.324-8.168
		c-1.586-2.563-3.011-5.239-4.168-8.007c-2.227-5.327-3.675-10.913-4.292-16.607c5.86-0.369,11.04-0.796,12.458-1.466
		c0.663-0.313,1.818-1.785,1.417-2.078l-8.635-2.752l35.991-13.806c-8.708-1.72-31.831,9.17-38.135,8.264
		c-5.535-0.796,4.769-12.163,2.865-15.17c-5.65,4.172-7.608,10.692-10.287,16.679l-40.666,9.37l-17.234-33.446l22.814-25.711
		l-28.782,17.923c-12.719-20.771-12.754-41.272-15.507-64.491l29.887-34.842l-28.131,20.664l-2.825,4.154
		c-6.541-8.124-11.575-7.667-20.873-4.128c-4.424-20.959-12.855-20.002-30.24-11.043c-11.141-25.796-22.463-4.606-33.656,6.756
		c-6.157-2.734-13.905-1.143-20.543-0.406c-4.216,0.468-8.734,0.832-12.746-0.723c-2.475-0.959-4.645-2.624-6.758-4.151
		c-2.164-1.563-4.367-3.034-6.767-4.249c-10.108-5.117-21.692-6.525-32.868-7.953c-10.15-1.297-21.896-2.064-30.69,3.829
		l-1.462-28.274L328.363,0l-3.764,36.521c-3.589-0.737-7.026,1.431-9.053,4.458c-2.622,3.917-1.844,8.319-2.106,12.711
		c-0.104,1.742-0.484,3.579-1.797,4.872c-1.171,1.153-2.763,1.728-4.395,1.999c-4.256,0.706-8.407-0.911-12.342-2.24
		c-5.101-1.723-10.019-2.683-15.422-1.821c-5.158,0.822-9.982,3.024-14.661,5.168c-9.885,4.529-19.911,8.897-29.612,13.779
		c-6.904,3.474-14.132,8.797-16.981,15.862l-16.353-27.514l4.044-14.127l-8.641,6.246l-20.134-31.082
		c1.219,12.117,12.389,29.529,12.979,40.699c0.255,4.822-8.428,0.827-10.815,0.676l-0.737,2.761l15.56,5.817l2.459,8.01
		c-4.285-0.987-8.922-0.431-13.288,0.872c-6.932,2.069-13.562,6.54-21.06,6.343c-3.842-0.101-7.207-2.18-10.999-2.592
		c-4.104-0.446-7.121,1.667-10.04,4.129c-3.298,2.783-6.593,5.568-9.89,8.352c-1.35,1.14-2.971,2.221-3.966,3.684
		c-1.186,1.743-0.928,3.838,0.238,5.522c1.284,1.854,2.997,3.525,4.483,5.234c1.523,1.752,3.047,3.504,4.57,5.255
		c0.673,0.774,1.347,1.548,2.02,2.323c-1.794-0.738-3.588-1.475-5.382-2.213c-2.699-1.11-5.398-2.22-8.097-3.329
		c-2.499-1.027-5.075-2.405-7.852-2.484c-5.305-0.151-8.282,4.795-10.834,8.476c-3.055,4.406-5.979,8.896-8.768,13.461
		c-3.138,5.136-6.1,10.369-8.895,15.684c-0.257,0.49-0.335,0.967-0.301,1.415c-4.607-4.052-8.651-7.493-10.866-8.64
		c-4.114-6.48,2.705-15.28-0.654-22.846c-0.583-1.312-9.58-9.42-11.529-11.025c-1.42-1.17-9.691-7.849-10.763-6.922l18.044,19.339
		l-0.771,16.516c-1.154,1.29-15.266-10.38-17.277-11.718c-1.163-0.774-2.796-3.711-4.31-1.39l42.861,45.525
		c-4.641,11.416-13.538,16.063-22.699,23.479l14.907-4.618l2.951,2.712c-4.401,4.346-8.802,8.692-13.203,13.037
		c-3.639,3.594-7.476,7.224-8.412,12.37c-0.862,4.742,0.533,9.763-0.884,14.402c-0.679,2.224-2.046,4.178-3.137,6.227
		c-1.138,2.139-1.987,4.292-2.156,6.702c-0.142,2.017,0.278,4.198,1.392,5.934c1.376,2.144,3.388,2.916,5.725,3.786
		c0.296,0.11,0.569,0.197,0.832,0.379c0.046,0.032,0.134,0.125,0.196,0.192c0.008,0.024,0.014,0.041,0.029,0.086
		c0.026,0.076,0.062,0.382,0.022,0.614c-0.031,0.178-0.208,0.603-0.348,0.842c-0.88,1.504-2.887,1.838-4.632,1.964
		c-4.478,0.322-9.739-0.018-12.963,3.625c-4.114,4.648-0.914,10.995-0.422,16.284c0.45,4.847,0.056,9.668-1.124,14.365L0,288.39
		l27.356,8.277l-2.867,13.778l8.051-10.863l22.158,6.527c-3.876,5.265-7.751,10.53-11.627,15.794
		c-1.937,2.632-3.875,5.264-5.812,7.895c-1.824,2.478-3.976,4.921-5.488,7.588c-0.747,1.319-1.175,2.745-1.119,4.254
		c0.056,1.52,0.368,2.994,0.316,4.526c-0.104,3.063-0.96,6.046-1.417,9.067c-0.744,4.913-0.293,10.074,3.145,14.04
		c1.428,1.647,3.473,2.909,5.69,3.287c1.613,0.274,3.146,0.163,4.755-0.061c1.452-0.202,2.987-0.611,4.465-0.404
		c2.922,0.409,5.002,4.394,3.714,6.87c-0.823,1.582-2.485,2.617-4.069,3.551c-1.939,1.144-3.924,2.185-5.692,3.574
		c-4.509,3.544-5.241,9.126-2.928,14.082c1.349,2.889,3.75,5.244,6.288,7.211c2.558,1.982,5.425,4.538,8.852,4.806
		c3.19,0.25,5.591-1.566,8.26-2.846l-23.147,17.711c8.046-0.38,15.175-7.099,22.343-10.202l10.157,20.568l-44.021,30.318
		l24.468-9.638c-1.293,6.639,5.531,12.659,0.008,17.917c10.251-1.928,2.401-13.553,4.562-20.465l25.965-15.029
		c0.46,4.174,1.576,8.258,3.322,12.136c1.118,2.484,2.872,4.703,3.915,7.199c0.84,2.011,0.144,3.579-1.036,5.315
		c-1.236,1.82-2.76,3.467-3.776,5.42c-1.134,2.18-1.592,4.471-1.227,6.885c0.632,4.179,3.586,7.531,6.055,10.863
		c1.214,1.639,2.494,3.379,3.182,5.281c0.681,1.883,0.709,3.667,0.948,5.648c0.258,2.144,0.596,4.405,1.949,6.202
		c1.432,1.902,3.749,3.037,6.219,2.926c2.249-0.101,4.216-1.007,6.28-1.76c0.423-0.154,0.849-0.303,1.283-0.424
		c0.4-0.112,0.907-0.202,0.98-0.213c0.482-0.069,0.989,0.074,1.217,0.415c0.246,0.368,0.22,1.026,0.054,1.682
		c-0.235,0.928-0.669,1.799-1.26,2.57c-1.438,1.876-3.367,3.357-4.713,5.328c-1.821,2.667-2.147,5.801-0.741,8.705
		c1.394,2.88,4.165,5.109,6.442,7.339c4.621,4.527,9.243,9.054,13.864,13.582c-0.293,0.319-0.545,0.592-0.735,0.798
		c-3.328,3.599-18.481,16.272-19.451,18.626c-0.248,0.602,0.044,1.397,0.002,2.051c0.371,0.452,12.311-7.652,10.05-2.092
		c-3.131,7.701-17.858,17.648-20.131,26.929l45.358-46.907c2.923,14.268,13.301,9.908,23.059,4.249
		c9.589,17.621,15.033,12.989,28.777,2.593c3.966-0.003,7.493,9.048,14.395,9.087c8.307,0.046,7.8-9.133,9.595-10.193
		c1.614-0.953,7.462,0.167,10.427-0.371c8.627-1.565,16.111-4.17,20.227-12.141l19.948,4.291l2.41,3.05l-20.099,86.351l15.843-40
		l2.128,2.745l5.057,19.324v-26.906c0-0.709-2.381-2.888-0.873-4.801l21.971-37.14l9.149,1.242
		c-9.492,36.99,21.378,11.645,24.459,13.793c10.47,35.509,22.975,2.959,30.999,3.007c3.924,3.146,12.701,13.01,18.024,11.62
		c7.099-1.853,6.722-10.622,10.078-13.906c4.365-4.271,20.375-9.399,25.171-15.873c1.653,0.023,10.527,26.532,10.719,29.832
		c0.386,6.659-5.446,17.145-2.785,25.327l5.728-12.401l15.846,38.617l-8.518-44.083l4.182-0.088
		c-0.852-5.278-0.928-10.703-0.565-16.138c10.544,9.365,25.718,13.736,39.974,11.045c9.595-1.811,17.923-7.136,26.618-11.126
		c3.981-1.827,8.222-3.458,12.632-3.992c2.173-0.264,4.446-0.269,6.609,0.078c2.779,0.446,5.467,1.293,8.233,1.794
		c5.696,1.031,11.399,0.172,15.386-4.157c0.744-0.808,1.395-1.679,1.986-2.585l33.157,27.865c0.974-1.03-8.646-12.648-10.107-14.45
		c-2.169-2.676-8.915-8.658-10.03-11.095c-0.775-1.694,0.3-2.553,2.12-2.031c4.816,1.382,11.121,6.65,16.584,6.195
		c-6.514-5.536-14.16-10.446-21.275-15.805c4.558-1.922,8.467-5.749,11.257-9.562c2.252-3.078,4.185-6.408,6.775-9.247
		c2.592-2.842,5.678-4.441,9.177-6.054c3.354-1.546,6.757-3.421,8.619-6.647c2.141-3.708,1.902-8.127,1.665-12.218
		c-0.445-7.68-1.672-15.309-1.817-23.006c-0.1-5.291,0.374-10.758,2.404-15.64c3.345,5.721,11.518,11.917,16.312,16.074
		c-0.464-6.013-8.389-14.054-9.284-19.152c-2.314-13.181,6.107-15.777,15.711-22.183l29.584,6.826l-31.119-12.388L601.918,442.283z
		 M131.912,106.495c-0.007-0.006,0.037-0.055,0.109-0.125C131.999,106.471,131.964,106.541,131.912,106.495z M603.718,361.89
		c-0.212,2.903-1.778,5.8-2.568,8.588c-0.986,3.479-1.651,7.031-2.07,10.612c-0.421,3.594-0.517,7.212-0.329,10.823
		c0.168,3.215,0.374,6.297-1.264,9.221c-1.453,2.594-3.536,4.762-5.439,7.05c-2.195,2.64-4.2,5.412-5.933,8.352
		c-2.785,4.724-4.922,9.797-6.35,15.047l-12.188-5.887c12.736-20.963,21.692-44.273,25.771-68.338l1.572,0.235
		c0.962,0.22,1.923,0.44,2.885,0.66c1.528,0.35,3.294,0.549,4.72,1.19C603.664,359.956,603.799,360.782,603.718,361.89z
		 M607.086,180.497c0.498,4.761,1.51,9.475,3.08,14.017c1.003,2.901,2.22,5.744,3.62,8.49c1.403,2.752,3.129,5.28,4.751,7.91
		c1.054,1.709,2.491,4.131,0.497,5.617c-1.904,1.419-4.321,2.014-6.149,3.617c-4.323,3.79-3.425,9.81-3.248,14.829
		c0.216,6.124-2.113,11.975-6.67,16.302c-0.26,0.247-0.436,0.509-0.568,0.776c-1.238-23.618-5.591-46.817-10.51-69.922
		C592.731,181.36,599.711,180.93,607.086,180.497z M593.331,278.71l4.971-0.318c0.192,0.034,0.39,0.047,0.593,0.022
		c4.384-0.537,7.944,2.131,10.088,5.612c2.854,4.635,2.594,10.301,2.276,15.487c-0.374,6.099-0.559,12.026,0.364,18.095
		c0.444,2.918,1.119,5.79,1.973,8.622c0.368,1.22,0.807,2.461,0.879,3.737c0.082,1.453-0.41,2.807-0.929,4.153
		c-2.444,6.333-5.082,12.604-7.627,18.901l-18.461-6.189C593.002,324.48,594.044,301.617,593.331,278.71z M517.043,64.052
		c5.381,3.059,6.203,34.379,7.334,41.337c4.169,25.66,22.654,53.007,33.209,77.188c28.542,65.387,37.028,142.47-26.897,191.324
		l-12.243-15.794c16.874-11.034,30.803-22.886,39.146-41.197c29.154-63.98-17.868-132.933-37.72-192.725
		c-2.697-0.249-1.38,4.472-1.079,5.868c7.307,33.882,26.384,66.664,34.687,100.611c11.772,48.127,7.04,94.894-40.322,122.369
		c-10.978-9.096-21.893-18.884-33.749-27.382c10.478-12.654,18.753-26.985,24.626-42.338c6.194-16.191,9.605-33.485,9.992-50.819
		c0.199-8.91-0.477-17.794-1.859-26.595c-1.533-9.757-3.873-19.363-6.21-28.952c-4.575-18.771-9.311-37.961-7.406-57.432
		c1.593-16.287,7.914-32.243,7.51-48.608L517.043,64.052z M475.756,369.294c-10.13-8.365-12.339-34.208-14.899-46.423
		c16.236,10.084,30.642,22.526,44.475,35.466C506.96,364.366,486.083,377.823,475.756,369.294z M490.717,49.869
		c5.197-0.702,7.29,6.614,9.496,13.113c3.213,16.194-2.975,33.041-5.649,49.022c-1.615,9.656-1.799,19.368-0.755,29.097
		c1.036,9.659,3.031,19.175,5.263,28.619c4.314,18.249,9.37,36.407,9.929,55.266c0.505,17.052-2.066,34.105-7.404,50.301
		c-5.278,16.014-13.313,31.238-23.799,44.461c-0.815,1.028-1.651,2.041-2.495,3.046c-7.701-5.21-15.827-9.809-24.652-13.265
		c-0.581-11.111-5.533-24.161-6.295-34.736c-1.354-18.81,2.401-34.516-1.217-55.695c-7.444-43.582-27.232-55.3-72.199-43.763
		c-5.103,1.309-16.232,6.851-19.906,6.546c-5.751-0.477-24.309-8.212-32.752-10.116c-16.606-3.746-33.579-5.327-50.426-7.591
		c14.054-38.494,51.063-56.091,90.699-62.797c33.939-5.742,62.248,0.054,92.081-20.783
		C460.305,73.842,480.632,51.232,490.717,49.869z M334.902,46.328c3.435-2.732,8.179-3.903,12.544-4.264
		c5.222-0.431,10.483,0.078,15.66,0.744c10.097,1.299,20.762,2.54,29.938,7.061c4.556,2.245,8.208,5.766,12.715,8.045
		c4.062,2.053,8.577,2.569,13.112,2.318c4.753-0.263,9.431-1.242,14.187-1.465c1.893-0.089,3.7-0.043,5.376,0.319
		c-10.736,8.092-32.74,18.177-44.558,18.177h-21.473c-0.625-0.085-1.25-0.169-1.873-0.266l12.544-8
		c-16.317-2.489-32.605-0.957-48.972-0.007l-1.082-20.925C333.605,47.446,334.231,46.862,334.902,46.328z M414.084,79.571
		c11.989-3.148,23.488-8.363,33.585-15.527c6.991-4.96,13.326-10.789,18.709-17.466c0.14-0.173,0.253-0.36,0.354-0.552
		c2.031,2.385,3.276,6.575,2.049,9.12c-2.098,4.356-25.19,22.898-30.518,26.009c-27.135,15.842-51.939,10.356-81.436,14.424
		c-41.476,5.72-82.783,27.901-94.891,68.446l-28.641,1.539c6.052-42.075,41.476-67.847,83.235-75.477
		C349.556,84.054,383.268,89.256,414.084,79.571z M236.741,80.647c4.382-2.297,8.949-4.286,13.443-6.372
		c4.821-2.238,9.644-4.473,14.474-6.695c4.364-2.008,8.715-4.165,13.409-5.382c2.307-0.598,4.637-0.92,7.03-0.796
		c2.299,0.119,4.535,0.767,6.706,1.466c4.3,1.384,8.529,3.094,13.142,3.124c3.908,0.026,8.155-1.075,10.842-3.95
		c3.617-3.87,3.088-8.9,3.21-13.714c0.047-1.846,0.369-3.526,1.555-5.045c0.487-0.624,1.16-1.257,1.92-1.567
		c0.514-0.21,0.771-0.228,1.34,0.07c0.079,0.041,0.157,0.062,0.236,0.096l-3.515,34.1c-23.093,4.187-46.016,8.953-67.586,18.035
		c-4.456,1.876-23.689,12.735-25.908,12.109l-4.509-7.586C222.251,90.205,229.692,84.343,236.741,80.647z M91.463,155.514
		c0.824,0.002,1.63-0.39,2.129-1.338c4.581-8.711,9.62-17.197,15.117-25.407c1.351-2.017,2.727-4.02,4.133-6.002
		c0.861-1.213,1.886-2.823,3.362-3.417c1.889-0.76,4.516,0.893,6.196,1.584c2.446,1.006,4.892,2.012,7.338,3.017
		c5.651,2.324,11.302,4.647,16.953,6.971c2.86,1.176,5.426-1.748,3.339-4.147c-4.981-5.727-9.961-11.454-14.942-17.181
		c-0.645-0.741-1.289-1.482-1.934-2.223c-0.09-0.104-0.63-0.837-0.927-1.194c0.221-0.202,0.48-0.428,0.512-0.456
		c0.814-0.706,1.649-1.392,2.472-2.088c2.885-2.436,5.769-4.872,8.654-7.308c2.221-1.876,4.31-4.207,7.544-3.57
		c3.383,0.666,6.382,2.202,9.88,2.484c7.04,0.568,13.564-2.755,19.869-5.23c5.056-1.985,12.376-4.16,17.376-0.885l5.272,17.174
		l-24.709,17.785l-17.794-13.704c0.86,8.102,12.891,17.229,7.832,24.746c-1.135,1.686-10.824,13.399-11.696,13.688
		c-3.719,1.233-8.069-1.189-12.296-0.904c-13.877,0.937-25.837,12.289-32.204,23.278C109.72,171.654,100.097,163.152,91.463,155.514
		z M54.316,268.581c0.53-4.047,7.098-3.202,9.998-3.463c2.588-0.233,5.169-0.802,7.179-2.477c1.613-1.345,2.649-3.345,2.831-5.377
		c0.201-2.241-0.868-4.334-2.833-5.563c-1.434-0.897-3.771-1.023-4.706-2.355c-2.195-3.128,0.87-7.453,2.429-10.273
		c1.178-2.131,2.139-4.323,2.504-6.72c0.381-2.501,0.289-4.993,0.234-7.511c-0.051-2.307-0.068-4.647,0.74-6.852
		c0.749-2.044,2.306-3.745,3.829-5.299c5.203-5.311,10.515-10.53,15.839-15.736l4.841,4.45c-1.765,9.045-4.798,17.999-6.303,27.118
		c-2.791,16.912-2.539,15.055-8.475,30.515c-4.679,12.188-9.015,24.873-11.907,37.583l-15.651-1.827
		c0.929-3.875,1.373-7.866,1.291-11.834c-0.055-2.68-0.359-5.362-0.86-7.999C54.908,272.911,54.039,270.692,54.316,268.581z
		 M68.672,404.262c-2.722-1.478-6.754-0.859-9.501,0.592c-1.75,0.925-3.998,2.764-6.069,1.755c-2.299-1.12-4.557-3.03-6.403-4.738
		c-3.222-2.982-5.769-7.981-2.005-11.409c2.996-2.728,7.381-3.9,10.116-7.086c3.124-3.639,3.122-8.71,0.188-12.478
		c-1.409-1.809-3.355-3.266-5.673-3.827c-2.921-0.707-5.661,0.305-8.565,0.393c-3.979,0.12-5.838-3.884-6.056-7.363
		c-0.167-2.653,0.471-5.271,0.965-7.864c0.582-3.059,1.033-6.106,0.636-9.212c-0.206-1.612-0.129-2.528,0.806-3.885
		c0.964-1.398,2.013-2.748,3.021-4.117c2.147-2.916,4.293-5.832,6.44-8.749c4.346-5.903,8.692-11.807,13.037-17.71
		c0.202-0.274,0.314-0.583,0.363-0.902l4.83,1.423c0.923,0.967-7.685,17.938-8.3,21.705c-3.879,23.786,10.388,45.733,25.51,63.26
		L68.672,404.262z M139.027,529.808c-0.577,1.209-5.943,7.262-10.07,11.825c-3.893-3.814-7.787-7.628-11.68-11.442
		c-2.129-2.086-4.551-4.088-6.41-6.404c-1.333-1.66-1.64-3.166-0.458-4.963c1.302-1.979,3.3-3.443,4.713-5.349
		c1.332-1.796,2.265-4.101,2.236-6.328c-0.031-2.402-1.296-4.684-3.595-5.758c-2.155-1.006-4.525-0.723-6.71,0.041
		c-1.744,0.609-3.818,1.716-5.458,1.695c-0.476-0.006-0.881-0.161-1.181-0.429c-0.422-0.376-0.654-1.037-0.858-1.835
		c-0.496-1.945-0.498-4.003-0.814-6.048c-0.322-2.084-1.098-4.036-2.165-5.875c-2.098-3.614-5.441-6.627-7.079-10.481
		c-0.631-1.485-0.817-2.932-0.24-4.526c0.676-1.868,2.142-3.465,3.322-5.055c1.543-2.079,2.839-4.364,2.938-6.972
		c0.122-3.211-1.816-5.861-3.36-8.545c-2.811-4.887-4.296-10.35-4.493-15.904l1.591-0.921l2.839,0.125l22.873,16.83
		c0.465,26.123,7.419,52.541,24.511,73.244C140.023,527.906,139.527,528.761,139.027,529.808z M140.418,450.309
		c24.449,15.152,24.24,45.94-2.903,58.8C128.647,491.839,113.8,459.997,140.418,450.309z M306.752,513.296
		c-46.219-3.391-87.83-26.164-123.845-52.442c-0.631,2.589,1.505,3.283,2.863,4.833c16.185,18.476,39.661,30.874,61.762,41.585
		c-0.577,18.215-9.066,38.528-31.52,36.381l-1.354-7.681l-4.396-0.615l-2.902,17.939l-16.294-10.835l-14.653,12.197l-12.981-15.147
		c-2.4,5.539-8.531,5.967-13.649,8.271c-1.209-6.121,2.724-12.355,1.083-18.285c-1.03-3.723-12.548-14.186-11.171-16.185
		c22.499-10.418,31.508-29.876,18.954-51.998c-10.028-17.669-19.692-22.927-34.803-5.98c0.867-8.431-1.184-18.749,0-26.906
		c0.097-0.667,1.393-5.882,3.453-4.708c62.166,35.093,139.623,39.812,208.249,20.589
		C319.901,464.244,308.885,488.274,306.752,513.296z M430.624,529.123c-0.992-2.439,0.839-1.79,1.941-2.19
		c6.19-2.248,12.611-0.563,18.899-1.246c12.386-1.345,26.962-3.625,38.175-8.958l-51.838,2.063
		c8.467-11.149,16.325-23.518,21.862-36.303c5.758-13.296,6.865-23.473,14.515-35.732c4.726-7.573,11.719-16.948,11.875-25.912
		l-15.128,19.311c-1.096-6.333,1.498-17.133,0-22.767c-0.124-0.466-1.96-2.114-2.866-2.07c-3.875,46.36-23.23,92.865-60.484,123.51
		c-6.618,5.444-17.436,14.611-25.939,13.697l-5.781,14.573c-8.06-0.783-10.96-9.708-17.983-12.466
		c-4.298,0.001-13.7,15.461-20.858,13.835l-6.142-15.62l-22.678,5.975c1.197-31.477,4.997-62.99,18.465-92
		c2.168-4.67,11.372-22.048,14.765-24.489c5.344-3.844,21.901-8.544,29.206-12.032c17.365-8.291,32.88-16.355,45.572-30.847
		c1.357-1.55,3.494-2.243,2.863-4.833c-72.225,55.263-173.29,68.51-259.571,36.906c-33.854-12.4-74.904-39.813-90.168-72.289
		c-11.985-25.5-1.171-30.108,6.576-52.638c6.567-19.096,10.175-36.105,18.887-55.035c2.616-5.683,8.653-14.017,10.314-19.101
		c0.231-0.707,0.395-2.251-0.692-2.036l-5.033,4.133c0.695-18.566,17.729-69.103,36.361-76.225
		c16.833-6.433,39.081,8.285,50.031,19.635c-3.919,0.912-8.098,2.911-11.555,4.864c-1.86,1.051-3.637-0.249-2.829,3.431
		c50.635-18.393,112.648-17.965,164.152-2.057c3.658,1.13,12.861,6.101,13.619,6.141c3.562,0.19,18.063-6.464,23.533-7.823
		c11.513-2.861,33.674-6.035,44.01-0.189c18.965,10.726,21.419,60.582,21.087,79.82c-2.931-0.448-2.139-6.395-5.722-3.474
		c10.821,32.675,12.393,67.321,11.512,101.441c3.192-1.988,7.186-14.371,7.186-17.247v-26.906l7.058,2.969
		c-2.428,9.657,0.036,21.626,2.558,31.282c8.474,32.441,24.183,37.448,50.149,14.103c17.963,17.896,36.669,44.918,40.875,69.784
		c0.544,3.217,0.62,6.297,1.289,9.831c0.505,2.662-0.087,1.66-2.545,1.737c-5.43-14.806-17.63-39.169-32.898-17.02
		c-9.689,14.055-13.033,48.12-3.734,62.449c11.811,18.2,32.387-17.733,37.344-26.108c0.731,9.677-2.892,19.304-6.693,28.083
		c-3.431,7.925-12.792,18.759-14.859,24.398c-1.586,4.327-0.032,9.649-3.047,13.639c-2.598,3.438-18.939,13.278-22.199,5.625
		l-1.469,12.418l-13.443-5.405l-10.541,9.305l-12.705-9.088l-13.684,9.323l-3.067-10.874
		C442.695,543.415,432.643,534.089,430.624,529.123z M547.235,457.276c-0.745,7.025-17.17,32.732-25.244,32.562
		c-8.178-5.073-8.576-22.218-7.839-31.033c0.562-6.721,6.614-30.489,13.953-32.298C535.108,424.782,547.86,451.379,547.235,457.276z
		 M541.787,555.491c-2.655,3.37-6.561,4.071-10.73,3.288c-4.906-0.922-9.566-2.451-14.64-2.14
		c-4.476,0.274-8.757,1.481-12.875,3.135c-8.514,3.419-16.25,8.596-25.089,11.271c-7.688,2.327-15.946,2.09-23.603-0.234
		c-7.09-2.152-13.596-6.159-18.411-11.59c0.416-3.331,0.942-6.644,1.507-9.907c7.452-2.183,5.818,3.952,9.276,8.067
		c5.921,7.047,12.56-2.669,18.686-5.138c15.292,17.206,17.928,1.447,24.751-0.113c4.386-1.003,13.593,6.37,17.543,3.77
		c1.312-0.863,0.941-6.562,1.897-7.832c0.562-0.746,15.089-5.732,17.638-7.257l15.276,12.837
		C542.645,554.287,542.247,554.908,541.787,555.491z M589.089,497.374c0.362,3.746,0.747,7.532,0.686,11.298
		c-0.029,1.778-0.207,3.627-1.161,5.193c-0.775,1.272-1.993,2.181-3.29,2.932c-3.008,1.743-6.409,2.796-9.267,4.786
		c-3.35,2.332-5.87,5.424-8.173,8.688c-2.43,3.444-4.598,7.078-7.855,9.888c-2.121,1.831-4.745,3.342-7.54,3.603
		c-7.111-5.952-13.177-12.699-16.24-21.505c15.192-20.101,23.825-41.834,24.709-66.902l12.912-13.487l18.579,9.184
		c0.953,2.675,0.902,4.845,1.107,7.176C585.703,469.629,587.825,484.294,589.089,497.374z"/>
	<path d="M350.994,254.196c-15.875,3.161-33.625,27.066-39.584,40.718c-4.488,10.281-14.377,42.728-6.771,51.365
		c7.499,8.515,47.286,8.411,58.827,6.789c7.86-1.105,22.486-3.712,26.123-10.847c9.714-19.052-0.199-54.592-11.115-72.204
		C371.651,259.007,366.041,251.2,350.994,254.196z M309.641,314.599l10.052,33.108C299.023,345.314,308.073,328.231,309.641,314.599
		z M345.485,299.938c-2.124,21.329-21.517,22.417-21.567-1.218c-0.015-7.181,4.81-29.545,15.543-20.969
		C343.706,281.142,346.018,294.583,345.485,299.938z M385.245,339.439c-3.718,7.693-25.306,9.15-33.854,9.635
		c19.499-18.851,18.907-54.177,4.923-75.764c-2.114-3.263-8.632-9.126-9.232-10.48c-1.256-2.837,9.91-5.15,12.155-4.847
		c8.569,1.156,19.922,24.825,22.444,32.417C385.656,302.365,390.687,328.178,385.245,339.439z"/>
	<path d="M218.585,383.975c-3.214,0.807-9.721,4.595-11.932,4.599c-1.382,0.003-19.628-9.891-24.888-11.499
		c-18.934-5.787-40.606-6.437-60.263-11.253c-13.421-3.288-26.199-8.759-39.419-12.582c2.421,4.588,10.037,5.43,13.016,8.902
		c2.582,3.01,4.08,10.572,6.365,14.599c37.096,65.391,200.281,70.966,254.263,24.103c9.035-7.843,15.005-18.272,23.027-26.907
		c-15.605,3.172-32.208,7.375-48.185,8.323C294.894,384.377,252.556,375.443,218.585,383.975z M120.973,371.172l20.153,4.147
		l-9.314,11.093C127.419,386.786,119.959,372.096,120.973,371.172z M199.875,421.815c-29.379-4.627-86.857-22.016-95.915-52.991
		c-2.011-6.876,9.63,0.928,11.964,0.963l12.402,23.285c8.566,3.392,15.431-15.245,19.199-15.845
		c21.733,1.633,40.896,6.775,59.122,18.298c32.758-15.912,70.072-4.865,105.159-6.441c3.938,0.735,6.622,12.101,11.286,16.09
		c2.803,2.397,6.643,2.129,8.126,4.608C290.655,425.891,243.046,428.614,199.875,421.815z M367.232,380.837
		c-1.617,6.47-30.087,29.52-34.563,26.189l9.498-20.839L367.232,380.837z M329.068,402.877c-4.552-3.93-9.347-8.754-9.354-15.147
		l17.266-1.383C338.93,388.526,332.172,401.057,329.068,402.877z"/>
	<path d="M155.414,334.489c10.381-9.838,7.22-41.903,4.007-54.671c-3.801-15.108-16.043-41.97-35.969-38.035
		c-15.893,3.139-30.958,44.528-32.578,58.467c-0.585,5.036-1.024,18.716-0.119,23.28
		C93.602,337.882,144.494,344.837,155.414,334.489z M149.1,291.197c-1.52,5.335-8.94,16.481-14.824,10.64
		c-4.808-4.773-3.011-16.147-1.375-22.032C141.266,249.721,154.849,271.019,149.1,291.197z M111.555,259.351
		c5.615-8.976,15.011-20.048,25.225-8.92c-24.079,17.188-32.73,56.663-18.695,82.084c-6.132,0.702-21.829-4.495-23.012-10.364
		C92.014,306.983,103.116,272.842,111.555,259.351z"/>
	<path d="M226.673,252.446c2.366-0.085,4.365-1.347,6.457-2.185c14.077-5.64,46.329-25.689,60.532-34.442
		c49.777-30.674,8.962-34.161-26.097-31.903c-18.754,1.208-45.101,5.503-61.655,14.059c-6.194,3.201-14.869,8.503-14.075,16.255
		C192.853,224.164,215.957,252.832,226.673,252.446z M198.016,209.747c5.687-11.76,55.051-19.427,68.113-20.31
		c9.546-0.645,21.637-1.134,31.069-0.229c3.094,0.297,13.317,1.385,13.573,4.632c-3.03,6.133-9.389,10.452-15.099,14.243
		c-19.951,13.245-45.326,22.764-65.189,36.905c-5.573,2.427-10.385-2.253-14.485-5.578
		C209.993,234.543,194.302,217.426,198.016,209.747z"/>
	<path d="M410.15,432.212c-20.46,0.353-72.452,21.324-60.464,47.531c13.623,29.782,47.387-8.143,57.605-22.596
		C411.685,450.93,425.053,431.955,410.15,432.212z M367.25,485.097c-9.354,2.448-15.409-8.8-14.392-16.532
		c1.961-14.918,44.504-30.303,59.013-31.162C407.243,451.333,381.475,481.375,367.25,485.097z"/>
	<path d="M277.636,273.707c10.029-2.662,23.868-27.555,19.825-37.838c-1.352-1.906-3.566-1.294-5.467-1.046
		c-7.881,1.03-35.607,17.827-36.867,25.575C253.786,268.647,271.011,275.466,277.636,273.707z M262.749,263.578
		c-1.232-1.479-0.687-2.665,0.045-4.169c2.104-4.321,26.928-20.411,29.544-17.94C288.79,254.342,279.345,277.599,262.749,263.578z"
		/>
	<path d="M250.201,295.607c-5.217,0.846-20.113,7.946-19.486,13.946c4.349,8.716,11.947,16.713,22.094,18.761
		c8.987-0.435,11.277-26.328,6.5-32.424C257.308,294.547,252.687,295.204,250.201,295.607z M253.415,321.463
		c-3.953,2.668-15.079-8.828-15.778-12.989c0.425-1.866,16.88-9.392,18.698-7.684L253.415,321.463z"/>
	<path d="M193.381,271.284c-0.688,5.615,7.277,27.246,15.268,22.433c4.03-2.427,7.413-24.449,5.696-29.259
		C211.786,257.287,194.321,263.603,193.381,271.284z M205.222,286.989l-6.332-15.653l11.358-5.031L205.222,286.989z"/>
	<path d="M351.037,502.508c-6.317,1.159-19.623,12.85-14.87,19.156c5.938,3.154,35.828,3.701,33.372-5.62
		C367.589,508.646,359.578,500.941,351.037,502.508z M341.317,518.799c2.383-12.924,19.089-15.779,23.036-1.387L341.317,518.799z"/>
	<path d="M179.105,264.829c5.027-3.035,4.965-17.885,3.046-21.966c-1.98-4.209-12.366-8.193-17.033-6.726
		c-4.646,1.46-0.929,7.416,0.246,10.396C166.888,250.395,173.97,266.25,179.105,264.829z M176.428,244.206l0.689,11.054
		l-8.626-13.784L176.428,244.206z"/>
	<path d="M302.44,270.438l12.946-16.544C312.726,251.445,301.209,266.875,302.44,270.438z"/>
	<path d="M218.904,368.398c4.886,0.246,10.9-2.843,10.065-8.266C224.151,360.741,217.967,362.608,218.904,368.398z"/>
	<path d="M167.037,528.465c-1.141-4.861,5.356-11.14,10.095-12.442C171.456,508.403,155.838,524.066,167.037,528.465z"/>
</g>
</svg>
