<?xml version="1.0" encoding="utf-8"?>
<!-- Generator: Adobe Illustrator 29.7.1, SVG Export Plug-In . SVG Version: 9.03 Build 0)  -->
<svg version="1.1" id="Layer_1" xmlns="http://www.w3.org/2000/svg" xmlns:xlink="http://www.w3.org/1999/xlink" x="0px" y="0px"
	 viewBox="0 0 571.832 195.999" style="enable-background:new 0 0 571.832 195.999;" xml:space="preserve">
<g>
	<path d="M569.586,66.855c-1.553-1.011-34.639-7.784-36.723-7.487c-8.666,1.231-5.169,11.842-12.275,15.031l-4.453-18.154
		c-7.187-2.11-45.984-9.292-48.677-5.017l-4.663,26.537c-12.55-2.113-22.406-1.466-33.425,5.169l-6.453-43.526
		c-1.176-1.627-11.834-3.149-14.742-3.376c-14.236-1.108-20.969,2.444-33.008,4.56c-9.954,1.75-20.026,3.046-30.051,4.232
		c-2.552,1.984-0.068,16.789-5.837,14.615c-8.483-3.198-19.315-16.13-32.286-12.799l26.394-18.406l-21.168-28.18
		c-9.607-1.731-35.02,38.598-44.297,44.529l3.452,12.731c-16.441,5.787-26.383-24.966-41.779-17.638
		c-5.357,2.55-3.186,8.414-9.359,6.987l-3.605-10.818c-2.801-0.455-51.438,13.873-54.263,16.136
		c-6.17,4.94,2.021,19.455-0.016,26.699c7.281-0.024,10.361-2.125,8.894,6.386c-11.52-4.381-25.561-3.136-35.553,4.268
		c5.148-54.117-55.213-58.413-96.3-44.325C31.445,47.734,0.196,62.565,0,71.138c-0.065,2.836,16.22,33.063,18.948,35.32
		c4.327,3.579,6.902-0.346,12.085-0.031l33.488,89.572l43.98-15.341c4.491-7.42-8.865-36.095-8.592-45.535
		c0.136-4.723,3.288-2.43,5.738-5.235c3.823,38.219,39.002,51.629,71.159,29.838l1.123,12.835c9.132-0.31,38.653,2.413,41.852-7.892
		c2.205-7.102-2.851-16.673,3.753-21.938c17.196,8.635,35.422,20.666,53.031,28.051c4.885,2.049,21.383,10.221,23.741,2.835v-35.206
		l26.687-6.389l-2.047,16.909l41.852,6.314c2.737-1.85-0.407-12.575,6.906-10.435c0.751,11.344,2.892,17.029,15.582,12.781
		l3.67,12.919l41.731,4.061l3.138-4.709l-1.805-10.103l26.69-2.15l2.085,14.019l29.068,3.068l-0.092,9.592
		c14.418,0.374,36.284,19.333,41.897-0.451l35.987-110.782C572.061,70.655,571.92,68.376,569.586,66.855z M313.619,12.523
		c0.519,5.818,9.558,11.327,5.723,17.094l-32.374,14.9C284.361,42.23,311.855,11.345,313.619,12.523z M89.377,128.149l8.617,45.108
		l-22.355,7.809L39.965,87.2l-11.092,3.338L16.507,67.94c23.435-15.544,56.918-26.731,84.815-17.143
		C144.296,65.567,119.922,114.597,89.377,128.149z M184.368,134.972c-9.219,20.192-38.87,31.996-56.848,15.521
		c-13.303-12.192-8.906-35.808,3.62-47.363C158.537,77.858,201.193,98.119,184.368,134.972z M285.86,159.733l-74.547-40.526v40.54
		l-20.007,2.147c-6.074-12.969,4.163-19.758,6.112-31.463c3.937-23.635-6.88-24.209-10.123-38.333
		c-1.041-4.535-1.231-29.022-2.699-30.484l-11.095-0.029c-0.693-4.491-0.263-3.464,2.799-4.772
		c7.996-3.415,19.28-3.763,27.261-7.987l3.313,31.962c5.165,1.333,3.72-1.163,5.091-2.699c3.687-4.133,20.808-29.272,22.709-29.258
		l20.149,17.055c2.114,2.536,0.229,3.476-1.123,5.36c-7.185,10.014-20.602,18.999-26.845,27.661
		c-1.299,1.802-3.098,2.109-2.188,5.334c24.571,6.474,39.666,28.664,64.255,34.416L285.86,159.733z M260.796,84.512
		c5.047-28.252,57.646-41.684,72.717-13.605l-33.184,37.632c9.166-0.337,22.429-14.643,28.863-11.811
		c3.816,1.68,7.145,10.071,13.388,9.717C316.669,137.819,251.374,137.249,260.796,84.512z M402.638,159.758l-2.236-51.218
		c-7.229,2.751-10.711,30.03-13.354,32l-18.884-34.091c-4.666-0.036-4.607,31.262-7.981,36.066l-19.844-1.976
		c-0.815-0.749,2.372-19.076,3.249-21.43c1.59-4.268,9.916-10.834,9.613-13.804c-0.217-2.128-5.548-3.473-5.668-8.012
		c-0.3-11.305,9.187-31.678,9.415-44.32l21.012-1.832c1.977,1.627,3.729,27.416,11.319,29.658l6.91-33.929l17.474-0.094
		c-0.493,12.082,7.763,32.834,6.75,43.552c-0.324,3.423-6.41,10.277-8.238,15.61c-7.272,21.215,0.08,36.864,12.723,53.787
		L402.638,159.758z M420.574,132.959c-12.559-36.149,34.236-61.274,56.933-36.473C508.141,129.961,435.095,174.754,420.574,132.959z
		 M525.952,179.093l-18.452-5.749c-1.076-10.525,0.398-21.187-0.306-31.712c-0.499-7.457-1.673-20.271-5.552-26.681l-7.871,46.827
		l-20.079-3.262c-1.63-11.089,5.885-10.509,8.996-14.726c10.437-14.147,16.009-28.269,7.205-45.311
		c-2.212-4.283-8.161-7.53-9.053-10.679c-2.465-8.708,10.195-18.339-2.505-25.136c1.714-2.06,2.085-2.674,4.946-2.72
		c7.07-0.113,17.894,4.67,25.856,4.074l13.68,53.039l15.453-46.064l22.346,3.426L525.952,179.093z"/>
	<path d="M75.594,76.543l8.932,38.395C113.894,105.603,111.078,70.819,75.594,76.543z"/>
	<path d="M311.427,74.427c-17.342-6.63-37.223,0.446-35.726,20.214c0.444,5.867,4.91,16.79,12.436,11.88
		C292.683,103.555,313.73,77.621,311.427,74.427z"/>
	<path d="M169.053,104.281l-0.331,10.348c-13.921,7.112-21.709-3.338-13.03-14.604c-19.681,0.621-17.822,29.21,1.067,29.616
		C170.092,129.928,185.941,109.237,169.053,104.281z"/>
	<path d="M464.957,99.991c-1.706,25.74-33.233,9.641-11.137-8.501c-37.037,4.706-8.956,51.856,12.369,27.851
		C475.035,109.383,469.159,95.042,464.957,99.991z"/>
</g>
</svg>
