<?xml version="1.0" encoding="utf-8"?>
<!-- Generator: Adobe Illustrator 29.7.1, SVG Export Plug-In . SVG Version: 9.03 Build 0)  -->
<svg version="1.1" id="Layer_1" xmlns="http://www.w3.org/2000/svg" xmlns:xlink="http://www.w3.org/1999/xlink" x="0px" y="0px"
	 viewBox="0 0 702.701 672.135" style="enable-background:new 0 0 702.701 672.135;" xml:space="preserve">
<g>
	<path d="M670.026,332.544c-7.129,0.594-14.384,1.593-21.688,2.647c-1.681-1.635-3.779-2.619-6.022-3.579
		c-4.223-1.806-7.472-4.804-9.265-8.711c12.398-1.524,24.954-3.486,27.979-7.094l41.671-144.733
		c-0.719-1.765-2.107-2.22-3.921-2.495c-7.943-1.208-36.803,9.839-45.842,13.233c-23.026,8.646-44.945,19.592-66.765,30.704
		c-0.025-0.023-0.042-0.052-0.069-0.074c-3.31-2.788-5.497-6.718-5.905-10.949c-0.208-2.158-0.022-4.291,0.641-6.365
		c0.795-2.485,2.143-4.795,2.061-7.474c-0.026-0.854-0.158-1.649-0.379-2.387c8.672-7.641,17.221-15.794,25.228-22.795
		l-26.58,20.122c-3.604-4.815-12.041-5.966-17.765-4.471c-3.344,0.873-6.824,2.485-10.356,3.397
		c0.111-0.048,0.222-0.093,0.333-0.142c3.167-1.399,6.067-3.613,6.893-7.028c0.879-3.635-0.544-7.359-2.548-10.419
		c-1.059-1.617-2.311-3.139-3.655-4.547c-1.352-1.416-2.881-2.963-4.638-3.911c-0.861-0.464-1.704-0.714-2.531-0.806
		c26.992-25.964,49.291-55.649,66.297-89.7c4.821-9.653,25.15-55.757,19.642-63.242c-4.258-5.786-38.985,6.022-46.02,8.624
		c-56.882,21.034-104.286,65.293-139.888,113.162c-0.013-0.582-0.242-1.179-0.802-1.711c-8.176-7.778-18.089-13.709-28.937-17.38
		c2.564-8.022,5.128-16.043,7.692-24.065c1.575-4.928,3.15-9.856,4.725-14.783c0.195-0.611,0.1-1.248-0.179-1.804l0.978-3.24
		l-1.175,2.906c-0.364-0.525-0.905-0.941-1.549-1.111c-1.576-0.415-2.828,0.517-3.39,1.844c-3.947,9.323-7.893,18.646-11.84,27.969
		c-1.99,4.702-3.981,9.404-5.971,14.106c-0.995,2.351-1.99,4.702-2.986,7.053c-0.42,0.992-0.805,2.007-1.265,2.983
		c-0.221,0.468-0.373,0.977-0.898,1.08c-1.038,0.203-2.704-0.652-3.667-0.939c-1.38-0.412-2.761-0.823-4.141-1.235
		c-1.89-0.564-3.779-1.127-5.669-1.691c0.868-10.033,2.183-20.025,3.953-29.953c1.788-0.891,3.686-1.613,5.575-2.396
		c4.399-1.826,7.43-4.703,9.65-8.754c1.953-3.564,3.694-7.124,6.223-10.367c2.319-2.974,5.106-5.648,8.107-7.989
		c4.085-3.186,8.804-5.73,13.812-7.454c3.582-0.9,7.206-1.653,10.795-2.368c2.991-0.596,2.379-5.524-0.733-5.186
		c-0.245,0.027-0.487,0.072-0.731,0.102c0-0.002-0.001-0.005-0.001-0.007c-0.04,0.008-0.081,0.016-0.121,0.024
		c-3.278,0.409-6.501,1.12-9.63,2.105c-13.572,3.332-27.311,8.734-34.154,20.939c-1.101,1.963-2.007,4.029-3.241,5.923
		c-1.178,1.809-2.691,3.045-4.691,3.972c-2.089,0.968-4.31,1.643-6.377,2.665c-1.72,0.851-3.337,1.861-4.871,2.989
		c-5.649,4.153-9.657,9.749-12.661,15.841c-8.167-0.532-16.351-0.812-24.538-0.802c-2.416,0.003-4.845-0.023-7.258,0.093
		c-2.152,0.103-4.408,0.413-6.277,1.516c-2.959,1.746-4.158,4.884-4.811,7.994c-0.274,1.306-0.487,2.632-0.849,3.92
		c-1.74-2.53-4.538-4.353-7.708-5.402c-5.854-1.938-11.873-0.364-17.654,1.014c-3.088,0.736-6.112,1.314-9.309,1.258
		c-3.301-0.059-6.601-0.529-9.904-0.292c-3.329,0.238-6.372,1.246-8.911,2.986c-1.824-3.201-3.649-6.402-5.473-9.603
		c0.006-0.05-0.001-0.104,0.007-0.153c0.195-1.177,1.694-1.735,2.659-2.225c2.844-1.443,5.767-2.749,8.76-3.882
		c2.938-1.112,5.982-1.89,8.937-2.936c3.106-1.099,5.372-3.259,5.148-6.633c-0.106-1.598-0.599-3.179-0.972-4.732
		c-0.43-1.79-0.861-3.58-1.291-5.369c-1.804-7.5-3.607-15-5.411-22.5c-0.834-3.306-6.11-1.906-5.315,1.404
		c1.143,4.531,1.953,9.124,2.351,13.771c0.187,2.186,0.293,4.378,0.319,6.571c0.023,2.043,0.147,4.217-0.259,6.234
		c-0.351,1.745-1.146,2.855-2.759,3.731c-1.94,1.054-4.051,1.856-6.076,2.746c-3.604,1.585-7.207,3.169-10.811,4.754
		c-1.196-4.681-2.645-9.301-4.361-13.828c-1.704-4.495-3.659-8.905-5.832-13.21c-1.362-2.697-5.96-0.804-5.037,2.034
		c2.138,6.575,4.277,13.15,6.415,19.725c-3.789,1.902-7.579,3.803-11.368,5.705c-3.347,1.68-7.981,3.225-8.993,7.156
		c-0.515,2,0.034,4.063,0.428,6.035c0.407,2.035,0.813,4.07,1.22,6.106c0.128,0.642,0.257,1.284,0.385,1.926
		c-2.568-1.92-5.534-3.312-8.752-3.857c-5.635-0.953-11.607,0.57-15.723,4.302c-26.509-34.301-60.97-64.101-99.031-84.401
		C95.889,16.827,53.549-2.589,37.891,0.288c-7.995,1.469-0.486,22.004,1.265,28.13c19.981,69.895,71.908,122.952,131.222,164.643
		c1.11,0.78,3.07,1.889,5.263,3.14c-0.231,0.192-0.434,0.431-0.587,0.738c-2.962,5.929-5.4,12.07-7.312,18.359
		c-0.392,1.047-0.774,2.096-1.159,3.145c-4.852,0.525-9.938,0.972-13.621,1.176c-4.253-4.078-8.506-8.157-12.758-12.235
		c-2.195-2.105-4.39-4.209-6.584-6.314c-1.662-1.594-3.383-3.325-5.675-3.84l-19.913-22.416l16.718,22.553
		c-2.108,0.665-3.802,2.347-5.346,3.817c-2.093,1.992-4.164,4.007-6.213,6.042c-8.193,8.14-16.021,16.618-23.456,25.401
		c-1.728,2.042-3.844,4.09-4.802,6.597c-0.156,0.408-0.251,0.82-0.32,1.233l-11.148-5.414c-0.106-1.536,0.727-3.327,1.138-4.759
		c0.557-1.94,1.113-3.881,1.67-5.821c1.113-3.881,2.227-7.761,3.34-11.642c0.329-1.147-0.223-2.37-1.266-2.982
		c-2.713-1.592-5.543-2.994-8.456-4.212c-2.396-2.227-5.627-3.471-9.286-2.761c-2.783,0.54-2.458,4.381,0,5.092
		c2.144,0.62,4.226,1.372,6.275,2.198c1.543,1.858,1.903,4.368,1.953,6.67c0.06,2.81-0.255,5.63-0.463,8.43
		c-0.134,1.801-0.268,3.603-0.401,5.404c-7.095-2.565-14.085-5.382-20.948-8.461l-16.74-8.129c-1.804-0.946-3.6-1.907-5.384-2.889
		c-3.082-1.695-5.846,2.842-2.782,4.56c25.511,14.3,51.42,27.945,77.69,40.922l9.629,33.097c-0.651,1.803-2.064,2.161-3.832,2.44
		c-2.028,0.32-18.111,1.732-19.258,1.586c-4.483-0.567-6.592-6.283-10.549-7.768l2.573,9.293l-19.788,33.735
		c-17.864-0.952-35.601-4.017-53.4-5.518c-1.78-0.15-5.479-1.837-5.158,1.085l86.235,17.007l9.073,26.752
		c-3.241,1.232-6.482,2.464-9.723,3.696c-2.146,0.816-4.293,1.633-6.44,2.448c-2.168,0.008-4.368-0.317-6.272-1.355
		c-2.031-1.107-3.212-2.868-4.479-4.685c-1.475-2.115-3.114-4.244-5.604-5.318c-3.235-1.396-6.62-0.609-9.891,0.228
		c-7.875,2.016-15.749,4.032-23.624,6.048c-3.443,0.881-1.987,5.815,1.465,5.092c6.281-1.316,12.561-2.632,18.842-3.948
		c1.481-0.31,2.958-0.647,4.446-0.924c0.591-0.11,1.183-0.195,1.787-0.188c0.272,0.003,0.498,0.006,0.754,0.052
		c-0.06-0.011,0.974,0.337,0.648,0.184c0.731,0.342,0.949,0.554,1.533,1.243c0.04,0.047,0.314,0.43,0.52,0.748
		c0.245,0.379,0.471,0.769,0.691,1.162c1.721,3.083,3.181,6.421,6.386,8.187c-4.359,1.529-8.754,2.967-13.186,4.303
		c-2.493,0.752-2.388,3.602-0.772,4.722l-2.418,0.963c2.395-0.075,5.1-0.587,7.99-1.369c8.55-1.992,17.099-3.983,25.649-5.975
		c1.206,2.242,1.809,4.767,1.729,7.322c-0.143,4.576-3.373,8.31-3.619,12.871c-0.134,2.482,0.544,4.963,1.208,7.341
		c0.759,2.717,1.525,5.433,2.288,8.149c0.147,0.525,0.295,1.049,0.442,1.574c-12.011,3.551-24.075,6.941-36.191,10.151
		c-7.271,1.927-14.56,3.79-21.865,5.595c-3.034,0.75-2.363,5.153,0.733,5.186c6.328,0.068,12.656,0.137,18.985,0.206
		c0.381,0.072,0.787,0.079,1.207,0.013c0.799,0.009,1.597,0.017,2.396,0.026c1.64,0.018,3.343-0.084,4.977,0.064
		c0.021,0.002,0.107,0.005,0.204,0.009c-0.089,0.512-0.298,1.339-0.292,1.314c-0.91,3.406-1.838,6.809-2.756,10.213
		c-0.942,3.489-1.884,6.979-2.825,10.468c-0.804,2.98-1.399,6.15-2.657,8.994c-1.182,2.671-3.313,4.268-5.829,5.741
		c-3.071,1.798-6.169,3.555-9.253,5.331c-7.212,4.154-14.425,8.307-21.637,12.461c-3.048,1.755-0.348,6.158,2.782,4.56
		c29.01-14.815,58.021-29.63,87.031-44.445c-10.66,8.163-21.32,16.326-31.98,24.49c-0.943,0.722-0.993,2.268-0.431,3.2
		c2.053,3.405,6.314,2.947,9.708,2.099c4.415-1.103,8.83-2.206,13.245-3.31c3.834-0.958,7.668-1.916,11.502-2.874
		c3.662,5.391,7.323,10.782,10.985,16.173c2.286,3.365,4.91,6.898,8.982,8.374c1.921,0.696,4.076,0.659,5.981-0.061
		c0.731-0.276,2.881-1.705,3.635-1.36c0.621,0.283,1.211,2.417,1.448,2.956c0.567,1.289,1.135,2.578,1.702,3.867
		c0.188,0.427,0.376,0.854,0.564,1.281c-6.882,5.679-13.765,11.357-20.647,17.036c-10.527,8.686-20.927,17.574-33.104,24.119
		c-6.85,3.682-13.984,6.865-20.67,10.827c-2.558,1.516-0.937,5.833,2.123,4.826c4.758-1.566,9.515-3.132,14.273-4.697
		c-4.324,3.943-8.523,8.013-12.576,12.216c-1.1,1.141-0.954,2.572,0,3.734c2.503,3.049,6.987,1.567,9.663-0.382
		c3.415-2.487,6.48-5.57,9.598-8.389c0.453-0.409,0.887-0.832,1.336-1.244c7.459,7.518,14.917,15.036,22.376,22.554
		c0.807,0.814,2.339,1.033,3.339,0.413c7.777-4.82,16.154-8.586,24.945-11.257c-2.782,3.761-5.565,7.522-8.347,11.283
		c-3.29,4.448-9.22,11.263-3.615,16.35c1.214,1.102,2.763,1.846,4.2,2.637c1.592,0.877,3.184,1.753,4.776,2.63
		c3.159,1.74,6.305,3.506,9.48,5.219c2.866,1.545,5.976,2.663,9.263,1.676c2.927-0.879,5.233-2.881,7.849-4.328
		c4.913-2.716,10.449-4.064,16.068-4.119c-0.422,0.759-0.844,1.518-1.265,2.277c-2.881,5.184-5.762,10.368-8.643,15.552
		c-1.436,2.584,1.894,4.915,3.912,3.59c0.231,0.324,0.528,0.617,0.872,0.87c4.87,3.586,10.976,1.983,16.683,1.756
		c1.882,0.172,3.764,0.344,5.646,0.515c0.659,0.186,1.304,0.425,1.929,0.739c2.816,1.413,5.171,3.556,7.355,5.926
		c0.739,0.922,1.514,1.819,2.347,2.672c1.6,1.887,3.16,3.802,4.807,5.524c2.744,2.87,5.905,5.535,9.676,7.076
		c1.148,0.469,2.397,0.49,3.339-0.413c0.829-0.794,1.104-2.232,0.431-3.2c-6.484-9.326-12.967-18.652-19.451-27.979
		c-0.574-0.825-1.213-1.663-1.825-2.521c1.793-2.745,3.114-5.749,4.314-8.782c16.019-2.494,32.449-2.726,48.529-0.644
		c5.084,0.659,10.133,1.568,15.13,2.676c0.316,0.07,0.608,0.077,0.888,0.057c-0.389,6.364-0.469,12.727,0.921,19.025
		c0.585,2.65,4.573,2.372,5.315,0c0.137-0.438,0.262-0.879,0.395-1.318c0.243,1.835,2.514,2.728,4.044,2.101
		c0.186,0.311,0.367,0.625,0.565,0.931c1.362,2.099,2.938,4.052,4.621,5.924c1.569,2.189,3.455,4.168,5.693,5.833
		c1.174,0.874,2.753,1.097,3.897,0c1.064-1.019,1.046-2.713,0-3.734c-1.698-1.658-3.425-3.363-5.049-5.146
		c-3.099-4.303-4.751-9.532-5.114-14.804c-0.471-6.856,1.001-13.586,3.069-20.134c1.993,0.356,4.044,0.552,5.926,1.291
		c3.162,1.241,5.741,3.549,7.94,5.994c2.427,2.698,4.404,5.744,6.358,8.764c2.322,3.589,4.543,7.239,6.659,10.943
		c4.728,8.278,8.935,16.828,12.567,25.599c0.776,1.873,2.951,2.58,4.606,1.165c4.582-3.917,3.617-10.352,1.642-15.28
		c-2.531-6.319-5.868-12.428-8.987-18.502c2.871-4.179,9.472-5.242,13.699-2.501c2.129,1.381,3.464,3.632,4.715,5.822
		c1.385,2.425,2.576,4.976,4.239,7.245c1.986,2.71,4.537,4.914,7.974,5.708c2.283,0.527,4.387-1.849,3.112-3.879
		c-3.813-6.07-7.627-12.141-11.44-18.211c-0.894-1.424-1.772-2.858-2.683-4.272c-0.944-1.465-2.101-2.894-3.908-3.399
		c-3.41-0.951-7.02,1.79-9.85,3.265c-2.046,1.066-4.959,3.412-7.24,1.769c-1.018-0.733-1.796-1.804-2.547-2.774
		c-1.082-1.399-2.161-2.799-3.242-4.198c-2.161-2.799-4.323-5.597-6.484-8.396c-1.213-1.571-2.518-3.127-3.758-4.717
		c0.289-0.274,0.569-0.568,0.831-0.906c1.263-1.631,2.138-3.56,3.121-5.351c1.173-2.138,2.346-4.275,3.52-6.413
		c0.693-1.262,1.386-2.525,2.078-3.787c1.843-1.639,3.686-3.279,5.529-4.918c0.771,0.576,1.629,1.07,2.47,1.6
		c2.139,1.35,4.278,2.699,6.416,4.049c8.784,5.543,17.568,11.086,26.353,16.629c4.815,3.039,9.631,6.077,14.446,9.116
		c0.18,0.35,0.364,0.699,0.539,1.051l12.627,48.956c0.515,2.995,1.043,5.989,1.63,8.972c0.14,0.71,0.546,1.205,1.073,1.51
		l0.789,3.059l-0.484-2.916c1.661,0.684,4.159-0.245,4.034-2.355c-0.862-14.612-1.212-29.25-1.03-43.884
		c0.002-0.165,0.008-0.331,0.01-0.496c0.073-0.009,0.15-0.021,0.222-0.029c6.499-0.729,13.005-1.418,19.5-2.189
		c2.861-0.34,5.58-0.848,7.846-2.678c1.645-1.328,2.668-3.15,3.446-5.037c0.813-1.972,1.272-4.052,1.924-6.073
		c0.341-1.055,0.594-1.775,1.105-2.659c0.175-0.303,0.364-0.588,0.563-0.854c5.743,3.659,7.624,11.326,10.279,17.125
		c0.889,1.941,1.812,4.233,3.719,5.463c2.517,1.624,5.219,0.599,7.632-0.615c5.348-2.692,10.686-5.401,16.029-8.102
		c2.73-1.38,5.459-2.759,8.189-4.139c-0.439,1.368-0.769,2.773-0.959,4.21c-0.678,5.13,0.448,10.5,3.419,14.845
		c0.748,1.095,2.151,1.624,3.441,1.08c1.126-0.474,2.132-1.885,1.596-3.115c-4.431-10.163,1.676-23.094,12.69-26.538
		c6.045,5.92,11.295,12.491,15.661,19.649c1.528,2.506,6.121,0.856,5.037-2.034c-4.594-12.25-9.752-24.307-15.44-36.129
		c1.056-0.409,2.076-0.989,3.03-1.739c2.223-1.746,4.116-3.935,6.096-5.923c2.071-2.08,4.142-4.161,6.213-6.241
		c4.205-4.224,8.41-8.447,12.615-12.671c3.767-3.783,7.533-7.566,11.3-11.35c0.622,0.431,1.246,0.858,1.868,1.289
		c0.367,0.254,0.775,0.536,1.016,0.88c-0.034,0.072-0.085,0.165-0.176,0.295c-0.209,0.299-0.465,0.557-0.717,0.823
		c-1.438,1.519-2.657,3.028-3.304,5.016c-1.191,3.656-0.341,7.843,1.627,11.106c2.443,4.052,6.426,6.895,10.274,9.632
		c2.491,1.772,5.759-2.247,3.339-4.147c-5.217-4.097-6.283-12.125-2.789-17.506c3.696,2.827,7.474,5.557,11.332,8.182
		c1.915,1.303,3.85,2.58,5.803,3.829c1.756,1.124,3.539,2.477,5.471,3.303c1.614,0.69,3.574,1.044,5.307,0.544
		c1.983-0.572,3.388-2.346,3.003-4.37c-0.269-1.416-1.467-2.035-2.57-2.854c-1.005-0.746-2.005-1.498-3-2.255
		c-1.925-1.463-3.834-2.946-5.726-4.449c-2.662-2.113-5.278-4.278-7.872-6.466c-2.201-2.029-4.465-3.993-6.791-5.889
		c-5.205-4.632-10.265-9.411-15.165-14.338c0.28-0.402,0.56-0.803,0.831-1.211c0.606-0.915,1.186-1.847,1.738-2.793
		c1.873-3.209,3.439-6.591,4.692-10.07l77.889,47.177c-14.12-12.527-29.644-23.365-45.343-33.991
		c1.366-1.276,2.31-3.007,2.683-4.897c0.869-4.406-0.997-8.228-4.207-11.343c-3.252-3.155-7.197-5.498-10.284-8.841
		c-2.869-3.108-5.117-6.71-6.957-10.455c-3.838-7.813-5.791-16.404-7.559-24.826c-0.197-0.938-1.21-3.788-0.348-4.319
		c0.415-0.256,1.529-0.121,2.162-0.099c1.156,0.04,2.288,0.098,3.439-0.043c2.537-0.31,4.555-1.538,6.03-3.289
		c1.57-0.054,3.131-0.02,4.681,0.126c2.923,2.899,5.806,5.834,8.596,8.852c2.085,2.255,4.135,4.54,6.14,6.861
		c0.596,0.69,1.658,1.673,1.547,2.649c-0.031,0.278-0.703,1.084-1.099,1.531c-1.711,1.933-3.21,3.876-2.904,6.553
		c0.348,3.047,2.757,5.533,4.556,7.922c1.107,1.471,2.215,2.942,3.322,4.413c0.832,1.453,1.678,2.891,2.497,4.314
		c2.505,4.353,5.154,8.629,7.942,12.822c3.199,4.811,6.585,9.506,10.136,14.085c0.818,1.055,2.094,1.648,3.441,1.08
		c1.219-0.514,2.001-1.83,1.596-3.114c0.958-0.801,1.344-2.282,0.608-3.343c-1.067-1.538-2.133-3.075-3.2-4.613
		c-3.478-10.499-7.247-20.907-11.31-31.212c2.679-3.028,5.362-6.054,8.045-9.079c0.525,0.228,1.015,0.459,1.327,0.578
		c1.606,0.614,3.213,1.227,4.819,1.841c3.044,1.163,6.088,2.326,9.131,3.489c6.848,2.616,13.697,5.233,20.545,7.849
		c1.973,0.754,3.536-1.154,3.446-2.862l0.701,0.313l-0.704-0.374c-0.059-0.771-0.458-1.494-1.319-1.903
		c-7.173-3.41-14.346-6.819-21.519-10.229l-21.751-11.555c0.11-0.262,0.22-0.523,0.331-0.785c1.235-2.93,2.469-5.861,3.703-8.791
		c1.07-2.539,2.866-5.426,2.343-8.254c-0.5-2.703-2.905-4.174-5.2-5.45c-1.933-1.075-3.866-2.15-5.8-3.225
		c3.104,0.5,6.221,1.034,9.339,1.321c1.871,0.172,3.811-0.198,5.222-1.458c1.268-1.132,1.824-2.726,2.369-4.254
		c1.279-3.585,2.551-7.172,3.825-10.757c3.254,1.53,6.424,3.225,9.496,5.076c-0.331,0.648-0.621,1.33-0.828,2.023
		c-0.788,2.628-0.608,5.546,0.24,8.14c1.264,3.866,3.844,6.878,6.892,9.479c1.69,1.96,3.809,3.536,6.27,4.643
		c0.045,0.031,0.09,0.062,0.135,0.092c0.004-0.009,0.008-0.017,0.011-0.026c0.217,0.095,0.424,0.204,0.647,0.292
		c1.251,0.494,2.793-0.437,3.251-1.529c0.54-1.286,0.023-2.516-1.127-3.297c-1.686-1.145-3.478-2.358-5.13-3.712
		c-0.635-0.791-1.188-1.641-1.634-2.52c0.009-0.023,0.024-0.044,0.032-0.067c0.355-1.038,0.047-1.869,0.103-2.895
		c0.06-1.09,0.846-1.915,1.816-2.441c1.449-0.785,3.169-0.818,4.795-0.752c2.067,0.084,4.129,0.357,6.186,0.564
		c4.552,0.458,9.104,0.917,13.657,1.375c1.344,0.135,2.56-1.108,2.706-2.289c0.164-1.322-0.636-2.494-1.974-2.897
		c-5.273-1.59-10.594-3.022-15.953-4.308l-14.431-5.597c-2.43-2.044-5.738-3.301-8.494-4.662
		c-7.143-3.527-14.286-7.053-21.429-10.58c9.749-5.872,21.095-8.976,32.678-8.787c0.767,0.013,1.358-0.231,1.793-0.607
		c0.644,0.018,1.288,0.046,1.932,0.059c3.154,0.065,3.679-4.346,0.733-5.186c-4.581-1.307-9.162-2.613-13.743-3.92
		c0.554-0.663,1.089-1.342,1.583-2.048c2.702-3.869,4.344-8.425,4.622-13.076c0.158-2.64-0.242-5.435-1.914-7.614
		c-1.376-1.794-3.263-2.936-5.44-3.657c-1.812-0.6-3.745-0.824-5.673-1.033c3.134-0.759,6.358-1.254,9.501-1.884
		c5.512-1.105,10.999-2.812,15.391-6.306c3.924-3.121,6.368-8.004,6.041-12.935c-0.088-1.321-0.355-2.637-0.83-3.876l24.645-5.065
		C675.804,331.103,671.839,332.393,670.026,332.544z M285.759,79.022c0.03,0.127,0.061,0.253,0.091,0.38
		c0.151,0.651,0.505,1.59,0.013,2.117c-0.519,0.557-1.661,0.839-2.656,1.061C284.339,81.581,285.195,80.388,285.759,79.022z
		 M340.19,618.698c0.039-0.002,0.051-0.004,0.072-0.006c0.137,0.084,0.269,0.219,0.395,0.387c-0.249-0.103-0.497-0.21-0.75-0.3
		C340.01,618.737,340.111,618.703,340.19,618.698z M575.254,564.948c0.05,0.012,0.042,0.014-0.01,0.008
		C575.247,564.953,575.251,564.95,575.254,564.948z M634.854,333.511c1.654,1.226,3.44,2.04,5.272,2.868
		c-13.011,1.86-26.09,3.487-38.814,2.933l6.748-12.842c3.698-1.095,11.134-1.936,19.319-2.893
		C628.813,327.487,631.424,330.97,634.854,333.511z M574.825,202.613c0.644,4.679,2.8,9.129,6.243,12.504
		c-10.14,5.172-20.275,10.344-30.508,15.302c-2.9-0.545-4.156-17.865-3.851-21.427c7.56-1.385,12.363-5.275,18.276-9.51
		c3.98-2.85,7.994-6.054,12-9.436c-0.577,1.859-1.564,3.636-1.944,5.553C574.579,197.932,574.501,200.261,574.825,202.613z
		 M548.448,161.436c1.241,1.127,2.428,2.337,3.448,3.653c1.598,2.063,3.485,5.025,3.13,7.532c-0.407,2.874-3.619,3.858-6.111,4.909
		c-3.055,1.288-5.855,2.953-6.88,6.185c-0.424,1.336,0.505,2.916,1.925,3.248c5.714,1.337,11.123-0.521,16.457-2.353
		c2.074-0.713,4.58-1.625,6.562-1.801c1.894-0.168,3.6-0.055,5.335,0.396c1.551,0.403,2.935,1.025,3.949,2.024
		c0.403,0.397,0.307,0.262,0.546,0.663c0,0,0,0.001,0,0.001l-12.727,9.635c-12.996,8.861-31.551,10.807-47.087,11.743
		l-12.027-17.799c7.645-5.495,15.021-11.198,22.132-17.109c2.416-1.66,4.831-3.32,7.247-4.979c1.79-1.23,3.58-2.46,5.37-3.689
		c1.736-1.193,3.544-2.835,5.523-3.642C546.586,159.503,547.529,160.602,548.448,161.436z M412.879,118.574
		c1.311-2.881,2.431-5.841,3.328-8.865c9.75,3.408,18.649,8.807,26.025,15.824c0.865,0.823,1.889,0.913,2.764,0.593
		c-3.131,4.273-6.167,8.57-9.108,12.88c-8.208-4.674-16.664-8.93-25.322-12.774L412.879,118.574z M404.32,121.839
		c-0.108,0.344-0.216,0.687-0.325,1.031c-0.414-0.155-0.829-0.309-1.243-0.464C403.302,122.285,403.828,122.103,404.32,121.839z
		 M387.505,122.736c2.975,1.047,5.924,2.157,8.858,3.303c-3.004-0.706-6.021-1.355-9.051-1.949
		C387.39,123.639,387.455,123.188,387.505,122.736z M379.235,87.144c-0.133,0.511-0.261,1.023-0.38,1.537
		c-0.615,1.045-1.161,2.127-1.648,3.237c-0.289-0.263-0.636-0.455-1.013-0.575C377.116,89.882,378.122,88.474,379.235,87.144z
		 M373.87,120.152c0.004,0.05,0.006,0.1,0.01,0.15c-0.023-0.005-0.047-0.01-0.07-0.015
		C373.831,120.242,373.849,120.197,373.87,120.152z M280.455,108.155c2.878-0.199,5.755,0.128,8.629,0.252
		c2.928,0.126,5.805-0.111,8.679-0.663c4.955-0.951,10.154-3.087,15.29-2.427c1.938,0.249,4.001,0.948,5.634,2.075
		c1.48,1.021,2.54,2.492,2.662,4.082c0.121,1.574,1.684,3.171,3.489,2.546c3.165-1.097,4.807-3.579,5.594-6.613
		c0.348-1.343,0.555-2.714,0.855-4.067c0.294-1.325,0.627-2.512,1.208-3.419c0.272-0.424,0.385-0.599,0.976-0.978
		c0.641-0.411,1.448-0.588,2.202-0.698c2.251-0.33,4.653-0.171,6.923-0.184c5.067-0.028,10.134,0.048,15.197,0.228
		c2.906,0.103,5.811,0.243,8.714,0.415c-2.07,5.253-3.528,10.709-4.684,16.22c-0.265,0.202-0.534,0.396-0.806,0.581
		c-1.046,0.712-2.145,1.31-3.284,1.814c-12.548-1.776-25.286-2.338-37.945-1.667c-13.248,0.702-26.432,2.7-39.255,5.98
		c-2.109-3.701-4.218-7.401-6.327-11.102C275.896,109.155,277.997,108.325,280.455,108.155z M275.098,123.111
		c-0.281,0.081-0.562,0.161-0.842,0.243l-2.088-5.384C273.145,119.683,274.121,121.397,275.098,123.111z M215.759,111.357
		c2.152-1.157,4.613-1.647,7.07-1.537c6.216,0.277,11.187,4.945,13.771,10.04c0.592,1.168,2.275,1.571,3.441,1.08
		c1.316-0.554,1.861-1.786,1.596-3.115c-0.746-3.731-1.491-7.463-2.237-11.194c-0.356-1.781-0.712-3.562-1.067-5.343
		c-0.313-1.567-1.046-3.48-0.851-5.084c0.132-1.088,1.313-1.572,2.229-2.046c1.727-0.895,3.479-1.748,5.218-2.62
		c3.094-1.552,6.187-3.105,9.281-4.657c1.399,4.301,2.797,8.601,4.196,12.902c0.456,2.886,0.812,5.785,1.061,8.692
		c0.389,4.541,0.524,9.097,0.427,13.652c-0.023,1.056,0.495,1.783,1.22,2.183c-2.545,1.188-5.089,2.376-7.634,3.564
		c-0.955-0.299-2.022-0.041-2.839,0.62c-0.687,0.556-1.374,1.111-2.06,1.667c-2.011,0.939-4.023,1.878-6.035,2.817
		c-3.317,1.549-6.604,3.316-10.01,4.671c-1.203,0.479-1.857,0.449-2.755-0.442c-1.175-1.165-2.115-2.567-3.127-3.861
		c-4.243-6.768-8.802-13.415-13.646-19.913C213.811,112.6,214.721,111.915,215.759,111.357z M199.56,311.049
		c35.644-2.68,52.883,54.175,20.231,73.565C175.641,410.831,154.427,314.442,199.56,311.049z M107.484,249.311
		c-4.32-2.003-8.792-3.285-13.304-4.785c-1.393-0.463-3.109-1.158-3.902-2.196c-0.184-0.241-0.365-0.642-0.238-1.108
		c0.281-1.033,1.115-1.911,1.795-2.727c6.829-8.183,13.998-16.105,21.483-23.743c3.717-3.793,7.46-7.609,11.408-11.184
		c0.457-0.414,1.208-1.214,1.896-1.254c0.824-0.047,1.835,1.276,2.324,1.744c0.882,0.843,1.761,1.689,2.642,2.533l11.567,15.605
		l-24.285,33.757C115.297,253.408,111.486,251.167,107.484,249.311z M90.276,333.199l-25.787-2.398l16.102-33.22l30.379-2.031
		c0.577,2.163,2.953,5.057,3.13,6.946C114.545,307.255,93.699,327.3,90.276,333.199z M90.947,419.37
		c-0.179-0.639-0.359-1.278-0.538-1.917c-0.759-2.702-1.529-5.401-2.276-8.106c-0.638-2.311-1.262-4.668-0.59-7.039
		c0.651-2.295,1.942-4.368,2.61-6.658c0.623-2.135,0.857-4.434,0.66-6.643c-0.206-2.308-0.789-4.534-1.735-6.608
		c4.419-1.065,8.84-2.185,13.301-3.039c6.097,4.036,15.142,12.095,15.239,13.924l-7.986,20.328
		C103.419,415.577,97.19,417.496,90.947,419.37z M133.857,498.442c-2.35-0.72-4.453,0.376-6.523,1.308
		c-3.218,1.448-5.872-1.637-7.567-3.945c-2.909-3.96-5.547-8.128-8.303-12.186c-1.039-1.53-2.079-3.06-3.118-4.591
		c3.212-0.803,6.425-1.605,9.637-2.408c5.121-1.28,10.243-2.56,15.364-3.839c0.088-0.022,0.159-0.058,0.24-0.085l11.476,30.367
		l-4.748,4.865c-0.743-1.689-1.484-3.379-2.23-5.067C137.229,500.923,136.071,499.12,133.857,498.442z M190.147,587.954
		c-3.633,6.536-7.265,13.072-10.898,19.608c-5.486-0.39-11.109,0.373-16.239,2.277c-2.77,1.028-5.396,2.31-7.854,3.91
		c-1.868,1.216-4.036,3.065-6.459,2.435c-1.302-0.338-2.461-1.056-3.62-1.693c-1.433-0.788-2.866-1.578-4.299-2.367
		c-2.945-1.622-5.891-3.243-8.836-4.865c-1.09-0.6-2.382-1.134-3.323-1.943c-0.8-0.688-0.784-1.455-0.495-2.397
		c0.805-2.621,3.034-4.935,4.654-7.125c4.336-5.861,8.672-11.722,13.007-17.583c1.472-1.99-0.951-4.369-3.112-3.879
		c-11.247,2.551-22.041,6.867-31.87,12.691c-6.948-7.003-13.896-14.007-20.844-21.01c4.47-4.312,8.755-8.773,12.937-13.372
		c5.544-6.096,11.266-11.954,18.159-16.677c0.689-0.472,1.388-0.93,2.089-1.385c0.272,0.027,0.546,0.075,0.823,0.169
		c2.03,0.691,3.68,2.125,5.811,2.644c4.212,1.026,7.943-0.995,11.026-3.561c2.976-2.477,5.464-5.23,8.933-7.114
		c1.671-0.907,3.353-1.808,4.906-2.845c1.789,2.745,3.654,5.442,5.572,8.105c4.722,7.296,9.445,14.592,14.167,21.887
		c0.374,0.578,0.864,0.932,1.389,1.117c-0.212,1.02-0.438,2.038-0.68,3.052c-1.214,5.089-2.562,10.142-4.143,15.138
		c-2.251,7.113-4.902,14.117-7.971,20.944c-0.588,1.309-0.405,2.831,0.989,3.612c1.203,0.674,3.126,0.345,3.77-0.947
		c1.754-3.519,3.535-7.025,5.314-10.533l15.027-26.283c0.004,0.005,0.007,0.01,0.011,0.014c2.544,2.829,5.088,5.659,7.632,8.488
		C194.076,575.017,192.213,581.515,190.147,587.954z M172.391,532.405c0.482,0.69,0.972,1.377,1.465,2.061
		c-0.083,0.01-0.164,0.015-0.248,0.028C173.206,533.796,172.79,533.105,172.391,532.405z M195.38,631.887
		c0.117-0.073,0.234-0.145,0.349-0.22c0.076,0.107,0.149,0.216,0.225,0.324C195.763,631.957,195.571,631.922,195.38,631.887z
		 M202.919,610.416c-0.16,0.42-0.321,0.848-0.482,1.281c-0.087,0.015-0.173,0.031-0.26,0.046c0.436-0.992,0.893-1.975,1.363-2.953
		C203.333,609.331,203.126,609.873,202.919,610.416z M271.617,610.204c-0.071,1.018-0.147,2.036-0.222,3.055
		c-19.707-4.405-40.158-5.513-60.246-3.149c-0.541,0.064-1.054,0.229-1.489,0.487c-0.333,0.044-0.667,0.086-1,0.131
		c1.085-2.843,2.161-5.689,3.246-8.532c1.938-5.079,3.877-10.158,5.815-15.236c0.299-0.254,0.598-0.508,0.897-0.761
		c16.503,3.494,33.892,2.097,49.667-3.663c-0.317,0.664-0.363,1.459,0.076,2.285C272.517,592.654,272.211,601.673,271.617,610.204z
		 M222.888,573.527l0.258-0.181l0.211,0.191C223.201,573.53,223.045,573.53,222.888,573.527z M224.238,581.431
		c0.164-0.14,0.329-0.279,0.493-0.419c0.077,0.16,0.145,0.324,0.232,0.479C224.722,581.47,224.48,581.455,224.238,581.431z
		 M257.805,564.749c0.051-0.239,0.102-0.474,0.152-0.719c0.135,0.072,0.262,0.137,0.395,0.208
		C258.142,564.379,257.964,564.555,257.805,564.749z M272.49,580.894c0.034-0.015,0.07-0.027,0.104-0.042
		c0.018-0.008,0.035-0.017,0.053-0.024c0.009,0.03,0.017,0.061,0.026,0.091C272.612,580.905,272.551,580.902,272.49,580.894z
		 M305.834,593.364c0.016-0.072,0.037-0.144,0.061-0.216c0.049-0.047,0.096-0.095,0.144-0.143
		C305.97,593.125,305.904,593.246,305.834,593.364z M385.297,553.208c-1.176-4.342,2.499-8.394,2.885-11.921
		c0.277-2.533-1.413-4.993-1.104-7.2c4.178-29.835,17.001-59.61,36.899-82.793c-2.88-0.587-3.949,1.417-5.667,3.049
		c-11.398,10.826-22.929,32.544-28.211,47.107c-4.229,11.66-4.866,25.227-8.416,35.183c-1.02,2.86-4.174,4.328-6.036,6.545
		c6.294,2.445,3.382,4.378,4.718,9.872c-7.781,1.615-11.275,5.41-12.545,10.288c-4.941,0.53-9.883,1.061-14.824,1.591
		c-8.128,0.391-16.286,0.236-24.386-0.467l-2.541-1.743l-3.874,1.07c-0.82-0.101-1.641-0.202-2.459-0.314
		c-1.472-0.202-2.961,0.347-3.39,1.844c-0.008,0.029-0.008,0.061-0.015,0.09l-22.847,6.313c-0.194-4.151-6.094-11.8-6.231-14.92
		c-0.09-2.029,3.314-14.269,3.019-18.062c-0.078-1.011-3.195-0.787-4.219-3.909c-8.492-25.884-8.104-40.64-25.196-65.499
		c-1.786-2.597-13.567-17.41-15.029-18.043c-0.701-0.303-2.644-0.393-2.389,0.752c20.29,22.653,32.167,51.063,37.128,80.404
		c0.407,2.408-1.483,5.064-1.165,7.378c0.17,1.238,5.077,11.281,4.33,11.83l-12.988-2.409l-3.151,13.231
		c-15.603-9.298-12.6-2.761-18.519,9.24c-4.05-3.416-6.604-8.659-12.841-7.754l-4.891,10.843l-8.078-9.234l-8.042,7.69
		c-0.056-0.151-0.124-0.288-0.182-0.437c0.52-0.299,0.936-0.798,1.112-1.553c1.22-5.242-2.292-10.143-7.039-12.51
		c-2.628-1.311-5.477-2.03-8.311-2.795c-2.743-2.258-5.547-4.587-8.173-7.365c-43.431-45.936-37.284-101.898-5.629-152.204
		c1.634-1.062,3.784,2.044,4.888,3.1c18.696,17.883,29.678,30.89,55.96,40.597c3.09,1.141,12.897,5.586,14.917,1.933
		c-13.405-3.756-27.364-11.498-38.538-19.459c-7.787-5.547-29.476-24.287-32.357-32.331c-1.393-3.889,1.512-1.363,2.738-1.074
		c13.245,3.118,22.409,2.702,32.75-6.575c37.072-33.254-10.778-101.69-51.615-61.052c4.542-36.98,3.231-76.544,16.046-112.032
		c3.166-8.767,8.305-16.664,11.327-25.428l-9.891,13.697c-1.728,0.968-4.052-0.298-5.755-1.004
		c-12.12-5.02-43.456-29.658-54.42-38.991c-5.378-4.578-30.817-28.06-32.352-32.328c-3.697-10.278-3.312-41.54-2.154-53.164
		c0.556-5.58,8.801-39.034,13.472-39.392c37.472,20.272,68.977,48.709,94.347,81.663c-0.049,0.758,0.099,1.527,0.544,2.282
		c1.091,1.847,2.72,3.526,4.051,5.222c2.754,3.511,5.508,7.023,8.263,10.534c0.298,0.379,0.595,0.759,0.893,1.138
		c4.14,6.206,8.086,12.533,11.825,18.965l-6.224,9.753c28.678-18.769,63.755-29.247,99.18-30.939
		c24.55,1.42,48.965,4.618,72.997,9.607c3.738,1.24,7.425,2.598,11.054,4.075c11.281,4.592,21.097,11.997,32.766,15.698
		l-5.725-6.207c-1.164-1.553-0.032-2.702,0.458-4.106c2.407-6.906,16.475-25.039,21.682-31.864
		c25.473-33.382,59.877-66.315,98.016-85.999c11.259,23.772,14.898,50.469,12.987,76.514c-1.061,14.456-2.711,17.858-12.134,28.531
		c-20.873,23.642-52.942,44.472-80.663,60.013l-12.037-13.699c5.024,10.007,10.63,19.837,14.039,30.552
		c10.99,34.536,9.454,71.5,13.335,106.907c-17.966-21.946-47.829-13.062-59.432,10.231c-12.401,24.897,0.292,61.478,32.852,59.274
		c2.972-0.201,11.254-4.697,10.456-0.799c-17.276,22.951-41.851,41.225-69.287,51.786c-0.364,2.879,3.274,1.208,4.903,0.839
		c24.407-5.529,52.385-29.372,68.434-47.163c25.146,43.273,38.313,87.457,14.034,129.137c-5.667,5.658-10.72,11.853-13.94,19.035
		c-0.026,0.029-0.05,0.058-0.076,0.087c-8.503,9.522-23.334,16.899-25.022,29.33c-5.519,1.47-1.81-8.16-8.74-6.081l-6.557,9.137
		l-8.038-12.035l-12.102,7.429l-5.812-13.805l-10.965,4.175c-0.437-0.178-0.873-0.357-1.29-0.57l-4.477-12.313L385.297,553.208z
		 M177.999,216.941c0.104-0.236,0.208-0.472,0.311-0.708c0.914,0.089,1.904-0.207,2.453-0.928c-0.098,0.376-0.212,0.749-0.32,1.123
		C179.885,216.585,179.051,216.758,177.999,216.941z M464.885,389.429c-7.859,0.65-17.088-3.039-22.602-8.203
		c-23.684-22.182-9.592-70.144,24.413-70.173C507.901,311.018,496.034,386.852,464.885,389.429z M478.835,572.827
		c-0.015-0.019-0.029-0.037-0.044-0.056c0.006-0.005,0.013-0.01,0.019-0.015C478.818,572.78,478.827,572.804,478.835,572.827z
		 M432.537,574.591c-0.116-0.022-0.233-0.039-0.354-0.043c0.026-0.073,0.058-0.145,0.083-0.219L432.537,574.591z M412.728,564.174
		c-0.115-0.025-0.233-0.042-0.354-0.052l0.302-0.093L412.728,564.174z M395.294,566.033c-0.054,0.048-0.112,0.091-0.166,0.14
		c-0.009-0.026-0.018-0.051-0.027-0.077C395.166,566.079,395.229,566.053,395.294,566.033z M394.835,588.565
		c-0.289-0.005-0.577-0.016-0.866-0.022c0.003-0.049,0.007-0.097,0.01-0.145C394.264,588.457,394.55,588.508,394.835,588.565z
		 M487.642,596.098c-0.739,1.57-2.722,2.833-4.227,3.857c-1.915,1.302-3.846,2.595-5.416,4.286c-0.006,0.006-0.01,0.013-0.016,0.019
		c-9.416,4.759-18.832,9.518-28.248,14.278c-1.214,0.614-2.428,1.229-3.643,1.841c-0.442,0.223-0.885,0.497-1.36,0.647
		c-0.15,0.048-0.303,0.1-0.459,0.115c-0.559-0.443-0.914-1.494-1.219-2.102c-0.381-0.759-0.741-1.528-1.082-2.305
		c-1.544-3.513-2.843-7.144-4.722-10.513c-2.059-3.692-4.976-7.058-9.04-8.795c-0.853-0.364-1.946-0.585-2.782,0
		c-3.339,2.336-4.657,5.802-5.72,9.494c-0.439,1.524-0.921,3.355-1.541,4.567c-0.73,1.427-1.462,2.367-3.019,2.924
		c-2.426,0.867-5.318,0.859-7.862,1.144c-2.994,0.336-5.988,0.672-8.982,1.008c-1.851,0.208-3.701,0.415-5.552,0.623
		c0.118-5.384,0.283-10.768,0.543-16.147c0.116-2.402,0.233-4.812,0.359-7.222c21.623,0.482,43.321-1.821,64.306-6.838
		c6.69-1.599,13.302-3.481,19.823-5.625c0.241-0.079,0.461-0.193,0.67-0.32c0.367,0.465,0.735,0.93,1.102,1.395
		c2.052,2.599,4.15,5.17,6.156,7.802C486.972,591.886,488.619,594.022,487.642,596.098z M492.855,597.742
		c0.074-0.181,0.152-0.36,0.216-0.551c0.021-0.062,0.028-0.124,0.048-0.186c0.164,0.205,0.331,0.408,0.496,0.613
		C493.363,597.645,493.112,597.683,492.855,597.742z M513.744,563.246c-3.891,3.909-7.782,7.817-11.674,11.726
		c-1.604,1.611-3.232,3.77-5.354,4.781c-0.158,0.075-0.315,0.14-0.471,0.195c-2.205-4.444-4.487-8.853-6.846-13.224
		c-0.224-0.416-0.46-0.826-0.686-1.241c0.463,0.014,0.942-0.103,1.401-0.408c8.661-5.754,16.239-12.964,22.269-21.227
		c2.59-3.086,5.043-6.278,7.346-9.568c4.518,3.113,9.033,6.23,13.548,9.347C526.766,550.166,520.255,556.706,513.744,563.246z
		 M507.944,511.296l3.099-19.852c2.321-0.361,2.249,2.721,2.716,4.31c1.958,6.661,2.305,13.965,5.327,20.38L507.944,511.296z
		 M512.754,521.384c-0.07-0.006-0.14-0.011-0.21-0.013c0.012-0.033,0.023-0.066,0.036-0.099L512.754,521.384z M551.673,487.645
		c2.841,8.047,6.977,15.859,13.46,21.785c3.377,3.086,8.401,5.505,10.396,9.73c0.559,1.184,0.562,2.801,0.038,4.209
		c-0.2,0.538-0.593,1.144-1.053,1.543c-0.227,0.196-0.458,0.309-0.71,0.377c-10.509-7.083-21.041-14.138-31.23-21.604
		l-10.477-34.445l4.099-1.41c0.192-0.016,0.382-0.055,0.568-0.129c0.415-0.166,0.832-0.33,1.248-0.495l8.072-2.776
		c-0.012,1.5,0.376,3.031,0.681,4.491c0.433,2.078,0.88,4.153,1.361,6.221C549.106,479.357,550.227,483.551,551.673,487.645z
		 M535.909,403.33c-1.528,1.467,0.034,2.846,0.537,4.264c2.468,6.965,23.121,33.397,22.904,38.289l-49.927,14.664l-4.17-24.775
		l23.547-8.481c-0.069-6.38-25.747-31.651-29.466-39.769c-0.963-2.103-1.758-3.446-0.492-5.745
		c3.954-7.181,43.538-5.602,52.95-9.593c1.79-0.759,2.978-1.311,2.787-3.467c-17.314-27.377-37.883-53.303-53.5-81.664
		c-1.539-2.795-6.777-10.766-5.457-13.356c34.435-24.419,73.806-47.037,112.094-65.711c9.898-4.828,82.725-37.237,87.077-33.166
		l-38.519,138.037l-89.758,16.332l26.592,64.807L535.909,403.33z M590.874,490.695c-0.054-0.128-0.105-0.257-0.145-0.387
		c0.199-0.397,0.638-0.77,1.005-1.085C591.417,489.702,591.126,490.192,590.874,490.695z M598.673,501.833
		c0.095-0.021,0.185-0.053,0.276-0.084c0.166,0.448,0.328,0.897,0.493,1.345C599.185,502.674,598.929,502.253,598.673,501.833z
		 M603.598,474.857c-0.222,0.097-0.437,0.207-0.645,0.329c-0.196-0.239-0.42-0.462-0.693-0.643
		c-0.571-0.378-1.141-0.757-1.711-1.135C601.565,473.891,602.582,474.374,603.598,474.857z M608.467,422.369
		c1.749,0.515,3.498,1.031,5.247,1.546c-1.119,3.146-2.237,6.291-3.356,9.437c-0.26,0.732-0.516,1.466-0.781,2.196
		c-0.107,0.294-0.255,0.945-0.508,1.176c-0.653,0.597-2.529,0.035-3.354-0.086c-6.953-1.023-13.906-2.046-20.859-3.068
		c-1.357-0.2-2.7,0.217-3.251,1.529c-0.505,1.204-0.084,2.623,1.128,3.297c4.663,2.593,9.327,5.187,13.99,7.78
		c1.088,0.605,2.176,1.21,3.264,1.815c1.042,0.58,2.263,1.097,3.193,1.842c1.3,1.041-0.277,3.162-0.777,4.35
		c-1.49,3.538-2.981,7.076-4.471,10.614l-24.019-12.76c-1.362-1.585-3.767-20.194-3.248-23.094
		c0.742-4.139,10.095-9.221,16.733-12.306c0.439,0.044,0.869,0.099,1.276,0.171c3.335,0.593,6.568,1.662,9.803,2.616
		C601.806,420.406,605.136,421.387,608.467,422.369z M598.887,406.831l0.105-0.55c0.334-0.057,0.668-0.118,1.002-0.178
		C599.621,406.341,599.253,406.585,598.887,406.831z M642.49,351.353c-3.649,3.273-8.779,4.61-13.544,5.576
		c-6.41,1.301-12.947,2.129-18.75,5.255c-1.77,0.954-1.813,3.616,0,4.56c3.461,1.801,7.446,2.007,11.139,2.549
		c1.643,0.241,3.362,0.55,4.619,1.241c0.481,0.265,0.99,0.64,1.289,1.015c0.628,0.787,0.894,1.757,0.975,2.729
		c0.472,5.669-2.324,11.308-6.453,15.456c-3.672-1.047-7.344-2.095-11.016-3.142c-2.444-0.697-4.911-1.343-7.335-2.098
		c-1.851-0.576-2.596-1.531-3.28-3.248c-1.925-4.83-3.802-9.678-5.702-14.517c-1.507-3.838-3.014-7.675-4.521-11.513
		c2.014-2.417,4.594-4.6,6.552-5.104l48.843-10.038c0.178,0.313,0.335,0.643,0.454,1.005
		C646.941,344.686,645.407,348.736,642.49,351.353z"/>
	<path d="M332.901,324.595c-12.535-0.019-27.951,12.624-46.395,8.948c-4.107-0.819-8.142-5.077-12.464-5.037
		c1.181,5.145,8.64,5.219,10.935,9.602c2.958,5.653,4.863,23.098,8.384,32.125c5.844,14.985,21.939,44.698,41.164,44.112
		c18.587-0.567,37.69-34.989,42.757-50.279c2.749-8.296,2.846-19.875,5.063-26.039c1.603-4.457,11.229-4.276,10.996-10.299
		c-6.684,2.386-10.762,6.127-18.535,6.299C361.051,334.331,343.366,324.611,332.901,324.595z M334.554,410.972
		c-13.608,0.266-37.338-33.058-37.574-44.148c-0.208-9.761,26.272-18.351,34.748-18.607c9.744-0.294,38.979,7.263,38.938,18.882
		C370.634,376.123,345.743,410.754,334.554,410.972z"/>
	<path d="M239.8,236.953c-38.755,5.233-36.148,69.132,10.741,62.826C289.792,294.499,281.114,231.375,239.8,236.953z
		 M258.014,269.878c-19.095,5.76-21.817-19.579-8.56-22.2C264.359,244.731,272.258,265.582,258.014,269.878z"/>
	<path d="M431.134,299.822c36.34-5.642,30.797-65.927-9.115-62.913C380.083,240.075,382.287,307.405,431.134,299.822z
		 M419.615,270.248c-17.58,5.065-22.624-19.581-7.347-22.573C428.742,244.448,431.668,266.775,419.615,270.248z"/>
	<path d="M332.978,307.722c5.013,0.474,8.437-5.869,11.976-8.577c0.145-3.34-17.855-3.434-20.933-2.308
		C321.64,299.132,329.751,307.696,332.978,307.722z"/>
	<path d="M312.73,452.051c10.064,4.171,23.412,3.479,34.232,1.887c1.647-0.242,6.418-0.442,6.077-2.643
		C339.377,452.854,326.149,452.081,312.73,452.051z"/>
</g>
</svg>
