<?xml version="1.0" encoding="utf-8"?>
<!-- Generator: Adobe Illustrator 29.7.1, SVG Export Plug-In . SVG Version: 9.03 Build 0)  -->
<svg version="1.1" id="Layer_1" xmlns="http://www.w3.org/2000/svg" xmlns:xlink="http://www.w3.org/1999/xlink" x="0px" y="0px"
	 viewBox="0 0 669.022 651.274" style="enable-background:new 0 0 669.022 651.274;" xml:space="preserve">
<g>
	<path d="M242.033,321.679c17.771,4.359,67.776,6.127,71.253-17.446c4.303-29.179-12.157-95.071-48.343-100.979
		c-38.031-6.209-49.718,53.5-47.84,79.879C218.382,301.107,222.021,316.771,242.033,321.679z M281.252,224.422
		c14.704,2.233,18.289,34.339,3.177,35.225C267.009,260.667,265.708,222.062,281.252,224.422z M301.853,291.855
		c2.226-5.377,1.634-11.829,5.629-15.161c-1.127,10.404,3.899,21.563-0.352,31.573c-3.68,8.666-41.683,13.95-49.906,8.788
		c-2.907-1.825-7.389-11.043-8.632-14.432c-7.535-20.542-5.766-41.479,2.647-61.392c2.634-0.331,1.452,3.194,1.293,4.772
		c-1.603,15.879,1.033,39.532,12.244,52.465C276.784,312.321,295.319,307.637,301.853,291.855z M226.776,245.47
		c4.197-15.287,17.394-42.709,37.766-36.179c-27.545,18.661-32.732,63.642-22.265,92.289c0.976,2.672,8.356,15.383,7.453,16.256
		C215.545,317.072,220.833,267.117,226.776,245.47z"/>
	<path d="M501.513,301.538c26.691-6.032,26.84-18.419,25.222-42.638c-1.203-18.009-14.028-68.431-36.681-71.328
		c-17.349-2.218-26.294,29.714-28.13,41.983c-2.46,16.442-1.598,48.236,5.676,63.301
		C474.125,306.37,488.869,304.395,501.513,301.538z M504.085,294.773c-6.192,5.562-26.447,5.56-31.477-3.878
		c-0.996-1.868-5.345-11.806-2.228-12.771c9.352,18.631,27.228,9.331,31.561-7.391l3.982-25.244
		C509.467,255.055,511.582,288.039,504.085,294.773z M502.725,203.865c14.015,18.135,20.738,55.765,18.058,77.826
		c-0.571,4.7-3.334,9.033-8.207,10.59c-3.765,1.203-1.281-1.339-1.022-2.401c8.428-34.611,0.687-70.657-24.865-96.887
		C493.281,192.715,499.115,199.193,502.725,203.865z M478.552,209.076c11.941,0.006,16.29,35.156-0.036,34.421
		C463.836,242.837,468.404,209.072,478.552,209.076z"/>
	<path d="M268.19,357.63c-13.678-0.832-23.869-3.989-36.602-7.502c-2.049-0.565-2.86-2.568-2.568,1.038
		c3.959,5.435,11.454,5.03,16.805,8.028c11.223,6.288,22.202,17.073,35.502,24.16c68.614,36.556,157.584,29.102,211.325-27.875
		c3.936-4.174,8.423-12.656,11.915-15.543c8.205-6.783,20.694-4.519,24.728-20.295c0.691-2.703,1.793-7.168-2.6-6.053
		c-0.578,4.285-2.965,8.468-5.942,11.652c-11.975,12.804-54.319,13.76-73.331,19.539c-13.344,4.056-23.734,11.133-35.494,17.914
		C365.889,343.573,316.484,360.568,268.19,357.63z M283.831,378.144c13.838-10.387,33.711,2.887,38.467,16.31
		C320.698,395.943,283.782,381.463,283.831,378.144z M411.904,368.377c10.584-5.149,18.21-12.174,29.582-16.515
		c17.655-6.74,37.064-7.898,55.569-11.304c-34.801,51.223-107.362,69.558-167.706,56.722c-5.422-12.8-20.38-27.795-35.871-27.001
		c-5.307,0.272-13.962,5.798-16.083,5.447c-1.571-0.26-19.453-12.085-17.282-13.891C310.35,368.583,364.078,346.737,411.904,368.377
		z"/>
	<path d="M301.58,201.5l16.268,25.532C319.244,216.614,311.425,205.506,301.58,201.5z"/>
	<path d="M451.524,211.144c2.762-6.645,3.581-14.014,6.799-20.538l-2.705-1.872c-4.344,8.396-9.069,15.527-7.425,25.522
		C452.383,214.979,450.626,213.303,451.524,211.144z"/>
	<path d="M397.826,337.699c1.264-6.949-4.028-8.839-10.358-8.492C389.115,333.433,392.65,337.559,397.826,337.699z"/>
	<path d="M668.971,315.848c-1.89-11.122-14.666-15.619-24.925-16.649c-5.99-0.601-12.051-0.013-18.06-0.3
		c-5.638-0.269-11.725-1.209-16.168-4.824c-4.495-3.657-6.547-9.143-8.605-14.262c-2.236-5.562-4.684-10.777-8.939-15.214
		c-3.838-4.002-8.672-7.296-11.807-11.881c-1.646-2.407-2.552-5.014-2.762-7.89c-0.25-3.431,0.12-6.875-0.149-10.305
		c-0.267-3.417-1.101-6.826-3.214-9.651c-0.23-0.307-0.469-0.608-0.717-0.901l13.76-4.045l-19.874-4.172l-0.841-2.88l13.338-9.23
		l14.78-14.911l-28.119,14.179l-7.51-27.395c3.454-1.195,12.483-10.285,14.358-10.64c3.053-0.579,7.177,4.229,10.198,1.274
		l48.104-49.774l-48.941,38.978l-16.918-1.727c2.431-5.99,4.482-12.119,6.097-18.363c0.546-2.113-1.964-4.31-4.048-2.982
		c-7.391,4.712-15.789,10.006-24.941,10.432c-7.451,0.347-13.28-3.116-17.872-8.408c-4.3-4.956-7.406-10.933-11.174-16.314
		c-4.182-5.972-9.211-11.39-16.244-14.277c-7.706-3.164-16.502-3.352-24.268-0.465l4.089-7.277
		c-1.162-4.586-18.265-10.089-18.858-10.989c-5.665-8.587,20.759-17.814,26.456-19.72c0.372-2.516-3.321-1.382-4.82-1.074
		c-4.594,0.946-9.545,4.126-14.412,3.229l20.709-43.285L465.956,57.41c-0.496-1.957-1.499-3.756-2.838-5.346
		c-3.832-4.554-10.106-5.907-15.826-6.836c-13.696-2.226-27.391-4.497-41.108-6.604c-6.263-0.962-12.92-1.556-18.72,1.431
		c-4.965,2.557-8.263,7.383-7.706,12.875c0.288,2.846,1.623,6.035,0.797,8.878c-0.489,1.681-1.723,3.293-2.952,4.779
		c-0.281-5.805-0.562-11.61-0.843-17.415c-0.188-3.874-0.584-7.829-0.089-11.697c0.365-2.851,1.355-5.918,3.965-7.56
		c2.166-1.362,1.486-5.027-1.391-4.92c-3.372,0.126-6.079,1.804-8.298,4.144c-2.049,2.161-3.685,4.812-6.117,6.618
		c-2.71,2.012-6.473,1.906-9.807,1.724c-3.939-0.214-7.961-0.619-11.822,0.418c-6.753,1.813-11.084,7.324-15.868,11.82
		c-2.408,2.263-5.01,4.214-8.251,5.239c-3.168,1.001-6.489,1.466-9.671,2.402l-3.677-29.41c-1.744-4.465-17.071-6.409-21.148-10.953
		c-2.843-3.169-5.021-12.695-6.726-16.975c-2.779-0.31-1.143,2.867-0.8,4.311c0.591,2.488,3.83,14.457,4.565,15.5
		c2.646,3.755,20.228,5.857,21.435,12.097c0.71,3.669,0.441,21.447-0.988,24.539l-10.937,5.608
		c-0.918-1.492-1.799-3.005-2.614-4.552c-1.407-2.67-2.475-5.46-3.776-8.172c-0.34-0.709-0.749-1.376-1.218-1.987l-4.153-9.038
		l1.439,6.67c-0.843-0.471-1.776-0.815-2.818-0.963c-3.335-0.473-6.52,0.742-9.611,1.776c-3.304,1.105-6.688,2.09-9.905,3.416
		c-2.927,1.206-5.34,3.078-6.807,5.832c-1.534,2.88-2.446,6.099-3.541,9.147c-1.881,5.236-3.761,10.471-5.642,15.707
		c-0.979-2.079-1.957-4.157-2.936-6.236c-0.926-1.966-1.851-3.932-2.777-5.898c-0.841-1.787-1.528-3.81-2.73-5.411
		c-2.856-3.803-7.372-1.885-11.161-0.745c-3.508,1.055-6.999,2.165-10.43,3.434c-6.867,2.54-13.47,5.663-19.209,10.127
		c-2.765,2.151-5.815,4.806-7.593,7.806c-1.176,1.984-1.257,4.227-0.006,6.204c0.277,0.438,0.581,0.866,0.901,1.287
		c-8.475-3.431-21.801-7.571-25.001-12.456c-2.011-3.07,4.731-13.409-2.893-16.995c-1.055,4.201,4.166,11.386-2.918,12.806
		L126.823,56.78c18.872,18.769,40.199,35.096,62.198,50.406l-8.242,10.683l-24.338-12.846l29.034,31.272l-15.178,21.128
		l-24.209-12.685l8.845,9.248l11.997,8.682c-0.17,0.435-0.352,0.866-0.528,1.298c-4.82-1.196-9.779-2.059-14.726-1.737
		c-6.521,0.425-12.53,3.072-16.626,8.031c-3.829,4.634-5.925,10.252-7.686,15.853c-0.869,2.763-1.473,5.758-3.066,8.242
		c-0.719,1.12-1.638,1.922-2.687,2.593l-20.848-5.328l5.312-25.598c-5.94,5.867-7.139,15.586-11.416,22.339
		c-0.805,1.271,0.007,2.008-2.624,1.909c-7.487-0.283-18.119-21.031-28.083-24.316c-11.787-3.887-31.111-2.942-43.75-4.176
		l42.884,9.262l19.308,27.615H59.44l-9.619,2.824l36.988,4.296l1.485,7.807l27.086,13.064c-0.692,0.213-1.38,0.441-2.055,0.707
		c-3.118,1.228-6.007,2.987-8.187,5.486c-2.435,2.791-3.808,6.172-5.933,9.153c-1.821,2.554-4.536,4.612-7.517,5.794
		c-3.407,1.351-6.959,1.332-10.582,1.177c-3.796-0.162-7.72-0.33-11.366,0.891c-2.999,1.005-5.724,2.672-7.949,4.847
		c-3.664,3.581-5.935,8.345-6.257,13.279c-3.388,0.297-6.72,1.125-9.524,2.905c-2.378,1.51-3.995,3.483-5.334,5.867
		c-0.236,0.419-0.469,0.922-0.823,1.277c-0.068-0.033-0.155-0.079-0.285-0.155c-1.662-0.977-3.162-2.459-4.665-3.648
		c-6.238-4.937-12.477-9.874-18.715-14.811c-0.234-1.142-1.226-1.748-2.307-1.826c-0.102-0.081-0.205-0.162-0.307-0.243
		c-1.057-0.837-2.479-1.076-3.618-0.206c-1.029,0.785-1.466,2.279-0.71,3.406c0.483,0.72,0.966,1.439,1.449,2.159
		c0.176,6.922,2.651,13.811,7.033,19.315c1.252,1.573,2.6,3.048,4.124,4.385c1.458,1.28,3.021,2.457,4.356,3.861
		c2.562,2.693,2.419,6.245,3.073,9.628c0.729,3.773,2.887,6.931,6.688,8.385c3.386,1.294,7.176,0.944,10.726,0.724
		c4.142-0.257,8.085,0.076,12.016,1.423c1.903,0.652,3.71,1.552,5.401,2.609c1.679,1.049,3.186,2.386,5.017,3.198
		c0.584,0.259,1.174,0.457,1.765,0.6c-0.097,0.394-0.187,0.789-0.282,1.184c-2.498,1.118-4.996,2.236-7.495,3.354
		c-6.657,2.979-14.37,5.543-17.602,12.438c-2.767,5.903-2.371,12.583-4.607,18.648c-2.024,5.489-5.702,10.356-10.246,14.185
		c-0.054,0.046-0.112,0.085-0.167,0.131c-0.508,0.205-1.016,0.41-1.524,0.615c-4.34,1.307-8.68,2.614-13.02,3.921
		c-3.259,0.981-6.641,1.8-9.81,3.027c-2.757,1.068-5.485,2.791-6.093,5.789c-0.349,1.722,1.271,4.103,3.39,3.248
		c0.112-0.045,0.224-0.09,0.336-0.135c1.61,0.395,4.22-0.065,5.289-0.143c3.846-0.283,7.709-0.717,11.58-1.241
		c0.668-0.057,1.338-0.153,2.007-0.276c6.147-0.881,12.312-1.977,18.463-3.087c0.11,0.066,0.224,0.124,0.329,0.2
		c0.322,0.231,0.863,0.904,1.034,1.578c0.397,1.571,0.03,3.25-0.036,4.841c-0.157,3.789,0.758,7.555,1.846,11.171
		c2.143,7.128,4.423,14.22,6.637,21.328c1.987,6.378,3.974,12.756,5.961,19.134l-23.351,8.791l24.348-5.621
		c0.934,2.838,1.945,5.684,0.132,8.414c-1.383,2.083-3.583,3.733-5.54,5.303c-4.049,3.249-8.487,6.275-11.46,10.541
		c-3.137,4.502-3.245,10.22,0.064,14.687c2.1,2.835,4.948,4.922,7.777,7.043c3.437,2.577,6.875,5.155,10.312,7.733
		c5.153,3.864,10.307,7.728,15.46,11.593c-1.369,0.841-2.519,1.335-3.336,1.335H49.814l23.682,7.784l-32.567,33.349L118.92,492.5
		l21.127,23.08l-28.034,30.688c2.225,2.185,37.409-31.338,41.449-33.356c2.07-1.034,2.278-0.994,3.681,0.771l22.993,52.439
		l-26.212,8.967l-25.607,36.461c4.018-2.81,7.736-6.42,11.113-9.912c3.998-4.134,14.069-17.634,17.685-19.947
		c3.135-2.005,23.699-5.421,28.239-5.596c2.019-0.078,4.484-0.911,3.616,2.051c-2.462,8.406-10.133,18.638-9.583,27.722
		l39.992-73.749l18.353,16.508c-6.335,23.799,2.879,20.434,21.693,13.598l14.952,16.587c4.422,0.737,13.482-15.35,14.586-15.434
		c1.314,1.564,7.32,3.605,7.845,4.472c2.834,4.672-5.489,33.179-2.627,40.854l6.046-16.883l20.602-1.562
		c-1.893,10.835,0.567,30.504-3.012,40.061c-0.76,2.029-5.895,2.581-7.054,6.359c-1.285,4.185,0.23,10.121-0.292,14.593l3.79-12.66
		l7.387-7.085l8.969-49.015c2.474-0.493,4.927-1.147,7.383-1.645c4.198-0.853,8.507-0.93,11.664,2.037
		c2.83,2.66,4.585,6.253,7.071,9.255c3.092,3.733,7.174,5.705,12.2,5.63c2.778-0.042,5.535-0.396,8.318-0.392
		c2.594,0.004,5.202,0.156,7.771,0.513c5.298,0.734,10.568,2.157,15.445,4.281c2.38,1.036,4.689,2.223,6.904,3.552
		c2.348,1.409,4.438,3.158,6.759,4.59c2.339,1.443,5.132,2.075,7.762,0.997c1.308-0.536,2.32-1.414,2.945-2.489l1.878,2.703
		c-0.01-1.623-0.493-3.491-1.184-5.396c-0.006-0.381-0.04-0.769-0.129-1.163c-0.353-1.573-1.154-3.126-1.744-4.63
		c-0.608-1.55-1.216-3.1-1.824-4.65c-1.248-3.182-2.496-6.363-3.744-9.545c-1.778-4.533-3.556-9.066-5.334-13.6l25.051-12.945
		l3.768,0.722c2.99,7.084,18.005,17.622,20.353,23.266c1.463,3.517-1.21,8.941-0.082,14.15c1.898,8.769,13.607,22.938,16.808,32.24
		l0.607,9.923c-0.204-2.83,3.775-4.789,4.296-6.677c1.336-4.839-21.264-32.884-14.622-41.544c2.251-0.458,3.448,0.227,5.237,1.338
		c6.475,4.019,14.499,15.604,22.145,19.929l0.716-2.098c-4.323-7.32-31.74-35.699-32.272-41.395
		c-0.149-1.591,4.095-9.825,6.326-8.966l16.344,15.568l0.722-2.103l-18.767-21.084c3.434-5.341,8.034-10.031,13.407-13.55
		c4.08-2.671,8.659-4.445,12.888-6.864c4.253-2.433,7.855-5.682,10.34-9.812c2.033-3.38,3.287-7.191,3.635-11.076l30.341,16.24
		l-25.15-20.56l13.345-12.843c3.74-1.777,27.64,15.675,34.486,18.072c7.405,2.593,21.902,2.237,26.165,4.728
		c5.31,3.104,1.269,13.945,3.706,17.733c1.441,2.24,22.989,12.634,27.419,14.153c-2.781-6-20.924-12.999-22.963-17.004
		c-2.409-4.733,1.242-11.974-2.11-16.424l-41.568-26.181l6.923-11.154c25.85,3.798,20.983,1.322,18.41-19.879
		c36.01-7.173,6.844-16.505,6.292-24.99c-0.256-3.928,10.756-13.062,8.24-19.03l-17.474-4.274c6.109-2.72,10.88-7.789,13.16-13.921
		c0.662-1.78,1.032-3.636,1.214-5.515c0.218-2.253-0.001-4.538,0.301-6.783c0.463-3.449,2.763-6.066,5.289-8.392
		c2.66-2.449,5.604-4.643,7.931-7.406c2.862-3.398,4.66-7.364,6.045-11.496c2.251-6.715,5.088-15.437-0.807-20.84l0.758-0.36
		c3.783-0.898,18.591,6.681,21.158,9.257c2.108,2.115,1.412,5.673,2.864,6.874c1.609,1.331,14.144,2.974,17.437,4.55
		c-1.828-4.563-9.875-4.501-12.698-6.975c-2.469-2.164-1.547-5.532-3.622-7.881c-1.697-1.921-25.665-13.377-20.704-17.759
		l49.954-5.49c0.64,0.895,1.993,1.339,3.043,1.062C668.609,318.684,669.211,317.26,668.971,315.848z M27.4,277.923
		c-0.576-0.888-1.125-1.767-1.67-2.578c-0.611-0.91-1.221-1.82-1.832-2.729c0.981,1.125,2.264,3.006,3.631,5.116
		C27.481,277.793,27.443,277.859,27.4,277.923z M495.326,108.408c6.573,2.643,11.051,7.954,14.826,13.538
		c3.804,5.628,7.091,11.62,11.697,16.711c5.024,5.552,11.834,9.234,19.629,9.362c7.808,0.128,15.162-2.916,21.914-6.699
		l-13.714,16.233c-6.944,1.421-16.108,8.61-23.839,13.577c-5.076-10.697-11.282-20.871-18.619-30.308
		c-8.812-11.334-19.028-21.631-30.514-30.506c-0.758-0.586-1.538-1.145-2.305-1.719C480.938,105.773,488.71,105.749,495.326,108.408
		z M498.294,138.414c-2.145-2.349-4.323-4.667-6.52-6.962c-1.413-1.476-2.837-2.941-4.264-4.404
		c-0.363-0.426-0.735-0.845-1.102-1.268C490.596,129.788,494.562,134.008,498.294,138.414z M381.568,70.238
		c1.351-1.639,2.702-3.301,3.588-5.222c1.151-2.496,1.275-4.995,0.876-7.675c-0.349-2.345-1.272-4.911-0.674-7.281
		c0.457-1.812,1.678-3.321,3.213-4.443c4.357-3.186,10.279-2.768,15.386-2.017c12.746,1.874,25.448,4.079,38.165,6.123
		c5.125,0.824,11.651,1.156,15.715,4.652c1.52,1.308,2.758,3.131,2.933,5.119c0.177,2.013-1.027,3.556-2.426,4.922
		c-1.977,1.932-4.121,3.658-5.571,6.024c-1.493,2.436-2.21,5.187-2.43,7.985c-0.105,1.335-0.08,2.673,0.033,4.007l-0.014,0.022
		c0.006,0.008,0.01,0.015,0.016,0.023c0.261,3.04,1.01,6.06,1.929,8.995c-0.325,0.971-0.8,1.916-1.397,2.841
		c-16.97-8.945-35.399-15.334-54.401-18.918c-5.667-1.069-11.384-1.894-17.127-2.482C380.073,72.005,380.819,71.148,381.568,70.238z
		 M311.278,62.313c3.731-1.058,7.609-1.528,11.219-2.97c3.164-1.263,5.865-3.247,8.325-5.511c4.039-3.716,7.751-8.973,13.312-10.689
		c3.368-1.039,6.98-0.607,10.447-0.406c3.745,0.217,7.526,0.189,11.009-1.31c2.286-0.985,4.047-2.617,5.649-4.398
		c-0.412,3.344-0.249,6.85-0.094,10.048c0.407,8.414,0.815,16.828,1.222,25.242c-11.506-0.777-23.082-0.583-34.548,0.648
		c-4.132,0.443-8.246,1.012-12.335,1.707c-4.644-0.136-9.29-0.201-13.936-0.206l-1.472-11.775
		C310.468,62.557,310.867,62.429,311.278,62.313z M289.552,85.516l0.11,0.511c-0.849,0.171-1.7,0.336-2.547,0.515
		C287.927,86.198,288.74,85.858,289.552,85.516z M190.292,85.84c0.146-0.265,0.332-0.516,0.512-0.761
		c0.408-0.555,0.881-1.069,1.348-1.579c1.108-1.209,2.299-2.349,3.556-3.416c4.703-3.994,10.416-6.902,16.206-9.172
		c2.937-1.151,5.929-2.169,8.942-3.122c1.502-0.475,3.01-0.933,4.521-1.383c0.818-0.244,1.637-0.486,2.456-0.724
		c0.41-0.119,0.837-0.282,1.26-0.348c0.111-0.05,0.227-0.066,0.35-0.047c0.017,0,0.023,0,0.038,0
		c0.46,0.386,0.742,1.349,0.979,1.852c0.446,0.943,0.889,1.887,1.333,2.831c0.963,2.045,1.925,4.089,2.888,6.134
		c1.925,4.089,3.851,8.178,5.776,12.267c1.055,2.24,4.342,1.304,5.037-0.631c2.179-6.066,4.358-12.132,6.537-18.198
		c1.084-3.019,2.162-6.04,3.253-9.056c0.826-2.285,1.726-4.495,3.998-5.774c2.429-1.368,5.324-2.057,7.967-2.942
		c2.717-0.909,5.617-2.263,8.503-2.553c2.531-0.254,3.545,1.209,4.446,3.269c1.135,2.595,2.239,5.186,3.563,7.7
		c0.175,0.332,0.361,0.657,0.54,0.986l4.034,18.702c-13.57,4.637-26.82,10.135-39.627,16.458
		c-12.287,5.24-24.296,11.067-35.972,17.472c-0.963-1.021-1.937-2.083-2.918-3.167c-4.157-5.148-8.313-10.296-12.47-15.444
		c-1.221-1.512-2.442-3.025-3.663-4.537c-0.666-0.825-1.332-1.65-1.998-2.475c-0.448-0.554-1.294-1.301-1.482-1.992
		C190.183,86.11,189.886,86.574,190.292,85.84z M236.361,116.937c-2.995,1.893-5.934,3.872-8.792,5.963
		c-0.237,0.116-0.454,0.2-0.667,0.277C229.857,120.791,233.031,118.74,236.361,116.937z M217.658,118.546
		c-0.016,0.025-0.034,0.05-0.049,0.075c-0.013-0.011-0.025-0.023-0.038-0.034C217.6,118.573,217.629,118.559,217.658,118.546z
		 M165.342,266.067c3.102-106.04,84.776-178.223,195.77-170.57c85.554,5.899,150.383,60.238,169.282,140.034
		c3.033,12.805,3.226,25.129,5.546,37.253c1.499,7.83,6.509,14.763,7.845,22.276c6.797,38.219-46.015,85.894-77.377,103.383
		C347.336,464.845,160.87,418.928,165.342,266.067z M131.513,191.308c1.616-5.13,3.017-10.395,5.883-15.049
		c2.796-4.54,6.945-7.616,12.423-8.544c4.762-0.807,9.713-0.015,14.469,1.156c-5.261,11.596-11.784,22.692-13.779,35.464
		l-22.598-5.776C129.684,196.456,130.701,193.884,131.513,191.308z M65.688,258.434c1.729-1.69,3.84-3.026,6.217-3.706
		c3.473-0.993,7.171-0.535,10.734-0.425c7.139,0.219,14.008-1.741,19.001-6.846c2.468-2.523,3.957-5.577,5.761-8.525
		c1.533-2.505,3.459-4.492,6.139-5.882c2.97-1.541,6.294-2.274,9.691-2.617l12.366,5.964c-2.376,3.441-3.972,13.618-6.186,15.825
		c-1.593,1.587-12.081,5.276-15.43,7.203c-7.361,4.235-14.403,8.779-21.422,13.488c-2.89-0.503-5.779-1.007-8.669-1.51
		c-7.168-1.248-14.398-2.909-21.676-3.43c-0.391-0.028-0.787-0.051-1.185-0.071C61.361,264.38,63.087,260.977,65.688,258.434z
		 M82.543,282.55c-0.058,0.132-0.118,0.265-0.175,0.397c-0.489-0.146-0.982-0.282-1.474-0.419c0.34-0.01,0.681-0.02,1.021-0.031
		C82.124,282.518,82.333,282.532,82.543,282.55z M66.571,285.111c0.702,0.302,1.404,0.604,2.105,0.905
		c-2.035-0.223-4.074-0.407-6.117-0.558c-1.612-0.234-3.218-0.5-4.82-0.788C60.69,284.649,63.639,284.799,66.571,285.111z
		 M67.475,308.848c-1.708-1.126-3.537-2.043-5.446-2.815c-3.785-1.53-7.858-2.379-11.972-2.43
		c-3.364-0.042-6.771,0.632-10.128,0.231c-3.018-0.36-4.596-2.004-5.219-4.788c-0.711-3.175-0.691-6.427-2.254-9.362
		c2.335,0.806,4.834,0.971,7.333,0.884c3.118-0.108,6.227-0.278,9.348-0.296c1.582-0.009,3.163,0.006,4.745,0.042
		c7.69,1.005,15.415,1.82,23.112,2.738c0.405,0.049,0.81,0.097,1.215,0.145c-2.299,6.127-4.295,12.305-5.995,18.542
		c-0.123-0.029-0.245-0.054-0.372-0.101C70.236,311.03,68.883,309.776,67.475,308.848z M95.649,349.837
		c20.697,13.201,13.965,64.473-14.674,65.853c-5.241-18.033-9.649-37.065-7.472-55.996
		C75.015,346.554,84.076,342.455,95.649,349.837z M41.971,362.139c0.769-1.138,1.487-2.306,2.124-3.513
		c1.462-2.768,2.617-5.71,3.311-8.742c0.712-3.106,0.983-6.287,1.665-9.398c0.671-3.061,1.741-5.974,4.213-8.125
		c2.697-2.347,6.397-3.651,9.656-5.109c2.075-0.928,4.15-1.857,6.225-2.786c-1.732,8.327-2.98,16.768-3.779,25.339
		c-1.696,1.94-3.669,3.68-5.808,5.231C53.709,357.403,47.84,359.771,41.971,362.139z M57.254,419.47
		c-2.247-7.214-4.494-14.427-6.742-21.64c-1.037-3.328-2.231-6.718-2.513-10.201c-0.279-3.451,0.797-6.977-0.801-10.238
		c5.834-1.04,11.646-2.03,17.41-2.793c0.999,18.832,4.091,37.472,10.386,55.32l-12.879,4.849
		C60.545,429.653,58.842,424.568,57.254,419.47z M79.107,501.925c-4.633-3.474-9.265-6.948-13.898-10.422
		c-3.079-2.309-6.159-4.618-9.238-6.927c-2.713-2.034-5.564-3.976-8.072-6.245c-1.804-1.633-3.523-3.75-3.787-5.977
		c-0.251-2.128,0.401-3.721,1.657-5.524c2.702-3.878,7.282-6.782,11.026-9.817c2.203-1.786,4.412-3.674,5.974-6.026
		c2.042-3.076,2.143-6.471,1.194-9.922c-0.221-0.802-0.466-1.6-0.697-2.401l13.135-3.032l22.145,47.315
		C95.631,486.107,86.324,495.996,79.107,501.925z M113.558,460.401c-7.478-2.923-29.843-31.237-29.708-38.249
		c37.704-8.608,42.37-84.38-4.41-80.197c6.41-14.967,11.06-23.76,29.144-17.281c40.506,14.512,46.498,91.669,26.864,122.746
		C131.555,453.581,121.744,463.601,113.558,460.401z M115.029,321.336c-4.674-2.223-11.259-4.908-16.33-3.496
		c-0.606-2.413,0.829-2.863,2.23-4.233c13.625-13.324,38.29-21.808,56.982-25.568c2.902,27.314,10.679,54.028,27.479,76.506
		c-16.322,28.51-21.168,74.215-41.636,99.347c-7.682,9.432-9.733,8.358-19.887,2.229
		C166.994,439.753,158.305,341.918,115.029,321.336z M416.309,596.562c0.584,1.488,1.167,2.976,1.751,4.464
		c0.544,1.386,1.104,2.768,1.632,4.16c0.113,0.298,0.43,0.847,0.384,1.209c-0.031-0.042-0.122-0.015-0.168,0.012
		c-1.514,0.89-3.719-1.098-4.928-1.99c-4.129-3.047-8.62-5.544-13.418-7.493c-4.904-1.992-10.024-3.407-15.298-4.139
		c-5.329-0.74-10.499-0.653-15.853-0.336c-2.331,0.138-4.634,0.086-6.544-1.035c-1.205-0.707-2.432-1.971-3.311-3.097
		c-2.394-3.064-4.199-6.582-7.111-9.258c-4.111-3.779-9.378-4.474-14.822-3.658c-2.346,0.352-4.656,0.957-6.974,1.49l1.715-9.373
		l51.977-15.533L416.309,596.562z M310.467,564.722l3.168-12.56c3.611-0.564,16.261-0.513,17.453-3.93
		c1.887-5.408-6.42-10.796-5.813-16.131c33.428,0.294,65.828-7.234,96.253-19.858C395.621,544.871,351.296,558.169,310.467,564.722z
		 M444.85,474.271c-10.382,26.537-20.172,32.982-47.733,42.238c-23.638,7.938-49.878,11.042-74.819,11.336
		c1.061-21.192-5.239-41.686-13.311-61.014c37.029,6.305,75.939,2.905,111.424-8.88l32.209-15.24
		C451.747,453.57,448.823,464.116,444.85,474.271z M454.109,434.9c-41.342,28.642-95.619,34.454-145.225,28.467
		c-5.896-1.815-12.994-20.581-20.625-23.5c4.008,9.228,10.316,17.313,14.584,26.451c6.942,14.864,10.676,29.323,13.355,45.38
		c0.888,5.321-0.247,14.259,1.05,19.116c0.689,2.58,8.831,14.806,8.012,15.463l-14.489,1.714l-8.556,16.721
		c-5.002-0.638-10.733-10.385-15.849-7.17l-9.999,14.272c-3.764,2.46-11.446-14.529-15.72-15.307l-18.304,5.381
		c-1.622-4.867,2.642-13.049,0.767-16.974c-1.537-3.216-16.101-14.913-19.987-19.242c-21.265-23.691-37.656-53.751-44.483-84.378
		c-2.533-0.349-1.454,3.278-1.484,4.961c-0.486,27.167,21.526,57.971,36.795,79.702l-18.265,35.907
		c-14.198-11.283-21.847-24.573-28.501-40.774c-3.412-8.309-1.682-16.577-14.551-15.862c-3.366,0.187-4.555,4.499-7.102,4.073
		c-2.208-0.369-20.052-20.389-20.046-21.911c42.718-25.973,42.303-77.475,63.558-117.045c2.05-0.397,1.887-0.291,3.063,0.903
		c3.625,3.679,6.587,8.123,10.944,11.9c67.255,58.296,170.708,65.247,251.057,28.34V434.9z M501.373,519.819
		c-2.294,3.883-5.662,6.614-9.692,8.768c-4.275,2.285-8.739,4.146-12.726,6.905c-3.821,2.645-7.294,5.723-10.249,9.246
		c-1.082,1.289-2.082,2.62-3.021,3.983l-11.469-12.886c11.497-11.788,24.907-21.855,33.928-35.77l16.085,8.609
		C504.332,512.575,503.39,516.406,501.373,519.819z M587.395,417.178l-8.396,16.298l11.358,15.588l-17.595,6.58l2.778,18.268
		l-19.019-1.178c-1.456,3.897-7.285,13.45-11.363,14.03c-3.887,0.553-7.324-13.347-10.242-13.798
		c-11.221,1.987-22.887,0.609-34.142-0.479c-5.617-0.543-46.049-6.077-46.394-9.155c6.24-18.065,5.627-37.129,5.896-55.876
		c19.649-8.53,35.669-22.457,52.058-35.514l42.059,26.62l10.768-4.103l2.143,18.542L587.395,417.178z M604.771,353.957
		c-1.152,3.632-2.525,7.297-4.955,10.347c-2.031,2.549-4.725,4.578-7.165,6.745c-2.49,2.211-4.94,4.673-6.337,7.68
		c-0.897,1.93-1.333,3.896-1.498,6.003c-0.166,2.121,0.012,4.27-0.271,6.383c-0.891,6.668-6.01,12.57-12.567,14.838l-2.569-15.55
		c-2.673-1.601-10.663,2.22-10.098-2.245c0.451-3.564,8.344-31.697,9.637-33.36l34.313-16.32c0.709,0.325,1.415,0.757,1.914,1.235
		c0.879,0.84,1.535,2.082,1.731,3.421C607.434,346.713,605.838,350.594,604.771,353.957z M660.715,316.423
		c-6.692-0.263-14.123-0.28-20.819-0.068c-4.206,0.133-7.853,1.456-11.716,1.545c-18.204,0.418-36.756,0.156-54.81,0
		c-8.021-29.006-17.746-57.657-31.852-84.493l26.264-7.721c0.838,0.703,1.582,1.498,2.182,2.384c1.488,2.197,2.01,4.723,2.137,7.38
		c0.161,3.355-0.177,6.721,0.151,10.071c0.31,3.168,1.17,6.162,2.849,8.923c2.928,4.817,7.552,8.342,11.609,12.229
		c1.913,1.833,3.687,3.75,5.088,5.976c1.488,2.363,2.614,4.904,3.657,7.47c2.162,5.316,4.136,10.757,7.96,15.226
		c8.26,9.655,22.249,8.952,34.011,8.898c9.452-0.043,23.449,1.967,26.014,11.992C662.482,316.284,661.442,316.452,660.715,316.423z"
		/>
</g>
</svg>
