<?xml version="1.0" encoding="utf-8"?>
<!-- Generator: Adobe Illustrator 26.0.1, SVG Export Plug-In . SVG Version: 6.00 Build 0)  -->
<svg version="1.1" id="Layer_1" xmlns="http://www.w3.org/2000/svg" xmlns:xlink="http://www.w3.org/1999/xlink" x="0px" y="0px"
	 viewBox="0 0 612 792" style="enable-background:new 0 0 612 792;" xml:space="preserve">
<style type="text/css">
	.st0{fill:#010101;}
</style>
<g>
	<path class="st0" d="M351.1,480.9c7.8-27.8,19.7-53.7,35.7-77.6c6.6-9.9,16.6-20.5,24.7-29.8c8.1-9.2,14.2-11.8,27.5-17.4
		c0.9-0.4,1.8-0.6,2.7-0.7c14.7-1.3,24,6,28.4,20.2c2.4,7.9,3.7,14.1,3.8,18.7c0.3,15.8,0,26.6-0.8,32.4c-2.5,18.4-3.1,28-6,35.7
		c-5.3,13.9-8.6,22.4-9.9,25.7c-4.5,10.9-12.5,19.9-23.8,33.1c-12.3,14.3-25.6,27-40,38c-0.9,0.7-1.4,1.8-1.3,3
		c1.7,13.4,0.6,28.6-3.2,45.6c-2.2,10.1-5.7,17.9-10.3,23.3c-12.3,14.4-37,20.4-56,23.4c-2.4,0.4-4.6,1.6-6.1,3.5
		c-8.3,10.1-16.9,18.5-30.4,8.8c-4.3-3.1-8.1-5.7-11.3-7.9c-1.1-0.7-2.3-1.2-3.6-1.4l-21.9-2.6c-1-0.1-2,0.3-2.7,1.1
		c-3.8,4.6-6.6,8.4-11,10.3c-12.3,5.2-24.7-2.4-32.5-11.5c-15.1-17.7-25.1-37.9-29.8-60.6c-2.3-10.9-2.4-21.2-3.7-33.5
		c-1.5-14.5,0-29.3,1.4-46.5c0.3-3.3-0.3-5.7-1.9-7.2c-9-8.6-18.9-17.5-22.5-28.3c-2.1-6.4-4.2-12.6-6.2-18.3
		c-2-5.8-2.9-14.1-2.7-24.9c0.4-16,3.1-31.7,8-47.1c3.5-10.8,8.9-19.9,16.2-27.2c0.5-0.5,0.7-1.3,0.4-1.9
		c-6.8-16.6-11.4-28.5-13.9-35.6c-5.3-14.9-5.7-31.8-6.4-50.8c-0.8-22.9,2.6-48.1,10.8-71.2c4.5-12.6,6.7-18.9,6.7-18.9
		c2.5-6.2,6.7-14.5,12.5-25c4.5-8.1,7.8-13.7,10-16.7c8.7-12.1,23.1-24,38.9-18.5c22.2,7.7,27.6,27,32.7,48.2
		c4.4,18.4,6.8,37.7,5.7,58.1c-0.4,6.7-0.6,14.9-0.6,24.4c0,10.1-2.3,20.7-2.9,28c-1.1,13.4-6.1,30.3-8.8,39
		c-0.6,2.1-0.9,3.8-0.9,5.2c0,0.6,0.4,1.1,1,1.1l26.4,2.3c1.1,0.1,2.1-0.7,2.2-1.8c1.6-12.2,3-23.7,7.1-36.3
		c6.2-19.2,9.1-31.5,16.7-46.9c5.5-11.2,8.6-17.3,9.1-18.3c15.9-30.4,37.6-54.2,63.5-75c5.6-4.5,9.9-7.3,13-8.4
		c3.8-1.4,13.2-5.4,18.8-5.3c7.7,0,14.7,2.7,21.1,8c7,5.8,11.1,12.5,12.3,20c5.8,37.2-1.1,74.3-12.7,108.6c-2,5.9-5.3,12.6-9.9,19.9
		c-10.8,17.2-22.9,34.3-36.3,51.3c-9.7,12.2-24.7,26.7-33.7,34.2c-1.6,1.3-2.2,3.5-1.6,5.4c2.9,9.2,7.1,20.3,7.3,29.2
		c0.2,9.2,0.3,15.1,0.6,17.5c0.7,8,0.8,13.8,0.3,17.5c-1.4,10.3-4.1,19-8.1,26.1c-0.6,1.1-0.3,2.5,0.6,3.3l4.6,3.7
		c0.6,0.5,1.6,0.4,2.1-0.2C351,481.2,351.1,481.1,351.1,480.9z M164.4,194.9c26.6-8.7,53.5-10.5,80.9-4.3c0.7,0.2,1.3-0.3,1.5-0.9
		c0-0.2,0-0.3,0-0.5c-1.9-11.5-4.2-22.8-6.8-34c-2.4-9.9-7.7-17.4-15.9-22.3c-5.3-3.2-11.1-3.5-17.3-0.9c-5.5,2.4-9.8,5.3-12.7,8.8
		c-13.8,16.8-24,34.5-30.6,53.2c-0.1,0.4,0.1,0.7,0.4,0.9C164.1,195,164.2,195,164.4,194.9z M422.2,252.1c7.1-27.6,11.4-51.4,9-79.1
		c-0.5-5.5-2.7-11.1-5.6-16.1c-5.9-10.4-18.3-12.1-29-8.7c-16.2,5.2-27.5,15.4-40.6,28.9c-8.6,8.9-15.6,16.9-21,24.1
		c-0.3,0.4-0.2,0.9,0.2,1.1c0.1,0.1,0.3,0.2,0.5,0.2c16.9,0.3,32.5,4.5,46.7,12.8c9.5,5.5,18.9,10.9,25.9,19.7
		c0.3,0.4,4.5,6.1,12.7,17.3c0.2,0.3,0.7,0.4,1,0.2C422,252.3,422.1,252.2,422.2,252.1z M151.1,273.9c30.4-14.4,64.8-17.3,97.9-12
		c0.5,0.1,1-0.3,1.1-0.8c0,0,0-0.1,0-0.1c1.2-16.6,1.8-26.5,0.3-42.2c-0.9-9.6-1.5-15.9-1.9-18.7c-0.2-1.9-1.5-3.5-3.3-4.2
		c-26.1-9.1-56.3-6.8-81.4,4c-0.5,0.2-1.1,0.5-1.5,0.9c-1,0.8-2,2.9-3,6.2c-7,22.6-10.1,44.7-9.2,66.4c0,0.3,0.3,0.6,0.6,0.6
		C150.9,273.9,151,273.9,151.1,273.9z M300.1,273.5c18.6,2.7,39,10.8,54.7,20.8c11,7,20.9,17.3,29.9,28.2c0.3,0.4,0.9,0.4,1.2,0.1
		c0.1-0.1,0.1-0.1,0.2-0.2c8.5-12.9,16.4-25.5,23.6-37.6c4.3-7.2,7.5-14.8,9.6-22.5c0.3-1,0.2-2.1-0.3-3c-7-14.8-15.5-25-30-34.8
		c-17.8-12.1-33.3-20-55.1-17.5c-2.1,0.2-4,1.4-5,3.3c-4.8,8.2-8.4,14-10.6,17.4c-9.2,14.3-14.3,30.1-18.7,45.2
		C299.6,273.1,299.8,273.4,300.1,273.5C300.1,273.5,300.1,273.5,300.1,273.5z M189.9,348.5c-0.9,1.8-1.9,3.1-3,4
		c-22.7,17.1-35.7,39.3-39.1,66.5c-2.2,17.5-1.5,32.8,4.7,48.8c8.3,21.2,23.9,35,47,41.2c16.7,4.5,35.3,6.1,55.9,4.8
		c29.9-2,68.6-18.2,81.1-47.9c9-21.5,7.5-45,2.1-67.2c-2.6-10.5-8.1-20-16.5-28.5c-0.4-0.4-0.3-1,0-1.3c0.1-0.1,0.2-0.2,0.4-0.2
		l0.7-0.1c0.7-0.1,1.4,0.1,1.9,0.6l7.2,7.2c0.8,0.8,2,0.8,2.9,0.2c16.8-13.3,32.1-29,45.7-47.2c0.9-1.2,0.9-2.7,0.1-3.9
		c-13.7-19.4-31.3-32.9-53-40.5c-11-3.9-18.6-6.9-28.6-6.7c-0.6,0-1.2,0.4-1.4,1c-5.5,15.8-9.1,30.6-10.7,44.4
		c-0.7,6.1-0.8,11.1-0.3,15.1c0.2,1.8,2,4,5.1,6.6c0.4,0.3,0.5,1,0.1,1.4c0,0,0,0,0,0l0,0c-0.4,0.5-1.1,0.6-1.7,0.3
		c-7.6-3.9-16-6.9-25.1-9.1c-11.8-2.8-26.2-1.1-38.4-0.9c-0.6,0-1.1-0.3-1.4-0.8l-0.3-0.5c-0.3-0.5-0.1-1.2,0.4-1.5
		c0.1-0.1,0.3-0.1,0.4-0.1c2.8-0.4,5.2-1.1,7.1-2.1c0.6-0.3,1-0.7,1.4-1.3c1-1.5,2.1-4.4,3.4-8.8c5.2-17.9,9-35.9,11.5-54
		c0.1-1-0.5-1.9-1.5-2.1c-3.5-0.7-10.3-1.5-20.7-2.3c-8.2-0.7-15.1-0.7-20.6,0c-21.1,2.6-35.1,4.9-51.4,13.2
		c-3.2,1.6-4.6,4.4-4.2,8.4c2.8,26.5,8.1,51.5,20.4,72.9c0.3,0.5,0.9,0.7,1.5,0.4c0,0,0.1,0,0.1-0.1l15.3-11
		c0.5-0.4,1.2-0.2,1.5,0.3C190,347.7,190.1,348.1,189.9,348.5z M462.3,446.2c2.4-19,3.5-32,3.3-38.9c-0.3-15.5,0.7-39.4-17.6-42.5
		c-3.5-0.6-7.6,0.4-12.4,2.9c-15.8,8.3-23.1,18.1-36.1,34.1c-0.3,0.3-0.2,0.8,0.1,1.1c0.1,0.1,0.2,0.1,0.3,0.2
		c3.1,1,5.9,1.8,8.4,2.4c19.1,5.2,36,17.8,47.1,33.3c3.3,4.6,5.2,7.2,5.7,7.8c0.2,0.3,0.7,0.3,1,0.1
		C462.2,446.5,462.2,446.4,462.3,446.2z M434.4,505.7c11-13.7,19-31.1,24.8-48c0.2-0.5,0.3-1,0.3-1.5c0.1-6-5.3-11.6-10.2-18.3
		c-3.8-5.1-7.2-9.1-10.3-11.7c-11-9.6-27.5-18.9-42.2-18.5c-0.8,0-1.5,0.4-1.9,1.1c-9.4,14-17.3,28.6-23.7,43.9
		c-0.1,0.3,0,0.6,0.3,0.8c0,0,0,0,0.1,0c24,7,42.4,21.1,55.3,42.3c4,6.6,6.1,10,6.1,10C433.4,506.1,434,506.1,434.4,505.7
		C434.4,505.7,434.4,505.7,434.4,505.7z M387.4,551.5c16.5-10.1,29.8-23.8,42.2-38.8c0.5-0.6,0.6-1.4,0.3-2.1
		c-10.3-23.8-26.3-41-51.2-50.9c-2.3-0.9-4.9-1.5-7.6-1.7c-1.3-0.1-2.6,0.7-3,2c-2.8,8.6-4.9,16.7-6.2,24.4
		c-1.5,8.8-3.3,14.3,2.6,22.2c10.3,13.8,16.1,29.9,21.7,44.5c0.2,0.4,0.6,0.6,1,0.4C387.4,551.5,387.4,551.5,387.4,551.5z
		 M273.4,647.8c-2.6-6.3-5.4-12.6-6.8-17.8c-3.3-12.2-6.3-24.6-9-37.3c-0.2-0.7,0.3-1.5,1-1.7l0.5-0.2c0.8-0.3,1.6,0.1,1.9,0.9
		c0,0.1,0,0.2,0.1,0.2c3.6,19.9,9.4,55.7,28.2,67.1c9.5,5.7,18.6-2.3,23.3-10.3c6.2-10.7,9.9-17.8,11.3-21.2
		c3.3-8.3,7.6-20.2,13-35.5c0.2-0.6,0.7-1.1,1.5-1.6c0.6-0.3,1.3-0.1,1.6,0.5c0.1,0.2,0.2,0.5,0.1,0.8c-1,5.5-2.9,11.8-5.6,18.8
		c-5.1,13.2-9.5,24.5-13.2,34c-0.3,0.6,0.1,1.4,0.7,1.6c0.1,0.1,0.3,0.1,0.5,0.1c17.9-0.1,40.2-6.5,50.9-22.1
		c0.4-0.6,0.3-1.5-0.3-1.9c-0.1-0.1-0.3-0.2-0.4-0.2c-26.9-7.3-27.3-45.1,1.9-49.4c2.4-0.3,6.2,0.3,9,0.2c0.6,0,1.1-0.5,1.1-1.1
		c0.1-14.6-3.9-29.7-11.9-45.3c-9.1-17.9-22-33.1-38.7-45.6c-0.4-0.3-1-0.3-1.4,0.1c-4.8,4.9-8.9,9-12.5,12
		c-31,26.6-75.6,28.9-114.2,22.1c-7.1-1.2-14.1-3.6-21.1-7.2c-0.5-0.2-1.1-0.1-1.3,0.4c0,0.1-0.1,0.1-0.1,0.2
		c-5.1,19.2-6.8,39.3-5,60.1c0.1,0.7,0.7,1.3,1.4,1.3c2.5-0.1,5.4,0,8.7,0.3c19.1,1.8,29.5,21.4,22.6,38.6c-2.9,7.3-10,10.2-17,13.6
		c-0.5,0.3-0.8,0.9-0.5,1.4c5.3,12,14.2,26,27.7,33.2c14,7.5,20.2-3.9,21.4-15.8c1.6-15.6,3.1-32.2,4.4-49.7c0-0.5,0.5-0.8,0.9-0.8
		c0.2,0,0.4,0.1,0.5,0.2l0.7,0.7c1.1,1,1.7,2.5,1.6,4l-4.3,49.3c-0.1,1,0.7,2,1.7,2.1c0,0,0,0,0,0l24.5,2.1c0.5,0,0.9-0.3,0.9-0.8
		C273.5,648,273.5,647.9,273.4,647.8z M178.7,581.3L188,614c0.8,2.9,3.8,4.6,6.7,3.7l0.3-0.1c10.7-3.1,16.9-14.5,13.7-25.5l-0.9-3.3
		c-3.1-11-14.4-17.5-25.1-14.4c0,0,0,0,0,0l-0.3,0.1C179.5,575.4,177.8,578.4,178.7,581.3C178.7,581.3,178.7,581.3,178.7,581.3z
		 M379.8,612.7l5.3-29.8c0.6-3.2-1.6-6.2-4.7-6.8l-0.2,0c-11.1-2-21.7,5.5-23.7,16.8l-0.1,0.5c-2,11.2,5.4,22,16.5,23.9l0.2,0
		C376.2,618,379.3,615.9,379.8,612.7C379.8,612.7,379.8,612.7,379.8,612.7z"/>
	<path class="st0" d="M228.2,373.8c15.6-1.4,29.4,11.7,30.9,29.2c1.5,17.5-9.8,32.7-25.4,34.1c0,0,0,0,0,0
		c-15.6,1.4-29.4-11.7-30.9-29.2C201.3,390.4,212.6,375.2,228.2,373.8C228.2,373.8,228.2,373.8,228.2,373.8z M229.1,378
		c-13.5,1-23.5,14.2-22.4,29.5c1.1,15.3,12.9,27,26.3,26l0,0c13.5-1,23.5-14.2,22.4-29.5C254.4,388.6,242.6,377,229.1,378L229.1,378
		z"/>
	<path class="st0" d="M229.7,397.1c4.3-0.2,7.9,3.5,8.1,8.2l0,0c0.2,4.7-3.1,8.8-7.3,9c-4.3,0.2-7.9-3.5-8.1-8.2l0,0
		C222.2,401.3,225.5,397.3,229.7,397.1z M229.7,401.2c-2.1,0.3-3.5,2.6-3.2,5.1c0,0,0,0,0,0c0.4,2.5,2.4,4.3,4.5,4s3.5-2.6,3.2-5.1
		c0,0,0,0,0,0C233.8,402.6,231.8,400.8,229.7,401.2z"/>
	<path class="st0" d="M325,455.2c-1,3.3-3.1,7.6-6.2,12.9c-6.7,11.5-16.6,17.3-29.8,17.4c-9.4,0.1-17.4-6.1-20.9-15.1
		c-4-10.1-2.2-22.3,0.9-32.4c3.1-10.1,8.4-21.1,17.4-27.3c8-5.5,18-6.2,25.8-0.9c10.9,7.5,15.9,17.9,15,31.1
		C326.7,447.2,326,451.9,325,455.2z M302.2,411.5c-9.5,1.2-15.7,13.9-13.9,28.3l0,0c1.8,14.5,11,25.2,20.5,24c0,0,0,0,0,0
		c9.5-1.2,15.7-13.9,13.9-28.3l0,0C320.9,421.1,311.7,410.3,302.2,411.5C302.2,411.5,302.2,411.5,302.2,411.5z M287.9,414.5
		c-15.2,10.6-19.4,33.3-17.5,50.7c1.8,16.4,17.1,19.4,30.2,14.7c5.1-1.8,9.6-5.8,13.5-11.8c0.2-0.4,0.1-0.9-0.2-1.1
		c-0.2-0.1-0.4-0.1-0.5-0.1c-5.8,0.8-11.4-0.2-16.7-3.2c-12.9-7.2-14.9-30-9.7-42.6c1.5-3.6,2.3-5.6,2.2-5.8c0-0.5-0.4-0.8-0.8-0.8
		C288.2,414.4,288,414.4,287.9,414.5z"/>
	<path class="st0" d="M196.1,459.7c0.3,10.4-5.1,29.8-20.2,20.4c-18.2-11.2-21.4-31.2-19.9-51.6c0.8-10.6,7.2-24.6,20.1-19.1
		c2.2,1,4.4,3.1,6.5,6.4C191.2,429.3,195.7,443.9,196.1,459.7z M189.1,463.6c-5.8-1-10.5-4.4-14-10.1c-7.4-12-5-25.2-3-39
		c0.2-1.1-0.6-2.2-1.8-2.4c-0.1,0-0.2,0-0.3,0c-2.4,0-4.1,0.8-5.2,2.4c-6.2,8.7-6.5,19.9-5.4,31.1c1.3,12.7,9.1,28,21.8,32.8
		c2.7,1,5.8-0.2,7.1-2.8l3.4-6.9c0.9-1.8,0.1-3.9-1.6-4.8C189.7,463.7,189.4,463.6,189.1,463.6z M176.1,416.5
		c-1.7,5.2-1.8,8.4-2.5,15c-1.3,11.4,4,27,16.8,28.7c0.8,0.1,1.6-0.5,1.7-1.3c0-0.1,0-0.2,0-0.2c-0.5-13.2-4.8-33.3-14.8-42.4
		c-0.3-0.3-0.8-0.3-1.1,0.1C176.2,416.3,176.1,416.4,176.1,416.5z"/>
	
		<ellipse transform="matrix(0.1426 -0.9898 0.9898 0.1426 -268.2339 620.5237)" class="st0" cx="224.1" cy="465.1" rx="4.2" ry="7.7"/>
	<path class="st0" d="M209.5,470.6c0-0.4,0.3-0.8,0.8-0.8c0.2,0,0.5,0.1,0.6,0.3c6.4,8.2,14.5,10.1,24.2,5.7c1.9-0.8,4-2.7,5.2-3.5
		c0.6-0.4,1.5-0.3,1.9,0.4c0.3,0.5,0.3,1.1,0,1.6c-7.3,9.8-21.8,10.9-30.3,2.2C210.3,474.8,209.5,472.8,209.5,470.6z"/>
	<path class="st0" d="M308.2,571.4c11.7,1,20.2,13.1,19,27c-1.2,13.9-11.7,24.3-23.4,23.2c0,0,0,0,0,0c-11.7-1-20.2-13.1-19-27
		c0,0,0,0,0,0C286,580.7,296.5,570.4,308.2,571.4z M288.3,595.9c-0.7,11.9,6.9,23.6,20.2,21.8c5.4-0.7,9.3-4,11.8-9.6
		c1.2-2.8,1.1-6.3,1.3-10.3c0.2-4,0.7-7.5-0.2-10.4c-1.8-5.9-5.3-9.5-10.6-10.9C297.7,573.1,288.9,583.9,288.3,595.9z"/>
	<path class="st0" d="M190.1,588.4c2.5-1.3,5.8,0.2,7.4,3.3c1.6,3.1,0.9,6.6-1.5,7.9c-2.5,1.3-5.8-0.2-7.4-3.3
		C187,593.3,187.6,589.7,190.1,588.4C190.1,588.4,190.1,588.4,190.1,588.4z M192.5,593.1c-0.5,0.2-0.6,0.9-0.3,1.5c0,0,0,0,0,0
		c0.3,0.6,0.9,0.8,1.4,0.6c0.5-0.2,0.6-0.9,0.3-1.5c0,0,0,0,0,0C193.6,593.2,193,592.9,192.5,593.1z"/>
	<ellipse transform="matrix(0.1788 -0.9839 0.9839 0.1788 -277.7598 856)" class="st0" cx="373.9" cy="594.4" rx="6.1" ry="4.4"/>
	
		<ellipse transform="matrix(5.930640e-02 -0.9982 0.9982 5.930640e-02 -306.8295 866.1098)" class="st0" cx="306.1" cy="595.9" rx="5.9" ry="4.8"/>
</g>
</svg>
