<?xml version="1.0" encoding="utf-8"?>
<!-- Generator: Adobe Illustrator 26.0.1, SVG Export Plug-In . SVG Version: 6.00 Build 0)  -->
<svg version="1.1" id="Layer_1" xmlns="http://www.w3.org/2000/svg" xmlns:xlink="http://www.w3.org/1999/xlink" x="0px" y="0px"
	 viewBox="0 0 612 792" style="enable-background:new 0 0 612 792;" xml:space="preserve">
<style type="text/css">
	.st0{fill:#010101;}
</style>
<g>
	<path class="st0" d="M318.3,363.8c7.9-14.7,13.2-27.6,16-38.8c4.3-17.5,8.3-30.4,11.8-39c11-26.1,30.9-48,57.9-57.1
		c2-0.7,6.2-2,12.6-3.8c0.6-0.2,0.9-0.8,0.7-1.3c0,0,0,0,0,0c-4.2-12.1-12.8-19.4-25.9-21.8c-27.8-5.2-57.4,14-76.1,33
		c-9.1,9.2-14,14.1-14.8,14.8c-23.1,19.5-48.3,32.6-75.6,39.4c-16.7,4.1-34.3,6.4-52.7,6.9c-11.6,0.3-20.6,0.8-27,1.3
		c-4.5,0.4-13.5,0.5-27,0.6c-5,0-14.5,1.3-28.2,3.8c-17,3.1-31.6,10.9-43.6,23.4c-0.8,0.9-2.2,0.9-3.1,0c-0.4-0.4-0.6-0.9-0.7-1.5
		c-0.1-5,0.7-10.5,2.2-16.8c7.8-30.5,26.8-56.5,49.6-77.3c26-23.8,55.2-41.9,87.5-54.6c16-6.3,31.6-9.9,46.7-10.9
		c10.1-0.7,25.2-0.9,45.4-0.7c59.1,0.6,116.5,13.4,165.2,48.2c5.8,4.2,11,8.3,15.3,12.4c1.7,1.6,3.7,2.8,5.9,3.5
		c46.1,15.2,76.7,44.4,76.1,95.8c-0.3,28.8-4.8,55.4-11.1,83.7c-0.2,0.8,0.1,1.7,0.7,2.2l6.8,6.8c1.6,1.6,1.7,4.1,0.4,5.8
		c-2.9,3.9-6.8,7.2-11.4,10c-2,1.2-3.5,3.2-4,5.5c-2.9,11.9-4.9,24.8-5.9,38.6c-0.8,10.6,2.3,18.4,8.6,28c14.5,22.2,27.4,43,38,67.6
		c0.4,0.9,0.9,1.6,1.7,2.2c4.7,3.8,8.3,6.3,9.2,12c0.4,2.4-0.8,4.7-2.9,5.8c-2.6,1.3-5.3,2.1-8.3,2.3c-26.7,2.3-53.5-0.1-80.3-7.2
		c-15.6-4.2-28-7.7-41.5-14.1c-1.6-0.8-3.4-0.7-5,0.1c-14.4,7.2-29.5,11.6-45.5,13.3c-1.4,0.1-2.8,0.9-3.7,2
		c-8.4,11.1-17.4,20.9-27,29.4c-3.7,3.3-14.7,12.2-20.1,11.4c-2.6-0.4-5.4-1.9-8.2-4.5c-6.4-5.9-11.6-11.4-15.7-16.5
		c-0.7-0.9-1.6-1.7-2.5-2.4c-9.7-7.3-17.2-18.4-23.2-29.2c-0.8-1.4-2-2.4-3.5-2.9l-11.7-4c-0.8-0.3-1.6-0.3-2.4-0.1
		c-1,0.3-2.6,1.1-4.8,2.5c-9.8,6.2-21.7,14.7-35.6,25.6c-5.2,4.1-11.2,6-17.8,5.8c-18-0.6-21.6-22.5-22.3-36.7
		c-1.6-31.8,4.1-61.6,17.1-89.6c0.7-1.5,0.4-3.6-0.7-6.5c-0.3-0.7-0.5-1.4-0.5-2.1c-0.1-0.9-0.6-6-1.7-15.3
		c-1.1-9.1-0.4-17.1,2-24.1c2.9-8.4,11.7-8.7,20.8-8.7c3.3,0,6.9,0.3,11,0.9c4.5,0.7,17.2,1.8,22.2-0.7
		c16.7-8.6,31.1-19.6,43.4-33.2c0.4-0.5,0.5-1.1,0.3-1.7c-1.3-3.1-2.4-6.9-3.3-11.4c-0.8-4.3,0.5-7.2,4-8.7c0.4-0.2,0.8-0.2,1.2-0.2
		h13.1C317.1,365.1,317.9,364.6,318.3,363.8z M56.8,291c1.8-1.1,3.5-2.6,5.2-4.3c11.2-11.6,26.5-28.7,40.3-39.2
		c11.6-8.8,23.6-16.2,36.1-22.3c1.4-0.7,3-0.1,3.7,1.2c0,0,0,0.1,0,0.1l0.1,0.1c0.7,1.4,0,3.1-1.4,3.9
		c-21.9,11.1-40.7,25.1-56.4,41.8c-7.6,8.2-14.9,15.7-21.3,21.7c-2.8,2.6-5.6,3.9-8.6,3.9c-0.7,0-1.3,0.4-1.5,1.1l-4,13.8
		c-0.1,0.3,0,0.5,0.3,0.6c0.2,0.1,0.3,0,0.5-0.1c20-15.5,41.2-19,67.6-21.2c9.6-0.8,18.1-1.2,25.8-1.2c28.9,0.2,58.7-1,86.2-9.1
		c28-8.2,52.2-22.2,72.5-41.8c0.5-0.5,3.2-3.3,8.3-8.5c10.1-10.4,21.7-19.2,34.8-26.2c18.6-10,37.8-12.5,57.7-7.5
		c0.2,0.1,0.4-0.1,0.5-0.3c0.1-0.2,0-0.4-0.2-0.5c-19.2-9.6-40.6-17.4-62-19.4c-5.8-0.5-13.3-0.8-22.6-0.6
		c-20.5,0.2-37.9,1.8-52,4.8c-1.1,0.2-2.3-0.5-2.5-1.6c0-0.1,0-0.2,0-0.4v-0.1c0-1.4,0.9-2.6,2.2-2.9c12.3-2.9,24.4-4.7,36.4-5.2
		c0.2,0,0.3-0.2,0.3-0.3v0c0-0.2-0.1-0.3-0.3-0.3c0,0,0,0,0,0c-31.1-3.2-60.2-2.8-87.1,1.1c-8.1,1.2-15.1,2.8-20.9,4.8
		c-40.1,14.1-74.9,36.1-104.5,65.9c-13.6,13.7-25.5,30.1-33.7,47.9c-0.1,0.2,0,0.4,0.2,0.5C56.5,291,56.6,291,56.8,291z
		 M416.8,210.4c2.9,3.2,5.1,7.3,6.5,12.4c0.1,0.5,0.6,0.9,1.2,0.9h19.8c0.3,0,0.5-0.2,0.5-0.4c0-0.2-0.1-0.3-0.2-0.4l-19.9-14
		c-0.7-0.5-1.7-0.5-2.4,0.1c-1.4,1.1-3.1,1.4-5,0.8c-0.3-0.1-0.5,0.1-0.6,0.3C416.6,210.1,416.7,210.3,416.8,210.4z M505.3,467.8
		c-0.7,0.9-2.6,2.3-5.7,4.3c-7.4,4.8-12.6-2.1-13.3-8.6c-0.8-7.2,1.8-13.3,7.8-18.1c4.5-3.5,10-0.1,14.5,3.1
		c0.4,0.3,0.9,0.2,1.2-0.2c0.1-0.1,0.1-0.3,0.2-0.4l0.4-5.5c0-0.1,0-0.3,0.1-0.4c7.9-27.6,13.7-55.2,17.6-83
		c0.1-0.6-0.3-1.1-0.9-1.2c0,0-0.1,0-0.1,0h-11.5c-1.5,0-2.7-1.1-3-2.5c-0.4-2.4-0.6-4.5-0.7-6.3c0-1.3,0-21.2,0.1-59.9
		c0-6.1,1.4-10.2,6-13.7c0.4-0.3,0.5-0.9,0.2-1.3c-13.2-19.6-31.5-30.9-53.8-39.2c-20.3-7.6-44.2-6.7-63.9,1.8
		c-26.7,11.6-44.7,36.2-53,64c-1.1,3.6-3.6,12.7-7.5,27.2c-7.2,26.6-20.3,49.5-39.3,68.7c-9.2,9.4-21.2,18.2-35.8,26.6
		c-10.3,5.9-16.9,10.1-19.9,12.5c-9.7,7.9-17.4,16-23.1,24.3c-20.2,29-29.6,66-28.5,101.2c0.2,7.6,1.5,15.7,3.7,24.5
		c0.2,0.8,1.1,1.3,1.9,1.1c0,0,0.1,0,0.1,0c10.1-3.5,18-5,26.4,3.1c0.3,0.3,0.9,0.4,1.2,0.1l32.6-23.4c0.2-0.2,0.3-0.5,0.1-0.7
		c-0.1-0.1-0.1-0.1-0.2-0.2l-16.1-6.4c-1-0.4-1.6-1.6-1.1-2.6c0.1-0.2,0.2-0.5,0.4-0.6l0.3-0.3c1.1-1.2,2.8-1.6,4.3-1
		c15.7,6.1,31.3,11,46.9,14.6c0.3,0.1,0.5-0.1,0.6-0.3c0-0.1,0-0.2,0-0.2c-5-16.7-7.2-34.4-6.6-53.1c0-0.5,0.4-0.8,0.9-0.8
		c0.1,0,0.3,0,0.4,0.1c0.2,0.2,0.5,0.4,0.7,0.7c0.4,0.5,0.6,1,0.8,1.5c0.3,1.1,1,5.9,1.9,14.5c3,27.1,10.3,54.2,26.7,76.1
		c1.1,1.5,3,2.3,4.8,2.2c7.2-0.7,14.3,0.8,21.3,4.5c1.5,0.8,3.3,0.5,4.5-0.6c16.8-14.9,32.1-32.6,41.7-52.7
		c4.4-9.2,7.8-18.5,10.4-28.1c0.3-1.3,1-2.2,2-2.6c0.5-0.2,1.1,0,1.3,0.5c0.1,0.1,0.1,0.3,0.1,0.4c0.4,15.6-9.3,34.6-17.7,47.7
		c-0.2,0.2-0.1,0.6,0.1,0.7c0.1,0.1,0.2,0.1,0.4,0.1c13.9-1.8,28.1-6.3,42.5-13.4c22.3-11,38.8-27.9,49.5-50.7
		c0.3-0.6,1-0.9,1.6-0.6c0.4,0.2,0.7,0.6,0.7,1.1c0.1,3-0.6,6.2-2.3,9.6c-8.4,17.1-22.8,30.9-39.1,40.9c-0.4,0.3-0.6,0.8-0.3,1.2
		c0.1,0.2,0.2,0.3,0.4,0.4c28.3,11.9,58.9,18.8,91.6,20.9c1.5,0.1,3-0.5,4-1.7c4.3-4.8,9.5-9.2,15.8-13.1c0.4-0.3,0.6-0.8,0.4-1.2
		c-7.2-16.2-16-32.4-26.4-48.8c-10.4-16.3-20.6-28.3-20.2-43c0.3-8.9,0.4-13.4,0.4-13.4c-0.3-0.4-0.8-0.5-1.2-0.3
		C505.4,467.7,505.4,467.8,505.3,467.8z M530.7,309.5c0-0.3-0.2-0.5-0.5-0.5l-0.7,0c-0.3,0-0.5,0.2-0.5,0.5l-0.5,37
		c0,0.3,0.2,0.5,0.5,0.5c0,0,0,0,0,0l0.7,0c0.3,0,0.5-0.2,0.5-0.5L530.7,309.5z M521.6,352.6c0.3,0,0.6-0.3,0.6-0.6c0,0,0,0,0,0
		l1.1-40.4c0-0.3-0.2-0.6-0.6-0.7c-0.2,0-0.4,0.1-0.6,0.3l-5.1,7.2c-0.1,0.1-0.1,0.2-0.1,0.4v33.1c0,0.3,0.3,0.6,0.6,0.6
		L521.6,352.6z M307.4,380.1l5.6-7.4c0.1-0.2,0.1-0.4-0.1-0.6c0,0,0,0,0,0l-0.1-0.1c-2.8-2.1-6.3-2-7.9,0.2l-0.2,0.2
		c-1.6,2.2-0.7,5.6,2,7.7l0.1,0.1C307,380.3,307.2,380.3,307.4,380.1C307.4,380.1,307.4,380.1,307.4,380.1z M521.9,423.6
		c0.6,0.3,2.1-1,4.6-3.9c0.2-0.2,0.4-0.5,0.4-0.9c0.2-1-0.1-1.8-1-2.3c-0.9-0.5-1.7-0.4-2.5,0.3c-0.2,0.2-0.4,0.5-0.5,0.8
		C521.6,421.3,521.3,423.3,521.9,423.6z M245.8,427c-9.6,0.3-18.4,0.1-26.3-0.6c-7.3-0.6-11,2.5-11.2,9.5
		c-0.3,12.1-0.3,20.6,0.1,25.3c0.1,1.5,0.5,3,1,4.3c0.2,0.4,0.7,0.6,1.1,0.5c0.2-0.1,0.3-0.2,0.4-0.3c9.1-15.2,19.7-27.7,35.1-37.7
		c0.2-0.2,0.3-0.5,0.1-0.7C246.1,427.1,245.9,427,245.8,427z M506.1,454.4l-6.1-4.3c-1.1-0.8-2.7-0.5-3.5,0.6l-0.3,0.5
		c-4.4,6.2-5.7,12.9-2.9,14.9l0,0c2.8,2,8.7-1.5,13.1-7.7l0.3-0.5C507.5,456.8,507.2,455.3,506.1,454.4z M294.2,574.4l-1.4,0.7
		c-0.2,0.1-0.2,0.3-0.2,0.5c0,0,0,0,0,0l0.2,0.4c2.9,5.6,5.7,10,6.1,9.8l0.3-0.2c0.4-0.2-1.6-5-4.5-10.6l-0.2-0.4
		C294.6,574.4,294.4,574.4,294.2,574.4C294.2,574.4,294.2,574.4,294.2,574.4z M546.3,589.7l16.4-2.7c0.6-0.1,1-0.7,0.9-1.3
		c0-0.2-0.1-0.4-0.3-0.6l-5.4-6c-0.5-0.5-1.2-0.6-1.7-0.2l-11.1,7.9c-0.7,0.5-0.9,1.4-0.4,2.1C545.1,589.5,545.7,589.8,546.3,589.7z
		 M201.7,593.3c-0.1,1.9,4,3.7,9,3.9c0,0,0,0,0,0c5.1,0.2,9.2-1.2,9.3-3.1c0.1-1.9-4-3.7-9-3.9c0,0,0,0,0,0
		C206,589.9,201.8,591.3,201.7,593.3z M342.1,619.2l-14.2-4.8c0,0,0,0,0,0c0,0,0,0,0,0l0,0.1c-0.8,2.3,1.6,5.2,5.4,6.5c0,0,0,0,0,0
		l0.6,0.2c3.8,1.3,7.4,0.4,8.2-1.9L342.1,619.2C342.1,619.2,342.1,619.2,342.1,619.2L342.1,619.2z"/>
	<path class="st0" d="M381.8,346.1c-4.9-0.8-8.2-5.5-7.4-10.4l5.6-33.1c4.6-27.1,18.6-47.3,31.4-45.1l4.9,0.8
		c12.7,2.2,19.4,25.9,14.8,53l-5.6,33.1c-0.8,4.9-5.5,8.2-10.4,7.4L381.8,346.1z M411.6,344.5h4.1c2,0,3.7-1.3,4.3-3.3
		c0.6-2.5,2.2-11.2,4.5-26.1c1.7-10.6,5.5-51.2-12.1-52.3c-0.5,0-0.9,0.3-0.9,0.8c0,0.2,0.1,0.4,0.2,0.6c7,8.8,5.8,21.6,4.8,33.5
		c-1.6,17.7-3.9,32.3-7,43.9c-0.3,1.2,0.4,2.4,1.6,2.8C411.2,344.5,411.4,344.5,411.6,344.5z M388.1,294.2c-4,17.5-6.5,32-7.4,43.5
		c-0.1,1.4,0.8,2.6,2.2,2.9l18.4,3.5c0.7,0.1,1.3-0.3,1.5-1c4.8-19.5,7.4-38.7,7.8-57.8c0-0.5-0.1-1-0.2-1.6
		c-1.2-4.3,0.5-8.9-1.2-12.3c-1.3-2.6-3.5-4.2-6.6-5c-0.2-0.1-0.4,0-0.5,0.2l-0.2,0.5c-0.2,0.3-0.1,0.8,0.3,1c0,0,0.1,0,0.1,0.1
		c4.5,1.5,6.7,5.1,6.6,10.8c-0.1,8.8-2.1,15.5-6,20.3c-4,5-10.5,6.2-12.7-1.3c-0.7-2.4-1.1-3.7-1.3-3.9c-0.1-0.2-0.4-0.2-0.6-0.1
		C388.2,294,388.1,294.1,388.1,294.2z M402.1,275.5c-1.5-0.4-4,3.9-5.5,9.6l0,0c-1.5,5.7-1.5,10.6,0.1,11c1.5,0.4,4-3.9,5.5-9.6
		c0,0,0,0,0,0C403.7,280.9,403.7,275.9,402.1,275.5C402.1,275.5,402.1,275.5,402.1,275.5z"/>
	<path class="st0" d="M433.5,353.8c1-0.8,2.3-1,3.9-0.4c0.8,0.3,1.3,0.9,1.5,1.7c1.6,7.9,4,8.2,11.5,8.2c5.1,0,9.8-0.4,14-1.1
		c2.5-0.4,5.1-0.4,7.6,0.2c6.3,1.5,13.2,2.4,20.6,2.8c4.8,0.2,8.3-1.3,10.6-4.5c0.6-0.8,1.6-1,2.4-0.4c0.2,0.2,0.4,0.4,0.6,0.7
		l0.4,0.8c0.5,1,0.5,2.2,0.1,3.2c-2.4,5.8-9.4,6.5-15.6,6.9c-0.7,0-1.4,0.5-1.7,1.2c-5.7,12.2-9.6,20.5-11.6,24.8
		c-4.3,8.9-13.6,25.5-25.3,25.9c-14.4,0.4-17.2-14.4-17.2-26.2c0-9.9,0.7-19.2,2.3-27.9c0.2-0.9,0.1-1.7-0.2-2.6
		c-1.2-3.8-4.1-6.5-4.5-11.5C432.6,354.9,432.9,354.2,433.5,353.8z M482.8,370.5c-9.3-2.3-18.7-2.7-28.1-1.3c-0.5,0.1-0.8,0.5-0.8,1
		c0,0.2,0.2,0.5,0.4,0.6c8.4,6.2,13.8,14.3,16.1,24.1c0.1,0.5,0.6,0.8,1.1,0.7c0.3-0.1,0.5-0.2,0.6-0.5l11.3-23.2
		c0.2-0.5,0-1.1-0.5-1.3C482.9,370.5,482.8,370.5,482.8,370.5z M443,374.2c-2.6,11.8-2.9,23.3-0.8,34.4c0.8,4.1,3.2,7.3,7.3,9.4
		c0.9,0.4,1.9,0.5,2.8,0.2c7.1-2.5,9.6-5.8,14.3-13c0.4-0.6,0.5-1.4,0.3-2.2c-3.4-12.8-8.8-25.1-22.1-29.8c-0.8-0.3-1.6,0.1-1.8,0.9
		C443,374.1,443,374.2,443,374.2z"/>
	<path class="st0" d="M346.1,407.9c0,8.7-7,15.7-15.7,15.7h0c-8.7,0-15.7-7-15.7-15.7c0,0,0,0,0,0c0-8.7,7-15.7,15.7-15.7
		C339,392.2,346.1,399.3,346.1,407.9z M339.8,407.9c0-5.4-4.3-9.7-9.7-9.7c-5.4,0-9.7,4.3-9.7,9.7c0,5.4,4.3,9.7,9.7,9.7l0,0
		C335.5,417.6,339.8,413.3,339.8,407.9C339.8,407.9,339.8,407.9,339.8,407.9z"/>
	<path class="st0" d="M364,447.1c0.9-8.5,8.7-14.7,17.4-13.8l0,0c8.7,0.9,15,8.6,14.1,17.2c0,0,0,0,0,0c-0.9,8.5-8.7,14.7-17.4,13.8
		c0,0,0,0,0,0C369.4,463.3,363,455.6,364,447.1C364,447.1,364,447.1,364,447.1z M389.4,448.7c0-5.3-4.3-9.7-9.7-9.7
		c-5.3,0-9.7,4.3-9.7,9.7c0,5.3,4.3,9.7,9.7,9.7h0C385.1,458.4,389.4,454,389.4,448.7L389.4,448.7z"/>
	<path class="st0" d="M465.7,468c0,8.7-7,15.7-15.7,15.7c-8.7,0-15.7-7-15.7-15.7c0-8.7,7-15.7,15.7-15.7l0,0
		C458.6,452.3,465.7,459.3,465.7,468L465.7,468z M459.8,467.9c0-5.4-4.4-9.7-9.7-9.7c-5.4,0-9.7,4.4-9.7,9.7c0,5.4,4.4,9.7,9.7,9.7
		h0C455.5,477.6,459.8,473.3,459.8,467.9L459.8,467.9z"/>
</g>
</svg>
