<?xml version="1.0" encoding="utf-8"?>
<!-- Generator: Adobe Illustrator 26.0.1, SVG Export Plug-In . SVG Version: 6.00 Build 0)  -->
<svg version="1.1" id="Layer_1" xmlns="http://www.w3.org/2000/svg" xmlns:xlink="http://www.w3.org/1999/xlink" x="0px" y="0px"
	 viewBox="0 0 612 792" style="enable-background:new 0 0 612 792;" xml:space="preserve">
<style type="text/css">
	.st0{fill:#010101;}
</style>
<g>
	<path class="st0" d="M335.6,322.2c0.8-0.2,1.3-1,1.1-1.8c0-0.1-0.1-0.3-0.1-0.4c-11-20.3-21.3-45.1-31-74.2
		c-4.4-13.4-7.3-23.8-8.8-31.3c-3-15.9-2.4-30.5-2.5-52.3c-0.1-12.7,6.7-25.5,17.3-33.2c6.7-4.9,18.6-3.6,25.8-1.4
		c11.7,3.5,22.3,9.7,31.7,18.4c7.7,7.2,19.5,18.7,26.7,27c8.9,10.4,17.9,23.5,26.9,39.5c10.2,18.1,17.9,38.4,17.4,58.6
		c-0.1,3,0.1,7.7,0.6,14.2c1.7,24.4-4.6,46.2-15.7,66.5c-0.6,1-0.4,2.3,0.4,3.1c18.6,20.1,31.8,42.5,32.2,70.3
		c0,3.3,0.1,5.7,0.3,7.3c0.2,1.6,0.9,3.1,2.1,4.3l16.8,15.6c0.8,0.8,1.5,1.7,2.1,2.7c4.8,8.7,7.9,19,10.1,29.3
		c4.4,21.2,0.8,40.5-10.7,57.7c-6.7,9.9-13.9,18.8-21.7,26.6c-2.1,2.1-3.8,4.7-4.8,7.5c-3.4,9.6-5.2,14.7-5.4,15.2
		c-6.6,18.6-19.3,37.8-28.4,53.6c-8.6,15-26.5,29.3-40.8,9.2c-2.5-3.6-6.5-4.5-10.3-2c-0.4,0.3-0.8,0.7-1.1,1.1
		c-1.4,2.4-3.4,6.9-6.4,9.2c-11.3,8.9-23.1,0.3-33-5.7c-2.3-1.4-4.9-2.2-7.6-2.3c-19.6-0.9-32-7.8-49.5-17c-2.2-1.1-4.6-1.5-7-1.1
		c-26.1,4.9-52.2,7.3-77.1-2.9c-12.4-5.1-22.8-9.6-32-18.9c-4.5-4.6-9.5-10.1-15-16.5c-7.4-8.6-11.7-21.9-14.4-33.1
		c-4.7-19.3-1.7-38.8,2.6-59.3c1.8-8.5,3.7-15,5.8-19.6c7-15,11.1-31.2,12.5-48.5c0.5-6.3-4.5-15.5-8.5-24c-1-2.2-1.4-5.8-1-10.8
		c0.8-10,1.3-16.3,1.6-19.1c0.7-6.2,4.9-8.1,10.1-11.5c0.5-0.3,0.8-0.9,0.9-1.5c0.3-7.4,4.3-11.5,12-12.4
		c15.8-1.8,29.8-1.8,42.1,0.1c20.2,3.2,38.2,12.9,55.4,24c0.8,0.5,1.9,0.3,2.4-0.5c0,0,0,0,0,0l5.5-8.4c0.3-0.5,0.2-1.1-0.3-1.4
		c-0.1-0.1-0.2-0.1-0.3-0.1c-27.3-5.9-53.1-17.7-72-39.5c-11.5-13.3-21-23.7-27.9-38.6c-6.2-13.3-12-27.2-17.3-41.7
		c-0.7-2-1.2-4.2-1.4-6.3c-1.6-17.1-6-40.5,6.5-50.6c8.8-7.2,18.1-7.5,29.1-3.7c16.5,5.7,31.7,13.2,45.6,22.6
		c19.4,13.1,38,28.7,55.6,46.9c6.6,6.8,11.3,12.2,14,16.2c6.7,10,10.5,15.4,11.2,16.4c6.4,7.8,12.1,20.8,16.4,28.9
		c0.7,1.2,2,1.8,3.4,1.5L335.6,322.2z M374,354.9c-1,0.2-2-0.1-2.7-0.8c-9.1-8.9-14.2-13.9-15.3-15.2c-2.3-2.7-18.2-12.9-21.8-5.8
		c-0.4,0.8-0.2,2.2,0.8,4.1c2.4,4.8,3.8,7.7,4.1,8.6c0.3,0.9-0.2,1.8-1,2c-0.1,0-0.1,0-0.2,0c0,0-0.2-0.2-0.5-0.5
		c-5.6-5.9-9.7-10.7-16.9-12.3c-2.2-0.5-4.4,0.7-5.2,2.9c-0.3,1-0.1,2.4,0.8,4.3c0.3,0.6,1.4,2.9,3.3,6.8c0.3,0.5,0,1.1-0.5,1.4
		c-0.1,0-0.1,0.1-0.2,0.1c-0.2,0-0.4,0-0.7,0c-0.3,0-0.5-0.1-0.7-0.2c-4-2.1-7.9-3.1-11.6-3.1c-1.5,0-2.7,1.2-2.7,2.7
		c0,0.3,0.1,0.7,0.2,1c1.1,2.8,2.4,5.1,3.9,6.9c0.6,0.7,0.5,1.7-0.1,2.3c-0.5,0.5-1.3,0.5-1.9,0.2c-7.6-4.3-10.2-19.4,4.4-17.1
		c0.8,0.1,1.5-0.4,1.7-1.2c0-0.2,0-0.3,0-0.5c-0.9-5,1.3-8.5,6.4-10.5c0.5-0.2,0.8-0.8,0.6-1.4c0,0,0,0,0-0.1
		c-7-14.5-13.8-26.8-20.6-36.9c-21.2-31.6-54.6-60-88.2-80.2c-14.1-8.5-30.1-16.1-46.1-13.3c-9.6,1.6-11.7,15.8-11.3,23.8
		c1.5,29.2,10.8,58,29.2,82.1c8.8,11.5,16.2,20.3,22.3,26.3c21.6,21.2,47.8,29.7,78.2,33.7c0.7,0.1,1.2,0.7,1.2,1.5
		c0,0.3-0.2,0.7-0.5,0.9c-9.6,8-16,20.9-21.6,33.6c-7,15.8-8.1,34.4-5.8,50.9c3.9,27.4,24.4,47.8,49.8,56.7
		c13.9,4.9,28.7,7.4,44.5,7.6c18.3,0.2,32.8-1,47.7-9.3c10.8-6,18.1-10.5,21.8-13.5c11.5-9.2,20.3-22.3,25.8-35.5
		c2.1-5,3.3-11.6,3.8-19.9c1.3-25.6-5.6-48.7-20.7-69.2c-2.5-3.4-6.2-6.8-11.2-10.1c-0.5-0.3-1.1-0.3-1.6-0.1l-2.9,1.5
		c-0.6,0.3-1.4,0.1-1.7-0.5c-0.2-0.4-0.2-0.9,0.1-1.3c15.9-24.7,23.2-51.2,22-79.5c-1.2-28-12.2-58-28.1-82.8
		c-3.5-5.4-7.1-10.2-11-14.4c-18-19.5-31.8-34.5-54.3-44.7c-7.4-3.3-23.3-3.6-29.3,4.4c-2.8,3.8-4.5,7.1-5,9.8
		c-2.2,11.7-2.7,23.8-1.7,36.2c4.2,50.4,20,97.6,49,139.4c3.8,5.5,7.5,10.1,10.9,13.7c4.9,5.1,8.8,9.5,11.7,13.2
		c0.3,0.4,0.2,0.9-0.1,1.2C374.3,354.8,374.2,354.9,374,354.9L374,354.9z M263.2,623.4c0,0-2.1-3.4-6.3-10.1
		c-8.6-13.7-11.6-28.6-11.4-44.8c0.1-7.4-1.4-13.5-6.7-17.8c-14.2-11.4-21.8-26.1-22.8-44.1c-1.3-22.9,4.7-47.3,20.6-64.2
		c2-2.1,6-6,12-11.7c1.3-1.2,2.1-2.8,2.3-4.5c1.2-9.7,3.7-19.2,7.5-28.3c0.4-1,0.1-2.2-0.9-2.8c-9.2-5.9-18.9-11.7-29.2-17.2
		c-13.9-7.5-29.3-11.8-46.1-12.9c-5.6-0.4-18.5,0.5-22.5,4.8c-1.4,1.6-1.3,4,0.2,5.4c0.4,0.3,0.8,0.6,1.2,0.8l5.4,2
		c0.6,0.2,1,0.7,1,1.4l0,0.7c0,0.7-0.5,1.3-1.2,1.3c-0.1,0-0.3,0-0.4,0c-5.3-1.4-8-3.5-15.5-1.3c-4.6,1.3-5.6,6-3.1,9.4
		c0.2,0.3,0.4,0.5,0.7,0.6l9.3,5.4c0.6,0.3,0.9,0.9,1,1.6l0,0.5c0,0.6-0.5,1.2-1.1,1.2c-0.2,0-0.3,0-0.5-0.1c-3.8-1.3-6.1-1.9-7-1.8
		c-11,1.1-5.4,11.4-2.3,17.3c9.3,17.9,6.2,38.6,0.3,57.2c-3.9,12.2-10.9,26.1-13.9,38c-2.8,10.9-4.3,21.9-4.5,33
		c-0.3,16.6,5.1,31.3,13,45.8c6.7,12.2,16.1,21.7,28.2,28.4c28.2,15.6,61.7,19.9,92.1,8.3c0.5-0.2,0.7-0.7,0.5-1.2
		C263.3,623.5,263.3,623.4,263.2,623.4z M436.5,567.3c12.6-4.3,20.7-14.5,29.4-24.6c9.9-11.5,14.6-24,16.1-39
		c2.3-22.1-4.7-40.9-21.2-56.3c-2.1-1.9-4.3-3.4-6.8-4.5c-0.6-0.3-1.4,0-1.7,0.7c0,0.1-0.1,0.1-0.1,0.2c-2.7,12.3-8,24.2-15.8,35.9
		c-15,22.2-45.1,38.7-72.1,40.1c-14.9,0.8-28.3-0.3-42.2-2.8c-26.4-4.8-54.4-19.1-65.3-45.1c-5-12-6.1-23.2-6.5-35.9
		c0-0.3-0.2-0.5-0.5-0.5c-0.1,0-0.2,0-0.3,0.1c-6.5,5.6-12,11.4-16.6,17.4c-8.9,11.9-12.8,27.8-13.7,43.6
		c-2.1,37.9,24.7,60.8,58.2,71c0.3,0.1,0.6,0,0.7-0.3c0.1-0.1,0-0.3-0.1-0.4c-7.4-12-15.9-24.5-19-36.9c-0.1-0.5,0.2-0.9,0.6-1
		c0.3-0.1,0.7,0.1,0.9,0.4c1.2,1.9,2,3.2,2.3,3.9c19,39.8,47.1,72.2,94.2,73.3c35.7,0.8,65.3-20.5,80.3-52c2-4.3,5.2-12,9.6-23.2
		c0.2-0.4,0.6-0.6,1-0.5c0.1,0,0.2,0.1,0.3,0.2l0.4,0.5c0.7,0.7,0.9,1.8,0.6,2.7c-3.6,10.8-8.1,21.5-13.7,32c-0.2,0.4-0.1,0.8,0.3,1
		C436,567.3,436.3,567.3,436.5,567.3z M442.4,570.5l-9,3.4c-2,0.7-3.8,1.8-5.5,3.1c-1.5,1.2-4.6,4.2-9.3,9
		c-9.3,9.5-20.5,16.6-34,20.3c-34,9.2-71.8,0.3-95.2-27c-2.7-3.1-5.6-5.9-9.1-7c-12.1-3.9-22.2-8-30.4-12.4c-0.2-0.1-0.5,0-0.6,0.2
		c0,0.1,0,0.1,0,0.2c-0.1,4.6-0.1,8.7-0.1,12.3c-0.1,21,11.1,49.1,30.6,60.3c13.9,8,27.5,11.9,40.9,11.7c0.6,0,1.1-0.5,1.1-1.1
		c0-0.2-0.1-0.4-0.2-0.6c-4.7-6.9-10.2-17.7-16.6-32.5c-0.2-0.6,0-1.2,0.6-1.4c0.1,0,0.2-0.1,0.3-0.1h0.1c0.8-0.1,1.6,0.3,2,1
		c4.7,9.5,9.1,18,13.1,25.3c5.2,9.4,12.6,16.3,22.4,20.6c9.2,4.1,12.9-4.2,14.8-11.8c0.8-3.1,2.1-10.1,3.8-20.9
		c0.1-0.7,0.8-1.2,1.5-1.1c0,0,0,0,0,0l0.6,0.1c0.9,0.1,1.5,0.9,1.3,1.8l-2.5,16.4c-0.1,0.9,0.5,1.8,1.4,1.9c0.1,0,0.2,0,0.3,0h11.9
		c0.5,0,0.9-0.4,0.9-0.9c0-0.1,0-0.2,0-0.3c-2.2-6.5-3.3-12.1-3.5-16.9c0-0.7,0.5-1.3,1.3-1.4c0.6,0,1.2,0.4,1.3,1
		c1.8,7.5,4.1,14.9,7.1,22.2c3.1,7.7,10.3,11.7,17,4.3c20.1-22.2,33.1-51.8,42.3-79.4c0.1-0.2,0-0.4-0.2-0.5
		C442.6,570.4,442.5,570.4,442.4,570.5z"/>
	<path class="st0" d="M379.9,343.2c-0.2,0.8-0.9,1.2-1.6,1.1c-0.3-0.1-0.5-0.2-0.7-0.4c-15.5-15.4-30.2-34.3-39.1-54.5
		c-5.7-13-12.5-27.9-15.3-37.7c-5.5-19.3-8.2-38.9-8.1-58.8c0.1-20.8,8.2-31.7,29.8-21.6c10.7,5,20.9,13.9,30.6,26.8
		c9.5,12.7,16.1,22.2,19.7,28.7c18.2,32.7,28.1,72.9,11.7,108c-1.4,2.9-3.2,5.7-5.5,8.4c-0.9,1.1-2.6,1.3-3.8,0.3
		c-0.4-0.3-0.6-0.7-0.8-1.2c-1.6-4.7-5.4-17.4-11.9-13.4C379.2,332.7,380.8,338.8,379.9,343.2z M376.9,336.1
		c2-6.7,3.1-12.3,11.8-10.9c5.6,0.9,8,7.4,10.7,12.4c0.3,0.5,0.8,0.6,1.3,0.4c0.1-0.1,0.2-0.2,0.3-0.3c10.9-15.1,12.4-40.1,9.2-58.1
		c-3.5-19.2-10.8-38.2-22-56.9c-7.8-12.9-14.7-22.8-20.8-29.6c-9-10-23-20.7-36.3-22.2c-11-1.3-12.2,14-12.4,21.6
		c-0.9,35.3,9.4,71.9,26.1,102.5c8.2,15,18.3,28.8,30.4,41.5c0.4,0.4,1.1,0.4,1.5,0C376.8,336.5,376.9,336.3,376.9,336.1z"/>
	<path class="st0" d="M294.1,349.4c-3.2-1.4-6.2-2.5-9-3.2c-2.1-0.6-4.3,0.3-4.8,2.1c0,0.1-0.1,0.3-0.1,0.4c-0.6,4,2.3,6.5,5.6,9.3
		c0.6,0.5,0.6,1.3,0.2,1.9c-0.2,0.3-0.6,0.4-0.9,0.5c-6.5,0.5-13.7-0.4-21.4-2.7c-25-7.4-47-20.5-66-39.2
		c-6.9-6.8-13.1-16.2-18.4-27.9c-7.5-16.7-12.3-28-14.2-33.7c-2.1-6.3-1.8-12.2,1.1-17.5c5.7-10.6,32,4.3,38.6,8.7
		c18.3,12.4,36.2,26.7,53.6,43.1c3.7,3.5,9,10,15.8,19.6c7,9.9,14.8,20.8,20,32.2c0.7,1.5,1.2,3.3,1.5,5.5c0.1,0.6-0.3,1.2-1,1.3
		C294.5,349.5,294.3,349.5,294.1,349.4z M277.2,355.3c-0.8-5.7-2.2-11.2,5.1-12.6c1.9-0.4,3.8-0.6,5.5-0.6c0.6,0,1-0.5,1-1
		c0-0.2,0-0.3-0.1-0.4c-10.3-21.4-24.1-39.7-41.3-54.9c-15.1-13.4-30.8-25.5-47.1-36.2c-5.1-3.4-31.9-19-32.3-4
		c-0.3,11.4,3.7,20.4,9,32.5c3.5,7.9,6.5,13.9,9.2,18.1c20.8,33,51.8,52.1,89.5,60.5c0.6,0.1,1.3-0.3,1.4-0.9
		C277.2,355.5,277.2,355.4,277.2,355.3z"/>
	<path class="st0" d="M373,417.5c11.2-8.5,24.6-4.6,31.6,7.3c8.4,14.1,11.7,28.3,9.1,44.2c-1.7,10.4-3.3,21.1-14,24.9
		c-12.7,4.5-22.5,1-29.3-10.2c-7.6-12.5-8.2-24.4-7.7-37.8C363,437.5,365.7,423,373,417.5z M386.3,418.2c-7.5,1.9-11,13.2-8,25.1
		c3.1,12,11.6,20.1,19.1,18.2l0,0c7.5-1.9,11-13.2,8-25.1C402.4,424.5,393.8,416.3,386.3,418.2C386.3,418.2,386.3,418.2,386.3,418.2
		z M409.9,454.6c-4.1,5.5-5.2,10.4-13.2,10.8c-8.6,0.5-15.5-4.9-18.6-12c-4.3-9.9-5-20.4-2-31.5c0.1-0.3-0.1-0.6-0.4-0.7
		c-0.2,0-0.4,0-0.5,0.1c-1.9,1.6-3.4,3.6-4.4,6.1c-5.6,13.2-6.1,26.7-3.2,40.3c1.5,7.1,6.9,18.9,14,22.1c7.2,3.2,15.4,2.9,21.6-2.2
		c7.1-5.7,8-24.1,7.4-32.7c0-0.3-0.2-0.4-0.5-0.4C410.1,454.4,410,454.5,409.9,454.6z"/>
	<path class="st0" d="M275.1,421.4c5.4-9.4,16-9.2,22.5-0.9c10.4,13.5,9.2,33.3,8.2,50c-0.2,3.2-1.1,6.9-2.7,11.1
		c-3.5,9.2-14.4,9.6-21.3,4.5c-1.9-1.4-4.2-5-6.8-10.7c-2.9-6.2-4.6-13-5.1-20.2C269,443.5,269.4,431.2,275.1,421.4z M288.7,418.8
		c-2.4-0.3-4.7,0.8-5.8,2.8c-4.2,7.7-1.7,22,1.9,29c2.4,4.6,8.7,9,14.1,6.7C307.9,453.4,298.3,420,288.7,418.8z M276,427.8
		c-0.9,1.4-1.6,3.9-2.1,7.3c-2.1,15.2-1.6,32.7,7.8,44.8c4.6,5.9,14.7,8.1,18.4-0.3c2.4-5.6,3.2-11.7,2.4-18.2
		c-0.1-0.4-0.5-0.7-0.9-0.7c0,0-0.1,0-0.1,0c-4.3,1.2-8.7,0.9-13-1.2c-8.4-4-11.5-23.4-11.5-31.5c0-0.3-0.2-0.5-0.5-0.5
		C276.3,427.6,276.1,427.6,276,427.8z"/>
	<ellipse transform="matrix(1 -6.981261e-03 6.981261e-03 1 -3.2912 2.3329)" class="st0" cx="332.5" cy="472.6" rx="6" ry="3.6"/>
	<path class="st0" d="M344.7,479c0.3-0.1,0.7,0,0.8,0.3c0.1,0.2,0.1,0.3,0,0.5c-5.2,12.8-20.6,9.2-26.2-0.4
		c-0.2-0.4-0.1-0.9,0.3-1.1c0.1,0,0.1-0.1,0.2-0.1c0.5-0.1,0.9-0.1,1.2,0.2c4.3,3,9,5.9,15.1,5.1C339.1,483.2,342.4,480,344.7,479z"
		/>
</g>
</svg>
