<?xml version="1.0" encoding="utf-8"?>
<!-- Generator: Adobe Illustrator 26.0.1, SVG Export Plug-In . SVG Version: 6.00 Build 0)  -->
<svg version="1.1" id="Layer_1" xmlns="http://www.w3.org/2000/svg" xmlns:xlink="http://www.w3.org/1999/xlink" x="0px" y="0px"
	 viewBox="0 0 612 792" style="enable-background:new 0 0 612 792;" xml:space="preserve">
<style type="text/css">
	.st0{fill:#010101;}
</style>
<g>
	<path class="st0" d="M91.8,208.4c0.6-0.1,1.1,0.1,1.5,0.7c2.3,3.2,5.4,7.7,9.3,13.4c0.5,0.7,1.3,1.1,2.1,1.1h16.6
		c0.9,0,1.6,0.7,1.6,1.6c0,0.4-0.1,0.7-0.4,1l-10.2,12.6c-0.6,0.7-0.8,1.7-0.5,2.6l4.9,15.5c0.2,0.7-0.1,1.4-0.8,1.7
		c-1.4,0.6-9.4-2.6-17.5-5.5c-0.1,0-0.3,0-0.6,0c-0.3,0-0.5,0.1-0.6,0.2c-7,4.9-13.9,10.2-15.4,10c-0.7-0.1-1.2-0.7-1.2-1.4
		l0.5-16.3c0-0.9-0.4-1.8-1.2-2.4l-13.2-9.4c-0.7-0.5-0.9-1.5-0.4-2.2c0.2-0.3,0.5-0.5,0.9-0.6l16-4.5c0.8-0.2,1.5-0.9,1.7-1.7
		c2.2-6.6,3.9-11.8,5.3-15.5C90.8,208.8,91.2,208.5,91.8,208.4z M97.5,249.6c0.6-0.1,1.3,0,2.1,0.3c6.8,2.6,10.9,4,12.1,4.4
		c0.3,0.1,0.7-0.1,0.7-0.4c0-0.1,0-0.2,0-0.4l-4.5-12.7c-0.3-0.7-0.1-1.5,0.4-2.1l8.8-11c0.2-0.2,0.1-0.5-0.1-0.6
		c-0.1-0.1-0.2-0.1-0.3-0.1h-13.6c-1,0-2-0.5-2.6-1.4c-3-4.4-5.5-8.1-7.4-10.8c-0.1-0.1-0.3-0.2-0.5-0.1c-0.3,0-0.4,0.1-0.5,0.3
		c-1.1,3.2-2.5,7.3-4.2,12.4c-0.3,1-1.1,1.7-2.1,2L72.8,233c-0.2,0.1-0.4,0.3-0.3,0.6c0,0.1,0.1,0.2,0.2,0.2l11.5,8.2
		c0.6,0.4,1,1.2,0.9,1.9l-0.9,13.4c0,0.3,0.2,0.6,0.6,0.6c0.1,0,0.3,0,0.4-0.1c1.1-0.6,4.6-3.1,10.5-7.5
		C96.2,249.9,96.9,249.7,97.5,249.6z"/>
	<path class="st0" d="M351.9,302.7c-0.2-0.1-0.5,0-0.6,0.3c0,0.1,0,0.2,0,0.3c5.2,17.6,6.7,35.5,4.3,53.6c-0.1,0.8,0.2,1.6,0.7,2.2
		c25.1,27.2,54.5,72.2,38.6,109.7c-0.2,0.5-0.2,1,0,1.4c3.9,7.8,9.6,14.8,17.3,24.5c0.3,0.4,0.8,0.4,1.2,0.1
		c0.1-0.1,0.2-0.2,0.3-0.3c8-18.9,16.4-36.9,25.2-53.9c3.1-5.9,6.4-11.6,9.9-17.1c0.6-1,2-1.3,3-0.6c0.1,0.1,0.2,0.1,0.3,0.2
		c8.6,7.8,17.6,16.8,27.1,27.2c22,24,43.7,49.6,65.2,76.9c2.7,3.4,0.6,4.8-2,7.8c-14.2,15.8-29,31.7-44.3,47.8c0,0-0.1,0.1-0.1,0.1
		l-0.9,0.6c-0.6,0.4-1.5,0.2-1.9-0.4l-50.9-81c-0.2-0.3-0.5-0.4-0.8-0.2c-0.1,0.1-0.2,0.1-0.2,0.3l-22.6,46.4c-0.4,0.7-1.2,1-2,0.7
		c-0.3-0.1-0.5-0.3-0.6-0.6l-25-43.3c-0.3-0.6-1-0.7-1.6-0.4c-0.2,0.1-0.3,0.3-0.4,0.4l-12,20.8c-0.5,0.8-1.5,1.1-2.4,0.6
		c-0.2-0.1-0.4-0.3-0.6-0.5c-5.1-7.4-10.6-16.8-16.5-28.1c-0.1-0.2-0.4-0.3-0.7-0.2c-0.1,0-0.2,0.1-0.2,0.2l-8.4,15.8
		c-0.5,0.9-1.6,1.2-2.5,0.8c-0.1,0-0.2-0.1-0.2-0.2c-0.6-0.4-1.3-1.3-2.2-2.7c-6-9.6-11.1-18.6-15.3-27.2c-0.3-0.5-0.7-0.9-1.2-1.1
		c-9.5-3.3-18.6-4.8-27.2-4.7c-22.4,0.5-46.8,3.1-64.3-13.3c-4.6-4.3-8.1-7.4-10.6-9.3c-12-9.2-19.8-23.8-24.8-38.3
		c-2.5-7.2-3.6-11.1-0.1-17.2c0.5-0.8,1.3-1.3,2.2-1.4c3.9-0.2,5.7-1.3,9.3,1.5c2.5,2,5,4.4,7.4,7.2c0.2,0.2,0.5,0.2,0.7,0.1
		c0,0,0.1-0.1,0.1-0.1c2.5-3.4,5.8-5.5,10.1-6.2c0.5-0.1,0.9-0.5,0.9-1.1v-4.5c0-0.7-0.4-1.2-1-1.5c-26.6-10.2-47.8-27.6-63.6-52.2
		c-1.5-2.3-4.5-7.2-9.3-14.9c-0.2-0.4-0.3-0.8-0.1-1.2l1.3-3.3c0.1-0.3,0.1-0.6,0-0.9l-1.1-3.5c-0.2-0.5,0-1.1,0.3-1.5
		c0.4-0.5,1.2-1,2.2-1.6c0.5-0.3,0.8-0.8,0.7-1.4c-0.3-2.5,1-3.9,3.9-4.2c0.5-0.1,1-0.3,1.4-0.7c0.2-0.3,0.4-0.9,0.6-1.7
		c0.3-1.6,1.7-2.8,3.2-2.5c0,0,0,0,0,0c1.8,0.3,3.4,0.3,4.8-0.2c0.5-0.1,0.9-0.1,1.4,0.1l2.5,1.3c0.3,0.1,0.6,0,0.7-0.2
		c0.1-0.1,0.1-0.2,0-0.4c-2-8-1.4-15.5,3.9-22.1c1.6-2,4.3-5.5,8.2-10.5c0.6-0.8,2.4-4.2,5.5-10.3c3.9-7.8,9.9-14.5,18.1-20.1
		c23.8-16.2,54.2-15,80.1-3.4c3,1.3,6.6,3.1,10.9,5.3c0.9,0.5,1.8,0.8,2.8,0.9c36.5,5.3,68.9,30.9,88.9,61c0.4,0.6,0.6,1.1,0.6,1.6
		c0.1,1-0.7,1.9-1.7,2c0,0,0,0-0.1,0C382.2,311,366.8,308.5,351.9,302.7z M206.6,417.9c-0.1-0.1-0.3-0.1-0.4,0
		c-0.1,0.1-0.1,0.2-0.1,0.3c5.8,15.7,16,33.8,31.7,40.2c0.4,0.2,0.9,0.2,1.3,0c4.3-1.5,3.2-8.7,2.6-12.9c-0.1-0.5,0.3-1,0.9-1.1
		c0.4,0,0.7,0.1,0.9,0.4c3.1,4.9,4,14.9-3.2,17.3c-0.3,0.1-0.5,0.4-0.3,0.7c0,0.1,0.1,0.2,0.2,0.2c15.8,13.4,33.5,12.9,55.9,12.2
		c1,0,3.2-0.4,6.5-1c2.1-0.4,4.4-0.3,7,0.3c13.9,3.3,30,8.1,45.9,10.2c9.6,1.2,20.7,1,28.1-6.2c16.1-15.7,13.8-42.2,6.2-61.4
		c-0.2-0.4-0.7-0.7-1.1-0.5c-1.5,0.5-2.2,1.7-4.2,1.7c-7-0.1-4.2-12.2-3.2-16.6c0.3-1.5,0.1-3.1-0.8-4.4l-13.1-19.5
		c-0.3-0.4-0.8-0.5-1.3-0.3c0,0-0.1,0.1-0.1,0.1c-3.6,3.3-7.1,2.1-8.2-2.5c-0.2-0.7-0.4-3.6-0.7-8.8c-0.1-1.1-0.6-2-1.8-2.7
		c-0.3-0.2-0.6-0.1-0.7,0.2c0,0,0,0.1,0,0.1l-3.4,9.1c-0.4,1-1.1,1.8-2,2.2l-1,0.5c-0.3,0.2-0.7,0-0.9-0.3c-0.1-0.2-0.1-0.4,0-0.5
		c9.2-26.3,7.2-56.3-3.6-81.5c-0.2-0.6-0.4-1.1-0.4-1.8l-0.2-1.9c0-0.4-0.4-0.8-0.8-0.7c-1.5,0.1-2.3-0.4-3.1-1.5
		c-0.4-0.6-0.6-0.9-0.7-0.9c-0.4-0.2-0.8-0.2-1.2-0.1c-1.4,0.8-2.5,1.3-3.7,0c-0.8-0.9-1.2-1.3-1.3-1.4c-0.3-0.2-0.8-0.2-1.1,0.1
		c-1.3,1.1-2.7,1.5-4,1.1c-0.5-0.1-1-0.1-1.5,0.2l-3.3,1.6c-0.3,0.2-0.5,0.4-0.6,0.8c-0.2,0.9-0.4,1.5-0.7,2
		c-13.8,19.8-15.5,47.4-15.1,71.1c0,0.3-0.2,0.6-0.6,0.6c-0.1,0-0.2,0-0.3-0.1l-0.7-0.4c-0.7-0.3-1.1-1-1.2-1.8
		c-2.1-21.3,0.9-41.8,8.8-61.4c0.4-1,2-3.7,4.7-8.3c0.3-0.6,0.5-1.2,0.6-1.9c0.3-3.3,0.2-4.4,4-4.8c0.3,0,0.6-0.3,0.5-0.7
		c0-0.2-0.1-0.3-0.2-0.4c-2.3-1.9-9.6-8.5-9-11.6c0.1-0.5,0.6-0.9,1.1-0.8c0.2,0,0.4,0.1,0.5,0.3c5.1,5.1,8.3,8.5,12.8,11.2
		c0.4,0.3,1,0.3,1.4,0.2l3.3-0.9c0.7-0.2,1.4-0.1,2,0.3c2.8,1.7,5.1-0.4,7,1.9c1.5,1.7,2.3,1.7,4.4,2.2c1.4,0.3,2.4,1.5,2.1,2.7
		c-0.6,3.3,0.5,5.6,1.9,8.7c0.6,1.3,1.6,1.8,3,1.5c9.3-1.7,18.3-4.6,27.1-8.9c0.4-0.2,0.6-0.7,0.4-1.2c0-0.1-0.1-0.2-0.2-0.2
		c-20.9-22-48.8-38.5-79.5-39.7c-0.5,0-0.8-0.4-0.8-0.9c0-0.1,0-0.2,0.1-0.3l0.5-1.4c0.2-0.5,0-1-0.5-1.2c-29.6-13.8-63.8-16-88.9,8
		c-0.2,0.2-0.2,0.5,0,0.8c0.1,0.1,0.3,0.2,0.5,0.2c6.6-1.1,6.4,5.5,5,10c-0.1,0.4,0,0.9,0.4,1.2c1.6,1.2,1.6,2.8,0,4.7
		c-0.2,0.3-0.6,0.5-1,0.5l-2.5-0.1c-0.3,0-0.7,0.1-0.9,0.4c-1.9,1.9-3.3,3-4.4,3.2c-4.2,0.8-6.4-0.9-6.6-5.4c0-0.2-0.2-0.4-0.4-0.4
		c-0.2,0-0.3,0.1-0.4,0.3c-1.7,4.2-4.5,8.5-8.2,12.9c-0.3,0.3-0.3,0.8,0,1.2c1.4,1.8,2.3,3.2,2.5,4.2c2,8.6,2.7,24.1-4.2,31.2
		c-0.4,0.5-0.5,1.2-0.2,1.7c8.8,15.2,20.8,28.9,34.1,40.8c0.4,0.4,0.5,1,0.1,1.4c-0.1,0.2-0.3,0.3-0.5,0.3c-0.2,0-0.6,0-1-0.2
		c-2.3-1-5.3-3.2-8.8-6.5c-12.7-11.8-22.8-25-30.1-40.6c-2.1-4.6-6.6-5.4-10.9-5c-0.4,0-0.8,0.3-0.9,0.7c-1.1,3.2-1.4,3-4.5,3.7
		c-0.3,0.1-0.6,0.4-0.6,0.7v3.5c0,0.5-0.3,1-0.7,1.2l-1.3,0.7c-0.4,0.2-0.6,0.7-0.5,1.2c0.7,2.1,0.5,3.8-0.6,5.1
		c-0.2,0.3-0.3,0.6-0.1,1c15.7,28.9,37.3,51.2,68,63.5c0.4,0.2,0.8,0,1-0.4c0.1-0.2,0.1-0.3,0-0.5l-4.6-16.5c-0.1-0.4,0.1-0.9,0.6-1
		c0.1,0,0.3,0,0.4,0l0.1,0c0.9,0.3,1.7,1,2.2,1.9c4.1,8.4,6,17.3,5.5,26.6c0,0.4,0.3,0.8,0.7,0.9c8,1,15.1,4.2,21.5,9.6
		c0.8,0.7,1.3,1.4,1.4,2c0.1,0.5-0.2,1-0.7,1.1c-0.2,0.1-0.5,0-0.7-0.1c-8.9-5.1-24.7-14.7-33.7-4.7c-0.8,0.8-0.8,2.1-0.1,3
		c5,6,9.7,12.1,12.3,18.9c0.2,0.5-0.1,1.1-0.6,1.3c-0.2,0.1-0.4,0.1-0.6,0c-0.6-0.1-1-0.4-1.4-0.9c-7-10.2-14.2-19.8-23.2-28
		c0,0-0.1,0-0.1-0.1c-0.1,0-0.2-0.1-0.3-0.1c-0.2,0-0.3,0.1-0.4,0.2c0,0.1,0,0.1,0,0.2l5.1,13.1c0.2,0.5-0.1,1-0.5,1.2
		c-0.2,0.1-0.5,0.1-0.8,0c-3.4-1.8-6.7-10.7-8.2-14.8c-0.1-0.4-0.5-0.6-0.9-0.5l-0.1,0c-0.4,0.1-0.6,0.4-0.6,0.8c0,0,0,0,0,0
		c1,4.4,2.9,9.3,5.6,14.6c0.3,0.6,0.1,1.2-0.5,1.5c-0.3,0.2-0.7,0.2-1,0C208.8,420.1,207.9,419.3,206.6,417.9z M212.6,256.8
		c-0.8-0.3-2,0.6-2.7,2.2c-0.6,1.5-0.5,3.1,0.3,3.4l0,0c0.8,0.3,2-0.6,2.7-2.2C213.6,258.7,213.4,257.2,212.6,256.8z M188.5,313.7
		c3.9-5.2,4.5-23.6,0.9-28.3c-0.2-0.3-0.6-0.3-0.9-0.1c0,0-0.1,0-0.1,0.1c-7.3,7.9-5.2,19.5-0.9,28.3c0.1,0.3,0.5,0.4,0.8,0.3
		C188.4,313.8,188.4,313.8,188.5,313.7z M361,371.7c0.4,2,0.5,3,0.5,3c0.2,0.5,0.8,0.7,1.3,0.5c0.4-0.2,0.6-0.5,0.6-0.9
		c0-1.1-0.7-2-1.8-2.9c-0.2-0.1-0.4-0.1-0.5,0.1C361.1,371.5,361,371.6,361,371.7z M384.1,406.6l-0.6,6.7c0,0.6,0.4,1.1,1,1.1
		c0.2,0,0.5,0,0.6-0.2l1.2-0.8c0.9-0.6,1.2-1.7,0.8-2.7l-2-4.5c-0.1-0.3-0.4-0.4-0.7-0.3C384.3,406.3,384.1,406.4,384.1,406.6z
		 M406.9,493.7c-0.1-0.2-0.3-0.2-0.5-0.1c-0.1,0.1-0.2,0.3-0.1,0.4c1.4,3.5,3.2,8.1,2.1,11.9c-1.1,3.7-4.8,3.4-7.6,3.7
		c-0.3,0-0.6,0.3-0.5,0.7c0,0.1,0,0.2,0.1,0.2l18.2,31.6c0.2,0.3,0.5,0.4,0.8,0.2c0.1-0.1,0.2-0.1,0.2-0.2l22.4-45.9
		c0.3-0.7,1.2-1,1.9-0.6c0.1,0,0.2,0.1,0.2,0.2c0.8,0.6,1.7,1.8,2.8,3.5c17.4,27.5,33.8,53.7,49.2,78.5c0.3,0.5,1,0.7,1.6,0.4
		c0.1-0.1,0.2-0.1,0.2-0.2l43.4-46.9c0.4-0.4,0.4-1,0.1-1.4c-20.7-26.4-42.7-52.3-66-77.7c-7-7.6-14.9-15.6-23.7-24
		c-0.4-0.4-1-0.4-1.4,0c-0.1,0.1-0.1,0.1-0.1,0.2c-13.4,22.3-24.9,48.3-35,72.1c-0.4,1-1.6,1.5-2.7,1.1c-0.3-0.1-0.6-0.4-0.9-0.7
		L406.9,493.7z M390.9,496.7c-0.4-1.1-0.6-1.8-0.5-2c0.2-0.6,0.9-0.9,1.5-0.7c0.2,0.1,0.3,0.2,0.4,0.3l9,9.8c0.1,0.1,0.2,0.1,0.3,0
		l0.3-0.2c0.2-0.2,0.3-0.6,0-0.8c0,0,0,0,0,0c-2.4-2.2-6.4-7.2-7-11c-0.1-0.5,0.3-1,0.8-1.1c0.3-0.1,0.7,0.1,0.9,0.3l6.9,7.6
		c0.1,0.1,0.2,0.1,0.3,0c0.1-0.1,0.1-0.2,0.1-0.3c-2.7-7.9-6.4-16-10.9-24.3c-0.2-0.3-0.6-0.4-0.9-0.3c-0.1,0.1-0.2,0.1-0.2,0.2
		c-2.7,4.4-5.9,7.8-9.6,10.3c-0.4,0.3-0.5,0.8-0.2,1.3c0,0,0,0,0,0l8.1,11.3c0.2,0.2,0.5,0.3,0.7,0.1
		C390.9,497.1,391,496.9,390.9,496.7z M349,508.3l8.4-15.8c0.5-0.9,1.6-1.2,2.4-0.7c0.3,0.2,0.5,0.4,0.7,0.7l16.4,28.5
		c0.1,0.2,0.3,0.2,0.5,0.1c0.1,0,0.1-0.1,0.1-0.1l8.7-15.1c0.2-0.3,0.1-0.6-0.2-0.8c-0.1,0-0.1-0.1-0.2-0.1l-1.5-0.1
		c-0.5,0-1-0.5-0.9-1.1l0.4-4.5c0-0.6-0.4-1.1-0.9-1.1c-0.2,0-0.5,0-0.7,0.2c-1.4,1-2.6,0.9-3.6-0.3c-0.2-0.3-0.7-0.4-1-0.1
		c0,0,0,0-0.1,0.1c-0.7,0.7-1.3,1.1-2,1.2c-0.5,0.1-1-0.3-1.7-1.3c-1-1.5-2.9-4.2-5.5-8c-0.2-0.3-0.4-0.4-0.8-0.4l-14.4-1.3
		c-0.4,0-0.7,0.2-0.8,0.6l-2.3,7.8c-0.3,1-1.4,1.6-2.4,1.3c-0.4-0.1-0.8-0.4-1.1-0.8l-6.8-10.2c-0.4-0.7-1.1-1.1-1.9-1.4l-1.9-0.6
		c-0.5-0.1-1,0.1-1.1,0.6c-0.1,0.2,0,0.5,0.1,0.7l12.8,22.1c0.2,0.3,0.6,0.5,1,0.3C348.9,508.5,349,508.5,349,508.3z M378,486.8
		l-5.1,1.4c-0.4,0.1-0.6,0.5-0.5,0.9c0,0.1,0.1,0.2,0.1,0.2l2.5,3.5c0.2,0.3,0.6,0.3,0.8,0.1c0.1,0,0.1-0.1,0.2-0.2
		c1.4-2.2,2.2-4,2.5-5.5c0-0.2-0.1-0.4-0.3-0.5C378.2,486.7,378.1,486.7,378,486.8z M345.1,487.9l1.7,2.9c0.1,0.2,0.3,0.2,0.5,0.1
		c0,0,0,0,0,0l0.2-0.1c0.9-0.5,1.2-1.7,0.7-2.6l-0.2-0.2c-0.5-0.9-1.7-1.2-2.6-0.6l-0.2,0.1C345.1,487.5,345,487.7,345.1,487.9
		C345.1,487.9,345.1,487.9,345.1,487.9z M381.2,492.8c-0.5,0.4-0.6,1.3-0.1,2l0,0c0.5,0.7,1.3,1,1.9,0.7l0,0c0.5-0.4,0.6-1.3,0.1-2
		l0,0C382.5,492.8,381.7,492.5,381.2,492.8L381.2,492.8z M386.7,499.5c0,0.3,0.2,0.5,0.4,0.6c0.1,0,0.2,0,0.2-0.1
		c0.2-0.1,0.2-0.3,0.1-0.5c-0.1-0.2-0.3-0.3-0.5-0.3C386.7,499.3,386.6,499.4,386.7,499.5z"/>
	<path class="st0" d="M263.4,243c5.8-3.1,13.1-0.6,16.4,5.5c3.3,6.1,1.3,13.6-4.5,16.7c-5.8,3.1-13.1,0.6-16.4-5.5
		C255.5,253.6,257.6,246.1,263.4,243z M271.4,250.1c0-2.6-2.1-4.8-4.8-4.8l0,0c-2.6,0-4.8,2.1-4.8,4.8l0,0c0,2.6,2.1,4.8,4.8,4.8
		l0,0C269.2,254.8,271.4,252.7,271.4,250.1L271.4,250.1z"/>
	<path class="st0" d="M527.4,289.8c0,0.8-0.3,1.3-1,1.6c-6.9,3.3-13.6,6.6-20.3,9.8c-0.8,0.4-1.4,1.2-1.5,2.1l-3.3,22
		c-0.2,1-1.1,1.7-2.1,1.5c-0.4-0.1-0.7-0.2-1-0.5l-16.6-16.6c-0.3-0.3-0.8-0.5-1.3-0.4c-12.1,2.1-19.8,3.4-23.1,3.9
		c-0.3,0-0.6,0-0.7-0.1c-1-0.5-1.4-1.6-0.9-2.6c0,0,0-0.1,0-0.1c3.5-6.7,7.2-13.4,10.8-20.1c0,0,0-0.3,0.1-0.7c0-0.4,0-0.7,0-0.7
		c-3.6-6.7-7.2-13.5-10.7-20.2c-0.5-1-0.1-2.2,0.8-2.7c0,0,0.1,0,0.1,0c0.2-0.1,0.4-0.1,0.7-0.1c3.3,0.5,11,1.8,23,4
		c0.5,0.1,0.9-0.1,1.3-0.4l16.7-16.5c0.7-0.7,1.9-0.7,2.6,0c0.3,0.3,0.5,0.6,0.5,1l3.2,22c0.1,0.9,0.7,1.7,1.5,2.1
		c6.7,3.3,13.4,6.6,20.3,10C527.1,288.4,527.4,289,527.4,289.8z M470.6,289.6c0,0.6-0.3,1.4-0.8,2.4c-1.7,3.2-4.7,8.6-8.7,16.3
		c-0.1,0.2,0,0.4,0.1,0.5c0.1,0,0.1,0.1,0.2,0l19.7-3.2c0.9-0.1,1.8,0.2,2.5,0.8l13.8,13.8c0.2,0.2,0.6,0.2,0.8,0
		c0.1-0.1,0.2-0.2,0.2-0.3l2.9-19c0.1-0.9,0.7-1.7,1.5-2.1c6.7-3.2,12.7-6.1,17.8-8.6c0.1-0.1,0.1-0.2,0.1-0.4s0-0.4-0.1-0.4
		c-5.1-2.5-11.1-5.4-17.8-8.7c-0.8-0.4-1.4-1.2-1.5-2.1l-2.8-19c0-0.3-0.3-0.5-0.6-0.5c-0.1,0-0.2,0.1-0.3,0.2l-13.8,13.7
		c-0.7,0.6-1.6,0.9-2.5,0.8l-19.7-3.3c-0.2,0-0.4,0.1-0.4,0.3c0,0.1,0,0.2,0,0.2c4,7.7,6.9,13.1,8.6,16.3
		C470.3,288.2,470.6,289,470.6,289.6z"/>
	<path class="st0" d="M247.5,273.1c0.1,0.3,0.1,0.7,0,1.3c-0.7,3.2-1.2,4.8-0.7,8.1c1.7,12.5,3.9,42.5-10.5,48.6
		c-8.1,3.5-13.8-4.2-17.4-10.9c-5.9-10.6-9.6-21.1-14.3-33.9c-0.1-0.4-0.4-0.8-0.8-1l-2.4-1.6c-0.8-0.5-1.3-1.4-1.4-2.4l-0.1-1.3
		c0-0.4,0.3-0.8,0.7-0.8c0.2,0,0.3,0,0.5,0.1l3.5,2.3c0.4,0.3,0.9,0.3,1.4,0.2c4.8-1.3,6.8-3.3,9.9-7.2c0.4-0.5,1-0.6,1.5-0.3
		c7.3,4.5,23.3,9.7,27.9-1.2c0.3-0.7,1.1-1,1.7-0.7C247.1,272.6,247.4,272.8,247.5,273.1z M208.5,286l4.8,13.6
		c0.1,0.4,0.6,0.6,1,0.5c0.2-0.1,0.3-0.2,0.4-0.3c6.5-9.2,15.7-13.4,27.7-12.6c0.6,0,1.1-0.4,1.1-1c0-0.1,0-0.2,0-0.2l-0.5-3.3
		c-0.1-0.5-0.6-0.8-1.1-0.8c0,0-0.1,0-0.1,0c-7.5,2.5-15.3,1.5-23.4-2.9c-0.5-0.3-1-0.2-1.4,0.2c-2.3,2.4-5,4.4-8.1,5.7
		C208.6,285.2,208.4,285.6,208.5,286z M243.4,291c-10.5-1.3-21.2,2.8-26.2,12.2c-1.2,2.2-0.9,3.4,0.1,5.7
		c2.9,6.5,6.4,13.9,11.9,18.3c3.3,2.6,8-0.3,9.9-3.2c5.5-8.7,5.4-22.3,4.9-32.3C244,291.3,243.7,291,243.4,291z"/>
	<path class="st0" d="M309.1,291.5c0.7,9.6-6.7,18.1-16.5,18.8c-9.9,0.8-18.5-6.4-19.2-16.1c-0.7-9.6,6.7-18.1,16.5-18.8
		C299.7,274.6,308.3,281.8,309.1,291.5z M305.2,292.9c0-7.7-6.3-14-14-14c-7.7,0-14,6.3-14,14c0,7.7,6.3,14,14,14l0,0
		C298.9,306.8,305.2,300.6,305.2,292.9L305.2,292.9z"/>
</g>
</svg>
