<?xml version="1.0" encoding="utf-8"?>
<!-- Generator: Adobe Illustrator 26.0.1, SVG Export Plug-In . SVG Version: 6.00 Build 0)  -->
<svg version="1.1" id="Layer_1" xmlns="http://www.w3.org/2000/svg" xmlns:xlink="http://www.w3.org/1999/xlink" x="0px" y="0px"
	 viewBox="0 0 612 792" style="enable-background:new 0 0 612 792;" xml:space="preserve">
<style type="text/css">
	.st0{fill:#010101;}
</style>
<g>
	<path class="st0" d="M184.5,508.6l-2.7-2.5c-0.5-0.4-1.2-0.4-1.6,0.1c-0.2,0.2-0.3,0.5-0.3,0.9c1.5,21.2-2.9,40.4-14.3,59.3
		c-10.5,17.6-33.5-3.6-41.6-12.3c-4.6-5-7.5-11.6-12.1-19.4c-0.6-1-1-2-1.4-3c-1.9-6.1-3.2-13.7-3.7-22.8
		c-1.1-17.6,0.7-34.2,5.4-49.8c5.3-17.6,13.8-36.4,25.3-56.3c8-13.9,17-25.6,26.9-35.3c1-1,1.8-2.3,2.2-3.6l5.6-19.2
		c0.4-1.4,0.5-3,0.2-4.4c-2.6-13.8-8.1-26.7-9.7-34.5c-5.7-27.9-8.7-42.5-8.9-43.7c-1-7-1.5-14.5-1.6-22.3c0-6.3,1.7-13.5,5.3-21.5
		c5.7-13,12-23.3,18.7-30.9c7.8-8.8,15.9-15.3,27.5-24.3c2.6-2,8.3-6.9,17.2-14.6c1.1-0.9,2.3-1.8,3.5-2.5
		c11.1-6.4,17.8-10.4,20.2-12.1c10.7-7.6,22.2-11.9,31.8-15.3c20.5-7.3,28.6,6.8,29.8,25c1.3,19.8,0.6,43.4-2.2,70.8
		c-1.9,18.7-6,34.8-12.2,48.2c-9.8,21-20.1,39.2-31.1,54.9c-0.2,0.2-0.1,0.5,0.1,0.7l8.7,8.1c0.4,0.4,0.9,0.6,1.4,0.7
		c4.4,0.9,9-0.1,13.8-3c2-1.2,3.3-3.3,4-6.5c3.4-15.6,5.7-26.4,6.8-32.4c2.5-14.2,5.4-24.9,8.7-31.8c5.7-12.3,14.1-22.7,25.1-31.5
		c0.6-0.5,5.4-4.2,14.3-11c12.1-9.3,25.8-14.5,39-20.5c6.8-3.1,13.1-7.9,19.4-10.2c17.4-6.2,34-11.8,51.3-12.4
		c8.8-0.3,15.3-0.4,19.6-0.1c11.2,0.6,13.2,9.7,13.2,19.4c0,9.1-0.8,17.1-2.2,24.1c-4.2,19.7-7.1,31.2-10.6,48.1
		c-4.8,23.5-13.8,44.1-25.5,64.6c-9.5,16.6-25.6,26.1-42.8,35.5c-13.8,7.5-31.4,13-47.3,20.2c-0.7,0.3-1.1,1.2-0.8,1.9
		c0.1,0.1,0.2,0.3,0.3,0.4c15.7,17.3,29.1,37.3,37.2,56.6c9.7,23.2,16.7,48.5,15.9,76c-0.4,13.4-3.3,25.1-8.9,35.3
		c-3.4,6.2-5.3,9.8-5.6,10.7c-0.6,1.6-0.7,3.3-0.5,4.9c2,12.8,2.4,24.9,1.3,36.4c0,0.3,0.2,0.5,0.4,0.5c0.1,0,0.2,0,0.2,0
		c15.6-7.5,24.5-19.7,26.9-36.6c2.7-18.9,1.6-37.5-3.2-55.7c-0.3-1.1-0.4-2.1-0.3-3.2c0.4-6.3,2.2-13.4,5.6-21.1
		c6.1-13.9,10.7-23.7,13.8-29.4c4.4-8.2,7.6-13,9.6-14.5c5.4-4.3,10.7-5,15.9-2c9.7,5.4,16.8,12,21.4,19.8c3.6,6.2,7.9,14.2,13,24.1
		c1.9,3.8,3.3,8.2,4.1,13.3c5.1,32.8-4.3,63.7-19.7,93c-3.6,6.9-10.2,15.1-19.6,24.5c-8.6,8.6-17.4,13.1-30.6,21.8
		c-2.9,1.9-8.5,4-16.8,6.4c-14.2,4.1-29.6,6.3-46.2,6.6c-1.8,0-3.5,0.5-5,1.4l-9.6,5.4c-0.2,0.1-0.5,0.2-0.7,0.3
		c-7.8,2.5-16.8,3.8-27,3.8c-1.9,0-3.7,0.8-5.2,2c-6.5,6-12.9,13.3-19.7,13.6c-13.5,0.6-17.9-4.9-26.3-12.8
		c-0.7-0.7-1.5-1.2-2.4-1.6c-5.8-2.4-15.3-4.1-21.7-1.7c-3.6,1.3-6.2,4.8-9,7.3c-0.4,0.3-0.8,0.6-1.2,0.9
		c-13.7,7.6-29.8-3-37.8-14.1c-0.3-0.4-3.2-4.2-8.6-11.2c-8.5-11-12.2-23.4-13.8-39c-0.5-5.5-1.9-16.8-3.9-33.9
		c-0.2-1.3-0.2-4.3,0-8.9c0.5-14.3,3.9-31.7,7-47.4C186.3,511.4,185.8,509.7,184.5,508.6z M184.3,335.2l8.9-8.9
		c0.4-0.4,0.6-1.1,0.5-1.6c-2.5-11.1-5.2-22.4-8.1-34c-3.1-12.7-4.6-29.2-4.2-49.3c0.1-9.5,3-18.8,8.7-28
		c13.4-21.9,34.8-36.4,58.2-47.7c17.1-8.2,20.6,9.1,20.4,21.3c-0.7,40.7-7,75.3-26.9,108.8c-4.4,7.5-12.5,19-24.1,34.6
		c-0.8,1-0.6,2.4,0.4,3.2l0.2,0.1c1,0.8,2.5,0.7,3.4-0.3c5.6-6.3,12.4-10.8,20.3-13.4c4.8-1.6,8.1-5,10.4-8.4
		c10.9-16.7,19.3-30.4,25.2-41.2c8.7-15.9,14.1-30,16.1-42.3c2.4-14.3,3.8-35.5,4.4-63.8c0.2-8.1-0.4-17.3-1.8-27.7
		c-1.4-11-8.9-12.8-18-8.9c-25.7,11.2-49.2,25.3-70.6,42.2c-17.5,13.8-30.8,28.7-40,44.7c-6.8,11.8-9.4,20.3-7.9,33.8
		c3.3,29.6,10.7,58.4,22.2,86.3c0.3,0.6,1,1,1.6,0.7C184,335.4,184.1,335.3,184.3,335.2z M213.4,328.6c17-20.1,30.2-41.6,39.5-64.2
		c8.7-21.3,11-45.5,11.9-70.1c0.3-7.2-0.3-13.7-1.6-19.5c-1.9-8.5-7.7-8.8-14.7-5.2c-24.4,12.7-43.7,25.8-57.3,49.7
		c-3.8,6.7-5.8,14.8-6.1,24.4c-0.8,24.1,3.6,45.6,9.4,70.1c0.7,2.9,1.7,6,3.2,9.4c0.3,0.6,0.9,1,1.6,1.1c4,0.1,8.1,1.6,12.4,4.5
		C212.1,329.2,212.9,329.1,213.4,328.6z M334.8,367.8c2,2.5,4.4,4.4,7.3,5.8c0.8,0.4,1.6,0.5,2.5,0.3c5.4-1.1,9.7-2.3,12.7-3.6
		c15.2-6.4,32.6-14.4,52.2-23.9c13.9-6.8,24.3-16.2,31.2-28.3c16.5-28.8,24.5-60.2,32.3-94c2.8-12.2,4.7-23.8,5.6-34.8
		c0.9-11.3-6.8-15.1-17.5-14c-14.9,1.5-29.5,4.7-43.7,9.6c-2.3,0.8-13.7,5.6-34.3,14.5c-19.8,8.5-38,19.1-50.9,31.3
		c-10.8,10.2-18.1,22.2-21.7,35.8c-1.8,6.6-5.7,25.3-11.8,56.1c-0.3,1.4,0.4,2.7,1.7,3.4l10,4.9c0.9,0.4,2,0.1,2.5-0.9
		c0-0.1,0.1-0.2,0.1-0.2c4.5-14,8.4-26.7,11.8-38.2c4.6-15.9,9-27.1,13.3-33.8c6.5-10.1,15.1-18.6,25.8-25.4
		c13.9-8.8,31.5-16.7,52.6-23.5c10.4-3.4,24.6-5.3,31,4.9c3.3,5.2,2.8,15.8,2.1,21.6c-2.2,18.5-8.2,36.9-18.1,55
		c-5.6,10.2-13,19.6-22.2,28.2c-21.5,20-47.9,36.4-74.3,48.6C334.8,367.2,334.7,367.5,334.8,367.8
		C334.8,367.8,334.8,367.8,334.8,367.8z M332.3,363c14.5-4.3,26.5-12.1,41.9-21.8c9.1-5.7,18.6-13,28.7-21.9
		c26.8-23.5,42.1-57.8,43.5-93c0.7-17.7-12.4-18.4-26.4-14.4c-19.5,5.5-37.5,13.5-54,24c-11.5,7.4-23,18.1-28.4,30.9
		c-3.3,7.8-6.5,16.9-9.6,27.4c-5.8,19.8-9.6,33.1-11.4,39.9c-0.6,2.2-0.8,4.5-0.4,6.8c0.9,6.3,1.4,9.7,1.4,10.2
		c0.3,5.8,8.2,11,12.8,12C331,363.2,331.7,363.1,332.3,363z M234,410.3c14.5-3.5,27.4-21.5,33-34.6c5.2-12.1,1.7-27.3-3.4-39.4
		c-2.5-5.9-9.4-14.2-16.5-13.4c-3,0.3-6.4,1.6-10.2,3.7c-9.3,5.3-16.9,12.7-22.9,22.1c-3.4,5.3-6.1,9.4-6.2,13.9
		c-0.4,16.3,5.1,30.2,16.4,41.8c2.7,2.8,4.7,4.5,5.9,5.3C231.5,410.4,232.8,410.6,234,410.3z M217.4,403.7c0.3,0.1,0.7-0.2,0.7-0.5
		c0-0.2,0-0.4-0.1-0.5c-12.2-15.3-19.7-38.5-7.5-55.5c3.9-5.5,5.9-8.3,6-8.4c0.3-0.5,0.2-1.2-0.2-1.6c-2.3-2-5.1-4-8.4-6.1
		c-10.9-7.1-17.2,2-23.2,10.2c-3.7,5.1-5.6,12.7-7.8,18.9C168.7,383.4,198.8,401,217.4,403.7z M251.7,406.6
		c11.2,1.4,20.5-1.9,33.8-6.2c9.9-3.2,17.7-8.3,23.4-15.4c9.1-11.4,7-31.1,2.8-44.3c-2.5-7.8-6.6-10.7-14.9-9.8
		c-9.6,1.1-18.2,4.1-25.8,8.9c-1,0.6-1.5,1.9-1.1,3c4.4,15.1,5.4,27.3-3,41.5c-4.3,7.4-9.6,14.3-15.7,20.7c-0.3,0.4-0.3,0.9,0,1.3
		C251.3,406.5,251.5,406.6,251.7,406.6z M346.1,508.4c7.8-5.7,14.3-10.5,19.5-14.5c2.5-1.9,4.8-3.3,6.9-4.3
		c12.1-5.6,22.1,22.8,26.6,33c0.1,0.4,0.6,0.5,0.9,0.4c0.2-0.1,0.3-0.2,0.4-0.4c0.4-0.8,0.6-1.9,0.6-3.2c0.9-27-3.9-52.5-14.5-76.4
		c-3.2-7.2-8.3-16.9-15.4-29.1c-12.1-20.8-28.8-37.7-50.2-50.7c-0.4-0.2-0.9-0.1-1.2,0.3c-0.1,0.1-0.1,0.2-0.1,0.3l-1.7,11
		c-0.3,2.1,0.2,4.3,1.5,6c6.6,8.7,11.1,14.9,13.5,18.7c13.7,22.3,19.2,51.1,17.6,76.7c-0.6,9.8-3.4,22.5-5.3,31.6
		c-0.1,0.3,0.1,0.6,0.5,0.7C345.8,508.5,345.9,508.5,346.1,508.4z M116.1,511.5c0.3,0.5,0.9,0.6,1.4,0.3c0.1-0.1,0.2-0.2,0.3-0.3
		c5.2-7.4,10.4-16.5,18.8-23.9c5.9-5.1,11.4-4.9,16.5,0.6c8.4,9.1,13.3,14.5,14.8,16.1c0.2,0.2,0.6,0.3,0.8,0.1
		c0.2-0.1,0.2-0.3,0.2-0.6c-2.5-12-4.4-21.3-5.6-28.1c-1.8-9.6-6.4-18.7-7.8-28.3c-3.4-23.3,3.2-49.4,16.8-68.2c0.8-1.2,1.2-3,0.1-4
		c-0.3-0.3-0.9-0.3-1.2,0c-37,34.9-54.9,83.9-55,134.6C116,511,116,511.5,116.1,511.5z M314.5,383.9c-3.5,5.5-6.8,9.4-12.3,12.6
		c-18.1,10.5-36.5,15.2-55.2,14.3c-1.2-0.1-2.5,0.1-3.7,0.5c-4.7,1.6-7.2,2.5-7.7,2.5c-8.5,1.6-9.8-4.7-15.1-5.7
		c-17.7-3.5-33.5-9.4-44.2-24.5c-0.4-0.6-1.3-0.8-2-0.3c-0.1,0.1-0.3,0.2-0.4,0.4c-3.7,5.7-8.8,14.5-11.1,21.9
		c-9.9,32.3-3.9,61.1,18,86.5c6.9,8,14.5,14,22.7,18c26.3,12.9,54.4,15.9,84.2,8.8c23.4-5.5,41.9-18.3,55.4-38.4
		c1.8-2.7,4.1-8.6,4.1-11.4c-0.7-33-8.5-62-31.4-85.3c-0.3-0.3-0.9-0.3-1.2,0C314.6,383.8,314.6,383.8,314.5,383.9z M476.4,538.2
		c4.4-4.8,8.7-11.1,12.9-18.8c5.2-9.4,8-17.1,4.6-27.3c-5.4-16-13.8-29.4-25-40c-8.9-8.4-15.6-5.8-20.9,5
		c-6.9,14.2-11.7,24.3-14.4,30.2c-4.2,9.2-3.5,14.9,3,22.1c5.2,5.7,12.8,13.5,22.8,23.3c3.3,3.3,6.7,5.6,10.1,7
		C471.8,540.7,474.6,540.1,476.4,538.2z M252,619.8l2-13.6c0.1-0.8,0.8-1.4,1.6-1.5h0c0.8,0,1.5,0.7,1.5,1.5c0,0,0,0.1,0,0.1
		c-0.9,13.5-3.1,26.9-6.4,40.1c-0.2,1,0.4,2,1.3,2.2c0.1,0,0.2,0,0.3,0l22.5,2c0.6,0,1.1-0.4,1.1-1c0-0.2,0-0.3-0.1-0.5
		c-5.9-14.3-9.6-28.9-11.2-43.8c-0.1-0.9,0.5-1.7,1.3-2l0.5-0.1c0.7-0.1,1.4,0.3,1.5,1c0,0,0,0,0,0l2.3,14.3c0.1,0.6,0.7,1.1,1.3,1
		c0.2,0,0.5-0.1,0.6-0.3c10.1-10,14.6-15.5,25.8-19.6c13.5-5,25.4,12.4,30.3,23.2c0.2,0.4,0.7,0.7,1.2,0.5c0.2-0.1,0.3-0.2,0.4-0.4
		l7.3-14.9c0.2-0.5,0.8-0.7,1.3-0.5c0,0,0,0,0,0l0.5,0.3c0.4,0.2,0.6,0.7,0.4,1.2l-14.7,38.7c-0.2,0.5,0.1,1.1,0.6,1.3
		c0.1,0,0.2,0.1,0.3,0.1c27.8,1,46.6-10.5,56.3-34.5c3.7-9,4.5-19.7,5.6-30.4c0.8-8.4,0.4-15.9-1.2-22.5c-0.2-0.6-0.8-1-1.5-0.9
		c-0.2,0-0.4,0.1-0.5,0.3c-7.2,6.3-13.7,11.4-22.1,14.2c-4.7,1.6-7.1-0.3-9.1-4.5c-6.1-12.7-10.6-24.2-13.7-34.4
		c-2.5-8.4-2.3-17,0.7-25.9c2.9-8.4,4.5-16.1,4.8-23.1c0-0.4-0.3-0.7-0.6-0.7c-0.2,0-0.4,0.1-0.6,0.3c-4.5,6.5-10.8,12.7-18.8,18.5
		c-28.4,20.4-63.1,26-97,17.7c-9.7-2.4-20.2-7.1-30-11.1c-0.5-0.2-1.2,0-1.4,0.6c-8.3,19.1-9.1,43.1-8.1,65.2
		c0.5,12.9,2.7,25.5,6.5,37.8c0.1,0.4,0.5,0.6,0.9,0.4c0.1,0,0.3-0.1,0.3-0.3c3.4-4.8,8-12.7,12.4-16.3c9.2-7.8,18.4-6.6,27.6,3.6
		c4.2,4.7,9.1,10.4,14.5,17.1c0.2,0.3,0.6,0.3,0.9,0.1C251.9,620.1,251.9,620,252,619.8z M148.1,489.5c-1.5-1.3-3.7-1.6-5.4-0.6
		c-8.8,5-14.1,14.3-19.7,23.8c-4.6,7.8-5,14.2-0.6,21.7c5.7,9.8,13.2,17.7,22.5,23.8c6.1,4,10.8,7.3,15.5-0.1
		c4.6-7.3,7.8-16.3,9.5-27c0.8-5.2,0.9-9.3,0.1-12.4C166.9,507.6,157,497.3,148.1,489.5z M360.3,572.1c10.8-2.2,24.1-15.5,30.5-24.4
		c6.8-9.3,8.9-12.8,3.5-24.7c-2.9-6.4-6-13.4-9.4-21c-1.2-2.6-2.9-5.1-5.1-7.4c-2.6-2.7-5.5-2.8-8.7-0.3c-9.2,7.1-16.6,13-22.3,17.5
		c-10.8,8.6-6.4,23.2-1.9,34.4c2.4,5.9,5.9,14,10.6,24.3C358,571.7,359.2,572.3,360.3,572.1z M429.1,509.1
		c0.7,5.6,2.1,13.7,4.1,24.3c2.4,12.7,2,25.6-1.2,38.9c-5.8,24.3-22.2,35.8-44.1,45.1c-1.6,0.7-2.9,1.9-3.7,3.4
		c-3.1,6.1-7.4,11.9-12.8,17.4c-0.3,0.3-0.3,0.8,0,1.1c0.1,0.1,0.3,0.2,0.5,0.2c48.5-1.3,93.9-24.3,112.4-70.8
		c6.1-15.3,10.4-33.3,11.8-49.4c0-0.4-0.3-0.7-0.6-0.7c-0.2,0-0.5,0.1-0.6,0.3c-5.8,9-10.6,15.8-14.4,20.4
		c-7.2,8.7-18.2,2.7-24.1-3.5c-8.1-8.6-16.9-17.6-26.6-26.9c-0.2-0.2-0.4-0.1-0.6,0C429.2,508.9,429.1,509,429.1,509.1z M222.6,657
		c6.9,5.4,17.8,7.7,21.3-2.7c2.7-7.9,8-21.9,4.9-28.1c-5.1-10.4-11.8-18.6-20-24.5c-14.7-10.6-24.8,7.3-28.3,19.2
		c-1.6,5.5,0.2,9.7,3.1,14.3C209.2,644.1,215.5,651.4,222.6,657z M307.8,663.3c8.6-6.4,14-19.5,17.4-28.9
		c3.6-10.1-7.3-23.6-14.9-29.1c-4.5-3.2-9.4-3.4-14.7-0.5c-7.5,4-23.8,16.4-22,25.8c1.6,8.6,4.8,17,9.7,25
		C288.3,663.8,299,669.7,307.8,663.3z"/>
	<path class="st0" d="M174.4,397c1.8,0.7,4.2,2.2,7.1,4.5c1.1,0.9,8.7,7,23.1,18.5c3,2.4,4,5.6,2.9,9.7
		c-2.9,11.1-10.6,16.2-23.2,15.3c-9.5-0.7-16.4-7.1-19.3-16.3c-3.1-10-1.8-19.9,3.8-29.7C169.9,397,172.3,396.2,174.4,397z
		 M192.4,438.4c-1.3-1.4-3.7-2.5-5-4.1c-5.2-7-6.9-15-6.9-23.6c0-4-1.9-6.7-5.1-8.5c-1.4-0.8-3.1-0.3-3.9,1
		c-10.2,15.9-3.4,42.1,20.3,37.2c0.6-0.1,1-0.7,0.9-1.4C192.7,438.7,192.6,438.5,192.4,438.4z M186,410.7c-0.3-0.2-0.6-0.1-0.8,0.2
		c0,0.1-0.1,0.1-0.1,0.2c-1.2,9,1.4,22.1,11.4,24.4c2.4,0.6,4.2,0,5.4-1.8c2.8-4.3,2.6-8.1-0.7-11.3C196,417.4,191,413.5,186,410.7z
		"/>
	<path class="st0" d="M254.9,431.7c0.8-1.2,1.7-2.2,2.8-2.9c18.8-11.8,34-20.6,53.4-25.5c9.8-2.5,13.3,3.4,17.2,11.4
		c4.7,9.6,3.1,21.8-2.9,30.8c-2.4,3.6-6,6.7-10.8,9.2c-12,6.3-24.4,7-37.1,2.1c-11.4-4.4-18.6-11.4-22.8-22.3
		C254.3,433.5,254.4,432.5,254.9,431.7z M290.3,415.3c-1.8,1.2-2.8,3.3-2.4,5.5c1.7,10.4,7.7,17.4,17.9,21.1c5.1,1.8,9.6,2,13.7,0.5
		c11-4,7.1-20.9,3.3-28.6c-4.7-9.4-10.3-7-19-4.3C298.2,411.2,293.7,413.2,290.3,415.3z M316.1,446.9c-18.5,0.8-28.1-10.5-33-26.8
		c-0.2-0.6-0.8-1-1.4-0.8c-0.1,0-0.2,0.1-0.2,0.1l-20.9,12c-1.6,0.9-2.2,3-1.3,4.7c4.6,8.3,11.3,14.1,20.1,17.2
		c13.3,4.7,25.8,3.3,37.4-4.2c0.6-0.4,0.7-1.1,0.4-1.7C316.9,447.1,316.5,446.9,316.1,446.9z"/>
	<path class="st0" d="M232.8,430.5c0.2,0,0.3,0.2,0.3,0.4c0,0,0,0,0,0l0,0.1c-0.3,3.2-3.1,5.5-6.1,5.2l-0.4,0
		c-3.1-0.3-5.3-3.1-4.9-6.3l0-0.1c0-0.2,0.2-0.3,0.3-0.3L232.8,430.5z"/>
	<path class="st0" d="M215.2,438.8c0.2-0.5,0.8-0.7,1.2-0.5c0.1,0,0.2,0.1,0.3,0.2c4.8,4.9,10.1,10.2,17.1,6
		c4.8-2.9,7.4-4.4,7.8-4.5c0.8-0.3,1.6,0.2,1.9,0.9c0.2,0.5,0,1.1-0.4,1.5c-10.5,10-20.7,10.5-27.9-3.1
		C215.1,439.3,215.1,439.1,215.2,438.8z"/>
</g>
</svg>
