<?xml version="1.0" encoding="utf-8"?>
<!-- Generator: Adobe Illustrator 26.0.1, SVG Export Plug-In . SVG Version: 6.00 Build 0)  -->
<svg version="1.1" id="Layer_1" xmlns="http://www.w3.org/2000/svg" xmlns:xlink="http://www.w3.org/1999/xlink" x="0px" y="0px"
	 viewBox="0 0 612 792" style="enable-background:new 0 0 612 792;" xml:space="preserve">
<style type="text/css">
	.st0{fill:#010101;}
</style>
<g>
	<path class="st0" d="M190.1,347.2c0.4-0.1,0.6-0.4,0.5-0.8c0-0.1-0.1-0.2-0.2-0.3c-4.8-5.4-14.6-13.4-20.5-20.5
		c-11-13.3-19.1-24.9-24.3-34.9c-6.1-11.5-12.4-39.4,5.8-44.6c0.4-0.1,0.7-0.6,0.5-1c0,0,0,0,0-0.1c-7.6-18.9-12.5-42-7-60.5
		c6.6-22.1,36.5-17.5,53.1-10.7c22.9,9.4,42.6,24.2,59.2,44.6c14.2,17.4,25.6,34.8,34.4,52.4c4.5,9.1,10,21.8,16.3,38.2
		c0.5,1.2,1.5,2,2.7,2.3l28.9,5.5c0.3,0.1,0.6-0.1,0.7-0.5c0-0.2,0-0.3-0.1-0.4c-0.4-0.7-7.6-14.4-21.5-41.1
		c-8.1-15.5-13.4-31.1-16-46.8c-3.6-22-5.1-41.7-4.6-58.8c0.5-15.6,3.5-36.4,12.9-48.3c11-13.9,32.5-8.9,43.5,1.9
		c6.8,6.7,13.4,14.4,19.6,23.3c0.4,0.6,1.3,0.8,1.9,0.3c0,0,0,0,0,0c6.7-4.7,11.2-7.9,19.3-4.7c8.6,3.5,15.4,9.4,20.4,17.8
		c9.4,16,15,35.1,20.3,49.2c1.8,4.7,2.8,7.1,7.4,9.9c9.2,5.6,14.9,8.7,20.7,14c12.8,11.5,22.2,24.6,28.1,39.3
		c3.3,8.1,4,17.3,2.3,27.7c-3.6,21.7-15,38.4-34,50.2c-2.3,1.4-3.9,6-4.1,9.2c-1,13.7-6.8,24.9-17.4,33.6c-0.5,0.4-0.6,1-0.3,1.6
		c10.1,19.9,15.4,39.1,12.7,60c-1.9,14.6-6.3,28.2-13.2,40.8c-0.2,0.4-0.1,0.9,0.3,1.1c0.1,0.1,0.3,0.1,0.4,0.1
		c8-0.3,17.3-1.6,28.2,2.6c22.3,8.4,23.6,26.4,20.1,46.6c-1,5.5-3.4,11.1-7.3,16.7c-10.1,14.7-23.1,24.5-39,29.4
		c-1.6,0.5-2.7,1.9-2.9,3.6c-3,28.5-12.5,57-35.2,76c-9.5,7.9-18.8,7.7-28.1-0.5c-4.3-3.8-10.4-3.2-17.2-3.2c-0.6,0-1.1,0.3-1.5,0.7
		c-4.3,5.1-8.6,11.6-15.4,12.1c-7.6,0.5-14.7-1.4-21.2-5.7c-4.4-2.9-7-5.1-13.2-5.5c-16.4-1.1-34.2-10.2-47.8-19.7
		c-0.8-0.6-1.6-1.2-2.2-2c-4-4.7-6.3-8.7-13.6-9.2c-15-1.1-24.5-1.1-36.4-3.7c-19.5-4.2-32.4-18.5-35.7-38.2
		c-1.3-7.8,0.8-14.9,6.2-21.2c1-1.2,0.9-3-0.3-4c-0.6-0.5-1.4-0.8-2.2-0.7c-5,0.6-8.7,1.1-11.1,1.3c-15.2,1.3-28.1-3.9-38.9-15.7
		c-5.6-6.2-8.3-13.3-8.1-21.5c0.2-7.4,3.9-11.5,11-12.1c0.9-0.1,1.6-0.9,1.5-1.8c0-0.2-0.1-0.4-0.1-0.5c-4.4-9.9-7.2-30.4,5.5-36.2
		c7.3-3.4,13.9-1.8,19.7,4.8c6.2,7,11.4,12.6,15.7,17c1.5,1.5,3.1,2.6,5,3.4c0.6,0.2,1.2,0,1.5-0.5c0,0,2.5-5,7.4-15
		c1.4-2.8,4.2-5.9,8.5-9.4c12-9.8,26.6-2.1,33.2,9.4c0.3,0.5,0.9,0.8,1.4,0.7l13.9-2.2c0.6-0.1,1-0.7,0.9-1.3c0-0.1,0-0.1,0-0.2
		c-3.9-12.3-5.9-24.8-6.1-37.6c-0.1-8.6,2.8-19.6,4.4-29.7c0.2-0.9-0.3-1.8-1.1-2.3c-4-2.4-6.6-4.1-7.9-5.1
		c-4.1-3.1-3.7-7.4-3.7-13.5c0-0.6-0.5-1-1.1-1c-0.1,0-0.2,0-0.3,0c-2,0.6-5.1,1.6-9.4,3c-9.1,3-18.4,8.4-26.8,9.5
		c-1.2,0.2-8.6,0.5-22.1,1.2c-16.9,0.8-31.3-1.6-40.8-15c-6.2-8.8-3.6-17.8,5.1-22.9c0.5-0.3,0.7-1,0.4-1.6c0-0.1-0.1-0.1-0.2-0.2
		c-5.6-5.7-9-12.8-10.3-21.2c-1.1-6.9,0.1-12,3.4-15.2c7.5-7.2,19-3.7,28,0.4c9.3,4.2,18.1,6.7,26.5,8
		C184.2,347.6,187.8,347.7,190.1,347.2z M333.5,198c-4.5-6.5-9.8-18.4-6.3-25c4.4-8.4,17.4-4.3,23,0.5c10.3,8.8,14.6,13.4,20.8,16.6
		c19.6,10.3,38.4,19.1,56.3,26.2c0.6,0.2,1.2,0,1.5-0.6c0.1-0.2,0.1-0.5,0-0.8c-2.3-7.1-4.6-14.7-6.8-22.8
		c-3.5-12.9-12-32.3-24.4-39.8c-16.2-9.7-16.8,5.7-17.9,16.7c-0.1,1-1,1.8-2,1.7c-0.6-0.1-1.1-0.4-1.4-0.9
		c-2.7-4.4-7-12.5-13.1-24.3c-5.3-10.3-11.1-16.8-20.9-22c-6.8-3.7-14.2-6.6-20.1-1.5c-10.2,8.9-14.1,22.7-15.1,36.6
		c-1.1,15.8-1.1,30.3,0,43.8c3.1,38,18.2,74.3,39.2,107.2c0.7,1.1,2.1,1.4,3.2,0.8l12.7-7.3c0.5-0.3,0.8-1,0.5-1.5
		c-7.2-17.5-12.5-35.8-15.7-54.9c-0.2-0.9-0.6-1.7-1.2-2.3c-1.1-1-3.1-2.6-6.2-4.6c-9.2-6-22.7-20.8-20.1-33.3
		c1.2-5.7,5.5-7.9,12.9-6.8c0.5,0.1,1.1-0.3,1.1-0.8C333.7,198.5,333.6,198.2,333.5,198z M481,311.7c0.1,0.4,0.5,0.7,0.9,0.7
		c0.3,0,0.5-0.2,0.6-0.5c10-22.5-1-55.4-19.5-69.4c-13.7-10.5-27.9-19.6-45.8-26.3c-8.5-3.2-18.8-7.6-30.9-13.3
		c-14.9-7.1-27.7-16-38.3-26.8c-3.1-3.2-11.8-6.6-16.2-3.1c-6,4.8,2.3,19.9,5.8,24.1c1.7,2,4.5,5.1,8.4,9.3c0.5,0.5,0.4,1.3-0.1,1.8
		c-0.3,0.3-0.7,0.4-1.1,0.3c-5.4-1-14.1-9.2-19.7-4.2c-7,6.2,5.7,22.7,10.6,27.2c10.8,10.1,25.3,17.1,39.7,20.9
		c31.5,8.2,52.2,12.3,76.6,25C466.1,284.6,478.6,296.4,481,311.7z M354.3,377.6c0.2-0.1,0.3-0.4,0.2-0.7c0,0,0,0,0-0.1
		c-6.9-9.6-8.9-20-11.9-29.6c-0.2-0.8-0.9-1.3-1.7-1.2l-27.5,1.6c-1.3,0.1-2.6-0.8-2.9-2.1c-4.1-16.3-10.8-35.8-20.2-58.6
		c-11.5-28-29.4-49.3-51.4-73.5c-16.6-18.3-42.1-36.7-66.9-35.9c-5.4,0.2-9.5,0.9-12.3,2.2c-6.7,3-8.5,15.2-8.5,21.4
		c0.1,13.9,3.3,27.7,9.7,41.2c3.3,6.9,6,9.5,12.2,14.3c0.5,0.4,0.6,1,0.2,1.5c-0.3,0.4-0.7,0.5-1.2,0.4c-4.6-1.3-9-2.9-13.9-3.6
		c-6.9-1-9.9,5.2-9.3,11.7c2.2,24.6,21.1,48.5,38.6,65.2c18.1,17.2,40.4,28.8,66.9,34.7c0.5,0.1,0.9,0.5,1,0.9l0.2,0.5
		c0.2,0.5-0.1,1-0.6,1.1c-0.1,0-0.2,0.1-0.4,0c-7.6-0.7-14.5,0.6-20.7,4c-11.6,6.2,3.3,13,8.1,13.2c3.6,0.1,6.4,0.5,8.4,1.1
		c1,0.3,1.6,1.3,1.3,2.3c-0.2,0.5-0.6,1-1.1,1.2c-4.4,1.9-8.7,5-12.8,9.6c-2.3,2.5-2.2,6.4,0.3,8.7c0.2,0.1,0.3,0.3,0.5,0.4l1.1,0.8
		c2.6,1.9,6.3,1.4,8.2-1.2c0.2-0.2,0.3-0.4,0.4-0.6c5.9-10.5,10.7-21.3,23.2-24.1c8.1-1.8,15.5-0.6,22.2,3.6
		c8.3,5.2,16.3,14.9,27.4,8.4C335.4,388,346.4,381.8,354.3,377.6z M351.4,248.5c2.7,18.4,7.9,36.1,15.6,53c0.4,0.9,1.3,1.6,2.2,1.8
		c15.8,3.1,25.2,21.4,30.2,35.4c0.2,0.5,0.8,0.8,1.3,0.6c0.1,0,0.2-0.1,0.3-0.2c8.6-7.6,7.5-13.2,6.6-25.7
		c-0.9-12.5-2.5-26.2-4.8-41.2c-0.7-4.9-1.1-8.8-5.2-9.8c-12.6-3.4-22.2-6.1-28.9-8.1c-6.3-2-12.4-4.9-16.3-6.7
		c-0.4-0.2-0.9,0-1.1,0.4C351.4,248.2,351.4,248.3,351.4,248.5z M407.4,264.8c-0.5-0.1-0.9,0.1-1.1,0.6c0,0.1,0,0.2,0,0.3l6.6,59.9
		c0.1,0.5,0.5,0.8,0.9,0.8c0.1,0,0.2-0.1,0.3-0.1l8.9-5.2c0.2-0.1,0.4-0.3,0.4-0.6l9.1-47.6c0.1-0.4-0.2-0.9-0.6-1L407.4,264.8z
		 M434,313.5c-0.1,0.5,0.2,1,0.7,1c0.3,0,0.6,0,0.8-0.2c7.2-6.4,13-14.4,17.5-24c0.5-1,0.1-2.2-0.9-2.7l-10.7-5.7
		c-0.9-0.5-2.1-0.1-2.6,0.8c-0.1,0.2-0.2,0.4-0.2,0.6L434,313.5z M463,290.3c-4.6,10.2-11.4,20.1-20.5,29.5c-0.7,0.7-0.6,1.8,0,2.5
		c0,0,0,0,0,0l5.4,5c0.9,0.9,1.6,2,1.9,3.2l2.5,10.6c0.2,1,1.3,1.7,2.3,1.4c0.2,0,0.3-0.1,0.4-0.2c5-2.7,10.2-6.8,15.6-12.5
		c13.4-14,5.1-28.6-6.3-39.9c-0.3-0.3-0.9-0.3-1.2,0C463.1,290.1,463,290.2,463,290.3z M400.5,347.4c-0.6,0.7-1.7,0.7-2.3,0.1
		c-0.2-0.2-0.4-0.5-0.5-0.8c-2.6-10.2-7.3-20.1-13.9-29.8c-2.8-4-5.5-6.7-8.3-7.9c-8.3-3.8-18.1-2.4-23.2,6c-3,5-4.8,9.4-5.3,13.3
		c-2.4,17.6,1.5,40.1,15.6,50.7c11.5,8.6,22.6,8.5,33.3-0.5c0.7-0.6,1.8-0.5,2.5,0.2c0,0,0.1,0.1,0.1,0.1c2.2,3.3,4.5,5.8,6.9,7.5
		c12.3,9,24.1,5,33.6-6.2c8-9.4,11.4-20.6,10.1-33.5c-0.8-8.3-1.4-15.8-8.4-20.5c-8.9-6.1-23.5,0.1-29.8,8.2
		C404.1,342.8,400.7,347.1,400.5,347.4z M308.6,320.1c-0.8,0-1.4,0.7-1.3,1.4c0,0.1,0,0.3,0.1,0.4l6.5,18.5c0.5,1.4,1.8,2.3,3.2,2.3
		h24.1c0.5,0,0.9-0.4,0.9-0.8l1.1-12.2c0.1-1.5-0.7-2.8-2-3.4C330.8,321.7,320,319.7,308.6,320.1z M237.2,366.7l-23.9-12.2
		c-2.4-1.2-5.2-1.5-7.8-0.8c-14.4,4-28.7,3.5-43-1.5c-2.6-0.9-9.1-3.7-19.8-8.4c-2.2-1-9.5-2.8-11.8,0.2c-5.6,7.3,4,21.1,9.3,26.2
		c2.5,2.4,6.6,5.4,12.1,8.8c0.5,0.3,0.7,1,0.4,1.5c-0.2,0.3-0.5,0.5-0.8,0.5c-5.3,0.7-9.9,1.7-13.7,2.9c-5.2,1.6-6.5,5-3.8,10.2
		c1.8,3.5,3.6,5.7,5.5,6.5c14.1,5.9,28.5,7.4,43.3,4.3c13.5-2.8,26.1-7.7,37.6-14.6c1.9-1.2,4-2.7,6.1-4.6c0.5-0.4,0.7-1.1,0.5-1.7
		c-1.1-5.2-2.8-10.3,3.5-13.5c4-2,6-3,6.1-3c0.2,0,0.3-0.2,0.3-0.4C237.4,366.9,237.3,366.8,237.2,366.7z M363.9,527.7
		c4.9-8.7,11.6-16.3,20.2-22.7c10.3-7.7,20.9-8.9,32-3.8c0.8,0.4,1.8,0.3,2.6-0.3c13.4-11,20.6-22.2,23-40.2
		c1.7-13.3,1.1-26.8-2.1-40.5c-1.7-7.7-4.2-17.2-8.9-23.9c-1.1-1.6-3.2-2.4-5.1-1.9c-11.9,3.1-20.9-3-28.4-11
		c-0.4-0.5-1.1-0.5-1.6-0.2c-12,8.4-24,8-35.8-1.1c-1-0.7-2.2-1-3.4-0.6c-4.3,1.4-7.8,2.9-10.5,4.6c-10.6,6.5-18.2,11.1-22.8,13.5
		c-7.2,3.8-16.1,3-22.7-2.7c-3.3-2.9-6.3-5.6-9.6-7.1c-20.9-9.4-33.6,5.9-39.6,24.1c-7.9,24-10.3,53.2,2.4,76
		c2.9,5.1,6.8,7.3,13.2,7.9c10.1,0.9,19.7,4.1,28.7,9.6c0.5,0.3,1.2,0.2,1.6-0.4c4.1-6.2,9.2-10,15.4-11.4
		c11.9-2.7,29,8.6,37.1,17.6c5.4,6,9.6,10.9,12.8,14.7c0.4,0.4,1,0.5,1.4,0.1C363.7,527.9,363.8,527.8,363.9,527.7z M246.1,626
		c0.5-0.1,0.8-0.5,0.7-1c0-0.1,0-0.1-0.1-0.2c-5.3-11.5-8.4-23-9.3-34.5c-0.2-2-0.8-3.9-1.8-5.5c-3.8-6-9.9-13.7-12-19
		c-8.7-22.1-8-39.1-9.2-67.4c-0.2-5.7-3-9-8.3-9.8c-12-1.8-20.1,18.7-23.6,29.4c-2,6-2.8,12.6-2.5,19.6c0.7,14.8,2.8,30.5,11.4,39.9
		c4.8,5.2,7.7,8.5,8.7,9.8c0.6,0.8,0.9,1.9,0.6,2.9l0,0.1c-0.1,0.5-0.7,0.8-1.2,0.7c-0.1,0-0.3-0.1-0.4-0.2
		c-4.4-3.9-14.7-13.9-18.7-6.9c-2.4,4.2-2.6,9.3-0.6,15.3C189.1,626.9,221.9,630.1,246.1,626z M176.8,518.2
		c-6.7-2-11.8-4.8-15.2-8.4c-6-6.2-10.3-10.7-12.8-13.5c-4-4.4-9.3-7.8-13.7-2c-5.2,6.8-0.7,20.3,3.1,26.5c2.2,3.6,6.6,6.7,8.6,9.4
		c0.4,0.6,0.3,1.5-0.3,1.9c-0.3,0.2-0.6,0.3-1,0.2c-4.4-0.6-23.6-4.4-21.7,5.2c3.1,15.2,18.4,24.3,33,24.8c6.5,0.2,13-0.4,19.5-2
		c1.3-0.3,2.1-1.6,1.9-2.9c-1.6-9.8-2.1-18.8-1.4-27.1c0.6-6.9,0.9-10.5,0.9-10.8C177.8,518.9,177.4,518.4,176.8,518.2z
		 M362.1,535.5c-0.5-0.2-0.9-0.5-1.1-1c-7.3-14.2-18.1-24.8-32.4-31.7c-4.9-2.4-8.9-3.5-12-3.4c-13.1,0.5-17.9,8.4-19,21
		c-1.2,13.5,2.5,28.2,10.6,39.5c11.7,16.1,33.3,19.4,48.8,5.9c2.7-2.3,4.2-3.6,4.5-3.9c0.9-0.7,2.2-0.7,3.1,0
		c9.2,7.5,18.5,10.9,30.1,9.2c15.3-2.3,31.6-30.2,28.7-44.9c-1.1-5.4-2.5-16.4-7.3-20.1c-5.9-4.6-12.1-5.8-18.4-3.8
		c-15.3,4.8-25,17.9-33,32.3C364.1,535.5,363,535.9,362.1,535.5z M294.2,534.6v-22.4c0-0.6-0.3-1.1-0.8-1.4
		c-19.6-12.4-45.8-12.8-67.8-5.8c-4.4,1.4-6.6,4.2-6.6,8.3c0.1,8.5,0.5,17.6,1.5,27.1c0.1,0.5,0.5,1,1.1,0.9c0.1,0,0.3-0.1,0.4-0.1
		c22-11.8,46.6-12.6,71.1-5.7c0.5,0.1,1-0.1,1.1-0.6C294.2,534.8,294.2,534.7,294.2,534.6z M478,547.3c2.1-5.8,3-12.3,2.5-19.5
		c-1.1-19.2-21.9-25.7-38.2-23.8c-4.8,0.6-10.2,2.1-16.1,4.5c-1.2,0.5-1.8,1.7-1.6,2.9l2.8,17.5c0.1,0.7,0.8,1.2,1.5,1.1
		c0,0,0,0,0.1,0c20.7-4.6,36.6,1.2,47.7,17.5c0.2,0.3,0.7,0.4,1,0.2C477.8,547.5,477.9,547.4,478,547.3z M309.3,656.4
		c-7.7-17.1-14.4-31.4-17.8-48.4c-0.2-0.8,0.4-1.5,1.1-1.7c0,0,0.1,0,0.1,0l0.1,0c0.9-0.1,1.8,0.5,2,1.4c1.6,5.9,3.1,11.3,4.5,16.1
		c1.9,6.2,6.1,10.5,12.9,12.9c12.9,4.7,26.3,3.4,40.2-3.7c1.4-0.7,2.4-2.1,2.7-3.6c2.1-10.4,3.5-16.9,4.4-19.7
		c0.2-0.6,0.6-1,1.3-1.2c0.6-0.2,1.2,0.2,1.4,0.8c0,0.1,0,0.2,0,0.3c0,3.5-0.5,7.8-1.6,13c-2.2,10.8-4.8,21.7-7.8,32.8
		c-0.2,0.6,0.2,1.3,0.8,1.5c0.1,0,0.2,0,0.3,0h17.2c0.6,0,1.2-0.5,1.2-1.2c0-0.1,0-0.2,0-0.3c-3.9-14.1-6.1-28.6-6.4-43.4
		c0-0.5,0.3-0.9,0.7-1.1l0.5-0.2c0.5-0.2,1.1,0,1.3,0.5c0,0.1,0.1,0.2,0.1,0.3c0.9,5.9,1.6,10.7,2,14.3c0.4,4,2,5.6,5.6,6.8
		c14.1,4.9,28.4,4.6,42.9-0.9c0.8-0.3,1.4-0.8,1.9-1.5c1.2-1.8,2.2-4,3.2-6.8c8.1-24.3,8.1-48.4,0-72.3c-0.1-0.4-0.6-0.6-1-0.5
		c-0.2,0.1-0.4,0.2-0.5,0.4c-8.5,16.6-24.3,29.3-43.7,23.3c-4.7-1.4-9.2-4.3-14.4-7.7c-0.8-0.5-1.8-0.5-2.6,0.1
		c-8.3,6.2-17.5,13.5-28.4,11.9c-13.2-1.9-23.3-8.1-30.3-18.6c-3.1-4.7-5.2-11.7-7.4-16.7c-0.9-2-2.5-3.5-4.6-4.1
		c-11.4-3.6-23.1-4.9-35.2-4.2c-3.3,0.2-5.5,1.9-6.5,5.1c-6.8,21.1-11.5,43.5-6.2,64.9c6,24.1,20.1,40.1,42.5,48
		c7.9,2.8,15.5,4.3,22.8,4.6c0.4,0,0.8-0.3,0.8-0.8C309.4,656.7,309.4,656.5,309.3,656.4z M455.6,536.2
		c-4.9,9.3-14.6,14.5-24.4,20.4c-0.6,0.4-0.9,1.1-0.8,1.8l3.7,23.2c0.1,0.7,0.7,1.1,1.4,1c13.5-2.2,25.6-10.8,35.4-21.7
		c9.1-10.2-4.4-21.5-13.5-25.4C456.7,535.3,455.9,535.6,455.6,536.2z M439.4,538.4l-10,3.3c-0.1,0-0.2,0.2-0.2,0.3c0,0,0,0,0,0
		l0,0.1c0.6,1.7,3.1,2.5,5.6,1.6l1.3-0.4c2.5-0.8,4.1-2.9,3.6-4.6l0-0.1C439.7,538.4,439.5,538.4,439.4,538.4z M239.7,541.9
		l-12.5,5.7c-0.6,0.3-0.9,0.9-0.8,1.6c1.2,5.6,3.5,10.4,6.8,14.4c0.3,0.3,0.8,0.4,1.1,0.1c0.1-0.1,0.2-0.2,0.2-0.4l6-20.6
		c0.1-0.3-0.1-0.7-0.4-0.8C240,541.9,239.9,541.9,239.7,541.9z M418.1,636.6c-7.5,1.3-11.3,1.9-11.3,1.9c-11.5,1.8-22.7,0.8-33.6-3
		c-0.4-0.1-0.9,0.1-1,0.5c0,0.1-0.1,0.3,0,0.4c1.1,6.6,3.6,21.9,8.5,26.5c14.2,13.5,32.3-16.2,37.9-25.8c0.1-0.2,0.1-0.4-0.1-0.5
		C418.2,636.6,418.1,636.6,418.1,636.6z M305.8,638c-0.2-0.1-0.5,0-0.6,0.3c-0.1,0.1,0,0.3,0,0.4c1.3,2.4,4.1,7.6,8.5,15.8
		c2.2,4.1,4.4,7,6.6,8.9c4.2,3.6,12.9,8.5,18.2,6.4c3.4-1.3,5.7-3.2,6.8-5.6c3.5-7.4,6.2-16,8.1-25.8c0.1-0.4-0.2-0.8-0.6-0.9
		c-0.2,0-0.4,0-0.5,0.1C336.1,645.9,321.9,644.6,305.8,638z"/>
	<path class="st0" d="M292.4,351.4c-2.7,6.4-15.2,3.5-19.6,1.7c-25.3-10.3-47.5-35.9-59.1-59.8c-3.6-7.3-4.6-14.9-3.2-22.6
		c1-5.1,4.6-7.9,10.8-8.2c10.1-0.5,17.3,3.9,24.8,10.7c16.1,14.6,29.7,32.5,40.8,53.7C290.7,334,295.5,344.2,292.4,351.4z
		 M289.9,348.4c-0.1-4.1-0.9-7.8-2.4-11.2c-10.7-25.1-26.8-46.7-48.4-64.8c-6.1-5.1-12.8-7.1-20.2-5.9c-2.6,0.4-4.6,2.5-5,5
		c-2,14.2,6.5,29.8,15.3,40.7c8.2,10.1,14.8,17.3,20,21.8c9.6,8.3,24.8,19.6,38.2,17.3C288.9,351,289.9,349.8,289.9,348.4z"/>
	<path class="st0" d="M381.3,401.4c6.3,1.1,12.4,3.8,16.4,8.8c15.8,20.1,12.3,58.7-13.1,70.1c-6.2,2.8-12.1,3.7-17.6,2.7
		c-5.6-1-10.8-3.8-15.6-8.6c-20-19.4-10-56.9,11.6-70.4C368.3,400.8,375,400.3,381.3,401.4z M397.3,415.7
		c-6.9-11.6-23.3-16.4-28.5,0.5c-5.2,17.1-0.6,42.6,23.4,39.4c6.9-0.9,10.5-5.1,10.9-12.4C403.6,432.3,401.7,423.1,397.3,415.7z
		 M366.3,408c-0.6,0.1-2.1,1.2-4.5,3.3c-14.3,12.2-21.5,30.7-15.4,49c5.4,16.3,22.8,23.7,38,15.8c7.4-3.8,12.3-10.7,15.8-17.6
		c0.2-0.3,0-0.7-0.3-0.9c-0.2-0.1-0.4-0.1-0.5,0c-5.1,2.3-10.8,2.8-16.8,1.6c-18.9-3.9-21.8-26.2-17.8-42.3c1-4,1.8-6.6,2.4-7.8
		c0.2-0.3,0-0.7-0.3-0.8C366.6,408,366.5,408,366.3,408z"/>
	<path class="st0" d="M262.7,410.1c8.8-0.7,17.2,13.3,18.6,31.4c0,0,0,0,0,0c1.5,18-4.5,33.2-13.4,33.9l0,0
		c-8.8,0.7-17.2-13.3-18.6-31.4v0C247.9,426,253.9,410.8,262.7,410.1z M262.1,414.2l-1.4,0.5c-1.2,0.4-2.2,1.2-2.9,2.3
		c-2,3.1-3.4,7.3-4.3,12.7c-2,12.5-1,23.2,3.3,32.3c2.7,5.7,12.3,15.8,17.3,4.8c1.4-3.1,2.3-5.8,2.8-8.2c0.1-0.6-0.3-1.3-0.9-1.4
		c-18.5-4.5-18.1-27.4-12.5-41.5c0.2-0.6,0-1.2-0.6-1.5C262.6,414.2,262.3,414.1,262.1,414.2z M267.7,416.6
		c-0.6,0.5-1.1,1.4-1.6,2.8c-3.5,9.6-4.9,30.4,8.4,33.2c1.3,0.3,2.6-0.6,2.9-1.9c0-0.1,0-0.2,0-0.4c0.6-9.2-1.2-25.3-7.7-33.5
		C269.2,416.2,268.3,416.1,267.7,416.6C267.7,416.6,267.7,416.6,267.7,416.6z"/>
	
		<ellipse transform="matrix(0.9995 -3.141076e-02 3.141076e-02 0.9995 -13.7201 9.803)" class="st0" cx="305.2" cy="441.6" rx="6.7" ry="3.6"/>
	<path class="st0" d="M291.6,448c0.3-0.6,1.2-0.7,1.9-0.2c0.2,0.1,0.3,0.3,0.5,0.4c3,4,5.7,6.8,7.9,8.5c8.5,6.6,13.7-1.9,17.6-8.9
		c0.3-0.5,0.9-0.7,1.4-0.4c0.1,0.1,0.2,0.1,0.3,0.2l0.1,0.1c0.6,0.6,0.8,1.6,0.4,2.4c-0.7,1.6-2.1,3.9-4.2,7
		c-8.1,11.9-21.2,2.7-25.7-6.8C291.3,449.4,291.3,448.6,291.6,448z"/>
</g>
</svg>
