<?xml version="1.0" encoding="utf-8"?>
<!-- Generator: Adobe Illustrator 26.0.1, SVG Export Plug-In . SVG Version: 6.00 Build 0)  -->
<svg version="1.1" id="Layer_1" xmlns="http://www.w3.org/2000/svg" xmlns:xlink="http://www.w3.org/1999/xlink" x="0px" y="0px"
	 viewBox="0 0 612 792" style="enable-background:new 0 0 612 792;" xml:space="preserve">
<style type="text/css">
	.st0{fill:#010101;}
</style>
<path class="st0" d="M331.7,244c0.1,0.4,0.5,0.6,0.9,0.5c0.2,0,0.4-0.2,0.5-0.4c3.5-6.8,5.6-11,6.4-12.7c4-8.3,9.9-15,14.6-22.5
	c3.8-6,8.8-10.3,13.3-16.5c7.9-11,17.1-17.9,26.4-28.4c14.1-15.9,32.1-25.4,53.9-28.5c18.2-2.5,26.9,11.6,30.5,27.1
	c8.1,34.9,1.8,69.6-11,103.1c-2.7,7-5.8,13.2-9.3,18.6c-0.5,0.7-0.4,1.7,0.1,2.4c6.3,7.7,6.3,14.6,3.4,24.2
	c-3.7,11.8-9.8,23.4-18.4,34.6c-3.5,4.6-8.9,10.1-16.2,16.5c-9.8,8.6-15.6,13.7-17.5,15.1c-11.3,9-25.1,14.9-40.4,21.6
	c-0.7,0.3-1.1,1.1-0.9,1.8l2.1,9.1c0.1,0.6,0.7,1,1.4,0.9c0.2,0,0.4-0.1,0.5-0.3c8.2-7.4,16.7-13.4,25.9-2.9c0.5,0.6,1.4,0.7,2,0.2
	c9.9-7,18.4-15.8,31.1-6.9c4.3,3,5.9,9.4,7,14.2c0.1,0.5,0.6,0.8,1.1,0.7c0.1,0,0.3-0.1,0.4-0.2c10.4-8.1,20.1-18.3,32.3-10.5
	c10.8,7,8.6,23.4,5.8,33.8c-2.6,9.5-5.4,18.4-8.3,26.6c-0.2,0.7,0.1,1.4,0.8,1.6c0.1,0,0.3,0.1,0.4,0.1c14.4-0.4,13.1,16,8.6,24.5
	c-0.3,0.6-0.1,1.3,0.5,1.6c0.2,0.1,0.4,0.2,0.7,0.1c1-0.1,3.1,0,6.6,0.1c17,0.6,7,22,3.1,30.9c-2.4,5.4-5.6,10-9.8,13.7
	c-0.9,0.8-1.1,2.1-0.5,3.1l3.2,5c1.1,1.8,1,4-0.2,5.7L479,557c-0.5,0.8-0.5,1.8,0.1,2.4c4.3,4.8,7.8,9.9,5.9,16.5
	c-2,6.8-4.9,9.1-10.2,14c-5.5,5.1-12.7,8.5-21.4,10.4c-0.5,0.1-0.9,0.6-0.8,1.2c0,0.1,0.1,0.3,0.2,0.4c3.1,4.6,6.8,11.2,2,15.8
	c-7.2,7-15,6.1-22.9,7.2c-1,0.1-1.8,0.8-2.1,1.7c-1.8,5.8-3.2,10.5-9.2,12.5c-6.6,2.1-16.1-0.3-23.3-2c-1.9-0.4-3.8,0-5.3,1.2
	c-7.9,6.3-14.4,13.1-22.9,16.6c-13.1,5.5-25.8,8.1-38.1,8c-2.5,0-6.3,2.9-7.9,4.8c-10,10.9-22.9,10.2-33.6,1.1
	c-3.4-2.9-5.8-4.4-7.3-4.6c-8.9-1-10.5,0.3-17.5,5.8c-11.5,9-31.1-3-37.9-11.4c-6.2-7.8-9.8-12.5-10.8-14c-0.7-1.1-2-1.7-3.3-1.4
	c-10.9,2.3-17.6-1.6-20.2-11.9c-0.2-0.8-0.9-1.4-1.8-1.5c-4.6-0.4-8.1-0.7-10.3-1.1c-7.3-1.3-8.1-11-9-17.5c-0.1-0.6-0.6-1-1.2-0.9
	c-0.1,0-0.3,0.1-0.4,0.1c-5.9,3.5-12.2,7.5-18.6,6.9c-9.8-0.8-14.7-10.5-14.2-19.8c0.4-7.9,2.2-15.5,5.5-22.9c0.2-0.4,0-1-0.4-1.2
	c-0.1-0.1-0.3-0.1-0.4-0.1c-4.2,0.2-7.6,0.1-10.3-0.3c-9.4-1.5-12-13.1-7.8-20.5c2.2-3.9,4.4-7.3,6.7-10.3c0.4-0.6,0.5-1.3,0.1-1.9
	l-5-8.3c-0.1-0.2-0.2-0.4-0.3-0.6c-0.7-2.7,0-5.8,2.1-9.1c0.6-0.9,0.4-2-0.3-2.7c-6.1-6-11.5-9.8-11.4-17.3
	c0.1-10.6,5.5-16.7,16.3-18.4c0.7-0.1,1.2-0.8,1.1-1.5c0,0,0,0,0-0.1c-1.4-7.1-4.9-21.4,1.6-27c2.8-2.4,4.4-3.8,4.9-4.4
	c0.6-0.6,0.8-1.3,0.8-2.1c-0.4-5.3,1-9.8,4.2-13.4c0.5-0.5,0.6-1.3,0.4-2c-3.4-9.5-3-24.3,9.8-25.5c2.1-0.2,4-1.6,4.8-3.5
	c6-13.4,10.8-23.5,19.7-33.6c3.6-4.1,7.5-8.8,11.6-13.9c1.1-1.4,1.6-3.4,1.3-6.1c-2.3-28.7-3.7-56.9,4.6-83.7
	c4.2-13.8,7.9-29.2,15.3-43.9c1-2.1,4.4-8.8,10.1-20.4c3.5-7,9.3-16.3,17.4-27.8c7.7-10.9,14.7-19.3,21-25.2
	c12.6-11.9,27.4-22.1,44.2-30.7c2.9-1.5,7-2.5,12.4-3.1c16.3-1.8,22.3,15.1,22.7,28.5c0.7,21.3-3.4,36.1-8.6,60
	c-1.4,6.5-4.5,15.2-9.1,26.2c-0.3,0.8,0,1.7,0.8,2C327.7,235.3,330.6,238.9,331.7,244z M178.2,486.8c-0.6-2-0.8-3.4-0.6-4.3
	c0.2-0.6,0.8-1,1.5-0.9c0.3,0.1,0.6,0.3,0.7,0.6c12.8,21.5,38.7,33.5,63.8,36.4c27.9,3.2,50.1-1.5,75.1-13.5
	c6.3-3,10.5-4.7,12.8-5.1c9.4-1.7,24-1.4,30.5-11.2c1.5-2.3,1.1-5-1.1-8.2c-0.4-0.6-1.1-0.8-1.7-0.6L350,483
	c-0.8,0.3-1.8-0.1-2.2-0.9l0-0.1c-0.4-0.8,0-1.8,0.8-2.2c0.1,0,0.1,0,0.2-0.1c9.6-3.2,18.6-6.8,22.9-16.4c2.2-4.8-1.2-7.6-5.5-8.9
	c-0.8-0.2-1.6-0.2-2.4,0.2l-6.6,3.4c-0.7,0.3-1.5,0.4-2.2,0.1l-0.5-0.2c-0.5-0.2-0.8-0.8-0.6-1.4c0.1-0.2,0.2-0.3,0.3-0.4
	c8.3-6.3,18.3-12.8,18.6-17c0.4-7.9-9.3-7.8-14.5-5.7c-4.8,1.9-10.1,4.1-15.7,6.5c-0.7,0.3-1.6,0-1.9-0.7l0-0.1
	c-0.3-0.7-0.1-1.5,0.6-1.9l19.2-9.7c0.6-0.3,1-0.9,1-1.6c0.2-11.5,0.3-22.8-6.3-30.6c-0.5-0.6-0.4-1.5,0.2-2
	c0.2-0.1,0.3-0.2,0.5-0.3c38-11.1,67.6-33.3,89.1-66.7c4.5-7,6.5-13,8.4-21.9c0.9-4,1.1-11.4-5.3-9.3c-2.4,0.8-5.7,2.4-9.8,4.7
	c-0.6,0.4-1.5,0.2-1.9-0.5c-0.1-0.2-0.2-0.4-0.2-0.7c0-0.5,0.2-1.1,0.7-1.7c9.5-11.9,17.4-24.7,22.9-39.8
	c8.5-23.5,12.9-47,13.1-70.4c0.1-13.7-2.6-39.5-19.5-41.3c-16.2-1.7-28.5,5.4-41,15.5c-11.5,9.3-20.2,17.1-26.3,23.6
	c-16.7,18-31.2,38.3-43.4,60.9c-10.1,18.7-17,36.3-20.6,53c-4.1,19-6.3,36.9-6.7,53.9c0,0.6-0.3,1.2-0.9,1.5l-1,0.6
	c-0.4,0.2-1,0.1-1.3-0.4c-0.1-0.1-0.1-0.3-0.1-0.5l0.5-17c0-0.8-0.6-1.4-1.3-1.4c-0.2,0-0.4,0-0.5,0.1c-9.3,3.6-12.2,10.3-17.2,16.7
	c-0.5,0.6-1.3,0.7-1.9,0.2c-0.1-0.1-0.2-0.2-0.3-0.4l-0.1-0.1c-0.6-1.1-0.6-2.4,0.1-3.4c2.5-3.7,8.6-9.9,8.4-13.6
	c-0.2-5.2-4.1-8.8-9.2-7.1c-8.1,2.6-15.2,9.3-21.4,20.1c-0.3,0.5-0.9,0.7-1.4,0.5l-0.7-0.3c-0.6-0.2-0.9-0.9-0.7-1.5
	c0-0.1,0-0.1,0.1-0.2l6.8-11.8c0.7-1.2,0.3-2.8-1-3.5c-0.4-0.2-0.9-0.4-1.4-0.3c-10.7,0.5-17.9,7.4-24.1,16.6
	c-0.5,0.8-1.3,1.3-2.2,1.4l-0.8,0.1c-0.5,0.1-1.1-0.3-1.1-0.8c0-0.2,0-0.5,0.1-0.6c2.2-3.6,5.1-7.6,8.5-11.8
	c3.6-4.5,7.5-7.1,11.6-7.9c5.7-1.1,10.4-0.4,14.2,2c0.9,0.6,2,0.5,2.8-0.1c9-7.3,13.9-13.5,20.9-24.1c10.5-16.1,17.6-33.6,21.2-52.4
	c0.6-3.4,0.5-7-2.3-9.6c-2.1-1.9-7.3,1.7-15.7,10.9c-0.5,0.5-1.3,0.6-1.8,0.1c-0.2-0.2-0.3-0.4-0.4-0.6l0-0.1c-0.4-1.3,0-2.7,1-3.7
	c4.2-4,7.7-9.7,10.5-17.3c10.8-28.4,19.1-57.3,18.9-85.3c-0.4-42.9-46.3-8.2-58.2,3.2c-10.2,9.7-17.9,17.8-23.1,24.4
	c-4.5,5.6-9.6,13.5-15.4,23.8c-8.2,14.5-12.7,22.8-13.7,24.9c-9.8,23.2-18.4,47.4-20.8,71c-1,9.6-1.5,21.5-1.7,35.6
	c-0.1,5.1,0.8,13,2.6,23.6c0.1,0.6,0.7,1,1.3,0.9c0.1,0,0.3-0.1,0.4-0.1l5.8-3.4c0.4-0.2,0.8-0.1,1,0.3l0.2,0.4
	c0.3,0.6,0.2,1.3-0.4,1.7c-11.9,9.1-22.8,16.6-30.5,27.9c-8.2,12.1-13.6,24.9-16.2,38.5c-0.1,0.6-0.7,1-1.4,0.9
	c-0.3-0.1-0.6-0.3-0.8-0.6l-2.2-3.8c-0.3-0.5-0.8-0.8-1.4-0.9c-3.7-0.5-5.9,0.5-6.5,3c-2.2,9.3,0.3,16.6,7.7,21.8
	c0.9,0.6,1.4,1.7,1.4,2.7l0,1c0,0.6-0.5,1-1,1c-0.3,0-0.5-0.1-0.7-0.3c-2.4-2.3-4.6-3.8-6.5-4.5c-0.9-0.3-1.8,0-2.3,0.8
	c-6.3,10.4,3.9,20.7,13,25.4c0.6,0.3,0.8,1.1,0.5,1.7c-0.2,0.4-0.5,0.6-1,0.6c-1,0.1-2.4-0.1-4-0.5c-0.6-0.2-1.1,0.2-1.3,0.7
	c0,0.1,0,0.3,0,0.4c1,10.3,10.6,16.1,19.7,18.3c0.5,0.1,0.9-0.2,1-0.6C178.3,487.1,178.2,486.9,178.2,486.8z M311.2,306.5
	c0-0.3-0.2-0.6-0.5-0.6c-0.2,0-0.4,0.1-0.5,0.2l-9.5,12.6c-0.4,0.6-0.3,1.4,0.2,1.9l6.5,4.9c0.7,0.5,1.7,0.4,2.3-0.3
	c0.2-0.2,0.3-0.5,0.3-0.9L311.2,306.5z M365.2,596.9l2.3,4c0.2,0.3,0.3,0.5,0.3,0.8c0.8,6.8-2.4,10-9.7,9.8c-0.2,0-0.5,0-0.7-0.1
	l-5.6-2c-0.4-0.1-0.7,0.1-0.9,0.4c-0.1,0.2,0,0.4,0,0.5c3.4,5.9,13.7,29.8-2.4,26.8c-3.3-0.6-6.6-1.9-10-3.8
	c-0.4-0.2-0.9-0.1-1.1,0.3c0,0,0,0,0,0l-9.8,20.2c-0.1,0.2,0,0.4,0.2,0.5c0.1,0,0.1,0,0.2,0c25.1-0.9,48.7-8.7,63.3-29.8
	c0.9-1.3,3.7-5.4,8.4-12.1c0.2-0.3,0.6-0.4,0.9-0.2c0.2,0.1,0.3,0.4,0.3,0.6v1.6c0,0.2-0.1,0.5-0.2,0.7l-4.3,8.9
	c-0.3,0.6-0.1,1.2,0.4,1.6c6.5,4.4,13.1,6.4,19.9,5.8c8.3-0.6,1-10.8-1.4-15.2c-0.5-0.9-0.2-1.9,0.7-2.4c0.4-0.2,0.9-0.3,1.4-0.2
	c9.6,2.8,21.1,3.7,30.3-1.4c0.7-0.4,1-1.3,0.6-2.1c-0.1-0.2-0.3-0.4-0.5-0.5l-15.1-10.7c-0.7-0.5-0.9-1.5-0.4-2.2
	c0.2-0.3,0.6-0.5,0.9-0.6c13.6-3,37.1-11.5,43.8-23.1c0.3-0.5,0.4-1.2,0.2-1.8c-0.7-2.3-1.8-3.7-3.3-4.2c-6.5-2-16.1-0.4-23.6-0.3
	c-0.7,0-1.3-0.6-1.3-1.3c0-0.5,0.3-1,0.7-1.2c8-4,17.9-5.6,22.6-13.8c2-3.5-1.6-5.6-4.7-5.6c-3.2,0.1-7.8,0.6-13.9,1.7
	c-0.7,0.1-1.4-0.4-1.5-1.1c-0.1-0.5,0.2-1.1,0.6-1.3c10.9-5.8,20.4-14,28.5-24.5c3.1-4.1,5.1-7.9,6-11.5c0.5-2.1-0.7-4.2-2.8-4.8
	c-2.4-0.7-5-0.8-8-0.2c-8.1,1.6-17.1,4.3-21.5,3.2c-0.6-0.1-0.9-0.7-0.8-1.3c0.1-0.2,0.2-0.4,0.3-0.5c8.1-6.9,14.1-13,19-22.8
	c0.3-0.7,0.5-1.4,0.4-2.1c-1.2-9.7-15.9-0.7-23,2.4c-0.8,0.3-1.6,0-2-0.7c-0.1-0.3-0.2-0.6-0.1-1c0.5-1.9,1.1-3.5,2.1-4.8
	c10.3-13.5,16.7-28.4,19.3-44.8c1-6.6,2.9-17.1-5.2-18.4c-1.9-0.3-4.6,0.5-7.9,2.5c-10.8,6.4-19.7,14.2-26.7,23.3
	c-0.3,0.4-3.8,5.6-10.5,15.5c-0.4,0.7-1.3,0.8-2,0.4c-0.4-0.2-0.6-0.6-0.6-1.1c-0.1-0.7,0.1-1.6,0.5-2.5c0.5-1.2,0.8-2,1.1-2.4
	c8.1-10,11.1-21.7,9.1-35.3c-1.5-10.2-10.3-8.3-16.1-3.6c-7.4,6.1-13.3,13.6-17.7,22.7c-0.4,0.9-1.3,1.5-2.2,1.7l-0.7,0.1
	c-0.6,0.1-1.2-0.3-1.4-1c0-0.2,0-0.5,0.1-0.7c2.9-6,3.6-12.1,1.9-18.2c-1.5-5.5-5.6-4.7-8.9-1.4c-4.2,4.1-7.4,9.5-9.6,16.2
	c-0.2,0.6-0.2,1.2,0.1,1.8c2.7,5.6,4.1,7.6,0.3,13.4c-1.4,2.2-3,4.1-4.6,5.6c-0.4,0.4-0.4,0.9-0.1,1.3c0.1,0.1,0.1,0.1,0.2,0.2
	l6.4,3.7c0.5,0.3,1.1,0.4,1.6,0.3c5.8-1,10.7-1.4,14.8-1.2c9.7,0.3,11,8.9,5.6,15.3c-0.3,0.3-0.2,0.8,0.1,1.1
	c0.1,0.1,0.3,0.2,0.5,0.2c8.2-0.3,15.8,0.9,22.9,3.8c4.3,1.7,10.2,4.4,8.4,9.7c-4.1,12.3-12.9,18.7-24.3,24.1
	c-0.3,0.2-0.5,0.6-0.3,0.9c0,0.1,0.1,0.2,0.2,0.3c6.5,4.8,7.9,10.5-0.1,15.2c-3.9,2.2-5.8,3.4-5.8,3.4c-0.4,0.3-0.4,0.8-0.1,1.1
	c0.1,0.1,0.1,0.1,0.2,0.2c4.6,3,21.6,14.7,18.7,21.7c-3.5,8.3-18.5,9.8-26.8,9.5c-0.4,0-0.7,0.3-0.7,0.7c0,0.2,0,0.3,0.1,0.4
	c5.6,7.6,10,15.8,13.3,24.6c5.2,13.9-6.4,19.4-18.1,16.4c-2.4-0.6-9-2.8-20-6.5c-0.3-0.1-0.7,0.1-0.8,0.4
	C365.1,596.5,365.1,596.7,365.2,596.9z M341.5,599.2c2.8,1,7,3.2,12.4,6.5c3.3,2,7.6,3.7,9.8-0.1c0.7-1.2,0.7-2.5-0.1-3.8
	c-4.7-7.6-10.6-14.9-17.8-21.8c-0.3-0.3-0.3-0.8,0-1.2c0.2-0.2,0.4-0.3,0.6-0.3h1.2c1,0,1.9,0.4,2.6,1.1c5,5.4,8.7,8.8,11.2,10.1
	c6.3,3.3,13.7,6.1,22.2,8.4c6.7,1.8,21.1,2.2,17.4-9.7c-2.7-8.7-6.2-15.7-10.5-21.1c-5.6-7-12-14-12.3-16.8
	c-0.1-0.5,0.3-0.9,0.7-0.9c0.2,0,0.4,0,0.6,0.2l7.4,5.6c0.3,0.2,0.6,0.4,0.9,0.4c5.8,1.3,21.2,1.5,25.4-4.3c1.2-1.7,1.1-4-0.2-5.8
	c-4.3-5.8-9.3-10.2-15-12.9c-5.9-2.9-9.5-4.7-10.8-5.5c-0.7-0.4-0.9-1.3-0.5-2c0.3-0.5,0.8-0.8,1.4-0.7c6.9,0.7,12.8-0.7,17.9-5.3
	c1.1-1,1.2-2.6,0.2-3.7c-0.2-0.3-0.5-0.5-0.8-0.6l-10.6-5.1c-0.7-0.4-1-1.2-0.7-2c0.2-0.3,0.5-0.6,0.8-0.7c6-2.1,9.6-3.3,10.8-3.8
	c8.8-3.7,15.9-10.7,19.9-19.1c0.8-1.6,0.2-3.6-1.4-4.5c-10.9-6.3-22.5-7.6-34.9-3.9c-0.9,0.3-1.9-0.2-2.1-1c0-0.1-0.1-0.2-0.1-0.3
	c0-0.6,0.3-1.2,1-1.8c3.8-3.3,6.6-6.3,8.4-9.1c0.3-0.5,0.5-1.1,0.4-1.7c-0.3-7.7-14.4-4.3-18.6-2.4c-1.6,0.7-2.7,2.1-3.4,4.2
	c-1.7,4.9-4.9,8.9-9.5,12.2c-0.5,0.4-0.7,1.1-0.5,1.7c3.3,8.3,1.3,14.6-6,18.7c-5.2,3-9.6,4.8-13,5.3c-12.1,2.2-19.3,3.7-21.5,4.7
	c-10.6,4.6-17.2,7.4-19.7,8.4c-13.3,5.2-28.5,8-45.6,8.4c-25.2,0.6-46.9-6.1-65-19.9c-5.8-4.4-10.5-9.8-16.3-11.2
	c-6.8-1.6-12.1-4.5-19.7-10.5c-5.2-4-5.7-10.3-5.2-16.6c0-0.6-0.1-1.1-0.5-1.6l-4.5-5c-0.4-0.5-1.1-0.7-1.7-0.4
	c-7.3,2.5-9.2,5.4-7.7,13.3c1.6,8.3,5.9,15,12.7,20c0.2,0.1,0.4,0.4,0.5,0.8c0.2,0.5,0.3,0.8,0.3,0.9c0.1,0.4-0.2,0.8-0.6,0.9
	c-0.1,0-0.2,0-0.3,0c-5.2-0.9-10.3-2.8-15.7-2.4c-7.1,0.5-16.1,2-11.3,11.7c2.9,6,8.2,10.6,15.7,14c3.5,1.5,8,1.7,13.5,0.6
	c0.7-0.2,1.4,0.2,1.7,0.9l0.2,0.5c0.3,0.7-0.1,1.5-0.8,1.8c-0.1,0-0.2,0.1-0.3,0.1c-6.5,1-13.2,2-19.1,5.2c-0.9,0.5-1.3,1.7-0.8,2.6
	c0.1,0.1,0.2,0.3,0.3,0.4c4.7,5.2,9.4,4.7,14.9,5.5c0.6,0.1,1.1,0.7,1,1.3c0,0.3-0.2,0.6-0.5,0.8c-8,5.8-15.4,11.4-18.3,20.7
	c-1.4,4.2,2,5,5.5,5.4c7.2,0.9,13.7-0.4,19.6-3.9c0.5-0.3,1.1-0.1,1.4,0.4c0.2,0.3,0.2,0.6,0.1,0.9c-1.2,3.2-3.4,8.3-6.4,15.2
	c-2.3,5.3-4.3,13.1-6.1,23.4c-0.7,4.3,1.1,9,5.7,8.4c13.2-1.6,19.9-9.7,29.4-17.6c0,0,0.1-0.1,0.2-0.1l1.3-0.7
	c0.3-0.2,0.7-0.1,0.9,0.3c0.1,0.1,0.1,0.3,0.1,0.5c-1.5,9.5-3.9,19.7-1,27.2c0.7,1.6,2.1,2.7,3.5,2.5c5.1-0.6,12.2-11,15.5-16
	c0.4-0.7,1.3-0.9,2-0.4c0.5,0.3,0.7,0.9,0.6,1.5c-1.5,8.6-3.5,17.6-1.3,26.1c0.7,2.6,2.7,4.4,4.9,4.4c1.7,0,3.3-1.2,4.7-3.4
	c2.6-4.2,4.8-8,6.7-11.6c1.1-2.1,0.6-6.1-1.5-12c-0.3-0.9,0.1-1.8,1-2.1l0.1,0c0.8-0.3,1.7,0.1,2,0.9c3.5,8.5,8.2,21.6,14.6,24.8
	c1.5,0.8,3.4,0.4,4.4-1c6.1-7.6,7.3-15.4,3.6-23.4c-0.2-0.4,0-0.9,0.4-1.1c0.2-0.1,0.5-0.1,0.8,0l1,0.5c1,0.5,1.8,1.4,2.2,2.4
	c4.7,12.1,9.3,22.4,18.7,31.5c18.4,17.9,25.1-19.5,25.1-29.3c0-0.8,0.6-1.4,1.4-1.4c0.5,0,0.9,0.2,1.2,0.7
	c5.5,8.5,12.8,22.5,23.2,24.9c1.7,0.4,3.5-0.5,4.1-2.1c2.9-6.9,0.5-12.3-1.9-22.2c-0.2-0.7-0.2-1.3-0.1-1.9c0.1-0.7,0.8-1.1,1.5-1
	c0.3,0.1,0.6,0.2,0.8,0.5c8.7,11.6,14.1,21.8,28.2,24.9c1.7,0.4,3.4-0.7,3.8-2.4c0-0.2,0.1-0.3,0.1-0.5c0.2-3.4-0.2-6.1-1.3-8.4
	c-2.9-5.9-6.9-13.2-12-22c-0.2-0.4-0.1-0.9,0.3-1.2C341,599.1,341.2,599.1,341.5,599.2z M294.9,620.2c-2.7,9.4-5.1,16.3-7.4,20.5
	c-4.5,8.4,3.1,17.2,8.9,22.7c17.6,16.8,33.5-20.8,37.1-31.5c0.4-1.3,0.1-2.8-0.9-3.8l-4.5-4.5c-0.4-0.4-1-0.4-1.4,0
	c-0.2,0.2-0.3,0.4-0.3,0.7c0.3,8.3-1,18.9-12.7,14c-7.5-3.2-13.4-9.2-17.6-18.2c-0.2-0.3-0.6-0.5-0.9-0.3
	C295,619.9,294.9,620,294.9,620.2z M219.7,627.4c-1,1.9-0.9,4.1,0.2,6c8.1,13.3,17.4,27.1,31.8,31.1c10.7,3,10.9-7,12.6-15.8
	c0.3-1.7-0.3-3.6-1.9-5.8c-3-4.3-7.3-10.6-12.8-19.1c-0.3-0.5-1-0.6-1.5-0.3c-0.2,0.1-0.3,0.3-0.4,0.6c-2,6.1-7.3,15.1-14.7,10.1
	c-3.8-2.5-6.6-5.7-8.6-9.5c-0.5-0.9-1.6-1.2-2.4-0.7c-0.3,0.2-0.6,0.4-0.7,0.7L219.7,627.4z M267.5,655.3l16.5,1.4
	c0.3,0,0.6-0.2,0.6-0.5c0,0,0,0,0,0l0-0.6c0.3-3.4-1.9-6.4-4.9-6.6c0,0,0,0,0,0l-6.7-0.6c-3-0.2-5.6,2.3-5.9,5.7l-0.1,0.6
	C267,655.1,267.3,655.3,267.5,655.3C267.5,655.3,267.5,655.3,267.5,655.3z"/>
<path class="st0" d="M326.2,366.4c-0.2-1.2-0.3-2.8-0.1-5c1.1-15.6,2.9-27.6,5.2-35.8c2.6-9.2,5.2-17.8,7.7-25.8
	c4.5-14.6,11.1-28.8,19.8-42.5c15.3-24.3,33.3-48.8,56.3-64c10.1-6.7,21.5-7.3,27.3,5.5c5.6,12.3,5,25.8,2.1,39
	c-5,23.5-13.4,43.8-24,68.5c-4.9,11.4-9.3,20.1-13.3,26c-15,22-31.5,43.6-58.7,49.2c-0.6,0.1-1.1,0.1-1.4,0
	c-1.2-0.4-1.8-1.7-1.4-2.8c0.1-0.2,0.2-0.5,0.4-0.7c3.6-4.6,14.2-21.1,2-22.8c-8.3-1.1-13.8,5.4-19.3,11.8c-0.5,0.6-1.4,0.7-2,0.1
	C326.5,366.9,326.3,366.7,326.2,366.4z M330.2,357.8c0,0.4,0.2,0.7,0.6,0.7c0.2,0,0.3,0,0.5-0.1c5.9-4.4,9.8-7.5,17.7-6.5
	c12.5,1.6,7.4,16,4.4,23c-0.2,0.4,0,0.9,0.4,1.1c0.2,0.1,0.4,0.1,0.6,0c25.8-10,45.6-35.2,57.4-59.9c12.7-26.8,21.9-50.3,27.5-70.5
	c3.9-14,6.8-34.6-1.6-47.4c-7.3-11.2-18.5-4.1-25.9,2c-10.5,8.6-19.5,17.3-26.9,26.1c-5,6-12.4,16.5-22,31.5
	C344,287.1,334,322.8,330.2,357.8z"/>
<path class="st0" d="M218,318.5c-0.3-1-0.6-2.4-0.7-4.2c-0.8-13.6-0.6-24,0.5-31.4c1.3-8.3,2.5-15.9,3.8-23
	c2.3-13.1,6.4-26,12.4-38.8c10.5-22.6,23.3-45.7,41.4-61.3c7.9-6.8,17.7-8.7,24.1,1.7c6.2,10,7.1,21.7,6.1,33.4
	c-1.7,20.8-6.7,39.2-13.1,61.6c-3,10.4-5.8,18.3-8.6,23.8c-10.5,20.6-22.3,41-45.1,48.9c-0.5,0.2-0.9,0.2-1.2,0.2
	c-1-0.2-1.7-1.2-1.5-2.3c0-0.2,0.1-0.4,0.2-0.6c2.6-4.4,9.9-19.7-0.8-19.9c-7.2-0.1-11.3,6.2-15.4,12.3c-0.4,0.6-1.2,0.7-1.7,0.3
	C218.2,318.9,218.1,318.7,218,318.5z M220.4,310.7c0,0.3,0.3,0.6,0.6,0.5c0.1,0,0.3-0.1,0.4-0.2c4.6-4.4,7.6-7.5,14.6-7.5
	c10.9,0,8.1,13,6.3,19.3c-0.1,0.4,0.1,0.8,0.5,0.9c0.2,0.1,0.4,0,0.5-0.1c21.1-11.4,35.4-35.4,42.8-57.9c8-24.4,13.3-45.7,15.9-63.8
	c1.8-12.5,2.1-30.5-6.6-40.6c-7.5-8.8-16.4-1.5-22.1,4.6c-8.1,8.6-14.8,17-20.3,25.4c-3.7,5.7-8.9,15.5-15.5,29.5
	C224.5,248.3,219.9,280.1,220.4,310.7z"/>
<path class="st0" d="M185.7,386.3c15.5-5.3,24,35.6,22.1,45.7c-2,10.6-10.7,15.4-20.4,10.5c-12.8-6.4-11.4-27.2-10.3-39.6
	c0.6-6.7,2.9-11.9,6.8-15.5C184.4,386.9,185,386.5,185.7,386.3z M200.2,439c1.1-0.6,1.6-2,1-3.1c-0.2-0.5-0.6-0.8-1.1-1.1
	c-4.9-2.2-8-5.7-9.3-10.2c-2.8-10.1-3.3-21.2,1.8-29.7c1-1.6,0.5-3.6-1.1-4.6c0,0-0.1,0-0.1-0.1c-5.3-3-8.4,3.2-9.6,7.6
	c-2.4,8.7-2.6,18.6-0.6,29.7c1.2,6.3,4.5,10.4,10.1,12.2c2.8,0.9,5.9,0.7,8.5-0.6L200.2,439z M196.8,398c-0.2-0.5-0.8-0.7-1.3-0.5
	c-0.2,0.1-0.4,0.3-0.5,0.5c-3.5,8.8-5.5,30.2,7,33.2c1,0.2,2.1-0.4,2.3-1.4c0-0.2,0.1-0.4,0.1-0.5
	C203.9,418.2,201.4,407.8,196.8,398z"/>
<path class="st0" d="M316.7,443.9c-12.2,11.4-32.1,15.6-46.2,7.2c-13.3-7.9-9.8-26.8-2.7-37.6c2.2-3.4,5.5-7.2,9.9-11.2
	c4.3-4.1,8.3-7.1,11.8-9.1c11.2-6.4,30.4-8.6,37.4,5.1C334.4,412.9,328.9,432.5,316.7,443.9z M312.7,391.3
	c-9-0.9-17.4,9.1-18.8,22.5s4.8,24.9,13.8,25.8c9,0.9,17.4-9.1,18.8-22.5c0,0,0,0,0,0C327.9,403.8,321.7,392.3,312.7,391.3z
	 M296.2,395.1c0.2-0.4,0-0.8-0.4-1c-0.2-0.1-0.5-0.1-0.7,0c-15.2,9-31.6,22.3-29.4,41.9c2.3,20.9,28.5,16.2,41,9.1
	c0.4-0.2,0.5-0.7,0.3-1.1c-0.1-0.1-0.2-0.3-0.3-0.3c-9.5-4.6-15.8-10.5-16-21.9C290.5,412.3,292.3,403.4,296.2,395.1z"/>
<ellipse transform="matrix(1 -6.981261e-03 6.981261e-03 1 -3.0111 1.5923)" class="st0" cx="226.6" cy="432.1" rx="6.9" ry="3.7"/>
<path class="st0" d="M214,441c-0.1-0.5,0.2-1,0.6-1.1c0.3-0.1,0.6,0,0.8,0.2c2.3,2.1,4.3,3.9,6.2,5.4c7.6,5.9,13.5-1.6,18.7-7.1
	c0.4-0.4,1-0.6,1.9-0.6c0.6,0,1,0.5,1,1c0,0.1,0,0.3-0.1,0.4c-2.7,6.1-9,13-16,12.7C221.4,451.6,215.7,446.6,214,441z"/>
</svg>
