<?xml version="1.0" encoding="utf-8"?>
<!-- Generator: Adobe Illustrator 26.0.1, SVG Export Plug-In . SVG Version: 6.00 Build 0)  -->
<svg version="1.1" id="Layer_1" xmlns="http://www.w3.org/2000/svg" xmlns:xlink="http://www.w3.org/1999/xlink" x="0px" y="0px"
	 viewBox="0 0 612 792" style="enable-background:new 0 0 612 792;" xml:space="preserve">
<style type="text/css">
	.st0{fill:#010101;}
</style>
<g>
	<path class="st0" d="M274.8,187c0.3,0,0.6-0.2,0.6-0.5c0-0.2-0.1-0.3-0.2-0.4c-3.8-3.4-7.2-6.6-10-9.6c-7.2-7.6-8.7-19.7-7.9-30.1
		c0.7-8.7,5.3-21.9,14.2-24.6c0.6-0.2,1.3,0.2,1.4,0.8c0,0.1,0.1,0.3,0,0.4l-0.4,4.9c-0.1,1.4,0.9,2.7,2.3,2.8
		c0.8,0.1,1.5-0.2,2.1-0.8l5.3-5.4c0.7-0.7,1.5-1.3,2.3-1.8c0.7-0.4,4.8-2.2,12.3-5.3c2.4-1,4.9-3.4,7.5-7.3
		c2.4-3.5,2.6-7.5,0.5-12.1c-0.6-1.4-0.4-3.1,0.6-3.7c0.3-0.2,0.6-0.2,0.9-0.2c4.8,0.1,9.4,4.3,13.2,7.4c5.4,4.3,7.8,9.6,7.3,15.6
		c0,0.3,0,0.6,0.1,0.8l2.9,7c0.2,0.5,0.8,0.7,1.3,0.5c0,0,0.1,0,0.1,0c1.4-0.8,2.8-1,4.1-0.6c0.8,0.2,1.3,0.9,1.2,1.7
		c-0.1,4.5-0.2,6.9,4.1,9.5c5.3,3.1,13.5,14.4,6.7,20.6c-0.2,0.2-0.2,0.6,0,0.9c0.1,0.1,0.3,0.2,0.5,0.2l6.5-0.7
		c0.7-0.1,1.3-0.3,1.9-0.8c8.1-6.4,10.6,1.6,15.7,4.7c6.6,3.9,12,10,9.7,17.9c-0.4,1.3-0.3,2.7,0.3,3.9c2.4,5.1,2.9,10.1,1.5,14.8
		c-0.2,0.5,0.1,1.1,0.7,1.2c0,0,0.1,0,0.1,0c5.7,1,11.7,2,15.9,3.3c13.3,4.4,24,6.5,34.6,11.9c42.2,21.5,72,54.1,89.4,98
		c20.3,51.1,18.2,108.8-7.2,157.7c-11.2,21.6-26.8,41.2-46.9,58.7c-2.5,2.2-5.3,4.6-8.5,7.3c-0.6,0.5-0.7,1.3-0.4,2
		c12,21.6,18.6,43.6,16.1,68c-0.1,1,0.1,2,0.7,2.8c5.8,9.2,11,17,15,27.9c1.6,4.5,2,8.7,3.1,13.2c0.3,1.2,0.7,2.4,1.4,3.5
		c3.6,6.4,8.7,16.5,6.8,23.6c-0.4,1.6-2.1,2.6-3.8,2.2c-0.2-0.1-0.4-0.1-0.5-0.2l-8.2-4c-0.3-0.1-0.6,0-0.8,0.3
		c-0.1,0.1-0.1,0.3,0,0.4c1.6,3.6,1.9,7.9,1.1,13c-1.5,9.1-15.4-2.6-20-5.8c-0.3-0.2-0.7-0.1-0.9,0.2c-0.1,0.1-0.1,0.3-0.1,0.5
		c0.5,3,0.7,6.1,0.7,9.2c-0.1,15.1-20.1-4.7-23-7.9c-0.7-0.8-1.4-1.4-2.3-2c-7.5-5-14-10.8-19.7-17.4c-2.5-2.9-9.1-9.7-10.6-14.2
		c-0.9-2.6-1.5-4.4-1.9-5.3c-0.4-0.7-1-1.3-1.7-1.7c-5.5-2.8-10.4-5.4-14.8-7.7c-15.5-8.5-29-25.8-36.9-42.1
		c-0.4-0.8-1.3-1.1-2.1-0.8c-10.5,3.7-20.9,5.6-31.1,5.7c-0.6,0-1.2,0.4-1.5,1c-2.2,4.4-4,8.1-5.5,11.1c-7.6,14.9-17.8,27.2-30.7,37
		c-6.1,4.6-9.6,7.4-10.6,8.4c-4.1,3.7-11.1,10.2-16.5,9.6c-1.6-0.2-2.9-1.7-3-3.6c-0.1-1.1-0.1-2.8-0.1-5.1c0-0.3-0.2-0.6-0.6-0.6
		c-0.1,0-0.3,0-0.4,0.1c-2.9,2-9.8,6.1-12.8,4.2c-3.6-2.3-2.9-5.8-1.8-9.4c0.2-0.5-0.1-1.1-0.7-1.3c-0.2-0.1-0.5-0.1-0.7,0
		c-2.5,1-4.2,1.7-5.1,1.9c-1.9,0.5-3.9-0.3-4.5-1.9c-2.3-5.4,4.3-16.5,8.2-21.4c0.2-0.3,0.2-0.7-0.1-0.9c-0.1,0-0.1-0.1-0.2-0.1
		c-14.8-4.5-25.3-13.1-31.5-25.8c-11.2-22.7-1.2-47,13.3-65.2c0.4-0.6,0.5-1.3,0.2-2l-4.5-9.8c-0.4-0.9-1.3-1.5-2.3-1.4
		c-14.3,0.1-28.4-3.1-42.2-9.8c-20.9-10.1-41.9-24.5-55.3-43.2c-9.7-13.6-2.1-27.6-0.9-40.4c0-0.6-0.1-1.1-0.5-1.6
		c-10.8-13.3-20.5-25.9-29.1-38.1c-5.9-8.3-10.4-15.9-13.6-22.8c-0.7-1.5,0-3.4,1.6-4.1c0.3-0.1,0.6-0.2,0.9-0.3
		c1.1-0.2,2.1-0.4,2.9-0.7c0.6-0.2,0.8-0.8,0.6-1.4c0,0,0-0.1,0-0.1c-2.3-4.9-5-13.5-4-20.1c0.1-0.5,0.5-1,1.1-1
		c3.5-0.2,6.7,0.2,9.7,1c0.3,0.1,0.6-0.1,0.7-0.4c0-0.1,0-0.2,0-0.3c-1.2-4.1-1.1-10.4,5.7-8c6.8,2.4,15.1,6.6,25,12.5
		c0.6,0.4,1.5,0.2,1.9-0.5c0.1-0.1,0.1-0.2,0.1-0.3c10.2-30.6,30.9-50.9,62.1-61c60.6-19.5,108.3,28.7,122.5,83.2
		c0.1,0.4,0.6,0.7,1,0.6c0.1,0,0.3-0.1,0.4-0.2c10.7-11.4,26.5-27.9,47.5-49.5c5.9-6.1,11.7-13.5,16.4-18.7c3-3.4,5.6-5.8,7.7-7.1
		c1.8-1.2,4.2-0.9,5.8,0.5c2.1,1.9,3.5,4.7,4.2,8.4c0.4,2,0.6,3,0.6,3.1c0.2,0.7,1,1.1,1.8,0.9c0.1,0,0.3-0.1,0.4-0.2
		c3.8-2.7,6.3-2.9,7.6-0.4c5,9.1,2.3,26.3,0.7,36.8c-2.3,15.3-4.5,27.5-6.7,36.4c-4.6,19.2-11.7,37.1-21.3,53.8
		c-0.3,0.5-0.1,1.1,0.4,1.4l25.7,16.8c0.6,0.4,1.3,0.3,1.9-0.2c4.1-3.7,6.3-5.6,11.5-8.9c9.6-6,16.8-12.2,21.5-18.7
		c26.5-36.1,31.8-75.3,16.1-117.7c-6-16-14.7-30.8-26.2-44.4c-2-2.4-7.9-8.1-17.8-17c-11.5-10.5-22.1-18.1-31.8-22.7
		c-0.4-0.2-0.8,0-1,0.3c0,0,0,0.1,0,0.1c-1.4,4.3-9.4,10.4-11.8,12.4c-0.8,0.6-1.6,1.1-2.5,1.6c-6.4,2.9-13.5,3.2-21.2,0.9
		c-0.6-0.2-1.3,0-1.8,0.4c-8.2,6.7-17.8,8.6-28.9,5.7c-18.1-4.8-24.3-19.5-29.1-35.8c-1.8-6-4.9-10.1-9.3-12.2
		c-0.7-0.3-1.1-0.9-1.3-1.6C264.9,186.8,271.6,186.9,274.8,187z M272.5,172.7c-2-6.1-1.7-12.2,2-17.4c4-5.6,6.9-11.9,14.6-12.2
		c1.2,0,2.2,0.9,2.3,2c0.6,7.7-0.2,13.6,8.5,16.7c0.6,0.2,1.2,0.2,1.7,0.1l2.1-0.6c0.7-0.2,1.4-0.1,2,0.3c2.6,1.6,6.3,2.2,11,1.9
		c6-0.3,9.8,4.8,12.1,9.6c2.6,5.6,4.6,11.1,0.2,16.1c-0.4,0.5-0.6,1.2-0.4,1.9c0.5,2.1,1.3,4,2.4,5.5c0.5,0.7,1.3,1,2.2,0.9l0.2,0
		c0.5-0.1,0.9-0.6,0.8-1.1c0-0.1-0.1-0.2-0.1-0.3c-3.7-6.6,4.3-13.8,9.7-16.5c1.5-0.7,3.2-0.1,3.9,1.3c0.3,0.5,0.4,1.2,0.3,1.8
		l-0.4,2.5c-0.1,0.7,0.4,1.3,1,1.4c0.1,0,0.2,0,0.4,0c9.5-1.5,11.5,2.5,17.6,8.1c0.4,0.4,0.9,0.7,1.5,0.9c2.3,1,4.8,1.4,7.6,1.2
		c1.1-0.1,2.1-0.9,2.3-2c1-5.1-2.1-10.7-3.5-14.8c-0.4-1.2-0.2-2.6,0.5-3.7l0.8-1.2c0.4-0.6,0.4-1.4,0.1-2.1
		c-2.1-3.7-5.5-6.6-10.1-8.6c-0.5-0.2-1.2,0-1.4,0.5l-1.3,2.5c-1,1.8-3.2,2.5-5,1.5c-0.4-0.2-0.8-0.6-1.2-1c-2.4-3.1-5-4.5-7.6-4.3
		c-5.5,0.4-8.4-2.3-10.7-7.3c-0.6-1.3,0-2.7,1.2-3.4l2.6-1.3c0.7-0.3,1-1,1-1.8c-0.2-2.8-1.6-4.9-4-6.3c-3.7-2.1-5.9-4.4-6.6-6.8
		c-0.3-0.8-1-1.4-1.8-1.4c-2-0.1-3.6-0.4-4.7-0.6c-2.8-0.7-4.7-2.9-4.3-4.9c0-0.2,0.1-0.4,0.2-0.6c0.7-1.7,0.2-3.5-1.6-5.6
		c-0.6-0.7-0.8-1.5-0.7-2.4l0.9-5.8c0.3-2.1-0.3-4.3-1.8-5.9l-3.8-4.2c-0.6-0.6-1.5-0.7-2.2-0.1c-0.2,0.2-0.4,0.5-0.5,0.8
		c-1.7,6.6-5.3,11.8-10.8,15.6c-4.2,2.8-10,4-13.5,6.1c-1.2,0.6-2.2,1.4-2.9,2.5l-4.3,6.1c-0.7,1-1.8,1.8-3,2.1l-6,1.7
		c-0.6,0.2-1.3,0-1.8-0.4c-0.9-0.8-1.7-2.3-2.5-4.4c-0.1-0.3-0.5-0.5-0.8-0.4c-0.1,0-0.2,0.1-0.3,0.2c-1.5,1.8-2.4,4.1-2.7,6.9
		c-1.3,11.4-1.9,24.3,7.4,31.8c0.3,0.3,0.8,0.2,1.1-0.1C272.6,173.2,272.6,173,272.5,172.7z M285,151.2c-2.2,3.3-3.7,5.3-4.5,6.1
		c-5.8,5.9-2.9,14.4,0.3,20.8c0.3,0.6,0.3,1.2,0,1.8l-0.8,1.6c-0.3,0.5-0.2,1.2,0.2,1.6c1.9,2.1,3.4,5.4,4.5,9.8
		c0.3,1.3-0.4,2.6-1.7,2.9c-0.3,0.1-0.5,0.1-0.8,0.1l-2.6-0.2c-0.4,0-0.8,0.3-0.8,0.7c0,0.2,0,0.3,0.1,0.5c1.2,2,3.8,8.4,7.6,19.2
		c3.1,8.8,8.9,14.9,17.6,18.5c6.1,2.5,13.1,2.5,21.2,0c0.8-0.3,1.6-0.7,2.2-1.4l3.9-4.2c0.7-0.7,1.7-1,2.6-0.7
		c6.3,2,15.5,3.5,21.2,0.4c0.6-0.3,3-2.6,7.1-6.9c0.4-0.4,0.5-1.1,0.2-1.7c-0.9-1.5-1-2.9-0.4-4.4c1.5-3.5,0.8-6.8,1.5-10
		c0.2-0.7,0-1.4-0.5-2c-2-2.4-0.5-5.2-2.7-7.4c-2.3-2.4-4.8-3.9-7.2-4.5c-0.8-0.2-1.7-0.1-2.5,0.2l-5.2,2.3
		c-0.6,0.3-1.3,0.2-1.8-0.2c-0.6-0.5-1.3-1.7-2.2-3.7c-0.2-0.5-0.7-0.7-1.2-0.5c0,0,0,0,0,0l-0.5,0.2c-0.7,0.3-1,1.1-0.7,1.8
		l2.7,6.8c0.5,1.4-0.1,2.9-1.5,3.4c-0.1,0-0.2,0.1-0.3,0.1c-4.6,1.2-8.2,1.2-10.8,0.2c-4.7-1.9-6.9-9.8-7-14.3
		c0-1.1,0.4-2.1,1.1-2.9l2.2-2.4c0.4-0.5,0.5-1.1,0.3-1.7l-4.5-9.7c-0.6-1.3-1.8-2.1-3.2-2.2l-7.3-0.6c-0.8-0.1-1.5,0.3-1.9,1
		c-1.4,2.2-3.5,2.6-6.3,1.1c-8.3-4.7-17.2-9.3-16.8-19.3c0-0.2-0.2-0.5-0.4-0.5C285.3,151,285.1,151.1,285,151.2z M403.2,454.5
		c0.4,0.4,3.7,3.5,10,9.3c5.4,5,10.8,11.9,16.2,20.6c3.8,6.1,6.4,13.4,8,21.9c0.3,1.7,1.1,3.3,2.4,4.5l7.5,7.5
		c0.4,0.4,1,0.4,1.4,0.1c55.9-42.1,85.5-107.2,73.1-177.3c-5.7-32.4-20.3-66.5-44.3-89.6c-11.4-11-23.3-20-35.8-27.2
		c-8.3-4.8-18.9-9.2-31.7-13.3c-11.1-3.5-22.2-6.2-33.4-8.1c-4.4-0.7-6.9,1-7.4,5.2c-0.2,1.5,0.6,3,1.9,3.7
		c11.1,6,20.8,12.3,29.1,19c5.6,4.5,10.9,10.2,16.7,15c4.3,3.6,8.2,7.5,11.8,11.9c15.3,18.9,25.6,39.7,31,62.4
		c10.7,44.9-3.9,88.7-36.6,120.1c-0.1,0.1-0.2,0.2-0.4,0.3L403.4,453c-0.5,0.3-0.6,0.9-0.3,1.4C403.1,454.4,403.2,454.5,403.2,454.5
		z M196.9,515.4c-0.1,0.2-6.2-2-18.2-6.8c-5.3-2.1-8.8-4.6-15.2-8.6c-9.3-5.7-17.7-13.2-25.2-22.4c-0.6-0.8-1.4-1.4-2.3-1.9
		c-5.8-3.2-9.6-4.6-11.5-9.5c-0.4-1.1,0.1-2.3,1.2-2.7c0.3-0.1,0.5-0.2,0.8-0.1c0.5,0,0.8,0.1,1.2,0.4c3.3,2.7,6.8,4.8,10.3,6.2
		c10.6,4.1,18.7,6.9,24.2,8.4c9,2.4,17.1,5.2,24.2,8.3c2.3,1,4.9,1,7.2-0.2c14.1-7.2,31.4-12.2,48.3-16.1c6.4-1.5,13.7-3.7,22.1-6.7
		c6.2-2.2,11.2-4.8,15.1-7.8c0.6-0.4,1-0.9,1.4-1.5l3.5-5.1c0.5-0.8,1.6-1,2.4-0.5c0.5,0.4,0.8,1,0.8,1.6c-0.3,4.7-1.6,6.1-4.5,10.3
		c-0.5,0.6-0.8,1.4-1,2.2c-4.3,18-13.3,32.7-27.1,44.2c-0.2,0.2-0.2,0.5-0.1,0.7c0.1,0.2,0.3,0.2,0.5,0.1c0.2-0.1,0.4-0.2,0.6-0.3
		c15.5-10.3,26-23.2,36.1-38.9c0.6-1,1.8-1.4,2.9-1l0.1,0c0.9,0.3,1.5,1.3,1.2,2.2c0,0.1-0.1,0.2-0.1,0.3l-4.3,8.3
		c-0.3,0.6-0.1,1.2,0.5,1.5c0.1,0.1,0.2,0.1,0.4,0.1c34.1,4,75.9,24.1,87.6,59.5c3.8,11.4,3.6,22.6-0.5,33.5c-0.1,0.3,0,0.6,0.3,0.7
		c0.1,0,0.3,0,0.4,0c0.4-0.2,1.6-1.1,3.6-2.7c2.5-2.1,6.1-5.7,10.9-10.9c0.5-0.5,1.4-0.6,1.9-0.1c0.1,0.1,0.2,0.2,0.3,0.3l0,0.1
		c0.5,1,0.5,2.1-0.2,3c-8.4,11.6-18.4,20.4-30,26.4c-0.6,0.3-0.8,1-0.5,1.6c9.2,19.3,22.9,34,41.2,44c7.5,4.1,15.3,6.1,22.1,7.2
		c4.4,0.7,9.9,0.2,16.7-1.6c13.3-3.5,21.4-16.6,24-29.2c5.6-26.6-3.7-55.7-18.6-78c-5.1-7.6-12-14.5-18-20.8
		c-1.1-1.2-1.8-2.7-1.9-4.2c-1.1-15-12.4-30.4-23-41c-11.4-11.4-24.6-21.4-39.5-29.9c-0.4-0.2-0.9-0.1-1.2,0.2l-7.8,10.3
		c-0.4,0.6-1.2,0.7-1.8,0.4l-0.7-0.4c-1-0.5-1.3-1.7-0.8-2.7c0,0,0,0,0,0c8.1-14.3,13.1-23.3,14.9-27c8-16,13.5-31.6,16.6-46.7
		c0,0,1.5-8,4.6-24c2-10.7,2.9-23,2.7-36.9l0-1.4c-0.8-1.1-2.4-1.4-3.5-0.6c-0.3,0.2-0.5,0.4-0.7,0.7c-1.3,2.1-2.2,4.9-2.8,8.2
		c-0.2,1-1.1,1.8-2.1,1.7c-0.3,0-0.6-0.2-0.9-0.4c-0.7-0.6-1-1.5-1.1-2.8c-0.3-6.7-1.2-12.7-2.8-17.9c-0.3-0.9-1.2-1.4-2.2-1.2
		c-0.3,0.1-0.5,0.2-0.7,0.4c-5.8,5.6-12.9,15.2-19.2,21.8c-27.1,28-44.2,45.8-51.3,53.6c-1,1-1.4,2.5-1.1,3.9
		c2.8,14.7,2.9,29.4,0.4,44.1c-0.3,1.7-1.3,3.3-2.8,4.2l-0.1,0.1c-0.6,0.4-1.4,0.2-1.8-0.4c-0.2-0.3-0.2-0.6-0.2-0.9
		c5.2-42.5-7-86.6-37.9-116.3c-19-18.3-46-27.4-72-21.4c-36,8.3-61.3,32.5-69.2,68.5c-2,9.1-3.1,19.7-3.4,31.7
		c-0.1,3.4,0.1,6.7,0.6,9.7c0,0.3,0.3,0.5,0.6,0.4h0c0.3,0,0.5-0.2,0.5-0.5c0-7.4,1.8-13.9,5.4-19.6c6.6-10.6,15,1.5,17.3,7.7
		c7.4,19.2,11.3,39.2,11.5,60.2c0,2-1.1,3.8-2.9,4.7c-16.3,8.2-24.8-10.8-28.8-22.6c-0.1-0.3-0.5-0.5-0.8-0.4
		c-0.3,0.1-0.4,0.3-0.4,0.6c0.1,7-1.1,14.5-3.6,22.4c-0.9,2.9-1.4,8.8-0.3,11.2c2.8,6.3,6.9,12,12.2,17.1
		c16.7,16.1,35.6,28.1,56.7,35.8c5.9,2.2,9,2.9,9.1,2c0-0.2-0.1-0.4-0.3-0.4C197.2,515.2,197,515.2,196.9,515.4z M117.3,418.5
		c0.3,0.2,0.6,0.1,0.8-0.2c0.1-0.1,0.1-0.3,0.1-0.4c-4.5-22.3-4.4-44,0.2-65.2c0.2-0.8-0.2-1.6-0.9-2l-22.6-12
		c-0.3-0.2-0.8,0-0.9,0.3c-0.1,0.2-0.1,0.4,0,0.5l3.1,8.9c0.3,1-0.2,2-1.1,2.4c-0.1,0-0.3,0.1-0.4,0.1c-2.2,0.2-6.7-2.4-12.1-4.7
		c-0.6-0.2-1.2,0-1.5,0.6c-0.1,0.3-0.1,0.5,0,0.8l7.5,21.3c0.3,1-0.2,2-1.2,2.4c-0.6,0.2-1.2,0.1-1.7-0.2c-0.7-0.5-1.5-1.3-2.7-2.4
		c-0.2-0.2-0.6-0.3-0.9-0.2l-0.5,0.2c-0.4,0.1-0.6,0.6-0.5,1c0,0,0,0.1,0.1,0.1c8.9,15.9,20.4,30.8,31.4,44.8
		C115,416.6,116.4,418,117.3,418.5z M530.6,381.8c-4.1,58.5-31.3,105.1-77.7,140.8c-0.6,0.5-0.8,1.4-0.3,2.1l3.8,5.7
		c0.4,0.6,1.2,0.8,1.8,0.4c0,0,0.1,0,0.1-0.1c36.6-29.1,61.5-67.7,70.5-114.2c2.4-12.7,3.2-24.2,2.4-34.7c0-0.1-0.1-0.3-0.3-0.3
		C530.7,381.5,530.6,381.7,530.6,381.8z M136.2,381.8c-2.1-0.1-4.1,4.9-4.4,11.3c0,0,0,0,0,0c-0.4,6.3,1,11.6,3.1,11.7
		c2.1,0.1,4.1-4.9,4.4-11.3c0,0,0,0,0,0C139.7,387.2,138.3,381.9,136.2,381.8z M127.3,415.9c0.7,4.5,2.4,10.3,5.2,17.3
		c0,0.1,0.2,0.2,0.3,0.1c0.1,0,0.1-0.1,0.1-0.1c0.1-0.1,0.1-0.3,0-0.6c-2.1-6.1-3.6-11.7-4.4-17c-0.8-5.3-1.1-11.1-0.8-17.5
		c0-0.2-0.1-0.4-0.2-0.5c-0.1-0.1-0.2-0.1-0.3,0c0,0-0.1,0.1-0.1,0.1C126.6,405.4,126.6,411.4,127.3,415.9z M140.6,437
		c-0.1,5,3.2,10.8,8.6,8.2c0.6-0.3,0.9-1,0.6-1.6c-0.1-0.3-0.4-0.5-0.7-0.6c-3.8-1.2-6.4-3.2-7.7-6.1c-0.1-0.2-0.3-0.3-0.5-0.2
		C140.7,436.7,140.6,436.8,140.6,437z M267,468.6c-1.1,0.5-1.9,1.4-2.3,2.4l-2.3,6c-0.6,1.6-2.3,2.3-3.9,1.8c-0.1,0-0.1-0.1-0.2-0.1
		c-2.2-1-4.1-2.5-5.9-4.4c-0.5-0.6-1.3-0.8-2-0.5c-4.9,1.8-11.1,3.4-18.7,5c-2.9,0.6-11,3.2-24.1,7.6c-9.2,3.1-14.4,9.6-25,5.2
		c-5-2.1-9.5-3.9-13.6-5.3c-1.4-0.5-3-0.2-4.1,0.8l-3.9,3.5c-0.5,0.4-0.5,1.2-0.1,1.7c0.1,0.1,0.1,0.1,0.2,0.2l10.5,6.9
		c0.8,0.5,1.8,0.4,2.4-0.2l2.9-2.6c1-1,2.6-0.9,3.6,0.1c0.1,0.1,0.2,0.3,0.3,0.5l4.6,8c0.3,0.6,0.9,1.1,1.5,1.3
		c11.2,4.4,27.8,8.3,40.3,5.6c7.7-1.7,13.8-3.6,18.3-5.9c1.7-0.9,2.7-2.8,2.4-4.7c-0.6-3.5-0.2-6.5,1.1-9.1c0.5-1,1.7-1.4,2.7-0.9
		c0,0,0.1,0,0.1,0l5.6,3.2c0.6,0.4,1.5,0.2,1.9-0.3c7.2-8,12.4-17.3,15.5-27.8c0.2-0.5-0.1-1.1-0.7-1.2c-0.2-0.1-0.5-0.1-0.7,0
		L267,468.6z M148,480.9c1,1.5,2.9,3.3,5.6,5.4c0.4,0.3,1.1,0.2,1.4-0.2c0.1-0.1,0.1-0.2,0.2-0.3c0.2-0.5,0.2-1.2,0.2-1.9
		c0-0.8-0.6-1.6-1.4-1.9l-5.4-1.9c-0.3-0.1-0.6,0-0.7,0.3C147.9,480.6,147.9,480.8,148,480.9z M225.6,523.5
		c-0.7,0.1-1.2,0.7-1.1,1.3c0,0.1,0,0.3,0.1,0.4c19.4,43.2,63.9,71.9,111.8,67.3c16.9-1.6,32.3-6.7,38.6-23.1
		c3.1-8.1,3.1-16.9,0-26.4c-11.4-35-51.6-54.1-85.7-57.5c-1.5-0.1-2.9,0.5-3.7,1.7C271.8,506.4,249.6,521.5,225.6,523.5z M178.1,502
		c-0.1,0.2,0,0.6,0.4,0.8l0,0c0.4,0.3,0.8,0.3,0.9,0.1c0.1-0.2,0-0.6-0.4-0.8c0,0,0,0,0,0C178.7,501.8,178.3,501.8,178.1,502z
		 M248.6,628.2c-0.3,0.1-0.5,0.5-0.4,0.8c0,0.1,0.1,0.2,0.2,0.2c2.9,2.8,6.1,4.9,9.6,6.3c2.8,1.1,5.2,3.2,6.8,3.9
		c0.6,0.2,1.2,0.3,1.7,0c5.5-2.3,12.3,1.4,16.4,5.2c0.5,0.4,1.2,0.5,1.7,0.1c15.7-12.1,27.3-27,34.8-44.8c0.2-0.4,0-0.8-0.4-1
		c-0.1,0-0.1,0-0.2-0.1c-39.3-4.7-69.8-23.3-91.4-55.8c-0.4-0.5-1.1-0.7-1.6-0.3c-0.1,0.1-0.2,0.1-0.2,0.2
		c-16.9,21.1-23.1,53.1,1.5,71.9c22.6,17.3,50.9,1.7,71.7-11c0.6-0.4,1.4-0.2,1.8,0.4c0,0.1,0.1,0.1,0.1,0.2l0.2,0.4
		c0.4,1.1,0.1,2.3-0.8,3.1c-11.2,9.3-23.9,15.6-38.3,18.9C257.8,627.9,251.5,627.2,248.6,628.2z M421.9,649.2
		c7.2,10.6,15.9,19.7,26,27.3c0.7,0.5,1.6,0.7,2.4,0.4c5.4-1.9,10.8-2,16-0.3c0.9,0.3,1.9-0.1,2.3-0.9c3.4-6.2,8-9.2,13.8-8.9
		c0.8,0,1.5-0.6,1.5-1.4c0,0,0,0,0,0c0.1-5.1,1.8-9.1,5.2-12.2c0.5-0.5,0.9-1.1,0.9-1.8c0.2-1.8,0-3.6-0.6-5.5
		c-2.9-10.3-7.4-19.9-13.3-29c-0.2-0.3-0.5-0.3-0.8-0.2c-0.1,0.1-0.2,0.2-0.2,0.3c-5.5,12.9-11.2,23.9-25.1,28.9
		c-8.6,3.1-17.8,3.8-27.4,2.1c-0.5-0.1-0.9,0.2-1,0.7C421.8,648.8,421.8,649,421.9,649.2z M248.8,637.7l-2.7-2.5
		c-0.4-0.3-0.9-0.3-1.2,0l-0.2,0.2c-3.6,3.8-5.6,7.7-4.5,8.7c0,0,0,0,0,0l0.1,0.1c1.1,1,4.8-1.2,8.4-5l0.2-0.2
		C249.2,638.6,249.2,638,248.8,637.7C248.8,637.7,248.8,637.7,248.8,637.7z M250.7,654.4c0.2,0.1,0.4,0.1,0.6,0l8.9-6.3
		c1-0.7,1.2-2.1,0.5-3.1c-0.1-0.1-0.2-0.2-0.3-0.3l-3.8-3.5c-0.6-0.6-1.6-0.6-2.2,0.1c-0.1,0.1-0.2,0.3-0.3,0.5
		c-1.8,4.1-3.1,7.6-4,10.4C249.8,653.2,250,654,250.7,654.4z M266,657.9c0.6,0.6,1.5,0.5,2.6-0.4c2.4-1.8,5.4-4.3,8.8-7.4
		c0.7-0.6,0.7-1.6,0.1-2.3c-0.1-0.1-0.3-0.2-0.4-0.3l-4.8-2.5c-1.1-0.6-2.5-0.2-3.1,1c-0.1,0.1-0.1,0.3-0.2,0.4l-3.2,10.9
		C265.8,657.5,265.9,657.7,266,657.9z M498.5,669.4l-5.2-11.3c0,0,0,0,0,0l0,0c-2.8,1.3-4,4.8-2.6,7.8c0,0,0,0,0,0l0.1,0.3
		C492.2,669.3,495.6,670.7,498.5,669.4C498.4,669.4,498.4,669.4,498.5,669.4L498.5,669.4C498.5,669.4,498.5,669.4,498.5,669.4z
		 M486.3,683.3c-0.5-4.3-1.3-7.5-2.5-9.7c-0.7-1.3-2.3-1.8-3.6-1.2c-2,0.8-3.5,2-4.7,3.5c-0.5,0.6-0.4,1.6,0.2,2.1
		c0,0,0.1,0.1,0.1,0.1l9.2,6c0.4,0.2,0.9,0.1,1.2-0.3C486.3,683.6,486.3,683.5,486.3,683.3z M459.7,686.6c3.1,2.5,4.8,3.8,5.1,4
		c0.4,0.2,0.8,0.1,1-0.3c0.1-0.1,0.1-0.3,0.1-0.5c-0.2-2.3-0.8-6.7-2.4-7.9c-1.6-1.3-6-0.9-8.3-0.6c-0.4,0-0.7,0.4-0.7,0.8
		c0,0.2,0.1,0.3,0.2,0.4C455,682.8,456.6,684.1,459.7,686.6z"/>
	<path class="st0" d="M374.5,322c0.1-0.6-0.3-1.1-0.9-1.2c-0.3,0-0.5,0-0.7,0.2l-6.3,4c-0.9,0.5-2,0.3-2.5-0.6
		c-0.3-0.5-0.4-1.2-0.1-1.8c1.8-3.6,9.1-9.8,13.6-7.2c4.4,2.5,1.6,16,0.7,19.5c-0.3,1.3-1.7,2.2-3,1.8c-0.1,0-0.3-0.1-0.4-0.1
		l-0.1,0c-1.4-0.6-2.2-2.1-2-3.7L374.5,322z"/>
	<path class="st0" d="M233.2,379.3c-0.1,0.2-0.3,0.3-0.5,0.2c0,0,0,0,0,0l-1.4-0.5c-2.1-0.7-2.4-5.8-0.5-11.2l2.2-6.4
		c1.9-5.5,5.1-9.3,7.3-8.6c0,0,0,0,0,0l1.3,0.5c0.2,0.1,0.3,0.3,0.2,0.5c0,0,0,0,0,0L233.2,379.3z"/>
	<path class="st0" d="M138.4,360.5c-0.1-0.2,0-0.5,0.2-0.6l0.7-0.4c2.2-1.2,5.4,0.7,7.3,4.1l5.5,10.3c1.8,3.4,1.5,7.2-0.7,8.3
		l-0.7,0.4c-0.2,0.1-0.5,0-0.6-0.2L138.4,360.5z"/>
	<path class="st0" d="M244.8,439.1c-7.1-14.3-8-30.7-6.3-46.4c1.2-10.9,5-23,13.2-30.3c9.7-8.6,18.9,1.9,22.8,10.2
		c5.7,12.3,9.1,25.9,10.1,41.1c0.3,4.8-0.8,9.3-3.4,13.5c-7.9,12.9-18.6,19.9-34.5,13.6C245.9,440.5,245.2,439.9,244.8,439.1z
		 M263.5,367.4c-0.1,0.1-0.2,0.3-0.1,0.5c2.6,3.5,4.7,6.1,6.4,10.2c6.1,15.3,6.2,30.5,4.5,47c0,0.3,0.1,0.5,0.4,0.6
		c0.2,0,0.4-0.1,0.5-0.2c2.6-3.6,3.7-7.7,3.4-12.4c-0.8-11.5-3.3-22.7-7.6-33.5c-1.8-4.5-4.1-8.5-6.9-12
		C263.9,367.3,263.7,367.3,263.5,367.4C263.5,367.4,263.5,367.4,263.5,367.4L263.5,367.4z M255.5,370c-2.9-0.6-6.5,5.7-8.1,13.9
		c0,0,0,0,0,0c-1.6,8.2-0.5,15.3,2.4,15.9l0,0c2.9,0.6,6.5-5.7,8.1-13.9c0,0,0,0,0,0C259.5,377.6,258.4,370.5,255.5,370L255.5,370z
		 M248.6,426.2l1.9,8.3c0.2,0.8,0.8,1.5,1.7,1.6c5,1.1,9.4,0.8,13-0.9c1.1-0.5,1.8-1.4,2-2.6l1.4-7.3c0.1-0.3-0.2-0.6-0.5-0.7
		c-0.2,0-0.4,0-0.6,0.2c-2.5,3.3-4.1,5.2-4.9,5.8c-2.2,1.7-5,2-7.3,0.9c-1.9-0.9-3.8-2.9-5.7-5.9c-0.2-0.3-0.5-0.4-0.8-0.2
		C248.6,425.7,248.5,425.9,248.6,426.2z"/>
	
		<ellipse transform="matrix(0.7314 -0.682 0.682 0.7314 -273.8106 244.2056)" class="st0" cx="173.1" cy="469.7" rx="3.1" ry="4.2"/>
	<ellipse transform="matrix(0.8471 -0.5314 0.5314 0.8471 -218.668 179.4104)" class="st0" cx="202.5" cy="469.7" rx="4.2" ry="3"/>
</g>
</svg>
