<?xml version="1.0" encoding="utf-8"?>
<!-- Generator: Adobe Illustrator 26.0.1, SVG Export Plug-In . SVG Version: 6.00 Build 0)  -->
<svg version="1.1" id="Layer_1" xmlns="http://www.w3.org/2000/svg" xmlns:xlink="http://www.w3.org/1999/xlink" x="0px" y="0px"
	 viewBox="0 0 612 792" style="enable-background:new 0 0 612 792;" xml:space="preserve">
<style type="text/css">
	.st0{fill:#010101;}
</style>
<g>
	<path class="st0" d="M169.6,374.3c0.1,0.2,0.4,0.2,0.5,0c0,0,0.1-0.1,0.1-0.1c5.6-12.7,9.7-23.8,12.3-33.4
		c3-11.1,5.1-18.1,6.4-20.9c3.6-7.8,7.1-14.2,10.5-19.3c0.5-0.7,0.6-1.6,0.4-2.4c-12.7-46-16.6-98-6-144c1.9-8.1,5.2-20.1,9.9-25.9
		c1-1.2,2.8-1.4,4-0.4c0.2,0.2,0.4,0.4,0.5,0.6c5.9,8.3,10.8,17.9,14.7,28.8c12.8,35.4,21.2,72.7,25.1,111.6
		c0.1,0.7,0.7,1.3,1.5,1.2c0,0,0.1,0,0.1,0c37.5-5.8,82.2,2.7,113.5,24.7c0.5,0.4,1.3,0.3,1.7-0.2c28.2-35.5,67.4-66.1,107-87
		c7.4-3.9,21-10.7,30.2-10.9c1.7,0,3.1,1.3,3.1,3c0,0.4-0.1,0.8-0.2,1.1c-7.2,19.9-17.6,39-31.3,57.4c-21.3,28.6-46.6,55.4-76,80.2
		c-1.1,0.9-1.7,2.4-1.6,3.8l1.2,21.7c0,0.3,0.3,0.6,0.6,0.5c0.1,0,0.2,0,0.2-0.1c35.9-18.9,73.6-34.1,113-45.7
		c1.6-0.5,3.2,0.4,3.6,2c0.1,0.4,0.1,0.7,0.1,1.1c-3,29.1-7.4,57.1-13.3,83.8c-1.5,6.9-5.5,25.4-10.7,27.6
		c-31.8,13.5-61.2,25.9-88.2,37.5c-0.6,0.3-0.9,1-0.7,1.6c0,0,0,0,0,0.1l24.1,47.8c0.6,1.2,0.1,2.6-1,3.2c-0.1,0.1-0.2,0.1-0.3,0.1
		l-45.8,16.1c-0.9,0.3-1.4,1.3-1.1,2.2c0.1,0.3,0.3,0.6,0.6,0.8l15.2,10.7c1,0.7,1.3,2.1,0.5,3.2c-0.2,0.2-0.4,0.4-0.6,0.6
		l-11.1,7.4c-0.4,0.3-0.6,0.9-0.3,1.3c0,0,0,0,0,0l9.1,12.7c0.4,0.5,1.1,0.6,1.5,0.2c0.1,0,0.1-0.1,0.1-0.1l11.1-12
		c1.5-1.6,4-1.7,5.7-0.2c0.2,0.2,0.4,0.5,0.6,0.7l4.5,6.8c0.3,0.4,0.4,0.9,0.5,1.4c0.2,4.7,0.2,7.4,0.1,8.1
		c-3.9,24.5-11.7,47.2-23.6,68.1c-4.2,7.5-11.1,16.9-20.7,11.8c-1.1-0.6-2.5-2.5-3.8-3.5c-0.5-0.5-1.3-0.7-2-0.6
		c-10.7,1.6-25.6,2.4-44.8,2.4c-27.2,0-48.9-0.6-65.1-1.7c-17-1.1-30.9-1.3-41.9-0.6c-21.2,1.4-41.9,1-62.2-1.2
		c-1.7-0.2-3.3,0.6-4.3,2c-2.3,3.4-5.1,4.5-8.5,3.3c-8.4-3.1-14.6-15-19-23.5c-9.2-17.9-16.1-35.9-20.5-53.8
		c-1.3-5.1-2-10.4-2.2-15.9c-0.1-2.2,0.7-4.3,2.3-5.8l4.4-4.4c1.3-1.3,3.4-1.3,4.7,0c0.1,0.1,0.2,0.2,0.2,0.3c1.6,2,3.8,3.4,6.6,4.2
		c0.8,0.2,1.5,0.7,2,1.4l4.1,5.7c0.4,0.6,1.3,0.8,1.9,0.3c0.1-0.1,0.2-0.2,0.3-0.3c10.2-13.4,24.8-23.6,41.8-23.1
		c0.7,0,1.4-0.4,1.7-1.1l4.9-10c0.4-0.9,0.4-2,0-2.9c-16.6-33.1-26.1-52.1-28.5-56.7c-14.6-28.4-22.3-58.4-27.9-89.3
		c-0.8-4.7-2-7.2-4.5-11.3c-0.6-1.1-0.5-2.4,0.3-3.3c2-2.2,3.1-2.8,3.8-5.4c0.8-3.3,2.7-4.8,5.7-4.5c0.7,0.1,1.3-0.3,1.5-1l0.7-2.5
		c0.5-1.7,2.2-2.8,3.9-2.5l4.4,0.7c0.6,0.1,1.1-0.2,1.3-0.7c2.1-5.8,4.6-8.9,10.8-2.7c1.1,1.1,2.8,1.1,3.9,0.1
		c1.2-1.1,2.8-1.9,4.8-2.4c1.7-0.5,3.5,0.5,3.9,2.2c0,0.1,0.1,0.2,0.1,0.3l0.9,5.5c0.1,0.8,0.5,1.5,1.1,2.1L169.6,374.3z
		 M406.8,593.2c-1.3,1.4-2.5,1.7-3.8,0.9c-0.6-0.3-1.3-0.2-1.6,0.4c0,0,0,0,0,0.1l-1.6,3c-0.1,0.2-0.4,0.4-0.7,0.4
		c-1.3,0.1-1.7-0.9-1.2-2.9c0.9-3.8,1.8-8.3,2.6-13.5c0.1-0.5-0.3-1-0.8-1c-0.4-0.1-0.7,0.1-0.9,0.5l-16.1,30.2
		c-0.6,1.1-1.9,1.5-2.9,0.9c-0.9-0.5-1.3-1.4-1.1-2.4c1.6-7.6,5.8-15.7,9.5-22.5c0.4-0.7,0.4-1.5,0-2.2c-4.1-8.1-12.5-18.7-22-19.8
		c-7.9-0.9-16.5,3.7-24.2,7.9c-0.8,0.5-1.9,0.1-2.3-0.7c-0.2-0.3-0.2-0.7-0.2-1c0.1-1,0.6-1.9,1.4-2.7c9.1-8.4,19.2-11.4,30.4-9.1
		c0.6,0.1,1.3-0.3,1.4-0.9c0-0.1,0-0.3,0-0.4l-0.7-4.1c-0.1-0.6-0.6-1-1.1-0.9c-5.8,0.4-12.9-0.2-15.3-5.6
		c-2.3-5.2,8.5-12.6,13-16.2c1.1-0.9,1.6-2.2,1.3-3.6l-2.4-12.1c-0.1-0.6-0.6-1.1-1.3-1.1c-4.1-0.5-12.1,0.1-13.6-5.8
		c-1.2-4.5,5.7-9.2,9.7-12.5c1.5-1.2,2.2-3.1,1.9-4.9l-1.6-9.6c-0.1-0.8-0.9-1.4-1.7-1.2c-0.3,0-0.5,0.2-0.7,0.3
		c-9,7.7-19.2,12.8-30.5,15.4c-1.2,0.3-2.5-0.2-3.3-1.1l0-0.1c-0.6-0.7-0.4-1.8,0.3-2.3c0.1-0.1,0.2-0.2,0.4-0.2
		c18.9-7.9,35.3-17.7,44.8-35.9c3.4-6.6,6.9-17.6,10.6-33.2c6.2-26.4,8.8-52.3,7.8-77.7c0-0.6-0.5-1-1.1-1c-0.2,0-0.3,0.1-0.5,0.1
		l-2.7,1.6c-1,0.6-2.3,0.4-3.2-0.4l-0.6-0.6c-0.7-0.7-0.7-1.8,0-2.6c0,0,0.1-0.1,0.1-0.1c26.4-20.9,50.4-44.3,72.2-70.2
		c3.5-4.2,5.2-5.7,5.9-10.4c1.8-13.2-0.3-25.2-6.3-36c-0.4-0.6-1.2-0.9-1.8-0.5c0,0,0,0-0.1,0c-35.3,22.4-67.7,50-91.1,84.6
		c-0.6,0.8-1.7,1.1-2.5,0.5c-0.6-0.4-0.9-1-0.8-1.7c0.2-2,1-4.6,2.4-7.7c0.3-0.6,0.1-1.4-0.5-1.7c-21.6-14.1-45.3-21.8-71.4-24.7
		c-16.6-1.9-32.4-0.7-47.2,3.6c-1.4,0.4-2.5,0.4-3.4,0.1c-1-0.4-1.5-1.5-1.2-2.5c0.2-0.4,0.5-0.8,0.9-1l4-2.3
		c0.5-0.3,0.8-0.8,0.7-1.4c-2.8-29.9-8.6-59.6-17.3-89c-0.3-0.9-1.2-1.5-2.2-1.2c0,0-0.1,0-0.1,0c-9.2,3.4-23,11.2-27.5,20.3
		c-0.3,0.6-0.5,1.2-0.5,1.9c-0.9,30,2.5,59.4,10.2,88.3c0.1,0.5,0.6,0.7,1.1,0.6c0.1,0,0.3-0.1,0.4-0.2c3.6-3.7,7.6-6.7,11.9-8.9
		c0.9-0.5,2.1-0.1,2.6,0.8c0,0,0,0.1,0.1,0.1c0.4,0.9,0.3,1.6-0.2,2.2c-5.5,5.7-10,10.6-13.3,14.7c-8.3,10.3-14.3,24.4-17.6,38.2
		c-3.7,15.3-9.2,27.4-16.6,45.5c-0.2,0.5,0,1.1,0.6,1.3c0,0,0.1,0,0.2,0c8.7,2,13.9,7.5,15.7,16.6c2.7,13.5-1.1,23.7-11.4,30.5
		c-0.5,0.3-0.6,1-0.3,1.5c14.1,21.7,33.8,38,54.9,53.5c0.9,0.7,1.2,1.9,0.6,2.8c-0.2,0.3-0.5,0.6-0.9,0.7c-0.7,0.2-1.7,0.1-3-0.4
		c-3.3-1.4-7.1-3.5-11.2-6.5c-24.6-17.7-56.6-48.5-55.9-81.4c0.1-6.4,2.6-13.6,4.8-19.5c0.6-1.6,0.2-3.4-1-4.5l-16.6-16.6
		c-0.3-0.3-0.8-0.3-1.1,0c0,0,0,0-0.1,0.1l-3.5,4.3c-0.7,0.8-1.9,0.9-2.7,0.3c-0.4-0.4-0.7-0.9-0.7-1.5v-4.2c0-0.7-0.5-1.2-1.2-1.2
		c-0.5,0-1,0.3-1.2,0.8l-1.3,3.4c-0.3,0.8-1.1,1.2-1.9,1l-5.1-1c-0.4-0.1-0.7,0.2-0.8,0.5c0,0.1,0,0.3,0,0.4c0.7,1.7,1,3.1,0.6,4.3
		c-0.4,1.2-1.6,2-3,1.8c-0.6-0.1-1.7-0.2-3.3-0.2c-0.6,0-1.2,0.4-1.4,1c-0.4,1.2-1.1,2.4-2.2,3.5c-0.5,0.5-0.7,1.1-0.6,1.8
		c3.5,20.6,7.6,39,12.3,55.3c3.4,11.6,7.2,21.9,11.5,30.9c4.1,8.6,14.6,29.5,31.3,62.6c0.2,0.4,0.6,0.5,1,0.4
		c0.2-0.1,0.3-0.2,0.4-0.4l12.4-32.6c0.3-0.9,1.3-1.3,2.2-1c0.6,0.2,1.1,0.8,1.1,1.5c0.3,3.9-0.2,8-1.6,12.2
		c-4.6,13.8-10.1,27.5-16.6,41.1c-0.4,0.9,0,2,0.9,2.4c0.1,0,0.1,0.1,0.2,0.1c9.4,3.3,16.6,8.8,21.5,16.8c0.4,0.7,0.5,1.6,0.2,2.4
		l-0.4,0.9c-0.3,0.8-1.2,1.2-2,0.9c-0.2-0.1-0.4-0.2-0.6-0.4c-10.4-10.7-20.2-18.3-35.8-15.8c-12.9,2.1-23.9,12.6-31.9,23.2
		c-0.4,0.5-0.4,1.2-0.2,1.7c4.4,9,7.8,17.4,10.4,25.2c1.4,4.1,2,7.8,1.9,11.2c0,1.1-0.8,2-1.8,2.1c-0.4,0-0.8-0.1-1.1-0.3
		c-0.6-0.5-1-1.1-1.3-1.8c-6-16.8-11.8-30.4-17.4-40.8c-0.2-0.3-0.5-0.7-1.1-1.3c-0.3-0.2-0.7-0.2-0.9,0c-0.1,0.1-0.2,0.3-0.2,0.5
		c0.7,4.8,2,10.8,3.8,18.1c0,0.2,0,0.4-0.1,0.8c-0.1,0.3-0.2,0.5-0.4,0.6c-0.5,0.2-0.9,0.2-1.2-0.2c-4.8-6.8-5.6-15.5-7.1-25.5
		c-0.1-0.3-0.3-0.6-0.7-0.6h-0.5c-0.5,0-0.9,0.4-0.8,0.8c0,0,0,0.1,0,0.1l3.2,20.1c0.1,0.3-0.1,0.6-0.4,0.6c0,0,0,0,0,0l-0.5,0.1
		c-0.6,0.1-1.2-0.2-1.5-0.8l-2-4.3c0-0.1-0.1-0.1-0.2-0.1c0,0,0,0,0,0l-0.5,0.2c-0.1,0-0.1,0.1-0.1,0.2c4.9,19.6,12.4,38.6,22.5,57
		c3.5,6.4,7.2,11.3,11.1,14.9c1.1,0.9,2.7,0.9,3.6-0.2c0.2-0.2,0.4-0.5,0.5-0.8l4.5-11.8c0.4-1,1.6-1.5,2.6-1.1
		c0.8,0.3,1.3,1,1.3,1.8v5.2c0,1.3,0.9,2.3,2.2,2.4c22.2,2.3,45.9,1.3,70.8,0.8c8.3-0.2,20.3,0.1,36.2,1c31.4,1.6,62.5,1.8,93.3,0.4
		c2.1-0.1,5.1-0.5,9-1.2c0.8-0.1,1.4-0.7,1.7-1.4l0.9-2.4c0.2-0.7,1-1,1.6-0.8c0.2,0.1,0.4,0.2,0.6,0.5l6,8.3c1,1.4,3,1.7,4.4,0.7
		c0,0,0,0,0,0c2.4-1.7,4.2-3.5,5.3-5.2c11.6-17.5,18.6-38.2,23.9-59.2c0.1-0.3-0.1-0.6-0.4-0.6C407.1,593,406.9,593.1,406.8,593.2z
		 M507.1,326.3c-2.6,0.6-5.6,1.4-9.1,2.5c-31.2,10.2-61.5,22.7-90.8,37.5c-2,1-5.1,2.8-9.4,5.4c-0.8,0.5-1.4,1.4-1.4,2.3
		c-1.3,17.6-3.9,34.4-7.7,50.3c-4.6,19.2-8.2,33.6-19.1,47.4c-0.5,0.7-0.8,1.5-0.9,2.3c-0.2,2.2,1.1,5.1,4.1,8.8
		c10.2,12.9,16.8,21.2,19.7,25c0.9,1.2,0.7,2.9-0.4,3.9c-0.3,0.3-0.7,0.4-1.1,0.5l-15.3,3.6c-0.7,0.2-1.2,0.9-1.1,1.6l2.4,14.6
		c0.1,0.8,0.8,1.3,1.6,1.1c0.1,0,0.2,0,0.2-0.1l38.5-13.5c0.8-0.3,1.1-1.1,0.9-1.8c0-0.1,0-0.1-0.1-0.2
		c-10.5-20.6-18.1-35.7-22.8-45.2c-1.4-2.9-0.5-5,2.8-6.4c42.8-18.3,72.2-30.8,88.5-37.5c1.5-0.6,2.7-1.9,3.3-3.5
		c2.8-8.4,5.3-17.7,7.4-27.9c4.8-23.2,8.5-46.5,11-69.8c0.1-0.5-0.3-0.9-0.7-1C507.3,326.2,507.2,326.2,507.1,326.3z M175.7,427.3
		c5.3-4,8.1-9.5,8.2-16.3c0.1-7.3-2.7-16.9-10.4-18.4c-1.9-0.4-3.7,0.9-4.1,2.7c-2.3,10.7-0.9,21.2,4.2,31.4c0.4,0.7,1.2,1,1.9,0.6
		C175.6,427.4,175.7,427.4,175.7,427.3z M371.2,492.2c-0.2-0.2-0.6-0.3-0.8-0.1c-0.2,0.1-0.2,0.4-0.2,0.6l2.6,15.9
		c0.1,0.7,0.8,1.2,1.5,1.1l8.1-1.3c0.9-0.2,1.5-1,1.3-1.9c-0.1-0.3-0.2-0.6-0.4-0.8L371.2,492.2z M363.5,502.9l-3.4,3.7
		c-0.2,0.2-0.2,0.5,0,0.6l0.2,0.2c1.5,1.4,3.6,1.7,4.6,0.6c0,0,0,0,0,0l0.3-0.3c1-1.1,0.6-3.1-0.9-4.6l-0.2-0.2
		C364,502.7,363.7,502.8,363.5,502.9C363.5,502.9,363.5,502.9,363.5,502.9z M369.7,538.9l-7.1,5.6c-0.2,0.2-0.3,0.5-0.1,0.7l0.2,0.2
		c2,2.6,5.4,3.3,7.5,1.6c0,0,0,0,0,0l0.2-0.1c2.1-1.7,2.2-5.1,0.2-7.7l-0.2-0.2C370.2,538.8,369.9,538.8,369.7,538.9z M378.8,552
		l-0.1,5.8c0,0.3,0.2,0.5,0.5,0.5l0.3,0c2.7,0,4.9-1.4,4.9-3.2c0,0,0,0,0,0v-0.2c0-1.8-2.1-3.3-4.8-3.3l-0.3,0
		C379,551.5,378.8,551.7,378.8,552C378.8,552,378.8,552,378.8,552z M406,574.7c-0.5,0-0.9,1-1,2.3c0,0,0,0,0,0
		c-0.1,1.3,0.3,2.3,0.7,2.4c0.5,0,0.9-1,1-2.3c0,0,0,0,0,0C406.8,575.8,406.5,574.7,406,574.7z M404.5,586.5
		c-0.4-0.1-0.9,0.9-1.3,2.3c0,0,0,0,0,0c-0.4,1.4-0.4,2.6,0,2.6c0.4,0.1,0.9-0.9,1.3-2.3c0,0,0,0,0,0
		C404.8,587.7,404.9,586.6,404.5,586.5z"/>
	<path class="st0" d="M212.6,337.9c10.5,0.2,18.9,9.5,18.7,20.8c-0.2,11.3-8.9,20.3-19.4,20.1c0,0,0,0,0,0
		c-10.5-0.2-18.9-9.5-18.7-20.8c0,0,0,0,0,0C193.4,346.7,202.1,337.7,212.6,337.9C212.6,337.9,212.6,337.9,212.6,337.9z
		 M215.4,347.3c-2.8,0.2-5,2.8-4.8,5.9c0.2,3.1,2.6,5.5,5.4,5.3c2.8-0.2,5-2.8,4.8-5.9C220.7,349.6,218.3,347.2,215.4,347.3z"/>
	<path class="st0" d="M331.5,359.5c11.5,0.5,20.4,10.7,19.8,22.8c-0.5,12.1-10.3,21.4-21.8,20.9c0,0,0,0,0,0
		c-11.5-0.5-20.4-10.7-19.8-22.8C310.2,368.3,320,358.9,331.5,359.5C331.5,359.5,331.5,359.5,331.5,359.5z M333.3,373.4
		c0-3.3-2.7-6-6-6h0c-3.3,0-6,2.7-6,6c0,3.3,2.7,6,6,6C330.6,379.4,333.3,376.7,333.3,373.4z"/>
	
		<ellipse transform="matrix(0.1392 -0.9903 0.9903 0.1392 -162.3621 590.2939)" class="st0" cx="258.3" cy="388.5" rx="4.7" ry="7"/>
	<path class="st0" d="M217.2,398.2c0-1,0.7-1.8,1.7-1.8c0.5,0,1.1,0.2,1.4,0.6c3.6,4.3,6,8.6,13.2,7.5c5.5-0.8,17.6-6.7,26.4-4.3
		c0.5,0.1,1,0.4,1.4,0.6c0,0,6.4,3.7,19,11.1c7.9,4.6,12.5,4.4,20.4,0.9c0.7-0.3,1.2-0.4,1.6-0.2c1.1,0.4,1.5,1.7,1.1,2.8
		c-0.1,0.2-0.2,0.5-0.4,0.6c-1.8,2-4,3.6-6.5,4.9c-0.6,0.3-1.1,0.9-1.4,1.6c-6.9,20.4-16.4,43.3-35.6,54.6
		c-14.1,8.3-25.4-10.6-29.2-21.7c-5-14.3-7.3-29.2-7-44.6c0-1.1-0.4-2.2-1.2-3C219,404.5,217.3,401.3,217.2,398.2z M287.7,421.8
		c-9.5-3.4-17.8-8.9-26.8-14.2c-4.5-2.6-7.4-2.2-12-0.9c-4.4,1.3-7.2,2.2-8.5,2.8c-1.3,0.5-2.4,1.5-3.1,2.7l-5.9,10.4
		c-0.7,1.3-1,2.7-0.9,4.2c1.1,13.5,4.6,25.5,10.3,36.1c2.2,4,8.2,11.2,13.6,9.4c16.2-5.3,29.6-34.3,34.1-49.2
		C288.6,422.7,288.3,422,287.7,421.8z"/>
	<path class="st0" d="M367.8,442.9c0,13.5-11,24.5-24.5,24.5s-24.5-11-24.5-24.5s11-24.5,24.5-24.5c0,0,0,0,0,0
		C356.8,418.4,367.8,429.4,367.8,442.9C367.8,442.9,367.8,442.9,367.8,442.9z M361.5,442.9c0-10.1-8.2-18.2-18.2-18.2c0,0,0,0,0,0
		c-10.1,0-18.2,8.2-18.2,18.2c0,10.1,8.2,18.2,18.2,18.2C353.4,461.1,361.5,453,361.5,442.9C361.5,442.9,361.5,442.9,361.5,442.9z"
		/>
	<path class="st0" d="M285.6,616.1c1.3-1.8,2.9-4.6,5-6.7c0.5-0.5,9.2-9.3,26.1-26.2c12.9-12.9,24.1-26.9,33.5-42
		c0.5-0.9,1.7-1.1,2.7-0.5c0.2,0.1,0.3,0.2,0.4,0.3c0.6,0.6,0.7,1.3,0.5,2.2c-1.2,4.3-3.7,9.3-7.7,15c-13.3,18.9-31.2,35.7-48,52.2
		c-3.5,3.4-6.7,7.7-9.5,12.8c-1,1.8-2.9,2.7-4.5,2.2c-1.1-0.4-2.3-1.4-3.7-3c-0.7-0.8-2-0.9-2.8-0.2c0,0,0,0,0,0
		c-4.6,4.1-6.4,0.9-9.2-2.5c-0.5-0.6-1.2-0.7-1.9-0.4l-3.1,1.6c-1.6,0.8-3.5,0.2-4.3-1.4c0,0,0,0,0,0l-1.2-2.4c-0.3-0.6-1-1-1.7-0.9
		c-9.6,0.8-4.8-7.8-11.2-10.2c-1.7-0.6-2.3-2.7-1.5-4.7c0.1-0.3,0.3-0.6,0.5-0.9c3.2-4.6,4.9-6.6,6.4-12.9
		c6.5-26.7,17.5-51.3,33-73.8c3.3-4.8,7.7-9.8,13.3-15.1c1.1-1,2.6-1.4,4.1-1l0.1,0c0.9,0.2,1.4,1.1,1.1,2c-0.1,0.2-0.2,0.4-0.3,0.6
		c-23.2,26.9-38.8,58.4-46.7,94.6c-0.3,1.2-1.1,3-2.6,5.4c-0.3,0.6-0.2,1.3,0.4,1.7c1.4,0.9,2.4,2.5,3.2,4.7
		c0.2,0.7,0.8,1.2,1.6,1.2c3.2,0.1,5.3,1.5,6.6,4c0.3,0.6,0.9,0.8,1.5,0.6c2-0.9,3.6-0.9,4.8-0.3c0.1,0,0.1,0.1,0.2,0.1l3.4,3.7
		c0.4,0.5,1.1,0.5,1.6,0.2l3.7-2.7c0.7-0.5,1.6-0.4,2.3,0.1l2.7,2.5c0.4,0.4,1.1,0.4,1.5-0.1C285.6,616.2,285.6,616.2,285.6,616.1z"
		/>
</g>
</svg>
