<?xml version="1.0" encoding="utf-8"?>
<!-- Generator: Adobe Illustrator 26.0.1, SVG Export Plug-In . SVG Version: 6.00 Build 0)  -->
<svg version="1.1" id="Layer_1" xmlns="http://www.w3.org/2000/svg" xmlns:xlink="http://www.w3.org/1999/xlink" x="0px" y="0px"
	 viewBox="0 0 612 792" style="enable-background:new 0 0 612 792;" xml:space="preserve">
<style type="text/css">
	.st0{fill:#010101;}
</style>
<g>
	<path class="st0" d="M199.7,497.9c0.3,0,0.6-0.2,0.6-0.6c0-0.1,0-0.2-0.1-0.3c-7.1-10.3-10.1-18.2-14.6-28.1
		c-7.4-16.1-27.3-20.4-26.6-40.5c0.2-8.5,1-17.6-0.2-27.2c-1.7-13.1-3.3-24.3-1.7-39.2c0.1-1.1,0-2.2-0.4-3.2
		c-3.7-10.8-9.4-15.7-19.3-23.4c-0.6-0.5-2.7-2.7-6.1-6.6c-11.6-13.3-9.8-25.5-8.9-41.6c0.4-6.5-1.5-13-5.7-19.6
		c-8.2-13-14.7-27.2-14-42.1c0.9-18.6,23.1-18.1,36.2-14.9c13.6,3.3,25.2,8.2,34.9,14.6c3.7,2.4,8.8,6.6,15.3,12.4
		c10.3,9.2,16,13.6,28.9,24.1c0.6,0.5,1.6,0.4,2.1-0.1c4-4.2,6.9-7.6,8.9-10.3c3.6-4.9,6.6-7.9,9.1-9.1c8.3-3.9,16.7-1.9,26.5,0.1
		c3.4,0.7,5.4-0.8,6-4.5c1.3-9.3,3-16.5,5.1-21.6c2.2-5.5,3.8-10.7,4.9-15.6c2-9.3,6.1-19.9,12.2-31.7c3.6-7,7.2-11.9,10.8-14.5
		c7.8-5.7,19.9-11.1,29.2-7c13.8,6.1,11.8,22.2,12.3,36c0.4,11.7,8,16.6,11.6,26.4c2.1,5.7,3,12.2,2.8,19.5
		c-0.1,4.2-1.9,7.6-4.1,11.8c-0.3,0.6-0.1,1.3,0.5,1.6c0.2,0.1,0.4,0.1,0.6,0.1c11.8-0.2,23.3,2,34.3,6.4c0.3,0.1,0.6,0.3,0.9,0.6
		l9.8,8.7c0.6,0.5,1.4,0.5,1.9-0.1c4.4-4.9,10.4-11.1,18-18.6c2-2,8.2-5.7,18.6-11.2c0.8-0.4,1.5-0.8,2.2-1.3c5.2-3.6,9-6,11.4-6.9
		c8.4-3.4,14.3-5.8,17.9-7c18.5-6.4,43.8,2.7,36.5,26.7c-2.4,7.9-5.9,16-10.4,24.4c-6.3,11.5-4.9,17.1-1.9,30.2
		c3.1,13.3,0.8,27.3-10.6,36.5c-6,4.8-10.1,9.2-13.9,16.9c-1.8,3.6-1.9,6.5,0,10.3c6,12.2,5.1,28.2,1.8,41.7
		c-3.2,13.4-3.9,26.3-4.4,37.4c-0.3,7.9-2.5,14.8-6.6,20.7c-2.4,3.6-7.2,7.5-9.8,10.1c-0.3,0.3-0.5,0.8-0.4,1.2l3,19
		c0.4,2.7,1.6,5.3,3.4,7.4c3.2,3.8,5,6,5.2,6.4c0.4,0.7,0.8,1.4,1.2,2c1,1.7,2.1,5.6,3.2,11.7c1.1,5.9,6.8,10.1,12.6,15.4
		c5,4.5,4.2,12.1,5.1,18.3c0.2,1.6,0.7,3.1,1.4,4.5c1.9,3.8,4.7,7.9,5.6,12c1.4,6.4,1.1,11.9-0.8,16.6c-3.2,7.7-6.1,16.6-8.5,26.5
		c-1.2,4.7-4.4,9.5-9.9,14.3c-3.5,3.2-9.9,4.5-14.9,6.7c-4.8,2.1-9,8.8-14.9,10.2c-2.9,0.7-6.6,1.3-11,1.7c-7.1,0.7-15.8,4-23.1,3.8
		c-17.8-0.4-34.4-5.3-49.7-14.7c-7.1-4.4-13.2-10.5-20.4-16.3c-0.8-0.6-1.9-0.5-2.5,0.3c0,0.1-0.1,0.1-0.1,0.2
		c-4.7,7.9-17.3,15.5-25.4,7.8c-5.4-5.2-8.5-8.1-9.3-8.7c-0.9-0.8-2-1.4-3.2-1.6l-14.1-2.2c-1-0.2-2.1,0.4-2.6,1.3
		c-2.5,4.6-5.7,8.4-9.6,11.3c-4.6,3.4-9.4,3.6-14.4,0.7c-7-4.1-12.8-9.5-17.4-16.2c-0.5-0.8-1.6-1-2.4-0.4c-0.1,0.1-0.2,0.1-0.2,0.2
		c-14.1,13.9-28.4,17.6-48.8,19c-17.8,1.2-24.9,1.2-37.6,3.3c-11.1,1.9-27.7,6.4-33.2-3.4c-3.4-6.1-3.8-13.1-1.3-21.1
		c6.5-20.4,21.1-33.8,37.9-47c0.4-0.3,0.5-0.9,0.2-1.3c0,0,0-0.1-0.1-0.1c-11-11.2-20.5-15.6-35.5-21.6c-5.2-2.1-7.2-6.2-5.9-12.3
		c1.3-6.4,4.7-11.3,10.2-14.6c18.1-11,37.7-14.9,58.7-11.8C187.6,497.4,193.3,497.8,199.7,497.9z M305.3,238.5l18.2-25.8
		c0.4-0.5,1-0.7,1.6-0.5l1.2,0.4c0.6,0.2,0.9,0.8,0.7,1.3c0,0.1-0.1,0.2-0.2,0.3c-2.4,3.4-7.4,10.7-15,22
		c-7.2,10.7-9.4,22.4-6.4,35.2c0.1,0.6,0.7,0.9,1.3,0.8c0.2,0,0.4-0.1,0.5-0.3c4.5-4.4,9.6-9,15.4-13.8c2.5-2.1,4.9-3.5,7.3-4.2
		c0.5-0.2,1.1,0.1,1.3,0.6c0.1,0.4,0,0.9-0.3,1.2c-7.8,6.6-12.7,10.8-14.6,12.5c-4.6,4.1-7.2,7.2-7.8,9.1
		c-2.2,6.9,0.9,16.3,3.9,22.5c0.6,1.2,2,1.8,3.2,1.3c9.3-3.7,24.5-15.5,24.7-26.8c0.2-15.3,0.2-25.3,6.8-39
		c3.7-7.7,3.5-11.7,2.1-19.4c-1.2-6.3-7-12.8-8.9-17.9c-3.8-10.1-3.4-16.9-3.7-31c-0.2-6.7-3.1-10.9-8.9-12.8
		c-5-1.6-8.4-0.2-10.3,4.2c-6.8,15.9-11.4,36.8-11.7,55.3c-0.1,3.5-0.6,11.6-1.5,24.5c0,0.3,0.2,0.6,0.5,0.6
		C305,238.7,305.2,238.6,305.3,238.5z M142.3,220.1c-0.2-0.1-0.5,0.1-0.6,0.3c-0.1,0.2,0,0.4,0.2,0.5c7.3,6.1,13.1,11,17.1,14.8
		c22.7,21,42,50.3,48,81.2c1.7,8.5,2.7,18,3.2,28.4c0,0.3,0.3,0.6,0.6,0.6c0.2,0,0.3-0.1,0.5-0.2c5.1-6.3,10.7-10.6,16.7-12.9
		c12.6-4.8,27.4-0.3,37.6,8.5c9.5,8.2,13.6,22.3,26.8,25.7c6.1,1.6,10.1-0.6,14.7-5.1c9.7-9.5,17.3-16.7,22.9-21.6
		c12.7-11.1,34.4-13.7,48.5-4.2c6.3,4.2,12,9.8,17.1,16.9c0.3,0.4,0.8,0.5,1.2,0.2c0.2-0.1,0.3-0.3,0.3-0.6c0.9-7,2.5-14.5,4.7-22.4
		c11.3-39.7,33.7-73.2,62.8-103.2c0.2-0.2,0.2-0.5,0.1-0.7c-0.2-0.2-0.4-0.2-0.6-0.1c-17.3,7.9-32.8,18.4-46.3,31.8
		c-14.5,14.3-26.3,31.1-35.2,50.5c-0.4,0.9-1.4,1.3-2.3,0.9c-0.2-0.1-0.3-0.2-0.5-0.3c-11.6-11.1-22.3-19.1-37.6-23.7
		c-0.7-0.2-1.4,0-1.9,0.6c-7.2,9.4-16.4,16.6-27.7,21.7c-0.9,0.4-1.9,0-2.3-0.9c-5.2-11.7-8.1-25-9-39.7
		c-2.1-37.2-0.5-71.8,10.4-106.7c0.1-0.2-0.1-0.5-0.3-0.6c-0.1,0-0.3,0-0.4,0.1c-2.5,1.8-4.9,4.2-7.3,7.3
		c-11.4,15.2-15.5,31.2-19.2,50.4c-5.2,26.6-6.9,54.1-5,82.5c0.2,2.8,1.3,9.8,3.2,21.1c0.1,0.4,0.1,0.9,0,1.2
		c-0.1,0.7-0.7,1.1-1.4,1c-0.4-0.1-0.7-0.3-0.9-0.7c-4.7-10.3-4.9-24.9-5.2-37c0-0.7-0.6-1.2-1.3-1.2c-0.1,0-0.1,0-0.2,0
		c-14.4,3-27.3,8.7-38.6,17.3c-0.8,0.6-2,0.5-2.6-0.3c0,0,0,0,0,0c-7.8-10.5-15.5-24.5-24.2-34.6c-8.6-10.1-17.9-18.6-27.9-25.7
		C167.7,231.9,155.6,223.1,142.3,220.1z M197.9,299.4c-6.4-15.9-14.3-32.1-25.8-45.1c-8.7-9.9-43.4-45.8-57.1-35
		c-10.5,8.3,2.2,31.8,7.6,40.8c5.9,9.8,8.7,17.1,8.4,27.3c-0.2,5.6-1.8,13.6-1.1,19.1c1,7.4,4.5,13.9,10.7,19.5
		c7.2,6.5,12.5,11.2,15.8,13.9c0.9,0.7,1.7,1.6,2.4,2.5c2.2,3.1,3.5,5,3.8,5.8c4.6,12,7.6,19.5,9,22.5c5.7,12.5,19.5,18,32.7,17.4
		c0.9,0,1.5-0.8,1.5-1.6c0,0,0-0.1,0-0.1c-1.5-14.7-0.6-27.4,0.1-49.1c0.1-2.1-0.2-3.8-1-5.3c-0.3-0.5-0.7-1-1.3-1.2
		c-12.5-4.5-22.9-4.9-36.9-4.3c-0.5,0-0.9-0.3-1.1-0.7l-0.2-0.5c-0.2-0.6,0.1-1.2,0.7-1.4c0,0,0.1,0,0.1,0
		c12.4-2.5,24.6-1.9,36.8,1.9c0.5,0.1,1-0.1,1.1-0.6c0-0.1,0-0.2,0-0.3c-0.3-6.2-0.3-10.3-5.7-15.5c-9.7-9.4-20.4-16.8-32-22.3
		c-9-4.3-14.6-7-16.7-8.1c-0.5-0.3-0.9-0.7-1.1-1.3l-0.2-0.7c-0.1-0.4,0.1-0.8,0.5-1c0.2-0.1,0.4-0.1,0.5,0
		c16.7,6,32.5,14.1,47.5,24.3c0.3,0.2,0.7,0.1,0.9-0.2C198,299.9,198,299.7,197.9,299.4z M413.7,310.5c2-1.2,11.2-6.1,27.5-14.7
		c4.5-2.4,9-3.8,13.4-4.4c0.2,0,0.4,0,0.6,0.1c0.3,0.1,0.4,0.3,0.5,0.5c0.3,0.6,0.2,1-0.4,1.2c-9.8,3.7-20.5,9.1-32,16.3
		c-10.7,6.7-16.8,10.5-17.9,22.2c-0.1,0.6,0.4,1.2,1.1,1.3c0.1,0,0.3,0,0.4,0c9.2-2,18.5-2.6,27.7-1.7c0.9,0.1,1.6,0.7,1.9,1.5
		l0,0.1c0.2,0.6-0.1,1.2-0.7,1.4c-0.1,0-0.2,0.1-0.3,0.1c-9.2,0.2-17.1,0-25.3,1.8c-5.4,1.2-8.2,5.9-8.3,13.9
		c-0.2,15.3,0.5,30.3,2.1,44.9c0.1,0.7,0.5,1.2,1.2,1.4c20.3,5.8,45.1-2.2,50.7-24.3c4-15.8,5.2-31.1,18.8-44.3
		c7.6-7.4,14.8-11.5,13.8-23.7c-1.3-15.8-8.7-29,0.9-44.3c4.7-7.5,12.5-17.8,11.5-27.4c-0.6-5.7-3.8-9.6-9.6-11.8
		c-7.4-2.8-14,0.7-19.4,5.7c-20.9,19.6-38.1,42-51.6,67.3c-4.1,7.8-6.6,13.2-7.4,16.3c-0.1,0.3,0.1,0.5,0.3,0.6
		C413.5,310.6,413.6,310.6,413.7,310.5z M246.1,262.9c0-0.4,0.4-0.8,0.9-0.7c0.3,0,0.6,0.2,0.7,0.6c2.1,7.4,3.6,12.1,4.6,14.3
		c1.3,2.7,3,5.1,5.2,7.1c0.5,0.4,1.1,0.6,1.7,0.4l13.6-4.8c1.4-0.5,2.4-1.8,2.5-3.4l0.6-23.3c0-0.5-0.3-0.9-0.8-1
		c-0.9-0.3-8-1.2-21.2-2.7c-8.4-1-15.3,2.5-20.5,10.3c-2.5,3.7-6.1,9.4-11,17.3c-0.4,0.7-0.4,1.6,0,2.3l11.7,17.4
		c0.2,0.3,0.7,0.4,1,0.2l17.2-9.9c0.5-0.3,0.6-0.9,0.4-1.4c0,0,0,0,0,0C247.8,278.2,245.7,270.7,246.1,262.9z M375.4,264.3
		c0.3-0.4,0.8-0.4,1.1-0.2c0.3,0.2,0.4,0.6,0.3,1c-2.8,6.6-9,14.5-13.4,22.7c-0.5,1-0.3,2.3,0.6,3l14.9,12c0.6,0.5,1.6,0.4,2.1-0.2
		c0-0.1,0.1-0.1,0.1-0.2l16.8-29c0.4-0.7,0.4-1.5-0.1-2.2c-6.4-9.7-13.6-16.1-25.6-17.4c-4-0.5-12.4-1-25.2-1.6
		c-0.9,0-1.7,0.6-1.7,1.5l-2.2,25.5c-0.1,0.7,0.3,1.3,0.9,1.6l12.7,6.2c0.8,0.4,1.7,0.2,2.3-0.5L375.4,264.3z M303.9,369.1
		c-17.3,7.1-26.4-8.3-37-21c-7.6-9.2-20.4-15-32.7-13.1c-36.6,5.7-24.6,62.7-16.4,84.3c6.3,16.7,17.1,29.9,32.3,39.9
		c11.9,7.8,24.2,9.2,40,10.8c12.5,1.2,28.9-0.7,37.4-1.4c14.8-1.2,32.8-8.6,44.5-18.4c10.1-8.5,17.8-19.7,23.1-33.8
		c4.7-12.4,3.2-27,2.6-41.4c-0.7-16.2-8-28.4-21.9-36.6c-15.1-8.8-34-4.8-46.2,6.7c-3.8,3.6-9.6,9.4-17.3,17.3
		C308.7,366.1,305.9,368.3,303.9,369.1z M164.2,368.7c-0.3,9.8-0.4,15.1-0.1,16.1c2.6,11.8,3.6,25.5,2.8,41.1
		c-0.4,7.2,3.7,15.6,9.8,21.1c4.8,4.3,8.6,7.6,11.8,12.1c4.1,5.7,7.7,12.9,10.9,21.5c3.3,9,9.9,13.5,20.1,16.7
		c13.8,4.3,23.4,8.5,35.9,18c10.3,7.8,21.7,6.6,34.2,4.4c11.9-2.1,23.5-0.7,36,2.6c9.3,2.4,18,1.8,26.1-1.9
		c5.7-2.6,12.8-6.8,21.4-9.1c11.9-3.1,23.3,0.3,34.2-4.2c3.2-1.3,5.7-4.2,7.7-8.7c5.1-11.9,8.1-21.9,19.8-30.6
		c4.8-3.6,10.8-8.1,17.9-13.7c5.9-4.6,8.6-10.2,8-16.9c-0.9-11.2-1.1-18.5-0.7-22c0.9-7.3,3.8-14.9,6.2-24.1
		c2.5-9.7,1.4-19.7-2.7-28.7c-0.1-0.3-0.5-0.4-0.8-0.3c-0.1,0.1-0.3,0.2-0.3,0.3c-2.3,7.4-4,12.7-5,15.8
		c-7,21.5-33.5,26.6-53.4,22.6c-0.7-0.1-1.4,0.3-1.5,1c0,0,0,0,0,0l-2.5,13.3c-0.1,0.7,0.2,1.3,0.7,1.7c9.1,6,19.5,10.8,31,14.3
		c0.5,0.1,0.8,0.7,0.7,1.2c-0.1,0.4-0.5,0.7-0.9,0.7c-9.7,0.3-22.5-6.6-32-11.9c-0.7-0.4-1.7-0.2-2.1,0.6c0,0.1-0.1,0.1-0.1,0.2
		c-5.1,11.8-12.7,22.4-22.9,31.6c-0.7,0.7-0.9,1.8-0.3,2.6c5,7.1,10.1,11.3,19.9,20.7c0.2,0.2,0.2,0.6,0,0.8
		c-0.2,0.2-0.5,0.2-0.7,0.1c-8.6-4.1-16.8-13.2-22.7-19.3c-0.4-0.4-1.1-0.5-1.6-0.2c-2,1.2-5.9,3.2-11.7,5.9
		c-9,4.2-18.7,7.1-29.2,8.7c-0.6,0.1-1,0.6-0.9,1.2c1.3,13.9,5,26.6,11,38.1c0.2,0.4,0,0.8-0.3,1c-0.3,0.1-0.6,0.1-0.8-0.1
		c-3.7-3.2-6.3-7.2-7.6-11.8c-1.8-6.4-4.1-15.3-6.9-26.7c-0.1-0.5-0.6-0.9-1.2-0.9h-39.3c-0.5,0-1,0.3-1.2,0.8
		c-4.8,12.3-8.1,23.3-10,32.8c-0.1,0.4-0.4,0.6-0.8,0.5c-0.3-0.1-0.5-0.3-0.5-0.6c-1.3-9.8,3.2-20.1,7.2-33.1
		c0.2-0.6-0.2-1.2-0.8-1.4c0,0-0.1,0-0.1,0c-13.8-2.9-26.6-8.7-38.5-17.5c-0.6-0.4-1.3-0.4-1.9,0c-4.1,2.9-8,6.7-11.7,11.3
		c-3.7,4.7-5.7,7.1-5.8,7.2c-0.2,0.2-0.6,0.2-0.8,0c-0.2-0.1-0.2-0.4-0.1-0.6c2.9-9,9.1-15.3,15.7-21.4c0.4-0.4,0.4-1,0.1-1.4
		c-3.1-3.7-8.1-8.8-10.7-13c-2.2-3.5-4.5-7.6-7-12.5c-0.3-0.7-1.2-1-1.8-0.6c0,0-0.1,0-0.1,0c-8,4.7-19.1,11.2-27.3,11.5
		c-0.6,0-1.2-0.4-1.2-1.1c0-0.5,0.2-0.9,0.7-1.1l25.6-11.7c1-0.5,1.5-1.5,1.3-2.6l-5.7-24.5c-0.3-1.2-1.3-2-2.5-2.2
		c-14.4-1.5-25.9-4.7-34.1-17.1c-2.8-4.2-4.5-6.6-5-7c-0.3-0.2-0.7-0.2-0.9,0.1C164.3,368.4,164.2,368.5,164.2,368.7z M260.2,556.4
		c0,0,0.3,0,1,0.1c9,0.6,18,1.3,27,2c25.3,2,49,10.5,71.1,25.6c12.6,8.6,24.1,18.7,38.4,24.1c9,3.4,14.7,6,17.2,7.8
		c1.6,1.1,6.8,5.2,15.4,12.2c3.7,3,8.2,3.9,13.4,2.6c0.7-0.2,2.8-1.7,6.2-4.6c4-3.4,9.3-5.3,14.9-7.3c11.4-3.9,11.3-11.2,13-22.3
		c0.9-5.7,6.1-11.7,7.5-17.3c1.6-6.8-1-13.4-5.6-19.9c-3.1-4.4-4.6-9.2-4.3-14.4c0.4-9.4-4.2-12.7-11.6-16.9
		c-0.7-0.4-1.2-0.8-1.7-1.4c-5-5.2-2.6-9.8-3.4-14.1c-1.6-9.8-12.5-9.8-13.1-18c-0.5-6.2,1.4-17.1-3.2-24.3
		c-0.8-1.3-2.5-1.7-3.8-0.9c0,0,0,0,0,0c-3.1,2-5.2,3.8-6.3,5.4c-0.5,0.7-0.6,1.6-0.2,2.4c2.9,5.5,5.6,13.7,8,24.8
		c2.4,11,4.7,16.1,12.4,24.2c16.2,17,24.8,41.6,20.2,66c-3.3,17.4-19.8,31.3-38,25.9c-2.9-0.9-7-3.5-12.3-7.9
		c-9-7.5-14.6-9.5-26.9-14.2c-2.9-1.1-6.5-4.1-10.9-9c-0.4-0.5-0.9-0.9-1.4-1.2c-3.7-2.4-6.2-3.8-7.7-4.1
		c-8.3-1.5-15.1-5.1-20.4-10.7c-7.6-8.1-14.5-8.4-25.5-9.2c-2.5-0.2-5.7-1.4-8.3-2.2c-1-0.4-2-0.8-3-1.4l-6.7-4.1
		c-2.1-1.3-4.5-2-7-2c-18.7,0-28.4,0-29.1-0.1c-5.9-0.3-11,0.4-15.2,2.2c-0.6,0.3-0.9,1-0.6,1.6
		C259.7,556.1,259.9,556.3,260.2,556.4z M428.2,631.3c-8.4-7.2-15.5-13.2-24.7-17.3c-4.5-2-12.2-4.8-17.9-7.9
		c-13.4-7.3-26.6-18-33.6-22.4c-17.9-11.4-37.5-18.4-58.9-21.1c-5.7-0.7-17.5-1.5-35.6-2.4c-1.5-0.1-2.7-0.6-3.6-1.5
		c-1.2-1.2-0.9-3.3,0.5-4.7c0.1-0.1,0.3-0.2,0.4-0.4c6-4.5,14.8-5.9,23.5-5.6c6.3,0.2,14.9,0.4,25.9,0.5c9.2,0.1,16.1,8.9,24.5,9.7
		c9.9,0.9,20.7,2,25.9,7.6c5,5.4,8.8,8.6,11.2,9.4c8.9,3.1,15.7,4.8,20.4,9.4c5.1,4.9,9.5,8.1,13.3,9.4c7.1,2.5,12,4.7,14.6,6.3
		c6.6,4.3,12.1,9.6,18.7,12.9c8.9,4.4,19.4,2.7,26.6-4.1c14.9-14.2,12.8-40.2,4.7-57.2c-3.9-8.2-8-14.8-12.3-19.8
		c-6.3-7.4-10-12.2-11-14.4c-3.5-7.8-5.2-15.8-8.2-28.1c-0.7-2.9-2.2-5.7-3.8-8.2c-0.4-0.6-1.2-0.9-1.9-0.5
		c-0.2,0.1-0.3,0.3-0.5,0.5c-0.9,1.4-3,6.8-6.5,16.1c-3.5,9.3-10.3,14.2-20.5,14.8c-7.6,0.4-14.4,1-20.4,1.6
		c-8.9,0.9-14.6,3.9-23.9,8.8c-13,6.9-25.1,5-39.1,1.4c-7.3-1.9-15.8-2.1-25.6-0.6c-9.3,1.4-14.5,2.1-15.5,2
		c-12.6-1-18.2-5.4-28.8-12.5c-7.7-5.1-17.4-9.1-29.1-11.9c-0.6-0.1-1.2,0.2-1.3,0.8c0,0.1,0,0.3,0,0.4l1.2,7.3c0.2,1.2,0.9,2.3,2,3
		c7.9,5,12,7.4,17.2,13.9c2.5,3.1,6,7.7,10.6,14c0.4,0.6,1.1,0.8,1.9,0.7c11.7-2.6,22.5-4.9,32.4-6.9c13.3-2.6,28.4-3.4,39.3-1.2
		c13,2.7,26.3,5.6,39.7,8.8c0.9,0.2,1.8-0.2,2.2-1.1l6.1-14c0.2-0.5,0.8-0.7,1.2-0.5c0.2,0.1,0.3,0.2,0.4,0.3l0.2,0.6
		c0.4,1.7,0.4,3.5-0.2,5.2l-3.2,9.3c-0.4,1.1,0.2,2.4,1.3,2.7c0.1,0,0.1,0,0.2,0c9.7,2.6,24.3,6.6,34.1,2.7
		c8.3-3.4,17.5-7.3,18.3-6.9c0.6,0.3,0.8,1,0.5,1.6c-0.1,0.2-0.3,0.4-0.5,0.5c-8,5.4-16.5,8.6-25.5,9.7c-4.6,0.5-11.7-0.4-21.3-2.9
		c-7.8-2-21.9-5.4-42.5-10.2c-12.2-2.8-23.3-3.8-33.5-3.1c-14.7,1.1-34.5,4.4-50.5,10.4c-0.8,0.3-1.8,0-2.2-0.8
		c-20-37.7-65.2-48.5-103.6-37.1c-7.8,2.3-20.5,8.1-21.2,16.9c-0.1,0.7,0.2,1.4,0.8,1.8c3.1,2.4,5.8,3.9,7.9,4.3
		c15.9,3.7,23.3,11,35,22.4c2.1,2.1,5.2,3.7,9.4,4.8c0.3,0.1,0.5,0.4,0.4,0.8c-0.1,0.2-0.2,0.4-0.4,0.4
		c-22.3,6.1-39.3,23.6-47.9,44.9c-2.6,6.5-5.2,17.8,3.5,20.4c2.4,0.7,6.1,0.2,11.3-1.6c9.4-3.2,19.6-4.8,30.5-4.6
		c19,0.3,41,1.3,55.4-12.7c4.5-4.3,7.6-7.8,9.5-10.6c5.2-7.7,7-13.4,10.9-24c0.5-1.4,1.8-2.3,3.2-2.4c32.7-2.6,61.2,11.8,85.5,32.6
		c26.5,22.7,55.1,45.6,92.3,30.8c0.4-0.2,0.6-0.7,0.4-1.1C428.4,631.5,428.3,631.4,428.2,631.3z M282.3,575.8
		c-9-2.7-18.6-3.8-28.8-3.3c-1.4,0.1-2.7,0.9-3.3,2.2l-7,15.6c-0.1,0.1-0.1,0.3-0.1,0.4c-0.4,2.1,0.3,4.8,2.4,8.1
		c4.7,7.9,10.7,13.5,18,17c0.6,0.3,1.2,0.4,1.9,0.3c5.6-0.7,8.1-6,10.1-11.1c3.4-8.3,6-17.4,8-27.4
		C283.6,576.8,283.1,576,282.3,575.8z M298.6,600.2c-0.5-3.1-2.9-9.3-4-15.4c-0.5-2.8-2-4.9-4.5-6.3c-0.9-0.5-2.1-0.1-2.6,0.8
		c-0.1,0.1-0.1,0.2-0.1,0.4l-5,17.2c-0.2,0.8,0.2,1.6,1,1.8c0,0,0.1,0,0.1,0l14,2.7c0.5,0.1,1-0.2,1.2-0.8
		C298.6,600.4,298.6,600.3,298.6,600.2z M298.1,582.7c1.5,9.5,8.5,33.6,20.6,34c0.7,0,1.4-0.1,2-0.3c5.5-2,8.8-5.7,10.1-10.9
		c0.3-1.4-0.1-2.8-1.2-3.8c-10.2-8.8-20.4-15.3-30.8-19.6c-0.3-0.1-0.6,0-0.7,0.3C298.1,582.5,298.1,582.6,298.1,582.7z"/>
	<path class="st0" d="M230.4,375.3c10.6-4.4,25.5,7.4,33.2,26.2c7.7,18.8,5.4,37.6-5.2,42c-10.6,4.4-25.5-7.4-33.2-26.2
		C217.4,398.5,219.8,379.7,230.4,375.3z M260.1,434.9c-15.7-7.8-22.7-21-21.1-39.8c0.3-3.9,1.5-8,3.4-12.4c0.5-1,0-2.2-1-2.7
		c-0.2-0.1-0.3-0.1-0.5-0.2c-9.7-1.8-15.2,2-16.6,11.4c-1.9,13.8,5.3,28.8,14.2,40.7c3.8,5,8.6,8,14.5,8.8c3.1,0.4,6.9-1.3,7.8-4
		C261.2,436,260.8,435.2,260.1,434.9z M246.1,384.7c-7.9,15.6-2.9,38.1,13.8,45.5c1.3,0.6,2.9,0,3.5-1.3c0.1-0.2,0.1-0.4,0.2-0.6
		c1.5-7.3-1.4-19.1-3.5-25.4c-2.3-7.1-6.5-13.3-12.5-18.6c-0.4-0.4-1-0.3-1.4,0.1C246.1,384.5,246.1,384.6,246.1,384.7z"/>
	<path class="st0" d="M365.9,380.1c13.1,4.9,17.7,24.6,10.4,43.9c0,0,0,0,0,0c-7.3,19.3-23.8,31-36.9,26.1
		c-13.1-4.9-17.7-24.6-10.4-43.9c0,0,0,0,0,0C336.3,386.8,352.8,375.1,365.9,380.1z M362.2,383.4c-8.4-0.3-15.6,10.3-16,23.6l0,0
		c-0.4,13.3,6,24.4,14.4,24.7c8.4,0.3,15.6-10.3,16-23.6C377,394.7,370.6,383.7,362.2,383.4z M345.9,389.4c0.1-0.3-0.1-0.5-0.4-0.5
		c-0.1,0-0.3,0-0.4,0.1c-8.6,7.7-13.6,16.8-15.3,27c-1.7,10.5,0.2,25,10.6,30.4c8.2,4.2,19-3,23.8-9.6c0.3-0.4,0.2-1-0.2-1.3
		c-0.1-0.1-0.2-0.1-0.3-0.2c-12.9-2.9-21-9.3-21.1-23.7c0-7.8,0.6-13.5,1.8-17.2C345.2,391.9,345.8,390.2,345.9,389.4z"/>
	
		<ellipse transform="matrix(0.1097 -0.994 0.994 0.1097 -174.1963 676.0842)" class="st0" cx="290.3" cy="435.3" rx="3.5" ry="6.7"/>
	<path class="st0" d="M291.4,448c5.5,0.1,8.9-3.8,12.8-8.3c0.4-0.5,1.2-0.6,1.7-0.2c0.3,0.3,0.5,0.7,0.4,1.1
		c-0.7,6.5-9.9,11.2-15,11.1c-5.2-0.1-14.1-5.3-14.4-11.8c0-0.7,0.5-1.2,1.1-1.3c0.4,0,0.8,0.1,1,0.5
		C282.7,443.8,285.9,447.8,291.4,448z"/>
</g>
</svg>
