<?xml version="1.0" encoding="utf-8"?>
<!-- Generator: Adobe Illustrator 26.0.1, SVG Export Plug-In . SVG Version: 6.00 Build 0)  -->
<svg version="1.1" id="Layer_1" xmlns="http://www.w3.org/2000/svg" xmlns:xlink="http://www.w3.org/1999/xlink" x="0px" y="0px"
	 viewBox="0 0 612 792" style="enable-background:new 0 0 612 792;" xml:space="preserve">
<style type="text/css">
	.st0{fill:#010101;}
</style>
<g>
	<path class="st0" d="M431.3,593.2c0.1-0.6-0.4-1.1-1-1.1c-0.1,0-0.3,0-0.4,0.1c-6.4,2.2-13.2,5.4-18.3,4.9
		c-1.7-0.2-2.9-1.8-2.9-3.7c0-3.6,1.6-7.2,4.7-10.8c0.5-0.5,0.4-1.3-0.1-1.8c-5.8-6-10.2-13.1-13.1-21.2c-0.3-0.9-1.1-1.5-2-1.6
		l-11-0.9c-0.4,0-0.8,0.1-1.1,0.4c-11.1,14.3-21.5,27.4-33.9,38.8c-1.7,1.5-3.8,3.2-6.6,5c-4.1,2.7-7.5,7.1-12.7,8.9
		c-1.4,0.5-3-0.1-3.7-1.4l-3.1-5.4c-1.1-1.9-3.5-2.5-5.4-1.4c-0.3,0.2-0.6,0.4-0.9,0.7c-2.6,2.7-5.5,4.5-8.7,5.4
		c-5.4,1.5-7.3-4.7-8.1-8.9c-0.2-0.9-0.8-1.6-1.7-1.9l-5-1.5c-0.7-0.2-1.4-0.1-2,0.2c-3.9,1.9-8.4,2.8-13.5,2.8
		c-1.4,0-2.6-1.1-2.7-2.5c-0.1-1.8,1-5.5,2.2-7.4c2.9-4.7,4.2-9.8,3.8-15.2c0-0.6-0.5-1-1.1-0.9c-0.1,0-0.2,0-0.3,0.1
		c-3.7,1.5-7.5,2.1-11.4,1.9c-1.7-0.1-3.1-1.6-3-3.3c0-0.5,0.2-1,0.4-1.4l3.7-6.4c0.4-0.6,0.3-1.4-0.2-1.9
		c-6.5-7.7-11.8-16.3-15.6-25.6c-0.3-0.8-1-1.3-1.7-1.6l-6.7-1.9c-0.9-0.3-1.9,0.2-2.3,1.1c-6.8,18.7-21.6,48.9-41.2,54.5
		c-8.1,2.3-15.9,3.4-23.5,3.3c-0.6,0-1.2-0.5-1.2-1.2c-0.1-3.4-1.9-5.2-5.5-5.4c-0.5,0-1.1,0.1-1.6,0.4c-3.8,2.2-7.4,4-10.6,5.4
		c-4.8,2-8.6-1.3-6.5-6.3c0.2-0.5,0-1.2-0.6-1.4c-0.1,0-0.1-0.1-0.2-0.1c-1.3-0.2-2.3-0.3-3.1-0.3c-1.6,0.2-3-1-3.1-2.7
		c0-0.4,0-0.7,0.1-1.1c0.9-3.3,2.2-6.7,3.8-10.2c0.5-0.9,0.4-2-0.1-2.9c-16.3-28.2-23.5-63.5-23.7-95.6c0-1.2-0.6-2.3-1.6-3
		C107,452,82.7,432.6,74,409.9c-1.6-4.3-0.4-8.3,2.5-13c5-8.2,9.4-19.3,13.2-33.3c3.4-12.4,8.1-25.3,14.1-38.5
		c2.2-4.8,5.6-10.6,8.4-16.2c0.5-1,0.8-2,0.9-3c1.7-22.7,8.3-48.5,21.9-67.3c1.1-1.4,2.8-2.2,4.6-2c2.3,0.3,6.9,1.2,9.1,2
		c13.7,4.8,27.3,11.3,40.8,19.3c2,1.2,4.3,1.7,6.6,1.4c14.6-1.9,29.9-2.5,46-1.8c0.6,0,1.2-0.3,1.4-0.9
		c11.9-31.1,35.1-48.2,69.5-51.3c22.7-2,35.1-0.2,66.9,2c12,0.8,21,0.3,26.9-1.7c11.5-3.8,20.1-10.6,28.5-19.2
		c3.8-3.9,11.3-7.1,14.9-1c0.4,0.6,1.2,0.9,1.9,0.5c3.5-1.8,6-4.2,10-1.3c1,0.7,2.2,2.1,3.6,4.2c0.3,0.4,0.9,0.6,1.4,0.2
		c0,0,0,0,0,0c1-0.7,1.8-1.2,2.4-1.4c9.1-2.9,12.7,3,12.3,11.2c0,0.7,0.5,1.4,1.2,1.4l3.2,0.3c1.2,0.1,2.2,0.7,2.9,1.7l2.3,3.2
		c0.4,0.5,1,0.9,1.7,0.9c8.7,0.9,5.5,10.8,3,16.2c-6.4,13.7,3.4,39.9,9.6,51.8c9,17.2,15.3,29.8,18.7,37.7
		c8.6,19.5,15.5,42.9,14.3,63.1c-1.8,31.3-18.1,54.8-42.8,72.9c-0.7,0.5-0.9,1.5-0.4,2.2c16.5,27.4,21,56.6,13.6,87.5
		c-3.9,16.3-10.1,32.2-18.7,47.7c-1.2,2.1-3,4-5.4,5.7c-0.8,0.6-1.7,1-2.7,1.3c-5,1.5-9.3,3.3-12.9,5.4c-2.8,1.6-7.7,3.3-11.3,3.6
		c-0.9,0.1-1.7-0.6-1.8-1.5c0,0,0,0,0,0c-0.3-3.5-2.3-5-6.1-4.5c-0.6,0.1-1.1,0.3-1.6,0.6c-4.3,2.7-8.8,4.4-13.3,5
		c-2.1,0.3-4-1.2-4.3-3.3c0-0.3,0-0.6,0-0.8L431.3,593.2z M250.6,258.3c8,0.8,19.6,1.8,28.4,4c8.2,2,15.5,3.7,22,5.2
		c0.8,0.2,1.7,0.1,2.4-0.3l14.9-7.5c1.3-0.6,2.5-1.5,3.4-2.6c0.2-0.2,1.3-1.7,3.5-4.4c8.5-10.5,19.6-17.8,32.4-22
		c12.5-4.1,25.3-6.3,38.5-6.7c21.3-0.6,39.1-3.7,54.5-17.9c4.7-4.4,10.7-10,8.2-15.5c-0.4-0.8-1.3-1.1-2.1-0.8
		c-0.2,0.1-0.4,0.2-0.5,0.4l-5.2,5.6c-1,1.1-2.6,1.1-3.7,0.2c-0.2-0.2-0.3-0.4-0.5-0.6c-1.1-1.9-1.6-3.8-1.6-5.8
		c0-1-0.8-1.8-1.7-1.8c-0.4,0-0.9,0.2-1.2,0.5c-10.2,9.1-17.3,16.5-26.6,20.2c-20.3,8.1-37.7,5.2-62.2,2.5
		c-6.5-0.7-17.7-0.9-33.3-0.6c-9.7,0.2-20.9,2.6-28.4,5.2c-20.4,7.1-34.4,21-42.1,41.5c-0.2,0.5,0.1,1.1,0.6,1.3
		C250.5,258.3,250.6,258.3,250.6,258.3z M333.1,253.8c0.5-0.1,3.8-1,9.9-2.5c7.3-1.9,9.6,2.3,12.3,8.1c1.1,2.4,2.1,4.8,2.8,7.2
		c4.7,15.3,8.5,31.9,11.2,49.8c0.2,1.4,1,5.4,2.4,11.9c0.4,1.7,1.3,3.1,2.6,4.2c28.9,21.9,55.6,44.8,80.1,68.8
		c0.3,0.3,0.8,0.4,1.2,0.3c24.8-8.4,44.6-28,43.1-55.6c-1.2-22.6-11.4-41.1-22.6-63.1c-6.9-13.5-4.7-35.2,0-48.7
		c3-8.8,6-16,8.9-21.8c0.8-1.6,1-3,0.6-4.3c-0.4-1.3-1.8-2-3.2-1.6c-0.3,0.1-0.5,0.2-0.8,0.4c-1.7,1.2-2.8,1.9-3.3,2.2
		c-0.9,0.7-2.1,0.6-2.8-0.3c-0.3-0.4-0.5-0.8-0.5-1.3l0.2-12.9c0-1.1-0.9-2-2-2c-0.1,0-0.3,0-0.4,0c-5.1,1.1-9.2,7.4-13.3,12.5
		c-10.4,12.8-26.2,20.5-42.6,22.8c-3,0.4-12.9,1.2-29.6,2.5c-19.8,1.5-40.8,7.9-54.5,22.4c-0.2,0.2-0.2,0.5,0,0.7
		C332.8,253.8,332.9,253.8,333.1,253.8z M491.9,214.3l-0.2-0.1c-0.4-0.1-0.8,0-1,0.4c-8.4,16.6-15.2,35.5-12.5,53.7
		c0.9,6.2,2.3,10.9,4.2,14.2c15.7,27.9,33.8,68.6,12.5,98c-8.2,11.4-19.5,19.8-33.6,25.1c-0.7,0.3-1.1,1.1-0.8,1.8
		c0.1,0.2,0.2,0.4,0.3,0.5c11,11,21.1,22.7,30.1,35.1c0.4,0.5,1.2,0.7,1.7,0.3c31.7-22.4,45.5-54.1,37.9-92.8
		c-5.1-25.7-16.8-46.9-31.1-75.1c-6.2-12.2-15.5-38-10.1-51.7c2.1-5.3,3.1-7.9,3.2-8C492.5,214.9,492.3,214.4,491.9,214.3z
		 M92.1,427.7c18.8,21.8,45.2,40.5,72.4,53.8c13.8,6.7,27,11,39.5,12.9c47.1,7.1,101-6.4,138.5-32.9c1-0.7,2.4-0.5,3.2,0.5
		c0.1,0.2,0.2,0.4,0.3,0.6l0,0.1c0.6,1.8-0.2,3.7-1.7,4.7l-13.6,8.6c-0.6,0.4-1,1-1.1,1.7c-0.3,1.8-0.8,3.3-1.8,4.5
		c-10.7,13.2-19.6,28.6-26.7,46.3c-0.1,0.3,0,0.7,0.3,0.8c0.2,0.1,0.4,0.1,0.6-0.1c6.8-4.5,32.9-24.9,32.7-6.9
		c-0.1,11-2.6,23.4-7.5,37.4c-0.9,2.7-2.1,6.5-4.5,7.6c-7,3.3-25.5,6.9-30.2-1.9c-0.2-0.3-0.6-0.5-0.9-0.3c-0.2,0.1-0.3,0.3-0.4,0.5
		l-1,11.4c-0.1,1,0.4,2,1.2,2.6l4.2,2.9c0.4,0.3,0.7,0.7,0.9,1.1l1.5,4.2c0.9,2.6,3.7,4,6.3,3.1c0.1,0,0.2-0.1,0.3-0.1
		c3.2-1.4,7.6-4,13.4-3.2c0.6,0.1,1.1,0.4,1.4,0.9c1.2,1.6,2.1,3.6,2.8,6.1c0.4,1.3,1.7,2.1,3,1.7c0.4-0.1,0.8-0.3,1.1-0.6
		c4.5-4.6,11.6-7.6,16-1.6c0.7,1,2.1,1.2,3.1,0.5c0.1-0.1,0.2-0.1,0.2-0.2c18.3-17.3,33.9-36.4,46.9-57.2
		c6.1-9.9,9.9-19.3,11.3-28.2c2.9-18.5,1.1-36.1-5.3-52.9c-0.4-0.9,0.1-2,0.9-2.3c0.2-0.1,0.5-0.1,0.8-0.1c1.1,0.1,2.1,0.7,2.8,1.9
		c7.7,12.4,8.8,29.1,7.8,43.6c0,0.3,0.2,0.6,0.5,0.6c0.2,0,0.4-0.1,0.5-0.3c8.6-13.8,19.5-26,32.7-36.4c1.4-1.1,3.3-1.2,4.7-0.2
		l0.2,0.2c1,0.7,1.2,2,0.6,3c-0.1,0.2-0.3,0.4-0.5,0.5c-10.9,8.3-20.8,18.7-29.6,31.3c-11.1,15.8-18.7,35-15.3,54.4
		c1.4,7.8,5.7,15.9,12.9,24.1c0.5,0.5,1.1,0.9,1.8,1.1c2.1,0.6,4.3,0.4,6.4,1.2c3.1,1.3,5.3,3.6,6.6,7c0.3,0.9,1.3,1.3,2.2,0.9
		c0.3-0.1,0.5-0.3,0.7-0.5c2.5-3,4.6-5.1,6.3-6.3c2-1.5,4.8-1.6,6.9-0.2c3.4,2.2,5.7,5.7,7.1,10.3c0.2,0.8,1.1,1.3,1.9,1
		c0.4-0.1,0.7-0.4,0.9-0.7c2.7-4.8,5.2-7.7,11.2-7c0.7,0.1,1.3,0.3,1.8,0.7l5.3,3.8c0.5,0.3,1.1,0.4,1.6,0.2c2.8-1.2,4.5-2.2,5.1-3
		c5-6.2,7.6-13.2,10.8-20.5c5-11.4,8.6-23.4,10.9-35.9c6.1-33-4.3-64.4-25.3-90.7c-7.9-9.9-15.9-18.9-24.1-27.1
		c-0.3-0.3-0.8-0.3-1.1,0c-0.2,0.2-0.3,0.4-0.2,0.7c1.1,6.1,1.8,10.8,1.3,16.1c-0.4,4.6-3.1,7.3-8.1,8.2c-6.7,1.1-15.7,0.8-26.9-1
		c-6.5-1.1-9.6-3.7-12.6-9.1c-9.4-16.5-16.5-30.4-21.4-41.6c-2.4-5.6-1-9.5,4.3-11.7c5.5-2.3,11.5-3.2,18-2.7c0.4,0,0.8-0.3,0.9-0.8
		c0-0.3-0.1-0.5-0.3-0.7L374,339.6c-0.3-0.3-0.8-0.2-1,0.1c-0.1,0.2-0.2,0.4-0.2,0.6c2.3,14.1,3.5,27.7,3.5,40.9
		c0,1.2-0.8,2.3-1.9,2.7l-0.1,0c-0.9,0.3-1.9-0.2-2.2-1c0-0.1-0.1-0.2-0.1-0.3c-1.5-9.8-2.5-18.4-3.2-25.7
		c-2.4-26.2-6.9-52.2-13.4-78c-1.8-7.1-4.2-13.9-7.2-20.4c-0.6-1.3-2-1.9-3.3-1.6c-18.9,4.8-35.4,12.5-49.6,23
		c-0.9,0.7-2.3,0.5-3-0.5c0-0.1-0.1-0.1-0.1-0.2c-1-1.8-0.8-3.3,0.6-4.6c0.9-0.7,1.3-1.1,1.3-1.1c0.4-0.6,0.2-1.4-0.4-1.8
		c-0.1-0.1-0.2-0.1-0.4-0.1c-16.1-4.1-33.4-6.8-52-8.3c-16-1.2-27.5-0.1-43.5,1.6c-13.1,1.4-26.5,5.8-38.5,8
		c-1.1,0.2-2.1-0.5-2.3-1.6c0-0.1,0-0.2,0-0.3l0-0.5c-0.1-1.1,0.7-2.1,1.7-2.4l23.1-6.5c0.3-0.1,0.6-0.5,0.5-0.8
		c0-0.2-0.1-0.3-0.3-0.4c-11.3-6.9-24-12.7-38.1-17.5c-3.1-1.1-5.6,0-7.3,3.2c-9.2,16.8-13.2,31.5-17.1,50.5
		c-0.1,0.4,0.2,0.8,0.6,0.9c0.3,0.1,0.5,0,0.7-0.2l6.8-7.4c1.1-1.1,2.9-1.2,4-0.2c0,0,0,0,0.1,0.1l0.1,0.1c1.1,1.2,1.2,3,0,4.2
		c-5.5,5.8-9.6,10.8-12.4,15c-13.3,20.4-19.7,41.4-28.1,69.9c-1.4,4.8-5.2,12.7-11.3,23.6c-0.4,0.8-0.6,1.7-0.5,2.5
		c0.5,3.7,1.9,7.2,4.2,10.5c0.3,0.4,0.9,0.5,1.3,0.2c0.1-0.1,0.2-0.2,0.2-0.3c1.2-2,2.5-3.5,3.9-4.5c1.2-0.9,3-0.8,4.1,0.2l0.8,0.7
		c0.9,0.8,0.9,2.2,0.1,3.1c-0.1,0.1-0.3,0.3-0.4,0.4l-2.4,1.5c-0.4,0.3-0.6,0.9-0.3,1.3c0.1,0.1,0.1,0.2,0.2,0.3
		c3.3,2.3,5.5,3.6,6.6,3.8c23.7,5.3,45.2,14.1,68.8,25c5.3,2.4,8.5,2.1,14.2,0.9c11.4-2.4,22.9-6.1,34.2-7.2
		c22.5-2.3,49-3.6,74.8-3.6c6.9,0,12.7-0.7,17.2-2.1c6-1.8,11.4-4,16-6.7c1.2-0.7,2.7-0.3,3.4,0.8l0.1,0.1c0.7,1.1,0.4,2.6-0.7,3.4
		c-3.8,2.6-5.8,4.1-6,4.3c-16.4,15.3-35.2,28.2-56.2,38.7c-19.8,9.9-37.2,14.3-58.9,10.8c-40-6.5-74.5-27-103.3-55.7
		c-1.1-1.1-4-2.6-8.7-4.5c-0.3-0.1-0.6,0-0.7,0.3C91.9,427.4,92,427.6,92.1,427.7z M391.6,381.3l21.3,42.1c1.2,2.4,3.5,4.2,6.2,4.7
		c8.7,1.8,17.8,2.4,27.4,1.7c1.5-0.1,2.8-1.3,2.9-2.9c0.5-8-0.6-14.8-2.4-22c-0.7-2.8-2.5-5.5-5.5-8.2c-7.9-7.1-14.8-13.3-20.7-18.6
		c-1.8-1.6-3.7-2.5-5.6-2.6c-8.3-0.5-15.5,0.1-21.8,1.8c-1.5,0.4-2.4,1.9-2.1,3.4C391.4,380.9,391.5,381.1,391.6,381.3z M114,433.5
		c-0.3-0.4-0.5-0.6-0.6-0.7c-0.2-0.1-0.4-0.1-0.6,0.1c-0.1,0.1-0.1,0.2,0,0.4c0.2,0.6,0.4,0.9,0.5,1c0.2,0.2,0.6,0.1,0.7-0.2
		C114.1,434,114.1,433.7,114,433.5z M122.9,436.1c-0.6,0.1-1,0.7-0.9,1.4c0.1,0.7,0.6,1.2,1.2,1.2c0.6-0.1,1-0.7,0.9-1.4
		C124,436.6,123.5,436.1,122.9,436.1z M132,439.4c-0.9-0.3-1.9-0.1-2.5,0.7l-3.2,3.9c-0.4,0.6-0.4,1.4,0.2,1.8c0,0,0.1,0,0.1,0.1
		l3.9,2.6c0.4,0.2,0.9,0.3,1.2,0l7.8-4.5c0.5-0.3,0.6-0.9,0.4-1.3c-0.1-0.2-0.3-0.4-0.5-0.4L132,439.4z M303.5,442l-10.6,1.2
		c-0.9,0.1-1.6,0.7-1.9,1.4c-2.4,5.7-5.6,10.2-9.4,13.7c-0.5,0.4-1,0.7-1.6,0.7c-2.6,0.2-4.3-0.9-5.2-3.3c-1.4-3.8-3.1-7.4-5.1-10.9
		c-0.4-0.7-1.2-1.2-2.1-1.1c-20.2,1.2-35.1,2.2-44.7,3c-9,0.7-16.2,1.7-21.4,3c-12.7,3.1-19.7,4.8-21.1,5.1
		c-5.5,1.3-9.6,1.3-12.2,0.2c-4.5-2-9.4-4.2-14.6-6.7c-3.4-1.6-6.3-1.6-9.7,0c-4,2-6.3,3.2-6.8,3.5c-0.5,0.4-0.5,1.1-0.1,1.5
		c0.1,0.1,0.1,0.1,0.2,0.2c24.3,16.7,50.3,26.4,78.1,29.2c16,1.6,34.5-5.6,48.8-13.2c14.7-7.8,28-16.4,39.9-25.9
		c0.4-0.3,0.4-0.8,0.1-1.2C304.1,442.1,303.8,441.9,303.5,442z M277.5,447.7c0.6,1.2,1.2,2.1,1.7,2.7c0.3,0.4,0.9,0.5,1.3,0.1
		c0,0,0.1,0,0.1-0.1c2.2-2.2,3.6-4.4,4.1-6.4c0,0,0,0,0-0.1c0,0,0,0,0,0c0,0,0,0,0,0c0,0,0,0,0,0c-2-0.7-4.6-0.8-7.6-0.3
		c-0.5,0.1-0.9,0.6-0.8,1.1c0,0,0,0.1,0,0.1C276.5,445.5,276.9,446.5,277.5,447.7z M152.9,552.9l7.5,14.8c0.4,0.9,1.3,1.4,2.3,1.4
		c11-0.1,10.6,9.5,19.3,12c0.7,0.2,1.5-0.1,1.9-0.7c1.8-2.7,3.5-4.6,5-5.8c1.4-1.1,3.4-1.1,4.9,0c2.6,1.9,4.2,4.1,4.9,6.8
		c0.3,1.2,1.5,1.9,2.7,1.6c0.1,0,0.2,0,0.2-0.1c19.9-7.4,31.6-32.7,39.1-52.1c0.2-0.5,0-1-0.5-1.2c0,0,0,0,0,0
		c-13-4.3-24.4-9.1-34-14.5c-1.4-0.8-2-2.4-1.6-3.9l0-0.1c0.4-1.2,1.7-1.9,2.9-1.6c0.1,0,0.3,0.1,0.4,0.1
		c26.4,13.3,54,21.9,82.8,25.7c0.8,0.1,1.5-0.3,1.7-1.1c6.6-18.9,15.8-36.2,27.5-52.1c0.2-0.2,0.1-0.5-0.1-0.7
		c-0.1-0.1-0.3-0.1-0.5-0.1c-32.4,15-66,21.7-100.8,20.1c-31.1-1.4-57-13.4-82.8-29.4c-0.4-0.2-0.9-0.1-1.1,0.3
		c-0.1,0.1-0.1,0.3-0.1,0.5c0.7,15.9,2.8,31.2,6.3,45.9c0.1,0.5,0.6,0.8,1.1,0.7c0.2,0,0.4-0.2,0.5-0.3c6.1-7.7,14.4-14.2,25-19.4
		c1.5-0.7,3.3-0.5,4.6,0.5c7,5.7,13.6,26,10.2,32.8c-2.4,4.8-7.7,10.9-15.8,18.5c-0.6,0.6-1.4,1-2.2,1.3c-3.8,1.2-7.3,0.9-10.6-0.8
		c-0.3-0.1-0.6,0-0.7,0.3C152.9,552.6,152.9,552.8,152.9,552.9z M167.8,506.3c-8.9,5-21,12.6-22.8,22.5
		c-1.5,8.3,11.7,25.6,20.7,15.9c5.8-6.3,9.4-10.7,10.9-13.2c3.5-5.9-3.3-19-6.8-24.6C169.4,506.1,168.5,505.9,167.8,506.3z
		 M327.5,520.9c-11,4.5-20,11.7-30.1,19.1c-0.4,0.3-0.7,0.7-0.8,1.1l-3.5,11.9c-0.3,0.9-0.1,1.9,0.4,2.7l4,6.8
		c0.4,0.7,1,1.3,1.8,1.6c3.5,2,13.6,0.4,17.7-0.8c1.6-0.4,2.8-1.6,3.5-3.1c5.2-12.7,8-25.6,8.2-38.7c0-0.5-0.4-0.8-0.8-0.8
		C327.8,520.8,327.6,520.9,327.5,520.9z M264.3,538.1c4.8,10.2,11.3,18.9,19.5,26c0.4,0.4,1.1,0.3,1.4-0.1c0.1-0.1,0.2-0.3,0.2-0.5
		l4.1-21.4c0.1-0.3-0.1-0.5-0.4-0.6c0,0,0,0,0,0l-24-4.6c-0.4-0.1-0.8,0.2-0.9,0.6C264.2,537.7,264.2,537.9,264.3,538.1z
		 M396.7,541.4l-5.9,9.1c-0.3,0.4-0.2,1,0.2,1.2c0.1,0.1,0.3,0.1,0.4,0.2l5.3,0.5c0.7,0.1,1.4-0.5,1.5-1.2c0-0.1,0-0.1,0-0.2
		l-0.5-9.2c0-0.3-0.3-0.5-0.6-0.5C396.9,541.2,396.8,541.3,396.7,541.4z M158.1,573.6c-0.6-0.3-1.3,0-1.6,0.7
		c-0.2,0.5-0.1,1.2,0.3,1.6c0.2,0.2,0.6,0.2,1.2,0.1c0.7-0.1,1-0.5,0.8-1.2C158.5,574,158.3,573.6,158.1,573.6z M169.5,578.2l-2.4-2
		c-0.3-0.3-0.9-0.3-1.2,0.1c0,0,0,0,0,0l-0.1,0.1c-2.4,2.8-3.6,5.6-2.7,6.4l0.4,0.3c0.9,0.8,3.6-0.9,6-3.6l0.1-0.1
		C169.9,579,169.9,578.5,169.5,578.2C169.5,578.2,169.5,578.2,169.5,578.2z M192.2,581.9c-0.6-0.5-1.6-0.3-2.1,0.4
		c-0.6,0.7-0.6,1.7,0,2.2l0,0c0.6,0.5,1.6,0.3,2.1-0.4C192.8,583.3,192.8,582.4,192.2,581.9C192.2,581.9,192.2,581.9,192.2,581.9z
		 M417,590.7l8.7-3.6c0.1,0,0.2-0.2,0.1-0.3l0,0l-0.1-0.1c-1-2.3-3.7-3.3-6.2-2.3l-0.1,0c-2.5,1-3.8,3.7-2.8,6c0,0,0,0,0,0l0.1,0.1
		C416.7,590.7,416.9,590.8,417,590.7z M448.1,588l-2.4-2.8c-0.3-0.4-0.9-0.4-1.3-0.1c0,0,0,0,0,0l-0.2,0.2c-4.2,3.6-6.9,7.4-5.9,8.5
		l0,0c1,1.1,5.2-0.8,9.4-4.3l0.2-0.2C448.4,588.9,448.4,588.4,448.1,588C448.1,588,448.1,588,448.1,588z M288.4,585.5l-2.7,5.3
		c-0.1,0.2,0,0.5,0.2,0.6l0.2,0.1c1.9,1,4.2,0.5,5-1.2l0.1-0.1c0.8-1.7-0.1-3.8-2-4.8l-0.2-0.1C288.8,585.2,288.5,585.3,288.4,585.5
		C288.4,585.5,288.4,585.5,288.4,585.5z M464.5,593.5l5.3-2.2c0.2-0.1,0.3-0.3,0.2-0.5l-0.1-0.2c-0.5-1.3-2.2-1.9-3.8-1.3
		c0,0,0,0,0,0l-0.4,0.2c-1.6,0.6-2.4,2.2-1.9,3.5l0.1,0.2C464.1,593.5,464.4,593.6,464.5,593.5z M311.7,601.2l5.2-4.2
		c0.3-0.3,0.4-0.7,0.1-1.1c0,0,0,0,0,0l-1.1-1.3c-1.3-1.6-3.6-1.8-5.1-0.6l-0.7,0.6c-1.6,1.3-1.8,3.6-0.5,5.1l1.1,1.3
		C310.9,601.4,311.4,601.5,311.7,601.2C311.7,601.2,311.7,601.2,311.7,601.2z M336.9,597.2c-0.9-0.9-2.7-0.4-3.9,0.9
		c-1.3,1.3-1.6,3.1-0.7,4c0.9,0.9,2.7,0.4,3.9-0.9C337.5,599.9,337.8,598.1,336.9,597.2z"/>
	<path class="st0" d="M174.5,309.3c-2-5,6.4-11.8,10.4-14.2c17-10.1,35.7-15.5,56-16.4c6.5-0.3,11.3,1.9,14.7,6.5
		c3.2,4.5,2.6,8.6-2,12.3c-6.4,5-16,11.4-28.9,19.1c-7.7,4.6-14.4,7.9-20.3,10.1c-5.1,1.8-12.6-3.5-20.5-7.8
		C179,316.2,175.9,313,174.5,309.3z M180.9,306.1c-1.1,1.2-1.1,3.1,0.1,4.3c0.2,0.2,0.4,0.3,0.7,0.5l18.1,9.6c0.3,0.2,0.6,0.2,1,0.3
		c2.3,0.1,4.5-0.4,6.8-1.6c14.9-7.6,29.2-16.4,42.8-26.5c1.2-0.9,1.5-2.6,0.6-3.8c0,0-0.1-0.1-0.1-0.1c-4.9-5.8-12-4.5-19-3.3
		C213.1,288.6,192.5,293.7,180.9,306.1z"/>
	<path class="st0" d="M164.4,322.1c4-1.3,5.9,3.9,5.6,7.3c-0.4,5-0.4,20.6-5.8,22.7c-2.9,1.1-5.4,0.5-7.7-1.9
		c-0.1-0.2-0.3-0.3-0.3-0.5l-5.8-12.9c-0.5-1-0.4-2.2,0.1-3.1C153.3,328.1,158,324.3,164.4,322.1z M162.8,344.8l1.3-14.6
		c0-0.4-0.3-0.8-0.7-0.8c-0.1,0-0.3,0-0.4,0.1c-2.4,1.2-4.3,2.5-5.8,4.1c-0.6,0.7-0.8,1.7-0.4,2.5l4.1,9.1c0.2,0.5,0.8,0.7,1.3,0.5
		C162.5,345.5,162.8,345.2,162.8,344.8z"/>
	<path class="st0" d="M117.1,333c0.7-0.5,0.8-1.4,0.3-2.1c0,0,0,0,0,0c-1.6-2-2-3.5-1.2-4.5c1.1-1.3,3.1-1.6,4.5-0.6
		c20.6,12.9,19.9,48.9,16,69.1c-0.9,4.8-2.3,8.6-4.1,11.5c-0.4,0.6-1,1-1.7,0.9c-12.4-0.1-24.3-2.9-35.5-8.2c-2.2-1-3.6-2.4-4.4-4.3
		c-0.2-0.5-0.3-1.1-0.2-1.7c2-18.1,7.9-35,17.7-50.6C111.1,338.5,113.9,335.3,117.1,333z M105.6,395.6c-0.1-21.1,3.9-39.3,15-57
		c0.1-0.2,0.1-0.4-0.1-0.6c-0.2-0.1-0.4-0.1-0.6,0.1l0,0c-3.5,3.2-6.5,7.2-9,11.8c-7,12.9-11.7,26.8-14.1,41.5
		c-0.2,1,0.3,1.9,1.2,2.3l6,2.9c0.6,0.3,1.2,0,1.5-0.5C105.6,396,105.6,395.8,105.6,395.6z M118.7,400.4c0.2,0,0.4-0.2,0.4-0.4
		c0-0.1,0-0.2-0.1-0.3c-2.3-2.5-3.4-5.9-3.4-10.3c-0.1-6.2,2.1-38.5,14.1-36.6c0.7,0.1,1.4-0.4,1.5-1.1c0-0.3,0-0.5-0.1-0.8
		l-3.8-8.4c-0.3-0.6-1-0.9-1.6-0.6c-0.2,0.1-0.4,0.3-0.5,0.5c-9.8,16.5-14.4,34.4-13.8,53.7c0,0.8,0.4,1.5,0.9,2
		C113.7,399.6,115.9,400.4,118.7,400.4z M127.1,361.5c-1.2-0.2-3.2,6.4-4.5,14.7c0,0,0,0,0,0c-1.3,8.3-1.4,15.2-0.2,15.4
		c1.2,0.2,3.2-6.4,4.5-14.7C128.2,368.5,128.3,361.7,127.1,361.5z M123.2,401.7c5.3,0.6,6.2-0.7,7.3-5.5c1-4.3,1.7-7.9,2.1-10.7
		c0-0.3-0.1-0.6-0.4-0.6h0c-0.4-0.1-0.7,0.1-0.8,0.5c-1.1,4-3.4,10.8-6.3,13.3c-1.6,1.3-2.4,2-2.4,2c-0.2,0.4,0,0.9,0.5,1
		C123,401.6,123.1,401.7,123.2,401.7z"/>
	<path class="st0" d="M253.5,346c-3.8,5.6-6.5,11.1-8.1,16.4c-0.4,1.4-1.9,2-3.3,1.5c-0.7-0.3-1.2-0.7-1.6-1.4c-0.6-1-0.6-2.2,0-3.7
		c2.4-6.4,5.1-11.8,8.1-16.2c3-4.4,7-8.9,12.1-13.5c1.2-1.1,2.3-1.5,3.4-1.4c1.5,0.2,2.7,1.5,2.6,3c0,0.7-0.4,1.3-0.9,1.7
		C261.4,335.8,257.3,340.3,253.5,346z"/>
	<path class="st0" d="M312,336.3c15.6,17.7,27.3,45.3,24.3,69.5c-0.1,1.1-0.8,2.1-1.8,2.6c-19.7,10.8-47.4,12.8-69.7,10.3
		c-5.6-0.6-10.4-1.6-14.2-2.8c-0.8-0.3-1.3-1-1.3-1.8c0-37.2,24.9-68.2,57.6-84.1c1.4-0.7,2.9-1.1,4.5-1.2c1.2-0.1,2.3,0.8,2.4,2.1
		c0,0.6-0.1,1.2-0.5,1.6l-1.3,1.5C311.4,334.7,311.4,335.6,312,336.3z M305.4,338.9c-0.9-0.8-2.2-0.8-3.1-0.1l-14.8,10.6
		c-1.4,1-2.4,2.5-2.7,4.2c-2.7,13-3.5,27-2.2,42.2c0.5,5.6,2.2,10.8,5.2,15.8c0.3,0.5,0.8,0.8,1.3,1c2.5,0.8,5.2,0.1,7.1,0
		c12.6-0.9,23.4-3.5,32.4-7.8c1.7-0.8,2.7-2.5,2.8-4.3c0.3-19-8.4-39.7-19.4-55.1C310.6,343.6,308.4,341.5,305.4,338.9z M277.5,360
		c0-0.2-0.1-0.4-0.3-0.4c-0.1,0-0.2,0-0.3,0.1c-12.5,13.9-19.9,30.4-22.2,49.3c-0.2,1.3,0.8,2.5,2.1,2.7c0,0,0.1,0,0.1,0l23.3,2
		c0.6,0,1.1-0.4,1.1-0.9c0-0.2,0-0.4-0.1-0.6C273,396.7,275.7,376.7,277.5,360z"/>
	<path class="st0" d="M191.6,373c-4-2.6-4.2-8.9-4.4-14.1c-0.1-2.1,0.8-4.1,2.2-5.6c3.4-3.4,26.4-21.5,26.3-6.4
		c-0.1,13.6-6.8,22.2-20.1,25.9C193.6,373.3,192.2,373.4,191.6,373z M208.3,347.3l-13.3,8.3c-0.9,0.6-1.4,1.5-1.4,2.5v6.6
		c0,0.9,0.8,1.7,1.7,1.7c0.2,0,0.3,0,0.5-0.1c9.2-2.9,13.8-9,13.8-18.4c0-0.5-0.4-0.9-0.9-0.9C208.6,347.1,208.5,347.2,208.3,347.3z
		"/>
	<path class="st0" d="M305.4,349.7c5.9,0.4,9.8,12.9,8.8,28c-1,15.1-6.6,27-12.5,26.6c-5.9-0.4-9.8-12.9-8.8-28c0,0,0,0,0,0
		C293.9,361.2,299.5,349.3,305.4,349.7L305.4,349.7z M304.9,357c-2.5-0.2-5,8.6-5.8,19.6c-0.7,11,0.7,20,3.1,20.2
		c2.5,0.2,5-8.6,5.8-19.6C308.7,366.2,307.3,357.2,304.9,357z"/>
	<path class="st0" d="M156.5,424.7l0.3-0.1c1.4-0.6,3,0,3.7,1.4l2,4.4c0.6,1.4,0,3-1.4,3.7l-0.3,0.1c-1.4,0.6-3,0-3.7-1.4l-2-4.4
		C154.5,427,155.1,425.4,156.5,424.7z"/>
	<path class="st0" d="M172.4,431.8l6.6-3.8c1.3-0.8,3-0.3,3.7,1l0.1,0.2c0.8,1.3,0.3,3-1,3.7l-6.6,3.8c-1.3,0.8-3,0.3-3.7-1
		l-0.1-0.2C170.7,434.2,171.1,432.6,172.4,431.8z"/>
	<path class="st0" d="M445.3,544.4c-6.1-4.3-10.1-13.4-14.2-22.2c-4.9-10.3-8.3-17.1-0.4-25.4c4.8-5.1,25-25.3,33.8-17.3
		c6.3,5.7,7.8,23.3,8.3,32.6c0.2,5.2-0.5,9.9-3.6,14.7c-5.1,7.5-11.1,13.5-18.1,17.9C449.3,545.8,447,545.7,445.3,544.4z
		 M449.4,538.9c6.3-4.2,11.5-9.8,15.6-16.7c3.9-6.7,0.4-34.8-5.2-38.7c-0.6-0.4-1.3-0.4-1.9-0.1c-8.6,4.2-16.6,10.4-23.9,18.6
		c-2.4,2.6-2.9,5.6-1.6,8.8c4.3,10.7,9.1,19.9,14.5,27.6C447.4,539.2,448.6,539.4,449.4,538.9z"/>
	<path class="st0" d="M350.2,497.8c2-1,4.5-0.2,5.5,1.8l0.7,1.4c5.1,10.2,4.9,20.6-0.5,23.3c0,0,0,0,0,0l-0.4,0.2
		c-5.4,2.7-13.9-3.4-19-13.5l-0.7-1.4c-1-2-0.2-4.5,1.8-5.5c0,0,0,0,0,0L350.2,497.8z M350.2,504l-7.7,3.7c-0.3,0.1-0.4,0.4-0.2,0.7
		l0.3,0.6c3.3,6.8,7.8,11.3,10.1,10.2c0,0,0,0,0,0l0.3-0.1c2.3-1.1,1.6-7.5-1.7-14.2c0,0,0,0,0,0l-0.3-0.6
		C350.8,504,350.5,503.9,350.2,504z"/>
	<path class="st0" d="M486.7,520.7c1.1,0.7,1.5,2.2,0.8,3.4c0,0,0,0,0,0l-4.7,7.4c-1.7,2.7-5.1,3.6-7.6,2l-0.2-0.1
		c-2.5-1.6-3.2-5-1.5-7.7c0,0,0,0,0,0l4.7-7.4c0.7-1.1,2.2-1.5,3.4-0.8c0,0,0,0,0,0L486.7,520.7z"/>
</g>
</svg>
