<?xml version="1.0" encoding="utf-8"?>
<!-- Generator: Adobe Illustrator 26.0.1, SVG Export Plug-In . SVG Version: 6.00 Build 0)  -->
<svg version="1.1" id="Layer_1" xmlns="http://www.w3.org/2000/svg" xmlns:xlink="http://www.w3.org/1999/xlink" x="0px" y="0px"
	 viewBox="0 0 612 792" style="enable-background:new 0 0 612 792;" xml:space="preserve">
<style type="text/css">
	.st0{fill:#010101;}
</style>
<g>
	<path class="st0" d="M314.4,96.9c0.7-0.1,1.4,0.2,2,0.9c3.3,3.6,6.5,7.3,9.7,11.1c0,0,0.2,0.1,0.7,0.3c0.5,0.2,0.7,0.3,0.7,0.3
		c4.9,0.3,9.8,0.6,14.7,1c0.9,0.1,1.5,0.4,1.9,1c0.3,0.6,0.3,1.3-0.2,2.1c-2.5,4.3-5,8.5-7.5,12.7c0,0-0.1,0.3-0.1,0.8
		s-0.1,0.8-0.1,0.8c1.3,4.8,2.4,9.5,3.6,14.3c0.2,0.9,0.1,1.6-0.4,2.1c-0.5,0.5-1.2,0.7-2.1,0.5c-4.8-1-9.6-2.1-14.4-3.3
		c0,0-0.3,0-0.8,0.1c-0.5,0.1-0.8,0.1-0.8,0.1c-4.1,2.7-8.3,5.3-12.5,7.8c-0.8,0.5-1.5,0.6-2.1,0.3c-0.6-0.3-1-0.9-1.1-1.9
		c-0.5-4.9-1-9.8-1.4-14.7c0,0-0.1-0.2-0.4-0.7c-0.2-0.5-0.4-0.7-0.4-0.7c-3.8-3.1-7.6-6.3-11.3-9.5c-0.7-0.6-1-1.2-0.9-1.9
		c0.1-0.7,0.6-1.2,1.4-1.6c4.5-2,9-3.9,13.5-5.8c0,0,0.2-0.2,0.6-0.5c0.4-0.4,0.5-0.6,0.5-0.6c1.8-4.6,3.6-9.1,5.5-13.7
		C313.2,97.5,313.8,97,314.4,96.9z M324.8,113c-0.3-0.1-0.5-0.2-0.5-0.3c-2.8-3-5.6-6.1-8.3-9.2c-0.1-0.1-0.3-0.2-0.5-0.1
		c-0.3,0-0.4,0.1-0.5,0.3c-1.5,3.8-3.1,7.6-4.8,11.4c0,0.1-0.2,0.3-0.4,0.5c-0.2,0.3-0.4,0.4-0.5,0.4c-3.7,1.8-7.5,3.4-11.3,5.1
		c-0.2,0.1-0.3,0.2-0.3,0.4c0,0.3,0,0.4,0.1,0.5c3.2,2.6,6.3,5.3,9.4,8.1c0.1,0.1,0.2,0.2,0.3,0.5c0.2,0.3,0.3,0.5,0.3,0.6
		c0.5,4.1,1,8.2,1.3,12.3c0,0.2,0.1,0.3,0.3,0.4c0.2,0.1,0.4,0.1,0.6,0c3.5-2.2,7-4.3,10.5-6.4c0.1,0,0.3-0.1,0.6-0.2
		c0.3-0.1,0.6-0.1,0.7-0.1c4,0.8,8.1,1.6,12.1,2.5c0.2,0,0.3,0,0.5-0.2c0.2-0.2,0.3-0.4,0.2-0.5c-1-4-2-8-2.9-12c0-0.1,0-0.3,0-0.6
		c0.1-0.3,0.1-0.6,0.2-0.7c2-3.6,4-7.2,6.2-10.7c0.1-0.1,0.1-0.3,0-0.5c-0.1-0.2-0.3-0.3-0.4-0.3c-4.1-0.3-8.2-0.6-12.3-1
		C325.3,113.2,325.1,113.2,324.8,113z"/>
	<path class="st0" d="M118.4,180.1c-0.5,0.1-0.9,0-1.2-0.3c-5.2-5.7-8.6-9.5-10.3-11.3c-0.6-0.6-1.4-1-2.3-1.1l-14.1-1.2
		c-1.2-0.1-2.1-1.2-2-2.4c0-0.3,0.1-0.6,0.3-0.9l6.8-11.9c0.6-1,0.7-2.1,0.4-3.1l-3.7-13.3c-0.3-1.1,0.3-2.3,1.5-2.7
		c0.3-0.1,0.7-0.1,1.1,0c4,0.9,8.2,1.9,12.4,2.8c1,0.2,1.9,0.3,2.7,0.2c0.7-0.1,1.5-0.5,2.4-1.1c3.6-2.4,7.1-4.8,10.6-7.1
		c1-0.7,2.3-0.4,3,0.6c0.2,0.3,0.3,0.6,0.4,1l1.3,13.7c0.1,1.1,0.7,2.1,1.5,2.8l10.6,8.6c0.9,0.8,1.1,2.1,0.3,3.1
		c-0.2,0.3-0.5,0.5-0.7,0.6l-12.7,6.2c-0.8,0.4-1.4,1-1.7,1.8c-1,2.3-2.8,7.1-5.6,14.3C119.3,179.8,119,180,118.4,180.1z
		 M110.8,139.2c-0.3,0.1-0.5,0.1-0.6,0.1c-4.1-0.7-8.1-1.5-12.2-2.4c-0.2,0-0.3,0-0.5,0.2c-0.2,0.2-0.2,0.4-0.2,0.5
		c1.1,4,2.1,8,3,12c0,0.1,0,0.3,0,0.6c0,0.4-0.1,0.6-0.1,0.7c-1.9,3.6-3.9,7.3-6,10.8c-0.1,0.1-0.1,0.3,0,0.5
		c0.1,0.2,0.3,0.3,0.4,0.3c4.1,0.2,8.2,0.5,12.4,0.8c0.1,0,0.3,0.1,0.6,0.2c0.3,0.1,0.5,0.3,0.6,0.3c2.9,3,5.7,6,8.4,9.1
		c0.1,0.1,0.3,0.2,0.5,0.1c0.3,0,0.4-0.1,0.5-0.3c1.5-3.9,3-7.7,4.6-11.5c0-0.1,0.2-0.3,0.4-0.5c0.2-0.3,0.4-0.4,0.5-0.4
		c3.7-1.8,7.5-3.6,11.2-5.2c0.2-0.1,0.3-0.2,0.3-0.4c0-0.3,0-0.4-0.2-0.5c-3.2-2.6-6.4-5.2-9.5-7.9c-0.1-0.1-0.2-0.2-0.3-0.5
		c-0.2-0.3-0.3-0.5-0.3-0.6c-0.6-4.1-1.1-8.2-1.5-12.3c0-0.2-0.1-0.3-0.3-0.4c-0.2-0.1-0.4-0.1-0.6,0c-3.5,2.3-7,4.5-10.5,6.6
		C111.3,139.1,111.1,139.2,110.8,139.2z"/>
	<path class="st0" d="M261.1,149.7c0.5,0.3,0.7,0.7,0.7,1.1c0,2.3-0.7,7.1,0,9.1c0.7,1.9,4.4,5.2,5.8,6.9c0.3,0.3,0.3,0.7,0.1,1.3
		c-0.2,0.6-0.4,0.9-0.8,1c-2.2,0.7-7,1.5-8.6,2.8c-1.6,1.2-3.6,5.8-4.8,7.7c-0.2,0.3-0.6,0.5-1.2,0.5c-0.6,0-1-0.1-1.2-0.4
		c-1.3-1.8-3.6-6.2-5.3-7.3c-1.7-1.1-6.6-1.6-8.8-2.2c-0.4-0.1-0.7-0.4-0.9-1c-0.2-0.5-0.2-1,0.1-1.3c1.3-1.8,4.8-5.4,5.3-7.3
		c0.6-1.9-0.5-6.7-0.7-9c0-0.4,0.2-0.8,0.6-1.1c0.5-0.4,0.9-0.5,1.3-0.3c2.2,0.7,6.6,2.9,8.6,2.8c2-0.1,6.3-2.5,8.4-3.4
		C260.2,149.3,260.6,149.4,261.1,149.7z M251.5,157c-1.5,0.1-4.1-1.2-5.6-1.7c-0.1,0-0.3,0-0.5,0.2c-0.2,0.1-0.3,0.3-0.3,0.4
		c0.2,1.6,0.8,4.4,0.3,5.9c-0.4,1.5-2.4,3.6-3.3,4.8c-0.1,0.1-0.1,0.3,0,0.5c0.1,0.2,0.2,0.4,0.3,0.4c1.6,0.3,4.4,0.6,5.7,1.5
		c1.3,0.8,2.6,3.3,3.6,4.7c0.1,0.1,0.3,0.2,0.5,0.2c0.2,0,0.4-0.1,0.5-0.2c0.8-1.4,2-4,3.2-4.9c1.2-1,4-1.5,5.5-2
		c0.1,0,0.2-0.2,0.3-0.4c0.1-0.2,0.1-0.4,0-0.5c-1.1-1.2-3.2-3.1-3.7-4.5c-0.5-1.4-0.2-4.3-0.2-5.9c0-0.1-0.1-0.3-0.3-0.4
		c-0.2-0.1-0.4-0.2-0.5-0.1C255.5,155.5,253,156.9,251.5,157z"/>
	<path class="st0" d="M215.9,430c-6.4-0.1-11.8-0.3-18.4-2.2c-18.7-5.4-34.3-15.6-46.8-30.5c-0.5-0.6-1.3-0.8-2-0.6
		c-26.9,8.4-48.1-4.1-58.4-28.7c-0.8-2-2-6-3.4-11.9c-1.8-7.3-2-14.5-0.5-21.5c1.6-7.6,3.7-15.2,8-22.2c8.3-13.6,19.7-22.2,34.2-26
		c11.6-3,22.7-2.7,33.6,0.9c25.3,8.4,40.6,34.7,48.6,59.5c0.1,0.3,0.5,0.5,0.8,0.4c0.1,0,0.3-0.1,0.3-0.3l8.4-13
		c0.2-0.3,0.4-0.6,0.5-1c0.6-1.8,1.9-6,3.9-12.6c1.5-5,4-10.7,7.6-17.1c13.4-24.1,31.9-43.1,55.4-57.1c0.7-0.4,1.2-0.9,1.7-1.5
		c3.5-4.3,6.4-7.4,11.7-9c1-0.3,1.9-1.1,2.2-2.2c4.7-15.9,13.4-28.5,27-38.6c29.2-21.8,67.3-24.8,99.5-6.4
		c22.9,13.1,35.9,36,35,62.7c-0.4,12-3.4,24-2.2,35.9c0.7,6.4,1,10.8,1,13.3c0,0.7,0.4,1.4,1.1,1.7c17.5,7.6,32.6,17.2,45.3,29
		c0.7,0.7,1.6,1.2,2.4,1.7c4.5,2.2,11.4,5.5,13.9,9.5c0.8,1.4,0.4,3.1-0.9,4c0,0,0,0-0.1,0l-8.7,5c-0.4,0.2-0.6,0.8-0.4,1.2
		c1.3,2.5,2.1,4.9,2.2,7.2c0.1,1.5-1,2.9-2.5,3.1l-7.6,1.2c-0.6,0.1-1.1,0.6-1.1,1.3c-0.1,4.3-0.8,7.9-2,10.7c-0.3,0.7-1,1.1-1.8,1
		c-5.4-0.9-11.8-5.8-17.5-9.3c-0.9-0.5-1.8-0.9-2.8-1.1c-19.3-3.7-37.5-5.3-54.7-4.8c-0.7,0-1.2,0.5-1.3,1.1c-3,14-8.8,27-17.5,39
		c-0.3,0.4-0.2,0.9,0.1,1.2c8.2,9.2,13.5,19.1,16.1,29.7c3.6,15.1-7,28.3-19,36.3c-0.4,0.2-0.5,0.7-0.2,1.1c0,0,0,0,0,0
		c4.1,5.5,8,10.3,9.2,15.1c0.1,0.6,0.1,1.1-0.1,1.7l-2.2,5.9c-0.6,1.6-2.1,2.6-3.8,2.6c-15.6-0.2-32.9-3.9-46.9-7.2
		c-5.8-1.4-10.4-3.1-13.9-5.2c-4-2.4-2.7-7.7-0.4-11.6c5.9-9.7,10.5-17.4,4.1-28.5c-0.4-0.7-1.2-1-2-0.8c-19.2,5.5-39,7.4-59.4,5.1
		c-0.5-0.1-1,0.2-1.3,0.6c-9.3,13.7-20.3,26.5-32.9,38.5c-1.2,1.1-2,2.5-2.3,4.1c-1.5,7-2.6,12.6-7.2,17.8c-0.7,0.8-1.8,1.1-2.8,0.9
		c-5-1.1-8.3-4.5-12.2-8.7c-0.5-0.5-1.1-0.7-1.8-0.6l-13.4,3.1c-1.5,0.4-3.1-0.5-3.6-2l-3.8-10.8c-0.3-0.8-0.9-1.3-1.7-1.5
		c-5.9-1.3-11.4-2.1-16.2-6c-0.9-0.8-1.2-2.1-0.7-3.2c3.1-6.1,7.1-11.5,12-16c0.6-0.5,1-1.2,1.3-2c1-2.8,1.3-6.6,2-8.9
		c2.6-7.7,5.9-15,9.9-22c0.1-0.2,0-0.4-0.1-0.5C216,430,216,430,215.9,430z M421.2,328.3c13.7-4.3,24.8-12.8,34.9-23.7
		c1.1-1.2,2-2.6,2.6-4c0.2-0.5,0.3-1.1,0.3-1.6c-1.1-11.1-2-22.5-0.3-33c1.3-8.3,1.9-13.7,1.8-16.3c-0.4-8.5-1.6-15.9-3.8-22.2
		c-8.9-26.3-33.2-41.5-59.9-45.7c-24.2-3.7-49.7,4.4-68.3,20.4c-9.4,8.1-15.4,17-19.5,28.4c-12.2,33.8-5.5,63.6,24.4,84.2
		c10.8,7.5,24,13,39.5,16.7c0,0,0,0,0,0l0.1-0.3c0-0.1,0-0.3-0.2-0.4c-15.4-6.1-28.4-15-39-26.7c-4.8-5.3-8.4-8.5-10.7-9.4
		c-1-0.4-1.5-1.5-1.1-2.5c0-0.1,0.1-0.1,0.1-0.2l0.2-0.4c0.6-1,1.8-1.4,2.9-0.9c0,0,0,0,0,0c5.4,3.1,11.3,5.3,17.7,6.6
		c17.9,3.6,37.4,6.5,58.1,11c4.5,1,9.7,1.1,13.4,0.1c13.1-3.7,24-6.3,32.7-7.8c0.9-0.2,2.8-1.2,5.7-3.2c1-0.7,2.4-0.5,3.1,0.5
		c0,0,0,0,0.1,0.1l0.1,0.2c0.7,1,0.5,2.5-0.6,3.2c0,0,0,0,0,0l-2.8,1.9c-0.5,0.3-0.9,0.7-1.3,1.2c-7.4,10.2-17.4,17.9-30,23
		c-0.2,0.1-0.4,0.2-0.6,0.4c-0.1,0.1-0.1,0.2-0.1,0.3C421,328.3,421.1,328.4,421.2,328.3z M300.9,241.5c0.1-0.3-0.1-0.6-0.4-0.7
		c-0.1,0-0.3,0-0.4,0.1c-8.5,5-9.1,12.6-9.3,21.9c-0.2,8.4-2.1,16-6.7,22.5c-0.2,0.3-0.2,0.8,0.2,1.1c0.1,0.1,0.2,0.1,0.3,0.1
		c4,0.7,7.6,1.9,10.7,3.7c0.6,0.3,1.4,0.3,1.9-0.2c2.2-2.1,3.7-4.4,4.4-6.9c0.2-0.7,0.2-1.4,0-2.1c-0.8-3.1-2.4-9.2-2.8-13.4
		C297.7,258.4,298.5,249.8,300.9,241.5z M245.2,292.2c11.2-3.8,21.9-6.4,32.2-7.7c1-0.1,2-0.7,2.5-1.5c3.2-4.6,5.1-9.7,5.7-15.4
		c0.2-1.9,0.5-6.7,0.8-14.4c0-0.3-0.2-0.5-0.4-0.5c-0.1,0-0.2,0-0.3,0.1c-16,10.2-29.7,23.2-41,38.9c-0.1,0.2-0.1,0.4,0.1,0.5
		C245,292.2,245.1,292.2,245.2,292.2z M155.1,395c2.3,3,5,6,8.3,8.8c15.2,13.3,34.4,22.9,54.6,21.3c0.8-0.1,1.6-0.5,2-1.2l3.8-5.3
		c0.4-0.5,0.3-1.3-0.1-1.8c-5.1-5.3-5.7-11.1-1.9-17.4c0.7-1.1,1-1.7,1.1-1.7c0.2-0.2,0.3-0.4,0.2-0.7l-4.9-21.2
		c0-0.1-0.1-0.3-0.2-0.4l-5.2-10.4c-0.2-0.5-0.6-0.8-1.1-1l-3.7-1.3c-1.7-0.6-2.5-2.4-2-4c0,0,0,0,0,0l1.7-4.9
		c0.2-0.5,0.2-1.1,0-1.6c-10-29.9-27-62-61.7-63c-13.8-0.4-25.7,3.3-35.5,11.2c-12.5,10-19.8,26.1-20.4,42
		c-0.4,11.9,4.1,27,11.4,36.5c9.3,12.1,21.8,17.1,37.5,15.1c15.7-2.1,26.7-10.6,32.8-25.6c3.6-8.7,2.7-16.6-2.8-23.6
		c-4-5.2-13.7-9.6-20.6-7.1c-11.2,4.1-13.1,12.3-10.8,23.3c0.2,0.9-0.4,1.7-1.2,1.9c-0.1,0-0.1,0-0.2,0l-0.9,0.1
		c-1,0.1-1.9-0.5-2.3-1.4c-5.8-16.4,6.9-30.9,23.8-28.7c11.4,1.5,20.2,11.4,21.3,22.7c1.6,15.4-9.9,31.1-23.2,38.6
		C155,394.3,154.9,394.7,155.1,395C155.1,394.9,155.1,394.9,155.1,395z M298.9,339.1c17.6,7.5,36.9,11.7,56.2,13.9
		c23.3,2.7,45.8,2.2,68.2-4.8c1-0.3,1.6-1.2,1.7-2.2l0.4-12.8c0-0.4-0.3-0.8-0.8-0.8c-0.1,0-0.2,0-0.3,0.1
		c-32.5,12.7-70.1,3.4-97.1-16.3c-9.1-6.6-16.5-15.4-22.2-26.3c-0.2-0.5-0.8-0.6-1.3-0.4c-0.1,0.1-0.2,0.2-0.3,0.3l-2.5,3.3
		c-0.5,0.7-0.5,1.5-0.1,2.2c2.4,3.9,3.9,6.6,4.5,8.2c4.9,13.2,2.8,24.7-6.5,34.7c-0.2,0.2-0.2,0.6,0,0.8
		C298.8,339,298.9,339,298.9,339.1z M247.5,367l10.7-11.6c0.6-0.6,1.3-1,2.1-1.2c14.5-2.7,26.7-9.8,36.7-21.3
		c2.4-2.7,3.9-5.2,4.6-7.4c2.7-8.6,1.4-19.7-4.1-26.6c-14.2-17.8-36.9-2.7-48.9,8.8c-14.7,14.1-27,30.6-37.1,49.4
		c-0.3,0.6-0.1,1.4,0.5,1.7c0.2,0.1,0.4,0.1,0.6,0.1h5.5c0.5,0,0.9-0.4,0.9-0.9v-7.1c0-1.2,1-2.3,2.3-2.3c0.1,0,0.1,0,0.2,0l0.1,0
		c1.3,0.1,2.3,1.1,2.2,2.4c-0.1,5.2,0.3,9.7,1.5,13.7c0.2,0.8,1.1,1.3,1.9,1c0.2-0.1,0.4-0.2,0.6-0.3l8.4-7.6
		c0.1-0.1,0.2-0.3,0.3-0.5c0.1-0.5,0.2-1.4,0.2-2.6c0-1,0.8-1.7,1.8-1.7c0.3,0,0.5,0.1,0.8,0.2c0.9,0.4,1.4,1,1.7,1.7
		c2,5.3,3.8,9.3,5.2,11.8c0.3,0.4,0.8,0.6,1.3,0.3C247.4,367.1,247.5,367,247.5,367z M258.5,292.7l-16.8,5.9
		c-1.1,0.4-2.1,1.2-2.8,2.2c-4.2,6.5-7.4,13.4-9.8,20.7c-0.1,0.1,0,0.3,0.1,0.3c0.1,0.1,0.3,0,0.3-0.1c8.6-11,18.4-20.3,29.4-28.1
		c0.2-0.1,0.3-0.4,0.2-0.7C259,292.7,258.7,292.6,258.5,292.7z M338.1,301.1c-0.2,0-0.4,0.1-0.4,0.3c0,0.1,0,0.3,0.1,0.3
		c11.1,11.5,23.6,19.8,37.4,25c9.7,3.6,20.9,4.5,29.9,2.1c9.6-2.5,18.5-6.4,26.5-11.5c0.4-0.3,0.6-0.8,0.4-1.3
		c-1.2-2.5-2.5-4.4-3.9-5.7c-0.5-0.4-1.1-0.5-1.7-0.3c-7.7,2.6-14.4,3.9-20.3,3.9c-0.6,0-1.1-0.1-1.7-0.2L338.1,301.1z M443.3,306
		l-9.7,2.3c-0.4,0.1-0.6,0.5-0.5,0.8c0,0.1,0.1,0.2,0.1,0.3l2.5,3.5c0.3,0.5,1,0.6,1.4,0.2c0,0,0.1-0.1,0.1-0.1l6.6-6
		c0.2-0.2,0.2-0.6,0-0.8C443.7,306.1,443.5,306,443.3,306z M520.6,343.1c-2.7-2.8-7.6-4.8-11.4-6.6c-1.2-0.6-2.4-1.4-3.3-2.3
		c-12-12.2-27.6-21.1-43.6-28c-0.6-0.3-1.3-0.1-1.7,0.4c-5.2,6-11.4,11.6-18.9,16.7c-3.9,2.6-8.8,4.7-11.7,6.8
		c-0.4,0.3-0.7,0.8-0.6,1.3c0.4,6.4,0,14.7-1.3,24.9c-0.1,0.4,0.3,0.9,0.7,0.9c0,0,0.1,0,0.1,0c18.1-0.1,37,1.6,56.6,5.1
		c0.5,0.1,0.9,0.3,1.3,0.5l13.7,8.7c0.3,0.2,0.8,0.1,1-0.2c0.1-0.1,0.1-0.2,0.1-0.3c1.1-6.7,1.5-12.6,1.1-17.8
		c0-0.7,0.4-1.4,1.1-1.6c5.1-1.7,10.6-4.4,16.6-8C520.7,343.5,520.8,343.3,520.6,343.1C520.7,343.2,520.7,343.1,520.6,343.1z
		 M371.6,358.8c-22.1-0.9-43.4-4.7-63.8-11.3c-4.7-1.5-6.8-2.6-12-4.9c-0.5-0.2-1-0.1-1.4,0.2l-10.9,7.8c-0.5,0.4-0.7,1-0.4,1.6
		l16.9,36.9c0.5,1.2,1.5,2.1,2.7,2.5c1.8,0.7,3.3,1.1,4.3,1.3c15.3,2.9,30,4.3,44.2,4.2c1,0,1.8-0.5,2.3-1.4l19-35.7
		c0.2-0.4,0.1-0.9-0.3-1.1C371.9,358.9,371.7,358.9,371.6,358.8z M358.3,397.1c12.6,0.4,24.5-0.8,35.5-3.6c2.7-0.7,4.5-1.5,5.2-2.5
		c7.5-10.1,14.9-20.1,22.3-29.9c1.8-2.4,2.6-4.5,2.5-7.3c0-0.3-0.3-0.6-0.6-0.6c-0.1,0-0.1,0-0.2,0c-14.3,4.1-29.2,6.1-44.7,5.9
		c-0.7,0-1.3,0.4-1.6,1c-5.2,11.9-10,20.7-18.8,36.5c-0.1,0.1,0,0.3,0.1,0.4C358.1,397.1,358.2,397.1,358.3,397.1z M254.8,396.7
		c-0.2,0.2-0.2,0.5,0,0.7c0,0,0.1,0.1,0.1,0.1l9.4,4.6c1.3,0.6,2.7,0.7,4,0.2l26.5-10.3c0.5-0.2,0.8-0.8,0.6-1.3c0,0,0,0,0-0.1
		l-16.7-36.5c-0.2-0.5-0.8-0.7-1.3-0.5l-6.1,2.4c-0.8,0.3-1.3,1.1-1.2,1.9c1.1,10.8-1.1,20.5-6.7,29.1
		C260.8,390.9,257.2,394.3,254.8,396.7z M508.6,359.5l3.8-0.5c0.6-0.1,1-0.6,0.9-1.2c0,0,0,0,0,0l0-0.3c-0.3-2.1-1.7-3.6-3.2-3.5
		l-0.4,0.1c-1.5,0.2-2.5,2-2.2,4.1l0,0.3C507.5,359.1,508.1,359.5,508.6,359.5C508.6,359.5,508.6,359.5,508.6,359.5z M226.8,413
		c0.4,0.3,1,0.2,1.3-0.2c5.4-6.6,11.3-13.4,19.4-16.5c0.6-0.2,1.2-0.6,1.7-1c11.7-9.4,17.9-20.9,16.6-35.9c-0.1-1-1-1.8-2-1.7
		c-0.4,0-0.8,0.2-1.1,0.5l-8.1,8.1c-0.9,0.9-1.4,2-1.6,3.2c-1,8.6-10.7,18.8-17.5,23.9c-5,3.8-7.6,5.7-7.7,5.8
		C224.3,402.6,221.8,409.8,226.8,413z M243,378.1l3.5-2.4c0.2-0.1,0.2-0.3,0.1-0.5c0,0,0,0,0,0l-8.2-12.2c-0.1-0.2-0.3-0.2-0.5-0.2
		l-3.6,2.4c-0.1,0.1-0.1,0.3,0,0.5c0,0,0,0,0,0l8.2,12.2C242.7,378.2,242.9,378.2,243,378.1z M222.8,371.4l3.5,21.8
		c0.1,0.4,0.5,0.7,0.9,0.6c0.1,0,0.2-0.1,0.3-0.1c4.7-3.1,8.6-6.6,11.9-10.4c0.3-0.4,0.4-0.9,0.1-1.4l-8-12c-0.4-0.7-1.3-0.8-2-0.4
		c-0.1,0-0.1,0.1-0.2,0.2c-1.8,1.7-3.7,2-5.6,1c-0.3-0.2-0.7,0-0.9,0.3C222.8,371.1,222.7,371.2,222.8,371.4z M418.7,372.3
		l-16.1,21.5c-0.2,0.2-0.2,0.5-0.1,0.8l2.4,5.2c0,0.1,0.1,0.1,0.2,0.1c0,0,0.1,0,0.1-0.1c6.4-8.5,11.2-17.5,14.3-27
		c0.1-0.2-0.1-0.5-0.3-0.6C419,372.1,418.8,372.2,418.7,372.3z M272.2,406.9c9.4,7,16.5,15.5,21.2,25.5c0.2,0.5,0.8,0.8,1.3,0.7
		c8.2-1.7,19.5-4.3,33.9-7.6c2.5-0.6,5.3-1,6.9-2.9c3.6-4.5,8-10.9,13.1-19.3c0.3-0.4,0.1-1-0.3-1.2c-0.1-0.1-0.3-0.1-0.5-0.1
		c-11.7-0.2-22.6-1.1-32.6-2.7c-2.7-0.4-7.9-1.6-15.7-3.5c-0.7-0.2-1.5-0.1-2.2,0.1l-25.1,9.8c-0.4,0.1-0.6,0.6-0.4,1
		C272,406.7,272.1,406.8,272.2,406.9z M345,438.6c21.7-5.5,40.2-16.4,55.7-32.8c0.6-0.7,0.8-1.6,0.5-2.5l-1.8-5.3
		c-0.3-0.9-1.2-1.3-2.1-1c-13.4,4.5-26.5,5-41.9,5.1c-0.3,0-0.6,0.2-0.8,0.4l-15.9,24.2c-0.3,0.4-0.3,0.9-0.1,1.4l5,9.9
		C343.9,438.5,344.5,438.8,345,438.6z M196.7,478.2c-0.5,0.8-0.3,2,0.5,2.5c0.2,0.1,0.3,0.2,0.5,0.2l15.2,4.4
		c0.3,0.1,0.5,0.3,0.6,0.6l3.2,11.6c0.1,0.5,0.6,0.7,1.1,0.6c0,0,0,0,0,0l13.9-3.9c0.9-0.2,1.9,0.1,2.4,0.9c2.5,3.8,5.5,6.6,9.1,8.6
		c0.6,0.3,1.4,0.2,1.8-0.4c2.9-3.9,3.8-9.6,5.2-15.7c0.3-1.3,1-2.5,2-3.4c9.8-9.4,18.1-18.5,25-27.3c3.9-5,13.3-17.1,11.8-22
		c-0.8-2.8-2.3-5.7-4.5-8.8c-7.8-11.2-17.9-19.1-30.1-23.5c-2.2-0.8-4.4-1.2-6.7-1.3c-0.7,0-1.3,0.2-1.9,0.5
		c-2.5,1.6-4.9,3.6-7.1,5.9c-13.9,14.2-26.7,35.2-30.1,55.5c-0.2,1.1-0.7,2.1-1.6,2.8C203.4,469.1,199.9,473.2,196.7,478.2z
		 M405.6,407c-13.3,15.2-29.6,26.2-49.1,32.9c-0.3,0.1-0.5,0.5-0.4,0.9c0,0.1,0,0.1,0.1,0.2c5.4,8,4.8,18.7-0.4,26.8
		c-0.3,0.5-2.1,3.4-5.2,8.6c-0.5,0.9-0.3,2,0.6,2.6c2.3,1.6,6.7,3.6,9.4,4.1c17.3,3.8,28.1,5.9,32.4,6.4c3.6,0.4,8.4,0.8,14.3,1.2
		c0.8,0,1.4-0.5,1.5-1.3c0-0.4-0.1-0.7-0.4-1l-4.5-4.9c-0.4-0.4-0.4-1.1-0.1-1.6c0.8-1,1.7-1.6,2.6-1.7c0.6-0.1,1-0.7,0.9-1.3
		c0-0.2-0.1-0.4-0.3-0.6l-4.7-5.2c-0.4-0.4-1-0.5-1.5-0.3l-6.4,3.2c-0.7,0.4-1.7,0.2-2.2-0.4l-0.5-0.5c-0.7-0.8-0.6-1.9,0.1-2.6
		c0.1-0.1,0.2-0.2,0.3-0.2c11.5-6.5,26.5-15.4,28.9-29.7c2-11.9-6.6-26.5-14.3-35.7C406.6,406.7,406.1,406.6,405.6,407
		C405.7,406.9,405.6,407,405.6,407z M292.7,442.5c0,0.3,0.2,0.5,0.4,0.5c15.9,1.2,30.7,0.4,44.5-2.3c0.8-0.2,1.3-0.9,1.2-1.7
		c0-0.1-0.1-0.2-0.1-0.3l-3.6-8c-0.5-1-1.6-1.5-2.6-1.3c-22.1,5.1-34,7.7-35.5,7.9C294.2,437.7,292.8,439.4,292.7,442.5z"/>
	<path class="st0" d="M354.5,231.5c-0.5-1.2-0.7-2.4-0.5-3.7c0.1-0.8,1-1.4,1.8-1.3c0.2,0,0.5,0.1,0.7,0.3
		c7.4,5.5,15.4,12,19.1,20.4c0.2,0.6,0.4,1.2,0.4,1.8c0.5,8.5-0.5,17.3-3.1,26.4c-1.2,4.2-1.9,10.4-7.8,10.7
		c-7.5,0.4-15.4-0.6-23.5-2.9c-1.6-0.4-2.8-1.6-3.5-3c-0.7-1.6-1.2-4.1-1.4-7.4c-1-14.4,4.7-32,17.4-40.5
		C354.6,232.2,354.7,231.9,354.5,231.5z M362.3,235.7c-1.9-1.9-6.3-0.7-9.9,2.8c-3.6,3.5-5,7.9-3.1,9.8c0,0,0,0,0,0
		c1.9,1.9,6.3,0.7,9.9-2.8c0,0,0,0,0,0C362.8,242.1,364.2,237.7,362.3,235.7C362.3,235.7,362.3,235.7,362.3,235.7z M342.3,256.3
		c-1.4,4.4-3.7,18.6-0.3,22.8c0.5,0.6,1,0.9,1.7,1c0.4,0,0.7-0.3,0.7-0.7c0-0.1,0-0.1,0-0.2c-1.6-6.1-2.1-13.7-1.4-22.7
		c0-0.2-0.2-0.3-0.4-0.3C342.5,256.1,342.4,256.2,342.3,256.3z M369.2,266.3c-1.2,4.4-3.7,7.6-7.5,9.5c-5.8,3.1-11-3.6-12-8.1
		c-0.1-0.4-0.5-0.6-0.8-0.5c-0.2,0-0.4,0.2-0.5,0.3c-1.4,2.8-1.7,6.3-0.7,10.5c0.3,1.3,1.3,2.3,2.6,2.6c5.4,1.2,9.9,1.6,13.5,1.3
		c1.4-0.1,2.6-1.1,3-2.5l3.6-12.6c0.1-0.3,0-0.6-0.3-0.7l-0.4-0.2C369.6,265.9,369.3,266,369.2,266.3
		C369.2,266.2,369.2,266.2,369.2,266.3z"/>
	<path class="st0" d="M450.6,239.6c2.7,2.9,4.3,6.9,4.7,12c0.8,9.6,0.4,18.5-1.2,26.6c-0.3,1.6-1.4,3-3,3.6c-2.9,1.2-15,5.9-18.3,4
		c-0.4-0.2-0.6-0.6-0.7-1c-0.7-6.3,0-15,0.6-21.1c1-11,6-20.9,15-29.5c0.8-0.8,1.5-1.1,2.2-1c1.1,0.1,1.9,1.2,1.8,2.3
		c0,0.3-0.1,0.5-0.3,0.8c0,0-0.3,0.6-1,1.8C450.1,238.6,450.2,239.2,450.6,239.6z M447.6,242c-0.9-0.6-3.3,1.5-5.3,4.6c0,0,0,0,0,0
		c-2,3.1-2.9,6.1-1.9,6.7c0.9,0.6,3.3-1.5,5.3-4.6c0,0,0,0,0,0C447.6,245.6,448.5,242.6,447.6,242z M451.6,267.9
		c0,0-0.1,1.9-0.3,5.7c0,0,0,0.1,0,0.1c0,0,0.1,0,0.1-0.1c0,0,0,0,0,0c0.6-2,0.9-3.9,0.9-5.6c0-0.2-0.1-0.4-0.4-0.4
		C451.8,267.7,451.6,267.8,451.6,267.9z M436.5,275.5v5.1c0,0.4,0.4,0.8,0.8,0.8c0.1,0,0.1,0,0.2,0c4.4-1.1,10.8-1.8,9.9-6.9
		c0-0.3-0.3-0.4-0.5-0.4c-0.2,0-0.3,0.1-0.4,0.3c-1.5,2.9-4,3.7-7.6,2.3c-0.1,0-0.3-0.3-0.7-0.7c-0.4-0.4-0.7-0.7-0.9-0.9
		c-0.2-0.2-0.5-0.1-0.7,0.1C436.5,275.3,436.5,275.4,436.5,275.5z M450.7,275.3c-0.1,0-0.4,0.3-0.5,0.8c-0.1,0.5-0.1,0.9,0,0.9
		c0,0,0,0,0,0c0.1,0,0.4-0.3,0.5-0.8C450.9,275.7,450.9,275.3,450.7,275.3C450.7,275.3,450.7,275.3,450.7,275.3z"/>
	
		<ellipse transform="matrix(0.6639 -0.7478 0.7478 0.6639 -91.6686 400.8155)" class="st0" cx="400.1" cy="302.4" rx="2.5" ry="4.1"/>
	
		<ellipse transform="matrix(0.7593 -0.6508 0.6508 0.7593 -96.9993 344.152)" class="st0" cx="416.7" cy="303.2" rx="4.1" ry="2.4"/>
	<path class="st0" d="M432.3,545.7c0.6,0.2,1,1.2,1.4,3c1.2,5.4,2.4,14.2,4.6,28.1c0.1,0.8,0.6,1.6,1.3,2.1l25.1,17.7
		c0.8,0.6,1,1.6,0.4,2.4c-0.2,0.2-0.4,0.4-0.6,0.5L437.6,613c-0.9,0.5-1.6,1.3-1.9,2.3c-1.7,5.4-4.5,14.3-8.5,26.8
		c-0.3,0.8-0.7,1.7-1.4,2.6c-0.5,0.7-1.6,0.8-2.3,0.3c0,0-0.1-0.1-0.1-0.1c-6.6-6.3-13.3-12.7-20-19.4c-1.1-1.1-1.9-1.7-2.5-2
		c-0.6-0.2-1.6-0.3-3.1-0.3c-9.4,0.2-18.7,0.2-27.9,0.2c-0.9,0-1.6-0.7-1.6-1.6c0-0.1,0-0.1,0-0.2c0.1-1.1,0.4-2.1,0.8-2.9
		c5.8-11.8,10-20.2,12.5-25.2c0.5-0.9,0.5-2,0.2-3l-9.9-28.3c-0.3-0.9,0.2-1.9,1.1-2.2c0.3-0.1,0.5-0.1,0.8-0.1l30.3,4.6
		c0.8,0.1,1.7-0.1,2.4-0.6c11.2-8.6,18.2-14.1,22.7-17.1C430.7,545.8,431.7,545.5,432.3,545.7z M406.2,568.6c-0.8,0.2-1.8,0.2-3.2,0
		c-5.9-1-14.2-2.2-25.2-3.7c-0.1,0-0.2,0.1-0.3,0.2c-0.1,0.2-0.2,0.3-0.2,0.4c3.4,10.5,6.1,18.5,8.1,24.1c0.4,1.3,0.6,2.3,0.6,3.1
		c-0.1,0.8-0.4,1.8-1,3c-2.7,5.3-6.5,12.9-11.3,22.8c0,0.1,0,0.2,0.1,0.4c0.1,0.2,0.2,0.3,0.3,0.3c11,0,19.5,0,25.4-0.2
		c1.3,0,2.4,0.1,3.1,0.4c0.8,0.3,1.6,0.9,2.5,1.9c4.2,4.2,10.2,10.2,18.2,17.8c0.1,0.1,0.2,0.1,0.4,0c0.2-0.1,0.3-0.1,0.3-0.2
		c3.4-10.5,6-18.5,7.6-24.2c0.4-1.3,0.8-2.2,1.4-2.9c0.5-0.6,1.4-1.2,2.6-1.8c5.3-2.7,12.8-6.6,22.5-11.8c0.1,0,0.1-0.2,0.2-0.4
		c0-0.2,0-0.3-0.1-0.4c-8.9-6.5-15.8-11.4-20.7-14.8c-1.1-0.8-1.9-1.5-2.3-2.2c-0.4-0.7-0.8-1.7-1-3c-0.9-5.9-2.3-14.2-4.3-25.1
		c0-0.1-0.1-0.2-0.3-0.3c-0.2-0.1-0.3-0.1-0.4,0c-8.9,6.5-15.7,11.5-20.4,15.1C407.9,567.9,407,568.4,406.2,568.6z"/>
	<path class="st0" d="M299.8,641.1c-0.5,0.1-0.7,0.2-0.7,0.2c-3.8,3.1-7.7,6.1-11.6,9c-0.7,0.6-1.4,0.7-2.1,0.5
		c-0.6-0.3-1.1-0.8-1.3-1.7c-1-4.8-2-9.6-2.8-14.5c0,0-0.1-0.2-0.4-0.7c-0.3-0.4-0.4-0.6-0.4-0.7c-4.1-2.7-8.2-5.5-12.2-8.3
		c-0.8-0.5-1.1-1.2-1.1-1.8c0-0.7,0.4-1.3,1.3-1.7c4.3-2.5,8.5-4.8,12.9-7.2c0,0,0.2-0.2,0.5-0.6c0.3-0.4,0.5-0.6,0.5-0.6
		c1.3-4.7,2.7-9.5,4.1-14.2c0.3-0.9,0.7-1.4,1.4-1.6c0.7-0.2,1.4,0,2,0.7c3.6,3.3,7.2,6.6,10.8,10c0,0,0.3,0.1,0.7,0.3
		c0.5,0.2,0.7,0.3,0.7,0.3c4.9-0.2,9.8-0.4,14.7-0.5c0.9,0,1.6,0.3,2,0.8c0.4,0.6,0.4,1.3,0,2.1c-2,4.5-4.1,8.9-6.2,13.4
		c0,0,0,0.3,0,0.8c0,0.5,0,0.8,0,0.8c1.7,4.6,3.4,9.2,5,13.9c0.3,0.9,0.2,1.6-0.2,2.1c-0.4,0.5-1.1,0.8-2,0.7
		c-4.9-0.5-9.8-1.1-14.6-1.8C300.5,640.9,300.3,640.9,299.8,641.1z M299.6,612.3c-0.3-0.1-0.5-0.2-0.6-0.3c-3.1-2.7-6.2-5.5-9.2-8.3
		c-0.1-0.1-0.3-0.1-0.5-0.1c-0.2,0.1-0.4,0.2-0.4,0.3c-1.1,4-2.3,7.9-3.6,11.9c0,0.1-0.1,0.3-0.3,0.5c-0.2,0.3-0.4,0.4-0.5,0.5
		c-3.5,2.1-7.1,4.2-10.7,6.2c-0.1,0.1-0.2,0.2-0.2,0.4c0,0.3,0.1,0.4,0.2,0.5c3.4,2.3,6.8,4.7,10.1,7.1c0.1,0.1,0.2,0.2,0.4,0.5
		c0.2,0.3,0.3,0.5,0.3,0.6c0.9,4,1.8,8.1,2.5,12.1c0,0.2,0.2,0.3,0.4,0.4c0.2,0.1,0.4,0.1,0.6,0c3.2-2.5,6.5-5,9.9-7.5
		c0.1-0.1,0.3-0.1,0.6-0.2c0.3-0.1,0.6-0.1,0.7-0.1c4.1,0.4,8.2,0.8,12.3,1.3c0.2,0,0.3-0.1,0.4-0.2c0.2-0.2,0.2-0.4,0.2-0.5
		c-1.4-3.9-2.8-7.8-4-11.7c0-0.1,0-0.3,0-0.6c0-0.4,0-0.6,0.1-0.7c1.6-3.8,3.3-7.6,5.1-11.3c0.1-0.1,0.1-0.3-0.1-0.5
		c-0.1-0.2-0.3-0.3-0.5-0.3c-4.1,0.1-8.3,0.2-12.4,0.2C300.1,612.5,299.9,612.5,299.6,612.3z"/>
	<path class="st0" d="M356.8,691.9c-2,0-6.2,2.4-8.3,3.2c-0.4,0.1-0.8,0-1.3-0.3c-0.5-0.3-0.7-0.7-0.7-1.1c0-2.2,0.8-7,0.2-8.9
		c-0.6-1.9-4.2-5.2-5.6-6.9c-0.3-0.3-0.3-0.7-0.1-1.3c0.2-0.5,0.4-0.9,0.8-1c2.1-0.6,6.9-1.4,8.5-2.6c1.6-1.2,3.6-5.6,4.8-7.5
		c0.2-0.3,0.6-0.5,1.2-0.5c0.6,0,1,0.1,1.2,0.5c1.3,1.8,3.5,6.2,5.1,7.3c1.6,1.1,6.4,1.7,8.6,2.3c0.4,0.1,0.7,0.4,0.8,1
		c0.2,0.5,0.2,1-0.1,1.3c-1.4,1.8-4.8,5.2-5.4,7.1c-0.6,1.9,0.3,6.6,0.5,8.9c0,0.4-0.2,0.8-0.7,1.1c-0.5,0.3-0.9,0.5-1.3,0.3
		C363,694.1,358.7,691.8,356.8,691.9z M352.7,676.4c-0.7,0.6-2.4,1-5.1,1.3c-0.6,0.1-1,0.6-0.9,1.2c0,0.2,0.1,0.3,0.2,0.5
		c0.1,0.1,0.8,0.9,2,2.1c2.1,2.2,2,4.3,1.5,7.2c-0.1,0.5,0.2,0.9,0.7,1c0.1,0,0.3,0,0.4,0l4.8-1.7c0.4-0.1,0.8-0.1,1.2,0
		c2.6,1,4.7,2.1,5.3,1.7c0.5-0.4,0.1-2.8-0.2-5.5c0-0.4,0.1-0.8,0.3-1.2l3-4.1c0.3-0.4,0.2-0.9-0.2-1.2c-0.1-0.1-0.3-0.2-0.4-0.2
		c-2.9-0.3-5-0.8-6.5-3.4c-0.9-1.5-1.4-2.4-1.5-2.5c-0.4-0.5-1.1-0.5-1.5-0.1c-0.1,0.1-0.2,0.2-0.3,0.4
		C354.4,674.3,353.5,675.8,352.7,676.4z"/>
</g>
</svg>
