<?xml version="1.0" encoding="utf-8"?>
<!-- Generator: Adobe Illustrator 26.0.1, SVG Export Plug-In . SVG Version: 6.00 Build 0)  -->
<svg version="1.1" id="Layer_1" xmlns="http://www.w3.org/2000/svg" xmlns:xlink="http://www.w3.org/1999/xlink" x="0px" y="0px"
	 viewBox="0 0 612 792" style="enable-background:new 0 0 612 792;" xml:space="preserve">
<style type="text/css">
	.st0{fill:#010101;}
</style>
<g>
	<path class="st0" d="M474.5,468.2c0.3,0,2-1,5-2.9c8.9-5.6,17.5,0.6,19.7,9.5c2.5,10.3,2.1,19.7-1.5,28c-0.2,0.6,0,1.3,0.5,1.6
		c3.1,2,4.8,4,4.9,6c0.5,6.6,1.5,16.3-3.4,21.5c-7.4,7.9-11.2,14.2-13.4,25c-1.5,7.2-4.1,13.5-7.9,18.6c-0.7,0.9-0.9,2-0.7,3.1
		c1.7,9.6,3.3,16.1-5.3,23.1c-5.8,4.8-12.9,8.3-21.2,10.7c-0.8,0.2-1.3,1.1-1.1,1.9c1.6,6.8,0.3,12.8-3.7,17.8
		c-2.5,3.1-6.1,4.1-9.2,6.1c-0.9,0.6-1.6,1.3-2.2,2.2c-0.8,1.2-4.4,7.5-10.8,18.8c-8.6,15-18.4,17.3-32.7,7.6
		c-4.4-2.9-11.3-3-16-1.1c-7.8,3.2-7.2,12.7-17.6,14c-1.5,0.2-6.5,0-15-0.5c-6.2-0.4-14-7.3-20-13c-0.7-0.7-1.5-1.2-2.4-1.6
		c-2.1-0.9-3.6-1.5-4.7-1.6c-21.6-2.7-39.6-6.3-56.8-19.9c-0.7-0.6-1.8-0.5-2.5,0.1c-8.8,8.8-19.7,13.2-32.7,13.2
		c-8.3,0-12.8-4.5-16.1-11.3c-0.3-0.7-1.1-1-1.8-0.8c-7,2.2-15.8,2.8-26.5,1.7c-6.7-0.6-11.1-1.9-13.2-3.7
		c-4.1-3.6-7.8-9.5-7.5-15.2c0.1-1.1,0-1.9-0.1-2.4c-0.1-0.6-0.5-1.1-1-1.3c-7.5-3.8-12.9-6.6-16.2-8.5c-11.9-7-17.1-17.9-18.7-31
		c-0.3-2.8,0.3-4.7,0.8-6.7c0.4-1.8,0-3.7-1.2-5.2c-6.6-8.1-11.4-16-12.6-26.6c-1.3-10.6-3.8-20.9,5.2-27.3c0.5-0.4,0.9-1,0.9-1.7
		c0-1.5-0.3-3.4-0.8-5.9c-1.5-7.7-0.5-15.3,3-22.8c1.4-3.1,2.5-5.1,3.4-6.1c1.7-2,5.8-3.2,6.9-5.2c2-3.7,3.6-6.6,5-8.7
		c0.5-0.8,1-1.5,1.7-2.1c7.7-7.6,13.3-16.5,17-26.7c1.7-4.6,3.2-7.9,4.8-9.7c6-7.1,10.6-7.2,19.3-7.3c0.7,0,1.5-0.3,2-0.8
		c9.7-9.7,12.7-20.4,8.8-31.9c-1.6-4.7-3.5-8-5.8-10.1c-10.2-9.1-24.1-5.2-35.6-1.8c-1.6,0.5-4.8,0.5-9.5,0.2
		c-8-0.6-14.3-4.1-15.9-12.3c-2.3-11.7,6.1-23.4,15.7-29.8c0.5-0.4,0.7-1,0.4-1.6c-0.7-1.2-1.3-2.4-1.9-3.6
		c-5.5-11.9,11.3-21.2,20.3-23.8c6.1-1.8,12.2-2.7,18.6-2.9c0.5,0,0.9-0.4,0.9-0.9c0-0.1,0-0.2,0-0.3c-6.6-19.8-12.6-41.1-18.2-63.9
		c-1.5-6.1-5.3-16.1-11.5-29.8c-5.3-11.8-7.2-23.9-5.7-36.4c0.9-7.1,3.8-9.1,9.2-12c0.6-0.3,0.9-0.9,0.9-1.6c0-0.8-0.2-1.8-0.4-2.9
		c-0.8-4,1.2-16.7,7.6-18.2c10.5-2.4,18.1-0.7,27.3,5c9,5.4,16.2,9.5,21.8,15.2c2.3,2.4,6.1,6.1,11.4,11.1c0.7,0.6,1.6,0.7,2.4,0.3
		c8.7-4.6,16.8-3.2,24.3,4.3c5.6,5.6,10.4,10.8,14.5,15.6c1.2,1.4,2.9,2.1,4.7,1.9c17.9-1.5,19.2,26.8,20.4,37.5
		c0.2,2.1,0.8,4.2,1.7,6.2c12.2,25.6,20.3,41.5,24.5,54.3c0.2,0.5,0.7,0.7,1.1,0.6c0.3-0.1,0.5-0.3,0.6-0.6
		c2.2-6.8,1.4-12.8-3.7-19.4c-7.7-10.1-15.2-34,6.3-36c5.3-0.5,11.1,0.9,17.4,4.3c1.2,0.7,2.7,0.6,4-0.1c4.3-2.5,10.3-3.6,17.9-3
		c0.6,0,1.1-0.4,1.1-1c0,0,0-0.1,0-0.1c0-0.5-0.2-1.2-0.5-2.1c-2.2-6.1-1.6-15.6-0.7-22.2c0.7-5.4,3.5-11.3,8.4-17.7
		c2-2.6,4.5-2.4,6.7-4.3c0.8-0.7,1.3-1.6,1.4-2.6c1.4-12.7,7.7-23.4,18.8-32.2c4.2-3.3,10.6-1.5,15,1.2c0.7,0.4,1.6,0.2,2.1-0.5
		c9.4-14.7,22.3-26.7,38.9-36.1c12.7-7.2,33-8.9,39.7,7.2c0.4,0.9,1.1,3.5,2.2,7.8c0.2,0.6,0.5,1.2,1,1.6c1.6,1.4,4.4,2.5,5.9,4.3
		c9.8,11.3,2,31.4-1.9,43.1c-0.4,1.2-0.6,2.5-0.6,3.8c0.1,11.1,0.2,25.6,0.3,43.6c0,1.9-0.2,3.9-0.6,6.2c-3.2,17.7-7.8,33.6-14,47.9
		c-1.4,3.3-6.2,13.4-14.4,30.2c-4.6,9.6-10.3,16.9-17,27.9c-3,5-7.7,10.7-13.9,17.2c-0.4,0.4-0.4,0.9-0.1,1.4
		c13.4,18.5,25.9,35.8,28.5,58.7c0.6,5.6,0.2,13.2,0.4,19c0,1.5,0.5,3,1.4,4.3c4.7,7,8.8,15.6,12.4,25.7
		C473.1,467.9,473.8,468.3,474.5,468.2z M263.5,399.5c-1.2,2.4-2.3,5.8-3.5,10.1c-6.2,22.7-4.3,44.9,5.6,66.4
		c7.7,16.8,18.8,28.2,34.8,36.5c15.9,8.3,32.7,12.1,50.2,11.5c49.4-1.7,99.9-33.9,98.4-89c-0.4-16.8-2.7-31.4-10.6-46.3
		c-2.8-5.2-7.2-12.2-13.2-21c-2.6-3.8-6-5.7-10.2-5.8c-0.7,0-1.2-0.6-1.2-1.2c0-0.3,0.1-0.6,0.4-0.8c14.2-13.4,26.3-28.9,36-46.6
		c4.3-7.7,12.6-20.7,16.6-30.2c9.2-21.7,14-44.9,14.4-69.4c0.1-6.5,0.2-16.7,0.4-30.9c0-2.8,0.5-5.6,1.5-8.2
		c2.8-7.7,10.9-29,1.3-31.8c-0.7-0.2-1.5,0-2,0.6l-4.8,5.6c-0.6,0.7-1.6,0.8-2.3,0.2c-0.2-0.2-0.4-0.4-0.5-0.7
		c-0.2-0.5-0.2-1-0.2-1.6c0.5-7.4,0.5-13.7,0-19c-0.3-2.5-1.6-4.4-4-5.6c-5.2-2.6-10.9-2.2-17.1,1.1c-21.8,11.7-39.2,28.8-52.2,51.5
		c-0.5,0.9-1.6,1.2-2.4,0.7c-0.5-0.3-0.9-0.8-0.9-1.4c-0.3-3,1.3-10.5-2.3-12.5c-3.7-2.1-8.1,3.5-9.7,6.1c-6.5,11-9.2,23.8-8.3,38.3
		c0.1,0.9-0.3,1.8-1,2.4l-0.4,0.4c-0.5,0.5-1.3,0.4-1.8-0.1c-0.2-0.2-0.3-0.4-0.3-0.7c-0.4-3.1-0.9-5.5-1.4-7.3
		c-0.6-1.9-2.2-3-3.7-2.5c0,0,0,0,0,0c-7.9,2.4-9.2,21.4-8.3,27.5c2.4,15.1,3.7,23.9,3.9,26.3c0.4,4,0.2,14.1-0.7,30.4
		c-0.6,11,1.2,22.5,5.2,34.5c3.2,9.4,12.4,24.1,12.6,37.9c0.2,15.5-6.3,24.8-19.7,27.8c-0.7,0.2-1.2,0.8-1.2,1.5c0,2,0.1,4,0.2,6.1
		c1,13.4-3.9,24.6-15.6,31.5c-15.4,8.9-32.9,9.6-49.3,4.4c-14-4.4-24.4-13.2-31.1-26.5c-0.2-0.5-0.8-0.6-1.2-0.4
		C263.8,399.1,263.6,399.3,263.5,399.5z M229.6,195c-3.3-2.3-7.6-7.7-12.8-13.6c-10.8-12.4-25.6-23.7-38.7-31.3
		c-3.4-1.9-17.8-8.7-20.2-2.6c-1.3,3.1-1.8,5.2-1.7,6.2c1.1,6.7,2.8,13.7,5.1,21c0.4,1.2,0.3,2.2-0.1,3c-0.3,0.5-0.9,0.7-1.4,0.4
		c-0.1-0.1-0.2-0.2-0.3-0.3c-2.3-3.3-3.9-5.4-4.7-6.3c-1.2-1.2-2.1-1.7-2.7-1.8c-2.5-0.1-4.6,2-4.8,4.8c-1,13.1,6.4,28.8,8.9,36.7
		c5.6,17.4,9.1,34,14.4,50c13.8,41.3,34.2,75,74.4,94.1c3.5,1.7,7.4,2.9,11.5,3.6c0.8,0.1,1.5-0.4,1.7-1.2l1-5.2
		c0.1-0.8-0.3-1.5-1-1.8c-12.7-5-27.8-11.9-37.3-22.1c-19.2-20.6-30.3-44.7-38.6-71.8c-4.5-14.5-6.2-25.3-2.6-39.7
		c1.9-7.5,6.6-10.8,14-10.1c10.9,1.1,19.6,7.3,27.3,13.8c23.4,19.9,40.9,43.1,52.3,69.6c0,0.1,3.8,8.4,11.2,24.9
		c0.3,0.7,1.1,1,1.8,0.7c0.1,0,0.1-0.1,0.2-0.1l14-8.8c1.2-0.7,1.8-2.1,1.6-3.4c-0.7-5.1-1.7-9.8-3.1-14
		c-5.2-15.5-11.6-29.9-19.2-43.3c-2.8-4.9-6.1-13.2-6.2-18c-0.2-6.8-1.9-22.1-6.3-25.7c-8.4-6.9-10.4,6.2-10.9,11
		c-0.1,0.7-0.6,1.2-1.2,1.3l-0.6,0.1c-0.6,0.1-1.1-0.3-1.2-0.9c0-0.1,0-0.1,0-0.2l0.4-8.1c0-0.8,0-1.6-0.2-2.4
		c-2.3-9.4-11.9-29.4-24.1-27.5c-1.9,0.3-3.2,2.1-2.9,4c0,0.3,0.1,0.5,0.2,0.7l5,12.8c0.2,0.6-0.1,1.2-0.7,1.5
		C230.3,195.3,229.9,195.2,229.6,195z M281,318.2c-12.2-30.7-26-59-49.9-81.3c-11.3-10.6-17.2-16-17.5-16.4
		c-6.3-6.3-26.9-17.7-30.8-2.8c-2.2,8.4-2.3,17.3-0.5,26.6c3.8,19.2,11.1,38.2,21.9,56.8c13.3,22.9,30.4,38.7,55.2,45.6
		c0.8,0.2,1.6-0.2,2-0.9c5-10.6,11.5-17.5,19.2-25.9C281.1,319.6,281.2,318.8,281,318.2z M343.2,258c-0.8-0.5-2.8-2.1-5.9-5
		c-3-2.7-7.4-5.8-13.2-9.3c-3.2-1.9-7.1-2.4-11.7-1.5c-10.2,2.1,0.4,18.8,3.1,23c1.2,1.9,2.3,4.2,3.2,6.8
		c5.1,14.6,1.1,26.4-12.2,35.4c-11.1,7.6-21,13.2-28.7,20.8c-15.9,15.9-20.6,35.4-14,58.7c6.3,22.1,23.4,36.8,46.5,38.3
		c12.9,0.8,23.4-0.4,34.4-8c7.2-5,11.4-11.1,12.5-18.1c2.3-14.6-2.2-26.2-13.4-34.9c-0.6-0.5-1-1.1-1-1.7c-0.1-0.6,0.4-1.2,1-1.2
		c0.2,0,0.3,0,0.5,0.1c7.3,3,11,8.8,14.8,16.7c0.3,0.6,1,1,1.7,0.9c7.4-1.3,12.3-4.6,14.7-10.1c8.9-20.4-4.8-37.2-10.7-52.1
		c-6.7-16.9-4.5-33.7-3.1-56.7c0.1-1.8-0.5-3.5-1.7-4.8c-4.4-4.8-11.9-13.9-17.4-12.2c-1.3,0.4-1.9,2.2-1.6,4.1
		c0.5,2.7,1.6,5.9,3.4,9.6c0.2,0.5,0,1-0.5,1.3C343.8,258.1,343.4,258.1,343.2,258z M234.1,462.7c3.7-9.1,8.9-16.4,15.5-22.1
		c2.3-2,3.6-4.9,3.7-7.9c0.1-13.1,2.6-22.9,6.6-35.8c0.6-2.6,0.7-5.3,0.4-8l-3.1-22.3c-0.2-1.5-1.2-2.9-2.7-3.5
		c-20.7-8.9-38.6-18.2-52.9-35.5c-1.4-1.7-4.1-5.1-8.1-10.2c-2.6-3.3-6.1-4.8-10.6-4.7c-6.1,0.2-11.4,0.4-15.9,0.6
		c-5.8,0.2-12.8,2.5-21.2,7.1c-4.7,2.6-5.3,8.7,1.2,9.7c2.4,0.4,4.7,0.4,7,0.2c0.9-0.1,1.6,0.6,1.7,1.4c0.1,0.6-0.3,1.2-0.8,1.5
		c-11.8,5.8-22.1,12.2-25.3,25.8c-2,8.3,5.3,11.9,12.2,10c9.9-2.7,17.6-4.4,23.2-4.9c19-1.7,30.9,14.6,33,31.9
		c1.7,14.2-8.2,26.1-16.8,37.2c-0.9,1.2-1.4,2.7-1.3,4.2l0.9,15c0.1,1.1-0.5,2.1-1.4,2.7l-0.5,0.3c-0.5,0.3-1.2,0.2-1.5-0.3
		c-0.1-0.2-0.2-0.4-0.2-0.7c0.4-6.3,0.8-16.1-3.2-20.5c-4.8-5.3-10.4-1.7-12.1,3.8c-2.1,7-4.1,12.5-6.2,16.5
		c-0.6,1.1-1.3,2.2-2.1,3.2c-6.2,7.6-10.6,13.7-13.3,18.4c-3.9,6.9-1.2,10.2,2.8,16.9c2.4,4,3.6,9.5,3.6,16.4c0,1.2-0.7,1.6-2.2,1.3
		c-0.6-0.2-1.1-0.6-1.2-1.2c-1.9-10.3-2.1-15.6-8.4-21.7c-1-1-2.7-1.1-3.8-0.3c-6.2,4.2-7.8,13.7-7.1,20.7c0.5,4.5,1.6,11.9,5,14.9
		c9.2,8.2,14.5,13.1,15.9,14.7c0.6,0.7,0.6,1.7-0.1,2.4l-0.6,0.6c-0.4,0.5-1.2,0.5-1.6,0.1c-0.1,0-0.1-0.1-0.1-0.2
		c-4.2-5.8-8.6-10-13.3-12.7c-5.5-3.2-10.4-0.7-11.3,5.3c-1.6,11.7,6.6,25.7,13.6,34.7c4.8,6.2,8.9,7.5,17.4,11
		c3,1.2,5.9,2.9,8.8,5.1c0.5,0.3,0.7,0.9,0.6,1.5l-0.1,0.6c-0.1,0.6-0.7,0.9-1.2,0.8c-0.1,0-0.2-0.1-0.4-0.1
		c-4.3-2.6-8.8-4.9-13.7-6.8c-4.9-2-8.3-0.7-10.2,3.8c-2.3,5.5,0.5,9.9,4.5,14.7c8.3,10,19.5,16.1,33.5,18.5
		c1.2,0.2,2.5,0.2,3.6-0.2c4.4-1.2,13.3-5.9,18.3-4c0.5,0.2,0.8,0.8,0.6,1.4c-0.1,0.3-0.4,0.5-0.7,0.6c-7.6,2.4-13.7,4.6-18.4,6.8
		c-4.5,2.1-5.7,5.3-3.6,9.5c2.3,4.6,8.2,4.6,13.5,4.4c14.1-0.5,25.8-2.9,35.3-7c0.8-0.3,1.7,0,2,0.8c0.1,0.3,0.2,0.6,0.1,1
		c-0.8,3.4-4,8.2-3.4,13.5c0.1,0.6,0.4,1.1,0.9,1.5c10.8,7.5,27.4-6,33.8-13.8c0.4-0.6,0.4-1.4,0-1.9c-6.1-7.9-9.9-16.5-12.7-25.7
		c-2.2-7.4-6.1-12.7-11.2-20.4c-4.6-6.9-10.3-10.9-17.3-12.1c-13.7-2.3-9.8-13.1-1.3-18.4c0.5-0.3,0.6-0.9,0.3-1.4
		c-0.1-0.1-0.2-0.2-0.3-0.3c-6.6-4-13.5-10.5-12.4-18.1c1-6.8,9.3-6.6,14.9-5.9c0.3,0,0.6-0.2,0.7-0.5c0,0,0-0.1,0-0.2
		c-1.5-10.1-5.3-18.3-11.1-24.5c-2.9-3.1-4.9-6.7-5.3-10.6c-1.4-12,10.2-8.8,17.6-6.2c0.4,0.1,0.9-0.1,1-0.5c0-0.1,0-0.2,0-0.2
		c0-0.6-0.3-2.4-0.9-5.3c-1.2-5.7-1.1-11,0.2-15.8c3-10.7,13.5-11.7,17.5-1c0.2,0.5,0.7,0.7,1.2,0.5
		C233.8,463.1,234,462.9,234.1,462.7z M251.5,444.6c-11.7,7.9-14.1,19.4-17.2,32.3c-0.1,0.5-0.6,0.8-1,0.7c-0.3-0.1-0.6-0.3-0.6-0.6
		c-1.3-4.6-3-9.5-5-14.7c-0.8-2.2-2.8-3.6-4.7-3.5c-9.4,0.6-3.2,27.4-1.1,33.1c0.2,0.4,0.2,0.9,0.1,1.4c-0.1,0.7-0.2,1.2-0.3,1.4
		c-0.3,0.6-1,0.8-1.6,0.5c-0.1,0-0.2-0.1-0.3-0.2c-5-4.4-9.3-8.3-15.7-8.7c-1.7-0.1-3.1,1.2-3.4,2.9c-0.7,5.8,3.7,9.9,8.5,15.8
		c2.1,2.6,3.6,5.7,4.5,8.9c1.2,4.4,2.3,8,3.3,11c0.7,2.1,3.8,5.6,9.2,10.4c0.5,0.4,0.7,0.8,0.7,1.2c0,0.6-0.5,1.2-1.1,1.2
		c-0.2,0-0.3,0-0.5-0.1c-7.2-3-18.1-8.4-21.9-6.6c-1.9,0.9-2.8,3.1-2.1,5.2c3.2,9,11,13,19.7,15.8c0.8,0.3,1.3,1.1,1,1.9
		c-0.1,0.3-0.3,0.6-0.6,0.8c-0.7,0.4-1.3,0.6-1.9,0.5c-4.7-0.5-8.4,0.8-11,3.8c-1.5,1.8-2.4,3.2-2.5,4.3c-0.2,2.1,1.6,3.9,4.1,4.2
		c0.1,0,0.1,0,0.2,0c8.9,0.4,13.2,3.4,18.7,11.1c5.6,7.8,8.4,11.8,8.5,12c7,9.9,12.5,14,23.9,13.8c5.7-0.1,11.8-1.5,18.4-4
		c0.9-0.3,1.9,0.1,2.2,1c0.1,0.1,0.1,0.3,0.1,0.4c0,0.2-0.2,0.4-0.6,0.8c-4.8,3.9-8,6.8-9.7,8.5c-3.8,3.7-3.8,8.9,2.5,9.8
		c8.1,1.2,15.7,0.2,22.7-3c0.8-0.4,1.7,0,2.1,0.8c0.3,0.6,0.1,1.4-0.4,1.9c-2.8,2.5-7.8,7-7.6,10.4c0.1,1.8,1.9,3.4,4.4,4
		c13.5,3,30.7-4.2,42.7-11.8c0.4-0.3,1.1-0.4,1.9-0.3c0.6,0,1.1,0.6,1,1.2c0,0.1,0,0.2-0.1,0.4c-1.9,4.3-5.3,10.4-4.4,14.2
		c0.5,2,2.6,3.1,4.7,2.7c10.3-2.4,15-10.2,19.9-18.9c0.2-0.4,0.7-0.5,1-0.3c0.2,0.1,0.3,0.3,0.4,0.5c3.1,11.3,4,25.6,16.5,30.6
		c2,0.8,4.3,0.4,5.7-1c6.2-5.9,5.4-13.1,4.8-21.6c0-0.6,0.4-1,0.9-1.1c0.4,0,0.8,0.2,1,0.5c1.9,3.3,2.4,8,7.4,7.6
		c5-0.5,5.5-10,4.8-13.5c-0.5-2.6-1.2-6.5-2.2-11.7c-0.2-0.8,0.3-1.6,1-1.7c0.1,0,0.2,0,0.3,0c0.6,0,1.1,0.4,1.5,1
		c7.2,10.3,17,15.7,29.4,16.2c2.4,0.1,4.3-0.8,5.8-2.7c3.8-4.8-2.5-13.5-6.1-20.1c-0.3-0.5-0.1-1.1,0.4-1.3c0.2-0.1,0.3-0.1,0.5-0.1
		c12.7,0.8,27.3,0.8,34.9-10.7c1.6-2.4,2.5-5.6-0.1-7.7c-5.5-4.4-8-0.2-13.2-0.4c-0.8,0-1.4-0.7-1.4-1.5c0-0.5,0.3-1,0.8-1.2
		c9.9-5.1,17.6-10.4,20.5-21.7c1.6-6,1.6-16.1,6.4-24.3c3.1-5.3,9-9.2,12.3-13.1c4.7-5.7,2.9-12.3-5.1-11.5
		c-1.2,0.1-3.3,0.7-6.1,1.7c-0.5,0.2-1.1-0.1-1.3-0.6c-0.1-0.3-0.1-0.6,0.1-0.8c5.9-11.1,10.7-22.5,7.9-35.1
		c-0.6-2.5-2.6-4.3-4.8-4.1c-9.1,0.8-10.5,9.2-12.6,17.3c-0.2,0.6-0.8,1-1.4,0.8c-0.3-0.1-0.6-0.3-0.7-0.6l-0.9-1.6
		c0,0,0-0.1-0.1-0.1c-1.7-12-6.9-30.9-16.8-37.9c-0.4-0.3-1-0.2-1.3,0.2c-0.1,0.1-0.2,0.3-0.2,0.4c-3.4,29.1-24.2,50.9-50.5,63.6
		c-34.6,16.7-68.5,17-101.7,1c-19.7-9.5-33.2-26.3-40.8-46.2c-3-7.9-4-17.5-5.6-24.1c-0.1-0.5-0.7-0.9-1.2-0.7
		C251.7,444.4,251.6,444.5,251.5,444.6z M317.8,652.5l-7.6-10.6c-1.1-1.6-3-2.5-4.9-2.5c-6.2,0-9.9-0.2-11.2-0.8
		c-4.6-2-7.5-5.5-6.1-10.3c0.4-1.4,0.6-2.3,0.7-2.6c0.1-0.4-0.2-0.8-0.6-0.9c-0.1,0-0.1,0-0.2,0c-2.3,0.2-6.4,0.2-12.3,0
		c-4.4-0.2-7.4-2.1-8.8-6c-1.2-3,0.3-5.7,1.6-9.8c0.2-0.5-0.1-1-0.6-1.2c-0.1,0-0.3-0.1-0.4,0c-7.6,0.9-14.9-0.4-22.1-4
		c-0.3-0.2-0.8,0-0.9,0.3c-0.1,0.2-0.1,0.3,0,0.5c6.7,24.4,24.1,37.6,47.3,45.4c7.9,2.7,16.4,4.1,25.4,4.2c0.6,0,1.1-0.5,1.1-1.1
		C318,653,318,652.7,317.8,652.5z M407.9,623.4c0.4,9-1.2,17.8-12.5,17.7c-0.6,0-1.1,0.4-1.4,0.9c-1.9,4.6-4.4,11.2,0.2,15.2
		c8.8,7.9,16.4,9.9,22.4-2.3c3.2-6.5,6.3-13.7,9.3-21.8c0.4-1-0.1-2.1-1-2.5l-16-7.8c-0.3-0.2-0.7,0-0.9,0.3
		C407.9,623.2,407.9,623.3,407.9,623.4z M332.9,630.8l-19.1,7.4c-0.7,0.3-1,1-0.8,1.7c0.1,0.1,0.1,0.3,0.2,0.4
		c2.2,2.5,7.5,8.2,15.7,17.2c4.2,4.6,7.8,7.6,10.7,8.9c5.4,2.6,16.6,4.9,21-0.6c8.6-10.8,5.1-22,0.4-33.5c-0.2-0.4-0.6-0.6-1-0.4
		c-0.1,0.1-0.2,0.1-0.3,0.3c-3.8,5.2-7.9,8.7-12.2,10.7c-5.7,2.6-13.7,3.4-14.6-4.8c-0.2-2.2,0.3-4,0.6-6.8c0.1-0.3-0.1-0.6-0.4-0.6
		C333.1,630.7,333,630.7,332.9,630.8z"/>
	<path class="st0" d="M388.6,341.3c-0.4-1.7-2.6-8.7-6.5-21c-6.5-20.6-7.1-41-1.9-61.3c5.8-22.5,14.4-43.1,25.7-61.6
		c7.9-12.9,17.5-22.8,31.2-27.8c14.3-5.2,24.6,7,26.8,20.3c6.7,40.8-0.2,79.2-20.7,115.2c-8.2,14.4-20.4,28.2-31.9,40
		c-0.5,0.5-1.3,0.5-1.8,0c-0.3-0.3-0.4-0.6-0.4-1c0.5-6.9,1.1-11.9-0.4-17.4c-1.9-6.8-7.9-6.6-11-0.8c-0.7,1.3-3.3,6.5-7.8,15.6
		c-0.2,0.4-0.6,0.5-1,0.3C388.8,341.6,388.7,341.5,388.6,341.3z M415.1,335.2c8.9-9,15.8-17.3,20.8-24.9
		c17.9-27.7,26.7-57.9,26.5-90.6c0-9.1-0.1-20.3-2.4-29.5c-2.8-11.6-11.4-23.7-25.1-15.8c-13.2,7.6-21.3,16.1-29,30.6
		c-9.5,17.7-16.3,33.7-20.4,47.8c-7.5,25.7-6.5,51,3,75.8c0.3,0.8,1.2,1.2,2,0.9c0.3-0.1,0.5-0.3,0.7-0.5c3.3-4.5,7.6-12,12.3-11.3
		c9.7,1.4,8.7,10.5,10.8,17.4c0.1,0.3,0.4,0.4,0.7,0.3C415,335.3,415.1,335.3,415.1,335.2z"/>
	<path class="st0" d="M381.3,434.2c14.5-11.6,32-5.3,34.4,13.3c2.5,18.8-1.4,36.1-16.1,49.5c-5.6,5.2-12.4,7.5-20.3,7.2
		c-17.4-0.8-23.3-16.1-20.6-31.3C361.6,456.8,369.2,443.9,381.3,434.2z M397.4,479.7c4.6,0,8.2-1.5,10.9-4.5c0.8-0.9,1.5-2,1.8-3.2
		c3.6-12.1,3.5-22.6-0.4-31.7c-2.4-5.6-6.5-8.5-12.2-8.5c-5.7,0-9.7,2.8-12.2,8.4c-4,9-4.2,19.6-0.7,31.7c0.4,1.2,1,2.3,1.8,3.2
		C389.1,478.1,392.8,479.7,397.4,479.7z M405.3,482.8c-13.7,1.7-23.1-1.7-25.6-16c-1.5-8.5-1.3-17,0.6-25.5c0.1-0.3-0.1-0.7-0.5-0.7
		c-0.2,0-0.4,0-0.6,0.2c-11.7,12.4-23.5,34.8-15.2,51.2c3.9,7.6,11.8,9.8,19.9,7.9c9.3-2.2,16.6-7.5,22-16c0.2-0.3,0.1-0.7-0.2-0.9
		C405.6,482.8,405.5,482.8,405.3,482.8z"/>
	<path class="st0" d="M271.9,432c3.3-0.2,5.8,1,7.5,3.7c6.8,10.3,12.2,22.4,16.1,36.3c1.9,6.9,4.3,20.5-6.6,20.7
		c-2.6,0-7.7-3.5-9.6-5.9c-11-14.3-15.3-30.4-13-48.4c0.2-1.5,1.5-3.3,3.8-5.5C270.7,432.3,271.2,432.1,271.9,432z M273.2,436
		c-0.7-0.2-1.4,0.2-1.7,0.8c-2.2,4-2.2,9.7-2,14.3c0.6,13.1,6.3,30.7,18.2,37.3c1.7,0.9,3.7,0.4,4.7-1.2l0.3-0.5
		c0.9-1.4,0.5-3.4-1-4.3c-0.1-0.1-0.2-0.1-0.3-0.2c-4.1-2-6.7-3.9-8-5.8c-7.3-10.9-9.7-22.4-7.2-34.5
		C276.9,438.7,276,436.6,273.2,436z M279.9,446.4c-1.2,10.2,0,27.4,11.5,31c0.7,0.2,1.4-0.1,1.6-0.8c0.1-0.2,0.1-0.5,0-0.7
		c-2.6-10.4-6.5-20.3-11.8-29.8c-0.2-0.4-0.6-0.5-1-0.3C280.1,446,280,446.2,279.9,446.4z"/>
	
		<ellipse transform="matrix(4.013184e-02 -0.9992 0.9992 4.013184e-02 -171.9407 787.2962)" class="st0" cx="323.8" cy="483.1" rx="3.2" ry="7.9"/>
	<path class="st0" d="M312.8,489c3.5,1.6,6.4,5.1,10.7,6.3c6.5,1.8,10.1-3.9,13.8-7.2c0.4-0.4,1-0.4,1.4,0c0.3,0.3,0.3,0.7,0.2,1
		c-1.8,4.5-4.4,7.6-7.9,9.1c-7.6,3.4-15.6-1.6-18.7-8.6c-0.1-0.3,0-0.5,0.3-0.7C312.5,488.9,312.7,488.9,312.8,489z"/>
</g>
</svg>
