<?xml version="1.0" encoding="utf-8"?>
<!-- Generator: Adobe Illustrator 26.0.1, SVG Export Plug-In . SVG Version: 6.00 Build 0)  -->
<svg version="1.1" id="Layer_1" xmlns="http://www.w3.org/2000/svg" xmlns:xlink="http://www.w3.org/1999/xlink" x="0px" y="0px"
	 viewBox="0 0 612 792" style="enable-background:new 0 0 612 792;" xml:space="preserve">
<style type="text/css">
	.st0{fill:#010101;}
</style>
<g>
	<path class="st0" d="M366.2,266.9c-0.1,0.3,0,0.7,0.4,0.8c0.1,0.1,0.3,0.1,0.4,0c10.6-3.4,20.5-6,29.8-7.9c7.4-1.5,47-6.8,50.9,0.1
		c1,1.7,0.4,4-1.3,5.4c-13.2,10.8-25.4,22.2-36.6,34.1c-0.2,0.2-0.2,0.6,0,0.9c0,0,0.1,0.1,0.2,0.1c2.6,1.1,4.9,1.7,7.1,1.7
		c10.6,0,23.9-0.7,39.7-1.9c34.1-2.8,64.2-4.5,90.4-5.3c2.8-0.1,8.3,1.9,6.9,5.8c-0.8,2.2-2.2,4.3-4.2,6.1
		c-8.3,7.4-18.6,15.3-26.6,22.7c-25.6,23.8-48.4,43.9-69.4,67.4c-0.2,0.2-0.2,0.6,0.1,0.8c0.1,0.1,0.3,0.1,0.4,0.1
		c10.8-1.2,20.4-1.6,28.6-1.1c3.3,0.2,4.9,1.3,4.9,3.4c0,0.6-0.2,1.1-0.6,1.5l-25.9,30.1c-0.2,0.2-0.2,0.5,0,0.7
		c0.1,0.1,0.2,0.1,0.3,0.1c7,0.3,11.8,0.6,14.2,0.9c3.9,0.4,6.4,0.9,7.6,1.4c1.7,0.6,2.5,2.5,1.9,4.2c-0.1,0.4-0.4,0.7-0.6,1
		l-7.9,8.8c-0.3,0.4-0.4,0.9-0.1,1.3c4.3,6.3,9.4,4.1,14.1,7.3c13,8.9,19.9,28.2,14.3,43.5c-2.5,6.7-9.3,3.9-14.2,2.7
		c-0.2,0-0.3,0-0.4,0l-26,13.2c-0.1,0.1-0.3,0.2-0.4,0.2c-0.8,0.6-2.9,2.3-6.2,5.2c-5.8,5.1-15,8.2-22.2,9.1
		c-8.9,1.1-22,2.1-32.8,1.1c-0.6-0.1-1.2,0.3-1.6,0.8l-6,10.3c-0.5,0.8-0.5,1.8,0,2.6c9.9,18.4,11.6,40.6,12.1,59
		c0,1.7,0.8,3.3,2,4.5c5.9,5.4,10.1,9,13.3,14.2c1,1.6,0.4,3.7-1.2,4.7c-0.2,0.1-0.4,0.2-0.6,0.3l-12.1,4.3c-1,0.3-1.6,1.4-1.3,2.4
		c1.2,4.3,1.8,6.4,1.8,6.5c-0.5,2.4-3,4-5.4,3.5c0,0,0,0,0,0l-13-3c-0.7-0.2-1.4,0.3-1.6,1c0,0.1,0,0.2,0,0.3c0,2.7-0.6,4.4-3.5,5.3
		c-11.2,3.3-18.8,2.5-30.6,0c-16.3-3.4-29.7-14.8-39.3-27c-6.1-7.8-11.6-15.7-19.7-18.2c-0.4-0.1-0.8,0.1-0.9,0.5
		c-0.1,0.3,0,0.5,0.2,0.7l14,15.4c1.2,1.3,1.1,3.3-0.2,4.4c-0.3,0.3-0.7,0.5-1.2,0.7c-1.7,0.5-3.2,0.9-4.6,1.1
		c-28.4,4.8-53.4-2.2-75-21c-0.5-0.5-1.3-0.6-2-0.4l-14.1,5c-0.8,0.3-1.4,0.7-1.9,1.4c-4.8,6.5-12.3,14.1-22.5,23
		c-3.7,3.2-7.3,5.9-10.9,7.9c-5,2.9-9.4,2.2-13.1-1.9c-4.3-4.9-6.8-7.9-7.5-9.1c-0.4-0.8-1.4-1.1-2.2-0.7
		c-7.2,3.4-14.6,5.9-22.3,7.4c-4.2,0.8-7.5,0.5-8.1-4.3c-0.4-3.6-0.5-8.5-0.3-14.7c0-0.6-0.5-1.1-1.1-1.2c-6-0.5-13.4-2.2-9.2-10.3
		c3.5-6.9,7.6-13.3,12.3-19.2c0.4-0.5,0.4-1.2,0.1-1.7c-15.5-26-11.9-60.6-0.2-87.2c3-7,4.6-10.4,4.6-10.5c0.4-0.9,0.4-2,0.1-2.9
		c-2.8-8.5-4.2-17.7-4.3-27.5c0-0.4-0.4-0.8-0.8-0.8c-0.2,0-0.4,0.1-0.6,0.3l-6.3,7.3c-0.5,0.6-0.7,1.4-0.4,2.1c1,2.7,2,5.7,3.2,9
		c3.3,9.5-4.6,9.8-11.3,10.2c-1.7,0.1-3.1,1.2-3.6,2.8c0,0.1-1.1,3-3.2,8.8c-3.9,10.6-11.4-0.2-15.4-4.1c-0.5-0.5-1.4-0.5-1.9,0
		c-0.2,0.2-0.3,0.5-0.4,0.7c-0.6,3.9-2.3,12-8.4,8c-17.4-11.5-21.5-33.7-18.3-53.9c4.4-27.2,25.4-50.3,46.9-66.2
		c3.9-2.9,8.6-5.6,14.1-8.2c0.6-0.3,0.8-1,0.6-1.5c0,0,0-0.1,0-0.1c-5.5-9.8-9.6-17.7-12.4-23.5c-1-2.1-0.5-4.6,1.2-6
		c0.7-0.5,2.1-0.6,4.3-0.3c2.2,0.3,10.2,1.7,23.9,4.2c0.2,0,0.5-0.1,0.5-0.3c0-0.1,0-0.1,0-0.2c-3-11.4-5.1-23.6-6.4-36.6
		c-0.3-2.8-0.1-5.1,0.6-6.8c0.6-1.6,2.5-2.5,4.1-1.8c0.1,0,0.2,0.1,0.3,0.1c1.5,0.7,2.9,1.7,4.2,2.8c6.1,5.3,12,10.7,17.6,16.2
		c0.4,0.4,1.1,0.4,1.5,0c0,0,0.1-0.1,0.1-0.1l6.2-8.8c0.6-0.8,0.9-1.9,0.9-2.9c-0.7-25,1-51.6,5.2-79.9c0.2-1.4,2.2-12.8,6-34.1
		c2.9-16.6,6.9-33.2,11.9-49.7c0.3-1,0.8-1.9,1.5-2.7c7.1-7.7,12.9,4,15.5,9.7c6.1,13.5,11.6,28.1,16.7,39.3
		c6.8,15,15.3,34.5,25.5,58.6c0.2,0.5,0.7,0.7,1.2,0.5c0.1,0,0.1-0.1,0.2-0.1c12.1-9.2,25.2-16.4,39.2-21.4
		c8.1-2.9,8.1,6.3,8.8,11.1c0.1,0.4,0.5,0.7,0.9,0.7c0.1,0,0.3-0.1,0.4-0.1c23-17.2,52.7-29.6,81.8-26.8c1.4,0.1,2.4,0.4,3,0.7
		c1.3,0.7,1.8,2.5,1.1,4.1C380.9,230.1,374.5,246,366.2,266.9z M125.2,356.7l9.6,16.6c1,1.7,0.5,3.9-1.2,5c-11,7.4-17.8,12-20.5,14
		c-20.9,15.2-39.5,35.9-44,62.1c-1.8,10.3-0.5,24.8,6.5,33.5c0.2,0.3,0.6,0.3,0.9,0.1c0.1-0.1,0.2-0.2,0.2-0.3
		c1.5-4.5,4.1-12.1,10.6-7c2.7,2.1,5.2,4.1,7.4,6c0.4,0.3,1,0.3,1.3-0.1c0.1-0.1,0.1-0.2,0.2-0.3l2.3-7.9c0.4-1.3,1.5-2.2,2.9-2.4
		l5.5-0.6c0.6-0.1,1-0.6,1-1.2c0-0.2-0.1-0.3-0.2-0.5c-3.2-5.2-3.4-10-0.6-14.2c3.7-5.6,7.6-9.4,12.5-13.9c1.9-1.7,3.4-3.8,4.5-6.2
		c4.9-10.6,6.8-17.1,10.5-32.1c0.3-1.1,1.2-2,2.4-2.2l0.1,0c0.7-0.1,1.3,0.3,1.5,1c0,0.2,0,0.4,0,0.5c-8.3,31.2-7.3,61.8,2.9,92
		c3.6,10.5,9.8,23.5,18.6,39c0.3,0.5,0.2,1.1-0.2,1.6l-0.4,0.5c-0.5,0.6-1.4,0.6-1.9,0.1c-0.1-0.1-0.1-0.1-0.2-0.2
		c-2.5-3.3-7.1-11-13.6-23c-1.6-3-3.5-5.3-5.5-6.9c-1.1-0.9-2.6-0.9-3.8-0.1c-3,2.1-5.1,4.9-6.3,8.2c-8.3,24.1-6,58.2,14.7,76.7
		c0.7,0.6,0.8,1.7,0.2,2.5l0,0.1c-0.6,0.7-1.6,0.7-2.3,0.2l-5-3.9c-0.5-0.4-1.3-0.3-1.8,0.2c0,0,0,0,0,0l-9.8,12.2
		c-0.3,0.4-0.2,0.9,0.1,1.2c0.1,0.1,0.3,0.2,0.4,0.2l8.2,0.7c1.5,0.1,2.7,1.5,2.5,3c0,0.1,0,0.2,0,0.3l-2.5,13.2
		c-0.1,0.6,0.3,1.2,0.9,1.3c0.2,0,0.4,0,0.6,0l20.8-7.3c2.1-0.7,4.4,0,5.6,1.8l8.5,11.9c0.4,0.6,1.3,0.8,1.9,0.4
		c12.9-7.9,24.4-17.5,34.3-28.9c1-1.1,2.2-2,3.7-2.5l11.8-4.1c0.3-0.1,0.4-0.4,0.3-0.7c0-0.1-0.1-0.2-0.3-0.3
		c-0.7-0.4-5.4-2.4-14-5.9c-9.4-3.9-17.2-9.3-23.6-16.3c-0.6-0.6-0.7-1.5-0.3-2.3l0.3-0.5c0.3-0.7,1.2-0.9,1.8-0.6
		c0.1,0.1,0.3,0.2,0.4,0.3c6.7,7.5,15,13.1,25,16.8c32.6,12.1,65.5,15.9,99.2,6.8c9.9-2.7,23.6-8.5,33-13.5
		c17.4-9.4,31.2-21.9,41.5-37.3c1.6-2.3,4.7-8.3,9.5-17.9c0.3-0.6,0.8-1,1.5-1.1c4.2-0.9,10.4,0.4,14.4,0c9.8-1.2,18.4-4.2,25.6-9.1
		c0.5-0.3,0.6-0.9,0.3-1.4c-0.1-0.2-0.4-0.4-0.6-0.4c-12.9-2.5-24.3-9.8-34.9-18.3c-0.7-0.5-1.5-0.9-2.4-0.9
		c-9.5-0.8-19.9-0.9-23.9-10.7c-2.8-6.8,1.9-12.3,6.5-16.9c2.3-2.2,7.3-6.7,15.3-13.4c1.4-1.2,2.5-2.8,3.2-4.5
		c3.5-9.1,6.2-15.8,8.3-20.2c2.3-5,9.5-16,16.3-16.9c9.5-1.3,15.4,16.4,19.1,25.2c0.1,0.3,0.5,0.5,0.9,0.4c0.1,0,0.2-0.1,0.2-0.2
		l26.9-29.1c0.2-0.2,0.2-0.6-0.1-0.8c-0.1-0.1-0.3-0.2-0.4-0.1l-29.3,3.2c-0.5,0.1-1,0.3-1.4,0.6l-2.5,2.3c-0.9,0.8-2.3,0.8-3.1-0.1
		c-0.4-0.5-0.6-1.1-0.6-1.8c0.1-0.7,0.9-2.3,2.5-4.8c3-4.7,5.5-8.3,7.5-10.8c9.3-11.6,20.7-24,34.2-37.1
		c22.4-21.7,35.8-36,56.8-49.5c0.2-0.2,0.3-0.5,0.1-0.7c0-0.1-0.1-0.1-0.1-0.1c-0.2-0.2-0.5-0.2-0.9-0.2c-26.4,1.6-50.7,2.8-73,3.6
		c-10.1,0.4-19.7,1.8-28.6,2.4c-8.4,0.6-14.1,0.7-17.4,0.2c-4.3-0.6-17.4-5.5-21-10.3c-0.9-1.3-0.8-3.1,0.4-4.2
		c6.6-6.3,16.8-15.7,30.5-28.1c0.2-0.2,0.4-0.5,0.5-1c0.1-0.2,0-0.4-0.3-0.5c0,0-0.1,0-0.1,0c-23.6,1.7-46.2,6.1-67.7,13.2
		c-2.4,0.8-4.3,0.8-5.8,0.1c-1.8-0.9-2.7-3-2.4-5.3c2.4-17.6,9-33,17.7-50.1c0.2-0.3,0-0.8-0.3-0.9c-0.2-0.1-0.3-0.1-0.5,0
		c-19.2,5.1-38.2,13.2-56.9,24.1c-6.5,3.8-13.2,8.6-20,14.2c-1.9,1.6-4,2.1-6,1.2c-0.8-0.3-1.3-1.2-1.2-2.1l2.9-19
		c0.1-0.5-0.3-0.9-0.7-1c-0.2,0-0.4,0-0.5,0.1c-16.9,7.9-30.7,19.8-44,34c-0.4,0.5-1,0.8-1.7,0.8l-9.4,1c-1.1,0.1-2.1-0.7-2.2-1.8
		c-0.1-0.9,0.4-1.8,1.3-2.1l6.5-2.3c0.5-0.2,0.9-0.5,1.1-1l5.9-11.1c0.1-0.2,0.2-0.5,0.2-0.7c0-1-0.5-2.8-1.5-5.3
		c-8.9-22.9-17-43.7-24.4-62.4c-4.3-11-8.9-20.2-13.7-31.7c-0.5-1.1-1.4-2.5-2.7-4.3c-0.2-0.3-0.7-0.4-1-0.2
		c-0.1,0.1-0.2,0.2-0.3,0.4c-11.3,47.3-18.3,96.1-20.8,146.4c0,0.2,0.1,0.3,0.3,0.3c0.1,0,0.1,0,0.2-0.1c3.3-2.5,5.4-4,6.4-4.4
		c1.3-0.6,2.3-0.7,2.9-0.4c1,0.5,1.2,1.9,0.5,3.1c-0.1,0.1-0.2,0.3-0.3,0.4c-3,3.5-8.6,7.4-11.9,12.8c-2.4,3.9-5.4,9.5-9.1,16.7
		c-1,2-2.9,3.2-4.8,3c-1.2-0.1-2.6-0.9-4.3-2.4c-3.5-3-8.1-7.4-13.8-13.2c-0.3-0.3-0.8-0.3-1.2,0c-0.2,0.2-0.3,0.5-0.2,0.7
		c1.9,10,3.7,19.9,5.6,29.7c0.3,1.3,0.2,4.1-0.1,8.4c0,0.6-0.5,1.1-1.1,1.1c-6.1,0.6-14.2-1.5-19.2-4c-0.3-0.2-0.6,0-0.8,0.2
		C125.1,356.3,125.1,356.5,125.2,356.7z M408.1,487.8c-0.6,0.3-0.9,1-0.6,1.6c0.1,0.2,0.2,0.4,0.4,0.5c12.9,9.5,28.1,14.6,45.6,15.5
		c11,0.5,20.3-3.6,28-12.4c0.4-0.5,0.6-1.1,0.5-1.6l-0.4-2.5c-0.1-0.6,0.3-1.2,1-1.3c0.4-0.1,0.7,0.1,1,0.3c2.9,3.1,6,5.5,9.3,7
		c0.3,0.2,0.7,0,0.9-0.3c0,0,0-0.1,0.1-0.2c2-9.1,0.8-16.9-3.5-23.6c-2.7-4.3-6.4-5.6-11.1-4c-1.2,0.4-2.1,1.5-2.3,2.7
		c-1.4,8.4-2.7,16.3-6.6,22.9c-1,1.6-2.9,2.3-4.7,1.7c-10.7-3.8-17.6-10.6-21-20.2c-0.6-1.7-0.6-3.4,0.1-5c0.3-0.6,1-0.9,1.6-0.7
		c0.3,0.1,0.6,0.4,0.7,0.8c3.1,9.2,8.2,16.3,17.4,19.9c0.6,0.3,1.4-0.1,1.6-0.7c0,0,0-0.1,0-0.1c2.3-8.8,6-23.9,3.5-31.1
		c-0.3-0.9-1-1.6-1.9-2l-11.6-5.1c-0.9-0.4-2-0.4-2.9,0.1c-1.6,0.8-4.6,2.8-8.9,6.1c-1.5,1.1-2.8,1.7-3.9,1.6
		c-1.7-0.2-2.6-1.1-2.9-2.7c-1.4-8.7-4.4-17.6-8.9-26.6c-1.4-2.8-2.4-4.4-2.9-4.8c-0.5-0.3-1.1-0.3-1.6,0c-1.4,1-2.9,3.5-4.4,7.4
		c-3.3,8.7-6.1,16.4-8.3,23.1c-1.5,4.4-4,7.8-7.7,9.9c-8,4.5-14,9.2-18,14.2c-0.6,0.7-0.5,1.7,0.3,2.3c0.2,0.2,0.5,0.3,0.9,0.4
		l30.1,2.6c0.7,0.1,1.2,0.7,1.1,1.3c0,0.1,0,0.2-0.1,0.4c-0.4,1-1.3,1.8-2.7,2.5c-1.2,0.5-2.5,0.7-3.8,0.6
		C409.2,488,408.1,487.8,408.1,487.8z M407.6,620.9l-5.3-4.6c-1.9-1.6-3-4-3-6.5c0-13.8,2.2-40.8-9.2-44.3
		c-10.8-3.4-20.7,1.3-29.5,8.1c-12.8,10-31.7,17.6-49.1,24c-0.4,0.1-0.6,0.5-0.4,0.9c0,0.1,0.1,0.2,0.2,0.3
		c6.2,5.9,12.2,13.2,18.1,21.7c8,11.6,17.2,19.7,31.9,20.8c5.6,0.4,11.5,0.7,17.6,0.9c0.4,0,0.8-0.3,0.8-0.7c0,0,0-0.1,0-0.1
		l-0.4-6.8c-0.1-1.6,1.1-3,2.7-3.1c0.3,0,0.7,0,1,0.1l14.4,4.2c0.5,0.1,1-0.1,1.2-0.6c0.1-0.2,0-0.5,0-0.7l-2.2-4.9
		c-0.7-1.6,0-3.4,1.6-4.1c0.1-0.1,0.3-0.1,0.4-0.2l8.9-2.5c0.5-0.1,0.8-0.7,0.7-1.2C407.8,621.2,407.7,621,407.6,620.9z M237.5,600
		c0.9,1.4,2.2,2.7,3.8,3.9c16,11.3,34.3,14.2,54.5,15.7c0.1,0,0.2-0.1,0.2-0.2c0,0,0-0.1,0-0.1l-11.9-16.6c-0.2-0.2-0.4-0.4-0.7-0.3
		c-14.6,1-29.8,0-45.4-3.1c-0.3,0-0.5,0.1-0.6,0.4C237.4,599.8,237.4,599.9,237.5,600z"/>
	<path class="st0" d="M209.5,420.6c-0.1,0.6-0.6,0.9-1.2,0.9c0,0,0,0,0,0c-2.8-0.5-5.7-1.6-8.8-3.3c-8.8-4.8-16-9.4-21.8-13.7
		c-10.9-8.3-2.1-36.6,2.8-47c0.2-0.4,0.7-0.9,1.6-1.7c0.8-0.7,1.5-1.2,2-1.3c1.3-0.3,2.7,0.5,3.1,1.8c3.3,9.5,10.3,28.4,21,56.6
		C209.3,416,209.8,418.6,209.5,420.6z M201.9,411.3c-1.1-3.2-2.6-4.2-5.9-5.8c-4.9-2.4-6.1-6.8-2.8-11.5c0.5-0.8,0.7-1.7,0.3-2.6
		l-9.5-24.5c-0.1-0.2-0.3-0.3-0.5-0.2c-0.1,0-0.2,0.1-0.2,0.2c-2,7.1-6.4,25.9-3.5,32c0.5,1,1.3,1.8,2.2,2.4l19,10.7
		c0.3,0.2,0.7,0.1,0.8-0.2C201.9,411.7,201.9,411.5,201.9,411.3z"/>
	<path class="st0" d="M164.3,374.1c0.2-0.7,0.6-0.9,1.2-0.7c0.6,0.2,0.9,0.6,0.9,1.1c0.3,3.6,0.5,8.7,0.4,15.4
		c0,10.9,9.1,23,17.2,30.6c12,11.3,26,20.4,41.9,27.4c29.5,13,66.5,21.7,97,13.7c1.5-0.4,4.7-1.9,9.5-4.6c8.6-4.7,14-9.9,24-17.8
		c0.4-0.3,1-0.3,1.3,0.1c0.1,0.2,0.2,0.4,0.2,0.6c0,1.1-0.4,2.1-1.1,3c-6.5,8.4-11.1,14.9-13.8,19.6c-5.3,8.9-9.7,15.6-13.2,19.9
		c-25.1,30.9-62.3,48.5-101,34.5c-47.6-17.3-68-72.4-68.5-119.1C160.3,390.2,161.6,382.3,164.3,374.1z M165.4,403.2
		c0.6,13.2,2.4,25.5,5.6,37c0.1,0.3,0.4,0.4,0.7,0.3c0.1,0,0.2-0.1,0.3-0.3l8.5-17.4c0.2-0.5,0.1-1.1-0.2-1.4
		c-5.1-5.2-9.7-11.3-13.9-18.5c-0.1-0.2-0.4-0.3-0.6-0.2C165.5,402.8,165.4,403,165.4,403.2z M184.2,425.4c-0.3-0.3-0.9-0.3-1.2,0.1
		c0,0,0,0.1-0.1,0.1c-3.8,5.8-6.8,12.4-9,19.8c-0.1,0.4-0.2,0.9-0.2,1.3c0,1.5,0.4,3.4,1.3,5.5c4.7,11.9,10.9,22.7,18.5,32.4
		c0.3,0.4,0.8,0.5,1.2,0.1c0.2-0.1,0.3-0.4,0.3-0.6c1.8-14.2,5.8-27.7,12-40.4c0.4-0.8,0.1-1.9-0.7-2.3
		C198.8,436.9,191.4,431.6,184.2,425.4z M235.9,495.5c-0.8,0-1.4-0.7-1.4-1.5c0-0.1,0-0.2,0.1-0.4l9.8-33.8c0.2-0.5-0.1-1.1-0.7-1.3
		c-10.7-3.8-21.3-8.5-31.8-14.1c-0.6-0.3-1.3-0.1-1.7,0.5c0,0,0,0,0,0c-6.8,13.1-10.8,27-12.2,41.8c-0.2,1.8,0.4,3.6,1.6,4.9
		c7.6,8.2,16.7,14.8,27.1,19.6c0.6,0.3,1.3,0,1.6-0.6l5.2-10.6c0.2-0.4,0.7-0.6,1.2-0.4c0,0,0,0,0,0l0.5,0.2
		c0.4,0.2,0.7,0.7,0.5,1.2l-3.7,10.6c-0.3,0.8,0.2,1.7,0.9,1.9c0,0,0,0,0,0c11.6,3.8,23.7,4.5,36.4,2.3c1.2-0.2,2.1-1,2.5-2.2
		c4.6-15.1,10.2-28.5,13.1-44.6c0.2-0.9-0.4-1.8-1.4-1.9c0,0-0.1,0-0.1,0c-11.7-1.2-23.1-3.4-34-6.9c-0.8-0.2-1.6,0.2-1.9,1
		c0,0,0,0,0,0l-9.7,33.2c-0.2,0.7-0.8,1.1-1.5,1.1H235.9z M337.3,459.7l-12.6,5.8c-0.3,0.1-0.5,0.4-0.6,0.7l-3.3,17.1
		c-0.1,0.3,0.1,0.6,0.4,0.6c0.2,0,0.4,0,0.5-0.2c6.9-8.1,12.3-15.9,16.1-23.5c0.1-0.2,0-0.5-0.2-0.6
		C337.6,459.6,337.4,459.6,337.3,459.7z M317.6,466.5c-9.1,1.5-18.4,1.9-27.9,1.2c-0.6,0-1.1,0.4-1.2,1c-1.9,14.7-6.3,25-13.1,44.2
		c-0.2,0.6,0.1,1.2,0.7,1.4c0.2,0.1,0.5,0.1,0.7,0c12.7-4.1,24.5-10.9,35.2-20.4c2.2-2,3.6-4.1,4.2-6.5c1.9-7.7,2.9-14.3,2.9-19.8
		c0-0.6-0.5-1.2-1.2-1.2C317.8,466.5,317.7,466.5,317.6,466.5z"/>
	<path class="st0" d="M342.9,415.8l-2.4,2.6c-0.5,0.5-0.9,1.1-1.2,1.8c-4.3,10.1-10.1,18.9-17.3,26.3c-4.6,4.7-10.8,7.7-18.5,8.9
		c-12,1.9-19-1.4-29.2-7.8c-7.2-4.5-14.7-8.3-22.5-11.4c-0.9-0.3-1.3-1.4-1-2.3c0.2-0.5,0.7-0.9,1.2-1.1l88.8-20.6
		c1.2-0.3,2.4,0.5,2.6,1.7C343.5,414.6,343.3,415.3,342.9,415.8z M266.8,435.9c11.2,7.2,19.2,12,32.3,13.2
		c11.8,1,18.5-5.4,25.5-14.4c2.8-3.6,5.3-7.7,7.4-12.2c0.2-0.4,0-1-0.4-1.2c-0.2-0.1-0.4-0.1-0.6-0.1l-6.2,1.4
		c-1.3,0.3-2.4,1.2-3,2.4c-2.1,4.5-3.8,7.3-9.4,6.4c-2.7-0.5-3.8-4.8-6.6-4c-3.7,0.9-16.6,3.6-38.8,7.9c-0.1,0-0.2,0.2-0.2,0.3
		C266.7,435.8,266.8,435.8,266.8,435.9z"/>
	<path class="st0" d="M372,424.8c0.1-0.7-0.3-1.4-1-1.5c-0.2,0-0.4,0-0.6,0c-4.6,1.4-7.8,2.3-9.7,2.5c-0.8,0.1-1.6-0.3-1.8-0.9
		c-0.1-0.2,0-0.5,0.1-0.7c0.2-0.4,0.5-0.7,0.9-0.9c2-1,10.7-4.3,13.9-3.1c1.4,0.5,2.3,2.4,2,4.4c-0.6,5-2,10.1-4.3,15.2
		c-0.3,0.6-1,0.9-1.6,0.6c-0.1,0-0.1-0.1-0.2-0.1l-0.4-0.3c-0.1-0.1-0.2-0.3-0.2-0.4L372,424.8z"/>
	<ellipse transform="matrix(0.4879 -0.8729 0.8729 0.4879 -446.9133 440.1951)" class="st0" cx="151.7" cy="601" rx="1.9" ry="6"/>
</g>
</svg>
