<?xml version="1.0" encoding="utf-8"?>
<!-- Generator: Adobe Illustrator 26.0.1, SVG Export Plug-In . SVG Version: 6.00 Build 0)  -->
<svg version="1.1" id="Layer_1" xmlns="http://www.w3.org/2000/svg" xmlns:xlink="http://www.w3.org/1999/xlink" x="0px" y="0px"
	 viewBox="0 0 612 792" style="enable-background:new 0 0 612 792;" xml:space="preserve">
<style type="text/css">
	.st0{fill:#010101;}
</style>
<g>
	<path class="st0" d="M455.5,317c18.8-5.7,37.9-10.4,57.5-12.1c8.7-0.8,18.8,0.2,26.7,3.2c1.6,0.6,2.5,2.2,2.3,3.8
		c-2.3,17.9-15.9,34.8-28.1,47.4c-28.3,29.1-60.4,52.2-96.5,69.4c-0.4,0.2-0.6,0.7-0.5,1.2l9.6,24.6c0.2,0.4,0.7,0.7,1.1,0.5
		c0.2-0.1,0.4-0.2,0.4-0.4l5.6-11.5c0.3-0.6,0.7-1.1,1.2-1.6c3.7-3.3,6.6-6.2,8.9-8.7c6.3-7,13.2-5.4,17.6,2.8
		c0.7,1.3,2.2,3.1,4.5,5.5c0.8,0.8,1.4,1.7,1.9,2.7c2.2,4.4,4,11.9,5.4,22.3c4.4,32.6,0.4,63.8-12.1,93.6
		c-6.8,16.3-25.7,39-39.4,9.9c-0.4-0.8-1.3-1.3-2.2-1.1c-10.5,2.5-19.6,0.7-27.1-5.3c-0.6-0.5-1.4-0.5-2,0
		c-27.4,22.2-68.7,28.6-103.4,26.6c-0.6,0-1.2,0.5-1.2,1.1c0,0.1,0,0.3,0,0.4c2.7,9.2,4.8,19.8,2.6,29.2
		c-3.8,16.1-17.8,20-31.3,12.6c-31.8-17.6-53.4-52.1-61.5-87.6c-1.6-7-3.9-20.5,2.5-25.9c0.5-0.5,0.8-1.1,0.7-1.8l-1.9-11.6
		c-0.1-0.7-0.7-1.2-1.4-1.1c-34,1.6-83.4-11.3-87.1-52.2c-0.5-4.9-0.8-7.7-1.2-8.6c-0.2-0.7-0.6-1.3-1.1-1.8
		c-7.4-9.4-14-19.5-19.7-30.5c-3.4-6.7-11-21.5,0.5-23.8c0.5-0.1,1.1-0.1,1.6-0.1c5.3,0.4,11.5,2.3,18.5,5.7c0.3,0.2,0.8,0,0.9-0.3
		c0.1-0.2,0.1-0.4,0-0.6c-2.8-6.2-11.4-23.1,2.7-23.4c0.4,0,0.7-0.4,0.7-0.8c0-0.2-0.1-0.3-0.2-0.5c-17-20.1-32.8-44.2-40.3-68.1
		c-1.1-3.4-1.4-7-1-10.5c0.2-2,1.6-3.6,3.5-4.2c3.6-1.1,9.3-0.9,12.4-0.4c27.1,4.7,52.8,14.4,77,29.2c0.3,0.2,0.6,0.1,0.8-0.2
		c0.1-0.1,0.1-0.3,0.1-0.4c-5.6-29.7-2.1-57.2,10.7-82.5c28-55.5,88.6-80.9,149.1-74.5c70.6,7.6,126,59.5,129.6,132
		c0.1,1.2,0.4,2.4,1.1,3.4c3,4.7,5.2,7.9,6.6,13.6c1,4-1,7.7-5.9,10.9c-0.2,0.1-0.3,0.4-0.2,0.6C455,317,455.3,317.1,455.5,317z
		 M269.8,397.7c-2.5-2.3-6.1-3.7-9.4-6c-37.4-25.5-57.3-70.1-54.4-114.6c2.4-36,24.8-64.7,60-74.3c21.6-5.9,41.4-2,59.2,11.7
		c1.9,1.4,6.5,5.6,13.8,12.5c0.3,0.3,0.7,0.5,1.1,0.7l29.9,11.6c0.8,0.3,1.7,0.1,2.2-0.6l18.6-23.2c1.2-1.5,3.3-1.8,4.8-0.8
		l26.9,17.6c0.4,0.3,0.9,0.2,1.2-0.2c0,0,0-0.1,0.1-0.1c1.3-2.7,2-5,2.2-6.9c0.1-1.1-0.2-2.2-0.8-3.1
		c-30.1-42.8-78.2-62.9-130.2-59.7c-31.7,1.9-58.9,12.2-81.6,30.8c-32.7,26.7-49.4,66.5-44.3,108.6c6.1,51.1,54.2,85.5,100.6,96.7
		c0.2,0,0.4-0.1,0.5-0.3C270,397.9,269.9,397.8,269.8,397.7z M415.3,363.9c-9.9,3.4-20.8,0.6-29.1-5.8
		c-11.8-9.1-18.5-21.4-20.4-36.9c-0.1-1.1-0.1-2.3,0.1-3.5c0.4-2.8,0.6-4.6,0.5-5.4c-4.7-33.2-17.5-69.8-43.7-91.4
		c-17.6-14.5-37.6-17.9-60-10.1c-39.7,13.8-55.1,51.9-49.4,91.5c6.3,43.1,33.7,81.8,75,95.9c11,3.8,21.6,5.5,31.8,5.3
		c34.4-0.7,71.5-14,95.7-38.8c0.2-0.2,0.2-0.6,0-0.8C415.7,363.9,415.5,363.8,415.3,363.9z M347.8,238.5c0.4,1.4,0.7,2.5,1.1,3.1
		c10.2,18,17.4,37.2,21.7,57.7c0.1,0.5,0.6,0.8,1.1,0.7c0.3-0.1,0.5-0.2,0.6-0.4c6.8-11.3,16-19.6,27.5-25.2
		c12.7-6.1,25.1-3.6,37.2,2.6c0.5,0.3,1.1,0,1.4-0.5c0-0.1,0.1-0.2,0.1-0.3c1.7-9.9-0.2-22-1-28.6c-0.1-1.3-0.4-2.7-1-3.9l-4.3-9.6
		c-0.2-0.5-0.9-0.7-1.4-0.5c-0.2,0.1-0.4,0.3-0.5,0.6l-2.2,5.8c-0.6,1.5-2.2,2.2-3.6,1.7c-0.2-0.1-0.4-0.2-0.6-0.3l-28.8-18.9
		c-0.6-0.4-1.3-0.2-1.8,0.3l-18.3,22.8c-0.9,1.2-2.5,1.6-3.9,1.1l-22.9-8.7c-0.2-0.1-0.4,0-0.5,0.2
		C347.8,238.4,347.8,238.5,347.8,238.5z M443.3,272.6c-0.4,1.5-0.5,4.1-0.3,7.7c0.1,1,0.7,1.5,2,1.6c0.5,0,0.9-0.4,1-0.9
		c0-0.1,0-0.2,0-0.2l-1.9-8.2c-0.1-0.2-0.3-0.4-0.5-0.3C443.5,272.3,443.4,272.4,443.3,272.6z M375.8,310
		c24.2-10.1,52.2-11.1,77-5.4c0.3,0.1,0.6-0.1,0.7-0.4c0-0.1,0-0.3,0-0.4c-4-8.7-10-15.4-18.2-20.2c-15.2-8.8-29.5-7.7-42.9,3.3
		c-7.6,6.3-13.4,13.7-17.3,22.2c-0.1,0.3,0,0.7,0.3,0.8C375.4,310,375.6,310,375.8,310z M419.1,457c0,8.4-2.3,15-6.9,19.9
		c-12.7,13.5-31.5,6.1-37.8-9.1c-5.4-13.1-0.5-28.7,13.1-34.5c0.2-0.1,0.3-0.3,0.2-0.6c-0.1-0.2-0.2-0.3-0.4-0.3
		c-16.4,1.6-29.6-2.9-43.3-11c-0.6-0.4-1.4-0.3-1.9,0.2c-13.5,13.2-31.6,23.4-50.3,24.7c-0.2,0-0.3,0.2-0.3,0.3
		c0,0.1,0.1,0.2,0.2,0.3c3.8,2.2,6.1,3.6,6.8,4.1c14.4,10.1,15,30.8,1.1,41.9c-11.5,9.2-29.3,6.7-38.1-5.3c-10-13.6-5.3-31.2,9.3-39
		c0.5-0.3,1.9-0.9,4.3-1.9c0.2-0.1,0.4-0.4,0.3-0.6c-0.1-0.2-0.2-0.3-0.4-0.3c-35-5.7-62.4-33.4-73.3-66.5c0,0-0.8-2.4-2.2-7.3
		c-0.4-1.2-1-2.2-1.9-3c-13.4-12.3-23-26-28.9-41.2c-0.8-2-2.2-3.7-3.9-4.9c-24.2-15.9-50.4-26.4-78.4-31.5
		c-2.5-0.5-5.3-0.6-8.5-0.5c-0.9,0-1.5,0.7-1.5,1.6c0,0.1,0,0.2,0,0.3c1.4,6.9,3.6,13.3,6.5,19.1c28.2,57.7,82.9,111,148.1,122
		c1.2,0.2,1.9,1.3,1.7,2.5c0,0,0,0,0,0l-0.1,0.5c-0.2,0.8-0.9,1.3-1.7,1.1l-17.6-3.4c-0.7-0.1-1.4,0.3-1.6,0.9
		c-7.7,24.2-10.3,48.6-7.6,73.2c0.1,0.5,0.5,1,1,1c10,1.2,16,2.1,17.8,2.7c3.5,1.2,6.9,2.9,10.1,5.1c21.4,15,37.5,38.6,48.3,62.5
		c0.6,1.2,1.7,2.1,3,2.2c22.1,2.8,46.8-0.7,67.6-7.1c17.2-5.3,32.8-13,41.7-27.5c0.5-0.8,1.6-1.1,2.4-0.6c0.5,0.3,0.8,0.8,0.8,1.4
		c0.1,1.7-0.3,4-1.4,7.1c-0.2,0.6,0,1.2,0.5,1.6c6.2,5.1,13.4,6.6,21.5,4.4c0.6-0.2,1-0.8,0.9-1.5c0,0,0,0,0,0
		c-2.6-10.3-3.8-20.7-3.7-31.2c0.3-19.9,3.2-40,8.9-60.2c0.1-0.3,0.1-0.6,0-0.9l-3.2-11.4c-0.1-0.4-0.5-0.6-0.9-0.5
		C419.3,456.4,419.1,456.7,419.1,457z M428,321.3c0.3,0.4,0.9,0.5,1.3,0.3l19.8-9.1c0.5-0.2,0.7-0.7,0.5-1.2
		c-0.1-0.3-0.4-0.5-0.7-0.5c-10.6-2.2-21.4-3.1-32.4-2.4c-0.1,0-0.2,0.1-0.1,0.2c0,0,0,0.1,0,0.1L428,321.3z M385.5,327.5
		c0.1-3.4,0.1-7.6,2.7-9.6c5.8-4.3,16.6-2.8,24.7-1.2c0.3,0.1,0.6-0.1,0.6-0.4c0-0.2,0-0.4-0.2-0.5c-2.4-2.5-5-4.4-7.8-5.8
		c-0.7-0.3-1.5-0.5-2.3-0.4c-8.3,0.7-16.1,2.8-23.4,6.2c-1.2,0.6-1.7,1.9-1.1,3.1c0,0.1,0.1,0.2,0.1,0.2l5.4,8.6
		c0.2,0.3,0.6,0.4,0.9,0.2C385.3,327.9,385.5,327.7,385.5,327.5z M414.7,422c6-2.4,12.6-5.7,19.8-9.8c32-18.4,59.2-40.3,81.7-65.7
		c8.6-9.7,14.6-19.6,18.2-29.7c0.5-1.6-0.3-3.3-1.8-3.8c-0.2-0.1-0.3-0.1-0.5-0.1c-8.2-1.5-18.4-1.5-25.7-0.5
		c-19.3,2.6-38.8,7.5-58.3,14.8c-1.2,0.4-2.1,1.4-2.6,2.6c-4,11.5-9.9,22.1-17.7,31.8c-0.5,0.6-0.6,1.4-0.2,2.1
		c10.3,19.7,2.7,43.2-13.6,57.3c-0.3,0.2-0.3,0.6-0.1,0.9C414.2,422,414.5,422.1,414.7,422z M391.6,325.1c-0.5,3.4,0,7.1,1.3,11.2
		c0.3,0.9,0.9,1.8,1.6,2.4c7.1,6,17.5,11.8,26.2,8.2c6.8-2.8,4.7-14.7,2.1-19.6c-2.6-4.9-22.9-5.8-27.5-5.6
		C393.4,321.8,391.8,323.2,391.6,325.1z M373.6,325.5c0,1.9,0.8,4.6,2.4,8.1c6.3,14.6,21.6,30.2,38.4,23c0.4-0.2,0.6-0.7,0.4-1.1
		c-0.1-0.3-0.4-0.5-0.7-0.5c-16.7-1.8-31.8-15.3-39.5-29.8c-0.1-0.3-0.5-0.4-0.8-0.2C373.7,325.1,373.6,325.3,373.6,325.5z
		 M431.6,341.4c0,0.3,0.2,0.7,0.5,0.7c0.3,0,0.5-0.1,0.7-0.4l7.4-15.1c0.3-0.6,0-1.3-0.6-1.6c-0.3-0.1-0.6-0.2-0.9,0l-6.8,2.4
		c-0.7,0.3-1.1,1-0.9,1.8C432,333,432.2,337.1,431.6,341.4z M208.9,379.3c0.5,2.2,1.4,4.6,2.6,7.2c11.9,26.1,34.3,47.3,62.3,52.5
		c25.6,4.8,48.7-6.8,66.3-24.6c1.3-1.3,3.3-1.5,4.8-0.4c13.1,9,30.7,14.7,46.1,10.9c24.4-6,41.2-30.9,32-55.7
		c-0.2-0.4-0.6-0.6-1-0.5c-0.1,0-0.2,0.1-0.3,0.2c-22.6,21.8-49.6,35-81.1,39.4c-44.6,6.3-93.6-3-130.6-29.7
		c-0.3-0.2-0.7-0.1-0.8,0.1C208.9,379,208.9,379.1,208.9,379.3z M87.8,395.9c0.3,2.6,1.1,5.2,2.4,7.9c4.8,10.2,10.7,20.2,17.8,29.9
		c0.9,1.2,2.3,1.9,3.7,2l2.3,0.1c0.9,0,1.7,0.8,1.6,1.7c0,0.1,0,0.2,0,0.2c-7.9,47.2,43,62.1,79.4,60.6c0.7,0,1.3-0.6,1.4-1.4
		c0.2-6.5-0.1-14.1,0.7-21.9c1.2-13.1,3.8-26.2,7.8-39.3c0.2-0.5-0.1-1.1-0.7-1.3c-17.7-6.5-34.6-15.6-50.6-27.2
		c-11.3-8.3-22.3-17.9-32.8-28.9c-0.1-0.2-0.3-0.3-0.5-0.3l-8.1-2.4c-0.9-0.3-1.9,0.3-2.2,1.2c-0.1,0.2-0.1,0.5-0.1,0.7
		c1,8,7.2,16.6,9.9,23.4c0.5,1.4-0.1,2.9-1.5,3.4c-0.2,0.1-0.3,0.1-0.5,0.1c-1.2,0.2-2.4,0.1-3.4-0.4c-9.3-4.7-17.5-8-24.6-9.9
		c-0.8-0.2-1.7,0.3-1.9,1.1C87.8,395.5,87.7,395.7,87.8,395.9z M414,440.7l-6.1-13.4c-0.4-0.9-1.4-1.2-2.2-0.8l-11.6,5.3
		c-0.1,0-0.2,0.2-0.1,0.3c0,0.1,0.1,0.1,0.2,0.1c7.6,0.2,13.8,3.2,18.7,9.2c0.2,0.3,0.6,0.3,0.9,0.1
		C414.1,441.2,414.1,440.9,414,440.7z M464.3,459.4c-0.6,5.3-2.9,17.7-7.6,20.9c-0.8,0.6-2,0.4-2.6-0.5c-0.3-0.4-0.4-0.8-0.3-1.3
		c0-0.2,0.6-2.8,1.8-7.9c2.4-10.4,3.7-23.7-1-33.5c-0.7-1.4-2.1-2.2-3.3-1.7c-1.7,0.7-3,1.9-4.2,3.5c-0.4,0.6-0.5,1.2-0.4,1.9
		c2.4,10.8,2.2,21.6-0.4,32.4c-0.5,2.2-1.3,3.8-2.4,4.7c-0.8,0.7-1.9,0.6-2.6-0.2c-0.3-0.4-0.5-0.8-0.4-1.3
		c0.6-9.3,0.7-18.1,0.5-26.4c-0.1-1.6-0.2-2.7-0.4-3.2c-0.3-0.5-0.8-0.7-1.3-0.4c-0.2,0.1-0.3,0.2-0.4,0.4c-3.2,6.2-5.8,13-7.9,20.3
		c-6.4,22.2-9.6,42.8-9.8,61.7c-0.1,15.8,2.3,28.9,7.2,39.5c1.2,2.5,3.3,5.7,5.5,7.3c2.1,1.5,5,1.4,7-0.2c6.1-5,10.9-11.8,14.5-20.4
		c12.3-30.2,15.4-62.1,9.4-95.7c0-0.2-0.3-0.3-0.5-0.3C464.4,459.1,464.3,459.3,464.3,459.4z M392.1,438.7
		c-9.2,1.7-15.1,11.7-13.1,22.4s11,18,20.2,16.3l0,0c9.2-1.7,15.1-11.7,13.1-22.4S401.3,437.1,392.1,438.7z M303.2,472.4
		c0-11.2-9.1-20.3-20.3-20.3h0c-11.2,0-20.3,9.1-20.3,20.3l0,0c0,11.2,9.1,20.3,20.3,20.3C294.1,492.6,303.2,483.6,303.2,472.4
		L303.2,472.4z M201.2,531.1l-0.3,1.5c0,0,0,0.1,0,0.1c2.8,35.8,28.4,79.8,61.8,95.4c6.3,3,11.5,2.5,15.5-1.4
		c7.9-7.6,3.8-27.7-0.2-37.4c-7.5-18.2-17.4-34.4-29.7-48.5c-7.5-8.6-16.3-17-26.2-21.3c-0.6-0.3-1.2,0-1.5,0.6
		c-0.1,0.3-0.1,0.7,0,1l12.9,25.3c0.4,0.8,0.1,1.7-0.7,2.1c-0.1,0-0.2,0.1-0.3,0.1l-0.1,0c-1.4,0.3-2.8-0.1-3.7-1.2
		c-8.4-10.6-13.5-19.9-15.4-28.1c-0.2-0.7-0.7-1.3-1.3-1.6c-1.3-0.5-2.5-0.8-3.8-0.6c-1.1,0.1-2,1.1-1.9,2.2
		c0.5,11.4,9,24.5,15.6,35.1c0.6,1,0.8,1.8,0.4,2.5c-0.5,1.1-1.9,1.4-3.1,0.8c-0.2-0.1-0.4-0.3-0.6-0.4c-7.6-7.3-13.1-16-16.6-26.2
		c-0.1-0.2-0.3-0.4-0.6-0.3C201.3,530.8,201.2,530.9,201.2,531.1z"/>
	<path class="st0" d="M294.2,243.1c10.6-1.5,21.8,14.7,24.9,36.2c0,0,0,0,0,0c3.1,21.6-3,40.3-13.6,41.8c0,0,0,0,0,0
		c-10.6,1.5-21.8-14.7-24.9-36.2c0,0,0,0,0,0C277.5,263.4,283.6,244.7,294.2,243.1L294.2,243.1z M297,252c-2.7,0.5-3.9,6.6-2.7,13.8
		c0,0,0,0,0,0c1.2,7.1,4.4,12.5,7.1,12.1c2.7-0.5,3.9-6.6,2.7-13.8c0,0,0,0,0,0C302.9,256.9,299.7,251.5,297,252z"/>
</g>
</svg>
