<?xml version="1.0" encoding="utf-8"?>
<!-- Generator: Adobe Illustrator 26.0.1, SVG Export Plug-In . SVG Version: 6.00 Build 0)  -->
<svg version="1.1" id="Layer_1" xmlns="http://www.w3.org/2000/svg" xmlns:xlink="http://www.w3.org/1999/xlink" x="0px" y="0px"
	 viewBox="0 0 612 792" style="enable-background:new 0 0 612 792;" xml:space="preserve">
<style type="text/css">
	.st0{fill:#010101;}
</style>
<g>
	<path class="st0" d="M350,292.4c1.9-21.1,3.8-36.3,5.6-45.7c2.1-10.3,8.6-23.7,17.6-31.2c7.4-6.2,15.3-10.6,12.3-21.5
		c-1.6-5.8-2.2-11.1-1.3-16.2c0.2-1.1,0.6-2.1,1.2-3c13.7-20.3,31.5-38.5,48.8-54.1c7.7-7,23.4-11.6,30.8-1.2
		c15.9,22.4,35.1,59.1,24.8,86.7c-1.7,4.4-5.9,8.8-7.9,11.7c-1.2,1.8-1.1,4.1,0.1,5.9c1.9,2.6,4.5,4.9,7.8,6.9
		c8.3,5,6.4,32.7,6.6,40.6c0.4,19.1-2.5,38.5-15,53.1c-4.5,5.3-7.2,8.6-8.1,9.9c-0.9,1.3-1.4,2.7-1.7,4.2
		c-1.5,9.7-1.7,16.1-9.8,20.7c-6.2,3.6-10.6,5.8-14,10c-0.5,0.6-0.9,1.3-1.2,2c-0.7,1.6-2.8,6.4-6.3,14.5c-0.7,1.7-1.4,6.4-2,14
		c-0.2,2.1-1.5,5.6-4,10.5c-0.3,0.6-0.3,1.3-0.1,2c4.8,11.4,6.9,24.3,6.4,38.6c-0.1,3.6-1.3,12-3.5,25.3
		c-1.6,9.9-5.8,18.9-12.5,27.1c-0.4,0.5-0.5,1.1-0.2,1.7c8.3,17.9,16,34.1,16.8,54.3c0.2,6,0.9,13.7,1.9,22.9
		c0.2,2.2,0.9,4.4,1.8,6.3c6.1,12.3,9.1,23.6,5.7,37.3c-2.1,8.7-7.5,13.6-16.1,14.6c-1.2,0.1-2.3,1-2.7,2.1
		c-4,10.1-12.1,24.7-21.7,30.4c-7.4,4.4-19.8,1.7-26.4-2.3c-4.5-2.7-7.6-4.2-9.4-4.5c-5.8-0.8-9.9-1.1-12.3-0.8
		c-2.1,0.2-4,1.2-5.4,2.7c-2.8,2.9-5.2,5-7,6.3c-13.4,9.2-29,1.3-40.8-6.1c-1.6-1-3.4-1.7-5.3-1.9c-17.5-2.4-34.7-7.6-47.7-18.5
		c-1-0.9-2.5-1-3.6-0.4c-4.2,2.2-8.4,4.2-12.7,5.2c-15.7,3.7-29.9,5.7-42.7,6.1c-15.8,0.5-27.4-5.8-34.8-18.7
		c-4.9-8.5-7.5-13.1-8-13.7c-3.4-4.6-12.3-9.1-16.9-12.5c-8.8-6.6-19.2-16.9-20.4-27.7c-1.4-12.8,1.2-25.8,8.1-36.7
		c1.6-2.5,1.1-5.4-0.3-8.3c-4-8.2-5.5-17.4-4.6-27.6c1-11.2,8.7-23,14.7-32.8c1.9-3.1,5.7-10.8,11.4-23.1
		c10.6-22.8-4-39.4-13.1-58.6c-4.4-9.2-4.2-22.2,5.6-27.1c3-1.5,7.7-2.2,13.9-2c16.7,0.5,35.9,8.4,50.1,16.6
		c9.2,5.3,18.8,14.2,27.4,20.6c1.5,1.1,2.7,1.8,3.7,2c0.8,0.2,1.5-0.3,1.7-1.1c0.1-0.3,0-0.7-0.1-1c-2.7-4.9-4.3-9.8-4.9-14.7
		c-0.1-1.3-0.8-2.5-1.9-3.2c-5.8-4-10.1-7.3-13.6-13.5c-0.7-1.3-2.1-2.1-3.6-2c-8.2,0.3-17.5,0.4-21.2-7.9c-3.1-7-5-11.1-5.6-12.3
		c-1-2-2.6-3.7-4.6-4.6c-7.9-3.8-11.9-6.4-17.4-13.4c-14-17.5-24.6-36.1-27.4-58.6c-0.2-2,0.1-4,0.9-5.7l2.8-5.8
		c1.1-2.4,0.2-5.2-2-6.5c-16.3-8.9-20.5-25.1-21-42.8c-0.3-12.7-0.1-25,0.9-36.9c0.5-6,1.6-11.5,3.5-16.5c3.2-8.8,9.7-10,18.6-11
		c6.6-0.7,13.2,0.7,19.9,4.4c3.1,1.7,14.4,7.5,33.9,17.3c11.6,5.8,24.2,14.5,28.6,25.9c3.6,9.4,6.3,16.5,14.7,19.7
		c11.6,4.4,28.9,7.7,36.5,22.2c3.9,7.4,10.2,16,12.4,22c4.9,13.1,8.7,22.6,11.4,28.8c0.5,1.2,1.7,2.1,3,2.3c7,1,17.2-2.9,21.1-3.7
		c2-0.5,4.2-0.6,6.2-0.4l23.4,2.5C349.8,292.7,349.9,292.6,350,292.4C350,292.4,350,292.4,350,292.4z M374.5,363.8
		c0.1-0.5-0.3-1-0.9-1.1c-0.4,0-0.8,0.2-1,0.6c-5.5,10.5-13.8,18.8-25.2,25c-8.9,4.9-15.2,8.8-18.7,11.7c-7.5,6.1-9.4,12.5-13.5,23
		c-0.9,2.3-3,4-5.4,4.5c-13,2.4-21.3-11.8-22-22.8c-1.2-18.7,12.6-34.5,24.3-50.3c1.5-2,1.7-4.6,0.7-6.9l0-0.1
		c-0.7-1.6-2.6-2.2-4.2-1.5c-0.3,0.1-0.6,0.3-0.8,0.6c-5.4,5.1-8.9,11.5-10.6,19.2c-0.2,0.7-0.9,1.1-1.6,1c-0.6-0.1-1-0.6-1-1.2
		l-0.4-6.6c-0.1-1.3-1.2-2.2-2.4-2.1c0,0-0.1,0-0.1,0c-9.1,0.9-11.1,9.7-12.9,17.2c-0.2,0.7-0.9,1.2-1.7,1c-0.5-0.1-0.8-0.5-1-0.9
		c-0.5-1.6-0.5-3.4-0.1-5.6c1.7-8.8,9.5-18.2,19.7-15.6c0.6,0.2,1.3,0,1.7-0.5l10.1-10.8c1.2-1.3,1.1-3.3-0.2-4.5
		c-0.3-0.3-0.7-0.5-1.1-0.7c-4.6-1.7-12.2-3.1-14.8-5.7c-7.9-8.1,4.8-17.4,0.9-26.3c-4.9-11.2-9.7-22.1-14.2-32.7
		c-6.1-14.4-19.9-40.7-37-42.7c-17.9-2.1-20.1-11.4-28.9-28.4c-2.9-5.5-7.1-9.7-12.6-12.6c-18.7-9.8-34.1-17.9-46.3-24.4
		c-3.2-1.7-7.2-3.1-11.9-4c-10.4-2.2-14.6,6.3-16.1,15.3c-3.3,19.3-2.8,38.3,1.4,57c2.2,9.6,6.4,14.3,14.1,19.9
		c2.6,1.9,4.4,3.8,5.5,5.7c4.4,8,2,12.9-1.9,20.3c-0.8,1.6-1,3.4-0.6,5.1c2,7.6,4.4,14.2,7.2,19.7c2.4,4.7,9,14.7,20,29.9
		c1.9,2.6,3.9,4.4,6,5.4c3.1,1.5,8.8,1.4,11.8,4c4.6,4.1,5.3,9,7.5,16.6c0.9,3,2.9,4.5,6.1,4.4c11.5-0.3,14.3-0.7,20.5,8.6
		c6.5,9.8,18.7,11.7,30.6,14.4c1,0.2,1.9,0.8,2.4,1.6l0.6,0.8c0.3,0.4,0.2,1-0.2,1.3c-0.2,0.1-0.4,0.2-0.7,0.2
		c-5.3-0.5-15.3-4.2-14.8,5.7c0.1,2.3,1.3,4.9,3.7,8c0.6,0.8,0.9,1.7,0.9,2.6c0.1,2.1-0.1,3.8-0.6,4.9c-7.8,18.1-7.7,38.8-3.2,57.8
		c2.6,10.9,7.9,20.6,15.8,29.1c10.6,11.4,21.8,19.4,33.6,23.9c29.3,11.3,58.1,11.8,86.5,1.5c23.9-8.7,41.3-21.8,50.5-45.3
		c8.8-22.3,8.1-44-2.2-65.1c-0.9-1.8-0.8-3.9,0.1-5.7c2.6-4.9,8.4-14.8,0.9-17.5c-0.8-0.3-1.6-0.2-2.3,0.2l-9.2,5.3
		c-0.6,0.3-1.3,0.2-1.7-0.4c-0.2-0.3-0.2-0.8,0-1.1c2.7-5.8,8.9-9.1,15.8-12.9c7.4-4.2,7.9-9.2,9.2-17.4c0.1-0.7,0.4-1.4,0.8-2
		c2.8-4.1,9.1-5.4,15-7.4c10.3-3.5,3.8-13.3,6.8-20.1c1.9-4.4,3.6-7.1,5-8.1c10.2-6.7,16.2-17.2,17.8-31.4c1.5-13,2.8-25.3,3.8-36.8
		c0.5-5.6,0.6-18.1-4.9-21.4c-4.7-2.8-7.3-4.5-7.8-5.1c-4.7-6-4.2-14.2,0.8-20.2c4.2-5.1,7.9-9.9,7.8-16.7
		c-0.1-8.6-1.1-17.8-4.3-26.9c-6.6-18.5-10.1-31.5-23-41.8c-4.9-3.9-9.4-3.8-13.5,0.4c-11.7,11.7-26.3,26-43.7,43
		c-5.7,5.6-9.4,10.8-6.8,18.3c2,5.7,4,11.2,2.6,16.7c-2.6,10.4-13,14.9-18.1,19.4c-6.7,6-9.9,12.7-11.8,22.3
		c-1.6,8.3-3.1,16.1-4.6,23.2c-2.4,11.5-2.3,23.7,0.2,36.7c0.3,1.6,1,3.2,2,4.5c2.4,3.4,4.8,7,7,10.9c7,12.1,4.7,25.5,8.3,40.1
		c0.2,0.7,0.9,1.1,1.6,1c0.1,0,0.2-0.1,0.3-0.1c5.5-2.9,11.6-1.9,13.5,4.9c1.4,5.2,1.6,9.8,0.3,13.7c-0.3,0.8-1.1,1.2-1.9,1
		c-0.6-0.2-1-0.8-1-1.4c-0.1-2.9-0.6-6.9-1.5-11.9c-0.9-4.6-5.3-4.8-8.3-2.4c-0.2,0.1-0.3,0.3-0.4,0.5l-4.7,7.8
		c-0.4,0.6-1.2,0.8-1.8,0.5c-0.4-0.3-0.7-0.7-0.6-1.2L374.5,363.8z M311.6,421.6c2.1-3.5,3.3-9,5.3-12.7c4-7.4,9.3-12.9,15.9-16.6
		c21.8-12,43.9-25.9,38.9-53.3c-2.1-11.5-7.1-24-17.3-30.8c-14.1-9.4-28.6-11.3-43.6-5.7c-8.9,3.3-15,8.6-17.8,17.6
		c-3.1,9.8,10.4,9.5,15,12.8c7.9,5.8,10.3,13.1,7.3,21.8c-0.8,2.3-2.9,5.7-6.4,10.2c-11.5,15-25.8,33.6-12.9,53
		c2.9,4.3,6.8,6.3,11.8,5.9C309.4,423.7,310.8,422.9,311.6,421.6z M184.1,549.5c12.6-13,30.3-29.6,32.3-49.3
		c2.6-25.7-3.6-48.7-18.6-69.2c-9.4-12.8-20.7-24-33.9-33.7c-0.4-0.3-0.5-0.9-0.2-1.3c0.2-0.3,0.6-0.4,1-0.4c1.8,0.5,3.3,1,4.3,1.8
		c17.1,12.2,30.7,27.6,40.7,46.3c8.4,15.7,10.7,28.7,10.8,46c0.1,15.1-3.9,28.1-13.1,39.7c-0.1,0.1-7.8,9-23.2,26.7
		c-10.8,12.4-16.2,25.6-10.7,41.2c0.1,0.3,0.5,0.5,0.8,0.4c0.2-0.1,0.3-0.2,0.4-0.4c2.6-10,13-23.6,25-21.4c0.3,0.1,0.5,0.4,0.5,0.7
		c0,0.2-0.1,0.3-0.3,0.4l-14.7,7.9c-0.7,0.4-1.3,0.9-1.8,1.4c-4.4,5.2-6,11.2-4.8,18c0.9,4.7,4.3,9.6,10.2,14.7
		c15.8,13.7,36.6,13.9,56,11.6c0.9-0.1,1.6-0.9,1.5-1.9c0-0.3-0.2-0.7-0.4-0.9l-1.9-2.1c-0.7-0.8-1.8-1.3-2.9-1.3
		c-9.3,0-22.2-3.9-26.9-12.7c-5.9-11-0.2-25.8,7.3-34.5c3.9-4.5,15.4-14.5,18.7-23c5.5-13.9,13-28,22.5-42.3c0.6-0.9,0.5-2.2-0.2-3
		c-7.9-8.5-13.5-13.2-17.8-22c-8.4-16.8-11.7-34.3-10-52.4c0.4-4.5,0.1-7.9-2.4-11c-10.9-13.5-23.5-23.8-37.6-31
		c-16.4-8.3-31.2-13.7-49.1-13.7c-3.8,0-6.3,1.8-7.3,5.5c-0.2,0.6-0.2,1.3-0.1,1.9c0.5,3.1,1.3,5.6,2.2,7.3
		c5.6,9.9,9.6,17.7,12,23.4c8.4,19.8,7.9,43.8-5.5,61.3c-8.1,10.6-24.9,34.7-18.3,48.6c6.8,14.2,10.3,21.3,0.6,33.3
		c-12.9,15.9-5,31.6,9,43.1c6.4,5.2,20.1,11.2,25.2,20.6c3,5.4,4.8,12.6,9.3,17.7c6.7,7.6,20.8,9.6,29.9,8.9
		c13.8-1,27.4-4.4,40.6-10.2c2.6-1.2,4.6-2.3,5.8-3.4c0.4-0.4,0.5-0.8,0.3-1.2c-0.1-0.2-0.3-0.4-0.5-0.5c-0.3-0.2-0.6-0.3-0.9-0.2
		c-5,0.7-13.1,0.8-24.2,0.2c-18.6-1-33.2-7.5-43.7-19.6c-11.3-13-15-26.9-9.9-43.6c0.8-2.5,2.9-7.3,6.5-14.4
		c3.2-6.5,4.6-14.5,3.9-24c-1-15.1-6.5-27.8-16.6-38.1c-0.8-0.9-1.2-2.1-1-3.3l0.1-0.7c0.1-0.6,0.7-1,1.3-0.9c0.2,0,0.4,0.2,0.6,0.3
		c15.7,16.6,21.7,36,18.1,58.1c0,0.3,0.2,0.6,0.5,0.6C183.8,549.6,184,549.6,184.1,549.5z M361.3,619.5c-0.5,11.9-2.1,23.8-4.7,35.9
		c-0.1,0.6,0.2,1.2,0.8,1.3c0.1,0,0.2,0,0.3,0l17.7-1c0.7,0,1.2-0.6,1.2-1.3c0-0.1,0-0.3-0.1-0.4c-4.4-11.7-6.7-23.5-6.7-35.6
		c0-0.5,0.3-1.1,0.7-1.4l0.5-0.3c0.5-0.3,1.1-0.2,1.4,0.3c0.1,0.1,0.1,0.2,0.1,0.4c1.5,8.3,3,17.1,4.5,26.4c0.5,3.3,2.1,7.2,4.7,12
		c6.1,11.1,18.5,15.3,27.7,4.8c9.2-10.6,13.5-23.3,18.2-37.7c0.6-1.8,1.3-2.9,2.3-3.4c0.5-0.3,1.2-0.1,1.5,0.4
		c0.1,0.2,0.2,0.5,0.1,0.7c-1.1,6,0.3,9.4,4.2,10.3c4.4,1,7.4-5.7,7.9-8.9c1.2-7.4-0.1-15.2-3.8-23.4c-0.3-0.7-1.2-1.1-1.9-0.7
		c-0.1,0-0.1,0.1-0.2,0.1l-0.9,0.6c-0.4,0.3-1,0.2-1.3-0.3c-0.1-0.1-0.2-0.3-0.2-0.5c-1.3-31.2-0.3-69.2-21.5-89.5
		c-0.5-0.5-1.3-0.5-1.8-0.1c-9.4,7.9-20.9,14.1-34.7,18.8c-29.8,10.1-59.4,9.2-88.8-2.7c-6.8-2.8-14.1-7.7-19.4-10
		c-0.5-0.2-1.2-0.1-1.5,0.3c-25.3,28.4-33.3,61-23.9,98c5,19.6,21.5,35.3,40.8,40.4c8.3,2.2,15.4,3.6,21.2,4.1
		c0.8,0.1,1.4-0.5,1.5-1.2c0-0.2,0-0.5-0.1-0.7l-9-19.7c-0.2-0.5-0.8-0.7-1.2-0.4c-0.1,0-0.2,0.1-0.3,0.2
		c-4.4,4.4-12.3,6.8-16.8,1.6c-1.5-1.7-2.3-4.4-2.5-8.2c-0.4-8.7,2.2-17.1,7.8-25.2c0-0.1,0.1-0.1,0.2-0.1l1.7-0.6
		c0.3-0.1,0.7,0,0.9,0.4c0.1,0.2,0.1,0.4,0,0.6c-2.3,4.4-4.3,9.8-6.1,16.3c-1.1,4-2.7,18.7,6.3,15.7c5.9-1.9,8.9-6.4,9-13.5
		c0-0.6,0.5-1.1,1.1-1.1c0.2,0,0.3,0,0.5,0.1c0.6,0.3,0.9,0.7,1.1,1.3c1.6,7,4,14.6,7,22.7c4.8,12.8,11.2,20.4,24.4,23.3
		c25,5.5,25.2-35,27.6-49.5c0.1-0.4,0.5-0.7,0.9-0.7l0.6,0.1C360.8,618.3,361.3,618.9,361.3,619.5z M235.5,569.5
		c-10.5,8.7-17,15.3-19.6,28.1c-3.2,15.2,10.3,24.4,24.1,21.8c0.8-0.2,1.4-0.9,1.2-1.8c0,0,0-0.1,0-0.1c-4.3-15.8-5.8-31.6-4.4-47.4
		c0-0.4-0.3-0.8-0.7-0.8C235.9,569.3,235.7,569.4,235.5,569.5z"/>
	<path class="st0" d="M470.4,188.1L470.4,188.1c0.6,0.3,0.8,0.9,0.6,1.4c-3.7,10.3-10.3,19.1-17.8,27.1c-1.6,1.8-2.1,4.4-1.1,6.6
		c14.8,33.7,9.2,69.3-8.2,102.3c-7.9,14.9-19.7,25.3-35.4,31.1c-8.2,3.1-15.7-2.1-19.7-9.8c-11.8-22.7-8.3-53.4-2.1-77.3
		c5.8-22.4,14-39.5,31.9-53.4c4.6-3.6,10.2-5.8,16.7-6.6c0.6-0.1,1.1-0.5,1.3-1c1.5-4,3.1-11.6,4.9-22.8c2-12.3,3.2-23.6,3.5-33.7
		c0-0.7,0.5-1.3,1.2-1.5l0.1,0c0.7-0.1,1.3,0.3,1.4,1c0,0,0,0.1,0,0.1c1,18.5-2.6,36.1-7,57.3c-0.1,0.6,0.1,1.2,0.6,1.6l5.8,4.6
		c0.5,0.4,1.3,0.4,1.8,0c8.8-7.7,14-16.3,19.8-26.5C469.1,188,469.8,187.8,470.4,188.1z M440.2,214.2c-10.2-2.2-16,1.7-24.2,8.8
		c-6.4,5.5-11.2,11.7-14.5,18.4c-11.7,24.2-17,48.8-16.2,73.7c0.4,11.6,1.9,23.6,8.7,32.9c6.6,9.1,16.3,4.9,24.4-0.3
		c16.6-10.6,28.7-31.3,33.3-50.8c2.8-11.7,6.1-24,5.1-35.6c-0.8-9.2-2.1-17.6-3.9-25C451.7,231.7,446,215.5,440.2,214.2z"/>
	<path class="st0" d="M146.5,184.3L146.5,184.3c0.9,0.3,1.6,0.9,2,1.7c3.9,7.5,8.4,18.4,15.8,27.3c8.9,10.7,14.3,17.1,16.1,19
		c1.2,1.3,2.9,2,4.6,2c25.8,0.6,51.9,24.8,66.5,44.9c5.5,7.6,11.3,17.5,17.4,29.8c6.6,13.2,11.3,29.5,6.5,44.1
		c-5.5,16.7-28.7,7.7-39,1.1c-10-6.5-22.5-14-30.7-23.3c-19.6-22.3-35.6-51.6-33.2-81c0.1-0.9-0.5-1.7-1.3-1.9
		c-9.8-3.3-18.3-8.4-25.4-15.5c-0.4-0.4-0.4-0.9-0.1-1.3l0,0c0.3-0.4,0.9-0.5,1.3-0.2c7.3,5.3,16.1,9.2,26.1,11.6
		c0.7,0.2,1.5,0,2.1-0.5c1-0.8,1.9-2.2,2.6-4.1c0.2-0.6,0.1-1.4-0.4-1.8c-13.8-13.7-26.2-32-32.3-51c-0.1-0.4,0.1-0.9,0.5-1
		C146.2,184.3,146.4,184.3,146.5,184.3z M182.9,239.8c-8.2,7.4-8,19.5-5.6,30.3c7.8,34.6,32.9,66.1,63.1,82.6
		c10.1,5.5,29.9,13.2,33-5.4c2.2-13.4-3.3-27.9-9.4-40c-15.6-31-41.2-61.9-76.2-68.9C186,238.1,184.2,238.6,182.9,239.8z"/>
	<path class="st0" d="M364.5,517c-8.5-0.7-15.3-6.6-17.6-14.8c-4.4-15.4-2.6-30.4,5.2-44.9c8-14.7,19.8-19.7,35.4-14.8
		c9.9,3.1,15.9,11.4,17.8,22c3.1,16.8-1.6,31.2-13.8,43.1C384.2,514.7,375.2,517.8,364.5,517z M396,453c-4.9-5.6-18.9-12.8-24.6-4.1
		c-5.8,8.8-8.2,18.2-7.4,28.2c1.1,13.3,12.9,20.8,25.3,17.5c13.9-3.7,14.3-18.4,11.7-30.6C400,459.4,398.4,455.7,396,453z
		 M393.4,497.7c-7.6,2.4-15,1.7-22.2-2.1c-15.8-8.4-12.3-33-5.1-46.2c0.2-0.3,0.1-0.7-0.3-0.9c-0.2-0.1-0.4-0.1-0.6,0
		c-1.7,0.7-3.1,1.7-4.4,2.9c-12.3,12.2-14.8,33-9.9,49.5c2.4,8.1,6.9,12.3,15.5,12.5c11.4,0.3,20.6-4.6,27.5-14.8
		c0.2-0.3,0.1-0.6-0.1-0.8C393.8,497.6,393.6,497.6,393.4,497.7z"/>
	<path class="st0" d="M284.6,509.5c-8.7,2-15.8-3.7-21.4-9.9c-6.7-7.5-11.2-16.7-13.4-27.5c-2-9.9-0.7-22.6,8.5-27
		c21.1-10,32,32,33.7,45C292.9,496.8,292.4,507.7,284.6,509.5z M257.4,450.2c-0.6,0.3-1,0.8-1.4,1.4c-9.7,17.2,2.6,40.4,16.3,51.3
		c2.5,2,5.4,3.2,8.9,3.5c2.6,0.3,5.1-1,6.1-3.3c1.2-2.6,1.6-6.3,1.1-10.9c-0.1-0.6-0.5-1.1-1.1-1.1c0,0-1.8,0.1-5.2,0.4
		c-7.9,0.7-14.6-4.3-18.3-11.1c-5.6-10.3-6.1-20.5-1.4-30.4c0.3-0.6,0-1.3-0.6-1.6c-0.4-0.2-0.8-0.2-1.1,0L257.4,450.2z
		 M285.7,485.1c0.3-0.8,0.2-2.6-0.1-5.3c-1.1-9.3-4.6-17.6-10.6-25.2c-2.3-2.9-4.3-4.4-6.1-4.7c-0.5-0.1-1.1,0.1-1.5,0.6
		c-6.3,6.8-5,19.1-1.4,27c3.1,6.7,8.1,10.2,15.2,10.6C283.3,488.2,285.1,487,285.7,485.1z"/>
	
		<ellipse transform="matrix(0.2147 -0.9767 0.9767 0.2147 -241.7164 696.0253)" class="st0" cx="312" cy="498.3" rx="3.6" ry="6.6"/>
	<path class="st0" d="M299.6,501.7c-0.1-0.4,0.1-0.8,0.5-0.9c0.3-0.1,0.6,0,0.8,0.2c3.5,3.9,5.4,5.9,5.5,6c6.7,5.6,14.2,2.9,20-2.5
		c0.4-0.4,1.1-0.4,1.5,0.1c0.2,0.3,0.3,0.7,0.2,1c-1.4,4.3-4.4,6.8-9,7.5C308.8,514.8,302.3,511,299.6,501.7z"/>
	<path class="st0" d="M381,560.4c-0.1-0.4,0.1-0.8,0.5-0.9c0.1,0,0.2,0,0.4,0c6.5,1.6,15.4,5.2,19.2,0c1-1.3,0.1-3.7-1.9-5.3
		c-2.8-2.2-7-4.7-12.7-7.4c-0.6-0.3-0.9-1-0.6-1.6c0.2-0.3,0.5-0.6,0.9-0.7c1-0.2,2.5,0,4.3,0.6c6.2,2.2,10.6,5.8,13.3,10.9
		c3.2,6.2-3.2,9.5-8.6,10.4c-0.4,0.1-0.7,0.5-0.6,0.9c0,0.1,0.1,0.3,0.2,0.4c5,5.6,16.7,22,7.2,28.2c-4.8,3.1-10.2,4.1-16.1,2.7
		c-12.3-2.7-29.5-11.4-34.9-23.8c-0.2-0.5,0-1,0.5-1.2c0.1-0.1,0.3-0.1,0.5-0.1c0,0,0.3,0.1,0.6,0.2c0.2,0.1,0.4,0.2,0.5,0.4
		c9.3,12.2,26.3,22.8,41.9,20.1c1.9-0.3,3.7-1.6,5.4-3.9c5.3-6.9-13.1-23.1-17.1-25.9C382.4,563.4,381.4,562.1,381,560.4z"/>
</g>
</svg>
