<?xml version="1.0" encoding="utf-8"?>
<!-- Generator: Adobe Illustrator 26.0.1, SVG Export Plug-In . SVG Version: 6.00 Build 0)  -->
<svg version="1.1" id="Layer_1" xmlns="http://www.w3.org/2000/svg" xmlns:xlink="http://www.w3.org/1999/xlink" x="0px" y="0px"
	 viewBox="0 0 612 792" style="enable-background:new 0 0 612 792;" xml:space="preserve">
<style type="text/css">
	.st0{fill:#010101;}
</style>
<g>
	<path class="st0" d="M372.5,511.5c-0.1,0-0.3,0.1-0.3,0.2c0,0.1,0,0.2,0.1,0.2l9.1,10c0.4,0.5,1,0.7,1.6,0.7
		c2.4,0.1,10.3,0,10.4,3.6c0,0.4-0.1,0.8-0.3,1.2c-0.8,1.3-1.9,2.4-3.4,3.1c-0.3,0.2-0.5,0.6-0.3,0.9c0,0,0.1,0.1,0.1,0.1l2.2,2.4
		c0.3,0.3,0.4,0.8,0.3,1.3c-1.1,3.3-3.6,3.1-6.6,4c-0.5,0.2-0.8,0.7-0.7,1.3c0,0.1,0,0.1,0.1,0.2c1.3,2.6,1.2,4.1-0.5,4.5
		c-13.2,3.2-38.2-15.8-48.3-24.1c-0.5-0.4-1.2-0.6-1.8-0.6l-24.2,2.7c-0.5,0.1-1,0.3-1.4,0.6l-8.5,7.7c-0.4,0.3-0.7,0.7-0.9,1.2
		c-9.8,21.7-30.9,28.3-51.8,18c-1.4-0.7-3-1-4.5-0.9c-30.4,2.5-49.9-11.6-52.6-42.9c-0.1-0.6-0.3-1.2-0.8-1.6
		c-7.1-6.5-13-14.4-17.7-23.6c-1.8-3.5-2.9-6.2-3.3-8.2c-0.3-1.4,0.4-2.7,1.9-3.8c9.2-6.6,18.9-11.7,28.9-15.2
		c0.5-0.2,0.9-0.5,1.2-0.9c13.3-20,32.2-31.4,56.8-34.1c0.4,0,2.5-0.2,6.3-0.6c0.5-0.1,1-0.2,1.3-0.6c6.9-5.6,14.5-10.1,22.7-13.5
		c3-1.3,5.9-2,8.5-2.3c4.5-0.4,6.8,4.3,8.3,7.9c3.8,9.5,6.7,20,8.6,31.4c0.2,1.4,0.9,2.6,1.9,3.5c3.8,3.4,7.4,7.7,10.9,13.1
		c0.2,0.3,0.5,0.4,0.8,0.2c8.7-4.4,13.1-10.6,14.6-20.5c2.9-17.9,6.3-38.5,18-52.8c2.3-2.9,4.9-5.1,8.3-8.1c0.6-0.5,1-1.1,1.4-1.7
		c1.4-2.5,4.2-6,8.4-10.4c5.4-5.7,10.5-10.6,15.4-14.7c0.1-0.1,0.2-0.3,0-0.5c-0.1-0.1-0.1-0.1-0.2-0.1c-2.2-0.2-3.7-0.5-4.7-0.8
		c-5.6-1.8-5.7-7.9-2.6-12.1c3-4,9.4-12.1,19.2-24.3c0.6-0.8,1-2.5,1.1-5.1c0.9-19.5-5.4-36.1-25.4-41.7c-16-4.5-34.8,1.7-49.3,9.3
		c-13.8,7.2-27.1,16.2-40.2,27c-17.2,14.2-32,28.4-44.5,42.7c-3.2,3.6-13.9,16.6-32.1,39c-13.4,16.4-28.4,33.3-44.1,45.6
		c-11,8.6-29.6,17.4-41,3.4c-16.6-20.4,9.5-65.6,21.8-84c12.8-19.3,28.1-36.9,45.3-57.1c6-7.1,11-13.8,15-20
		c3.5-5.5,5.3-16.7-1.8-20.6c-7.5-4.1-21.6,3.5-25.6,9.8c-3,4.6-6.5,11.2-10.7,19.9c-1.7,3.5-4.2,7.2-7.6,11.1
		c-2.2,2.5-5.6,5.3-10.3,8.2c-30,18.6-48.8,30.8-70.3,42.7c-3.8,2.1-10.6,4.1-11.6-2.1c-0.8-5.1,3.5-12.3,6.3-16.1
		c23.1-31.4,53.1-58.3,87.8-75.9c13.2-6.7,29-12.8,43.6-12.6c10.4,0.1,17.5,8.2,18.3,18.2c1.1,14.2-6.4,27-15.2,37.5
		c-15.5,18.5-91.6,108.2-71.5,130c9.8,10.6,39.7-24.7,44.9-30.9c23.7-28.2,35.7-42.9,56.4-64.6c16.3-17,32.5-31.7,48.7-44.1
		c20.4-15.6,44.4-29.6,69.4-32.7c29-3.6,51.8,9.8,59.1,38.9c0.1,0.3,0.3,0.4,0.6,0.4c0.1,0,0.2-0.1,0.3-0.2
		c8.1-11.4,15.3-22.9,21.7-34.7c3.2-6,8.7-14.5,16.4-14.6c2.2,0,4.1-1.1,6.1-1c2.8,0.1,4.9,1.4,6.3,3.7c1,1.6,1.6,2.6,2,2.9
		c10.1,8.1-2.5,26-7.9,33.9c-12.5,18.2-26.2,35.6-41,52.2c-1.9,2.1-3.6,2.9-4.6,5.5c-0.7,1.9-0.9,3.8-0.6,5.6
		c0.1,0.8,0.9,1.3,1.7,1.2c0.3,0,0.5-0.2,0.7-0.4c1.3-1.2,4.7-3.8,10.3-7.6c19.9-13.9,39.7-29.6,59.4-47.2
		c8.2-7.4,16.5-18.6,26.5-23c4.6-2.1,8.4-0.4,13.5,1.9c2.5,1.1,3.9,3.2,4.1,6.2c0,0.6,0.5,2,1.5,4.1c0.2,0.5,0.4,1.1,0.4,1.7
		c0.8,9.2-5.2,18.6-11.6,25.2c-16,16.3-35.2,28.6-55.7,40.4c-5,2.9-13.3,8.3-15.5,13.6c-1.4,3.3,3.2,12.8,7,22.7
		c9.4,24.5,0.2,46.6-22.1,58.7c-0.5,0.3-0.9,0.8-1,1.4c-4.5,19.2-17.4,36.9-32.8,49c-0.2,0.2-0.2,0.5-0.1,0.7
		c0.1,0.1,0.1,0.1,0.2,0.2l13.4,4.5c0.3,0.1,0.6,0.1,0.9,0.1c0.7,0,2.4-0.1,5.1-0.2c2.4-0.1,3.6,1.3,2.9,3.5
		c-0.1,0.3-0.9,1.6-2.4,4.1c-0.2,0.4-0.1,0.8,0.2,1.1c0,0,0.9,0.7,2.6,2c5.4,4.2-1.9,6-5.2,7.2c-0.3,0.1-0.5,0.5-0.4,0.8
		c0,0.1,0.1,0.1,0.1,0.2c1.6,2,2.1,3.7,1.6,5.2c-0.1,0.3-0.4,0.6-0.8,0.6c-1.8,0.2-2.9,0.2-3.4,0.1c-7.6-2.4-16.4-3.9-26.4-4.6
		C387.6,514.9,380.1,513.6,372.5,511.5z M434.7,442.6c-4.5,2.2-9.6,3.6-15.2,4.2c-0.5,0.1-1-0.3-1.1-0.8c0-0.1,0-0.2,0-0.3
		c0.1-0.3,0.3-0.5,0.7-0.7c13.6-4.4,29.7-11.5,37.5-23.7c6.1-9.5,7.9-20.8,5.2-32.1c-1.9-8-5-14.7-8-22.3c-2.2-5.6-2.5-10,1.4-14.3
		c7.3-7.9,16.9-12.6,28.8-19.6c11.3-6.7,22.4-14.8,33.2-24.1c3.5-3.1,7.3-7,11.3-11.9c3.2-4,8.4-13.5,6.4-18.7
		c-0.2-0.6-0.9-0.9-1.5-0.7c0,0-0.1,0-0.1,0c-6.5,3.1-11.5,9.1-17.1,13.9c-0.7,0.6-1.3,0.7-1.8,0.5c-0.4-0.2-0.6-0.8-0.4-1.2
		c0,0,0-0.1,0.1-0.1c5.5-7.5,11.6-13,18.4-16.4c0.9-0.5,1.3-1.6,0.8-2.5c-0.2-0.3-0.4-0.6-0.7-0.8l-1.2-0.7c-1.7-1-3.7-0.9-5.4,0.2
		c-5.2,3.4-11,8.2-17.3,14.3c-0.7,0.7-1.3,0.9-1.9,0.9c-0.5-0.1-0.8-0.5-0.7-1c0-0.1,0.1-0.2,0.1-0.4c3.7-6.4,11.1-12,17.2-16.4
		c0.1-0.1,0.2-0.3,0.1-0.4c-0.1-0.1-0.2-0.1-0.3-0.1c-5.4,0.8-11.7,6.5-15.4,10.4c-7.7,7.9-15.2,15-22.5,21.3
		c-18,15.5-36.7,29.9-56.2,43.3c-2.3,1.6-5.1,4-6.4,6.2c-2.7,4.6-1.2,8.9,3.3,11c1.2,0.6,2.2,1.1,3.1,1.5c0.4,0.2,0.6,0.6,0.6,1.1
		c-0.1,8.6-4.6,13.9-11.3,17.6c-7,3.9-12.6,7.5-16.9,11c-0.4,0.3-0.9,0.3-1.2-0.1c-0.2-0.3-0.3-0.6-0.1-0.9c2-4.4,7.5-7.6,12.1-10.1
		c0.4-0.2,0.6-0.7,0.3-1.1c-0.1-0.1-0.2-0.2-0.3-0.3l-4.7-2.8c-0.6-0.4-1.4-0.2-1.8,0.5c-0.6,1-3.2,4.3-4.9,4.4
		c-0.5,0-0.9-0.3-0.9-0.8c0-0.2,0-0.4,0.1-0.5c16.7-26.2,25.7-60.5,17.6-91c-3.8-14.5-12.9-26.6-26.9-32.2
		c-21.2-8.4-47.4-0.3-66.6,10.3c-14.4,7.9-28,17.3-40.6,28.1c-22.9,19.5-45.3,42.3-67.1,68.2c-15.8,18.8-25.7,30.5-29.8,35.3
		c-7.5,8.7-37.8,43.6-48.6,23.5c-9-16.7,13.9-51.6,23.3-65.7c13.7-20.3,31.1-42.9,52.1-67.7c4.8-5.7,8.5-12.2,11-19.4
		c3.3-9.6,3.2-21.6-6.4-27.2c-3.6-2.1-9.4-1.8-13.6-1.2c-18.9,2.7-37.7,12-54.1,22.6c-26.4,17.1-49,38.6-68,64.7
		c-2.3,3.1-6,9.4-5.4,13.1c0.2,1.1,1.2,1.8,2.3,1.7c0.2,0,0.4-0.1,0.5-0.2c4.3-2,10.3-5.3,17.9-9.9c10.1-6,28.6-17.5,55.6-34.3
		c4.7-3,7.9-5.4,9.6-7.4c3.4-4,5.7-7.3,7-10c3.6-7.5,7-13.9,10-19c3.2-5.4,7.6-9.2,13.3-11.7c6.3-2.7,13.9-4.6,19.3-0.8
		c5.3,3.7,6,10.1,5.2,16.2c-0.9,7.2-8.1,16.1-12.4,21.4c-11.2,13.8-35.6,41.1-50.9,63.8c-8.2,12.2-15.1,25.2-20.7,38.9
		c-4.7,11.7-8.9,27.3-3.3,38.9c2.6,5.4,8.7,8.9,14.5,8.8c5.6-0.1,11.1-1.9,16.6-5.4c8.8-5.5,17.6-13,26.6-22.6
		c17-18.1,26.8-30.8,47.2-55.7c18.6-22.7,39.6-43.1,63.2-60.9c22.3-17,58.1-38.8,86.3-28.5c21.8,7.9,27.3,29.6,24,50.6
		c-3.4,22.1-12,42.3-25.8,60.5c-1.7,2.2-3.7,4.1-6.1,5.7c-0.4,0.3-1.1,0.2-1.4-0.2c-0.2-0.3-0.2-0.8,0-1.2l1.4-2
		c0.2-0.2,0.1-0.5-0.1-0.7c-0.1-0.1-0.3-0.1-0.5,0c-22.1,11-27.2,36.1-30.7,58.1c-1.2,7.1-2.3,11.7-3.5,14
		c-3,5.8-7.5,10.1-13.6,13.1c-0.4,0.2-0.6,0.6-0.5,1c0.4,1.6,1.4,3.6,1.9,5.6c4.6,18.6-3.9,36.7-16.5,50.2c-0.2,0.2-0.2,0.5,0,0.6
		c0.1,0.1,0.2,0.1,0.3,0.1c15.1-0.9,29.1-3.2,42.2-6.8c3.2-0.9,6.1-1.9,8.8-3c0.3-0.1,0.4-0.4,0.3-0.7c0-0.1-0.1-0.2-0.2-0.2l-3-1.7
		c-0.4-0.2-0.6-0.8-0.3-1.2c0.1-0.2,0.3-0.3,0.5-0.4c0.5-0.2,1.1-0.2,1.7,0c8.2,2.8,16.4,4.8,24.4,6c6.3,0.9,15.3,1,22.1,2.5
		c5.9,1.3,9.4,2,10.5,2.3c0.2,0,0.4-0.1,0.4-0.3c0-0.1,0-0.2-0.1-0.3l-2-2.8c-0.3-0.4-0.2-1,0.2-1.3c0.1,0,0.1-0.1,0.2-0.1l6.9-2.7
		c0.3-0.1,0.5-0.5,0.4-0.9c0-0.1-0.1-0.2-0.2-0.3l-3.7-2.6c-0.6-0.4-0.7-1.3-0.3-1.9c0,0,0,0,0,0l2.6-3.7c0.2-0.2,0.1-0.5-0.1-0.7
		c-0.1-0.1-0.2-0.1-0.3-0.1c-2.3,0.1-4.1,0.1-6.6-0.7c-6.4-2-13.1-4.3-20.2-7c-1.7-0.6-3.2-1.4-4.4-2.2c-0.5-0.3-0.7-1-0.4-1.4
		c0.1-0.1,0.2-0.2,0.3-0.3c0.2-0.1,0.6-0.2,1,0c3,0.8,5.3,1.4,6.8,1.9c0.4,0.1,0.8,0.1,1.2,0c0.4-0.1,1.4-0.8,2.9-2
		c14.5-11.6,24.6-26,30.4-43.3c0.1-0.4-0.1-0.8-0.4-0.9C435.1,442.5,434.9,442.6,434.7,442.6z M423.5,301.9c0.7,8.9,0.4,17.8-1,26.7
		c0,0.2,0.1,0.4,0.3,0.4c0.1,0,0.2,0,0.3-0.1c13.2-14.7,25.7-30.4,37.6-47.1c5.3-7.4,18.3-24.7,13-33.3c-0.6-1-2-1.3-3-0.7
		c0,0-0.1,0-0.1,0.1c-6,4.2-8.7,9-14.1,16.6c-0.3,0.5-1,0.6-1.5,0.3c-0.1-0.1-0.2-0.2-0.3-0.3c-0.3-0.4-0.4-0.9-0.1-1.4
		c3.5-8,8.3-14,14.4-18.1c0.6-0.4,0.8-1.3,0.4-1.9c-0.1-0.2-0.3-0.3-0.5-0.4l-1-0.6c-1.4-0.8-3.1-0.6-4.3,0.4
		c-5.6,4.7-10.9,14.8-13.6,18.8c-0.3,0.4-0.7,0.6-1.1,0.7c-0.5,0.1-0.9-0.3-0.9-0.7c0-0.1,0-0.2,0-0.3c1.1-5.6,6.2-12.5,9.6-16.8
		c0.2-0.3,0.2-0.7-0.1-0.9l0,0c-0.2-0.2-0.6-0.2-0.8,0c-4.4,4.4-7.6,8.3-9.4,11.8c-7.5,14.1-15.4,26.7-23.9,38
		c-0.4,0.6-0.7,1.3-0.6,2.1l0.4,3.3c0,0.2,0.1,0.3,0.3,0.3c0.1,0,0.2-0.1,0.2-0.2c3-8.5,7.9-15.7,14.7-21.8c3.5-3.1,8-1.2,6.3,3.7
		c-2.6,7.5-7.3,14.3-13.8,20.3c-2.3,2.1-4.6,2.5-6.7,1c-0.2-0.1-0.4-0.1-0.5,0.1C423.5,301.7,423.5,301.8,423.5,301.9z M440.8,279.4
		c-0.8-0.5-4.4,3.3-8.1,8.5c0,0,0,0,0,0c-3.7,5.3-6.1,10-5.3,10.5c0.8,0.5,4.4-3.3,8.1-8.5C439.2,284.7,441.6,280,440.8,279.4z
		 M387.1,344.8c0,0.4,0.2,0.7,0.6,0.7l7.5,1.4c0.4,0.1,0.7-0.1,0.8-0.5l9-26c0.1-0.4-0.1-0.8-0.4-0.9c-0.3-0.1-0.6,0-0.8,0.2
		l-16.4,20.3c-0.1,0.1-0.2,0.3-0.2,0.4L387.1,344.8z M419.2,346.3c-0.1-0.1-0.4-0.1-0.5,0c0,0-0.1,0.1-0.1,0.1
		c-2.7,8.8-6.2,17.2-10.5,25.2c-0.1,0.3,0,0.6,0.2,0.8l7.6,4.4c0.3,0.2,0.7,0.2,1,0c4.7-3,8.7-6.7,9-12.4c0-0.4-0.2-0.8-0.6-1
		c-7.7-4.1-9.2-8.4-5.8-16.7c0-0.1,0-0.1,0-0.2L419.2,346.3z M376.1,372.8c3.8-0.6,6.7-2.6,8.6-6.1c0.2-0.4,1.8-2.9,4.6-7.5
		c0.1-0.2,0.1-0.5-0.1-0.6c-0.2-0.1-0.4-0.1-0.6,0.1l-12.7,13.8c-0.1,0.1-0.1,0.3,0,0.4C375.9,372.7,376,372.8,376.1,372.8z
		 M196.6,459.1c-8.6,3.6-16.7,8.1-24.2,13.5c-0.5,0.3-0.6,0.9-0.4,1.5c4.1,9.7,9.7,18.5,17,26.2c0.2,0.2,0.5,0.2,0.7,0
		c0.1-0.1,0.1-0.2,0.2-0.3l0.4-12.7c0-0.7,0.3-1.4,0.9-1.9l0.4-0.4c0.3-0.3,0.8-0.3,1,0c0.1,0.1,0.2,0.3,0.2,0.5
		c0.6,16.4-0.2,37.4,12,49.9c9.1,9.3,21.7,11.9,34.9,11.4c0.4,0,0.8-0.4,0.8-0.8c0-0.1,0-0.2,0-0.2l-0.6-1.8
		c-0.1-0.3,0.1-0.7,0.4-0.8c0.2-0.1,0.4,0,0.5,0.1c4.5,3,9.1,5.3,13.7,6.8c21,7.1,38.7-4.3,43.7-25.1c0.8-3.3,1.4-6.5,1.9-9.7
		c0.1-0.6,0.6-1,1.1-0.9l0.4,0c0.5,0,0.9,0.5,0.9,1c0,0,0,0,0,0l-0.8,9.4c0,0.2,0.1,0.4,0.3,0.4c0.1,0,0.2,0,0.3-0.1
		c8.1-7.1,14.6-15,19.5-23.8c6.9-12.3,8.7-27.9,1.5-40.4c-3-5.2-6.8-9.7-11.3-13.5c-1-0.8-1.6-2-1.8-3.3c-2.1-12.2-5-23.1-8.8-32.7
		c-0.8-1.9-1.7-3.4-2.7-4.6c-0.9-1-2.2-1.3-3.4-1c-8.3,2.5-16.2,6.4-23.7,11.9c-3.5,2.5-6.1,4.9-7.7,7c-0.2,0.3-0.6,0.3-0.9,0.1
		c-0.1-0.1-0.2-0.1-0.2-0.2l-0.7-1.4c-0.2-0.4-0.6-0.6-1-0.6c-25.1,1.7-47.3,14.1-59.2,36c-2.4,4.5-4.3,7.7-5.5,9.6
		c-0.2,0.3-0.6,0.5-0.9,0.5l-0.4,0c-0.5,0-0.8-0.5-0.8-0.9c0-0.1,0-0.2,0.1-0.2l3.1-8.1c0.1-0.2,0-0.4-0.2-0.5
		C196.8,459.1,196.7,459.1,196.6,459.1z M340.4,520.6c12.2,9.4,25.4,19,39.9,21.9c0.4,0.1,0.8-0.2,0.9-0.6c0-0.2,0-0.3-0.1-0.5
		l-1.3-2.8c-0.3-0.7,0-1.5,0.7-1.8c0.1,0,0.2-0.1,0.3-0.1l6.1-1c0.4-0.1,0.6-0.4,0.6-0.8c0-0.2-0.2-0.4-0.3-0.5l-2.6-1.5
		c-0.7-0.4-1-1.4-0.6-2.1c0.1-0.2,0.3-0.4,0.4-0.5l4-2.9c0.2-0.2,0.3-0.5,0.1-0.7c-0.1-0.1-0.2-0.2-0.4-0.2l-7.2-0.6
		c-0.5-0.1-1-0.3-1.4-0.7l-11.4-12.6c-0.4-0.4-1-0.6-1.5-0.3c-7.9,3.5-16.1,5.2-26,7.3c-0.3,0.1-0.5,0.3-0.4,0.6
		C340.3,520.4,340.3,520.5,340.4,520.6z"/>
	<path class="st0" d="M486.5,313.9c-2.6,1.8-19.2,12.5-19,3.9c0-3.7,8.2-9,13-12.4s12.5-9.3,16-8.1
		C504.7,300,489.1,312.1,486.5,313.9z M494.8,301.3c-0.6-0.9-6.2,2.1-12.6,6.6c0,0,0,0,0,0c-6.3,4.5-11,8.9-10.4,9.7v0
		c0.6,0.9,6.2-2.1,12.6-6.6c0,0,0,0,0,0C490.8,306.5,495.4,302.2,494.8,301.3L494.8,301.3z"/>
	<path class="st0" d="M281.9,505.3c-0.7,0.3-1.5-0.1-1.8-0.8c-3.1-6.7-4.7-13.7-5-20.9c-0.2-7,1.4-16.4,7.3-20.6
		c10.5-7.7,22.4,4.8,27.4,13c0.7,1.2,0.8,2.7,0.3,4C304.4,492.3,295,500.8,281.9,505.3z M283.4,470.5c5.7,1.3,10.8,4.9,15.4,10.8
		c1.3,1.7,2.3,3.2,3.1,4.6c0.2,0.3,0.6,0.5,1,0.3c0.1-0.1,0.2-0.2,0.3-0.3l3.4-6.5c0.5-0.9,0.4-1.9-0.2-2.7
		c-3.8-5.3-8.4-10.7-14.7-12.6c-2.2-0.7-4.6-0.3-6.5,1.1l-2.5,1.8c-0.9,0.6-1.1,1.8-0.4,2.7C282.5,470.2,282.9,470.4,283.4,470.5z
		 M279.1,473.9l-0.6,12.6c0,0.1,0,0.1,0.1,0.1c0,0,0,0,0,0h0c2.3,0.1,4.3-2.1,4.5-4.9c0,0,0,0,0,0l0.1-2.6c0.1-2.8-1.6-5.2-3.9-5.3
		h0C279.1,473.8,279.1,473.9,279.1,473.9C279.1,473.9,279.1,473.9,279.1,473.9z M286.7,475.2c-0.2-0.1-0.5-0.1-0.6,0.2
		c-0.1,0.1-0.1,0.2-0.1,0.3c0.8,5.6,0.5,14-6.4,14.4c-0.3,0-0.5,0.3-0.5,0.6c0,0,0,0.1,0,0.1l2.8,10c0.1,0.5,0.6,0.8,1.1,0.6
		c0,0,0.1,0,0.1,0c5.7-2.4,10.9-5.9,15.6-10.5c0.7-0.6,0.8-1.6,0.4-2.5C296.2,482.8,292.1,478.4,286.7,475.2z"/>
	<path class="st0" d="M269.4,492.9c0,0.5-0.4,1-1,1c-0.4,0-0.8-0.3-0.9-0.7c-1.9-6-2.1-12.5-0.7-19.5c0.2-1.1,1.1-1.8,2.1-2h0
		c0.7-0.1,1.4,0.4,1.4,1.1c0,0.1,0,0.3,0,0.4c-0.8,4.3-1.2,7.2-1.2,8.5C269.3,485.8,269.4,489.5,269.4,492.9z"/>
	<path class="st0" d="M219.4,497.2C219.4,497.2,219.4,497.2,219.4,497.2C219.4,497.2,219.4,497.2,219.4,497.2L219.4,497.2
		c1.1-1.5,4-1.2,6.4,0.6c0,0,0,0,0,0l4.5,3.5c2.4,1.8,3.4,4.5,2.3,6c0,0,0,0,0,0l0,0c0,0,0,0,0,0L219.4,497.2z"/>
	<path class="st0" d="M209.4,531.5c-0.4-0.1-0.7-0.4-0.9-0.8c-2.4-6.4-7-22.3-1.9-27.7c3.1-3.3,7.1-3.7,11.8-1.3
		c10.3,5.3,17.9,13.3,22.6,23.9c1.6,3.5-5.2,6.1-7.7,6.6C225,534,217.1,533.8,209.4,531.5z M219.6,528.6c-0.9-1.3-2.1-4.1-3.8-8.2
		c-2.2-5.6-2.8-10.8-1.7-15.6c0.1-0.6-0.2-1.1-0.8-1.3c-0.1,0-0.1,0-0.2,0c-9.4-0.1-4,18.3-2.2,23.8c0.4,1,1.2,1.8,2.3,1.9l5.5,0.8
		c0.5,0.1,1-0.3,1.1-0.8C219.8,529,219.8,528.8,219.6,528.6z M228,512.9l-9-7.6c-0.1-0.1-0.2-0.1-0.2,0c0,0,0,0,0,0l0,0
		c-1.5,1.7-0.9,4.6,1.2,6.4l1.5,1.3c2.1,1.8,5.1,1.8,6.5,0.1c0,0,0,0,0,0l0,0C228.1,513,228.1,512.9,228,512.9z M217.6,515
		c1.6,5.5,3.7,10.2,6.3,14.2c0.3,0.4,0.8,0.7,1.3,0.7c4.5,0.1,8.5-0.9,12.1-2.9c0.5-0.3,0.7-0.9,0.4-1.4c0,0,0,0,0-0.1l-6.4-9.6
		c-0.3-0.4-0.8-0.5-1.2-0.2c-0.1,0-0.1,0.1-0.2,0.2c-3.3,4.2-8.2,1.4-11.6-1.2c-0.2-0.1-0.4-0.1-0.5,0.1
		C217.6,514.8,217.6,514.9,217.6,515z"/>
</g>
</svg>
