<?xml version="1.0" encoding="utf-8"?>
<!-- Generator: Adobe Illustrator 26.0.1, SVG Export Plug-In . SVG Version: 6.00 Build 0)  -->
<svg version="1.1" id="Layer_1" xmlns="http://www.w3.org/2000/svg" xmlns:xlink="http://www.w3.org/1999/xlink" x="0px" y="0px"
	 viewBox="0 0 612 792" style="enable-background:new 0 0 612 792;" xml:space="preserve">
<style type="text/css">
	.st0{fill:#010101;}
</style>
<g>
	<path class="st0" d="M244.6,80.4c-2.5-0.5-8.5,1.3-11.4,1.8c-0.5,0.1-1-0.2-1.5-0.7c-0.5-0.5-0.7-1.1-0.6-1.6
		c0.7-2.8,3-8.6,2.7-11.2c-0.3-2.5-3.9-7.7-5.2-10.2c-0.2-0.5-0.2-1,0.2-1.7c0.4-0.6,0.8-1,1.3-1c2.9-0.2,9.1,0.1,11.4-0.9
		s6.1-6,8.1-8.1c0.4-0.4,0.9-0.5,1.6-0.3c0.7,0.1,1.2,0.4,1.4,0.9c1.1,2.7,2.7,8.7,4.4,10.6c1.7,1.9,7.6,3.9,10.2,5.2
		c0.5,0.2,0.7,0.7,0.8,1.4c0.1,0.7-0.1,1.3-0.4,1.6c-2.2,1.9-7.5,5.2-8.7,7.5c-1.2,2.2-1.4,8.5-1.8,11.3c-0.1,0.5-0.5,0.9-1.1,1.2
		c-0.7,0.3-1.2,0.3-1.7,0.1C251.9,84.9,247.1,80.9,244.6,80.4z M238.9,68.1c0.1,1.2-0.5,3.4-1.9,6.5c-0.3,0.7,0,1.5,0.7,1.8
		c0.2,0.1,0.4,0.1,0.7,0.1c0.2,0,1.5-0.3,3.7-0.8c3.9-0.9,6.2,0.6,9.1,3.1c0.5,0.4,1.2,0.4,1.6-0.1c0.1-0.2,0.2-0.3,0.3-0.5l1.2-6.5
		c0.1-0.5,0.4-1,0.8-1.3c2.9-2.2,5.5-3.9,5.4-4.7c-0.1-0.9-3-1.9-6.3-3.5c-0.5-0.2-0.9-0.6-1.1-1.1l-2.6-6c-0.3-0.6-0.9-0.8-1.5-0.6
		c-0.2,0.1-0.3,0.2-0.4,0.4c-2.3,3.1-4.2,5.1-8.2,5c-2.3,0-3.6,0-3.8,0c-0.8,0.1-1.3,0.8-1.2,1.6c0,0.2,0.1,0.4,0.3,0.6
		C237.7,64.8,238.8,66.8,238.9,68.1z"/>
	<path class="st0" d="M188.7,140.7c-0.5,0.5-0.7,0.7-0.7,0.7c-2.5,5.8-5.1,11.5-7.8,17.2c-0.5,1.1-1.2,1.7-2,1.8
		c-0.9,0.1-1.7-0.3-2.5-1.2c-4-4.8-8-9.7-11.9-14.6c0,0-0.3-0.2-0.9-0.5c-0.6-0.3-0.9-0.5-0.9-0.5c-6.2-0.6-12.5-1.3-18.7-2.1
		c-1.2-0.1-2-0.6-2.3-1.4c-0.4-0.8-0.3-1.7,0.4-2.7c3.3-5.3,6.8-10.6,10.2-15.8c0,0,0.1-0.3,0.2-1c0.1-0.6,0.2-1,0.2-1
		c-1.4-6.1-2.6-12.3-3.8-18.4c-0.2-1.2,0-2,0.6-2.7c0.7-0.6,1.6-0.8,2.7-0.5c6.1,1.5,12.1,3.2,18.2,4.9c0,0,0.3,0,1-0.1
		c0.6-0.1,1-0.1,1-0.1c5.4-3.2,10.9-6.3,16.4-9.3c1-0.6,1.9-0.6,2.7-0.2c0.8,0.4,1.2,1.2,1.3,2.4c0.4,6.3,0.8,12.5,1,18.8
		c0,0,0.1,0.3,0.4,0.9c0.3,0.6,0.4,0.9,0.4,0.9c4.7,4.2,9.4,8.4,13.9,12.7c0.9,0.8,1.2,1.6,1.1,2.5c-0.2,0.9-0.8,1.5-1.9,2
		c-5.8,2.3-11.7,4.6-17.6,6.8C189.4,140,189.2,140.2,188.7,140.7z M165.8,139.3c0.4,0.2,0.6,0.3,0.7,0.4c3.4,4,6.8,8.1,10.1,12.2
		c0.1,0.2,0.4,0.2,0.6,0.2c0.3,0,0.5-0.2,0.6-0.4c2.1-4.8,4.4-9.6,6.7-14.3c0.1-0.1,0.2-0.3,0.5-0.6c0.3-0.3,0.5-0.5,0.7-0.5
		c4.9-2,9.8-4,14.7-5.8c0.2-0.1,0.3-0.2,0.4-0.5c0.1-0.3,0-0.6-0.1-0.7c-3.9-3.5-7.8-7.1-11.6-10.8c-0.1-0.1-0.2-0.3-0.4-0.7
		c-0.2-0.4-0.3-0.7-0.3-0.8c-0.4-5.3-0.8-10.5-1-15.8c0-0.2-0.1-0.4-0.4-0.5c-0.3-0.2-0.5-0.2-0.7-0.1c-4.6,2.6-9.2,5.2-13.9,7.7
		c-0.1,0.1-0.4,0.1-0.8,0.2c-0.4,0.1-0.7,0.1-0.9,0c-5.1-1.2-10.3-2.5-15.3-3.9c-0.2-0.1-0.4,0-0.6,0.2c-0.2,0.2-0.3,0.4-0.3,0.6
		c1.1,5.2,2.1,10.3,3,15.5c0,0.1,0,0.4-0.1,0.8c-0.1,0.4-0.2,0.7-0.2,0.8c-2.7,4.5-5.5,9-8.4,13.4c-0.1,0.2-0.1,0.4,0,0.6
		c0.1,0.3,0.3,0.5,0.5,0.5c5.3,0.5,10.5,1.2,15.7,1.9C165.2,139,165.4,139.1,165.8,139.3z"/>
	<path class="st0" d="M281.2,560.7l4.8,4.8c1.8,1.8,1.8,4.6,0,6.4l-2.4,2.4c-0.4,0.4-0.4,1,0,1.3c0,0,0,0,0,0
		c20.3,19.2,35.1,42.4,44.5,69.5c3.4,9.7,6.4,21.5,9.3,35.5c0.1,0.4,0.4,0.6,0.8,0.5c0.1,0,0.2-0.1,0.3-0.2l16.5-16.5
		c1.2-1.3,1.3-3.2,0.1-4.5l-16-17.6c-0.8-0.9-0.9-2.3-0.1-3.2c6.7-8.5,15-17.5,25-26.8c0.9-0.9,1-2.3,0.2-3.2
		c-3.2-4-6.1-8.8-8.8-14.4c-2.8-5.8-2.2-11.2,1.7-16.4c8-10.6,14-17.8,17.9-21.7c9.6-9.5,18-18.6,27.2-26.3
		c20.7-17.1,44.1-30.9,70.3-41.3c0.6-0.2,1.2-0.3,1.9-0.2c3.9,0.5,6.8,2,8.8,4.7c11.7,15.7,12,37.5,11.1,57.2
		c-0.4,8.7-5.2,13.8-12,19.1c-6.5,5-16.1,11.4-24.1,15.6c-18.8,9.9-38.9,18.1-60.3,24.4c-0.3,0.1-0.5,0.4-0.4,0.7
		c0,0.1,0,0.1,0.1,0.2c3.7,5.7,9,15.8,8.5,22.9c-0.1,2-1.3,3.7-3.1,4.5l-22.1,10.1c-0.4,0.2-0.5,0.6-0.4,1c0,0,0,0,0,0.1
		c3,5.8,7.3,12.9,2.7,17.6c-8,8.1-17.9,16.2-29.7,24.2c-0.3,0.2-0.4,0.6-0.2,0.9c0.1,0.1,0.2,0.2,0.3,0.2
		c12.3,5,30.4,11.9,44.8,20.9c1.7,1.1,3.3,2.7,4.7,4.8c0.4,0.5,0.4,1.3,0.1,1.8c-1.8,3-4.3,4.6-7.4,5c-6.4,0.7-10.2,1.3-11.4,1.5
		c-1.6,0.1-3.3,0.1-4.9-0.1l-14.1-1.5c-0.5-0.1-1,0.3-1,0.8c0,0.2,0,0.4,0.1,0.5c1.7,3,2.2,7.2,1.6,12.5c-0.1,0.6-0.3,1.1-0.7,1.5
		c-4.7,4.5-24.4-0.9-30.4-3.2c-0.6-0.2-1.2,0.1-1.4,0.6c-0.1,0.2-0.1,0.4-0.1,0.5c0.7,4.6-0.2,8.8-6.3,7.3
		c-11.3-2.7-33.6-5.8-50.8-11.2c-0.5-0.2-1.1,0-1.4,0.5c-2.5,4.1-4.9,7-7.1,8.6c-0.7,0.5-1.6,0.7-2.4,0.5c-8.5-2-15-4.5-19.6-7.6
		c-0.8-0.5-1.9-0.4-2.6,0.4c-4.1,4.7-7.9,6.6-11.6,5.8c-8.5-1.9-13.8-4.8-26.1-10.3c-1.2-0.5-2.6-0.5-3.7,0.2
		c-6.3,3.7-13,8.6-19.4,5.9c-0.3-0.1-0.6-0.3-0.8-0.6l-6.8-8.1c-0.3-0.4-0.8-0.5-1.3-0.4c-9.1,2.8-19.6,6.9-31.5,12.2
		c-5.6,2.5-8.3-5-9.2-9.2c-0.1-0.6-0.7-0.9-1.2-0.8c0,0,0,0-0.1,0c-6.8,1.8-12.4,3.6-16.8,5.3c-4,1.6-8.1,0-7.4-4.9
		c0.2-1.6,0.3-2.5,0.2-2.8c-0.1-0.6-0.7-1-1.3-0.9c-6.2,1-16.5,2.1-30.8,3.4c-4.1,0.4-9,0.4-14.7,0.1c-1.8-0.1-3.2-1.6-3.1-3.5
		c0-0.6,0.3-1.3,0.6-1.8c0.6-0.8,1.2-1.4,1.7-1.8c8.2-6.3,17.6-10.6,28.1-12.8c4.1-0.9,6.5-1.6,7.2-2.2c0.3-0.2,0.3-0.6,0.1-0.8
		c-0.1-0.1-0.2-0.2-0.3-0.2c-9.3-1.8-22.8-7-28.7-14.6c-0.6-0.8-0.5-2,0.3-2.7c0.3-0.2,0.6-0.3,0.9-0.4c1.9-0.3,3.5-0.4,4.8-0.3
		c10.6,0.5,22.1,0.6,34.3,0.4c6.4-0.1,10.1,0.8,11.3-5.9c5.5-30.1,14.3-60.9,26.4-92.6c10.6-27.8,22.7-53.2,36.4-76.1
		c0.3-0.5,0.2-1.1-0.2-1.6c-10.6-11.4-18.3-21.8-23.1-31.1c-8.3-16.1-14.3-29.6-17.8-40.5c-4.6-14.2-6.6-28.6-6.2-43.2
		c0.2-7.9,13.5-23.1,19.3-28.5c13.4-12.4,24.7-21.7,34.1-27.9c15.5-10.2,28.2-17.1,32.1-23.2c0.3-0.5,0.6-1.1,0.7-1.7
		c5.1-19.7,8.4-32.1,9.8-37.1c2.7-9.2,6-16.7,9.9-22.4c5.2-7.8,8.1-12.2,8.6-13.3c0.4-0.9,0.7-1.9,0.7-2.9
		c-0.1-9.9,1.2-14.8,2.1-24.9c0.8-8.8,3.5-15.4,9.9-21.9c6.1-6.3,9.7-9.2,14.8-15.7c2.8-3.6,5.4-6.6,7.8-9c4-3.9,5.5-8.3,4.5-13.3
		c-1.3-6.8-2.3-19.7,4.5-24.2c7.7-5.2,17.6-10.5,29.7-15.9c1.7-0.8,3.8,0,4.6,1.7c0.2,0.4,0.3,0.8,0.3,1.2c0.2,3.7-0.3,6.8-1.7,9.4
		c-5.3,9.8-9.3,19.3-11.9,28.3c-0.6,1.9-0.2,4,0.9,5.6c3.4,4.8,6.1,9.2,8.1,13c1.1,2.1,1.4,5.4,0.9,9.9c-0.2,1.4-2,4.5-5.4,9.3
		c-0.7,0.9-1.8,4-3.4,9.1c-2.1,6.7-1.1,14.6-1.5,21.7c-0.2,3.1-0.2,7.1,0,12.1c1,24.3-0.6,48.8-4.7,73.5c-0.5,2.9-0.7,5.8-0.5,8.6
		c0.1,1.2,0.6,2.3,1.6,3c23.4,17.3,43.4,38.2,59.9,62.5c1,1.4,2.7,2.2,4.4,2c6.2-0.7,11.2-1.2,14.9-1.4c14.3-0.7,27.5-4.1,42.9-7.4
		c11.1-2.4,17.9-1.9,31.3-1.8c0.9,0,1.8-0.1,2.6-0.2c7.2-1.2,13.9-1.8,20-1.6c0.4,0,0.9,0.1,1.2,0.4l1,0.6c0.3,0.2,0.7,0.3,1.1,0.3
		c11-1.1,31.5,31.4,37.3,40.9c6.3,10.4,15.1,19.3,23.4,28.6c0.6,0.7,1.1,1.4,1.5,2.2c2.5,5.6,3.7,11.5,3.4,17.7
		c-0.2,3.8-0.3,13-6.8,11.6c-2.9-0.6-5.7-2.1-8.5-4.4c-7.9-6.4-13.7-12.8-21.7-18.2c-11.2-7.5-26.4-21.2-42.1-27.3
		c-0.8-0.3-1.6-0.4-2.4-0.3c-1.8,0.2-3.7,0.7-5.8,1.7c-16.8,8.1-35.9,18.2-57.3,30.2c-6.2,3.5-13.1,6.2-17.3,8.2
		c-0.8,0.4-1.4,1.1-1.6,2c-5.5,20.7-15.3,41-29.2,60.9c-4.7,6.7-9.1,11.4-13.5,14.2c-19.4,12.7-43.5,16.1-66.2,13.4
		c-0.4,0-0.8,0.2-0.8,0.7C281,560.3,281.1,560.6,281.2,560.7z M309.7,223.8c-0.3-12.1,1.6-24.3,9.1-35.1c2.4-3.4,2.9-6.1,1-9.4
		c-5.1-8.8-8.4-14.6-9.7-17.6c-0.4-0.9-0.5-2-0.3-3c1.6-6.5,5.7-17.2,10.2-25.1c2.1-3.7,3.4-7.4,4.1-11c0.2-1-0.5-1.9-1.4-2.1
		c-0.4-0.1-0.7,0-1.1,0.1l-12.3,5.5c0,0-0.1,0-0.1,0.1c-7,4.3-11.2,6.9-12.6,7.9c-7.8,5.6-5.3,10.2-7.3,16.1c-0.2,0.6-0.2,1.2,0,1.7
		c2.3,6.3,3.7,13.7-1.7,19c-3,2.9-7.1,7.7-12.2,14.3c-5.9,7.6-14.7,12.9-18,20.6c-2,4.6-3.1,9.6-3.5,14.9c-0.4,6-0.9,7.5-1.7,13.1
		c-0.1,0.6,0.3,1.2,0.9,1.3c0.1,0,0.1,0,0.2,0c6.3-0.1,11.4,0.2,14.9-3.4c6.4-6.5,13.4-15.1,19.5-15.1c3.6,0,8.2,0.9,13.9,2.6
		c2.6,0.8,5,2.4,7.1,4.8c0.2,0.2,0.5,0.2,0.7,0C309.6,224.1,309.7,223.9,309.7,223.8z M380.5,412.1c-4.6-5.1-7.2-13.3-11.4-19.4
		c-18.1-26.2-39.2-48.4-63.2-66.4c-2-1.5-3-3.9-2.6-6.4c1.9-12.2,3-19.9,3.4-23.3c2.5-22.4,3.3-45.5,2.3-69.5c0-0.6-0.3-1.1-0.8-1.4
		c-6.3-4.1-20.8-8.9-27-2.8c-9.7,9.7-14.3,16.9-26.9,15.5c-0.8-0.1-1.5,0.5-1.6,1.3c0,0.1,0,0.2,0,0.3c0.4,5.3-1.4,10.5-5.2,15.6
		c-6.4,8.5-11,17.7-13.8,27.6c-3.4,12.4-6.6,24.2-9.5,35.4c-1,4.1-2.3,6.6-3.7,7.5c-25.3,15.9-49.3,32.1-69.6,52.9
		c-9.5,9.7-15.6,19.2-12.8,34.1c0.2,0.9,0.5,4,1,9.5c0.3,2.7,1.7,8.6,4.3,17.6c1.7,5.9,3.8,11.6,6.4,16.9c3.6,7.5,6.6,15.9,11,23.9
		c6.2,11.4,14.2,21.9,23.9,31.8c1.1,1.1,1.3,2.9,0.5,4.2c-5.4,8.7-10.4,17.8-15.1,27.2c-13.8,27.7-25.6,57.6-35.5,89.7
		c-5.1,16.6-9.3,33.5-12.4,50.8c-0.8,4.5-2.9,7.5-6.3,9.2c-0.6,0.3-1.2,0.4-1.9,0.4c-4.5-0.2-9.8,0.2-16.1,1.1
		c-3.9,0.6-8,0.4-12.2-0.8c-1.1-0.3-2.3-0.4-3.4-0.4c-3.1,0.1-6.2-0.2-9.4-0.9c-0.3-0.1-0.6,0.1-0.6,0.4c0,0.2,0,0.4,0.2,0.5
		c3.8,2.9,8.6,5.5,13.8,7.2c13.6,4.5,27.8,7.9,41.6,12.8c1.9,0.7,3.4,2.2,4.2,4l7,18c0.4,1,1.6,1.6,2.6,1.2c0,0,0.1,0,0.1-0.1
		c14.7-6.9,29.8-12.2,45.3-16.1c2.2-0.5,4.3-0.2,6.4,0.9c11.3,6,24.1,11.5,38.5,16.5c1.4,0.5,3,0.3,4.3-0.6
		c4.5-3.1,8.4-6.9,11.8-11.2c2.2-2.9,4.9-4.8,8.1-3.5c15.3,6.1,31.6,10.7,49,13.8c14.3,2.6,22,4.1,23,4.7c0.6,0.3,1.4,0.1,1.8-0.5
		c0.1-0.2,0.2-0.4,0.2-0.7c-0.1-2.3-1.4-7.4-3.9-15.5c-0.5-1.7-0.6-3.1-0.2-4c0.5-1,1.7-1.5,3.7-1.6c12.4-0.2,22,0,28.7,0.5
		c0.4,0,0.9,0.1,1.3,0.3c2.5,0.9,7,1.3,13.7,1.4c11.1,0.1,22.5,0.8,25.5-2.1c0.4-0.4,0.4-1.1,0-1.5c0,0-0.1,0-0.1-0.1
		c-4.5-3.7-10.1-7-17-9.8c-16.5-6.9-27.4-11.2-32.7-13.1c-7.5-2.6-14.1-7.3-15.6-14.4c-6-28-13.2-49.4-27.6-71.5
		c-8.6-13.2-16.9-25.2-28.6-32.9c-1-0.7-1.3-2-0.6-3c0.3-0.5,0.9-0.9,1.5-1c1.9-0.3,3.5-1.1,5-2.3c0.5-0.4,0.6-1.2,0.2-1.7
		c-4.9-6.7-10.8-10.6-17.8-11.7c-2.3-0.4-4.6-1.4-7-3.2c-0.6-0.5-0.7-1.3-0.3-1.9c0.4-0.5,1-0.7,1.5-0.5c7,2.3,13.3,3.7,18.8,4.4
		c13.7,1.6,27.3,1.2,40.8-1.2c11-2,21.4-6.8,31.3-14.6c0.8-0.6,1.5-1.4,2.1-2.2c19.2-25.3,32.5-50.4,37.7-81.5
		c0.2-1.4,0.3-2.8,0.2-4c-0.1-0.7,0.5-1.4,1.2-1.4c0.1,0,0.2,0,0.2,0l0.7,0.1c0.8,0.1,1.4,0.8,1.4,1.6c0,0,0,0,0,0l-0.9,11.1
		c0,0.6,0.4,1.1,1,1.2c0.2,0,0.4,0,0.6-0.1c9.5-4.7,15.8-7.9,18.9-9.8c15.2-9.1,31.2-17.4,47.9-25.1c0.5-0.2,0.8-0.8,0.6-1.3
		c-3-14.6-1-21.7,11.6-30.5c0.7-0.5,0.9-1.4,0.4-2.1c0-0.1-0.1-0.1-0.1-0.2L462,382.4c-0.3-0.3-0.6-0.4-1-0.4
		c-9.9-0.3-16.7-0.1-20.5,0.6c-10.7,2-21,4.1-30.7,6.3c-11,2.5-24.1,3.5-34.9,3.7c-0.5,0-0.9,0.5-0.9,1c0,0.2,0.1,0.3,0.1,0.5
		c3.5,6.1,7,11.7,7.4,17.7c0,0.3-0.2,0.5-0.5,0.6C380.8,412.3,380.6,412.2,380.5,412.1z M548.7,474.7c0.2,0.2,0.3,0.3,0.5,0.2
		c0.9-0.4,1.4-0.9,1.4-1.6c0.2-8.9,0.7-18.8-3.5-23.7c-11.1-12.9-18.1-19.8-25.8-32.5c-8.8-14.5-18.9-29.3-32.3-37.7
		c-0.1-0.1-0.3-0.1-0.5-0.1l-22.4,1.6c-0.5,0-0.9,0.4-0.8,0.9c0,0.2,0.1,0.4,0.2,0.6l11.3,12.4c1.2,1.3,1.1,3.3-0.2,4.5
		c-0.2,0.2-0.4,0.3-0.7,0.5c-6.9,3.6-11.2,8.9-12.8,16c-0.1,0.4-0.1,0.9,0,1.4l1.7,8.8c0.1,0.5,0.4,1,0.8,1.4c2,1.7,4,1.5,6.2-0.5
		c0.6-0.5,1.4-0.7,2.1-0.5c8.6,2.8,15.1,6,19.7,9.4c11.1,8.3,18.8,14,23.2,17c5.7,3.9,10.3,7.3,13.7,10.3c8.4,7.3,12.8,11,13.2,11.2
		c2.8,1.3,4.2,1.7,4.2,1.2c0-0.2,0.1-0.4,0.2-0.5c0.1-0.2,0.4-0.2,0.5-0.1C548.7,474.6,548.7,474.7,548.7,474.7z M482,563.1
		c-4-2.6-7-6.5-9.1-11.6c-1.2-2.9-2.9-12.4-5-28.5c0-0.1,0.3-1,0.9-2.8c0.2-0.6,0.3-1.3,0.2-1.9c-1.2-7.8-2.2-13.1,0.7-20.6
		c0.6-1.5,1.4-2.1,2.4-2c0.7,0.1,1.1,0.7,1,1.4c0,0.1,0,0.1,0,0.2l-1.4,4.9c-0.2,0.8-0.4,1.7-0.4,2.5l-0.7,14.8c0,0.2,0,0.4,0,0.5
		c2.1,13.5,3.7,23.1,4.8,28.8c1.1,5.6,2.5,10.4,8.9,10.8c0.6,0,1.2-0.2,1.7-0.6c2.5-2.4,3.8-4.3,3.9-5.9c0.1-1.3,0.2-9,0.2-23.3
		c0-10.7-3.5-27.9-11.5-35.8c-1-1-2.5-1.5-4-1.2c-4.3,1-9,2.6-14.1,5.1c-21.1,10-39.5,21.5-55.5,34.6
		c-12.6,10.4-25.2,23.3-35.8,35.4c-2.3,2.7-6,7.7-11.2,15.1c-0.4,0.5-0.6,1.1-0.7,1.7c-0.6,2.6-0.5,4.4,0.2,5.5
		c3.3,4.9,7.1,11.6,11.5,20.2c0.2,0.5,0.2,1-0.2,1.4l-24.5,26.4c-1.4,1.6-1.3,4,0.2,5.4c0,0,0,0,0,0c5.5,4.9,10.5,10.8,15.1,17.7
		c0.3,0.5,0.4,1.2,0.1,1.7c-1,2.2-2.4,4.1-4.2,6c-9.5,9.5-14.6,14.4-15.4,14.8c-0.7,0.3-1.1,1.1-0.8,1.9c0.1,0.3,0.3,0.5,0.6,0.7
		l4.1,2.5c2.2,1.3,5,1.2,7-0.4c9.7-7.3,18.3-14.2,25.9-20.8c3-2.6,4.4-4.6,4.3-6.2c0-0.1,0-0.3-0.1-0.4l-5.2-12.8
		c-0.4-1,0-2.1,1-2.5l23.8-10.9c1.1-0.5,1.7-1.7,1.4-2.9c-1.6-7.5-4.5-14.4-8.6-20.7c-0.4-0.5-0.5-1.2-0.3-1.8
		c0.5-1.9,1.8-3.2,3.8-3.8c21.9-6.7,41.9-14.8,59.9-24.1c9.3-4.8,17.6-10.3,24.8-16.5c0.5-0.4,0.5-1.2,0.1-1.7
		C482.2,563.2,482.1,563.2,482,563.1z M131.2,726.5l-3.6-7.1c-0.5-0.9-1.3-1.6-2.3-1.9l-20.3-5.9c-0.2,0-0.3-0.1-0.5,0
		c-8.6,1.7-16.1,3.4-22.6,5.3C74.8,719,68,722.3,61.6,727c-0.3,0.2-0.4,0.7-0.1,1c0.1,0.2,0.4,0.3,0.6,0.3c15.8-1,28.2-2,37.2-3.2
		c3.3-0.4,6.2-0.6,8.9-0.6c2.4,0,3.5,1.5,3.4,4.4c-0.1,1.6-0.3,2.9-0.4,3.7c-0.1,0.5,0.2,1,0.7,1.1c0.2,0,0.4,0,0.5,0l18.6-6.5
		C131.2,727.1,131.3,726.8,131.2,726.5C131.2,726.5,131.2,726.5,131.2,726.5z M329.8,724.5l2.6,7.5c0.2,0.5,0.5,0.8,1,1
		c7,2.6,15.8,4.4,26.3,5.4c1.6,0.1,3.1-1.1,3.2-2.7c0-0.2,0-0.5,0-0.7l-1.2-7.5c-0.4-2.5-2.5-4.3-5-4.3h-26c-0.5,0-1,0.4-1,1
		C329.8,724.3,329.8,724.4,329.8,724.5z M192.1,725.6c-1.5-0.7-3.3-1-5-0.6l-7.8,1.8c-0.8,0.2-1.3,1-1.1,1.8
		c0.1,0.3,0.2,0.5,0.4,0.7l5.7,5.7c1.1,1.1,2.8,1.3,4.1,0.7l10-5.1c0.5-0.3,0.8-1,0.5-1.5c-0.1-0.2-0.3-0.4-0.5-0.5L192.1,725.6z
		 M267.9,741.3l3-8.6c0.1-0.2,0-0.4-0.2-0.5c0,0,0,0,0,0l-16.2-5.6c-2.4-0.8-5.1,0.6-6,3.1c-0.9,2.5,0.3,5.3,2.8,6.1c0,0,0,0,0,0
		l16.1,5.6C267.6,741.6,267.8,741.5,267.9,741.3C267.9,741.3,267.9,741.3,267.9,741.3z"/>
	<path class="st0" d="M203.5,402c-0.1-0.3-0.3-0.4-0.6-0.4c-0.1,0-0.2,0.1-0.2,0.1l-0.4,0.4c-0.3,0.3-0.4,0.7-0.3,1.1l4.4,11.2
		c0.3,0.7-0.1,1.5-0.8,1.8c-0.4,0.2-0.9,0.1-1.3-0.1c-1.6-1-2.9-2.4-4-4.2c-5.2-8.9-5-17.7,0.6-26.2c0.5-0.7,1.1-1.4,1.8-1.9
		c8.8-6.7,15.4-11.1,19.7-13.3c1.2-0.6,4.3-1.7,9.5-3.2c9.2-2.8,16.9,0,16.9,10.4c0,9.2-2.6,17.6-7.8,25.1c-2,2.9-6.8,7.1-14.3,12.6
		c-0.4,0.3-0.9,0.5-1.4,0.7c-5.1,1.5-10.1,0.1-14.9-4C206.6,408.7,204.3,405.4,203.5,402z M239.5,373.9c0-0.6-1.4-0.9-3.1-0.9
		c-1.7,0.1-3.1,0.6-3.1,1.1c0,0,0,0,0,0c0,0.6,1.4,0.9,3.1,0.9C238.2,374.9,239.6,374.4,239.5,373.9
		C239.5,373.9,239.5,373.9,239.5,373.9z M233.4,384.3c-0.1-0.6-2-0.9-4.2-0.5c-2.2,0.4-3.9,1.2-3.8,1.8l0,0c0.1,0.6,2,0.9,4.2,0.5
		C231.8,385.7,233.5,384.9,233.4,384.3C233.4,384.3,233.4,384.3,233.4,384.3z M209.9,386c-1.4,1.8-2.1,2.8-2,3
		c0.1,0.3,0.4,0.5,0.7,0.3c0.1,0,0.2-0.1,0.3-0.3c0.9-1.7,1.4-2.6,1.4-2.9c0-0.1-0.1-0.3-0.2-0.3C210.1,385.9,210,385.9,209.9,386z
		 M210.8,398.5c-0.3,4.2,1.6,7.5,5.7,10c0.4,0.3,1,0.1,1.2-0.3c0-0.1,0.1-0.1,0.1-0.2l0.3-0.9c0.2-0.6-0.2-1.3-0.8-1.5
		c-0.1,0-0.1,0-0.2,0c-1.7-0.3-3.5-2.6-5.4-7.1c-0.1-0.3-0.4-0.4-0.6-0.3C210.9,398.1,210.8,398.3,210.8,398.5z"/>
	<path class="st0" d="M190.8,402.7c1,1.2,1.4,2.8,1.2,4.7c-0.1,1-1,1.8-2,1.7c-0.5,0-0.9-0.3-1.2-0.6l-2.9-3.5
		c-0.1-0.1-0.3-0.2-0.5,0c0,0,0,0,0,0c-0.1,0-0.1,0.1,0,0.2c0,0,0,0,0,0c2.8,4.4,3.4,8.5,1.7,12.2c-0.4,0.9-1.5,1.3-2.4,0.9
		c-0.4-0.2-0.7-0.5-0.9-0.9l-6.3-12.5c-0.1-0.2-0.3-0.3-0.5-0.2h0c-0.2,0.1-0.3,0.4-0.2,0.6c0,0,0,0,0,0c2.9,6.9,4.9,11.5,5.9,13.8
		c0.4,1,0.3,2.9-0.3,5.8c0,0.2,0.1,0.4,0.3,0.5c0.1,0,0.2,0,0.3-0.1c4-3.2,7.8-3.2,10.4,1.7c0.2,0.4,0.4,0.9,0.4,1.4
		c0,0.9,0,6.2,0,16c0,7.6,0.9,10.2,1.9,17.6c0.1,0.6,0.6,1,1.1,1c2,0,10.4,0,25.4-0.1c4.5,0,8.3,0.6,11.2,1.9
		c1.5,0.7,2.7,1.9,3.4,3.5l8.3,20.3c0.1,0.2,0.3,0.4,0.6,0.5c2.7,0.3,15.5,2.2,19.8,5.4c0.2,0.1,0.3,0.3,0.4,0.5l9.3,16.1
		c0.1,0.1,0.2,0.2,0.4,0.3c5.2,0.4,9.7-0.5,13.5-2.7c1-0.6,2-0.9,3.2-0.9h3c0.4,0,0.8-0.4,0.8-0.8c0-0.1,0-0.3-0.1-0.4
		c-0.5-0.9-0.8-2.5-1-4.9c-0.1-1.3,0.9-2.5,2.2-2.5c0.1,0,0.2,0,0.3,0c1.7,0.1,3.7-0.4,6.2-1.5c0.4-0.2,0.6-0.7,0.4-1.1
		c-0.1-0.2-0.3-0.4-0.5-0.4c-1.8-0.6-2.9-1.5-3.1-2.8c-0.1-0.7,0.2-1.3,0.8-1.6c2.5-1.2,4.8-2.5,7.1-4c3.5-2.4,11-2.4,15.9-2.4
		c4.4,0,9.1,1.7,13.9,4.9c0.2,0.2,0.4,0.4,0.6,0.6l5,7.4c0.3,0.5,0.3,1.2-0.2,1.6c-1.3,1.3-3.4,3.2-5.6,2.2
		c-0.9-0.4-1.7-0.6-2.3-0.5c-1,0.1-1.8,1-1.7,2c0,0.4,0.2,0.8,0.5,1.2c1.9,1.9,3.5,2.9,4.9,3c1.4,0.1,2.4,1.4,2.3,2.8
		c-0.1,1-0.7,1.8-1.6,2.1c-4,1.6-8.7,2.3-14,2c-0.4,0-0.8,0.3-0.9,0.7l0,0c-0.1,0.4,0.2,0.8,0.7,0.9c4.1,0.8,9.1-0.4,13.9,1.9
		c0.5,0.2,0.7,0.8,0.5,1.3c0,0.1-0.1,0.2-0.2,0.3c-1.1,1.1-2.5,2-4.2,2.9c-2.8,1.4-6.4,0.5-9.6,1.8c-3.8,1.5-8.7,0.9-12.5,0.9
		c-0.5,0-0.9,0.4-0.9,0.8c0,0.2,0.1,0.3,0.1,0.5l0.3,0.5c0.5,0.8,1.4,1.2,2.4,1.1c3.8-0.3,7,0.4,9.6,2.1c1.2,0.8,1.7,2.2,1.1,3.1
		c0,0.1-0.1,0.1-0.1,0.2c-2.5,2.9-8.6,1.9-11.2,2c-0.7,0-1.3,0.4-1.6,1c-1.6,3.1-3.9,4.8-6.8,5c-2.7,0.2-8.4,0.2-17.1,0
		c-0.9,0-1.6-0.7-1.6-1.6v-0.6c0-0.7,0.5-1.2,1.2-1.2h15.4c0.3,0,0.6-0.3,0.6-0.6l0,0V537c0-0.3-0.2-0.5-0.5-0.5l0,0
		c-4.1,0-6.2,0-6.3-0.1c-2.5-0.8-4.5-1.2-6.2-1.1c-2.2,0.1-5.8-0.7-10.7-2.3c-0.6-0.2-1.1-0.6-1.4-1.1c-0.5-0.8-0.5-2.2-0.1-4.2
		c0.1-0.5-0.2-1-0.7-1.1c-0.1,0-0.2,0-0.3,0c-3.6,0.4-6.9-0.4-10-2.5c-0.4-0.3-0.8-0.7-1.1-1.1l-10.7-16c-1.2-1.8-3.1-3-5.2-3.5
		l-15.4-2.9c-1.3-0.3-2.4-1.2-2.9-2.4l-7.3-18.6c-0.6-1.5-1.9-2.6-3.5-2.7c-9.8-1.1-20.4-1.5-31.8-1.1c-3.7,0.1-6.1-1.4-7.1-4.7
		c-3.5-11.7-4.9-23.9-4.2-36.7c0.2-3.7,0.6-5.7,1.3-6c0.1,0,0.2-0.2,0.1-0.3c0-0.1-0.1-0.1-0.2-0.1c-0.3,0-0.8,0.3-1.4,0.8
		c-1.1,1-2.8,0.9-3.7-0.2c-0.1-0.2-0.3-0.3-0.4-0.5c-2.2-4.3-4.3-8-6.5-11.1c-1.2-1.7-5.2-5.5-11.9-11.4c-0.1-0.1-0.4-0.1-0.5,0
		c-0.1,0.1-0.1,0.3,0,0.4l3.8,6.6c0.1,0.2,0.3,0.3,0.5,0.4c6.2,2.5,10.5,7.3,12.8,14.4c0.8,2.4-0.6,4.9-2.9,5.6
		c-0.3,0.1-0.6,0.2-0.9,0.2l-5.3,0.6c-0.7,0.1-1.4-0.2-1.9-0.7l-4.2-4.2c-0.2-0.2-0.4-0.2-0.6,0c-0.1,0.1-0.2,0.3-0.1,0.5l3.7,6.4
		c0.4,0.7,0.2,1.7-0.6,2.1c-0.1,0-0.1,0.1-0.2,0.1c-6,2.3-9.8,0.6-11.4-5.2c-1.5-5.4-2.7-9.4-3.5-12c-1.1-3.3,0-5,2.3-6.6
		c0.5-0.3,0.8-0.9,0.7-1.5c-0.3-3.6-0.3-7.5,0-11.8c0.2-2.7,1.4-4.1,3.5-4.2c0.5,0,1-0.4,1-1c0.2-1.5,1.6-3.2,4.3-5
		c1-0.7,2.4-0.4,3.1,0.6c0,0,0,0,0,0l4.7,7c0.1,0.1,0.2,0.2,0.4,0.1c0.1,0,0.1-0.1,0.1-0.2v-8.6c0-0.4,0.1-0.9,0.4-1.2l3-3.7
		c0.6-0.7,1.6-0.8,2.3-0.2c0.1,0.1,0.1,0.1,0.2,0.2c2.1,2.5,3.2,4.2,3.2,5.1c0,0.3,0.2,0.5,0.5,0.5c0.2,0,0.3-0.1,0.4-0.2
		c0.1-0.2,0.1-1.3,0-3.3c-0.1-0.9,0.6-1.6,1.5-1.7c0.2,0,0.3,0,0.5,0c3.1,0.7,4.9,2,5.6,3.8c0.2,0.5,0.7,0.7,1.2,0.6
		c0.3-0.1,0.6-0.3,0.9-0.5c1-0.9,2.7-0.6,3.8,0.6c2.6,2.8,4.3,6.6,5.1,11.4c0.1,0.5-0.2,1-0.6,1.3c-0.6,0.3-1.5,0.3-2.8-0.1
		c-0.2,0-0.4,0.1-0.5,0.3C190.7,402.5,190.7,402.6,190.8,402.7z M154.5,398.7c-0.3,0.1-0.3,0.9-0.1,1.9c0.2,1,0.6,1.7,0.8,1.7
		c0.3-0.1,0.3-0.9,0.1-1.9C155.1,399.4,154.7,398.7,154.5,398.7z M315.7,495.5c-0.1,0.8,2,1.8,4.8,2.2c0,0,0,0,0,0
		c2.8,0.4,5.1,0.1,5.2-0.7l0,0c0.1-0.8-2-1.8-4.8-2.2C318.2,494.4,315.8,494.7,315.7,495.5z M308.2,508c-0.1,0.6,1.3,1.2,3.1,1.5
		l0,0c1.8,0.3,3.3,0,3.4-0.6c0.1-0.6-1.3-1.2-3.1-1.5c0,0,0,0,0,0C309.8,507.2,308.3,507.4,308.2,508z M307.5,515.1
		c-0.3,0.5,0.5,1.5,1.8,2.2c1.3,0.6,2.5,0.7,2.8,0.2v0c0.3-0.5-0.5-1.5-1.8-2.2C309.1,514.6,307.8,514.5,307.5,515.1L307.5,515.1z
		 M311,532.6l0.2-1.9c0-0.2-0.1-0.4-0.4-0.4c0,0,0,0,0,0l-0.2,0c-5.6-0.6-10.3-0.7-10.4-0.3l-0.1,1c-0.1,0.5,4.4,1.3,10.1,1.9
		c0,0,0.1,0,0.1,0l0.2,0C310.8,533,311,532.8,311,532.6C311,532.6,311,532.6,311,532.6z"/>
	<path class="st0" d="M318.1,469.9l-0.3,1.6c-0.1,0.6-0.6,0.9-1.2,0.8c0,0,0,0,0,0c-8.4-1.6-13.4-18.5-12.5-25.3
		c0.7-6,2.3-12.2,4.5-18.6c0.5-1.4,1.4-2.7,2.5-3.7l15.3-13.9c0.9-0.8,2.1-1.3,3.4-1.4c8-0.4,13.6-0.3,16.6,0.2
		c0.7,0.1,3.2,1.3,7.4,3.7c7.6,4.2,10,12.4,8.8,20.8c-1.1,7.6-1.6,11.5-1.6,11.7c-0.2,1-0.4,2-0.8,3c-1.2,2.9-3.7,7.3-7.6,13
		c-4.9,7.2-10.9,10.3-18.8,12.6c-5.5,1.6-10.3,0-14.5-4.8c-0.2-0.3-0.6-0.3-0.9-0.1C318.2,469.6,318.1,469.7,318.1,469.9z
		 M332,416.4c1.1-0.3,2-0.4,2.8-0.3c0.8,0.1,1.3-0.2,1.6-0.7c0.1-0.2,0-0.3-0.1-0.4c0,0-0.1,0-0.2,0c-3.5-0.2-5.3-0.3-5.4-0.1
		c-0.3,0.5-0.1,1.2,0.4,1.5C331.4,416.4,331.7,416.5,332,416.4z M352,449c4.2-8.9,7.2-23.5-1.8-30.2c-0.1-0.1-0.3-0.1-0.4,0
		c-0.1,0.1-0.1,0.3,0,0.4c2.1,2.2,3.5,5,4.4,8.3c0.1,0.2,0.1,0.5,0.1,0.7l-0.2,8.5c0,0.6-0.1,1.2-0.4,1.7c-1,2.5-1.4,5.1-1.2,7.7
		c0,0.5-0.2,0.9-0.5,1.4c-0.7,0.9-1.1,1.4-1.1,1.5c0.1,0.3,0.5,0.5,0.8,0.4C351.8,449.2,351.9,449.1,352,449z M338.6,424.4
		c0.5,0,0.9,0.1,1.2,0.4c0.4,0.4,0.5,0.8,0.1,1.2c-0.2,0.3-0.7,0.8-1.3,1.6c-0.3,0.3-0.8,0.4-1.1,0.1c-0.2-0.2-0.3-0.4-0.3-0.7
		l0.1-0.9c0.1-0.3-0.2-0.6-0.5-0.7c-0.3-0.1-0.6,0.2-0.7,0.5c-0.4,1.2-1.1,2.2-2.3,2.9c-0.3,0.2-0.4,0.6-0.2,0.9
		c0.1,0.2,0.3,0.3,0.6,0.3c3.2,0.1,5.8-1.4,7.7-4.6c0.2-0.4,0.2-0.9-0.1-1.2c-0.7-0.8-1.8-1-3.3-0.6c-0.2,0.1-0.3,0.3-0.3,0.5
		C338.2,424.3,338.4,424.4,338.6,424.4z M315.2,432.2c0.2-0.3,0.3-0.7,0.4-1.2c0-0.2-0.1-0.3-0.3-0.3c-0.1,0-0.2,0.1-0.3,0.2
		c-0.2,0.5-0.3,0.9-0.3,1.2c0,0.2,0.1,0.3,0.3,0.3C315.1,432.4,315.2,432.3,315.2,432.2z M313.7,434.9c-0.2,0.3-0.3,0.6-0.4,1
		c0.2-0.3,0.4-0.6,0.6-0.9C313.8,434.9,313.8,434.9,313.7,434.9C313.7,434.9,313.7,434.9,313.7,434.9z M336.5,436.8
		c-0.9,0.1-2.1,0.5-3.6,1c-0.6,0.2-1,0.7-1.2,1.3c-0.3,1.1-0.4,1.7-0.4,1.8c0.1,0.5,0.5,0.9,1,0.8c0.2,0,0.4-0.1,0.5-0.2l4-3.9
		c0.2-0.2,0.2-0.5,0-0.7C336.8,436.8,336.7,436.8,336.5,436.8z M322.5,439.3c-0.5-0.1-1.4,1.9-2.1,4.6c-0.7,2.7-0.9,4.9-0.4,5
		c0.5,0.1,1.4-1.9,2.1-4.6C322.8,441.7,322.9,439.5,322.5,439.3z M334.2,448.3c0.2,0.2,1.4-0.4,3.6-1.8c0.6-0.4,0.7-0.8,0.4-1.2
		c-0.3-0.4-0.7-0.4-1.3,0.1C334.9,447.1,334,448,334.2,448.3z M327.3,459.6c-1.8-0.3-3.5-1.3-4.9-2.9c-0.2-0.2-0.5-0.2-0.7,0
		c-0.1,0.1-0.2,0.3-0.2,0.4c0.5,3.9,2.5,5.2,5.8,4c0.4-0.2,0.6-0.6,0.4-1C327.7,459.8,327.5,459.7,327.3,459.6z M334.9,468.8
		c0-0.4-1.9-0.7-4.3-0.7c-2.4,0.1-4.3,0.5-4.3,0.9c0,0.4,1.9,0.7,4.3,0.7C333,469.6,335,469.2,334.9,468.8z"/>
	<path class="st0" d="M433.9,545.9c0.2-0.1,0.4-0.1,0.5,0.1c0,0,0,0,0,0l0.6,0.9c0.7,1,0.5,2.2-0.3,2.7c0,0,0,0,0,0l-43.1,29.3
		c-0.8,0.6-2,0.2-2.7-0.7l-0.6-0.9c-0.1-0.2-0.1-0.4,0.1-0.5c0,0,0,0,0,0L433.9,545.9z"/>
	<path class="st0" d="M403.6,581.7c-0.2-0.3-0.1-0.8,0.2-1c0,0,0,0,0,0l11.7-7.3c5.5-3.4,10.2-5.6,10.6-5c0,0,0,0,0,0l0.3,0.5
		c0.4,0.7-3.7,4-9.1,7.4l-11.7,7.3c-0.3,0.2-0.8,0.1-1-0.2L403.6,581.7z"/>
	<path class="st0" d="M250.3,610.7c3.7-0.5,7.8,8,9.2,18.8c0,0,0,0,0,0c1.4,10.9-0.4,20.1-4.1,20.5l0,0c-3.7,0.5-7.8-8-9.2-18.8
		c0,0,0,0,0,0C244.8,620.4,246.7,611.2,250.3,610.7L250.3,610.7z M250.8,615.6c-1.7,0.2-2.2,7.3-1,15.8c1.2,8.5,3.6,15.2,5.3,14.9
		c1.7-0.2,2.2-7.3,1-15.8C255,622,252.6,615.3,250.8,615.6z"/>
	<path class="st0" d="M205.6,612.5c3.4,0,6.2,8.9,6.2,19.8c0,0,0,0,0,0c0.1,11-2.6,19.9-6,19.9c0,0,0,0,0,0c-3.4,0-6.2-8.9-6.2-19.8
		c0,0,0,0,0,0C199.6,621.4,202.2,612.5,205.6,612.5L205.6,612.5z M205.5,618.1c-1.4,0-2.4,6.6-2.3,14.7s1.2,14.7,2.6,14.7
		c1.4,0,2.4-6.6,2.3-14.7C208,624.6,206.8,618.1,205.5,618.1z"/>
</g>
</svg>
