<?xml version="1.0" encoding="utf-8"?>
<!-- Generator: Adobe Illustrator 26.0.1, SVG Export Plug-In . SVG Version: 6.00 Build 0)  -->
<svg version="1.1" id="Layer_1" xmlns="http://www.w3.org/2000/svg" xmlns:xlink="http://www.w3.org/1999/xlink" x="0px" y="0px"
	 viewBox="0 0 612 792" style="enable-background:new 0 0 612 792;" xml:space="preserve">
<style type="text/css">
	.st0{fill:#010101;}
</style>
<g>
	<path class="st0" d="M143.1,340.2c-9.5,1.6-11.9-3.8-9.9-12.2c1.3-5.6,4.7-8.7,10.1-9.2c4-0.4,6.8,0.6,8.6,3.1
		c3.8,5.5-0.1,12.1-4.9,16.1c-0.2,0.2-0.3,0.5-0.1,0.7c0.1,0.2,0.3,0.2,0.5,0.2l14.4-2.3c0.3-0.1,0.6-0.3,0.7-0.7l0.2-1.5
		c0-0.3,0.3-0.5,0.6-0.5c0.2,0,0.3,0.1,0.4,0.3c1.1,1.7,2.7,1.8,4.7,0.1c2.5-2,3.2-6.2,4.7-10.8c3-9,10.8-14.4,20.3-16.6
		c1-0.2,1.6-1.2,1.4-2.1c0,0,0-0.1,0-0.1c-0.8-3.1-1.3-4.7-1.3-5c-2.4-10.7,4.9-14.4,12.8-18.9c1.3-0.7,2.1-2.1,2.2-3.5
		c0.5-9.5,7.3-12.7,15.4-16.7c3.7-1.8,7-3.1,9.9-3.8c1.9-0.5,4-0.3,5.8,0.7c6.2,3.4,10.2,5,16.6,5.4c1.3,0.1,2.5-0.4,3.4-1.2
		l8.2-7.5c0.2-0.2,0.3-0.6,0.1-0.8c-0.1-0.1-0.2-0.2-0.3-0.2c-3.3-0.8-6.1-2.2-8.6-4c-5.8-4.4-2-12.8,2.6-16.9
		c4.3-3.9,8.1-6.8,11.4-8.8c0.9-0.5,2-0.7,3-0.4c5.7,1.7,9.6,4.1,11.9,7.3c2.1,2.9,0.6,5.6-0.2,8.3c-1.7,6.1-4,10.8-6.8,14.1
		c-0.3,0.4-0.3,0.9,0.1,1.2c0.1,0.1,0.3,0.2,0.4,0.2c11.3,2.1,12.4,9.3,13,18.7c0.4,6.1-5.6,9.5-10.9,13.4c-0.4,0.3-0.5,0.9-0.2,1.3
		c0.1,0.2,0.4,0.3,0.6,0.3c0.9,0.1,4.4,0.4,10.4,0.9c3,0.2,5,0,6-0.7c0.6-0.4,1-0.9,1.3-1.5l3.7-8.5c0.8-1.8,2.3-3.1,4.2-3.5
		c11.2-2.4,17-4,24.5-12.6c0.8-1,2-1.7,3.2-2c6.2-1.6,11.7-0.2,16.4,4.2c8.8,8.3,14.9,13.6,18.4,15.8c0.5,0.3,1.2,0.2,1.6-0.4
		c0.2-0.2,0.2-0.5,0.2-0.8l-1.2-7.7c-0.3-2.1,1.1-4,3.1-4.3c0,0,0,0,0,0l5.2-0.9c1-0.2,2-0.8,2.5-1.6c2-3,4-8.8,9.3-7
		c10.7,3.5,19.7,10,27.1,19.6c0.7,0.9,0.8,2.1,0.3,3.1l-4.4,8.9c-1.2,2.4-1.2,5.2-0.1,7.7c2.5,5.3,5.4,9.9,1.5,14
		c-3.1,3.3-7.5,6.7-13,10.1c-2.8,1.8-4.8,3-8.1,2c-3.8-1.1-6.1-1.8-7-2.1c-1.1-0.4-2-1.1-2.6-2.1l-2.9-5.1c-0.3-0.5-1-0.7-1.5-0.4
		c-0.1,0-0.2,0.1-0.2,0.2l-6.4,6.4c-0.8,0.8-0.8,2.2,0,3c0.1,0.1,0.2,0.2,0.3,0.2c5,3.6,7.8,8.3,8.5,14c0.2,1.5,1.6,2.6,3.1,2.4
		c0.1,0,0.1,0,0.2,0c6.9-1.4,11.8-16.9,20.1-11.1c5,3.5,9.5,7.2,13.6,11.2c0.4,0.3,0.8,0.6,1.2,0.9l8.3,4.4c1.5,0.8,2.6,2,3.2,3.6
		c2.4,5.8,1.9,11.5-1.3,17c-0.9,1.6-1,3.2-0.3,4.9c1.1,2.6,1.6,5.1,1.6,7.7c0,1.8-1.2,3.4-2.9,4l-4.6,1.6c-0.6,0.2-1.2,0.6-1.6,1.2
		c-3.2,4.7-8.3,10.2-7.9,15.6c0.2,2.7,1.6,7.5,4,14.2c0.4,1.1,1.6,1.6,2.6,1.2c0.2-0.1,0.5-0.2,0.7-0.4l2.5-2.3
		c0.9-0.8,1.3-2.2,0.8-3.4l-1.4-3.9c-0.3-0.9-0.3-1.8,0.1-2.7c2.3-5.5,9.4-7.9,14.7-9.1c2.2-0.5,4.3,0.6,6.3,3.3
		c0.4,0.5,1.1,0.8,1.7,0.6c1.9-0.5,3.3-1.1,4.2-1.7c1.4-1,3.4-1,5,0.1c6,3.8,10.4,6.8,13.3,8.9c8.6,6.1-5,12.4,0.8,20.1
		c7,9.3,10.3,12.7,3.2,23.6c-4.3,6.5-8.3,11.8-11.9,15.7c-3,3.3-6,3.3-10.1,2.4c-0.8-0.2-1.6,0-2.3,0.5c-7.4,5.5-10.2,12.3-8.3,20.5
		c0.6,2.4-0.5,4.8-2.6,6l-9.5,5.5c-1.8,1-4,1.1-5.8,0.1l-9.1-4.8c-0.9-0.5-2-0.5-3,0.1l-6.6,3.8c-0.9,0.5-1.2,1.5-0.9,2.5
		c2.6,6.9,0.5,12.1-2.9,18c-0.4,0.6-0.4,1.4,0,2l3.7,6.4c0.2,0.3,0.6,0.4,0.9,0.2c0.1,0,0.1-0.1,0.2-0.1c4.5-5.1,9.5-6.2,15.3-3.3
		c4.5,2.2,6.2,6.3,4.2,10.9c-3.5,7.8-20.7,10.1-21.8-1.4c0-0.2-0.2-0.3-0.3-0.3c0,0-0.1,0-0.1,0l-17.7,8.1c-1.4,0.6-2.5,1.7-3.3,3
		c-3.5,6.2-5.1,11.1-11.7,11.9c-6.5,0.8-12.6,0.4-18.6-1.2c-7.5-2.1-6.6-7.9-7.1-13c-0.2-1.5-1.2-2.8-2.6-3.3
		c-1.4-0.5-4-0.5-7.7,0.1c-0.7,0.1-1.2,0.6-1.3,1.3l-0.7,4.7c-0.1,0.5-0.3,1-0.6,1.4c-2,2.7-5.3,5.6-10,8.7
		c-5.2,3.4-8.4,2.8-14.6,2.6c-1.1,0-2.2,0.2-3.2,0.6c-3.3,1.5-5.1,2.2-5.2,2.3c-6.5,2.5-12.1,0.1-16.1-5.5c-0.7-1-1.4-3.3-2.1-7.1
		c-0.2-1.3-1.3-2.3-2.6-2.5l-0.8-0.1c-0.7-0.1-1.3,0.3-1.4,1c0,0.2,0,0.3,0,0.5c0.5,2.2,1.9,4.7,2.2,6.6c1,6.2-2,9.7-8.9,10.3
		c-8.9,0.9-15.8,2.4-20.7,4.5c-4,1.7-7.2,1-10-1.7c-3-2.9-5.8-5.6-8.4-8.3c-1.3-1.3-2.7-2.5-4.3-3.4c-9.5-5.6-17.5-8.2-16.6-18.3
		c0.2-2.7,0.8-5.7,1.7-9c0.3-0.9-0.1-2-0.9-2.5l-13.2-9.9c-0.5-0.4-1.3-0.4-1.8,0.1c-4.1,3.9-9,6.9-14.5,3.8
		c-10.5-5.9-12.2-11.9-14.3-23.8c-0.1-0.3-0.2-0.7-0.4-0.9l-4-6.4c-0.9-1.4-2.4-2.4-4-2.7l-8.9-1.3c-1.7-0.2-3.2-1.2-4-2.7
		c-2.3-3.8-2.2-9.1-4.3-13c-2.8-5.3-5.2-8.9-3.4-13.9c3.3-9.5,9.4-16.5,18.3-20.8c0.5-0.2,0.8-0.8,0.6-1.4c-2-7.4-3.2-17.1-3.6-28.9
		c0-1.3-1-2.3-2.3-2.4c-5.8-0.3-7.5-4.5-8.9-9.8c-1.7-6.6-4.7-12.3-8.9-17.3c-1.1-1.2-1.4-2.9-0.9-4.5c1.2-3.7,3.2-10.3,6.1-19.8
		c0.9-3.1,2.4-5.9,4.3-8.4c0.2-0.2,0.1-0.5-0.1-0.7C143.3,340.2,143.2,340.1,143.1,340.2z M262.4,241.4c-0.6,1.8,0.2,3.8,1.9,4.6
		c3,1.4,6.6,2,10.8,1.8c1.6-0.1,2.9-1.2,3.3-2.7c0.4-1.7,1-4.5,1.8-8.3c0.8-3.9-1.5-6.6-4.6-7c-0.7-0.1-1.4,0.1-2,0.5
		C269.6,233.4,263.6,238,262.4,241.4z M179.5,359c15.8-24.9,44.5-47.3,74.6-51.7c11.3-1.7,20.6-2.2,27.7-1.6
		c29.6,2.6,54.3,15,74.2,37.2c28.6,31.9,33,76.8,21.5,117.6c-6.9,24.4-26.4,45.9-48.7,57.4c-34.8,17.9-72.3,18.3-106.3-1.2
		c-11.8-6.7-20.7-16.4-27-28.9c-0.2-0.4-0.7-0.6-1.1-0.4c-0.1,0.1-0.3,0.2-0.3,0.3c-2.3,4.2-5,7.9-8.1,11.1c-1.3,1.4-3.4,1.7-5,0.8
		c-1.4-0.8-2.2-2.1-2.4-4c-0.9-7.6-1-15-0.4-22.2c0.1-1.1-0.4-2.1-1.2-2.7c-7.1-5.5-14.4-18.6-15.5-25.8c-0.2-1.2-1.3-2-2.5-1.8
		c-0.4,0.1-0.8,0.3-1.2,0.5l-7,6.3c-1.8,1.7-2.3,4.4-1.1,6.5c2.2,3.9,3.4,9.1,3.6,15.4c0.1,2.2,1.9,3.9,4.1,3.8c0.2,0,0.3,0,0.5,0
		l4.2-0.7c0.7-0.1,1.5,0,2.2,0.2c6.5,2.6,8.4,7.7,12.2,15.1c0.4,0.8,0.5,1.7,0.4,2.5c-1.2,8.4,1.8,14.5,9,18.3
		c0.8,0.4,1.8,0.3,2.5-0.3l6.6-6c1-1,2.6-1.2,3.8-0.5c6.6,3.3,12.3,8.8,22.5,17.6c3.6,3.1,1.7,9.2,1,12.3c-0.2,0.6,0.1,1.3,0.5,1.7
		l23.3,20.1c0.4,0.3,0.8,0.4,1.3,0.4l18.9-3c0.6-0.1,1.1-0.7,1-1.3c0-0.1,0-0.2-0.1-0.3l-2-4.3c-0.3-0.7-0.4-1.5-0.3-2.2
		c0.5-2.5,1.9-5.5,4.2-8.8c1-1.4,2.6-2.3,4.3-2.2c6.3,0.1,12.4,1.3,18.5,3.7c3.8,1.5,5.5,4.7,5,9.5c-0.1,0.9,0.5,1.6,1.4,1.7
		c0.2,0,0.5,0,0.7-0.1l9.8-3.4c1-0.4,2.2-0.4,3.2,0l3.3,1.1c0.6,0.2,1.3,0.2,1.9,0.1c2.2-0.5,4.6-1.8,7.2-3.8
		c0.7-0.5,0.9-1.4,0.6-2.2c-2.3-6,0.4-13,7.8-13.2c5.6-0.2,10.3,0.4,14.3,1.8c10.3,3.6,11.2,5.4,11,16.3c0,0.7,0.4,1.3,1.1,1.5
		c4.3,1.2,7.8,1.4,10.3,0.7c1-0.3,1.7-1,2.1-1.9c3.9-11.4,13.2-14.8,23.4-18.5c0.6-0.2,1-1,0.7-1.6c0-0.1-0.1-0.2-0.1-0.2
		c-5-7.7-1.5-10,1.1-17c0.4-1,0.3-2.2-0.2-3.2c-1.8-3.3-2.9-6-3.1-8.2c-0.2-1.5,0.4-3,1.6-4c4.6-3.8,9.3-6.8,14-8.8
		c6-2.6,12.7,2.6,16.3,4.3c0.6,0.4,1.4,0.4,2,0l5.3-2.9c0.6-0.3,1.1-0.9,1.2-1.6c1.1-3.9-2.6-9.7,0.9-13.7
		c3.7-4.2,7.5-8.2,11.4-12.2c3.1-3.2,6.4-3.6,9.9-1.2c1.1,0.8,2.7,0.5,3.5-0.6c0,0,0-0.1,0.1-0.1l10.8-16.5c0.6-1,0.6-2.2-0.2-3.1
		c-5-5.7-11.1-12.6-7.5-20.8c0.1-0.2,0.6-1.4,1.5-3.5c0.3-0.8,0.1-1.7-0.7-2.2l-7.2-4.7c-1.1-0.7-2.5-0.8-3.7-0.1
		c-4.1,2.4-7.5,2.1-10.2-1.1c-0.5-0.6-1.2-0.9-2-0.9c-1.3,0-2.4,0.4-3.2,1.1c-0.6,0.5-0.9,1.4-0.7,2.2c0.7,3.5,0.8,6.5,0.4,9.1
		c-0.1,0.7-0.5,1.4-1,1.9c-5.3,4.9-14.3,12.5-20.4,3.3c-2.4-3.7-4.6-8.5-6.5-14.4c-2.3-7.2,0.9-16.1,3.9-23c2.7-6.1,5.8-5,10.8-7.8
		c0.8-0.4,1.1-1.4,0.6-2.1c-3.9-7.3-1.7-10.6,1.3-19c0.3-0.9-0.1-2-1.1-2.3c0,0,0,0-0.1,0c-6.7-2.3-13.2-6.6-19.3-12.9
		c-0.6-0.6-1.6-0.7-2.2-0.1c-8.6,7.8-19.3,13.7-27.5,0.4c-0.5-0.8-1.1-2.7-1.8-5.9c-0.3-1.3-1-2.6-1.9-3.6c-5.3-5.9-9.2-9.8-2.6-17
		c2.8-3,5.2-5.8,7.3-8.2c4-4.6,7.6-6,12.5-1.3c2.5,2.4,4.9,5.3,7.4,8.5c0.8,1,2.2,1.3,3.2,0.6c3.1-1.9,5.9-4.7,8.3-8.5
		c0.7-1,0.7-2.3,0.2-3.4c-3.6-7.6-1.3-12.9,1.3-20.2c0.3-0.8,0-1.6-0.6-2.1l-13.4-10.8c-0.6-0.5-1.4-0.4-1.8,0.2
		c-0.1,0.1-0.1,0.2-0.2,0.3c-1.7,3.9-4.2,6.4-7.5,7.3c-0.8,0.2-1.3,1-1.2,1.7c0.8,6.7-2,10.9-8.5,12.4c-6.3,1.5-9.6-1.4-14.2-5.4
		c-8.7-7.7-15.1-13.1-19.2-16.3c-0.6-0.5-1.5-0.4-2,0.2c-0.1,0.1-0.1,0.2-0.2,0.3c-4.1,9.9-15.8,13.3-25.2,14.2
		c-1.1,0.1-2,0.8-2.4,1.9l-3.2,9.4c-0.1,0.3-0.3,0.5-0.5,0.7c-5.8,4.1-13.6,3.1-23.1,3.2c-7,0.1-12.1-2.7-15.6-8.3
		c-4.3-7.1,3.9-10.3,9.9-14.4c0.7-0.5,1.1-1.2,1.1-2.1l0.2-7.3c0-0.6-0.2-1.1-0.6-1.6c-2.4-2.5-4.6-3.4-6.6-2.9
		c-4.5,1.2-8.3,3.9-11.5,8.1c-2.2,3-4.5,2.8-7.8,2.7c-6.1-0.2-15.6-1-20.1-6.2c-0.5-0.6-1.3-0.8-2-0.4l-13,5.9
		c-0.8,0.4-1.4,1.2-1.3,2.1c0.1,5.7,0.7,12.3-3.8,14.8c-1.3,0.7-4.5,2.1-9.8,4.2c-1.6,0.6-2.3,2.4-1.7,4c0.1,0.3,0.3,0.6,0.5,0.8
		c2,2.4,3.2,4.8,3.5,7c2.8,18.7-22.9,6-26,23.5c-1.4,7.5-4.4,13-9.1,16.5c-0.6,0.4-0.8,1.2-0.5,1.8l5.7,12.4
		c0.2,0.5,0.7,0.7,1.2,0.5C179.2,359.3,179.4,359.1,179.5,359z M258.3,522c10.1,1.8,17.4,2.5,21.7,2.2c26.7-2.2,49.4-12.5,67.9-31.1
		c16.5-16.5,21.6-34.9,25.1-57.4c4.4-27.8-3.1-59-20.5-81c-14.7-18.6-38.4-34.9-63.1-38.5c-46-6.8-80.9,14.6-105.5,52.1
		c-0.3,0.5-0.4,1.1-0.1,1.6l27.8,60.9c0.8,1.6,1,3.5,0.6,5.3c-2.5,12.9-6.3,28.4-16.7,36.5c-0.5,0.4-0.6,1.2-0.2,1.7
		c0.1,0.1,0.2,0.2,0.3,0.3c23.2,16.1,54.3,24.4,80.6,12.1c0.7-0.3,1-1.2,0.7-1.9c0,0,0,0,0,0c-0.2-0.3-0.5-0.6-1-0.9
		c-15.1-8.8-26.3-21.8-33.6-39c-1.5-3.5-0.8-6.1,1.9-7.8c14.7-9.1,28.2-20.1,41.4-29.3c1.9-1.3,18.5-13.2,50-35.7
		c6.4-4.6,11.3-7.6,14.7-8.9c0.7-0.3,1.2-0.2,1.7,0.1c0.6,0.4,0.6,1.3,0.1,1.9c0,0-0.1,0.1-0.1,0.1c-2.9,2.8-5.2,5.2-6.9,7.1
		c-0.5,0.6-0.7,1.3-0.4,2c6.1,17.7,7.7,36.7,5,57c-1,7-3.3,13.3-5.9,20.1c-6.9,17.7-19.3,30.2-37.1,37.4c-1.3,0.5-2.4,1.6-3,3
		c-1.7,4.2-4.3,8.8-7.6,12.1c-2.4,2.4-3.8,4-4.4,4.7c-0.6,0.8-1.1,1.6-1.3,2.6l-0.5,1.7c-0.2,0.6-0.8,1-1.4,0.8l-2.6-0.5
		c-1.1-0.2-2.2,0-3.1,0.5c-5.6,3.1-13.7,5.5-24.5,7.2c-0.3,0-0.4,0.3-0.4,0.5C258,521.8,258.1,521.9,258.3,522z M146.2,324.4
		c-1.5-0.9-4.1,0.8-5.8,3.7c-1.7,2.9-2,6-0.5,6.9l0,0c1.5,0.9,4.1-0.8,5.8-3.7C147.5,328.3,147.7,325.3,146.2,324.4z M154.3,393.4
		c0.1-0.8,0.2-3.7,0.4-8.9c0.5-12.4,3.8-27.5,12.4-36.5c0.2-0.2,0.2-0.5,0-0.7c-0.1-0.1-0.2-0.1-0.3-0.1l-12.9-1.1
		c-1.6-0.1-3,0.9-3.3,2.5l-2.4,12.6c-0.1,0.4-0.2,0.7-0.4,1.1l-3.9,8.1c-0.4,0.9-0.3,2,0.4,2.7c5.2,5.9,7.6,8.8,7.3,17.7
		c0,0.9,0.3,1.7,0.9,2.4l0.6,0.7c0.3,0.3,0.7,0.3,1,0C154.2,393.7,154.3,393.6,154.3,393.4z M168.9,353.9c-0.6,0.2-1.1,0.6-1.3,1
		c-8.3,15.2-9.4,33.5-8.5,53c0.6,13.2,3.5,26.2,8.4,38.8c3,7.5,8.2,18,14.9,20.8c15.7,6.7,21.6-23.4,23.1-32.4
		c0.2-0.9,0-1.8-0.3-2.6l-35.8-78.3C169.4,353.9,169.1,353.8,168.9,353.9z M249.1,442.1c3.9,11.1,11,19.4,20.1,28.3
		c5.5,5.3,12.7,9.2,21.9,11.7c7.7,2.1,15,1.1,22-3c4.8-2.8,8.4-5.6,10.6-8.1c21.7-25,24.4-61,14-91.7c-0.1-0.3-0.4-0.4-0.7-0.3
		c0,0-0.1,0-0.1,0.1L249.2,442C249.1,442,249.1,442.1,249.1,442.1z M184.5,490.7c0,0.5,0.4,0.9,0.9,0.9c0.3,0,0.6-0.2,0.8-0.4
		l4.5-7.8c0.4-0.7,0.4-1.6-0.1-2.3c-1.2-1.6-2.8-3-4.9-4.2c-0.3-0.2-0.7-0.1-0.9,0.2c-0.1,0.1-0.1,0.2-0.1,0.4L184.5,490.7z
		 M285.5,504l-0.6-9.6c0-0.5-0.5-0.9-1-0.9c-0.1,0-0.2,0-0.3,0.1l-3.5,1.2c-0.9,0.3-1.4,1.3-1.1,2.2c0,0.1,0.1,0.3,0.2,0.4l4.7,7.1
		c0.3,0.4,0.8,0.5,1.2,0.2C285.4,504.5,285.5,504.3,285.5,504z M420.5,531c-0.4-1.3-2.7-1.8-5.1-1c0,0,0,0,0,0
		c-2.4,0.8-3.9,2.5-3.5,3.8l0,0c0.4,1.3,2.7,1.8,5.1,1c0,0,0,0,0,0C419.3,534,420.9,532.3,420.5,531z"/>
	<path class="st0" d="M455.4,356.8c-2.1-5.2-0.9-6.8,2.1-11.8c1.7-2.7,3.7-4.2,6-4.4c10-1,15,3.8,15.1,14.3c0,2-0.9,4-2.4,5.3
		l-3.6,3.3c-0.7,0.6-0.8,1.7-0.1,2.4c0.2,0.2,0.4,0.3,0.6,0.4c4.1,1.6,6.2,4,6.2,7.2c0,8.4-0.7,13.8-8.3,18.6
		c-2.2,1.4-4.2,1.7-6,0.8c-4.9-2.3-9.2-4.6-12.9-6.8c-1.3-0.7-2.2-1.9-2.5-3.4c-1.3-5.4-1.6-10.9-0.6-16.7c0-0.3,0.2-0.6,0.4-0.9
		l5.7-7.1C455.5,357.8,455.6,357.3,455.4,356.8z M461.4,353.6c1.2,2.5,1.7,4.2,1.5,4.9c-0.3,1.2-0.9,2.2-1.7,3.1l-4.6,5
		c-0.4,0.5-0.8,1.1-0.9,1.7c-0.9,3-1,6.2-0.3,9.6c0.3,1.5,1.2,2.7,2.6,3.5l5.6,3c0.1,0,0.1,0,0.2,0.1c6.6,0.5,9.7-2.8,9.2-9.8
		c-0.1-0.9-0.5-1.6-1.3-2l-4.1-2.2c-0.8-0.4-1.4-1.2-1.7-2.1c-0.5-1.8-0.4-4.3,0.2-7.5c0.2-0.9,0.7-1.7,1.5-2.3l3.9-2.8
		c0.7-0.5,1.1-1.4,1.1-2.2c-0.3-5-2.7-7-7.4-6.2c-1.7,0.3-3,1.7-3.9,4.3C461,352.2,461.1,352.9,461.4,353.6z"/>
	
		<ellipse transform="matrix(0.9998 -1.919742e-02 1.919742e-02 0.9998 -8.237 3.8777)" class="st0" cx="197.9" cy="431" rx="3.1" ry="6.1"/>
	
		<ellipse transform="matrix(0.184 -0.9829 0.9829 0.184 -212.0929 623.8649)" class="st0" cx="269.7" cy="439.7" rx="5.7" ry="3.2"/>
	<path class="st0" d="M405.3,550.6c0.3,3.5-2.8,6.6-6.9,7c-4.1,0.4-7.8-2.1-8.1-5.6c0,0,0,0,0,0c-0.3-3.5,2.8-6.6,6.9-7
		C401.3,544.6,405,547.1,405.3,550.6C405.3,550.6,405.3,550.6,405.3,550.6z M398.6,551c-0.1-0.3-0.6-0.5-1-0.3c0,0,0,0,0,0
		c-0.5,0.1-0.8,0.5-0.7,0.9c0.1,0.3,0.6,0.5,1,0.3c0,0,0,0,0,0C398.4,551.7,398.7,551.4,398.6,551z"/>
</g>
</svg>
