<?xml version="1.0" encoding="utf-8"?>
<!-- Generator: Adobe Illustrator 26.0.1, SVG Export Plug-In . SVG Version: 6.00 Build 0)  -->
<svg version="1.1" id="Layer_1" xmlns="http://www.w3.org/2000/svg" xmlns:xlink="http://www.w3.org/1999/xlink" x="0px" y="0px"
	 viewBox="0 0 612 792" style="enable-background:new 0 0 612 792;" xml:space="preserve">
<style type="text/css">
	.st0{fill:#010101;}
</style>
<g>
	<path class="st0" d="M237.3,182c0.1,0.7,0.1,1.1,0.2,1.1c4,5.6,9.4,13,16.1,22.2c0.2,0.3,0.4,0.8,0.5,1.5c0.3,1.6-0.8,3-2.3,3.3
		c-0.2,0-0.4,0-0.6,0l-28-0.8c-0.9,0-1.8,0.4-2.3,1.1c-8.6,11.7-14,18.9-16.1,21.5c-1.1,1.4-2.8,1.9-4,1.1c-0.8-0.4-1.3-1.3-1.7-2.5
		c-3.1-9.4-5.5-17.6-7.2-24.6c-0.4-1.5-1.4-2.6-2.9-3.1c-9.3-2.9-17.3-5.5-24.1-7.8c-2.2-0.7-3.3-1.7-3.5-3
		c-0.2-1.2,0.7-2.5,2.6-3.8c5.9-4,13-8.6,21.2-13.9c1.3-0.8,2-2.2,2-3.7c-0.2-7.2,0-15.7,0.5-25.6c0.1-1.3,0.4-2.3,1-2.9
		c1-1,2.8-1,4.2,0c2.8,2,9.8,7.5,21.2,16.5c0.7,0.6,1.7,0.7,2.5,0.5l26.8-8.1c1.5-0.5,3.1,0.4,3.6,1.9c0.1,0.2,0.1,0.4,0.1,0.6
		c0,0.6,0,1.2-0.1,1.6c-4.1,10.6-7.3,19.2-9.6,25.7C237.2,181,237.2,181.4,237.3,182z M192.7,176.1c-0.4,0.8-1.3,1.6-2.6,2.5
		c-3.1,2.1-8.7,5.8-16.7,11.2c-0.3,0.2-0.5,0.5-0.4,0.9c0,0.4,0.3,0.6,0.7,0.8c9.1,3.1,15.5,5.2,19.1,6.4c1.5,0.5,2.6,1.1,3.2,1.7
		c0.6,0.6,1.1,1.7,1.6,3.3c1,3.6,2.8,10.1,5.4,19.4c0.1,0.4,0.4,0.6,0.7,0.7c0.4,0.1,0.7-0.1,0.9-0.4c5.8-7.7,9.7-13.1,11.9-16.2
		c0.9-1.3,1.8-2.1,2.6-2.5c0.8-0.4,2-0.5,3.6-0.5c3.8,0.2,10.5,0.5,20.1,0.8c0.4,0,0.7-0.1,0.9-0.5c0.2-0.3,0.2-0.7-0.1-1
		c-5.6-7.9-9.5-13.3-11.7-16.4c-0.9-1.3-1.5-2.4-1.6-3.3c-0.1-0.9,0.1-2.1,0.7-3.6c1.3-3.5,3.7-9.8,7-18.9c0.1-0.4,0.1-0.7-0.2-1
		c-0.3-0.3-0.6-0.4-1-0.2c-9.2,2.9-15.6,4.9-19.2,6.1c-1.5,0.5-2.7,0.7-3.6,0.5c-0.9-0.2-1.9-0.7-3.2-1.7
		c-2.9-2.4-8.2-6.5-15.8-12.5c-0.3-0.2-0.7-0.3-1-0.1c-0.3,0.2-0.5,0.5-0.5,0.9c-0.1,9.6-0.2,16.4-0.2,20.1
		C193.3,174.1,193.1,175.3,192.7,176.1z"/>
	<path class="st0" d="M376.1,311.9c0.1-2.3,0.3-3.9,0.6-4.8c0.7-3,3-5.1,5.3-4.9c12.9,1,24.1,40,27.1,50.3c0.1,0.3,0.3,0.5,0.6,0.6
		l19.6,6.8c0.6,0.2,1.3,0.2,2-0.1c5.9-2.7,10.8-4.1,14.7-4.1c2.1,0,4,1.4,4.7,3.4c2.6,7.8,3.6,15.8,3.2,23.9c-0.1,1.9,0.2,3.9,1,5.6
		c2,4.6,3.5,7.7,3.2,11.9c-0.1,0.6-0.5,1.1-1,1.2c-1.1,0.2-2.4,0.1-3.9-0.5c-0.3-0.1-0.6,0-0.7,0.3c-0.1,0.2,0,0.3,0,0.5l5.6,9.7
		c0.4,0.7,1,1.2,1.8,1.4c16,4.7,27.7,15.9,34.9,33.5c7.9,19.3,11.9,40.3,15.5,58.7c1.6,8.3,4.5,15.4,8.7,21.5c0.7,1,0.5,2.5-0.6,3.2
		c-0.1,0.1-0.3,0.2-0.4,0.2c-2.1,0.9-4.9,1.4-8.3,1.7c-16,1-32.6-5.8-45.8-14.6c-0.4-0.3-1-0.2-1.3,0.2c-0.1,0.2-0.2,0.4-0.1,0.6
		c1.4,10.8,2.1,23.9,0.5,33.5c-1.9,11.3-5.6,23.3-11.3,36c-0.6,1.5-2.3,2.1-3.8,1.5c-0.1-0.1-0.2-0.1-0.4-0.2
		c-11.5-7-21.9-15.9-31.2-26.6c-0.3-0.4-0.9-0.4-1.3-0.1c-0.1,0.1-0.2,0.3-0.3,0.4c-5.7,17.6-13.4,35.3-23.1,53
		c-0.5,0.9-0.5,2.1,0.1,3c9.7,14.4,1.9,30.6-15.6,30.9c-25.2,0.4-40.2-11.3-44.9-35.2c-0.6-2.9-0.7-9.8-0.4-20.6c0-0.5-0.4-1-0.9-1
		c-0.1,0-0.2,0-0.2,0l-11.3,2.6c-0.4,0.1-0.6,0.5-0.5,0.9c0,0.1,0.1,0.2,0.1,0.3c2.1,2.9,3.6,5.3,4.5,7.2
		c7.1,14.9-2.9,27.6-18.6,26.9c-6-0.3-12.4-2.2-19.2-5.8c-0.6-0.3-1.4-0.1-1.7,0.5c0,0,0,0.1-0.1,0.1c-7.4,19.2-24.6,28.5-44.9,23.4
		c-15.8-3.9-15.3-14.2-11.1-27.3c0.6-1.7,0.4-3.5-0.3-5.2l-6.6-14.4c-0.6-1.4-1.9-2.3-3.3-2.6l-12.9-2.4c-0.5-0.1-1,0.2-1.1,0.7
		c0,0.2,0,0.4,0,0.6c4.4,11.2,5.2,20.2,2.5,26.8c-8.3,20.4-32.5,13.8-44.2,0.5c-13.3-15.1-21.5-33.3-24.8-54.7
		c-1.2-7.7-0.2-14.7,2.9-20.9c0.3-0.5,0.1-1.2-0.5-1.4c-0.1,0-0.2-0.1-0.3-0.1c-3.4-0.6-7.1-2.5-11.3-5.5c-1-0.8-2.3-1.1-3.5-0.9
		l-7.9,1.3c-1.5,0.2-2.9-0.8-3.2-2.3c-0.1-0.5,0-0.9,0.1-1.3l3.2-9.4c0.6-1.7-0.3-3.7-2-4.3c-0.4-0.1-0.9-0.2-1.3-0.2l-1.4,0.1
		c-2,0.1-3.9-1-4.8-2.8c-4.2-8.6-3.6-22.8-3.1-31.3c0-0.8-0.6-1.5-1.4-1.6c-0.1,0-0.3,0-0.4,0c-2.7,0.6-5,0.6-6.8-0.1
		c-1.4-0.5-2.1-2.1-1.6-3.4c0.1-0.2,0.1-0.3,0.2-0.4l3.1-5.2c0.4-0.6,0.7-1.3,0.9-1.9l12-30.5c0.3-0.7,0.4-1.4,0.4-2.1
		c0.7-16.4,7.8-31,21.3-43.8c0.4-0.4,0.4-1,0.1-1.4c-0.1-0.1-0.3-0.2-0.4-0.3c-3.3-1.1-3.2-3.3-2.1-6.3c8.5-21.5,30-41.7,53-46.9
		c0.6-0.1,1.1-0.7,1.3-1.3c2.2-11.6,6.6-22.6,13.1-33c1.9-3,3.8-5.4,5.9-7.2c0.5-0.5,1.2-0.7,1.9-0.8c5.3-0.5,16.5,14.4,19.8,19.3
		c0.4,0.6,1.3,0.8,1.9,0.4c0,0,0,0,0,0c11-7.6,23.9-12.7,38.7-15.3c0.6-0.1,1-0.7,0.9-1.3c0-0.3-0.2-0.5-0.4-0.7
		c-2.6-2-4.7-4.6-6.2-7.9c-1-2.1-0.6-4.6,1-6.3c4.5-4.9,15.5-5.2,22-4.7c18.5,1.3,35,8.5,51.1,18.5c0.4,0.2,0.9,0.1,1.1-0.3
		c0.1-0.2,0.2-0.5,0.1-0.8c-2-4.6-10.4-24.5-4-28.1c5.7-3.2,18.4,5.8,22.7,9.3c8.3,6.8,15.7,14.9,22.2,24.3c0.2,0.3,0.7,0.4,1,0.2
		C375.9,312.4,376.1,312.2,376.1,311.9z M421.4,364l-9.6-3.3c-0.5-0.2-1.1,0.1-1.3,0.6c0,0.1,0,0.2-0.1,0.2l-0.6,7.2
		c-0.1,1-0.7,2-1.6,2.5l-0.4,0.3c-0.8,0.5-1.7,0.2-2.2-0.5c-0.1-0.2-0.2-0.4-0.2-0.6c-2.7-21.7-9.5-41.2-20.3-58.6
		c-0.4-0.6-1.2-0.8-1.9-0.5c-0.4,0.2-0.6,0.7-0.7,1.1c-0.3,8.6,1.1,17.8,4.3,27.4c0.3,1-0.1,2.1-1.1,2.6l-0.5,0.2
		c-1.1,0.6-2.5,0.1-3-1c0-0.1-0.1-0.1-0.1-0.2c-9-23.7-24.2-45.2-46.8-56.4c-0.6-0.3-1.4-0.1-1.7,0.5c-0.2,0.3-0.2,0.6-0.1,1
		l9.7,28.9c0.1,0.4,0.4,0.8,0.7,1.1l10.1,10.7c0.8,0.9,1.1,2.1,0.7,3.2l-0.2,0.6c-0.3,0.9-1.3,1.4-2.2,1.1c-0.2-0.1-0.4-0.2-0.6-0.3
		c-9.9-8.3-16.2-13.4-18.8-15.4c-15.2-11.5-32-18.3-50.3-20.6c-5.7-0.7-11.2-0.3-16.5,1.2c-0.9,0.3-1.4,1.2-1.2,2.1
		c0.1,0.2,0.2,0.5,0.3,0.6c3.3,4,7.9,9.6,13.5,9.4c10.8-0.3,21.2,0.7,31.2,3c1.2,0.3,2.1,1.4,2.1,2.6v0.1c0,1.1-0.8,1.9-1.9,2
		c-0.1,0-0.1,0-0.2,0c-12.5-1.3-23.8-1.7-34-1.2c-15.9,0.8-30.5,5.2-43.7,13.2c-8.5,5.2-20.8,16.7-11.1,26.5
		c0.4,0.5,1.1,0.5,1.6,0.2c2.8-2,7.3-3.2,13.5-3.6c10.2-0.7,21.4-0.4,33.8,0.8c29.9,3,57.9,11,83.9,24c0.5,0.3,1.2,0.1,1.4-0.5
		c0-0.1,0.1-0.2,0.1-0.2c2.5-10.6,6-20.3,11.6-29.8c0.8-1.4,2.5-2,4-1.3c15.4,6.5,26.9,17.6,34.3,33.5c0.2,0.5,0.8,0.7,1.3,0.5
		c0.2-0.1,0.3-0.2,0.4-0.3c3.8-5,8.6-9.4,14.3-13.1c0.4-0.3,0.5-0.8,0.2-1.1C421.7,364.1,421.6,364,421.4,364z M198.3,393.8
		c-3.1,0.2-6.3-4.4-8.3-7.3c-1-1.4-2.6-2.3-4.4-2.4c-15.3-0.9-27.8,2.6-37.6,10.4c-0.8,0.7-1.2,1.8-1,2.8
		c4.7,18.8,17.6,34.8,36.6,40.6c0.6,0.2,1.3-0.1,1.5-0.8c0-0.1,0-0.1,0-0.2c1.6-12.1,8.1-19.5,16.3-28.6c1.7-1.9,3-4.1,3.8-6.5
		l13.8-39.7c0.1-0.2,0-0.5-0.2-0.6c-11.7-9.4-8.2-20.3,0.3-30.4c0.6-0.8,0.6-1.9-0.1-2.6l-13.1-14.4c-0.5-0.6-1.4-0.6-2-0.1
		c-0.1,0.1-0.2,0.2-0.2,0.2c-12.7,18.5-21.8,46.6-9.3,67.4c0.2,0.3,2,3.3,5.5,9.1c0.6,0.9,0.3,2.1-0.6,2.7
		C198.9,393.7,198.6,393.8,198.3,393.8z M443.1,527.1c3.8-19.2,8.3-44.6-6.4-59.8c-2-2.1-4.6-4.9-7.6-8.5c-0.6-0.7-0.5-1.6,0.2-2.2
		c0.2-0.2,0.5-0.3,0.8-0.4l0.9-0.1c1.2-0.2,2.5,0.2,3.5,1l10,8.6c0.7,0.6,1.7,0.9,2.7,0.7c13.6-3.1,23.3-15.4,30.8-26.6
		c0.2-0.3,0.2-0.8-0.1-1.1c-9.8-9-20.4-16.3-33.7-14.5c-0.7,0.1-1.3,0.4-1.8,0.9c-2.1,2.3-4,4.3-5.7,6c-1.1,1.1-2.3,1.4-3.6,0.8
		c-0.9-0.4-1.3-1.6-0.8-2.5c0-0.1,0.1-0.1,0.1-0.2c12.1-18.2,19.2-44.2,13.1-65.8c-0.3-0.8-1.1-1.3-2-1.1c-14,4-25,11.6-32.8,23
		c-0.9,1.3-1.3,2.9-1,4.5c1.5,9.3,3.1,21-0.1,29.1c-0.4,1-1.5,1.5-2.5,1.1c-0.4-0.2-0.8-0.5-1-0.9c-0.3-0.5-0.4-1.2-0.4-2
		c0.1-12.2-0.9-25.1-5.6-35.8c-5.6-12.8-14.5-22.4-26.9-28.9c-0.6-0.3-1.4-0.1-1.7,0.5c-12.8,23.6-17.4,54.9,4.6,74.3
		c1.3,1.2,1.7,3,0.8,4.4c-0.4,0.7-1.1,1-2.1,1.1c-4.1,0.4-11.9-0.7-17.4,1c-8.2,2.5-14.2,8.1-18,16.7c-6,13.6-10.4,22.8-13.3,27.7
		c-0.2,0.4-0.1,0.9,0.3,1.1c0.1,0,0.1,0.1,0.2,0.1c8.7,2.8,17.8,3.5,27.4,2.3c12.4-1.6,23.1-9.1,32-22.3c0.5-0.8,1.5-1,2.3-0.5
		c0.3,0.2,0.5,0.5,0.6,0.8l0.1,0.1c0.6,1.5,0.5,3.2-0.3,4.6c-3.6,6.6-8.2,11.9-13.7,15.9c-1.3,1-2.4,2.2-3.1,3.6
		c-11.4,21.6,1.2,40.1,12.1,58.4c0.4,0.6,1.1,0.8,1.7,0.4c0.1,0,0.1-0.1,0.2-0.1c9.7-8.5,17.1-18.6,22.2-30.3
		c4.3-9.6,5.5-23.3,3.7-41.1c-0.1-1,0.6-1.9,1.7-2.1c0.1,0,0.1,0,0.2,0h0.1c1.1,0,2.1,0.7,2.4,1.8c3.2,11.9,3.5,23.3,0.9,34.3
		c-0.3,1.2,0,2.6,0.8,3.5c6.4,7.6,14.4,13.9,24,19c0.5,0.3,1.1,0.1,1.4-0.4C443,527.3,443,527.2,443.1,527.1z M139,392.2
		c1.8-0.8,4.2-2.3,7.1-4.6c9.8-7.7,24.7-10.5,37.4-10.1c0.6,0,1-0.4,1-1c0-0.1,0-0.2-0.1-0.4c-2.2-5.9-3.2-12.6-3-20.1
		c0-0.6-0.4-1-1-1c-0.1,0-0.2,0-0.3,0.1c-18.3,6.4-32.5,18.4-42.4,35.8c-0.3,0.5-0.1,1.1,0.4,1.3C138.5,392.3,138.8,392.4,139,392.2
		z M389.7,634.1c-0.1-5.4-1.9-10.2-5.5-14.2c-0.8-0.9-1-2.2-0.4-3.2c10.6-20,20.1-39.8,25.6-60.3c0.3-1,0.2-2.1-0.3-3.1l-7.7-16.8
		c-0.1-0.3-0.5-0.4-0.7-0.3c-0.1,0-0.1,0.1-0.2,0.2c-5,6.1-10.4,11.3-16.2,15.7c-1.2,0.9-2.9,0.7-3.8-0.5c-0.1-0.2-0.3-0.4-0.3-0.6
		l-1.7-4.2c-0.6-1.5-1.3-2.9-2.2-4.3c-10.8-17.7-20.5-34-13.4-55.1c0.1-0.4-0.1-0.8-0.5-1c-0.1,0-0.3-0.1-0.4,0
		c-11.3,3.1-22.7,3.2-34.1,0.2c-3.8-1-7.4-1.6-10.8-3.8c-0.9-0.6-1.2-1.8-0.6-2.7c0,0,0,0,0-0.1c3.3-4.6,6.3-8.6,7.9-12.9
		c1-2.5,3.8-8.8,8.4-18.8c6.6-14.2,17.1-21.5,31.4-21.7c0.4,0,0.7-0.3,0.7-0.8c0-0.2-0.1-0.3-0.1-0.4c-8.6-11.6-12.2-24.9-10.7-39.8
		c0.1-1-0.4-2-1.4-2.5c-35.4-17.8-73.1-26.2-113.3-25.1c-2.7,0.1-6,0.5-9.8,1.4c-1.2,0.3-2.1,1-2.7,2.1c-6,11.6-9.4,23.5-16,43.1
		c-0.7,2.2-1.7,4-3,5.5c-5.8,6.9-9.1,10.8-9.7,11.6c-13.1,16.2-4.8,35.4,5.1,50.5c9.9,15.1,23.1,29.4,39.7,43.1
		c1.1,0.9,1.8,1.9,1.9,3c0.2,1-0.5,1.9-1.5,2.1c-0.3,0.1-0.7,0-1-0.1c-2.7-1.1-5.2-2.6-7.6-4.5c-6.4-5.2-12.2-10.3-17.3-15.3
		c-0.4-0.4-1-0.4-1.4,0c0,0.1-0.1,0.1-0.1,0.2c-16.2,25.9-39.3,34.6-68.7,38.1c-0.9,0.1-1.6,0.9-1.4,1.8c0,0.1,0.1,0.3,0.1,0.4
		c11.7,29.3,38.8,45.8,68.5,51.6c0.4,0.1,0.8-0.2,0.9-0.6c0-0.1,0-0.3-0.1-0.4c-8.2-18.4-12.9-38.6-14.1-60.7
		c-0.1-1.2,0.8-2.2,2-2.3c0,0,0.1,0,0.1,0h0.1c1.3,0,2.5,1,2.6,2.3c2.7,21.9,8.3,42.4,16.7,61.7c4,9.3,7,16,9,20.2
		c1.2,2.7,2.3,7.3,1.3,9.9c-1.9,5.1-4.6,12.7-1.3,16c0.4,0.4,1.1,0.4,1.5,0c0.1-0.1,0.2-0.2,0.2-0.3c2.1-4.8,5.4-7.6,9.9-8.3
		c1.1-0.2,2.2,0.6,2.3,1.7c0.1,0.7-0.2,1.5-0.8,1.9c-1.5,1.1-3.1,2.9-4.7,5.4c-0.8,1.2-0.5,2.7,0.7,3.5c0.3,0.2,0.6,0.3,1,0.4
		c21.7,3.7,34.2-11,37.8-30.8c2.5-13.7,1.2-25.2-0.9-40.6c-0.1-0.9,0.5-1.7,1.4-1.8c0.3,0,0.6,0,0.9,0.1l0.7,0.4
		c1.5,0.7,2.5,2.1,2.7,3.7l3,18.7c0.1,0.5,0.5,0.8,0.9,0.7c21-2.1,40.7-6.7,59.1-13.8c5.1-1.9,13-6.3,23.8-13.1
		c0.8-0.5,1.8-0.3,2.3,0.5c0.1,0.1,0.1,0.3,0.2,0.4l0,0.1c0.4,1.3,0,2.7-1.1,3.6c-9.8,8.4-21,14.4-33.5,18.1c-1.1,0.3-1.9,1.2-2,2.4
		c-1.1,7.8-1,15.4,0.4,23.1c3.8,21.3,21.2,30.5,41.5,27.7c1.8-0.2,3.1-1.9,2.8-3.7c0-0.1,0-0.2-0.1-0.3l-3-12.8
		c-0.2-0.9,0.4-1.8,1.3-2c0.3-0.1,0.6-0.1,0.9,0.1c3.3,1.2,5.2,6.3,7.1,10.3c0.1,0.3,0.4,0.4,0.7,0.2
		C389.6,634.5,389.7,634.3,389.7,634.1z M120.4,431.1c7.1-9,14.4-16,21.7-20.8c1.1-0.7,1.5-2.1,1.1-3.3l-0.9-2.5
		c-0.3-0.9-1.3-1.3-2.1-1c-0.2,0.1-0.4,0.2-0.6,0.3c-8.9,7.7-15.5,16.6-20.1,26.8c-0.1,0.2,0,0.5,0.2,0.6
		C120,431.3,120.3,431.3,120.4,431.1z M450.8,407.7c-1.2-0.1-2.2,1-2.1,2.3c0.1,0.9,0.6,1.7,1.4,2.2c0.4,0.2,1.1,0,1.9-0.7
		c0.2-0.2,0.3-0.5,0.2-0.8C451.5,408.7,451,407.7,450.8,407.7z M103.8,484.2c16.3,0.5,28.6,0.4,36.9-0.4c4.8-0.5,11.7-1.9,17-4.5
		c0.8-0.4,1.3-1.2,1.2-2.1c-0.2-14.2,4.8-25.7,15.2-34.5c0.4-0.3,0.5-0.9,0.1-1.3c-0.1-0.1-0.2-0.2-0.3-0.2
		c-11.4-5.7-20.1-14-26.3-24.9c-0.4-0.7-1.3-1-2-0.6c-0.1,0-0.1,0.1-0.2,0.1c-23.6,17.2-32.8,40-42.6,67.2c-0.2,0.5,0.1,1,0.5,1.2
		C103.6,484.1,103.7,484.2,103.8,484.2z M447.2,417.9c0,0.2,1.7,0.4,3.7,0.5c0,0,0,0,0,0c2.1,0,3.7-0.1,3.7-0.3l0,0
		c0-0.2-1.7-0.4-3.7-0.5c0,0,0,0,0,0C448.9,417.6,447.2,417.7,447.2,417.9L447.2,417.9z M467.1,423.7c3.7,2.1,6.7,4.9,10.1,7
		c0.1,0,0.2,0,0.2,0c0-0.1,0-0.2,0-0.2l0,0c-2.9-3.1-6.2-5.6-9.8-7.6c-3.6-2-7.5-3.5-11.6-4.4c-0.1,0-0.2,0-0.2,0.1
		c0,0.1,0,0.1,0.1,0.2C459.4,420.5,463.4,421.7,467.1,423.7z M510.3,524.7c-0.9-3.2-3.4-8.4-4.3-12.4c-4.3-18.6-8.9-48.8-20.5-71.3
		c-0.2-0.5-0.8-0.6-1.3-0.4c-0.2,0.1-0.3,0.2-0.4,0.3c-8.2,13-19.3,26.9-34.6,30.9c-0.6,0.1-0.9,0.7-0.7,1.3c0,0.1,0,0.1,0.1,0.2
		c3.3,7.5,5,15.7,4.9,24.7c0,1.7,0.7,3.3,1.9,4.6c13,13.2,35.2,25.6,54.3,23.3c0.5-0.1,0.9-0.5,0.8-1.1
		C510.3,524.8,510.3,524.7,510.3,524.7z M183.9,443.9c-10.4,5.9-17.3,15.7-18.1,27.8c-0.8,11.9,2.7,26.1,3.7,32.9
		c0.1,0.8,0.9,1.4,1.7,1.3c0.1,0,0.2,0,0.3-0.1c11.8-4.7,21.8-11.5,29.9-20.5c1-1.1,1.1-2.7,0.2-3.9c-7.9-10.8-14.7-23.6-16.7-36.9
		c-0.1-0.4-0.5-0.7-0.9-0.7C184.1,443.8,184,443.8,183.9,443.9z M122.3,535.7c35.2-4.2,68.4-5.3,89.3-39.4c0.4-0.7,0.4-1.6-0.1-2.2
		l-3.2-4.4c-0.4-0.6-1.2-0.7-1.7-0.3c-0.1,0-0.1,0.1-0.2,0.2c-9,9.8-19.5,17.1-31.6,22c-4.2,1.7-7.2,2.5-9,2.4
		c-0.9,0-1.6-0.7-1.8-1.6l-4.1-25.4c-0.1-0.7-0.8-1.1-1.4-1c-0.1,0-0.1,0-0.2,0.1l-8.7,3.1c-1.8,0.6-3.4,1.8-4.4,3.4
		c-8.4,12.7-16.4,26.8-23.7,42c-0.2,0.4,0,0.9,0.4,1C122,535.7,122.1,535.7,122.3,535.7z M136.9,490.9H112c-1.2,0-2.2,1-2.2,2.1l0,0
		v22.9c0,0.8,0.6,1.4,1.4,1.4c0.5,0,1-0.3,1.2-0.7c0.7-1.2,1.2-2.6,1.3-4.1c0.6-5.5,1.9-10.7,3.9-15.6c0.5-1.1,1.7-1.6,2.8-1.1
		c0.9,0.4,1.4,1.2,1.3,2.2L120,519c-0.1,0.5,0.3,0.9,0.7,0.9c0.3,0,0.7-0.1,0.8-0.4l15.9-27.6c0.2-0.3,0.1-0.8-0.2-1
		C137.2,490.9,137,490.8,136.9,490.9z M452.8,509.9l-4.7,24.4c-0.2,1-1,1.8-2,1.9c-2.4,0.4-4.7-1.1-6.9-2.3
		c-9-4.9-17.1-11-24.3-18.3c-0.4-0.4-1-0.4-1.4,0c-0.1,0.1-0.1,0.1-0.2,0.2l-5.7,10.8c-0.3,0.5-0.4,1-0.4,1.6c-0.1,2,0.3,4.3,1.2,7
		c6.1,19,21.4,34.7,37.5,45.1c0.4,0.3,1.1,0.2,1.4-0.3c0,0,0.1-0.1,0.1-0.1c10.4-23.1,12.5-46.5,6.3-70.1c-0.1-0.2-0.3-0.4-0.6-0.3
		C452.9,509.7,452.8,509.8,452.8,509.9z M135.8,540.6c-0.3,0.6,0.3,1.5,1.3,1.8c1,0.4,1.9,0.2,2.2-0.5c0.3-0.6-0.3-1.5-1.3-1.8
		C137,539.8,136,540,135.8,540.6z M198.2,624.9c4-8.9,0.9-21.9-4.8-30c-1.1-1.5-2.5-2.6-4.2-3.3c-18.4-7.5-32.7-19.5-43.1-36.2
		c-0.3-0.6-1.1-0.7-1.7-0.4c-0.2,0.1-0.3,0.3-0.4,0.5c-3.5,6.7-1.1,18.8,1.1,26.4c5.2,18,17.5,44.9,37.2,49.5c2.6,0.6,4.6,0.6,6.2,0
		c1.2-0.5,2-1.7,1.9-3c-0.3-5.1-1.9-9.5-4.9-13.1c-0.6-0.8-0.5-1.9,0.3-2.5c0.2-0.2,0.4-0.3,0.7-0.3l0.1,0c1.6-0.4,3.3,0.1,4.4,1.2
		c2.9,3.1,5.1,6.8,6.4,11.3c0.1,0.3,0.3,0.4,0.6,0.3C198,625.2,198.1,625,198.2,624.9z M317.9,612.4c-0.4-4.7-3-9.5-7.7-14.4
		c-0.4-0.4-1-0.6-1.6-0.6l-20.1,3.2c-0.4,0.1-0.6,0.3-0.7,0.7l-2.4,15.7c-0.1,0.5,0.1,1,0.6,1.3c6.8,4.4,18.5,8.7,26.1,4.6
		c0.5-0.3,0.8-0.8,0.7-1.4c-0.6-4.6-5.1-10.2-13.5-16.8c-0.7-0.5-0.8-1.4-0.3-2.1c0.2-0.2,0.5-0.4,0.8-0.5l0.1,0
		c1.5-0.4,3.2-0.2,4.5,0.6c5.3,3.1,9.4,6.5,12.3,10.2c0.2,0.3,0.6,0.3,0.9,0.1C317.9,612.8,317.9,612.6,317.9,612.4z"/>
	<path class="st0" d="M315.9,332c1.9-4,12.1-3.1,22.9,1.9c0,0,0,0,0,0c10.8,5.1,18,12.4,16.1,16.4c-1.9,4-12.1,3.1-22.9-1.9
		c0,0,0,0,0,0C321.2,343.3,314,336,315.9,332z M326.2,336.7c-0.3,0.7,3.6,3.1,8.7,5.5c0,0,0,0,0,0c5.1,2.4,9.5,3.8,9.8,3.1
		c0.3-0.7-3.6-3.1-8.7-5.5c0,0,0,0,0,0C330.9,337.4,326.5,336,326.2,336.7z"/>
	<path class="st0" d="M320,378.2c0.8-0.4,1.6-0.2,2.4,0.7c5,5.2,8.9,10.4,11.5,15.7c1.7,3.4,1,7.8,0.4,12.3
		c-1.1,8.1-3.5,15.1-7.4,20.9c-7.2,11.1-19.4,7.1-20.1-5.8c-0.8-14.1,2.7-26.5,10.7-37.2c0.6-0.8,0.9-1.9,0.7-2.9
		C318,380.2,318.5,379,320,378.2z M322.6,393.2c-1.9-0.9-4.3,0.2-5.4,2.4c-1.1,2.3-0.4,4.8,1.5,5.7c1.9,0.9,4.3-0.2,5.4-2.4
		C325.2,396.7,324.5,394.1,322.6,393.2z M328.3,397.7l-3.7,7c-0.1,0.2-0.2,0.5-0.2,0.8c0,4.9-0.6,9.3-2.1,13.3
		c-0.5,1.4-1.1,2.3-1.8,2.7c-1.5,0.8-3.3,0-4.1-1.9c-0.2-0.6-0.4-1.2-0.4-1.8c0-3.2,0.5-7.1,1.6-11.6c0.2-0.9-0.2-1.9-1.1-2.4
		l-0.1-0.1c-0.7-0.3-1.5-0.1-1.8,0.6c0,0.1-0.1,0.1-0.1,0.2c-2.1,7-3.6,16.8,0.4,23.3c0.7,1.1,2.1,1.4,3.2,0.8
		c0.1,0,0.1-0.1,0.2-0.1c8.5-6.3,10.9-20.2,11.2-30.5c0-0.4-0.3-0.7-0.6-0.7C328.6,397.3,328.4,397.5,328.3,397.7z"/>
	<path class="st0" d="M235.5,396.9c0.2,0.2,0.6,0.3,0.8,0.1c0.2-0.2,0.3-0.5,0.1-0.7l-4.2-8.3c-0.2-0.5,0-1.1,0.4-1.3
		c0.3-0.2,0.7-0.1,1,0.1c3.4,2.5,6.1,6.7,8,12.5c0.2,0.7,0.2,1.4-0.2,2.1c-1.2,2.2-1.6,4.1-1.2,5.8c0.3,1.3-0.5,2.6-1.8,2.9
		c-0.7,0.2-1.5,0-2.1-0.5c-1.4-1.1-3.5-3.6-6.3-7.4c-1.7-2.3-4.6-3.4-7.4-2.8c-1.6,0.3-2.7,0.5-3.3,0.5c-1.1,0-2-0.9-2-2
		c0-0.6,0.2-1.1,0.7-1.5C224.3,390.6,230.2,390.7,235.5,396.9z"/>
	
		<ellipse transform="matrix(0.9385 -0.3453 0.3453 0.9385 -119.4531 160.5298)" class="st0" cx="390.9" cy="415.6" rx="4.4" ry="10.8"/>
	
		<ellipse transform="matrix(0.4524 -0.8918 0.8918 0.4524 -143.7227 604.7957)" class="st0" cx="420.6" cy="419.4" rx="10.6" ry="4.4"/>
	<path class="st0" d="M217.7,421c-0.2-2.9,1.5-4.7,5.2-5.5c16-3.5,37.7,5.8,51.1,13.8c1.3,0.8,2.1,2.2,2.2,3.7l0,0.3
		c0,0.8-0.6,1.5-1.3,1.5c-0.2,0-0.4,0-0.6-0.1l-19.8-7.9c-0.4-0.2-0.9-0.1-1.2,0.2l-11.4,11.5c-1.4,1.4-3.6,1.7-5.3,0.6
		c-4.1-2.5-7.7-11.5-10-16.6c-0.2-0.6-0.9-0.8-1.4-0.7c-2.3,0.7-4.4,0.9-6.2,0.5C218.2,422.2,217.7,421.6,217.7,421z"/>
	
		<ellipse transform="matrix(0.8545 -0.5195 0.5195 0.8545 -176.7075 263.1374)" class="st0" cx="381.3" cy="447" rx="10.6" ry="4.4"/>
	
		<ellipse transform="matrix(0.3404 -0.9403 0.9403 0.3404 -133.606 705.1984)" class="st0" cx="435.8" cy="447.8" rx="4.5" ry="10.6"/>
	
		<ellipse transform="matrix(0.4524 -0.8918 0.8918 0.4524 -196.7543 614.5956)" class="st0" cx="402.1" cy="467.5" rx="10.7" ry="4.4"/>
	
		<ellipse transform="matrix(0.9397 -0.342 0.342 0.9397 -135.8241 174.2263)" class="st0" cx="426.1" cy="472.3" rx="4.5" ry="10.7"/>
	<path class="st0" d="M254.2,485.7c10.3,1.6,24.7,4.8,31.6-4.9c0.9-1.3,2.8-1.7,4.1-0.7l0.2,0.1c1.3,0.9,1.7,2.7,0.8,4.1
		c-2.9,4.5-6.3,7.2-10.3,8.1c-8.3,1.9-17.4,1.7-27.3-0.6c-1.6-0.4-2.7-1.9-2.5-3.5l0,0c0.2-1.6,1.6-2.7,3.2-2.5
		C254.1,485.7,254.1,485.7,254.2,485.7z"/>
</g>
</svg>
