<?xml version="1.0" encoding="utf-8"?>
<!-- Generator: Adobe Illustrator 26.0.1, SVG Export Plug-In . SVG Version: 6.00 Build 0)  -->
<svg version="1.1" id="Layer_1" xmlns="http://www.w3.org/2000/svg" xmlns:xlink="http://www.w3.org/1999/xlink" x="0px" y="0px"
	 viewBox="0 0 612 792" style="enable-background:new 0 0 612 792;" xml:space="preserve">
<style type="text/css">
	.st0{fill:#010101;}
</style>
<g>
	<path class="st0" d="M406.3,436.9c-0.3-0.2-0.7-0.1-0.9,0.1c-0.1,0.1-0.1,0.3-0.1,0.4c0.7,8.2,1.1,14.4-0.2,21.4
		c-0.8,4.3-2.6,10.8-5.2,19.4c-3.2,10.4-11.5,21.9-17.4,30c-1.2,1.7-1.7,3.8-1.2,5.9c1.4,6.1,3,12.9,4.7,20.4
		c3.4,15,3.5,26.3,4.9,42.7c1.3,15-2,25.5-6,44.5c-1.6,7.7-4.9,16.5-10,26.4c-4.3,8.4-10.7,14.7-19.2,18.7c-9.6,4.6-16.6,2.1-24-4.3
		c-0.6-0.5-1.4-0.8-2.2-0.8H316c-0.7,0-1.4,0.3-1.9,0.8c-8,8.7-18.8,11.5-29.2,5.5c-3.1-1.8-6.9-4.3-11.3-7.5
		c-1.7-1.2-3.6-2-5.7-2.3c-11-1.5-17-2.4-18.1-2.6c-13.6-2.8-25.2-9.4-34.9-19.8c-1.5-1.6-3.6-2.5-5.8-2.5c-8-0.1-17.3,0.1-24.3-1.7
		c-10.8-2.8-20.1-8.5-28-17.2c-15.2-16.9-15.5-41.3-5.7-61.3c5.1-10.3,11.8-21,20.2-32.1c5.6-7.4,2.6-21.5-9.6-15.5
		c-3.3,1.6-8.9,4.7-16.9,9.1c-4.8,2.7-7.8,4.1-9.2,4.2c-8.8,1.1-14-5.7-13.6-14.3c0.6-10.7,13.5-21.7,22.6-24.4
		c0.5-0.2,0.8-0.6,0.8-1.1v0c0-0.5-0.4-0.8-0.9-0.8c0,0-0.1,0-0.1,0c-13,2.9-21.8,1.6-26.5-3.9c-9.2-10.8,1.2-22.3,11.6-25.9
		c23.8-8.4,45.1-2.7,60.9,16c14.5,17.2,18.1,36.5,10.8,57.8c-4.9,14.2-17.6,31-22.3,42.7c-2.4,6-2.9,12.2-1.5,18.7
		c0.9,4.4,3.8,8.1,7.8,10l5.8,2.8c1.7,0.8,3.7,0.1,4.6-1.6c0.4-0.8,0.5-1.8,0.2-2.6c-1.9-5.4-2.1-12.5-0.7-21.2
		c1.1-6.8,2.9-14.1,5.5-21.7c5.2-15.5,10.4-31.6,16.3-45.3c0.4-1,0.2-2.2-0.6-3c-6.6-6.5-11.2-14.6-13.7-24.3
		c-3.5-13.1-4.9-25.9-4.4-38.5c0-0.5-0.4-0.9-0.9-1c-0.1,0-0.3,0-0.4,0.1c-7.3,3.5-13.1,6-21.4,3c-8.3-3-11.9-9.5-10.6-19.4
		c0.2-1.1-0.6-2.2-1.8-2.3c0,0-0.1,0-0.1,0c-6.9-0.6-16.6-2-21.8-3.4c-8.2-2.2-13.4-8-15.5-17.2c-2.3-9.7,7.7-19.5,15.9-23.8
		c10-5.2,20.9-8.3,32.8-9.4c8-0.7,12.4-1.1,13.1-1.3c0.6-0.1,1-0.6,0.8-1.2c0-0.2-0.1-0.4-0.3-0.6c-2.7-2.6-6.1-6.2-10.2-11
		c-5.6-6.5-11-15.3-16.4-22.7c-17.4-23.6-26.2-54.7-30.7-83.4c-1.9-12.2-3-20.9-3.4-26.3c-1.7-23.3,2.9-43.8,9.5-67.1
		c2.6-9.2,10.1-18.2,15.9-24.7c0.5-0.5,1-1,1.5-1.4c4.7-3.5,10.2-4.8,16.5-4c9.5,1.3,15.8,10,18.3,18.8c1.2,4.4,0.8,12,6.1,16.5
		c11.5,9.8,21.2,18.1,29.2,24.9c12.2,10.5,20.1,25.1,29.1,40.7c6.7,11.7,11.3,19.4,14.7,31.5c3.6,12.6,6.1,24.2,7.4,34.7
		c1.7,13.3,1.2,31.3,3.2,44.7c0.1,0.8,0.9,1.4,1.8,1.3c0,0,0,0,0.1,0c12.7-2.6,28.2-0.6,40.8,1c0.6,0.1,1.1-0.3,1.2-0.9
		c0,0,0,0,0-0.1c1-14,1.7-21.8,2.1-23.4c2.3-11.1,5.4-22.9,9.4-35.7c2.1-6.7,4.3-12.3,6.7-16.8c3.7-6.9,6.4-14.6,10.8-21.6
		c5.1-8.1,12.8-18.6,23.2-31.4c6.2-7.7,11-11.1,20.8-18.9c13.1-10.5,27.4-18.9,42.8-25.2c1.7-0.7,3.6-2,5.8-4
		c0.8-0.7,1.4-1.6,1.7-2.7c3.1-9.4,12.2-26.9,24-25.6c14.3,1.6,23.4,20.5,25.2,32.6c4.4,29.1,3.5,59.1-2.7,90
		c-2.4,11.9-4.6,20.6-6.8,26.1c-12.8,32.6-34.1,59.3-59.4,86c-0.3,0.4-0.3,0.9,0,1.2c0.1,0.1,0.3,0.2,0.5,0.2
		c15.7,2.6,31.1,4.8,42.9,15c5.5,4.7,8.5,9.6,9.2,14.5c2.4,17.1-21,20.8-32.7,23.3c-0.8,0.2-1.3,0.9-1.2,1.7
		c0.6,5.5,1.4,11-0.7,15.1C436.7,448.9,416.5,443.9,406.3,436.9z M136.7,199.7c0.3-0.2,1-1,2.2-2.4c5.1-5.9,12.4-7.8,20.5-6.1
		c33.1,6.8,57.9,38,71.8,66.8c3.3,6.8,5.7,13.2,7.1,19.2c2.7,11.5,5.7,20.8,7.6,31.3c2.7,15.4,3.5,31.1,2.4,47.1
		c-0.1,1.8-1.1,3.5-2.7,4.5c-5.3,3.4-10.1,6.6-14.5,9.7c-2.4,1.7-5,2.5-7.8,2.5c-7.8,0.1-18.9-1.5-26.7-1.1
		c-11.5,0.5-24.3,2.5-38.4,6c-9.4,2.3-18.5,5.3-22.6,13.7c-4.5,9.1,1.8,15.6,10.2,17.5c16.6,3.6,31.6,0.7,47.7-4.4
		c0.6-0.2,1.2-0.2,1.6,0.1c0.6,0.4,0.8,1.2,0.3,1.9c-0.1,0.2-0.4,0.4-0.6,0.5c-8.9,4.6-20.8,10.2-22.4,20.3c-0.4,2.3,1.2,4.5,3.5,5
		c8,1.4,17.1-2,23.6-7c2.6-2,4.7-5.1,6.5-9.4c0.3-0.8,1.2-1.1,1.9-0.8c0.6,0.2,1,0.9,0.9,1.5c-0.3,3.5-0.8,8.5-1.4,14.9
		c-0.7,7.6-0.5,16.9,0.9,27.9c1.9,15.7,8,30.4,18.7,40.6c29,27.6,82.3,34,119,21.2c29.4-10.2,42.6-32.3,49.1-60.8
		c3.4-14.8-0.1-29-0.8-44.1c0-0.5,0.3-0.9,0.8-0.9c0.3,0,0.6,0.1,0.7,0.3c7.9,10,15.5,18,28.3,19.7c4.4,0.6,7.6-0.4,9.6-3
		c4-5.2-3.5-13.6-7-17.2c-4.5-4.5-14.7-7.5-19.4-11.4c-0.3-0.3-0.4-0.8-0.1-1.1c0.2-0.2,0.4-0.3,0.7-0.3c1.5,0,2.3,0.1,2.5,0.2
		c6.8,2.8,11.2,4.4,13.2,5c13.6,3.9,34.3,3.8,45-7.4c0.5-0.5,0.7-1.2,0.5-1.9c-1.8-6.8-5.2-11.3-10.2-13.4
		c-16.4-7-34.9-11.9-52.8-10.4c-9,0.7-16.5,1.3-22.3,1.7c-3.7,0.3-6.9-0.7-9.7-3c-6.8-5.5-13.2-10.4-19-14.6
		c-0.7-0.5-1.1-1.3-1.1-2.1c-0.4-10.1-0.4-18.7-0.3-25.9c0.4-14,3.9-28.8,10.6-44.3c6.7-15.4,16.4-31.9,28.6-44.6
		c8.1-8.5,22.7-18.4,31.9-24.2c9.7-6,20.8-9.8,33.1-11.2c15-1.8,22.3,3.7,27.4,17c0.1,0.3,0.4,0.4,0.7,0.3c0.2-0.1,0.3-0.2,0.4-0.4
		c1.2-5.8,1.8-11.6,1.9-17.2c0.3-20.1,0.2-40.5-7.8-58.7c-7.1-16.3-21.3-7.3-24.4,5.1c-0.7,2.6-1.7,8.6-3.2,18
		c-0.1,0.7-0.7,1.1-1.3,1c-0.1,0-0.2-0.1-0.3-0.1l-2.4-1.1c-0.5-0.3-1.2-0.3-1.8-0.1c-36.1,12.9-64,35-83.6,66.5
		c-19.8,31.8-33.7,72-30.9,109.3c0.1,0.9-0.6,1.7-1.5,1.8c-0.2,0-0.3,0-0.5,0c-9.1-2-14.7-3.2-16.9-3.6c-13.8-2.4-25.9-0.4-43.3,2.1
		c-0.8,0.1-1.5-0.4-1.7-1.2c0-0.1,0-0.2,0-0.3c0.9-25.6-1.2-50.1-6.3-73.6c-5.8-26.5-19.3-50.5-36.6-71.7
		c-10.5-12.8-25.3-24.9-39.2-37.2c-5.2-4.6-6.3-10.1-7.1-17.6c-0.4-4-2.1-9.2-4.6-11.5c-6.5-5.9-15.6-2.3-19.7,4.4
		c-11.4,18.6-18.1,39.3-19.9,62.1c0,0.5,0.3,0.9,0.8,0.9C136.4,199.8,136.6,199.8,136.7,199.7z M245,351.9
		c0.5-20.2-0.6-33.9-5.3-53.8C237,287,234.1,270,227,256.9c-6.3-11.6-13.1-22-20.5-31.2c-10.1-12.6-22.6-21.3-37.2-27.3
		c-5.3-2.2-9.3-3.4-11.9-3.7c-16.9-2.1-23.8,19.2-21.7,32.3c1.5,9.2,2.8,16.8,3.7,22.7c5.5,36.9,21.5,70,46.7,97.8
		c11,12.2,21.4,23.9,39.6,20.9c0.4-0.1,0.8-0.2,1.1-0.5l15.9-11.4C244.1,355.4,245,353.7,245,351.9z M358.4,352.9
		c0.1,1.9,1,3.6,2.5,4.7c9.1,6.9,17.6,14.8,22.5,14.2c7.3-0.8,11.9-1.2,14.1-1.3c6.7-0.2,9.7-1.6,14.9-6.6
		c9.4-8.9,16.5-16.1,21.4-21.4c16.9-18.5,29.8-38.5,38.6-60.2c6.9-16.9,11.1-29.9,10.4-46.8c-0.4-9.5-3.5-25.6-14.9-26.6
		c-8.6-0.7-17,0.6-25.3,4c-29.5,12.4-56.4,34.1-70.2,64.2c-7,15.1-12.2,27.3-13.5,42.1C357.9,329.8,357.8,341.1,358.4,352.9z
		 M210.4,621.3l-6.4-14.1c-0.4-1-1.4-1.6-2.4-1.8c-12.7-1.9-24.9-2.9-30.9-15.7c-4.3-9.1-2-23.1,1.9-32.5c3.3-8.1,9.6-14.4,13.7-21
		c13.4-21.8,15.1-48.9-3-68.6c-12.7-13.8-33.4-17.4-50.8-11.3c-4.2,1.4-14.2,8-7.7,13.1c2.2,1.7,4.9,2.4,8.1,2
		c15.7-1.9,28.2-4.6,41.6,5c1.4,1,2,2.2,1.9,3.6c-0.1,1.3-0.8,2-2.2,2c-5.9,0.3-10.4,0.6-13.3,1c-12.3,1.4-29.9,8.6-31.8,22.6
		c-0.4,2.8,1.2,5.5,3.6,5.8c0.1,0,0.3,0,0.4,0c0.9,0,2.2-0.4,4-1.4c5-2.8,10.8-6.3,17.6-10.5c6.5-4.1,13.4-4.9,20.6-2.4
		c9.9,3.5,8.4,17.6,4.1,24.8c-1.8,2.9-7.7,12.1-17.6,27.4c-14,21.7-13.4,49,8.9,64.2c11.5,7.9,24.6,11,39.1,9.4
		c0.6-0.1,1.1-0.6,1-1.3C210.5,621.6,210.5,621.4,210.4,621.3z M269.8,649.7c0.3,0,0.6-0.2,0.6-0.5c0-0.1,0-0.2-0.1-0.3
		c-7.4-15.5-13.8-29.8-15.8-45.7c-0.1-0.6,0.3-1.1,0.9-1.2c0,0,0.1,0,0.1,0h0.9c0.7,0,1.2,0.5,1.3,1.1c2.1,11.9,5.9,23.6,11.4,35.2
		c5.1,10.8,12,20.9,24.4,22.5c6.4,0.8,11-1.7,14-7.4c2.5-4.8,3.8-8,4-9.4c1.4-10.3,3.3-23,5.6-38.2c0.1-0.6,0.4-1.1,0.8-1.6
		c0.5-0.5,1.3-0.6,1.9-0.1c0.3,0.2,0.4,0.6,0.4,0.9c0.6,14.2-3,28.7-5.8,43.6c-0.1,0.5,0.2,1,0.8,1.2c0.1,0,0.1,0,0.2,0h13.1
		c0.6,0,1-0.5,1-1c0-0.1,0-0.1,0-0.2c-2.8-14.8-3.7-29.4-2.6-43.9c0-0.7,0.6-1.2,1.3-1.2h0.8c0.7,0,1.2,0.5,1.2,1.2
		c-0.2,16.9-0.6,27,2.5,39.3c2.5,9.9,8.6,18.8,19.7,14.5c5.3-2.1,10.7-10.3,13.2-15.1c13-24.3,18.5-50.2,16.4-77.9
		c-1.4-18.4-4.6-35.4-9.7-52c-0.3-1.1-1.5-1.8-2.7-1.4c-0.2,0.1-0.5,0.2-0.7,0.4c-25.7,19.6-62.9,20.9-93.7,15.1
		c-8.8-1.7-19-5.3-30.4-10.9c-6.6-3.2-12-6.9-16.1-11.1c-0.7-0.7-1.8-0.7-2.4,0c-0.2,0.2-0.3,0.4-0.4,0.6
		c-1.8,4.4-5.2,13.6-10.3,27.6c-5,13.9-8.1,23.3-9.1,27.9c-6,28,0.2,60.4,25.4,76.7C242.9,645.1,255.5,649,269.8,649.7z"/>
	<path class="st0" d="M277,430.4c4.1-8.5,14.3-12,22.9-7.8c8.6,4.1,12.3,14.3,8.2,22.8l0,0c-4.1,8.5-14.3,12-22.9,7.8
		C276.6,449.1,272.9,438.9,277,430.4C277,430.4,277,430.4,277,430.4z M278.9,437.8c-0.2,7.3,5.8,13.3,13.3,13.5c0,0,0,0,0,0
		c7.5,0.2,13.8-5.5,14-12.8l0,0c0.2-7.3-5.8-13.3-13.3-13.5c0,0,0,0,0,0C285.4,424.8,279.1,430.6,278.9,437.8z"/>
	<path class="st0" d="M262.7,462.2c3.6,10.4,9.6,46.7-10.7,45.3c-7.1-0.5-13.2-3.3-18.1-8.4c-6.1-6.4-10.7-13.8-13.6-22.3
		c-2.9-8.5-3.9-17.2-3-26c0.8-7.1,3.8-13,9.1-17.8C241.7,419.4,259.1,451.8,262.7,462.2z M258.6,498.3c-8.4-3-13.9-7.2-17.4-14.7
		c-6.8-14.4-7.4-28.7,2.3-41.7c0.8-1.1,0.7-2.7-0.4-3.6c-6.5-5.5-12-5.8-16.5-0.8c-3.6,4-4.5,10.2-4.7,16
		c-0.6,18.6,6.1,48,29.6,49.7c2.7,0.2,5.2-0.3,7.3-1.6c0.8-0.5,1.1-1.5,0.6-2.3C259.3,498.8,259,498.5,258.6,498.3z M246.9,444.9
		c-1.8,1.2-3,2.6-3.8,4.2c-6,13.2-3.5,29.7,6.8,40.5c2.8,3,6.4,4.4,10.5,4.2c0.7,0,1.3-0.5,1.5-1.2c3-12.5,0.2-20.4-4.9-33.3
		c-2.2-5.5-4.8-10.2-7.8-14C248.6,444.5,247.6,444.4,246.9,444.9z"/>
	<path class="st0" d="M346.6,444.6c14.2-9.5,34.1-5.9,36.1,13.8c2.7,26.3-11,50.5-37.7,55.3c-13.8,2.5-20.2-7.6-20.7-19.8
		C323.6,474.7,330.6,455.3,346.6,444.6z M367.6,443.9c-8.6-1.3-17.3,9.6-19.6,24.4c-2.3,14.8,2.8,27.8,11.4,29.1
		c8.6,1.3,17.3-9.6,19.6-24.4C381.3,458.2,376.2,445.2,367.6,443.9z M351.1,446.9c-17.4,7.9-24.7,32.8-22.6,49.6
		c0.7,5.7,2.9,12.3,9.4,12.9c7.9,0.8,15.6-1.5,23-6.9c0.4-0.3,0.5-0.8,0.2-1.2c-0.1-0.2-0.3-0.3-0.5-0.3c-4.6-1-8.3-2.3-11.2-5.7
		c-10.6-12.9-5.2-34.8,2.4-47.6c0.1-0.2,0.1-0.6-0.2-0.7C351.5,446.8,351.3,446.8,351.1,446.9z"/>
	<path class="st0" d="M287.3,498.1l6.9,0.2c1.4,0,2.6,1.2,2.5,2.7l0,0.5c0,1.4-1.2,2.6-2.7,2.5l-6.9-0.2c-1.4,0-2.6-1.2-2.5-2.7
		l0-0.5C284.7,499.2,285.9,498.1,287.3,498.1z"/>
	<path class="st0" d="M304,505.6c0.7,0,1.2,0.6,1.2,1.2c0,0,0,0.1,0,0.1c-0.9,5.7-4,9.3-9.1,10.7c-9.1,2.5-16.6-4.7-19.5-12.8
		c0-0.1,0-0.3,0.1-0.5c0-0.2,0.2-0.3,0.3-0.4c0.8-0.4,1.5-0.2,2,0.6c8,11,15.5,13.8,24.3,1.5c0.1-0.1,0.2-0.2,0.3-0.3
		C303.8,505.6,304,505.6,304,505.6z"/>
</g>
</svg>
