<?xml version="1.0" encoding="utf-8"?>
<!-- Generator: Adobe Illustrator 24.1.1, SVG Export Plug-In . SVG Version: 6.00 Build 0)  -->
<svg version="1.1" id="Capa_1" xmlns="http://www.w3.org/2000/svg" xmlns:xlink="http://www.w3.org/1999/xlink" x="0px" y="0px"
	 viewBox="0 0 850.39 850.39" style="enable-background:new 0 0 850.39 850.39;" xml:space="preserve">
<style type="text/css">
	.st0{fill:#333333;}
	.st1{fill:#808080;}
	.st2{fill:#999999;}
	.st3{fill:#4D4D4D;}
</style>
<g>
	<path class="st0" d="M381.18,808.21c2.29,0,4.48,0,6.66,0c4.33,0,8.67,0.02,13-0.02c0.96-0.01,1.48,0.2,1.92,1.18
		c2.24,4.99,6.15,7.77,11.65,7.85c5.64,0.08,9.69-2.66,12.04-7.75c0.47-1.01,0.96-1.3,2-1.29c6.1,0.05,12.2,0.02,18.3,0.02
		c0.47,0,0.94,0.05,1.41,0.08c-1.23,14.69-14.11,29.36-32.45,29.91C397.21,838.75,382.84,824.61,381.18,808.21z"/>
	<path class="st0" d="M414.68,812.33c-4.28-0.01-7.85-3.55-7.9-7.84c-0.05-4.31,3.61-7.99,7.93-7.97c4.36,0.02,7.96,3.67,7.89,8
		C422.54,808.83,418.97,812.34,414.68,812.33z"/>
	<path class="st0" d="M448.33,800.73c0,0.74,0,1.26,0,1.89c-0.41,0.04-0.82,0.11-1.23,0.11c-6.05,0.01-12.09-0.02-18.14,0.02
		c-1,0.01-1.5-0.22-1.78-1.28c-1.69-6.28-6.5-10.04-12.66-10c-6.07,0.04-10.79,3.84-12.47,10.05c-0.1,0.36-0.21,0.71-0.34,1.14
		c-6.84,0-13.67,0-20.62,0c0-0.6,0-1.15,0-1.93c0.63,0,1.2,0,1.78,0c5.24,0,10.49-0.01,15.73,0.01c0.78,0,1.35,0,1.68-1
		c2.38-7.13,8.43-10.97,16.02-10.24c6.31,0.6,10.37,4.15,12.56,9.93c0.4,1.06,0.89,1.34,1.94,1.33c5.14-0.05,10.27-0.02,15.41-0.03
		C446.89,800.73,447.57,800.73,448.33,800.73z"/>
	<path class="st0" d="M416.92,770.84c13.01,0.36,26.88,10.3,30.43,25.13c-0.79,0-1.55,0-2.32,0c-4.33-13.72-13.59-21.58-28-23.55
		C417.01,771.97,416.97,771.47,416.92,770.84z"/>
	<path class="st0" d="M382.06,795.94c2.66-13.12,16.23-24.54,29.83-25.17c0.71,1.47,0.59,1.66-0.91,1.89
		c-13.04,1.99-21.79,9.2-26.09,21.65C384.33,795.91,383.65,796.35,382.06,795.94z"/>
</g>
<path class="st1" d="M478.92,220.63l0.03,0.02c0.08-0.1,0.12-0.18,0.14-0.24C479.04,220.48,478.98,220.56,478.92,220.63z"/>
<path class="st1" d="M400.96,204.42c9.13,0,16.55-9.21,16.55-20.53s-7.43-20.53-16.55-20.53s-16.55,9.21-16.55,20.53
	S391.84,204.42,400.96,204.42z M399.31,175.79c4.04,0,7.31,4.01,7.31,8.97s-3.27,8.97-7.31,8.97s-7.31-4.01-7.31-8.97
	S395.27,175.79,399.31,175.79z"/>
<g>
	<path class="st1" d="M388.62,233.77l0.17,0.01c1.01,0.07,1.55-0.1,1.81-0.27l-6.72-14.46c-0.29,3.78-1.71,6.65-3.43,6.65
		c-1.93,0-3.49-3.61-3.49-8.07c0-3.77,1.12-6.92,2.63-7.81l-14.52-31.24c-6.02,11.94-6.94,27.6-2.26,40.61
		C366.88,230.58,380.73,233.21,388.62,233.77z"/>
	<path class="st1" d="M458.96,211.44c3.52-3.33,9.9-20.25,7.94-35.82l-28.35,29.47c0.58,1.44,0.94,3.38,0.94,5.51
		c0,4.46-1.56,8.07-3.49,8.07c-1.82,0-3.31-3.22-3.47-7.33l-10.63,11.05c-1.37,3.15-2.31,6.56-2.12,7.63
		C424.05,229.3,454.98,215.19,458.96,211.44z"/>
</g>
<g>
	<path class="st1" d="M490.35,202.86c-3.28,6.63-7.1,12.44-11.23,17.52c-0.09,0.86,0.67,4.46,1.13,6.63
		c0.27,1.26,0.49,2.3,0.65,3.16c2.61-1.57,5.03-2.84,6.48-3.57v-3.95l3.88-11.2C490.56,209.3,490.32,206.28,490.35,202.86z"/>
	<path class="st1" d="M363.16,243.2c-2.11-1.68-3.93-3.38-5.47-5.04c-3.22-3.45-5.53-6.91-7.19-9.98c-0.11,1.64-0.21,3.06-0.3,4.2
		c2.47,5.11,8.35,16.34,17.26,27.37C364.57,252.26,363.43,245.13,363.16,243.2z"/>
	<path class="st1" d="M366.05,245.33c0.87,4.67,3.04,14.01,7.54,21.43c4.76,4.98,10.16,9.61,16.17,13.27
		c-4.06-8.29-9.56-24.38-10.81-28.08C373.86,250.07,369.6,247.77,366.05,245.33z"/>
	<path class="st1" d="M468.88,242.29c0-3.47,4.83-7.5,9.73-10.69c-0.16-1.03-0.51-2.67-0.81-4.07c-0.41-1.94-0.71-3.4-0.9-4.52
		c-5.81,6.63-12.11,11.91-18.25,16.09c1.1,3.8,5.18,19.09,3.77,31.82c3.17-2.64,6.3-5.72,9.25-9.3c-3.15-7.31-2.96-13.23-2.84-17.29
		C468.86,243.6,468.88,242.92,468.88,242.29z"/>
	<path class="st1" d="M414.71,287.89c-7.73-10.93-9.07-26.69-9.3-31.14c-9.2-0.29-16.96-1.7-23.47-3.77
		c2.99,8.7,9.1,25.56,12.01,29.39C400.28,285.58,407.22,287.64,414.71,287.89z"/>
	<path class="st1" d="M426.31,286.87l0.16-0.02c0.11-0.01,4.94-0.43,11.89-2.69c0.72-7.17-3.23-27.12-4.36-32.59
		c-11.84,4.23-20.5,5.14-20.96,5.19c-1.41,0.05-2.78,0.07-4.13,0.07c-0.33,0-0.65-0.01-0.98-0.01c0.28,4.65,1.81,20.99,9.92,31.09
		C420.6,287.81,423.42,287.48,426.31,286.87z"/>
	<path class="st1" d="M459.57,273.18c2.17-11.79-1.73-27.62-3.1-32.62c-4.01,2.59-7.93,4.72-11.55,6.46
		c-2.95,1.41-5.82,2.63-8.54,3.67c0.99,4.77,4.86,23.97,4.54,32.59C446.46,281.23,453.04,278.07,459.57,273.18z"/>
</g>
<g>
	<path class="st2" d="M284.31,272.94c0,0,55.49-5.94,84.55,50.2c0,0-52.18-44.26-62.75-1.98c0,0-5.61,17.5,6.94,35.01l-18.17-11.89
		c0,0-8.92,27.08,71.01,107.01c0,0-66.39-15.19-101.39-91.49c0,0,28.07,29.06,25.76,14.86c-2.31-14.2-12.55-20.15-12.55-20.15
		l0.99,9.58c0,0-29.06-30.06-20.15-92.81c0,0,6.61,59.45,25.43,54.5c0,0,10.9-2.64,3.63-19.49c-7.27-16.84,9.58-11.23,9.58-11.23
		S320.97,292.76,284.31,272.94z"/>
	<path class="st2" d="M640.79,406.37l36.99-36.55l-2.64,7.93l44.92-38.75l-7.49,13.58l40.95-26.35c0,0-38.31,48.44-60.77,56.37
		l20.7,0.44C713.45,383.03,684.82,405.49,640.79,406.37z"/>
	<path class="st2" d="M657.08,247.84l11.89-26.86v11.01c0,0,14.09-20.26,24.66-23.34c0,0-33.03,46.68-38.75,81.03l7.05-40.51
		L657.08,247.84z"/>
	<path class="st2" d="M683.61,239.91c0,0,26.09-48.22,45.91-38.31c0,0,6.61,2.64,4.62,24.11c0,0,35.67-31.71,22.46-53.17
		s-40.29,8.92-40.29,8.92s17.17-47.23,59.45-39.3c42.28,7.93-25.1,122.53-25.1,122.53s-8.26-16.18-16.84,3.63
		c-8.59,19.82,3.96,15.85,8.26,12.22c0,0-16.84,48.55-70.35,81.91c0,0,33.69-32.7,32.7-80.26c0,0,6.61,2.97,6.94,10.57
		c0,0,16.84-55.75-2.31-59.45C689.89,229.61,683.61,239.91,683.61,239.91z"/>
	<path class="st2" d="M183.98,220.91l3-3.45l-6.92,27.61c-11.85-21-9.24-40.74-9.24-40.74l5.97,9.63
		c-9.36-28.66,22.59-53.3,22.59-53.3S168.16,193.83,183.98,220.91z"/>
</g>
<path class="st1" d="M320.3,659.71c0.01,0,0.01,0,0.02,0c0,0,0.01,0,0.01,0L320.3,659.71z"/>
<g>
	<path class="st1" d="M703.32,79.53c0,0,3.82,46.38-33.93,82.96c0,0,16.05-38.27,14.46-56.7c0,0,6.25,3.31,5.07,12.68
		C688.92,118.47,694.36,111.08,703.32,79.53z"/>
	<path class="st1" d="M771.36,384.44c-5.03,1.74-1.61,3.07-2.29,4.94c-0.68,1.87-11,9.38-15.08,11.22
		c-4.07,1.84-11.16,3.05-12.92,2.87c-1.76-0.18-0.51-1.35-2.62-2.86c-2.11-1.51-19.41,9.31-22.64,12.38
		c-3.23,3.06,21.83-4.53,21.83-4.53c2.72,1.9-14.62,9.97-19.91,11.04c-5.29,1.07-7.75,2.92-18.68,6.96
		c-10.94,4.04-16.66,6.2-16.66,6.2c-2.16,3.66,44.41-10.12,47.57-10.92c3.16-0.81,4.28-0.69,7.64-0.34c3.36,0.35,12.87-4,11.76-4.24
		c-1.11-0.23-1.26-3.41-1.26-3.41c10.39-3.45,34.22-22.66,35.76-23.47c1.54-0.81,1.63-3.23-1.25-1.95
		c-2.88,1.28,5.06-6.72,7.37-10.2c2.3-3.48,0.99-3.3,0.99-3.3s1.99-5.13,7.34-11.53c5.36-6.4,2.16-5.28,2.16-5.28
		C798.58,362.18,776.39,382.69,771.36,384.44z"/>
	<path class="st1" d="M750.02,285.99c14.66-12.85,26.48-42.35,26.96-41.99c0.48,0.36-0.82,4.69-0.82,4.69
		c0.75-0.03-0.72,3.9-1.98,6.75c-1.27,2.85-1.31,4.21,1.45,3.63c2.77-0.58,9.59-20.32,9.59-20.32s4.41-13.49,4.82-17.35
		c0.41-3.86,0.96-4.52,1.3-6.64c0.34-2.12,0.93-4.86,1.46-6.96c0.53-2.1,1.34-1.55,1.34-1.55c4.31-17.33,3.77-24.84,4.75-30.95
		c0.98-6.11,0.83-0.43,0.83-0.43c-1.29,31.58-7.1,52-7.1,52s-2.55,7.9-1.41,8.64c1.15,0.74-1.69,4.77-2.81,9.01
		c-1.12,4.23-0.24,1.83,0.78,2.03s-1.92,5.62-0.05,3.68c1.87-1.94,10.55-27.87,11.76-29.47c1.21-1.6,0.17,1.61,0.17,1.61
		c-6.25,30.39-16.48,43.61-17.2,45.69c-0.72,2.08-7.95,11.55-8.45,10.96c-0.5-0.59,3.82-10.14,5.26-12.59
		c1.44-2.45,1.04-2.61,1.04-2.61s-6.17,8.19-7.35,10.63c-1.19,2.44-1.78,2.14-1.47,0.4c0.32-1.75,2.37-6.71,3.24-10.32
		c0.87-3.62-1.77-0.06-1.77-0.06s-5.9,13.04-6.67,14.07c-0.77,1.03-0.88-1.76,0.13-4.71c1.01-2.96-1.11-4.53-3.17-1.4
		c-2.05,3.14-12.53,13.93-13.88,14.87C749.44,288.24,750.02,285.99,750.02,285.99z"/>
	<path class="st1" d="M257.47,354.14c-13.96-11.18-24.21-35.81-24.7-35.54c-0.5,0.27,0.57,3.86,0.57,3.86
		c-0.75-0.06,0.51,3.22,1.62,5.6c1.12,2.38,1.09,3.5-1.64,2.89c-2.73-0.61-8.5-17.03-8.5-17.03s-3.69-11.21-3.89-14.38
		c-0.2-3.17-0.72-3.73-0.95-5.48c-0.23-1.75-0.67-4.01-1.09-5.75c-0.42-1.74-1.26-1.33-1.26-1.33c-3.39-14.34-2.45-20.44-3.11-25.46
		c-0.66-5.03-0.81-0.39-0.81-0.39c-0.38,25.82,4.34,42.75,4.34,42.75s2.13,6.56,0.95,7.11c-1.19,0.55,1.44,3.97,2.33,7.48
		c0.9,3.51,0.15,1.51-0.89,1.62c-1.04,0.11,1.62,4.68-0.15,3c-1.76-1.67-9.06-23.24-10.19-24.6c-1.13-1.37-0.26,1.31-0.26,1.31
		c4.64,25.08,14.15,36.35,14.76,38.08c0.61,1.73,7.33,9.8,7.86,9.34c0.53-0.46-3.28-8.45-4.59-10.52c-1.3-2.07-0.9-2.18-0.9-2.18
		s5.73,6.98,6.78,9.03c1.06,2.05,1.67,1.83,1.44,0.39c-0.22-1.44-2.01-5.58-2.69-8.57c-0.68-2.99,1.77,0.04,1.77,0.04
		s5.21,10.92,5.92,11.8c0.71,0.88,0.97-1.39,0.12-3.85c-0.85-2.46,1.35-3.64,3.24-0.99c1.89,2.66,11.78,11.97,13.07,12.8
		C257.93,356.01,257.47,354.14,257.47,354.14z"/>
</g>
<path class="st3" d="M723.74,578.19l-1.32-5.87l-28.48,0.97l-1.28,6.22c3.52,1.61,8.65,2.78,15.99,2.62
	C715.46,582,720.32,580.27,723.74,578.19z"/>
<path class="st0" d="M708.65,584c-0.45,0.01-0.89,0.01-1.32,0.01c-6.86,0-11.88-1.09-15.51-2.62l-0.84,3.94
	c4.34,1.22,8.91,1.89,13.64,1.89c7.31,0,14.26-1.58,20.53-4.39l-0.63-2.69C720.81,582.21,715.66,583.86,708.65,584z"/>
<g>
	<g>
		<path class="st1" d="M751.14,529.69l-0.29-1.21l-12.79,21.78c0.39,0.55,0.65,1.53,0.65,2.67c0,1.73-0.6,3.13-1.34,3.13
			c-0.63,0-1.16-1.03-1.3-2.42l-3.65,6.22l0.88,0c7.14-0.03,12.35-2.15,15.51-6.29C754.1,546.6,752.54,535.62,751.14,529.69z"/>
		<path class="st1" d="M667.13,552.1c3.98,8.42,14.26,10.18,22.17,10.18c3.61,0,6.73-0.37,8.53-0.64l0.9-0.13l-5.98-6.94
			c0.01,0.16,0.02,0.32,0.02,0.48c0,1.73-0.6,3.13-1.34,3.13c-0.74,0-1.34-1.4-1.34-3.13c0-1.19,0.29-2.21,0.7-2.74l-25.37-29.44
			l-0.25,0.91C663.93,528.4,661.62,540.43,667.13,552.1z"/>
	</g>
	<g>
		<path class="st1" d="M685.43,573.36h7.43l-2.59,11.12C690.28,584.47,685.82,577.59,685.43,573.36z"/>
		<path class="st1" d="M730.84,572.07h-7.43l2.59,11.12C725.99,583.19,730.45,576.31,730.84,572.07z"/>
	</g>
</g>
<path class="st3" d="M200,433.1l-8.22,18.12l-10.6-14.62l-1.95,11.52l-9.28-11.18l-26.48,4.83l-0.26,9.79l-8.1-7.46l-1.66,14.1
	l-12.01-11.58l-4.01,1.51c0.24,3.31,1.94,17.69,13.37,28.3l4.21-12.31l5.24,15.57l4-12.8l8.12,16.19c2.74,0.2,15.04,0.87,19.74-3.16
	l5.6-16.42l6.97,9.61l3.33-15.77l8.03,10.72c3.14-3.78,14.41-18.83,11.26-36.17L200,433.1z"/>
<g>
	<path class="st1" d="M134.47,423.58c0.07,0.35,0.11,0.73,0.11,1.14c0,1.49-0.52,2.7-1.16,2.7s-1.16-1.21-1.16-2.7
		c0-0.64,0.1-1.21,0.26-1.67c-3.84-1.02-8.61-2.12-13.23-3.06c-4.13,6.47-2.67,14.31-2.04,16.81c11.64-1.86,21.88-9.16,22.88-11.17
		C139.43,425.13,137.33,424.4,134.47,423.58z"/>
	<path class="st1" d="M202.63,395.6c-13.81,0.98-23.55,8.52-29.84,15.8c0.46,0.57,0.85,1.6,1,2.83c0.24,1.91-0.17,3.53-0.92,3.63
		c-0.75,0.1-1.56-1.37-1.8-3.28c-0.04-0.35-0.06-0.68-0.06-1.01c-3.59,4.58-5.79,8.77-6.75,10.8c7.78,0.19,29.85-3.62,32.15-4.02
		C204.52,415.11,203.12,399.5,202.63,395.6z"/>
</g>
<g>
	<path class="st1" d="M115.4,544.11c0,0,20.55,51.65,80.66,71.22c0,0-37.65-32.65-45.72-53.2c0,0-4.97,6.79,1.28,16.2
		C151.63,578.33,141.83,573.24,115.4,544.11z"/>
	<path class="st1" d="M264.4,626.5c-2.37-0.6-6.87-3.13-6.56-3.03c0.31,0.1,1.4-0.25,0.34-1.21c-1.06-0.96-14.83-10.73-16.05-11.8
		c-1.22-1.07-1.72-1.6-1.71-3.14c0.01-1.54,2.83,1.47,3.84,1.88c1.01,0.41,3.33,1.24,4.49,1.65c1.16,0.41,1.64-0.04,2.31-0.05
		c0.67-0.02,2.39,0.82,3.88-0.09c1.49-0.91-4.91-2.96-6.72-3.13c-1.81-0.18-10.19-7.55-11.16-9.06c-0.96-1.51-1.14-2.61-1.67-3.47
		c-0.53-0.86-2.66-3.1-4.47-4.72c-1.55-1.38,1.81,3.85,1.81,3.85c-2.39-2.41-1.49-0.79-1.49-0.79s2.01,2.37,1.68,2.87
		c-0.33,0.5-6.45-7.53-7.28-9.59c-0.83-2.06-3.44-4.91-3.44-4.91c-2.81-2.51-8.04-17.47-9.32-20.84c-1.28-3.37-1.22-0.3-1.22-0.3
		l-8.36-24.26c-3.23-10.67-0.23,5.6,0.13,7.13c0.36,1.53,1.27,4.03,1.55,4.68c0.28,0.65,0.59,5.58,1.06,7.43
		c0.47,1.85,0.95,2.17,1.47,2.16c0.52-0.01,1.33,1.39,1.63,3.03c0.3,1.64,8.53,21.19,9.55,22.48c1.02,1.29,1.08,3.59,0.42,2.95
		c-0.66-0.64-8.64-14.27-7.95-12.43c0.69,1.85,7.37,15.07,7.64,16.38c0.27,1.31,4.53,8.56,5.01,8.88c0.48,0.32,1.03,0.63,1.87,1.6
		c0.84,0.97,0.89-0.13,1.13-0.68c0.25-0.55,3.94,3.75,4.82,4.38c0.88,0.64,4.37,3.63,5.14,4.27c0.77,0.64,2.62,1.25,3.01,3
		c0.38,1.75-4.38-1.21-6.8-3.13c-2.42-1.92,5.03,5.04,6.89,6.64c1.87,1.6,20.14,11.59,21.99,12.2
		C263.71,627.94,266.78,627.1,264.4,626.5z"/>
	<path class="st1" d="M556.51,616.76l12.49-13.8l-0.89,2.99l15.17-14.63l-2.53,5.13l13.83-9.95c0,0-12.94,18.29-20.53,21.28
		l6.99,0.17C581.05,607.95,571.39,616.43,556.51,616.76z"/>
	<path class="st1" d="M581.01,489.88c0,0-19.86-3.85-30.26,32.52c0,0,18.67-28.67,22.46-1.28c0,0,2.01,11.34-2.48,22.68l6.5-7.7
		c0,0,3.19,17.55-25.41,69.33c0,0,23.76-9.84,36.29-59.27c0,0-10.05,18.83-9.22,9.63c0.83-9.2,4.49-13.05,4.49-13.05l-0.35,6.21
		c0,0,10.4-19.47,7.21-60.13c0,0-2.36,38.52-9.1,35.31c0,0-3.9-1.71-1.3-12.62c2.6-10.91-3.43-7.28-3.43-7.28
		S567.89,502.71,581.01,489.88z"/>
</g>
<g>
	<path class="st1" d="M364.92,592.4c3.94,0.54,7.39-1.37,8.88-2.37l-3.88-7.8c-0.2,2.98-1.3,5.26-2.63,5.26
		c-1.47,0-2.66-2.8-2.66-6.25c0-2.78,0.78-5.14,1.85-5.95l-10.39-20.9c-2.35,5.85-7.32,21.07-0.36,31.35
		C358.39,589.69,361.48,591.93,364.92,592.4z"/>
	<path class="st1" d="M442.35,600.23c19.54-8.51,16.29-35.09,14.98-42.43l-33.05,24.62c0.63,1.14,1.03,2.92,1.03,4.93
		c0,3.45-1.19,6.25-2.66,6.25c-1.47,0-2.66-2.8-2.66-6.25c0-0.63,0.04-1.24,0.11-1.81L406.06,596
		C422.68,605.02,441,600.58,442.35,600.23z"/>
</g>
<g>
	<path class="st1" d="M356.58,609.15c0,6.62,0.42,19.12,2.39,23.14c3.37,4.78,7.25,8.52,11.19,11.45c-2.2-8.47-3.13-24.92-3.36-29.8
		C362.83,612.36,359.41,610.7,356.58,609.15z"/>
	<path class="st1" d="M379.95,618.16c-3.85-0.95-7.38-2.06-10.6-3.24c0.47,8.88,1.85,26.57,4.25,31.18
		c5.15,3.23,10.19,5.18,14.13,6.35c-1.04-6.09-2.48-22.36-3.38-33.31C382.83,618.84,381.36,618.51,379.95,618.16z"/>
	<path class="st1" d="M354.08,607.72c-2.18-1.29-3.91-2.45-5.15-3.34c0.95,8.31,3.09,15.24,5.95,21.02
		C354.07,618.62,354.06,610.35,354.08,607.72z"/>
	<path class="st1" d="M454.43,626.85c6.95-8.66,10.61-17.16,12.17-21.43c-4.38,2.22-8.66,4.14-12.84,5.82
		C454.16,614.15,454.97,621.21,454.43,626.85z"/>
	<path class="st1" d="M441.61,615.55c0.68,3.97,1.97,15.48-3.43,26.16c5.27-3.48,9.56-7.34,13.01-11.08l-0.03-0.01
		c1.7-4.7,0.72-14.35,0.2-18.42C448.04,613.46,444.79,614.58,441.61,615.55z"/>
	<path class="st1" d="M386.91,619.62c1.03,12.34,2.7,30.37,3.46,33.54c2.84,0.69,4.74,0.91,5.09,0.95
		c5.34-0.08,10.28-0.59,14.88-1.43l2.41-31.76C402.97,621.57,394.3,620.9,386.91,619.62z"/>
	<path class="st1" d="M439.19,616.27c-8.53,2.43-16.52,3.83-23.91,4.47l-2.38,31.45c8-1.71,14.85-4.44,20.69-7.69
		C441.11,633.92,439.89,620.73,439.19,616.27z"/>
</g>
<g>
	<path class="st0" d="M704.62,486.4c-27.8,0-50.41,22.62-50.41,50.41c0,22.54,14.87,41.67,35.31,48.1c-0.47-0.8-2.24-3.94-3.51-7.25
		c-1.91-1.89-2.7-3.77-2.83-4.96l-0.12-1.07l50.85-1.68l-0.62,1.44c-0.08,0.18-0.84,1.88-2.71,3.97c-0.9,2.41-2.25,4.86-3.13,6.37
		c16.35-8.34,27.58-25.34,27.58-44.92C755.03,509.02,732.42,486.4,704.62,486.4z M700.3,562.73c-0.21,0.05-5.14,1.12-11.25,1.12
		c-8.22,0-18.94-1.93-23.28-11.11c-7.31-15.45-1.59-30.98-1.34-31.63l0.45-1.18l36.65,42.53L700.3,562.73z M730.92,561.51l-1.4-0.08
		l21.81-37.13l0.6,1.77c0.25,0.74,6.02,18.28-1.75,28.51C746.33,559.65,739.84,561.97,730.92,561.51z"/>
	<g>
		<g>
			<path class="st0" d="M227.09,228.48c-4.13-2.8-10.71-7.06-16.83-10.11l-7.28,17.64c0,0,10.24,11.89,18.17,14.86
				c7.93,2.97,21.14-4.62,21.14-4.62C229.65,243.53,227.42,233.39,227.09,228.48z"/>
			<path class="st0" d="M229.83,226.71l10.8,3.68c-4.07-5.19-11.31-15.17-11.31-20.47c0-4.91,2.93-7.86,5.31-9.24
				c-3.73-7.78-6.22-17.17-7.32-24.05h-9.85c-2.93,2.85-8.54,4.22-8.54,4.22s-1.65,7.93-5.95,15.52
				c-3.12,5.52,2.47,13.82,5.76,17.95C216.37,217.72,225.2,223.52,229.83,226.71z"/>
			<path class="st0" d="M334.09,118.77c-0.22-0.66,0-12.55,0-12.55l-18.72,13.43l2.2-20.04l-12.99,17.39c0,0-4.84,13.21-4.4,9.69
				c0.44-3.52-1.32-10.57-1.32-10.57c-20.7-23.12,3.52-41.61,3.52-41.61l18.83-56.15c-47.56,39.96-53.97,77.61-53.97,77.61
				c13.74,20.15-0.2,32.7-0.2,32.7c1.65-7.6-7.6-18-7.6-18l-3.63,8.42c-12.22-19.82-15.52-69.36-15.52-69.36
				c-16.18,28.4-13.54,96.11-13.54,96.11c-5.94,0.66-14.86-21.36-14.86-21.36c-4.4,17.17,7.05,47.12,7.05,47.12
				c0.25,0.72,0.3,1.39,0.21,2.02h7.76c-0.21-1.85-0.28-3.41-0.22-4.53c0.48-8.37,19.41-17.25,21.57-18.23l0.96-0.44l12.41,12.64
				l-1.21,1.19l-11.86-10.22c-7.53,3.59-18.6,10.48-18.87,15.23c-0.42,7.35,5.02,29.91,13.35,38.96c0.52-7.71,3.47-25.78,11.54-31.6
				l0.91,1.26c-8.76,6.31-9.61,33.34-9.62,33.61l-0.08,2.87l-2.31-1.7c-2.83-2.08-5.33-5.4-7.47-9.31
				c-1.43,0.85-3.68,2.79-3.68,6.56c0,2.71,2.84,7.64,6.02,12.27l6.57-1.37c23.11,16.72,50.7-0.99,54.93-3.9
				c-3.29-6.88-7.19-11.66-7.55-11.91l0.81-1.16c0.16,0.11,14.78,10.6,12.53,31.32c0.04,0.94,0.04,1.51,0.04,1.51
				c15.91-14.71,18.45-34.15,18.66-43.59c-0.87-2.8-2.28-4.99-4.29-6.52c-6.36-4.85-16.96-3.49-17.06-3.46l-0.38-1.26
				c0.47-0.14,11.69-3.44,19.26,2.33c1.06,0.81,1.97,1.76,2.77,2.82l13.41-13.41l-9.91-8.92l18.17-14.2c0,0,0,0.09,0.01,0.21
				c1.27-16.8,2.86-33.4,4.03-44.97C345.15,109.73,334.27,119.31,334.09,118.77z"/>
			<path class="st0" d="M471.88,242.29c0,0.66-0.02,1.37-0.05,2.13c-0.17,5.28-0.41,13,6.45,22.89c0.39-4.68,1.73-11.27,6.1-12.18
				l3.75-0.78c-0.74-10.58-0.8-20.04-0.78-24.36C480.32,233.69,471.88,239.31,471.88,242.29z"/>
			<path class="st0" d="M597.83,206.76c0.08,1.65,0.83,2.24,1.38,2.55c2.49,1.38,7.86,0.33,14.02-1.8
				c8.73-6.07,28.46-25.99,28.46-25.99c-15.58-0.2-36.8,8.43-41.06,10.24C599.04,195.13,597.51,200.16,597.83,206.76z"/>
			<path class="st0" d="M350.79,223c1.53,3.67,4.23,8.66,8.82,13.56c11.6,12.37,30.03,18.48,53.26,17.69
				c0.48-0.05,56.4-6.24,77.86-58.31c1.03-11.32,3.77-23.64,3.95-24.44l0.88-3.89l9.8,18.01l4.06-10.9l4.04,6.06l28.22-33.76
				l-6.27,32.1c9.94-0.3,16.67-3.07,20.03-8.25c3.94-6.08,4.79-15.45,4.92-20.66c-2.05,0.77-3.22,1.15-3.22,1.15l35.23-55.27
				l-67.6,40.95c20.7-31.49,36.33-108.55,36.33-108.55c-44.04,16.29-107.67,79.71-107.67,79.71c3.96-5.72,3.52-25.1,3.52-25.1
				l-26.64,27.74c2.64-15.19-2.42-38.31-2.42-38.31l-18.06,37.87l-3.3-28.62l-7.05,17.17l-6.39-49.32
				c-10.35,8.37-12.55,50.64-12.55,50.64l-15.19-51.74c0,0-8.31,43.85-11.62,53.59c-1.71,16.71-4.74,48.33-6.01,73.77
				c0.55,6.94,1.28,13.82,2.22,18.51C351.43,201.84,351.24,213.89,350.79,223z M419.79,220.98l0.15-0.16l48.58-50.5l0.45,2.39
				c3.23,17.3-4.18,36.66-8.3,40.55c-3.58,3.38-36.43,19.27-41.36,19.27c-0.14,0-0.25-0.01-0.34-0.04
				c-0.61-0.17-1.11-0.59-1.39-1.19c-1.14-2.39,1.34-8.35,2.12-10.12L419.79,220.98z M400.96,161.36
				c10.23,0,18.55,10.11,18.55,22.53s-8.32,22.53-18.55,22.53c-10.23,0-18.55-10.11-18.55-22.53S390.73,161.36,400.96,161.36z
				 M364.05,175.17l1.2-2.08l28.03,60.28l-0.05,0.36c-0.01,0.11-0.38,2.56-4,2.56c-0.2,0-0.41-0.01-0.63-0.02l-0.16-0.01
				c-14.67-1.03-24.62-6.79-28.01-16.23C355.23,205.56,356.65,187.95,364.05,175.17z"/>
			<path class="st0" d="M624.07,286.55l20.15-10.57h-28.33l4.46-3.19h-3.91l6.99-4.57l-19.67,0.84h-3.3l6.46,7.65l-12.58,4.55
				c-1.19,1.74-5.82,7.31-19.29,12.47l-0.48-1.27c14.62-5.6,17.42-13.08,17.45-13.14l0.27-0.5l0.54-0.21l8.4-3.04l-6.51-7.94
				l11.06-1.58c19.75-4.09,23.56-15.51,23.56-15.51l-16.84-2.31c0,0,6.61-0.66,11.56-15.85c4.95-15.19,40.62-36,40.62-36
				c-9.8-2.86-19.92-0.68-28.43,2.86l0.44,0.77c-1.44,0.81-8.16,4.54-15.81,7.78c-3.54,2.48-5.63,4.32-5.63,4.32l-1.64-1.55
				c-4.11,1.37-8.1,2.31-11.32,2.31c-1.79,0-3.34-0.29-4.54-0.95c-1.26-0.7-2.79-2.13-2.93-5.03c-0.51-10.67,3.32-17.58,5.45-20.56
				c2.92-13.62,19.16-11.1,19.16-11.1c39.3-42.28,17.83-113.28,17.83-113.28c-1.07,51.97-53.12,78.44-72.76,86.59
				c-0.67,7.05-2.43,17.54-6.57,23.93c-4.15,6.41-12.35,9.66-24.38,9.66h-1.82l4.74-24.24l-23.31,27.89l-3.01-4.51l-4.31,11.56
				l-9.09-16.7c-1.63,8.2-4.92,26.83-2.75,34.14c4.29-4.35,11.52-11.2,15.93-12.78c1.41-0.5,2.8-0.35,4.02,0.43
				c4.36,2.82,5.34,13.72,5.44,14.95l-1.03,0.08c-0.33-4.09-3.68-10.99-6.03-12.52c-0.43-0.28-0.84-0.32-1.38-0.13
				c-4.68,1.67-14.39,11.49-18.01,15.42l-2.57,7.42v5.31l-0.01,0.01c-0.05,4.44-0.11,24.48,2.46,41.89
				c1.73-11.24,5.27-28.76,11-33.41c7.54-6.12,10.79-11.86,10.83-11.92l1.27,0.7c-0.14,0.25-2.18,7.03-10.2,13.54
				c-3.92,3.18-6.99,15.22-8.96,25.96c2.32,3.48,17.24,25.08,29.55,25.08l0.19,0.01l18.61,2.43l1.94-15.66l1.63,0.2l-1.55,23.53
				c12.03-8.26,36.01-26.15,37.59-34.19c2.23-11.37,2.06-21.34-0.4-24.24c-0.51-0.6-1.09-0.86-1.82-0.84
				c-6.41,0.21-15.21,4.64-15.3,4.68l-0.32-0.64c0.38-0.19,8.45-6.82,15.53-7.05c1.66-0.07,3.1,0.6,4.2,1.89
				c4.88,5.74,1.74,23.3,1.06,26.76c-2.26,11.51-37.58,35.28-41.6,37.95l-2.72,1.81l1.39-11.25l-18.54-2.42
				c-12.02-0.09-25.15-16.77-30.19-23.85c-0.69,4.24-1.19,8.03-1.47,10.62l-0.96,8.88l-2-8.71c-1.6-7-2.61-15.14-3.23-22.91
				l-3.37,0.7c-2.77,0.58-3.95,8.39-3.87,13.48l0.07,4.3l-2.73-3.32c-2.42-2.96-4.25-5.77-5.62-8.43
				c-18.97,22.28-44.37,25.07-46.1,25.23c-3.49,0.73-6.97,1.1-10.43,1.1c-17.24,0-33.96-9.05-48.87-26.6
				c-7.72-9.08-13.43-18.66-16.91-25.21c14.44,72.63,97.82,70.39,97.82,70.39s28.4,13.21,57.8,25.43s11.89,64.73,11.89,64.73
				l7.27-0.99l-13.21,15.02c-45.58,40.45-70.52,27.59-70.52,27.59l12.72-4.29c-32.04-4.29-48.88-32.04-48.88-32.04
				s-13.54-19.49,24.77-18.83c38.31,0.66,49.87,48.22,49.87,48.22l13.87-9.58c-1.98-27.08-31.71-56.26-31.71-56.26l0.33,13.32
				c-19.49-21.14-73.32-37.65-73.32-37.65l14.53,22.13c-21.8-6.28-31.05,19.16-31.05,19.16c-7.6-2.31-16.84-34.68-16.84-34.68
				c-10.57,51.85,19.16,85.21,19.16,85.21c-0.99-7.27,4.95-7.27,4.95-7.27c16.84,38.64,57.79,37.65,57.79,37.65
				c-1.66,6.61-15.84,10.9-15.84,10.9c79.6,4.29,114.61-32.37,114.61-32.37c0.99,7.27-11.56,35.67-11.56,35.67
				c42.94-30.72,71.34-72.99,71.34-72.99s15.52-27.08,23.45-28.4c7.93-1.32,3.63,24.77,3.63,24.77s17.17-35.67,11.23-42.28
				s-3.96-15.52-3.96-15.52c-12.88,1.32-14.2-24.77-14.2-24.77l14.86,0.66l-10.9-15.19c9.91,0.66,39.3,16.84,39.3,16.84
				C653.8,310.99,624.07,286.55,624.07,286.55z M556.73,229.07c-0.21-8.66-3.44-21.58-6.05-23.26c-0.13-0.08-0.21-0.11-0.43-0.02
				c-6.08,2.6-23.2,13.62-24.9,15.98c-0.07,0.4-0.25,1.08-0.61,2.51c-5.53,21.82-6.76,36.98-3.67,45.15
				c4.58-4.56,19.89-17.68,22.14-23.93l1.03,0.37c-2.95,8.16-21.81,26.44-22.61,27.21l-1.42,1.37l-0.94-1.74
				c-6.73-12.48,0.26-40.1,2.56-49.17c0.28-1.09,0.54-2.13,0.57-2.36c0.08-0.73,0.23-2.12,11.32-9.31
				c5.14-3.33,11.87-7.36,15.34-8.85c1.1-0.47,2.25-0.38,3.23,0.25c4.89,3.14,5.59,22,5.68,25.75L556.73,229.07z"/>
			<path class="st0" d="M399.31,192.53c3.5,0,6.34-3.48,6.34-7.77c0-4.29-2.84-7.77-6.34-7.77c-3.5,0-6.34,3.48-6.34,7.77
				C392.97,189.05,395.81,192.53,399.31,192.53z"/>
		</g>
		<path class="st0" d="M753.18,577.74c15.19-8.26,12.06-25.6,12.06-25.6l3.14,2.48c3.8-12.22-3.96-28.07-0.83-28.4
			c3.14-0.33,1.82-2.48,1.65-19.82c-0.17-17.34-7.93-17.67-7.93-17.67s-2.81-0.99-4.95,2.97s-5.28-0.99-7.6-8.26
			c-2.31-7.27,3.47-5.94,3.47-5.94c-12.06-21.96-25.93-15.69-25.93-15.69c7.76,8.59,0.33,20.31-12.39,12.88
			c-12.72-7.43-22.13-5.78-22.13-5.78c0.99,7.93-3.8,8.59-3.8,8.59c-11.72,12.22-20.81,8.42-26.75,6.44
			c-5.94-1.98,0-19.16,7.6-19.32c7.6-0.17,3.3-6.11,3.3-6.11c-4.95-9.08-30.55,17.34-33.19,20.81s0.99,16.51-2.15,17.67
			c-3.14,1.16-4.29-0.99-7.27,8.42s3.63,11.39,10.73,12.22c7.1,0.83,3.14,7.43,3.14,7.43c-5.45-0.33-5.45,3.96-5.45,3.96
			c2.48,8.75-2.64,6.44-3.14,6.11c-0.5-0.33-0.83-6.94-7.43-2.27c-6.61,4.66,2.64,19.78,2.64,19.78
			c4.13,15.52,17.5,10.4,23.94,16.35s1.16,9.74-2.97,5.94c-4.13-3.8-8.26-2.48-8.26-2.48c12.72,22.46,42.61,29.39,42.61,29.39
			s-1.82-4.79,5.45-4.46c7.27,0.33,4.62,4.79,4.62,4.79c22.29,9.58,39.3-10.73,40.46-11.72c1.16-0.99,6.77-14.04,13.05-17.83
			C755.17,568.82,753.18,577.74,753.18,577.74z M704.62,589.73c-29.18,0-52.91-23.74-52.91-52.91c0-29.18,23.74-52.91,52.91-52.91
			s52.91,23.74,52.91,52.91C757.53,565.99,733.8,589.73,704.62,589.73z"/>
		<g>
			<path class="st0" d="M782.21,554.36c0,0-1.33-3.36-3.77,1.15c-2.44,4.52-1.85,7-0.25,6.26c1.6-0.74,4.69,4.43,4.4-2.79
				C782.41,554.69,782.21,554.36,782.21,554.36z"/>
			<path class="st0" d="M707.79,453.98c3.69,0.51,1.71,1.49,6.82,2.15c5.11,0.67,2.14-1.54-0.26-2.81c-2.4-1.28-2.2-2.21-3.91-1.97
				c-1.71,0.24-1.61-0.18-4.08-1.75s-4.89,2.1-4.89,2.1C699.34,454.87,704.1,453.48,707.79,453.98z"/>
			<path class="st0" d="M773.6,574.44c-0.41,8.42-7.68,26.09-13.38,18.33c0,0,2.06-6.61-1.98-4.62s-10.16,8.75-6.19,10.49
				c3.96,1.73,5.35-1.49,3.71,3.72s0.59,10.65,5.87,5.04s20.72-24.61,15.77-37.24C777.4,570.14,774.01,566.02,773.6,574.44z"/>
			<path class="st0" d="M690,453.48c3.8,0.78,5.47-0.2,4.59-1.19s2.18-4.36-2.98-2.57c-3.07,1.07-3.27,1.29-3.27,1.29
				S686.19,452.71,690,453.48z"/>
			<path class="st0" d="M794.37,506.48c-1.98-21.27-12.36-32.86-12.87-34.41c-0.51-1.55-7.82-9.82-8.58-9.6
				c-0.75,0.22,2.86,7.64,4.21,9.64c1.34,2,0.81,1.98,0.81,1.98s-6.22-7.13-7.25-9.05c-1.03-1.92-1.84-1.92-1.78-0.71
				c0.06,1.21,1.69,5,2.09,7.57s-2.25-0.51-2.25-0.51s-4.93-10.13-5.71-11.03c-0.78-0.89-1.46,0.84-0.76,3.04
				c0.7,2.19-2.3,2.54-4.29-0.1c-1.99-2.63-13.17-12.76-14.7-13.78c-1.52-1.02-1.23,0.59-1.23,0.59
				c16.09,12.73,25.3,35.17,25.98,35.09c0.68-0.08-0.12-3.24-0.12-3.24c0.95,0.25-0.14-2.7-1.19-4.91
				c-1.05-2.21-0.84-3.09,2.56-1.85c3.4,1.23,8.19,15.9,8.19,15.9s2.95,9.95,2.71,12.53c-0.24,2.58,0.34,3.17,0.35,4.63
				s0.22,3.38,0.49,4.88c0.26,1.5,1.4,1.4,1.4,1.4c2.08,12.37-0.09,16.97-0.04,21.16c0.05,4.19,0.97,0.53,0.97,0.53
				c4.56-20.49,1.19-35.28,1.19-35.28s-1.69-5.82-0.09-5.93c1.6-0.12-1.21-3.56-1.8-6.6c-0.59-3.04,0.05-1.24,1.39-1.05
				s-1.33-4.17,0.66-2.35s7.92,21.01,9.14,22.4C795.06,508.86,794.37,506.48,794.37,506.48z"/>
			<path class="st0" d="M631.22,570.11c-0.55,0.13,0.45,3.07,0.45,3.07c-0.81-0.16,0.41,2.56,1.52,4.57c1.1,2.01,1.03,2.87-1.9,1.98
				c-2.92-0.89-8.45-14.44-8.45-14.44s-3.51-9.22-3.59-11.7c-0.08-2.48-0.62-2.99-0.8-4.38c-0.17-1.38-0.55-3.2-0.93-4.61
				c-0.38-1.41-1.3-1.22-1.3-1.22c-3.05-11.59-1.78-16.15-2.28-20.14c-0.5-3.98-0.86-0.43-0.86-0.43
				c-1.5,19.88,2.88,33.67,2.88,33.67s2.02,5.39,0.72,5.64c-1.3,0.24,1.38,3.29,2.2,6.13c0.82,2.84,0.1,1.18-1.03,1.11
				s1.55,3.86-0.28,2.29c-1.83-1.56-8.79-19.32-9.95-20.55c-1.16-1.23-0.33,0.97-0.33,0.97c3.95,20.07,13.73,30.23,14.31,31.65
				c0.59,1.43,7.49,8.68,8.08,8.41c0.59-0.27-3.18-7.03-4.5-8.82c-1.32-1.79-0.88-1.82-0.88-1.82s5.88,6.26,6.93,8
				s1.72,1.67,1.54,0.52c-0.18-1.15-1.93-4.62-2.54-7.03c-0.61-2.41,1.9,0.3,1.9,0.3s5.15,9.23,5.89,10.01
				c0.73,0.79,1.1-0.93,0.29-2.95c-0.81-2.03,1.61-2.61,3.53-0.27c1.92,2.34,12.2,11.03,13.56,11.87s0.94-0.67,0.94-0.67
				C641.78,590.56,631.77,569.98,631.22,570.11z"/>
		</g>
		<g>
			<path class="st0" d="M257.77,497.32c0,0-15.69,20.15-15.85,34.18c-0.17,14.04,6.28,17.12,6.28,17.12s2.64-13.33,5.45-14.98
				c2.81-1.65,6.94-4.29,8.75-1.16c1.82,3.14,0.99,16.13,0.99,16.13s-0.31,10.62-10.64,16.56c0,0,8.83,5.45,13.45,2.31
				c4.62-3.14,10.73-13.1,10.73-13.1v4.11c0,0,5.72,0.63,8.04-3.33s2.75-6.06,2.75-6.06s1.76-0.99,4.4-4.4
				c2.64-3.41,3.52-8.92,3.85-12.77c0.33-3.85,0.22-11.89,0.33-13.87c0.11-1.98-2.86-20.92-7.71-30.83
				c-4.84-9.91-9.03-23.67-9.03-23.67l-3.96,29.17c0,0-1.76-9.69-1.98-11.12c-0.22-1.43-6.94,18.5-12.11,22.02
				C256.34,507.17,257.77,497.32,257.77,497.32z"/>
			<path class="st0" d="M219.57,436.16c0,0,1.76-6.17-0.22-11.23c0,0,25.67-32.06,28.84-54.39c0,0-51.74,4.62-69.14,25.32
				c0,0-32.15-0.22-45.8,13.65c0,0-39.63-11.01-50.64-8.59c0,0,12.55,31.27,26.2,44.92l-17.39,20.04c0,0,21.36,12.33,24.66,12.11
				l2.42,5.06l-4.62,17.39l14.31-5.28c0,0,20.04,14.09,27.96,34.57l1.98-5.94c0,0,14.75,25.54,14.75,36.99l3.74-19.82
				c0,0,7.27-33.25,12.11-34.79v7.05l16.07-22.46l26.42,0.44l-11.67-22.9l25.1-15.85L219.57,436.16z M161.83,424.89
				c0.12-0.3,12.25-29.9,41.61-31.34l0.89-0.04l0.15,0.88c0.14,0.86,3.4,21.21-7.17,27.77l-0.16,0.1l-0.19,0.03
				c-1.03,0.18-23.22,4.08-32.16,4.08c-0.85,0-1.58-0.04-2.17-0.11l-1.27-0.17L161.83,424.89z M118.02,418.31l0.38-0.54l0.64,0.13
				c22.56,4.53,22.99,6.59,23.13,7.27c0.12,0.55-0.07,1.15-0.55,1.84c-2.26,3.2-13.11,10.31-24.95,11.91l-0.82,0.11l-0.26-0.79
				C115.42,437.78,111.96,426.98,118.02,418.31z M196.74,470.36l-0.81,0.87l-6.85-9.14l-3.35,15.85l-7.35-10.13l-4.52,13.26
				l-0.19,0.17c-5.77,5.33-21.36,3.86-22.02,3.8l-0.55-0.05l-6.4-12.76l-4.36,13.95l-5.33-15.82l-3.27,9.55l-1.12-0.96
				c-14.7-12.64-15.2-30.71-15.21-31.47l-0.01-0.71l6.54-2.46l10.01,9.66l1.65-13.99l7.75,7.13l0.18-7.01l29.23-5.34l7.24,8.72
				l2.02-11.92l11.37,15.7l7.24-15.96l10.28-1.68l0.2,0.93C213.62,451.98,197.43,469.62,196.74,470.36z"/>
			<path class="st0" d="M92.34,497.81c-8.64-5.5-19.95-8.15-14.81-32.15c0,0-7.01,6.77-11.31,14.96
				c-2.54-10.35,0.88-25.86,0.88-25.86C47.94,467.32,51,495.17,51,495.17c-1.44,5.94-7.94,7.77-4.79,14.35
				c0.73,1.52,0,8.6,0.33,11.91s1.21,8.03,3.85,10.96c2.64,2.93,4.4,3.78,4.4,3.78s0.44,1.8,2.75,5.2c2.31,3.4,8.02,2.86,8.02,2.86
				v-3.53c0,0,6.1,8.56,10.71,11.25c4.62,2.69,13.43-1.98,13.43-1.98c-10.31-5.1-10.62-14.22-10.62-14.22s-0.82-11.16,0.99-13.85
				c1.81-2.69,5.93-0.43,8.74,0.99c2.8,1.42,5.44,12.86,5.44,12.86s6.43-2.65,6.26-14.7C100.49,521.05,100.97,503.32,92.34,497.81z"
				/>
		</g>
		<g>
			<path class="st0" d="M502.76,640.83l9.25-6.06l-7.27-7.54l17.01-5.94l-9.19-8.7c-5.98,2.72-11.32,5.23-13.27,6.15
				c0.19,2.87,0.31,11.85-4.76,18.96c-1.45,2.03-2.73,3.64-3.84,4.9l5.71,10.91c3.62,5.52,5.89,16,7.21,24.41
				c15.76-2.96,30.85-18.49,30.85-18.49C517.29,659.11,502.76,640.83,502.76,640.83z"/>
			<path class="st0" d="M544.48,563.55l2.2-10.24l-12.77-0.88l-1.43-8.15l-13.1,10.9c-3.5-0.61-7.78,0.16-11.37,1.17
				c-3.31,1.85-7.23,4.16-10.54,6.39c4.01-4.05,8.79-8.31,12.38-10.26c6.89-6.41,7.99-12.27,7.99-12.27l-13.21-2.42
				c11.01-12.33,13.21-46.02,13.21-46.02c-10.45-1.83-48.66,19.07-61.17,26.12c-2.47,2.48-5.18,5.41-7.44,8.35
				c1.86-4.34,4.18-8.7,7.06-11.51l-13.53,2.58l16.95-30.17l-43.16,19.82c-4.4-2.2,1.76-22.46,1.76-22.46
				c-14.31,4.62-19.82,27.3-19.82,27.3c-1.98-0.22-3.74-5.28-3.74-5.28c-1.4,1.53-2.04,6.08-2.39,9.52
				c0.65,1.89,0.07,4.66-0.41,7.47c-0.72-2.99-1.63-5.79-2.43-7.99c-13.97-26.11-35.39-42.68-35.39-42.68
				c-9.08,17.5-7.27,75.96-7.27,75.96l-11.72-2.64l3.9,10.08c1.37,1.08,3.06,2.52,4.19,3.84c-2.24-0.77-5.31-1.57-6.64-2.57
				c-6.1-0.75-16.8,1.2-16.8,1.2l-12.88-1.82l2.64,6.94l-6.94,1.98l4.46,6.28l-5.45,2.97l8.09,5.61
				c6.28,22.29,30.06,31.05,30.06,31.05l0.5,11.56c-20.31,13.05-9.41,43.93-9.41,43.93c-7.43,3.96-11.89,17.83-11.89,17.83
				l6.11-0.33v4.62l9.74-0.66v4.29c20.14,1.92,39.59-4.46,45.63-6.69c-3.86-2.83-6.18-6.8-7.57-10.07c3.25,3.46,9.06,8.9,16.5,12.67
				l-0.01,0.01c29.52,12.59,55.37,3.95,61.03,1.74c-2.05-4.95-3.87-10.08-4.68-12.45c2.09,3.23,6.06,9.53,8.38,14.7l13.99,15.11
				l3.25-5.28l9.96,5.28l0.5-5.95l11.06,4.62v-6.11l10.07,6.11l-1.32-25.13c-1.19-8.58-3.49-20.89-7.32-26.69l-0.06-0.11
				l-5.34-10.19c-1.08,1.06-2.8,0.88-4.29,0.44c0.01-0.05,0.01-0.1,0.02-0.15c0.5-0.27,3.13-1.92,7.89-8.58
				c5.42-7.59,4.25-18.01,4.24-18.11l-0.11-0.89l0.81-0.39c0.12-0.05,10-4.75,19.5-8.97c20.71-15.1,26.45-34.98,26.45-34.98
				c3.96-1.65,7.38-7.16,7.38-7.16L544.48,563.55z M458.94,553.49l0.45,1.84c0.09,0.36,8.55,36.6-16.13,47.24l-0.16,0.06
				c-0.43,0.12-5.83,1.56-13.44,1.56c-7.55,0-17.29-1.42-26.52-6.98l-1.59-0.96L458.94,553.49z M354.88,550.88l1.12-2.26
				l20.93,42.11l-0.75,0.63c-0.19,0.16-4.36,3.63-9.86,3.63c-0.57,0-1.15-0.04-1.75-0.12c-4.16-0.57-7.84-3.17-10.93-7.73
				C344.1,573.06,354.44,551.78,354.88,550.88z M469.95,603.23c-0.14,0.54-3.61,13.31-14.53,26.38
				c-4.71,5.63-11.28,11.8-20.13,16.81c0,0,0,0,0,0l0,0c-10.1,5.72-23.17,9.95-39.85,10.2l-0.06,0l-0.06-0.01
				c-0.46-0.04-11.44-1.04-23.07-8.3c-10.74-6.71-23.98-20.23-26.07-46.57l-0.24-3.01l2.3,1.97c0.12,0.1,11.89,10.02,32.45,15.08
				c18.98,4.67,49.55,6.03,87.47-13.97l2.52-1.33L469.95,603.23z"/>
		</g>
	</g>
</g>
<path class="st1" d="M623.26,678.09l-2.55,2.6c0.19-4.08-0.36-8.33-1.67-12.84l-1.68-5.82l-0.56,5.99
	c-0.02,0.24-0.04,0.47-0.05,0.71c-1.71-6.2-5-10.24-7.96-12.77l-5.51-4.71l3.92,6.25c0.16,0.26,0.32,0.51,0.49,0.77
	c3.79,5.77,5.42,11.93,4.85,18.31c-0.02,0.28-0.07,0.56-0.1,0.84c-0.54-1.57-1.29-2.91-1.99-3.94c-0.64-2.53-1.59-4.68-2.7-5.72
	l-1.76-3.67l-0.77,2.21c-1.47-1.85-3.25-3.61-5.37-5.31l-5.06-4.05l2.57,4.12c-3.13-2.16-6.16-3.13-8.56-3.54l1.92,1.54
	c4.53,2,6.22,5.64,8.58,9.39c1.57,2.48,2.32,5.35,2.36,9.06c-3.48-3.74-8.24-7.33-14.18-10.71c-1.32-1.74-2.86-3.2-4.59-4.37
	l3.24,0.29l-2.25-1.98c-0.3-0.26-7.49-6.48-19.74-8.01l-2.83-0.35l4.33,4.79c-4.11-1.44-8.47-2.81-13.02-4.09
	c-11.79-3.32-24.91-6.13-39.01-8.38c5.26,4.53,13.14,9.82,21.37,9.98l10.36,0.2l-5.21,5.36c3.07,0.75,6.07,1.54,8.98,2.36
	c18.78,5.29,32.91,11.67,40.91,18.44c0.4,1.39,0.57,2.29,0.57,2.3l1.76-0.13c3.31,3.4,4.99,6.81,4.99,10.14
	c0,2.31-0.83,4.69-2.46,7.08c-0.11,0.05-0.21,0.11-0.32,0.15c-1.05,0.45-1.91,1.08-2.75,1.69c-0.35,0.26-0.7,0.51-1.07,0.75
	l-0.59,0.39c0.57-1.69,1-3.06,1.06-3.51c0.12-0.97-0.33-2.79-1.2-3.31c-0.39-0.24-0.87-0.27-1.28-0.09
	c-0.75,0.33-0.78,1.12-0.79,1.42c-0.03,0.76-0.34,1.94-0.62,2.82c-0.42,0.03-0.88,0.22-1.25,0.7c-0.28,0.36-1.21,1.99-3.1,5.37
	c-0.63,1.12-1.33,2.38-1.9,3.36c0.12-0.74,0.26-1.66,0.34-2.25c0.12-0.8-0.14-1.34-0.31-1.69c-0.04-0.09-0.09-0.17-0.11-0.25
	c-0.01-0.08-0.01-0.19-0.01-0.31c0-0.64,0.01-1.72-0.86-2.79c-0.51-0.63-1.21-0.69-1.69-0.52c-1.86,0.62-1.59,5.64-1.58,5.65
	c-0.05,1.03-3.49,5.71-4.28,6.26c-0.43,0.26-0.8,0.37-1.19,0.5c-0.34,0.11-0.69,0.22-1.02,0.41c-0.75,0.43-2.01,1.81-2.79,2.79
	c-5.53,2.17-11.74,4.23-18.46,6.13c-0.64,0.18-1.29,0.36-1.94,0.54c1.46-1.7,2.83-3.52,4.09-5.45l3.53-5.38l-5.28,4.13
	c-0.26,0.21-0.52,0.42-0.77,0.63c3.87-5.73,4.71-10.75,4.55-14.41l-0.29-6.51l-2.07,6.67c-0.09,0.29-0.18,0.57-0.26,0.86
	c-1.89,6.6-5.77,12.25-11.53,16.8c-4.72,3.73-10.86,6.12-19.92,7.75c-3.76,0.68-8.75,1.3-13.96,0.14c-1.17-0.26-2.35-0.28-3.5-0.3
	c-0.48-0.01-0.97-0.02-1.45-0.04l-1.16-0.07l2.55,2.78c-0.78-0.06-4.19-1.36-4.97-1.41c-0.62-0.04-1.22-0.01-1.79,0.03
	c-0.24,0.01-0.48,0.03-0.71,0.04l-1.21,0.04l0.23,2.01l0.63,0.23c1.04,0.38,2.11,0.73,3.18,1.05c-1.14,0.14-2.26,0.28-3.38,0.42
	c-0.64-0.22-1.27-0.45-1.91-0.7l-0.2-0.08c-0.72-0.29-2.39-0.97-3.54,0.69l-0.55,0.8c-19.95,2.14-41,3.22-62.61,3.22
	c-20.06,0-39.65-0.93-58.35-2.78c1.71-0.33,3.18-0.64,3.69-0.81c1.36-0.45,3.5-1.89,3.67-2.96c0.07-0.43-0.12-0.83-0.5-1.08
	c-0.74-0.48-1.71-0.1-2.18,0.09c-1.46,0.58-4.01,1.12-5.67,1.43c-0.21-0.36-0.7-0.77-1.8-0.81c-0.76-0.02-4.56,0.22-10.74,0.62
	c-4.48,0.29-9.11,0.59-10.21,0.61c-0.07-0.01-0.14-0.02-0.21-0.03c0.66-0.02,1.23-0.06,1.65-0.17c1.2-0.32,3.89-1.17,5.04-1.53
	c1.15-0.36,1.68-0.88,2.06-1.26c0.11-0.11,0.21-0.22,0.34-0.31c0.07-0.05,0.34-0.16,0.54-0.25c0.93-0.39,2.47-1.05,3.28-2.48
	c0.39-0.7,0.12-1.27-0.27-1.58c-1.76-1.4-9.13,2.04-9.2,2.08c-1.34,0.68-12.42,0.65-14.15,0.14c-0.88-0.25-1.46-0.56-2.02-0.85
	c-0.45-0.23-0.87-0.45-1.37-0.61c-1.17-0.36-4.56-0.67-7-0.73c-1.25,0.01-1.56,0.56-1.63,0.91c-0.1,0.5-0.02,0.85,0.93,1.31
	c-2.38-0.51-4.79-1.13-5.55-1.53c-2.02-1.04-5.82-1.5-6.25-1.55l-0.12-0.01c-3.11-0.08-13.68-5.93-17.65-8.13
	c-0.69-0.38-1.25-0.69-1.64-0.9c-0.8-0.43-2.12-1.15-3.02-0.5l-19.04-11.12c-2.79-1.79-3.95-2.48-4.81-1.53
	c-0.73,0.82-0.25,1.5,3.24,4.58c1.69,1.49,3.66,3.12,4.16,3.49c1.23,0.91,3.5,2.19,4.1,2.47c0.25,0.16,1.13,1.04,1.78,1.68
	c0.54,0.53-4.23-1.38-3.69-0.87c-16.24-7.06-19.9-12.55-19.9-20.26c0-10.9,17.58-22.11,48.23-30.75c7.4-2.09,15.36-3.96,23.77-5.62
	c-0.43-3.07-0.69-6.53-0.56-10.13c-9.47,1.81-18.42,3.89-26.7,6.23c-2.68,0.76-5.26,1.55-7.78,2.35c0.21-1.76,1.33-3.63,1.33-3.63
	c-4.54,1.35-7.76,3.22-9.99,4.94l-0.65-0.45c0.42-1.34,0.93-2.77,1.42-4.05c1.22-1.85,2.87-4.13,5.47-6.66l4.24-4.11l-5.61,2.55
	c-0.58,0.26-14.13,6.55-20.79,21.41c-4.12,2.18-9.06,5.36-12.54,7.98c-2.45-1.09-1.82-2.12-1.82-2.12
	c-1.45,0.66-3.53,4.33-4.92,7.07c0.19-3.08,0.93-5.57,2.3-7.75c2.36-3.75,5.85-6.66,10.39-8.66c0.2-0.09,0.39-0.18,0.58-0.27
	l2.52-1.85l-2.99-0.15c-2.41,0.41-5.44,1.38-8.56,3.54l-0.39-2.4l-2.1,2.33c-0.96,0.77-1.83,1.55-2.65,2.34
	c-0.62,0.03-1.23,0.03-1.69-0.16c-1.29-0.53,0-1.78,0-1.78c-4.63,1.5-7.19,10.11-8.26,14.88c-0.04-0.28-0.08-0.56-0.1-0.84
	c-0.57-6.38,1.06-12.54,4.85-18.31c0.17-0.25,0.33-0.51,0.49-0.77l3.92-6.25l-5.51,4.71c-2.96,2.53-6.25,6.58-7.96,12.77
	c-0.01-0.23-0.03-0.47-0.05-0.71l-0.56-5.99l-1.68,5.83c-1.3,4.51-1.86,8.76-1.67,12.84l-1.08-2.46l-0.71,3.54
	c-0.93,4.6,4.5,15.76,10.37,21.33c4.89,4.63,11.05,7.92,18.3,9.76c9.59,7.58,24.35,14.22,43.89,19.72
	c34.21,9.64,79.58,14.95,127.75,14.95c30.61,0,60.81-2.19,87.34-6.35c1.59,0,3.08-0.07,4.55-0.21c3.24-0.3,7.3-1.23,11.46-2.62
	c8.65-1.71,16.86-3.66,24.39-5.78c1.94-0.55,3.85-1.11,5.74-1.7c0,0,0,0,0,0c0.17,0.3,0.67,0.75,1.51,0.5
	c0.56-0.16,2.08-0.79,4.51-1.81c2.13-0.89,5.35-2.23,5.86-2.34c1.18-0.13,4.75-2.13,5.67-2.71c10.43-4.45,18.52-9.38,24.05-14.66
	c4.65-1.88,8.76-4.5,12.21-7.77c5.87-5.56,11.3-16.73,10.37-21.33L623.26,678.09z"/>
</svg>
