<?xml version="1.0" encoding="UTF-8" standalone="no"?>
<!-- Created with Inkscape (http://www.inkscape.org/) -->

<svg
   width="204.31281mm"
   height="246.30698mm"
   viewBox="0 0 204.31281 246.30698"
   version="1.1"
   id="svg1"
   xml:space="preserve"
   xmlns="http://www.w3.org/2000/svg"
   xmlns:svg="http://www.w3.org/2000/svg"><defs
     id="defs1" /><g
     id="layer1"
     transform="translate(-4.5574056,-17.455245)"><path
       style="fill:#000000;stroke:#000000;stroke-width:0.1"
       d="m 176.52669,126.28893 c 0.66418,-0.40039 2.75667,-2.78126 3.20807,-0.97565 0.0517,0.20692 0.23165,0.4957 0.14883,0.74414 -0.17652,0.52955 -0.7544,0.91008 -1.0418,1.38906 -0.2248,0.37467 -0.25931,1.30287 -0.61184,1.53789 -1.36679,0.91119 -2.43718,-1.81473 -1.70326,-2.69544 z"
       id="path323" /><path
       id="path322"
       style="fill:#000000"
       d="m 16.386597,17.455265 c -0.45034,0.02557 0.224692,14.264599 1.309997,27.633972 0.13862,1.70751 -0.134076,1.274746 -0.764811,-1.214912 -0.2584,-1.019991 -0.570448,-1.854668 -0.693498,-1.854668 -0.123,0 -0.1646,0.201317 -0.0925,0.447518 0.192295,0.656971 0.502753,5.180046 0.355533,5.180046 -0.06907,0 -1.427999,-2.934512 -3.019454,-6.521049 -1.59146,-3.586541 -2.938632,-6.47575 -2.994132,-6.42028 -0.09164,0.09164 1.417235,5.65465 4.41265,16.266707 0.61553,2.180671 1.940065,6.90018 2.94349,10.487732 1.003415,3.587556 2.38333,7.961733 3.06648,9.720337 0.683145,1.758603 1.775673,5.269714 2.427758,7.802108 1.96713,7.639275 4.852704,15.692589 7.576799,21.148584 2.940385,5.88915 7.630647,13.00248 12.131042,18.39732 l 2.354895,2.82309 -0.583427,1.83709 c -0.941935,2.96659 -1.44081,5.73456 -1.5875,8.80773 -0.07554,1.58275 -0.166221,2.87786 -0.201021,2.87786 -0.03482,0 -2.750902,-1.0364 -6.035807,-2.30321 -3.284905,-1.26687 -6.057501,-2.27443 -6.161381,-2.23863 -0.10387,0.0358 2.570948,3.48492 5.943823,7.66413 l 6.132442,7.59851 v 2.08256 c 0,1.93283 -0.602801,4.43904 -2.211751,9.1953 -0.14883,0.43996 -0.176574,0.40927 -3.726904,-4.15427 -1.285125,-1.65181 -2.373457,-2.96678 -2.418457,-2.92178 -0.04497,0.045 0.838372,2.19466 1.963187,4.77697 1.124805,2.58227 2.045353,4.73867 2.045353,4.79247 0,0.0538 -1.230036,0.6735 -2.733166,1.37718 l -2.73265,1.27951 1.901693,1.03507 c 1.045895,0.56926 2.63003,1.43571 3.520715,1.92547 l 1.61954,0.89038 -0.154513,1.19114 c -1.47152,11.33199 -2.444812,19.14067 -2.444812,19.61638 0,0.32746 1.169281,2.55977 2.598291,4.96042 2.47408,4.15623 2.665734,4.40291 4.015259,5.16454 0.779465,0.4399 4.934166,2.7546 9.232511,5.14336 4.29836,2.38871 8.320401,4.63363 8.937956,4.98884 l 1.122929,0.64596 -0.165365,-0.65991 c -0.09106,-0.36281 -1.213606,-3.11063 -2.494421,-6.10661 -1.280815,-2.99594 -2.432467,-5.71735 -2.559017,-6.04717 -0.25507,-0.66478 0.219627,-0.27434 7.577832,6.23579 2.3917,2.11607 8.802474,7.78583 14.246159,12.59975 5.443535,4.81378 9.971718,8.87348 10.063468,9.02167 h 5.17e-4 c 0.0916,0.14777 0.31989,0.23417 0.507463,0.1912 0.365895,-0.0837 14.052038,-11.36804 14.829068,-12.22664 0.60872,-0.67263 0.59019,-0.6712 -4.28294,0.33951 -2.215853,0.4596 -4.028697,0.81189 -4.028697,0.78239 0,-0.0747 2.066744,-1.20599 12.917557,-7.06934 5.2055,-2.81285 9.56887,-5.17596 9.69605,-5.25136 0.12718,-0.0754 -1.37128,1.69349 -3.33003,3.93103 -4.76839,5.44712 -6.07429,7.00575 -5.95467,7.10861 0.0552,0.0474 2.15254,-0.84891 4.66069,-1.99213 l 4.56045,-2.07894 3.3693,-4.34599 c 4.8167,-6.21308 13.85854,-17.8103 17.10025,-21.93303 l 2.76831,-3.52071 v -1.98076 c 0,-1.62244 0.11555,-2.19901 0.63923,-3.18275 0.35173,-0.66071 0.63976,-1.37932 0.63976,-1.5968 0,-0.21748 0.0873,-0.39533 0.1943,-0.39533 0.10696,0 2.12815,2.18708 4.4912,4.86017 4.19153,4.74141 4.3208,4.86017 5.29218,4.86017 1.13181,0 0.77654,0.39335 4.73356,-5.24361 1.38265,-1.96965 3.47511,-4.9052 4.64985,-6.52312 1.28139,-1.76476 2.00413,-2.97003 1.80661,-3.01273 -0.18107,-0.0392 -4.62846,0.50746 -9.88364,1.21491 -5.25513,0.70746 -9.72212,1.28623 -9.92601,1.28623 -0.23757,0 -0.34127,-0.2054 -0.28887,-0.57206 0.059,-0.4132 1.83939,-1.85892 6.4115,-5.20588 l 6.33036,-4.63383 7.99435,-1.99419 c 4.39709,-1.09684 8.16399,-2.08202 8.37054,-2.18953 0.36848,-0.19179 1.5994,-5.57085 4.47777,-19.56522 1.03788,-5.04603 1.65841,-9.58081 1.31051,-9.58081 -0.0703,0 -1.19821,0.7471 -2.50631,1.66036 l -2.37866,1.66089 -0.18035,-1.08521 c -0.0992,-0.59675 -0.4158,-6.26465 -0.70384,-12.59561 -0.28804,-6.33101 -0.57585,-12.20159 -0.63975,-13.045719 l -0.11627,-1.53479 3.21376,-3.453536 c 10.51794,-11.301041 21.1584,-26.238809 30.49684,-42.814441 1.67479,-2.972725 1.82237,-3.38262 1.11983,-3.110921 -0.2462,0.09522 -2.87802,1.085101 -5.84822,2.199349 -16.17029,6.066166 -30.80758,12.669988 -40.80888,18.412313 -13.95684,8.013418 -26.78668,18.59302 -34.88728,28.767236 -0.67209,0.84413 -1.26536,1.585995 -1.31826,1.648995 -0.0529,0.06303 -1.12218,-0.906245 -2.37608,-2.15439 l -2.27997,-2.269629 -1.61282,0.684713 c -0.88714,0.376555 -1.74672,0.684089 -1.90996,0.683679 -0.16324,-4e-4 -1.02252,-0.98012 -1.90945,-2.177645 -0.88688,-1.197515 -1.69926,-2.147265 -1.80505,-2.110465 -0.10579,0.03684 -0.71939,0.815135 -1.36374,1.72961 l -1.17151,1.662947 0.84284,0.237712 c 0.46382,0.13094 2.05714,0.591388 3.54036,1.023193 l 2.69647,0.785482 -3.1104,9.847977 c -1.71087,5.41653 -4.78431,15.14357 -6.82956,21.61522 -2.04526,6.47164 -4.88767,15.50751 -6.31693,20.07991 -1.42926,4.57239 -2.775772,8.86776 -2.992062,9.54515 -0.40247,1.2605 -0.289594,2.01686 0.136426,0.91416 0.129835,-0.33606 0.776908,-1.93487 1.437636,-3.55275 3.78258,-9.26225 6.72257,-16.62839 8.57674,-21.48707 1.15434,-3.02477 2.64822,-6.93853 3.31969,-8.69714 0.67147,-1.75862 1.29645,-3.44601 1.38855,-3.74964 0.10424,-0.34369 0.98619,-1.01952 2.33681,-1.79059 1.88361,-1.07535 2.19912,-1.35638 2.39623,-2.13372 1.2683,-5.00188 4.69979,-18.05451 4.76509,-18.12551 0.0463,-0.0504 0.7679,0.32387 1.60352,0.83148 1.7043,1.03529 2.43485,1.2142 1.71669,0.42064 -0.24987,-0.27613 -0.3942,-0.64985 -0.3204,-0.83095 0.35215,-0.86409 5.01551,-6.108175 8.59793,-9.668665 8.2267,-8.176419 16.93556,-14.582234 28.9326,-21.281389 3.7673,-2.103649 10.75201,-5.653275 10.87427,-5.526277 0.11822,0.122807 0.6396,16.5197 0.6103,19.19211 l -0.0258,2.374532 -0.59738,-1.918746 c -0.32869,-1.055164 -0.79427,-2.608889 -1.03456,-3.453019 -0.35053,-1.231373 -0.47703,-1.433653 -0.63924,-1.023193 -0.1112,0.281373 -0.96244,5.171585 -1.89135,10.867553 -1.94137,11.903614 -1.21789,10.159584 -6.00584,14.486974 -3.16677,2.86211 -3.95327,3.33037 -6.98459,4.15892 -3.50306,0.9575 -3.38275,0.84536 2.59829,-2.41381 2.02552,-1.10372 3.56903,-2.04443 3.42977,-2.09083 -0.23701,-0.079 -7.03394,2.59416 -11.78739,4.63589 l -2.11667,0.90899 2.84685,-3.20652 c 1.56588,-1.76355 2.80342,-3.24996 2.75022,-3.30316 -0.0532,-0.0532 -0.66927,0.26029 -1.36942,0.6966 -0.70016,0.43631 -4.47619,2.67744 -8.39122,4.98006 -3.91507,2.30263 -7.41797,4.38313 -7.78402,4.62297 -0.53589,0.35114 -0.43962,0.13772 0.49402,-1.0945 2.07641,-2.74039 4.25802,-5.87644 4.15892,-5.97845 -0.13699,-0.14098 -0.53026,0.16097 -5.65443,4.34599 -2.51521,2.0542 -4.82928,3.8947 -5.14232,4.09019 -0.75349,0.47056 -0.72114,0.65073 0.25993,1.46399 1.9466,1.61365 5.96725,5.26838 6.165,5.60379 0.59775,1.01386 2.21485,18.0573 2.21485,23.34276 0,1.78333 0.19974,2.6621 1.6552,7.28225 2.79516,8.87298 2.75788,8.58157 1.65933,13.04416 -0.69001,2.80293 -1.66565,5.14467 -3.49953,8.39742 -1.59635,2.83147 -2.98356,4.23697 -7.61039,7.71219 -12.36747,9.28927 -24.93976,14.90716 -36.946066,16.50907 l -3.811137,0.5085 -4.948535,-1.25626 c -10.699415,-2.71535 -19.003729,-6.23765 -27.890804,-11.82976 -5.77099,-3.63137 -11.650626,-8.32141 -13.480831,-10.75387 -3.27523,-4.35302 -5.447987,-10.95501 -4.861202,-14.77119 0.48777,-3.17221 0.611849,-3.0322 0.611849,0.68936 0,3.25713 0.08394,4.05556 0.599964,5.7056 1.88998,6.04346 5.499911,10.94234 9.648506,13.09325 l 1.620057,0.83975 0.716235,-0.5302 c 1.082225,-0.80068 2.476141,-2.7586 3.033406,-4.26073 0.40167,-1.08255 0.497128,-2.00383 0.497128,-4.7935 0,-3.91729 -0.450365,-5.84312 -2.123385,-9.08058 -1.142915,-2.21168 -3.989834,-5.15108 -5.806364,-5.99499 -2.451695,-1.13899 -7.052588,-0.84433 -7.727693,0.49506 -0.53723,1.06583 -0.377748,0.34637 0.693497,-3.13159 1.011875,-3.28527 1.023428,-3.36727 1.030428,-7.44916 0.01039,-5.97317 0.441422,-15.8996 0.767912,-17.6847 0.15438,-0.84413 0.577905,-2.53964 0.941545,-3.76773 l 0.661458,-2.23294 2.392102,-2.20038 c 1.315665,-1.20999 2.392102,-2.29977 2.392102,-2.42208 0,-0.12232 -0.399399,-0.0555 -0.887284,0.14831 -1.550555,0.64789 -1.567,0.40296 -0.04806,-0.7121 0.811045,-0.59539 1.375033,-1.11592 1.253153,-1.15652 -0.12189,-0.0406 -1.036669,0.26221 -2.032434,0.67283 l -1.810225,0.74672 -0.304374,-1.57251 c -0.26903,-1.39061 -2.091297,-9.17988 -2.462382,-10.52546 -0.0776,-0.28133 0.414311,0.32084 1.092956,1.33842 0.678635,1.01763 1.319769,1.85267 1.424719,1.85467 0.10494,0.002 -0.02629,-0.54251 -0.291455,-1.21078 -1.48971,-3.75433 -2.390614,-5.91539 -3.753259,-9.003065 -1.77012,-4.01095 -1.783639,-3.99041 -1.442289,2.160595 0.1171,2.11029 0.188013,3.8732 0.157613,3.9181 -0.03038,0.0449 -2.276108,-2.65995 -4.990393,-6.010999 -5.646305,-6.970875 -7.85691,-9.546187 -8.193815,-9.546187 -0.12982,0 -0.07219,0.316426 0.12764,0.703316 0.47917,0.927745 4.034718,11.11216 3.919658,11.22722 -0.15633,0.15633 -3.144538,-6.821048 -4.369243,-10.201443 -1.93336,-5.336395 -3.337258,-10.19321 -3.309358,-11.44943 0.0706,-3.184403 5.798572,-20.421503 10.341487,-31.120581 l 1.563729,-3.683496 2.062923,2.757454 c 8.71953,11.656639 15.684923,24.804038 20.291268,38.299988 l 0.868164,2.544547 v 10.452075 c 0,6.884746 0.08724,10.398826 0.255282,10.294976 0.14032,-0.0867 0.327283,-0.60891 0.415478,-1.16065 0.08823,-0.55174 0.289685,-1.16611 0.448035,-1.36529 0.15835,-0.19918 4.547418,-1.64337 9.752893,-3.20911 11.354745,-3.41531 10.332483,-3.068969 9.847978,-3.336744 -0.21103,-0.11664 -2.564153,-0.764284 -5.229138,-1.439189 -3.85868,-0.977205 -4.702799,-1.265334 -4.145484,-1.414384 1.292735,-0.34573 7.93799,-1.494485 11.16521,-1.930115 5.736805,-0.774385 20.210085,-0.56746 23.980965,0.342615 0.55753,0.13454 0.57609,0.07964 0.57309,-1.743563 -0.002,-1.035235 -0.0747,-2.316108 -0.16226,-2.846338 l -0.15968,-0.964282 -5.65702,0.06925 -5.65702,0.06873 -0.128158,1.406633 -0.127641,1.407149 -5.244124,0.191719 c -2.884105,0.10555 -5.704041,0.29453 -6.266801,0.42013 -0.974305,0.21746 -0.937645,0.231272 0.767395,0.291972 l 1.790589,0.06408 -1.790589,0.185002 c -2.0637,0.21349 -4.670985,-0.390256 -4.523755,-1.047481 0.04455,-0.1989 0.703085,-2.024841 1.46296,-4.057634 0.759865,-2.03279 1.340027,-3.737192 1.289327,-3.787882 -0.10054,-0.10054 -10.52582,9.287927 -11.140405,10.032462 -0.35689,0.43235 -0.300777,0.448534 1.023193,0.299724 0.927885,-0.10429 0.2783,0.128974 -1.92443,0.690914 -1.82895,0.466585 -3.592524,0.935987 -3.918624,1.043347 -0.509635,0.16777 -0.161457,-0.660912 2.477368,-5.902482 l 3.06958,-6.097819 -2.298567,-12.662277 c -2.771585,-15.266438 -2.524547,-14.08416 -2.802452,-13.42916 -0.43257,1.019522 -6.12004,23.922573 -6.12004,24.645007 0,0.408068 0.696766,3.587298 1.548226,7.065202 0.851465,3.477915 1.508892,6.441545 1.460892,6.585645 -0.04803,0.14411 -0.298942,-0.643853 -0.557072,-1.750798 C 61.330217,84.824641 57.469633,74.56588 52.466048,65.262166 51.585533,63.624927 50.451534,61.092503 49.945789,59.634603 47.994259,54.009004 44.835242,45.600834 44.673242,45.600834 c -0.09343,0 0.316456,1.870669 0.911056,4.156852 0.594595,2.286187 1.163779,4.50218 1.265039,4.924248 0.13816,0.575871 -0.1502,0.288329 -1.155485,-1.151351 C 41.228582,47.135751 39.088535,44.389433 29.746505,33.066715 22.75325,24.590773 16.634752,17.441175 16.386597,17.455265 Z m 1.268656,29.265397 c 0.02689,-0.02689 0.0625,0.0091 0.103353,0.111105 0.0739,0.184655 0.06485,0.405409 -0.02015,0.490409 -0.08495,0.085 -0.145459,-0.06624 -0.134359,-0.335897 0.0061,-0.148995 0.02427,-0.238722 0.05116,-0.265617 z m 57.300379,14.068392 c -0.04795,0.06771 -0.0742,0.2631 -0.07545,0.592212 -0.0025,0.677389 -0.316103,4.827717 -0.643888,8.52041 -0.08385,0.944408 -0.05221,1.552444 0.07338,1.40715 0.1216,-0.140689 0.662454,-1.394842 1.201994,-2.786394 l 0.981335,-2.530078 -0.599446,-2.537312 C 75.439382,61.531109 75.099476,60.585916 74.95563,60.789054 Z m -30.921111,4.279842 c -0.04986,-0.05517 -1.02263,0.511581 -2.161625,1.259355 -1.71929,1.128744 -2.046607,1.449747 -1.928047,1.890841 0.07854,0.292218 0.459491,1.769055 0.846976,3.281453 0.38749,1.512402 0.775363,2.749703 0.861963,2.749703 0.17913,0 2.519933,-9.027331 2.380733,-9.181352 z m 33.667713,10.630876 c -0.10464,0.117181 -0.425328,1.170969 -0.712618,2.341459 -0.4403,1.79391 -0.462056,2.10504 -0.139526,1.981275 0.210435,-0.08075 0.659226,-0.216274 0.997871,-0.301274 0.33866,-0.085 0.615983,-0.334029 0.615983,-0.553454 0,-0.974117 -0.58997,-3.660323 -0.76171,-3.468006 z m 13.329936,1.139465 c -0.05151,0.151261 0.175883,1.58746 0.504878,3.191537 0.329,1.604078 0.672149,2.916618 0.762744,2.916618 0.15326,0 1.256255,-2.782261 1.256255,-3.168799 0,-0.365385 -2.434777,-3.200974 -2.523877,-2.939356 z m 10.89701,4.676201 c -0.12629,-0.125154 -5.020791,2.336104 -4.971791,2.500106 0.02846,0.09517 0.611947,0.763252 1.296562,1.484147 0.684605,0.72089 1.298991,1.256448 1.365291,1.190108 0.18065,-0.180648 2.379238,-5.105661 2.309938,-5.174361 z m -12.313461,3.094901 -0.320911,1.53479 c -0.17651,0.844135 -0.325763,1.628565 -0.331763,1.743563 -0.0061,0.115 0.189954,0.152515 0.436149,0.0832 0.24621,-0.06932 0.821752,-0.201492 1.278992,-0.293522 0.45724,-0.09203 0.828273,-0.244657 0.825273,-0.338997 -0.0035,-0.09434 -0.429924,-0.7466 -0.947229,-1.450041 z m 81.338701,2.936255 c -0.2198,0.168183 -0.76961,0.971072 -1.43298,2.1177 -0.91715,1.585185 -4.59766,10.956176 -4.59766,11.706266 0,0.1435 0.42338,0.0725 0.95912,-0.16072 0.52758,-0.22964 1.38344,-0.54952 1.90169,-0.71106 0.51825,-0.16153 1.02203,-0.37349 1.11983,-0.47129 0.1244,-0.12441 2.05261,-11.259854 2.15181,-12.426636 0.008,-0.09584 -0.0285,-0.110321 -0.10181,-0.05426 z m -77.596294,0.777731 -2.267045,1.807641 c -1.246875,0.994295 -2.376791,1.914003 -2.510441,2.043803 -0.14878,0.1445 1.055967,0.236161 3.106787,0.236161 h 3.349666 l 0.113171,-1.087272 c 0.14762,-1.41704 -0.09121,-2.011503 -1.02681,-2.555399 z m 2.884061,1.863452 2.685625,0.09974 c 1.477238,0.05482 3.088768,0.169365 3.581178,0.254765 0.88278,0.15302 0.87051,0.163364 -0.89504,0.743624 -2.127468,0.699195 -2.797764,0.762823 -2.599839,0.247013 0.10143,-0.2643 -0.267277,-0.503726 -1.315682,-0.855761 z M 27.823108,100.85328 c -0.20976,0 -0.05502,0.63809 1.131197,4.66844 0.23809,0.80896 0.470898,1.47072 0.517798,1.47072 0.09382,0 1.669149,-2.74437 1.669149,-2.90784 0,-0.21104 -3.101434,-3.23132 -3.318144,-3.23132 z m 142.624882,1.29552 c 0.0713,-0.005 0.10379,0.0397 0.10387,0.13075 2.5e-4,0.27056 0.63046,9.98878 1.40043,21.59558 0.77002,11.60675 1.4315,22.0129 1.4702,23.12468 l 0.0708,2.02158 -11.51093,3.02876 h -5.2e-4 c -6.33095,1.6658 -11.77718,3.10109 -12.10262,3.18999 -0.50996,0.13925 -0.37379,-0.16939 0.98341,-2.23604 5.72945,-8.72442 13.78899,-21.30086 13.70459,-21.38526 -0.0923,-0.0924 -7.69767,4.35776 -16.27033,9.52035 -3.44688,2.07575 -6.37522,3.83804 -6.50761,3.91604 -0.13238,0.078 0.0397,-0.31051 0.38292,-0.863 0.59329,-0.95499 0.62141,-1.18069 0.56431,-4.58525 -0.0652,-3.88944 -0.49504,-13.9011 -0.7028,-16.37109 l -0.12919,-1.53479 4.53925,-2.22105 c 7.76503,-3.7989 15.08446,-9.02136 22.12527,-15.78715 1.10043,-1.0575 1.66511,-1.52837 1.87895,-1.5441 z m -150.25284,1.37976 c -0.05453,0.0545 2.340817,3.70528 5.322672,8.11269 2.981855,4.40736 6.981933,10.34403 8.888863,13.19299 1.90693,2.84895 3.535839,5.18005 3.619934,5.18005 0.08407,0 0.831012,-1.96467 1.659847,-4.36563 1.280475,-3.7092 1.453254,-4.4151 1.149284,-4.69687 -0.196755,-0.18238 -2.199364,-1.88837 -4.450374,-3.79098 -2.25102,-1.90261 -6.7925,-5.77046 -10.09189,-8.59534 -3.299405,-2.82492 -6.043836,-5.09141 -6.098336,-5.03691 z m 111.78749,14.20741 c -0.12662,0 -0.47708,0.89201 -0.77825,1.9823 l -0.54725,1.98283 0.57051,0.43563 c 0.31374,0.23961 0.99085,0.62599 1.50482,0.85886 0.86663,0.39264 1.0513,0.6954 2.54248,4.16874 0.88437,2.05993 2.04884,4.71155 2.58795,5.89266 0.5391,1.18116 1.02696,2.10102 1.08366,2.04432 0.17284,-0.17284 -1.11794,-12.84565 -1.32654,-13.02401 -1.57492,-1.34666 -5.46351,-4.34133 -5.63738,-4.34133 z m -77.595779,4.23126 c -0.05839,-0.0584 -1.082308,0.77796 -2.275313,1.8588 -1.193005,1.08084 -2.004824,1.7354 -1.804024,1.4547 0.200795,-0.28075 0.661233,-0.78063 1.023193,-1.11105 l 0.658358,-0.601 -0.727604,0.16434 c -0.75189,0.16951 -5.282062,2.12752 -5.580022,2.41174 -0.178555,0.17028 -0.621388,7.2429 -0.866613,13.84566 -0.10269,2.76486 -0.06745,3.84045 0.116272,3.55379 0.334355,-0.5217 6.929809,-17.02556 6.929809,-17.34054 0,-0.12881 0.592384,-1.11089 1.316199,-2.1823 0.723815,-1.07142 1.268145,-1.99574 1.209745,-2.05414 z m -24.171651,1.46968 c -0.08226,0.0823 0.101394,0.93427 0.408244,1.89291 0.306845,0.95864 0.602941,1.88654 0.657841,2.0624 0.06761,0.21648 0.687624,0.31988 1.919779,0.31988 1.341845,0 1.792107,-0.0841 1.714107,-0.31988 -0.151525,-0.45783 -4.520601,-4.13467 -4.699971,-3.95531 z m 148.6793,1.27796 c 0.0491,0.0491 -0.13717,0.87943 -0.41341,1.84536 -0.551,1.92678 -1.02082,2.68237 -1.02682,1.65055 -0.002,-0.34468 -0.0687,-0.87054 -0.14882,-1.16892 -0.10225,-0.38096 0.0993,-0.82157 0.67696,-1.4795 0.45245,-0.51531 0.86299,-0.89659 0.91209,-0.84749 z m 0.68109,0.79168 c 0.0269,-0.0269 0.0625,0.009 0.10336,0.11111 0.0739,0.18465 0.0648,0.4054 -0.0202,0.4904 -0.085,0.085 -0.14546,-0.0662 -0.13436,-0.33589 0.006,-0.149 0.0243,-0.23873 0.0512,-0.26562 z m -53.84271,7.84913 c -0.26104,-0.10376 -1.53741,1.04226 -5.2498,4.65243 -2.64028,2.56758 -6.51396,6.31185 -8.60826,8.32094 -2.09435,2.00908 -3.73303,3.72802 -3.64113,3.81992 0.0919,0.0919 0.30326,0.0311 0.46974,-0.13539 0.36625,-0.36625 0.80458,-0.40385 0.58601,-0.0501 -0.16716,0.27047 0.2326,4.47837 0.67283,7.0838 l 0.26717,1.5813 1.83141,0.66404 c 1.00723,0.36509 2.57936,0.83026 3.49384,1.03353 1.02163,0.22706 2.7478,0.34711 4.47673,0.31161 2.48443,-0.051 2.98138,-0.13994 4.24832,-0.76119 1.68724,-0.82734 3.74805,-2.90657 4.65553,-4.69739 1.53076,-3.02081 1.60163,-8.49947 0.1633,-12.60802 -0.6898,-1.97036 -2.65357,-4.76351 -4.11758,-5.85649 l -1.21956,-0.91054 1.01234,-1.09864 c 0.55697,-0.60425 1.01286,-1.15846 1.01286,-1.23196 0,-0.0623 -0.0165,-0.103 -0.0538,-0.11783 z m -64.771236,0.0754 c -0.03222,0.10887 0.216711,0.49828 0.757576,1.13017 l 0.902271,1.05368 -1.88774,1.8681 c -3.668635,3.62986 -5.210416,8.91449 -4.272091,14.64459 0.713455,4.35686 4.387685,8.04975 8.510075,8.55296 1.95736,0.23892 3.811651,0.12166 6.329846,-0.39997 1.87473,-0.38834 4.542784,-1.25336 4.923214,-1.59629 0.240915,-0.21718 0.904965,-4.9691 1.00924,-7.22126 0.06958,-1.50284 0.12887,-1.67393 0.50953,-1.47071 0.23696,0.12644 0.511065,0.22996 0.609265,0.22996 0.19814,0 -15.127556,-15.1174 -16.462561,-16.23881 -0.58296,-0.48969 -0.896402,-0.66128 -0.928625,-0.55242 z m 101.761226,0.0367 -0.86144,1.27899 c -0.47375,0.70345 -1.72075,2.45847 -2.77141,3.90054 -1.05066,1.44206 -1.94152,2.62206 -1.97972,2.62206 -0.0382,0 0.81238,-1.45719 1.8898,-3.23804 1.16544,-1.92625 2.31596,-3.50611 2.84066,-3.90054 z M 4.5645793,135.5571 c -0.1028595,0.0754 0.890574,1.21065 3.6189005,4.13567 0.831476,0.89138 1.566259,1.56636 1.6324585,1.50016 0.06625,-0.0662 -0.4826973,-1.33266 -1.2195638,-2.8143 l -1.3394531,-2.69389 -1.2955282,-0.10077 c -0.7124165,-0.0555 -1.3411144,-0.0677 -1.3968139,-0.0269 z m 71.2493977,4.44004 c -0.2191,0.2191 0.833006,4.30935 1.398881,5.43843 0.29701,0.59264 0.83684,1.39439 1.19941,1.78128 0.36256,0.3869 0.810066,0.70332 0.994771,0.70332 0.912875,0 -0.09197,-3.43341 -1.648995,-5.63376 -1.27015,-1.795 -1.806657,-2.42668 -1.944067,-2.28927 z m 35.034553,0.0971 c -0.39651,0.15739 -1.98172,2.07346 -2.70216,3.33261 -0.78514,1.37229 -1.63737,4.13595 -1.39578,4.52686 0.3413,0.55223 1.79806,-0.84719 2.65203,-2.54817 0.51206,-1.01984 1.56188,-4.61456 1.53738,-5.26427 -0.002,-0.0564 -0.0348,-0.0695 -0.0915,-0.047 z m 7.52512,1.04748 0.63149,0.7674 c 1.8101,2.19848 1.15343,5.36861 -1.3317,6.42751 -1.55576,0.6629 -3.00905,0.26945 -4.27933,-1.1591 l -0.49816,-0.56017 2.73885,-2.73782 z m -50.13027,0.0207 2.552299,2.543 c 1.40371,1.39845 2.552299,2.66677 2.552299,2.81895 0,0.41718 -1.310907,1.58301 -2.127002,1.89136 -0.39605,0.14964 -0.971602,0.268 -1.278992,0.262 -1.50617,-0.027 -3.295583,-1.5438 -3.632853,-3.0794 -0.24809,-1.12955 0.311323,-2.88025 1.188558,-3.72071 z m -16.765902,0.49093 -2.366264,3.25561 c -1.301375,1.79079 -2.366264,3.3278 -2.366264,3.4153 0,0.0875 1.329335,2.1758 2.953825,4.64054 1.624505,2.46478 3.0129,4.42179 3.0856,4.34909 0.12947,-0.12947 -0.639708,-2.53211 -1.850533,-5.77897 -0.734045,-1.96842 -0.740237,-2.07998 -0.116272,-2.07998 0.41443,0 0.516961,-0.25008 0.656291,-1.59887 0.0913,-0.87931 0.12874,-2.63434 0.08423,-3.90054 z m -23.0203,10.04435 -1.509469,0.15761 c -0.830025,0.0867 -1.847167,0.15761 -2.260327,0.15761 -0.46352,0 -0.712706,0.11553 -0.650606,0.30179 0.05534,0.16603 1.993277,1.30675 4.306197,2.53473 2.31291,1.22797 4.298314,2.2433 4.412134,2.2562 0.325725,0.0369 -0.03531,-0.44908 -2.238623,-3.01222 z m -13.847734,1.09915 c -0.16976,-0.01 0.0791,1.01058 0.604098,2.47737 0.490975,1.37172 1.119927,3.14511 1.397847,3.94085 0.3296,0.94374 0.675556,1.4916 0.994771,1.5751 0.31362,0.082 0.489376,0.35223 0.489376,0.75292 0,1.29875 0.516227,2.19825 1.435572,2.50166 0.732095,0.24161 1.033034,0.58973 1.761649,2.03657 l 0.8785,1.74511 -1.008724,1.10329 c -0.5548,0.60694 -0.918853,1.19316 -0.809253,1.30276 0.1096,0.10959 1.747174,1.16666 3.639054,2.3487 1.89188,1.18204 3.5263,2.16011 3.63182,2.17351 0.346235,0.0441 0.20873,-0.44211 -1.33997,-4.74131 -0.946895,-2.62861 -1.476946,-4.4691 -1.388546,-4.82142 0.09367,-0.37321 -0.315191,-1.57601 -1.184941,-3.48505 -0.730475,-1.60338 -1.466105,-3.48682 -1.634525,-4.18528 l -0.305925,-1.26969 -3.435966,-1.71927 c -1.88978,-0.94556 -3.566077,-1.72682 -3.724837,-1.73582 z m -2.175578,0.49507 c -0.240905,0 -0.989087,1.36611 -0.989087,1.80609 0,0.1632 0.374239,0.87612 0.831474,1.5844 l 0.831474,1.28777 0.08578,-0.99632 c 0.09598,-1.10858 -0.434844,-3.68194 -0.759644,-3.68194 z M 140.39246,155.467 c -2.89546,-7.4e-4 -4.43103,0.71864 -6.72775,3.15329 -2.98832,3.16778 -4.80294,7.97389 -4.80694,12.72894 -0.003,3.76241 0.96866,5.99399 3.27318,7.52047 0.63884,0.42315 1.40101,0.76788 1.69344,0.76688 0.96229,-0.004 3.0755,-1.44763 4.80694,-3.283 2.00373,-2.12406 3.99003,-5.8743 4.8302,-9.12038 0.92926,-3.59024 0.64226,-10.51133 -0.47439,-11.43806 -0.25352,-0.21041 -1.1829,-0.32777 -2.59468,-0.32814 z m -117.446057,2.17351 c -0.13568,0 -0.246497,0.11849 -0.246497,0.26303 0,0.27628 7.34383,14.82061 8.262545,16.36386 0.29313,0.49242 1.625832,2.41804 2.961577,4.27932 1.33573,1.86133 2.48043,3.33266 2.54403,3.26906 0.10863,-0.10863 1.370428,-8.09551 2.115633,-13.39247 0.32185,-2.28772 0.315013,-2.40305 -0.161747,-2.68562 -1.55265,-0.92026 -15.269401,-8.09718 -15.475541,-8.09718 z m 3.095418,0.54312 c -0.0504,0.0937 0.883574,0.66069 3.105754,1.90686 l 2.889229,1.62057 0.07907,-1.17564 c 0.04368,-0.64655 -0.01361,-1.26459 -0.127641,-1.37356 -0.11403,-0.10896 -1.30102,-0.3269 -2.637565,-0.48421 -1.33653,-0.15732 -2.660047,-0.3544 -2.941422,-0.4377 -0.22432,-0.0664 -0.350618,-0.0876 -0.36742,-0.0563 z m -13.062252,3.96875 c 0,0.0924 0.604456,1.35895 1.343071,2.81481 1.335475,2.6323 1.887722,3.2897 1.635042,1.94614 -0.07275,-0.38689 -0.204488,-1.35714 -0.292488,-2.15594 -0.15747,-1.43 -0.179292,-1.46291 -1.422652,-2.11305 -0.69458,-0.36318 -1.262973,-0.58436 -1.262973,-0.49196 z m 155.695921,2.60707 c -1.07582,0.0856 -1.21464,0.18427 -2.07119,1.47433 -0.50495,0.76051 -0.84037,1.38286 -0.74517,1.38286 0.31005,0 4.15188,-2.65287 4.05918,-2.80293 -0.0496,-0.0802 -0.60861,-0.1045 -1.24282,-0.0543 z m -4.69945,0.30231 c 0.13847,-0.0317 0.2509,-0.0178 0.32143,0.0527 0.0565,0.0565 -0.46975,0.66735 -1.16996,1.35702 -1.38507,1.36425 -1.63937,1.2909 -0.63717,-0.18397 0.42407,-0.62403 1.07029,-1.13063 1.4857,-1.22576 z m -70.793097,2.71818 c -0.371656,0.005 -0.731138,0.0431 -1.03818,0.12041 -0.635485,0.16001 -1.230821,0.41264 -1.322916,0.56172 -0.09213,0.14908 0.381242,0.76822 1.052132,1.37563 0.670895,0.60735 1.29843,1.10432 1.39423,1.10432 0.405945,0 2.665244,-2.22908 2.511474,-2.47788 -0.256188,-0.41454 -1.481776,-0.69869 -2.59674,-0.6842 z m 78.314597,6.3252 c -0.0729,-0.0729 -0.63223,-0.0339 -1.24282,0.0868 -1.20606,0.23836 -1.29808,0.36011 -2.41845,3.21893 -0.41705,1.06419 -0.48826,1.47055 -0.24805,1.41335 0.41704,-0.0993 4.09242,-4.53604 3.90932,-4.71909 z m -3.55069,0.30179 c -0.0648,-0.0523 -9.76325,1.30734 -9.81645,1.37614 -1.73859,2.251 -2.43038,3.40188 -2.20658,3.67109 0.20064,0.24141 -0.0416,0.29243 -1.06144,0.22273 l -1.32136,-0.0904 0.63923,0.71986 c 0.35173,0.39578 1.73304,1.77627 3.06958,3.06803 1.33655,1.29175 2.51538,2.2976 2.61948,2.235 0.2538,-0.15253 3.39766,-4.4064 4.79041,-6.48177 0.61369,-0.91448 1.62231,-2.33602 2.24172,-3.15898 0.6194,-0.82296 1.09001,-1.52556 1.04541,-1.56166 z M 7.4569092,174.58728 c -0.069014,0.0187 -0.097764,0.0659 -0.071314,0.13746 0.05182,0.1403 2.9723268,3.27837 6.4895258,6.97373 3.517215,3.69536 6.740284,7.10317 7.162354,7.57266 0.735755,0.81842 0.892855,0.86952 3.81217,1.24179 1.67466,0.21357 3.101249,0.33162 3.17035,0.26252 0.1116,-0.1116 -1.962075,-2.3517 -9.711036,-10.49032 l -2.216919,-2.32854 6.053894,1.08727 c 3.329535,0.59781 6.365922,1.09109 6.747392,1.09709 0.779705,0.0113 0.640856,-0.35082 2.015382,5.25395 0.448535,1.82891 0.919352,3.44048 1.046447,3.58117 0.1271,0.14069 0.929151,0.49008 1.782321,0.7767 1.51565,0.5092 1.56521,0.55544 2.157491,2.01125 l 0.606164,1.48983 -0.697632,-0.14831 c -4.274965,-0.90986 -11.482645,-1.97357 -10.67325,-1.5751 0.14069,0.0693 1.003754,0.28991 1.918229,0.49041 l 1.662948,0.36432 -1.918746,-0.14263 c -1.055165,-0.0787 -2.471933,-0.28418 -3.148128,-0.4563 -1.104195,-0.28105 -1.213346,-0.27046 -1.072286,0.10128 0.08638,0.22765 2.185686,4.20087 4.664831,8.82944 3.438645,6.41992 4.677978,8.51242 5.226038,8.82478 0.395125,0.22519 1.059809,1.04264 1.477429,1.81643 0.41763,0.77379 2.037433,2.87467 3.599263,4.66845 2.2134,2.54212 2.723253,3.2613 2.313038,3.2613 -0.28946,0 -0.526066,0.12062 -0.526066,0.2682 0,0.14757 1.064903,1.46184 2.366263,2.92023 1.301375,1.45838 2.423505,2.5942 2.493905,2.5244 0.10725,-0.10645 1.019758,-14.96749 0.926558,-15.09056 -0.01719,-0.0227 -2.045685,-0.29201 -4.507735,-0.59841 -2.462045,-0.30641 -4.649128,-0.62183 -4.860168,-0.70073 -0.21103,-0.0789 0.192107,-0.24405 0.895552,-0.3669 3.003435,-0.52453 3.96283,-0.7745 3.82509,-0.99736 -0.08054,-0.13032 -0.571093,-0.23609 -1.090373,-0.23409 -0.519275,0.002 -2.287651,-0.13745 -3.929476,-0.30851 l -2.985347,-0.31058 -3.66541,-6.3903 c -2.01609,-3.51461 -3.80273,-6.6369 -3.9703,-6.93808 -0.30345,-0.54539 -0.289952,-0.54464 3.325378,0.17311 7.931515,1.57464 10.687779,2.06649 10.823629,1.93064 0.12878,-0.12879 -7.849916,-16.03016 -8.387601,-16.7163 -0.12552,-0.16018 -0.886615,-0.37262 -1.69137,-0.47232 -2.35231,-0.29137 -20.6014254,-3.1934 -21.1258429,-3.35948 -0.1340945,-0.0425 -0.2436291,-0.0522 -0.3126424,-0.0336 z M 166.22861,175.3247 c 0.18383,-0.0613 -0.03,0.34865 -0.47542,0.91105 -1.22658,1.54869 -1.84523,1.91826 -0.78703,0.47026 0.51055,-0.69862 1.07863,-1.32001 1.26245,-1.38131 z m 11.91814,0.31367 c -0.072,-0.0721 -0.58532,0.36703 -1.14102,0.97566 -2.33205,2.55414 -6.95699,7.89032 -7.31635,8.44134 -0.21354,0.32744 -0.80611,2.43707 -1.31671,4.68809 -0.51061,2.25098 -1.0842,4.76131 -1.27434,5.57847 -0.19018,0.81717 -0.25327,1.45003 -0.14056,1.40663 0.11271,-0.0434 1.83304,-2.03541 3.82302,-4.42712 l 3.61838,-4.34857 1.41904,-4.47673 c 0.78071,-2.46205 1.65393,-5.20332 1.93993,-6.09162 0.28599,-0.88829 0.46061,-1.67415 0.38861,-1.74615 z m -69.98126,0.66818 c -0.20651,-0.0594 -0.6299,0.2482 -1.68052,1.13947 -3.40925,2.89216 -4.75064,3.11421 -9.560654,1.58181 -1.59422,-0.5079 -3.252144,-0.92346 -3.684529,-0.92346 -0.43239,0 -2.063118,0.41759 -3.624068,0.92811 -4.6186,1.51055 -6.042198,1.29256 -9.292973,-1.42368 -1.573235,-1.31457 -2.1146,-1.56116 -2.1146,-0.96325 0,0.80617 3.319373,3.40024 5.201233,4.06487 1.64036,0.57934 2.7001,0.46046 6.33398,-0.71004 1.490605,-0.48014 3.072945,-0.87281 3.516065,-0.87281 0.443115,0 2.101039,0.42634 3.684529,0.94723 3.612487,1.18831 5.122967,1.24471 7.122047,0.26665 1.91478,-0.93682 4.4774,-3.26566 4.24884,-3.86127 -0.0358,-0.0934 -0.0805,-0.15382 -0.14935,-0.17363 z m -37.729996,2.57866 c -0.10923,0.10918 1.929659,8.86698 2.930054,12.58527 0.308735,1.14756 0.356957,1.17135 6.633187,3.25769 4.127275,1.37195 9.084481,2.64472 11.255126,2.88974 0.49241,0.0556 1.816435,0.11488 2.94194,0.13178 1.84069,0.0276 1.981852,-0.004 1.406632,-0.30851 -0.609465,-0.32314 -5.140153,-1.84736 -8.697143,-2.92592 l -1.662431,-0.50385 1.980241,0.0212 c 1.089175,0.0116 2.039832,-0.0389 2.112532,-0.11162 0.07274,-0.0727 -1.59547,-0.6898 -3.70675,-1.37149 l -3.838526,-1.2392 -5.180562,-5.73144 c -2.849215,-3.15199 -5.37393,-5.97765 -5.61051,-6.2792 -0.23658,-0.30154 -0.49019,-0.48804 -0.56379,-0.41444 z m 100.141696,0.71985 -0.8444,0.0811 c -0.81251,0.0781 -0.84691,0.12688 -0.92191,1.29604 -0.1016,1.58343 0.28017,1.55535 1.1095,-0.0811 z m -112.206593,0.0341 c -0.11813,0 0.700152,0.63258 1.817977,1.4056 1.97586,1.36636 3.573053,2.59809 3.055628,2.35645 -1.714825,-0.80085 -7.115307,-2.99235 -7.356657,-2.98535 -0.17475,0.005 -0.644162,0.27653 -1.043347,0.60306 l -0.725538,0.59377 4.270024,2.5094 c 2.34856,1.38036 6.416242,3.69052 9.039242,5.13354 2.623005,1.44303 4.832711,2.63223 4.910811,2.64273 0.23611,0.0317 -0.953044,-6.39405 -1.235584,-6.67659 -0.388845,-0.38885 -12.234546,-5.58261 -12.732556,-5.58261 z m 123.456033,0.0599 c -0.16204,0.0808 -0.28576,0.47447 -0.47646,1.28312 -0.17417,0.73862 -0.38846,1.63059 -0.47646,1.98231 -0.22429,0.89653 0.19297,0.42198 1.06195,-1.20819 0.58849,-1.10393 0.65584,-1.40389 0.38809,-1.72651 -0.12658,-0.15258 -0.22981,-0.25946 -0.31832,-0.31109 -0.0664,-0.0387 -0.12479,-0.0466 -0.1788,-0.0196 z m -12.98681,3.77755 c -0.90278,2.5e-4 -1.02695,0.0942 -1.6924,1.27899 -0.39501,0.7033 -0.60694,1.27847 -0.47077,1.27847 0.27958,0 2.71817,-1.87889 2.97243,-2.2903 0.104,-0.16824 -0.19637,-0.26732 -0.80926,-0.26716 z m -155.267005,2.13475 c -0.07555,0.0755 0.353897,0.7193 0.953947,1.43092 0.600045,0.71163 1.194913,1.29398 1.321883,1.29398 0.12698,0 0.178088,-0.0862 0.113688,-0.19172 -0.06439,-0.10551 -0.246083,-0.67255 -0.403593,-1.25987 -0.23831,-0.88859 -0.417203,-1.09645 -1.067118,-1.2392 -0.42957,-0.0944 -0.843307,-0.10965 -0.918807,-0.0341 z m 153.269715,2.76469 c -0.28138,0.0689 -2.01932,0.51485 -3.86178,0.99064 l -3.34967,0.86506 -1.52704,5.31905 c -0.83973,2.92567 -1.44728,5.31958 -1.34978,5.31958 0.0975,0 1.15006,-1.29516 2.33939,-2.87786 2.62261,-3.49013 4.35671,-5.58552 6.57892,-7.95146 1.08926,-1.15966 1.50139,-1.74621 1.16996,-1.66501 z m -1.69757,5.46788 c -0.0616,-0.0616 -0.66848,0.0844 -1.34876,0.32401 -1.06714,0.37582 -1.40204,0.68141 -2.43964,2.22622 -0.66146,0.98482 -1.28708,1.93409 -1.39061,2.10995 -0.33796,0.57408 0.10887,0.33897 1.45831,-0.76739 1.51326,-1.24072 3.88808,-3.72541 3.7207,-3.89279 z m -1.24437,5.95571 c 0,-0.0725 -1.52533,0.63362 -3.38946,1.5689 -1.86413,0.93528 -4.76026,2.32546 -6.43578,3.08921 -2.10278,0.95857 -4.36152,2.3021 -7.29206,4.33669 -2.33508,1.62118 -5.0504,3.50085 -6.03426,4.17752 -0.98386,0.67667 -2.7094,1.87626 -3.83491,2.66547 -1.12552,0.7892 -3.63851,2.5232 -5.58415,3.85352 -1.94563,1.33026 -3.60051,2.58343 -3.67781,2.78484 -0.0773,0.20141 0.29169,3.06524 0.8201,6.36343 0.52841,3.29823 0.99978,5.99654 1.04748,5.99654 0.0477,0 2.8246,-1.70488 6.17069,-3.7884 3.34604,-2.08352 6.83182,-4.23433 7.74629,-4.77956 2.59158,-1.54509 5.14959,-3.25042 5.04001,-3.36 -0.0547,-0.0547 -1.81515,0.71748 -3.91243,1.71618 -2.09728,0.9987 -4.19296,1.97489 -4.65656,2.16886 l -0.84284,0.35243 0.49816,-0.69505 c 0.27398,-0.38238 0.79725,-0.97461 1.16272,-1.31568 0.36548,-0.34108 0.66456,-0.79382 0.66456,-1.00666 0,-0.27035 -0.24959,-0.16058 -0.82786,0.36432 -0.88801,0.80606 1.98522,-2.19549 13.12065,-13.70562 8.20311,-8.47913 10.21746,-10.60572 10.21746,-10.78694 z m -147.003947,0.61908 c -0.207614,0.14886 0.47061,0.87899 2.230355,2.46394 2.2608,2.03617 2.76419,2.40539 2.39882,1.76061 -1.542345,-2.72181 -2.518029,-4.02931 -3.009119,-4.03231 -0.301985,-0.002 -0.807929,-0.0728 -1.124479,-0.15761 -0.258815,-0.0694 -0.426372,-0.0842 -0.495577,-0.0346 z m 136.189617,3.10938 c -0.0551,-0.055 -3.48579,0.47522 -7.62434,1.17822 -12.64796,2.1485 -20.05625,3.41712 -20.10885,3.44372 -0.062,0.0314 1.72011,12.17144 1.84898,12.59561 0.0536,0.17625 2.84284,-1.54957 6.56498,-4.06177 3.55962,-2.40252 9.38549,-6.32317 12.94598,-8.71213 3.56049,-2.38896 6.42825,-4.38865 6.37325,-4.44365 z m 31.94327,0.22427 c -0.0872,-0.0872 -4.77781,3.47764 -6.53552,4.96714 -0.0632,0.0535 0.22242,1.41809 0.63459,3.03237 0.41216,1.61428 0.85344,2.90021 0.98082,2.85771 0.28541,-0.0951 5.08685,-10.69048 4.92011,-10.85722 z M 27.067082,205.4748 c -0.09518,0 -0.425876,0.5992 -0.735356,1.3317 l -0.562756,1.33222 0.947229,0.96996 c 0.521135,0.53369 0.996783,0.97049 1.056783,0.97049 0.1162,0 -0.157879,-2.7261 -0.392224,-3.90106 -0.07717,-0.3869 -0.218476,-0.70331 -0.313676,-0.70331 z m 138.147118,1.99574 -3.54758,0.077 -0.16898,1.71359 c -0.093,0.94245 -0.2386,2.09936 -0.3235,2.57142 v 5.1e-4 c -0.18104,1.007 -0.63858,1.21134 4.11913,-1.84484 1.82124,-1.16992 3.34687,-2.23244 3.38997,-2.3611 0.0457,-0.13629 -1.40169,-0.20148 -3.46904,-0.15658 z m -93.651126,3.54655 c -0.17189,0.19244 -3.331483,11.23198 -3.331063,11.63857 1e-4,0.0937 1.29512,0.85403 2.87786,1.6893 13.430305,7.08765 20.152776,10.70974 20.911386,11.26702 0.492405,0.36169 3.370153,2.68201 6.394958,5.15627 5.602465,4.58273 13.862505,11.25879 14.999605,12.12329 0.34578,0.26287 0.67944,0.42747 0.74104,0.36587 0.0616,-0.0616 -0.12125,-0.95315 -0.40618,-1.98127 -0.28492,-1.02818 -0.47285,-1.91461 -0.41755,-1.96991 0.0553,-0.0553 0.40554,0.57872 0.77825,1.40922 0.37271,0.8305 1.09493,2.41589 1.60507,3.52278 0.51015,1.1069 0.97545,1.8814 1.03405,1.72134 0.0586,-0.16006 -0.18958,-1.48356 -0.55191,-2.94142 -1.29917,-5.22728 -4.84378,-18.12648 -4.98057,-18.12448 -0.0767,0.001 -1.47926,2.25696 -3.11661,5.01365 l -2.97708,5.0121 -3.29024,-3.90984 C 92.079247,229.41662 90.349262,227.48842 86.963167,224.43436 75.946892,214.49834 71.732904,210.82695 71.563074,211.01709 Z m -41.787114,1.1281 c -0.386847,-0.0117 -0.628714,0.009 -0.606164,0.077 0.19822,0.59465 4.948815,5.48709 5.34851,5.50819 0.23959,0.0126 0.733815,-0.11306 1.098125,-0.27905 0.573095,-0.26112 0.737645,-0.2266 1.22008,0.25579 0.58057,0.58057 0.896785,0.66235 1.56838,0.40463 0.30434,-0.11678 -0.13106,-0.74839 -1.83348,-2.65823 -1.228015,-1.37766 -2.405338,-2.58538 -2.616378,-2.68408 -0.552393,-0.25826 -3.018524,-0.58914 -4.179073,-0.62425 z m 126.41296,0.46561 c -0.15807,0.005 -1.04139,2.01085 -2.5983,5.90971 -1.20781,3.02481 -2.27274,5.70123 -2.36574,5.94744 -0.21549,0.57028 0.007,0.54741 1.39991,-0.14314 l 1.13017,-0.56017 1.07952,-4.86017 c 0.59364,-2.67309 1.16439,-5.2055 1.26865,-5.62757 0.11043,-0.44705 0.13844,-0.66776 0.0858,-0.6661 z m -31.74225,1.81694 c -0.0782,0 -0.27595,0.77686 -0.43925,1.72651 -0.30153,1.75348 -1.99738,9.70026 -2.1699,10.16837 -0.0518,0.14069 -0.0973,-1.62596 -0.10025,-3.92534 -0.003,-2.29938 -0.0548,-4.22923 -0.1142,-4.28863 -0.0594,-0.0594 -2.15976,3.31831 -4.66742,7.506 -2.50766,4.18774 -4.67467,7.80397 -4.81572,8.03569 -0.2044,0.33569 0.69516,1.85522 4.42608,7.47654 2.57549,3.88043 4.78272,6.99353 4.90513,6.91793 0.1224,-0.0757 0.23081,-0.62013 0.24081,-1.20975 0.01,-0.58963 0.1168,-1.30198 0.23771,-1.58336 0.14445,-0.33618 0.22656,0.32135 0.23926,1.91823 0.0107,1.3365 0.14838,2.89077 0.30593,3.45353 0.5833,2.0834 0.70643,0.77709 1.37769,-14.5805 0.46916,-10.73369 0.75836,-21.61522 0.57413,-21.61522 z m -69.995213,0.13281 -0.900721,1.02061 c -0.495565,0.56146 -0.905572,1.12006 -0.911572,1.24126 -0.0059,0.1212 0.894377,1.50256 2.000912,3.06958 3.059585,4.33297 13.603129,19.65846 13.878739,20.17345 0.13354,0.24952 0.335372,0.45372 0.448552,0.45372 0.188025,0 2.845821,-9.4825 2.845821,-10.15339 0,-0.27696 -1.242422,-1.02536 -4.826062,-2.90731 -1.592225,-0.83615 -1.636778,-0.84407 -1.998328,-0.35605 -0.33085,0.44662 -0.401404,0.45648 -0.673344,0.0977 -0.238,-0.31414 -7.321819,-9.39266 -9.432499,-12.08867 z m -4.364075,0.59738 c -0.142074,0.10669 -0.407617,0.76763 -1.000972,2.13527 l -0.521932,1.20251 0.817004,1.40973 c 0.449295,0.77538 0.903214,1.41404 1.008724,1.41904 0.23084,0.0115 0.205755,-2.84722 -0.04341,-4.978 -0.09911,-0.84757 -0.117342,-1.29524 -0.259416,-1.18855 z m -16.090491,4.77645 c -0.588515,0.004 -1.098014,0.0722 -1.131714,0.15244 -0.03374,0.0802 0.828824,0.86171 1.916679,1.73685 1.087865,0.87514 2.044352,1.6986 2.125452,1.82986 0.17616,0.28503 0.630251,0.31947 0.624251,0.047 -0.0025,-0.10551 -0.55793,-0.99749 -1.23455,-1.98231 -1.195075,-1.73941 -1.260643,-1.79087 -2.300118,-1.78387 z m 17.126087,4.48965 c -0.03895,0.005 -0.03683,0.0637 0.01344,0.18397 0.04689,0.11219 0.484537,1.26328 0.973067,2.55798 l 0.888318,2.35386 h 1.236617 c 1.152795,0 1.21387,-0.0321 0.90227,-0.47284 -1.480333,-2.09389 -3.741066,-4.65891 -4.013708,-4.62297 z m 24.899255,8.73125 c -0.05927,0.0593 0.245885,1.71129 0.677995,3.67161 0.821675,3.72765 3.449358,15.42027 4.379578,19.4877 0.297615,1.30138 0.607963,2.36409 0.689363,2.36109 0.17932,-0.006 8.973096,-17.23991 8.973096,-17.58497 0,-0.26738 -14.546302,-8.10915 -14.720032,-7.93543 z m 63.231287,1.73633 c -0.12111,0 -9.35934,5.3256 -9.61234,5.54126 -0.0608,0.0518 0.0976,1.64633 0.35244,3.54345 0.25488,1.89711 0.53488,3.44514 0.62218,3.44114 0.18602,-0.009 0.0404,0.19105 4.28294,-5.8751 3.46552,-4.95513 4.57558,-6.65075 4.35478,-6.65075 z m 3.31762,3.83697 c -0.4069,0 -4.05225,0.73979 -4.15582,0.84336 -0.0733,0.0733 -0.86196,4.91675 -0.86196,5.29322 0,0.14221 0.0425,0.25838 0.0946,0.25838 0.0521,0 1.26672,-1.43861 2.69906,-3.19722 1.49076,-1.83034 2.44169,-3.19774 2.22415,-3.19774 z m -49.611439,4.38268 c -0.04686,0.0743 -1.105964,2.68117 -2.159559,5.31544 -0.103665,0.25918 -0.04167,0.29951 0.218592,0.14159 0.459595,-0.27888 4.687991,-4.00678 4.780586,-4.21473 0.07417,-0.16661 -2.741224,-1.39832 -2.839619,-1.2423 z m -15.514816,0.39791 c -0.09966,0.11424 -0.491291,1.64649 -0.870231,3.40547 l -0.688847,3.19826 1.318783,2.36575 c 0.725475,1.30091 1.430726,2.36523 1.567346,2.36523 0.14095,0 0.189004,-0.41493 0.111104,-0.95912 -0.07553,-0.52759 -0.203103,-1.64976 -0.283703,-2.4939 -0.3619,-3.78795 -0.989262,-8.07106 -1.154452,-7.88169 z m 20.158976,2.69647 c -0.400575,0.13616 -7.88479,7.15976 -7.88479,7.39955 0,0.13488 0.364677,0.69916 0.810287,1.25367 0.445605,0.55451 0.870528,1.00821 0.944128,1.00821 0.07357,0 1.687985,-1.17999 3.587895,-2.62206 1.89991,-1.44206 3.609265,-2.73893 3.798735,-2.882 0.282885,-0.2136 0.219579,-0.61478 -0.354501,-2.24327 -0.384495,-1.0907 -0.790214,-1.952 -0.901754,-1.9141 z m 1.860869,10.81278 c -0.02698,-0.23015 -1.223324,1.5383 -2.429309,3.59151 l -0.457337,0.77825 1.111044,1.16892 c 0.610975,0.64297 1.186175,1.18518 1.278475,1.20458 0.290575,0.061 0.678337,-5.19758 0.497127,-6.74326 z m -5.402771,3.75739 c -0.112103,0.055 -0.05804,0.42436 0.173116,1.10278 0.32263,0.94686 0.504001,1.15083 1.022676,1.15083 0.68936,0 0.667379,-0.0873 -0.371036,-1.47071 -0.43438,-0.57869 -0.712654,-0.8379 -0.824756,-0.7829 z" /><path
       style="fill:#000000;stroke:#000000;stroke-width:0.1"
       d="m 162.8345,133.30039 c -1.40267,2.01412 -2.80066,4.93386 -4.53099,6.66419 -0.12202,0.12202 -1.20267,1.67467 -1.33945,1.53789 -0.28664,-0.28664 -0.18248,-0.9592 -0.0661,-1.28984 0.28063,-0.79758 4.65273,-6.79553 5.93659,-6.91224 z"
       id="path324" /><path
       style="fill:#000000;stroke:#000000;stroke-width:0.1"
       d="m 161.99114,165.71185 c 0.33886,-0.12337 0.67155,-0.29143 0.95912,-0.51263 0.32415,-0.24935 0.69702,-0.53619 1.07487,-0.34727 1.31161,0.65581 -1.95779,2.88404 -2.16628,2.74505 -0.76608,-0.51072 0.42493,-1.37304 0.13229,-1.88515 z"
       id="path325" /><path
       style="fill:#000000;stroke:#000000;stroke-width:0.1"
       d="m 164.2401,175.66679 c 3.6005,-1.46199 1.99042,1.12973 0.28112,1.98438 -0.77785,0.38892 -0.5515,-1.66893 -0.28112,-1.98438 z"
       id="path326" /><path
       style="fill:#000000;stroke:#000000;stroke-width:0.1"
       d="m 103.53476,90.454426 c -0.42717,0.815493 -1.26055,1.034881 -2.06705,1.322917 -1.734434,0.619439 -2.974031,0.46787 -4.481383,-0.628386 -0.232519,-0.169106 -1.032984,-0.679085 -0.843359,-1.058333 0.136879,-0.273757 1.547103,0.06398 1.752864,0.08268 0.730472,0.06641 1.481897,0.104061 2.215888,0.132292 0.94502,0.03635 2.80553,-0.365768 3.42304,0.148828 z"
       id="path327" /><path
       style="fill:#000000;stroke:#000000;stroke-width:0.1"
       d="m 16.338021,48.286458 -0.396875,-6.846094 3.704166,5.523178"
       id="path333" /><path
       style="fill:#000000;stroke:#000000;stroke-width:0.1"
       d="m 88.536197,93.28216 -8.681641,-1.752864 0.38034,2.265495 7.325651,0.148829"
       id="path334" /></g></svg>
