<?xml version="1.0" encoding="UTF-8"?>
<svg id="katman_1" data-name="katman 1" xmlns="http://www.w3.org/2000/svg" viewBox="0 0 841.89 595.28">
  <path d="M328.12,185.95c2.9-1.6,4.8-.62,7.87-.57-8.04-13.42,7.39-8.97,14.63-6.19-.98-3.36-2.95-5.89-3.77-9.46-.33-1.42-1.54-5.14.2-5.69l27.78,10.08c-2.66-5.36-4.41-11.47-3.37-17.45l1.38.02,32.12,21.36c1.47.12.59-.22.4-.96-1.18-4.62-3.29-9.32-2.1-14.22,5.66,3.84,10.33,8.85,15.87,12.84,9.75,7.02,20.46,12.31,29.71,20.38,5.38,4.7,9.81,10.29,14.36,15.74,7.25-11.37,15.51-23.11,24.49-33.22,27.67-31.17,71.36-50.25,109.91-64.58,8.94-3.32,25.49-10.17,34.33-11.25,6.77-.83,6.88,1.32,5.22,6.91-5.48,18.54-19.62,42.91-30.18,59.31-30.47,47.34-59.23,65.26-112.81,81.38-3.01.9-10.49,2.13-12.55,3.21-.4.21-.8.29-.91.81,1.51,20.35-2.25,40.91-6.84,60.65l11.52,5.36c8.52-11.68,16.72-22.05,28.64-30.47,16.24-11.47,35.89-16.27,53.33-25.47,20.38-10.76,39.47-25.43,44.46-49.26,1.94.41.83,3.78,2.8,3.37l.85-3.93c7.14,13.74,11.95,28.66,15.3,43.78,9.82,44.22,12.85,92.06-1.36,135.62-14.66,44.93-55.83,78.9-104.28,77.8-.14,12.13-1.45,24.55-6.09,35.85-1.7,4.13-5.22,8.71-6.57,12.57-3.5,10.02-3.1,22.74-11.98,30.96-13.28,12.3-57.1,8.09-45.46-15.79.99-2.02,7.28-9.82,7.01-10.85-6.41-4.72-9.66-11.58-11.17-19.28l-7.57-.85c-4.19,11.37-7.56,23.14-10.88,34.82-3.13,11.04-3.85,23.62-13.65,31.38-11.32,8.95-48.45,8.74-50.13-10.12-.77-8.65,4.57-14.38,6.72-22.04.3-1.09-.12-.63-.71-.84-1.66-.59-3.5-.35-5.17-.92l-.55.39c-1.17,12.62-6.09,24.8-19.16,28.7-10.84,3.24-33.36,2.97-40.77-7-7.05-9.49,2.74-18.5,5.21-27.43,5.51-19.91-12.08-56.38-15.74-76.86-.38-.94-9.11-13.34-9.77-13.87-1.18-.95-2.83-.92-4.04-1.59-16.51-9.17-25.06-21.55-28.02-40.37l-2.83,5.89-1.11,4.8c-3.33-2.02-4.59-6.48-5.36-10.11-3.89-18.26,1.13-36.32,12.68-50.67-1.2-.08-2.45.13-3.65-.01s-12.44-2.53-10.98-4.49c16.85-2.13,25.17-21.62,42.22-22.52-4.19-14.23,2.82-26.38,5.36-39.95,3.51-18.79,3.25-38.57,12.61-55.96-20.77-16.58-39.49-36.01-50.15-60.75-12.66-29.39-14.85-73.21-9.86-104.61.82-5.19.57-10.64,7.09-6.88,7.34,4.23,22.31,20.87,28.48,27.8,23.97,26.94,40.91,55.7,45.78,92.11.56,4.19.4,8.44,1.21,12.58ZM311.8,215.78c1.1.29,1.09-.45,1.58-.94,1.38-1.37,9.57-11.46,10.24-12.83,3.12-6.34.19-29.84-1.3-37.56-7.66-39.49-37.1-79.75-67.37-105.43-.62-.52-5.18-4.13-5.63-3.65-7.53,47.24-4.31,99.91,27.03,138.16,3.44,4.2,27.52,28.98,30.67,29.01,1.42.02,3.49-4.03,4.23-5.34-7.08-5.61-14.11-12.48-20.29-19.13-27.86-30-36.74-59.73-37.16-100.79l1.71-22.77c.98-.25,1.12.41,1.69.84,2.42,1.86,6.24,6.05,8.45,8.43,13.07,14.05,28.01,32.24,36.86,49.25,11.03,21.21,14,45.69,18.29,68.95l-6.74-5.66-1.15.61,3.94,12.09c-.53.56-6.54-4.19-7.5-4.61-.69-.3-1.32-.5-1.51.4l3.95,10.96ZM313.47,177.51c-2.18-9.54-3.98-19.2-7.3-28.43-8.88-24.66-28.35-48.55-46.44-67.26-.59-.61-.99-1.31-1.97-1.11-1.04.75-.72,22.46-.59,25.63.98,23.61,6.62,51.33,20.39,70.79,4.23,5.97,5.1,6.19,10.54,10.29,3.86,2.9,7.52,6.06,11.59,8.67l-3.52-14.22.44-1.52,8.98,3.93-2.81-12.94c1.57-1.36,9.09,5.16,10.69,6.19ZM634.87,105.46c-19.39,4.49-38.46,11.83-56.83,19.43-32.16,13.31-64.43,29.33-88.11,55.42-11.44,12.6-20.35,27.26-30.95,40.53-1.52-2.2,1.37-4.01,1.72-5.58.59-2.65-10.55-13.7-12.96-15.82-12.66-11.18-28.21-18.29-40.55-29.81-.89-.09-.95-.13-.77.77.7,3.45,3.33,9.43,3.33,12.45,0,.89.12.96-.87.87l-34.33-22.53c-1.51-.13-.5.29-.43.99.64,6.39,4.27,11.97,5.78,18.14l-29.83-11.81.27,2.25,7.04,13.5c-1.66,1.44-17.08-6.81-20.28-4.8-.99.62.34,3.41.72,4.39.91,2.39,2.59,4.21,3.24,6.6-2.48.76-9.28-4.63-11.02-2.27-1.23,1.67,3.02,6.51,2.32,7.89-9.53,12.77-23.12,24.94-28.47,40.24-6.33,18.09-5.42,37.66-10.4,56.02-4.56,16.84-8.11,26.56,4.77,41.39,33.16,38.15,106.21,49.74,148.12,20.32,21.33-14.97,27.18-44.94,30.24-69.38,1.25-9.96,1.84-20.06,1.21-30.04l-4.13.03-.93-1.44c7.67-3.08,16.19-4.37,24.19-6.75,54.47-16.19,81.57-37.17,111.34-85.1,10.7-17.22,20.86-36.4,26.56-55.89ZM614.61,229.29l-1.98-6.19c-1.65,3.02-2.54,6.31-4.13,9.38-7.8,15.03-23.1,24.76-37.23,33.13l-32.65,14.9c13.81,1.46,28.45,1.44,41.08-5.06.79,1.05-3.53,12.08-4.4,13.89-.48.99-3.98,5.82-3.47,6.37,6.78-2.89,12.56-7.52,18-12.38-1.1,8.78,2.74,17.03,3.38,25.62.47,6.36.02,13.64-.55,19.97.74.82,5.61-5.17,6.18-5.92,3.29-4.32,5.84-9.23,7.59-14.36l1.99-6.73c2.82,10.25,7,19.44,7.33,30.39l2.96-6.32c1.97-4.88,2.52-10.53,4.29-15.41.29-.78-.19-.97,1.18-.78-.31,3.03.97,5.69,1.99,8.42,2.21,5.91,5.77,13.25,8.55,19.03.32.67.3,1.66,1.28,1.81.6-28.26-2.82-56.89-9.38-84.33-2.47-10.35-5.27-20.97-10.03-30.49-.47.19-.44,6.57-1.96,5.06ZM576.89,279.39c-8.88,3.02-18.49,4.14-27.88,3.96-4.06-.08-9.53-1.34-13.49-1.19-6.42.25-22.78,12.08-27.86,16.64-7.59,6.8-13.52,15.08-19.6,23.19v1.23c12.39,8.14,18.37,25.24,33.68,28.78-3.56,4.2-11.4,4.4-16.32,2.81-.59.78,3.9,7.14,4.6,8.62,6.97,14.72,7.35,35.06-2.07,48.78-2,.03-5.95-12.41-5.92-14.62-1.03.22-1.04,1.11-1.14,1.95-.16,1.34-.65,5.18-.59,6.22.09,1.66,8.85,14.21,10.47,17.15,7.77,14.05,13.34,28.96,13.85,45.24.47,1.44,4.43.97,5.83.91,63.4-2.39,102.89-60.74,105-120.13.23-6.56-3.5-13.7-6.3-19.65-1.72-3.66-3.66-7.96-6.11-11.05l-7.88,23.07c-1.64-7.23-2.02-14.72-3.66-21.95-.69-3.04-1.4-7.43-3.66-9.56-1.31,5.79-5.16,12.07-9.03,16.59-.94,1.09-9.15,9.12-10.11,8.17,5.71-15.18,1.14-30.83-1.13-46.15l-11.24,7.61-10.71,3.64c4.9-6.02,9.47-12.53,11.25-20.25ZM513.29,352c-1.43-.31-2.61-1.3-3.67-2.25-11.61-10.45-19.91-27.61-36.53-31.01-2.09,6.68-4.47,13.21-8.2,19.16l7.88,4.51-9.03-2.51c-8.37,12.46-20.57,21.49-34.87,26.16-.39,1.46.87,1.11,1.7,1.93,5.18,5.12,9.42,9.22,13.03,15.7,12.52,22.47,8.6,50.09-7.97,69.33,3.28.33,6.12-2.59,8.44-4.51.45-.37,1.12-1.48,1.69-.56-.85,1.71-8.14,11.1-7.31,12.1,16.71-4.93,34.15-16.27,42.22-32.08l1.12.28c-.95,6.14-6.68,10.33-7.32,16.59.43.47,2.89-1.56,3.38-1.96,9.02-7.37,14.44-18.08,17.59-29.13,2.85-10,4.67-21.16,2.1-31.38,1.47-.28.99.28,1.38,1.12,3.16,6.77,5.09,15.59,8.13,22.29.3.66-.27,1.02,1.17.79,3.34-8.07,4.63-15.69,3.94-24.48-.67-8.44-5.97-21.51-11.26-28.14-.99-1.24-8.34-7.14-7.3-8.17l11.13,6.03c2.44.52,5.51,1.41,7.97,1.07.9-.12,1.61.26.59-.9ZM253.25,345.24h9.85c1.29,0,5.34-2.71,7.03-1.97-18.14,13.38-25.44,37.89-19.13,59.38,4.2-4.95,4.58-12.32,6.9-18.15.24-.6.16-1.68.97-1.55-.89,8.25.14,16.71,2.66,24.64,4.18,13.12,13.1,22.71,24.92,29.39-13.83-30.96-4.43-70,25.89-86.96-9.74-7.11-18.95-14.97-23.99-26.22-10.51,1.15-17.7,9.4-25.58,15.48l-9.52,5.96ZM423.8,398.99c.28,2.77-.2,5.91,0,8.72-1.13-.21-.93-1.19-1.12-1.97-.91-3.59-1.12-7.71-2.07-11.44-2.16-8.48-6.29-15.69-12.39-21.95-5.17-.07-10.51,1.34-15.63,1.61-19.91,1.04-39.2-3.35-57.35-11.17-8.57,3.99-14.13,11.47-20.06,18.46,2.57-6.32,7.61-12.4,12.99-16.56,1.06-.82,4.46-2.19,4.46-3.42l-17.2-9.3c-1.94-.19-8.13,4.48-9.82,5.91-23.75,20.1-29.23,55.51-13.74,82.42,3.67,6.38,9.6,13.54,16.56,16.36l-3.37-11.82,1.11-.26c-5.26-10.73-9.97-30.89-4.75-41.95.39-.83-.09-1.4,1.38-1.12-4.99,27.09,8.77,58.66,33.49,71.48.59-.14-.43-1.41-.6-1.65-4.41-5.97-9.01-12.24-11.75-19.21-.18-.46-1.73-4.49-.01-2.8,3.63,3.59,8.75,13.84,12.68,18.84,6.24,7.92,17.71,16.73,20.64,26.08.37,1.18.36,2.64.71,3.8.13.43-.2,1.22.85.81.34-.13,4.07-2.95,4.51-3.38,4.21-4.14,5.19-9.68,7.89-14.62,1.43,1.16.74,3.19.84,4.78.04.61-.3,1.88.84,1.39.85-.36,7.53-6.44,8.53-7.51,4.04-4.31,7.03-9.75,10.61-14.43.48,1.45-.91,3.78-1.57,5.18-1,2.1-3.75,5.42-4.34,6.92-.28.71.11,1.04.83.83,19.02-11.47,37.11-28.66,40.26-51.78.74-.89,1.02.06,1.12.84.84,6.61-2.41,14.13-5.53,19.81-1.64,2.99-5.78,7.63-6.84,10.04-.77,1.76,2-.73,1.69,1.12-.28,1.69-4.52,8.01-3.38,9.28,1.07.06,1.92-.87,2.76-1.46,29.71-21.05,44.81-61.97,16.32-91.07-1.05-1.07-6.95-6.41-7.84-6.82-.44-.2-.83-.37-1.32-.27l-13.3,3.66c6.17,7.85,11.93,17.41,12.95,27.57ZM472.49,555.18c3.09.34,6.69-.25,9.85,0-1.99-4.39-2.59-9.66-.32-14.11.31-.61,1.85-2.74,2.29-2.77,1.53-.11-.71,5.25-.8,5.94-.45,3.69-.33,8.07,3.11,10.23,15.66-1.67,19.41-17.94,22.17-30.81-3.39,1.21-6.24,3.53-9.69,4.65-.48.16-6.41,2-5.5.13,7.63-3.96,14.13-6.1,18.81-13.84,15.29-25.34,10.84-60.88-2.19-86.08-.71-1.38-10.06-18.15-10.98-17.44-3.2,11.69-8.64,24.83-18.01,32.93-1.78,1.54-7.66,5.82-9.59,6.73-.58.27-1.03.4-1.67.29.22-1.47.73-2.97.89-4.46.05-.48.65-1.7-.6-1.16-.48.21-4.21,3.84-5.42,4.72-9.16,6.7-18.2,11.19-29.5,13.27l-.62-1.15,2.03-6.14c-.15-.14-3.48.51-4.05.73-3,1.16-10.28,8.57-13.78,10.98-2.42,1.67-4.84,3.37-7.76,4.06-1.58-2.68.16-5.6.81-8.2.18-.74-.11-1.11-.81-.81-.94.41-4.11,4.29-5.35,5.35-7.09,6.11-14.99,11.18-23.67,14.72-.17,6.34-.2,12.74-.51,19.07-.54,11.09-.45,24.96-3.25,35.58-2.19,8.29-9.11,17.36-5.9,25.87,1.23,3.25,4.9,7.1,8.57,6.91-2.16-3.68-1.45-9.7,1.44-12.91.61-.67,3.48-2.98,3.07-.87-2.67,3.68-4.58,11.94-.54,15.16,2.92,2.33,13.09,2.06,16.86,1.43-2.32-3.66-2.55-7.6-1.3-11.71.47-1.54,1.65-5.05,3.56-3.75-1.64,3.32-2.78,13.33,1.67,14.69,2.73.83,10.61-3.41,12.7-5.38,7.96-7.52,13.58-36.21,16.86-47.87,3.3-11.72,6.74-21.46,9.11-33.67,1.29-6.66,1.23-14.35,4.4-20.36.37,12.17-1.85,24.48-4.8,36.29.03.35,6.11,1.53,6.83.53.66-13.38,7.32-24.8,13.46-36.25,2.6-.21.85,3.53.27,5.06-2.3,6.03-5.74,10.94-7.74,17.59-6.18,20.54-1.61,31.29,18.05,39.13.86.34,1.52-.33,1.23,1.27l-11.24-1.99c-6.81,7.83-14.19,18.87-1.71,25.63-1.13-5.31.87-13.49,6.76-15.19-1.08,2.82-3.12,5.37-3.68,8.41-1.12,6.06-.14,8.89,6.22,9.59ZM311.78,453.87l-1.12.28c2.4,12.09-2.6,4.92-8.44,2.81,4.46,20.81,15.7,45.17,16.33,66.42.3,10.1-6.05,15.34-8.16,23.9-1.45,5.87-.15,11.19,5.91,13.51-2.15-5.85.03-13.95,6.19-16.32-.71,3.2-3.43,6.05-3.88,9.33-1.66,12.09,8.08,10.44,16.83,10.92-.83-2.91-1.39-4.83-.87-7.91.26-1.56,2.62-7.66,4.52-7.28,1.56.31-.75,3.63-1,4.61-2.55,9.89-.24,12.25,9.62,9.62,11.69-3.11,17.37-14.41,18.15-25.75.89-13.07-.75-27.12-.02-40.26,1.45-.42,1.47,1.33,1.83,2.38.74,2.15,1.07,4.28,1.06,6.55l9.5,1.21.55-21.95c-1.96,1.45-3.69,3.31-5.66,4.75-1.32.97-3.35,1.48-4.6,2.56-1.39,1.2-2.42,3.5-4.11,5.06-1.04.96-7.18,5.28-8.16,4.83-1.7-2.79-1.38-6.27-2.7-9.7-5.41-14.03-18.86-15.97-29.07-24.4-4.75-3.92-9.72-9.85-12.69-15.18ZM368.64,510.15v23.64c5.79.18,7.74,3.81,8.43-3.67.59-6.33.51-13.05.58-19.41l-9.01-.56Z"/>
  <path d="M404.38,67.19c2.06.62,1.82,13.02.78,14.85-1.44,2.54-8.48,1.3-11.49,1.45-6.08.3-12.39,1.13-18.54.58-3.39-.31-6.04-.94-6.5-4.76-1.51-12.71.24-30.53.04-43.94-.06-4.04-2.68-11.93,3.62-12.65l30.85.13,1.97,1.97c.07,2.36,1.86,14.23-1.85,14.23h-16.6v5.63h13.79c2.68,0,2.45,13.36,1.3,15.37-.29.5-1.45,1.52-1.86,1.52h-12.38c-1.33,1.21-1.33,4.42,0,5.63h16.89ZM402.41,25.54h-30.96l.6,54.84c.42.85,1.09.83,1.9.92,6.14.69,19.03.46,25.38,0,1.26-.09,2.39-.5,3.64-.59v-10.69h-18.29l-.84-.84v-10.41h15.76v-11.26h-14.92l-.84-.84v-9.57l.84-.84h17.73v-10.69Z"/>
  <path d="M436.19,56.49c1.48.17.89-.03,1.13-.83,2.33-7.7,4.15-15.58,6.6-23.24.71-2.22,2.18-8.55,4.1-9.41,1.35-.6,14.56-.55,15.52.22,1.31,1.04.85,4.16.53,5.71l-16.76,51.91c-.73,2.65-2.78,3.02-5.2,3.24-3.01.28-14.17.56-15.76-1.73l-18.13-56.08c.15-2.91,1.42-3.35,4.01-3.59s12.62-.47,14.08,1.17l9.88,32.63ZM424.36,25.54h-12.66c-1.33.85-.48,2.22-.11,3.49,4.39,15.1,10.27,35.43,16.13,49.72.68,1.66.47,2.3,2.52,2.54s13.55.33,14.42-.98l16.85-54.77h-12.1c-4.85,11.44-6.88,24.03-10.97,35.75-.18.51-1.46,4.8-2.25,4.21l-11.83-39.96Z"/>
  <path d="M485.15,39.04l.53,5.38c1.33.92,10.69-.22,13.26.25,2.81.51,2.77,9.18,2.52,11.53-.13,1.24-1.14,5.36-2.52,5.36h-13.79c.21,1.85-.7,4.29.84,5.63h16.89c2.34,2.07,1.94,14.52-.1,15.8-1.77,1.12-10.6.38-13.44.5-1.33.05-2.57.59-3.89.61-3.56.05-14.22.48-16.82-1.1-2.38-1.45-1.36-11.99-1.48-14.98-.48-12.04-1.96-29.39-.6-41.08.39-3.37,2.26-3.94,5.34-4.23,6.86-.64,20.75-.63,27.63,0,1.79.16,3.16.34,4.07,2.12,1.07,2.08,1.42,14.23-1.29,14.23h-17.17ZM501.47,36.23v-9.85l-.84-.84h-30.68l.08,55.08,31.44.08v-10.69h-17.73c-.19,0-.85-.75-1.41-.56v-10.69h15.76c.99-3.64.71-7.57,0-11.26h-15.76v-11.26c2.68-.74,18.19,1.48,19.14,0Z"/>
  <path d="M363.85,67.19c.79.7,1.21,1.53,1.37,2.57.25,1.63.61,6.72.6,8.41-.04,4.59-1.74,5.58-5.89,5.93-6.91.59-20.19.63-27.06,0-3.74-.34-4.44-1.74-4.78-5.35-1.15-12.45.26-27.71.04-40.57-.08-4.76-3.08-14.61,4.19-15.47,6.11-.72,23.16-.71,29.29,0,2.92.34,3.43,1.48,3.67,4.21.27,2.99,1.01,11.44-2.57,12.11l-16.59.57v5.07h13.79c3.12,0,3.28,13.58,1.66,15.73-1.91,2.54-12.14.12-15.39,1.78l-.06,5.01h17.73ZM362.45,25.54h-31.52l.25,55.2c.4.58,1.09.48,1.7.55,5.26.63,22.47.7,27.64,0,.74-.1,2.5-.72,2.5-1.44v-9.01l-.84-.84h-18.29c-.26-3.47-1.6-8.18.28-11.26h14.63l.84-.84v-9.01c0-.19-.75-.85-.56-1.41h-14.92l-.84-.84v-9.85h17.73c.19,0,.85-.75,1.41-.56v-10.69Z"/>
  <path d="M538.9,44.67c1.29.23,1.75,1.4,1.92,2.56.3,2.13.69,14.32-1.92,14.32h-12.95c-1.33,1.21-1.33,4.42,0,5.63h17.45c2.09,2.12,1.95,12.78.78,14.85-1.41,2.48-6.95,1.31-9.78,1.48-6.71.4-14.08,1.15-20.85.58-1.67-.14-4.41-.47-5.37-1.95l-.8-57.16c1.24-1.71,2.46-2.1,4.47-2.29,6.53-.6,21.79-.73,28.18.01,1.76.2,3.41,1.04,3.96,2.8.58,1.85.63,11.69-.6,12.97-2.98,3.09-14.09-.43-17.36.65-1.66.55-1.05,5.55-.08,5.55,3.88.49,9.29-.67,12.95,0ZM522.86,36.79h17.73l.84-.84v-9.57l-.84-.84h-29.83l-.84.84v51.22c0,.48.89,2.05.66,3,.73.42,1.6.58,2.44.66,6.6.64,19.23.55,25.92.03,1.08-.09,2.04-.33,3.07-.59v-10.69h-19.14v-11.26h15.2c.52-3.71,1.11-7.59,0-11.26h-15.2v-10.69Z"/>
  <path d="M473.33,243.36c.02-3.07,10.46-7.93,10.71-8.72.08-.27.18-1.42-.3-1.41l-11.53,2.82c2.05-3.59,5.75-6.39,7.77-9.95.93-1.63,3.2-5.47-.12-5.24-2.2.15-9.73,6.65-11.85,8.46-.35.3-5.1,5.35-4.23,2.53,7.29-11.28,13.62-23.27,21.71-34.01,32.49-43.15,86.34-61.68,135.31-79.41-6.08,14.3-13.13,28.2-21.37,41.38-12.75,20.39-28.66,40.74-49.03,53.97-23.53,15.28-50.67,21.29-77.06,29.59ZM615.17,123.48c-24.74,8.96-50.52,18.64-73.55,31.42-13.43,7.46-20.56,13.67-29.67,26.05-2.68,3.64-10.72,14.78-12.03,18.36-.15.4-.41,1.21.14,1.27,2.63-.63,13.72-4.7,11.81.55-.53,1.45-8.08,10.28-7.58,10.71l10.69-1.12c1.91,1.83-8.32,9.46-9.29,10.68-.45.57-1.07.74-.83,1.69l27.03-2.51c29.96-12.93,49.98-38.02,66.63-65.07,6.29-10.22,12.19-20.86,16.65-32.03Z"/>
  <path d="M428.16,250.25c9.7-1.55,16.64,12.67,18.01,20.56,2.91,16.76-2.78,53.3-27.59,43.91-11.04-4.18-11.34-16.46-10.53-26.6.8-10.07,8.4-35.99,20.11-37.87ZM426.45,254.74c-7.6,1.74-9.29,24.13.44,24.13,4.52,0,7.09-5.56,7.54-9.4.6-5.1-.73-16.4-7.98-14.73ZM414.2,294.04c-3.08-2.03-2.91,7.09-2.72,8.64,1.54,12.8,21.53,14.97,26.49,4.1.99-2.18,3.09-11.6-1.11-9.26-.31.17-2.73,4.86-3.83,6.01-2.72,2.82-5.57,3.45-9.47,2.84-5.44-.85-7.64-7.93-9.35-12.33Z"/>
  <path d="M324.59,241.24c5.71-.99,10.34,4.68,12.24,9.45,4.53,11.36,2.08,44.86-9.88,51.45-16.5,9.1-21.07-12.87-20.22-24.72.66-9.15,7.12-34.31,17.86-36.18ZM331.29,246.93c-5.53-5.31-10.03,5.1-10.49,9.66-.4,3.93.2,15.59,6.61,12.79s8.68-17.85,3.89-22.45ZM314,283.36c-2.15-1.37-2.69,4.21-2.79,5.85-.26,4.54.47,9.28,4.94,11.42,8.82,4.21,17.13-5.23,15.9-13.93-3.12-.07-3.41,3.87-5.66,5.87-7.08,6.3-11.4-3.11-12.39-9.21Z"/>
  <path d="M397.34,327.23c-.33,3.95-8.28,5.87-11.61,6.11-9.83.73-14.67-4.47-22.49-5.51s-18.16,3.01-25.53-2.05c-1.73-1.19-4.42-3.86-2.57-5.87,6.13,8.45,14.76,4.86,23.08,4.51,8.77-.37,14.78,5.65,23.64,6.17,6.07.36,9.99-2.08,15.47-3.36Z"/>
  <path d="M367.51,305.28c-1.45,5.52-11.51,4.12-11.26-1.69l11.26,1.69Z"/>
  <path d="M422.67,241.68c.32,2.51-2.77,2.81-4.51,4.21-2.32,1.85-3.22,4.19-4.93,6.33-.53.66-.64,1.54-1.81,1.28-1.26-1.36,7.7-12.98,11.25-11.81Z"/>
  <path d="M343.3,248.43l-5.06-11.25c2.29-2.17,7.18,9.19,5.06,11.25Z"/>
</svg>