<?xml version="1.0" encoding="UTF-8"?>
<svg id="katman_1" data-name="katman 1" xmlns="http://www.w3.org/2000/svg" viewBox="0 0 841.89 595.28">
  <path d="M297.74,537.45l10.45-1.3c3.26-.13,14.8.71,16.58-.57.65-.47,1.08-1.09.92-1.93-26.02-6.65-56.53-15.12-74.64-36.21-6.32-7.35-17.47-26.74-19.22-36.05-1.17-6.21-.89-31.77-.15-38.6.28-2.6,1.85-6.08,2.88-8.55,10.32-24.77,38.44-38.05,64.31-30.69,5.74,1.63,10.5,5.13,16.02,7.16-.25-2.15-1.34-4.5-1.32-6.67.02-1.77,1.09-3.39,1.06-4.45-.03-1.13-2.65-6.72-2.91-10.17-1.23-15.84.54-47.8,9.03-61.49,1.91-3.09,3.8-2.94,5.24-4.9,3.09-4.17,3.72-9.34,5.07-13.99.99-3.39,4.32-9.02,6.19-12.24,4.95-8.51,11.2-16.8,18.28-23.63-12.44-11.47-20.26-22.38-24.58-38.93-10.89-41.73-4.86-101.7,20.26-137.54,23.91-34.12,78.52-57.5,119.65-55.73,73.55,3.18,118.36,48.44,138.45,116.27,2.04,6.88,3.17,16.84,5.72,22.86,3.31,7.82,9.62,13.57,10.95,23.35,2.84,20.87-29.43,51.87-44.99,63.3-1.27.93-7.14,4.04-6.91,5.1.36,1.61,11.83,10.71,12.99,13.71,31.17,12.36,50.63,38.17,69.84,64.19,3.68,1.83,14.73-.85,17.52,1.54,2.25,1.92-.87,6.91-.36,7.93,1,2.01,9.47,7.66,11.8,9.86,4.36,4.12,6.2,5.36,1.27,10.18-4.24,4.14-10.43,7.73-14.93,11.75-1.02,4.57.68,16.44-5.38,17.54-4.44.8-15-4.16-20.1-4.77-6.1-.72-12.66-.26-18.88-1.4-7.27-1.34-14.86-4.36-22-6.28-2.89,14.71-8.05,28.95-14.37,42.52,11.58,13.5,21.1,28.87,26.59,45.91,6.49,20.16,7.52,38.37-.07,58.48,3.61,3.98,6.98,8.34,10.69,12.21,1.79,1.87,12.43,11.33,12.65,12.18.7,2.64-6.37,5.77-6.84,7.63-.41,1.62,1.79,2.76.9,4.62-1.19,2.48-10.57,2.22-13.37,2.19-13.89-.18-27.9-3.83-41.95-1.52-13.46-1.84-27.13-.74-40.63-1.3-.78-.03-2.36.48-2.22-.64h10.8c.17-.84-1.17-1.02-1.74-1.11-1.75-.27-8.72.3-9.08-1.22-.12-4.43,1.21-8.74,2.15-13.03.43-1.97.9-2.47,1.01-2.9,1.88-7.44-.14-11.6-.59-18.91-.33-5.37.49-10.85-.31-16.2-4.77-2.81-10.03-4.66-14.86-7.37-1.85-1.04-8.04-5.75-9.04-5.66-6.57,2.63-13.32,4.86-20.24,6.4-6.17,1.37-17.97,1.85-22.9,3.78-3.82,1.49-11.36,7.58-16.07,9.97-4.16,2.11-17.85,6.73-20.16,9.06-1.53,1.53-3,5.43-4.51,7.56-4.31,6.04-9.38,11.59-13.14,18.04l4.11,29.17-.5,3.92-3.7.75c-.21.16.81,1.26.95,1.26h16.83v.64h-48.28v-.63c1,.39,2.39-.64,2.86-.64h26.36c.51-2.22-3.67-1.1-5.33-1.34-9.98-1.44-19.79-4.66-29.96-5.07-3.45,1.62-6.62,4.17-9.88,6.02-2.71,1.54-7.48,4.75-10.28,5.6-9.94,3.01-9.07-12.23-17.61-12.85h3.17c-1.22-1.73-1.36-4.91-3.21-5.99-.97-.57-14.68-3.16-16.88-3.45-5.14-.69-10.27.41-15.02-2.13-3.77-2.02-1.87-4.48-.3-7.62,2.65-5.32,6.95-10.29,9.97-15.45.56-.93-2.06-1.55-2.19-1.55h-21.92ZM525.37,268.35c32.1-11.14,74.07-35.5,89.46-67.14,5.87-12.08,7.55-18.28,1.28-30.73-9.86-19.6-13.79-41.5-22.69-61.79-21.94-49.99-62.26-78.52-117.5-81.32-43.43-2.21-95.84,18-121.14,54.16-29.63,42.34-41.54,135.85,6.93,168.67,45.93,31.1,110.45,35.46,162.57,19.27l1.1-1.13ZM596.93,326.56c.44-21.71-5.6-47.15-20.96-63.2-.94-.98-7.3-6.84-8.02-7.22-1.08-.57-1.63-.89-2.93-.59-.66.15-3.92,2.6-3.63,3.32,7.38,8.32,12.2,17.68,16.78,27.7,3.32,7.28,6.66,14.47,9.98,21.78,2.28,5.01,4.17,12.37,6.75,16.76.52.88.78,1.7,2.03,1.46ZM368.25,257.33c13.74,9.9,31.88,16.25,48.57,19.09.44.07,2.3.99,2.24-.35-.06-1.24-21.29-5.48-23.82-7.29l-26.99-11.44ZM341.57,284.95c-.55,4.86.4,10.6,0,15.56l6.06-16.49c3.8-7.69,8.07-15.43,13.37-22.2.92-1.17,1.6-1.56,2.82-2.28.42-1.74-2.15-.09-2.47.08-8.64,4.78-18.63,15.16-19.77,25.33ZM347.91,452.97c.23-1.62,1.31-3.14,2.29-4.39,2.18-2.8,8.78-9.06,9.84-11.76s.85-7.93,1.51-11.2c1.33-6.59,4.76-13.51,6.52-20.16,5.03-18.96,4.29-37.68.62-56.79-3.62-18.84-6.82-27.1-2.17-47.03,2.68-11.48,9.45-22.07,15.67-31.88l-15.53-9.28c-10.24,8.65-18.11,25.23-21.59,38.12-6.82,25.21.06,39.53,2.79,63.29,3.39,29.53-14.83,54.74-4.31,84.24.55,1.55.36,1.23.83,3.02.45,1.69,1.85,3.31,3.55,3.82ZM532.77,320.2c.16-1.11,1.29-1.08,2.04-1.44,4.24-2.04,9.27-3.24,13.63-5.43,8.79-4.4,20.9-14.06,24.03-23.65,1.26-3.86-1.02-9.41-2.74-13.11-1.21-2.59-9.77-15.52-11.94-15.93-.21-.04-4.53.16-4.05,1.43,2.3,2.48,5.74,3.94,6.98,7.31-3.63-1.2-5.9-7.64-9.86-6.39-4.17,1.31-3.19,2.23-4.85,4.7-2.53,3.76-5.04,7.57-8.48,10.59-1.04-.64.22-1.4.63-1.91,2.62-3.18,5.24-6.25,7.3-9.85.1-.48-.59-.39-.93-.3-4.92,1.27-10.54,5.36-15.55,6.06-28.1,3.96-52.5,9.35-81.63,10.47-7.72.3-15.6-.74-23.21.62,2.04,2.32,5.54,3.13,8.2,4.81,10.49,6.62,18.66,16.1,26.91,25.18,19.39,5.34,39.3,8.82,59.53,8.12.05.96-2.29,1.14-2.93,1.18-11.43.78-24.01-.71-35.32-2.63-6.55-1.11-12.95-3.34-19.55-4.27l8.25,14.93c5.24.92,11.07-.81,15.73,2.37,2.21,7.54-.85,14.77-.35,22.27,1.72,3.69,13.73,12.92,13.59,16.02-.18,3.97-12.29,7.34-15.44,9.07-4.47,2.45-8.72,6.63-13.51,9.36-4.44,2.53-9.24,4.48-14,6.32-2.63,7.55,10.3,9.15,15.59,9.85,11.54,1.54,25.19,1.65,36.86,1.3,3.43-.1,7.82-1.14,11.32-1.09.5,0,1.87.24,1.67,1.05-12.89,1.19-26.1,1.96-39.09,1.3-8.01-.4-16.01-2.43-24.01-2.46-10.78,12.3-25.9,20.7-40.13,28.48l7.93,8.6c7.98,10.25,13.86,22.27,15.96,35.17,18.64-1.46,37.92-9.19,54.71-17.26,7.1-3.41,18.82-8.61,22.99-15.12,3.94-6.13,6.42-15.22,8.64-22.17,1.13-.16.62,1.43.48,2.07-.79,3.63-8.7,23.95-8,25.13,5.07,2.97,25.1,14.11,29.92,12.71,1.52-.44,17.7-17.64,19.84-20.21,5.37-6.42,11.34-15.04,14.84-22.64,4.94-10.75,1.96-22.56.71-33.91-10.48,5.29-22.55,12.08-34.13,14.46-.68.14-3.36.75-3.34-.48,6.48-1.16,13.46-3.62,19.5-6.23,3.99-1.73,13.09-6.02,16.3-8.47,2.27-1.73,3.26-7.03,4.03-9.94,1.41-5.32,6.26-26.52,5.25-30.82-1.14-4.87-.84-6.41-1.23-11.58-.71-9.27-1.28-15.68-5-24.22-2.99-6.89-6.75-13.1-11.86-18.61-9.09,15.43-25.25,24.69-42.24,29.2ZM369.51,301.15c2.51-8.02,6.8-15.39,12.1-21.89,1.23-1.51,4.76-4.19,5.39-5.41.58-1.12.1-1.22-.66-1.91-1.09-.25-1.53.39-2.24.92-5.22,3.92-13.68,19.79-15.07,26.22-.14.64-.64,2.23.48,2.07ZM394.93,277.65c.13-.51-.09-1.31,0-1.9-2.87.72-2.83-.85-4.91-1.82-.79-.27-1.19.14-1.79.5-1.97,1.16-9.15,10.41-10.74,12.79-1.38,2.07-3.8,6.2-4.91,8.42-.69,1.39-1.41,3.35-1.79,4.88,2.01-2.3,4.06-4.66,5.99-7.03,3.16-3.86,1.8-1.98,5.14-4.38,3.75-2.69,9.56-10.25,13-11.46-.47,1.79-5.46,4.9-6.35,6.98,2.64.25,6.21-3.23,8.04-3.6,1.53-.31,5.37.2,7.2-.21-1.51-2.21-6.35-4.06-8.89-3.17ZM630.37,303.28c-9.01-8.57-23.34-20.28-34.49-25.54-1.29-.61-8.44-3.8-9.12-3.26,5.66,9.86,8.87,21.57,10.72,32.78,2.12,12.82,1.72,22.9,1.95,35.51.09,4.97,1.14,10.79,1.32,15.85.72,2.78,5.51,2.49,4.43,6.05-.48-.34-5.48-4.11-4.43-1.6.34.83,5.6,4.78,6.73,5.34,4.88,2.43,13.58,5.92,18.82,7.22,5.36,1.33,10.98,1.65,16.36,3.01l-3.17-3.49c-.1-.48.61-.41.94-.31,2.51.78,6.5,3.3,9.53,4.45,2.23.85,16.62,5.96,17.48,5.07.85-7.4-.74-14.82-1.26-22.23,1.29.53,1.07,5.4,3.2,4.83,1.01-.27,15.29-10.08,16.2-11.15.39-.46,1.02-.82.89-1.55l-18.39-12.78c2.01-.71,2.01-3.02,2.92-4.71.36-2.23-2.7-.66-3.81-.74-2.99-.21-6.11-1.04-9.27-.57-1.09.93,5.46,4.52.64,5.07-2.83-6.07-6.58-11.72-10.55-17.09-4.89-6.63-11.68-14.5-17.64-20.16ZM464.17,330.37c-12.45-29.74-49.36-62.51-81.9-39.66-25.89,18.18-15.91,54.18,1.54,74.61,10.09,11.81,20.02,18.98,34.64,24.44,2.01.75,4.7,1.75,6.75,2.16,3,.6-2.81-5.15-.1-5,2.03,4.4,13.89,20.09,18.43,20.11,4.4.02,11.48-16.96,14.61-20.11l-.95,4.44c.76.77,14.35-6.33,16.03-7.6.96-.73,1.19-2.54,3-2.63l-.61-1.83c2.99.28,20.02-5.74,20.2-7.93-1.34-2.6-11.68-14.17-13.55-14.32-.98-.08-1.86.7-2.84.65,1.65-3.95,6.21-19.63,3.87-22.61-4.09-1.69-9.78-1.05-14.28-1.6-5.6-.68-10.86-2.87-16.91-1.83-.31-1.92.48-1.01,1.54-1.28,4-1.01,6.57-.22,10.52.01ZM318.71,375.47c1.63,1.75,2.59-6.12,2.87-6.97,4.38-13,10.78-25.45,18.74-36.58.2-1.74-.64-3.31-.67-5.02-.18-8.33.79-15.53.08-23.58-.59-6.68-.88-12.62-.06-19.32-3.33,4.44-6.54,9.85-9,14.81-9.52,19.23-14.05,39.39-13.25,61.12l1.3,15.53ZM340.93,334.82c-1.49.67-2.3,2.21-3.19,3.48-6.98,10.01-18.17,35.55-16.96,47.48.52,5.11,2.71,14.28,4.1,19.4.78,2.89,9.26,25.52,10.65,25.55.92-.6.89-1.21.99-2.18,2.12-20.74,11.89-44.29,10.05-64.11-.9-9.64-4.75-19.84-5.64-29.62ZM595.02,341.17v10.48c0,2.44-1.76,5.13-2.18,6.72-2.75,10.57-7.38,26.49-4.54,36.87.34,1.25,1.63,1.16,1.67,1.6.13,1.28-1.03,2.61-1.1,3.81-.12,1.93.72,5.2,1.08,7.22.87,0,1.32-1.86,1.56-2.56,6.76-19.77,10.15-40.9,5.21-61.72-.27-1.12.04-2.84-1.7-2.41ZM376.37,366.73c-.22-.26-.78-.29-1.1-.49-2.64.25-.37,1.81-.2,2.66,1.17,6.11-1.42,26.87-3.05,33.51-1.68,6.84-4.93,12.8-5.58,20.47-.12,1.36-.6,9.12.87,9.12l1.57-1c-1.77-5.33.43-10.75.02-16.14,2.44,1.12.79,4.11.87,5.93.08,1.97.24,5.1.57,6.95.2,1.1.28,2.1,1.73,1.73-1.05-5.09-.57-10.36-.64-15.55-.03-2.71-1.16-5.45.01-8.58,1.11-.15.6,1.44.63,2.21.28,7-.03,13.59,2.52,20.38,9.37-2.71,17.71-3.16,27.19-.53,2.52.7,9.52,4.27,10.62,4.33,6.72.41,26.14-11.11,31.76-15.61,1.88-1.5,9.95-8.69,10.66-10.32,1.04-2.4.07-3.94-1.75-5.54-2.44,2.04-6.39,10.11-9.85,9.25-1.99-.5-5.97-3.66-7.63-5.13-2.03-1.8-6.04-7.61-7.02-8.23-4.06-2.58-16.92-3.54-21.79-7.43l-28.99-17.38c1.54-.93,3.18,1.68,4.64,2.35l6.16,2.74-10.48-8.58-.94,1.26c-.13-.75-.29-1.81-.79-2.38ZM295.2,431.36c-17.64-2.35-24.62,14.97-14.61,28.27,4.66,6.19,18.45,8.72,25.4,6.34,15.58-5.35,22.8-24.15,20.89-39.29-5.32-42.3-60.15-52.45-83.03-18.4-18.74,27.9-4.76,71.39,18.95,92.01,17.97,15.63,43.36,23.94,66.71,26.98-.57-1.89-2.37-1.67-3.82-2.22-.03-.6,4.94-2.17,1.28-3.17,1.59-3.58.36-9.54.61-14.01.71-12.55,4.54-25.81,9.65-37.36,1.1-2.5,5.97-10.18,5.51-11.99-.1-.41-3.71-7.18-3.99-7.49-1.63-1.75-10.4,1.56-12.88,2.09-7.31,17.76-32.58,24.33-46.22,9.37-7.81-8.56-8.49-23.7,1.63-30.77,3.52-2.46,10.82-3.96,13.93-.36ZM592.48,536.17c2.77-2.87,7.74-3.73,11.25-5.58,6.49-3.42,8.09-5.9,10.84-12.67,9.24-22.79,4.1-44.64-7.36-65.39-2.17-3.92-16.84-26.3-20.13-26.29l-1.49,1.08c-13.68,22.51-31.88,39.65-53.15,54.86-1.65,1.18-4.09,2.5-6.01,3.18l1.9,3.8c-.21.25-4.14-4.85-5.1-.94-.13.92.67,1.06,1.07,1.48,3.28,3.44,13.76,10.49,18.19,12.3,1.58.65,5.55.61,6.08,2.18.25,1.48.42,3.54-1.18,4.04l-.96-2.53c-1.57,1.2-.84,3.32-.95,5.07l1.26-.64v5.72s-1.27-1.9-1.27-1.9c-2.37,1.35-.88,5.28-1.26,7.62l1.89-.63c-.83,3.47,1.37,8.08,1.21,11.16-.06,1.17-1.4,1.99-1.71,3.26-.61,2.52-.58,6.34-1.39,9.08,1.52-.46,1.49-2.25,2.05-3.35.41-.8,1.08-2.05,1.13-.14-.87,2.04-4.01,11.52-3.11,12.94.88.39,1.81.63,2.78.71,15.36,1.39,29.93,1.18,45.13,1.88,7.77.36,15.67,1.65,23.45,1.96,5.59.22,11.29-.04,16.86-.03-1.67-7.01-9.04-10.61-13.34-15.87,5.83,2.32,6.57,6.81,13.58,6.26.66-.05,4.07-.29,3.56-1.5l-21.8-20.2c-1.63-.9-2.65,1.6-3.45,2.07-3.59,2.07-6.17,2.94-9.68,4.1-2.97.98-5.98,1.81-8.9,2.9ZM436.86,472.66c-3.72-33.9-45.27-60.14-73.37-34.3-20.61,18.96-34.06,50.44-33.22,78.44.23,7.66,5.37,15.68,6.82,23.14l-2.5.69-1.24-3.53-1.86-.19c-.35,2.15-2.42,2.55-3.57,3.73-4.83,4.9-8.8,10.59-11.76,16.82.74.94,1.92,1.2,3.03,1.44,5.53,1.22,13.16,2.07,18.9,2.7,2.98.33,7.01-.36,9.53,1.27l.94-4.44c1.74,8.86,4.71,18.34,10.61,25.33,3.43.86,21.72-13.73,25.99-15.63l33.27,8.08-4.45-28.59h-1.9s0,2.54,0,2.54l-2.53-1.58c3.13-4.41,7.24-7.34,10.42-11.81,5.58-7.84,11.83-19.73,14.99-28.84,3.81-10.97,6.35-23.36,3.67-34.84l-1.77-.43ZM312.99,463.76c5.47-2.03,10.23-7.69,11.43-13.33l-4.11,5.72-7.31,7.61ZM546.11,465.68c-6.96-1.59-13.31-5.34-19.48-8.79-2.06-1.15-7.36-5.38-9.27-5.08-23.9,11.94-48.69,24.87-75.44,28.78l-1.21,10.73c.35,1.19,6.56,2.46,8.07,2.75,28.73,5.45,70.12-5.17,92.81-23.7.87-.71,5.29-3.81,4.51-4.69ZM452.73,498.07c-2.13.4-4.58.75-5.95,2.54-2.08,2.73-3.94,3.99-7.41,6.03-.82.48-1.6-.12-1.25,1.58,3.2-1.71,9.89-3.94,12.11-6.67.4-.49.01-1.27.15-1.45.43-.56,2.22-.84,2.34-2.04ZM459.08,498.71c-.67-.54-2,.53-2.63.86-4.18,2.22-12.95,7.36-16.63,10.05-.88.64-1.94,1.36-2.34,2.42,6.84-2.98,14.62-6.95,20.4-11.68.29-.23,2.33-.73,1.19-1.65Z"/>
  <path d="M683.96,301.15c4.94-9.96,4.35-19.9-.3-29.88-1.87-4.01-7.36-10.76-11.19-12.95-34.42-19.66-49.34,34.19-16.46,49.49,7.47,3.48,10.08,3.37,17.77,1.27.64-.18,2.02-.91,1.91.32-26.6,10.02-49.93-23.34-34.83-46.58,11.62-17.87,35.21-9.48,43.43,7.18,4.67,9.45,6.88,22.49-.34,31.15Z"/>
  <path d="M299.65,336.72c-14.44,22.24-48.01-6.75-38.45-26.7,5.08-10.6,17.15-11.48,26.05-5.04,10.2,7.38,20.59,19.14,12.4,31.75.15-.25,1.81-5.07,1.87-5.44,1.27-7.92-2.13-13.75-7.58-19.03-7.41-7.19-19.94-15.69-28.92-6.04-15.93,17.1,14.37,45.87,29.51,35.23.57-.4,4.95-4.42,5.12-4.72Z"/>
  <path d="M630.19,418.89c7.26-7.08,21.21-8.76,26.96.85,6.56,10.96,1.55,22.13-7.49,29.74-22.07,18.59-34.66-15.79-19.47-30.59ZM641.24,414.39c-14.31,2.08-20.68,21.84-13.31,33.31,9.04,14.06,25.34.5,29.66-10.61,4.64-11.92-2.68-24.68-16.35-22.7Z"/>
  <path d="M281.86,250.96c-3.39-.37-6.72,3.06-7.66,6-.71,2.22-1.5,8.22-.52,10.12,3.79,7.31,18.51,6.21,18.34-5.01-.04-2.71-1.86-4.31-2.54-6.66,8.85,5.29.71,19.17-7.94,19.36-14.2.32-12.21-24.71-1.84-25.07.99-.03,1.9.16,2.15,1.25Z"/>
  <path d="M302.83,163.31c3.6,3.49,1.54,7.05,8.25,5.72l-.64,1.89,3.81.64-1.27-2.53,2.86,1.89c3.82-3.44-.84-6.12-.64-9.51,4.03,3.57,3.87,9.74.04,13.37-5.6,5.3-15.75-4.99-12.41-11.46Z"/>
  <path d="M318.7,539.36l-57.8,3.16,7.34-1.87c16.79-.88,33.68-3.19,50.46-1.29Z"/>
  <path d="M293.3,267.49c1.17-.15.56,1.34.34,1.93-3.3,8.92-15.05,12.5-21.97,5.4-5.34-5.47-6.23-16.1-2.19-22.57,1.3-1.35,1.07-.38.71.71-1.95,5.85-3.17,7.42-1.36,13.91,3.92,14.11,19.89,13.78,24.48.63Z"/>
  <path d="M687.12,320.2c-1.38-.76-1.22-3.06-2.23-4.43-2.95-4.01-8.82-.61-8.61,4.1.27,5.95,6.68,7.31,10.2,2.87-.95,4.37-7.34,5.18-9.82,1.89-7.12-9.46,9.2-18.97,10.46-4.43Z"/>
  <path d="M297.56,358.77c-4.59,3.85-11.36-2.01-8.56-7.61,3.91-7.82,14.65,2.52,8.56,7.61ZM293.08,349.56c-7.57.68-.54,14.72,4.31,7.46,2.15-3.22-1.8-7.68-4.31-7.46Z"/>
  <rect x="512.45" y="569.85" width="50.82" height=".64"/>
  <path d="M294.56,261.76l-1.43-4.6c-4.61-7.69-11.59-15.47-20.49-8.11l-.31-1.25c10.18-7.68,22.09,3.37,22.22,13.96Z"/>
  <path d="M275.52,256.69l.96,5.7,3.16,2.58c5.83-2.48,4.39-10.4-2.22-9.87,1.82-2.27,5.26.06,6.27,1.98,4.49,8.63-11.39,13.53-8.17-.39Z"/>
  <path d="M619.8,250.33c-.26-.27,3.8-3.14.65-6.68-4.23-4.75-8.71,2.87-5.45,6.09,1.16,1.15,3.06.65,3.53,1.86-8.61,1.4-7.06-12.36.67-9.87,5.87,1.89,2.19,10.21.6,8.6Z"/>
  <path d="M300.27,212.85l-.03-5.32c.14-4.01-5.39-7.43-8.89-7.11-5.01.46-6.49,14.46,1.29,16.01,2.75.55,3.43-1.47,5.73-1.35-3.73,4.44-10.78,2.24-11.92-3.32-3.67-17.96,19.16-15.08,13.82,1.09Z"/>
  <path d="M313.62,177.92c.15,1.09-1.46.62-2.22.63-10.49.23-13.69-9.41-11.11-18.42,1.13-.15.62,1.43.55,2.14-.2,2.1-.75,3.28-.49,5.73.69,6.36,7.06,10.75,13.26,9.92Z"/>
  <path d="M521.33,515.85c-1.23-.04-.62-1.9-1.68-2.59-4.87-3.14-8.31,4.83-4.02,6.71,1.19.52,3.09-.19,3.16.96-7.83,2.56-7.41-10.13-1.01-9.52,2.23.21,4.07,2.1,3.55,4.45Z"/>
  <path d="M683.31,317.03c.18.97-.5,1.81-1.29,2.21-1.21.62-2.98-.38-2.51,1.59l4.44,1.59c-5.08,4.09-6.32-.83-5.07-5.39,1.95,1.62,2.48,1.6,4.43,0Z"/>
  <path d="M320.61,167.75l-4.12-6.99-7.31-5.7c6.06.79,10.74,6.8,11.43,12.69Z"/>
  <path d="M638.85,491.08c.46-1.54,1.62-4.93-.97-5.13-2.27.03-4.16,2.46-3.4,4.72.89,1.91,2.89.72,4.37.41-4.57,4.22-7.56-2.09-4.16-5.11s8.28,1.31,4.16,5.11Z"/>
  <path d="M260.26,541.9c.08,1.01-1.6,1.04-2.3,1.18-2.97.6-6.97,1.13-10.01,1.44-.45.05-2.34.89-2.28-.4.04-1.04,2.22-.84,2.85-.95,3.87-.67,7.88-.6,11.75-1.27Z"/>
  <path d="M481.95,580.65l-7.91,1.3c-1.5-.56-6.48,1.25-6.06-1.3h13.97Z"/>
  <path d="M666.17,277.01c2.22-7.72,2.61-17.08-7.93-16.51-11.25.61-14.37,11.92-7.58,20.26,1.96,2.41,5.78,4.96,8.52,5.78-1.31,1.92-4.44,1.54-3.82,4.76,3.76.36,2.56,4.77,3.65,7.15s6.06,2.91,8.43,2.69c0-3.09-.23-6.83,1.59-9.53,1.3,2.09-1.71,8.5.27,9.88,2.07,1.44,6.51-.41,8.25-1.98,2.62-2.37,4.53-12.72-1.55-8.54-1.12-1.88,2.16-2.34,3.71-1.8,1.87.65.92,3.24,2.32,3.7.26-1.64,1.22-3.1,1.31-4.78s-1.77-5.25.6-4.74c1.4,8.18-3.15,19.73-11.45,22.53-27.44,9.27-44.05-29.58-22.42-44.65,1.14-.79,7.18-3.92,8.14-3.89,2.16.06,8.51,4.65,9.53,6.95,1.74,3.91,1.1,9.38-1.59,12.71ZM646.47,275.11c-5.32.58,1.42,8.89,2.55,7.62l-2.55-7.62ZM649.02,290.99l-1.27-5.08.63,8.25,2.36-3.67.17-3.31c-2.81-.47.92,3.06-1.9,3.81ZM654.74,293.53c-.02-12.73-6.19,2.45-1.27,4.8l3.09-.43-.02-3.97-1.81-.4Z"/>
  <path d="M290.87,210.84c.23.2,4.65.04,5.6,1.69-2.42,2.24-7.27.67-6.34-2.85,1.06-.26.38.84.74,1.16Z"/>
  <path d="M394.18,104.38c2.11-.06,6.63,1.45,8.71,2.37,20.4,9.03,35.55,52.5,36.53,73.36.31,6.64,1.25,8.62-4.46,12.11-8.21,5.02-29.05,11.39-38.73,13.36-7.19,1.46-13.37,3.86-17.94-3.08-9.12-13.87-13.67-43.45-12.57-59.83,1.08-16.09,9.48-37.72,28.47-38.29ZM393.66,203.32c-3.18-5.48-6.85-10.48-9.38-16.34-9.74-22.63-12.91-51.09-3.3-74.15.25-.6,1.22-1.77.3-2.24-12.78,11.38-13.88,29.32-13.05,45.44.62,12.09,5.3,34.52,11.83,44.7,4.25,6.63,6.9,3.75,13.6,2.59ZM389.7,115.8c-3.39.84-6.75,6.99-7.67,10.15-1.82,6.22-1.35,12.37,1.17,18.29,2.36,5.55,4.68,8.81,10.43,4.74,3.81-2.7,6.97-7.97,7.05-12.7.09-4.99-3.81-22.27-10.97-20.48ZM396.65,149.44c-1.5.43-2.65,3.01-3.36,4.31,4.04,6.89,9.45-6.05,3.36-4.31ZM430.5,163.94c.33-3.62-12.32-6.7-13.33-5.71l.62,2.23,4.46.93h-4.44s1.27,8.9,1.27,8.9c-7.44-.09-1.54,2.94-2.01,5.88-1.13,7.05-9.61,6.73-13.9,2.73-3.61-3.38-4.32-7.71-6.17-11.61-.27-.57-.61-1.04-1.11-1.43-1.35,2.3-5.49,4.71-6.36,7-.36.95.38,1.79.2,2.68-.24,1.19-2.38,2.88-2.79,4.28-.94,3.27,1.24,9.51,2.8,12.51,1.06,2.05,6.66,10.19,8.65,10.31,3.35.2,17.67-4.82,21.66-6.29,3.29-1.21,14.71-5.37,16.23-7.91,1.89-3.15-.77-18.57-3.22-21.64-.96-1.2-2.26-2.05-3.81-2.23l1.26-.63Z"/>
  <path d="M543.4,79.61c9.91-2.05,19.69,8.2,25.2,15.16,14.51,18.34,27.32,47.59,24.54,71.41-.46,3.91-3.26,4.83-6.75,5.32-7.14.99-29.94,1.85-35.83-.88-4.04-1.87-6.06-11.38-7.3-15.57-4.68-15.9-14.32-52.31-8.05-67.13,1.33-3.15,4.7-7.59,8.2-8.32ZM582.95,169.03c8.9,1.04,8.57-4.83,8.29-11.78-.87-21.63-15.35-56.75-32.42-70.49-3.68-2.96-9.21-5.86-13.98-4.75-.49.6,5.98,5.04,6.69,5.69,14.2,13.05,24.85,36.46,28.69,55.16,1.79,8.72,2.36,17.28,2.74,26.17ZM540.86,94.19c-5.84,1.27-3.75,16.18-2.55,20.7,3.62,13.6,11.22,8.15,12.24-2.09.56-5.61-1.83-20.32-9.69-18.61ZM553.73,122.02c-2.01-.44-3.68,1.8-3.79,3.53-.3,4.7,4.74-.7,3.79-3.53ZM575.95,142.38l-9.51-2.57.61,1.82-1.88,1.03c2.54.88.8,4.49,1.26,6.67-1.01-.66-3.51-1.08-3.81.33-.39,1.82,4.85,4.07.89,6.59-5.04,3.2-11.6-3.26-12.33-8.19l-2.53,1.9c-.36-1.32.78-2.06,1.09-3.03.13-.41.65-2.66-.47-1.74-4.67,5.04-3.5,14.05-.75,19.82.51,1.07,1.07,2.31,1.99,3.1,2.79,2.39,17.17,2.42,21.31,2.18,2.45-.15,5.88-.66,8.3-1.22,1.18-1.7-.21-19.12-1.67-21.28-.59-.88-1.67-.84-1.85-1-.81-.71,1.82-.24,1.26-1.57l-2.44-1.7.52-1.14Z"/>
  <path d="M603.61,177.28c3.01-.67,2.84,6.3-.1,8.8-7.8,6.61-27.87,11-37.99,11.55-10.82.59-19.98-1.8-29.76,4.54-6.03,3.9-13.47,12.58-20.6,13.7-9.41,1.49-17.72-2.35-26.59-3.59-34.82-4.88-60.46,26.11-99.35,18.68-3.43-.65-17.78-3.93-13.68-9.88,3.16-2.22,4.52,2.15,6.39,3.84,8.93,8.08,27.54,6.5,38.56,3.63,20.66-5.38,41.42-19.74,63.06-18.23,9.92.69,21.08,5.07,30.97,3.64s17.25-13.08,26.65-15.91c7.1-2.13,14.59-1.16,21.81-1.69,9.09-.67,31.82-4.1,37.14-11.77,1.07-1.54,2.47-7.08,3.5-7.31Z"/>
  <path d="M530.86,73.75c-2.15,4.99-3.74,10.15-4.43,15.57-.08.59.45,8.29-1.28,6.02-.13-6.42.23-13.48,3.31-19.25.51-.95,1.02-2.73,2.41-2.34Z"/>
  <path d="M420.97,107.41l-13.97-12.07c5.9,1.68,11.85,6.28,13.97,12.07Z"/>
  <path d="M499.1,193.17l-.31,1.25c-1.94-1.19-3.99-2.57-6.35-2.59s-6.31,2.82-5.42-.26c.69-2.38,10.3-.32,12.08,1.6Z"/>
  <path d="M518.8,189.99c.43-2.93,5.29-8.35,8.24-5.4-3.02,2.03-6.03,2.02-8.24,5.4Z"/>
  <path d="M530.23,320.21l-.99,1.94c4.4,16.1,7.18,32.76,6.7,49.51l-1.26-6.04c-.36-11.9-2.02-26.24-5.54-37.65-2.02-6.52-2.09-4.97-8.43-5.86-.16-.86,1.14-.96,1.75-1.09,1.01-.21,7.46-1.07,7.78-.8Z"/>
  <path d="M359.36,506.96l5.46,7.55c.36.42,4.89,3.26,1.83,3.88-2.48.5-7.19-9.03-7.29-11.43Z"/>
  <path d="M417.17,376.74c-1.83-6.95,1.5-14.64,6.34-19.69l-6.34,19.69Z"/>
  <path d="M278.05,315.13c3.51.7,4.38,4.68,3.67,7.8-.77,3.37-4.65,3.92-7.49,4.27-.12,5.3,6.06,5.28,8.89,8.25-.55.74-5.87-1.58-5.08.32.99,2.36,5.57,3.26,7.9,2.84,1.01-.18,1.77-1.03,3.18-1.28.6-.11,4.07-.42,4.16.66-15.85,7.1-30.39-7.58-28.57-23.49,2.02.8.8,3.05,1.15,4.82,2.31,11.68,23.22,7.3,12.18-4.18Z"/>
  <path d="M649.26,444.31c-6.84,7.21-14.44,9.62-19.81-.68-2.55-4.88-3.13-8.73-2.02-14.17,2.62,2.41,2.36,6.96,5.4,9.53,1.32-2.09-2.7-3.71-1.91-5.71,2.52,2.46,5.24,5.95,9.05,6.2,3.93.26,4.07-1.85,5.88,3.96.88.33.55-2.55,1.9-1.26.38.37-1.7,2.24.31,1.9,3.55-2.36,1.86-4.31,2.25-6.59.31-1.83,1.53-3.48,1.26-5.47l2.53,3.81.32-7.62c3.06,5.5-1.44,12.2-5.15,16.12ZM635.82,442.93c.73,5.73,6.53,4.8,8.58.2-1.38-4.57-5.97-2.63-8.58-.2Z"/>
  <path d="M645.85,426.92c2.83-.55-.24,3.69-.94,4.47-5.3,5.93-12.32,2.29-13.67-4.47,2.32,1.15,2.39,4.35,4.84,5.63,4.11,2.15,9.62-1.09,9.77-5.63Z"/>
  <path d="M648.38,419.31c.6,2.67-2.79-.11-3.81.64l1.26,2.53-3.17-2.23c.58-2.91,3.8-1.01,5.72-.94Z"/>
</svg>