<?xml version="1.0" encoding="UTF-8"?>
<svg id="katman_1" data-name="katman 1" xmlns="http://www.w3.org/2000/svg" viewBox="0 0 841.89 595.28">
  <path d="M606,420.4c-.85.86,3.52,10.99,4.23,12.86,2.41,6.3,4.36,7.01,7.7,12.41,15.34,24.77,15.99,61.05,1.34,86.2-1.09,1.87-9.81,13.24-9.25,13.86,6.24.99,12.78,1.14,19.02,2.1,3.83.59,17.33,2.9,19.55,5.25,2.87,3.04-1.21,4.74-3.73,5.71-14.35,5.52-33.35,4.68-48.44,7.71-.91.38-.58,5.31-6.24,5.99-3.75.45-12.08-2.28-13.95-1.84-.78.19-1.79,2.69-3.1,3.54-2.35,1.54-4.86,1.12-7.5.84-3.83-.4-11.45-3.41-14.26-3.24-1.07.07-1.93,2.47-4.08,3.35-4.3,1.76-9.84-.56-14.2-1.75-7.38-2.01-9.14-2.4-17.26-2.23-21.09.43-42.53,1.72-63.62,2.07-17.88.29-40.58-1.9-57.67-.03-5.94.65-15.52,6.44-21.63,3.54-1.41-.67-1.49-2.63-3.18-2.9s-9.83,2.39-12.81,2.63-6.3.64-8.65-1.24c-.92-.74-1.61-2.59-2.13-2.72-2.73-.68-9.32,2.07-13.9,1.32-2.33-.38-2.97-2.17-4.21-2.53-1.84-.53-5.09.98-7.86.53-2.1-.35-3.51-2.22-6.12-2.59-6.61-.92-14.1-.29-20.71-.74-19.34-1.3-40.46-2.82-59.48-6.21-3.83-.68-18.65-3.38-20.32-6.52-1.24-3.46,5.2-4.75,7.88-5.56,2.46-.74,10.54-1.92,11.9-2.85.99-.67,5.91-8.34,8.73-10.71,1.61-1.36,9.16-5.6,9.33-6.13.5-1.56-3.83-8.26-4.75-10.49-12.02-29.14,2.13-60.2,25.27-78.86,4.34-3.5,9.19-6.28,13.56-9.73-1.57-2.5-1.26-6.08-2.66-8.57-1.31-2.34-12.72-6.35-16.08-8.05-46.43-23.57-80.45-60.35-93.5-111.6-3.46-13.61-3.16-24.03-4.95-37.28-.47-3.46-3.02-6.2-3.89-9.52-1.27-4.84-.18-8.98-.72-12.63-.15-1.02-4.06-5.43-5.04-7.75-4.5-10.72-.1-13.26,10.38-13.4-2.27-12.83-3.77-27.42,14.06-18.76,1.42-4.37-.89-11.76,5.76-12.03,4.97-.2,11.74,7,13.35,7.09,1.12.06,5.63-2.19,6.2-3.61,1.21-3.06,1.23-7.55,2.73-11.35,4.83-12.27,11.7-10.06,18.09-.42,1.23,1.86,3.83,8.25,4.32,8.76,1.03,1.08,5.55,2.03,6.53,4.56,7.12-3.06,7.63-12.4,10.4-19.13,6.54-15.9,16-30.26,26.99-43.38,1.62-30.51,13.08-72.06,32.71-95.98,6.24-7.61,8.45-6.12,17.18-3.89,22.67,5.79,41.11,18.49,59.31,32.53l20.73-3.81,19.32-1.46c30.5-.09,59.34,6.59,85.94,21.36,2.69,1.49,11.93,8.17,13.61,8.53,1.93.41,5.43-.98,7.7-1.06,23.97-.91,48.55,1.75,70.72,11.11,2.46,1.04,9.19,3.65,10.71,5.37,2.88,3.25,2.35,19.89,2.07,24.79-.79,14.18-4.79,28-7.4,41.86,2.54-.99,5.49-.89,8.04-1.67,4.89-1.5,12.43-7.04,16.6-7.59,2.06-.27,5.52,1.74,5.52,3.57v11.73c4.32-.88,19.93-8.33,22.34-2.52,2.24,5.4-4.37,12.02-5.58,17.26,1.38,1.03,21.02-9.8,23.33-2.21,1.37,4.5-5.17,13.03-6.9,17.64-10.51,28.01,15.09,57.64,22.25,84.3,11.99,44.63-5.9,93.22-46.94,115.54-5.82,3.16-23.58,10.61-29.61,10.61h-13.07ZM378.78,70.52c.23-1.18-.61-1.65-1.33-2.35-11.1-10.84-36.5-24.23-51.48-28.28-2.44-.66-7.18-2.42-9.24-.91-2.2,1.62-9.64,14.31-11.36,17.46-11.71,21.44-19.5,46.68-21.77,71.06,1.32.34,1.3-.54,1.88-1.13,1.78-1.76,6.91-7.04,7.76-9,1.95-4.46,2.65-15.04,4.08-20.72,2.88-11.37,8.31-26,14.07-36.2,4.62-8.19,6.14-12.34,13.73-3.65,6.99,8,12.39,19.86,16.2,29.72l3.93.75c-26.57,12.47-49.68,33.01-67.66,56-9.41,12.03-16.63,24.39-22.47,38.52-1.71,4.15-2.8,10.14-4.9,13.87-1.53,2.71-6.18,6.66-8.46,9.63-18.37,23.94-18.89,46.79-5.2,73.45,24.47,47.66,83.36,78.13,133.61,90.25,10.82,2.61,22.34,5.07,33.39,5.82l-5.72.69c-29.86-3.61-58.84-12.51-86.45-24.15-.81-.31-1.38.24-.99.99s7.69,6.42,9.06,7.7c.58.54,1.08,1.15,1.65,1.7.1.51-.62.4-1.01.34-2.26-.38-9.77-5.15-12.08-6.69-3.69-2.46-9.25-8.14-12.39-9.72-.69-.35-1.23-.45-1.99-.35-1.14,6.83-3.7,13.29-5.06,20.09-10.32,51.67,9.64,98.43,49.15,131.36,1.58,1.32,10.77,9.36,12.19,8.08.38-2.85,2.11-5.71,3.46-8.28,9.66-18.48,21.19-38.16,33.54-54.94,9.25-12.57,19.8-26.36,34.05-33.3.29,1.26-.7,1.59-1.33,2.35-3.86,4.58-8.25,8.81-12.05,13.42-29.53,35.83-51.55,77.12-70.26,119.48-.67,2.02,1.45,3.23,2.23,4.86,6.78-5.53,13.04-5.63,15.07,4,2.96-1.08,4.71-4.2,8.02-5.05,7.46-1.91,11.48,2.52,13.43,9.07,1.82,0,2.2-2.32,4.06-3.64,10.22-7.25,21.18,3.38,17.38,14.36.46.43,6.91-.74,8.06-.98,29.5-6.09,63.85-40.04,80.28-64.49,7.21-10.73,10.64-23.15,19.42-32.86l6.19-24.98.69,6.39c-.05.74-2.11,10.5-.04,9.02,4.45-6.57,11.11-12.81,17.51-17.69,11.06-8.44,24.92-15.95,38.8-17.84-.67-2.53-3.09-3.9-3.73-6.65-2.05-8.77,4.56-22.18,14.12-14.79,6.1,4.71,6.33,14,2.35,20.1,1.71-.04,3.94.2,4.69,2.01-30.86-1.54-60.54,19.04-76.69,44.3-12.57,19.65-24.59,55.08-15.46,77.68,5,12.39,16.92,18.03,29.81,18.1-5.25-7.59,2.34-21.11,11.13-22.07,5.79-.63,11.06,4.64,12.34,10.01,1.22.9,3.26-3.47,4.03-4.34,8.94-10.1,17.49-4.06,21.78,6.35l4-5.37c6.12-4.1,10.75,1.17,14.75,5.25,29.01-22.06,39.27-57.67,27.46-92.35-4.24-12.44-12.93-27.44-25.78-32.21-.11-1.27,2.12-.6,2.84-.49,2.81.46,4.29,1.91,6.22,2.5.93.28,1.19-.07.98-.98-10.65-24.84-26.49-46.7-46.56-64.71-2.66-2.39-13.24-11.39-15.81-12.39-1.65-.64-2.96.2-3.26,1.93,5.19,5.37,10.54,10.55,14.84,16.7,7.46,10.69,13.19,21.36-2.38,28.08-19.44,8.39-42.67-11.48-52.01-27.27,10.29-6.08,21.19-11.46,30.99-18.55,43.99-31.84,64.64-88.48,64.81-141.63-.28-.91-1.03.46-1.24.77-4.69,7.17-8.85,15.12-15.86,20.33l-.34-1.01c21.12-37.01,37.82-78.03,34.53-121.65-15.51-8.98-35.78-13.37-53.63-14.74-14.94-1.14-29.02.49-43.72,2.52-1.71.24-8.33,1.38-9.26,1.27-.49-.06-1.18-.9-.98-1.1l14.07-4.7c.24-1.02-.15-1.07-.71-1.63-4.22-4.17-18.65-10.54-24.59-12.94-31.37-12.71-62.26-14.29-95.59-9.46-9.41,1.36-22.1,5.53-30.92,5.96-1.54.07-1.74-.03-.18-.85,3.99-2.1,8.91-3.86,13.24-5.21ZM634,185.68c-.49-2.28,2.22-14.14-.21-14.61-8,5.03-17.01,7.43-26.2,9.31-2.85,9.7-9.73,18.4-8.3,28.89,14.78-1.95,21.22-18.19,34.71-23.6ZM218.36,181.19c-2.46.79-5.15,14.19-4.33,16.9,1.24,4.1,13.69,4.16,14.49-1.35.52-3.61-5.94-16.9-10.16-15.54ZM656.93,181.13c-13.14,1.6-25.51,9.51-35.84,17.44-2.91,2.23-5.82,5.73-8.85,7.91-4.14,2.97-8.24,4.39-12.63,6.81.17,44.09-14.07,90.36-42.88,124.02-2.5,2.93-5.96,6.75-8.7,9.41-1.39,1.34-3.67,1.26-1.74,3.7,1.69,2.14,8.28,6.11,10.9,8.37,5.18,4.46,10.94,9.71,15.63,14.7,1.34,1.42,5.35,7.28,6.69,7.41,37.68-13.5,51.69-57.33,50.63-94.23-.42-14.48-3.54-28.98-1.33-43.51l1.97-5.06c-2.28,21.16,3.18,42.18,2.05,63.36-1.8,33.42-16.85,69.53-49.6,82.78l.32,1.96,14.13,19.3c58.03-7.06,82.53-67.39,68.82-119.68-6.13-23.38-22.72-42.82-20.96-68.17.55-7.96,3.93-20.39,7.05-27.8,1.29-3.08,3.55-5.52,4.33-8.73ZM674.36,195.87c-9.71,1.14-23.11,6.57-25.31,17.24-4.9,23.79,10.3,42.74,17.58,63.88,11.45,33.27,9.02,71.55-12.1,100.45-13,17.78-32.48,29.79-54.57,32.23.28,6.8,6.5,5.68,11.73,5.35,45.05-2.84,80.86-45.49,82.11-89.48.84-29.57-11.77-46.98-22.23-72.26-8.19-19.79-10.17-39.07,2.8-57.42ZM189.27,208.44c1.88,1.87,9.91-1.39,9.9-4.2,0-2.32-7.78-7.29-10.33-7.08-1.68.26-1.49,9.36.43,11.28ZM221.27,246.8c-.69-.67-9.73,4.76-11.6,5.49-13.14,5.12-37.41,6.21-31.39-14.63,5.21-18.03,32.95-35.82,49.36-21.03,1.37-3.06,8.33-10.11,8.93-12.57.56-2.27-2.95-6.97-5.47-6.12-1.33.45-2.3,4.32-7.64,5.13-5.66.86-9.14-2.54-11.12-2.36-7.13.64-12.09,7.65-18.92,9.86-1.39.45-2.84.66-4.29.74,1.04,4.49-5.44,12-9.39,13.07-1.58.43-4.18-.08-5.06.97-.71.85-2.54,8.32-3.16,10.24-.55,1.69-2.05,3.47-2.37,5-1.93,9.39,1.23,19.86,7.89,26.66l-2.67-.34c-.42,15.43,3.11,31.38,8.02,45.92,8.55,25.29,23.07,48.45,42.9,66.35,2.85,2.58,13.45,12.13,16.78,11.42,7.07-1.5,6.14-11.55,3.91-16.7-3.82-8.82-19.02-16.81-27.62-20.64-3.79-1.69-7.61-4.25-11.82-2.58,1.08-5.8,10.83-.11,14.31,1.44,9.01,4.02,23.19,11.61,27.37,20.89,2.19,4.86,3.44,13.39-1.12,17.24-1.58,1.34-4.48,1.01-4.37,3.32,3.93,2.63,37.01,22.75,38.87,20.79-3.51-24.46-.41-49.26,7.3-72.59-32.32-22.47-64.28-53.34-67.62-94.97ZM173.01,206.59v9.72c0,.31,2.09,5.48,2.33,5.71,3.37,3.41,11.36-4.56,11.64-7.85.22-2.61-10.98-9.32-13.97-7.58ZM209.06,213.48c-11.58,1.4-24.64,12.16-28.52,23.09-8.31,23.36,22.68,17.47,34.72,10.59,8.97-5.13,5.84-7.61,7.67-16.46,1.61-7.78,8.51-14.09-3.23-16.83-3.41-.8-7.15-.8-10.64-.38ZM164.12,227.51c-5.69,1.25,1.22,11.27,3.21,11.11,2.64-2.18,3.36-6.34,4.28-9.53-.4-1.53-6.03-1.9-7.48-1.58ZM512.44,387.29c8.36,6.9,20.3,13.62,31.48,12.27,4.24-.51,13.45-4.77,13.87-9.64.83-9.59-15.66-26.97-22.6-33.14-9.91,7.29-21.71,11.42-33,16.13-.41,1.29.11,2.39.68,3.51,1.07,2.1,7.51,9.18,9.57,10.87ZM569.36,420.17c2.15,2.07,8.14,2.47,10.13.21,2.95-3.34,2.17-11.29-.63-14.74-8.67-10.66-16.57,7.73-9.5,14.53ZM288.25,438.54c-1.35-.34-2.37.19-3.54.73-1.39.65-12.53,9.21-12.89,9.94-.33.67.93,1.38,1.03,2.37,1.38,13.23-14.44,25.27-23.3,32.96-2.71,17.06-.11,34.04,11.25,47.46l-6.02,3.34,3.68,3.58c9.2-6.87,18.79,4.28,16.94,13.7-.28,1.45-2.87,3.82-.75,4.41s8.74.19,11.29.09c4.19-.16,9.19-1.02,13.42-1.33,6.81-.49,13.72-.26,20.5-1.64,1.68-.47,4.84-6.93,6.65-8.75,1.64-1.65,5.51-3.17,6.34-4.38.94-1.37,2-5.79,2.92-7.8,1.37-3.01,9.81-20.3,9.41-21.88-24.33-19.35-46.92-42.67-56.92-72.81ZM268.64,452.67c-2.1.57-17.07,21.49-17.21,23.75-.18,2.72,1.51,2.73,3.39,1.31,3.65-2.75,8.85-7.67,11.25-11.54,1.26-2.03,5.61-11.36,4.5-12.97l-1.92-.55ZM488.03,549.76c-1.98-7.72-3.8-15.01-3.35-23.11.29-5.2,2.31-10.58,1.67-15.75-8.61,11.47-17.79,22.32-28.48,31.84-1.83,1.63-6.41,4.28-7.6,5.66-.65.76-.51,1.1-.46,2.04l38.21-.67ZM251.78,537.29c-4.07-.16-15.75,11.8-16.32,15.65-.5,3.33,4.78,1.88,6.74,1.33,3.83-1.08,5.37-5.62,7.92-8.84,1.37-1.74,3.36-2.97,4.6-4.85.48-1.5-1.65-3.24-2.93-3.29ZM261.97,539.19c-4.75.98-15.11,11.72-15.8,16.43s11.78,2.5,14.89,2.09c7.89-1.05,14.9-1.18,11.47-11.28-1.64-4.82-5.13-8.36-10.56-7.24ZM532.74,545.88c-5.38,1.22-10.08,10.71-8.01,15.77,1.79,4.39,14.29,8.94,18.79,9.43,4.8.52,3.77-6.37,3.48-9.58-.71-7.89-4.6-17.81-14.26-15.62ZM550.57,564.98c1.55,2.1,18.9,6.61,20.91,4.23,2.49-2.94-1.68-15.85-3.8-19-5.26-7.81-13.75-4.93-16.77,3.12-1.06,2.81-2.16,9.19-.34,11.65ZM347.82,566.4c1.45-5.54,6.08-10.35,3.64-16.46-2.27-5.67-9.03-1.12-11.92,1.81-2.33,2.36-12.17,17.74-5.38,18.07,3.4.17,9.9-3.26,13.66-3.42ZM336.45,547.85c-4.08-.87-6.12.75-8.59,3.6-1.7,1.96-9.06,14.06-7.39,15.73,2.08.08,7.64-.57,9.04-2.02.81-.84,2.38-6.16,3.35-8.05,1.56-3.04,5.53-6,3.59-9.27ZM371.25,567.71c7.68-13.48-4.2-26.35-15.54-11.85-1.74,2.23-8.82,14.56-4.66,15.93,6.74.28,13.71-2.33,20.19-4.08ZM579.67,550.56c-3.89.87-6.62,10.34-4.85,13.28,1.06,1.76,14.82,4.87,16.47,3.72,2.23-1.56-2.45-11.25-3.77-13.07-1.89-2.6-4.41-4.7-7.85-3.93ZM384.63,553.27c-6.12,1.27-13.66,16.98-9.2,19.66,1,.6,11.06-2.52,12.9-3.23,3.43-1.32,7.53-2.29,7.64-6.74.16-6.46-4.82-11.05-11.34-9.69Z"/>
  <path d="M210.34,92.77c.77-.24,1.72-.27,2.52-.13,2.43.42,8.75,9.97,11.75,12.41,3.34,2.72,13.25,5.12,11.57,9.49-1.83,4.79-7.07,6.55-8.16,14.01-.46,3.13.65,15.88-6.46,11.71-2.34-1.37-6.22-9.16-10.03-12.08-2.59-1.99-10.24-4.33-10.92-6.51-1.12-3.57,5-8.98,6.25-13.61.99-3.68.26-14.29,3.48-15.29ZM214.44,100.83c-.56-.33-1.27-.09-1.88-.15.17,6.06-1.2,13.84-6.05,17.79v1.3c7.26,2.44,11.39,7.43,16.09,13.08-.28-7.18,2.83-13.13,7.36-18.44-5.42-2.82-9.28-5.5-13.37-10.06-.71-.79-1.98-3.42-2.15-3.53Z"/>
  <path d="M170.84,136.37c2.26-.13,5.14,1.47,6.88,2.85,4.93,7.74,19.65,18.16,23.35,25.58s-4.46,12.49-11.65,8.97c-4.82-2.36-23.95-17.85-26.76-22.17-4.34-6.64.63-14.8,8.19-15.23ZM169.5,139.03c-4.75.69-7.63,6.82-5.24,10.97.65,1.14,5.72,5.74,7.09,6.98,4.23,3.84,13.71,11.79,18.47,14.37,7.01,3.81,13-.33,7.98-7.31-5.38-7.48-16.12-15.26-21.78-23.13-1.88-1.35-4.19-2.22-6.53-1.88Z"/>
  <path d="M235.17,65.32c4.64-.73,7.87.98,10.24,4.85,2.85,4.65,9.45,23.6,9.96,28.92.87,8.96-7.44,11.47-12.65,5.27-3.58-4.26-12.34-20.03-14.22-25.33-2.14-6.02-.34-12.6,6.66-13.71ZM237.02,67.52c-5.41,0-8.33,4.69-6.69,9.69,1.32,4.01,11.83,23.64,14.49,26.4,2.3,2.38,6.9,3.11,7.79-.72,1.16-4.93-3.41-17.36-5.38-22.47s-3.88-12.89-10.22-12.9Z"/>
  <path d="M254.2,129.68c0,2.63-2.13,4.76-4.76,4.76s-4.76-2.13-4.76-4.76,2.13-4.76,4.76-4.76,4.76,2.13,4.76,4.76ZM252.11,129.49c0-1.46-1.18-2.65-2.65-2.65s-2.65,1.18-2.65,2.65,1.18,2.65,2.65,2.65,2.65-1.18,2.65-2.65Z"/>
  <path d="M561.08,207.26c-1.05.72-5.43-13.32-5.91-14.53-6.67-16.77-18.62-41.63-31.96-53.83-1.1-1.01-6.5-3.59-5.69-4.69,12.25-5.65,25.42-10.06,38.73-12.55,7.29-1.36,31.41-4.78,37.17-2.04,1.99.95,2.53,2.57,2.37,4.65-.67,9.04-5.51,22.84-8.73,31.55-6.68,18.09-15.79,35.16-25.99,51.43Z"/>
  <path d="M320.27,246.61c-3.01,2.42-12.67-.56-16.43-1.6-9.4-2.6-23.94-8.65-31.59-14.66-5.2-4.1-4.55-7.58-4.06-14.02,2.13-27.68,27.08-80.54,60.65-76.76,14.14,1.59,20.25,21.89,20.31,33.85.09,17.24-11.12,44.28-19.62,59.33-1.66,2.95-7.04,12.08-9.26,13.86ZM312.42,145.61c-3.48.98-7.3,3.98-10.06,6.35-15.43,13.26-27.93,39.75-30.75,59.73-.46,3.27-1.29,10.34-.73,13.32.25,1.32,1.37,2.23,2.33,3.03.82.67,8.74,5.78,9.39,6.03,1.03.4,1.03-.19,1.02-1.01-.06-4.23-1.88-10.08-2.06-14.71-1.06-27.43,12.1-53.59,30.86-72.74ZM333.7,153.13c-10.16,1.49-21.05,17.18-21.2,27.06-.09,5.84,3,11.09,9.47,10.17,8.05-1.14,17.64-10.58,20.08-18.15,2.29-7.1,2.38-20.65-8.35-19.08ZM296.14,190.7c-4.54-5.59-9.25,4.14-9.79,8.24-1.22,9.24,4.52,14.35,8.98,4.29,1.32-2.99,2.95-9.9.81-12.53ZM331.86,192.51l1.34-3.35c-3.13,1.28-2.15,4.31-2.89,6.52-.25.75-3,1.73-3.44,2.2-.78.84-5.68,8.99-5.7,9.74,7.26,2.73.76,17.14-3.03,20.43-1.73,1.5-4.18,1.44-6.06,2.66-1.13.74-2.15,2.42-3.36,3.34-1.58,1.2-6.91,4.69-7.7,5.71-.56.72-.98.57,0,1.36l16.35,4.19c2.5-.48,10.73-15.47,12.27-18.48,5.23-10.23,10.09-21.25,9.59-32.97-.79-.91-3.3,3.66-5.01,3.35-2-.36.03-4.33-.35-4.69h-2.01ZM309.74,217.99c-8.3,3.16-15.36.46-17.39-8.45-.72-.55-3.05,1.41-5.41-1.26-1.75-1.98-.57-4.42-2.66-5.71-1.1,6.42-1.19,29.5,3.77,33.43.89.7,8.2,3.46,9.13,3.33,1.86-.27,13.69-9,13.73-10.26-2.81-3.56-1.21-7.09-1.17-11.07ZM317.6,210.08c-5.16,1.17-10.45,15.03-4.7,18.55,6.31,1.8,15.47-20.99,4.7-18.55Z"/>
  <path d="M507.95,270.07c-.15.21-1.45.82-1.71.74-.58-.18-6.22-8.26-7.47-9.62-15.96-17.23-37.09-18.91-58.85-13.24-5.82,1.51-11.79,4.53-17.37,6.09-.99.28-1.8.52-1.53-.86,8.96-9.22,22.04-14.47,34.69-16.25,16.87-2.38,35.33,2.8,46.38,16.26,2.69,3.28,8.69,12.93,5.87,16.88Z"/>
  <path d="M441.78,107.4c-.19,1.74,0,1.06.98,1.35,6.54,1.93,19.08,2.6,20.32,11.21,1.47,10.19-11.79,14.76-19.31,17.9-8.13,3.39-17.97,6.88-26.51,9.02-8.01,2.01-23.06,6.63-25.61-5.12-3.52-16.22,6.14-39.35,15.66-52.41,11.53-15.82,18.87-16.17,37.96-13.28,6.25.94,26.78,5.66,28.5,12.38,4.03,15.7-22.36,16.52-32.01,18.95ZM424.87,77.41c-10.34,1.6-22.14,22.64-25.82,31.82-3.26,8.15-9.05,28.3-2.88,35.4,2.34,2.69,5.04,2.55,8.41,2.3,10.09-.77,43.76-11.99,51.62-18.08,8.47-6.57,4.33-12.35-4.01-15.43-2.38-.88-15.05-3.03-14.42-5.68.83-3.5,26.92-5.57,31.51-10.73,9.51-10.7-11.2-15.61-18.22-17.32-7.79-1.89-18.25-3.51-26.18-2.29Z"/>
  <path d="M427.61,285.59l.1-4.6,1.51.66,8.53,10.06c-2.5.54-4.68-2.18-6.52-2.57-2.27-.48-16.25,4.22-20.25,4.95-3.41.62-8.37,1.5-11.74,1.67-13.16.66-22.67-8.12-35.64-9.32-5.45-.5-11.77.93-16.48.43-4.77-.5-11.84-6.43-17.11-8.4-10.39-3.88-17.51-1.19-24.86-11.33-1.05-1.45-6.67-12.97-2.1-9.96.55.36,4.54,7.68,6.03,9.39,6.03,6.92,14.62,5.18,22.94,8.56,4.41,1.78,10.48,6.99,14.39,7.72,4.66.87,12.55-.95,18.43-.32,10.64,1.13,20.52,8.62,29.65,9.22,10.47.69,23.06-3.47,33.11-6.15Z"/>
  <path d="M589.06,447.38c21.47-3.68,32.43,31.81,31,48.42-2.82,32.78-43.66,11.71-48.08-12.23-2.16-11.72,3.18-33.81,17.08-36.19ZM589.73,449.39c-11.21,1.84-16.69,20.59-15.83,30.26,1.32,14.84,15.67,29.34,30.62,30.42,13.66.99,13.8-16.7,12.79-26.25-1.26-11.96-12.67-36.88-27.59-34.43Z"/>
  <path d="M427.41,480.45c-6.5,7.13-26.96,19.05-36.6,16.07-2.54-.79-4.93-4.64-5.66-7.08-4.63-15.54,12-37.37,25.17-44.53,27.95-15.18,33.14,17.93,17.09,35.54ZM420.84,443.37c-16.46,2.04-39.54,30.6-32.54,46.94,3.12,7.28,14.01,2.64,19.47.32,10.91-4.63,24.34-15.15,25.89-27.73,1.15-9.37-1-20.99-12.82-19.52Z"/>
  <path d="M387.32,156.49c6.23-1.62,16.33,6.52,19.89,11.29,5.05,6.78,2.96,9.58-3.42,13.89-3.91,2.64-15.69,8.71-19.91,6.09-6.62-4.12-5.57-28.91,3.44-31.26ZM384.98,185.64c1.83,1.83,8.64-1.61,10.79-2.61,12.8-5.93,16.27-9.53,3.79-19.69-9-7.33-15.69-7.51-17.25,5.56-.47,3.92-.16,13.9,2.67,16.73Z"/>
  <path d="M554.21,495.62c11.87-2.42,29,17.26,22.68,28.72-6.89,12.48-29.79-9.51-28.89-21.52.26-3.48,2.73-6.49,6.21-7.2ZM560.03,519.99c18.96,16.51,20.09-7.71,6.75-17.81-6.45-4.88-18.79-8.82-16.12,4.06.83,4.02,6.27,11.05,9.37,13.75Z"/>
  <path d="M445.64,145.11c11.87-1.65,17.55,8.56,10.78,18.15-4.86,6.88-15.87,8.08-22.64,3.42-11.22-7.74,2.9-20.32,11.86-21.56ZM444.29,147.77c-6.03,1.03-16.8,9.95-10.11,15.82,7.67,6.74,21.4,3.16,22.29-7.69.65-7.94-5.54-9.26-12.18-8.13Z"/>
  <path d="M411.35,498.55c4.43-3.97,12.68-8.79,18.08-3.79,5.51,5.1-.75,11.78-5.52,14.67-14.04,8.5-28.49,3.4-12.55-10.88ZM420.15,494.95c-3.62.75-13,9.3-13.23,12.98-.49,8.08,17.35-.56,20.13-4.07,4.75-6-.03-10.34-6.91-8.91Z"/>
  <path d="M371.24,118.24c6.74-1.29,9.52,7.6,8.89,12.96-.75,6.48-8.13,14.42-14.73,10-7.25-4.85-2.29-21.41,5.84-22.96ZM375.24,121.67c-8.18-6.64-17.31,19.01-5.49,18.59,7.09-.26,10.78-14.29,5.49-18.59Z"/>
  <path d="M477.97,213.97l-10.69,3.04c-14.56,3.85-23.65,13.38-34.54,22.43-.75.63-1.08,1.62-2.34,1.34,3.43-7.29,10.89-13.36,17.64-17.54,8.57-5.3,19.73-9.55,29.94-9.26Z"/>
  <path d="M477.97,181.13l-22.09,6.38-14.77,8.35c4.65-7.49,14.28-11.97,22.65-13.87,4.54-1.03,9.69-2.04,14.21-.86Z"/>
  <path d="M491.21,287.19c4.91-1.25,12.95,1.93,16.88,4.9,7.42,5.61,3.97,8.99-4.34,8.36-5.65-.43-15.27-4.49-15.65-10.97.19-.65,2.42-2.11,3.11-2.28ZM509.93,295.27c-1.35-1.58-7.78-5.01-9.97-5.77-2.92-1.02-11.78-3.27-9.78,2.4,1.46,4.12,16.94,10.35,20.56,5.43,0-.78-.32-1.48-.82-2.06Z"/>
  <path d="M351.3,161.69c-1.24-.25-1.24-1.31-1.37-2.32-1.33-11.06-1.69-23.86-12.04-30.51,6.4.72,9.77,5.92,11.6,11.52.28.85,1.81,6.55,1.81,6.9v14.41Z"/>
  <path d="M252.1,228.71c-2.94,6.19,6.38,12.71,12.07,12.06,1.74-4.19-9.13-13.45-12.07-12.06.21-.18-.86-2,2.15-1.17,3.47.96,13.68,9.92,10.65,13.63-3.77,4.61-16.63-5.62-14.74-11.38.37-1.12,1.69-.86,1.95-1.08Z"/>
  <path d="M372.08,262.9c1.7,1.73-5.21,4.79-6.03,4.01-.27-3.39,3.38-4.32,6.03-4.01Z"/>
  <path d="M341.23,252.17c.12,2.2,1.83,4.9-.32,6.69-2.4-1.59-1.63-4.2-1.67-6.69h1.99Z"/>
  <path d="M264.68,480.24c9.39-.26,16.52,7.55,15.57,16.91-1.25,12.34-19.62,25.82-26.93,11.5-5.56-10.89-3.67-28,11.36-28.42ZM262.69,482.21c-10.27,1.02-11.01,12.72-9.86,20.91,1.25,8.88,10.02,11.04,17.16,6.56,12.76-8.02,9.85-29.16-7.31-27.47Z"/>
</svg>