<?xml version="1.0" encoding="UTF-8"?>
<svg id="katman_1" data-name="katman 1" xmlns="http://www.w3.org/2000/svg" viewBox="0 0 841.89 595.28">
  <path d="M187.18,322.93c-2.88,2.99-12.29-19.41-12.8-20.79-1.32-3.61-4.47-17.29-6.57-18.69-5.58-3.73-5.34,9.89-6.04,12.53-.33,1.25-2.27,5.11-3.04,6.21-2.98,4.29-6.31,3.63-10.4,5.63-12.53,6.13-11.58,23.09-6.87,34.04,2.89,6.74,9.16,11.86,11.82,18.68-3.64-4.44-7.9-9.15-10.97-13.98-7-11.03-9.11-29.5,2.36-38.22-1.49-31.81,3.23-63.17,14.15-92.94,15-40.87,41.86-80.36,80.06-102.39.46-1.44-4.07-11.64-4.88-14.06-3.04-9.05-6.68-19.85-8.43-29.16-1.02-5.41-3.36-20.49.42-24.48,3.33-3.52,13.46-4.39,18.17-4.63,11.87-.63,24.95-.08,36.37,3.12,28.46-22.14,70.59-35.12,105.4-21.01,9.86-4.65,19.5-9.98,30.04-13.06,4.73-1.38,17.09-5.16,20.47-1.05,6.48,7.89,2.72,37.52,1,47.78l.52,1.25c14.3,2.37,28.38,5.46,41.75,11.23,8.51,3.67,16.69,8.49,23.9,14.31,1.34,1.08,5.96,4.65,6.49,5.84.12.27.16,1.01-.3.91-12.05-11.12-27.09-18.92-42.7-23.85-7.33-2.31-19.43-5.52-26.93-5.76-8.05-.26.12,10.6,1.66,14.08,16.64.17,32.9,4.82,47.95,11.53-.05,1.37-9.13-2.67-10-2.95-11.92-3.83-24.2-6.93-36.84-6.6,1.66,3.72,3.66,7.33,5.21,11.11,9.07,22.1,10.36,46.16-2.5,67.1-1.18,1.93-6.69,8.65-6.91,9.75-.18.87.75,5.69,1.4,6.34,1.25,1.25,9.92-.57,12.32-.66,51.6-1.92,98.36,10.93,132.2,51.5,29.94,35.9,32.37,73.43,23.57,117.88-1.04,5.24-3.11,10.87-5.22,16.29-10.08,25.94-26.15,49.24-46.98,67.65-.24,21.5-2.77,43.33-16.27,60.8,2.73,3.46,7.15,11.36,11.46,12.38,7.45,1.77,11.33.24,18.33,5.7,25.79,20.12-.63,60.91-29.56,42.53-1.36-.04-7.47,4.45-9.66,5.12-12.75,3.89-31.76-2.86-36.31-16.19l-.84-.05c-10.07,4.2-20.56,7.03-31.15,9.56-2.73.65-5.58.6-8.06,1.19-3.25.77-5.99,3.17-9.79,3.77-2.81.44-6.69-.23-8.84.4-1.52.45-2.33,2.86-3.49,3.9-13.9,12.38-33.88,10.61-44.68-4.5-7.96,3.71-15.59,1.34-22.83-2.68l-.81.18c-7.35,11.76-23.39,13.21-34.94,6.68-2.93-1.66-6.64-6.19-8.46-6.95-2.18-.91-5.18-.79-7.85-2.01-2.93-1.34-5.06-4.14-7.44-5.5-.76-.43-7.84-3.22-8.28-3.2-1.02.05-7.57,4.86-9.34,5.81-11.13,5.93-25.09,10.21-36.98,3.93-1.54-.81-3.17-2.94-4.86-3.2-2.17-.33-5.07,1.06-7.36,1.22-19.02,1.29-28.12-6.66-26.17-26.17.79-7.96,6.34-16.82,11.7-22.49-26.97,2.27-49.87-15.27-58.83-40.09-5.6-15.53-5.68-29.69-5.91-45.91-.1-6.88-1.86-12.81-1.85-19.05,0-5.49,1.54-10.85,1.27-16.36,1.08-.14.58,1.4.61,2.15.32,7.83-1.26,15.41.62,23.12.17.17.76-.33.92-.61,2.07-3.65,2.27-15.84,4.79-20.48,3.58-18.46,15.84-34.96,22.26-51.63.27-.71-.34-1.72-.25-1.85,3.06-4.37,6.42-9.26,9.6-14.12,23.6-36.03,56.36-67.59,93.31-89.73.41-1.7-6.88-5.07-8.21-5.95-31.06-20.76-37.61-48.87-35.07-85.1l-6.4-12.82c-1.71-.36-7.02,3.04-8.82,4.1-15.54,9.26-31.89,27.27-42.46,41.97-29.41,40.92-44.95,93.48-42.54,144l1.32.93c4.22-1.55,6.97-.97,10-4.83,4.93-6.28,1.82-13.32,4.68-18.12,2.15-3.6,6.33-2.35,7.81,1.29,1.54,3.78,2.36,9.34,3.8,13.45,3.03,8.62,6.61,18.3,12.96,24.94ZM429.37,91.21c-1.66-14.58,2.62-29.05,4.31-43.45.99-8.45,2.89-25.66-.01-33.26-.49-1.29-.66-1.87-2.16-2.16-5.16-1.01-22.54,5.39-28,7.71-12.88,5.47-25.38,13.35-34.23,24.32-.99-.57.23-1.38.56-1.91,4.03-6.46,6.91-8.73,12.04-13.85.51-.51.88-.54.66-1.49-24.55-9.05-52.24-4.39-75.6,6.05-16.65,7.44-31.05,19.39-40.27,35.23-2.96.39.96-4.12,1.14-5.34l10.58-14.99c-5.01-.99-10.08-2.47-15.18-3.01-8.29-.88-21.77-.65-29.82,1.45-6.67,1.74-5.32,5.23-4.95,11.74.86,15.06,9.63,40.33,15.94,54.31.4.89,5.23,10.67,5.65,10.06.95-7.09.41-14.41,2.38-21.35.15-.52,1.42-5.27,2.56-3.91-3.31,9.42-2.66,19.45-3.05,29.29-.88,21.93-2.17,38.25,8.9,58.22,10.31,18.6,22.49,22.17,37.85,34.25,13.25,10.43,17.74,19.27,37.34,17.49,18.2-1.65,27.32-11.4,40.7-21.54,29.86-22.63,76.96-57.58,73.55-100.08-1.29-16.02-9.15-30.92-16.57-44.76-2.1,2.25-2.79,7.72-3.06,10.79s.36,6.39,0,9.25c-.14,1.12.21,1-1.23.91ZM432.28,190.88c2.04-2.86,2.85-21.56,1.4-22.63l-11.47,13.84c.57,4.65,2.15,9.23,1.62,13.88l8.45-5.09ZM565.18,407.59c43.4-47.25,60.05-118.17,22.45-174.21-32.27-48.1-89-62.34-144.39-57.73-1.74.14-3.53.71-5.29.88l-1.81,13.29c6.4-.6,10.8,4.78,15.23,8.5,48.81-.09,103.01,17.03,106.79,73.78.6,9.03-2.78,28.27-7.13,35.99-7.24,12.86-18.89,24.05-30.44,33.02,19.95,20.2,31.44,47.74,32.94,76.12.66.9,1.29.71,2.17.29,1.68-.79,7.75-8.06,9.48-9.94ZM420.12,184.27l-18.42,15.2c-1.92,3.55,5.16,9.9,9.15,8.51,1.7-.59,7.59-6.44,8.57-8.1,2.27-3.85,1.46-11.33.7-15.62ZM460.17,260.07c.93-.82,4.01-9.46,4.49-11.24,4.54-16.82-3.88-35-14.97-47.59-9.53-10.83-15.21-10.7-26.15-1.54-16.3,13.65-14.76,32.24-30.23,45.57-4.74,4.09-11.79,7.45-16.03,11.7-1.88,1.89-5.74,9.46-6.76,9.88-1.2.5-.94-.54-.69-1.31,4.09-12.39,20.81-17.41,28.72-27.36,5.28-6.63,7.54-16.53,10.49-24.32l-4.64-1.86c-.44,1.18-.79,1.4-2.14,1.24l1.23,1.22c-1.17.14-2.68.28-3.65.97-1.65,1.18-6.67,9.07-8.95,11.38-2.03,2.06-3.55,1.19-4.3,4.99l-2.81-.08c1.2,2.57-.47,3.3-2.18,4.91-5.02,4.73-11.22,8.12-16.64,12.34-2.96-.07.11-3.06-1.83-3.07-3.3,1.68-2.54,6.88-6.48,6.16-.42.36,2.4,5.63,4.29,3.71l-.29,3.06c-3.22-.07-2.4-1.8-3.64-3.11-4.08-4.33-12.34-6.91-17.56-10.8-2.71-2.02-4.9-6.58-9.12-4.71-1.21.54-2.26,2.66-3.25,1.68l1.85-2.15-3.7,2.78c1.45.63,1.43,2.67,2.58,4.19,2.28,3.02,5.27,5.58,8.5,7.51,6.61,3.96,16.63,4.67,18.49,13.24l-5.33-5.44c-8.57-3.9-18.47-6.6-23.88-14.94-1.46-2.25-3.24-8-4.08-8.87-.69-.71-6.56-3.22-8.18-4.14-1.79-1.02-3.21-2.55-5.06-3.46-6.17,8.13-11.35,18.49-10,29,1.87,14.58,30.76,52.83,42.04,63.34,3.16,2.94,8.58,6.88,12.96,7.38,18.06,2.08,9.84-10.45,7.51-20.45-.86-3.66-2.83-11.71-2.83-15.08,0-1.81,1.91-4.99,3.65-4.23-3.22,3.33-1.04,11.15-.08,15.49,1.06,4.77,5.28,20.5,10.38,21.66,1.74.4,4.8.72,5.14-1.43.21-1.34-3.57-11.15-4.18-13.71-.93-3.89-2.17-10.15-2.59-14.06-.13-1.22.11-.88,1.18-.87,2.49,10.9,3.32,30.43,17.57,32.05,4.56.52,16.3-.47,19.74-3.68,2.54-2.38,10.21-18.82,12.11-23.02,6.45-14.29,21.22-61.49,33.85-67.83,2.47-1.24,3.95-1.5,5.33,1.3,1.7,3.46.07,3.5-.34,5.56-.19.95.54,1.87.35,2.78-.38,1.84-1.56,3.49-1.71,5.38,1.1.48,2.11-4.88,2.42-2.21-1.35,4.52-2.98,6.26-1.8,11.15.18.74.11,1.88,1.21.92ZM457.1,202.76c-.45.39,4.66,7.55,5.25,8.61,9.23,16.63,10.96,28.82,3.48,46.65-.93,2.21-4.07,6.85-4.39,8.55-.6,3.14.66,8.57.61,12.33-.04,2.55-.42,6.54-.65,9.21-.35,4.14-2.79,12.68-1.37,16.18,1.65,4.07,12.76,14.73,16.96,16.32,2.34.89,4.44.2,6.76.64,8.45,1.58,16.22,4.83,23.68,8.98,2.41,1.34,6.98,5.24,8.87,5.97,2.31.88,9.08-5.01,11.06-6.78,22.94-20.46,32.2-54.04,19.2-82.7-14.91-32.87-56.53-42.75-89.46-43.95ZM267.06,266c5.53-4.67,11.11-9.25,16.92-13.58,3.16-2.35,12.2-7.38,14.03-10,1.04-1.49,1.33-3.59,2.22-5.18,1.68-3.01,3.62-5.89,5.27-8.92,0-1.45-7.49-7.93-8.79-7.6-1.88.47-12.42,7.52-14.95,9.14-50.46,32.29-96.9,92.3-112.76,150.38-9.56,35-8.8,89.38,31.13,105.06,29.39,11.55,55.19-7.73,39.32-38.7-7.79-15.21-24.64-27.39-40.7-32.64-.88-.29-15.81-3.47-14.04-4.75l7.4.3-6.78-3.38,7.39.61c-.59-34.68,14.96-68.69,34.26-96.7,11.68-16.96,24.39-30.8,40.08-44.05ZM423.21,511.81v-9.55c2.21,1.27.97,4.85,1.24,7.08.97,7.79,4.23,7.95,7.28,13.68,3.5,6.58,3.34,12,2.7,19.18-.06.69-.28,1.21.46,1.69.82.53,8.66.43,10.14.23,13.98-1.9,14.73-23.62,6.51-32.9-3.54-4-15.26-8.7-16.28-10.83-.81-1.69-1.52-9.1-1.6-11.34-.84-22.9,6.48-45.91,10.94-68,1.1-5.45,7.44-40.29,5.72-42.65-.34-.05-.81.36-.93.61-.72,1.53-.94,7.25-1.53,9.56-.22.86,0,1.92-1.23,2.16,2.15-11.34.9-23.01,1.22-34.51-1.57-.28-1.11.24-1.51,1.23-1.17,2.92-1.32,6.38-2.81,9.24-.96.17-.68-.88-.62-1.53,1.84-17.39,8.34-37.13,11.03-54.92,2.34-15.53,5.1-36.73,1.5-51.89-.69-2.89-3.45-12.68-7.19-11.85-6.86,8.75-10.43,19.69-14.62,29.89-6.05,14.73-11.41,30.23-18.93,44.55-1.24,11.01-.2,22.16-.74,33.16-.83,16.82-10.46,36.35-15.73,52.67-9.25,28.64-17.05,57.77-16.64,88.2.48,2.15,6.14,3.14,5.84,6.7-7.28-10.65-23.76,2.11-27.65,10.24-8.16,17.06,8.39,41.84,27.39,30.43-.59-6.29-.99-12.23,2.48-17.81.62-1,1.96-3.2,3.33-3.13-4.13,8.11-5.35,18.2.35,25.84,7.05,9.45,19.88,10.76,29.89,5.31,17.25-9.41,8.65-36.73-8.66-40.41-.89-.88.08-1.13.92-1.23,2.44-.31,4.29.67,6.43,1.62l1.28-.68ZM314.67,330.25c-1.83-10.5-5.3-20.86-7.64-31.35-1.04-4.68-1.19-10.68-2.42-14.83-1.38-4.64-6.64-10.66-8.65-16s-2.74-10.57-3.09-16.01c-24.89,16.3-46.31,37.43-63.05,62.05-2.9,4.26-13.82,20.93-14.64,24.83-.21,1,.5,2.2.35,2.48-.04.07-.89-.61-1.51-.04-.92.84-2.82,5.48-3.53,7.01-6.41,13.89-10.93,30.18-12.21,45.41,3.41-3.71,7.5-8.02,10.37-12.12,7.51-10.76,10.4-27.07,6.27-39.64,1.57-.28,1.11.24,1.51,1.23,5.01,12.56-.74,31.95-8.92,42.19-1.87,2.34-8.53,8.25-9.38,10.34-.78,1.91-1.02,12.4.57,13.44,17.24,6.01,33.69,16.48,43.22,32.43,6.96,11.66,9.97,23.93,3.52,36.56-2.23,4.37-4.87,4.43-1.68,10.29,3.5,6.41,13.61,2.17,18.61-.14,2.5-1.15,19.42-11.53,19.68-13.01-5.85-8.31-12.17-15.42-16.26-24.9-16.35-37.84-3.63-80.03,26.46-106.61,6.57-5.8,14.07-10.79,22.44-13.61ZM322.75,311.21c-3.33-2.87-5.72-6.35-9.55-8.62.21,5.9,2.11,12.63,3.69,18.49,3.57,13.19,8.41,26.08,11.87,39.32,1.02,3.92,2.65,9.61,3.18,13.43.09.64.43,1.64-.55,1.47-1.04-3.21-2.04-6.41-3.01-9.65-.3-1.01.49-1.73-1.31-1.43,2.74,35.14,9.91,69.64,15.35,104.42-.32,1.14-.17,2.61-1.79,2.19,1.1-2.42-1.08-3.81-1.18-4.17-1.86-6.9-1.41-15.33-3.09-22.02-.22-.87-.11-1.93-1.27-2.15.62,17.12,4.75,38.01-7.4,52.08l3.69-.62c-5.74,6.01-15.04,5.07-21.27,10.77-12.43,11.38-7.47,31.71,8.95,35.46l-1.26-10.5c.83-6.43,2.13-12.07,6.21-17.23,1.97-2.49,5.67-4.77,7.29-6.88,3.1-4.02,5.29-12.92,6.79-17.89.3-1.01-.49-1.74,1.31-1.43l-3.08,16.64c.36.35,4.56-.84,4.93,1.22-28.01,5.19-28.37,49.95,4,46.84,4.55-.44,14.42-4.93,15.61-9.71.46-1.84-3.86-8.03-4.64-11.11-4.07-16.14,4.53-27.99,18.96-33.8,3.08-16.39,6.56-31.17,4.89-47.97-2.47-24.79-11.43-65.33-23.11-87.2-1.02-1.91-.54,1.41-2.15.61l-7.6-30.01c-6-5.01-12.38-7.57-18.3-12.82-2.49-2.2-4.62-4.86-7.08-7.1l.93-.62ZM506.4,499.18h-8.94c-.47,0-7.04-2.88-7.09-1.54,2.09,1.32,4.67,2.31,6.62,3.83.51.4,1.74.45.46,1.42-3.67-1.2-7.27-5.72-11.3-3.61-1.89,2.99,3.91,20.34,6.65,22.92.64.61,1.64.29,1.8.46.27.3,0,2.59.35,3.69.51,1.56,1.94,1.63,2.47,2.46.78,1.21.8,3.6,1.92,5.48,12.34,20.72,53.43,10.72,40.87-16.84-8-17.56-32.07-17.31-42.45-1.93l-3.07,5.24c.06-10.53,14.81-20.23,24.34-20.38,8.7-.14,19.49,8.7,23.43,16.06s3.2,15.52-.83,23.03c.31,1.67,5.62,3.99,7.27,4.43,26.82,7.22,37.63-30.77,12.51-40.86-6.09-2.45-12.13-1.38-18.03-4.78-1.79-1.03.81-.87.61-1.22-2.53-1.41-5.99-7.73-8.03-8.65-2.79-1.26-5.73,4.71-9.22,3.4,9.89-10.19,16.95-21.31,20.54-35.23,10.22-39.64-1.37-93.18-35.75-118.1-11.3-8.19-27.35-16.3-41.48-11.83.54-1.31,3.42-1.76,2.37-3.61-.24-.43-6.65-4.7-7.93-5.93-1.49-1.42-6.59-8.31-7.69-8.33-2.04,13.64-8.13,27.65-7.09,41.6.06.82.3,3.73,1.22,4.01l6.16-13.55c-.88,6.86-4.06,13.52-5.26,20.3-1.48,8.36,1.51,17.27.95,26.22-1.09,17.26-8.21,34.82-9.79,51.22-.62,6.41,7.07,21.04,10.78,26.69,8.81,13.44,24.57,25.75,40.18,30.08,3.29.91,9,1.23,11.41,2.15.85.33,1.21.8,1.05,1.72ZM273.45,378.39c1.02-1.52,1.01-2.17,2.79-3.68,8.5-7.21,12.67-1.45,16.64,6.13,10.21,19.52,17.68,55.41,2.47,73.98-2.07,2.53-9.23,7.75-12.38,7.98-2.16.15-3.33-1.54-5.2-1.82,3,7.58,10.56,12.27,15.13,18.45.62.84,1.14,1.3.89,2.5-1.8-.67-5.23-4.7-6.96-4.25-.53.14-7.21,5.73-8.74,6.73-4.12,2.71-8.74,5.53-13.26,7.39l3.69.61c.19.14-.31.73-.61.93-.61.4-12.66,3.65-14.03,3.84-6.04.81-11.44-2.48-17.73-2.34-11.57.27-18.01,10.29-19.84,20.85-3.34,19.24,10.3,26.84,27.55,21.07.46-.63-2.18-6.14-2.39-7.73-1.79-13.66,5.29-27.26,19.06-30.75,4.27-1.08,8.01-.45,11.87-1.69,3.42-1.1,6.58-3.86,9.39-6.02,1.01.62-.21,1.36-.62,1.85-1.92,2.31-4.34,3.21-6.08,4.87-.51.49-.57.42-.39,1.27,1.57-.3,10.65,5.39,9.24,6.79-18.66-13.88-43.11-.64-40,23.06.69,5.26,4.52,10.69,9.38,12.8,15.02,6.54,34.84-6.69,46.95-14.91.02-8.61,1.51-17.22,8.38-23.05,5.08-4.31,11.9-4.46,16.28-9.6,2.99-3.51,6.1-11.87,6.99-16.44.34-1.77-2.56-.28-3.15-.06-7.2,2.7-15.93,8.75-20.94,13.87-.85.87-4.11,1.57-5.34,2.36-2.21,1.42-3.51,4.36-6.21,5.19.18-4.3,4.8-5.87,4.93-10.47l1.53,1.84c2.37-4.04,6.33-4.76,9.76-6.88,6.15-3.82,12.06-8.15,19.1-10.33,1.04-.68,1.59-7.79,1.68-9.57,1.37-27.39-4.12-55.55-7.42-82.62-1.44-11.79-1.83-23.17-4.52-34.93-.46-2.01-2.37-10.43-3.92-10.92-2.1-.66-12.27,5.27-14.57,6.83-9.47,6.41-27.6,25.6-30.61,36.57-.4,1.45.48.74,1.22.29-14.07,20.99-15.65,60.28,4.78,77.25l5.07,4.71-.61-3.08c2.27,3.01,3,2.65,6.36,1.13,7.39-3.35,10.77-12.9,12.33-20.33,3.45-16.46.18-33.29-5.9-48.75-1.32-3.36-6.68-15.81-10.04-16.46-6.5-1.25-7.79,2.97-12,5.53ZM384.37,345.09c-1.38.22-2.59-.31-3.85-.74-3.25-1.09-12.67-6.5-14.99-6.64-1.89-.12-3.93,3.11-4.53,4.72-1.26,3.38.52,16.79-.62,21.44l6.13,15.75c3.53-4.22,6.14-8,11.07-10.79,8.19-4.62,15.74-4.72,24.66-2.46,1.55.39,5.84,2.73,6.73,2.11,1.24-2.91,3.21-14.44,1.3-16.3l-10.82-5.21c-3.08.29,4.95,2.77,1.87,3.06l-11.81-6.1-1.13,1.18-4.02-1.86-.02,1.83ZM358.5,345.11c-1.63-.14-1-.04-1.22.93-.35,1.57-.24,3.13-1.24,4.62l1.84-1.22c-.63,3.28-2.69,6.39.32,9.24.77-1.92,1.64-5.74,1.6-7.72-.04-2.21-1.83-3.53-1.3-5.84ZM383.76,449.87c5.8-26.48,15.77-51.75,23.93-77.51.17-3.67-9.55-5.92-12.6-6.22-11.29-1.11-23.62,5.59-26.73,16.93,4.45,16.16,9.42,32.13,12.24,48.7.89,5.2.98,11.23,2.09,16.41.13.59.22,1.85,1.06,1.7ZM438.08,488.62c3.51.94,27.79-2.48,28.26-4.55-2.44-3.32-6.14-5.75-8.94-8.92-7.14-8.07-11.88-17.89-16.02-27.74-1.49,3.73-2.17,8.06-2.69,12.09s-2.52,27.91-.61,29.11ZM242.02,489.32c.35-.33-.79-4.24-1.53-4.3-1.29,1.29-5.17,2.31-3.66,4.31h5.19ZM473.66,491.27c-.09-.15-2.71-1.6-2.98-1.67-2.92-.86-13.71,2.63-17.77,3.24-1.76.26-3.62.6-5.38.79-1.41.15-7.55-.58-7.66.92,2.2,6.38,10.11,8.24,14.76,12.95,9.03,9.15,9.37,25.07,1.24,34.81,12.76-1.34,24.81-6.11,36.98-9.86.31-.31-3.33-7.22-3.89-7.82-2.16-2.32-7.93-4.35-10.84-7.34-3.53-3.63-6.14-11.65-6.16-16.64,0-1.82,2.02-8.83,1.7-9.38ZM482.96,499.82l-5.52-1.25c-.24,4.98-.19,9.74,3.35,13.59l5.89,4.27c-1.93-5.32-3.95-10.82-3.72-16.61ZM301.75,531.88l-3,.62-.03,1.8,4.31,1.24-1.28-3.66Z"/>
  <path d="M552.01,127.58c-.26.95.26,1.03.61,1.54,4.59,6.76,12,13.31,17.14,20.45,21.74,30.19,42.21,75.58,46.26,112.74,1.47,13.54.33,27.3.69,40.9l-1.25-5.83c3.86-62.05-24.9-124.12-65.77-169.03-11.38-.46-18.65-8.99-23.56-18.35-.11-1.83.7-.46,1.13.11,2.37,3.15,3.96,6.97,6.85,9.79,2.48,2.43,8.09,5.92,11.56,6.31.92.11,1.63.6,1.4-.78l-8.01-8.32c1.16-.27,1.47.64,2.16,1.22,5.81,4.9,5.66,9.42,14.62,7.23,31.03-7.56,27.29-54.16,11.2-74.34-9.71-12.17-40.01-33.64-56.05-26.6-4.33,1.9-1.31,4.28-3.96,6.82-2.37-7.82,7.84-10.65,13.77-10.43,11.55.43,37.42,18.25,45.09,27.07,20.18,23.21,24.2,73.14-13.87,79.51Z"/>
  <path d="M579.74,415.98l13.67-25.46,15.29-38.62c-1.94,11.16-6.41,22.66-10.98,33.08-4.23,9.64-9.92,21.04-16.02,29.58-.55.77-.64,1.72-1.96,1.42Z"/>
  <path d="M185.33,155.92c4.76-4.98,7.68-11.91,2.78-17.88-5.79-7.07-16.17-1.57-19.04,5.63-2.62,6.58,3.56,15.67,10.86,14.59,1.33-.2,4.13-1.62,5.4-2.33-4.47,4.68-10.93,4.42-15.1-.61-11.09-13.39,10.88-30.54,19.69-17.84,4.44,6.41,1.8,14.83-4.58,18.45Z"/>
  <path d="M535.37,102.92c6.88-15.23-.24-34.56-8.38-48.02-5.41-8.95-8.23-10.57-15.49-17.18-.67-.61-1.72-.65-1.41-1.98l9.25,6.46c9,9.97,16.19,22.72,18.82,36.03,1.51,7.67,2.49,18.39-2.8,24.68Z"/>
  <path d="M209.36,496.71v14.79h-1.23c-.21-.63.61-1.31.61-1.54v-12.63h-17.26c-1.21,4.48.57,8.94,0,13.56,1.94.03,3.9-.06,5.85,0,1.55.05,3.52,1.69,3.43-.56l1.17-.03,1.25,1.83h-12.33c.2-.61-.62-1.34-.62-1.54v-13.87c6.3-.5,12.87-1.33,19.1,0Z"/>
  <path d="M593.16,123.13c-.62,1.07-4.14,2.41-5.66,1.31-3.86-2.78.95-9.91,4.93-6.79,1.03.81,1.29,4.52.73,5.48ZM589.41,118.4c-5.71,5.63,5.12,8.24,1.78.49l-1.78-.49Z"/>
  <path d="M155.53,161.57c4.22-.79,4.1,7.77-1.23,7.24-2.88-1.26-.96-6.83,1.23-7.24ZM156.83,166.86c1.19-1.25.46-3.18-.77-4.15l-2.06,3.29c.54,1.31,1.79,1.95,2.83.86Z"/>
  <circle cx="517.5" cy="150.27" r="2.42"/>
  <path d="M409.03,142.06c-.73-6.44-3.97-13.17-5.55-19.41l-4.28,1.27c-.56.8,2.61,5.56,3.16,6.94,3.08,7.78,6.75,24.62,4.44,32.52-.44,1.5-2.35,4.38-3.3,5.82-6.14,9.31-18.08,19-29.6,19.39l7.03-2.42.36-1.26c-4.26-1.71-5.92-6.96-8.32-10.49l-3.38-15.4c-1.57,4.75-3.44,9.36-4.52,14.28-.75,3.42-.76,5.99-1.17,9.31-.07.58-1.48,1.88-.92.26l-.83-1.39c3.67-24.96,15.07-42.61,34.59-57.84,2.6-2.03,8.05-4.39,9.24-7.4,2.81-7.17-4.31-16.95-6.2-23.77,4.75,6.42,9.09,16.69,7.26,24.83-.44,1.97-2.91,3.07-2.94,4.43-.02,1.09,2.14,4.35,2.64,5.99,2.9,9.47,4.37,19.59,2.89,29.46-2.39.29-.61-1-.61-1.54,0-4.17.45-9.59,0-13.56ZM393.46,131.38c-6.83,1.44-2.26,16.34,4.03,16.43,6.48-1,2.34-17.77-4.03-16.43ZM404.72,149.14l-1.91.36-.56,2.1-2.45-1.85.61,2.46-2.46-1.84,1.22,5.55-2.46-1.85c.79,3.52-2.62,16.09-5.98,17.14-1.31.41-5.53-.94-6.66-1.71-2.56-1.73-3.64-5.75-5.55-8.03l-.91,2.46-.92-1.85-3.4-2.46c-.99,6.59,2.06,20.61,8.4,23.95,3.67,1.93,10.07-3.54,12.88-6.07,8.8-7.93,12.3-16.35,10.15-28.37Z"/>
  <path d="M257.03,143.38c12.37,10.53,25.86,21.19,35.78,34.16,4.54,5.94,10.31,13.73,9.6,21.51-1.3-.28-.32-2.92-2.45-2.46l-1.85,3.39,1.23,1.54c-26.85-1.26-37.42-27.92-37.07-51.35-6.8-4.57-8.8-7.74-8.52-16.12l2.45-15.71c.1,6.95-1.48,15.02-.64,21.9.16,1.29.66,2.19,1.48,3.15ZM290.09,198.44c-5.64-7.11-11.73-15.5-14.11-24.4-1.02-3.81-.73-10.49-1.76-13.03s-7.63-7.02-10-8.79c-.02,17.87,6.39,41.12,25.88,46.21ZM280.84,173.18c-2.2-.5-1.08,2.41-.79,3.57,1.52,6.11,8.35,22.12,15.44,22.83,4.37.44,4.75-8.13,2.54-10.92-.82-.51-5.47.95-4.89,2.54-.02.9-.73.5-1.22.17-3.51-2.41-5.14-11.12-7.36-14.04-1.1-1.45-3.92-1.3-3.73-4.15ZM290.72,178.11c-.99,2.21,3.25,10.28,5.22,9.86,2.73-.58-1.97-6.72-2.78-7.69-.66-.78-1.51-1.75-2.45-2.17Z"/>
  <path d="M304.89,179.96c-.14-6.45-5.43-11.51-6.16-17.87l7,16.16-.84,1.71Z"/>
  <path d="M210.44,189.3c3.98-.67,7.27,4.38,6.69,7.92-1.63,9.86-16.92,10.16-14.42-.81.64-2.78,4.96-6.65,7.73-7.11ZM211.01,191.21c-7.08.2-10.71,13.12-1.51,12.05,8.29-.96,6.68-12.2,1.51-12.05Z"/>
  <path d="M435.53,382.09c.56,4.53,1.67,8.93,1.23,13.56l-2.41-12.69,1.18-.87Z"/>
  <path d="M505.01,385.94c12.7-2.12,25.58,16.81,30.27,26.75,9.01,19.09,10.17,43.5-.51,62.17-18.1,31.63-45.98-3.99-51.94-25.12-3.2-11.36-1.46-22.57,1.7-33.75,2.38-8.42,10.93-28.46,20.48-30.05ZM506.26,387.14c-9.59,1.34-17.59,20.57-19.88,28.85-2.67,9.64-4.13,22.77-1.71,32.53,4.66,18.86,31.48,54.12,47.88,25.35,12.97-22.74,7.44-57.24-9.52-76.66-3.4-3.89-11.36-10.82-16.76-10.07Z"/>
  <path d="M513.79,488.71c-.06,1.37-2.7.08-3.22-.17-2.47-1.18-5.81-3.51-7.86-5.38l11.09,5.55Z"/>
  <path d="M235.87,411.67c.69-5.07-2.02-5.75-6.33-4.32-2.9,4.6-.33,6.6,4.48,6.47-6.61,3.95-9.76-5.78-3.55-8.47,4.27-1.85,8.88,3.04,5.39,6.31Z"/>
  <path d="M514.85,287.27l2.03.21c1.91.97,1.82,5.78-.45,6.4-4.84.51-5.05-4.32-1.59-6.61Z"/>
  <path d="M296.86,502.88l1.85,8.01c-1.7-1.04-2.7-4.73-2.94-6.62-.17-1.31-.54-1.58,1.09-1.39Z"/>
  <path d="M352.94,399.96l-2.2-11.1.67-2.45c.36,4.46,2.23,9.15,1.53,13.55Z"/>
</svg>