<?xml version="1.0" encoding="UTF-8"?>
<svg id="katman_1" data-name="katman 1" xmlns="http://www.w3.org/2000/svg" viewBox="0 0 841.89 595.28">
  <path d="M448.31,452.02c-4.89.89-9.54,2.75-14.38,3.87-39.76,9.14-82.06,2-114.35-23.38-28.82-22.66-48.14-61.85-28.52-97,26.05-46.68,95.52-28.03,91.25,25.75-1.43,18-16.46,35.23-35.27,35.28-5.25.01-9.88-3.34-3.48,3.99,25.84,29.61,70.78,37.98,106.26,21.74-1.63-2.06-3.62-3.65-5.2-5.79-12.53-16.9-7.37-45.41-1.81-64.21-.74-.95-.57-.6-1.31-.33-14.55,5.25-41.93,16.93-44.17-8.67-.72-8.2,2.39-15.99,3.79-23.77-24.21-6.62-46.86-18.58-62.01-39.01-.89-1.2-2.73-5.18-3.79-5.74-1.12-.6-5.11,2.25-6.46,3.07-16.18,9.86-32.1,22.17-45.84,35.16-1.61,1.23-4.41.41-4.72-1.72s3.63-6.62,5.03-8.45c3.76-4.91,8.32-9.69,12.65-14.1,10.29-10.47,21.73-19.7,33.14-28.91-1.44-6.07-3.48-12.79-3.83-19.04-.13-2.39,1.37-6.96-.84-8.15-14.41,1.45-28.64,4.27-42.52,8.3-2.97.86-11.3,4.44-13.45,4.51s-3.29-2.44-2.4-4.37c1.47-3.18,25.12-13.26,29.62-14.88,4.77-1.72,9.99-3.34,14.91-4.59,2.48-.63,16.88-3.23,17.46-4.04.13-2.38,2.32-6.65,2.23-8.7-.12-2.71-2.63-9.37-3.32-12.7-5.3-25.47-6.73-58.66,2.34-83.35,2.14-5.82,5.86-15.03,12.77-15.73,10.38-1.06,30.28,4.65,40.63,7.86,1.67.52,12.13,4.59,12.61,4.13l-19.91-52.14c.78-2.89,4-3.33,5.63-.82,11.92,19.87,24.04,39.64,34.85,60.16.4,1.06,1.67.82,2.33.17.53-.52-.58-12.27-.41-14.64,1.04-14.43,10.82-27.69,26.66-22.12,6.84,2.41,10.51,8.08,14.86,13.39-.07-10.39-.81-20.91-2-31.25s-3.4-20.29-4.39-30.4c.83-2.1,3.72-2.58,5.12-.83,1.25,1.56,3.8,10.92,4.53,13.47,3.99,13.87,6.67,28.71,8.75,43,.93.16,1.44-.65,2.01-1.23,2.31-2.39,4.42-5.75,6.73-8.27,9.88-10.75,22.98-21.56,35.61-28.89,4.06-2.36,15.77-8.93,20.13-7.33,9,3.31,23.64,30.58,27.95,39.55,9.51,19.78,17.14,41.53,21.09,63.16,13.29-1.9,26.48-4.67,39.8-6.41,7.42-.97,15.49-1.96,22.94-2.57,6.01-.49,15.83-1.55,21.52-1.03,3.79.34,6.01,3.61,2.24,5.79-25.95,4.3-51.74,9.93-76.51,18.75,3.74,7.95,7.26,16.16,8.88,24.87.31,1.66-.23,3.47.75,5.01,16.7,5.51,33.79,11.88,49.57,19.68,5.26,2.6,11.93,5.98,16.67,9.33,1.54,1.09,5.2,3.45,5.19,5.36,0,1.79-1.91,3.24-3.67,2.65-21.6-9.63-44.75-16.1-68.38-18.4-3.51,32.61-23.33,59.98-47.92,80.33,2.08,4.21,5.05,7.98,7.18,12.17,2.16,4.24,3.51,8.71,5.49,13.01,4.77-13.94,20.68-18.39,30.99-7.09,11.97-10.55,30.42-5.5,34.51,10.08.3,1.14.62,5.88,1.21,6.29,23.54.92,24.16,36.7.78,39.21-1.83.2-4.7-.43-6.23.27-1.63.74-8.4,9.05-9.99,11.01-7.73,9.57-16.08,21.48-22.53,31.97-8.19,13.31-18.89,43-39.38,34.91-16.51-6.52-9.61-28.06-10.59-41.91-.07-1.01-1.31-9.23-1.78-9.24-8.27,4.84-12.46,14.36-18.26,21.74-9.97,12.7-21.24,19.93-37.77,21.23-7.02,9.49-13.61,22.1-5.36,33.06,7.09-1.52,14.08-2.73,20.99.38,22.87,10.29-3.19,40.68-12.86,51.83-17.42,20.1-58.87,54.56-87.09,48.11-6.25-1.43-9.34-6.82-10.73-7.27s-4.26-.16-6.28-.72c-4.36-1.2-12.76-9.23-14.8-13.2-3.95-7.66-1.12-15.86,5.96-20.37,7.65-4.87,18.19-3.79,27.06-5.44,20.84-3.88,40.68-16.68,51.38-35.1.05-1.32-3.24-4.37-4.19-5.8-1.74-2.64-5.29-10.75-5.29-13.71v-10.75ZM341.06,231.02c-2.69.56-7.08-.41-10,0-.5.31-.65.69-.75,1.25-.39,2.11-.16,8.11,0,10.49.36,5.18,1.94,10.22,3,15.26,2.79-.23,9.3-6.97,11.55-4.28,1.87,2.24-6.4,5.49-8.01,6.57-11.18,7.42-23.44,17.59-32.99,27.03-.53.52-4.3,4.44-4.06,4.67l31.54-21.2c2.52-1.51,14.54-8.85,16.63-8.24l1.25,1.79c.19,2.11-9.54,4.05-10.37,6.82,13.33,24.14,39.5,37.71,65.44,44.34,5.98-15.66,14.69-30.15,24.95-43.35.16-1.04-1.75-1.67-2.43-2.41-6.53-7.07-7.39-15.95-2.5-24.24l-19.87,9.12c-.91,2.46-4.06,13.12-6.12,14.13-2.57,1.25-10.92-2.38-14.24-2.27-2.58.08-5.56,2.29-9.02,2.25-10.92-.15-17.16-13.25-10.74-21.97.92-1.24,4.36-4.78,6.03-3.54,1.88,3.06-1.12,3.04-2.54,4.67-6.35,7.29-.48,18.84,10.03,16.89,5.04-.93,18.24-9.8,23.8-12.7,26.99-14.07,57.65-25.9,87.56-31.94,20.41-4.12,69.45-7.96,84.35-20.15,2.88-2.35,6.8-6.38,3.53-10.01-1.41-1.56-7.22-2.56-5.82-4.73s5.02-.24,6.72.83c8.98,5.7.95,14.81-5.21,18.63-3.29,2.05-11.48,4.36-13.23,5.77-1.06.85-3.41,6.3-4.52,7.98-.9,1.36-4.08,5.7-5.35,6.18-3.18,1.19-8.7-8.03-11.57-9.09l-38.79,6.47c5.92,3.82,9.93,8.81,11,15.99,2.67-.6,4.51-2.91,7.36-3.89,8.25-2.83,16.98,2.1,20.64,9.63,3.73,7.68,2.68,15.98-1.92,23.01l16.1,17.21c24.33-19.27,43.54-46.55,46.76-78.18-.37-1.52-7.4-.32-7.85-2.61-.61-3.07,5.81-1.83,7.65-1.67,17.04,1.52,33.8,5.6,50.25,9.99l-6.66-3.58c-13.27-5.72-26.65-11.18-40.45-15.55-1.62-.51-8.83-2.05-9.4-2.6-1.03-1.01-.39-2.89.86-3.19s3.99,1.43,5.65.92c-.79-8.06-3.39-16.07-6.91-23.34-.56-1.15-1.93-4.71-3.24-4.58-1.76.54-4.48,2.75-6.13,1.46s-.39-2.37.94-3.14c4.09-2.39,10.12-3.42,14.46-5.54l39.88-11.36-35.7,4.54-25.46,4.98-.62-2.52,3.27-1.75c-26.15-29.24-67.59-38.95-105.53-40.46l-.96.5c.46,3.17,1.31,6.82,1.5,9.96.16,2.68.36,4.29-2.93,3.68l-9.31-53.94,1.74,26.26c-2.76,10.91,1.03,18.48,3.26,28.74,3.02,13.84,7.64,43.7-10.35,49.16-19.41,5.88-28.69-21.15-32.91-35.15-.36-.29-1.93,2.81-3.93.18-1.74-2.29-3.42-7.34-4.88-10.12-7.92-15.16-16.32-30.28-25.68-44.56,1.42,7.43,24.21,58.55,22.76,61.49-.74,1.49-2.09,1.19-3,0-1.84-2.42-3.44-9.87-4.77-12.98-.93-.82-10.64,6.02-12.15,7.09-27.26,19.32-52.31,49.27-59.84,82.4l10.17-.42.86,1.18-.53,1.5c-2.01,1.34-4.52.49-6.75.74-11.72,1.32-23.84,3.74-35.02,7.48-3.33,1.11-7.27,2.5-10.23,4.27l22.32-4.18c6.88-.36,14.61-1.99,21.41-2.09,1.56-.02,8.55-.01,7.74,2.7-.11.38-1.37,1.24-1.72,1.32ZM553.31,121.01c-4.46-11.72-9.53-26.53-17.29-36.45-1.93-2.47-3.33-4.92-6.83-4.43-6.06.84-21.52,13.12-26.38,17.63-.95.88-5.13,4.84-5.42,5.58-.12.33-.3,1.14.18,1.18,4.71.14,9.7,1.16,14.34,2.15,14.39,3.06,28.21,7.92,41.4,14.34ZM423.32,98.01l26.4-6.35c3.64-.46-1.1-4.35-2.45-5.36-9.9-7.37-23.84-.76-23.95,11.7ZM458.29,104c.71-.84-3.28-9.37-4.73-9.5l-29.88,7.14c-3.31,1.51.54,7.72.91,10.39l33.7-8.04ZM460.25,107.58l-33.95,7.69c-.63.36-.37.73-.29,1.26.18,1.26,2.97,9.87,3.56,10.52,1.16,1.29,29.65-7.63,33.74-8.05l-3.05-11.42ZM434.81,153.01l-11.49-34.99c1.52,10.46,5.25,20.48,8.91,30.33l2.58,4.66ZM422.81,131.51c-.47-2.7-1.01-7.81-2.1-10.14-.71-1.51-1.67-.58-2.68.14l-.15.67,4.93,9.34ZM464.29,122.53l-32.98,8.23c-.61.35-.48.8-.41,1.38.13,1.16,3.05,9.11,3.75,9.33l30.64-6.72c.32-.17.63-.4.8-.73.64-1.22-1.54-9.47-1.8-11.49ZM350.32,172.01c.84.19,1.01-.27,1.49-.76,7.03-7.15,12.9-17.32,21.25-23.75l14.02-11.99c-1.18-1.68-16.31-6.19-19.15-6.85-3.3-.77-9.19-2.13-12.39-2.17-3.52-.05-3.86,3.85-4.47,6.52-2.22,9.59-2.56,22.47-1.74,32.25.18,2.16.75,4.57,1,6.75ZM466.81,138.52l-31.04,7.24c.22,1.5,2.74,9.49,3.77,9.64l27.27-8.14v-8.75ZM466.31,152.02l-25.21,6.44c-.95,5.19,5.97,8.93,10.46,9.09,9.05.32,13.74-7.51,14.75-15.53ZM554.31,212.02l-11,2.5c-.79.93,4.44,6.35,5.69,5.97l5.31-8.47ZM507.94,244.39c-1.23-5.34-1.55-11.06-5.35-15.39-5.72-6.51-18.15-5.15-23.73.84,1.46,2.29,3.41,3.63,4.73,6.16,4.09,7.79,1.97,14.64-2.26,21.74,4.84,2.02,9.74,4.51,11.84,9.68,3.11,7.67-.08,15.06-5.31,20.78,4.57,5.53,12.75,4.46,18.12.73,1.8-1.25,4.82-5.69,6.17-5.8s10.14,5.78,11.83,6.99c5.82,4.17,11.63,9.39,15.75,15.25,1.19,1.7,6.79,9.89,4.63,11.44s-4.05-3.44-5.27-4.8c-2.12-2.35-10.11-7.14-13.14-7.4-1.02-.09-14.49,5.6-17.36,6.42-1.84.52-5.1,2.2-4.74-.98l24.47-11.04c.2-.73-.2-.83-.49-1.25-1.09-1.62-12.73-9.94-14.38-10.17-1.12-.15-5.35,4.19-7.11,5.2-5.63,3.21-12.84,4.02-18.48.45-.75-.47-2.68-2.7-2.88-2.73-1.34-.21-7.02,2.21-9.47,2.45-7.12.71-13.3-1.53-19.83-3.87-1.61.41-8.73,11.93-9.94,14.1-1.8,3.22-5.77,10.56-6.68,13.82-.23.85-.32,1.64-.24,2.51,15.59.55,30.99-.54,46.25-3.5,1.16,2.33-4.64,3.46-6.54,3.97-13.67,3.67-27.64,3.04-41.66,3.09-.78,3.42-1.77,6.87-2.42,10.32-.3,1.6.4,5.67-1.95,6.08-2.66.47-1.71-5.29-1.54-6.57,1.38-10.16,6.41-21.71,11.37-30.63,1.72-3.1,9.46-15.82,12.01-17,1.75-.81,6.91,2.06,9.23,2.76,6.81,2.05,13.43,2.61,19.72-1.3,10.03-6.23,10.54-20.72-1.46-24.96-1.47-.52-5.57-.48-5.77-2.2-.13-1.16,3.16-5.03,3.96-6.62,9.57-19.22-15.22-31.08-23.62-14.62-.8,1.57-2.41,7.86-3.39,8.14-1.3.37-5.45-3.42-7.17-4.2-15.45-7.01-27.36,12.15-17.48,23.98,1.61,1.93,5.85,3.75,5.41,5.9-11.23,14.16-21.71,30.76-27.57,47.97-3.26,9.58-9.8,33.09,5.9,34.38,10.97.9,23.72-4.98,33.43-9.56,2.17-1.75,4.34-11.37,6.57-13.43.3-.28.51-.58.99-.52l1.24.8c-7.32,19.87-14.06,41.45-12.47,62.96.87,11.72,6.73,24.35,18.97,27.55,1.5.04,1.84-4.03,4.26-3.83,1.62.13,1.41,1.87,1.03,3.06-.75,2.36-5.12,8.03-6.55,10.95-6.26,12.83-10.41,29.86-1.44,42.49,3.98,5.61,8.98,7.56,14.11,11.38,1.38,1.02.51,2.24-1.01,2.07-2.38-.26-6.44-3.19-8.64-4.39-2.73,3.89-5.32,7.91-8.49,11.48-2.91,3.29-8.21,6.97-10.51,9.99-.38.5-.97.63-.75,1.5,12.43,1.2,25.21,9.87,29,22,.56.07.99.01,1.5-.25.35-.18,5.05-4.53,5.77-5.23,8.25-8.02,29.47-32.4,30.68-43.32,1.39-12.58-13.72-15.52-22.93-11.45,1.54,1.14,1.07,3.99-1.06,3.53-1.94-.42-6.56-7.02-7.55-8.93-5.71-11.02-1.24-21.71,4.89-31.3.93-1.46,5.6-8.33,6.46-9.03,2.17-1.75,3.99.17,2.74,2.49,12.04-.48,21.95-7.42,29.49-16.26,7.34-8.61,12.19-21.33,23-25.76.07-1.75-2-3.05-.52-4.77,2.3-1.66,4.31,3.6,4.91,5.15,2.78,7.12,3.47,17.77,3.14,25.4-.38,8.93-3.96,21.02,6.98,25.48,16.42,6.68,26.27-19.94,32.79-30.7,4.11-6.78,8.73-13.26,13.2-19.8-4.9-.3-9.8.59-14.74.25-10.58-.73-20.6-4.64-29-10.99-2.29,4.81-3.73,10.09-6.18,14.83-.8,1.56-1.09,2.6-3.08,2.16l9.38-31.19c-10.27-10.89-18.68-7.81-26.3,3.53-1.23,1.83-4.65,9.5-6.36,9.68-2.22.24-1.9-1.82-1.35-3.39.69-1.96,4.14-7.08,5.5-8.99,2.49-3.49,5.28-6.76,8.88-9.14l.24-.73c.06-1.97-9.36-12.7-11.25-14.78-2.47-2.71-6.48-5.74-8.53-8.47-.98-1.3-1.04-2.83.8-2.32,3.28.92,9.46,9.14,11.32,9.69,3.29.98,12.85-1.23,16.29-2.51,18.25-6.83,14.21-19.43,6.45-33.22-5.86-10.42-14.28-20.44-22.88-28.64-1.18-.28-2.08,3.96-4.94,3.5-1.43-.23-1.58-1.32-1.02-2.52,7.92-7.45,12.18-20.24,4.23-29.24-7.25-8.21-17.43-5.3-23,3l-1.86-.39ZM454.81,233.52c-.39-.37-9.21,2.9-10.29,3.45-.38.2-1.57.17-.71,1.04.45.45,6.34,1.92,7.25,3.5l3.74-7.99ZM399.31,257.52l-10.48,5.75c0,.86,6.82,2.32,8.01,1.52.47-.32,2.86-6.74,2.47-7.27ZM599.31,316.01c-4.31-17.26-23.53-16.59-26.93,1.33-2.75,14.5-3.69,28.52-7.22,43.28-.47,1.98-2.51,7.11-2.36,8.64.12,1.25,4.75,4.18,6.05,4.96,11.6,6.99,26.25,8.27,39.33,5.42,6.02-6.77,10.9-14.67,17.55-20.97.45-1.22-2.28-2.57-3.05-3.79-2.49-3.93-1.33-8.59,1.62-11.86-4.48,1.66-8.89,3.15-12.82-.68-10.64-10.36,7.06-31.32,17.81-17.32,4.43-15.33-13.76-27.3-25.95-16.71-3.75,3.26-1.04,4.47-.6,8.51.24,2.15-.21,5.76-.51,7.89-.85,6.08-3.59,14.18-10.72,15.28-13.32,2.07-14.12-19.79-1.9-24.9,4.33-1.81,5.64-.51,9.68.93ZM355.81,349.51c-2.56.06-4.34-2.33-6.5-3.24-7.95-3.38-18.94-.5-23.09,7.41-5.18,9.87-.37,22.44,4.83,31.35,2.34,4.01,2.95,4.67,7.74,5.76,27.4,6.19,43.61-20.09,37.68-44.68-9.52-39.45-60.02-43.56-80.37-10.05-25.39,41.79,10.84,90.1,49.46,106.96l-1.77-7.23c-.71-6.49,2.2-12.17,8.17-14.87.77-.35,6.29-1.73,5.85-2.4-15.69-9.68-35.76-33.5-37.44-52.32-1.28-14.32,8.95-26.14,23.68-24.68,4.01.4,11.34,3.48,11.75,7.99ZM586.45,335.37c4.67,3.88,10.39-2.27,11.72-6.75,3.03-10.23-6.59-15.1-11.96-5.96-1.69,2.87-2.44,10.48.25,12.71ZM619.18,324.14c-8.06,1.31-10.41,16.95-1.54,17.21s13.57-19.16,1.54-17.21ZM546.41,347.91c2.99.07,5.4.03,8.29.97s4.09,2.51,6.35,3.66c.48.24.38.82,1.02-.01l4.24-26.01c-6.38,7.84-15.67,11.21-25.49,12.51l5.6,8.89ZM643.31,352.51c1.05,1.08,4.09-4.52,4.36-5.39,3.34-10.91-2.99-22.43-15.28-20.53-2.74,4.71-2.7,9.99-6.08,14.41,8.64-4.2,20.16.75,17,11.5ZM631.18,343.14c-7.36,1.24-8.73,11.81-.57,12.83,12.41,1.56,13.08-14.93.57-12.83ZM459.31,425.52l-3.13-.93c-25.21,12.31-55.06,14.16-81.21,3.51-3.87-1.58-10.05-5.68-13.88-5.61-11.97.23-16.97,8.41-11.78,19.27.39.82,1.46,3,1.98,3.52,2.14,2.09,16.32,5.77,19.92,6.58,26.58,5.98,53.79,3.39,79.27-5.82,2.38-7.1,5.2-13.97,8.84-20.53ZM427.18,533.64c1.35,1.86-.29,2.87-1.97,3.53-8.63,3.37-26.3-1.86-27.4,12.1-1.08,13.85,18.69,12.01,27.49,9.49,15.72-4.52,31.11-16.26,43.78-26.25,1.29-2.03-5.16-11.01-6.82-12.69-4.82-4.85-13.95-9.11-20.76-9.74-5.94-.55-9.17,3.17-14.35,5.52-14.4,6.54-23.89,5.82-38.46,8.54-7.99,1.5-16.36,8.67-11.01,17.23.32.52-.02.87,1.13.64.14-10.27,8.97-15,18.23-15.52,1.82-.1,12.22-.22,10.54,3.03-2.67,1.91-6.91.28-10.51.5-8.28.51-16.28,5.11-14.63,14.63.78,4.52,6.2,8.18,10.63,7.88,1.94-.13,1.08-3.54,1.36-5.14.42-2.42,2.81-6.2,4.62-7.88,5.85-5.42,12.82-3.46,19.95-4.55,1.93-.29,7.09-2.4,8.18-1.32Z"/>
  <path d="M581.15,386.2c5.46-.06,6.1,6.35,5.61,10.51-.74,6.36-7.98,20.56-15.97,18.08-9.25-2.87-.15-28.47,10.36-28.59ZM579.67,390.12c-3.01.69-6.91,7.82-7.88,10.63-1.06,3.09-2.65,8.5.37,10.7,3.85,1.07,8.55-7.24,9.65-10.17,1.16-3.08,3.82-12.52-2.15-11.16Z"/>
  <path d="M486.88,191.95c-6.68-22.31-3.64-53.94,17.77-67.34s45.27-.48,57.37,19.45c2.14,3.52,9.14,17.21,8.79,20.7-.05.55-.32.96-.72,1.32l-1.28.25c-27.17-11.54-52.28-7.04-71.75,15.19-1.65,1.88-6.37,9.27-7.46,10.04-.81.58-1.79.64-2.72.4ZM565.81,161.51c-2.01-8.2-7.01-17.27-12.51-23.73-15.92-18.7-41.8-21.57-56.79-.29,5.68,8.84,9.87,18.96,10.81,29.52,2.96-1.29,5.57-3.37,8.48-4.76,11.52-5.52,23.06-6.69,35.61-4.58,4.89.82,9.73,2.25,14.41,3.84ZM497.81,151.01c1.59-4.32-.18-7.61-2.74-10.99-1.3,1.01-.72,2.69-.52,4.02.11.76,1.71,8.12,3.27,6.97ZM488.82,185.51l14.99-15.25c-6.44-6.22-8.93-15.9-11.5-24.25-.88-.69-3.09,6.84-3.24,7.5-2.53,10.51-2.07,21.42-.25,32Z"/>
  <path d="M448.69,201.39l-1.53.48c-29.93-10.06-67.62-1.43-86.34,24.89-3.38,1.38-3.34-1.98-3.52-4.48-1.63-22.04,4.54-57.55,30.02-63.53s51.31,20.41,61.88,41.44l-.5,1.2ZM415.32,168.02c.74,5.6,3.11,11.07,3.52,16.73.18,2.58.7,8.11-2.82,8.27-.44.08-.8-.07-1.19-.25-3.16-1.45-7.09-13.32-8.15-16.87-.65-2.18-2.73-12.71-3.65-13.35-.73-.5-4.33-.97-5.45-1.05-30.19-2.12-38.25,34.6-36.53,58.03.65.86.72.17,1.26-.26,2.25-1.78,4.27-4.59,6.49-6.51,19.76-17.05,48.9-22.02,74-16.25.37-.34-4.49-7.37-5.08-8.16-5.71-7.67-13.88-16.09-22.41-20.33ZM406.32,163.52c.41,1.7,2.6,12.48,3.75,12.49,3.93-4.17,3.33-12.7-3.75-12.49Z"/>
</svg>