<?xml version="1.0" encoding="UTF-8"?>
<svg id="katman_1" data-name="katman 1" xmlns="http://www.w3.org/2000/svg" viewBox="0 0 841.89 595.28">
  <path d="M612.42,122.26c-21.65,22.46-47.74,40.87-75.98,54.12-4.83,2.26-9.98,4.1-14.91,6.12,14.74,30.69,21.48,64.58,25.05,98.34.22.27,3.01-1.74,3.59-2.21,17.71-14.39,34.73-34.28,53.2-49.62,10.32-8.57,33.38-28.19,44.53-33.26,7.05-3.21,9.86-.3,13.28,5.81,11.11,19.84,19.84,56.45,23.73,79.1,3.24,18.9,8.12,52.85,5.54,71.19-.6,4.27-1.94,5.23-5.56,6.96-12.12,5.78-28.96,10.22-41.98,15.24-19.94,7.69-39.72,15.86-59.7,23.46l-.86,2.6c1.09,6.21,9.83,26,7.58,30.94s-29.22,9.61-34.93,13.42l8.39,36.02-.93,2.23-26.55,5.64,3.96,39.28c-1.06,1.76-2.46,1.87-4.34,1.75-4.05-.26-24.9-8.48-26.48-7.09-1.96,11.21-7.97,21.14-14.34,30.37,18.49,2.3,38.89,3.07,56.89,7.94,4.26,1.15,13.69,2.77,10.26,8.7-2.7,3.2-22.28.49-28.04,1.46-8.43,1.43-12.66,8.16-17.63,10.09-3.78,1.46-13.09,2.43-17.56,3-57.26,7.36-118.61,7.14-176.05,4.59-37.85-1.68-86.35-2.87-122.78-12.24-4.68-1.2-15.86-4-9.59-10.18s29.92-7.63,38.94-9.79c-9-14.95-26.16-44.33-12.5-60.33,5.58-6.53,13.95-5.96,15.87-7.83.64-.62,3.18-8.74,4.53-11.12s6.01-7.21,6.26-8.1c.72-2.49-2.22-11.39-2.52-15.02-.77-9.28-.39-22.65,1.28-31.77.7-3.84,4.12-11.9,4.03-14.78s-10.61-6.05-13.09-7.37c-67.59-36.02-73.18-99.31-45.41-165.55,4.55-10.87,10.62-20.72,15.62-31.32-40.58-11.47-83-35.96-107.14-71.26-6.96-10.18-13.33-19.48,1.39-26,25.58-11.33,74.89-9.38,102.49-5.45,29.05,4.13,57.41,13,83.28,26.67,47.59-25.77,107.87-32.99,158.29-10.94,35.29-39.01,81.4-71.85,131.41-89.19,22.74-7.88,65.83-17.61,89.03-12.1,16.59,3.94,8.45,18.66,3.69,29.71-11.39,26.42-33.25,57.06-53.22,77.77ZM575.17,43.88c-2.07-2.01-36.98,15.16-41.73,17.73-31.48,17.07-70.88,47.22-91.7,76.41-2.62,3.67-5.45,8-6.97,12.27-5.67-6.08-3.39-14.93-1.85-22.26-58.41-23.54-125.21-7.95-172.52,31.64-64.46,53.94-116.15,168.98-25.85,225.27,19.18,11.96,41.17,17.98,60.73,29.15l-.43,1.76-34.48-8.57c-9.46,25.24-7.86,55.34,6.82,78.25,5.79,9.03,16.37,21.23,28.09,20.64l-1.78-5.35c4.19-.91,2.95,5.46,8.02,3.12,5.12-2.36-.38-5.61-.89-9.82-1.27-10.5,2.4-24.85,1.84-35.83-.25-5.05-2.2-10.14-2.72-15.15.86-1.4,1.14.66,1.4,1.27,1,2.36,1.65,7.45,3.49,2.73,2.82-7.21-2.67-14.51-3.98-21.45l8.49,9.82c.36,0,3.77-5.51,3.88-6.02.4-1.89-1.33-3.31-1.59-5.19-.77-5.4.62-7.43,3.53-11.56-33.22-19.61-77.46-26.04-103.7-56.38-57.69-66.7,27.18-173.73,101.48-179.24,68.68-5.09,139.16,51.83,156.87,116.73,13.63,49.94-2.64,67.41-47.12,85.12-28.19,11.22-58.26,18.71-84.35,34.77,3.06,6.53,2.82,9.21.19,15.79l3.01,2.45c3.45,0,10.24-16.62,16.54-16.11l-1.79,3.56c1.98,1.49,13.13-10.73,16.99-10.71-13.21,15.74-24.12,34.23-29.25,54.34-2.66,10.43-7.54,36.4,1.97,44.01,1.11.89,2.88,2.13,4.34,1.7,2.43-.71,1.13-5.03,4.16-4.39l-.89,5.35c24.01-4.93,41.64-26.06,55.89-44.7,1.42,3.19-8.52,18.75-7.6,19.66,5.42-1.14,10.33-4.41,16.09-3.56-5.67,5.49-14.64,8.46-17.88,16.07,20.36,7.28,35.2,32.51,28.6,53.66l-10.69-21.93c-6.39-9.73-24.8-29.81-35.79-16.07,17.87-.19,27.36,19.86,31.53,34.63,2.53,8.98,3.82,17.56.66,26.61,35.21.7,70.04-15.66,80.71-51.17,1.04-3.47,4.57-15.82,2.46-18.13-3.14-3.42-18.21-7.35-18.82-11.66-.04-6.86,13.23-14.01,14.85-19.14,1.37-4.33-2.69-10.59-3.31-15.12-4.71-1.8-23.04,3.49-24.78-1.61-1.66-4.88,8.8-24.42,10.53-30.25l-13.26-24.91c-10.76-1.1-22.23,2.39-33.17.76,35.19-13.96,87.14-30.95,99.5-71.29,9.35-30.5.38-87.15-9.85-117.62-3.06-9.11-7.67-17.47-10.86-26.51-4.5-1.21-8.91.68-13.95.34-7.39-.49-13.02-3.77-18.77-8.05-1.37-1.02-10.53-8.46-9.4-9.82,21.91,9.61,46.55,2.73,67.37-6.39,18.05-7.91,35.73-19.58,49.75-33.41-6.13-.26-12.98,3.63-18.84-.12,1.39-6.77,4.44-12.97,6.26-19.62,6-21.88,6.37-44.04,4.54-66.55ZM267.58,135.11c-18.14-7.16-36.29-14.15-55.43-18.36-20.34-4.47-59.24-11.7-55.35,21.37,1.69,14.35,13.31,26.06,21.36,37.2l-21.46-4.02c15.1,12.17,34.7,19.48,53.91,21.96,13.02-17.29,28.24-33.57,44.92-47.41,1.92-1.59,11.51-7.6,11.87-8.23.43-.73.09-1.71.17-2.51ZM313.9,191.69c-18.36,1.2-35.59,8.94-50.7,19.04-4.52,3.02-20.05,14.83-22.23,18.9-8.7,16.26-7.16,43.54-11.2,61.22-3.93,17.17-13.46,21.26-5.78,42.08,16.57,44.89,91.82,57.93,133.5,55.24,15.19-.98,51.03-16.42,66-23.41,17.4-8.12,37.18-18.71,37.27-40.52.27-68.65-79.92-136.92-146.86-132.56ZM649.34,214.72c-1.61-1.12-9.63,5.4-11.48,6.76-23.24,16.98-49.02,39.82-69.85,59.8-3.29,3.15-19.76,18.76-20.77,21.25-1.47,3.63-.88,14.89-1.83,20.52-2.15,12.7-7.6,25.45-15.1,35.87-3.57,4.95-8.01,8.51-11.16,13.58l18.39,30.51c1.85,3.08.66,4.92-1.95,6.79-3.48,2.5-27.28,11.36-27.53,12.85l8.27,14.96c2.45,4.44,10.96,18.18,9.55,22.36-1.2,3.58-17.7,5.39-18.57,8.31,2.54,6.05,1.34,19.48,3.97,24.46.65,1.22,10.19,8.15,11.15,7.17.4-6.71-2.47-13.74-.09-20.2l24.29-6.27c1.49-5.43-7.54-25.93-7.89-33.24-.05-1.13-.04-2.17.6-3.15,2.08-3.18,28.93-9.84,33.92-12.36,2.59-4.03-8.73-26.95-7.78-32.3.15-.86.67-1.75,1.24-2.42l107.58-42.18c.49-45.2-8.29-91.17-24.96-133.06ZM519.63,404.13c.46-1.19.08-2.32-.38-3.43-.76-1.84-11.58-17.58-12.64-17.84l-30.68,15.13c10.49,18.43,19.27,37.7,27.4,57.29l5.68-.98c1.73-2-12.51-24.52-14.19-28.27-2.56-5.71-3.27-7.51,2.28-10.88,6.81-4.14,15.34-7.43,22.53-11.02ZM324.57,415.1c-11.89,2.17-.31,19.27,7.37,5.7-.58-3.42-3.75-6.36-7.37-5.7ZM333.76,450.73c1.99-.76,2.56-4.68,2.46-6.49-.07-1.18-3.96-14.65-6.04-12.29l3.58,18.77ZM320.33,432.85c-1.73-2.03-4.61,6.44-4.88,7.19-2.33,6.37-3.83,14.37-4.83,21.1-.61,4.11-3.77,30-.42,30.76l3.87-.03c-.42-19.92,2.35-39.59,6.25-59.01ZM368.62,519.59c-11.12,3.34-19.84,6.21-29.93-1.82-18.17-14.46-7.82-46.32-12.08-67.5-.29-1.43.28-2.96-1.36-4.01-1.82,7.71-3.53,16.7-4.01,24.59-.43,7.08,1.3,19.22-.6,25.33-1.8,5.81-7.21,5.45-8.19,6.57-.32.37-1.06,5.84-3.36,8.71-13.22,16.52-38.46.33-48.64-12.02-4.05-4.91-6.57-11.4-9.99-15.94-.77-1.01-.95-1.82-2.53-1.48l-3.53,9.76c17.93,7.19,36.54,25.84,33.91,46.57-2.39.49-1.53-.65-2.21-1.77-6.63-10.95-14.34-20.48-25.22-27.57-7.31-4.76-18.41-10.92-25.3-2.41,11.02,4.45,17.26,15.41,23.05,25.22,6,10.18,12.89,22.22,12.69,34.25,8.22.19,15.11-4.7,23.24-6.72,6.07-1.5,13.87-2.79,20.09-3.16,22.98-1.37,47.68.36,70.22,4.5-4.8-13.26-8.73-26.86-6.26-41.12ZM249.69,557.14c-3.05-13.3-10.47-27.39-20.55-36.66,3.28,13.5,11.03,26.65,20.55,36.66ZM384.04,525.17c-3.61,3.65.9,20.2,2.7,25.03,1.47,3.95,9.64,20.59,14.36,19.37,7.18-1.86,1.47-22.81-.49-27.87-1.54-3.95-10.6-22.57-16.56-16.53Z"/>
  <path d="M534.7,575.24c9.72-1.79,17.66,4.39,6.86,5.96-9.5,1.38-17.72-3.96-6.86-5.96Z"/>
  <path d="M493.8,312.13c-1.91.34-2.14-.85-2.67-2.24-2.21-5.77-2.47-15.48-4-21.93-3.23-13.62-8.05-26.99-14.02-39.63-2.98-6.31-6.81-12.12-9.7-18.46,10.82,11.99,20.37,28.03,25.94,43.35,4.46,12.25,7.91,26.06,4.45,38.91Z"/>
  <path d="M343.58,162.82c.21,1.55-2.03.84-3.11.88-6.22.23-12.65-.4-18.82-.04-17.34,1.01-34.07,6.56-50.48,11.65,18.25-18.89,48.51-20.65,72.42-12.5Z"/>
  <path d="M464.3,378.3c15.22-13.25,23.98-29.54,30.84-48.27,1.43,1.01,1.35,2.47,1.42,4,.49,11.6-8.69,26.42-17.05,34.01l-15.21,10.26Z"/>
  <path d="M253.27,182.49l-1.28,4.52-21.06,17.82c-.75-.84,6.82-11.56,8.02-12.99,1.79-2.12,11.48-12.14,14.32-9.36Z"/>
  <path d="M417.49,183.48c5.09-1.68,14.63,7.03,10.2,10.24-3.34,2.43-16.51-8.17-10.2-10.24Z"/>
  <path d="M442.83,206.62c-2.05,2.08-15.05-8.86-9.36-12.51,2.83-.84,11.12,8.96,9.36,12.51Z"/>
  <path d="M390.98,180.69l-13.12-5.2-16.38-8.2c10.45,1.99,21.74,6.02,29.5,13.4Z"/>
  <path d="M383.25,294.83c-15.04-15.86-6.64-48.56,15.73-52.03,24.47-3.8,38.88,28.92,25.65,47.99-9.08,13.09-30.09,15.94-41.38,4.04ZM396.99,248.86c-11.29,2.35-13.85,21.16-1.93,22.98,19.11,2.92,21.32-27.01,1.93-22.98Z"/>
  <path d="M259.29,246.17c20.23-4.17,23.49,25.08,19.29,38.96-7.27,24.02-34.26,19.32-36.02-6.54-.69-10.2,5.27-30.06,16.73-32.42ZM263.76,251.46c-6.49,1.78-9.07,19.29.69,18.74,9.63-.54,8.31-21.21-.69-18.74Z"/>
  <path d="M416.69,303.43c35.3-5.11,41.49,44.64,11.66,53.69-37.38,11.33-44.25-48.97-11.66-53.69ZM442.76,330.59c0-11.84-9.6-21.44-21.44-21.44s-21.44,9.6-21.44,21.44,9.6,21.44,21.44,21.44,21.44-9.6,21.44-21.44Z"/>
  <path d="M256.54,348.49c-5.56,5.96-13.4,5.79-19.8,1.2s-10.56-16.6-10.35-24.59c.35-12.96,10.66-29.72,24.64-19.21,11.07,8.32,15.24,32.16,5.51,42.6ZM241.42,307.8c-6.48,1.27-10.23,13.19-10.15,18.94.34,23.71,26.21,30.23,25.34,3.08-.22-6.84-6.62-23.7-15.19-22.02Z"/>
  <path d="M341.67,311.38c1.94,3.05-1.77,7.62-4.6,9-7.35,3.58-14.57-.47-20.77-4.44-4.02,5.94-18.74,7.15-19.3-1.55-.57-8.98,6.32-.08,7.87.32,3.63.94,8.94-5.75,11.56-7.87,1.68-.3,3.37,3.49,4.85,4.8,3.46,3.05,8.01,4.19,12.52,2.78,1.99-.62,5.83-6.25,7.87-3.04Z"/>
  <path d="M314.78,286.43c2.46-.05,4.99.98,6.94,2.43,4.54,7.31-17.75,9.3-13.09-.52.89-1.05,4.77-1.89,6.15-1.92Z"/>
</svg>