<?xml version="1.0" encoding="UTF-8"?>
<svg id="katman_1" data-name="katman 1" xmlns="http://www.w3.org/2000/svg" viewBox="0 0 841.89 595.28">
  <path d="M229.57,442.75l-.3-2.15-11.68-18.79c-5.1-1.79-10.41-2.82-15.51-4.62-19.04-6.71-56.44-27.84-57.93-50.35-1.61-24.22,28.15-41.9,45.98-52.5-.66-27.75,3.42-55.34,12.78-81.42.05-1.17-3.11-4.72-4.03-6.24-33.54-54.87-32.08-125.36-6.94-183.16,1.18-2.72,6.35-14.61,8.39-15.56.92-.42,6.26-.88,7.74-.97,38.05-2.15,75.91,8.89,108.32,28.14,9.04-7.87,18.48-15.11,29.09-20.78,31.13-16.63,68.6-21.39,102.43-10.45,33.72,10.91,61.34,37.69,71.72,71.67.77.69,14.41-6.77,16.5-7.72,37.04-16.77,79.66-25.82,120.26-18.86,2.18.37,5.67.53,7.2,2.05,1.36,1.35,4.42,9.79,5.28,12.13,7.61,20.76,11.36,43.13,12.63,65.18,5.92,3.27,12.22,5.91,17.41,10.35,5.88,5.03,11.98,13.83,14.05,21.32.6,2.16.9,7.67,1.76,9.12.43.72,5.57,4.08,6.79,5.18,8.22,7.43,14.71,18.2,15.7,29.46.2,2.26-.49,6.45-.19,7.89.26,1.23,4.75,7.15,5.79,9.37,14.43,30.77-7.32,67.67-37.1,79,0,1.49,5.95,2.33,7.5,2.84,52.63,17.53,52.68,85.62,2.44,105.3-12.66,37.12-53.03,55.29-90.46,53.48-14.13,15.87-29.57,30.63-47.28,42.5-6.24,4.18-18.92,9.88-23.59,14.35-2.08,1.99-4.25,5.65-6.4,7.91-19.87,20.84-50.28,38.53-76.5,16.56-33.2,4.93-66.88,1.71-98.72-8.44-2.82-.9-11.96-5.11-13.9-5.11-.92,0-4.62,1.66-6.15,1.98-21.09,4.46-43.81-2.03-63.89-8.7-23.78-7.9-48.73-19.38-70.45-31.86-18.86-10.84-51.01-29.76-28.99-54.62,5.5-6.21,20.3-13.5,28.53-13.5h11.7ZM638.78,316.51h8.43c2.02,0,9.88,2.67,12.23,3.55,5.62,2.09,11.14,5.05,16.12,8.38.58.18,1.06-.36,1.21-.86.66-2.13.21-14.21.08-17.32-.76-18.34-4.05-38.21-9.63-55.67-.29-.9-2.58-9-3.96-7.73.02.7-.13,1.38-.44,2.01-3.86,7.77-10.8,21.03-18.94,24.6-4.29,1.88-9.41,1.45-7.14-4.42,2-5.19,7.85-12.86,10.66-18.72,20.4-42.62,25.25-94.06,15.14-140.14-2.01-9.14-4.61-18.3-8.13-26.97-48.11-7.99-97.36,7.66-138.78,31.39l-2.29,10.91c-3.16-6.13-3.9-13.59-5.87-20.25-22.66-76.48-110.46-92.85-171.43-48.76-43.32,31.34-69.57,94.14-32.47,140.55,30.24,37.83,103.56,38.66,129.18-4.12,12.15-20.29,9.36-54.31-14.93-63.88-28.76-11.34-47.93,31.45-17.58,40.46.9.27,1.53-.43,1.26,1.15-20.78.22-26.2-26.58-15.14-40.99,15.58-20.3,45.19-12.98,58.03,6.54,16.2,24.62,9.47,58.01-11.32,77.72-33.88,32.12-95.44,30.75-130.07.54-20.48-17.86-31.49-44.89-29.38-72.11-.38-.44-3.68,2.51-4.14,2.94-60.07,55.76-81.21,155.29-56.1,232.25,6.73,20.64,23.99,56.42,39.82,71.19,2.96,2.76,11.5,7.34,13.38,10.56.51.87.66,1.46.51,2.47-9.79-2.26-19.51-5.47-29.66-5.98-10.37-.52-31.84,1.43-37.95,11.02-5.39,8.46,2.62,14.32,8.67,18.81,12.56,9.31,28.98,17.6,43.15,24.33,23.91,11.36,61.03,26.86,87.36,28.01.82.04,1.57.37,1.35-.81-19.44-13.3-35.3-31.45-49.51-50.07l.8-.26c44.44,41.94,103.56,68.56,165.91,61.96.75-.08,4.11-.59,4.14-1.29-11.78-22.05-4.23-45.78,5.53-66.86,4.22-9.12,9.74-18.58,16.03-26.41,41.52-51.7,130.3-50.43,100.35,34.51l-7.36,17.13c29.95-20.89,53.88-50.69,68.8-84.01-3.66-2.26-8.05-3.34-11.94-5.49-1.89-1.05-4.2-2.57-5.93-3.87-1-.75-9.38-7.8-8.21-8.93,23.44,10.94,57.91,9.95,79.3-5.32,13.16-9.39,10.42-18.45,2.22-30.23-10.75-15.43-28.61-29.77-44.23-40.11-4.87-3.23-11.95-6.51-16.25-9.87-.61-.47-1.12-.54-.91-1.54ZM288.33,93.95c4.59-9.76,11.49-18.31,17.86-26.94-17.63-11.66-39.33-19.51-60.18-23.5-12.45-2.38-26.29-4.05-38.8-2-25.11,54.39-28.64,123.53,3.05,175.96l11.2-22.02c-14.68-38.24-16.97-83.38-4.54-122.59.68-2.15,2.7-9.32,4.49-10.2,2.11-1.03,11.19,2.09,13.9,2.97,13.85,4.53,28.79,11.99,40.92,20.03,1.55,1.03,11.37,8.84,12.11,8.29ZM681.77,154.89v13.33c5.35,2.9,9.12,7.99,11.02,13.74l10.58,2.77,1.22-.75c-1.83-8.89-7.1-17.6-13.87-23.63-1.07-.95-8.09-6.36-8.96-5.46ZM680.68,182.1c7.42,1.01,4.6-3.04,1.36-6.53-1.31-.24-.65.6-.79,1.37-.31,1.7-.66,3.42-.57,5.16ZM692.11,312.7c28.38-6.64,51.6-36.47,40.68-65.99-1.37-3.71-5.67-9.25-6.28-12.22-.53-2.59.11-5.86-.13-8.58-1.55-17.42-18.38-32.11-35.15-34.51-2.35-.34-10.39-1.05-11.56.85-1.98,10.39-3.87,20.81-7.13,30.88,12.12,28.23,18.76,58.78,19.56,89.56ZM193.11,330.65c-.82-.87-10.78,5.69-12.14,6.63-8.12,5.59-23.5,17.32-22.01,28.34,1.78,13.1,29.14,28.63,40.49,33.52,1.31.57,9.48,3.85,9.99,3.34-1.91-5.89-4.3-11.61-6.13-17.54-5.43-17.6-8.35-35.97-10.2-54.29ZM704.7,420.52c31.9-7.94,50.04-47.04,26.87-73.54-9.15-10.47-24.93-16.92-38.68-14.72l.04,6.56c16.42,14.26,40.07,39.65,23.89,61.99-11.72,16.18-35.56,22.97-54.65,24.25-5.7,10.97-11.61,21.8-18.59,32.01-1.91,2.79-5.57,6.68-6.99,9.34-.35.65-.74,1.03-.53,1.91,22.94-1.08,48.28-11.22,61.71-30.52,3.54-5.09,6.65-10.97,6.93-17.29ZM479.57,550.25c21.83,21.39,51.82-6.41,65.6-23.99,21.47-27.38,58.93-102.96-8.9-93.79-42.61,5.76-75.8,49.27-68.74,92.01,1.38,8.36,5.94,19.79,12.04,25.76Z"/>
  <path d="M722.13,103.82v1.47c9.63,7.07,13,22.29,3.17,30.83-8.09,7.03-21.74,5.35-24.88-5.6-1.49-5.22,1.02-11.79,6.91-12.09.2,1.55-1.08,2.53-1.1,4.06-.12,9.38,12.38,13.09,15.96,3.44,4.55-12.27-10.55-21.57-21.59-20.5-2.31.22-10.13,3.55-7.1-1.12,4.68-7.22,17.58-4.09,25.29-7.91,24.7-12.24,15.69-50.98-12.29-49.29-8.2.5-18.89,6.78-17.12,16.34,1.94.38,2.53-1.58,3.84-2.41,10.84-6.88,19.48,8.12,9.18,15.17-8.4,5.74-18.9-.57-21.47-9.48s-.21-14.41-7.06-22.87c-12.81-15.82-37.9-12.05-45.71,6.54-1.35,3.21-1.64,11.75-6.67,9.39-4.71-2.21.42-14.7,2.36-18.06,4.1-7.1,12.02-12.92,20.02-14.81,18.76-4.44,34.14,4.03,42.53,20.75,5.47-4.38,11.31-8.07,18.5-8.7,37.99-3.32,51.02,48.97,17.23,64.83Z"/>
  <path d="M166.75,306.2c0,7.75-6.28,14.03-14.03,14.03s-14.03-6.28-14.03-14.03,6.28-14.03,14.03-14.03,14.03,6.28,14.03,14.03ZM156.61,312.66c-.35-3.93,4.24-5.34,3.07-8.69-.71-2.06-2.1-1.24-3.33-2.11-1.14-.82-1.28-3.13-3.81-3.29-3.53-.22-3.19,5.01-7.23,4.96-1.26,3.19,1.47,3.57,1.98,4.41s0,3.49,1.03,4.28c1.29.77,2.46-.53,3.72-.54,1.37,0,2.98,1.46,4.58.98Z"/>
  <path d="M192.02,238.7c-.81.09-1.3.03-1.95-.5-.84-.69-3.32-6.76-4.9-8.7-12.39-15.3-36.87-1.99-30.18,16.56l-1.33.8c-13.13-10.43-1.97-28.29,11.58-31.4,15.26-3.49,29.96,6.87,26.77,23.24Z"/>
  <path d="M546.24,60.31c0,7.67-6.22,13.9-13.9,13.9s-13.9-6.22-13.9-13.9,6.22-13.9,13.9-13.9,13.9,6.22,13.9,13.9ZM528.73,56.27c-1.07,1-3.7.25-3.72,3.11-.02,3.24,4.01,3.13,3.56,6.83l7.39.29c.22-3.66,5.28-4.99,3.52-8.48-.59-1.17-2.62-1.12-3.53-1.91-1.07-.93-.71-2.65-2.46-2.98-5.06-.96-3.14,1.62-4.76,3.13Z"/>
  <path d="M149.52,246.38c.53.3,4.64,8.79,6.06,10.53,6.25,7.61,17.46,8.77,25.52,3.24l4.65-4.58c2.33,4.14-.42,9.29-3.89,11.87-13.41,9.95-36.61-.8-35.53-16.98.09-1.3,1.4-5.1,3.18-4.08Z"/>
  <path d="M627.79,107.17c1.54-.13,6.05-.66,6.92.37.73.87,2.52,10.51,2.83,12.41,6.2,38.84-1.16,86.71-21.72,120.54-.38.63-1.44,2.78-2.33,2.56-6-9.83-11.24-20.06-17.79-29.56-15.02-21.77-35.2-42.14-56.55-57.72l-9.72-7.09c23.03-19.6,53.03-32.58,82.59-38.78,4.92-1.03,10.82-2.31,15.77-2.73Z"/>
  <path d="M473.79,220.35c53.14-3.01,92.36,47.16,86.56,97.99-9.3,81.64-107.76,100.98-147.49,29.55-28.85-51.87-2.33-123.95,60.93-127.54ZM477.05,225.25c-62.26,1.43-88.3,73.19-58,122.98,40.44,66.47,132.54,41.91,136.5-35.24,2.28-44.3-32.11-88.8-78.5-87.74Z"/>
  <path d="M272.45,211.64c55.63-5.66,73.08,61.5,61.88,104.87-9.33,36.13-43.41,70.91-82.99,51.95-62.83-30.09-46.88-149.91,21.1-156.82ZM272.98,216.53c-35.41,3.75-56.82,46.34-57.03,78.46-.23,35.33,24.4,78.96,64.9,72.52,33.84-5.38,52.13-45.24,52.68-76.28.63-35.03-19.32-79.07-60.55-74.69Z"/>
  <path d="M344.11,344.48c3.34-.16,4.24,6.43,5.52,8.96,5.97,11.8,22.89,12.19,30.37,1.67,1.5-2.12,5.34-15.24,8.95-8.88,2.82,4.97-3.63,14.69-7.6,17.84-12.44,9.89-32.67,6.02-38.69-9.11-1-2.51-3.13-10.27,1.45-10.49Z"/>
  <path d="M423.29,49.88c.15.93-1.31.59-1.85.49-15.55-2.64-24.27-5.15-40.7-2.52-16.85,2.7-25.94,9.12-40.07,17.07-.75.42-1.29.93-2.26.73,5.02-8.56,13.8-14.08,22.87-17.66,19.71-7.78,42.8-6.82,62.01,1.89Z"/>
  <path d="M361.25,60.21l-.51,1.93c-6.85,4.65-13.44,9.68-19.09,15.73l-12.5,15.8,1.07-5.47c3.49-9.88,12.28-19.82,21.42-24.83,2.93-1.61,6.13-3.47,9.61-3.17Z"/>
  <path d="M551.71,490.09c5.09-9.26,9.28-18.96,11.81-29.27.69-2.81.87-6.01,1.63-8.72.14-.52.01-1.66.97-1.19,3.44,1.71,1.45,12.18.66,15.34-1.39,5.59-4.31,11.65-7.56,16.38-.87,1.27-6.13,8.53-7.52,7.44Z"/>
  <path d="M474.99,376.9c-.78-.81.05-.98.81-1.08,10.63-1.33,18.96-2.04,28.58-7.34,6.1-3.36,12.94-8.14,15.77-14.69-.84-1.17-.77-.53-1.44-.38-5.24,1.2-11.11,4.57-16.95,5.92-25.96,5.98-49.66-3.75-61.97-27.49-4.62-8.9-7.57-20.03-6.16-30.03-7.27,1.51-10.91,9.21-14.96,14.68-.87-.01-2.26-7.26-2.38-8.49-5.14-50.22,43.99-90.86,90.63-63.97,29.17,16.82,42.44,54.11,33.22,86.19-7.94,27.61-34.72,53.09-65.14,46.67ZM501.28,275.31c0-13.83-11.21-25.04-25.04-25.04s-25.04,11.21-25.04,25.04,11.21,25.04,25.04,25.04,25.04-11.21,25.04-25.04ZM527.07,291.37c0-5.65-4.58-10.23-10.23-10.23s-10.23,4.58-10.23,10.23,4.58,10.23,10.23,10.23,10.23-4.58,10.23-10.23Z"/>
  <path d="M306.52,345.03c-33.84,34.65-77.57,4.52-82.87-37.02-4.1-32.16,13.61-79.18,50.34-82.85,60.38-6.05,67.61,83.95,32.53,119.87ZM280.6,235.04c-26.98,3.25-29.58,44.37-1.63,47.58,32.96,3.78,36.83-51.82,1.63-47.58ZM310.84,279.32c.48.48,2.28,1.56,2.92,1.7,10.44,2.37,9.91-15.4,1.53-15.72-6.65-.25-8.8,9.62-4.45,14.02ZM241.54,279.51c-6.38,1.37-14.14,12.55-14.71,18.75-.91,9.8,3.86,23.68,8.64,32.22,10.59,18.93,31.09,31.38,52.7,22.59,4.06-1.65,10.53-4.92,11.6-9.35-13.14,3.17-27.09,1.89-39.72-2.73-.78-.78.05-.99.81-1.08,1.67-.21,3.59.11,5.38-.07.61-.06,3.36-.19,3.06-1.29-21.47-11.3-32.62-35.15-27.75-59.04Z"/>
</svg>