<?xml version="1.0" encoding="UTF-8"?>
<svg id="katman_1" data-name="katman 1" xmlns="http://www.w3.org/2000/svg" viewBox="0 0 841.89 595.28">
  <path d="M567.55,117.21c-1.51,9.99-3.24,20.98-10.96,28.26-2.61,2.46-6.1,3.83-8.45,6.29-.24,10.8.89,20.91-3.82,30.97-1.03,2.21-4.97,6.89-5.13,8.48-.23,2.25,1.43,4.06,1.97,6.23.75,2.98,1.34,6.27,1.57,9.35,21.85-17.09,48.59-31.72,75.96-37.56,13.84-2.95,31.15-4.14,45.16-1.89,17.2,2.76,13.48,13.32,8.13,25.7-20.07,46.41-68.8,73.11-113.92,90.12,15.4,15.31,30.74,32.12,41.37,51.21,16.87,30.27,17.73,53.52-17.8,67.91-18.16,7.36-38.38,8.71-57.79,7.38-.06.85-.03,1.67.15,2.51,1.7,8.1,5.43,17.19,7.35,25.67,6.57,28.98,10.02,67.22-1.9,95.06-2.71,6.34-6.37,11.85-10.23,17.51,5.67,6.67,12.52,12.57,7.47,22.19-5.33,10.14-26.25,9.79-36.08,8.59-4.41-.54-11.65-3.03-15.39-2.9-2.52.09-7.81,2.19-10.81,2.79-37.32,7.52-82.13,7.5-119.37-.57-3.61-.78-11.36-3.98-14.32-3.98-3.24,0-11.1,2.9-15.42,3.47-12.19,1.6-40.24,1.26-37.9-17.27.8-6.36,6.09-10.24,9.3-15.28-6.23-8.59-11.17-17.44-14.23-27.66-8.94-29.88-2.68-70.74,6.09-100.38,2.7-9.13,6.56-17.92,9.3-27.04l-4.43-6.8c-30.94-2.33-77.38-11.61-95.98-39.07-22.83-33.7,15.28-69.1,40.96-86.95-7.62-8.71-16.24-16.44-23.26-25.69-12.19-16.08-27.59-45.44-28.64-65.72-.76-14.57,5.66-14.62,17.91-12.01,32.53,6.93,75.74,34.44,101.5,55.38,1.6,1.3,9.35,9.34,10.9,8.22,1.05-2.67,3.55-6.17,5.6-8.26,4.64-4.73,10.32-5.55,13.41-11.95,4.73-9.8,4.16-15.59,13.76-23.39,1.73-1.4,6.22-3.6,7.05-4.74,1.29-1.79,1.93-7.05,2.8-9.58,2.88-8.31,6.1-10.15,10.73-16.4,2.66-3.6,4.93-9.03,7.63-13.02,37.17-54.85,90.13-98.5,155.1-115.59,7.77-2.04,19.84-5.55,27.38-3.64,36.49,9.23,93.76,43.65,111.69,77.62,3.61,6.83,8.44,20.49-1.29,24.28-9,3.5-24.84,2.34-34.4.79s-17.92-4.31-26.55-7.45c-9.79,7.53-19.89,9.84-32.17,8.79ZM403.24,131.89c3.9-.5,8.67.36,12.68,0,.13.84-1.04.87-1.64,1.01-21.2,5.16-51.4,11.27-54.97,37.32,16.48-5.38,34.23-8.08,51.59-5.89,2.13.27,4.99.69,7.02,1.24.75.2,3.02.92,3.31,1.7-23.23-1.63-62.4.16-78.15,20.05-4.03,5.09-5.32,12.62-8.54,18.28l26.25-4.7,27.02-.69c4.07-6.51,6.7-13.12,15.42-14.06,12.73-1.38,36.61,5.35,48.65,10.34,9.66,4,17.46,8.34,17.21,20.24,14.7,5.78,29.31,11.87,42.96,19.9.92.48,1.33.14,2.09-.31,3.66-2.17,8.15-9.68,12.52-11.96,1.46-2.56-4.93-6.16-6.4-7.79l-20.59-14.49c11.49,2.39,21.73,10.01,30.37,17.68,1.38,0,1.98-5.94,2.06-7.37.21-3.7-.16-7.2-1-10.79-1.58-6.76-6.14-13.15-6.07-20.17l3.83,5.89c.97.04,7.27-12.8,7.22-14.33-.04-1.32-2.27-6.63-2.97-8.19l-9.85-17.57c2.42,2.59,5.27,5.43,7.31,8.31,1.92,2.7,2.98,5.77,4.62,8.36.46.73.55,1.25,1.63,1.02.55-4.55.61-9.25,1.26-13.78,1.32-9.25,5.31-20.81,2.7-29.98-3.71-12.99-24.48-26.98-34.23-35.87-.95.01.38-1.15.5-1.15.54-.03,8.27,4.52,9.45,5.28,13.37,8.62,25.26,24.56,27.94,40.47.2,1.16.1,9.69,1.53,9.66,1.21-1.58,3.09-2.39,4.42-3.83,5.93-6.46,7.98-27.51,10.3-36.88,1.57-6.32,3.65-12.65,5.63-18.84,1.03-.14.56,1.34.58,2.05.31,8.21-.96,15.29-1.77,23.3,6.66.6,12.49,1.27,19.01-.75s12.17-6.68,18.33-9.39c3.6-1.59,8.45-2.91,12.2-4.01-2.2,2.93-6.93,4.24-9.63,6.58-.61.53-1.24.57-.98,1.67,4.69.2,9.49,2.39,14.02,3.38,8.55,1.87,19.41,3.39,28.14,3.1,1.01-.03,6.54-.52,7-.67,2.98-.97-1.05-7.46-1.97-9.07-17.51-30.72-61.81-56.76-94.39-68.38-6.55-2.34-10.72-4.48-17.81-3.1-24.39,4.74-54.27,17.22-75.53,30.03-35.61,21.45-63.71,52.19-87.69,85.7l.87.87c2.62-1.99,5.55-3.21,8.59-4.39,4.51-1.74,13.33-4.45,17.96-5.04ZM257.28,193.81c.23-1.1-.55-1.43-1.22-2.01-9.97-8.69-36.59-21.42-49.35-26.14-5.93-2.19-12.75-4.77-19.02-4.86.17.99,1.15,1.06,1.9,1.34,16.87,6.41,34.42,10.73,49.81,20.96l17.88,10.71ZM640.39,219.54c7.38-8.09,21.45-27.79,24.15-38.1.21-.81.6-1.48-.32-2.09-4.53-2.15-36.21-1.88-37.68.38-3.16,21.8-8.86,43.21-15.4,64.21,10.6-6.62,20.82-15.15,29.25-24.4ZM623.51,180.25c-40.03,8.2-74.36,33.23-103.78,60.45,8.72,6.56,17.67,10.88,20.92,22.12,1.1,3.78,1.27,7.83,2.63,11.55,1.09.83,16.09-4.36,18.46-5.22,8.79-3.16,17.29-7.08,25.64-11.22,9.57-22.34,13.09-46.64,16.38-70.6,5.85-2.66,12-4.56,18.27-5.93,1-.22,1.76.67,1.48-1.15ZM458.38,239.23c1.64-10.12,10.98-26.65.21-34.11-7.1-4.91-32.33-12.23-41.23-13.61-6.72-1.04-15.76-2.13-20.55,3.54-3.42,4.05-6.98,15.42-8.7,20.8-.18.57-.87.56.09,1.28l13.61,1.8c2.82-5.69-4.92-3.1-8.26-5.09-.9-6.23,6.95-2.8,10.62-2.58,2.81-7.95,2.83-11.39,12.5-10.21,6.48.79,22.67,5.26,28.57,7.99,8.32,3.85,4.82,7.04,4.39,14.46.8,2.42,10.55,1.78,6.09,7.47-2.74-.83-5.98-2.87-8.78-1.83-.54.39-.55,4.24-.37,4.97.15.64,10.24,4.64,11.81,5.11ZM228.26,192.81c-7.33.53-21.05,3.24-27.42,6.78-.65.36-1.37.52-1.28,1.49.06.71,3.83,7.74,4.54,9.06,7.28,13.42,19.45,28.58,31.05,38.54.66.57,3.93,3.35,4.27,3.44,1.59.44,9.78-4.99,11.95-6.13,14.72-7.72,30.02-13.82,45.42-20.05.19-.84-7.79-7.41-9.16-8.53-18.14-14.84-34.65-26.39-59.37-24.61ZM386.43,205.02c-14.31-.97-29.64.65-43.65,3.82-6.78,1.54-16.18,4.04-21.5,8.57-.47.4-2.72,2.35-2.08,2.93,20.86-4.12,42.09-5.33,63.3-4.1l3.93-11.23ZM441.8,226.32c-1.75-.65-6.68-1.27-6.33-3.76.7-4.93,7.3-.17,8.2-.69,3.52-7.38,1.56-7.34-4.62-9.6-4.73-1.73-10.64-3.34-15.57-4.48-2.21-.52-10.84-2.9-12.13-1.43l-1.92,6.32c11.96,1.63,10.38,7.84-1.37,5.29l-.99,2.37,32.99,10.97c2.13.19,2.04-3.66,1.74-4.99ZM524.79,286.06c-41.16-31.52-101.85-66.47-155.18-63.96-50.91,2.4-135.6,35.02-166.82,76.74-19.41,25.94-9.79,44.6,16.26,58.54,18.06,9.67,39.14,14.24,59.48,15.71-8.06-27.52-5.4-58.21,7.67-83.73-.57-.44-11.34,5.43-12.88,6.28-10.25,5.58-20.86,12.17-29.59,19.95-1.49,1.33-3.54,3.12-4.13,5.02-1.22.07-.37-1.67-.12-2.19,8.68-17.84,37.49-37.12,54.96-45.88,36.1-18.1,94.86-29.79,134.01-18.39,43.56,12.68,96.2,52.17,131.93,80.38,13.62,10.76,26.82,22.09,38.96,34.45-1.35-16.11-10.66-31.79-19.8-44.77-9.8-13.92-21.53-26.97-33.57-38.97-1.24-.23-.97.47-.76,1.35.65,2.78,2.09,5.78,2.7,8.52.13.59.6,2.07-.45,1.92-4.88-8.83-8.41-17.81-11.08-27.55-.39-1.41.08-2.99-.27-4.45-2.82-11.93-23.79-22.86-34.14-28.37-3.97-2.11-32.28-15.79-34.11-14.51l-4.65,18.12c-.21.69.04,1.12.44,1.65.86,1.13,16.43,8.54,19.32,10.18,17.92,10.19,42.8,26.23,55.61,42.29,1.12,1.4,3.38,3.83,3.26,5.58-5.43-4.92-11.25-9.47-17.05-13.91ZM524.27,322.55c-27.67-20.15-57.88-41.98-90.25-53.94-34.01-12.57-76.39-6.75-110.22,4.41-4.39,1.45-20.05,6.84-22.68,9.46-1.43,1.43-4.41,7.98-5.42,10.21-9.47,20.89-12.92,44.08-9.52,66.86,2.38.51,2.53-2.76,4.13-4.42.77-.8,3.5-2.65,4.52-3.14,23.98-11.61,41.3,35.83,15.75,47.01-1.33.58-4.55.5-4.31,2.07,7.82,9.94,17.9,17.97,28.86,24.24-15.1-.82-28.24-9.99-38.08-20.91-1.16-.26-1.95,2.14-2.31,2.94-11.56,25.64-18.6,74.19-13.13,101.57,7.41,37.06,37.03,55.5,72.26,61.61,42,7.28,119.58,9.3,152-22.81,29.16-28.88,21.25-85.95,10.86-121.76-1.46-5.04-3.51-9.95-4.69-15.07-1.13-.96-6.04,4.06-7.23,4.86-7.83,5.24-16.96,8.69-26.38,9.6,5.19-3.69,10.66-6.88,15.61-10.93,2.61-2.14,12.91-11.38,13.87-13.85.43-1.1-.34-.76-.89-.86-23.94-4.28-18.93-46.02,3.1-49.41,7.15-1.1,9.66,2.39,14.31,6.05.63.5.72,1.32,1.48.3,1.92-11.36.04-22.78-1.65-34.05ZM523.85,397.86c19.79,1.56,42.83.02,60.33-10.14,4.8-2.78,10.33-6.74,11.94-12.32-10.8-13.61-25.74-24.66-40.48-33.81-6.07-3.76-12.29-7.45-18.82-10.37,1.52,17.71.63,35.23-5.45,52.05l-7.53,14.58ZM313.09,392.94c11.75-10.82,4.44-40.57-13.06-38.71-4.69.5-10.19,6.38-10.88,10.95-.54,3.58,3.33,13.17,4.99,16.76.96,2.06,7.26,13.16,8.54,13.87,2.8,1.55,8.2-.84,10.4-2.86ZM510.15,354.36c-16.04,1.73-20.03,31.07-7.24,39.96,7.83,5.45,10.38-.4,13.73-6.31,2.79-4.91,8.08-16.4,8.19-21.8.15-6.79-8.2-12.55-14.69-11.85ZM294.88,556.01c-2.34.46-5.91,5.75-6.84,7.98-.24,2.77,7.44-.36,9.06-.98,1.47-.57,3.21-1.04,4.41-2.08.19-.75-5.27-5.19-6.63-4.92ZM515.39,561.43c-.41-.47-4.4-3.75-4.72-3.69l-5.09,4.37,11.79,4.43c.24-1.83-.81-3.75-1.97-5.1ZM313.89,567.72l-9.69-4.75-10.36,4.74c.09.89.87.91,1.51,1.14,3,1.09,13.89.98,17.01-.02.65-.21,1.43-.19,1.53-1.11ZM512.64,570.07c-2.36-2.76-7.04-3.88-10.33-5.65l-10.31,5.07c.22,1.07,1.16,1.1,2.04,1.19,5.85.65,12.72-.4,18.6-.62Z"/>
  <path d="M471.79,305.42c11.55-1.8,20.96,2.37,26.94,12.29,17.7,29.39-22.18,55.65-40.84,30.22-9.85-13.42-4.36-39.67,13.9-42.51ZM467.07,310.73c-3.28.55-7.1,4.25-7.85,7.48-1.82,7.86,7.42,15.41,14.69,11.16,9.43-5.51,4.79-20.59-6.85-18.64Z"/>
  <path d="M332.63,305.43c39.03-5.28,37.06,58.08-.71,52.3-26.79-4.1-27.24-48.52.71-52.3ZM352.03,327.49c6.84-6.84.53-18.28-9.48-16.85-4.3.62-8.44,6.34-7.77,10.57,1.27,8.02,11.24,12.29,17.25,6.28Z"/>
  <path d="M456.02,439.15c-6.58,14.29-13.07,29.05-15.75,44.7-1.25,7.32-2.93,22.84-.45,29.59s4.19,1.74,8.53,1.2c.5.5-2.48,7.83,1.34,9.6s6.31-4.1,8.42-4.32l1.09.08c1.45,3.28,5.74,1.18,8.44.07,9.54-3.93,21.42-15.41,27.88-23.43,7.4-9.18,12.69-19.81,19.78-29.17-.32,4.52-1.59,9.53-3.09,14.02-5.83,17.45-28.59,46.46-48.42,47.18-5.85.21-3.83-.6-9.55,1.6-3.31,1.28-6.32.9-9.14-1.46-2.12-1.78-1.81-4.14-2.95-5.31-1.52-1.57-4.94-1.32-7.17-4.61-8.29-12.24-2.64-39.96,2.46-53.18,3.14-8.13,8.72-17.27,14.73-23.61.5-.53,3.22-3.59,3.84-2.94Z"/>
  <path d="M293.85,466.28c3.64,4.67,6.21,10.11,9.42,15.05,7.92,12.19,17.62,24.5,29.55,32.96,3.12,2.21,11.41,7.53,15.04,7.4,1.57-.06,1.38-2.4,2.79-2.28,2.18.84,6.09,6.02,8.63,4.97,4.41-1.82,1.4-9.38,1.79-9.75,4.05-.24,5.14,5.11,8.12-.44,4.1-7.63.33-29.93-1.8-38.62-3.16-12.86-8.29-22.61-13.29-34.47-.23-.54-1.28-1.5-.4-1.96,10.13,8.78,16.95,20.76,20.66,33.6,3.11,10.74,8.05,41.63-2.7,48.64-1.26.82-3.18,1-4.09,1.81-.99.88-.99,2.44-1.77,3.53-1.45,2.01-5.09,4.07-7.52,4.3-3.32.32-6.41-3.25-8.14-3.41-1.09-.1-3.04.62-4.69.62-12.39-.05-28.42-15.27-35.66-24.54-8.28-10.62-15.12-23.78-15.94-37.42Z"/>
  <path d="M373.29,363.74c3.4-.94,5.53,6.78,7.89,9,7.09,6.68,19.42-1.52,25.71-6.06,7.56,5.85,19.53,13.85,26.98,3.43,1.47-2.06,3.1-9.37,6.83-5.58s-5.87,13.56-9.13,15.08c-8.97,4.17-17.55-1.6-25.34-5.35-10.67,6.93-23.95,11.36-32.08-1.56-1.25-1.98-4.64-7.92-.86-8.96Z"/>
  <path d="M398.31,349.58c.9-1.4,10.64-1.51,12.56-1.22,2.53.39,5.39,2.14,2.91,4.61-5.14,5.13-18.54,1.39-15.48-3.4Z"/>
  <path d="M508.51,187.91l-34.2-28.3c13.78,4.47,27.8,15.06,34.2,28.3Z"/>
  <path d="M546.24,32.82c5.81,8.43,11.39,17.36,12.98,27.71l-11.11-20.43-3.03-7,1.16-.28Z"/>
  <path d="M499.08,54.63l-17.69-5.3c6.13-1.35,13.81-.02,17.69,5.3Z"/>
  <path d="M602.27,82.35c-1.11.14-.41-1.17-.31-1.79.25-1.62.71-3.23,1.08-4.82l2.77-6.36c-.03,4.54-2.5,8.63-3.54,12.97Z"/>
  <path d="M403.54,243.35c-5.38-.35-10.82-.33-16.21-.59-16.74-.8-32.64-1.64-49.57-.61-15.23.93-30.16,3.62-45.09,6.51,1.34-1.43,4.51-2.09,6.48-2.66,29.55-8.54,72.37-11.44,102.33-3.82.82.21,1.84,0,2.06,1.17Z"/>
  <path d="M562.18,381.94l12.98-4.99,9.42-6.79c-2.01,9.33-14.15,12.03-22.4,11.79Z"/>
</svg>