<?xml version="1.0" encoding="UTF-8"?>
<svg id="katman_1" data-name="katman 1" xmlns="http://www.w3.org/2000/svg" viewBox="0 0 841.89 595.28">
  <path d="M358.27,159.5c.67-6.54,4.64-12.79,5.96-19.05s1.14-12.21,3.23-19c.65-2.12,4.91-10.91,4.08-12.18-14.18-5.29-27.43-12.78-39.34-22.08-13.41-10.47-30.67-29.96-35.9-46.37-1.83-5.76,1.43-5.45,6.6-4.93,32,3.21,62.79,18.83,87.33,38.85,1.26,1.03,4.01,4.57,5.12,4.9,2.31.69,12.38-3.37,15.7-4.08,18.09-3.9,35.79-3.08,53.36,2.82,2.08.7,11.87,5.26,12.55,5.25,1.73-.03,2.47-3.14,3.35-4.4,19.29-27.58,54.74-56.12,89.47-58.95,8.74-.71,13.11-.75,7.63,8.19-16.51,26.95-37.49,57.48-64.45,74.52-1.84,1.17-9.66,4.62-10.09,6.06-.2.66-.16,1.32.02,1.98,3.41,7.33,5.25,15.01,6.56,22.93.27,1.65-.14,3.57.14,5.42,1.36,9.08,7.47,17.46,6.54,27.09,4.13.29,11.49-5.38,15.13-3.32.62.35.67,1.35,1.33,1.57,1.21.4,2.79-.27,4.1.36,1.79.86.82,3.84,1.13,4.15.17.18,3.12-.07,4.13,2.26.6,1.37.03,2.77.4,4.05.39,1.37,2.16,1.2,2.17,3.99,0,1.34-1.96,6.45-2.57,8.06-6.81,18-20.38,31.99-30.13,48.17,1.9,7.84,3.39,15.76,5.01,23.66,5.07,24.63,10.18,47.87-12.69,66.03-1.57,1.25-8.76,4.64-8.56,5.77.26,1.48,22.11,13.26,25.49,15.68,45.03,32.11,67.13,91.62,53.24,145.45-.55,2.14-4.85,14.13-4.24,14.85,5.92-.13,4.74,6.86,5.52,11.16,1.65,2,2.37-8.55,3.69-8.94l22.58,5.19c3.99,1.81-.88,10.48-1.83,13.45-6.37,19.83-12.89,39.71-19.4,59.54-.25.76-.71,1.61-1.53,1.84-.65.18-11.62-2.89-13.08-3.41-8.12-2.91-3.26-3.4-4.95-8.39-.67-1.97-8.28-1.76-10.18-2.05-.95-.14-1.7-.89-2.37-.98-1.88-.25-3.37,1.19-5.75-.95l-.34-.51c.05-1.4,1.58-8.54.1-8.64-3.83,2.2-8.71,2.73-13.07,2.76l.56,8.34c-4.17.99-9.78-2.32-13.49-1.55-3.3.68-13.79,7.35-18,9.25-37.54,16.97-81.15,16.59-118.06-1.86-3.41-1.7-9.76-6.33-12.87-7.14-2.78-.72-5.55-.17-8.36-.54-11.08-1.44-18.83-12.94-17.95-23.75l-5.19,4.62c.86,3.61,8.23,27.76,7.45,29.29-.63,1.23-12.68,5.13-14.62,5.44-2.15.34-7.42.72-8.75-.99l-23.15-51.62c-1.76-1.12-4.99,3.13-6.62.78l-11.89-19.8-.67-4.43c.41-1.8,12.63-7.96,14.97-8.96,2.78-1.2,6.9-2.61,9.83-3.51,1.6-.49,7.4-1.02,7.71-2.27-4.25-14.23-6.57-28.98-6.07-43.9,1.6-48.12,27.04-88.91,67.12-114.1,1.67-1.05,7.77-3.42,7.76-5.39,0-1.7-2.94-3.06-3.99-4.15-10.9-11.28-14.92-23.89-15.9-39.41-1.94-.94-12.24-2.65-12.66-4.31-.12-.47.34-1.32.68-1.71,2.71-3.14,16.18-8.83,12.65-14.26-1.05-1.61-28.07-9.25-28.43-10.73-.23-.94.08-1.9.56-2.73,1.8-3.12,14.72-13.83,18.36-17.21,1.36-1.26,5.07-3.09,5.02-4.99-8.43-2.86-17.01-5.26-25.56-7.81-2.42-.72-6.39-.04-5.36-4.17.97-3.27,8.79-20.88,7.86-22.77l-80.28-34.08c5.02-11.73,10.19-24.14,16.51-35.22,1.68-2.95,6.75-12.1,10.34-11.85l79.26,48.36c.2-2.78-.28-5.88,0-8.62ZM538.38,34.7c-.82-.84-9.6,4.43-11.07,5.33-14.92,9.16-31.69,24.56-41.64,38.97-1.18,1.72-6.52,9.04-5.56,10.64.15.24,3.19,1.98,3.23,3.43l-14.25-7.7c-18.62-8.43-40.1-9.64-59.8-4.37-1.85.5-10.04,2.5-10.34,4.08l.74,4.09c-16.42-16.85-37.07-29.99-58.85-38.82-3.32.6-8.11,15.82-8.64,19.15-.44,2.74-1.33,9.92.18,11.93s8.51,6.43,10.92,7.98c11.98,7.69,26.21,14.56,40.53,15.9.67.89-3.62,1.63-4.02,1.81-2.31,1.04-4.68,7.37-5.69,9.88-4.21,10.47-5.69,21.26-8.07,32.22,3.81-1.7,6.54-2.63,10.86-2.24,12.53,1.12,17.47,18.35,10.49,27.77-.38.52-2.95,3.47-3.56,2.82.92-2.53,2.84-4.44,3.77-7.07,3.91-11.1-3.42-24.6-16.22-21.22-11.12,2.94-10.61,16.79-7.29,25.51,16.56,4.46,35.85,12.29,47.51,25.31,1.45,1.62,4.54,5.02,4.19,6.93-14.19-14.11-31.91-25.47-51.95-28.88l-.58,4.42-5.27-1.67c-1.76.36,1.2,3.95.82,5l-5.56.57,2.77,5.83c-.92,1.27-2.54.78-3.88.83,4.76,19.81,18.23,36.09,32.79,49.75-1.62.3-3.83-1.67-5.18-2.61-2.27-1.57-6.51-5.98-8.16-6.84-.56-.3-1.05-.35-1.66-.28-.74,11.11-3.33,22.03-4.44,33.08-2.25,22.31-3.81,45,14.74,60.85,1.96,1.68,4.69,2.62,6.38,4.74l-2.22.28,5,2.78c-.71,1.49-3.53-.26-4.73-.06l-.89.38-3.28,11.61,2.78-.83-1.1,3.89c1.63.36,3.66-5.36,4.44-2.51l-1.1,3.06c3.16.73,3.34-1.67,5.28-3.33l-.07,2.18.64,1.15c7.16-2.45,11.59-9.29,16.39-14.73-4.17-.46-8.25.46-12.51.28-.67-.03-2.07.42-1.94-.55,9.71.1,18.42-4.38,28.08-5,15.78-1.02,31.17.61,47.17-1.75,3.41-.5,6.65-1.77,10.07-2.16l-3.06,1.94c-.69.34-9.84,2.92-8.89,3.62,16.77-.08,32.55-4.62,42.48-18.95,16.18-23.36,3.76-47.95-.23-72.77-.64-.1-1.08.03-1.65.29-3.04,1.39-10.1,8.16-13.84,10.62-.66.43-2.07,1.78-2.84,1.05l15-16.13-.27-.82c-3.44,1.77-7.43,4.47-11.4,4.17,15.96-10.93,28.63-25.55,38.45-42.15,1.17-1.98,9.68-17.34,8.8-18.16-1.08-.03-3.49.38-3.87-.89l1.64-5.78-5.55.55,1.11-5.55-6.11,1.66c.18-1.32,1.17-2.39-.28-3.32-12.84,5.71-25.28,12.67-36.12,21.68-1.77,1.47-9.2,9.08-10.03,9.43-.68.29-1.04-.13-.82-.82,8.42-10.06,18.62-18.5,30.02-25.02,4.89-13.53-14.25-26.07-21.53-10.97-3.72,7.72-1.85,15.28,3.18,21.79-7.02-2.11-7.48-12.84-6.31-18.81,1.24-6.34,7.01-12.15,13.8-11.76,3.81.22,5.96,2.49,9.19,3.9-4.12-8-3.58-16.09-5.16-24.57-2.13-11.43-7.5-21.58-12.06-32.13,2.31.76,4.25,7.62,6.67,7,1.34-.34,5.51-2.74,7.04-3.57,6.78-3.68,13.78-8.71,19.65-13.71,2.38-2.02,9.42-8.1,10.81-10.31,1.04-1.66,1.45-4.56,1.81-6.53,2.13-11.92,1.56-24.84.16-36.81ZM354.32,183.07l.56-4.16c1.73-2.2,7.4,1.9,5.06-3.29l-80.35-51.44-21.4,40.85,78.25,33.24.6,2.22-7.85,20.52-.32,3.17,31.93,9.48c.46.35.83.82.83,1.42-.01,2.11-26.44,22.46-25.03,24.17l23.67,8.34c1.11.3,1.1-1.23,1.27-2,2.41-11.24,2.6-24.09,4.56-35.5-5.73-10.45-13.86-20.43-16.44-32.53-1.23-5.75.23-4,.83-7.54s-2.57-6.12,3.84-6.97ZM359.38,287.63c-.33-2.22,1.68-4.91-.27-6.66l-5.83,5.26,6.11,1.4ZM495.97,339.21c1.3-2.02-4.02-6.74-5.79-7s-7.46,1.35-9.9,1.56c-4.86.42-9.84.56-14.72.57,1.62,1.38,4.32,2.58,6.29,3.43,7,2.99,14.81,4.97,22.37,5.99.88.12.9.09.8-.8l-2.22-1.95c2.1-.34,3.42.47,4.99,1.66.18-1.57-1.61-2.02-2.77-2.23-.48-1.37.79-.98.95-1.22ZM573.96,451.63c.02-12.51-2.94-25.36-7.08-37.12-11.19-31.78-34.13-58.2-63.8-74.05l-.57.54c-.14,7.31-9.51,6.6-14.99,6.11-7.59-.68-19.72-5.08-26.79-8.23-1.7-.76-3.9-2.71-5.72-3.17-4.46-1.14-13.62.65-18.62.87-7.39.32-14.73.49-22.14.65-9.42,8.49-17.02,20.2-31.66,16.42-6-1.55-5.75-6.32-5.43-11.53-35.32,18.92-60.32,54.89-67.1,94.39-.69,3.99-1.76,9.84-1.84,13.74-.02.82.31,1.68.64,2.41,1.73,1.09,15.66-5.03,18.53-6.05,29.21-10.37,57.3-17.98,88.4-20.55,3.71-.31,8.53.7,11.95-.84,2.24-1,3.63-5.53,5.1-7.69,20.49-30.1,66.45-28.45,82.44,4.64,1.14,2.37,3.08,9.73,4.76,10.8,1.91,1.22,9.88,2.48,12.76,3.37,3.61,1.11,7.31,2.3,10.86,3.6,7.96,2.92,19.47,9.65,26.94,11.42,1.14.27,2.18.39,3.35.27ZM466.55,400.08c-13.34,1.41-24.45,10.44-31.45,21.36-1.46,2.27-2.14,5.94-4.55,7.13-3.09,1.52-7.43.58-10.84.83-34.21,2.5-67.47,10.96-99.2,23.66-2.68,1.8-1.23,5.09-.31,7.46,2.31,5.94,10,13.69,16.68,13.39s20.58-5.81,28.06-7.55c21.15-4.91,43.47-7.72,65.2-7.94,2.31.51,4.55,6.64,6.06,8.95,1.07,1.63,2.78,3.95,4.06,5.39,1.52,1.72,6.81,6.69,8.65,7.5,2.47,1.1,5.09-5.53,7.47-6.39,1.39.31,6.66,10.79,8.37,12.21,1.89,1.58,10.05,1.3,12.7,1.06,9.62-.89,20.77-6.79,27.32-13.82,1.94-2.08,4.71-7.46,7.19-7.81,6.58-.93,31.2,7.16,38.78,9.64,3.33,1.08,19.3,7.6,21.19,7,1.4-.45,1.59-3.49,1.87-4.83.67-3.28,1.35-9.33,1.34-12.61,0-2.02-.51-6.95-1.98-8.07-13.91-5.77-27.52-12.61-41.98-16.94-3.02-.9-12.42-2.38-14.2-3.59-1.26-.85-3.25-8.04-4.23-10.23-8.23-18.43-26.19-27.89-46.18-25.77ZM402.19,504.99l6.94-11.61,18.98,16.55,9.1-5.79-3.3-4.91,13.28-15.58c-3.78-3.21-7.91-6.21-11.08-10.08-1.79-2.17-6.41-11.02-7.8-11.65-1.32-.6-4.76-.34-6.38-.28-28.27,1.07-59.37,7.93-86.18,16.66-3.26,1.06-21.83,7.23-23.06,8.62-1.88,2.1,1.29,8.71,1.75,11.33,11.36-.34,22.81.03,31.62,8.13,2.31,2.12,7.78,9.86,7.78,12.79v10.28c7.46-4.86,15.96-6.23,24.46-3.34l-.56-7.78-4.99,1.11-.3-16.14,29.76-9.43v11.12ZM543.94,517.5v-15.84l21.67,4.44c.57-3.65,6.45-16.66,4.74-19.46-.93-1.52-25.16-9.59-28.76-10.7-8.99-2.77-18.13-5.16-27.36-7.05-2.32.15-4.05,3.92-5.58,5.54-10.88,11.58-23.76,17.3-39.97,16.08-.67.93-.39,1.62-1.46,2.53-3,2.53-10.58,5.08-14.27,7.4-.49.31-1.23.53-1.28,1.21,6.06.75,12.24,2.63,16.94,6.69.82.71,4.59,5.79,5.29,4.99l2.3-13.82c3.2-.65,19.39.83,20.79-.61.76-.78.53-2.87,1.72-3.28l18.88.43,5.5,28.39c7.36-5.22,17.13-5.97,25.29-2.21l-.24-2.81-4.2-1.91ZM454.79,482.23l-12.86,15.53.83,2,18.66-8.64c.48-.61.24-1.06-.03-1.67-.16-.36-4.42-6.15-4.71-6.42-.58-.54-.96-1.08-1.89-.79ZM523.37,568.92c.99-4.23-2.98-4.69-5.56-6.94-9.98-8.71-8-23.96-.04-33.31l-4.44-26.69c-.95-1.39-9.67-1.19-10.27-.34l-3.6,20.03c-1.07-.19-.92-1.16-1.13-1.92-1.36-4.83-1.45-10.37-2.81-15.26l-14.32.02c-.24,5.52-5.96,24.79-4.23,28.82.36.84,3.59,3.19,3.59,3.62-1.59,1.86-5.02,4.66-5.96,6.82-.5,1.14-1.96,10.78-1.58,11.29l13.69,2.51c.79-.6,2.69-16.83,3.33-19.5.2-.84-.39-.98,1.1-.83l7.52,16.67c1.1.25.78-.42,1.08-1.11,1.63-3.76,3.02-7.74,4.2-11.67l.84.55,4.15,24.76,14.47,2.49ZM399.41,567.81v-22.79l44.47,21.68v-11.95c-3.83-1.54-7.32-1.86-11.07-3.94-4.56-2.53-7.24-6.2-10.4-10.17l-16.33-6.19,17.74-19.81c.12-.66-7.41-8.1-8.56-9.11-.92-.81-4.21-3.85-5.23-3.25l-12.57,17.72-1.41-17.76-18.24,5.06-.07,4.92c1.44.37,4.34-2.05,5.3-.58l1.5,18.51c6.15,7.39,7.91,14.87,5.02,24.19-.64,2.08-2.13,3.79-2.39,5.94-.37,3.1.9,6.09.57,9.19l11.67-1.67ZM336.57,581.12l-6.66-29.13c.23-1.67,2.9-2.6,4.17-3.65,9.06-7.46,18.18-19.67,12.36-31.79-7.8-16.23-32.16-13.84-46.28-8.8-2.52.9-13.89,6.02-15.26,7.54-.45.5-.76.66-.34,1.39l8.68,14.19,5.84-2.41,1.06,1.02,24.21,54.19,1.3.69,10.92-3.25ZM449.44,535l17.75-19.25c-10.27-15.49-39.51-7.75-41.12,10.62-.6,6.86.93,13.05,6.43,17.52,11.45,9.31,30.1,3.77,39.47-6.1l-8.99-8.85c-4.02,3.35-7.89,6.64-13.54,6.07ZM568.83,512.34l-19.88-4.01.07,5.48,3.75,1.53c.65,3.09-1.07,6.34-.47,9.37.22,1.13,3.06,4,3.89,5.56,4.3,8.06,2.4,18.38-2.8,25.58-.82,1.13-4.5,4.55-4.63,4.86-.9,2.16.04,5.46-.88,7.86.45,1.54,9.66,2.39,11.57,2.51,2.19-7.82,2.33-16.98,4.48-24.7.21-.76.07-1.73,1.13-1.92l.64,35.22,10.17,3.67,21.48-64.13-15.04-3.68c-2.44,8.38-3.65,17.55-6.1,25.88-.24.81.31.97-1.13.81l-6.25-29.9ZM472.79,519.45c-.83-.88-4.51,4.88-5.54,5.28l3.61,3.05c1.33.25.67-.61.8-1.39.41-2.3.74-4.63,1.13-6.94ZM537.18,524.58c-14.78.76-28.28,19.97-17.61,32.3,12.79,14.78,39.41-3.23,33.42-21.75-2.21-6.82-8.76-10.91-15.82-10.55ZM420.53,527.23c-.41-.48-6.78,4.15-5.56,5.55l5.55,1.67v-7.22ZM367.6,529.05c-16.39,1.54-29.42,24.38-15.15,35.97,11.67,9.48,29.37-.63,32.8-13.87,3.16-12.2-4.6-23.32-17.65-22.09ZM449.44,554.74v20.29l-45.03-21.12v18.9l-21.1,2.75-1.42-9.42-8.05,5.83c39.74,25.63,94.51,25.31,134.51.55l-4.74-1.37-2.21-11.69c-.38-.16-2.24,6.26-3.88,6.12l-5.57-10.01c-1.33-.24-.69.61-.8,1.4-.25,1.81-.46,3.63-.68,5.45l-.82.88-22.61-3.38-.87-.77,1.6-10.24c-5.68,1.92-11.15,4.86-17.4,5.1l-.94.73Z"/>
  <path d="M530.6,276.52c.45,15.29-4.54,30.06-9.99,44.09l-1.67.37c-.56-.55,3.89-11.73,4.45-13.61,2.96-9.84,4.58-19.7,5.65-29.93l1.56-.93Z"/>
  <path d="M533.94,310.43l6.38-44.46c1.18.74.65,1.28.6,2.21-.62,11.69-1.24,29.62-5.13,40.49-.34.94-.56,1.97-1.84,1.76Z"/>
  <path d="M400.94,120.46c18.14-2.52,18.76,24.72,1.83,27.95-19.47,3.71-19.55-25.49-1.83-27.95ZM410.18,130.28c0-2.63-2.13-4.76-4.76-4.76s-4.76,2.13-4.76,4.76,2.13,4.76,4.76,4.76,4.76-2.13,4.76-4.76Z"/>
  <path d="M474.86,125.44c14.88-3.07,22.66,23.68,8.95,27.28-15.72,4.14-23.05-24.37-8.95-27.28ZM483.62,134.87c0-2.59-2.1-4.68-4.68-4.68s-4.68,2.1-4.68,4.68,2.1,4.68,4.68,4.68,4.68-2.1,4.68-4.68Z"/>
  <path d="M463.89,157.56c1.99,1.92-7.36,5.87-7.74,6.43-.89,1.32-2.31,8.62-3.36,11.09-7.49,17.58-18.97,17.27-25.46-.7-.97-2.69-2.25-11.59-2.86-12.57s-9.16-3.99-5.88-7.03c7.14,8.69,15.95,4.47,23.8-.45,4.88,3.48,8.23,7.82,14.98,6.43,2.74-.56,3.67-3.62,6.52-3.2ZM435.18,183.49c2.98,2.83,5.03,3.23,8.42.75,2.1-1.54,7.02-8.95,7-11.41-.03-3.68-7.86-6.93-11.03-7.35-2.98-.39-11.59-.16-11.24,3.96.29,3.36,4.38,11.69,6.85,14.04Z"/>
  <path d="M446.66,145.87c-3.33,1.97-6.13,2.26-8.33-1.37.4-1.89,9.8-.68,8.33,1.37Z"/>
  <path d="M507.43,442.47c0,18.5-15,33.49-33.49,33.49s-33.49-15-33.49-33.49,15-33.49,33.49-33.49,33.49,15,33.49,33.49ZM503.73,442.43c0-16.44-13.33-29.77-29.77-29.77s-29.77,13.33-29.77,29.77,13.33,29.77,29.77,29.77,29.77-13.33,29.77-29.77Z"/>
  <path d="M324.78,520.69c13.46-2.27,16.9,11,7.63,19.31-1.06.95-5.09,4.54-5.7,2.4l-5.67-19.37c.03-1.34,2.56-2.14,3.73-2.34ZM329.37,536.12c2.22-.18,3.64-3.42,3.85-5.34.54-5.04-2.67-6.28-7.19-5.77l3.34,11.11Z"/>
  <path d="M442.12,533.79c-2.38,1.37-5.03-4.5-5.33-6.42-.78-4.89,2.9-10.96,7.97-11.78,3.1-.5,9.8,0,10.01,3.85l-12.64,14.35ZM441.11,528.89c.39.29,6.05-6.21,6.65-6.96,2.39-2.96,1.56-3.7-2.25-2.8-4.45,1.05-5.99,5.69-4.4,9.76Z"/>
  <path d="M367.72,533.34c-.56,2.56-2.57,1.5-2.79,4.72-.55,8,10.49,8.48,11.69,1.39,2.99,3.5.36,8.84-3.26,10.92-13.29,7.64-22.61-14.54-5.64-17.03Z"/>
  <path d="M536.16,528.9c-10.95,7.33,5.76,16.8,8.34,5.56.91-.01,1.1,1.91,1.12,2.51.54,13-18.84,12.77-19.5,1.08-.28-5.07,4.9-9.92,10.03-9.15Z"/>
  <path d="M497.11,442.45c0,12.8-10.37,23.17-23.17,23.17s-23.17-10.37-23.17-23.17,10.37-23.17,23.17-23.17,23.17,10.37,23.17,23.17ZM494.92,442.41c0-11.6-9.4-21-21-21s-21,9.4-21,21,9.4,21,21,21,21-9.4,21-21Z"/>
</svg>