<?xml version="1.0" encoding="UTF-8"?>
<svg id="katman_1" data-name="katman 1" xmlns="http://www.w3.org/2000/svg" viewBox="0 0 841.89 595.28">
  <path d="M620.62,359.69c9.04,14.04,12.83,30.57,13.62,47.15,1.53,32.22-3.08,66.86,11.28,96.75,6.29-1.64,11.97-5.05,18.3-6.69,31.57-8.19,60.61,7.2,73.45,36.47,3.76,8.57,3.79,20.26,15.88,20.44,19.76.3,41.35-3.09,61.07-.73,10.16,1.22,6.58,12.43-2.15,12.03-244.92.51-489.84.98-734.83.76-3.79-.29-9.75-2.35-13-4.34-5.21-3.2,5.58-7.16,7.92-7.6,15.43-2.9,36.09.65,51.92-.94,13.58-1.36,13.44-14.3,17.97-24.31,10.68-23.56,36.3-37.28,61.86-29.83,6.53,1.9,20.59,12.67,25.71,11.74,3.91-.71,4.79-7.5,5.08-10.84,2.39-28.12-1.7-54.44,3.27-83.57,3.42-20.08,10.47-38.31,20.19-56.08-48.13-22.98-91.49-53.75-127.29-93.29-19.52-21.55-58.46-70.41-65.52-97.59-4.5-17.31-3.35-26.35,16.42-27.81,47.5-3.49,110.6,27.25,147.58,55.61,24.48,18.77,49.88,41.49,73.34,61.83,7.74,6.71,15.26,15.11,23.04,21.51,15.98,13.15,24.53,4.37,40.73-.76,58.91-18.67,109.46-15.49,166.53,7.21,8.36,3.32,21.26,13.33,28.7,5.27,34.02-52.2,70.39-100.39,123-135.26,30.32-20.1,74.04-33.83,110.72-31.23,25.47,1.8,15.62,16.54,9.06,32.46-22.06,53.52-50.73,98.3-94,137.08-27.57,24.71-58.9,44.49-89.87,64.57ZM319.69,553.75h72.12c.06-1.72-1.87-3.17-3.07-4.1-6.96-5.42-19.92-7.36-20.29-18.07l.69-.87c9.32-4.51,12.77,4.58,20.15,7.81,12.32,5.39,19.69-8.38,29.54-13.25,5.99-2.97,12.06-3.71,18.7-3.27,17.14,1.14,27.04,19.35,44.92,14.78,6.12-1.56,10.52-9.96,15.47-9.52,3.68.32,4.33,3.57,2.67,6.52l-24.95,20.72,81.07.66,1.11-1.16c1.31-10.33,1.67-21.43,7.19-30.57,11.66-19.29,43.77-17.51,62.83-23.27,1.01-1.51-3.37-17.7-3.97-21.02-3.87-21.61-5.63-43.51-5.54-65.51.11-26.04,3.89-35.05-14.68-56.23-6.25-7.14-16.12-12.26-13.98-23.4,5.73.55,8.59,1.29,13.38,4.36,2.88,1.84,8.35,8.1,11.52,6.6,31.79-25,65.3-48.97,95.18-76.27,22.32-20.39,29.25-31.19,33.21-61.94,1.54-11.97,3.51-28.2,3.79-40.04.26-10.85-6.68-17.59-17.56-13.74-8.83,3.12-22.93,11.33-31.31,16.27-31.89,18.77-54.99,40.56-77.99,69.27-15.76,19.67-30.71,45.99-47.21,63.8-8.32,8.98-12.62,10.61-24.72,7.33-11.47-3.12-23.78-9.76-35.36-13.73-46.85-16.05-95.03-20.16-142.14-2.5-10.15,3.81-29.24,15.61-39.1,13.83-7.5-1.36-14.16-8.66-19.23-13.99-9.79-10.28-18.78-22.22-28.67-32.49-27.63-28.69-61.87-54.13-97.03-72.88-7.32-3.9-34.26-18.08-40.95-17.57-4.88.37-9.95,4.77-10.85,9.63-1.07,5.78,4.78,23.21,6.26,30.08,7.39,34.29,7.16,62.67,38.8,84.29,23.49,16.05,50.77,28.96,74.68,44.63,5.08,2.59,10.57,4.62,16.33,4.82,3.51.12,8.2-2.28,11.6,1.2-13.19,25.72-28.91,51.31-31.69,80.81l-6.83,84.55c.74,4.24,10.13.63,13.26.41,26.04-1.81,43.58,8.24,54.63,31.43,1.97,4.12,2.3,10.45,8.04,11.6ZM639.12,555.26h75.52c2.2,0,8.08-2.85,9.44-4.9,7.45-11.26-7.36-28.9-16.72-34.64-19.75-12.1-41.43-10.28-54.12,9.86-5.63,8.94-9.61,19.02-14.92,28.14l.81,1.54ZM150.53,555.26h81.56c.81,0,1.13-1.66,1.1-2.53-.4-9.91-8.63-25.45-16.11-31.9-20.3-17.47-60.39-8.81-66.57,19.3-.56,2.53-2.47,14.36.03,15.13ZM404.69,551.43c1.71,2.65,29.72,3.25,34.35,3.11,5.94-.18,13.49-.86,19.38-1.76,1.64-.25,11.17-1.92,11.15-3.18l-35.1-19.95-29.69,19.69-.1,2.09Z"/>
  <path d="M489.98,220.71l58.15-61.58h1.5s13.19,11.8,13.19,11.8l2.12.61,66.24-40.69-75.13,77.77c-2.81-1.99-9.39-17.48-11.94-17.24l-54.13,29.33Z"/>
  <path d="M530,96.12l-36.89,67.01c-.43,1.21.02,1.89.6,2.88,1.8,3.05,10.6,9.01,11.78,11.69.35.79.25,1.32-.17,2.04l-57.63,59.86,25.58-54.13-.65-1.36-16.6-8.73.35-2.23,73.62-77.02Z"/>
  <path d="M157.44,423.37c11.47,11.66,22.76,23.57,34.25,35.22l-45.84-22.53-1.35.61c-1.54,1.99-6.91,13.93-8.97,13.56l-64.67-65.64,56.44,33.11c.9.3,1.61.12,2.44-.26,2.02-.93,7.66-8.05,9.85-9.08.83-.39,1.56-.61,2.46-.27l15.38,15.26Z"/>
  <path d="M176.58,421.59l-50.81-50.84-.27-.88c1.45-3.68,11.49-10.4,10.74-13.98l-32.15-57.39,64.17,66.83c-2.25,2.47-15.03,6.83-15.07,9.79l23.39,46.46Z"/>
  <path d="M388.76,158.01l-16.5,5,10.87,50.92-35.89-61.55c-.04-2.72,12.38-7.76,13.45-9.58.32-.55.22-1.1.22-1.7l-16.67-63.1,44.52,80.01Z"/>
  <path d="M388.79,252.43l-38.24-33.16c-2.09-.37-11.35,12.95-13.83,11.24l-44.58-77.75,45.32,44.94c3.82,1.77,13.48-7.91,16.25-5.75l35.08,60.48Z"/>
  <path d="M689.78,424.3c-10.34,11.06-21.35,23.46-32.12,33.93-.64.62-3.02,3.41-3.81,2.62l20.41-43.38-13.58-7.24.08-1.72,58.03-60.92-28.37,52.08c-1.48,4.75,8.02,8.96,9.52,13.24,0,.84-8.71,9.84-10.16,11.39Z"/>
  <path d="M798.83,375.53l-58.52,61.15c-1.51.02-6.82-11.42-8.31-12.83-.68-.65-1.11-.96-2.08-.64l-42.85,23.29,46.08-48.72c.81-.59,1.4-.39,2.24,0,2.76,1.29,9.32,9.82,12.1,9.17l51.35-31.42Z"/>
  <path d="M316.89,419.55c48.8-5.07,58.85,67.01,16.03,78.71-55.12,15.05-67.74-73.34-16.03-78.71ZM352.06,447.23c0-10.06-8.15-18.21-18.21-18.21s-18.21,8.15-18.21,18.21,8.15,18.21,18.21,18.21,18.21-8.15,18.21-18.21Z"/>
  <path d="M524.22,484.01c-27.07-27.5-.01-77.51,38.21-65.78,25.26,7.76,34.2,38.63,20.28,60.23-12.84,19.93-41.98,22.32-58.49,5.54ZM558.08,444.3c0-10.03-8.13-18.16-18.16-18.16s-18.16,8.13-18.16,18.16,8.13,18.16,18.16,18.16,18.16-8.13,18.16-18.16Z"/>
  <path d="M449.2,481.25c.6,18.58-30.99,20.21-28.7,0h28.7Z"/>
</svg>