<?xml version="1.0" encoding="UTF-8"?>
<svg id="katman_1" data-name="katman 1" xmlns="http://www.w3.org/2000/svg" viewBox="0 0 841.89 595.28">
  <path d="M322.23,260.15c-4.48-5.81.85-4.7.95-6.24.02-.27-.68-.83-.75-1.24-.58-3.38,6.15-5.87,6.27-10.83.07-3.08-5.25-7.07-5.85-10.56-1.2-7.03,4.71-11.71-1.6-17.9-2.42-2.37-7.47-4.27-7.99-8.02-.22-1.57.48-3.07.25-4.22-.8-3.95-6.36-3.39-9.39-4.13-6.36-1.56-7.84-4.51-8.83-10.67s-1.31-12.22-2.06-18.19c.99-.26.97.41,1.41.84.77.76,2.39,2.69,2.87,3.63,1.87,3.62.31,8.23,4.77,10.22,6.44,2.88,11.97-5.38,16.43-2.42,1.09.73,1.72,2.76,2.68,2.68,4.04-2.12,6.73-6.4,11.83-4.45,2.28-6.14-2.15-7.07-5.76-10.49-6.48-6.12-15.96-18.55-24.24-20.76-2.94-.79-5.97-1.09-9-1.26-.97-.94,3.82-8.15,4.5-9.49l-11.99-5.75c.62-2.43,8.24-6.81,10.99-6.26-.74-2.05-2.09-3.81-2.88-5.86-.88-2.28-1.12-4.86-2.11-7.14,5.09,3.34,10.24,7.21,16.49,8-.93-3.76-.5-5.13,1.49-8.26-.03-.97-2.35-2.94-2.87-4.11-2.5-5.59,2.05-5.48,3.63-9.13,1.13-2.6.26-4.35.26-7,1.31-.33,2.24,3.04,2.38,3.86.56,3.26-1.37,6.37.61,8.89,3.08,3.92,7.71,1.16,10.51,2.49,2.17,1.03,1.01,4.53,1.74,5.76.59.99,3.83.94,4.97,3.03,1.38,2.51.25,5.36-.21,7.96l11.01,2.75c-5.96-17.56-14.75-33.95-22.09-50.91-4.66-10.76-9.7-22.05-10.91-33.84l7.99,8.25c4.31,3.63,9.3,6.18,14.33,8.67,17.4,8.61,36.49,14.46,51.93,26.57.63-6.02-.77-12.08-1.75-17.99,2.82-.49,3.56,3.41,5.99,4.5l-.49-4.5c1.14.95,2.31-1.46,2.38-2.33.28-3.38-6.69-4.26-6.37-8.86.2-2.89,3.56-6.98,5.73-8.81.56-.47.81-1.21,1.75-.99-1.76,2.47-5.14,4.65-6.12,7.63-2.26,6.87,4.69,5.94,5.52,9.73.71,3.25-2.78,5.3-1.29,9.28.55,1.46,9.59,7.05,11.07,6.75.34-.07,1.32-1.02,1.32-1.14v-7.25c2.98-1.96,9.21,7.49,10.25,7.49,1.43-2.11,5.09-3.67,6.14-5.85.61-1.26,1.71-6.96,1.63-8.37-.43-7.6-11.09-5.48-12.81-11.26-.75-2.52,1.66-3.45,1.28-4.73l-2.28-1.26c-1.57-2.18,5.23-8.19,5.68-11.41.68-4.86-7.95-8.82-9.16-13.6-1.41-5.55,2.51-10.48-1.01-15.99-.66-1.03-2.35-2.76-3.73-2.52,3.92,2.79,1.62,7.81-.75,10.99-.04-2.23,1.99-4.01,2.23-6.31.32-3.12-1.62-4.62-4.63-4.08-1.98.35-1.46,2.06-2.84,2.89-.79-3.76,3.68-4.9,6.53-4.29,3.4.74,5.22,4.86,5.46,8.04.46,6.01-3.08,8.34,1.52,14.48,1.54,2.06,6.29,5.42,6.86,7.63,1.57,6.03-5.83,10.71-5.42,13.31l2.47,2.17c.47,1.89-2.81,2.93-.44,5.9,1.91,2.39,6.37,2.65,8.88,4.62,4.29,3.36,2.56,8.71,1.12,13.12.32.32,3.94-2.54,3.99-2.78.1-.44-1.09-1.35-.99-2.9.18-2.82,3.31-4.85,3-7.82.92-.1.51,1.67.38,2.13-.77,2.84-2.89,3.89-2.39,7.61l1.18.18,15.82-13.18c-4.61-.27-9.56-1.42-8.56-7.18-3.38-.69-5.1-1.23-4.68-5.06-2.64,2.46.11,4.73-.35,7.12l-3.4,6.37c-.75-2.46,2.15-4.35,2.48-6.28.28-1.64-.53-2.98-.53-4.47,0-2.73,1.96-4.52,3.8-6.24.07,1.48-1.12,2.66-1.23,4.32-.22,3.52,3.79,2.74,4.39,3.75.57.95-.71,3.82,1.46,5.43,1.18.88,5.85,1.73,7.25,1.38.78-.2,10.54-8.39,11.89-9.63,1.27-1.18,2.23-2.58,3.49-3.76-1.95,12.64-5.61,25.01-9.99,37l14.99-7.25c-1.95-1.31-2.03-3.8-.51-5.51.89-1,2.99-1.14,3.02-2.46.02-1.1-1.63-2.86-1.89-4.13-.65-3.16.87-6.06,3.14-8.14l-2.72,6.29,2.25,6.25c-.42,1.87-6.65,3.23-2.77,7.23,1.12.54,8.6-3.46,10.33-4.19.46-.19,1.27-1.09,1.66-.34-4.18,5.16-10.75,10.12-10.99,17.25,13.59-6.07,27.54-11.33,42-15,.2-1.38-.15-.77-.74-1-1.03-.41-2.21-.34-3.23-1.28-4.17-3.82,1.12-10.44,1.35-14.6.35-6.3-7.95-8.62-8.36-14.43-.29-4.14,3.81-9.31,4.83-13.59.81-3.39.82-6.19.15-9.6,1.11.75,1.45,3.83,1.38,5.1-.36,6.5-6,13.24-5.4,18.66.64,5.76,9.19,7.02,7.89,15.37-.54,3.47-4.09,7.61-2.09,11.33,1.19,2.22,4.95,3.23,7.32,2.94,5.21-.64,18.8-6.14,24.07-8.48l18.32-9.43c1.53,1.76-4.22,12.66-5.41,14.83-9.72,17.67-23.31,34.68-33.79,52.21-3.47,5.79-6.6,11.75-9.79,17.7l1.68.74c16.2-1.74,33.21-7,49.14-8.91,2.33-.28,4.69.34,6.93-.57.64.18-.55,1.1-.74,1.26-.91.8-6.7,4.49-5.51,5.74,2.18.69,11.37.56,11.41,3.17.02,1.31-7.85,6.67-8.33,9.2-.37,1.92,2.83,6.2,2.93,8.62-2.52.89-5.29.17-7.72.54-3.19.49-21.31,17.57-25.55,20.95-3.61,2.89-7.37,5.66-11.08,8.42-1.62,1.21-6.98,4.16-7.44,5.56-.63,1.91-.02,4.69-.22,6.78-1.01,10.19-3.23,20.4-6.4,30.1-.01.91,2.12,2.52,2.82,3.49,9.64,13.5,6.72,35.83.09,50.16,7.77-1.03,14.79-4.8,22.1-7.14.46-.15,3.33-1.36,2.89-.12l-38,54.5c4.06-1.4,8.02-2.61,12.33-3.17,7.83-1.03,16.37.81,23.17-4.07.35.37-1.62,2.77-2.01,3.24-7.46,8.92-16.61,16.46-24.24,25.26-.83.96-6.29,7.32-5.74,8.01,3.51-1.48,7.88-1.48,11.35-2.9,2.49-1.02,3.82-3.11,6.15-4.1-1.98,4.17-5.58,7.06-8.5,10.49,10.26-1.86,9.97,8.85,13.74,15.51,2.48,4.39,5.89,8.14,11.14,8.86,3.28.45,7.22-.38,10.26.24,4.4.9,11.04,10.94,11.33,15.21.31,4.57-5.08,16.2-7.98,19.91s-7.4,6.05-10.98,9.26c-.38-.43,3.31-6.24,3.73-7.51,1.06-3.17,1.48-7.4,1.26-10.73-.06-.91-.6-5.24-1.24-5.25-3.86,3.48-8.35,4.58-13.5,3.99-6.65-.76-10.36-8.52-17.4-6.41-2.45.73-6.77,12.13-4.35,14.9h-.99c-.94-2.3-2.84-3.97-4.22-6.04-.6-.9-1.79-3.95-2.27-4.25-.45-.27-1.97.79-3.15.68-4.23-.39-8.77-6.63-14.04-4.81-.61.21-3.42,4.21-3.91,5.08-2.44,4.33-3.94,10.29-1.8,14.97.42.92,1.53,1.26,1.38,2.36l-7.49-6-2.51,14.5-3.64-19.1-.84-1.39c-1.56,10.42-2.39,20.92-1.98,31.48,1.67-.21,3.2,1.03,4.73,1.03,1.65,0,3.61-1.31,5.5-1.52,2.4-.27,4.87.5,6.88.38,3.04-.17,6.09-3.3,9.14-3.4,1.39-.05,7.28,1.1,7.65,2.38.97,3.33-5.72,7.93-6.68,11.63-.71,2.75.72,5.44.18,7.17-.32,1.03-1.59,1.18-2.14,1.88-1.46,1.89-2.13,4.64-5.41,4.36-3.01-.25-3.22-2.42-4.73-3.31-2.39-1.4-5.39,1.27-6.39,3.42-1.61,3.46.03,3.46,1.67,5.83.95,1.38.84,3.1,2.94,3.56,1.52.34,4.11.21,5.67-.11,3.73-.76,7.43-5.76,10.97-3.53-4.47-.62-7.15,4.09-11.28,4.72-2.09.32-5.68.37-7.25-1.19-.27-.27-3.64-5.43-3.75-5.75-1.36-4.19,4.07-9.51,7.96-7.46,2.1,1.1,2.03,3.6,5.55,2.93,1.98-.38,2.56-2.68,3.55-3.96.53-.68,1.91-.94,2.15-1.87.42-1.69-1.45-3.8-.07-7.56,1-2.74,6.66-8.46,6.63-9.86-.04-2.06-6.57-2.43-8.25-2.26-2.32.23-4.23,2.59-7.04,2.97-2.59.36-5.09-.43-7.32-.33-2.1.1-3.8,1.34-6.13,1.4-3.13.09-5.57-1.82-8.79-.81-.76.24-1.31,1.16-2.26,1.28-1.35.18-3.17-.91-4.71-.51.36-1.41,2.73-.16,3.5-.74l-9.49-12.25,2.75,13-24.5-29.5.25,2.5-2.25-2c-.38-.08-.32.49-.24.74.45,1.4,3.77,6.6,4.79,8.22,2.54,4.03,5.43,7.87,8.46,11.54.33.4,1.32.99.5,1.5-11.62-10.39-23.37-21-31.5-34.5-1.1,8.99-9.3,13.58-15.51,18.99-1.59.62.72-3.88.9-4.6.98-3.88,1.39-8.19-.39-11.88-3.49,3.6-7.86,7.77-13.25,7.49-.11,1.09.91,1.68.99,2.77.12,1.76-1.38,2.89-1.49,4.01-.19,1.94,3.17,5.63-1.49,7.47-.9.36-11.22,1.75-12.13,1.65-3.01-.35-5.86-3.7-8.54-5-1.7-.82-3.95-1.05-5.52-1.98-3.2-1.91-1.28-2.59-6.51-1.86-4.84.68-8.99,2.72-10.2,7.82l-.1,4.12c-2.61-8.96,6.12-13.65,14-12.49v-3.01c-4.92.47-10.79.05-14.74,3.51-2.67,2.34-1.58,2.91-2.61,5.38-.24.59-1.05.53-1.15.95-1.01,4.41,2.46,7.25,4.99,10.15-16.54-5.7-22.99-21.94-9.7-35.44,1.7-1.72,8.69-5.56,8.96-6.03.12-.2-.45-3.02-.03-4.55s2.26-3.69,3-5.49,3.04-7.37,3.18-8.87c.1-1.06-.68-1.64-1.01-2.54l-.91.42c.36-1.65-.96-2.55-1.4-3.86-2.29-6.82,3.15-10.2,2.32-13.29-.79-2.93-10.06-4.69-10.19-9.6-.04-1.47.98-2.55,1.17-3.64.16-.9-.34-1.63-.26-2.3.34-2.91,5.87-4.27,7.71-8.2,3.37-7.19-2.57-9.6-2.41-15.87.12-4.35,3.82-8.13,4.55-12.25.94-.04,1.02-.23,1.01.76-.04,4.06-1.17,7.04.01,11.46,1.04,3.91,4.29,5.02,4.49,8.76,10.99,1.01,22.01.4,32.98.02.18-.75-.17-1.17-.46-1.78-3.81-7.93-10.49-17.09-16.05-23.95-6.29-7.76-16.95-17.01-19.98-26.52-.08-.25-.14-.82.24-.74,5.9,4.47,12.92,7.37,20.25,8.49l-6.66-3.08c-2.85-3.99-4.11-2.81-7.97-4.03-2.02-.64-4.31-2.2-5.86-3.64.39-.75,1.2.11,1.64.36,2.76,1.53,5.52,3.37,8.85,3.39-1.28-3.08,1.93-10.4-2.28-10.95-5.13-.66-9.32,1.06-13.7-3.34-.48-.48-.39-1.05-.52-1.21.69.85,5.14,3.17,6.37,3.38,2.5.42,7.73-.51,9.42.58,3.9,2.52-1.17,10.92,5.05,14.95,2.01,1.3,4.55,1.45,6.52,2.48,1.24.64,1.7,1.76,3.23,2.27,3.28,1.1,7.96.94,11.42,1.83-.54-2.15-.2-5.29-1.77-6.97-1.07-1.14-4.56-2.29-6.18-3.32-13.34-8.42-12.89-23.35-14.08-37.47l1.04-10.99c.04-.42-.78-.34-1.01-.26.14-1.48.35-1.79-.51-3.5-.41.03-1.47,1.87-1.49,2,.18-1.17.87-2.41.86-3.15,0-.66-3.25-11.81-3.64-12.32-1.81-2.42-6.42-1.52-7.9-2.48-.88-.57-.58-2.48-1.29-3.34-.88-1.07-3.28-.55-4.01-2.02-.39-1.35,2.2-2.86,2.9-4.01,1.71-2.8,2.06-7.57,7.07-4.68-.52-2.38,0-12.09-.95-13.3-2.68-3.42-9.01,4.03-11.34,4.29-3.14.36-1.85-3.5-5.45-3.52-4.47-.02-9.36,6.5-15.51,2.52-5.02-3.25-1.61-10.13-6.74-13,.96,5.54,1.08,11.75,2.05,17.2,1.78,10.05,6.83,7.35,14.06,9.44s2.61,6.48,4.45,10.05c1.14,2.22,5.42,3.96,7.2,5.8,7.36,7.6-1.57,13.97,2.61,20.9.44.73,1.19.92,1.44,1.3,2.62,3.98,4.69,6.54,1.88,11.28-1.1,1.86-4.09,3.59-4.5,5.04s.46,2.44.25,3.19c-.25.9-2.32,1.01-2.47,2.59-.04.39.85,3.02,1.02,3.23ZM443.74,80.65l9.49-35.5c-9.79,9.48-19.92,18.7-30.84,26.91-1.5,1.13-9.76,6.16-10.06,6.69s-.06,1.3-.11,1.9c-.94.16-.23-.97-.58-1.4-.1-.12-1.68-.42-2.39-.87-2.04-1.31-3.25-3.07-5.27-4.23-.31-.01.33,4.39-1.02,5.99-3.42,4.06-14.7-5.05-17.23-7.98.06,4.17,1.07,9.15.52,13.27-.14,1.01-.31,1.72-1.34,2.15l-20.48-12.38-.69-.05c.06,2.38-2.52,3.16-4,4.5-1.07-1.18,4.63-2.9,3.27-5.02-.49-.76-14.09-7.04-14.76-6.47l-1.02,4.73c.14,1.34,3.18,3.04,3.77,5.25.69,2.59-1.54,5.46,1.95,7l3.78-2.48c-3.11,2.12-1.63,5.98-2.04,9.2s-2.9,6.93-5.21,9.29c-.84-.53.22-1.09.5-1.5.88-1.27,1.75-2.57,2.74-3.76l-.99-1.24c2.36.58,2.2-3.07,2.01-4.77-.36-3.22-3.59-5.47-3.91-7.1-.17-.85.44-1.9.45-2.89.01-3.4-2.95-3.8-3.45-6.11-.47-2.19.86-4.15.95-6.31l-13.03-5.82c-.06,2.42,3.24,3.14,2.99,5.5l-3.99-1.5c.88,7.52,7.66,12.62,11.99,18.25-1.68.76-3.37-1.8-4.75-2.25-.37-.08-.33.51-.24.74.74,1.81,7.2,7.41,5.99,8.76l-12.25-6.99.75,3.49-3.99-1.5c-1.5,2.03,12.04,33.14,13.64,38.11,1.3,4.05,2.53,8.11,2.35,12.39-2.41-1.21-2.74-8.38-4.49-9.25-4.48-.75-8.83-1.99-13.32-2.68-11.1-1.7-23.68-.66-32.93-8.07-.23,1.07.71,2.83,1.16,3.84.69,1.54,1.44,3.1,2.53,4.41l-10.44,5.5c8.45,3.02,14.41,5.04,7,14.24,16.37-.81,25.61,17.7,36.75,27,1.18-2.85.95-6.07,2.02-8.98.49-1.32.55-2.4,2.22-2.02-2.94,16.89-1.32,33.01,2.75,49.51,1.25,5.09,2.88,10.9,5.01,15.99,3.22,7.73,8.18,15.15,11.75,22.75.04.58.1,1.09-.51.51-1.04-.98-1.89-3.31-3.11-4.39l-9.88-16.36c.35,19.75-1.17,42.46,21.99,48.75,3.32.9,10.56,1.29,13.01,2.49.23.11.63.65.49.75l-7.5-.25c.77,1.24,2.13,2.31,3.26,3.24.42.34,6.18,4.65,5.73,3.27l-1.83-4.01,1.07-1.1c1.6.31,8.23,5.88,9.25,4.86l-2.03-10.97-1.46-.27c1.95-1.9,5.66-2.62,6-5.75-4.58-1.73-9.7-4.74-13-8.5,6.84,2.91,13.06,7.01,20.01,9.74,12.13,4.77,22.11,6.17,35.1,4.11,1.39-.22,9.23-1.75,9.69-2.33-.34-2-1.13-5.1-2.36-6.7-4.06-5.26-14.24-4.69-.17-10.81.55-2.93.43-6.63,2.52-8.98,2.93-3.28,10.5-2.8,10.72-9.03-8.82,3.15-19.35,6.3-28.75,6.99-.59.04-2.73.42-2.74-.49,10.92-.87,21.7-3.53,31.98-7.27,2.61-6.13,4.99-10.54,10.56-14.44,1.54-1.08,4.47-2.09,5.72-3.28,1.39-1.31,1.39-3.77,2.73-5.27.82-.91,2.3-1.41,3.24-2.26,5.51-4.93,2.61-8.69,1.77-14.98l2.25,3.49c3.33,8.33,1.03,17.49-5.23,23.77-.82.82-3.7,2.29-3.96,3.07-.96,2.96,2.83,7.67,3.32,10.52,1.67,9.88-11.74,13.35-9.76,22.77.53,2.52,4,5.41,4.65,7.85.72,2.7-.48,4.78-.18,6.64s2.71,4.12,3.19,5.86c.3,1.09-.06,3.77,1.03,3.98l1.72-.75c-3.71-5.31.04-10.97.02-15.97,0-2.11-1.32-4.08-1.03-6.25,1.44-1.44,7.32,5.68,8.25,6.99,2.4-3.81,4.29-7.91,3.25-12.49,1.19-.27.81.2,1.11.65,2.57,3.77,5.52,8.53,6.89,12.85,2.87-1.65,3.16-5.12,3.74-8.01.54-.77.86-.31,1.21.31,1.1,1.97,1.77,10.52,1.5,12.9-.18,1.54-.84,3.18-1.37,4.64l.92.66c5.72-13.86,9.89-34.82,1.6-48.35-4.28-6.99-11.07-7.91-17.1-12.65l12.99,4.99c4.71-15.77,7.34-31.99,7.51-48.5.62-.81.91,0,1,.74.36,2.81-.26,5.96.75,8.76,7.08-5.22,14.18-10.44,20.99-16.01,4.25-3.48,17.89-16.85,22.05-17.46,2.04-.3,3.73.58,5.71.47-.44-3.43-4.17-6-2-9.25,1.34-2.01,4.75-4.36,6.26-6.24.41-.51.95-.67.74-1.51-5.01-.66-15.89-.44-8-7.25.07-.39-.44-.28-.75-.26-7.22.52-18.38,4.01-26.15,5.35-7.94,1.37-16.06,2.89-24.09,3.16-.02,1.5.75,2.84.95,4.3.56,4.18.83,8.74,1.05,12.96.05,1.04.29,1.44-1,1.24-.92-15.11-5.79-28.65-15.5-40.26l.24-.74c3.67,3.51,6.79,7.71,9.46,12.04,1.02,1.66,1.69,3.81,2.67,5.32.31.48-.06.89,1.11.64.81-4.04,3.12-7.62,5.1-11.15,9.69-17.23,21.9-32.99,32.11-49.89,3.61-5.97,7.11-12,9.79-18.45-.31-.3-6.59,3.77-7.49,4.26-12.84,6.88-26.97,11.02-41.01,14.74l4.99,1.49-7.63-.38-20.08,6.92c-1.76,1.26-.06,6.34-1.3,8.45v-7.49c-3.04-.29-12.95,7.68-14.75,4-2.01-4.11,3.44-10.78,6.25-13.5-2.65.75-5,2.62-7.51,3.74-3.71,1.64-10.86,3.21-13.65,4.85-.91.54-.93,1.57-1.84,1.9ZM315.91,50.98c-1.05-.97-2.05-2.93-3.43-3.82-.38-.08-.32.48-.24.74,1.71,5.39,4.11,11,6.26,16.24,3.94,9.64,8.82,18.87,12.74,28.51.93.11.39-1.02.27-1.52-.38-1.54-1.71-3.54-1.22-5.15l1.12-.77,2.32,1.44c.44-.52-2.31-2.76-.17-3.44,2.86-.91,7.76,4.78,10.67,5.43.38-.36-5.81-6.86-5-8.49l2.49.25c-2.32-1.26-10.53-13.72-8.99-15.25l3.99.75c-1.79-1.19-2.5-3.75-4.02-4.98-4.44-3.59-11.51-5.05-16.8-9.94ZM331.18,122.59c.61-2.2,1.22-6.31-.75-7.89-2.94-2.36-5.45-.55-4.92-7.07-2.81-1.38-5.52.15-8.77-1.23-5.28-2.24-3.31-6.22-3.5-10.51-.03-.61.38-1.86-.49-1.74,1.83,4.29-4.92,7.76-4.95,10.24s3.68,5.09,3.84,7.1c.1,1.19-1.63,2.39-1.87,3.95-.14.91.06,4.06.59,4.6.95.96,18.09,2.23,20.83,2.56ZM337.23,208.65l-2.74-14.5c-5.37-3.01-5.07,2.55-7.02,4.99-.93,1.16-2.65,1.16-2.24,3.01,4.3-1.01,4.22,3.77,4.97,4.29s5.65.26,7.03,2.22ZM481.23,209.16l-6.51,5.23c-1.43,7.05-7.98,7.11-12.31,11.44-5.23,5.23-5.84,15.31-11.83,18.42-1.8.94-4.34,1.02-5.86,2.64-2.21,2.35-1.43,6.7-2.44,9.56l-6.55,2.71c-.9.99,4.5,3.85,5.24,4.51,3.03,2.71,2.81,5.17,3.27,8.99,4.03-.6,9.23-3.83,12.99-2.24,4.89,2.06,12.39,13.95,13.35,14.18.5.12,2.19-.33,2.17-.71-.76-3.81-4.65-6.62-4.56-10.47.04-1.7.86-2.96.44-4.89-.47-2.11-4-5.27-4.66-7.84-2.83-11.05,11.32-13.97,9.54-23.54-.68-3.63-4.57-7.5-2.94-11.36.34-.81,3.54-2.66,4.44-3.6,3.33-3.46,5.23-8.4,6.23-13.01ZM498.73,267.65c-1.4.87-3.03,4.82-5,3.77-1.25-.66-3.55-7.92-5.25-9.26l-5,9.49-5.75-6.5c.61,3.9-1.93,8.08-1.95,11.8,0,.76.88,5.31,1.18,5.7.5.66,1.28.53,1.98.51,5.85-.22,12.73-2.74,18.71-3.09.97-4.07,1.24-8.24,1.07-12.43ZM397.23,281.15c-2.19-2.66-3.9-5.93-3.5-9.49l-5.78,3.5c-.39,5.4,5.8,4.16,9.29,6ZM431.73,284.16c-3.17-.05-7.81-5.32-9.85-5.9-1.88-.54-5.28-.31-7.33-.67-6.77-1.19-13.21-3.35-19.55-5.95l1.36,5.14,2.88,5.86-9.99-2.5c.38,2.66,2.01,5.14,1.43,7.93-1.97,2.04-8.92-3.9-9.43-3.43l3.5,5.75-.99.74,6.16,2.91c9.76-5.55,21.36-8.57,32.59-9.4,2.62-.19,5.36.13,8,0,.56-.03,1.37.33,1.24-.49ZM468.73,285.15c-3.27-2.91-10.04-14.01-14.61-13.41-1.92.25-4.68,2.19-6.81,2.48l-1.05,11.23.46.96,10.78,3.23c3.36-2.5,7.14-3.76,11.23-4.5ZM455.73,394.9v-8.25l4.25,6c2.97-3.53,6.51-7.67,10.6-9.9,3.6-1.96,7.67-2.3,11.49-4.01,1.09-.49,7.2-3.81,7.67-4.33.84-.94.15-7.08,3.08-10.92,3.29-4.31,8.54-3.9,10.91-9.09-2.09-.32-11.35,3.26-12.45,1.7-.21-.8,0-1.59.34-2.32,1.33-2.95,9.68-11.75,12.36-14.64,5.09-5.47,10.86-10.34,15.76-15.99-4.83,1.66-9.81.65-14.74,1-2.94.21-12.97,1.65-15.39,2.61-1.67.67-1.81,3.08-3.37,3.88,0-4.31-1.31-8.85-2.91-12.84-2.51-6.23-5.49-5.59-.35-11.67,3.58-4.22,9.03-8.25,13.6-11.4,2.08-1.43,4.33-3.12,6.66-4.09-4.56,4.18-10.37,7.06-15.01,11.24-1.3,1.17-6.95,7.02-7.29,8.24-.54,1.98,3.38,6.99,3.8,9.26l2.48,9.26c3.06-6.73,6.94-13.05,11.1-19.15l26.4-35.84-12.25,10.5-.74-.24,10-9c-2.58.1-5.57,1.9-8.23,2.77-17.91,5.84-37.3,5.58-54.77,12.73-.13.28,3.49,1.35,2.99,2.75-7.85-3.95-16.75-6.04-25.5-6.5v2.5c-1.04-.04-.17-1.74-.71-2.53-.76-1.1-14.61-.26-17.03.04-1.66.21-5.7.23-5.76,1.99l-.77-1.03-19.72,6.04c-.29,1.15.22.82.63,1.14.69.53,3.64,2.77,4.14,2.86.65.12,7.41.09,7.97-.02.97-.19,1.27-1.12,2.26-.98-1.58,1.1-3.4,5.4-4.76,5.99-.22.1-.82.13-.74-.24l1.5-1.98c-1.08-.97-2.82-2.15-4.29-2.24-.91-.05-1.63.59-2.72.27-1.33-.39-2.16-2.19-3.01-2.56-.64-.28-1.36.25-1.99.02-3.17-1.17-6.5-3.39-9.86-4.65-15.02-5.64-32.11-4.74-46.99-11-1.41-.59-2.14-2.58-3.65-2.86,6.95,11.38,17.18,20.25,24.91,31.09,4.22,5.91,7.37,12.3,10.84,18.65,1.31.03,3.46-9.24,3.69-10.8.73-4.91,1.23-13.32-3.47-16.42l-7.97-3.27c17.09,1.01,13.37,19.02,8.99,30.24l2.5.25c-8.2,2.53-16.89,1.45-25.25,2.51l-14.25-.99c11.3,11.63,29.05,15.8,35.48,32.21-.38,1.72-10.4,1.46-12.23,1.28-2.02-.2-3.81-1.3-5.75-1.25,8.26,8.83,21.49,11.86,28,22.54,3.22-.45,4.09-2.68,7.87-1.4,5.04,1.7,6.15,7.19,10.03,10.47l-.13,8.17,6.99,5.47c1.68.5-.81-3-1.04-3.96-.24-1.03-.52-2.57.03-3.53,3.06,3.23,6.35,6.28,10.25,8.5l-3.64-7.61c-.31-1.21-.72-2.4-.86-3.65-.06-.52-.35-1.87.49-1.74l26.5,21.5c-2.27-5.75-5-12.43-4.49-18.76.06-.74-.4-1.45.74-1.24,2.8,2.77,4.69,6.17,7.75,8.75,2.78,2.35,11.14,6.96,12.5,10,.1.22.13.82-.24.74-6.43-5.96-15.43-9.67-19.26-17.99-.86-.13-.53,1.19-.49,1.73.53,6.52,3.24,12.56,4.99,18.76l-26.75-21c-1.09,2.17,5.31,11.93,4.75,12.49-4.71-1.29-8.04-4.56-11.25-7.99.12,2.86,2.09,5.34,3.75,7.49l-4.65-2.09-6.35-4.4c6.58,9.35,13.94,18.13,22.25,25.99-.01-2.04-2.05-4.14-3.01-5.99-1.4-2.68-3.44-6.12-3.49-9.01l1.75,1.5-.75-4,25.75,30.5c-1.47-3.49-1.06-8.28-2.13-11.61-.96-2.98-5.4-9.06-7.12-12.38-.39-.75-1.5-2.21-.99-3.01l20.24,30.78.68.18c1.56-1.54,3.23-1.62,5.33-1.46-1.16-3.46-1.09-7.13-.99-10.74s.58-8.67,1.06-12.44c.4-3.17,1.26-6.67,1.94-9.81,1.49-1.14,3.18,6.15,3.35,6.89.7,2.99,1.34,6.02,1.15,9.1l2.49-8.8c-2.4-5.22-3.82-10.63-3.49-16.44.1-1.76,1.59-6.93,1.39-7.89-.23-1.1-2.29-2.94-2.41-4.36l-1,8.5-1.75-.51-4.24,15.01c.12-6.06,2.86-11.64,4-17.5l1,.77,1-.52ZM446.23,274.65c-5.55-.56-5.37,7.92-2.52,10.76.64.64,2.06,1.52,2.04-.03-.05-3.58-1.06-6.96.48-10.74ZM441.73,275.66l-18,2.74c6.06,3.9,11.52,7.18,18.99,7.25-1.61-3.43-3.12-6.28-1-9.99ZM378.73,288.16c-1.67-.58-3.39-1.89-4.73-3.02-1.11-.94-4.73-4.94-5.29-5.21-1.34-.66-3.56-.37-4.97-1.27l1.98,7.27c3.94.29,7.67,1.79,11.49,2.51.52.1,1.64.66,1.52-.27ZM330.23,326.65l-3.74-6-1.75-7.49c-5.46,10,7.29,14.27-1.02,24.23-1.25,1.5-5.44,3.99-5.76,4.77s.37,1.75.27,2.7c-.15,1.54-1.52,2.01-.79,4.32s5.63,3.94,7.53,5.48c6.27,5.06-.35,7.62-.57,12.82-.12,2.78,1.87,5.02,2.33,7.68.81.63,2.39-6.21,4.77-6.52l16.72,2.01c-3.11-3.98-8.19-7.14-9.38-12.36-.65-2.84.11-7.08-1-9.5-.72-1.56-3.36-3.01-3.86-4.14-.37-.84-.08-1.97-.34-2.4-.22-.36-2.54-.49-3.19-2.56-.82-2.61.02-6.46.21-9.16l-2.93-3.61,2.5-.26ZM365.23,360.65c-.17-1.13-1.3-2.34-2.01-3.24-4.23-5.3-8.08-9.46-13.73-13.27-5.91-3.99-12.43-7.09-17.76-11.99.23,2.05-.51,5.01.36,6.88.66,1.41,2.31,1.29,2.87,2.13.48.72.31,1.98,1.02,2.98.58.81,1.78,1.2,2.51,1.99,3.22,3.45,1.74,6.75,2.28,10.72.85,6.33,8.61,9.46,10.23,14.77.93,3.05.28,3.43,2.74,6.26,4.92,5.66,14.82,8.99,21.98,6.26-7.76-9.61-20.19-13.35-28.76-21.99l-5.24-8.01c2.35,1.2,3.86,3.31,6.31,4.44,1.38.64,6.13,2.06,7.44,2.06h9.75ZM535.73,407.4c.32,2.73-.24,5.96,0,8.75l2.39-4.86c1.56-4.05,1.45-7.92.25-12.03-1.38-4.73-6.87-10.23-2.14-14.61h-9.25c-5.56,0-11.47-7.27-13.69-11.81-3.54-7.26-1.88-14.08-12.27-12.65-4,.55-7.43,3.73-8.79,7.45,2.2.83,7.8,1.75,8.74,4.02,1.48,3.57-1.58,10.29-2.4,14.08-1.66,7.68-2.46,15.53-2.33,23.41l5.76-9.99c1.71-3.51,3.4-7.86,3.73-11.77.38-4.47-1.57-9.56,1.09-13.41.93-1.35,3.01-2.25,2.3-.2-.45,1.3-1.62,2.6-1.85,4.15-.39,2.58.18,5.76-.04,8.46-.4,4.89-2.33,9.9-4.49,14.25,6.76-2.65,8.59,2.31,13.31,4.44,6.12,2.76,12.06,1.33,17.18-2.72-2.7-6.23-9.6-8.24-14.45-12.52-3.85-3.4-7.72-9.29-9.31-14.19-.16-.49-.69-1.61.25-1.5,1.44,3.71,3.72,7.92,6.25,11,6.92,8.44,18.25,9.53,19.76,22.24ZM491.73,369.4c-.39,2.71,0,7.05,0,10,0,3.75-4.15,12-3.99,14.44.19,2.83,5.3,14.4,7.07,16.98.35.51.77,1.19,1.41,1.33-2.07-13.03,1.36-25.68,4.47-38.21-.19-4.45-5.49-3.65-8.22-5.77-.16-.05-.72,1.1-.74,1.23ZM337.74,371.66l-5.92-1.44c-2.84,5.17-4.11,10.99-6.34,16.43-1.05,2.57-3.42,5.06-3.26,7.74.11,1.84,1.87,5.53,2.76,7.28,3.7,7.2,9.86,13.34,16.76,17.49l-8.08-11.66c-7.01-12.8-3.63-14.34.97-26.2,1.21-3.13,2.08-6.44,3.12-9.63ZM348.09,372.81c-1.57-1.27-2.65-.12-4.05-.2-1.78-.11-3.8-.9-5.75-.4-.61,7.09-5.78,13.86-7.52,20.23-2.06,7.54,3.69,14.01,6.98,20.22.97.11.3-.97.25-1.5-.45-4.16-.7-5.9-.18-10.18.84-6.95,3.44-13.52,4.93-20.32,3.16.08.14,4.9,1.05,5.95,8.57,2.95,15.65,8.42,25.37,5.21l6.08-1.92c-10.53,6.91-21.9,1.85-32.49-1.75-2.25,8.95-6.38,19.46-.71,27.92,6.94-1.19,12.48-6.33,19.8-4.77,1.27.27,2.65,1.09,3.78,1.25,4.19.58,9.67-4.61,13.13-6.67l.39-.86c-.53-5.59-6.21-11.06-1.4-16.12l-.99-.74,2.99-2.01c-.43,2.46-2.65,5.2-2.53,7.74.08,1.67,2.19,5.22,2.79,7.25,1.25,4.21,2.12,9.88,1.74,14.25-.13,1.47-1.01,2.8-.75,4.25,3.85-4.28,9.13-6.89,10.62-12.88.55-2.21,1.6-12.2.67-13.77-.37-.61-2.78-1.79-3.28-2.84-4,3.17-1.5,9.53-2.88,14.11l-2.37,8.37c.4-3.47,1.46-6.84,1.93-10.31.61-4.43-.61-9.97,2.98-13.01l-1.54-4.57c-1.63-.23-3.5-1.71-5.1-1.6-1.86.12-5.98,3.05-9.09,3.43-8.83,1.08-16.62-3.21-22.2-9.69-.84-.98-1.71-3.33-2.64-4.1ZM464.73,416.65c.12.22.65,1.13.99,1-.68-9.09,4.94-15.83,11.85-20.9,1.58-1.16,8.85-5.02,9.19-5.45,2.38-3.04,2.93-11.77,3.47-15.65-4.9,4.21-11.04,6.76-17.49,7.5,6.67,6.79-.05,7.95-3.99,12.76-5.88,7.2-5.02,12.23-4.01,20.74-3.8-7.02-.52-17.12,4.68-22.82,3.84-4.21,8.47-4.45,2.02-10.65-.87-.19-9.27,8.88-10.12,10.31-4.02,6.78-1.94,20.09,3.42,25.93,1.01.51.04-2.44,0-2.76ZM534.24,422.65c6.93-5.67,15.33-19.71,11.27-28.52-.99-2.14-6.47-10.87-9.14-8.34-3.35,3.17,3.11,11.7,3.75,15.74,1.4,8.91-3.51,13.39-5.87,21.13ZM490.23,405.65c.51-.45-4.92-10.94-4-13l-10.49,7.75c5.38.86,8.89,5.86,14.5,5.24ZM314.73,433.15c-1.27-4.18,1.01-7.67,1.98-11.28.65-2.41.34-4.91,1.33-7.17,1.47-3.34,5.53-5.15,8.16-7.35l-5.22-9.7-7.74,5.77c6.83,7.06-2.66,13.44-1.38,20.87.26,1.52,1.46,2.74,1.37,4.36-.82-.43-1.61-2.65-1.78-3.47-1.71-8.49,7.64-14.08,1.46-20.49-9.92,8.11-7.98,21.06,1.82,28.46ZM334.23,416.15l-6.77-7.5c-3.77,2.55-9.04,5.82-8.49,11,1.29-1.08,5.55-3.5,7-3.5h8.25ZM335.23,417.66c1.5,4.16,4.85,4.19,7.94,5.8,2.41,1.25,5.82,4.63,8.05,4.99,2.01.33,4.76-.91,6.81-1.25,1.54-.26,5.47.54,6.12-1.39.72-1.69-.89-3.56-.88-4.92.03-2.36,2.86-2.43.16-6.21-3.55-4.98-10.24-.03-14.45,1.47-2.03.73-4.12,1.23-6.26,1.5l3,4.49-10.5-4.49Z"/>
  <path d="M340.23,225.15c-.37,1.92.02,5.07.51,7l.61-4.14c.16-.54.29-1.14.89-1.36-.19,1.98-.82,3.9-.5,6-2.56.79-2.22-4.43-2.02-6.3.07-.67.5-1.08.52-1.21Z"/>
  <path d="M381.73,464.15l-1.24-.97c-2.46,2.26-1.94,6.47-3.82,9.15-.95,1.35-3.61,2.35-3.88,3.16-.52,1.59,2.93,6.54,2.95,8.66.84.61,3.63-3.46,4.49-4.25,37.5-34.7,94.63-9.33,85.88,42.88-2.63,15.7-18.39,28.72-32.75,33.75-16.66,5.83-39.43,2.82-46.63-15.37l-5.24,6.49c-2.83-3.11-.94-8.57-1.85-11.64-.29-.98-2.97-3.08-3.89-3.85.28,5.5.74,9.77,3.79,14.46,4.32,6.64,7.16,4.42,13.05,6.95,3.38,1.45,7.58,5.4,11.01,7.49,1.19.73,9.72,5.49,10.15,5.09l-.28-1.99c.38-.54.86-.94,1.54-1.01,2.77-.29,9.73,5.18,13.54,5.49,2.26.18,3.15-1.69,5-1.82,1.35-.1,3.64.78,5.41.86,5.56.27,8.05.06,11.76-4.28s3.89-7.54,10.02-9.98c.65-.26,6.74-1.64,5.99-2.25-7.96-.35,1.94-6.81,4.34-8.41,1.31-.87,5.43-2.63,6.02-3.23.63-.63.69-2.2,1.66-3.09,1.25-1.15,3.83-1.55,5.2-3.29,2.12-2.69,1.22-7.67,5.31-9.69l4.46-2.54c-1.51,1.83-4.22,3.05-5.72,4.78-2.25,2.59-1.78,6.26-4.33,8.67-1.1,1.04-2.81,1.5-3.97,2.53-1.26,1.12-1.51,2.53-2.12,3.13-.88.88-5.98,3.25-7.73,4.52-1.02.74-6.66,4.58-5.14,6.11h3s-.07,1.43-.07,1.43c-3.64,1.46-7.18,1.89-10.39,4.36-3.95,3.04-5.27,8.44-9.59,10.91-2.71,1.55-6.12,1.55-9.2,1.29-1.64-.14-3.44-1.15-4.97-.99-1.26.13-2.19,1.34-3.39,1.68-4.01,1.12-10.92-4.82-15.14-5.2-1.64-.14.27,1.67.22,2.27-.64.97-1.59.87-2.62.65-3.81-2.46-7.93-4.36-11.81-6.7-2.35-1.41-4.46-3.51-6.7-4.8-5.65-3.27-13.52-2.18-15.85-9.9-1.67.97,1.58,3.27.76,4.49-4.25-5.16-2.2-13.95-4.5-19.5-.93-2.24-3.24-4.95-4.34-7.66-3.23-7.94-3.48-16.58-2.38-25.01-4.41-2.24-7.73-7.07-8.03-12.08l2.41,5.59c1.39,1.88,2.67,4.07,4.83,5.17s.87-2.1,1.01-2.77c.45-2.16,1.77-6.58,2.66-8.59,1.5-3.38,3.44-3.57,1.59-8.16-1.82-.02-.87,2.09-2.96,2.78-2.4.79-3.19-.09-5.01-.56-2.16-.55-.2,6.83.12,7.89.63,2.08,1.55,3.47,2.35,5.39-2.83-.77-4.88-13.12-3.99-14,2.42-.19,4.37,1.96,6.7.45.64-.41,2.07-3.02,2.1-3.69.06-1.59-3.03-3.49.7-4.25-1.21,1.29-.77,1.92-.5,3.5,6.48-1.01,5-7.72,7.49-11.25,1.19-1.68,2.11-1.29,2.5.75ZM457.93,485.96c-16.72-26.58-51.43-26.4-74.21-7.56-1.22,1.01-6.91,6.03-7.01,7.02-.11,1.13,7.41,17.1,8.58,19.41,2.97,5.85,6.4,11.54,9.93,17.07-1.42.97-1.54-1.64-2.49-1.75.82,7.55-2.24,15.85-11,15.74,10.02,7.67,28.7,12.61,40.77,8.27.52-.19,4.76-2.01,4.23-2.51-8.62-2.04-16.79-9.34-19-18.01l-3.49,1.25c14.64-12.26,30.27-24.3,46.34-34.66,1.71-1.1,3.72-2.52,5.66-3.09l-6.38,5.24c6.02,10.07,4.29,24.6-.03,35.1-3.95,9.62-9.39,12.86-19.34,15.16-1.33,3.58-3.55,6.52-3.76,10.5l-1.76-2.01c-11.64,6.67-24.74,2.91-33.49-6.48-1.24-1.33-1.56-3.6-3.75-3.5,17.84,33.64,73.57,12.29,77.49-20.76,1.46-12.26-.82-24.15-7.29-34.44ZM386.86,514.28c.34-.33,1.5-.14,1.86-.87l-14.24-28.24c-2.09,2.03-3.23,4.74-4,7.49-3.36,11.91-3.37,30.03,6.59,38.92,11.64,10.41,19.15-8.58,12.16-17.41v4.74s-1,4.76-1,4.76l-1.89-2.85c-.32-1.05-.17-5.86.53-6.52ZM449.23,493.15l-40.77,29.51c1.83,8.04,11.58,17.35,20.01,18,5.14.4,6.19.05,9.26-3.78,7.24-9.03,9.78-23.5,8.51-34.74l.99,4.25c.29,11.81-2.99,24.34-10.99,33.24,16.69-6.85,19.58-31.64,12.99-46.49ZM385.73,539.66l-4.99-3.01.5,10,4.49-6.99ZM420.63,546.26c-.57-.33-10.9.56-13.14.38-5.55-.45-10.94-2.54-16.26-3.99,3.92,6.24,13.5,10.82,20.77,11,2.67.07,9.69-1.07,11.72-2.77.79-.66.4-.42.02-.99-.21-.31-2.9-3.52-3.11-3.64ZM426.23,551.65l1-8.5-5.98,2.75,4.98,5.75Z"/>
  <path d="M357.12,540.75c8.28-1.15,15.37,13.82,21.95,18.32,4.06,2.78,13.62,5.02,15.94,8.06.48.63,3.56,6.1,3.98,7.02,2.41,5.22,1.48,12.04-5.53,11.54-1.97-.14-2.97-1.12-4.59-1.41-7.29-1.29-10.78,6.34-18.09,3.58-9.74-3.67-10.27-23.05-13.61-31.39-1.77-4.43-3.61-5.3-7.86-7.05,1.11-4.02,3.25-8.03,7.81-8.67ZM394.07,567.82c-2.57-2.71-11.46-4.71-15.79-7.96-7.9-5.93-18.91-29-28.04-11.45,4.73.75,6.71,4.15,8.14,8.35,2.66,7.84,3.98,29.85,15.1,30.43,5.88.31,8.69-5.49,14.98-4.5,2.67.42,5.6,3.11,8.54.97,2.07-1.5,2.01-4.37,1.62-6.64-.12-.67-4.19-8.83-4.55-9.2Z"/>
  <path d="M506.23,500.16c.18,2.9-2.41,5.08-2.87,7.86-.37,2.2.22,4.46-.35,6.65-.14.55-5.08,9.35-5.55,9.95-1.78,2.29-2.57,1.1-4.75,1.75-3.7,1.12-2.32,6.56-3.54,8.96-.89,1.76-3.72,2.93-5.2,4.3-3.27,3.06-4.84,6.52-10.24,7.01,1.19-1.79,4.13-1.92,5.68-3.06,1.29-.95,2.1-3.12,3.29-4.21,1.48-1.34,3.96-1.96,5.3-3.7,1.75-2.28.9-5.02,1.98-7.52,1.37-3.2,3.33-1.91,5.62-2.88,1.91-.81,3.02-5.02,4.03-6.97.75-1.44,2.25-2.5,2.76-4.24.69-2.4.03-4.71.45-7.05s2.77-3.88,2.38-6.36c-1.34.13-2.96-.23-4.24,0-1.54.29-3.23,2.73-4.64,3.36-1.84.81-4.18.26-5.61.89-2.29,1-2.72,7.54-7.89,6.42-6.94-1.5-3.58-10.59-.62-14.43,1-1.3,4.26-3.7,4.74-4.76.6-1.32.06-2.84.3-4.2.18-1.08.84-2.08.94-3.09.35-3.43-3.52-5.8-3.97-9.19l4.6,6.64c.46.81.46,1.66.37,2.56-.12,1.12-1.27,7.28-1.59,7.94-.69,1.39-3.3,2.83-4.59,4.41-2.79,3.41-6.07,11.18-.14,13.09,4.22,1.35,5.13-5.06,7.98-6.25,1.67-.7,3.28-.1,4.9-.6,1.5-.47,3.49-3.4,5.34-3.71,1.15-.19,3.72.5,5.13.44Z"/>
  <path d="M470.23,47.66c2.11-.26.36,3.33,1.22,4.53l4.55,1.45c1.42,2.17-2.09,6.84,1.77,9.23,1.92,1.19,3.27.65,5.12-.3,6.44-3.31,6.39-12.38,2.33-17.64-1.4-1.82-4.07-3.38-4.94-5.56-1.2-3.02-.03-10.41-3.57-11.97-2.52-1.11-5.73,4.08-8.33,4.66-4.93,1.1-9.59-2.53-13.36,2.64-.8,1.1-1.14,2.5-1.86,3.64-.32.51-1.03,1.54-.92.08,2.04-3.88,3.22-7.1,8.23-7.29,2.28-.08,4.16.76,6.39.41,4.21-.65,5.77-6.19,10.52-4.78,3.65,1.08,2.53,10.07,3.97,13.03.66,1.36,2.7,2.34,3.87,3.63,4.07,4.5,5.16,11.09,1.84,16.31-1.69,2.66-5.44,5.14-8.68,4.04-5.51-1.86-1.78-8.17-2.85-9.65-.96-.85-2.33-.25-3.44-.56-2.27-.63-.74-4.23-1.85-5.9Z"/>
  <path d="M512.74,426.65l4.5-.74c.14,2.06-1.76,3.62-2,5.02-.39,2.33,1.37,3.81-.73,6.25-3.84,4.47-11.67.97-12.66-4.4-.96-5.19,1.69-8.1,2.29-12.53.18-1.36-.71-2.65.1-4.11,4.05,1.59,4.27-5.28,5-7.99.68-.15.55.51.74.99,1.64,4.09.58,6.76,1.36,10.15.31,1.35,1.67,1.91,1.9,3.13.27,1.5-.45,2.79-.5,4.23ZM516.23,426.15l-3.25,1.33-1-.82c2.13-3.94-.62-4.6-1.14-6.87-.39-1.73.03-3.86-.22-5.78-.08-.57-.63-2.73-1.38-2.87.08,2.35-1.7,7.17-4.5,5.99.94,5.66-3.85,11.25-1.62,16.87,1.44,3.65,7.11,5.6,10.3,3.06,2.41-1.91.76-3.88,1.04-5.96.22-1.64,1.94-3.16,1.78-4.97Z"/>
  <path d="M508.57,460.32c1.78,1.87,2.33,5.33.42,7.33-.14-1.46.43-2.65.22-4.21-.52-3.98-5.59-5.54-8.73-3.3-2.7,1.93-.81,3.45-1.35,5.63-.53,2.14-4.22,3.9-4.38,6.16s2.52,4.46,2.52,7.47c0,4.04-4.83,10.7-2.94,13.9,1.6,2.71,6.26.7,8.63.83.88.05,3.31.6,3.77,1.52-4.01-1.76-12.84,2.48-13.51-3.74-.55-5.11,4.35-9.65,2.79-14.78-.6-1.95-2.81-2.94-1.96-5.88.6-2.07,3.75-4.32,4.08-5.45s-.03-2.62.14-3.88c.56-3.98,7.75-4.27,10.29-1.6Z"/>
  <path d="M471.82,549.54c.5.79,3.81.29,4.92,1.36l.46,1.46c-5.36,3.91-13.71,1.78-18.46,7.06-3.78,4.21-3.5,7.56-10.02,9.98-5.52,2.04-9.67.49-14.71,1.29-1.61.26-2.41,1.4-4.52,1.51-3.35.18-5.29-1.58-8.26-2.54-.11-.92,1.04-.44,1.51-.26,2.31.84,3.86,2.51,6.73,2.3,2.01-.15,2.79-1.72,4.53-2,2.4-.39,5.22.62,7.97.46,3.77-.22,9.12-1.95,11.75-4.74,2.39-2.54,3.37-6.63,6.82-8.68,4.24-2.5,12.5-2.2,15.69-4.31.58-.39.58-.63,0-1.02-1-.68-4.64-.82-4.94-1.31-.14-.22-.44-2.11.43-1.93.04.42-.12,1.05.09,1.38Z"/>
  <path d="M316.61,319.52c-2.53,2.28-4.38-1.14-4.41-3.61-.07-5.17,4.23-8.15,4.3-13.26,4.28,2.54-.12,7.73.28,11.2.2,1.74,1.86,3.84-.16,5.67ZM314.74,311.16c-.45,2.41-2.28,5.59.24,7.49l.76-2.22-1.01-5.27Z"/>
  <path d="M506.88,218.54c.05.1.8.08.87.44.2.97-.42,1.97-.36,2.86.05.82.89,1.76.75,2.5-.3,1.66-2.7,1.41-3.89.78-.41-.57,1.52-5.92,1.5-7.23s-1.22-2.4-.96-3.39c.28-1.1,2.29-1.23,2.45-2.59l3.49-19.25c.05,2.39-.26,4.81-.57,7.18-.47,3.61-2.5,10.53-2.37,13.6.04.87.83,1.59.81,1.98-.04.7-2.55,1.65-1.73,3.13Z"/>
  <path d="M531.24,428.65l12.51-7.73c7.37-8.16,13.08-19.89,8.86-30.9l-3.63-6.87c14.13,15.31.28,41-17.74,45.49Z"/>
  <path d="M360.23,323.15l-10.3-15.95c-3.65-5.17-9.19-9.05-13.2-13.8-.47-.56-1.21-.81-.99-1.75,9.67,9.09,20.03,18.6,24.49,31.5Z"/>
  <path d="M431.24,35.15c1.22-3.88-2.79-6.53-3.39-9.36-.82-3.89,1.05-9.3,4.38-11.64-.41,2.61-1.96,5.63-2.01,8.27-.05,2.8,1.74,4.81,2.04,6.95.19,1.36.42,5.08-1.02,5.77ZM431.73,30.65l-1.95-6.29-.04-6.21c-.85,2.98-2.13,5.84-.6,8.84l2.59,3.65Z"/>
  <path d="M439.39,42.49c-.91-.85-.7-2.43-1.65-2.84-.33,9.64,10.28,7.32,13.75,1,.71,2.09-3.65,5.09-5.39,5.61-9.53,2.82-10.39-5.89-7.35-12.61l-.04,5.76c1.91,7.65,10.97,1.39,11.04-4,.02-1.56-.89-3.82-.99-5.51-.17-2.74.32-5.74,1.14-8.35.16-.52.13-1.51.85-1.39-1.1,3.81-1.04,7.33-1.02,11.27,0,1.33.59,2.55.56,3.98-.09,4.78-6.78,10.94-10.89,7.1Z"/>
  <path d="M292.73,123.16c-2.2,1.94-5.43,1.99-7.97,3.78-1.29.91-5,4.32-2.69,5.63,3.33,1.9,13.04.54,10.94,7.62l-3.27,6.97c-.2-3.03,4.05-7.13,2.74-9.99-1.54-3.38-12.44-2.69-12.17-5.67,2.02-5.28,7.38-7.04,12.42-8.34Z"/>
  <path d="M495.73,9.65c-1.48-.3-2.36-1.43-3.97-1.77-6.76-1.45-9.33,3.34-14.91,4.15-6.23.9-13.27-.72-19.62,1.13-.12-.71.88-.72,1.39-.85,5.98-1.49,11.48,0,17.23-.77,6.33-.86,13.69-8.69,19.88-1.88Z"/>
  <path d="M410.73,23.65c-5.5-.08-1.89-6.53-1.96-9.74-.04-1.82-.98-3.45-1.03-5.25.73.1,1.15,1.73,1.38,2.37.58,1.59,1.21,3.63,1.09,5.31-.11,1.43-1.18,3.09-.98,4.55.17,1.28,1.64,1.48,1.51,2.77Z"/>
  <path d="M396.74,40.65c.25-1.89,2.33-2.44,3.03-4.21,3.55-9.02-9.97-11.06-5.28-18.78.65.83-.56,1.87-.61,2.82-.2,3.48,7,7.41,7.37,12.44.25,3.38-1.66,6.13-4.51,7.74Z"/>
  <path d="M455.73,70.66c-.34,1.14-2.63,1.18-3.53.78-2.19-1.56,3.45-18.73,3.78-21.79,1.65,0-4.8,18.93-3.67,20.68l.73.79,2.69-.46Z"/>
  <path d="M493.23,17.65c-1.09-.72-.49-2.33-2.02-3.22-1.64-.95-5.93-1.57-5.97,1.22,3.63.4,3.8,2.21,3.5,5.5l3.49-1.5c.78.84-3.48,4.25-3.99,1.25s.75-4.05-3.46-4.79c-.6-5.25,9.54-3.42,8.45,1.54Z"/>
  <path d="M524.98,410.65c9.53,1.02,4.99,7.36,3,13.51-.5-2.82,4.08-9.57,1.22-11.73-1.84-1.39-9-.65-11.72-.78l-6.26-.99c4.4.34,9.43-.46,13.75,0Z"/>
  <path d="M561.48,121.65c.2.03,1.43.49,1.25,1-7.5-1.16-15.22-.33-22.73.53l-2.27-.52c2.42,0,4.84-.29,7.26-.49.65-.06,1.33-.51,1.49-.51,4.39,0,10.94-.57,15,0Z"/>
  <path d="M508.74,495.65c1-1.38,2.98-1.32,3.41-3.36.64-3.08-4.43-6.94-.42-10.13-1.76,4.01-.02,4.68.99,7.79s-.78,5.55-3.98,5.71Z"/>
  <path d="M308.73,95.15c-.2.19-.23.81-.81.91l-1.72-.74c-.24-1.86,1.07-3.08,1.08-4.92,0-1.64-.84-2.32-1.04-3.75,2.09,1.36,4.49,6.64,2.5,8.5-.17-1.42.67-3.76-1-4.5l-1,4.5h2Z"/>
  <path d="M333.23,288.65c-4.16-4.25-6.61-11.12-6.99-17l2.75,8.99,4.24,8.01Z"/>
  <path d="M517.23,422.15c-1.56,1.45-4.81-8.59-.74-4.51,1.58,1.58,1.14,2.52.74,4.51Z"/>
  <path d="M307.23,33.65c.88-.11.47,1.13.5,1.74.12,2.96-.21,6.08,0,9s1.33,6.08,1.51,9c.08,1.41-.21,1.41-.54.03-.6-2.5-.84-5.05-1.48-7.53v-12.25Z"/>
  <path d="M310.73,397.15c4.59-3.7,5.47-9.27,8.99-13.49l-4.88,9.86c-1.07,1.26-2.37,3.35-4.11,3.63Z"/>
  <path d="M369.23,474.65c-1.59,4.94-5.2-.92-6.73-.5l-2.76,7.5c1.06-4.99.98-11.92,6.95-5.72l2.54-1.28Z"/>
  <path d="M545.73,380.65c-3.36-1.38-6.93-1.86-10.38-2.86-1-.29-3.09-.71-3.62-1.63,4.45,1.5,10.33,1.55,14,4.49Z"/>
  <path d="M493.73,545.66l-4.12.1c-1.31.49-3.55,1.01-4.33,2.2-.7,1.07-.35,3.13-1.55,3.7-.47-5.28,5.68-8.25,9.99-5.99Z"/>
  <path d="M415.48,441.15c.82-.17,2.08-1.73,3.25-1.5-.07.62-2.58,2-2.75,2h-9.5c-.78,0-2.66,1.67-3.75,1.5.12-.78,2.91-2,3.25-2,2.52,0,7.37.43,9.5,0Z"/>
  <rect x="402.62" y="414.76" width=".72" height="13.78" transform="translate(-180.13 408.89) rotate(-45.04)"/>
  <path d="M528.73,374.65c-3.45-1.26-7.14-4.44-9.5-7.24-.47-.56-1.21-.81-.99-1.75l10.49,8.99Z"/>
  <path d="M356.23,325.16l-5.25.99h-12.24c-.12-.87,1.13-.47,1.74-.49,5.24-.22,10.52,0,15.75-.5Z"/>
  <path d="M509.23,477.16c-.12,1.23-2.02,0-2.47-.28-4.38-2.88-1.77-5.7,1.23-8.22.64,1.43-2.01,2.46-2.5,3.51-1.15,2.46,1.57,4.58,3.74,5Z"/>
  <path d="M522.23,315.66c-.13.8-1.96.85-2.7,1.04-4.05,1.07-8.08,1.76-12.29,1.45l14.99-2.49Z"/>
  <path d="M373.23,470.65c3.38-2.76,1.25-7.7,3.99-10.49-1.67,3.22.04,9.22-3.99,10.49Z"/>
  <path d="M389.73,456.66c-1.87,1.74-.1,2.28.01,3.79.2,2.63-2.79,2.49-4.52,1.46-1.05-1.06-.27-.82.58-.58,1.25.35,2.29,1.23,3.19-.16l-.78-3.26,1.52-1.25Z"/>
  <path d="M430.73,448.15c-2.76-1.44-8.57-2.2-6.99-6.49l1.46,3.28,5.54,3.21Z"/>
  <path d="M486.73,409.66c.11.93-1.02.39-1.52.27-1.58-.38-3.23-1.28-4.84-1.66l-4.13-.61c3.51-1.1,7.08,1.28,10.49,2Z"/>
  <path d="M416.24,567.65c.84-.15.57,1.28.43,1.68-.58,1.73-4.17.05-5.43-.44-.81-.32-2.61-.97-3.01-1.74l7.22,2.47.79-1.98Z"/>
  <path d="M384.73,422.16c-2.25,2.38-5.85,3.82-9,4.49l9-4.49Z"/>
  <path d="M511.23,225.65c-3.2-.62-1.92-5.49.99-2.75l-.99,2.75Z"/>
  <path d="M362.73,467.65c-.86.12-.49-1.15-.5-1.75-.06-2.98.73-6.18,3-8.25-1.25,3.42-3.17,6.08-2.5,10Z"/>
  <path d="M457.23,474.15c-.84.02-1.1.27-.98-.73.47-3.94,3.95-10.83,8.07-11.93,3.77-1.01,5.39,1.13,6.97.93.98-.13,1.36-1.62,2.17-2.29.54-.45,1.74-.53,2.06-.97.2-.26-.58-3.84-.07-5.54s5.88-7.69,5.77-8.22c-4.2-2.89-7.55,2.56-11.79,2.69-1.94.06-4.29-1.11-6.39-.93-2.27.19-4.08,2.36-5.58,2.46-1.41.1-3.87-.87-5.49-.97-2.68-.17-5.01.11-7.64.35-.55.05-1.7.59-1.6-.35,3.02-.69,6.17-.56,9.27-.53,1.73.02,3.25.69,4.97.55,2.21-.19,4.1-2.23,6.57-2.35s4.62,1.27,7.32.71c2.24-.47,4.87-3.2,7.17-3.37,8.56-.63-1.56,8.02-2.22,11.36-.42,2.15,1.18,2.88.7,4.66-2.44-.24-3.75,3.1-4.63,3.4-1.39.47-3.97-1.23-6.42-.95-4.89.55-7.84,7.65-8.24,12.02Z"/>
  <path d="M476.73,494.65c.85-1.55,3.09-1.93,4.26-2.99,3.83-3.48.07-6.01.72-8.66.16-.66,2.83-.61.29-2.86-3.02-2.68-4.47,1.86-7.26,3.26-5.12,2.57-14.34,2.22-14.5-5.25l2.73,4.51c2.77,2.23,7.83,1.73,10.88.36s4.81-6.25,8.41-3.65c3.3,2.39.23,3.62.13,4.52-.05.44.76,1.99.85,3.01.4,4.91-2.48,6.11-6.51,7.74Z"/>
  <path d="M402.23,447.66c-4.22,3.68-2.61,9.98-9.44,11.05-.72,1.41.92,3.14.84,4.11-.32,3.71-9.36,5.51-11.4,2.08l4.68,1.07c1.84-.38,5.89-1.19,5.77-3.57-.07-1.3-1.53-2.1-.72-3.75.63-1.3,3.67-1.5,5.04-2.98,1.9-2.07,1.2-7.22,5.23-8.02Z"/>
  <path d="M435.73,452.16c.12.88-1.13.47-1.74.49-4.64.21-11.77-.99-13.52-5.99-.34-.96-.07-2.19-.48-3.02-.59-1.19-2.11-.49-2.25-1.49l2.78.46c-.02,7.98,8.65,10.07,15.22,9.54Z"/>
  <path d="M508.73,479.15c-2.25,0-6.41-3.03-6.45-5.23-.05-2.74,3.57-4.37,4.72-6.73,2.45-5.01-3.37-7.19-6.21-1.72-.48.93-2.73,6.39-2.84,7.16-.28,1.99,1.04,5.34.77,8.28-.24,2.61-1.58,4.96-2.02,7.51l1.53,1.74c-.79.08-1.62.14-1.93-.82-.63-2,1.92-7.07,1.97-9.92.04-2.66-1.37-4.53-.92-7.37.14-.87,2.67-6.97,3.17-7.83,2.72-4.62,9.93-2.94,7.25,3.25-1.34,3.09-7.7,5.26-2.78,9.21,1.21.97,2.97,1.13,3.75,2.5Z"/>
  <path d="M478.23,171.65c.13,2.95-3.82,6.78-4.37,8.87-.52,1.98-.2,5.11-.77,7.73-7.71,35.76-57.83,44.64-86.19,28.99-3.14,1.13-4.24,4.8-8.16,3.9l3.96-1.79,2.04-3.7c-11.69-6.39-20.75-19.83-23.45-32.81-.22-1.06.15-2.26-.15-3.35-.22-.78-2.2-2.71-2.81-3.69-.34-.54-2.8-5.77-.58-3.92.94.78,3.01,4.42,4.23,5.77,22.13,24.41,74.48,25.03,101.41,8.9,6.65-3.99,10.19-8.95,14.84-14.9ZM377.73,194.15c-.69-4.99-6.32-6.29-10.17-9.08-1.66-1.21-3.15-2.73-4.83-3.92,1.1,7.16,4.38,14.29,8.59,20.16.55.77,6.83,8.61,7.4,7.84l-.74-13.51c-3.94-2.53-8.98-4.13-12.26-7.49l12,5.99ZM458.73,208.65c2.03-.62,3.94-3.33,5.21-5.04,4.62-6.27,5.64-10.16,7.11-17.47.19-.93,1.95-2.72.93-3.99-1.49,1.39-3.21,2.97-4.89,4.11-1.38.94-6.92,3.62-7.37,4.13-.7.79-.73,3.76-.24,3.76l6.74-3.76-7.5,5.5v12.75ZM380.73,193.65c-.06-.41.19-1.03-.08-1.4l-2.92-1.09,1.75,3.99c.41-.57.74-1.02,1.25-1.49.07.49-.13,1.11.08,1.65.77,1.97,16.09,5.81,18.92,6.35l-.48-3.76c-5.89-1.37-11.84-2.62-17.36-5.18h-.59c-.02.55-.24.64-.56.94ZM456.23,192.15l-21.45,5.55-.05,4.95c7.56-.83,14.86-3.21,21.69-6.45l-.19-4.05ZM401.23,221.15l-1.21-18.53-19.78-5.97c-.68.6-.84,13.19-.04,14.29.51.7,4.82,3.49,5.88,4.12,4.71,2.8,9.92,4.57,15.15,6.1ZM457.23,196.65c-7.08,3.43-14.49,5.71-22.28,6.97l.29,17.04c8.32-1.32,16.03-5.51,22.53-10.71.82-4.1-.27-9.04-.54-13.29ZM433.73,202.65l.49-4.22-1.01-.57-1.98.3c.85,1.11.93,2.6,1.45,3.79.27.6-.23.9,1.05.7ZM430.71,198.17c-9.23,1.19-18.77,1.65-27.97-.02l-.53,3.73c9.79,2.27,20.06,2.15,30.03,1.27l-1.53-4.98ZM432.71,204.18c-5.43-.02-10.8.74-16.25.49-2.22-.1-13.39-1.92-14.26-1.3-1.59,5.87-.23,11.75-.4,17.71,10.75,2.72,22.1,2.46,32.88.02l-1.97-16.92Z"/>
  <path d="M457.24,143.15l11.49-12-3.93,5.66c14.59,22.21-7.72,53.32-32.75,37.89-1.15.2-2.84,4.04-4.82,3.45-.82-.83,2.58-4.69,3.24-5.5,7.97-9.88,17.81-18.75,26-28.5.4-7.06.03-14.08,1.76-20.99.98-.1.29.97.24,1.49-.56,6.2-1.87,12.15-1.25,18.5ZM465.23,153.4c.21-2.31,0-5.11,0-7.5,0-.44-.96-1.77-.49-2.75h.49c-.31.78.51,1.88.51,2.25v9c0,6.69-6.14,15.72-11.26,19.74l-4.74,3.01c16.33-3.69,22.13-21.37,16.38-36.13-.27-.69-1.33-3.7-2.13-3.36l-19.69,23.15c3.91,4.4-.72,11.96-2.81,3.34l-8.74,9.75c6.65,4.29,12.04,5.02,18.95.96,7.62-4.48,12.72-12.61,13.54-21.46Z"/>
  <path d="M371.74,133.15c.93-.19,1.21.46,1.71,1.04,8.32,9.61,17.79,22.22,25.49,32.51,1.87,2.5,3.81,5.03,5.24,7.79.15,1.7-7.7,4.3-9.32,4.53-20.3,2.76-30.99-16.81-21.88-33.88,1-1.88,2.61-3.25,3.25-5.26l-4.49-6.73ZM377.72,141.15c-1.14-.79-4.01,5.34-4.42,6.32-3.24,7.76-3.17,16.86,2.22,23.64.6.75,4.48,4.69,5.21,4.04-6.27-7.12-9.38-14.42-7.25-24,.51-2.32,1.52-5.89,3.25-7.5-4.1,9.7-4.91,19.11,2.02,27.74.81,1.01,4.62,4.97,5.53,5.47,5,2.77,13.63.08,18.46-2.22l-8.51-11.49-1.04,6.95c-2.34.7-3.16-1.89-3.41-3.75-.4-3,.43-6.2-.32-9.18l-11.74-16.02ZM392.23,168.65c.18-1.89.24-4.36-.03-6.21-.12-.79-.6-2.96-1.45-3.29.07,1.88-.16,3.81.05,5.69.1.91.52,3.35,1.44,3.8Z"/>
  <path d="M358.73,226.15l-.49,1.45c13.05,8.35,27.75,14.62,43.3,16.48,4.47.54,8.96.38,13.44.56.61.02,1.86-.38,1.74.49-23.28.91-48.59-7.16-66-22.74-1.39-1.25-4.22-3.86-5.25-5.25-.52-.7-.65-1.46.51-.51,1.66,1.36,3.1,3.34,4.74,4.76,2.01,1.73,5.44,5.34,8.01,4.75Z"/>
  <path d="M477.74,240.15l1.44,4.3c.11,1.71.24,3.45-.28,5.12s-1.9,2.08-2.4,3.11c-1.08,2.23-.04,6.16-3.75,6.77-3.06.5-3.99-2.23-3.29-4.8,1.06-3.93,6.65-5.06,7.89-8.11.81-2,.19-4.3.38-6.37ZM471.91,252.32c-2.57,2.75-1.96,7.92,1.6,5.85,2.38-1.38,1.3-3.48,2.1-5.4.76-1.82,4.04-3.57,3.12-6.62-1.14.49-1.18,1.83-2.03,2.71-1.17,1.21-3.68,2.27-4.79,3.46Z"/>
  <path d="M348.24,129.65c-.13-.9.63-1.46,1.1-2.15,5.26-7.76,11.79-13.92,19.39-19.35.23.98-.51,1.19-1.04,1.7-2.04,1.97-4.88,3.63-6.96,5.54-4.71,4.31-8.3,9.48-12.49,14.26Z"/>
  <path d="M466.73,104.4c.01-.21.76-.78.46-1.18-.28-.37-2.37-.61-1.96-2.07l2.25,1.47,5.25-6.71c-.5,3.27-3.65,5.36-4.53,8.47-.52,1.82-.38,3.12-.62,4.88-.08.56-.14,2.44-.86,2.39.11-2.4-.15-4.85,0-7.25Z"/>
  <path d="M497.74,97.65l9.96-14.2c-2-2.41-5.16-.86-7.7-.78-.56.02-1.9.32-1.77-.52,2.11.09,9.73-1.88,10.02,1.25.19,2.02-9.91,14.89-10.52,14.24Z"/>
  <path d="M384.73,124.66c-2,2.46-5.86,2.55-8.17,4.57-1.11.98-1.28,2.21-2.32,2.92-.08-.8.14-1.51.55-2.19,1.43-2.33,7.4-4.06,9.94-5.3Z"/>
  <rect x="488.45" y="78.77" width="12.09" height=".82" transform="translate(25.24 254.09) rotate(-29.54)"/>
  <path d="M446.23,380.15c-1.67-.89-2.73-1.9-3.75-3.49l-3.5,6.5c-1.94.38-3.48-5.16-5.5-6-4.41,7.55-5.11,6.31-10.5.49-.54,1.94-1.12,3.78-2.99,4.87-1,.08-4.46-3.47-4.26-4.87-2.87,4.52-5.25,4.7-8.24,0-1.7,1.73-2.48,2.96-5.11,2.11-6.91-2.26-16.57-19.54-19.91-26.11-.87-1.71-2.09-3.56-2.23-5.51l5.54,5.2c1.25,1.41,4.01,1.8,5.18,2.82.93.82,3.45,6.5,4.53,6.47l3.54-4.9c5.1,1.53,10.75-1.01,12.7,5.41l-3.85-3.9c-2.87-.36-5.75.46-8.42-.99l-3.73,5.38c23.07,4.73,46.58,2.36,69.36-2.63,2.76-4.38,4.77-9.22,5.63-14.36-2.39,2.96-7.02,5.26-9.26,7.99-1.76,2.15-1.96,5.23-4.5,6.5-1.3.35-.44-1.58-.98-2.5-1-1.7-10.7-.33-12.45.57-1.13.58-4.7,4.95-5.56,4.93l-3.08-4.91c-4.35-.18-8.58.53-12.94.44-1.21-.02-2.39-.63-3.49-.57-2.15.12-3.38,3.11-5.24,4.05l3.5-4.24,17.62-.66c2,.43,2.83,3.16,3.37,4.9,1.05.76,5.34-5.77,7.27-5.47,3,.67,9.34-1.87,11.46.49.59.66.41,1.95,1.26,1.98.94-1.79,1.81-4.16,3.01-5.74,2.34-3.11,7.04-5.23,9.52-8.48.52-.68.13-1.83.97-1.77.52,9.07-5.91,19.36-11.74,26-1.84,2.09-10.63,10.71-12.92,10.52-.37,0-.31-.51-.34-.53l.73-.02c5.1-4.2,10.38-8.3,14.48-13.52.37-.47,3.07-4.21,2.79-4.46-24.71,4.61-51.11,7.67-75.49,0-.68.81,6.19,9.84,7.24,11.01,2.93,3.25,8.49,9.56,11,2.5,1.12,1.32,3.38,5.12,5.42,4.45l3.08-3.94,4.49,5.49,3-4.99c2.32,1.27,3.15,4.41,5.95,4.95,2.58-.62,2.19-10.98,9.79.54,2.32-5.22,3.67-9.01,7.51-2ZM394.23,363.15c-1.25-1.35-2.74-5.49-3.76-6.48s-5.81-2.53-7.23-4.01l4.72,8.52,6.27,1.97Z"/>
  <path d="M384.23,318.65c-.03-1.25-.37-1.53-1-2.5,1.21-.96,15.73,10.18,17.51,11.74s15,15.17,13.49,16.76l-1.2-.51c-1.82,2.99-7.08,1.05-10.02.99-6.92-.13-13.86.15-20.77.02l3.5-1.25c-2.24-1.51-3.72-5.29-3.99-8-.31-3.08-.1-15.58,2.49-17.24.05,2.03-1.3,5.8-1.49,8.26-.33,4.24-.58,16.51,5.22,17.27,7.05-.94,15.22,1.23,22.04.49.73-.08,1.28-.1,1.73-.77-.73.06-1.34-.68-1.5-.75.61-.02,2.49.38,2-.74-.19-.44-2.78-3.47-3.35-4.12-.3-.33.03-.96-1.14-.64l-.5,4.99c.88.09,1.85-.13,2.71-.01.41.05.27.5.29.52-2,.08-3.47-.46-5.23-.52-5.72-.19-11.51-.07-17.14.9-3.43-.04-5.25-10.86-4.62-13.62l2.49-10.76c-.77,6.34-2.96,14.09-.52,20.27,2.11,5.35,5.31,2.42,9.75,2.21,3.75-.18,7.57-.02,11.27.52-2.06-2.45-.1-6.37-1.47-8.77-.48-.83-5.14-4.73-6.29-5.71-3.27-2.78-7.62-6.05-11.3-8.23-.5-.3-1.37-.23-1.44-.29-.15-.13.54-1.81-1.5-.5Z"/>
  <path d="M447.74,322.65c4.94-3.44,9.57-8.47,15.49-9.99l-1.02,1.22c3.54,6.76,5.09,14.85,3.4,22.41-.81,3.61-1.79,4.33-5.19,5.31-4.84,1.4-17.49,3.72-22.46,4.05-3.28.21-3.54-.82-6.23-1.99l-1,2c1.33-4.97,4.91-10.13,8.24-14,1.55-1.81,7.94-7.2,8.53-8.49.25-.56-.68-1.46-.77-2.3-.33-3.12,3.69-7.66,3.53-10.95-.11-2.34-2.72-4.87-3.03-7.26,1.55,1.57,3.47,5.12,3.54,7.25.15,4.41-3.98,8.12-3.04,12.75ZM448.73,341.66c.23.92.8.94,1.6.9,1.64-.08,11.28-1.98,12.37-2.68,2.51-1.6,2.7-10.15,2.52-12.97-.12-1.93-2.29-12.69-4.24-12.7-3.55,1.95-20.39,15.39-20.77,18.22-.26,1.95,1.45,5.31,0,7.72-2.86-.14-1.1-4.03-2.99-5l-4.5,7.26c-.34,1.1,1.03.81,1.76.76,5.12-.33,22.99-2.73,26.71-5.29,4.08-2.81,2.3-11.55,1.53-15.73.78.41,1.1,2.61,1.27,3.47.72,3.62,1.08,9.06-1.56,12-2.47,2.76-10.09,3.43-13.72,4.03ZM448.23,342.16l-14,1.74c2.75,2.03,9.05.2,12.27-.72.68-.19,1.55-.06,1.73-1.02Z"/>
  <path d="M355.23,294.66c.12.91-1.08.46-1.52.27-1.29-.55-15.01-9.32-13.97-10.27l10.04,7.21,5.46,2.8Z"/>
  <path d="M399.23,317.65c-1.41-.62-1.58-2.39-1.53-3.75l2.03-7.75c.43,2.53-1.45,5.55-1.52,7.77-.06,1.67.84,2.29,1.02,3.73Z"/>
  <path d="M334.23,249.65l-1.74-.99c-2.53,1.68-3.75,6.42.24,6.5-.2-2-.09-2.9,2.02-3.27v-1.73s.98.76.98.76c.49,1.87-1.56,1.36-2.01,2.09-.37.61-.4,2.34-.49,3.15-5.3-.15-4.63-5.86-1.17-8.45l2.17,1.94Z"/>
  <path d="M325.1,338.73c1.46-.27,2.52.33,3.24,1.56.54.92,3.67,8.84,3.77,9.75.14,1.33.42,2.09-1.03,2.75-1.69.77-2.76-1.85-3.88-2.37-1.29-.61-3.85-.22-4.4-2.12-.34-1.18.29-2.15.19-2.92-.3-2.19-2.16-5.87,2.1-6.65ZM330.73,350.65c.64-2.23-1.1-2.93-1.78-4.47-.78-1.78-1.81-7.34-4.37-5.56-1.84,1.27.04,3.12.16,4.33.26,2.62-2,2.87,2.85,3.6l3.14,2.1Z"/>
  <path d="M331.93,198.96c1.03,1.35,2.86,3.43-.19,3.18l-.03-1.44c-5.55.68-2.02-5.35-.25-3.01.21.27.18.88.47,1.26Z"/>
  <path d="M409.6,477.77c6.8-1.14,14.06,1.66,15.09,9.17,2.3,16.9-25.35,23.35-26.94,3.9-.37-4.5,7.34-12.31,11.86-13.07ZM411.62,478.27c-4.46.47-9.08,3.9-11.3,7.72-2.01,3.46-1.89,4.65-.61,8.43,5.04,14.85,28.48,4.48,23.13-9.63-1.65-4.35-6.71-7-11.22-6.52Z"/>
  <path d="M395.17,512.72l.56,5.93c-2.37-.84-3.7-3.64-2.42-5.93h1.86Z"/>
  <path d="M407.07,514.23c.88-.23,1.13.02,1.65.67-.81,2.1-1.83,3.53-3.74,4.75-1.9-1.12.98-5.12,2.09-5.41Z"/>
  <path d="M430.74,522.65c-.79-2.79-1.11-6.44,1.24-8.49,1.69,0,2.4,9.32-1.24,8.49Z"/>
  <path d="M356.64,547.28c4.12-.35,7.74,1.27,10.01,4.7,1.32,1.99,2.38,7.18,3.88,8.12,1.28.8,3.7.57,5.55,1.45,3.48,1.65,5.93,6.48,9.52,7.48,1.59.44,2.8-.29,4.39,1.11.99.86,2.4,4.54,2.61,5.88,1.43,9.05-7.15,1.71-11.63,2.11s-6.28,8.51-12.16.69c-6.73-8.95-3.69-24.73-15.58-30.41-.02-.59,2.76-1.07,3.4-1.12ZM391.67,579.59c1.19-.73-.78-7.82-2.17-8.95-1.77-1.44-4.24-.56-6.14-1.36s-4.59-4.86-7.17-6.33c-2.2-1.25-4.69-1.2-6.22-2.28-1.86-1.32-2.37-5.48-3.82-7.68-2.62-3.95-6.82-5.24-11.42-4.83.89,1.37,2.62,1.79,3.77,2.98,6.41,6.61,5.87,24.3,12.48,29.02,4.64,3.31,5.78-2.98,10.5-3,2.5-.01,8.65,3.39,10.19,2.44Z"/>
</svg>