<?xml version="1.0" encoding="UTF-8"?>
<svg id="katman_1" data-name="katman 1" xmlns="http://www.w3.org/2000/svg" viewBox="0 0 841.89 595.28">
  <path d="M684.69,133.65c-24.41,23.62-53.46,42.36-84.64,55.91l-.78,1.99c4.54,8.22,5.91,18.33,9.36,26.76.38.94-.58,1.5,1.38,1.25,22.84-10.54,46.24-24.49,70.27-32.06,11.51-3.62,15.5-5.08,22.29,6.25,10.71,17.86,21.25,45.98,27.35,66.06,1.82,5.99,7.11,21.24,5.58,26.52-.86,2.97-3.94,5.47-6.71,6.63l-74.72,22.7c-.1,1.63.91,2.77,1.79,3.98,15.52,21.42,36.53,42.14,52.83,63.71,5.91,7.82,22.26,24.31,7.9,30.85-6.65,3.02-19.97,5.32-27.62,7.07-5.3,1.21-10.85,2.05-16.22,2.91-1.5,1.56,16.03,30.08,12.95,40.08-.96,3.12-4.15,4.53-6.91,5.54-11.68,4.27-25.68,4.01-37.26,8.11-.86,1.07-.88,2.34-.89,3.64-.06,6.56,1.72,15.48,1.9,22.22.36,13.7,2.83,23.23-13.79,24.53-14.3,1.12-29.89-1.05-44.33.15-12.87,13.56-28.2,26.58-46.02,33.16-9.19,3.39-13.46,4.11-22.47,8.67-15.84,8-36.36,5.76-49.07-6.95-35.73,4.51-71.87,3.92-107.68.52-15.77-1.5-28.62-5.79-44.8-.29-2.88.98-5.62,4.06-8.7,5.53-10.73,5.13-30.26,3.89-39.16-4.66-1.26-1.21-2.11-3.71-3.27-4.74-4.04-3.59-14.92-7.9-20.48-12-8.88-6.55-17-15.91-22.66-25.38-30.36-50.81-7.05-119.51,15.82-168.88-3.96-5.46-8.96-10.05-12.8-15.62-20.25-29.38-19.13-64.92,3.05-92.86,2.88-3.63,12.57-11.5,13.72-13.86,2.03-4.19,3.44-18.12,5.2-24.16,2.84-9.76,7.32-18.88,11.99-27.85-14.37-9.86-29.1-17.87-42.5-29.33-22.71-19.42-47.43-52.58-56.67-81.22-3.9-12.09-9.13-34.1,9.17-36.59,21.44-2.92,52.03,5.65,72.39,12.86,36.58,12.96,69.97,33.33,100.17,57.37,7.13-1.62,13.8-4.76,20.84-6.72,52.57-14.66,110.94-11.08,157.8,18.17,28.07-24.29,59.81-44.41,94.01-59.05,29.16-12.48,72.6-26.26,104.26-21.58,29.03,4.29,23.45,22.3,12.98,42.74-10.61,20.71-28.19,41.8-44.84,57.92ZM650.51,57.65c-44.17,12.98-88.27,37.57-122.78,68.05-5.61,4.96-20.26,25.71-27.04,13.72-4-7.08,6.22-13.19,4.81-15.03-49.18-27.85-110.93-28.25-162.52-6.4-5.35,2.27-20.66,11.5-24.82,11.67-5.1.21-8.35-4.13-7.34-9.08,1.11-5.47,8.89-6.75,11.44-9.98.98-1.25,1.01-.54,0-1.81-2.2-2.75-15.67-11.79-19.48-14.34-15.72-10.51-39.69-24.39-57.33-30.74-7.33-2.64-7.2-.01-10.86,6.38-9.42,16.44-13.77,35.72-11.99,54.72.67,7.17,2.2,12.56,7.58,17.33,3.63,3.21,32.79,22.5,35.5,22.32,4.5-6.53,19.84-28.55,27.64-28.58,3.65-.01,7.63,3.97,7.62,7.62-.02,4.17-12.99,17.35-16.42,21.89-9.33,12.38-18.19,28.04-23.03,42.8-2.45,7.47-5.18,29.19-8.63,33.18-4.28,4.95-11.28,9.42-15.87,15.26-18.97,24.11-15.27,55.88,3.84,78.59,3.66,4.35,13.25,10.7,12.98,16.43-24.87,51.81-57.6,139.51-2.27,182.82,2.53,1.98,12.51,8.95,15.12,8.88,1.56-.04,7.07-4.69,10.72-5.24,8.55-1.28,18.82.43,26.38,4.64,2.26,1.26,6.24,5.37,8.21,5.57,6.19.61,15.78-3.99,22.29-4.04,10.23-.08,25.54,4.28,36.49,5.32,19.78,1.88,39.81,2.03,59.55.87,2.13-.13,13.85.89,13.81-1.3-4.31-4.78-11.68-9.51-10.62-16.84.52-3.59,3.88-6.06,7.47-5.82,7.05.47,21.1,22.11,30.61,22.08,7.77-11.41,28.36-10.66,39.62-5.1,3.38,1.67,8.35,6.98,10.74,7.05,5.64.18,21.58-8.25,26.76-11.59,30.37-19.55,46.95-53.04,47.57-88.99-12.02.23-47.24-3.15-44.44-20.85,1.73-10.91,31.39-17,40.78-18.39.34-1.63.32-8.45-1.38-8.85-10.22,1.49-45.34,3.6-44.73-12.77.44-11.65,26.65-21.16,35.47-26,1.62-4.82-10.8-22.49-9.69-30.06.46-3.18,10-15.95,12.3-20.65,17.4-35.48,16.32-79.59-.32-115.12l-1.6-.71c-6.48,1.95-23.83,9.58-28.1,1.98-6.59-11.72,10.38-12.04,17.48-14.34,20.06-6.51,44.14-18.15,61.52-30.12,8.53-5.87,8.77-6.5,11.9-16.57,7.97-25.68,8.31-53.4,5.08-79.88ZM718.94,279.98c2.47-3.42-23.33-71.4-30.77-78.11-2.99-.97-27.42,10.12-32.03,12.2-5.44,2.46-43.17,20.86-44.37,23.29,4.03,34.37-3.37,68.83-22.26,97.83,2.59,9.01,6.57,17.97,9.43,27.14,2.3,7.38,3.78,14.99,6.16,22.34,3.44,2.57,32.02-13.93,39.23-11.71,6.08,1.87,6.8,10.23,1.17,13.72-3.64,2.26-27.61,9.25-27.76,11.23,3.02,9.03,16.7,26.63,15.96,35.61-.69,8.39-15.48,8.67-21.28,12.15-.68,5.6-.54,11.63-1.05,17.19-.37,4.08-2.36,8.26-1.82,12.5.64,5,11.85,10.19,14.74,14.64,2.01.37,1.23-.88,1.32-2.2.77-10.52-5.14-21.62,7.81-25.12,9.62-2.6,20.64-3.18,30.49-5.09,1.34-.26,3.86-.51,4.34-1.94,1.48-4.42-13.6-28.13-14.87-34.8-1.43-7.53,4.34-9.09,10.28-10.65,12.2-3.2,26.07-4.43,38.46-7.37.18-3.28-2.59-5.89-4.48-8.42-20.37-27.33-44.67-51.93-64.73-79.39-.74-3.49-.12-7.09,3.05-9.03l82.98-26ZM565.11,388.59c7.93.45,15.27,1.18,23.17-.39,1.68-1.08-.81-10.79-2.33-11.13-6.83,3.4-15.47,6.13-20.85,11.53ZM611.38,429.52l4.42-2.22-5.31-8.46.89,10.68ZM595.35,424.18c-3.33.34-24.85,5.62-24.89,7.56,7.68,4.02,16.46,3.84,24.81,4.82l.08-12.39ZM595.36,512.26h13.34l-6.71-9.82-2.26.58-4.38,9.24ZM278.65,553.19c-1.56,2.17,6.39,4.2,7.63,4.36,1.45.19,10.17.66,10.14-1.26-5.3-3.44-11.57-5.33-17.77-3.1ZM504.49,556.86c-1.76-2.89-17.76-3.49-21.22-1-1.42,1.46,2.72,2.85,3.54,3.1,6.19,1.85,11.57,1.05,17.81.44-.1-.81.24-1.94-.13-2.55Z"/>
  <path d="M200.04,349.77c18.42,18.07-2.95,45.86-18.96,57.36-5.17,3.71-12.16,8.67-18.58,6.42-11.22-3.94-29.88-24.45-33.74-35.65-3.88-11.26-1.57-26.15,10.21-31.56,11.3-5.19,19.34-.79,28.03,6.45,8.2-9.62,23.58-12.3,33.03-3.03ZM179.37,388.08c5.69-5.72,13.92-14.9,11.9-23.76-.32-1.39-2.13-4.05-3.38-4.62-8.96-4.07-13.44,10.57-20.95,11.07-7.28.48-9.97-9.94-15.3-11.33s-10.06,2.86-9.93,8.15c.26,10.26,16.09,25.68,24.77,30.37,2.46.45,10.75-7.74,12.89-9.89Z"/>
  <path d="M620.73,552.77c12.02.69,10.74,13.53-1.8,13.83-14.08.33-14.4-14.76,1.8-13.83Z"/>
  <path d="M232.15,555.19c.75.8,1.16,2.71,1.18,3.81.16,11.43-25.04,8.75-20.05-2.24,2.1-4.63,15.9-4.74,18.87-1.57Z"/>
  <path d="M396.96,409.95c10.55-1.41,6.3,7.99,7.22,9.65.24.42,7.61,3.71,8.81,4.12,17.04,5.89,36.94,3.66,53.6-2.41,6.05-2.21,16.51-10.33,21.5-4.19,7.38,9.06-8.43,15.32-14.91,17.9-21.83,8.71-53.04,10.52-74.15-.9-47.91-25.93,22.07-81.12,50.22-89.76,9.94-3.05,17.23,1.18,11.29,11.29-20.22,8.06-39.7,21.2-53.77,37.86-1.49,1.76-11.45,14.99-9.82,16.43Z"/>
  <path d="M345.2,416.93v-2.4c-7.88-4.01-2.58-12.16,5.5-9.93.4-2.11-1.01-3.2-1.94-4.72-7.05-11.51-24-25.13-35.71-31.91-5.78-3.35-22.05-8.31-22-15.42.1-16.49,27.63.72,33.78,4.52,16.62,10.27,48.5,35.98,40.36,58.01-11.26,30.48-74.89,31.96-98.74,18.16-6.15-3.56-6.48-13.45,1.15-14.4,4.03-.5,19.65,5.82,25.98,6.84,17.75,2.87,36.15.84,51.62-8.77Z"/>
  <path d="M530.25,296.98c0,19.1-15.49,34.59-34.59,34.59s-34.59-15.49-34.59-34.59,15.49-34.59,34.59-34.59,34.59,15.49,34.59,34.59ZM515.32,296.98c0-10.86-8.81-19.67-19.67-19.67s-19.67,8.81-19.67,19.67,8.81,19.67,19.67,19.67,19.67-8.81,19.67-19.67Z"/>
  <path d="M311.67,284.31c0,18.54-15.03,33.56-33.56,33.56s-33.56-15.03-33.56-33.56,15.03-33.56,33.56-33.56,33.56,15.03,33.56,33.56ZM296.64,284.49c0-10.24-8.3-18.54-18.54-18.54s-18.54,8.3-18.54,18.54,8.3,18.54,18.54,18.54,18.54-8.3,18.54-18.54Z"/>
  <path d="M348.67,260.68c9.56-2.86,8.05,8.45,15.85,8.78,7.62.32,9.55-9.9,18.47-7.88,4.93,1.12,5.15,8.79,12.65,8.79,7,0,6.58-5.72,10.45-7.42,9.03-3.96,13.36,7.54,6.36,15.25-8.42,9.28-23.9,8.32-32.83.38-9.94,8.2-28.95,6.71-34.16-6.16-1.54-3.81-1.38-10.37,3.21-11.74Z"/>
  <path d="M486.56,256.67c-2.05,1.65-7.6,1.63-9.8.32-1.67-.99-6.11-10.98-9.49-13.87-7.72-6.59-19.53-5.29-26.4,1.68-3.85,3.9-5.63,11.51-13.03,9.28-8.71-2.61-2.42-14.84,1.59-19.39,13.35-15.16,39.27-14.01,52.03,1.36,3.57,4.3,10.88,15.96,5.1,20.62Z"/>
  <path d="M309.57,218.91c9.04-1.23,18.29.44,25.57,6,6.3,4.81,18.62,21.67,4.71,24.31-6.2,1.18-9.41-8.49-13.6-11.85-5.86-4.7-14.24-4.83-20.65-1.07-5.33,3.13-10.01,14.75-18.05,8.63-7.27-5.53,3.56-17.22,8.61-20.74,3.41-2.37,9.3-4.71,13.41-5.27Z"/>
  <path d="M372.28,247.36c4.21-2.3,16.97-1.93,14.76,5.39-1.91,6.32-20.46,3.41-14.76-5.39Z"/>
</svg>