<?xml version="1.0" encoding="UTF-8"?>
<svg id="katman_1" data-name="katman 1" xmlns="http://www.w3.org/2000/svg" viewBox="0 0 841.89 595.28">
  <path d="M683.03,5.45h53.99v1.93l-47.5.02c-2.13-.41-4.83-.41-6.49-1.95Z"/>
  <path d="M558.45,79.41c4.27,4.06,8.31,9.33,11.49,14.3.83,1.31,3.35,6.74,4.37,6.74,29.6-20.09,62.65-38.86,97.25-48.84,8.55-2.47,30.47-8.03,38.47-5.92,7.65,2.02,3.07,11.26,1.17,16.15-5.92,15.31-16.72,32.69-26.06,46.25-25.17,36.55-58.09,64.9-97.23,85.82l-.72,1.24c7.02,6.36,21.76,15.2,22.56,25.52,1.11,14.26-15.81,18.57-26.73,13.75-.42.02-.51.89-.51,1.21-.09,5.01,2.47,14.58,3.12,20.25,1.01,8.79.62,18.96,2.06,27.35s6.12,17.98,7.84,26.86c2.95,15.23,1,31.44-4.98,45.66-1.2,2.86-6.43,11.26-6.33,13.33,12.74,46.71,36.33,95.96,14.52,143.81-4.07,8.93-10.04,16.74-16.43,24.09,1.78,2.21,3.82,4.15,5.37,6.57,6.31,9.83,5.08,15.74-6.76,18.52-13.05,3.07-26.92-.56-39.83-2.66-1.84.41-1.17,11.06-5.81,13.43-5.39,2.76-8.83-3.01-13.03-5.32-2.3,3.43-3.89,7.28-8.69,7.27s-5.63-5.38-8.66-8.08c-3.75,1.19-10.31,4.51-14.11,2.86-1.27-.55-1.45-1.92-2.05-2.29-.88-.54-17.83.15-20.51.22-25.99.65-52.07,1.15-78.09.52-2.06-.05-8.93-1.26-10.36-.28-.48.33-.81,2.43-2.13,3.18-3.58,2.02-10.64-1.55-14.01-3.26-1.03.08-3.87,5.87-5.2,6.94-5.26,4.26-10.45-1.33-12.39-6.11h-.7c-3.36,2.72-8.42,8.4-12.97,5.24-3.2-2.22-3.48-11.48-4.95-11.95-4.27.25-8.48,2.03-12.59,2.72-8.39,1.43-17.9,2.16-26.26.49-10.4-2.08-14.77-6.72-9.12-17.07.93-1.71,6.54-8.55,6.3-9.46-.19-.74-3.7-3.69-4.54-4.67-12.88-14.99-19.92-34.36-21.69-53.99-2.52-3.19-18.72-13.11-19.45-15.78-.3-1.09.42-2.35.81-3.35,2.92-7.59,9.12-15.69,11.76-22.95.21-.58.53-1.12.36-1.77-4.09-1.34-27.74-11.81-28.33-14.78l16.29-42.13c-12.87-2.42-25.81-4.58-38.81-6.26-6.51-.84-18.12,1.12-18.11-7.96.01-14.17,5.41-36.07,8.47-50.38,4.57-21.34,9.81-45.94,16.29-66.62,3.63-11.57,7.09-8.86,16.58-4.8,9.26,3.96,19.19,9.1,28.12,13.82,10.4,5.49,20.35,11.88,30.84,17.12l5.3-37.6c-8.87,2.97-20.52,2.19-22.06-9.04-1.26-9.16,8.08-14.82,13.23-20.51.21-.24.71-1.01.42-1.32-34.88-13.27-65.8-32.88-89.44-61.94-13.01-16-28.08-39.44-35.22-58.79-5.2-14.11-3.58-17,11.84-16.18,33.44,1.78,74.73,20.42,103.88,36.41,6.7,3.68,14.65,9.56,21.18,12.56.79.36,1.48.86,2.43.71,3.7-14.58,10.98-29.53,22.17-39.78,7.91-7.24,19.1-13.98,28.52-19.2,20-11.1,41.59-19.76,64.21-23.89.69-.43,1.06-3.67,1.53-4.86,4.86-12.41,26.38-12.7,37.09-9.62,7.38,2.13,11.76,6.65,13.26,14.22,21.92,3.95,43.6,11.65,63.19,22.14,10.74,5.75,23.77,13.78,32.57,22.15ZM454.05,33.41c-.7-3.39-6.06-5.72-9.15-6.52-6.1-1.58-20.96-1.21-24.81,4.62-.44.67-1.56,2.5-.03,2.39,3.2-.23,6.86-1.25,10.13-1.45,7.96-.49,15.94.39,23.86.96ZM437.18,153.92v-6.99c0-1.39-3.42-.27-4.1-.24-19.32.68-38.36,2.89-57.36,6.31-3.02-.03-2.27-4.71-2.19-7.05.69-18.37,10.96-41.17,24.86-53.23,10.66-9.25,24.22-14.99,38.34-16.13l.96-11.34,1.61-.05c2.75,3.62-.44,7.67,1.71,11.38,17.59.63,34.7,7.87,46.32,21.17,1.33,1.52,5.48,6.38,5.31,8.2-.23,2.57-6.47,1.51-8.46,1.7-5.16.48-10.23,1.82-15.44,1.93-1.4-.27-3.03-3.59-4.07-4.6-5.84-5.73-15.93-10.14-24.12-9.87-.13,1.08.27,2.58-.07,3.56-.24.69-1.34.64-1.42,1.08-.1.56,1.35,3.78,1.48,5.25.23,2.49-.02,5.93.03,8.65.1,5.72-.3,11.46.19,17.16.63.91,14.07.34,16.44.43,5.61.23,11.73.57,17.33.99,6.74.5,18.25,1.13,24.49,2.5,3.73.82,2.5,3.1,2.76,5.92.3,3.28,2.37,8.6-2.15,9.43-19.19-2.42-38.48-3.79-57.87-3.88l-.99.45.24,7.05c23.35.23,46.62,3.06,69.36,8.25,14.95,3.41,29.07,8.38,43.23,14.14.57-4.39.1-8.87.23-13.28.69-23.31,1.82-47.13-2.62-70.13-.52-2.72-1.98-11.12-3.41-12.98s-9.28-7.04-11.64-8.61c-29.97-20.06-74.81-36.32-111.21-32.33-29.3,3.21-66.93,18.17-90.6,35.7-4.02,2.98-5.41,3.41-6.94,8.49-6.66,22.07-5.45,66.83-3.98,90.47.12,2-.13,4.05-.02,6.05.68.09,1.29-.04,1.94-.23,4.39-1.27,11.02-5.03,15.77-6.88,13-5.07,26.4-9.17,40.11-11.95,18.37-3.72,37.16-6.19,55.94-6.49ZM657,65.23c-14.25,4.57-28.17,11.53-41.3,18.72-7.3,4-14.8,8.41-21.81,12.9-2.22,1.42-15.68,10.12-16.21,11.3s2.25,6.95,2.81,8.76c4.28,13.95,5.75,28.01,6.63,42.54l.46,24.84c3.93-1.95,7.96-4.09,11.72-6.36,15.72-9.47,30.65-20.53,43.46-33.67,1.55-6.52,4.65-12.54,6.67-18.88,6.13-19.28,8.15-39.96,7.57-60.15ZM379.33,146.7l57.62-5.78,1.17-3.15-1.66-.76c-14.86.9-29.72,1.9-44.42,4.35-4.52.23-1.86-7.55-1.11-10.3,5.88-21.59,23.09-39.17,45.79-41.95.75-.53.73-6.28,0-6.81-32.71,2.43-55.79,32.98-57.39,64.4ZM482.01,101.37c1.06-.74-8.18-8.02-9.01-8.58-7.99-5.46-21.07-10.61-30.78-10.72-.54,0-1.12-.01-1.45.48l-.21,6.78c11.42-.15,22.39,5.39,30.23,13.42l11.23-1.37ZM323.41,83.55c-.9-.15-1.39.63-1.94,1.19-21.63,22.35-22.91,54.07-24.59,83.39l.02,26.29,22.1-12.37c.09-2.05.17-4.15.1-6.21-.82-24.45-1.91-50.8,1.01-75.12.69-5.77,1.94-11.54,3.31-17.17ZM289.66,199.24l.49-33.98,3.64-37.84c-21.76-13.99-44.67-26.72-68.73-36.4-1.97-.79-15.69-6.24-16.38-5.55.27,22.06,2.61,45.08,11.43,65.46,1.74,4.01,6.35,14.13,8.8,17.23,1.46,1.85,11.67,8.15,14.33,9.77,14.34,8.76,30.47,16.04,46.42,21.3ZM580.35,190.08c-.1-26.76,1.58-54.93-9.56-79.86-3.66-8.18-9.11-17.25-15.41-23.63-.47-.48-.47-1.37-1.54-1.11,3.49,14.9,4.43,30.31,5.32,45.53l-.43,47.67,21.61,11.4ZM437.18,95.11c-17.37,1.13-33.03,16.45-38.93,32.17-.53,1.42-2.74,6.82-1.58,7.63l.74.22,39.77-4.11v-35.91ZM440.38,137.12l-.58.91c.89,1.72.69,2.97,2.96,3.33,7.27,1.14,17.37-.65,25.03.52,8.36.28,17.83,2.38,26.04,2.45,1.24.01,1.91.07,2.17-1.25.63-3.19-1.01-3.27-3.62-3.61-10.1-1.33-22.53-2.09-32.76-2.43-6.39-.22-12.84.14-19.23.09ZM585.45,202.33c-59.38-45.63-156.11-52.65-225.86-30.31-24.47,7.84-57.43,22.82-75.95,40.73-3.52,3.41-11.64,11.09-7.31,16.22,2.43,2.88,9.16,2.17,12.06.55,1.3-.73.08-1.55.84-2.97,1.52-2.84,13.41-11.53,16.67-13.73,1.84-1.24,9.41-7.1,7.24-1.2l-22.02,16.06.73.97c25.8-12.82,53.01-23.12,81.12-29.76,62.37-14.72,120.74-8.18,180.03,14.44,9.54,3.64,33.47,16.17,42.06,15.3,4.91-.5,8.63-4.51,7.14-9.56-1.39-4.72-12.59-13.56-16.75-16.75ZM520.58,418.58l.49-2.16c33.77-19.35,71.65-55.82,67.9-98.28-1.22-13.78-8.64-26.44-9.6-40.05-.19-2.68.23-5.52.02-8.21-1.16-14.42-3.15-28.92-6.76-42.89-17.69-8.55-36.79-15.73-55.8-20.85-65.73-17.71-132.8-11.35-195.46,13.96-3.11,1.26-20.53,8.6-21.59,10.22s-2.11,7.65-2.63,9.9c-3.43,14.64-3.8,27.58-5.55,42.18-1.35,11.25-9.33,23.54-10.54,36.22-4.1,42.97,32.49,78.13,66.64,97.63,1.1.44,1.11,1.97,0,2.3s-4.49-1.26-5.79-1.8c-15.67-6.43-32.46-17.86-43.79-30.45-2.44-2.71-4.6-6.15-7.07-8.84-.43-.46-.43-1.04-1.35-.81-4.8,14.3-9.39,28.78-13.27,43.38-9.43,35.48-15.89,71.03,6.6,103.32,8.82,12.66,24.41,23.08,39.3,27.23,2.77.77-.43-2.08-.81-2.57-19.14-24.55-30.11-59.96-33.7-90.67-.83-7.07-2.28-18.73-1.53-25.51.28-2.51,1.71-2.01,2.31.15,2.12,7.6,2.92,17.31,4.6,25.29,5.81,27.61,14.32,57.54,30.32,81.04,1.73,2.54,10.51,12.69,10.92,14.18.33,1.21-.97,2.78-.9,4.68.05,1.5,1.93,9.69,3.2,9.89l.67-.2c1.39-1.38,2.96-2.48,4.35-3.87,1.54-1.54,3.8-6.37,6-3.6,1.01,1.27,5.04,9.39,5.89,9.63.4.11,1.14.09,1.5-.12,1.29-.75,5.05-9.65,6.19-9.98,2.47.52,9.11,6,11.43,5.23,2.02-.66.05-8.11,4.65-8.17.69-1.03-5.38-6.29-6.77-6.58.65-6.24,1.98-12.46,2.43-18.73.92-12.77-.25-26.25-1.99-38.97-1.83-13.34-5.18-26.44-6.68-39.84.76,0,1.58-.22,2.17.48.65.78,2.05,5.73,2.51,7.13,8.93,27.31,15.28,58.23,8.37,86.66,2.75,4.47,10.91,8.13,3.82,13.22,5.52.83,11.09.31,16.65.47,21.22.61,42.37.5,63.59,0,8.44-.2,16.89-.1,25.33-.46.7-.62-2.38-2.8-2.66-3.39-1.42-3.07,5.29-7.91,6.51-10.36-5.84-25.54-1.61-53.13,5.92-77.95.76-2.52,4.63-14.62,5.89-15.8s2.03-.46,1.92,1.03c-.49,6.43-3.28,14.85-4.44,21.52-3.49,20.06-6.2,41.71-3.93,62,.42,3.75,1.29,7.42,1.9,11.14l-7.25,7.24c2.07,1.86,3.18,1.37,3.75,4.48.15.81-.29,1.69-.06,2.39,1.09,3.4,10.23-2.65,12.06-3.68l.64.14,6.57,9.89c.81.25,1.13-.21,1.64-.68,1.86-1.74,4.94-9.63,6.99-9.92.49-.07,5.31,5.62,6,6.55,1.47.89,2.46,2.51,4.35,2.15.34-3.79,2.4-7.88,1.83-11.7-.09-.57-.71-1.15-.79-1.67-.25-1.67,6.99-9.01,8.53-11.05,6.21-8.22,11.8-18.42,16.07-27.79,12.06-26.44,18.27-55.54,22.58-84.2,1.85-.37,2.41.34,2.43,2.18.25,32.25-8.94,69.01-24.2,97.29-4.04,7.49-8.66,13.9-13.91,20.55.75.57,10.21-3.65,11.74-4.4,21.04-10.36,34.39-28.89,40.18-51.41,6.1-23.76,2.01-44.47-3.95-67.6-4.26-16.54-9.36-33.05-14.95-49.15-10.24,13.98-23.72,25.62-39.12,33.66-4.24,2.21-10.74,5.45-15.12,7.05-1.1.4-2.14.88-3.36.73ZM282.82,284.65c-20.82-13.43-42.55-25.75-65.46-35.28-7.85,27.62-15.52,55.46-20.59,83.78-.66,3.7-5.12,29.39-4,30.47,12.44,1.09,24.92,2.28,37.22,4.48,3.7.66,19.29,3.44,21.15,5.84,1.26,1.62.02,4.61-.52,6.32-2.98,9.52-8.87,19.87-12.42,29.52-.6,1.64-2.92,7.25-2.49,8.49l28.66,13.81,1.08-.83c5.45-21.28,11.43-42.44,18.88-63.1-12.01-22.37-14.41-44.46-6.59-68.74,1.34-4.16,3.99-8.97,5.03-12.81.16-.59.35-1.41.03-1.94ZM575.41,542.06c-.79.19-5.01,3.22-4.48,4.27.44.86,7.06,5.1,8.31,5.7,4.98,2.39,6.25,1.9,3.15-3.15-.88-1.43-5.49-7.18-6.98-6.81ZM299.3,547.3l-7.22-3.66c-2.84,3.56-6.86,7.08-7.24,11.84,2.85.45,4.71-.55,7.07-1.84,1.01-.55,8.19-5.22,7.39-6.34ZM553.84,554.03c5.64.34,12.54,2.59,18.1,1.96.72-.08,1.22-.05,1.66-.75.18-.85-6.51-6.55-7.95-6.55-.56,0-9.17,3.58-10.37,4.14-.37.17-1.72.83-1.44,1.2ZM319.07,555.97l-15.65-5.8c-.42-.02-.68.27-1,.46-.5.29-5.12,5.38-5.54,6.03-.39.59-.59.96-.46,1.71l16.08-1.02,6.57-1.38Z"/>
  <path d="M536.2,264.6c14.24,15.61,10.59,42.91-9.99,50.91-22.47,8.73-41.33-12.31-39.37-34.07,2.36-26.26,31.68-36.22,49.36-16.84ZM521.28,272.48c0-7.59-6.15-13.74-13.74-13.74s-13.74,6.15-13.74,13.74,6.15,13.74,13.74,13.74,13.74-6.15,13.74-13.74Z"/>
  <path d="M376.72,306.54c-13.93,17.9-40.59,12.58-48.72-8.01-7.17-18.14,5.45-42.14,25.52-43.88,27.87-2.41,38.6,32.09,23.2,51.88ZM376.54,272.53c0-7.55-6.12-13.67-13.67-13.67s-13.67,6.12-13.67,13.67,6.12,13.67,13.67,13.67,13.67-6.12,13.67-13.67Z"/>
  <path d="M564.16,374.43c-32.62,28.58-48.87-12.81-29.53-40.37,22.35-31.84,58.83-9.13,41.24,25.81-2.82,5.6-7.03,10.46-11.71,14.56ZM563.79,368.27c9.8-9.58,17.56-28.71,6.46-40.1-15.22-15.62-37.2,11.59-38.58,27.02-2.42,27.15,15.2,29.64,32.12,13.08Z"/>
  <path d="M304.81,373.53c-11.97-10.63-20.02-30-11.46-45.04,8.17-14.36,26.1-10.79,36.58-1.04,27,25.1,12.35,79.33-25.12,46.08ZM310.11,371.62c28.19,21.66,35.07-11.71,22.66-32.06-6.25-10.26-23.2-23.19-33.44-10.74-11.15,13.56-1.34,33.5,10.77,42.8Z"/>
  <path d="M468.72,333.95c.93-.89,1.86-1.89,2.6-2.95,1.22-1.73.56-3.89,3.48-1.88.59.41,4.3,4.55,4.55,5.09,1.3,2.71-3.21,2.23-4.34.56-8.27,9.95-17.48,11.83-29.26,6.53-2.71-1.22-7.46-4.73-10.27-4.7-2.43.02-11.27,5.57-15.07,6.63-6.15,1.73-11.27,1.58-16.95-1.58-3.26-1.81-4.92-4.49-7.6-6.9-9.82,4.21-2.04-4.07,1.55-6.36,2.4,1.99,3.51,4.86,6.06,6.98,10.32,8.56,16.04,1.81,25.51-1.89,11.21-4.37,14.06,1.84,23.48,4.95,6.26,2.07,11.69-.09,16.25-4.5Z"/>
  <path d="M457.91,421.47l-.28,1.49c-11.89,2.64-24.34,3.22-36.35.92-.15-.93.38-1.29,1.21-1.44,5.25-.96,13.25.69,18.82.02l16.61-.98Z"/>
  <path d="M429.06,319.2c-3.4-5.47,16.57-4.71,10.51.29-3.22,2.66-7.27,1.54-10.51-.29Z"/>
  <path d="M452.12,438.82c-.25-1.09,1.7-1.71,2.47-2.11,3.28-1.7,7.78-3.89,11.18-5.21,1.46-.57,4.13-2.09,5.14-.63-.03,1.03-16.25,8.67-18.79,7.95Z"/>
  <path d="M431.87,210.32c-5.82,2.9-9.74,8.29-14.94,12.06-.1-.84-.1-1.18.32-1.92.38-.67,4.43-5.04,5.23-5.78.94-.86,8.05-5.82,8.67-5.79l.72,1.43Z"/>
  <path d="M410.57,224.19l-1.36-.13c2.88-5.49,7.15-10.17,11.33-14.69,1.11.85.51.7.05,1.48-2.76,4.66-7.15,8.71-10.03,13.34Z"/>
  <path d="M412.59,210.33c.59.66-.24,1.2-.6,1.59-1.04,1.12-2.88,2.22-3.99,3.25-.97.89-6.32,6.67-7.46,5.77,1.2-2.18,3.41-4.36,5.3-6.03.66-.58,6.32-5.06,6.75-4.57Z"/>
  <path d="M437.78,61.72c-.9-.93-1.13-6.03.6-5.66,2.66,1.21,2.13,8.47-.6,5.66Z"/>
  <path d="M439.56,48.86c2.36,6.77-4,6.01-1.93.18l1.93-.18Z"/>
  <path d="M439.58,45.94l-1.62.02c-2.9-6.34,2.81-7.95,1.62-.02Z"/>
  <path d="M590.79,215.8c1.02.98,7.22,7.74,5.95,8.99l-2.43-.21c-59.97-48.71-145.68-63.06-219.8-42.45-26,7.23-54.89,19.08-77.38,33.97-4.76,3.15-11.02,9.12-15.47,11.52-.83.44-1.63.7-2.57.53-.64-1.39.09-2.47.95-3.6,12.48-16.52,47.05-32.29,66.4-39.65,67.66-25.71,149.74-23.59,214.17,10.23,10.06,5.28,22.04,12.78,30.19,20.67Z"/>
  <path d="M585.48,222.55c.78.93,1.32,1.94,1.13,3.2l-2.86-.74-18.38-15.85c-1.04-2.02-.67-2.69,1.5-1.98s16.67,13.08,18.61,15.37Z"/>
</svg>