<?xml version="1.0" encoding="UTF-8"?>
<svg id="katman_1" data-name="katman 1" xmlns="http://www.w3.org/2000/svg" viewBox="0 0 841.89 595.28">
  <path d="M615.3,148.09c3.72-3.34,13.17-4.44,16.2-7.07,2.89-2.52,8.68-14.98,13.05-19.45,10.23-10.45,11.39,4.7,13,12.44,6.64-2.28,12.99-9.03,20.42-5.26.83,6.1,0,11.47-2.01,17.17l10.68.16c.8,1.78,1.37,3.84,1.34,5.81-.18,12.26-31.92,47.98-41.84,56.84-3.27,2.92-22.11,16.07-22.73,17.36-1.18,2.45-.35,7.46-1.02,10.9-1.95,10.04-6.87,16.95-14.11,23.81-2.46,2.33-8.29,5.35-9.73,7.6-3.66,5.72-4.59,22.89-15.84,21.16-1.37-.99-1.68-9.62-2.12-11.98-.33-1.75.74-1.89-2.11-1.64-10.39,23.66-28.16,44.03-48.84,59.24,4.63,16.85,7.77,32.89,6.75,50.55,33.25,24.77,55.43,67.43,36.35,108.2-1.17,2.51-8.82,13.17-8.35,13.84,5.94,1.49,10.67,6.52,14.59,10.91.98,1.1,1.11,3.3,1.94,4,1.51,1.27,7.24,2.39,10.58,5.13,2.29,1.88,7.28,7.15,4.93,10.39l-10.38,2.11-.76,6.52-20.9,1.06c4.56,10.11-10.31,8.81-16.84,8.7-13.81-.23-23.84-.49-37.29-4.96-12.54-4.17-31.16-10.92-24.96-27.57-14.92-2.51-28.46-9.83-40.81-18.17-26.08,7.64-54.61,7.45-80.05-2.38-14.07,8.96-24.13,22.77-29.76,38.39-1.74,4.82-3.5,15.3-5.35,18.49-3.01,5.2-18.62,10.21-24.48,10.28-4.1.05-9.86-2.3-13.78-1.97-5.1.43-12.58,3.53-18.8,3.96-5.04.35-10.65.84-15.1-1.98l.61-5.46c-3.78.02-19.41-.97-21.13-3.31-.57-.77-.26-2.62-.71-3.02-.36-.33-7.85-.83-9.52-2.41-2.24-3.28,6.61-7.91,7.98-9.77,1.53-2.07,1.62-5.52,3.86-8.05,3.14-3.54,9.92-5.79,14.18-7.67-6.14-24.59-5.5-48.91-.04-73.54-.44-2.51-9.73-6.86-12.74-9-33.1-23.47-57.01-61.25-62.97-101.71-2.21-15.01-.2-28.01.41-42.72-34.28-2.98-53.68-28.88-49.06-63,2.15-15.87,18-26.24,19.2-40.38,1.36-16.04-10.42-29.22-11.89-44.42-1.33-13.72,2.04-29.26,18.4-29.78-1.34,4.34-5.13,6.31-5.48,11.39-1.58,22.68,36.66,24.63,43.73,46.24,4.81,14.69-4.46,27.05,6.17,41.5,10.9,14.82,22.69,17.41,20.57,41.17-1.42,15.9-12.7,25.82-25.9,32.68,12.75,33.15,49.4,58.52,84.92,61.09,5.14.37,28.28.36,31.46-2.21,1.19-.97,8.43-13.73,9.78-16.22,8.48-15.69,13.58-31.35,15.57-49.16-33.18-26.34-72.03-43.93-97.19-79.46-11.1-15.67-23.49-37.56-25.12-56.68l11.91-1.09c-.11-3.21.03-18.61,2.1-20.11,5.36-3.87,16.02,7.74,21.73,8.2,14.44-31.31,15.41,3.71,23.06,15.97,20.57,7.95,39.14,20.43,58.57,30.81,14.41,7.7,29.12,14.86,43.53,22.54,2.58-.15,1.38-10.03,1.63-12.42,3.42-33.29,17.17-92.89,35.29-120.73,33.67-51.72,103.25-62.85,153.56-28.06,33.09,22.89,46.58,57.4,51.68,96.22ZM432.52,244.2c-2.17-2.46-.86-6.25,2.17-6,2.13.17,6.53,3.99,9,5.11,47.12,21.28,82.12,41.32,136.07,22.57,23.14-8.04,34.61-19.01,33.35-44.64-1.51-30.79-7.73-90.57-19.65-117.95-29.57-67.95-119.57-84.4-168.33-26.71-25.29,29.92-43.44,110.43-40.66,149.03,2.44,33.91,24.41,71.04,60.71,75.25l-12.99-16.8c1.18-5.11,3.93.8,4.81,1.65,10.31,9.98,44.68,45.18,56.05,48,20.79,5.17,38.57-4.16,51.77-19.33,2.79-3.21,24.71-33.18,22.78-35.18-2.35,1.03-6.88.57-8.67,1.61-.93.54-8.41,15.9-10.38,18.88-14.7,22.22-39.93,34.29-63.32,15.83-17.74-14-23.48-37.32-26.97-58.62-2.68-3.8-21.26-7.59-25.75-12.69ZM668.37,138.35c-10.3,3.87-17.58,9.67-20.03-5.42-4.36,4.84-7.48,13.8-12.5,17.83-4.14,3.33-14.09,6.36-19.41,7.13l5.37,53.04c.78.71,7.32-4.06,8.57-4.97,18.81-13.67,34.17-32.15,47.76-50.83-13.17-2.53-14.54-4.05-9.75-16.78ZM178.53,297.47c1.03-2.76,2.97-13.4,7.74-10.2,1.81,1.21.68,4.62,5.67,3.65,7.52-1.47,16.14-12.42,18.45-19.56,9.69-29.91-21.28-35.15-23.1-55.51-.98-11,2.79-25.44-3-34.92-7.29-11.93-25.88-15.12-34.85-26.9-4.78-6.28-4.41-11.34-4.9-18.93-13.24,17.15,4.89,35.9,8.72,53.03,6.11,27.31-15.67,34.53-17.92,56.94-2.87,28.59,15,49.56,43.2,52.4ZM256.68,144.85c-5.51,18.91-13.92,4.41-23.84-1.09l.57,17.38-11.41,2.13c8.83,24.17,22.22,47.92,41.15,65.56,26.15,24.37,62.03,39.09,85.58,66.1,2.24,2.57,12.74,15.03,10.84,17.83-6.68,2.44-10.24-9.33-16.22-11.9-8.48,63.74-68.73,102.74-81.82,164.67-3.27,15.47-3.66,34.57-2.74,50.44.13,2.31.86,11.5,1.28,12.81.92,2.91,7.1,1.49,10.02,1.9,4.54.64,9.48,1.77,13.66,3.66-2.62,3.35-6.16.65-9.22.55-7.87-.25-13.91-.28-21.4,2.42-1.37.49-4.9,1.41-5.13,2.98,4.1-1.03,7.83,4.04,10.34,4.38,2.25.31,4.98-1.16,7.53-1.21,9.73-.19,10.68,6.25,12.14,6.61,3.03.74,7.17-.54,11.18.49,5.15,1.33,9.25,7.62,6.47,12.48,2.99,2.36,22.68-4.31,25.43-7.6,1.63-1.95,3.54-12.93,4.89-16.78,10.66-30.53,36.43-36.21,45.56-64.95,7.5-23.61,4.5-44.94-7.43-66.31l-16.43-24.19,15.16,8.66c.82-38.09,13.26-74.98,35.58-105.64-16.02-16.44-21.15-38.72-24.72-60.68l-107.63-57.87-9.39-22.82ZM481.82,268.55l-17.12-8.87c1.97,14.51,6.8,28.48,14.2,41.04l9.1-4.21c6.23-.06,2.64,15.17,5.53,17.46,7.38,5.83,24.6,5.5,32.32-.16l4.88-15.72h3.32c1.99,1.1,2.24,5.48,5.39,4.93.37-7.33.31-13.88-3.46-20.37l-33.78-5.54c-1.99.6-5.04,13.59-9.69,13.85-5.13-.44-10.7-17.45-10.69-22.4ZM497.19,274.87l-8.66-2.18c-.33,3.62,1.36,7.12,3.79,9.72l4.87-7.55ZM543.79,295.44c4.46-2.39,4.72-8.44,8.13-11.94l-1.11-2.15-10.28,1.09,3.26,12.99ZM519.93,339.86c-13.34,3.3-27.94,4.22-39.54-4.33-6.22-4.59-22.5-23.59-26.57-25.44-3.32-1.51-10.31-.2-14.49-.68-10.53-1.2-22.23-7.64-30.9-13.52-2.03-1.38-3.93-5.47-6.08-3.73-1.52,1.23-7.27,11.54-8.67,14.1-17.91,32.94-18.43,54.51-22.23,90.44-.17,1.59-2.15,2.89-1.96,4.19.17,1.17,4.79,7.25,5.81,9.38,8.48,17.75,11.23,34.88,7.81,54.44-1.78,10.18-6.56,19.23-9.46,29,23.98,5.54,45.51,6.21,69.34-.54,67.76-19.19,99.45-87.48,76.92-153.31ZM300,370.2c-37.03,4.49-74.79-11.27-98.06-40.08l-16.77-26.02c-2.28,23.55,1.47,56.72,12.47,77.99,6.56,12.69,26.32,29.99,38.8,37.04,3.88,2.19,23.97,11.93,26.73,10.17l36.83-59.11ZM544.48,407.41c-2.53-2.55-6.65-5.3-9.36-7.96-5.69,39.45-29.32,76.09-64.29,95.53-2.28,1.27-15.89,7.05-15.87,7.94,16.6,10.18,36.05,15.61,55.25,18.4l1.05,3.26c-4.77,5.52-23.47-4.34-18.67,6.77,3.26,7.55,24.81,12.44,32.24,15.43.49-8.16,3.82-15.31,12.99-15.25,3.11.02,6.96,1.75,9.5,1.01,1.69-.49,3.03-3.24,5.58-4.25,3.87-1.53,7.19-.44,10.7-1.22,2.85-.64,5.03-4.09,8.34-4.13,1.65-2.13-9.05-9.94-12.38-9.73-5.09.32-14.64,13.75-22.29,11.91-2.76-2.78,9.46-8.22,11.37-9.75,34.54-27.59,23.69-79.95-4.17-107.96ZM259.85,434.18l-19.08-7.46-26.35-17.52c-.76.75,5.03,7.64,5.94,8.68,3.73,4.27,32.55,30.91,36.3,28.15l3.2-11.86ZM573.03,528.39c5.4,4.04,10.61,12.01,17.33,5.93-3.25-5.48-11.43-8.47-17.33-5.93ZM580.62,542.46c-3.13-8.95-22.15-15.57-28.15-7.07,2.45,3.5,8.24,7.07,12.44,7.07h15.71ZM558.94,551.13c3.17-2.81-17.02-14.08-19.5-14.71-6.97-1.78-10.23,8.56-5.77,11.29,6.21,3.8,18.18,3.48,25.27,3.42ZM252.33,545.73c-3-3.75-17.8,4.33-19.5,8.64,8.25,1.72,13.94-3.19,19.5-8.64ZM242.58,559.8h21.13c.54,0,7.09-6.01,8.04-7.2,1.52-8.96-27.57.25-29.16,7.2ZM290.15,561.87c.72-1.03-.01-3.75-.88-4.87-4.9-6.32-19.24,2.83-23.62,6.91-1.15,1.07-3.02,1.12-2.47,3.48,1.05.91,25.72-3.71,26.98-5.51Z"/>
  <path d="M704.13,335.52c-4.3-6.4-9.16-12.93-15.15-17.88-3.18-2.62-16.62-9.6-17.2-10.42-.84-1.17-.83-3.17,1.48-3.15,9.83.08,34.04,10.36,43.84,14.7,23.02,10.2,50.79,25.12,65.49,46.11,32.86,46.91,2.2,103.46-56.79,90.37-24.75-5.49-38.15-21.89-59.2-30.73-14-5.88-26.93-4.6-37.04-18.22-6.46-8.69-7.73-18.03-8.85-28.52l4.26.06c-.29,6.25,8.3,11.8,13.42,14.21.85.4,12.07,5.19,10.48,1.44-10.53-12.78-22.47-24.13-36.83-32.53-.13-1.55.65-2.28,2.23-2.28,5.08,0,10.91,3.19,16.18,2.3-22.71-16.74-47.55-33.55-59.57-60.14.43-.49,2.36,2.18,3.31,2.63,8.07,3.84,19.3,8.03,27.83,11.18,32.26,11.9,67.74,19.43,102.11,20.85ZM725.8,347.44c-6.58,2.53-11.57-3.53-15.76-4.28-10.7-1.93-24.09-1.71-35.53-3.47-32.62-5.02-63.71-16.31-93.9-29.06,11.57,13.63,25.54,24.79,39.74,35.55,4.54,3.44,21.99,13.92,23.64,17.54,3.94,8.63-12.45,1.99-15.43,1.33-1.09-.24-3.8-1.09-3.53.82,9.63,4.57,18.46,12.67,25.47,20.59,2.07,2.34,6.73,10.39,8.17,11.33,2.49,1.62,9.25,2.19,13.69,4.73,2.96,1.69,6.27,4.27,7.89,7.25-.04,1.6-1.56,1.27-2.85.73-3.06-1.28-5.43-3.47-9.28-4.83-13.72-4.83-29.83-3.92-40.4-15.94-.46,9.77,11.82,19.22,20.07,22.18,4.76,1.71,10.28,1.99,14.93,3.49,14.77,4.76,27.66,16.49,41.36,23.65,73.21,38.24,114.39-33.95,58.54-84.55-13.05-11.82-46.74-31.05-63.42-36.26-.55-.17-1.77-.3-1.6.52,9.73,8.23,13.66,22.7,27.52,25.37l.65,3.34Z"/>
  <path d="M447.04,139.66c6.71-1.54,10.33.88,14.37,5.76,8.99,10.83,16.46,36.88,17.41,50.85.36,5.36,1.61,24.69-4.05,26.38-9.33,2.78-33.73-3.75-41.01-10.58-7.54-7.08-6.7-15.54-5.89-25.49.81-10.07,7.95-44.33,19.17-46.92ZM454.63,151.53c-9.7,2.85-5.72,23.87-1.7,30.52,4.53,7.48,9.8,3.53,11.27-3.57,1.34-6.42.56-29.93-9.58-26.95ZM474.43,208.77c-2.77-.1-4.67,2.45-7.28,3-17.33,3.64-26.58-13.85-30.15-27.86-.76-2.97.31-8.3-2.64-9.8-.15,8.73-3.39,19.08-2.23,27.68,1.74,12.93,30.54,15.22,40.64,16.76l1.67-9.77Z"/>
  <path d="M588.92,135.2c2.33-.75,4.64.62,6.24,2.14,4.93,4.68,7.76,28.82,8.2,36.22.39,6.63.73,28.61-2.09,33.64-3.65,6.5-20.75,9.47-23.7,2.98-3-6.62-1.07-31.45.09-39.58.75-5.22,6.97-34.02,11.26-35.4ZM592.29,149.43c-.5-.57-2.24-1.23-3.03-.85-6.6,2.96-9.68,43.36.97,29.15,3.66-4.89,6.25-23.57,2.06-28.3ZM581.85,208.61c5.56,2.78,11.11.56,15.55-3.1l1.62-20.57-7.61,15.66c-3.12,2.67-6.2,1.48-9.71.59l.15,7.42Z"/>
  <path d="M460.36,130.74c.44-2.23,5.3-2.34,7.02-2.22,3.85.26,9.72,3.82,10.9,7.59.99,3.15.64,10.12-2.77,6.03-4.51-5.41-5.68-11.4-15.15-11.4Z"/>
  <path d="M523.47,251.81c-1.78-1.68-4.04-9.9-.8-10.55,10.97,1.35,9.01,18.29.8,10.55Z"/>
  <path d="M582.48,125.52c2.3-.47,4.45-.26,4.63,2.51-2.11,2.87-5.81,3.39-8.18,5.92-1.28,1.36-3.39,6.47-4.28,6.54-3.21.23.45-7.67,1.03-8.7,1.44-2.55,3.75-5.64,6.79-6.26Z"/>
  <path d="M573.11,252.03c-2.73-1.92,1.33-12.07,5.85-10.75s-1,14.16-5.85,10.75Z"/>
  <path d="M264.1,183.99v4.04c-4.89,2.72-9.77-.69-15.02.16-.38,6.25,4.55,10.71,7.33,15.72l-3.39,2.61c-6.8-5.73-15.69-15.68-9.13-24.59l20.2,2.07Z"/>
</svg>