<?xml version="1.0" encoding="UTF-8"?>
<svg id="katman_1" data-name="katman 1" xmlns="http://www.w3.org/2000/svg" viewBox="0 0 841.89 595.28">
  <path d="M597.79,288.89c-2.38-21.38-17.04-57.39-27.63-76.51-1.27-2.3-9.41-14.53-9.22-15.42,1.13-5.23,29.65-23.15,35.39-26.27,15.05-8.17,32.67-15.57,49.78-17.35,2.82,6.31,6.11,12.43,8.65,18.88,18.07,45.95,17.79,105.99,7.87,153.65-.82,3.92-3.54,8.78-2.16,12.43l15.58-17.91c-.34,10.24.49,20.6,0,30.83-3.01,62.98-34.11,171.34-117.57,156.06-1.67-.31-3.49-1.93-5.79-1.18.04,1.41-.14,2.86.06,4.26,2.35,16.79,3.04,42.07-7.15,56.59-4.94,7.04-23.44,9.61-31.54,8.63-9.95-1.2-18.43-7.37-14.71-18.35.7-2.05,2.57-3.98,3.41-5.88,3.19-7.3,5.64-15.38,4.16-23.36l-11.09,3.82c-9.45,1.1-17.4-3.9-24.28-9.7-6.78,4.43-14.77,6.67-22.89,6.65-8.37,19.11-23.84,47.55-45.07,54.09-10.62,3.27-31.08,2.7-35.23-10.15-3.38-10.47,4.28-15.66,9.09-23.28,3.69-5.84,6.78-13.31,7.43-20.1-3.78-.13-7.14.76-10.98.69-2.85-.05-5.67-1.14-8.63-.74-.85.11-4.9,3.21-6.31,3.63-.88.26-1.63.6-2.6.4l1.98-5.3c-9.86.86-8.63,12.61-10.81,20.02-3.61,12.26-14.54,24.05-26.54,28.51-9.67,3.6-24.61,6.93-31.62-3.11-2.49-3.57-2.51-10.35-2.04-14.63.65-5.93,5.57-13.05,7.64-18.89,4.09-11.53,4.73-25.26,3.67-37.43-.11-1.29-1.26-7.63-2.31-7.62-1.91,1.79-.67,5.12-.99,7.61l-1.32.33c-3.23-5.89-6.44-11.75-7.31-18.56-6.48,2.49-.68,7.38.66,10.95.34.91-.13,1.16-.99.99-1.35-.25-5.33-3.58-6.61-4.67-5.65-4.85-10.01-11.03-13.95-17.22l-3.98,6.62c-9.87-12.53-10.06-31.92-1.67-45.43-.09-1.7-7.77-.76-9.27-.99,4.59-10.58,14.09-18.39,23.84-24.2-2.26-3.7-4.69-7.49-6.38-11.49-10.91-25.84,6.55-37.42,13.5-59.71,1.35-4.34,4.94-17.83,4.19-21.65-.24-1.23-3.11-4.17-4.07-5.87-1.29-2.28-2-5.77-3.18-7.43-2.36-3.31-9.3-8.39-12.61-12.59-24.21-30.63-38.52-88.61-40.5-126.64-.72-13.81.59-28.27.04-42.15,7.23,4.33,13.11,10.49,18.55,16.93.49.58,2.46,4.72,3.33,3.63-.15-2.49.24-5.15,0-7.62-3.4-34.74-1.57-70.14,11.45-102.65,3.58-8.95,8.2-18.15,14.09-25.69.68.54,1.14.99,1.47,1.83,1.39,3.48,2.86,8.3,3.97,11.95,10.06,33,10.79,76.22,7.5,110.58-.33,3.42-2.28,6.99-1.32,10.94,8-6.85,16.18-12.71,25.96-16.81,18.51-7.77,39.8-11.18,59.15-4.54,13.52-9.71,29.31-15.89,45.29-20.36,29.13-8.15,63.64-12,93.52-7.43,2.67.41,7.09.29,9.56,1.71,1.11.64.38.75,0,1.34-.73,1.1-2.95,3.52-3.97,4.66-16.53,18.39-49.52,34.1-73.35,39.41-9.29,2.07-19,2.22-28.47,4.04-.56.11-1.5-.3-1,.96.91,2.3,5.8,7.57,7.53,10.38,5.25,8.5,10.68,19.46,14.36,28.76,7.07,17.86,9.01,38.52,26.2,50.59.96-.07,10-13.37,11.62-15.4,21.32-26.86,46.8-51.35,76.59-68.65,2.5.15-.13,13.48-.33,15.58-3.72,39.31-15.1,77.9-35.32,111.93-1.55,4.38,4.54,10.12,6.79,14.08,3.8,6.7,8.56,16.64,10.45,24.04,1.19,4.69,1.01,12.94,2.66,16.58.95,2.1,4.32,4.23,5.8,6.14l9.61-22.26,24.85,13.64,14.61-37.82c.54-.83.92-.57,1.67-.38,2.86.72,6.73,4.08,9.28,5.7-.24-3.09.34-6.59,0-9.62ZM282.73,75.65c-.55-13.47-2.01-26.73-4.84-39.92-.5-2.34-4.26-17.55-5.06-18.15-.64-.48-1.32-.28-2.02-.29-5.54,12.9-11.94,25.83-15.11,39.62-.22.96-1.51,7.32-.53,7.37,6.27-1.78,14.19.44,19.56,3.79,3.09,1.93,5.27,5.29,8,7.58ZM355.36,258.72c-3.48.48-8.85,0-12.6,0-2.25,0-8.03,9.2-6.66,11.94,1.16,2.32,16.9,11.48,19.92,11.35s5.97-5.81,8.99-7.01c.54-.73,1.74-5.18,1.82-6.19.11-1.37-1-9.31-1.34-10.94s-1.71-2.99-2.5-4.45l2.65-.67c1.32,6.13,3.21,12.21,2.66,18.57.82.83,6.42-3.73,7.75-4.51,6.18-3.62,13.65-7.5,20.77-8.08l-12.5,5.73c-19.71,10.5-36.5,27.28-43.22,49l1.02,1.65,4.95-1.33c.34,1.95-1.65,3.97.33,5.29,1.74-1.23,3.57-2.08,5.64-1.31-1.83,4.89,1.16,4.24,4.89,3.35l1.45,3.31c4.1.69,7.58-.78,11.3-1.3,15.88-2.22,36.04-6.78,50.65-13.69,1.09-.51,3.76-1.49,4.31-2.32,5.87-23.85,17.1-45.92,30.51-66.33.37-.68.48-1.39.37-2.16-.06-.45-5.55-4.87-6.63-6.11-13.85-15.91-15.64-35.43-24.1-54.16-5.34-11.83-12.16-24.46-21.49-33.57-4.35.43-7.87-.76-11.87-1.39-.61-.1-7.82.32-5.56-1.39,7.52-.37,15.43.47,22.9.02,9.7-.59,37.33-5.49,45.35-10.37,3.13-1.9,9.43-11.22,11.35-14.52s8.89-16.8,7.88-19.81c-1.33-1.75-5.37-1.2-7.59-1.12-25.8.98-63.61,10.49-86.2,23.24-2.11,1.19-8.46,6.27-10.02,6.46-1.88.22-8.7-2.7-11.23-3.1-16.42-2.62-37.12.96-51.93,8.36-12.83,6.41-24.89,16.91-32.93,28.75-1.16-.89-1.18-1.3-.66-2.63,1.12-2.84,4.36-5.56,5.34-9.27,2.51-9.52,3.87-27.4,4.3-37.49.27-6.29.96-21.73-.06-27.19s-9.99-13.36-15.25-15.26c-3.78-1.36-14.33-3.84-15.17,2-4.84,33.73-4.02,69.04,5.58,101.78.97,3.32,2.3,6.56,2.99,9.95,1.42,1.47,2.45-3.83,2.65-3.98,2.49.91.19,2.76-.03,4.95-2.33,23.57,10.09,37.71,11.96,58.38.53,5.8-.5,11.79.66,17.59,15.18-2.35,23.21,10.26,21.84,24.15-.23,2.3-2.62,4.4-.2,6.28,1.25.98,5.14,1.96,6.87,2.41,10.57,2.76,29.18,2.29,39.99.16,4.49-.89,7.4-3.7,9.73-7.48-5.14-3.28-10.69-5.06-15.7-8.74-1.9-1.4-5.33-4.53-7.07-6.24-1.28-1.27-3.64-5.2-4.66-5.95-2.02-1.47-5.42.66-5.02-1.94,4.63,1.2,7.44-2.65,11.14-3.78,5.76-1.77,9.79.42,15.08.49,2.51.03,5.48-1.31,8.26-.68.24.67-1.38,1.28-1.65,1.32ZM510.24,98.21c-10.83-2.81-22.08-1.84-33.17-2,.58,4.44-1.72,8.4-3.09,12.5l-11.5,20.67c17.51-7.55,35.1-16.61,47.75-31.17ZM240.96,167.19c6.66,6.82,12.26,14.61,17.6,22.52l1.61-.29c-5.07-11.08-7.42-23.02-10.29-34.8-4.47-5.65-8.37-11.95-13.23-17.28-.95-1.04-5.83-6.47-6.97-5.29.36,9.58-.49,19.3-.03,28.88,1.32,27.66,8.31,61.14,18.18,87.28,6.65,17.62,15.82,35.71,29.28,48.98.9,0,2.3-5.75,1.96-6.66-.25-.67-4.71-5.21-5.58-6.45-18.28-25.91-29.58-65.27-32.52-96.67-.43-4.61-1.02-12.13-.71-16.6.09-1.28.41-2.39.7-3.61ZM411.04,434.78c18.39-12.83,31.6-30.85,38.11-52.44,2.83-9.38,5.78-26.13,3.88-35.57-.55-2.76-3.08-6.84-3.06-8.8,0-.36,1.44-6.6,1.59-6.94,1.5-3.43,5.11-1.35,7.19-1.54,4.27-.39,21.63-15.85,25.3-19.69,32.28-33.81,52.98-89.45,58.62-135.06.63-5.12.38-10.91,1.39-16.18-7.02,4.27-13.73,8.8-20.2,13.95-34.87,27.7-72.18,73.28-87.66,115.3-2,5.42-3.55,14.33-5.72,18.82-1.54,3.17-11.43,6.87-14.99,8.23-6.5,2.47-14.43,4.96-21.16,6.7-7.84,2.03-28.47,6.84-35.63,5.47-1.82-.35-2.19-2.15-3.46-2.51s-3.05.24-4.18-.46c-.63-.39-.74-1.9-1.75-2.23-1.46-.48-4.68.55-5.5-1.96-.21-.64.11-1.95-.04-2.11-.2-.22-4.43.55-5.32-1.78,1.47-7.12,4.25-13.86,7.98-20.1-3.15-.88-5.64,1.04-8.27,1.34-8.91,1.03-19.75-.81-28.88-.02-.85,2.39,1.03,4.07,1.32,5.7.37,2.04-.48,6.43-.08,8.8-4.45.46-3.03,1.25-4.5,3.1-1.67,2.1-4.05-.02-4.6.36-.43.3-1.77,3.75-2.56,3.93-1.08.24-2.46-.26-3.71.11-.92.28-1.33,1.48-2.27,1.74-.73.2-2.03-.77-2.53.08-1.51,7.9-3.16,15.71-5.85,23.36-7.08,20.13-22.07,30.04-11.94,53.53,22.63,52.44,92.6,68.9,138.48,36.88ZM552.7,335.66l29.5,28.51,19.32-39.73c14.75,11.16,31.14,19.75,48.37,26.48l1.3-.67c4.4-13.49,7.21-27.04,10.21-40.86,6.91-42.69,5.04-102.13-13.18-141.9-2.42-5.28-2.87-9.89-9.61-8.89-9.21,1.36-24.41,7.9-33.01,12.09-13.76,6.71-28.25,15.91-38.92,26.81,1.94,5.31,5.9,10.02,8.58,15.09,11.49,21.69,25.67,57.92,27.16,82.28.11,1.76.5,12.27-.99,12.25-2.76-2.12-7.47-7.04-10.61-8.01-.48-.15-.65-.9-1.35.01-2.65,4.01-13.37,37.34-15.36,37.8-2.18.5-20.83-12.41-24.4-13.87-1.35.29-4.7,12.45-3.66,13.93l2.64-1.32c-.96,6.74,2.55,3.55,4,0ZM244.91,175.15l-1.32.33c.2,3.05-.25,6.3-.02,9.31,1.2,15.81,5.02,34.12,9.67,49.36,5.7,18.7,14.5,37.66,26.51,53.07,1.13-1.28,3.21-2.37,3.02-4.27-.06-.58-5.03-8.12-5.91-10.08-6.8-15.06-3.28-29.01-7.58-44.16-1.16-4.11-3.81-8.65-5.05-12.86-1.97-6.74-1.79-14.12-5.1-20.1-4.05-7.31-10.1-13.46-14.22-20.61ZM339.11,258.72c-4.4-.87-7.07,1.57-10.6,3.64l4.96,5.63,5.63-9.27ZM290.3,284.29c.92.73,3.7,3.15,4.66,2.93,5.85-11.01-2.25-30.1-16.49-26.59-.7,7.66,5.92,18.99,11.82,23.66ZM306.62,295.86c-7.68-.8-15.39-4.55-20.98-9.9-2.14-.4-4.5,7.96-4.73,9.73-.51,3.83,1.18,9.86,2.9,13.37.77,1.57,7.17,10.4,8.88,8.69-1.55-7.4,4.12-.73,5.31-1.99.06-1.59-.52-3.55,1.01-4.64l3.95,1.33.67-1.3-1.02-1.69c.56-3.83,4.86.15,5.33-.33.06-2.48-2.78-3.6,0-5.64l-2.69-1.37,1.38-6.25ZM512.89,291.21c-1.74-1.35-2.81-6.57-5.32-4.99-.87.55-4.78,7.54-5.98,9.12-8.91,11.82-20.08,24.42-32.24,32.93-.64.45-1.45.69-2.23.76-1.1,1.41,7.38,4.94,8.57,5.68,9.36,5.82,20.58,14.05,25.44,24.19.35.72.96,1.98.48,2.61-.88,1.18-4.3-4.56-4.65-4.96-6.68-7.39-20.36-18.95-29.85-21.88-11.27-3.48-1.21,7.74,1.34,11.26-1.72.7-5.66-2.27-6.98-3.63-2.26-2.31-3.81-5.75-4.23-8.92-4.17-1.8-1.27,3.85-.07,5.92,1.55,2.66,4.06,5.49,5.97,7.96-.41.86-3.33-.46-2.64,1.31.36.93,3.98,5.16,4.96,6.32,3.92,4.7,8.84,9.69,13.26,13.95,3.45,3.32,20.37,18.49,23.89,18.49,4.68,0,4.43-7.35,5.07-7.83.38-.29,1.6.13,2.37-.28,1.23-.65,7.86-9.54,8.93-11.29,7.42-12.16,9.69-27.73,7.66-41.72-1.31-9.03-5.27-17.83-8.53-26.28-10.49,1.66-20.64-4.82-5.21-8.74ZM510.71,294.67c-.65.18-1.05.72-1.47,1.19-.81,1.9,5.98,1.86,6.3.32.43-2.03-3.57-1.85-4.83-1.51ZM604.84,331.94c-.75-.47-1.38-1.08-2.38-.91l-16.61,37.13c1.79,2.3,21.18-1.95,24.68-2.84,10.64-2.7,21.02-7.03,30.36-12.74-.49-.71-1.1-1.06-1.84-1.46-12.33-6.59-22.37-11.74-34.21-19.17ZM658.15,411.27c2.43-.49,4.91-3.79,5.65-5.95,5.26-15.44,7.2-43.37,8.3-60.02.27-4.04-.24-8.24-.03-12.3-6.92,6.66-17.11,12.51-17.92,23.2-2.23.68-3.67-1.13-5.6-1.36-3.85-.45-13.21,5.88-17.47,7.8-2.82,1.27-6.06,2.6-8.96,3.64-4.67,1.67-10.2,3.7-15.04,3.87.9,2.08,4.4.8,5.96,1.65-5.46,4.88-11.54,8.95-17.9,12.61,7.95,1.49,15.93.8,23.87-.33-1.09,4.16-5.23,6.81-7.63,9.94-.51.67-1.29.84-.99,1.99,2.05-.13,4.24.23,6.26-.03,1.51-.2,5.56-1.06,7.18-1.44,4.74-1.11,9.27-3.33,13.75-5.15,1.1,2-4.58,8.68-3.97,9.28,5.57-1.67,10.49-4.93,14.26-9.27.96.73,1.07.97.87,2.17-.39,2.39-2,7.27-2.89,9.73-1.96,5.42-5.29,10.06-7.59,15.28.83.78,8.62-4.76,9.89-5.69,4.15-3.04,8.22-6.53,11-10.88,1.38,3.89-.74,7.47-.99,11.27ZM544.07,342.29l-.66-3.31c.23,1.41-2.68,7.55-3.67,7.95-1.74-.44-5.79-5.77-6.63-5.96-1.43-.32-2.15,2.91-2.18,3.84-.13,3.63,8.96,10.44,10.51,14.04,1.15.3,1.31-.34,1.86-1.08,2.94-3.91,3.61-10.52,6.72-14.49l-1.31-.99-1.33,1.33-.68-3.32-2.64,1.98ZM486.03,383.41c-4.87-.71-11.21.52-16.25,0-.36,1.92.55,1.06,1.46,1.5,7.31,3.54,13.88,7.74,19.09,14.1,4.49,5.48,6.6,13.57,15.27,13.59.04-5.8,2.77-12.94,5.39-18.16,9.62-19.15,29.41-29.23,50.65-27.6,3.92.3,8.48,1.85,12.58,2,1.06.04,5.68.28,5.66-1.02l-25.52-24.88-10.63,23.88c-1.46.34-13.39-15.85-14.25-14.59-.31,5.73-3.69,12.59-6.63,17.58-4.28,7.28-8.53,9.68-13.28,15.24-1.01,1.18-1.6,3.88-3.14,5-6.65,4.85-13.58-5.66-20.4-6.65ZM483.04,378.12l-25.2-24.55-2.66,25.87h27.53s.33-1.32.33-1.32ZM604.42,374.13c-2.8.87-4.72-1.05-6.93-1.36-8.71-1.22-20.3,1.09-29.24.06-9.64-1.12-15.76-2.45-25.66.17-19.52,5.16-31.81,24.44-33.57,43.77,7.34,6.65,14.01,15,18.69,23.8,6.6,12.42,9.29,25.93,9.82,39.92,7.2,4.18,11.09,11.31,13.11,19.23,54.86,21.81,95.23-33,108.85-79.46.56-1.9,1.68-4.55.98-6.32-1.05,1.44-9.32,7.56-10.28,6.63l4.64-10.6-13.36,8.86c-4.56,1.83-8.84,5.41-13.84,5.72,6.58-7.94,13.94-16.85,15.91-27.18-6.14,2.45-12.43,7-19.23,6.3,1.02-1.28,8.45-7.54,7.29-8.96-.72.1-1.05.95-1.81,1.17-3.11.86-9.5,2.45-12.49,2.76-5.44.57-10.94-.93-16.19,1.38-1.13-1.09,6.07-5.78,6.64-6.29,1.88-1.68,3.74-3.65,5.3-5.64-9.27.37-18.14-.1-27.19-2l17.17-9.68,1.39-2.25ZM288.7,472.95v9.62c0,.48,2.41,8.21,2.84,9.1,1.82,3.75,3.52.51,3.78-1.85.24-2.22-3.23-5.9,0-7.59-1.99,4.05,12.44,26.62,15.26,23.87-1.47-4.1-5.31-7.9-3.65-12.6,1.17,3.13,9.9,19.12,12.61,19.22s-2.39-6.2-1.65-7.28c8.91,7.41,11.12,20.86,9.95,31.84l4.63-3.98.99,5.96c12.1-5.35,23.65-14.03,30.86-25.19l1.32.33c.39,3.02-2.07,7.66-2.63,10.64-.18.98-.4,1.89.97,1.64,7.73-4.4,16.98-9.49,22.23-16.58l1.32.32-1.31,7.3,1.56.93c7.01-4.01,12.13-10.14,17.65-15.86l-1.99,14.25c2.08-.57,5.12-3.03,6.67-4.6,6.83-6.94,11.79-20.91,11.95-30.53.07-4.17-2.25-7.9-1.37-12.28.88-1.16,1.19.11,1.31.99,1.24,9.29,2.53,16.87-.17,26.35-.51,1.78-4.48,9.78-3.8,10.45,17.33-1.41,33.89-14.43,38.47-31.17l1.98,2.32,4.3,8.95c8.13-13.03,5.72-31.32-1.41-44.34l-6.21-8.71c.81-.7,4.58,3.66,5.26,4.51,5.9,7.33,9.44,17.03,10.64,26.34.27,2.1-.81,4.75,1,6.28l3.98-5.94,3.33,5.95c1.04.26,3.61-4.09,4.18-5.1,3.28-5.77,4.88-12.86,3.44-19.44l5.3,3.65,1.33-.67v-11.94c0-.33-1.41-5.49-1.66-6.3-.54-1.8-1.59-3.57-2.32-5.3l6.63.65-3.3-5.63c.86-1.99,4.97.11,4.64-1.99-.74-4.62-7.26-15.7-10.35-19.51-7.61-9.4-20.93-15.96-33.12-15.32l-1.32.67c-7.81,23.29-23.38,43.6-44.43,56.39-25.68,15.6-58.63,18.29-86.47,7.53-4.68-1.81-8.82-4.75-13.62-6.26-2.65.43-2.11,16.72-1.69,19.59.2,1.36,3.04,5.34-.02,5.01-.18-2.59-2.36-5.14-2.69-7.6-.39-2.93-.32-10.95.01-13.98.22-2,2.09-3.92,1.03-5.61-9.59-5.8-17.53-13.85-24.87-22.24-1.68-1.92-1.82-4.75-4.93-4.29-4.21.63-17.72,12.91-18.95,16.92-.38,1.23.24.89.98.99,3.27.45,7.67-1.99,10.95-2.66-10.77,11.27-14.75,30.07-7.53,44.34.35.69.69,2.15,1.55,2.08l2.31-7.97c1.84-2.94,4.4,6.24,5.06,7.42.31.57,1.03.72,1.45,1.39,2.45,3.97,5.11,8.22,9.09,11.1-1.91-12.16-4.04-26.27,1.78-37.72.47-.92-.31-1.78,1.54-1.41-3.4,11.37-3.44,22.95-1.32,34.49,3.07-1.69,3.59-5.61,5.08-8.53.47-.93-.31-1.77,1.54-1.42ZM511.56,520.05v18.24c0,.57-2.59,9.57-3.05,10.87-1.94,5.48-6.43,9.03-5.6,15.03.32,2.29,2.23,3.67,4,4.94l1-5.3c1.95,1.49.07,4.56,1.93,6.03,1.39,1.1,9.39,2.28,11.32,1.91,4.39-.85.79-6.73,3.34-9.26,1.14,4.71-1.98,9.13,5.15,7.8,5.73-1.07,10.97-3.44,13.99-8.56,9.41-15.95,8.46-53.95-.79-69.99-1.43-2.48-3.15-4.92-5.92-6.02-1.5-.59-3.94.45-4.67-1.97-.66-2.19.6-5.3.58-7.83-.13-16.1-7.8-35.23-18.28-47.42-1.21-1.41-12.98-13.36-14.27-11.93l1.32,7.95-3.97-.65,2.65,9.28-5.3-2.65c-.69,2.66,1.07,4.6,1.34,6.94.28,2.38.33,19.58-2.34,19.57l-2.98-3.3c-1.65,6.77-3.44,13.93-8.28,19.25-.58.64-4.17,3.74-4.67,3.96-1.73.76-.72-3.59-1.98-3.98-.92-.09-1.06-.14-1.7.45-5.4,4.98-4.87,9.85-8.47,15.92-1.43,2.41-2.98,4.35-5.09,6.19-1.09-2.73-1.13-9.59-2.93-11.52-.53-.57-.48-.59-1.37-.42-.16,1.11-.62,2.16-1.22,3.1-7.65,12.06-19.53,20.88-33.65,23.39-2,.36-4.33-.5-6.25.38-1.21.55-6.29,6.66-8.32,8.27-1.42,1.12-6.58,4.76-7.96,5.31-.94.37-1.09-.12-.98-.98.25-2.06,2.56-6.44,3.17-8.79l-.85-2.15c-4.92,4.82-10.43,9.43-16.91,11.93,1.03,3.3,6.2-.48,6.63,0-.55,11.82-5.6,22.35-12.05,32.05-1.44,2.17-3.74,3.72-4.89,6.39-1.96,4.56-1.56,10.26,2.68,13.28l2.65-5.29c1.76,1.32-.44,2.94-.31,4.93.32,4.84,12.24,5.72,13.15,4.25l.77-6.53.95,6.01c1.32,1.89,8.29-.39,10.3-1.06,16.46-5.49,31.64-29.22,38.52-44.39,2.46-5.43,4.06-12.53,6.47-17.41,1.91-3.88,9.63-1.67,13.7-2.22,1.91-.25,5.31-1.84,7.34-2.43,8.15,10.55,15.46,18.75,30.17,14.74,4.71-1.28,7.7-4.66,11.94-6.3ZM317.61,514.35c-3.09-2.35-5.41-3.24-8.44-5.16-.91-.58-5.89-5.16-6.54-4.4,1.22,12.65.57,27.3-4.33,39.12-3.54,8.55-11.73,18.88-4.31,27.87-.15-2.15.61-4.34,2.65-5.31-1.7,9.85,3.87,10.03,11.99,9l.62-6.34c1.38-1.71,2.41,4.39,2.57,4.92.83,1.25,6.46-.95,7.83-1.47,12.59-4.83,22.69-17.93,25.25-31.13.16-.83.94-4.51-.85-4.17-2.76.53-8.35,5.18-12.09,5.85-1.01.18-1.79.42-2.53-.52l.36-1.99-6.63,1.98c2.04-5.89,2.85-18.97-.63-24.24-.42-.64-3.91-3.21-4.95-4ZM468.45,516.73c-5.11.99-10.16,2.45-15.44,1.98-1.48,1.35-2.06,3.35-1.8,5.31,6.24.87,11.64-2.38,17.13-4.75l.11-2.54ZM383.55,518.06c-.46-.49-8.15,5.02-9.11,5.77-.54.42-1.22-.02-.84,1.51l8-.29,1.94-7Z"/>
  <path d="M369.86,221.34c-6.95-7.04-8.55-21.94.22-28.16,6.33-4.5,11.9-3.94,18.34-.01,8.85,5.4,12.75,18.97,6.7,27.71s-18.25,7.58-25.26.47ZM378.09,197.19c-.38-.53-3.11-1.46-3.99-1.37-4.75.5-8.7,9.61-3.38,12.4s10.34-6.84,7.37-11.02ZM375.51,213.7c-.48-.85-5.87-2.52-7.2-1.39-1.2,5.67,9.49,5.44,7.2,1.39Z"/>
  <path d="M306.38,241.91c-.18.31-3.39,3.57-3.8,3.82-10.65,6.47-21.22-7-21.17-17.19.05-9.98,8.23-16.68,17.61-11.64,7.77,4.17,11.66,17.42,7.36,25.02ZM301.25,230.8c1.77-4.18-4.18-12.87-8.57-10.23-2.95,1.78,1.51,5.56-1.32,7.63,3.74-1.05,2-.19,3.29,1,1.89,1.75,4.14,2.4,6.6,1.6ZM290.01,234.16c2-2.86-6.85-8-5.2-.73.98.48,4.54,1.67,5.2.73Z"/>
  <path d="M431.08,216.49c10.63,10.07,2.96,32.98-11.44,34.87-21.01,2.76-22.47-29.92-4.25-37.41,5.54-2.28,11.23-1.68,15.69,2.55ZM407.81,245.06c11.24,13.34,27.96-3.13,26.85-16.57-.3-3.65-2.69-9.33-5.68-11.56-14.53-10.86-32.97,14.12-21.17,28.13Z"/>
  <path d="M327.18,243.46l-.39,2.72c-1.32.54-4.2,1.26-4.91-.4-1.11-2.6,4.12-2.4,5.3-2.31Z"/>
  <path d="M396.65,335.81c7.39-1.31,14.54,5.92,17.42,12.1,5.48,11.76,4.62,28.19-2.91,38.9-5,7.11-12.35,12.05-20.9,7.46-18.96-10.17-15.49-54.58,6.38-58.46ZM395.99,339.75c-5.8,1.48-14.86,15.4-12.11,21.11,3.15,6.53,13.13-6.61,14.54-10.01,1.28-3.08,3.67-12.66-2.43-11.11Z"/>
  <path d="M500,275.02c-9.34,15.27-23.3,32.92-37.37,44.03-1.85,1.46-7.46,5.86-9.26,6.51-.47.17-1.43.48-1.5-.18,1.87-3.24,4.92-6.03,5.31-9.94l-5.97,3.64,2.64-9.28c-3.59,0-6.53,2.63-9.28,4.64.6-5.45,3.93-10.35,3.31-15.92-6.09,2.24-9.13,9.1-12.93,13.92-.69-2.07.56-5.22,1.22-7.4,11.01-36.06,50.02-92.57,83.34-111,1.79-.99,8.76-4.63,10.28-4.3l-.47,9.46c-5.56,26.79-15,52.41-29.32,75.82ZM526.15,194.38c-.37-.41-5.36,2.32-6.17,2.78-26.61,15.24-55.31,53.67-69.14,80.76-1.26,2.46-9.03,18.89-8.26,19.92,3.43-1.26,5.14-5.17,9.28-4.64l-1.98,14.59c4.65-2.64,7.57-1.99,6.63,3.98l6.63-1.98-1.32,5.3c.44.5,5.72-4.09,6.32-4.62,26.02-23.35,49.91-69.94,56.64-103.87.32-1.63,1.87-11.66,1.38-12.21Z"/>
  <path d="M307.64,367.22c-5.22,5.66-13.44,9.76-18.29,1.29-6.72-11.72,3.39-38.92,15.06-45.33,6.02-3.31,12.75-1.03,14.49,5.83,3.02,11.87-3.11,29.37-11.26,38.21ZM311.03,325.85c-6.65.6-7,19.99,1.13,20.98,6.68-2.29,5.52-21.58-1.13-20.98Z"/>
  <path d="M340.83,394.98c4.66,3.89,13.18,14.69,13.29,20.71.13,6.96-6.78,13.78-13.39,14.78-14.53,2.19-21.17-7.31-24.51-19.85-5.9-22.12,7.3-30.1,24.61-15.64ZM328.5,390.71c-8.96-1.79-11.25,4.99-10.61,12.59l4.01-6.78,6.6-5.81ZM324.75,422.98c8.63,9.68,29.64,4.49,25.48-11.22-.23-.88-4.38-6.89-5.26-8-1.95-2.47-10.83-11.55-13.53-11.74-4.61-.33-11.45,9.5-12.18,13.66s2.74,14.23,5.49,17.31Z"/>
  <path d="M379.57,344.94c-.66,1.67-1.1,9-2.97,8.62-2.21-1.64.14-5.62,1.25-7.38.55-.87.07-1.59,1.72-1.24Z"/>
  <path d="M317.89,376.77v-2.64c7.07-.84,7.1,3.48,0,2.64Z"/>
  <path d="M323.19,340.97h-1.98c.98-3.02.63-6.17.67-9.29,2.61,1.81.82,6.52,1.32,9.29Z"/>
</svg>