<?xml version="1.0" encoding="UTF-8"?>
<svg id="katman_1" data-name="katman 1" xmlns="http://www.w3.org/2000/svg" viewBox="0 0 841.89 595.28">
  <path d="M584.52,506.82c-.44.13-1.08,1.04-.99,1.63l2.64,14.29-1.06,1.56-25.96-4.29c-17.53,9.23-34.84,19.11-53.51,25.96-66.18,24.28-142.73,21.46-206.2-9.66-7-3.43-22.23-14.16-28.16-15.67-4.26-1.09-10.29.06-15-.51-21.71-2.61-38.21-24.49-34.91-46-1.92-1.43-1.95.6-2.76,1.24-1.96,1.55-7.33,5.32-7.4,7.48l14.12,57.26-42.65,13.87-47.06-104.72c-2.26-4.75-9.73,4.45-12.41,2.33l-27.87-46.39c-.27-1.72,7.77-6.2,9.41-7.24,9.92-6.27,22.06-12.24,33.14-16.09,7.67-2.67,15.96-4.12,23.4-6.89-3.42-10.12-5.97-20.71-7.84-31.23C126.17,190.62,238.93,43.76,394.34,33.39c168.24-11.23,299.63,129.52,282.9,296.39-2.06,20.56-9.31,41.04-15.45,60.62.61,2.04,7.14,1.53,8.1,2.88,1.91,2.67,2.63,18.96,4.33,19.79,1.26.61,1.14-1.31,1.32-2.02.5-1.95,3.37-15.41,4.16-15.56l48.79,11.55-47.2,144.29-36.12-11.42c-2.47-2.17.34-13.27-1.6-14.58l-33.49-4.95c-.78-.65-.96-1.42-.98-2.39-.04-2.09,2.66-15.27,2.05-15.88l-16.52,4.72c-2.69.49-7.83-.68-10.12,0ZM587.27,107.85c-97.22-88.28-240.4-90.64-340.62-5.66-48.02,40.72-86.3,111.38-89.37,175-.13,2.71-.79,8.23,2.05,9.46l1.48.21c56.04-21.61,113.59-41.47,173.58-49.05,15.84-2,32.22-1.71,47.79-3.46,1.37-.15,3.88-.52,5.08-.99,3.93-1.53,8.29-12.06,10.91-16.07,39.54-60.69,132.86-51.3,160.9,15.54,2,4.78,2.98,13.44,7.87,15.73,4.24,1.99,14.22,3.35,19.41,4.87,13.3,3.91,26.11,8.46,38.95,13.65,11.61,4.69,27.77,13.89,39.11,16.86,3.42.9,5.99.62,6.14-3.4.34-9.41-3.07-26.46-5.09-36.07-10.85-51.52-39.34-101.34-78.18-136.62ZM669.62,294.58c-.63-.7-3.04-1.83-4.05-2.36-23.13-11.94-60.31-26.44-85.43-33.26-5.22-1.42-16.16-2.47-20.19-4.77-3.54-2.02-3.09-6.5-4.29-9.87-24.62-69.39-112.39-83.76-152.51-20.7-2.46,3.86-5.25,11.33-7.5,14.08-.98,1.2-2.29,1.8-3.67,2.4-15.55.52-30.99,1.71-46.31,3.53-6.36.75-22.37,2.74-45.64,7.28-21.82,4.25-52.08,11.13-88.74,22.52-14.34,4.93-29.03,10.41-44.01,16.52-4.33,1.77-8.61,3.55-12.83,5.36-.84,6.84-1.29,15.85,0,26.27,1.15,9.3,3.35,17.11,5.52,23.14,41.18-15.37,77.1-25.34,105.06-31.94,78.48-18.52,97.82-15.21,111.73-15.74,3.86-.15,12.74-.57,16.07.17,1.2.27,2.05.98,2.81,1.91,2.25,2.72,4.92,9.95,7.23,13.67,6.81,10.93,16.48,20.78,27.56,27.16l1.25-.77,11.17-12.43,16.84,24.3c33.65,7.77,69.24-10.16,86.93-38.91,1.35-.94,3.11-2.09,4.8-2.14,5.56-.17,22.46,4.54,28.83,6.15,28.17,7.11,55.62,17.08,82.8,27.18,4.22,1.12,4.77-1.97,5.64-5.23,1.68-6.3,2.8-15.94,3.14-22.49.25-4.82.86-17.59-2.22-21.03ZM401.11,374.35l24.57-28.38c-10.36-7.57-19.63-15.67-26.84-26.43-3.21-4.79-6.85-15.71-12.59-16.41-65.54,2.58-129.51,15.95-191.18,37.48-4.58,1.6-28.38,9.76-30.18,11.96-3.15,3.84,3.49,17.18,3.9,22.01,21.62-2.21,43.57,0,60.33,14.87,13.4,11.89,18.29,27.49,15.16,45.2,13.84-8.99,31.51-13.02,47.15-6.33l1.39-.78-1.34-14.47-10.12,1.36-.95-31.1,57.6-18.13c-.19,5.94.26,11.95.03,17.9-.05,1.31-1.74,5.24.3,5.02,1.62-.79,9.56-19.28,11.91-22.49.42-.58.65-1.32,1.55-1.09l37,32.26,17.27-11.1-.39-1.61c-2.07-2.07-6.25-5.99-5.63-8.99.11-.5.88-.52,1.04-.76ZM653.54,388.68c2.64-9.86,9-22.08,10.06-32.1.28-2.6.26-4.06-1.89-5.86-3.17-2.64-20.55-8.29-25.63-10.11-16.16-5.81-33.14-11.25-49.73-15.69-7.54-2.02-22.34-6.66-29.46-6.96-7.95-.33-10.56,7.51-15.52,12.85-19.47,20.95-47.41,30.59-75.88,28.32v3.69s-32.37,17.56-32.37,17.56c-.28,1.52.66.94,1.67,1,12,.78,21.43,3.94,30.71,11.79,1.63,1.38,9.71,10.6,10.44,10.46l5.16-27.56,39.37-.08c3-.31,1.45-5.99,3.45-6.66h36.92s9.2,55.22,9.2,55.22c2.44.63,3.23-1.3,4.92-2.16,13.03-6.69,25.43-8.87,39.74-4.4,1.52.48,2.76,1.46,4.13,1.96.7.25.66.95,1.47-.1,3.51-9.01-7.16-4.68-8.32-8.58l-.14-30.55,41.71,7.98ZM440.87,342.28l-25.63,30.34c-1.02,1.46.33,3.78,1.72,4.39,2.35,1.03,31.55-15.33,36.09-17.2l-.04-2.03-12.14-15.51ZM553.15,380.04c-5.67.49-12.38-.67-17.9-.04-.97.11-1.76.08-2.28,1.1l-7.47,40.08-6.74-35.06c-3.8.54-26.57-1-27.99.66-.53.62-1.88,7.7-2.18,9.28-2.74,14.45-4.3,29.2-6.98,43.67-.51,2.86,8.53,7.96,8.16,9.43l-11.63,11.98c-.68,1.62-3.84,20.01-3.71,21.6.05.55.34,1.71.96,1.85l26.44,3.94c2.96-12.48,3.21-26.31,6.16-38.7.24-1.02-.47-1.18,1.33-1l14.86,33.72c1.55.33,1.08-.18,1.51-.86,3.83-6.05,5.57-17.47,9.12-23.9.43-.77-.04-1.14,1.5-.86l7.4,48.91,28.64,5.02c1.54-.31.19-5.55-.64-6.71-1.23-1.71-5.21-3.05-7.03-4.44-22.69-17.27-19.76-46.11-3.41-66.78l-8.1-52.88ZM418.95,506.15v-23.27c-3.75-2.14-8.56-2.06-12.78-3.4-12.04-3.83-21.7-12.45-28.1-23.16l-32.63-13.24,34.95-37.19-24.16-24.19-1.59-.28-25.05,35.02c-1.52.28-.94-.66-1.01-1.67-.6-9.18-.63-18.51-1.35-27.66-.09-1.18-.77-6.32-1.67-6.39l-34.45,10.73.34,9.2,9.45-1.72,3.48,36.67c11.32,14.16,15.26,29.55,9.2,47.1-3.42,9.9-5.34,9.16-3.87,21.08.17,1.36.77,7.09,1.3,7.47l21.7-2.8c1.76-13.55-1.59-28.83-.11-42.47.11-1.01.06-1.68,1.04-2.31l85.32,42.47ZM215.71,462.75c18.43-18.93,28.06-47.52,3.93-66.52-21.25-16.74-55.57-11.9-79.4-3.21-10.24,3.73-19.9,8.88-29.42,14.09l16.78,29.94c2.37,1.49,10.51-6.19,12.88-3.98l48.49,107.19,23.6-7.14-14.61-55.64c5.66-5.14,12.39-9.22,17.74-14.72ZM463.32,408.9c1.73-3-4.56-7.4-6.66-8.91-20.63-14.85-54.76-8.2-67.5,13.99-8.86,15.43-6.65,35.99,7.18,47.68,22.01,18.59,59.33,7.71,77.22-11.82l-17.98-16.45c-1.45-.39-4.32,3.8-6.06,5.2-4.1,3.31-11.5,6.58-16.77,6.86-1.38.07-2.72.32-3.67-1.02l34.24-35.54ZM672.54,460.28l-12.5-58.66-38.08-8.11c-.31,7.7-3.4,11.89,6.77,12.45l.56.79-1.24,18.78c19.68,20.07,14.06,51.48-6.32,68.62l-1.72,17.31,22.17,3.43,8.8-52.25,1.32-1.01,1.65,69.52,1.22,1.5c3.32.07,17.54,6.19,19.42,4.89l40.49-123.37-29-6.45-13.54,52.55ZM472.91,414.43l-8.73,10.54,6.37,6.31c.78.17,1.33-.45,1.55-1.14,1.37-4.28.85-10.37,2.66-14.73l-1.84-.98ZM594.81,425.39c-25.57,3.05-47.45,35.78-31.81,59.12,13.9,20.74,44.2,14.16,58.26-2.99,20.19-24.63,8.06-60.24-26.45-56.13ZM373.08,429.27c-1.17-.3-1.35.49-2.02,1-3.01,2.31-5.75,6.27-8.75,8.77l11.12,5.04c1.71-.16-.19-6.27-.33-7.75-.23-2.32.14-4.74-.01-7.07ZM271.78,433.51c-29.17,2.45-54.19,39.78-34.24,64.87,18.09,22.74,53.04,9.23,64.65-13.56,12.55-24.64-.91-53.78-30.41-51.31ZM429.74,481.87v40.13l-2.05.72-84.95-41.52v36.08l-41.14,6.41c-.61-5.25-.68-10.63-1.32-15.88-.12-1.01-.04-1.7-1.05-2.33-4.88,3.76-9.5,7.98-15.44,10.09l-.08,1.39c69.83,43.6,159.74,47.69,234.62,14.05,8.62-3.87,16.8-8.78,25.38-12.73l-.83-1.51-8.96-1.83-3.02-22.95c-1.53-.28-1.08.07-1.5.86-1.13,2.08-4.72,11.96-6.92,11.96l-10.81-20.24c-1.02-.24-1.52.8-1.67,1.69-.62,3.65-.61,8.35-1.37,12.11-.16.77-.2,1.37-1.07,1.66l-45.15-7.32,3.08-21.62c-5.66,1.57-10.63,5.08-16.33,6.93-6.09,1.98-13.06,3.3-19.41,3.85Z"/>
  <path d="M541.48,266.37c0,35.74-28.97,64.71-64.71,64.71s-64.71-28.97-64.71-64.71,28.97-64.71,64.71-64.71,64.71,28.97,64.71,64.71ZM534.27,266.37c0-31.76-25.74-57.5-57.5-57.5s-57.5,25.74-57.5,57.5,25.74,57.5,57.5,57.5,57.5-25.74,57.5-57.5Z"/>
  <path d="M208.98,422.07c5.26,5.24,5.23,15.51,2.58,22.03-2.86,7.01-11.6,14.48-18.53,16.87l-11.51-40.69c7.42-4.8,21.06-4.59,27.47,1.8ZM197.75,447.47c1.26.21,1.94-.88,2.71-1.67,8.17-8.35,5.92-22.14-7.67-20.48-1.17.39-1.12,1.05-1,2.08.67,5.85,5.05,13.91,5.97,20.06Z"/>
  <path d="M422.58,433.56c-2.18,2.4-5.62,7.64-7.98,9.22-.71.48-1.41,1.02-2.27.49-14.86-13.99-4.99-39.05,16.34-36.21,2.53.34,11.87,4.09,11.1,6.9-5.36,6.86-11.35,13.17-17.19,19.6ZM429.74,414.43c-11.43-3.62-22.04,8.19-15.84,18.87l14.48-15.86,1.36-3.02Z"/>
  <path d="M273.27,443.42c-3.42.26-6.86,3.76-7.37,7.13-1.93,12.57,15.44,16.93,21.54,7.38,1.29-2.02.78-4.58,2.68-5.74,7.92,19.81-17.98,34.09-31.71,19.24-9.08-9.83-4.44-24.1,7.66-28.12,1.7-.56,6.55-2.06,7.19.11Z"/>
  <path d="M597.67,433.98c-8.86,1.76-10.43,13.56-2.86,18.05s17.66.66,18.71-8.59c3.32,4.6,2.06,11.89-1.13,16.4-11.09,15.71-37.11,7.45-34.22-13.31.73-5.21,5.97-10.33,10.74-12.19,1.88-.73,7.78-2.8,8.75-.36Z"/>
  <path d="M521.5,266.35c0,24.68-20.01,44.7-44.7,44.7s-44.7-20.01-44.7-44.7,20.01-44.7,44.7-44.7,44.7,20.01,44.7,44.7ZM517.3,266.35c0-22.4-18.16-40.56-40.56-40.56s-40.56,18.16-40.56,40.56,18.16,40.56,40.56,40.56,40.56-18.16,40.56-40.56Z"/>
</svg>