<?xml version="1.0" encoding="UTF-8"?>
<svg id="katman_1" data-name="katman 1" xmlns="http://www.w3.org/2000/svg" viewBox="0 0 841.89 595.28">
  <path d="M640.42,182.26c-5.88-.5-11.65-1.07-17.51,0-.34,1.64.34.97.9,1.31,3.89,2.33,8.57,4.32,11.9,7.47,1.14,1.07,2.54,1.88,2.21,3.73-5.18-1.16-10.46-.62-15.64,0-1.37,1.32,7.05,9.02,8.12,10.34,2.18,2.67,7.5,9.1,8.83,11.83.37.77.97,1.36.3,2.25-19.01,6.79-36.5,17.91-56.66,21.26-.27,1.22.38,1.2,1.1,1.71,9.5,6.59,16.23,9.57,24.24,18.93,5.91,6.9,9.01,12.1,5.98,21.52,2.74,1.83,5.69,2.56,8.11,5.06,6.3,6.49,9.26,23.74,10.53,32.64.31,2.13.6,11.97,1.02,12.72,1.14,2.01,3.65,1.01,5.55,1.35,24.27,4.35,24.8,30.63,22.9,50.91-.29,3.04-2.55,7.31-2.46,9.34s4.49,11.75,5.42,15.25c5.6,21.2,6.34,48.62-12.39,63.59-2.77,2.22-8.18,4.49-10.27,6.62-1.55,1.57-1.92,3.85-3.17,5.59-3.51,4.92-9.71,7.83-14.61,11.09-.54,1.66,1.74,3.78,2.17,5.81,1.29,6.14-5.62,8.6-5.4,13.48.16,3.49,4.7,7.41,4.48,11.27-.16,2.72-5.88,8.84-8.51,9.7-.87-2.04,2.96-3.1,4.07-4.7l-2.49-.92c1.84-.86,5.3-2.62,4.72-5.01-5.96-10.09-9.8-24.67-16.96-33.75-1.69-2.14-2.35-1.6-2.78.9-.54,3.14-2.39,11.04-1.59,13.49.38,1.17,1.78,1.74,1.59,3.09l-3.12-1.87c.42,2.44-1.76,5.06-1.79,7.18-.03,2.25,2.54,10.09,3.36,12.83,1.16,3.91,4.21,8.6,3.42,12.52l-1.25-1.88-3.12,1.25c-.21-1.21.92-1.9,1.15-2.96.28-1.32-3.41-12.92-4.24-14.91-.26-.63-.45-1.45-1.28-1.52,0,4.21-9.22,16.32-8.82,19.03.1.69,1.58-.07,1.3.98l-3.72-.06c.6-4.46-3.97,1.13-4.41.69l7.39-9.19c16.62-24.57,19.31-88.24,3.5-113.39-8.78-13.98-28.41-22.63-44.53-18.36-6.09,1.61-28.36,14.01-33.01,18.29-14.18,13.04-23.99,24.98-40.52,36.44-4.67,3.24-28.17,16.33-29.13,19.71.17,4.77,1.47,9.67,3.18,14.1,1.09,2.82,5.52,11.99,7.34,13.93,2.01,2.14,7.69,2.71,10.54,3.54.99.84.76,10.47,2.88,13.08,1.39,1.71,7.42,4.36,9.69,5.95,7.31,5.12,8.08,10.39,17.91,7.16,6.59-2.16,7.79-5.62,12.5-9.4,5.77-4.63,14.75-8.06,21.37-11.79,2.19-1.23,6.67-4.88,8.3-5.47s1.64-.47,2.21.99c8.34-5,17.02-9.83,23.79-16.9l.63,1.28c8.62-4.62,13.73-12.15,19.07-20.05-3.63,11.73-15.15,19.86-25.02,26.29-.16,1.11,1.39.6,2.04.47,10.27-2.06,15.46-7.33,22.68-14.24l.93.3c-5.09,4.42-9.03,10.87-15.5,13.28-4.76,1.78-10.57,2.05-15.3,4.1-10.53,4.56-29.65,14.6-39.22,20.84-7.18,4.68-6.63,14.84-13.22,18.06-2.36,1.15-10.42,2.19-8.73,5.97-2.54,1.07-3.28-1.25-3.49-1.27-1.45-.09-4.64,1.82-6.27,1.88-1.83.07-2.95-1.55-5.51-1.22-2.74.35-7.57,4.03-10.97,4.72-4.74.95-11.79.1-16.12-2.1-2.97-1.51-6.82-7.83-9.25-4.49-1.59,2.18-.29,3.22-4.39,4.36-1.47-1.53,2.61-2.21,2.82-2.51l-1.45-1.15c-2.01,1.01-4.69,3.26-6.67,3.98-1.17.43-9.49,2.72-10.4,2.79-2.12.15-4.95-1.23-6.85-1.15-1.11.05-1.98.98-3.13,1.14-5.04.71-8.83-2.59-13.41-3.74-.18-1.05,1.56-.71,2.15-.58,3.61.76,7.57,4.34,11.57,3.05.8-8.09-9.23-3.99-11.84-9.66,1.87-.23,3.03,1.91,4.98,2.53.65.2,1.19.42,1.89.29l-.62-6.87c1.16.58.49,2.95.91,4.4,1.42,4.92,9.28,8.11,13.84,8.7,1.43.18.89-.69.84-1.78l-2.45-1.3c8.13,3.7,15.59-2.23,22.51-5.95-5.74-6.41-12.65-7.71-15.1-16.8-.72-2.66-.63-6.18-1.45-8.57-1.31-3.85-6.56-9.49-8.17-13.75-6.09,3.6-7.92,10.58-8.42,17.22-.59,7.71-.25,15.76,3.75,22.51-.91.31-2.08-1.99-2.4-2.61-3.64-7.25-3.97-25.61.39-32.54,1.44-2.29,5.8-5.38,6.37-7.4.69-2.45-3.53.52-3.74.95-.81-.87,4.7-3.82,1.56-7.51-1.2-1.41-10.72-.64-12.88.3-1.48.64-1.28,2.3-3.7,1.59l1.24,1.24-1.87,1.88c1.27.3,4.3-1.72,5,0l-8.75,2.51c-.92-.92,3.7-4.14,3.74-4.69.1-1.69-2.75.32-3.29.13l-4.83-1.07c4.69.22,9.25-1.43,13.76-2.52l-.62-.93c-21.59-3.76-65.72-16.79-82.84,1.63-7.6,8.18-10.36,30.32-3.51,39.66,9.82,13.39,40.69,15.4,55.93,14.12,1.69-.44-.52-6.86.07-8.17,1.43.94.73,4.05,1.71,4.86,1.53,1.25,11.85,1.94,13.32,3.89-1.59,3.66-3.62-.11-4.56-.61-1.05-.56-6.07-1.83-7.34-1.9-.93-.05-1.12-.1-.94.95.62,3.73,6.89,1.45,6.9,2.5l-7.51,1.56.62-1.87-14.11,1.27c-19.04-1.53-47.08-3.02-50.34-26.92-1.08-1.16-3.87,4.7-4.38,5.31-1.51,1.84-3.5,2.72-4.93,4.51.78,5.45,1.46,10.79-1.96,15.51l1.88.94c-2.9.5-5.2,2.65-7.96,3.62-13.41,4.73-32.15-1.57-46.18-.51-21,1.58-33.52,7.55-56.11,1.72-14.46-3.74-31.13-18.25-22.91-34.43,6.84-13.46,23.55-21.22,37.9-23.1,2.8-5.02,4.02-10.67,6.3-15.91,2.66-6.12,3.84-9.59,9.89-12.63,6.52-3.27,14.15-5.63,20.67-8.73,11.78-5.62,17.14-20.1,25.22-29.84-.18-2.77-2.51,1.25-3.51,1.45-3.55.7-5.34-5.14-7.12-7.06-2.1-2.27-5.61-4.13-8.14-6.87-1.32-1.43-2.94-5.16-4.64-5.27-1.82-.11-2.07.85-4.74-.38-6.24-2.86-7.61-11.24-2.5-15.95-7.76-2.91-6.29-10.35-5.01-16.9-1.08-.28-1.25.45-1.88.93-4.05,3.11-8.07,7.74-12.21,10.94-1.19.92-5.26,4.4-6.48,3.7l-14.15-34.32c-6.92,7.46-13.75,15.07-20.32,22.84-6.77,8.02-12.87,16.8-19.72,24.71-1.52,1.76-3.64,4.44-6.16,3.66-2.44-.84-24.98-38.43-27.82-43.53-2.14-3.83-8.85-14.5-7.3-18.31.51-1.25,6.66-7.88,8.1-9.42,5.63-6.03,12.79-12.45,19.08-17.83,17.94-15.36,37.59-28.77,58.54-39.69,2.34-2.41-1.85-6.01-.9-9l1.43-1.01,4.05.52,1.29-5.91c1.74-1.26,4.35,2.35,5.04,1.6-4.34-17.33-5.84-35.45-3.13-53.18-1.25-1.23-7.14,3.98-8.56,4.89-17.91,11.4-56.12,29.37-76.91,31.32-5.46.51-7.66.94-5.35-4.72,6.14-15.05,35.4-47.85,50.65-53.21s36.43-4.37,52.96-2.67c20.51-18.67,42.78-23.37,69.94-22.35.3.01,1.81.59,1.72-.5-.04-.49-6.71-5.04-7.79-5.96-20.11-17.2-46.48-41.32-60.03-63.85-1.24-2.07-8.06-13.5-6.62-14.96,18.75-.48,37.46,4.21,52.76,15.13,22.85,16.31,40.94,45.77,48.92,72.47.98,3.29,1.17,7.92,2.36,10.78.85,2.03,3.74,4.61,5.1,6.79,6.25,10.05,6.05,18.78,9.74,29.05,1.83,5.09,5.01,9.81,7.03,14.87.64,1.61.16,3.85,2.04,4.63,1.51-.63,3.59-.91,4.94-1.76,3.63-2.29,2.62-10.34,8.84-3.19l4.99-2.36.84,1.4-.51,4.85c9.3-.52,3.14,3.41,2.55,7.23-1.41,9.08.18,20.15-1.46,30.45-1.65,10.32-4.99,21.03-8.59,30.81,3.57,1.37,6.19,1.93,9.59,4.19,2.46,1.63,10.62,10.36,11.38,10.53.82.18,1.12-.45,1.42-1.07,1.67-3.39,1.2-10.65,3.87-13.65,2.13-2.4,6.04-1.87,8.64-3.57.74-5.82,3.41-9.07,8.08-12.26,1.3-.89,4.07-1.58,4.86-2.64,1.37-1.84,1.43-6.76,3.47-9.67,1.86-2.67,7.34-6.8,10.19-8.58,2.62-1.63,11.58-4.77,11.14-7.63-10.33-6.68-21.29-13.52-29.86-22.48-4.79-5.01-8.67-10.11-9.73-17.18-4.1-1.06-9.26-1.86-12.38-4.82-.3-.67,12.35-5.34,13.37-6.02.7-.47,1.53-.94.72-1.81l-42.87-23.46c-.3-1.3,4.17-3.57,5.21-4.17,5.15-2.96,10.83-4.89,16.05-7.71,0-1.75-27.01-9.12-30.37-10.92-.66-.35-1.79-.55-1.53-1.59,11.99-9.71,26.34-15.31,40.66-20.66-5.76-1.78-22.34,3.99-26.3-.76-4.16-4.99,6.54-10.73,10.09-12.95,10.84-6.78,22.83-11.29,34.84-15.53,2.03-10.99,2.69-22.75,6.38-33.35,11.07-31.82,63.08-47.15,93.55-45.96,2.92.11,9.44,1.56,11.85,1.25,1.54-.2,4.74-2.98,7.21-3.48,5.17-1.06,14.7.79,18.19,5.03,1.01,1.22,1.31,2.94,2.2,4.05,1.7,2.13,16.46,6.51,20.44,8.34,21.67,9.96,44.33,32.27,51.81,55.18,5.59,17.11,4.07,32.48,1.04,49.87-.42,2.4-3.31,13.22-2.65,14.28,9.54,4.61,20.79,8.49,28.79,15.65.47.42,2.93,2.5,2.21,3.11ZM535.94,35.85c-2.16-7.43-15.4-9.27-21.26-5.31l21.26,5.31ZM559.71,48.36l-10.65-5.93c-39.12-17.21-97.77-14.51-129.83,15.93-13.42,12.74-15.21,31.28-16.56,48.82l33.79-5.64c-.2-1.71-2.52-8.1-1.27-9.06,20.99-5.11,42.16-9.07,62.25,1.55,13.35-32.17-38.28-43.36-44.71-11.88-1.98.42-1.11-1.25-1.24-2.51-6.29.13-12.64-.5-18.81.91-1.46.99-.25,10.06.03,12.24-2.68-.95-2.27-12.7-1.26-13.46,2.35-1.78,16.58-1.63,20.07-1.25,1.74-1.94,2.5-4.43,4.08-6.5,12.96-17.04,43.28-10.98,46.02,11.12,3.56-.11,23.44,4.86,24.25,7.39-.23,2.11-1.05,4.82-1.79,6.8-.47,1.26-3.08,8.05-5.03,6.54,1.82-1.44,6.15-11.53,5.08-12.85-3.15-1.87-21.08-7.96-22.94-5.31l-1.47,9.97,18.7,7.58-6.88,10.62c10.91,3.98,21.46,9.27,31.47,15.15,7.38,4.34,18.59,11.01,25.15,16.15,1.86,1.46,6.36,7.36,7.21,7.81,2.35,1.22,11,2.53,14.51,3.64,5.57,1.75,11.02,3.89,16.43,6.07.73-.38.71-.97.93-1.59,2.36-6.78,4.71-25.01,5.06-32.48,1.45-30.56-13.94-54.27-37.26-72.29-.84,2.52,3.75,4.38,3.13,6.88-3.01-2.57-5.09-7.17-7.86-9.66s-7.33-4.25-10.3-6.6l-.3,1.86ZM437.8,101.46c14.57-.53,28.06-.42,42.47,2.26,9.81,1.83,19.25,4.82,28.51,8.47,1.94.49,7.15-6.82,7.16-7.85,0-1.33-1.76-1.82-2.72-2.28-9.02-4.34-28.72-12.34-38.26-13.05-13.21-.98-25.24,2.21-38.06,4.54l-1.05,1.38,1.94,6.54ZM241.25,270.17c.46-2.31,0-7.3,0-10.01,0-.55-1.81-1.86.62-1.57,1.32,5.52.01,10.22-.34,15.65,12.55,5.69,24.94,12.71,34.13,23.14l-16.07-11.14c-9.2-5.1-19.37-10.24-29.6-12.95-6.98-1.85-14.58-1.28-20.34-5.32l-1.53,6c-1.15.85-2.75-.57-3.74-.75-2.71-.49.86,5.61.6,7.54-.32,2.34-3.68,2.61-3.14,3.78.41.89,2.52,1.29,3.41,2.23,2.74,2.9,7,12.81,9.84,17.06,7,10.46,15.96,19.69,26.16,27.03l-3.12-.31,4.37,7.51-1.79.38c.42,2.25-1.8,6.18.99,7,1.39.41,3.97-.56,4.56.75l-6.28,1.05-.55,7.95,2.46,1.33c-4.66,2.3-1.61,8.18-1.89,12.21h2.51s-1.87,1.55-1.87,1.55c2.24,3.17,4.25,2.4,4.85,7.04.64,5.01-1.81,7.42-2.28,11.8-.84,7.85,4.2,22.54,10.61,27.43,1.19.91,2.96,1.21,4.04,2.21.93.86,4.75,9.46,6.55,8.15,1.02-2.29.39-3.96.01-6.25,3.29,4.19,7.07,8.44,5.63-.63,2.22,1.15,2.53,4.32,5.62,3.75.84-.86-.85-7.77-1.81-9s-3.75.78-3.19-1.63c7.44-3.08,14.24-7.3,22.05-9.56,14.18-4.1,27.96-3.47,42.39-1.08-1.24,1.71-2.96,2.65-5,1.87-.48.41,2.06,3.46,2.51,4.05,3.09,3.99,6.85,7.35,10.34,10.96.92.95.8,2.89,2.81,1.6,1.12-.73.98-3.46,1.54-3.47,1.26,1.38.77,4.49,3.44,3.76.58-4.93-1.24-9.3-3.74-13.41,4.22-3.1,9.49-7.13,11.99-11.83,1.02-1.92,3.57-8.88,3.61-10.82.04-2.08-2.23-5.93-1.31-8.9-.61-.98-19.21-2.29-22.87-3.72-4.94-1.93-21.64-12-25.85-15.44-3.3-2.7-9.13-7.96-8.8-12.52.09-1.25,1.26-2.89,1.01-3.46-.75-1.69-8.04-5.54-8.97-8.56-1.19-3.84,1.52-5.4,1.54-6.75.02-1.72-2.57-3.55-.15-6.62,3.87-4.92,14.13,1.17,14.75.67-9.1-9.09-3.07-15.02,8.28-12.34,10.5,2.48,20.74,11.11,31.16,14.51,1.01.33,6.77,2.3,6.84.66.24-5.19-14.97-1.63-16.73-10.16-2.17-10.48,7.26-8.05,14.17-8.38,5.14-14.93,9.81-30.63,10.7-46.54.39-7.03-.88-14.21,1.26-20.95l-3.48-1.26.35-3.74-4.05,1.3-3.14-2.55c-1.93,5.38-6.12,5.25-10.38,7.77-1.18,1.65-.38,6.33-.65,8.73-.56,4.9-3.21,11.42-5.45,15.82-1.45,2.86-6.93,9.91-7.37,12.07-.47,2.28.84,4.54.38,6.9-1.89.31-1-.47-1.26-1.52-.33-1.33-.56-2.74-.62-4.11l-3.75,2.5c3.27-6.39,8.1-12.04,11.17-18.54,1.66-3.51,2-6.17,3.08-9.43,2.76-8.3,2.21-17.75-4.87-23.64,1.34-.95,2.51,1.63,3.44,2.19-.23-4.12-3.6-8.29-5.12-12.4-3.71-10.05-3.77-19.31-9.71-29.08-1.24-2.04-5.22-6.31-5.69-7.5-.52-1.3.23-2.31-.07-3.57-3.83-16.26-13.06-35.17-22.39-49-10.79-15.99-25.4-30.27-43.35-37.97-.88.17-1.48,5.86-1.57,7.2-.36,5.2.1,26.46,2.23,30.29,14.73,14.95,29.61,30.08,47,41.85.8.54,1.71.71,1.44,2-28.21-5.7-59.43.36-80.54,20.56-16.59-1.71-36.97-2.57-53.06,2.57-9.03,2.89-30.19,23.62-34.97,31.97-.71,1.23-1.94,2.46-.11,3.15,1.57.59,5.1.97,6.95,1.18,7.68.88,23.31,1.83,30.48-.17,5.29-1.48,14.68-6.83,19.68-9.73,6.77-3.93,12.84-8.41,18.97-13.25l-.61,3.13c.3.39,2.8-2.49,2.49-.33-1.61,11.42-3.44,17.23-2.49,29.42.76,9.82,2.61,19.69,5.71,29.01l1.79.09c-.41-6.64,1.35-16.94,8.76-18.77-6.35,4.41-8.53,11.22-7.23,18.8.52.74,9.92,2.06,11.88,2.51,3.78.87,8.6,4.73,9.74-.98ZM565.23,145.45c-29.99-20.51-63.31-38.86-100.31-42.02-31.67-2.71-69.41,4.6-97.08,20.53-3.1,1.79-12.19,6.76-12.15,10.45.32,1.53,4.34,2.72,5.71,2.54,3.07-.41,14.24-7.44,18.32-9.23,46.51-20.34,92.2-10.69,134.26,14.24,8.91,5.28,17.01,13.18,27.87,14.05,9.88.79,20.08-1.52,29.74-3.15-.41-4.04-4.28-5.72-8.13-5.01l1.88-.62-.12-1.77ZM443.34,123.45c-14.39-.22-28.53,3.16-42.72,5.14-.67.15-1.04.57-1.37,1.14-1.47,2.58-3.28,14.41-3.49,17.78-1,15.77,3.92,30.56,3.18,45.1-.45,8.97-5.19,20.87-3.64,29.23,2.33,12.59,32.51,31.44,43.46,37.88,4.65,2.73,16.74,10.39,21.3,11.23,6.7,1.24,31.09-7.17,38.66-9.85,4.61-1.63,9.28-4.25,14.06-5.01l-5.64,4.05c-9.49,9.36-19.56,18.24-30.7,25.62-1.59,2.13,1.62,6.9.67,9.73l-3.16-8.73c-2.14-1.47-7.01,7.04-7.81,8.7-1.88,3.87-3.95,7.66-1.24,11.3,5.98,8,18.17,9.21,27.44,8.64,5.11-7.3,9.57-15.03,14.41-22.5,2.26-3.49,13.39-18.21,14.02-20.38.73-2.49-.56-6.89-.52-9.91s1.19-6.39.66-9.67l-2.5-.61c10.3-4.49,19.2-11.67,27.51-19.16,7.09,2.63,12.05,2.75,19.28.56,18.83-5.73,27.74-21.99,21.86-40.98-5.13-16.56-16.91-14.73-27.37-3.94-2.37,2.44-4.05,5.79-6.86,7.84,2.11-12.55,1.72-26.4-3.39-38.22-1.56-1.2-7.5-.35-10-.64-9.77-1.12-30.21-16-40-21.31-1.55-.84-7.76-4.22-8.93-4.28-1.52-.08-8.74,6.07-10.56,7.54-11.72,9.42-22.44,20.14-32.55,31.26-1.92.05-1.64-11.85-1.56-13.43.41-7.77,2.5-15.37,4.37-22.84-.54-.69-12.04,10.87-12.86,11.86-.87,1.05-2.59,3.78-2.78,5.03-1.85.27-1.67-1.79-2.49-2.82l1.87-.31c1.03-.86-9.15-7.84-10.06-8.39-5.62-3.41-14.61-8.83-20.59-4.12,2.39-6.31,10.17-3.32,14.81-1.36,6.22,2.62,11.37,7.09,16.46,11.37,1.58-7.96,4.57-15.6,8.77-22.52ZM633.54,179.12c-7.25-6.23-16.86-10.36-25.67-14.05-4.46-1.87-33.33-12.66-35.64-10.96,9.46,15.09,21.5,28.96,26.68,46.35,12.39,2.1,23.46,7.78,34.64,13.07l-16.26-20.34,7.26-1.48c1.64-.25,3.3.03,4.94-.07.93-.06,1.81.48,1.55-.93-5.77-4.14-13.46-7.7-20.49-8.92-1.09-.19-5.08.05-5.16-.48-.33-2.02,1.01-1.42,2.8-1.52,8.41-.48,16.95.15,25.36-.68ZM376.39,172.25c-6.54,1.88-14.42,4.12-19.4,8.75,6.41-2.61,13.82-4.75,19.4-8.75ZM603.52,335.55c1.47,1.11,4.04-4.88,4.48-5.83,1.6-3.44,9.59-22.81,9.75-25.29.44-6.97-6.68-10.26-7.34-13.62-1.21-6.17,3.9-13.02,1.83-19.35-3.85-11.76-24.44-26.33-35.94-30.38-.7,0-.27,1.4,0,1.88,1.58,2.89,7.77,7.83,8.77,10.68.66,1.89-.94,3.26,1.55,4.65-2.45.63-4.91-1.5-7.34-2.05-.62-.14-2.2-.62-2.04.48l14.05,9.39,1.27-1.87c2.11,2.22,4.55.22,7.2.62.06.55.11.82-.3,1.26-.94,1.02-21.87,4.8-25.49,5.8-25.28,6.95-33.35,17.25-52.11,32.98-.7.59-1.02,1.52-2.19,1.24-1.57-1.44,20.99-19.79,22.94-21.16,13.57-9.52,28.45-14.9,44.63-18.26.64-.85-5.73-5.46-6.69-6.13-8.79-6.19-18.3-8.62-28.59-11.33l-5.92,16.01-4.17,6.46c-2.35-1.09-4.14-13.04-5.47-15.8-.41-.86-.67-1.28-1.72-1.09l-3.14,8.76-2.41-.57c-10.23,16.25-21.77,31.66-31.63,48.17-4.38,7.33-11,16.4-10.69,24.97,4.12-6.07,9.28-10.6,15.13-14.9,13.79-10.12,39.78-23.97,56.83-25.13,13.69-.93,26.22,4.02,37.84,10.64.14,1.15-1.31.55-1.9.33-1.63-.6-2.97-1.66-4.92-1.98-.74-.12-1.73-.74-1.31.68.33,1.1,3.74,5.44,4.7,7.19,3.89,7.12,7.39,15,10.32,22.54ZM443.33,316.78c-1.22-4.77-3.98-8.94-5.45-13.63-4.09-13.05-2.23-25.97,4.1-37.9-4.26-4.15-7.96-7.28-12.07-1-3.61,5.51-3.76,15.16-2.77,21.48,1.75,11.14,9.14,22.5,16.18,31.05ZM522.8,260.47c.62,1.21-1.53,8.22.31,8.12,2.74-3.27,5.95-6.74-.31-8.12ZM412.06,319.28v-17.83l1.87-6.57c.29,4.71-1.35,9.42-1.28,14.09.16,10.74,3.91,23.62,7.69,33.62,4.68,12.39,10.76,24.27,17.33,35.73l1.92.39c.84-7.29-1.32-14.56-1.86-21.6-.05-.69-.47-2.33.61-2.17.85,4.05,2.19,8.74,2.5,12.83.16,2.16.57,12.2-1.6,12.84l-3.4-1.9c-.46,8.39,4.84,11.52,10.96,15.63,1.27.17.81-.05.93-.92.98-7.33-2.23-22.87-3.94-30.49-2.34-10.41-7.5-22.45-8.5-32.79-.6-6.19.4-16.86-.83-22.32-.46-2.01-3.79-6.16-5.19-7.95l-.93,3.75c-.17-2.77-.26-6.25-.78-8.92-1.41-7.17-4.48-13.58-3.48-21.28.17-1.32,3.34-6.91,2.37-7.96-.96-.23-1.36.39-2.06.75-3.08,1.61-11.12,7.04-12.67,9.85-4.66,8.46-4.53,32.2-1.09,41.19.3.79.37,1.84,1.43,2.01ZM466.49,272.99c-9.07,1.56-15.23-3.72-22.77-7.47-8.04,11.15-8.24,26.17-3.95,38.88,1.54,4.56,9.63,22.33,12.66,24.88,1.97,1.65,4.99,3.73,3.78-.65-2.68-9.69-6.7-11.03-4.57-23.25,2.02-11.6,7.9-23.04,14.85-32.39ZM457.73,327.41v-10.32c0-4.35,3.86-16.22,5.81-20.47,2.39-5.18,5.88-8.81,9.19-13.3.02-1.1-3.14-7.56-4.08-8.44-.66-.61-.52-.94-1.56-.36-1.28.71-6.03,9.32-6.95,11.2-6.03,12.34-11.98,29.71-2.41,41.7ZM202.9,287.56c-.35-.32-3.59-1.89-4.03-1.96-6.37,2.41-13,6.55-18.88,10.27-18.35,11.62-35.19,25.54-51.07,40.28-1.57,3.73-9.62,8.65-10.65,11.88-1.08,3.4,4.62,12.12,6.51,15.47,6.22,11.03,13.62,22.64,20.5,33.31,1.02,1.57,5.95,9.6,6.93,9.98l45.6-53.75,1.59.41,13.41,35.9,20.65-17.51,1.87,2.48c.63-.72,1.78-1.37,2.06-2.31,1.34-4.49-1.64-13.24-.5-18.33-.74-.81-15.14,9.84-16.26,8.76-2.45-17.1-3.67-34.32-4.41-51.59-2.78-4.87-6.07-9.43-8.84-14.31-1.21-2.13-3.06-7.69-4.46-8.99ZM620.81,288.85c-1.25-1.26-5.13-3.76-6.89-3.4-3.6,5.49,3.26,8.92,5.48,13.88,2.68,5.99.15,6.14.36,10.85.37,8.39,3.51,15.7,3.18,25.71-.04,1.23-1.53,4.41.29,4.05l8.3-5.15c1.63-2.81-2.7-26.7-3.92-31.16-1.11-4.06-3.89-11.87-6.8-14.79ZM406.42,287.37c-9.27,2.1-10.82,11.64-11.81,19.79-1.01,8.34-1.2,14.24,6.18,19.63-10.56-3.76-8.2-15.47-7.51-24.4-2.05-.28-5.65.39-6.83,2.25-.46.73-3.87,15.85-3.72,16.69.26,1.37,2.94,5.23,3.67,7.02.83,2.02,2.87,9.14,3.7,10.07,1.16,1.29,5.82,1.35,7.9,2.11,5.06,1.85,6.47,7.22,9.4,11.24,2.74,3.77,8.71,8,7.64,13.36-.36,1.79-1.96,2.14-.53,4.56.48.82,12.74,10.66,13.6,10.78l5.9-3.92c-5.74-12.54-11.87-24.79-16.77-37.71-1.59-4.19-2.74-9.58-4.4-14.4s-4.37-8.95-5.51-13.89l-.91-5.97v-17.21ZM560.18,298.21c-3.06-1.46-20.36,4.16-24.03,5.95-4.99,2.43-6.72,5.14-9.91,9.49-1.37-.9,4.97-7.16,1.89-6.24-1.41.42-10.43,5.57-11.53,6.62-6.71,6.38-10.52,23.78-10.69,32.79,5.16-6.4,11.95-5.28,19.38-5.95l5.33-8.43-1.26,6.25c6.62-3.92,10.51-10.77,15.64-16.27,8.47-9.09,18.83-19.9,32.23-19.39-1.74-2.53-8.56-4.92-11.49-4.78-3.27.15-2.12,1.63-5.57-.02ZM604.66,388.6c.38-.34,2.82-8.5,3.06-9.74,3.47-17.95-5.13-41.24-13.05-57.3-4.56-9.24-13.06-18.67-24.47-15.89-18.23,4.44-32.7,35.25-46.62,37.22-3.81.54-6.85-.22-10.8,1.09-4.74,1.58-8.99,7.87-7.8,12.84,1.89-.95,3.21-2.53,5.12-3.64,5.2-3.02,13.5-5.33,19.42-6.86.6-.15,2.79-.69,2.66.47-5.53,1.93-12.21,2.99-17.51,5.33-4.38,1.94-17.32,12.39-20.05,16.23-.68.96-.45,2.31-1.22,3.16-1.43,1.56-6.73,4.76-8.79,6.85-.5.51-3.89,4.44-1.65,3.99,17.87-3.55,40.04,10.08,53.96,20.12,3.15-.55,5.71-2.75,8.7-3.78,14.48-4.98,29.66.54,41.31,9.42,1.59,1.21,8.2,7.98,8.79,8.11,1.54.35,2.84-5.37,3.25-6.74,1.99-6.62,2.92-13.56,4.06-20.37l.49-.73c.2-.18,1.04.3,1.17.18ZM383.06,357.85c1.65-1.68,7.36-7.71,7.54-9.56.12-1.26-4.71-14.44-5.61-16.65-3.38-8.36-7-13.97-13.94-19.85-7.77-6.59-7.76-5.55-17.48-5-4.35.25-13.88-1.72-9.35,6.18,2.82,4.92,8.08,2.82,11.72,3.92,1.23.37,1.48,1.94,2.36,2.65,1.1.89,3.67,1.76,3.67,3.12,0,.75-.76,1.7-.56,2.5.26,1.07,2.43.45,1.84,2.25-6.13-1.55-12.28-2.83-18.12-5.34-7.6-3.27-25.97-16.21-33.65-12.95-5.84,2.48,1.73,9.05,4.27,11.05,7.52,5.9,16.62,8.94,25.09,13.07,1.2.58,3.04,1.08,3.64,2.3-13.75-2.06-24.56-11.69-37.68-15.19-2.05-.55-7.55-2.2-8.52.59-1.02,2.93,1.39,4.8,3.45,6.35,5,3.77,17.02,9.12,23.13,11.91,5.04,2.3,10.58,3.57,15.24,6.66-.45.89-1.68-.05-2.29-.21-10.49-2.88-20.65-7.9-30.26-12.91-1.54-.8-8.12-5.53-9.34-4.69-2.11,3.97,1.57,6.57,4.35,9.06,4.99,4.48,15,11.09,21.06,13.98,4.8,2.29,11.49,3.66,15.87,6.03.86.47.98,1.15-.32.95-7.65-1.15-18.62-6.35-25.28-10.38-1.96-1.19-4.76-3.99-6.71-4.56-1.22-.36-1.52,1.98-1.46,2.7.26,3.06,7.51,9.39,10.05,11.25,4.27,3.11,19.2,12.1,23.78,13.76,3.26,1.18,15.17,2.64,19.03,2.86,7.8.45,4.62-1.72,9.1-4.66,6.19-4.06,9.72-5.42,15.39-11.2ZM487.01,326.03c1.01-2.41,3.14-5.24,4-7.58.24-.66.86-.63-.1-1.37-8.3-.48-16.35-.27-23.37-5.41-1.35-.99-4.53-5.38-5.73-3.64-1.51,5.36-2.73,6.91,1.64,10.83,6.23,5.59,15.33,7.72,23.57,7.17ZM436.46,312.71c-.63,2.49.46,7.21,0,10.01,1.15,1.41,3.16.79,4.9,1.36,2.4.79,3.89,2.73,6.37,2.7l-10.02-15.01c-.22-.15-1.19.72-1.24.94ZM618.52,312.4c-.4-.31-1.15,1.02-1.37,1.44-3.14,5.84-5.1,13.14-8.31,19.22-1.23,2.33-4.1,4.41-3.16,6.88,1.61,3.15,13.79,2.39,15.4-1.53,2.34-5.68-1.18-19.84-2.56-26.01ZM220.23,315.86c-.37-.38-.11-1.14-.56-.96-1.72,1.15-.35,2.57-.32,4.07.28,12.18.76,26.91,3.15,38.78.15.76-.45,1.14.92.95s13.26-7.69,13.75-8.78c0-4.24,1.55-9.36.97-13.47-.57-4.06-14.25-16.87-17.92-20.6ZM512.16,316.78l-16.93,11.7.66,11.44-1.81-6.64-.99-1.48c-8.34,6.87-12.71,18.35-15.97,28.45-3.66,11.34-2.18,18.49,1.69,29.62.27.77.4,1.49,1.14,1.98,4.06-2.87-1.99-6.77.03-10.62l12.16-12.84c2.08-2.2,8.77-7.77,9.64-9.73,2.27-5.14,1.5-10.72,2.34-15.83,1.52-9.21,3.94-17.67,8.06-26.04ZM485.88,327.42c-7.9-.18-14.95-1.98-21.48-6.37-1.68-1.13-2.55-3.33-4.8-3.02.19,2.97-.26,6.17-.04,9.1.1,1.37,1.09,2.02,1.18,2.6.12.81-1.05,1.28-.88,2.1.42,2.09,5.12,4.13,6.48,6.68,7.78,14.64-.93,27.01-1.12,40.55-.06,4.41.94,9,.66,13.77-.24,4.18-1.69,8.51-1.27,12.8l12.81-12.43c-.61-8.34-5.37-16.3-4.6-24.72.97-10.62,10.16-22.41,10.87-32.27.06-.78-.77-1.31-.74-1.59.03-.4,3.9-5.07,2.93-7.19ZM461.48,406.25c.27-1.42.89-2.71,1.19-4.14,1.88-9.02.06-17.02.71-25.57.7-9.19,4.52-15.45,3.73-25.65-.32-4.18-1.38-11.5-4.78-13.99-3.95-2.88-14.81-8.51-19.48-10.56-1.84-.81-5.19-2.86-5.76.13-1.17,6.19,5.63,24.84,7.32,32.09,2.36,10.1,4.05,20.79,5.18,31.11.24,2.22-.29,4.53.12,6.76.14.46,6.8,6.12,7.38,6.33.63.23,1.65-.44,1.84-.26s.65,3.62,2.54,3.74ZM650.22,385.82c2.51,2.5,3.9,6.59,6.78,8.54,4.06-.97,3.73-25.04,3.44-29.08-.95-13.27-5.52-26.68-20.39-29.03-2.87-.46-7.62-.9-9.89,1.24-.94.89-.84,2.2-1.43,2.45-3.07,1.29-14.01,3.49-17.39,3.62-1.34.05-3.12-.92-4.69-.49,2.15,8.33,4.6,16.64,5.03,25.31.12,2.38-.81,5.79-.55,7.38.56,3.39,5.23,12.22,6.6,16.6,1.69,5.43,2.98,11.01,3.9,16.63l1.91,1.02-20.87-1.16-3.51,8.32c.35,1.58,16.27,3.7,19.24,4.56,2.49.72,9.33,3.1,10.79,5.02,1.65,2.17,3.12,17.82,4.03,22.08,1.77,8.25,5.11,16.07,6.59,24.38h1.87c.55-6.34,1.66-12.68,1.91-19.06.36-9.06-1.02-18.03-.66-26.94.03-.76-.47-2.33.62-2.18.52,17.66,1.97,35.76-1.86,53.18,11.43-5.53,17.87-12.6,21.91-24.69,4.54-13.58,3.02-29.15-.33-42.88-.62-2.56-3.11-11.39-4.43-13.09-.49-.63-.62-.85-1.51-.67.9,8.37-4.62,12.06-12.33,8.89-7.09-2.91-3.97-7.69-6.43-13.22,1-.19,2.38-1.02,2.79-1.93.6-1.33-.28-3.43.94-3.74-.65,1.25,1.22,3.82,1.2,4.08-.03.34-3.11,1.52-3.07,5.63.09,9.02,15.27,13.4,15.52,3.12.1-4.24-3.56-9.79-6.4-12.87-.96-1.05-2.25-.96-2.67-1.39-.36-.37-.25-1.43-.8-1.99-1.04-1.07-3.58-1.37-4.77-.39l-2.12,6.32c-.44-3.47.28-6.2,2.79-8.66,2.87,1.23,6.02,2.91,8.24,5.13ZM392.66,370.58c3.75-4.08,12.85-10.41,12.55-16.57-.08-1.76-4.64-9.94-5.96-10.98s-7.38-2.61-8.47-1.85c.86,1.23.34,2.86.73,3.98.33.98,1.81.87,1.82,1.36.02,1.14-3.73,5.99-4.73,7.17-3.21,3.8-10.63,8.97-12.84,12.19-.36.53-.88.61-.62,1.56,3.77,1.06,9.84,4.35,12.46,7.25,1.41,1.56,3.84,7.82,5.36,7.81s14.36-10.92,15.98-12.85c3.35-3.99,4.4-6.08,1.51-10.92-.42-.71-3.29-4.33-4.02-3.8-1.07,5.39-5.64,9.71-9.72,13.12-1.05.88-2.68,2.32-4.05,2.51ZM378.27,390.61c-.55.11-1.28-.09-1.88,0-1.44,1.73,4.52,4.14,6.11,4.23,1.91.11,4.47-1.33,5.8-2.65,10.73-10.58-15.28-34.47-23.68-17.43-3.4,6.88.8,10.99,6.76,13.96-.05-1.85-1.83-1.91-1.94-4.07-.12-2.52,2.07-5,4.43-5.64,10.08-2.73,16.34,12.81,5.31,12.27-1.26-.06-.86-.66-.91-.68,10.89-2.19,4.01-11.49-3.75-10.63l4.38,3.74-7.09-1.91c-2.06,2.32-.73,4.94,1.5,6.57,1.41,1.03,3.73,1.75,4.97,2.23ZM412.32,417.25c10.29,9.61,32.06,27.93,45.53,31.12,6.16,1.46,9.57-.98,14.6-3.94,14.09-8.31,30.92-22.12,43.48-32.85,1.55-1.33,12.02-10.4,11.85-11.2-10.52-8.07-23.69-15.46-37.19-16.01-7.13,5.72-13.31,13.05-20.34,19.08-1.59,1.36-6.64,6.09-8.31,5.85l-50.79-38.74c-1.47.15-4.8,4.4-6.31,5.65-2.14,1.76-10.79,7.12-11.6,8.42-1.25,2.01-1.1,6.55-3.09,8.81,0,2,19.24,21.08,22.17,23.81ZM239.21,373.81c-5.51,1.06-9.01,15.83-1.29,17.96,3.79.33,9.45-19.52,1.29-17.96ZM619.78,408.75c.74-3.55-7.42-28.73-9.08-28.77-3.19,8.89-7.03,17.57-7.85,27.1.37,1.56,14.65,1.8,16.93,1.67ZM481.53,383.76l1.55,4.34,4.05-4.07c-1.44-1.79-3.77-.78-5.6-.28ZM386.4,397.5c-6.5,1.03-8.72-2.92-12.93-5.53-2.58-1.6-5.76-2.32-8.03-4.47-2,3.43-2.76,7.38-4.82,10.81-1.99,3.32-4.79,5.08-6.76,8.24l12.07,7.77,20.47-16.82ZM239.2,395.7c-6.38,1.76-1.65,14.04,3.53,12.37,2.67-.86-1.73-9.82-1.79-11.84l-1.74-.54ZM395.42,404.13c-1.29-1.31-4.07-5.78-6.04-5.3l-21.1,17.12,36.44,22.12c1.52-.29,12.99-10.81,12.73-11.83-7.31-7.41-14.75-14.71-22.02-22.11ZM518.43,413.13c3.79-2.31,9.37-4.18,12.71-6.99,2.65-2.23,1.68-3.12-1.46-3.95-.7.2-7.36,6.12-8.46,7.17-.56.54-3.46,3.1-2.79,3.77ZM350.74,408.13c.04,4.88,5.19,11.15.18,14.93-3.95-.64-6.1,1.13-9.58-1.46-4.22-3.15-9.71-10.97-13.74-15.04-.96-.97-2.48-2.76-3.74-3.15-2.35-.72-10.63-.47-13.48-.27-12.19.85-23.98,4.55-31.32,14.98-1.71,2.43-1.36,4.14-1.84,6.91-1.11,1.91-3.68.27-4.69.9-.27.16-3.49,4.07-4.04,4.77-5.97,7.56-10.28,16.7-16.91,23.76-1.25,1.33-5.57,3.61-1.59,3.44,8.56-.36,21.69-1.73,29.75-.99,1.44.13,3.02.41,4.19,1.27,4.37,3.2,9.81,19.45,14.68,20.53,2.25.5,4.68-.17,7.11.4,5.66,1.33,6.17,11.84,9.03,15.99,2.19-3.21,5.06-5.82,8.25-8.01,2.76-1.89,8.39-3.85,10.02-5.31,1.94-1.73,7.8-14.54,8.96-17.63.5-1.33,2.07-9.78,3.74-8.46l-1.57,10c3.47-4.1,8.25-8.88,10.96-13.44,1.23-2.07,1.72-5.55,3.74-7.2-.12,3.54-1.41,6.07-3.24,8.95-2.09,3.29-14.68,16.89-14.91,18.26s.5,1.04,1.45.82c5.22-1.17,10.85-4.55,13.83-9.02l4.75-3.99c-4.51,6.56-9.87,12.51-18.14,13.77,0,1.08,2.74.69,3.47.65,1.92-.11,3.66-.62,5.58-.68.7-.02,2.37-.39,2.21.65-4.91,2.06-16.8-.46-16.89,6.26,24.09-3.04,47.64,4.75,71.29,7.83.72.09,1.25-.79,1.94-.65,1.11.22,2.61,1.98,3.97,1.56l4.97-9.19c4.91-3.53,9.24-8.07,14.39-11.52,2.4-1.61,4.86-3.04,7.29-4.6l-22.2-15.95c-.72,2.12,2.21,4.29,3.33,6.06,1.46,2.31,2.8,4.69,4.25,7.01.33.53,1.56,1.36.56,1.94-4.77-5.41-9.73-14.04-15.39-18.4-3.63-2.8-9.07-4.36-13.28-6.74-10.59-5.99-22.17-13.96-32.54-20.65-1.75-1.13-13.83-10.26-14.82-9.26ZM283.79,409.38l-7.57,4.04-.47,1.17,1.47,2.29c.67-.97,7.44-6.62,6.57-7.49ZM511.54,418.77c-.47-.44-3.45,2.02-4.05,2.51-1.43,1.18-6.91,5.63-6.59,7.17.21,1,.76.85,1.56.33.97-.63,9.57-9.55,9.07-10.01ZM636.45,486.11c4.12-4.56,2.67-8.99,1.43-14.44-1.58-6.92-4.51-13.74-6.04-20.86-1.34-6.25-1.61-12.99-2.84-19.06-.94-4.63-1.88-5.25-6.11-7.03-4.85-2.05-17.06-5.1-22.22-5.33-2.24-.1-4.52-.57-3.46,2.22.61,1.6,3.96,10.66,4.34,11.17.57.77,1.77.28,2.58.37.35,1.75-.63,1.19-1.86,1.26,2.6,14.06,3.85,27.89,3.77,42.25-.01,1.85-1.08,3.47,0,5.42,3.09,2.56,6.34,5.03,9.38,7.68,1.17,1.02,6.23,7.17,7.5,5.95-1.55-11.27-4.8-22.95-6.18-34.17-.92-7.49-.55-15.01-1.25-22.53-.07-.7-.57-2.25.54-2.11,1.76,7.66,1.95,15.55,1.96,23.38l6.18,33.55c1.17,1.12,11-6.31,12.29-7.73ZM427.59,433.25l-8.21-5.03-11.07,10.26,5.82,4.56,13.45-8.1v-1.69ZM484.01,445.04c1.08.28,1.25-.45,1.88-.93,2.24-1.72,10.55-8.77,11.89-10.65,1.51-2.13.92-5.22-1.88-3.12-1.82,1.36-10.71,7.7-11.3,8.72-1.07,1.87-.48,3.89-.59,5.98ZM436.96,440.13c-2.54-1.03-4.58-4.25-7.54-3.75-.75.13-12.49,6.7-13.22,7.35-2.5,2.25,3.12,2.79,4.16,3.32,5,2.58,7.67,8.16,13.59,1.73.77,4.07-2.91,2.7-4.99,4.69,0,.92,13.31,10.28,15,10.69,1.05.25,5.66-.43,6.47-.94,1.69-1.05.69-6.35,3.53-6.31.33.37-4.4,10.42.64,7.83,1.69-.86,1.11-4.07,1.84-5.72l-1.85-2.11c3.71.67,5.48-2.11,4.92-5.55l-3.04-.71c-.45.4.26,4.37-1.88,3.75,2.27-6.15-6.15-6.39-9.7-9.38l-.93,1.87-3.78-4.72-5.61,1.59,2.38-1.97v-1.68ZM482.13,441.29c-1.03-.25-1.45.21-2.2.61-3.48,1.83-7.01,4.85-10.71,6.81-3.77,1.99-8.12,1.63-8.36,6.73-.09,1.95,2.66,3.46,4.38,3.11,1.34-.28,13.62-8.76,14.96-10.11,2.35-2.37,2.06-3.92,1.92-7.14ZM297.63,528.8c3.98,2.51,10.27-11.09,11.31-13.88,3.5-9.42,4.33-19.98.35-29.37-2.87-6.78-4.83-4.36-10.65-5.62-5.3-1.15-8.94-11.2-11.95-15.58-2.95-4.28-3.78-6.43-9.49-6.2-19.42.76-38.77.63-56.13,10.82-5.24,3.08-9.15,17.8-11.11,23.61l10-1.57c6.7-17.61,34.73-7.77,46.73-1.03,10.73,6.03,9.7,10.19,15.96,19.08,4.75,6.75,11.98,11.84,14.99,19.74ZM462.74,458.81c-3.62-1.37-6.55.79-3.45,3.67l3.06-1.75.39-1.92ZM449.59,467.57c-7.83-3.21-12.81.76-18.71,5.36-3.81,2.97-12.7,11.23-13.57,15.89-.53,2.83,1.83,9.9,3.02,12.7,1.71,4.05,5.5,8.51,6.88,12.52,1.1,3.2.98,6.82,1.92,9.96,1.89,6.31,10.45,10.97,15.47,15.18,6.16,5.17,7.57,9.38,17.23,9.72,6.32.22,10.08-4.65,15.13-5.5,2.82-.48,5.81.14,8.6-.16,7.34-.77,19.83-3.53,20.34-12.5-4.14,3.16-9.32,5.52-14.7,5-4.48-.43-7.95-5.78-11.61-8.41-2.58-1.85-10.02-5-11.66-6.8-1.93-2.13-2.24-9.82-2.77-12.88l-10.4-3.36c-3.96-8.55-11.13-18.77-11.28-28.49-.06-3.8,6.96-7.08,6.1-8.25ZM238.12,483.21c-5.27-.21-12.81-.26-15.01,5.62,1.82-.42,2.97-1.67,4.86-2.33,2.62-.9,6.41-1.6,9.21-2.07,1.05-.18,1.07.38.94-1.23ZM605.39,483.83c-1.51,4.75,2.86,8.16,5.11,12.09,2.52,4.41,5.46,12.05,8.12,15.66.37.51.62,1.25,1.46,1.03,1.03-2.62,4.74-5.75,4.74-8.44,0-3.52-9.32-12.78-12.22-15.35-.86-.76-6.5-5.73-7.21-4.99ZM255.63,496.34c1.61-8.98-3.38-10.1-10.95-10.62-6.59-.46-13.56.23-19.06,4.06l7.74.38c2.59.34,4.52,1.17,6.47,2.88.43.38,1.19-.03.79,1.43-6.95.46-13.65,2.23-20.64.62.72-1.54,3.87-.19,5.21-.23,3.75-.12,7.41-.87,11.05-1.65-.44-1.49-2.21-1.32-3.44-1.29-4.16.09-10.67.82-14.86,1.45-.55.08-1.88.28-1.71,1.09l1.87.63-5,1.25c6.53.63,13.15,2.32,19.68,1.22l6.59.65c-11.53,3.47-22.71-1.6-34.74-.64-8.61.68-18.77,4.79-25.52,10.14-.76.6-6.23,5.36-5.42,6.15,3.34-1.25,6.13-3.31,9.53-4.55,21.56-7.87,49.15-4.88,69.32,5.47,2.73,1.4,5.92,4.23,8.6,5.17,6.77,2.37,16.85,1.58,24.56,3.6,2.95.77,5.57,1.78,8.12,3.45-.16-6.57-6.43-6.74-10.32-9.38-3.31-2.24-7.11-8.64-10.6-11.92-1.67-1.57-4.31-2.21-5.35-4.97,2.13-1.92,14.71,14.1,16.26,15.33.44.35,4.01,2.88,3.13.63-.59-1.52-6.3-8.05-7.8-9.72-6.25-6.94-13.96-13.73-22.21-18.14,1.05,5.48,2.01,7.28-4.07,9.4l-.94-2.51,3.74.62ZM233.11,550.78h-13.76l9.05-1.57c11.6.77,21.96-1.92,32.95-.07,3.32.56,6.51,1.41,9.66-.1.62.1.66,1.38,1.02,1.6.49.31,11.26,1.12,10.53-1.74h.6c.15,2.39,2.18,1.91,4.06,1.92l.34-1.92c4.57,3.44,10.84-2.84,11.29-7.81.92-10.23-17.57-11.15-24.74-10.95-6.58.19-16.26,3.04-22.35,1.07-5.08-1.65-5.89-5.22-8.93-8.59-9.98-11.08-35.31-12.74-49.16-10.35-8.31,1.43-14.47,4.88-21.86,8.47,15.8-14.19,50.38-13.74,67.76-3,5.37,3.32,7.88,10.95,12.91,12.12,12.95,3,29.57-5.48,43.42,2.88.43.26,4.31,4.15,3.54,1.47-2.03-6.98-14.12-9.78-20.41-10.88-5.43-.95-12.73-.7-17.74-2.28-4.16-1.31-8.75-5.1-12.92-7.1-18.76-8.96-48.48-10.5-67.59-2.08-2.15.95-13.98,7.56-12.09,10.12l2.49-.32c-8.83,5.81.95,17.67,6.59,22.2,12.32,9.9,37.95,10.26,53,7.97.64-.1,2.49-.18,2.36-1.08Z"/>
  <path d="M348.86,484.47l-14.37,3.45c-14.59,4.36-18.28,21.57-16.2,34.95,2.28,14.74,15.58,16.82,28.08,19.16.29-1.3-.67-1.42-1.42-2.01-10.09-8.02-14.3-9.18-12.89-23.87.62-6.51,3.34-18.66,10.56-20.4-5.07,3.55-7.09,8.48-8.48,14.35-4.16,17.59,1.18,23.29,15.86,31.75l7.63,2.06c-14.62-.98-38.54-2.32-40.6-21.02-1.36-12.31,1.19-28.69,13.5-34.55,5.44-2.59,12.34-4.23,18.34-3.86Z"/>
  <path d="M366.38,500.1c3.87-1.59,6.94-.78,6.31,4.1-.15,1.15-1.16.81-1.29,1.34-1.13,4.76-2.68,14.56-3.1,19.33-.33,3.83.12,7.88-.03,11.73-7.82,3.22-8.37-2.43-8.18-8.68.19-6.22,1.46-14.83,2.82-20.96.67-3.02.57-5.67,3.46-6.86-.18,1.42-1.3,2.22-1.73,3.59-1.59,5.1-2.97,16.23-3.3,21.72-.18,3.07.18,6.21.02,9.28l4.64,2.24c2.57-.6,1.48-11.88,1.71-14.54.55-6.43,2.65-13.7,3.7-20.13l-.62-1.88-4.42-.27Z"/>
  <path d="M405.17,514.18c.35-3.74,2.26-8.78,2.62-12.71l3.64-.43c-1.29.74-1.83,1.02-2.64,2.37-1.78,2.97-2.89,14.98-3.02,18.88s.64,7.27.67,10.65c.01,1.25-.09,1-1.27.95.43-6.36-.59-13.44,0-19.71Z"/>
  <path d="M369.51,525.44c.05-.21.85-.96,1.25-.94-.19,3.05-1.53,6.31.17,9.23,4.18,2,8.22,3.73,11.29,7.21l2.64-.16.3,1.55c-4.42,1.41-5.85-2.49-8.16-4.35-1.82-1.47-5.18-2.97-7.48-3.46.42-2.55-.58-6.81,0-9.07Z"/>
  <path d="M380.14,488.85c.05,1.3-1.2.42-1.81.25-1.51-.43-7.14-2.67-8.23-1.87l-.51,5.28,4.3,1.65-4.74-.27c.15-1.96-.91-3.4-1.3-4.85-.14-.53.4-1.32.29-1.7-.31-1.09-1.9-.54-1.76-1.61,4.7-.12,9.43,1.39,13.76,3.13Z"/>
  <path d="M393.28,538.27l-1.87,1.87c2.41-1.16,2.7,1.06,4.45,2.12,3.09,1.87,7.32,2.04,9.94,4.76-3.67-1.26-8.68-1.96-11.85-4.1-2.82-1.91-5.25-5.51-8.17-7.48-.22-1.27.34-1.1,1.3-.67,2.17.97,3.72,3.46,6.2,3.5Z"/>
  <path d="M396.41,545.78c-1.08,2.61-4.55,2.11-6.89,1.57-1-.49-.1-1.51.34-1.58.76-.12,2.78,2.28,4.05.95-1.84-2.15-5.72-2.7-6.25-5.94l8.75,5.01Z"/>
  <path d="M597.26,492.91c-.12,1.05-1.2,4.6-1.58,5.93-.06.2-.91,3.19-1.56,2.19,2.24-6.15,1.94-12.64,1.89-19.07.63-.27,1.24,1.46,1.24,1.56,0,2.91.32,6.63,0,9.39Z"/>
  <path d="M377.65,499.47c3.95-1.92,6.13-5.93,11.25-5l-12.19,6.26-.95-6.26c3.01-.01.72,3.21,1.88,5Z"/>
  <path d="M384.43,533.8l-1.19.41,1.91,5.94c-3.49-2.77-2.32-7.95-2.49-11.88l1.77,5.54Z"/>
  <path d="M399.54,542.64c-3.61-.56-3.93-5.84-4.37-8.75l4.37,8.75Z"/>
  <path d="M385.15,508.23l-1.23-.3c.98-1.25.38-2.87.77-4.24.51-1.8,2.67-2.07.47-4.22,5.29-.15-1.17,5.07,0,8.75Z"/>
  <path d="M273.78,274.86c-4.51-2.77-8.87-13.2-9.85-18.62-.36-1.98.2-4.28-.29-5.97-.4-1.37-2.59-1.85-2.37-3.57,1.35-.05,2.08.99,3.47,1.22,8.51,1.39,12.85-10.69,21.16-9.93,5.86.54,10.22,4.49,16.24.47,1.73-1.15,1.77-2.97,3.54-3.02-4.41,4.6-1.05,9.67-.63,15.33.5,6.72.31,17.84-2.17,24.09-.3.75-1.13,1.08-.95-.32.62-4.91,3.93-11.45.9-15.92-1.1-1.62-3.09-2.64-4.02-4.41l4.68,3.12c1.6-.33.25-4.76-.58-5.66-1.39-1.52-8.62-3.34-10.23-2.32-.34.22-.38,1.48-1.1,1.66-.39.1-3.24-.63-4.9-.48-5.87.54-18.24,8.95-17.95,15.25.08,1.77,3.79,7.09,5.05,9.08,1.92,1.18,1.59,1.5,2.82,2.5,2.34,1.9,5.17,3.34,7.19,5.63-4.17-1.4-7.79-4.61-10.01-8.13Z"/>
  <path d="M250.42,215.64c3.36,3.13,4.42,8.28,5.23,12.6l-1.89.32v1.87s1.89.32,1.89.32c-1.82,20.9-27.95,19.18-24.99-3.08,1.13-8.52,11.81-19.42,19.75-12.04ZM244.83,214.26c-5.62.86-6.68,12.05-.15,12.48,8.16.53,7.14-13.54.15-12.48ZM250,232.94c-1.71-.1-1.68,1.67-3.17,2.78-2.33,1.74-5.13,2.12-7.87,1.08-.96-.36-1.76-3.35-2.72.52l1.25-.32c-2.26,13.02,18.3,6.56,13.45-2.81l-.93,1.25v-2.5Z"/>
  <path d="M304.32,199.92c15.77-1.1,25.08,28.26,6.67,29.29-15.8.88-22.74-28.17-6.67-29.29ZM300.51,202.4c-5.1,1.15-5.05,10.61,1.27,11.66,8.46,1.4,7.47-13.63-1.27-11.66ZM303.82,220.43c-1.82,13.32,20.75,7.58,12.81-3.75-1.06-.26-1.9,2.03-2.84,2.78-3.62,2.86-5.81,2.77-9.97.98Z"/>
  <path d="M336.97,254.84c.17,1.07-1.5.67-2.13.57-9.16-1.55-12.75-14.5-11.63-22.47l1.02,8.04c1.71,6.13,5.38,13.78,12.73,13.86Z"/>
  <polygon points="264.39 352.45 257.37 353.86 249.38 356.82 256.1 353.21 264.39 352.45"/>
  <path d="M512.16,200.4c.37-.49,4.8.88,2.19,1.28l-19.7-1.28,2.5-1.25c-3.5-11.22-4.32-22.93-1.59-34.43,1.69-7.15,5.6-14.97,14.13-10.33,10.43,5.67,9.23,28.31,5.91,37.89-.47,1.35-4.08,7.5-3.44,8.13ZM501.99,155.45c-4.89.96-6.53,11.21-2.38,14.65,6.5,5.41,9.57-16.07,2.38-14.65ZM502.77,187.26c-4.15-1.64-.26-13.57-5.63-10.96-3.79,1.84-1.26,16.23.38,19.66,2.6,5.43,6.8,2.18,11.7,3.72,7.37-6.34,8.3-19.92,6.66-28.96-.21-1.13-.62-2.1-1.53-2.85l-.32,1.87-2.49-1.25-.64,3.75-1.87-1.87c-.69,3.46.19,11.69-2.78,13.8-1.49,1.06-3.85,0-3.49,3.08Z"/>
  <path d="M463.05,221.05c-5.07.68-13.34,7-16.56,10.97-1.42,1.75-3.87,4.24-2.83,6.52l10.63,13.18c-9.66-6.4-15.54-17.25-20.33-27.53l51.34-9.13c3.23,9.48-.58,22.62-6.66,30.34-1.61,2.04-5.37,6.3-7.77,6,6.72-5.89,12.88-13.94,13.77-23.16.15-1.53.21-8.77,0-10.01-.12-.72-.3-1.12-.93-1.53l-12.21,3.11,3.12,1.24c-3.65.35-8.04-.47-11.57,0Z"/>
  <path d="M426.27,154.21c6.1-1.8,8.62,11.74,8.93,15.85.7,9.24-.78,16.56-2.87,25.34-.2.85.28,2.27.09,2.52-1.2,1.64-9.94-.46-12.27-.32l-1.15-6.97c-.37-6.02-.74-11.9.11-17.91.5-3.58,3.67-17.49,7.16-18.52ZM426.86,156.04c-3.49,3.94-4.54,11.82-.11,15.45,5.54-1.01,5.73-17.29.11-15.45ZM433.95,185.7c.37-3.34,0-7.76,0-11.26,0-.23-.83-.94-.63-1.57l-2.84,1.23-.37,9.02-4.91,2.9-1.22-12.17-1.92-.34c-.13-.1,1.65-3.04.01-3.12-1.24,1.21-.7,4.65-.8,4.88-.04.09-.94.09-1.04.57-1.06,5.38-1.03,13.78.89,18.95,1.05,2.82,8.48,2.18,9.54,1.1.85-.86,3.13-8.68,3.29-10.18Z"/>
  <path d="M526.55,191.64c-1.16.13-.52-1.32-.44-2,1.55-13.69,1.74-33.69-14.92-38.62-9.24-2.73-12.87,1.01-18.41,7.46l1.85-3.47-1.23-1.84c8.44-9.01,23.1-7.58,30.64,1.88,8.29,10.4,7.64,24.92,2.51,36.58Z"/>
  <path d="M430.61,149.31c3.19,2.76,5.12,7.44,5.21,11.67l-4.37-7.19c-10.75-12.4-22.16,5.98-22.96,16.45l-1.43,12.01c-3.02-10.57-.93-28.63,9.8-34.3,5.02-2.65,9.36-2.45,13.75,1.36Z"/>
  <path d="M582.23,199.15c-2.09-1.42-3.18-6.63-6.08-7.42-3.7-1-11.67,6.17-13.87,9.07,5.27,7.34,8.5,14.09-.06,20.57l2.49,1.24c-.57,1.41-9.53,1.67-11.26,1.56,2.18-3.21,6.72-2.96,9.69-5.63,6.38-5.74,2.16-12.33-3.4-16.56,5.72-8.08,19.03-19.14,22.48-2.83Z"/>
  <path d="M510.28,210.4c-.29.34-4.7,1.35-3.43,3.15,1.33-.98,19.06-4.63,19.08-3.45l-5.33,2.81-1.24-1.86c-6.29,2.4-13.55,2.69-20.02,5-.82-.3.73-1.31.99-1.51,2.9-2.29,6.41-3.66,9.65-5.37l.3,1.23Z"/>
  <path d="M519.04,213.55l-1.24,2.49c1.81-.24,3.58-.98,5.39-1.17.69-.07,2.25-.57,2.11.54l-18.14,5.01,9.66-6.28,2.22-.59Z"/>
  <path d="M504.65,140.97c.35,1.9-.57.96-1.47,1.31-5.79,2.23-11.69,4.13-17.29,6.82,4.69-4.61,12.21-7.89,18.77-8.12Z"/>
  <polygon points="423.32 204.79 416.44 209.8 418.31 211.03 409.55 214.79 418.94 206.97 417.69 205.41 423.32 204.79"/>
  <path d="M412.05,204.79l-2.5,2.19,1.87,1.55-10.64,3.75c2.71-3.22,6.99-6.84,11.26-7.5Z"/>
  <path d="M447.09,197.9c.61,2.5-3.52,3.88-3.52,5.94,0,1.46,2.57,5.27,1.97,7.2l-4.06-7.84c.12-.7,5.06-5.93,5.62-5.3Z"/>
  <path d="M520.92,76.52l-7.24-12.46c-20.16-25.05-63.89-21.09-77.23,8.7-.79.17-.71-.28-.65-.95.26-2.57,5.3-9.54,7.22-11.57,22.44-23.79,69.34-17.01,77.9,16.27Z"/>
  <path d="M570.97,138.46c-1.11.16-.61-1.41-.48-2.04.75-3.4,2.11-6.93,2.83-10.31,3.81-18,8.21-45.18-.17-62.09-2.22-4.49-6.22-7.86-9.06-11.89.69-.67,3.52,2.52,4.08,3.11,13.89,14.98,11.97,38.38,8.98,57.17-1.4,8.79-3.85,17.48-6.18,26.05Z"/>
  <path d="M584.12,87.78l-3.14-18.45c.76-.85,1.06.94,1.19,1.32.38,1.2,1.95,6.13,1.95,6.81v10.32Z"/>
  <path d="M656.69,383.1c-2.31-1.98-.98-6.58-1.33-9.62-.96-8.41-3.31-19.63-8.8-26.26l-8.01-6.03c17.01,4.99,17.81,27.17,18.13,41.91Z"/>
  <path d="M649.18,450.04c-1.09.15-.59-1.42-.62-2.18-.12-2.91.18-5.86,0-8.76-.32-5-1.3-10.06-1.87-15.03-.19-1.63.19-3.38,0-5-.49-3.88-2.49-7.51-1.87-11.58l1.69,5.5c2.13,12.23,3.05,24.61,2.68,37.04Z"/>
  <path d="M639.79,372.46l-4.26-9.81c-2.72-4.43-6.03-8.1-10.56-10.71l-7.69-3.87c12.37,1.53,20.74,12.44,22.51,24.39Z"/>
  <path d="M212.46,550.16c.15,1.09-1.42.59-2.18.62-5.85.24-11.56,0-17.22-1.55-3.16-.87-8.26-2.07-4.38-5.95-1.2,2.48.58,4.13,2.97,4.85,6.04,1.82,14.47,1.77,20.8,2.04Z"/>
  <rect x="490.69" y="112.83" width="1.05" height="14.29" transform="translate(196.32 530.73) rotate(-68.05)"/>
  <path d="M256.26,461.93c.14,1.1-1.42.6-2.18.63-4.59.18-8.06.65-12.51,1.89l4.37-2.51h10.32Z"/>
  <polygon points="255.01 492.6 254.18 493.75 243.75 489.47 255.01 492.6"/>
  <path d="M268.15,505.74c-1.21,1.15-4.11,9.79-6.26,8.12,1.92-2.07,3.04-4.68,4.64-6.95.52-.75.02-1.53,1.62-1.17Z"/>
  <path d="M545.95,310.53c.34.34-5.27,6.87-5.88,7.58-.53.61,0,1.58-1.63,1.17l3.43-5.01,4.08-3.74Z"/>
</svg>