<?xml version="1.0" encoding="UTF-8"?>
<svg id="katman_1" data-name="katman 1" xmlns="http://www.w3.org/2000/svg" viewBox="0 0 841.89 595.28">
  <path d="M541.58,55.56c5.2,5.83,6.73,15.77,8.52,23.73,5.66,25.16,8.15,51.21,13.72,76.38.54,2.43,2.53,11.59,3.95,12.43,29.25.98,59.43,3.27,88.32,7.92,11.27,1.82,40.39,6.98,48.62,13.73,3.12,2.56,4.25,5.45,2.57,9.3-5.19,11.91-38.49,18.45-50.42,20.75,4.85,4.63,33.77,19.85,32.31,26.7-2.08,4.72-6.95,6.08-11.15,8.28l-31.4,11.07,17.4,1.04c-1.62,3.01-6.12,3.7-9.22,4.1l1.46,1.98,45.37-14.03c7.35-1.27,22.03-1.75,14.61,9.49-1.17,1.77-10.34,8.54-9.21,9.72,10.4-2.39,21.95-6.37,32.36-8.07,3.2-.52,15.84-1.8,17.81-.64,2.62,1.55,1.96,6.22,1.58,8.76-3.55,23.55-32.2,99.41-44.8,120.05-3.14,5.15-4.09,6.41-10.5,6.9-26.45.08-55.02-5.88-81.1-5.79-2.41,0-4.95,1.07-7.51.65,2.94,8.19,5.01,16.89,6.87,25.37,1.25,5.71,6.6,22.87,2.07,26.55-3.25,2.64-30.69-1.15-36.59.29-1.26,7.98,10.83,19.51,7.66,26.59-3.2,7.16-18.23-.46-24.03-1,4.62,13.76,10.01,28.55,10.77,42.97-2.7,5.93-33.27,16.02-40.45,17.97-6.35,1.73-19.37,2.5-24.32,5.37-2.83,1.64-8.53,9.53-12.08,12.49-21.07,17.56-41.7,9.46-61.43-5.07l-27.66.02-24.49-2.08c-20.35,11.83-62.63,23.18-80.43,2.56-1.45-1.68-2.67-5.99-3.29-6.44-1.22-.88-23.9-5.01-28.66-6.66-6.08-2.11-23.48-9.68-25.12-15.83-1.27-4.75,4.79-36.26,6.19-43.48,1.77-9.11,6.85-22.34,7.71-30.27.31-2.91-1.12-5.42-.78-8.83.53-5.3,5.9-13.93,6.1-17.61.18-3.18-5-7.21-4.61-11.8.59-6.97,6.94-11.61,8.44-16,1.09-3.17.77-6.91,2.41-10.9s12.04-17.08,11.07-20.43c-21.98-13.75-45.61-24.67-69.32-35.11-1.23-.53-2.05-2.95-1.87-3.99,1.21-6.77,40.02-18.47,47.69-19.98l-.99-25.57c-30.26-3.51-60.92-10.78-89.34-21.76-16.58-6.4-35.67-15.22-49.83-25.94-26.79-20.27-2.26-28.73,18.12-34.95,38.39-11.71,81-15.5,120.63-21.69,1.87-1.53,3.46-14.41,4.56-17.96,9.58-31.04,38.13-78.69,55.42-107.38,3.92-6.5,4.28-9.26,11.35-14.24,41.11-28.94,170.37-18.45,204.91,20.3ZM459.98,135.53c1.86-1.49,7.68-9.26,9.32-11.66,13.42-19.73,23.99-60.07,11.48-81.75-9.31-16.12-43.98-17.02-60.98-17.62-20.29-.71-74.04,3.92-87.02,20.18-17.77,34.9-38.35,68.36-53.73,104.45,9.31-3.38,17.65-6.04,27.46-7.86,46.17-8.58,95.25-6.22,141.99-5.43,3.57.06,7.79,2.66,11.49-.31ZM358.91,141.99c-27.26.57-54.65,3.57-80.62,12.02-2.65,1.5-5.71,17.23-5.38,19.17.27,1.56,1.87,1.82,2.97-.08,3.05-5.29,1.81-16.57,9.64-19.04,22.47-6.3,45.59-7.77,68.67-10.16,1.05-.11,4.81-.41,4.73-1.91ZM538.09,147.08c-3.5-4.94-12-2.75-17.41-4.08,3.78,4.21,12.09,3.68,17.41,4.08ZM498.16,146.08c-4.74.72-10.98-3.65-13.76,2.1-2.18,4.52-1.39,14.76.98,19.39,2.4.52,1.55-2.07,1.56-3.59.02-4.91-2.79-13.41,4.04-15.37,1.89-.54,7.89,1.39,7.18-2.52ZM499.18,162.45c.43-5.31-4.1-5.52-8.18-5.11.37,4.14,4.65,5.81,8.18,5.11ZM502.26,188.06c-3,.61-5.54.31-8.53-.16-64.61-10.14-131.89-9.59-196.77-9.07-44.98.36-123.08,11.65-164.85,27.63-1.57.6-5.12,1.4-5.61,3.08,10.65-2.26,21.25-5.49,32.2-6.18,38.66-2.42,79.95,1.37,118.81,1.52,74.48.28,147.31-7.09,221.15-14.79l3.59-2.03ZM489.97,210.58c.34,1,1.32,3.91,3.07,3.07-.73-1.92.51-6.17,2.27-6.82.64-.24,1.81.57,2.86.24,2.2-.7,2.98-3.23,6.13-1.6l.53-5.1.5,3.06,3.06-1.03,1.55,4.09c2.11-2.14.55-4.97,4.61-4.08l-1.02-4.08c1.08-1.1,5.06,2.93,3.07,4.08h2.04c-.58-4.34,3.7,1.48,3.09-3.06l-4.09-1.02c5.31-1.08,11.13-.69,16.63-.67,1.33,0,2.25.92,2.82-1.38-5.38.74-11.64-.77-16.72-.65-7.33.18-14.55,1.15-21.62,1.62-13.5.9-26.94,3.53-40.49,3.12-.09,2.09-.5,2.04,1.55,2.01,5.39-.08,11.74-.98,17.34-1.04,6.67-.07,3.09-.41,5.34-.97,2.13-.52,5.19.3,7.5,0l-8.13,3.65c-4.3-.27-8.87-.5-13.14-.38-6.94.18-4.3,3.93.78,1.85l-1.02,3.06,4.09-2.03c-.83,7.15-10,5.39-8.2,13.3.75.76,7.01-1.79,6.16,2.04,1.82-.33,2.3-6.17,1.85-6.98-.51-.93-4.73-.77-1.36-3.23,4.15.71,3.1,5.31,3.72,5.99.31.34,5.22.66,6.43,1.24l1.62-2.13c.29,2.54,1.46,3.53,4.11,3.06.58-5.28-5.76-4.7-8.68-3.06l-1.34-1.68.61-2.26-4.93-2.23,2.62-4.06,6.59,3.06-1.02-3.05c2.74-.99,1.63,1.83,2.71,2.05,1.37.28,3.01-.13,4.45-.02-.02-2.09-2.73-4.68,1.02-4.09-.42,2.38.3,4.02,1.03,6.15l-4.09-1.01.5,3.07-5.04-2.03-1.6,3.04c3.95-2.65,5.36,1.85,9.19,2.05l1.04-5.12ZM570.86,199.31h-14.85c-19.94,0-31.72,13.63-46.87,19.72-1.3.52-2.85-.43-3.85.21s0,2.1-.27,2.38c-2.7,2.84-8.16,3.81-11.97,3.3-1.37,1.31,5.39,9.94,7.16,11.25-6.27-.28-11.94-2.79-18.05-3.96-2.58-.49-16.67-1.78-17.6-2.3-1.19-.66-3.01-5.98-8.38-3.96,2.11,2.63,5.56,3.15,8.23,5.58,12.78,11.66,10.65,37.33-6.47,43.78-27.17,10.24-43.07-24.02-24.83-42.23,3.85-3.84,9.48-4.35,10.77-9.19l-112.06,5.16c-3.84.72,3.37,9.23,4.43,11.86,5.35,13.36-.72,33.84-16.77,35.2-32.86,2.8-25.13-64.73,10.75-46.09l.02-3.07c-6.29-.18-12.45-3.47-18.8-1.69s-7.95,10.98-13.44.66l-2.57,1.05,1,3.58-2.02.49c.42-5.32-2.15-4.2-3.97-5.72-1.65-1.37-1.57-4.12-4.22-2.48l1.43-9.25,5.72-2-7.03.12c-.81.53-3.78,16.44-4.11,18.93-1.32,10.16-.76,22.58-2.24,32.58-.54,3.63-3.69,8.01-4.77,11.61-13.36,44.44,30.02,68.05,65.29,80.56,7.74,2.75,16.51,6.12,24.53,6.69l-1.57-2.04,1.07-2.05,11.75,1.03c-.84,3.33,1.87,5.66,4.56,7.21l9.77-4.66-9.2,1.54c-.24-4.65,3.92-3.05,4.58-3.32.73-.3.44-1.55,1.25-1.74,2.28-.54,5.39-.07,7.88-1.14l1.11,2.13,2.57-1.05-2.04-2.02c3.59-1.46,8.35,0,11.27-.48,2.56-.42,6.07-3.27,8.28-4.06,17.09-6.14,28.47-11.82,40.8-25.98,5.52-6.34,20.74-31.09,25.92-33.22,8.91-3.66,40.63,9.99,42.75,8.43-1.66-7.06-.93-14.44-2.17-21.89-2.29-13.76-9.04-28.85-17.24-39.08-1.01-1.26-3.23-.89-3.11-2.5,10.22,3.42,19.64,8.99,29.74,12.74,8.88,3.3,20.09,6.92,29.37,8.51,4.32.74,16.44,2.48,20.18,2.25,2.81-.17,9.44-4.69,11.84-6.61l37.87-37.88c-20.45-11.71-43.83-17.71-67.05-21.02l5.62,4.11ZM441.56,232.29c-8.02,1.81-6.85,15.8,2.6,14.93,8.89-.83,8.47-17.42-2.6-14.93ZM324.84,234.28c-6.03,1.64-5.46,14.92,2.61,14.02,8.54-1.79,4.23-15.88-2.61-14.02ZM710.1,263.82c-5.99.04-13.08,2.13-18.68,4.36-1.09.43-3.05.29-2.81,1.77,6.03-.76,13.5-2.1,19.28-3.79,1.78-.52,2.66.35,2.21-2.34ZM543.2,265.86c-4.88,2-10.04.29-10.25,6.64l2.62.48,2.01,5.16,2.55-2.03c-2.42,4.71-2.64,10.16-2.85,15.22l1.84.64-2.06,2.56h3.08s-1.02,5.12-1.02,5.12c1.43-.18,2.43-3.63,2.82-4.84,2.75-8.56,2.86-20.15,1.25-28.94ZM608.77,394.93l10.74-2.18,86.03,4.27c20.78-37.25,33.66-78.34,47.41-118.61.42-2.77-1.45-4.22-4.13-4.14-9.24.27-32.05,6.66-41.8,9.5-14.02,4.09-26.39,10.49-40.16,15.13-28.72,9.67-58.93,15.14-87.81,24.31-.51,2.4.32,1.64,1.32,2.28,7.97,5.15,20.73,11.36,27.4,17.62,4.2,3.94,4.62,9.36-1.68,10.67-13.15,2.73-28.31,2.57-41.73,4.38-4.23,1.25,2.75,9.46,3.95,11.11,2.63-6.2,5.71,3.54,9.7,4.12l-.5,2.04-4.59-1.04,3.06,2.05-1.93,6.41c4.08,3.9,3.41,13.33,9.16,13.58l8.08,23.6c7.36-.39,11.96-7.23,16.95-11.85l2.54,2.03-2-15.3ZM567.78,328.32c.39-1.86-.5-2.02-1.77-2.82-10-6.27-32.14-14.7-43.76-18.69-12-4.12-24.87-8.2-37.69-8.14-8.75,9.38-15.07,21.04-23.74,30.7-25.68,28.63-54.3,30.81-86.9,46.21-3.27,1.55-7.06,3.32-9.99,5.39-1.21.86-2.51.03-1.92,2.65l36.86-11.27-1.04-3.06,50.62-20.56c.85.05,2.42,6.61,4.17,1.08l.57,1.98,3.01-.93v2.56s3.06-1.55,3.06-1.55c2.33,2.36-8.13,5.58-8.94,5.91-2.22.89-2.57,1.43.15,1.17l108.81-30.55,8.52-.09ZM259.59,314c-2.79-.08-5.46-.22-8.22.47-4.16,1.04-14.93,5.44-19.28,7.34-1.72.75-4.49,1.63-5.26,3.43l117.74,56.32c-15.91-15.03-38.84-22.54-55.77-35.86-5.46-4.3-13.57-11.77-18.61-16.71-3.32-3.25-7.16-10.68-11.62-10.91l1.02-4.08ZM556.52,434.8c.79-3.62-3.85-10.17-1.05-12.82,3.69-3.5,27.25-2.5,27.6-6.09l-26.47-55.38c-3.34-3.83-13.71.9-18.49-.44,3.75,16.05,8.33,31.96,11.81,48.08,1.68,7.78,2.39,16.82,4.43,24.29.48,1.76-.73,2.85,2.19,2.36ZM323.43,413.98c-6.86-7.95-.96-16.28,3.61-23.9l-.31-1.32c-8.43-9.8-17.65-16.04-29.77-20.49l-3.58,11.25c-4.52.9-.73-5.9-1.01-6.13-1.83-.41-2.03.52-2.91,1.68-2.17,2.87-7.97,15.96-8.3,19.41-.19,2.03-.51,4.75,1.98,5.51,1.35-5.07,2.78-9.93,5.67-14.34.79-1.2-.25-2.64,2.53-2.03-3.96,11.57-6.35,23.59-7.15,35.82l9.22-22.51.75,4.34-12.98,51.27c-2.4,3.57-9.79.16-10.3.7l-10.26,68.91c14.21,10.32,32.81,15.24,50.19,16.09.8-10.99,1.45-23.33,3.16-34.22.17-1.06.41-3.83,1.94-3.67l-.57,38.97c8.35,2.47,16.94,3.16,25.55,2.79,1.7-.5,2.5-9.19,2.67-11.57,1.28-18.7.63-38.45,2.07-57.32.74-9.73,3.26-19.41,3.05-29.19l-1,3.5-2.08.06,3.08-25.06c-2.96-.89-1.77,2.36-3.68,2.93-1.8.54-4.17-.29-5.9.27-3.26,1.05-3.09,15.55-4.02,19.58-.44,1.89-.36,3.39-2.77,2.81l1.04-25.89c-.15-.63-8.68-6.82-9.9-8.24ZM458.22,434.81c-2.26-13.62-5.11-27.67-8.48-41.17-.75-3-3.34-15.31-5.47-16.03-8.22-2.11-62.17,10.29-64.87,14.21,1.78,4.93,7.02,7.38,9.39,12.6,2.43,5.36,2.77,10.37.03,15.74-3.79,7.43-12.61,5.32-14.02,8.44l.49,10.3-3.61-12.24-7.66-4.63-7.13-8.72c-2.83,14.64,1.31,29.62,0,44.52l8.22,82.39c6.15.3,12.78,1.76,18.86,2.13,4.14.25,8.65.48,12.77.58,3.24.08,1.04-2.77,1.03-5.17-.13-21.05-.76-42.01-.95-63.03l8.88,40.77,8.11,27.94c2.18,1.57,38.23,1.17,43.91.9,14.57-.68,33.64-2.62,47.97-5.27,3.28-.61,12.39-1.97,14.47-3.96,2.16-2.07,8.16-19.33,9.46-23.3,3.29-10.1,5.69-20.64,8.07-30.97l-15.36-5.11c-6.05,7.73-21.21,3.13-29.85,3.01-1.87-.02-1.28,1.94-2.15,2.14-3.39.78-13.74-4.34-17.03-6.36-7.04-4.33-23.81-24.88-25.82-32.53-2.41-9.15,3.58-13.25,10.76-7.2ZM524.78,405.11c-1-5.45.73-16.08-3.73-19.29-9.68-6.97-26.71-5-37.68-6.34-1.54-.19-2.65-1.81-4.19-1.98-5.4-.6-18.6,6.94-20.48,12.22-1.78,5.02-1.71,14.47.03,19.52.17.5,1.7,1.79,1.54.28l5.14-2.34c-6.49,5.9-3.61,12.93-3.07,20.47,4.01-.39,7-3.44,11.03-4.84,16.88-5.9,33.51-2.92,50.4.75-.79-5.36.79-15.05-4.39-17.62-2.4-1.19-6.49-.72-7.89-2.85l13.3,2.03ZM346.62,386.7c-13.28.14-20.86,5.49-21.49,19.44l6.61-13.35,14.88-6.1ZM343.55,400.01l-8.04,6.83.51,2.45,2.93,1.95c3.12-2.94,2.93-7.57,4.6-11.23ZM279.03,401.03c-2.33-.45-1.62.14-2.26,1.3-3.11,5.62-5.68,12.02.75,16.09.71-6.08,5.45-11.79,1.51-17.39ZM279.05,449.14v-17.92c0-.77-1.7-2.97-1.03-4.61-1.11-1.49-8.92,17.18-3.09,22.04.76.63,1.95,1.13,2.08-.21v-1.35s2.04,2.04,2.04,2.04ZM519.53,430.85l-4.98-1.15,4.12,2.59-5.14,13.79c2.76-1.89,7.5-12.84,6-15.22ZM506.95,436.26c-7.85-5.82-25.85-8.06-34.46-2.88,3.24,8.93,7.66,20.14,16.99,23.93l2.03-4.06,3.26,5.15,4.43-.03.52-4.11c2.6-.67,1.08,4.84,4.07,4.1,1.1-.27,5.21-7.32,4.63-9.21l3.05,2.05c1.3-7.47,1.67-10.35-4.52-14.93ZM571.96,448.11c-.49-.35-2.33-13.13-5.2-10.22,3.29,3.29,2.02,10.82,5.73,13.2,2.02,1.3,5.47,1.02,7.57,3.17v-9.21s-3.07,5.12-3.07,5.12l-2.55-2.98-2.49.92ZM563.68,457.33c4.22-14.29-5.12-23.1-19.02-16.41l2.67,10.27,2.04-9.21,11.28,5.61,3.04,9.74ZM353.79,501.36c-1.25-9.62-.29-19.56-1.03-29.17-.11-1.38-.5-6.2-2.02-6.66l-1.03,28.67,2.03-1.04v3.08s-2.03-1.04-2.03-1.04v6.15s4.08,0,4.08,0ZM339.46,549.49l-11.26-1.03v3.06s4.08-1.02,4.08-1.02v3.5c.36,3.02,6.38-3.39,7.17-4.52ZM473.94,552.14c-.67-.39-.04-1.99-.86-1.63-3.82,3.32-2.19,6.75,2.55,5.1l.14,3.97,3.95,1.16c-.17-5.27-1.94-6.37-5.78-8.6Z"/>
  <path d="M393.4,286.04c-1.54,1.75-7.92,4.46-10.34,4.35-3.8-.17-10.44-5.06-12.4-5.07-1.47,0-6.37,4.98-10.03,4.87-3.12-.1-8.47-4.25-7.85-7.92,3.17.07,5.25,3.24,8.62,3.05,3.77-.21,7.28-5.04,9.27-5.1,4.02-.12,8.43,7.86,17.66,4.31,1.21-.47,4.32-3.29,4.9-3.27,2.02.08,1.39,3.41.18,4.79Z"/>
  <path d="M374.26,270.97l-5.47.95c-5.35-3.71,2.7-7.21,5.02-4.06l.45,3.11Z"/>
  <path d="M409.35,450.47c-.5.72-.24,1.89-.28,2.77-1.5,1.72-2.92-9.36-3.05-10.76-.46-5.08-.96-12.27-1.08-17.34-.1-4.38.04-8.59,1.08-12.85,1.6-.16,1.39,2.7,1.69,3.92,1.45,6.07,5.97,27.55,4.29,32.3-.44,1.24-2.15,1.25-2.64,1.96Z"/>
  <path d="M370.94,444.29c5.3,4.97.97,17.21-7.32,11.9-7.15-4.58.41-18.39,7.32-11.9Z"/>
  <path d="M344.34,461.19c-.5.49-4.77,1.99-5.42,1.93-5.9-.57-5.15-19.9,4.61-15.5,4.47,2.02,3.38,11.05.81,13.57Z"/>
  <path d="M315.91,429.18c.19-2.84,2.01-7.09,1.03-10.75,2.72-.43,2.05.48,2.09,2.58.09,4.78-2,10.17-1.08,15.32l-2.04,8.71c.25-5.25-.35-10.63,0-15.87Z"/>
</svg>