<?xml version="1.0" encoding="UTF-8"?>
<svg id="katman_1" data-name="katman 1" xmlns="http://www.w3.org/2000/svg" viewBox="0 0 841.89 595.28">
  <path d="M471.29,62.02c47.1,47.64,42.2,121.89-.84,170.35-2.26,2.54-9.48,8.07-9.9,10.7-1.21,7.59,7.58,25.72,10.27,33.77,7.42,22.17,13.71,44.24,18.02,67.28,2.05,10.98,3.92,37.5,9.59,45.56,4.47,6.37,24.4,18.29,31.96,20.99,20.52,7.32,41.75,3.8,53.52-15.57,12.31-20.27,8.42-45.99,6.66-68.51-21.46-5.78-37.71-22.06-40.33-44.6-.32-2.76.44-5.99-.17-8.66-.41-1.78-3.89-5.72-5-8.23-5.06-11.42-3.49-24.98,2.64-35.61,2.35-4.07,9.97-14.27,15.11-13.66,6.09.72,2.41,9.68,2.92,13.91.17,1.4.42,3.17,2.12,2.63,4.7-9.44,14.04-15.19,20.17-23.59,10.18-13.95,10.65-27.77,3.89-43.47-4.34-10.08-21.14-27.25,3.55-25.61,25.9,1.72,43.9,29.16,45.19,53.34.64,11.91-3.42,23.29-4.4,34.92,5.04-3.99,8.91-17.44,17.18-13.14,9.45,4.92,3.41,32.04-1.07,39.88,5.75,3.1,6.98,8.3,7.95,14.27,4.26,26.17-11.66,49.17-36.61,56.53-.68,2.88,7.99,17.84,9.74,21.82,18.01,41.14,19.55,86.56-6.45,124.7-32.46,47.62-89.45,61.83-144.47,62.16-24.8,29.76-82.02,49.03-118.54,34.79-15.44-6.02-20.77-17.48-23.86-32.96-7.26-3.05-14.95-4.75-22.27-7.69-7.82-3.14-15.16-7.39-22.62-11.25-2.72-.53-14.96,5.12-19.14,6.27-45.82,12.6-90.12-3.05-123.35-35.07-4.88-4.7-17.31-17.67-17.84-24.09-.63-7.67,9.18-8.34,9.45-11.63.26-3.23-6.81-8.41-3.89-15.59,2.87-7.05,13.53-4.63,16.67-6.86,1.83-1.29,1.23-4.86,2.59-6.96,4.4-6.78,23.78.81,30.15,2.58,4.12-18.02,12.52-33.71,26.49-45.95,1.7-1.49,11.47-8.24,11.7-8.94.77-2.34-4.68-8.61-6.08-11.36-6.04-11.93-6.23-26.08-3.04-38.88,7.84-31.46,42.68-57.45,70.96-69.86.28-1.3-.38-1.46-1.21-2.09-2.48-1.86-8.04-3.48-11.06-5.12-38.81-21.1-83.24-68.04-33.87-105.47,2.45-18.18,5.87-36.44,13.89-53.03C295.62,6.53,414.16,4.23,471.29,62.02ZM259.77,149.26v-20.59l-3.34,16.15c-3.99,6.01-10.88,9.01-15.35,14.8-16.49,21.36,8.64,47.6,25.39,59.79,30.82,22.43,70.38,27.3,106.54,36.49-.28,1.34-1.45,1.37-2.55,1.49-7.98.89-20.46-.07-28.69-.77-6.21-.53-13.48-3.78-19.42-1.01-3.84,1.79-8.58,10.33-10.76,14.24-4.62,8.28-8.99,18.16-11.37,27.22,21.1-21.66,46.78-12.45,62.86,9.42,7.33-5.52,13.09-12.93,20.73-18.11,2.72-1.84,8.7-6.04,5.78.63-20.66,23.19-49.58,40.78-63.64,69.08,15.62,1.52,3.57,20.98,16.71,23.37,7.59,1.38,19.66-1.4,27.27-3.27,20.24-4.97,41.68-15.28,58.46-27.58,3.66-2.68,11.51-10.63,14.5-11.98,2.61-1.18,4.02-.04,3.52,2.75-1.01,5.68-13.61,18.31-18.24,22.25-9.96,8.46-21.26,14.07-33.16,19.26l.8,25.95c.73.75,7.45-3.81,9.06-4.53,51.64-23.13,96.45,33.8,93.14,82.11-.34,5.03-2.41,10.4-2.79,14.93-.07.82-.31,1.47.55,2.02,1.87,1.21,18.19-.1,21.64-.49,68.33-7.77,131.89-61.94,109.81-136.1-6.43-21.58-19.66-41.12-21.14-64.16-.48-7.47.6-15.02.4-22.45-12.11,20.22-4.1,43.71-1.94,65.17,2.98,29.57-2.83,60.36-31.37,75.06-24.26,12.5-46.72,5.84-68.77-7.28-1.82-1.09-12.14-8.83-13.01-7.94-.1,9.11-.3,20.32-2.92,29.08-.32,1.06.41,1.28-1.48,1.07-4.34-8.54-2.12-16.73-2.19-25.4-.28-36.24-14.38-95.84-27.42-129.94-4.5-11.76-12.07-22.81-10.85-35.85-5.77,1.92-11.58,4.45-17.6,5.57-1.09.2-1.72.95-1.52-.78,28.75-17.82,53.81-43.52,61.43-77.56,21.03-93.91-72.74-160.1-158.46-131.99-31.92,10.47-59.17,34.07-66.2,67.99l8.94-20.1c4.53-6.45,9.38-6.77,10.2,2.06,1.26,13.52-7.11,53.57-14.15,65.33-1.23,2.05-9.56,11.49-11.25,11.53-.36,0-1.73-1.54-.75-2.2l6.29-6.97-5.9-7.36,2.2-.36ZM279.58,90.48c-1.32-.24-2.18-.17-3.26.71-2.39,1.94-5.35,13.22-5.55,16.5-.18,2.94-.48,12.46,4.07,8.49,2.89-2.52,7.01-23.82,4.73-25.7ZM263.44,133.82c-1.94-.16-1.22-.08-1.44,1.12-.79,4.27-1.14,9.59.15,13.78.49,1.59,3.06,6.2,4.93,4.94l2.29-6.83c-4.68-2.45-4.91-8.33-5.94-13ZM648.76,231.62c-5.89,6.67-14.72,17.82-21.94,5.41-5.93-10.18,2.15-31.29,1.39-44.04-.96-16.23-11.48-33.45-27.23-38.57,7.92,16.37,11.11,31.99,4.23,49.46-6.1,15.5-18.23,22.81-27.34,35.16-1.66,2.25-6.84,12.35-7.79,12.85-4.99,2.62-13.75-12.15-13.97-16.58-2.51,2.72-3.15,9.18-2.92,12.85.62,9.86,6.72,14.27,8.49,21.66.83,3.47.5,7.98,1.12,11.38,2.71,14.92,14.51,27.8,29.35,31.31,1.29-12.38,4.3-28.31,11.9-38.48,1.75-2.35,4.19-5.85,6.83-2.67,2.2,2.64.84,16.44,1.14,20.92.44,6.63,2.12,13.88,4.02,20.24,1.55,1.85,8.1-.8,10.13-1.65,15.9-6.7,25.46-25.6,21.86-42.47-9.17,9.8-14.75,10.73-9.56-4.79,3.49-10.45,10.45-20.52,10.3-31.98ZM311.24,256.63c-27.61,7.78-59.92,28.68-74.13,54.18-9.47,17-10.76,42.46,8.46,53.03,1.38.76,4.84,3.05,6.15,2.04,1.21-3.4,1.34-7.22,3.96-10.02,4.03-4.29,8.87-1.84,11.13-3.57,1.24-.95,1.53-4.15,2.37-5.72,3.81-7.07,8.81-7.3,16.31-6.85.14-12.1-1.17-26.13-5.53-37.5-.84-2.18-5.41-9.38-5.4-9.94.07-3.08,4.01-.99,5.44.34,3.24,3.03,5.3,8.53,7.54,12.31.3.51.84,2.02,1.62,1.33l22.06-49.64ZM389.89,384.6c-7.72,1.3-15.29,3.65-23.14,4.37-3.81.35-8.82-.63-12.34.16-3.87.87-9.46,6.15-15.03,7.02-11.45,1.79-7.37-5.58-9.16-11.8-1.41-4.89-14.19,3.79-15.33-4.53-2.05-14.97,12.83-37.42,22.45-48.21,2.81-3.15,21.45-20.11,21.46-21.68-6.95-11.07-20.87-22.13-34.59-20.86-10.78.99-22.75,11.86-29.11,20.15-4.04,5.27-5.38,6.14-5.16,13.21.33,10.65.68,21.12,1.45,31.63,1.05,14.27-4.81,10.04-15.48,9.49-1.78,1.31.54,14.02-6.25,15.1-3.17.5-6.42-1.76-8.45.37-1.42,1.48-3.62,9.59-4.17,12.01-4.84,21.26-3.13,46.81,5.55,66.84,14.68,33.87,47.51,56.36,83.26,63.13,2.54-6,3.9-12.38,6.68-18.3,1.75-3.72,8.77-12.98,9.29-15s-.73-10.37-.6-13.81c.91-23.91,13.39-44.84,29.85-61.33.79-9.28-.28-18.71-1.18-27.95ZM279.43,343.55c-4.88.48-10.2,8.86-5.67,12.69,1.78,1.5,11.48,4.26,13.26,3.01,2.24-1.59-.71-16.38-7.6-15.7ZM261.03,357.52c-4.65,1.07-5.56,8.26-3.38,11.89,1.56,2.61,9.11,5.62,11.72,3.81,1.45-1,2.25-18.14-8.35-15.7ZM324.26,363.4c-3.42,1.03-8.76,14.95-3.06,16.01,11.66,2.18,14.1-19.33,3.06-16.01ZM255.36,375.75c-25.85,2.15-49.77,28.34-50.77,54.01-.1,2.5-.3,7.4.91,9.46.77,1.31,9.49,6.38,11.64,8.22,7.96,6.78,16.79,19.92,20.2,29.8.78,2.26,1.47,4.11,1.11,6.6-4.34-2.82-5.81-8.21-8.65-12.3-8.61-12.39-17.05-20.42-30.3-27.79-4.17-2.32-29.47-14.06-32.36-12.11-.71,5.55.28,20.53,7.67,20.62,1.36.02,4.03-1.84,4.08,1.02.08,4.63-5.13,2.75-7.9,3.91-.41.17-6.62,5.45-6.85,5.84-5.05,8.49,7.03,24.07,14.39,28.16-.43-5.24-3.34-11.85,3.51-14.14,9.76-3.27,25.66,10.94,27.98,20.16,1.17,4.65-.82,6.19-2.44,10.15,23.91,8.69,49.78,8.57,73.46-.79,1.52-2.21-4.88-6.51-6.56-8.37-23.81-26.3-29.14-56.33-25.71-91.19,1.05-10.71,4.19-20.84,6.61-31.26ZM345.8,386.78c-3.65.05-6.92-1.84-9.93-3.66-1.51.09-2.08,8.86.72,9.27,1.53.46,10.76-4.18,9.21-5.6ZM367.13,469.5c-.33,3.4.24,7.21,0,10.66,7.94-8.56,15.59-12.01,22.43-.01,11.79-14.87,22.48-5.01,26.86,9.2,2.05,1.7,4.26.14,6.89.41,10.15,1.05,7.96,11.34,9.48,18.51,1.03,4.87,3.91,9.02,2.73,14.54l-4.4-8.08c-2.18,10.11-4.44,20.48-10,29.35-.84,1.35-1.84,3.48-3.61,3.74l6.98-31.62c-4.42.75-5.7,2.4-10.22.28-7.48-3.51-5.88-10.53-8.48-12.84-2.43-2.17-13.13-3.34-16.42-6.45-2.47-.4-4.97,2.28-7.55,3.17-6.47,2.23-11.75.67-16.59-3.99-1.81-.42-7.22,11.14-8.01,13.21-7.5,19.83-4.84,42.8,18.59,48.3,17.44,4.1,40.55,2.16,54.92-9.36,2.71-2.17,9.85-10.91,11.79-11.74.9-.39,1.38.16,1.08,1.08l-6.61,11.41c60.34-18.21,70.38-119.49,7.73-141.19-38.8-13.44-74.09,25.31-77.59,61.41ZM489.2,519.13c59.88,1.64,129.81-27.2,141.91-91.91l-7.36,15.8c-25.59,44.95-79.36,66.49-129.66,65.2l-4.9,10.91ZM163.96,457.87c4.67-3.79,1.2-5.64-.32-9.15-.76-1.76-1.31-5.29-2.35-6.47-1.85-2.11-7.58-.64-10.34-1.05-.97.92,6.81,21.71,13.02,16.68ZM158.95,463.33c-3.83-1.3-6.41-.9-10.06.47-.93.35-1.96-.33-1.62,1.28l12.49,9.2-.81-10.95ZM369.57,495.38c2.91,3.19,13.71,2.12,15.56-1.99,1.55-3.44-.45-13.41-4.05-15.07-4.8-2.21-16.77,11.31-11.51,17.06ZM407.35,498.34c5.38-4.48.63-19.3-4.73-20.26-4.92-.88-15.44,11.86-10.14,16.09,1.23.98,11.08,4.51,12.81,4.75.86.12,1.38-.02,2.06-.58ZM204.44,502.79c4.02-4.02-4.67-13.79-7.9-16.38-3.56-2.85-9.15-6.3-13.66-4.08-4.63,8.69,15.4,26.62,21.56,20.46ZM419.14,495.79c-16.12,2.73-4.85,23.43,3.93,16.43,3.19-2.55,3.33-8.83,2.89-12.57-.52-4.57-2.7-4.55-6.83-3.85Z"/>
  <path d="M432.34,176.98c-1.9,2.07-12.39,3.44-15.67,3.81-13.72,1.57-31.72,2.17-45.4.73-6.77-.71-7.6-3.19-8.96-9.43-5.34-24.53,4.04-66.35,29.32-77.38,29.31-12.79,44.01,25.03,45.39,47.53.39,6.35-.68,30.38-4.67,34.73ZM397.11,99.41c-14.56,1.98-22.67,34.29-5.99,35.85,18.15,1.7,24.55-38.38,5.99-35.85ZM428.72,174.83c6.87-21.83,5.08-48.7-8.64-67.48,3.66,15.13,4.47,33.27,1.12,48.56-1.78,8.13-5.07,14.62-9.95,21.29l17.47-2.37ZM417.13,156.62c-7.76,2.68-11.49,11.29-20.28,12.43-10.4,1.35-15.04-4.68-17.63-13.87-.69-2.44.43-5.05-2.17-6.64-1.99.75-2.35,4.93-3.28,5.53-2.98,1.95-8.09-1.1-8.84,6.59-.84,8.61.89,22.23,12.49,16.15-1.54-3.8-3.13-7.71-3.59-11.83-.11-.98-.77-4.48.64-4.69-.16,4.07,3.68,15.71,7.38,17.26,1.94.81,19.59.68,22.07.04,6.36-1.66,12.85-14.7,13.21-20.98Z"/>
  <path d="M246.19,181.63c1.63-.37,4.2,6.48,5.18,8.02,3.76,5.89,11.85,15.64,18.2,18.57,3.59,1.66,12.96-.7,18.43-.05,7.32.86,15.43,6.32,22.2,7.21,9.61,1.26,28.84-7.25,41.13-8.02,16.19-1.01,28.16,4,44.67-2.39,2.42-.94,8.37-5.18,10.14-3.91,4.05,2.9-6.24,7.33-8.14,8.12-17.38,7.19-30.15,2.13-47.41,3.33-16,1.11-30.34,10.85-45.8,6.82-5.43-1.42-11.28-5.35-16.77-6.03-5.63-.7-11.1.86-16.12.74-6.14-.15-18.39-13.54-21.86-18.65-1.46-2.15-8.38-12.73-3.85-13.76Z"/>
  <path d="M398.01,82.34l-10.78,4.3-13.48,8.94c-1.77-2.05,6.5-9.25,8.31-10.44,2.61-1.72,12-5.72,14.72-4.92.93.27,1.43,1.15,1.23,2.11Z"/>
  <path d="M315.42,188.02c-1.04,1.17-9.81,5.61-10.79,4.63-1.18-4.05,7.85-9.91,10.56-8.04,1.51,1.04,1.39,2.11.23,3.41Z"/>
  <path d="M285.5,74.26c.71.58,1.03,11.24.74,12.86-.23,1.26-.79,2.07-2.2,1.84l-1.4-13.54,2.86-1.16Z"/>
  <path d="M264.91,183.82c-3.68.5-4.89-9.06-2.56-9.55,2.77-.59,2.8,8.11,2.56,9.55Z"/>
  <path d="M380.23,515.63c20.55-1.34,30.56,28.09,10.42,34.75-24.55,8.13-38.27-32.94-10.42-34.75ZM377.23,520.78c-2.91.59-6.79,4.29-7.54,7.16-4.9,18.7,24.42,25.84,26.81,10.64,1.84-11.73-7.79-20.14-19.27-17.8Z"/>
  <path d="M415.59,417.74c.72,6.79-14.47,21.55-20.15,21.33-6.15-.24.69-9.87,2.58-12.19,3.61-4.44,11.58-11.65,17.56-9.13ZM408.11,421.46c-3.23.45-10.99,8.54-7.93,10.58,5.06,3.36,14.91-11.56,7.93-10.58Z"/>
  <path d="M235.31,385.44c5.72-.97,1.63,5.65.06,8.19-1.84,2.98-12.57,15.22-16.09,12.69-.71-.6-.75-1.4-.75-2.25,0-4.97,11.8-17.79,16.78-18.63ZM230.9,390.6c-2.83.72-8.84,8.45-5.3,9.41s12.8-11.31,5.3-9.41Z"/>
</svg>