<?xml version="1.0" encoding="UTF-8"?>
<svg id="katman_1" data-name="katman 1" xmlns="http://www.w3.org/2000/svg" viewBox="0 0 841.89 595.28">
  <path d="M407.53,18.44c1.91,2.1,12.78,15.68,14.12,15.74,1.22.06,6.64-1.84,8.51-2.18,16.58-3.04,31.78-.59,46.9,6.58,4.7-2.8,8.99-6.26,13.35-9.53s4.73-5.89,11.13-4.22c3.73.98,11.91,5.93,11.45,10.26-.9,8.36-9.63,21.22-12.22,29.63.63,6.96,7.01,17.39,2.55,23.91-1.18,1.72-4.14,3.51-4.97,5.24-.92,1.92-1.1,5.95-1.81,8.4-1,3.43-4.25,9.78-4.09,12.81.2,3.86,2.02,6.6,1.3,11.14-1.88,11.94-20.61,22.51-30.5,27.34,1.6,1.69,4.07.22,5.99.28,20.2.58,26.97,12.92,23.51,31.67-.84,4.54-.78,4.73-.88,9.33-.08,3.99-2.95,9.01-2.88,12.19.05,2.8,7.41,24.18,8.99,27.52s7.16,8.45,9.71,11.69c7.41,9.4,14.21,19.4,22.4,28.16,7.71,8.24,11.75,9.14,21,14.5,10.36,6,19.72,13.47,28.39,21.69,1.97,3.43-1.72,9.55-1.53,12.67.13,2.09,3.08,4.58,2.98,7.76-.13,3.94-5.44,10.06-7.18,13.76-.74,1.57-1.12,4.55-2.06,5.72-1.09,1.35-3.39,1.14-5,1.81-4,1.66-8.13,6.81-13.12,6.09-1.5-.21-7.35-2.38-8.17-3.52-.72-1.01-.39-2.59-1.46-3.4-1.8-1.36-5.15-1.73-6.79-2.44-1.49-.65-2.67-1.59-4.03-2.29-1.52-.79-3.82-.59-4.21-2.6-.19-.97-.17-4.33.01-5.31.4-2.19,3.46-4.4,3.77-5.47.45-1.55.38-5.61.64-7.62.18-1.41,1.33-3.49.7-4.68-5.51-2.76-9.35-7.47-11.69-13.13-.83-2.01-1.18-4.44-1.96-6.3-1.75-4.17-15.87-17.37-19.93-21.88-5.9-6.56-16.42-17.31-19.43-25.3-1.3-3.46-1.31-7.41-3.07-10.55-.44-.78-3.69-5.07-4.47-4.51-1.16,8.63,1.35,18.52,4.93,26.43,1.02,2.25,4.26,8.71,5.77,10.27,1.11,1.16,2.75,1.58,3.85,2.47,36.73,29.77,38.37,105.84,10.39,142.57-1.19,11.04-4.94,22.34-5.51,33.38-.53,10.2.23,10.94,7.31,17.53,9.95,9.27,20.3,14.73,31.28,22.2,1.44.98,2.98,2.99,4.57,3.69,1.37.61,13.44,2.86,15.45,3.03,3.25.26,6.9-.37,10.09.12,3.02.47,10.27,4.36,12.29,6.67,3.08,3.52,5.66,12.88,3.54,17.19-2.39,4.88-4.94,2.8-9.33,3.31-3.34.39-6.94,1.52-10.23,2.31-1.1.78,1.36,4.51-2.6,6.73-7.54,4.24-19.15,1.67-27.11,1.11-8.39-.59-18.17,1.03-25.26-4.88-3.95-3.29-4.6-7.9-6.97-11.99-3.62-6.24-15.42-18.28-23.16-17.14-.89.13-1.6.82-2.49.92-9.86,1.18-20.77-4.64-21.6-15.29-.59-7.58,8.98-19.87,11.56-27.82,1.67-5.15,3.23-23.67,2.5-29.02-.19-1.39-4.51-10.75-5.32-11.25-7.83.5-15.09,3.61-22.75,4.98-7.81,1.39-17.72,2.41-25.64,2.12-4.56-.17-9.39-1.38-14-.91l-.92,1.03c-9.91,22.73-17.97,47.98-18.85,73.04-.23,6.64,1.74,14.9.92,20.86-.42,3.04-3.7,6.37-3.82,8.33-.07,1.01,3.2,13.15,3.77,14.18.97,1.76,5.43,4.79,7.11,6.99,5.15,6.77,4.46,12.53.86,19.73-2.62,5.25-7.49,11.07-13.57,12.2-4.28.79-12.5-2.99-15.92-5.74-2.43-1.95-6.47-7.57-10.25-5.36-.48.28-4.58,4.14-5.33,4.88-1.94,1.9-3.91,3.8-5.19,6.23l-6.22.11c-.3-1.13.26-.81.62-1.11,3.59-3.07,13.72-9.92,14.83-14.31.25-.99.08-2.04.12-3.05,1.2.62,1.73,2.28.97,3.4h3.88s.97-4.86.97-4.86c-.53,5.25,5.19,10.82,9.4,13.21,1.32.75,5.66,2.94,6.9,3.31.91.27.64-.15.72-.71.38-2.88-.99-8.22-.39-10.13.29-.94,3.13-2.68,4.28-2.76-.43,1.3-2.33,1.61-2.95,2.63-1.48,2.46.64,8.14.1,11.15l.73.73c7.29,2.4,9.65-10.43,10.33-15.43l-5.29-1.51c11.05-1.11,4.45,7.4,3.41,13.12.88-.73,1.83-2.16,2.43-3.15,4.3-7.04,7.06-12.72,1.44-19.93-3.1-3.97-6.87-5.21-9.96-8.03-2.26-2.06-3.38-6.75-8.01-5.36,1.39-1.99,3.46-.99,5.12,0,.69.41,3.74,3.37,4.12,2.93-.94-7.23-1.92-14.54-4.37-21.39,1.15.78,1.97,2.68,1.95,4.04l1.21.35c5.38-5.08,2.4-12.69,2.17-19.2-.7-19.7,4.18-44.69,11.37-63.06,1.46-3.72,13.06-28.59,14.65-30.08,24.81-23.32,33.71-45.92,32.37-80.47-.47-12.15-2.37-30.74-6.59-42.02-14.77-39.43-53.39,7.99-63.04,26.89-1.44,2.83-6.54,13.83-5.01,16.37.57.96,6.81,4.62,8.03,6.07,2.73,3.22,1.39,13.66,1.98,17.96.63,4.63,4.63,6.03,3.8,12.64-.28,2.24-3.45,8.77-5.65,9.42-4.01,1.19-7.76-2.43-11.32-3.3.3,7.46,1.22,16.06,3.88,23.1.68,1.8,1.81,3.23,2.46,4.84,2.37,5.91,1.73,13.37,1.93,19.7-.85.11-.46-1.1-.48-1.69-.02-.45.3-5.83-.97-4.14-.37,5.04-4.07,9.55-5.13,14.56-1.48,7-1.88,15.21-3.28,22.49-2.81,14.63-7.63,32.38-13.1,46.22-1.76,4.45-8.64,15.5-8.63,19.08,0,3.77,2.04,3.49-.57,8.18-2.13,3.82-8.94,11.2-10.01,14.79-.2.68-.14,1.38-.12,2.07,3.63.79,6.63-1.98,9.59-2.81.46-.13,1.72-.47,1.59.38-8.36,3.5-16.09,9.36-17.51,18.96-.86.12-.49-1.1-.37-1.58.37-1.44,1.77-5.62,2.43-6.81.93-1.68,3.24-3.19,4.51-4.73.32-.39,1.29-.98.48-1.47-7.37,2.54-15.68,5.85-17.03,14.57-.75,4.83,2.42,13.47,7.52,14.89,7.23,2.01,4.11-.96,3.18-5.12-.79-3.52-1.91-7.05,2.97-7.27,1.83-.08,7.88,2.35,8.71,3.86,1.46,2.65-1.75,10.07-1.2,13.32l-1.46.29c-.12-.96.76-1.24.95-2.2.4-1.94,1.31-9.35.63-10.81-1.03-2.21-8.75-5.29-10.09-2.55-1.17,2.39,2.62,14.46,6.56,15.08,0,.83-2.7.58-3.06.49-.51-.13-.47-1.18-1.12-1.4-2.14-.72-6-.08-8.89-1.34-9.29-4.05-10.23-20.44-4.41-27.65,2.64-3.27,6.63-4.12,9.24-6.8,1.69-1.74,2.8-4.44,4.37-6.33,2.11-2.55,9.17-9.2,9.98-11.9.92-3.1-.81-6.22-.15-9.39.78-3.74,7.24-14.42,9.21-18.99,5.39-12.48,9.1-25.87,11.85-39.2s3-25.98,8.96-37.73c-.04-1.19-1.77-1.43-2.67-2.15-2.85-2.29-5.68-4.96-8.34-7.46-2.8-2.64-9.62-11.02-12.15-12.41-1.62-.89-3.76-.82-5.56-1.74-1.42-.72-2.86-2.86-3.73-3.11-1.94-.55-6.92,1.54-9.37.16l-16.51-8.29c-2.88-2.88-1.04-7.91-2.79-10.78-.66-1.09-2.4-1.68-3.31-2.57-4.52-4.49-7.09-14.89-4.86-20.89,1.62-4.36,10.84-15.49,10.96-18.25.08-1.85-1.45-5.38-1.85-7.42-3.3-16.89-4.85-34.13-4.02-51.4.34-7.13,1.84-14.31,2.42-21.4,3.42-41.78,1.78-125.85-55.18-130.04-3.35-.25-7.95-.56-10.69,1.45-12.96,9.53-21.45,32.9-23.09,48.38-3.48,32.72,4.95,66.6,23.62,93.54,14.68,21.18,40.51,40.3,42.98,67.88,1,11.22.9,23.18-11.77,27.11-20.69,6.42-45.01-17.04-55.91-32.36-31.68-44.51-44.04-104.39-29.89-157.49,8.66-32.52,24.65-50.89,55.11-64.49,36.12-16.13,76.29-.32,96.64,32.06,15.87,25.25,16.64,55.29,19.97,84.08l1.21.48c.04-.43.19-.89.48-1.2,9.58-10.13,30.71-31.83,30.15-46.19-.32-8.38-2.38-12.17.23-21.17,3.03-10.42,14.37-13.49,24.22-12.52l12.85,4.68,1.04-.73c-.42-2.01,1.17-5.8.11-7.25-.7-.95-7.7-4.89-9.42-6.13-19.43-14-27.27-28.32-21.49-52.91,1.28-5.44,4.51-10.76,5.75-15.64s-2.85-17.85-3.91-23.62c-1.2-6.51-1.97-13.14-2.97-19.68.71-4.52,10.18-10.61,14.37-11.43,4.34-.85,6.02,2.68,8.6,5.51ZM481.12,111.4c.26-.32.05-1.36.56-2.11,4.62-6.88,12.85-13.01,17.44-20,3.89-5.92,2.19-10.22.34-16.69-8.42-29.44-37.74-43.24-66.97-37.78-1.5.28-10.1,2.39-10.09,3.51,2.18,3.15,4.47,5.29,7.26,7.81.76.68.4.55-.21,1.17l-2.94-1.91-25.99-28.98c-1.1-.57-10.48,4.75-11.45,6.08-1.3,1.77-.57,4.39-.64,6.53l8.69,48.19c-1.55.23-1.77-3.98-1.96-4.13-1.33-1.1-1.52,1.11-1.83,1.79-8.16,17.51-9.57,31.68,3.79,47.07,10.37,11.95,18.49,15.93,31.93,23.5,5.52,3.11,14.29,9.64,20.32,9.83,6.42.21,20-7.3,25.4-11.1,9.47-6.67,17.52-14.58,14.23-27.34-1.25-.19-.76.11-1.02.68-.88,1.95-1.17,4.78-3.18,6.06-2.22,1.41-11,3.39-13.98,4.03-.35.08-1.19.71-1.26-.31-.08-1.21,2.51-5.52,3.38-6.69.46-.62,1.45-.84,1.97-1.57,1.27-1.79,2.64-5.26,4.09-6.61.77-.72,2-.91,2.11-1.05ZM496.79,61.43c1.24.95,4.33-6.15,4.79-7.12,3.03-6.44,5.1-13.36,7.85-19.92.05-1.29-2.11-2.67-3.24-3.51-2.1-1.55-5.66-3.94-8.22-2.55l-18.21,12.95c-.39,1.29,2.45,2.48,3.43,3.37,5.18,4.73,10.65,10.41,13.61,16.78ZM482.69,123.17c1.2,1.39,4.83-6.7,5.09-7.3.99-2.22,6.42-16.93,5.59-17.98-3.38,1.69-4.36,5.63-4.38,9.24l-1.21-3.39c-4.06,3.8-4.51,9.47-7.11,14.27-1.16,2.14-2.68,4.58-4.63,6.06-1.51.29-3.82-3.73-4.55,2.02.67.65,9.16-1.82,10.23-3.14,1.36-1.69,4.33-10.04,5.36-12.63.3-.75.59-1.35.46-2.21.85-.12.5,1.13.43,1.64-.27,1.94-1.48,5.1-2.29,6.95-.53,1.22-3.63,5.75-3,6.47ZM302.3,332.23c2.56-3.85,4.71-7.83,6.74-11.98,7.51-15.34,14.55-32.6,19.65-48.9,2.57-8.21,4.41-19.03,7.4-26.63,1.17-2.97,6.36-6.93,6.94-8.62,1.68-4.88-.27-18.87-.86-24.68-2.53-24.97-6.9-48.73-21-69.92-20.02-30.09-58.82-43.63-92.39-27.42-1.8.87-14.64,8.19-7.46,9.12,7.91,1.03,16.7-.76,25.16.61,33.24,5.38,46.09,42.65,50.4,71.64,6.05,40.69-6.13,81.04.68,121.36.37,2.21,2.74,13.87,3.55,14.93.37.49.53.64,1.18.51ZM227.92,124.15h-7.05c-.22,0-2.73-1.54-2.93-1.95-.65-1.31.18-2.29.75-3.4-.8-.6-4.47,2.11-5.31,2.71-35.5,25.48-42.84,70.61-40.9,111.8,1.89,40.22,26.9,106.11,64.84,125.26,11.77,5.94,28.32,6.55,29.98-10.06,3.57-35.72-29.36-57.27-45.78-84.51-19.46-32.27-26.2-78.5-12.31-114.09,4.5-11.52,9.88-15.91,17.94-24.33.45-.47.97-.57.77-1.44ZM433.58,214.58c9.05,1.39,25.33-5.9,29.42-14.58l4.13,6.55c7.93,6.83,13.68,10.88,18.71-1.22,2.98-7.17,3.08-11.02.86-18.35-.97-3.2-2.56-6.16-3.53-9.35,2.72,1.68,3.01,6.06,4.49,8.39.38.6.45,1.03,1.34.84,2.08-8.81,2.66-19.93-5.87-25.48-5.63-3.66-13.71-5.25-19.89-2.47,3.5,2.73,7.9,4.45,10.69,8.02l-6.95-3.84c-3.64,3-7.78,4.12-7.15,9.92l-.96.23-.98-1.44c2.11-.14,1.18-2.22,1.82-3.78.82-2,4-3.31,5.01-4.72,1.39-1.93-3.07-2.67-4.36-3.47-1.7-1.04-4.01-4.68-6.34-2.4l2.9,4.86c-2.72,1.88-3.78-4.6-4.46-5.02-8.22,1.4-12.46-3.9-19.12-6.9-.62.46-.14,1.74.12,2.31,1.41,3.09,6.82,9.14,10.32,9.86.12.86-1.09.48-1.58.37-1.89-.41-3.62-1.67-5.7-1.35-.13-1.08,1.82.2,1.45-1.2-.4-1.52-4.16-5.38-5.26-7.39-.69-1.26-.98-3.57-1.68-4.4-1.47-1.73-7.37-3.27-9.35-4.99-1.29,3.55-1.31,6.37-3.43,9.69-.51.79-1.9,1.58-2.09,2.32-.38,1.48,2.72,4.44,1.88,6.46l-5.33-8.04c-17.49-11.4-33.92-3.22-32.12,18.51.05.66.66,4.72,1.47,4.11,1.96-8.41,10.64-14.06,18.44-8.47,6.03,4.33,5.87,12.24,8.07,18.67,3.23,9.42,14.49,26.11,25.03,27.72-7.05-1.24-12.13-5.86-16.78-11.18-.81-.93-4.55-7.09-5.58-6.33-.24,1.36-1.08,2.32-1.41,3.7-2.16,8.82.58,20.83,6.99,27.42,3.9,4.01,8.42,5.03,13.86,4.12-2.53,2.52-6.03,1.54-9.23,1.71,1.41,7.3.13,14.25-4.39,20.16-4.94,6.47-9.52,10.16-13.68,17.92-4.07,7.58-.81,3.65,3.71,3.72,12.06.17,18.31,13.27,21.03,23.24,2.22,8.11,3.05,16.6,4.28,24.91.81.12.95-.63,1.3-1.13,6.18-9.01,6.59-19.09,11.5-28.37,7.2-13.61,20.01-19.4,34.07-11.06l8.8,6.76c-8.58-17.81-18.72-30.99-17.5-52.01.51-8.76,5.64-20.89-5.84-24.56.58-1.4,3.61.72,4.34,1.25,6.79,4.93,3.73,12.6,4.17,19.66,3.87-6.55,6.47-13.92,8.02-21.4-7.41,2.24-14.8-5.29-18.23-11.17-6.08,8.33-18.39,14.04-28.69,13.14-.68-.06-.68-.5-.72-.51ZM351.62,364.04c-1.34,2.32-3.19,6.91-1.91,9.53,1.01,2.06,10.18,6.25,12.5,5.72,4.97-1.13,5.77-7.12,5.26-11.33-.3-2.46-3.16-5.41-3.79-8.37-.8-3.76.08-13.45-1.35-15.66-1.18-1.82-4.8-2.98-6.51-4.19-2.92-2.08-8.05-5.66-10.47-8-1.04-1-1.97-1.9-2.42-3.33.35-15.33,3.22-30.58,7.87-45.16,2.87-9,6.76-17.68,9.86-26.6,1.27-3.65,1.99-8.58,3.29-11.78.69-1.68,6.39-9.14,7.89-11.07,10.57-13.59,21.28-26.56,31.39-40.57,2.04-2.83,4.49-3.21,3.87-7.36-.67-4.5-3.31-13.59-6.84-16.49-6.86-5.64-13.17-.7-16.36,5.98-3.93,8.23-6.71,17.18-11.38,25.09-4.02,6.81-12.29,17.27-17.72,23.12-1.58,1.71-6.61,5.56-7.31,6.79-.88,1.55-.1,3.05-1.01,4.83-1.45,2.85-4.91,3.88-6.61,8.46-10.42,28.01-16.56,58.3-31.83,84.37-3.81,6.51-8.58,12.62-12.56,19.04-1.14,1.84-5.51,8.26-5.8,9.76-.57,3.03.61,5.83,1.56,8.61.52,1.52,2.66,6.99,3.45,7.98s2.87,1.49,3.63,2.94c1.37,2.64.68,9.18,2.76,10.86,5.61,2.08,10.5,6.6,16.54,7.28,3.15-.43-5.54-4.03-5.92-4.29-3.13-2.1-2.22-4.59-4.04-7.15-1.12-1.58-3.7-2.7-5.13-4.11-2.86-2.84-5.92-8.04-5.82-12.17,1.03,2.27,1.57,4.7,2.85,6.88.78,1.33,7.16,9.19,8.58,7.71.59-2.62-.97-4.83-1.43-7.08-.09-.46-.37-1.81.45-1.67,2.32,3.93,1.17,12.07,4.62,15.08s9.99,4.53,13.54,6.88c1.27.84,2.04,2.23,3.39,2.93,2.07,1.07,3.5.54,5.34.98,3.71.9,4.5,3.22,9.71,2.19.55-.11,1.66-.24,1.33-1.08-1.04-1.52-2.77-1.11-4.4-1.93-2.78-1.39-6.65-4.07-8.71-6.36-1.25-1.39-3.7-5.95-4.6-6.58-1-.7-2.23-.16-3.23-1.15-1.27-1.25-1.17-3.93-1.81-5.49-.54-1.3-3.26-4.13-3.43-4.86-.18-.81.62-2.79-.08-4.03,1.45-.25.77.38,1.02,1.14,3.14,9.35,7.4,8.42,11.14,14.17,1.71,2.62,1.29,4.33,4.11,7.07,3.44,3.33,4.85,3.53,9.14,4.47,1.28.28,2.99,2.1,3.98,1.83,1.1-2.15,2.15-6.22,1.27-8.54-2.16-5.72-10.18-8.19-12.43-15.28-1.28-4.03-.93-5.96,1.3-9.39.66-1.02,6.54-8.33,7.06-8.49,4.64-1.4,5.91,2.7,7.32,6.05.17,1.32-.92,1.44-1.14,1.82ZM408.76,190.29c-1.35-.31-2.1.83-2.88,1.69-3.13,3.46-5.59,8.58-8.82,12.12l-.34,1.34c4.19,15.56,5.52,34.25,20.57,43.54,1.68-.12,3.52-7.28,3.54-8.87,0-.97-1.6-8.76-1.96-9.37-.19-.32-3.1-2.1-3.77-2.79-6.13-6.39-8.88-17.55-7.74-26.21.57-4.33,4.44-6.95,1.39-11.44ZM371.53,276.62c3.75,3.53,7.91,6.69,12.33,9.37l1.08-.18c2.95-3.03,8.86-5.45,11.47-8.5,2.88-3.37,5.23-9.79,8.1-13.78,1.5-2.09,9.22-9.6,9.42-10.5.27-1.22-6.36-7.96-7.55-9.54-3.41-4.51-5.44-8.39-7.06-13.84-.64-2.16-4.18-20.43-5.35-20.41-5.72,7.51-11.94,14.67-17.73,22.13-2.68,3.46-9.05,10.7-10.64,14.16-1.35,2.94-2.33,7.77-3.47,11.11-.59,1.71-2.76,5.69-2.36,7.17.12.45,1.03,1.4,1.41,1.91,2.23,2.97,7.54,8.25,10.36,10.9ZM532.93,281.99c-8.9-8.38-16-18.23-23.52-27.77-5.04-6.39-11.15-12.05-14.46-19.58-3.4-7.74-5.4-16.15-8.62-23.95l-9.97,25.01c.13,1.39,4.14,5.87,4.95,7.72,2.36,5.34,1.97,8.74,5.74,14.68,9.17,14.46,25.25,27.28,36,40.81,1.62,6.22,3.46,12.38,8.78,16.5,1.39,1.08,5.13,2.53,5.75,3.49.36.57,1.37,4.97,1.34,5.71l-1.29,4.69c-.68-1.87,1.61-5.77-.97-5.83-.76,5.31-.72,6.86,2.03,11.34,2.29,3.73,5.62,7.22,8.18,10.79,1.32.61,3.24-5.42,3.37-6.38.72-5.42-1.97-9.79-1.41-15.51.34-3.44,3.01-7.92,2.93-10.68-.1-3.48-3.7-4.94-5.37-7.55,2.56,1.09,5.63,3.89,6.21,6.67s-1,4.44-1.84,6.93l6.53-.95c.99.47.22,1.38.64,2.25.73,1.53,2.94,3.59,3.04,5.31.17,2.83-3,3.23-4.3,4.9-1.23,1.56-2.02,5.8-3.11,6.86-.46.45-1.48.29-1.87.92-.55.88-.27,2.57-.93,3.57l6.8-1.7c1.73-5.13,2.9-6.99,8.76-7.04-2.89,1.6-2.42,9.05-3.64,10.21-2.29,2.18-4.29-.57-6.3-.52-5.53.14-4.15,4.38-5.14,8.3-1.37-.55-2.63-1.59-3.65,0l-.02,1.49c.15.22,4.3,1.75,4.95,1.9,4.97,1.14,11.83-5.7,16.47-7.29l7.94-15.43c-.69-4.59-2.5-7.39-1.81-12.48.34-2.53,2.7-5.6,1.16-8.03-1.43-2.25-15.39-12.34-18.54-14.54-7.76-5.4-18.39-8.82-24.79-14.84ZM368.85,303c2.35-3.15,4.99-6.23,7.59-9.18.97-1.1,4.44-3.71,4.1-5.01-.22-.82-6.72-5.12-7.96-6.18-5.41-4.61-9.93-9.96-14.84-15.06-.51,3.55-5.29,12.14-4.78,15.19.34,2.06,5.92,9.92,7.49,11.99,1.17,1.53,5.51,7.03,6.74,7.84.5.33,1.07.74,1.66.4ZM450.11,419.74c12.14-1.42,22.48-8.52,31.12-16.76,25.09-23.93,29.5-64.71,15.97-95.72-6.38-14.63-22.47-33.11-40.12-23.73-12.87,6.84-13.96,23.07-18.89,35.08-.87,2.12-5.37,9.15-5.49,10.08-.08.67.26,2.02.41,2.8.13.68-.47,1.43.7,1.22l4.38-4.86c.12,3.38-4.4,6.33-4.99,9.59-.29,1.6-.13,3.58-.13,5.25-.15,30.3-6.68,45.5-26.47,67.81-1.78,2.01-4.89,4.28-6.3,6.35-1.33,1.95-2,4.88-3.19,7.01.19.97,8.51,1.66,9.95,1.73,13.72.7,26.79-1.5,39.63-6.11,2.49-.9,6.17-3.07,8.52-3.64.92-.22.97.21.24.73l-5.34,3.16ZM455.94,482.95c.76-.85.58-1.28,2.33-2.29,10.95-6.3,25.93,5.56,17.52,17.54-.55.79-2.33,1.25-1.64,2.75.55.77,3.37.38,4.66.7,4.12,1.04,10.85,5.95,13.87,9.01,7.92,8.02,8.53,23.83,22.83,23.83h9.48c-.55-1.85-2.41-3.27-2.81-5.21-1.24-6.1.91-11.74,6.21-14.97l-2.43-4.12c3.48,3.21,8.97,2.4,13.71,3.55,3.26.79,7.62,2.44,10.6,3.98,1.2.62,3.25,2.53,4.12,2.69,1.56.3.68-3.69-.24-4.38,2.89.31,1.74,3.24,1.69,5.33l5.47,4.29,13.4-1.35c1.94-.99-1.83-10.39-2.8-12.17-4.59-8.44-12.77-6.88-20.79-7.9-1.6-.2-3.37-1.05-5.03-1.29-2.26-.32-8.2-.02-9.91-.79-.61-.27-4.35-4.03-5.69-5.01-13.09-9.55-27.21-15.12-38.33-28.28-.66-.79-2.69-3.56-2.93-4.36-1.27-4.25,1.61-17.46,2.2-22.64.85-7.42-.13-13.18,3.06-20.27,7.57-16.83,16.75-29.89,18.33-49.25,2.44-29.93-2.22-66.18-23.98-88.56-.19-.19-1.6-1.24-1.29.07,15.29,26.27,24.75,55.01,15.79,85.33-3.89,13.17-11.05,25.07-20.61,34.86l4.81,17.16-2.29-5.24-2.57-9.83c-.95-.81-5.52,4.04-6.57,4.85-4.46,3.45-9.11,6.48-14.37,8.59-.3,1.45,4.34,9.71,4.77,12.7.46,3.18-.1,8.19-.36,11.54-.84,10.56-2.98,20.06-7.2,29.75-.67,1.54-5.07,9.07-4.46,9.88.46-.25.97-.32,1.45-.49-3.58,4.02-4.28,5.84-2.18,11.18,2.96,7.52,14.58,10.77,20.43,4.39,8.72-9.52-2.37-20.98-13.29-18.15-1.86.48-3.06,1.94-4.95,2.59ZM350.27,331.44c.73.61.76,2.36,2.05.49,1.1-1.59,2.35-6.54,3.38-8.77s2.12-4.45,3.23-6.49c2.27-4.15,5.2-7.79,7.51-11.9l-13.83-19.2c-1.92,6.78-3.78,13.83-4.97,20.79-.92,5.39-1.87,11.92-2.09,17.35s1.23,4.82,4.71,7.74ZM556.45,321.68c-2.04-1.68-4.93-.31-5.63,2.13,1.17,2.13,3.91,6.46,6.71,4.26,1.71-1.34.13-5.4-1.08-6.39ZM551.04,329.03c-.6-.47-1.41-1.21-1.25.03.33,2.54,1.5,5.19,1.91,7.76l.99.27c2.43-4.1,1.86-5.31-1.64-8.06ZM544.91,347.79c1.61-2.14-7.63-11.09-9.58-11.61-2.06-.55-4.29,4.63-3.3,6.26.3.49,5.68,3.14,6.43,3.3,1.51.31,3.68-.22,4.72.08.29.08.27,2.05,1.73,1.98ZM562.9,338.07c-.72-.83-4.57,3.66-2.18,4.86,1.84.78,2.44-3.8,2.18-4.86ZM348.98,359.95c-1.07-1.11-6.06,5.43-7.57,5.79-2.77,4.39,3.24,6.83,4.66,10.25.8.13.45-.66.48-1.2.08-1.59-.16-3.27.04-4.83.22-1.72,3.25-9.11,2.39-10ZM338.04,371.62l.54,3.34c5.4,7.07,2.07-.99-.54-3.34ZM348.98,384.25c.65-4.45-2.61-6.91-6.8-5.34-.37,2.55,1.95,2.03,3.18,2.9s1.81,2.79,3.63,2.45ZM357.24,411c.83-1.1-4.33-11.97-4.61-14.1l-5.01,4.46c-.87,1.49,2.04,3.86,3.08,4.76,2.04,1.77,4.57,3,6.54,4.88ZM357.2,418.73c.41-1.16.98-2.54.08-3.64-4.81-2.82-9.39-6.93-14.11-9.71-.64-.38-.99-.96-1.97-.7l13.83,13.63,2.17.42ZM528.75,515.16c-6.52,1.66-9.42,17.1.03,19.67,8.29,2.25,17.88,1.02,26.15-.79,1.44-1.96-3.95-12.33-6.15-13.86-1.63-1.13-11.84-4.69-13.94-5.02-1.48-.23-4.7-.35-6.09,0ZM554.65,521.36c.58,1.93.85,6.91,3.42,6.12,1.2-.37,1.75-.88.97-2-.92-1.32-3.14-2.97-4.39-4.12Z"/>
  <path d="M332.46,525.74c.65-2.79,1.05-6.93,3.39-8.75-.05,1.23-.96,2.09-1.32,3.29-.55,1.83-.34,4.44-2.07,5.46Z"/>
  <path d="M442.82,122.2s.35-.05.48.33c.24.67,1.82,4.76.25,4.54l-28.44-11.19c-.42-1.24,1.4-1.19,1.49-1.77.11-.68-2.69-7.45-2.93-9.19-.56-4.02-.28-11.63,1.06-15.41s3.69-4.4-.64-7.85c-2.04-1.62-4.02-1.98-6.15-3.09-.66-.34-1.23-.49-.13-.85.9-.29,1.08-.07,1.86.07,11.29,2.11,23.96,27.98,32.01,36.59,1.07,1.14,6.92,5.67,6.96,6.14.09,1.02-1.14.4-1.6.15-1.54-.85-2.76-2.35-4.22-3.31-.04,1.61.04,3.25,0,4.86-.73-1.72-.49-4.24-1.35-6.19-1.19-2.7-5.07-6.21-6.68-8.88-1.9,3.5-1.49,10.03-6.8,9.74s-3.48-11.85-2.22-15.36c.52-1.45,1.59-2.34,1.86-3.8-1.19-1.33-1.66-3.3-2.67-4.56-.31-.39.02-.89-1.11-.62-.57,3.25-2.12,6.67-2.43,9.97-.43,4.55.04,9.83.73,14.34l19.47,8.73,1.19.02c.03-1.13-.03-2.27,0-3.4ZM422.72,89.29c-.2-.29-3.04-3.23-3.25-3.33-3.03-1.37-5.13,7.69-5.33,9.74-.39,3.99.05,8.64,1.11,12.5.54,1.97,2.63,8.21,4.97,8.15.94-.61.52-.78.49-1.44-.2-5.66-1.16-9.06-.04-15.1.52-2.78,3.52-8.44,2.05-10.52ZM429.95,101.31c-1.31.42-2.25,6.82.47,6.81,3.57-.53,1.96-7.6-.47-6.81Z"/>
  <path d="M453.51,102.75c-2.18-1.8-3.56-5.13-4.37-7.78l4.37,7.78Z"/>
  <path d="M242.02,308.41l-8.73-3.67-5.37-.7c5.01-.49,10.55.69,14.1,4.37Z"/>
  <path d="M362.11,377.45c-1.67-1.53-3.51-3.01-5.14-4.58-.62-.59-1.73-1.34-1.66-2.23.44-.45,5.31,4.49,5.83,5.1.46.55,1.18.79.97,1.7Z"/>
  <path d="M366,239.37c.45.46-3.47,5.83-4.37,6.32,0-.92,3.54-7.17,4.37-6.32Z"/>
  <path d="M350.92,247.63c-.8-.14-.76-2.79-.64-3.31.24-1.07,1.64-4.29,2.59-4.95-.38,2.84-2.39,5.27-1.94,8.26Z"/>
  <path d="M435.52,160.13c.11.87-1.09.47-1.63.42-3.07-.28-9.14-1.86-11.97-3.11-.58-.26-1.34-.47-1.47-1.2l15.07,3.89Z"/>
  <path d="M490.46,247.64c-.7-.37-6.12-4.55-5.34-5.35.97.07,5.96,4.71,5.34,5.35Z"/>
</svg>