<?xml version="1.0" encoding="UTF-8"?>
<svg id="katman_1" data-name="katman 1" xmlns="http://www.w3.org/2000/svg" viewBox="0 0 841.89 595.28">
  <path d="M536.26,97.11c12.28,13.65,20.79,28.76,26.79,46.14.81,2.35,1.1,6.34,2.12,8.25,1.17,2.19,8.46,6.87,11.15,10.82,12.67,18.67,4.23,53.24-2.28,73.43-2.3,7.14-9.92,22.52-9.26,29.06.94,9.34,8.29,10.61,14.9,15.01,19.13,12.7,33.25,25.63,42.51,47.21,6.69,15.6,12.36,42.53-.78,56.19-10.27,10.68-22.1,5.62-34.11,1.59,9.76,26.32,32.63,46.63,37.67,74.93,4.03,22.6-2.8,52.08-20.91,67.26-1,.84-8.41,5.32-7.61,6.11,7.39,1.55,15.47,4.77,21.56,9.27,2.01,1.49,4.32,4.57,5.9,5.68,3.73,2.63,7.4,3.04,11.62,7.31,1.43,1.45,5.96,6.29,4.78,8.19-.73,1.17-13.87.47-16.4,1.3l.52,2.62c-.63,2.79-9.25,1.19-11.79,2.29-2.66-.12-5.33.06-7.99,0-4.81-.1-3.32-1.57-4.07,4.1-.64.6-2.33.81-3.23.81-10.39.05-23.05-2.5-33.57-3.71-6.2-.71-10.98-.14-17.4-2.14-15.09-4.69-18.82-19.66-14.76-33.73l-.82-1.37c-22.13,8.9-47.3,12.87-70.47,5.49,1.9,5.38,2.77,7.76-.12,13-7.1,12.88-43.12,22.7-56.96,21.18-4.06-.45-2.72-2.82-3.75-3.08l-15.14,1.28c-3.61-.36-11.33.62-8.88-4.9-.54-.47-12.32,1.2-14.32,1.24-2.54.05-15.21.13-14.89-3.28.48-5.24,18.61-13.16,22.82-15.65,4.97-2.94,9.44-7.82,15.19-9.77,1.38-.99-2.13-2.88-3.03-3.04-4.93-.91-13.63-.1-19.5-.65-93.61-8.65-180.52-95.38-156.39-193.61.45-1.83,3.17-8.14,2.33-9.26-27.14-5.9-49.98-31.19-47.7-59.91.19-2.44.91-9.32,4.29-7.3,1.91,1.14,1.07,4.43,6.28,3.22,7.91-1.83,4.97-13.12,2.6-18.21-5.69-12.2-14.76-22.69-7.36-37.82,2.36-4.82,3.11,1.01,4.05,2.68,1.51,2.7,5.35,4.86,8.47,4.65-3.23-15.1,8.87-27.32,20.57-34.67,12.72-7.99,28.8-11.5,37.06-25.19,4.97-8.24,7.5-19.29,6.39-28.88-.23-1.96-3.21-8.81-2.71-9.54,1.88-2.74,9.25,5.4,10.69,7.05,13.01,14.92,12.35,30.88,1.86,47-13.49,20.74-33.61,28.29-7.96,52.48,1.16,1.09,8.98,8.01,9.59,8.17,1.57.42,3.49-2.55,4.87-3.49,2.2-1.5,6.4-4,9.06-3.82,5.15.34-.37,4.36-1.43,5.95-7.94,11.86,4.25,26.16,5.84,37.9,2.86,21.09-17.14,39.3-34.41,47.67-3.95,1.91-16.31,5.73-17.57,9.87-.96,3.14-.61,16.49-.37,20.45,4.37,72.68,79.2,115.1,144.95,86.92,5.5-10.7,12.07-21.01,19.89-30.16,1.32-1.55,6.86-6.31,7.2-7.48.52-1.76-3.59-9.47-4.01-12.84-2.85-22.53,14.56-44.45,30.04-58.76,8.27-7.65,20.27-15.56,27.39-23.86,1.64-1.91,5.9-8.75,2.39-10.3s-14.42-2.21-19.2-3.24c-22.71-4.86-41.72-15.9-46.12-40.55-.96-5.41-.41-13.17-1.49-18.04-.4-1.78-8.18-13.12-9.85-16.39-20.28-39.77-19.27-90.48,10.89-125.04,42.46-48.66,113.47-39.57,154.36,5.88ZM563.68,153.92c-1.22-1.34-4.13-12.87-5.22-15.83-21.91-59.23-92.04-98.28-151.01-64.65-51.21,29.2-59.35,96.45-32.26,145.38,1.94,3.51,7.3,10.14,7.98,13.38.86,4.07.38,9.94.95,14.31,3.02,23.03,17.27,35.35,38.99,40.97,7.71,1.99,17.17,2.24,24.3,4.38,8.19,2.46,2.29,11.93-1.47,16-12.6,13.64-29.13,22.87-41.03,38.31-25.08,32.53-19.35,71.58,29.81,59.11,20.23-5.13,35.77-16.53,44.06-35.9.83-1.95.79-4.31,1.8-6.14,1.27-2.32,5.67-3.89,6.04-6.18.21-1.32-.29-.74-.88-.98-2.05-.83-4.19-1.26-6.18-2.37-13.18-7.31-14.04-23.74-7.61-36.02-6.27,1.81-12.23,7.68-16.12,12.87-1.02,1.37-3.14,5.97-4.02,6.39-.7.33-2.14-.4-3.65-.08-6.81,1.46-26.22,15.72-31.45,21.09-2.43,2.5-4.8,7.55-8.23,7.94-2.14-2.12,9.96-11.82,10.7-13.44,1.25-2.75-3.9-3.27-1.23-5.48l3.36,2.77,1.63-.17c7.21-5.96,15.39-10.63,23.77-14.73,7.01-3.43,4.14-2.37,8.78-7.7,3.43-3.94,8.41-8.3,13-10.8,5.22-2.84,5.48-2.28,10.16-6.32,14.54-12.56,32.53-18.19,51.27-10.96,2.73,1.05,7.52,4.49,9.62,5.03,3.29.84,7.11-.19,11.27.94,5.32,1.44,7.13,4.93,11.05,6.65,9.5,4.18,16.32,5,26,11.23,1.75,1.13,8.12,6.58,9.04,6.86,1.81.55,3.97-.58,5.97-.55,1,.02,5.42.56,3.98,2.19-1.64,1.85-4.87-1.19-6.71,1.22.01.59,7.06,7.49,6.1,9.76-.37,3.08-5.71-5.6-6.13-6.08-7-8.19-20.09-16.12-30.17-19.88-2.96-1.1-7.35-1.6-9.91-2.9-4.7-2.39-8.43-8.33-15.44-6.84-.28,1.06.44,1.22.91,1.83,2.01,2.62,4.73,4.7,6.91,7.74,1.22,1.7,5.37,8.09,5.46,9.76.11,2.12-3.47,4.35-4.72,6.01s-7.67,11.31-7.29,12.76c5.13,3.08,11.49,4.25,14.29,10.12,3.46,7.24,2.73,9.01,9.45,14.96,15.23,13.48,48.02,29.87,55.88.32,8.08-30.38-15.68-66.27-39.57-83.17-10.29-7.28-25.06-10.93-24.01-26.13,9.66-24.96,30.81-78.53,9.52-100.99-1.87-1.97-6.32-4.42-7.74-5.99ZM263.81,233.45c-5.36.17-6.19,8.37-11.8,4.77-4.78-3.07-15.89-13.61-18.84-18.39-12.16-19.73,8.76-31.92,17.72-46.61s9.56-28.88-1.74-41.99c-.55-.64-4.2-4.69-4.86-3.98,3.41,18.73-3.68,37.78-20.19,47.86-14.85,9.07-43.69,17.91-43.92,39.75-.05,5.16,3.35,9.62-5.97,7.18-3.6-.95-4.1-4.18-7.43-4.47-.6,5.37-1.09,9.95.29,15.27,2.57,9.95,12.45,18.37,11.3,28.98-.54,5.01-4.28,9.63-9.47,9.97-1.44.5-4.71-2.8-5.48-1.73-2.47,3.43-.29,16.14.95,20.41,4.74,16.26,19.84,31.87,35.81,37.43,1.96.68,8.17,3.1,9.63,1.36,1.72-2.05,3.49-10.47,5.79-13.13-18.42.27-36.36-11.38-41.17-29.61-2.38-9,3.25-4.87,7.91-8.54,6.1-4.79,6.93-15.82,6.44-22.91-.62-8.89-2.14-6.78-7.64-11.28-3.69-3.02-7.77-9.06-7.64-14.02,6.36,1.48,13.31,1.71,18.98-2.12l.4-.62c-2.92-5.82.06-12.56,3.18-17.72,5.24-8.64,15.5-17.22,25.65-18.6-.67,3.29-3.35,5.85-4.56,9.16-5.62,15.41,2.72,35.85,14.93,46.08,2.22,1.86,11,7.79,13.42,8.59,2.94.97,3.81-5.33,7.32-6.2l1.22.7c-4.62,15.09,2.35,29.02-4.24,43.91-5.21,11.76-15,18.36-27.18,21.65l-1.52,10.99c16.91-7.57,32.25-13.98,42.86-30.07,6.74-10.22,7.66-17.35,3.82-29.12-3.61-11.06-10.28-20.95-3.96-32.97ZM185.99,232.23c-2.59.35-6.38,0-9.16,0-.16,0-.37-.55-.61-.54l-.86,1.39c2.3,3.66,3.52,6.68,6.98,9.51,3.15,2.58,6.1,2.55,7.45,7.2,3.18,10.91-.13,31.66-14.47,32.52,2.49,16.29,17.36,30.29,33.87,31.7,10.46.9,8.11-3.38,14.04-9.75l1.48.97-1.19,6.96c15.08-2.46,26.67-16.43,27.99-31.51.83-9.44-2.99-18.95.08-28.3-2.42-.04-2.45,4.09-4.58,4.3-1.08.11-6.03-2.79-7.42-3.59-20.27-11.66-33.77-38.03-20.95-59.91-11.3,3.03-26.86,18.47-25.05,30.85.24,1.63,1.56,2.48,1.2,4.14-.4,1.24-7.42,3.88-8.8,4.07ZM554.84,327.34c1.2-2.02-5.67-11.24-7.23-12.99-19.42-21.91-55.29-20.7-72.26,3.39-6.97,9.91-7.54,24.62,3,32.3,4.38,3.19,5.81-.07,10.27-1.93,2.04-.85,9.14-2.99,10.17-3.87.46-.38,1.97-5.81,3.34-7.65,4.83-6.48,13.65-7.23,19.99-2.39,1.15.88,2.5,3.37,3.83,3.64,2.29.47,4.49-.58,6.7-.64,2.88-.09,13.18.65,14.67-.59,1.08-.9,4.01-6.2,5.47-7.97.58-.7,1.92-1.08,2.05-1.29ZM219.86,315.85c-1.27-.27-1.42.61-1.95,1.4-12.96,19.25-15.92,55.18-12.62,77.56,7.5,50.88,39.36,84.71,85.58,104.24,21.51,9.09,46.56,15.23,69.99,13.32-1.43-6.79-4.42-12.92-5.42-19.91-2.38-16.65.36-34.14,7.24-49.37l-1.38-.8c-30.5,10.82-65.77,8.76-93.77-7.79-40.35-23.85-58.08-73.55-47.66-118.66ZM526.04,345.48c0-6.94-5.62-12.56-12.56-12.56s-12.56,5.62-12.56,12.56,5.62,12.56,12.56,12.56,12.56-5.62,12.56-12.56ZM535.29,338.61c-1.4.09-7.76.44-8.16,1-.65,1.14.08,4.69.94,5.27,1.12.76,2.74-.3,4-.35,5.3-.17,11.93,2.05,13.12-4.61-.02-2.49-7.97-1.43-9.9-1.31ZM501.12,351.98c-1.99-1.18-9.3,2.84-10.87,4.46-1.33,1.38-1.97,3.37-3.64,4.9-1.04.95-2.61,1.28-3.36,2.13-1.27,1.44-1.6,5.28-2.47,7.3-.68,1.6-4.63,8.55-4.47,9.38,21.81,28.37,64.74,22.01,79.16-10.37,2.23-5.02,5.27-11.77.72-16.41-1.75-1.78-12.56-7.19-15.03-7.55-1.66-.24-12.4.43-13.31,1.1-1.89,14.08-20.19,18.01-26.73,5.07ZM499.39,346.39c-1.23-1.24-12.12,4.13-14.03,5.18-.69.38-1.49-.04-1.2,1.2,5.07,4.08,10.41-1.18,15.33-3.01l-.1-3.37ZM420.18,410.58c-7.74,32.97-8.25,71.08,10.61,100.53,32.31,50.46,110.03,30.25,139.3-13.19,25.43-37.75,22.08-77.98,6.98-119.05-5.84-4.58-11.87-8.71-16.32-14.79-4.34,10.97-9.87,20.38-19.64,27.34-21.74,15.48-49.04,11.11-66.43-8.42h-.89c-11.57,17.45-33.58,24.91-53.6,27.58ZM584.06,382.55l-2.56-1.41-.9.89c3.52,13.2,8.49,26.14,10.28,39.78,3.19,24.32-2.14,48.27-13.86,69.61-9.69,17.64-24.74,32.11-42.83,40.93-1.61,8.97-3.47,17.96,1.71,26.22s18.37,10.39,27.61,9.67c3.91-12.61,13.49-20.18,25.31-10.24.66-.05,4.2-4.45,5.58-5.26,7.24-4.27,14.44,4.28,17.54,3.62,1.74-4.03,5.13-6.3,8.9-8.29-5.85-6.41-21.61-14.13-30.15-13.07-1.78.22-10.06,3.66-10.73,3-.19-1.37-.02-1.57.99-2.36,2.06-1.59,7.1-2.44,9.79-3.63,27.37-12.13,37.23-47.72,31.04-75.2-6.14-27.25-29.46-47.8-37.74-74.27ZM417.62,410.45c-6.07-.57-11.46-1.24-16.89-4.17-2.28-1.23-5.84-5.16-7.86-3.8-2.84,1.91-10.35,11.53-12.74,14.74-19.77,26.53-30.61,61.09-16.75,92.94,4.47,10.26,13.17,21.18,23.3,26.13,1.93.94,12.41,4.16,12.62,5.09.76,3.35-8.34-.78-9.53-.9-3.49-.34-16.77,7.02-18.28,9.72-.76,1.37,3.43,3.82,4.6,5.22,1.86,2.23,2.47,5.1,4.67,6.95,9.77-6.38,19.8-13.01,23.75,3.12,9.76-5.26,28.12-21.34,31.47-1.28,8.4-1.13,25.6-10,23.61-20.26-.12-.63-2.21-6.15-2.45-6.4-.71-.74-5.26-2.38-6.74-3.32-33.77-21.37-41.16-66.85-36.36-103.87.87-6.68,2.74-13.23,3.59-19.91ZM240.01,468.44c-.42.42,3.42,4.89,3.96,5.5,31.96,35.89,79.58,57.48,127.57,59.2,1.7.06,3.82,1.6,5.18-.31-6-5.28-10.3-11.77-14.43-18.52-36.68,1.75-72.9-10.35-102.94-30.73l-19.34-15.14ZM614.22,558.7c2.16.32,3.32,2.31,5.18,3.06,3.58,1.44,11.76.64,15.82.07.91-.13,1.52.02,2.11-.93-4.51-4.25-9.82-12.1-17.11-9.8-1.76.56-7.44,5.56-5.99,7.6ZM349.87,564.87c2.63-.29,5.03.68,7.64.66,1.58-.01,2.92-.6,4.27-.65,2.04-.07,16,.01,16.15-2.14-1.74-3.41-6.32-10.52-10.61-10.07-2.66.28-9.18,4.48-11.54,6.21-.61.45-7.03,5.07-5.91,5.99ZM620.86,566.7c.27-1.14-.38-1.18-1.01-1.73-3.31-2.85-15.64-10.2-19.71-10.83-3.73-.58-10.11,3.23-8,6.78.39.66,5.3,5.33,6,5.62,5.5,2.23,16.65.13,22.73.16ZM597.67,572.19c1.36-1.31-6.71-9.05-7.92-10.07-2.34-1.98-7.83-6.01-10.74-6.39-5.83-.76-11.03,7-12.46,11.92-.02,1.12.65,1.29,1.55,1.47,9.46,1.9,19.99,1.67,29.58,3.07ZM403.58,570.97c1.59,1.39,26.96-2.55,29.3-5.18,1.58-1.78-.67-7.31-2.48-8.52-4.05-2.7-15.89,4.53-19.68,7.1-.78.53-8.2,5.66-7.13,6.59ZM401.68,567.25c.93-3.19-2.32-9.7-5.71-9.74-4.73-.06-14.6,7.36-18.02,10.72.58.89,1.17.84,2.09.95,2.27.25,20.93-1.09,21.63-1.92Z"/>
  <path d="M254.66,105.88c-23.57,0-20.84-25.71-5.07-35.89,2.4-1.55,6.88-4.64,9.33-2.26-6.81,7.82-9.7,14.89-8.36,25.47.61,4.82,3.54,8.13,4.1,12.68ZM252.21,71.71c-9.77,3.8-18.25,22.9-7.14,29.42.76.45,5.96,2.64,5.93,1.39-3.43-7.86-4.34-16.5-1.52-24.7.36-1.06,3.18-5.67,2.73-6.11Z"/>
  <path d="M264.42,143.73c-.35-2.42,1.92-3.54,2.74-5.49,2.98-7.05-6.39-12.43-4.32-15.3,1.3-1.8,8.76.31,10.3-.05,1.87-.44,4.58-6.04,9.95-6.58,7.4-.75-.27,4.92-.84,7.73-1.35,6.6,1.53,6.79-3.82,13.27-3.68,4.47-8.01,7.15-14.02,6.42ZM281.51,119.93c-3.4-.91-5.51,4.92-7.14,5.4-1.86.55-8.29-2.22-8.72-.21,3.75,4.91,5.46,9.32,3.66,15.55,1.91,1.85,9.16-6.84,9.91-8.7.98-2.44.12-4.97.5-7.43.27-1.78,1.71-2.87,1.79-4.61Z"/>
  <path d="M221.3,130.7c1.09,1.23,11.62,9.15,7.1,10.92-1,.39-7.09-.76-8.52-1.25-6.93-2.42-8.58-8.71-5.99-15.12.4-.98,2.59-5.55,3.86-3.5.27,3.61,1.15,6.25,3.55,8.96ZM225.35,138.84c.11-3-3.35-4.12-5.2-6.09-1.46-1.56-2.68-3.61-3.65-5.5-4.97,6.08,2.65,12,8.84,11.59Z"/>
  <path d="M377.77,161.56c10.58-2.43,23.24,11.99,29.11,19.46,6.93,8.82,13.28,19.67,17.56,30.04,1.29,3.13,4.99,11.6,3.84,14.42-2.33,5.71-20.95,16.22-26.69,14.58-2.73-.78-13.26-16.92-15.2-20.24-7.08-12.17-18.56-37.87-14.24-51.68.77-2.47,2.89-5.96,5.62-6.58ZM380.48,168.24c-3.09,4.89,9.95,18.88,13.66,21.87,3.07,2.47,8.5,6.29,12.54,5.24,3.75-2.64-6.41-15.5-8.59-17.74s-15.28-13.05-17.61-9.37ZM418.78,202.39c-7.91-.1-.96,9.25-.53,14.25.52,6.1-.82,9.83-7.66,9.53-8.75-.39-11.53-11.9-14.29-12.62s-7.37,1.74-9.15,3.8c-.24,1.42,12.94,20.24,15.04,20.87,4.91,1.46,23.06-8.44,24.47-13.14s-6.62-17.75-7.88-22.69Z"/>
  <path d="M510.23,97.47c2.7-.53,6.5,1.13,8.89,2.44,11.28,6.16,23.35,25.58,28.8,37.12,2.16,4.57,9.42,22.38,8.87,26.51-.35,2.62-9.48,8.66-12.1,9.92-3.55,1.71-13.58,5.2-16.95,3.26-1.53-.88-8.03-11.07-9.31-13.27-8.8-15.11-17.75-37.78-15.98-55.42.44-4.42,3.05-9.64,7.77-10.56ZM510.18,105.34c-3.76,1.24-2.65,15.25-2.16,18.48s4.49,18.94,8.67,18.6c1.4-.37,1.96-1.11,2.56-2.34,3.26-6.67-.12-24.56-3.96-30.85-.96-1.57-2.95-4.6-5.11-3.89ZM515.89,154.11c-.75,1.01,10.99,20.56,13.25,21.23,5.46,1.61,24.77-6.46,25.72-11.92.36-2.08-1.9-8.75-2.67-11.12-.65-2-4.7-13.22-6.07-13.33l-4.52,3.35c3.09,6.9,6.69,23.44-5.7,22.05-7.23-.81-8.17-9.27-12.45-13.19l-7.55,2.93Z"/>
  <path d="M562.27,175.47c.43.39-2.8,7.39-3,8.9-.4,3.13.63,7.38.58,10.96-.36,26.58-10.94,57.13-32.43,73.77-34.38,26.61-79.96,15.74-110.85-10.53-4.49.43-10.26,2.91-14.21-.4,1.83-.94,3.89.36,5.76.33,10.25-.15,29.25-13.36,39.41-18.02,11.23-5.14,25.71-9.99,38.14-10.13,3.38-.04,6.44,1.75,10.24-.09,2.45-1.18,5.28-6.13,7.37-8.19,15.23-15,41.77-18.25,53.38-37.26,1.75-2.86,2.28-6.1,3.62-8.57.52-.95,1.5-1.21,1.99-.76ZM557.39,205.98l.61-18.92c-.62-.84-5.21,5.4-5.7,5.89-.91.9-6.5,4.98-6.49,5.4l11.58,7.63ZM536.03,245.66c3.03-.38,4.31,1.47,5.8,3.66,1.65.41,6.34-9.45,7.12-11.19,2.98-6.67,7.46-19.93,7.77-27.06.18-4.03-5.59-8.12-9.08-9.68-10.78-4.84-3.69,8.28-11.42,11.21l-1.14-.46-3.12-4.89c-2.48-.71-20.55,10.21-23.35,12.51-4.47,3.67-7.75,8.65-12.22,12.19-14.3-.07-27.94,1.35-41.17,6.92-2.09,1.45,4.62,14.16-4.58,8.87-2.45-1.41-4.34-4.98-6.94-3.33-3.53,2.23-9.13,20.52-7.77,25.23,11.2,6.96,24.2,10.95,37.24,12.64.98-1.06-2.59-8.01.93-8.57,1.95.02,4.97,8.33,7.44,9.05,3,.88,13.84-1.08,17.39-1.89,12.12-2.74,28.38-11.37,36.2-21.18,4.29-5.38.85-8.04.91-14.04ZM539.08,203.55c-5.14.33-6.45,3.66-2.74,7.31,2.1-1.76,2.89-4.64,2.74-7.31ZM452.22,240.25l-4.68,2.66c1.33,1.47,6.57,6.85,6.41,2.75-.05-1.35-.02-5.57-1.73-5.41ZM434.1,268.24c.15-3.39.68-7.1,1.52-10.38,1.09-4.22,3.21-7.59,4.58-11.59l-21.36,11.3c-.2.8.5,1.05.93,1.51,1.07,1.14,13.62,9.99,14.33,9.16ZM537.86,248.1l1.52,5.48c2.78-1.85,1.44-4.95-1.52-5.48ZM475.15,282.11c.37.44,1.38.62,1.96.78l.88-1.46-3.6-4.65c0,1.29-.02,4.4.76,5.33Z"/>
  <path d="M532.36,272.52c1.48,1.36-8.99,8.08-9.96,8.65-8.26,4.78-18.57,8.36-28.11,9.17-.92.08-1.49.73-2.2-.44-.5-1.35,1.27-.84,2.04-.99,11.74-2.27,20.75-4.43,30.86-11.26,1.28-.87,6.4-6.02,7.38-5.13Z"/>
  <path d="M505.51,93.68l-5.95,7.78c-1.92,1.67-.74,11.74-2.29,11.74-1.11-.73-.86-1.62-.94-2.71-.45-6.07,2.91-14.92,9.18-16.81Z"/>
  <path d="M394.42,162.04c-3.31-1.22-5.99-4.12-9.6-4.73s-7.04.29-10.53.16c4.29-3.76,11.48-2.31,16.06.41.64.38,4.92,3.34,4.07,4.16Z"/>
  <path d="M507.55,338.64c8.26-8.05,21.38,5.98,12.64,14.17s-20.97-6.05-12.64-14.17ZM513.28,337.95c-10.04.97-7.83,16.04,1.02,15.71,10.11-.38,8.1-16.59-1.02-15.71Z"/>
</svg>