<?xml version="1.0" encoding="UTF-8"?>
<svg id="katman_1" data-name="katman 1" xmlns="http://www.w3.org/2000/svg" viewBox="0 0 841.89 595.28">
  <path d="M704.37,314.05c0,141.34-114.58,255.92-255.92,255.92s-255.92-114.58-255.92-255.92S307.1,58.13,448.44,58.13s255.92,114.58,255.92,255.92ZM204.44,291.56h16.75c.12,0,.3.39.51.37l.48-.35c1.68-2.55.93-5.1,1.31-7.72,16.05-110.04,104.45-190.87,215.68-196.82,2.9-.16,10.3-.5,12.45,1.1,2.86,2.12,2.61,7.13-.55,8.8-3.86,2.04-10.49.83-14.9,1.1-98.01,6.2-180.95,77.94-199.84,174.66-.86,4.42-1.27,8.64-1.93,13.07-.28,1.87-1.48,3.63-.96,5.79h136.25c2-3.88,3.05-8.12,4.91-12.09,28.95-62.09,119.21-62.29,147.69,0,1.82,3.98,2.92,8.2,4.91,12.09h165.25c.62-3.34-.58-6.29-.95-9.3-14.79-121.4-121.01-213.84-243.3-213.74-122.08.1-228.04,92.56-242.8,213.74-.37,3.02-1.57,5.97-.95,9.3ZM519.29,314.07c0-39.12-31.71-70.84-70.84-70.84s-70.84,31.71-70.84,70.84,31.71,70.84,70.84,70.84,70.84-31.71,70.84-70.84ZM202.99,302.06v24h164.47v-24h-164.47ZM693.96,302.06h-164.54v24h164.54v-24ZM369.69,336.56h-164c-.4.1-.79.21-1.19.31.17,2.54.45,5.57.89,8.99,12.4,96.02,123.33,228.77,271.25,212.15,110.58-12.43,201.29-101.45,214.85-212.15.34-2.79,1.69-5.94.89-8.99-.32-1.24-1.08-.31-1.19-.31h-164c-4.59,12.46-10.46,24.1-19.74,33.76-30.57,31.84-80.87,33.65-113.75,4.23l-5.27-5.23-7.16-8.88-4.77-7.81-6.81-16.08Z"/>
  <path d="M489.62,314.06c0,22.74-18.44,41.18-41.18,41.18s-41.18-18.44-41.18-41.18,18.44-41.18,41.18-41.18,41.18,18.44,41.18,41.18ZM479.03,314.05c0-16.89-13.69-30.59-30.59-30.59s-30.59,13.69-30.59,30.59,13.69,30.59,30.59,30.59,30.59-13.69,30.59-30.59Z"/>
</svg>