<?xml version="1.0" encoding="UTF-8"?>
<svg id="katman_1" data-name="katman 1" xmlns="http://www.w3.org/2000/svg" viewBox="0 0 841.89 595.28">
  <path d="M110.98,559.13c-.69-.21-1.17-1.27-1.25-2.04-.57-5.1,9.97-19.32,14.56-21.65,5.42-2.75,12.22-.92,15.03-2.2,1.43-.66,4.7-6.07,7.02-7.81,7.86-5.89,17.96-4.15,26.9-2.24,1.57.34,3.07,1.85,4.33,1.91,6.95.33,34.57-25.27,41.52-30.5-1.11-1.77-1.41-.69-2.26-.66-6.65.25-15.78.57-22.02,2.68-3.39,1.14-5.63,4-9.41,3.33-2.86-2.86,7.78-11.13,9.92-12.69,10.02-7.3,23.08-12.66,33.11-19.51,1.4-.96,4.73-3.97,5.06-5.51l-6.97-60.55c-1.32-25.25-2.73-42.49,14.26-62.61,15.48-18.33,38.29-39.48,59.47-51.12,7.3-4.01,16.56-7.06,24.38-11.01.93-.47,1.99-.65,3.03-.66,1.21-1.1-.06-1.51-1.22-1.64-1.56-.18-8.36.49-8.72-1.34l11.44-39.56c.45-1.56-.37-2.56-1.95-2.71l-145.09,29.64c8.06-43.19,23.42-84.66,33.85-127.29,14.44-3.45,29.22-2.19,43.87-2.58,43.25-1.16,89.33-2.28,132.34,2.44,7.13.78,14.6,1.36,21.29,4.02,1.7,1.33-.91,7.32-1.56,9.12-9.88,27.47-27.03,54.03-36.59,81.81-1.08,3.14-4.43,9.1-.36,10.26,13.03,3.7,28.58,3.72,41.9,6.61,3.96-2.09,8.64.93,12.17-.15,3.1-.95,4.58-12,5.94-15.45,3.99-10.19,11.81-15.1,17.68-23.43,12.12-17.19,17.4-39.29,32-55.01-.39-2.25-19.94-8.63-23.53-10.23-28.17-12.6-79.3-47.7-98.96-71.25-2.92-3.5-7.09-8.74-6.45-13.48,1.86-2.95,31.95.92,37.09,1.76,45.36,7.42,94.61,30.74,131.96,57.15,7.15,5.06,9.04,9.95,18.74,10.86,5.53.52,11.64-.37,17.24.02,16.95,1.2,49.74,10.79,64.3,19.56,7.22,4.35,14.17,11.72,21.34,15.66,1.18.65,2.16,1.17,3.58.94.21-6.98-.25-14.02-.03-21,1.27-39.64,7.23-98.35,28.46-132.69,1.89-3.05,3.57-7.75,7.29-3.3,14.02,31.57,25.39,67.34,24.34,102.35-.76,25.28-3.96,63.17-14.27,86.04-1.47,3.27-6.46,10.53-6.97,12.76-1.44,6.34,1.32,21.27.68,29.46-1.33,17-12.89,34.94-19.34,50.55-7.4,17.9-13.2,36.46-21.82,53.83,8.78,4.88,16.45-3.35,24.3-1.23l1.21,7.42c3.13.39,11.17-1.63,11.54,2.91.19,2.34-2.74,4.26-.7,6.82,1.96.03,8.26,1.07,8.85,3.11l-3.08,5.67,5.51,4.23c1.27,3.88-4.33,4.95-4.81,6.56l3.17,7.13c-.41,1.63-9.01,6.35-11.01,7.98-5.64,4.6-10.53,10.65-16.5,15.57-15.34,12.65-36.04,26.2-53.92,34.88-3.78,1.83-23.93,9.47-25.02,11.17-1.79,2.79,3.17,4.25,4.95,5.81,9.94,8.7,6.35,13.75-4.68,17.48-2.58.87-8.54.44-8.1,4.28.3,2.59,15.96,11.62,15.67,16.86l-23.03-3.69c7.6,11.78,19.11,20.38,28.99,30.2,10.16,1.25,19.09-3.62,28.5,3.57,2.37,1.81,5.19,6.98,7.23,7.57,2.98.86,8.22.12,11.95,1.21,7.06,2.07,17.13,16.44,18.72,23.63H110.98ZM530.73,125.81c.29-1.32-.46-1.68-1.21-2.49-13.58-14.68-52.51-33.61-71.55-41.92-3.41-1.49-25.17-10.62-26.74-9.03-1.92,11.67-.07,22.61.81,34.14.24,3.08-.5,7.06.03,9.84.81,4.24,19.58,14.8,24.09,17.02,6.55,3.23,25.32,11.5,31.79,12.67,6.48,1.18,7.75-5.21,13.17-6.23,1.19,1.14-6.64,7.04-7.74,8.29-16.1,18.31-21.99,37.96-34.03,57.23-2.68,4.3-8.51,8.96-10.44,12.59-.44.83-.52,1.55-.41,2.46,15.52-2.47,28.85,12.69,28,27.57-.34,5.92-6.62,14.65-5.63,18.67,8.78,11.02,13.89,24.5,28.15,29.39,4.21-9.41,5.23-20.75,7.89-30.87.57-3.7-3.53-4.92-4.97-7.75,7.94,2.12,11.42,11.53,19.54,13.75,7.1,1.94,21.33-3.45,24.31-1.49,1.4.92,3.76,9.1,6.28,12.01,8.02,9.23,20.35,10.47,31.58,9.32,1.35-.14,1.76-1.33,2.96.52-2.6,2.75-6.39,1.75-9.86,3.28-4.11,1.82-14.66,19.47-19.06,24.55-4.99,5.76-11.61,11.21-17.17,16.5-1.89,2.83,1.26,15.52,1.69,19.81.48,4.82,1.37,11.15,1.65,15.62,1.13,18.4-1.77,37.26,1.26,55.47.65,1.45,23.49,14.66,26.97,16.61,2.34,1.31,9.61,5.73,11.59,5.6,20.36-8.13,39.91-17.81,58.3-29.73,6.74-4.37,13.5-8.95,19.76-13.99,9.56-7.71,17.36-17.22,27.55-24.21l-3.85-7.3,3.96-4.09-4.98-2.53,2.45-6.54c-4.8-2.98-8.61-3.14-7.32-10.27l-11.17-.76.47-5.8c-3.59-.06-6.67,2.22-10.27,2.29s-9.57-2.34-12.98-1.31c-.85.26-6.69,5.8-8.55,7.08-17.06,11.76-50.05,21.48-70.66,23.9-2.63.31-10.68,1.96-10.18-1.54,3.43.96,5.93-1.1,8.68-1.59,7.01-1.26,14.76-1.46,21.78-2.89,11.69-2.39,22.46-7.34,33.67-11.16,1.96-2.36-5.28-4.47-7.13-5.6-4.79-2.94-7.98-4.81-10.31-10.25-12.07-28.26,20.76-52.91,44.29-28.26,1.64,1.71,3.41,7.94,5.93,4.14,7.24-15.4,12.92-31.46,19.44-47.16,6.91-16.65,16.16-29.27,12.7-48.97l.69-4.08-1.47-17.68c3.03,1.09,3.53.8,5.09-1.9,11.11-19.28,15-56.94,16.15-79.21.21-4.03.5-9.05-.94-12.79-1.05-2.73-13.28-15.57-16.19-18.35-7.12-6.79-16.39-14.2-26.27-15.99-6.04,21.74-5.97,45.3-6.64,67.79-.28,9.32-2.88,23.85,1.32,32.41.91,1.86,7.57,7.85,4.03,9.12-3.26-2.84-4.63-6.99-7.14-10.16-3.6-4.54-20.9-16.64-26.55-20.28-29.24-18.82-66.89-21.01-100.74-23.01-.25-2.56,2.19-2.57,4.11-2.47ZM409.04,139.8c-10.26-.99-20.54-2.48-30.84-3.29-42.23-3.33-93.4-4.8-135.7-2.51-3.7.2-18.98,1.76-21.29,3.38l-32.53,116.7c35.34-4.32,69.47-14.85,104.25-21.96,10.22-2.09,30.54-7.18,40.05-6.89,2.07.06,3.14.65,2.84,2.84-2.46,11.94-8.17,24.73-10.47,36.49-.26,1.34-.68,3.9.58,4.79,2.53.89,5.24.01,7.81.41,2.23.34,4.24,2.22,6.6,2.28s14.63-2.88,17.57-3.7c8.57-2.38,14.17-10.17,24.02-11.33l13.93-9.9c-.75-1.28-1.73-1.02-2.86-1.25-3.81-.78-25.05-3.85-25.84-6.28l.09-2.14c9.56-21.35,18.3-43.06,27.66-64.49,3.86-8.84,11.24-21.1,13.73-29.84.32-1.11.55-2.16.39-3.31ZM479.75,284.5c1.29-1.28-7.29-12.46-8.62-13.98-16.62-18.99-38.79-23.58-63.3-23.01-8.33.19-17.33,4.01-22.59,10.29,1.66,2.16,4.64,1.75,6.84,2.98,1.73.95,2.53,3.02,4.43,3.79,5.67,2.31,25.63,2.96,33.94,4.71,16.9,3.57,32.78,10.46,49.3,15.24ZM429.59,383.17h25.9c1.11,0,8.39,2.59,9.73,3.42.77.47,4.84,3.9,3.83,4.8l-39.74-1.67c-1.45.35-2.27,5.76.28,7.02,4.5,2.21,19.07,1.55,24.84,2.31,10.32,1.36,23.45,4.06,33.54,6.73,18.46,4.89,35.98,14.79,54.26,20.15-.71-2.63.74-5.69.75-7.9.04-9.54-.35-19.9-.71-29.55-1.13-30.8-.04-52.58-23.87-74.8-30.2-28.17-78.86-44.41-119.64-46.45-2.61.36,4.68,4.64,5.37,5.32,12.61,12.26,20.05,39.35,23,56.36,2.61.34,3.78-2.13,6.23-2.46,6.53-.87,11.39,8.06,14.21,12.87l-1.16,1.89-7.8-2.03c-5.05,4.81-8.36,6.72-9.77,14.04-.83,4.28-1.95,28.12.75,29.94ZM404.64,276.57c-17.03-17.07-53.6-3.16-71.5,7.27-25.65,14.94-61.65,45.14-59.76,77.53.96,16.42,3.86,36.67,5.85,53.35.84,7.02,2.15,14.08,3.19,21.07,1.08.92,14.29-6.45,16.7-7.55,27.4-12.44,55.82-23.22,85.79-27.67l40.21-4.19.36-5.81-44.41-.82c-1.69-1.72,5.4-11.5,6.73-13.41,6.86-9.88,15.9-20.46,23.71-29.73,8.81-10.46,15.39-10.8,12.08-26.93-2.41-11.76-10.53-34.64-18.97-43.1ZM426.31,356.04c-1.59-.37-1.58.58-2.32,1.38-2.42,2.66-16.6,21.78-14.13,24.1,1.54-.68,3.78.82,4.53.82h11.92v-26.31ZM480.57,437.45l-17.28-1.24-21.35,27.14,2.06.44c7.94-5.9,16.72-10.67,24.83-16.29,2.96-2.05,8.13-5.28,10.49-7.6.8-.78,1.56-1.06,1.25-2.44ZM373.68,440.73c-2.8.66-23.02,2.97-23,5.34l16.84,11.91c1.05,0,7.08-16.19,6.16-17.25ZM516.75,555.02c.92-13.8,1.04-27.77,3.38-41.43,3.2-18.69,10.61-41.81,12.14-60.22.13-1.53.64-3.7-.72-4.84-1.58-1.32-23.16-6.34-25.88-6.19-7.17.39-17.01,7.63-24.28,9.1-.25,1.13.16,1.36.79,2.08,1.83,2.08,7.23,4.55,9.77,7.49,10.73,12.46,9.34,42.2,8.34,58.25-.13,2.02-.59,8.34-.98,9.71-1.86,6.46-16.07,3.85-20.77,3.83-8.22-.04-18.8,1.56-25.93-2.02l5.82-1.76c-.07-5.12-2.62-11.57-2.95-16.3-.42-6.06-.05-17.64.38-23.91.51-7.52,2.04-16.53,8.28-21.39,9.55,1.42,10.97,18.29,11.48,26.36.79,12.64-1.75,24.19-3.28,36.58h23.43c1.9-2.38,2.65-6.38,2.91-9.43,1.11-13.04.81-39.73-4.53-51.44-2.74-6.01-10.43-14.25-17.38-14.75-3.96-.28-19.11,6.25-22.1,9.02-3.99,3.7-2.26,5.97-3.56,10.42-.75,2.58-2.34,4.84-2.62.68-.15-2.11,1.67-9.31-.4-9.44-7.34,2.32-10.06,3.92-15.2,9.46-10.44,11.27-18.9,25.52-30.83,35.77-3.42,2.94-7.07,6.45-11.9,6.53l-1.67-16,8.61-51.41-16.01,16.04c0,1.04,7.82,5.64,4.92,7.41-2.75.64-6-2.35-8.62-2.08-2.32.24-6.47,6.82-10.35,4.6-2.13-4.54,1.76-11.03-5.7-11.16-.8.84,3.33,7.49-.41,6.57-1.21-.3-4.81-8.29-6.69-9.76-1.71-1.34-18.19-7.43-20.49-7.53-16.85-.76-28.56,31.08-26.61,44.76.35,2.48,1.88,4.42,2.3,6.74,1.37,7.44,1.75,15.05,3.49,22.41l16.34.94c1.44-1.45-3.76-23.64-4.1-27.56-.75-8.68-.27-33.01,5.84-39.35,3.71-3.85,7.92,3.07,9.12,6.31,6.35,17.2,2.2,41.36.75,59.31.64,2.65,5.83.4,7.68.44l11.94.45c-.8.94-1.83,1.61-3.04,1.87-2.43.52-9.23.91-12.12,1.04-10.94.48-21.84-1.4-32.79-.99-2.71-.93-4.89-15.98-5.37-19.3-3.56-24.35-3.24-40.1,16.93-56.03.99-.78,2.24-.94,1.87-2.65-2.73-.29-4.52,2.01-7.03,2.41-10.39,1.68-18.69-4.97-27.94-8.17-1.06-.07-1.42.58-1.94,1.32s-6.52,15.48-6.67,16.36c-.08.48-.21,1.35.42,1.23,2.04-2.34,5.99-8.54,9.43-5.3-3.75,11.71-6.52,23.66-9.58,35.57-.56,2.17-2.14,4.26-2.52,6.52-.53,3.12.6,14.31-.97,15.47l-2.46.33c-3.74-10.18-7.88-29.12-21.84-28.8-14.31.32-20.03,27.75-18.28,38.9.85,5.45,3.04,4.98,5.52,8.46,3.86,5.41,6.13,11.39,8.24,17.66h23.84c.23-2.44-4.12-2.95-6.03-4.25-1.74-1.18-6.19-4.64-6.76-6.4-2.16-6.73,6.07-12.46,5.39-20.19-.41-4.67-7.42-17.36-12.12-18.36-7.83-1.67-10.42,13.34-11.74,18.77-3.96-2.94.02-12.56,2.32-16.19,9.84-15.58,25.52,9.13,23.98,19.83-.6,4.14-8.21,11.02-4.95,16.34,1.28,2.1,13.53,9.51,16.27,10.25,4.85,1.3,14.44,1.39,19.58,1.06,13.69-.89,25.85-11.03,38.6-15.67,1.04,3.73-5.76,9.83-6.04,12.9-.1,1.07.39,1.25,1.1,1.87l19.74-7.37c1.36.89-.16,1.8-.94,2.35-2.05,1.43-6,2.79-8.51,3.43l1.22,2.15c10.4.46,20.86.19,31.3.27,4.38.03,8.74-.01,13.09,0,16.72.05,41.06,2,56.79.06,5.73-.71,16.81-6.09,23.24-8,2.22-.66,11.55-3.72,12.85-3.44,4.1.89-3.64,9.06-2.81,11.42h37ZM330.15,488.38c3.91,2.58,5.71-11.2,5.73-13.56.04-5.64-2.82-16.37-6.05-5.16-1,3.47-2.65,16.76.31,18.72ZM464.18,493.31c.74.49,2.12-.02,2.84-.77,3.1-3.26,3.35-22.23-1.64-22.26-6.35.95-3.4,21.56-1.19,23.03ZM531.38,505.86l-7.15-.1c-.26,1.93-.89,3.78-1.32,5.67-2.07,8.89-3.41,23.25-3.72,32.45-.08,2.34-.72,10.33,1.38,11.02,1.85.61,5.56.54,6.81-1.19,1.71-2.36,4.74-14.89,5.44-18.4,1.93-9.7,3.48-20.41-1.43-29.45ZM195.67,555.02h27.96c.5,0,1.22-1.34,1.28-2.06.27-3.3-9.42-21.72-12.04-25-3.24-4.04-8.69-6.74-13.91-6.72-3.66.01-16.75,5.56-16.84,9.5-.03,1.45,12.21,23.89,13.55,24.28ZM582.53,555.84l14.83-25.9c-2.84-5.54-10.95-7.88-16.88-7.86-17.83.05-22.29,18.6-28.25,31.87l1.11,1.89h29.19ZM179.16,532.48c-2.57-2.72-5.16-5.3-9.17-6.04-10.26-1.88-20.84-.38-25.65,9.97.27,1.58,7.31,6.68,8.71,8.2,2.38,2.59,5.76,8.7,9.13,10.19,4.42,1.96,20.04,1.54,25.28,1.04,1.25-.12,2.45-.46,3.62-.9,1.81-2.65-9.26-19.65-11.92-22.47ZM625.29,546.8c-.86,1.17-5.61,8.37-4.93,9.04,9.88.02,21.01,1.92,30.83.83,2.49-.28,5.6-2.37,6.44-2.31,1.2.08,2.86,2.1,4.65,1.49-.85-5.16-5.45-12.28-10.41-14.66-10.13-4.86-18.58-.51-26.59,5.62,1.27-1.73,8.19-8.58,8.28-9.45.35-3.49-5.25-7.98-8.28-9.04-7.82-2.74-16.08.46-24.12.54l-15.29,25.71c.65,2.93,22.08,2.42,25.63,1.9,6.83-1,8.77-5.81,13.78-9.65ZM247.06,555.02c.66-5.28-4.62-15.46-8.62-18.92-3.26-2.82-14.27-6.05-18.41-3.99-1.4,2.22,7.05,19.94,9.35,22.92h17.68ZM529.91,555.02h18.5c1.99-4.72,9.26-16.41,9.48-20.95.09-1.73-.03-1.07-1.24-1.25-14.8-2.19-24.69,8.34-26.75,22.21ZM157.43,555.84c1.93-1.87-10.29-14.57-12.39-15.97-5.43-3.63-13.59-2.84-18.8.82-2.5,1.75-8.6,9.47-9.11,12.27-.43,2.37,2.98,1.34,2.62-.22l3.36,1.66,34.32,1.44ZM333.39,544.34c-.77-.79-13.91,6.82-15.4,7.98-.69.53-1.5,0-1.03,1.88,7.82-.2,11.35,2.17,15.25-5.71.66-1.33,1.42-2.56,1.19-4.15ZM456.73,555.02h18.5c.8,0,5.96-7.58,2.46-7.42-2.66.12-10.59,2.74-13.53,3.75-2.27.78-5.99,1.74-7.43,3.67Z"/>
  <path d="M644.61,262.81c0,12.31-9.98,22.28-22.28,22.28s-22.28-9.98-22.28-22.28,9.98-22.28,22.28-22.28,22.28,9.98,22.28,22.28ZM621.8,258.82c3.82-3.82-.94-13.93-7.77-7.76-5.71,5.15,3.42,12.1,7.77,7.76Z"/>
  <path d="M524.43,207.32c0,11.22-9.09,20.31-20.31,20.31s-20.31-9.09-20.31-20.31,9.09-20.31,20.31-20.31,20.31,9.09,20.31,20.31ZM511.6,196.65c-9.33,1.74-8.4,16.37,2.92,13.67,6.76-1.61,4.59-15.08-2.92-13.67Z"/>
  <path d="M548.61,246c2.74-.47,9.06,1.68,9.92,4.56,2.55,8.59-15.06,4.3-12.91-2.5.52-1.1,1.86-1.87,2.99-2.06Z"/>
  <path d="M424.67,546.79c.23-6.6,4.68-11.64,6.62-17.67-.24-2.35-9.08-6.18-8.26-10.29,2.54,1.38,11.2,7.58,11.21,10.27,0,1.59-3.84,6.83-4.8,8.89-.3.65-2.75,11.03-4.77,8.79Z"/>
</svg>