<?xml version="1.0" encoding="UTF-8"?>
<svg id="katman_1" data-name="katman 1" xmlns="http://www.w3.org/2000/svg" viewBox="0 0 841.89 595.28">
  <path d="M431.68,12.01c4.11,2.43,8.89,39.59,8.08,45.9,12.04-3.94,24.4-4.72,36.64-1.1,15.5-8.79,33.96-18.85,51.75-21.76,1.36-.22,7.71-1.42,8.11.14.78,3.02-11.19,14.09-13.76,16.21-8.47,6.99-18.15,12.61-27.93,17.57-.54.25-.74.64-.83,1.21-.17,1.11,2.03,8.65,2.39,10.62,2.24,12.1,3.36,25.73,8.55,36.95,2.45,5.29,6.33,10.2,8.94,15.56,6.92,14.23,11.21,31.89,8.64,47.6l3.53-.81-3.53-26.19c1.27-1.19,11.19,6.34,12,5.49l-4.26-37.51,1.27-.24,21,12.76c-.15-7.25-1.09-14.49-1.52-21.73-.15-2.49.15-5.02.02-7.52s-2.09-14.39-.51-15.54c31.02,3.46,61.86,13.43,89.56,27.61l-.61,1.86c-7.09,9.05-12.5,20.04-19.31,29.18-2.24,3.01-2.37,2.31-5.45.72-12.72-6.55-25.08-15.45-37.8-22.19l-2.3-.33-12.62,27.38c-.97.32-1.79-.14-2.64-.49-1.63-.67-14.23-9.09-14.8-8.45l2.99,29.99-14.99-6c-.04,5.27.32,10.61-.99,15.76l-10.9,2.85c-2.37,7.82-8.88,12.49-16.87,13.38-1.34.15-4.85-.44-5.53.49.7,11.09,8.34,20.63,12.19,30.87l-1.81,7.78c12.8,22.05,16.66,47.36,23.36,71.66,4.81,3.11,4.29,5.39,6.02,9.98.69,1.82,2.47,4.71,2.81,6.19.4,1.73-.28,2.7-.14,3.7s1.76,3.98,2.13,5.8c1.34,6.57,1.51,27.65-3.81,32.24-1.26,1.09-7.11,4.02-8.76,4.24-3.69.49-18.44-2.87-20.98-5.43-.64-.64-1.53-2.88-1.7-3.8-.31-1.66.12-5.09-.16-6.4-.26-1.19-1.99-1.49-2.39-2.16-.94-1.59-.25-7.69.59-9.34,1.16-2.28,7.05-5.32,7.39-6.66v-.8c-2.97-2.41-1.41-4.05-1.45-6.6-.06-3.79-2.57-7.1.82-10.99l-7.82-19.77c-1.3-.23-.77.19-1.04.71-.66,1.28-.93,2.83-1.95,4.05-2.65,3.18-7.28,3.13-11.01,3.75,2.4,13.71,8.44,28.98,2.8,42.54-1,.77-6.85.54-8.57.47-1.48-.05-8.97-1.44-9.25-.2-.1,2.94.23,5.98.02,8.92-1.41,19.98-5.28,42.32-5.51,61.98-.02,2.03.12,5.5.64,7.4.42,1.54,1.91,2.98,1.91,4.62s-1.44,3.22-1.87,4.66c-1.43,4.81-.39,11.24-.64,16.36-.61,12.11-2.14,24.35-2.54,36.46-.06,1.93-.29,5.84.03,7.51.21,1.06,1.87,2.62,2.24,4.25.48,2.12-.37,7.8-.86,10.15-.23,1.07-1.28,1.99-1.39,3.16-.28,3.01.72,8.21.49,11.95-.21,3.41-1.64,14.36-4.02,16.48-4.98,4.42-16.8,3.91-22.97,2.78.36,10.12,3.93,27.49-10.25,29-8.71.93-25.21.32-33.95-1.06-2.24-.36-4.71-.5-5.91-2.59-4.11-7.13,1.59-27.36,2.6-36.11.52-4.49,1.08-9.28.75-13.74-4.52-2.32-5.34-8.64-5.28-13.25.02-1.91.95-4.56.78-6.52-.12-1.39-1.08-2.44-1.26-3.97-.58-4.79.25-11,.03-16.03-1.09-25.84-5.4-51.51-5.04-77.5,1.64-22.36,3.26-44.86,2.8-67.26-.61-.87-14.19-1.03-16.28-.97.28-15.62,4.21-31.77,9.27-46.48.81-2.34,6.23-14.45,6.22-15.27-.01-1.17-1.3-3.04-1-6,.16-1.58,1.87-5.7,1.83-6.49-.02-.47-1.57-2.11-1.79-3.53-.32-2.01.19-4.4-.04-6.46-.38-3.45-1.58-6.79-1.49-10.26-.84-.86-14.01,3.48-17.65,2.4s-12.17-15.21-15.18-18.32c-8.47-.97-17.58,1.13-25.91.41-6.54-.56-8.03-3.68-9.99-9.51-4.06-12.08-4.86-26.2-7.86-38.64-.7-1.38-3.66-.82-4.3-3.7-.41-1.83.4-3.32.18-4.68s-1.27-1.87-1.65-2.85c-1.02-2.65-.21-5.28.79-7.79-.88-1.49-2.6-2.03-3.69-3.31-3.18-3.73-2.27-12.12-4.82-17.18-2.29-4.56-12.53-9.46-15.61-13.87-.49-.7-.91-1.3-.83-2.21.01-.62.35-.89.81-1.22,4.73-3.27,14.79,6.79,19.71,6.96,1.59-1.57-6.8-18.94-5.8-23.53.41-1.87,1.89-3.49,3.94-2.89,3.18.94,7.83,15.75,10.85,18.41l-2.53-19.28c-.14-3.09,3.02-4.96,5.7-3.26,1.94,1.24,5.02,17.69,6.1,21.05.28.87.04,1.19,1.23.99.04-5.43-1.7-14.7.04-19.71,1.5-4.34,4.92-3.26,6.32.62,2.4,6.67,2.22,17.49,3.21,24.78,2.45,17.95,6.27,3.37,12.69-1.18,2.11-1.5,5.91-2.76,6.22.79.27,3.08-2.47,4.86-3.98,7.45-1.59,2.73-3.11,5.74-4.35,8.65-2.26,5.31-2.31,11.08-8.14,13.89,2.17,2.74.08,5.49.52,8.43.41,2.77,3.53,4.27,1.15,7.66-.52.74-1.7.91-1.62,1.77l8.69,22.36,9.19.93c.57-2.16,2.69-8.66,4.92-9.33,6.49.48,13.18.1,19.35,2.42,2.31-3.34,2.78-5.28,7.43-4.4,1.51.29,3.4,1.98,4.93,1.63,1.25-.29,2.79-2.61,3.97-3.46,1.69-1.21,4.85-2.14,5.97-3.03.75-.6.44-.46-.03-.97-1.23-1.33-3.54-2.48-4.99-4.01-3.83-4.06-5.53-8.78-6.59-14.17l-11.4-2.1,1.75-3c.47-.33-.28-.85-.57-.92-2.45-.65-7.32.25-10.18-.57-1.18-1.08,6.85-12.32,7-14.5-1.55.39-6.44,6.54-7.49,5.5l.1-1.14,7.39-11.85c-.81-.68-5.45,3.01-7.95.2-.32-.36-.99-1.88-.95-2.37.27-2.98,11.94-10.24,14.76-11.96,2.14-9.55,1.93-25.26,9.19-32.56,8.84-8.89,28.84-11.94,40.89-11.86,1.53-2.79.44-3.58.17-5.81-2-16.19-1.66-32.82,2.63-48.64.38-1.38,3.33-10.62,3.81-10.94.24-.16,1.07-.14,1.37.04ZM450.26,143.41v8.25c0,6.74-8.37,17.66-9.3,24.24s8.38,10.48,13.68,11.38c1.93.33,5.51-.75,5.62,1.63-.42.37-6.49-.43-7.62-.62-2.35-.41-4.96-2.82-6.87-.12l1.49.99-2.5,2.25c5.96-1.29,11.66-1.72,17.77-1.52,1.78.06,3.87,1.37,5.22-.23l-.99-2.25c1.71-.49,1.36.85,2.33,1.4,3.61,2.05,20.15,8.82,24.19,9.83,10.34,2.59,20.94.13,25.48-10.22l-2.77.33-.73-1.33,15.27-3.99.73-16.52c.79-.68,11.78,5.53,13.8,5.95,1.04.22.73-.46.71-1.21-.06-3.56-1.26-7.65-1.52-11.24l-2.49,1.5-.75-4.01-2,.51-1.52-4c-1.4,1.83-2.44,4.04-1.34,6.37l-.67,1.13c-1.27.32-9.94-6.02-10.99-5.99-.96.03-.41,1.1-.4,1.37.25,7.71,2.56,15.86,2.9,23.65-.26.45-.68.63-1.13.84-2.22,1.03-10.02,3.34-12.59,3.91-.84.19-1.66.33-2.52.22-.24-1.31.25-.88,1-1.23,2.61-1.23,6.15-1.77,8.89-2.88.65-2.55,2.18-10.15.39-11.92-2.05-2.01-11.57-5.35-14.67-6.33-9.97-3.15-20.32-4.92-30.75-5.75l-1.38-1.67c-.18-2.06,4.33-4.73,6.09-5.41,6.18-2.41,13.13-1.79,19.54-.67,6.87,1.21,13.51,3.65,19.89,6.35.57-.61-2.87-12.01-3.79-13.45-2.89-4.52-20.67-11.72-26.23-13.77-2.63-.97-16.02-3.3-10.24-7.78,5.17-4,19.99.19,26.26,1-9.18-15.75-8.67-34.82-13.51-52-1.9.24-3.52,1.47-5.36,1.88-.49.11-2.23.55-2.13-.38,6.53-2.56,13.2-5.94,19.25-9.5,2.5-1.47,10.5-6.16,12.03-7.97,1.84-2.19,4.33-13.52,1.09-14.7-15.95,4.06-30.66,12.55-44.63,21.17-.81-.98.97-1.97,1.75-2.01.16-.83-.19-1.05-.87-1.37-1.73-.83-6.37-1.46-8.39-1.61-11.51-.85-23.35,1.61-32.99,8-1.07-.81.03-.84.38-1.15,1.28-1.13,6.03-3.52,6.24-4.66-.46-9.12-1.24-18.2-2.88-27.19-1.22-1.18-9.62,6.23-10.44,7.81s-1.43,7.42-1.56,9.44c-.49,7.8.64,15.53,1.5,23.24l1.75-1c.4,1.66-1.08,3.64-1.52,5.48-.76,3.18-.4,5.79-.74,8.76-.5,4.32-1.12,8.64-1.52,12.98,6.62.28,6.43,8.08,5.49,12.99-.27,1.42-2.17,3.47-1.75,4.28,1.08,2.14,3.7-.01,5.17-.36,11.64-2.78,24.05-2.11,35.59.91l-.22,1.47c-13.01-3.46-28.02-4.11-40.66,1.08-1.18,4.3,2.64,7.78,5.46,10.61,6.75,6.78,16.43,13.6,25.95,15.31l-.25,1.49-7.74-2.01ZM423.01,78.91c-1.29-.39-7.08,0-9,0-.29,0-4.54,2.2-5.08,2.67-1.12.98-4.95,7.16-4.14,8.28,1.1.24,5.69,2.28,4.47,3.54-5.18.34-7.79,5.68-7.01,10.51,4.61.85,12.11-3.18,14.5,2.24l-14.65,1.86c-1.09.32-1.08,2.14-.77,3.08.53,1.61,2.61.36,3.68.33,5.89-.2,12.25.73,17.99,2.01-.04-2.27-1.91-4.09-2.42-6.58-1.13-5.54.6-6.71,1.55-11.3,1.02-4.93.5-10.41,1.64-15.38.02-.45-.4-1.13-.77-1.24ZM408.26,79.91c-6.02,1.66-14.35,3.06-19.47,6.78-7.1,5.16-7.86,22.11-9.34,30.19l.56,1.03c2.46-1.02,4.81-2.29,7.35-3.15,1.97-.66,12.06-2.66,12.43-3.18.76-1.04.81-2.97-.81-3.2-2.19-.31-7.07,1.64-9.54,1.97-.71.09-2.03.44-1.69-.69,3.6-5.04,6.93-11.38,11.01-15.99,1.16-1.31,3.56-2.83,4.23-3.77.79-1.11,1.15-3.41,2-5,.95-1.78,2.37-3.18,3.26-4.99ZM383.75,90.91c-.7-.83-2.05,2.13-2.26,2.49-4.16,7.42-5.15,18.61-5.73,27.01,1.17-.44,2.11-1.07,2.39-2.35,1.1-5.06,1.07-11.42,2.24-16.76.78-3.56,2-7.02,3.36-10.38ZM637.73,117.43c-26.92-13.11-55.91-22.37-85.66-26.48-1.21.34-.88,4.03-.83,5.23.33,8.8,1.51,17.7,2.01,26.48.27,4.73-.13,9.52.5,14.24l-22-12.75,3.51,30.25c1.11,1.01,2.06-4.09,3.99-3l.23,2.55,2.03.42c.65,1.04-.01,3.87,1.73,4.53,1.65-3.59-.22-7.88-.49-11.75-.11-1.57.06-3.17,0-4.74l18.01,9.78,13.28-27.82,43.4,24.51,20.28-31.44ZM404.97,93.62c.46-.48,1.42-.58,1.28-1.45-1.14-1.38-2.73-.78-3.97.02-2.21,1.41-9.64,11.82-11.03,14.47-.32.6-.69.94-.49,1.76,3.48-.34,6.87-1.42,10.31-1.94,1.14-.17,2.3.07,3.42-.08.92-.13,1.64-.84,2.55-.95,2.16-.25,4.53.12,6.72-.03.12-.87-1.14-.47-1.74-.5-5.85-.24-11,1.06-16.75,1.5,1.58-5.06,6.13-9.04,9.71-12.79ZM423.11,99.49c-4.28,1.28.52,13.97,2.88,13.42,2.82-2.77,2.9-15.15-2.88-13.42ZM400.75,100.91c-1.16-.32-.84.28-1.14.63-.33.38-2.72,3.25-1.11,3.35,2.43-.69,2.48-1.55,2.25-3.98ZM308.14,102.53c-1.98-1.43-3.73.58-3.81,2.61-.18,4.79,2.82,12.11,2.43,17.28l6.45-1.79-5.07-18.1ZM317.26,104.66c-.8,4.83.59,11.68,0,16.75l6.51-.26c-.54-2.58-1.66-18.28-3.81-18.77-1.54-.35-2.47.91-2.7,2.28ZM293.57,106.94c-.5.15-.93.95-1.09,1.45-1.2,3.69,3.76,13.41,4.53,17.52.83,1.11,2.22-.4,3.24-.75.9-.31,3.55-.19,3.29-1.77-2.75-4.25-4.46-10.23-7.2-14.32-.59-.88-1.52-2.49-2.78-2.12ZM428.25,126.9c.52-.68-2.64-3.45-2.89-4.35-.57-2.06-.55-4.8.9-6.39-.23-1.05-7.84-2.52-9.3-2.71-7.66-1.01-16.28-.66-23.8,1.1-10.85,2.52-21.46,9.29-29.9,16.35,3.55-.51,6.83-2.13,10.3-2.94,8.75-2.04,19.97-2.61,28.94-2.05s17.23,3.9,25.75.99ZM514.25,139.41c.69-.87-5.15-12.2-6.26-13.49-3.23-3.74-20.09-5.2-24.87-4.39-1.42.24-2.95,1.01-3.86,2.13.55.7,1.17,1.15,1.99,1.5,4.76,2.05,10.96,3.24,16.11,5.39,5.78,2.42,11.54,5.62,16.89,8.86ZM298.18,132.83c-1.51,1.53-4.55-.74-5.42-.2-1.41,1.53-1.9,3.45-1.49,5.52.26,1.32,1.7,1.95,2.4,3.09,1.45,2.32,2.28,7.68,2.92,10.58.76,3.45-.4,4.22,2.4,7.11,3.85,3.98,3.7,2.06,7.51.48,3.46-1.43,7.22-2.77,10.99-3.01,5.19-.33,11.26,2.59,14.28-2.72.6-1.06,4.16-10.5,4.38-11.63.31-1.53-.12-3.45-1.18-4.61-2.27-2.46-3.51,1.57-5.58,1.89-3.4.53-4.1-4.94-4.5-7.31-.66-3.9.75-9.65-4.39-9.66s-2.16,5.18-4.01,5.54c-1.95-.46-2.31-3.29-2.8-4.93-1.61-.37-6.24.26-6.45,2.18-.13,1.22,1.76,4.63.25,5.25-1.06.44-1.86-3.77-2.74-4.26-1.31-.82-6.17.7-6.73,2.24l.15,4.45ZM291.23,130.95c-4.59-1.53-8.23-5.88-13.47-5.03l.71,2.03,10.11,8.39,1.17.07,1.47-5.46ZM430.14,128.03c-.96-.39-4.9,1.2-6.65,1.37-6.88.64-12.55-1.49-19-1.99-11.09-.84-25.1,0-35.73,3.25-1.4.43-6.26,2.13-7.21,2.79-1.53,1.07-.9,2.52.89,2.44,2.07-.09,8.82-3.15,11.7-3.84,18.34-4.44,30.77-.21,48.36.35,3.17.1,7.07.08,9.74-1.75l-2.11-2.62ZM343.26,127.91c-4.06-.23-6.76,3.82-8.91,6.76l2.92,4.24,5.73-8.01.26-2.99ZM394.26,131.41h-9c.1,1.21,6.02,4.64,6.72,4.53l2.28-4.53ZM395.01,159.41c-1.69.48-5.28-.35-7.25,0-3.16-6.78-3.25-15-1.46-22.18-.1-.48-5.89-2.43-6.89-2.72-.58-.17-1.32-.49-1.1.59.64,3.07,2.92,7.16,3.81,10.7.64,2.56,1.44,6.28,1.64,8.86.7,9.33-2.99,13.54,4.02,21.98,4,4.82,8.53,7.09,14.76,7.28,1.7.05,4.83-.84,3.85-2.87-.81-1.68-8.22-11.08-6.63-12.64l26.5-1c.25,2.1-.33,3.91-.87,5.88-.49,1.8-3.08,6.69-3.15,7.4-.04.44.02.84.26,1.21l1.08.93,15.86-6.38c2.4-8.76,8.19-16.32,9.32-25.54l-2.99,1.5-1.26-12.49c-1.85-.63-10.19-7.97-10.98-7.99s-1.74.64-2.24,1.23c3.59,2.28,5.26,20.79,3.37,22.15-4.13.81-8.2,1.72-12.39.6,0-3.11,4.21.42,4.95-1.82-.16-2.5-2.16-18.66.35-19.21,3.19-.7,3.91,5.63,4.19,7.79.4,3.12.03,7.43.53,10.47.1.59.3,1.18.97,1.27,1.24-3.86.66-20.21-4.35-20.91-.38-.05-4.33.32-4.88.42-2.11.39-3.16,3.63-3.27,5.49-2.64.03.18-3.84-.25-5.01-11.25,1.66-16.76,10.73-23,19-1.3-.03-1.29-1.23-1.29-2.25.02-3.44,1.09-8,1.53-11.51-.73-1.17-1.36-.35-2.23.26-.44.31-2.01,1.83-2.07,2.23-.1.74,1.18,5.98,1.31,7.52.21,2.51-1.11,7.77,1.51,8.26.13.16-1.05,1.43-1.25,1.49ZM427.76,136.91v7c3.75-.94,1.68-4.4,1.5-7h-1.5ZM390.75,158.41l-1.01-11.27.93-7.93-2.91-1.79c-1.3,1.01-1.19,12.53-.95,14.7.26,2.35,1,6.26,3.94,6.3ZM521.75,168.41c.46-.52-.97-9.03-1.76-9.98-.57-.68-2.36-1.32-3.25-1.75-9.32-4.46-30.06-9.47-38.95-2.99-1.7,1.24-3.39,2.8-.24,3.17,1.79.21,3.6-.11,5.39.11,13.44,1.67,26.7,5.5,38.81,11.44ZM315.15,158.05c-5.12.65-14.67,4.15-13.88,10.56.2,1.67,1.6,2.18,1.89,3.15.59,2.02-1.07,6.29,1.1,7.41,2.42,1.25,3.24-1.22,4.84-2.18,4.26-2.55,10.39-4.5,15.37-4.03,1.2.11,3.87,1.54,4.58.47,1.21-1.83-1.48-4.46-1.75-6.31-.38-2.55,1.59-5.97-.5-7.99-1.75-1.7-9.17-1.39-11.64-1.08ZM424.76,168.91l-13,.76c-1.85,1.54-5.65,8.25-4.76,10.23,1.08,2.39,2.98,1.05,4.51,1.02,3.04-.06,6.11.14,9.14-.11,1.14-1.42,5.01-10.99,4.1-11.89ZM409.26,169.41h-7.25l-.69,1.17,4.19,6.82c.5-1.11,4.18-7.58,3.75-7.99ZM326.64,175.02c-3.71-2.45-19,2.05-19.41,6.16-.11,1.07.76,1.76.9,2.6,1.69,10.1,3.17,20.86,5.76,30.73,1.52,5.78,2.54,13.29,9.58,13.92,9.8.87,23.19-.41,33.02-1.52,2.08-.24,4.41.56,6.27-.76.59-.38.3-.77.28-1.25-.09-1.73-1.43-6.1-1.95-8.1-1.43-5.51-3.47-10.88-4.87-16.39-6.2,2.38-13.09.05-19.23.51-2.84.21-5.5,1.44-8.26,1.98l6.85-3.72-8.96-24.16ZM439.75,177.91c-4.24,1.84-8.71,3.42-12.9,5.37-.7.33-1.37-.3-1.09,1.13,5.67-.89,11.29-.03,16.99,0l-3-6.5ZM430.98,190.68c-7.01-7.24-14.08-11.26-24.22-6.52,9.2,1.16,17.51,7.04,21.02,15.73,1.41.96,5-5,6.47-5.73-1.17-1.1-2.17-2.34-3.27-3.48ZM366.75,246.41c.41.4,7.41-.89,8.61-1.14,7.28-1.5,15.81-3.57,22.99-5.51,4.43-1.2,8.94-1.36,9.42-6.58,1.01-11.03-.25-25.21-3.16-35.88-1.14-4.19-2.59-8.43-4.85-12.15-4.21-.89-8.54.02-11.97,2.54-2.7,1.98-2.87,4.64-7.18,3.61-.86-.21-1.42-.98-2.25-1.25-4.69-1.52-4.83,1.32-7.43,4.3-5.43-1.8-11.02-1.95-16.67-2.45,1.81,4.96,3.76,9.84,5.35,14.89,3.6,11.4,6.09,22.93,7.14,34.86.14,1.57-.08,3.18,0,4.75ZM415.26,270.9c-.37-.75-.51-1.37-.53-2.22-.47-18.99.11-41.09,7.94-58.62,1.35-3.03,3.32-5.83,4.52-8.79-2.75-6.24-8.65-12.83-15.43-14.62-3.09-.82-6.35-.86-9.5-1.24-.58.57,3.38,10.19,3.85,11.89,3.41,12.37,3.68,25.88,2.65,38.6.83.93,5.57-3.71,6.25-3.99.9-.38.95.72.72,1.23-.95,2.13-10.28,5.96-12.76,6.74-2.32.74-12.29,2.56-13.23,3.27-1.63,1.22.83,10.09,2.14,11.14.55.44,3.37.75,4.73,1.52,1.83,1.03,5.84,4.82,6.85,6.65.59,1.08.55,2.78,1.45,3.8s9.29,5.43,10.34,4.65ZM445.01,185.41h-16l-.5,1,6.99,6.49c3.51-1.93,7.04-3.81,10.02-6.49l-.51-1ZM499.25,244.91c-.88-10.07-1.87-20.69-4.23-30.52-1.54-6.43-3.4-14.2-9.59-17.41-2.15-1.12-13.92-6.42-15.52-6.46-.86-.02-2.04,1.29-3.45,1.35-.92.04-1.91-.48-2.94-.49-1.78-.01-9.35-.28-10.27.28-9.67,12.79-12.7,30.06-14.01,45.75,20.25-1.52,40.71,1.37,60,7.5ZM440.75,191.91c-1.11-1.13-8.8,6.39-9.75,7.49-10.02,11.57-13.16,28.65-14.24,43.5l8.54-3.32c2.73-6.06,2.62-12.85,4.1-19.29,1.23-5.37,3.35-10.58,5.28-15.72l6.08-12.66ZM450.75,191.91c-5.38.17-6.26,1.26-8.76,5.49-7.03,11.92-10.02,26.18-11.75,39.77l.83,1.2,6.67-.98c1.31-12.59,3.45-26.29,8.93-37.82.48-1,4.42-7.36,4.08-7.66ZM347.76,199.9c.57.79,6.2-.26,7.29-.96.53-.67-2.07-7.21-3.95-6.47-1.09.28-3.86,6.72-3.34,7.44ZM442.76,193.41c-1.31-.32-.88.43-1.29.94-1.43,1.79-2.98,4.9-3.98,7.04-4.83,10.31-8.35,22.65-8.73,34.01l4.34-20.4c2.41-7.55,5.59-14.79,9.66-21.59ZM496.17,200.49c-1.64.2-2.9-.72-4.21-1.04-.72-.17-.86-.02-.71.71.36,1.72,2.52,5.12,3.24,7.27,1.96,5.83,3.24,13.19,4.19,19.31.22,1.44.47,7.49,1.35,7.67l8.24-3.26-10.25-21.24-1.84-9.42ZM363.75,227.92c-3.39.43-7.51.17-10.75,1.01-.54.14-.96-.35-.76.74.41,2.25,9.39,13.37,11.51,15,.5.39.63.97,1.5.74l-1.5-17.49ZM508.76,233.41h-3s1.01,4,1.01,4c1.55-.61,1.69-2.54,1.99-4ZM504.22,234.44c-6.37.15-3.44,6.92-3.47,11.12l3.43,2.18c-.11,2.64.49,5.33.6,7.9.38,8.79.77,18.79.5,27.54-.13,4.35-1.54,11.36-.98,15.44.32,2.31,6.7,18.02,8.08,20.41.29.51.52,1.04,1.12,1.29,5.09-3.79,10.32-7.59,16.76-8.66l-12.78-48.72-13.27-28.49ZM428.01,236.92c-1.28,1.43-1.82,3.32,0,4.48,1.25-.52.93-4.49,0-4.48ZM503.26,262.41v-13.25c0-1.61-8.16-4.08-9.89-4.61-13.71-4.13-36.71-7.59-50.85-6.14-.97.1-3.39.4-3.69,1.31l-.85,15.72,1.04.47c21.57-.54,43.4.95,64.25,6.5ZM437.25,238.91c-3.33.76-7.35-.35-7.97,3.78-.87,5.8,2.47,12.59-7.03,9.71l3-10.99c-.46-.45-7.91,2.57-8.37,3.13-1.04,1.27-.57,7.62-.61,9.64s-.93,3.57-.02,5.73c6.55-2.55,13.54-2.85,20.28-4.47l.72-16.53ZM427.76,242.91c-.86-.15-1.04.18-1.37.88-.52,1.06-2.19,6.37-2.13,7.37l3.51.26v-8.5ZM387.76,243.91c-1.21-.12-3.87.05-3.97,1.71-.15,2.36,1.62,8.11,1.96,11.05.49,4.15-.92,7.25,3.5,10.24-.09-2.79,2.31-8.95,2.01-11.21-.12-.89-2.23-4.38-2.75-6.29s-.98-3.53-.76-5.5ZM503.19,263.98c-.86-1.34-21.68-4.63-24.74-5.01-10.73-1.33-26.37-2.93-36.96-2.08-1.13.09-2.21.24-3.24.76-1.36,1.18-.37,5.95-.44,7.51-.45,9.75-1.59,21.3.58,30.87.89,3.91,1.73,5.91,6.12,6.38,12.25,1.31,26.55-.02,39.02.98,5.73.73,11.53.59,17.2,2.01,1.21-3.06,2.26-6.45,2.53-9.75.55-6.78.83-16.73.53-23.52-.12-2.67-.84-5.37-.59-8.16ZM423.51,302.41c4.67.7,10.9-.52,15.75,0-5.77-14.18-2.82-30.06-3-45-3.06-.06-19.05,2.3-19.92,4.83.02,4.83.05,10.12.42,14.91.47,5.91,1.37,14.13,2.66,19.84.61,2.69.77,4.92,4.09,5.41ZM398.25,271.91c1.61-5.25,2.75-8.89-3.23-11.5-.56.11-1.89,6.84-1.68,7.63.28,1.07,3.99,4.67,4.92,3.87ZM463.64,310.03c-1.15-1.15-14.94-.92-17.63-1.12-6.06-.46-18.88-1.18-23.71-4.29-5.38-3.45-4.51-12.61-5.78-18.24-6.3-.04-10.77-4.11-15.82-7.17-3.79-2.3-6.49-2.71-9.71-6.79-1.36-1.72-1.84-4.63-4.23-5.01-.18,2.15-1.62,5.13-1.48,7.23.09,1.37,1.62,2.43,1.39,3.9-.15,1.01-1.67,3.14-2.16,4.38-1.2,3.03-3.92,8.81-4.27,11.73-.66,5.5-.32,16.25,0,22.04.13,2.39.96,4.97,1.06,7.4l-4.03.83c-.84-3.9-1.01-7.81-1.51-11.75-.09-.68-.33-1.57-.99-.75l-3.5,23,8.75-.53c19.94.73,39.53,3.99,59.11,6.92,8.94,1.34,17.89,2.54,26.8,4.06.68-.21,1.07-1.15,1.23-1.81,1.54-6.37-.13-20.18-1.52-26.75-.27-1.29-1.43-6.72-1.98-7.27ZM415.17,272.99l-11.41-5.58-2.43,10.15c.49,1.64,11.55,7.79,14.1,7.31l.8-1.16-1.06-10.71ZM379.75,323.41l-1.49-22.49c-.47,1.6-1.24,3.11-1.45,4.8-.4,3.24.38,12.9,1.35,16.04.28.88.33,1.84,1.59,1.66ZM498.76,306.42c-11.59-2.2-23.56-1.23-35.23-2.53l-38.77.03c.17.98,1.06.81,1.73,1.02,10.34,3.13,25.1,2.47,36.02,2.98,8.18.38,27.92,2.87,34.87-.14.58-.25,1.23-.72,1.38-1.36ZM488.71,310.46l-23.45-.55c2.84,10.72,3.84,21.17,3.52,32.27-.03,1.19-1.07,3.34-.05,4.01,5.3.4,11.06,1.84,16.29,2.21,1.76.12,7.34.46,8.21-.78,1.85-2.63-.35-18.85-1.09-22.84-.86-4.66-2.63-9.58-3.42-14.32ZM539.25,330.41c.64-.66-2.28-6.76-2.73-8.02-1.26-3.51-1.08-8.4-6.07-8.97-4.21-.49-15.46,6.26-17.7,9.74-2.01,3.1-.33,6.22-.1,9.5.11,1.65-1.49,3.83.86,5.24l4.74-5.75c6.08-5.17,13.99-4.44,21-1.75ZM535.26,368.91c3.96,1.09,5.35-6.39,5.87-9.38,1-5.73,1.44-21.42-1.43-26.31-2.51-4.28-13.99-3.85-18.06-1.68-5.37,2.87-4.86,6.25-7.88,9.62-4.11,4.57-9.48,5.27-7.99,13.75,2.12-2.31,3.92-7.06,7.75-7.03,1.67.01,2.41,1.67,4.02.57,2.93-1.99,4.2-9.43,5.22-10.3.36-.31.56-.3,1.01-.24l.5,2.49c.08-1.9,1.78-2.71,2.71-4.04.41-.58,3.48-6.36,4.29-5.46-.75,6.12-9.49,9.2-4.71,15.96,2.04,2.88,4.79,2.46,5.22,7.28.14,1.54-.5,3.56-.36,4.43.19,1.16,2.97,3.5,3.52,5.41.48,1.67.35,3.22.34,4.92ZM492.25,349.91c-6.58.14-13.15-.74-19.68-1.57-26.72-3.4-53.19-9.49-80.08-11.42-5.18-.37-14.7-1.18-19.52-.53-1.06.14-1.58.36-2.22,1.28-.21,1.13.49.69,1.24.74,6.97.51,14.55.36,21.5,1.01,26.14,2.42,51.83,9.16,78.01,11.49,5.01.45,14.4,1.56,19.02,1.03.56-.06,1.1-.02,1.5-.5l.22-1.53ZM431.75,416.41c.63-3.75,1.45-7.54,1.94-11.31,1.11-8.48,1.8-17.41,2.08-25.92.3-9.08.24-18.8-.76-27.78l-7.14-5.36c-13.27-2.36-26.67-4.81-40.12-5.13l-.98,39.27c-5.45,38.35,2.2,76.18,3,114.5.05,2.62-1.34,5.63.73,8.22,8.59-18.38,30.25-26.68,45.5-10,.88.97,1.5,2.29,2.25,3.24,1.18,1.47,1.47-4.48,1.36-5.35-.55-4.45-5.39-13.96-5.32-17.64.02-1.11,1.26-2.34,1.46-3.98.48-3.85-.39-8.57,0-12.53l-1.02-14.73-1.99.5c-1.31-3.17,2.13-6.96,1.98-9.22-.16-2.41-3.52-4.35-3.47-6.04.17-1.44,2.25-2.2,2.73-3.25,1.63-3.54-2.14-4.93-4-6.99-.85-.94-3.31-4.25-3.74-5.26-.1-.23-.13-.82.24-.74,2.16,1.5,2.86,4.57,5.25,5.5ZM525.25,347.91l-2.49-6c-.24,1.31-.92,3.03-1.6,4.15-.47.78-3.76,4.48-3.41,4.84,2.95-1.03,3.67-4.8,7.49-3ZM437.25,347.41l-5-.5c.35,1.8,2.05,1.78,3.25,2.91l1.74-2.41ZM459.75,350.91l-19.79-2.96c-1.63.69-3.36,2.01-.96,2.95,3.32,1.31,13.81,1.88,17.45,1.46.74-.08,2.99-.62,3.29-1.45ZM525.68,368.84c1.17-1.85-2.88-7.54-2.97-10.17-.14-3.9,5.22-8.7.32-9.78-4.52,1.78-3.1,5.21-4.1,8.45-.4,1.29-1.94,2.35-1.98,3.32-.03.78,1.68,5.3,2.29,6.02.89,1.05,5.41,3.78,6.44,2.16ZM513.14,349.49c-2.31.29-5.88,4.28-5.32,6.57.34,1.37,6.54,3.44,7.62,3.23,4.03-.77,2.35-10.4-2.3-9.8ZM527.57,350.44c-.51.15-2.89,4.73-3.08,5.45-1.03,3.95.75,5.65,2.1,8.93.94,2.27-.17,3.96,3.04,4.48,3.67.59,4.74-1.01,4-4.52-.48-2.28-3.39-4.3-3.8-5.73-.57-2,2.24-8.13-2.27-8.6ZM474.26,352.41c-3.13.73-6.92-1.16-9.75-1.03-1.49.07-2.36,1.07-3.64,1.4-7.06,1.79-13.01,1.24-20.12.14l8.74,5.5c-2.15.51-12.21-6.06-12.74-5.51,1.31,21.63.04,43.5-3.85,64.79,4.42,3.23,2.89,6.32-.12,9.89,1.34,1.35,3.2,3.67,3.31,5.64.07,1.24-.84,2.59-.84,3.93-.06,9.95,3.08,20.96,2.02,31.52-.2,2-1.61,3.66-1.52,4.94.38,5.32,5.61,13.47,5.51,19.51-.03,1.62-1.32,4.14-1.33,5.03,0,1.06,2.75,4.97,3.19,6.62.69,2.55.57,5.56.12,8.13,7.67.85,14.82-2.07,21.35-5.65.96-1.34,1.49-10.77,1.65-13.11,1.08-16.02.89-32.4,2.14-48.36.28-3.55,2.36-8.74,1.76-11.53-.19-.87-.96-1.59-1.15-2.35-1.55-6.5.26-15.62.76-22.27.98-13.19,2.02-26.32,3.01-39.49.44-5.9,1.23-11.83,1.5-17.75ZM509.8,367.36c.84.34,2.7-.06,2.45-1.19-3.19-1.67-1.35-6.54-3.99-7.26-.31,2.97.61,5.7,1.54,8.45ZM515.17,360.5l-4.41-.58c.58,3.3,2.35,7.87,6.5,6.99l-2.08-6.41ZM523.26,371.4c-.6-1.53-5.41-3.89-6.5-2.99.48,2.7,4.34,3.1,6.5,2.99ZM533.25,370.91c-2.4,1.1-7.23-2.47-7.5.49,1.36-.1,2.41,1.01,3.74,1.03.79.01,3.36-.63,3.76-1.52ZM397.26,502.66c.35,2.13-.26,5.02,0,7.25.87.22,1-.36,1.5-.75,4.55-3.49,6.7-6.96,12.73-9.27,12.22-4.68,23.22,2.92,26.63,14.9.92,3.25-.05,3.53-.06,6.17,0,.57-.09,2.27.95,1.94,2.34-4.28,3.78-10.39,3.28-15.27-.39-3.81-4.49-10.51-7.04-13.46-12.07-13.95-30.2-10.27-40.3,3.72l-.11.69c.86,1.04,2.2,2.76,2.42,4.07ZM436.25,514.91c-4.3-14.38-16.72-19.28-29.66-10.92-1.02.66-5.74,4.63-6.1,5.44-.52,1.18.69,3.88.71,5.28.07,4.18-1.98,8.79-5.44,11.19,3.08.51,3.83-.77,5.01-3.23,2.37-4.91,2.46-11.41,7.81-14.69,9.48-5.82,21.47-1.51,27.67,6.93ZM394.72,500.44c-.44-.29-1.3-.05-1.71.49-1.24,1.66-1.2,18.03.49,17.98,1.36-1.47,2.05-3.78,2.24-5.75s.3-11.85-1.03-12.72ZM467.75,504.41c-1.05-1.01-1.63,2.7-1.98,3.26-1.3,2.12-10.61,5.6-13.32,6.18-3.13.67-5.99.61-9.17.58l-2.02,7.97c4.26,2.19,24.58-3.22,25.89-6.85.5-1.38,1.42-10.35.6-11.14ZM438.25,533.91c-1.36-10.2-.43-19.53-10.89-24.85-7.08-3.6-18.14-3.24-21.98,4.74-2.27,4.72-2.65,14.68-9.63,13.62.64,2.75-2.36,7.06,0,9,3.58-5.57,10.21-10.62,16.62-12.64,9.55-3.01,16.48-.35,22.88,6.9.42.47,2.26,4.04,3.01,3.24ZM396.76,522.91c2.38-1.32,4.44-10.41,1.74-11.5-2.01,3.09-1.58,7.83-1.74,11.5ZM466.25,526.41c-.26-1.31.69-7.09-.79-7.48-3.92-1.02-.79,9.33.79,7.48ZM462.25,520.91c-5.03.7-9.71,3.03-14.81,3.44-1.73.14-6.9-.54-7.36-.39-2.06.63-.55,2.63.98,3.4,6.41,3.22,14.07-.39,20.19-2.44.03,2.48,2.47,5.03,5,5,.38-1.89-1.52-2.06-2.51-3.24-1.4-1.68-1.69-3.61-1.49-5.76ZM438.75,545.41c.95-10.69-8.73-21.58-19.61-21.36-8.09.16-22,8.54-24.66,16.35-.97,2.84-.83,7.03-1.73,10.01,1.06.23,1.14-.54,1.59-1.16,8.52-11.85,24.95-27.56,38.4-12.57l6.01,8.73ZM465.63,531.53c-.41-.33-1.56-.31-2.36-.89-1.37-.99-2.17-2.48-3.32-3.67-5.05,1.72-10.47,3.65-15.91,2.89-1.75-.25-3.03-1.47-4.79-1.45l.57,12.18c.28.86,4.04,1.23,5.19,1.31,6.42.49,21.11.24,21.07-8.85,0-.49-.06-1.21-.45-1.52ZM439.76,566.91v-14.25c0-3.59-6.9-14.15-9.74-16.76-12.1-11.14-29.27,4.8-35.47,15.55-3.46,6-4.33,10.74-3.81,17.73.15,2.03.41,5.7,2.52,6.48,7.66,1.4,15.43,1.96,23.22,1.76.35-2.49,1.25-4.75,2.78-6.77,1.29-1.7,10.92-10.42,12.52-10.98,1.33-.46,3.05-.57,4.27.19l3.71,7.03ZM463.1,545.76c.73-.82,2.16-5.66,1.65-6.35-7.18,5.27-16.11,4.28-24.49,3.5l.59,5.42c5.18,1.39,18.5,1.63,22.26-2.57ZM424.76,577.41c8.9.36,14.12-.5,13-10.75-1.24-11.41-9.53-2.99-13.49,1.52v.73c.83.09,1.51.58,2,1.25,2.72,3.69-2.25,6.61-1.51,7.26ZM418.25,577.41c3.95,1.88,9.87-4.45,6.29-7.04-3.26-2.36-6.72,4.29-6.29,7.04Z"/>
  <path d="M463.43,75.08c.42-.43,1.75-1.19,2.34-1.41,12.36-4.61,14.26,16.33,1.27,14.21-5.12-.84-7.11-9.18-3.61-12.8ZM471.1,77.4c0-1.28-1.04-2.31-2.31-2.31s-2.31,1.04-2.31,2.31,1.04,2.31,2.31,2.31,2.31-1.04,2.31-2.31Z"/>
  <path d="M428.93,82.58c6.32-6.36,10.47,8.11,4.58,12.33-6.61,4.73-8.86-8.01-4.58-12.33ZM432.05,83.43l-1.71,2.14,1.66,1.87,1.74-1.76-1.69-2.24Z"/>
  <path d="M453.82,98.98c-.13.21-.47,3.77-.82,4.93-3.1,10.33-7.87,6.61-12.99.47-.44-.53-.52-1.5-.89-1.85-.77-.74-3.72-.79-4.37-2.38s2.41.13,2.87.17c3.23.28,5.09-4.17,5.86-4.26,4.05,1.51,9.01,2.21,13,.34,2.09,1.69-2.46,2.23-2.67,2.57ZM442.09,99.74c-.6.6-1.85.73-1.84,1.91l1.76,2.75,2.75-5.73c-1.49-1.85-1.78.17-2.67,1.07ZM452.24,99.42l-5.89-.4c-.93,1.44-3.33,6.37-2.5,7.79,6.06,5.63,8.03-2.29,8.38-7.39Z"/>
  <path d="M474.61,88.02c6.54-1.49,11.37,4.01,11.67,10.13.55,11.22-12.86,10.61-16.42,1.91-1.74-4.25-.48-10.85,4.75-12.04ZM474.63,89.53c-7.63,1.97-4.14,16.07,4.81,15.7,9.63-.4,5.7-18.41-4.81-15.7Z"/>
  <path d="M443.76,93.41c-.23.33-2.62.45-2.93-.07l-.06-2.43c1.36-.64,3.83,1.33,3,2.5Z"/>
  <path d="M425.26,419.9c-2.36-3.27-7.78-4.99-11.62-6.13-5.67-1.68-5.91-2.24-10.62,1.65-1.84,1.52-3.9,5.11-6.27,4.73,1.3-2.01,3.45-4.2,5.27-5.73,1.44-1.21,4.23-3.55,5.98-3.57,2.91-.02,12.95,3.8,15.61,5.45,1.53.96,5.27,4.47,1.9,5.1-2.61.49-6.6-.25-9.49,0s-7.46,1.57-10.1,2.9c-1,.5-4.33,3.19-4.9,3.09-1.48-.26.1-1.69.49-2,6.53-5.22,15.75-5.69,23.75-5.51Z"/>
  <path d="M382.95,196.22c5.5,5.76,15.81,14.85,20.08,20.66.5.68.94,1.01.72,2.02-.94.22-1.18-.53-1.75-1-8.88-7.31-16.62-18.03-24.74-26.26-.2-.62.12-1,.74-.74,1.09.47,3.91,4.23,4.95,5.31Z"/>
  <path d="M429.26,161.41l8.99-2.5-.33,1.51-11.41,3.49-.54-1.02,2.28-3.48c-.59-.53-7.11,3.25-6.99,1.25.06-.89,7.24-2.95,8.48-3.03,3.56-.22-1.21,3.12-.49,3.77Z"/>
  <path d="M390.76,164.91l3.75-1.49c.96,2.38-3.92,3.22-5.51,4.48-1.73-.7,1.05-4.2.76-4.48-1.63-.25-2.66,2.61-3.99.75l5.74-4.24c2.11,1.07-1.21,4.55-.75,4.99Z"/>
  <path d="M401.75,156.91c.78,3.26-3.7,5.27-.5,7.25.13.74,0,.89-.75.75-1.11-.2-3.99-3.14-3.25-4,2.9.05,2.39-1.13,3.27-3.01.35-.74-.08-1.24,1.23-1Z"/>
  <path d="M487.76,206.91v16.5l-28.21-3.44c-.7-.5-.3-14.9-.29-17.06,9.65-.13,19.12,2.15,28.5,4ZM486.17,208l-24.94-3.83c-.79.49-.89,1.12-1,1.97-.18,1.45.08,12.32.53,12.77l25.5,3.01c-.41-4.65,1.4-9.36-.09-13.91Z"/>
  <path d="M418.66,536.56c13.61-1.13,19.87,10.47,11.31,21.31-4.2,5.32-21.27,15.12-27.96,14.94s-6.09-9.22-4.76-13.67c2.81-9.37,10.77-21.7,21.41-22.58ZM430.25,542.41c.82-.74-2.37-2.62-2.88-2.86-5.53-2.6-12.5-2.05-17.11,2.12l20,.74ZM431.66,544c-7.62-1.17-15.44-.36-23.15-.57l-3.25,3.24,25.74.75c1.87-.24,1.31-2.17.66-3.41ZM431.51,548.41h-27c-1.35.92-4.59,6.47-4.23,7.7l.81.72c7.47.25,14.96-.06,22.44.06,1.81.03,3.89,1.27,5.59-.13.99-.82,4.47-7.72,2.39-8.35ZM398.26,563.41h22.25c.39,0,5.86-3.55,6.25-4.5l-27.52-.78c-.85,1.55-1.49,3.51-.98,5.27ZM417.25,564.91c-5.96.5-12.43-.84-18.25,0-.47.07-1.02.21-1.12.73l1.18,3.21c4.17-.29,9.67.52,13.55-.82,1.07-.37,2.51-1.35,3.56-1.96.61-.36,1.38.29,1.08-1.15Z"/>
</svg>