<?xml version="1.0" encoding="UTF-8"?>
<svg id="katman_1" data-name="katman 1" xmlns="http://www.w3.org/2000/svg" viewBox="0 0 841.89 595.28">
  <path d="M596.58,186.4c13.87-1.99,5.18,11.57,3.3,18.45-.25.92-.94,1.63.21,2.32.88.53,15.82-5.48,17.48-.6,1.56,4.6-5.64,20.63-4.81,21.35,9.13-1.59,18.14-4.84,27.29-6.84,3.12-.68,6.7-.46,9.5-1.05,2.56-.54,10.94-6.71,14.82-8.41,23.64-10.37,12.52,2.47,12.75,17.76,9.1,2.6,19.18,5.34,27.62,9.68,1.63.84,4.12,1.98,4.3,4.11.52,5.99-21.04,16.64-21.51,22.53-.19,2.3,8.03,14.72,9.53,17.65,2.22,8.31-9.09,3.63-13.53,3.67-1.75.01-9.04,1.01-10.19,1.84-2.96,5.19-6.34,9.95-9.93,14.71-14.5,19.22-30.45,37.83-49.06,52.99l-4.28,20.74c6.62,8.08,12.1,15.99,17.13,25.16,6.91,12.59,17.85,35.37,17.22,49.63-.37,8.38-4.05,16.17-5.62,24.29,6.95-2.4,16.28-8.75,15.47-17.18-.44-4.62-6.53-2.92-4.77-8.36.57-1.77,7-6.85,8.68-8.92.59-.73,3.73-7.82,5.25-6.36-1.86,1.94-1.58,4.67-2.79,6.7-1.11,1.86-8.17,7.25-8.44,8.47.57,2.16,4.11,2.83,4.75,5.02,3.28,11.18-11.96,20.73-20.63,24.12-1.53,3.65-9.88,9.89-10.18,13.1-.38,4.05,1.51,8.19.22,13.53-1.54,6.36-8.72,13.93-14.81,16.16-7.31,2.68-12.22.2-19.54.87-2.56.24-16.06,3.41-16.79,5.06-2.12,4.75,3.23,11.68-2.41,14.47-4.96,2.45-7.12-4.36-10.94-3.26-1.37.39-2.12,2.78-3.28,3.81-7.31,6.43-14.04,5.78-21.41,9.56-2.44,1.25-3.48,3.08-5.58,4.28-8.2,4.69-38.8,11.05-48.71,11.81s-36.14-.37-44.47-4.77c-3.55-1.87-2.04-3.75-7.62-3.71-8.46.07-11.3,3.53-17.74,5.51-13.31,4.07-44.46,3.47-56.53-3.66-3.55-2.1-1.37-3.21-2.21-6.23-.78-2.79-11.07-6.3-13.91-6.5-10.34-.75-15.88,6.64-25,6-9.34-.66-14.68-3.31-22.61-6.95-8.48-3.89-15.64-1.17-23.83-.75-13.06.66-27.74-.76-40.37-4.02-6.29-1.62-15.12-3.02-14.22-11.15.25-2.3,1.54-3.29,1.97-5.06,1.22-4.94-.09-6.09,4.02-10.76,8-9.1,18.66-10.74,29.2-14.43,1.62-.57,4.91-1.71,5.33-3.09,3.01-9.86-12.58-16.53-20.47-15.57-2.34.29-4.12,1.97-6.66,1.43-.91.77,4.77,4.98,1.41,8.81-4.64,5.28-8.48,2.38-13.73,2.6-5.24.22-17.55,2.79-17.99,9.37-.36,5.37,4.02,6.48-2.53,10.78-3.78,2.48-5,.82-6.91,6.47-1.14,3.38-1.94,7.61.32,10.71.98,1.35,3.56,1.83,4.23,3.33-10.29-.82-9.07-14.02-3.18-19.01,1.81-1.53,4.36-1.09,5.47-3.68,2.11-4.94-2.3-7.5,2.65-12.84,3.1-3.34,9.25-5.55,13.73-5.97,3.61-.34,15.38,1.63,15.71-2.63.42-5.31-11.57-6.46-14.7-7.55-1.52-.53-2.2-2.16-3.85-2.48-3.13-.61-8.24,2.04-8.78-2.12,2.26-.04,2.55-2.36,3.87-3.53,3.23-2.85,10.64-6.68,14.82-7.7s8.9.54,10.4-4.39c1.62-5.32-3.68-5.25-5.87-9.02,5.88,1.98,11.84,5.7,6.35,12.13-2.49,2.91-8.02,1.9-11.46,2.81-2.63.7-11.66,5.23-12.85,7.56-.63,1.24-.13,1.34.72,2.11,2.59-.29,2.53-2.41,5.49-3.65,3.61-1.51,9.39-1.76,13.2-.96,2.55.54,6.57,4.27,8.04,3.91,2.97-.72-1.69-4.39-.72-5.66,4.59-2.38,14.67-1.29,14.23-8.68-.62-10.41-19.3-15.7-27.92-14.53-.16-1.23,1.59-.66,2.45-.7,6.24-.28,12.62.66,18.11,3.72,13.42,7.48,12.69,18.48-3.33,20.91-.44.54.79,1.43,1.04,2.51.21.91-.26,2.44.11,3.03.31.49,3.77.8,4.82,1.16,5.95,2.09,21.95,10.56,15.27,18.41-2.82,3.31-17.31,6.26-22.54,8.77-4.01,1.92-12.97,7.56-14.21,11.83-.59,2.02-.06,3.93-.47,5.86-.63,2.98-3.33,3.67-1.16,7.81,3.35,6.4,23.65,10.84,30.61,11.61,12.05,1.34,18.49-.87,29.55-1.93,14.42-1.39,24.63,7.53,39.34,8.35,4.44.25,12.3-2.67,17.1-4,.67-.19,2.14-.02,1.53-1.25s-5.72-2.99-7.26-4.01c-17.73-11.67-38.01-38.2-45.35-58.11-2.1-5.7-8.04-26.44-7.73-31.66.09-1.45,1.74-1.78.9-3.7-.72-1.63-10.54-10.3-12.71-12.68-5.61-6.15-10.54-12.88-16.18-19.01-1.13.65.26,1.58.64,2.18,7.24,11.63,15.73,21.92,25.76,31.25l-5.98-3.17c-16.02-14.85-28.6-32.8-38.67-52.12-19.54-14-42.52-27.82-60.22-43.94-3.47-3.16-7.82-9.06-11-11.52-2.49-1.93-6.37-2.22-9.18-3.48-5.38-2.42-9.06-7.93-12.26-12.75-1.14-.8-12.78,9.3-13.94.97-.74-5.35-.04-9.79,0-14.74.04-6.54-5.08-5.88-9.14-9.22-9.7-7.98,7.06-11.64,8.26-15.56,1.24-4.03-6.02-17.27-1.29-19.57,4.16-2.02,20.51,1.84,26.42,1.8,4.08-.03,10.63-.38,14.75-.75,15.69-1.39,31.18-6.99,47.05-4.89,1.07-.25,2.43-9.55,1.32-11.09-21-26.09-32.84-57.14-46.48-87.24-12.16-26.83-32.32-64.05-34.63-93.46-.24-3.09-.66-12.75,1.73-14.5,2.76-2.01,3.4.65,5.16,1.27,9.45,3.36,21.19,5.39,31.14,8.28,36.52,10.59,74.77,22.88,109.97,37.13,3.03,1.23,20.72,9.81,21.89,9.57.96-.19,2.84-3.29,5.26-2.82.7-3.35,3.96-17.42,6.47-18.55,1.54-.69,2.89-.29,4.16.76l12.33,14.37c24.95-32.04,61.41-50.49,93.79-73.76,2.54-.23,3.76,1.21,3.68,3.68-4.9,17.91-9.19,36.11-11.22,54.61l60.89-31.65c3.31.76,2.16,3.22,1.38,5.61l-15.11,28.52,1.03,1.04c11.22-2.82,23.78-9.58,35.24-10.58,1.83-.16,3.43.88,5.24.44,6.46-1.58,18.37-8.43,25.36-11.3,43.01-17.65,87.41-32.01,131.57-46.53,6.99-.43,3.45,3.31,2.28,6.54-14.1,39.22-28.27,75.38-45.78,113.29-6.15,13.32-13.05,26.28-19.12,39.64ZM550.12,499.6c17.83,3.25,27.66,4.43,45.9.51,15.35-3.3,26.98-10.18,35.9-23.22,13.38-19.57,7.11-39.37-4.51-57.74-2.6-4.11-21.25-28.71-24.81-27.93-5.22,7.48-9.09,16.21-16.58,21.81,1.15-4.42,4.73-8.5,6.68-12.67,1.73-3.7,7.39-18.88,7.39-22.17v-11.96c0-.25-.74-1.13-.8-1.67-1.97-.51-3.9.64-5.88.67-4.04.07-2.88-.69-7.24.5-3.09.85-6.82-3.92-3.34-6.92,1.64-1.42,9.32-3.35,12.55-5.04,20.5-10.78,35.56-26.65,50.82-43.49,6.24-6.88,14.69-19.07,21.09-24.66.35-.3,5.35-3.47,5.68-3.52l17.91,1.42c.15-2-1.05-3.71-2.11-5.27-.7-1.04-6.53-7.56-7.34-8.14-3.13-2.26-2.36.98-3.89,2.55-2.65,2.72-19.65,3.44-24.86,6.11-3.88,1.99-3.3,8.27-8.25,8.28-.29-2.71.97-10.47,3.11-12.01,2.03-1.46,13.73-2.23,17.32-3.09,5.13-1.23,6.15-2.1,2.46-6.73-3.61-4.51-16.58-9.76-8.07-15.19,6.59,4.41,12.64,9.37,17.21,15.9,6.09-5.45,13.45-9.37,19.69-14.79,1.83-1.59,5.01-3.68,5.3-6,.17-1.37-.18-.83-.89-1.19-4.46-2.22-28.79-6.48-29.97-8.38l1.31-16.4c-.03-.72-1.18-.45-1.73-.36-3.76.61-19.66,10.18-21.91,13.29-1.41,1.95-.89,4.62-3.81,5.4-1.83.49-9.8-.65-13.02-.41-18.7,1.4-35.8,7.03-51.68,16.59-2.43,1.46-7.77,5.89-9.57,6.62-.32.13-1.15.18-1.04-.34l19-14.42c-1.78-1.34-17.77,10.39-20.08,12.64l-6.66,7.05c-.21-1.64.53-2.63,1.4-3.87,2.08-2.95,9.5-9.78,12.52-12.28,7.96-6.58,17.11-11.11,26.24-15.82,1.73-7,1.03-14.79,6.26-20.47-.85-1.15-.92-.98-2.13-.76-1.31.24-14.82,5.15-15.45,5.68-1.63,1.35.3,6.07-1.78,6.68-2.98.88-5.71-7.59-7.73-9.14-1.71-.86-1.17,4.3-1.83,4.83l-2.72.09c-1.32-13.18-9.38-24.72-15.91-35.83l-10.84-12.73,13.02,9.02c1.49,0,7.92-11.88,9.49-10.42l-7.73,10.92c0,1.45,1.18,1.9,2.43,1.76,3.22-.36,10.35-14.19,13.06-17.25.77-.86,1.45-2,2.8-1.77l-13.81,21.09c.43,4.38,3.24,2.99,5.36.37,6.48-7.99,12.29-21.3,18.4-28.05.91-1,1.93-2,3.41-1.86l-21.68,34.97.91,1.61,27.1-40.81-23.92,41.88c.51,1,1.22.22,1.73-.38,3.46-4.1,7.88-11.84,10.8-16.65,15.7-25.89,30.28-55.41,40.78-83.79,6.07-16.4,9.56-33.64,13.42-50.67l-.96-1.54c-6.92,1.09-13.87,1.65-20.73,3.12-19.07,4.08-35.58,13.56-53.01,21.59-24.49,11.29-49.97,22.23-72.48,37.31-1.98,1.33-10.87,7.43-11.79,8.62-.52.67-.9,1.16-.62,2.07.24.77,10.81,8.58,12.55,10.01.78.64,1.1,1.81,1.82,2.41,2.01,1.66,5.38,2.35,6.7,4.91-4.35-1.56-8.04-4.46-12.19-6.45-6.35-3.04-13.42-4.7-19.14-8.86l-13.71,13.2c2.31-5.62,5.85-10.64,9.55-15.43,4.3-5.56,10.6-10.93,14.65-16.31.81-1.08,2.51-2.47.78-3.43-10.23,6.13-25.83,9.06-35.07,16.3-4.3,3.36-7.37,15.61-12.19,6.56l27.19-45.39c-1-.2-1.73.22-2.61.55-8.65,3.24-26.24,12.75-34.21,17.87-9.78,6.29-17.13,15.66-28.88,18.28l-15.95,12.55c-1.13-1.11,13.91-16.57,15.09-18.33,7.5-11.2,9.78-32.05,12.97-45.45.82-3.43,2.74-7.62,3.31-10.79.16-.87.26-1.94-.77-2.14-1.39-.27-20.88,13.93-23.49,15.91-17.25,13.09-34.58,30.11-47.52,47.5-2.26,3.03-13.22,20.81-14.49,21.45-4.4,2.23-3.17-8.21-2.39-10.28-5.95-.93-7.36-8.05-13.1-9.5-1.26.72-3.51,14.14-3.53,16.26-.04,3.9,4.72,16.09-1.07,16.54-5.56.44-4.39-9.72-5.25-13.41-1.36-1.39-5.82,4.6-7.37,4.23-1.08-.76-.88-2.29-1.81-3.13-2.03-1.83-11.66-6.82-14.73-8.5-44.75-24.56-94.33-39.36-144.02-50.3-4.11-.26-1.81,6.52-1.35,9.16,5.74,32.7,26.16,72.15,42.48,101.1,13.9,24.66,32.69,44.61,51.69,65.19.35.84.27,5.33.18,6.5-.09,1.1-1.15,2.06-1.14,3.52.01,1.74,1.81,2.77,1.53,4.89s-2.36,1.55-3.61,2.79-4.54,11.98-5.25,14.46l-4.92,21.81c-1.28-.84-.99-1.86-1.09-3.12-.4-5.43-.36-11.12-.67-16.57-6.95-.43-13.3-3.39-20.29-4.7-11.45-2.15-25.44-3.02-37.01-1.56-2.06.26-12.42,3.98-12.93,1.01l.19-2.49-19.98.78c-.51,2.49.86,11.84,3.76,11.9,1.03.02,8.3-4.69,5.9,1.63-.86,2.28-16.81,8.96-16.07,12.07l11.3,5.06c-.08,6.42-4.43,12.57-1.49,18.94,2.76,1.99,10.83-6.06,14.13-4.31,1.37.72,1.91,4.06,2.92,5.55,6.37,9.41,20.25,16,30.14,21.24,4.56,2.42,9.29,4.77,14.09,6.68.16,1.31-1.43.55-2.14.38-4.67-1.11-9.21-4.21-13.66-6.05-.67-.28-1.95-1.36-2.49-.33,7.08,5.56,14.95,12.45,23.09,16.33.71.34,2.37,1.49,2.95.57-1.99-1.79-6.62-3.95-7.63-6.45-1.85-4.56,4.41,1.81,4.88,2.16,8.08,6.04,18.44,9.73,28.09,12.37l-.47-2.12c-9.5-2.89-20.4-5.98-26.97-13.72,3.09-1.16,5.75,2.84,8.34,4.33,2.45,1.41,17.73,8.47,19.1,7.29.29-1.42-.68-1.64-1.61-2.25-3.13-2.05-16.61-5.88-17.4-10.06-.17-.91.11-1.43,1.05-1.05,2.61,1.04,6.89,4.65,10.07,6.12,1.19.55,6.36,3.08,7.19,2.31l-1.4-13.36,1.42.34c9.07,23.57,17.13,47.54,31.37,68.57,11.16,16.48,24.51,32.62,40.08,45.08,3.36,2.69,7.08,5.06,10.88,7.07.17,1.28-1.51.65-2.14.38-1.56-.65-12.09-7.33-12.63-6.72.99,10.54,3.27,20.95,6.71,30.94,7.36,21.38,18.87,42.23,41.3,50.2,22.06,7.84,41.77.64,62.49-7.23-.52,2.61-6.02,3.71-6.73,4.92-.47.79.56,1.98.08,2.8-.58.99-3.91,1.96-3.95,2.52,1.07,3.72,4.07,6.22,6.82,8.7,1.65.3,8.69-11.56,13.28-11.29,1.19.07,11.42,6.46,14.24,7.65,3.28,1.38,17.58,7.02,19.55,2.98s-1.93-15.9-2.48-20.76l2.13.69c-.35-4.04-.24-8.76-.67-12.7-.94-8.66-7.16,9.04-8.84,10.24l1.79-12.2c-7.64-4.5-8.49,2.45-12.34,7.28l-5.99,5.62,7.15-11.49c.44-1.08,2.35-4.94.22-5.4-1.69-.37-10.95,11.77-12.31,10.55,1.66-3.29,5.66-5.67,4.9-9.82-15.55-2.39-32.87-5.55-46.6-13.57-.78-.45-1.74-.96-1.94-1.93,3.95,1.67,8.01,3.17,12.13,4.4,24.19,7.25,61,6.97,85.85,2.42,10.3-1.89,21.88-6.76,32.08-10.15,19.35-6.43,36.16-18.76,52.58-30.47,1.03,2.44-3.51,4.89-2.14,7.05l10.23,5.97c-1.2,1.69-1.2.61-2.31.23-5.13-1.73-10.84-7.55-13.87-.23l17.59,8.1c-7.22-.49-13.9-4-20.76-6.07-2,.4-3.17,2.19-3.87,3.95l36.6,12.68c-3.77-.22-7.58-.92-11.26-1.75-8.15-1.83-21.77-8.05-28.71-8.66-1.5-.13-4.39.3-4.38,2.32,3.63,1.77,7.48,3.51,11.28,4.92s7.75,2.28,11.25,3.88c-2.63-.48-5.45-.6-8.32-1.18-5.16-1.05-12.45-4.43-16.84-5.02-1.14-.15-1.94.45-2.99.58-1.23,1.6,4.81,3.54,5.66,3.84,11.87,4.17,26.19,5.89,38.68,6.71.17-1.01-1.24-.98-1.96-1.19-5.02-1.41-9.55-1.59-14.22-3.73ZM569.83,60.43c-1.18-.11-2.28.11-3.39.47-10.8,3.46-24.87,9.77-35.09,14.88-3.47,1.74-7.75,4.06-10.78,6.45l49.26-21.8ZM253.11,103.35l-9.86-5.26c-21.76-8.54-43.37-18.04-66.15-23.58,1.29,1.57,4.25,2.6,6.15,3.35,23.01,9.11,47.11,15.7,69.86,25.5ZM365.72,75.21l-9.86,7.37c-6.05,6.23-13.16,12.18-16.87,20.07l26.74-27.44ZM595.87,192.74c-1.46-1.63-9.35,8.45-9.71,9.66-.82,2.76,1.2,7.3,1.99,10.04,1.56.26,1.93-.99,2.46-2.1,1.35-2.83,4.01-11.43,4.93-14.78.26-.95.49-1.83.34-2.82ZM631.42,229.34c3.44-.2,7.09,0,10.56,0,.45,0,2.97-1.64,2.46-2.81-5.81-.43-11.45.98-16.88,2.82.24,1.93,3.32.02,3.87,0ZM217.56,259.78l-1.68,2.18,3.1,3.96c2.21-1.48,1.1-6.38-1.42-6.14ZM632.46,422.18c-1.17-4.58-4.08-9.39-6.59-13.46-2.64-4.27-6.45-9.73-9.61-13.61-.51-.63-4.2-5.32-4.91-4.59l21.11,31.66ZM508.6,496.08c6.12-1.17,12.87-5.47,18.24-8.85,4.4-2.77,11.11-7.08,14.77-10.57.76-.73,1.79-1.01,1.47-2.4l-34.48,21.81ZM229.18,481.32c-5.85-3.34-13.01-4.86-18.99-1.06l7.34,3.91c4.79,1.2,9.47,2.78,11.66-2.85ZM624.02,493.97c-.82-.58-10.71,6.47-12.63,7.42-4.33,2.15-12.34,5.13-17.02,6.2-2.01.46-9.88,1.09-10.49,1.48-2.2,1.4,4.21,10.63.03,12.71-2.88,1.44-6.75-1.93-9.85-1.77l.07,6.25c.87,1.45,10.5-2.64,12.57-3.12,9.62-2.23,19.71-.2,28.13-4.95,8.92-5.04,12.8-14.4,9.2-24.22ZM551.56,533.41l-1.04,9.17c-.93,1.32-3.81.62-5.13.11-4.52-1.74-19.6-11.99-24.08-15.33-7.7-5.74-14.64-13.41-22.25-19.33-8.46,1.2-16.41,4.7-24.79,6.16-4.18.73-24.59,1.56-25.86,3.7-1.03,2.19.32,4.42.39,6.67.25,7.64,1.04,23.25-.2,30.13-.45,2.47-2.1,4.64-4.56,5.3-1.61.43-4.27-.78-3.72,1.55,24.49,8.03,51.65,5.68,76.31-.75,3.41-.89,10.1-2.35,12.87-4.02,2.32-1.4,2.79-3.55,5.35-5.2,6.74-4.34,16.51-3.12,23.16-9.72,5.69-5.65-5.79-8.97-6.46-8.42ZM570.53,531.97c.12-3.3-.3-6.84-1.75-9.85-1.45.94-.79,1.65-.75,2.79.07,2.01-.16,7.32,2.5,7.05ZM429.07,557.33c-.5-.51-11.57-3.7-13.56-4.4-1.61-.57-4.58-2.66-5.82-2.63-2.9.06-8.46,11.21-11.95,11.19-3.06,0-12.19-10.23-15.52-11.92-8.52,1.65-16.85,4.58-25.65,4.24.72,4.3-.65,5.74,3.54,7.35,13.1,5.05,36.58,7.75,49.95,3.56,3.19-1,5.75-2.89,8.77-3.9s6.56-1.04,9.26-2c.75-.27,2.02-.41.97-1.48Z"/>
  <path d="M635.04,525.4c-9.68,10.07-23.15,15.1-35.99,19.97-24.26,9.19-49.33,16.62-74.84,21.58-24.11,4.69-48.63,6.79-72.45,12.01-5.58,1.22-24.96,1.42-28.86-2.81-1.02-1.11-.39-4.01-2.57-4.03-11.21,3.58-22.8,6.03-34.56,7-10.96.91-21.52.04-32.34-.02-16.53-.1-33.76.63-49.99-.68-4.94-.4-26.25-2.67-28.9-5.58-1.64-1.8-.54-4.21-2.45-5.99-4.74-4.41-19.43-7.62-25.99-9.2-7.65-1.85-33.24-5.44-37.71-10.15-2.52-2.65-3.3-8.05-8.06-8.49-1.92-1.92,4.39-1.54,5.61-1.03,2.93,1.23,3.16,5.67,4.61,7.35,6.79,7.91,53.77,8.78,63.43,19.27,2.19,2.38,2.09,6.19,3.04,7.17,1.09,1.12,6.41,2.06,8.21,2.35,11.65,1.89,24.67,2.54,36.47,2.94,27.17.92,66.06,2.22,92.03-3.75,3.06-.7,8.54-4.17,11.52-1.96.86.64,1.15,2.26,2.45,3.17,4.18,2.92,14.29,2.88,19.34,2.54,20.69-1.43,48.63-6.92,69.46-10.78,31.66-5.86,68.75-16.12,98.15-29.24,9.67-4.32,17.53-9.7,24.51-17.72,1.14.69-.23,1.56-.7,2.12-1.02,1.2-2.41,2.92-3.42,3.97Z"/>
  <path d="M645.06,364.54l.61,1.7c-.36,3.19-16.82.88-15.32,9.8.95,5.63,12.16,2.75,15.02,4.55,2.44,1.54.66,8.59,9.23,7.05s8.42-11.34,17.64-11.29c4,.02,8.66,4.13,12.12,4.83,6.41,1.3,10.12,0,15.67,5.44,7.94,7.78,1.57,13.17-.39,20.72-.84,3.25-.55,7.3-1.73,10.59-1.22.17-.66-1.6-.7-2.45-.37-9.82,2.45-9.92,3.91-17.21,2.41-12-12.57-12.86-20.29-15.69-5.32-1.95-8.33-6.64-13.87-2.98-3.28,2.16-2.99,6.87-9,9.29-2.26.91-8.82,1.51-10.96.78s-2.1-4.78-2.95-6.2c-2.49-4.13-12.02.03-15.84-4.57-3.55-4.28,3.51-8.92,2.13-10.23-4.46.15-7.75-1.72-11.96.71-.31,1.62,1.59,2.01,1.97,3.3.51,1.74-.2,3.72.16,5.35.11.49,1.16.49,1.33,1.04.56,1.86.27,4.32,1.78,5.83,3.37,3.41,10.71.11,14.71,2.01,3.43,5.92-1.54,7.4,3.62,13.44,4.88,5.71,12.86,7.3,20.06,7.74.13,1.22-2.42.77-3.19.72-8.11-.48-19.67-3.4-22.46-12.03-.87-2.67.34-5.17-1.08-7.37-1.92-1.94-11.94-.32-15.21-4.5-1.62-2.08-.57-3.27-1.14-5.19-.27-.9-1.46-1.4-1.81-2.41-.15-.43-1.43-5.99-1.44-6.31-.06-2.61,5.84-5.06,8.05-5.11,2.03-.04,3.37,1.57,6.22,1.4,3.21-.19,12.51-4.39,15.07-2.78Z"/>
  <path d="M688.56,462.52c2.88,2.55,2.77,7.17,1.44,10.51-4.88,12.18-31.95,18.73-41.69,26.58-5.44,4.39-.92,11.13-5.98,15.48-.31-1.75,1.17-3.02,1.36-4.61.32-2.66-.38-5.7.19-8.26.65-2.88,7.52-6.57,10.24-8.06,8.83-4.83,27.85-11.19,32.69-20.1,6.05-11.14-8.99-10.64-15.92-11.68-.77-.47-.51-1.7-.38-2.47.43-2.4,13.28-18.2,15.9-22.15s4.77-7.99,6.95-12.05c1.38-1.52,1.24-.36.79.79-1.2,3.11-4.4,8.36-6.22,11.38-4.28,7.1-9.46,13.58-13.92,20.55.07,1.34,11.82,1.67,14.55,4.08Z"/>
  <path d="M688.52,395.69c-2.82-2.9-8.09-3.22-8.88-7.66,4.53-8.68,17.05,8.77,15.14,13.01-2.07,4.58-4.58-3.62-6.26-5.35ZM691.58,396.84c-.45-4.47-4.49-8.96-9.14-9.14-1.35,1.23,5.59,5.3,6.35,5.96,1.26,1.09,1.59,2.56,2.79,3.18Z"/>
  <path d="M215.81,451.05l-4.22,1.39,8.44,2.82-17.94-2.16c-1.56-.02-14.25,4.19-9.5-.99,2.98-3.26,18.54-1.56,23.22-1.05Z"/>
  <path d="M671.18,430.62c4.13-3.99,12.07-8.59,7.76-15.14l-14.09-5.96c4.61-.24,17.36,2.33,18.54,7.17,1.13,4.62-7.6,13.21-12.21,13.93Z"/>
  <path d="M550.12,303.94c-1.24-.21-.78-3.66-.73-4.6.35-6.32,1.19-12.59.77-19-.07-1.07-.16-4.18-1.43-4.54-.58,3.21-1.15,6.97-1.41,10.21-1.67,21.12-2.52,41.88-10.93,61.57-12.8,29.98-39.92,55.22-70.23,67.01-1.92.75-10.98,4.41-12.14,2.72-3.16-4.61,7.27-6.14,10.24-7.44,8.49-3.73,16.06-9.09,23.58-14.43l3.08-16.4-9.05-6.11c2.98.38,6.7,2.16,9.1,3.91,5.03,3.67,10.7,14.7,11.33-.79.24-6.05-1.89-4.3-5.45-5.79-5.51-2.3-10.83-5.77-17.08-5.8.19-1.41,3.47-.65,4.39-.52,5.56.79,10.6,3.48,16.01,4.74-1.62-4.17-6.52-7.26-10.56-8.79-4.46-1.68-23.67-5.74-27.03-3.24-.77.57-.02,2.01-.81,2.22-9.2-.33-17.96,3.01-26.9,4.68-20.15,3.75-37.53,5.97-58.24,5.16-8.18-.32-25.51-3.96-32.34-.02-3.59,2.07-10.92,11.85-11.57,15.87-2.18,13.39,6.23,4.42,11.94,2.09.74-.3,4.06-1.99,4.2-.38-2.2.57-4.83,2.23-6.56,3.65-3.35,2.77-8.57,9.36-6.44,13.94,1.84,3.97,3.97-1.64,5.28-3.14,3.96-4.56,10.06-9.55,16.17-10.21l-12.41,8.69-1.66,3.26c3.54.19,3.94,3.53,5.76,5.86,3.68,4.7,7.64,11.26,13.08,13.66,9.99,4.41,23.22,5.09,33.94,7.24l-5.99,1.39c-58.19.64-114.52-46.18-130.58-100.96-.61-2.07-1.43-9.8-1.71-10.24-.68-1.06-1.63-.24-1.77.38-.61,2.69,5.02,19.45,6.31,23.21,1.4,4.07,3.14,8.06,4.93,11.97-.1,2.78-2.95-3.06-3.07-3.27-7.38-13.33-8.65-26.95-14.23-39.26-1.3-2.87-4.39-6.36-6.04-9.45-4.46-8.38-7.88-17.62-8.32-27.21,2.29-.26,2.85,3.43,2.82,4.92l1.39-2.1c.29,3.78,1.1,6.29,2.71,9.61,11.5,23.82,42.88,39.82,68.12,43.79,76.58,12.03,149.51-3.43,213.04-47.2,17.99-12.4,27.42-22.2,36.5-42.33,1.04-2.32,1.58-5.33,2.53-7.32,1.02-2.15,3.43-.47,2.86,1.41-2.38,5.68-4.36,11.52-6.8,17.18-1.24,2.86-6.04,10.56-6.33,12.7-.23,1.75,1.08,3.16,1.22,4.82.91,10.28-2.51,22.35-3.47,32.66ZM502.3,333.47c1.39,1.19,10.11-4.33,11.58-5.6,1.06-.92,1.66-2.87,2.77-3.56,1.44-.89,3.76-.87,5.82-1.92,5.13-2.6,6.19-5.11,7.15-10.45.6-3.36,2.72-21.86.85-23.18-.91-.64-2.54-.42-3.53.08-6.56,4.65-14.65,7.46-21.36,11.72-3.54,2.24-5.37,4.35-6.17,8.67l2.9,24.24ZM495.88,306.81l-3.49.28-35.93,16.31c-.38.84-.67,1.75-.65,2.69.09,4.33,1.08,18.13,2.17,21.79.44,1.47,3.42,5.64,5.06,5.23,11.81-4.44,23.87-8.71,34.35-15.87,2.11-10.3,1.24-20.34-1.5-30.42ZM293.09,331.54l-19.55-6.91c-1.75.14-5.86-.53-6.25,1.59,1.64,5.45,6.12,12.55,11.2,15.34,4.6,2.53,10.67,3.94,15.4,5.71,1.46.55,3.87,4.07,4.26,1.38.76-5.29-5.02-11.4-5.07-17.11ZM418.61,362.96c1.95,1.25,33.97-5.37,35.87-7.95,1.28-4.81.36-26.47-3.6-28.9l-37.71,8.06c.43,9.8,2.04,19.59,5.43,28.79ZM326.85,337.89l-28.69-5.09c.46,6.88,3.6,12.93,5.61,19.37,3.2,1.55,27.14,8.4,28.17,7.37l-5.09-21.65ZM410.07,334.91l-37.93,4.29c-1.67,1.99,4.9,22.6,6.53,26.04,1.34,1.07,12.91.76,15.58.66,3.34-.12,7.89-.43,11.22-.74,3.08-.28,8.81-.09,8.77-3.76-.11-8.92-5.74-17.76-4.19-26.5ZM333.11,337.82l-1.19,1.66c1.54,7.37,1.28,15.79,6.36,21.82,4.18.42,33.92,5.38,34.87,3.9,2.96-4.58-5.07-20.14-5.26-25.77l-34.78-1.62ZM499.45,360.24c-7.98-5.84-18.53-12.05-28.15-5.97l28.15,5.97ZM350.94,417.96c.64-.67-4.08-7.43-6.32-6.33-.5,4.02,3.72,4.45,6.32,6.33Z"/>
  <path d="M520.56,253.97c-1.26.16-.68-1.58-.61-2.37.24-2.54,1.34-5.25,1.34-7.8.02-7.51-1.53-17.65-3.05-25.16-.68-3.37-3.22-14.87-4.55-17.26-.35-.63-.56-1.27-1.34-1.5-2.17-.71-3.89.81-5.49,2.04-7.53,5.81-16.5,14.18-23.61,20.73-6.68,6.16-13.14,12.71-19.61,19.11-1.98,3.1.86,6.67,1.26,9.82.95,7.41.56,22.53-7.91,25.5-8.12-2.46-8.83-8.57-12.28-14.46-.35-.59.18-1.16-1.21-.88l-12.25,15.27c-1.09,4.06,13.36,10.12,16.64,11.29,15.91,5.64,37.29,2.27,50.79-7.98,1.63-1.24,7.29-8.41,9.21-6.62-2.63,10.02-14.85,11.94-22.85,16.2l-19.37,5.27c-.34,1.7,1.37,1.01,2.45,1.05,8.17.3,11.35-.16,19.2-1.22.76-.1,2.43-.78,2.26.51-13.32,5.82-27.18,3.24-40.96,1.21-3.64-.54-7.97-2.12-11.54-2.54-2.68-.31-12.61.84-13.58-1.93-.91-2.61,2.3-4.26.98-6.6-6.24,3.22-8.19,13.8-15.62,5.03l-5.82,1.71c-1.64-4.77-11.05-5.36-11.82-9.32-.61-3.16.02-7.09-.17-10.42-.08-1.38-.67-2.7-.73-4.2-.21-5.74.21-11.53.04-17.27l5.29,23.91c.75,2.78,2.41,4.01,5.25,4.25.89-7.03,1.15-14.24,2.32-21.26.51-3.07,1.6-9.52,2.62-12.16.42-1.09.6-2.03,2.1-1.76-3.11,11.32-2.33,23.15-1.3,34.73l9,5.07c6.34-5.68,12.79-11.52,18.8-17.52,7.82-7.81,15.28-17.46,23.12-25.09,6.53-6.35,14.05-11.82,20.68-18.06,14.13-13.31,27.84-27.34,42.7-39.68,8.05.91,1.52,5.92,1.33,8.09-.31,3.48,4.04,16.03,4.52,21.23,1.24,13.35-3.1,28.21-6.25,41.08ZM458.61,249.05h-2.09c-.42,3.74,2.71,8.41,1.05,11.96-1.22,2.6-4.64.79-4.51-1.67l-1.47-.08c-1.97,3.12,5.13,19.4,8.31,13.23,3.44-6.69-.03-16.54-1.28-23.43Z"/>
  <path d="M373.46,278.6c1.32,1.73-6.07,14.94-8.16,16.11-1.82,1.02-3.55.5-5.23,1.1-6.87,2.45-11.34,4.28-18.02,7.32-17.86,8.12-36.56,9.89-53.68-1.01-1.87-1.19-8.75-7.13-9.57-8.73-.5-.96-.08-1.9.73-2.12,1.85-.49,4.89,4.59,6.89,5.76,12.89,7.58,31.95,9.97,46.26,5.86,2.78-.8,17.33-6.92,16.82-9.77l-12.98-14.52c-1.75-.4-2.99,6.96-6.63,8.12-9.04,2.9-13.48-9.3-14.1-16.23-.31-3.45.57-8.11-.03-11.23-.41-2.13-8.38-8.11-10.6-9.81-11.45-8.74-24.05-16-34.78-25.73-1.12.84-1.23,2.13-1.56,3.35-2.92,10.98-3.69,27.18-2.23,38.43.63,4.82,1.74,10.63,4.13,14.87l-1.39.34c-11.68-20.01-13.19-43.09-9.27-65.67-2.09-2.8-10.7-10.55-11.01-13.62-.16-1.64,2.22-4.73,4.1-3.45,5.44,10.38,15.18,17.83,23.9,25.38,25.96,22.48,54.02,42.67,80.72,64.27l1.45.74,14.26-9.77ZM324.69,266.84c-.35-.44-1.48-.67-1.91-1.26-2.14-.66-1.5,8.2-1.32,9.77,1.55,13.29,11.89,10.99,11.65.19-.01-.65-.34-2.36-1.51-1.87-7.68,10.01-4.73-4.08-6.91-6.84Z"/>
  <path d="M155.2,306.84l1.48,8.36c-4.63-6.57-11.77,2.62-17.55,1.04s-1.1-13.3.53-17c1.31-2.96,2.53-7.32,6.51-5.55,2.77,1.95-4.54,12.71-4.95,15.54.54.63.76,1,1.68,1.02,2.52.05,9.98-4.88,12.29-3.41Z"/>
  <path d="M222.42,231.89c-9.07-11.13-21.13-22.04-28.7-34.3-.54-.88-1.36-1.55-1.13-2.74.72-.79,4.74,3.58,5.28,4.21,5.09,5.89,9.49,13.03,14.76,19.02,2.63,3,17.16,16.27,16.55,19.33l-2.13.73c-2.12-1.14-2.17-3.84-3.24-5.24-.37-.49-1.1-.66-1.4-1.02Z"/>
  <path d="M231.29,230.74c-1.87.39-1.54-.15-2.32-.87-6.58-6.07-18-18.47-22.59-25.95-.54-.88-1.36-1.55-1.13-2.74.71-.76,3.32,2.21,3.88,2.8,3.39,3.63,6.39,8.78,9.84,12.69,3.2,3.62,8.65,7.61,11.3,11.22.71.96,1.33,1.42,1.02,2.84Z"/>
  <path d="M273.39,290.74l12.15,12.1,13.32,7.43c-6.73-1.72-13.93-4.78-19.33-9.16-1.57-1.28-9.83-8.84-8.11-10.53l1.97.16Z"/>
  <path d="M505.78,281.42c.32,2.86-3.05,4.51-5.16,5.75-4.27,2.49-9.07,3.65-13.84,4.81-.39-2.02.55-1.13,1.54-1.59,3.7-1.72,9.15-3.01,12.47-5.15.84-.55,4.21-4.69,4.98-3.81Z"/>
  <path d="M278.45,304.64c-5.91-2.49-11.53-7.76-13.37-14.07,1.22-1.24,4.3,4.54,4.94,5.26,2.68,3.03,6.01,5.53,8.43,8.81Z"/>
  <path d="M227.07,215.96c-1.87-.1-4.34-2.5-5.66-3.83-1.71-1.73-4.01-4.43-4.9-6.71,1.22-1.22,9.48,9.65,10.55,10.55Z"/>
  <path d="M217.92,354.61c-.7.61-7.83-2.7-8.44-4.21,1.2-.66,9.94,2.92,8.44,4.21Z"/>
</svg>