<?xml version="1.0" encoding="UTF-8"?>
<svg id="katman_1" data-name="katman 1" xmlns="http://www.w3.org/2000/svg" viewBox="0 0 841.89 595.28">
  <path d="M318.6,119.61c1.04-4.16,6.96-4.36,9.92-1.71,1.89-.37.62-7.22,1.18-9.11.78-2.64,5.56-2.26,7.65-1.08l19.96,16.95c2.37-.01,2.54-12.15,9.75-8.98,2.57,1.13,1.68,4.52,3.92,3.57.74-.32,2.13-3.58,3.42-4.8,1.44-1.37,3.31-2.01,4.83-3.26,4.66,2.39,3.61,4.19,5.08,7.8.79,1.96,3.08,3.15,2.83,5.73,2.12,1.79,6.47-5.34,7.91-6.74,2.54-2.48,6.35-5.98,10.03-5.42,4.09.63,2.73,2.51,3.9,5.04,2.2,4.76,5.49,9.34,6.33,14.56,1.77,1.14,3.98-.1,5.52.25,4.46,1.03,9.21,14.67,11.74,14.21,13.06-14.27,26.97-27.66,42.96-38.59,40.78-27.89,81.93-36.75,130.43-42.19,18.16-2.04,38.22-2.11,56.14-4.82,1.07-.16,1.86-1.27,2.82-1.36.83-.08,5.45,2.59,5.63,2.9.58.98.14,4.46-.51,5.55-.32.54-1.43.79-1.98,1.59-25.13,36.51-60.26,78.27-99.22,100.15-27.93,15.69-60.8,24.24-91.86,30.76-5.29,1.11-11.03.65-15.92,3.26l-.69,1.36c2.37,3.49,2.19,7.45,3.08,11.35,2.23,9.81,4.62,21.08,5.19,31.12.38,6.7-.34,13.54-.03,20.24,2.56.17,5.34-.26,7.87,0,2.69.28,4.78,1.68,6.9,2.01,7.85,1.19,20.19,1.79,27.96.64,5.27-.78,12.61-5.48,12.12,3.87-.1,1.97-2.62,6.78-3.84,8.52-.91,1.3-6.67,6.29-5.79,7.53,7.51,2.6,14.23,9.6,18.39,16.23,2.45,3.91,6.6,13.94,6.22,18.3-.49,5.72-4.54,3.51-8.87,3.86.63,2.24-.05,13.61,2.4,13.62,2.62-2.49,5.77-4.11,8.74-6.07,6.23-4.12,12.74-8.27,20.01-11,31.68-11.87,76.68-.67,88.55-43.66,1.53-5.52-.23-17.67,1.21-20.71,1.86-3.9,8.37-.98,11,.67,21.37,13.42,32.51,38.91,39.71,62.33,13.39,43.56,19.57,83.47,3.39,127.41-21.25,57.74-82.32,102.91-145.2,97.28-3.89-.35-11.04-3.42-14.22-2.57-1.53.41-3.56,2.73-5.28,3.62-2.21,1.15-9.98,3.79-10.71,4.36-1.17.9-.77,2.87-1.35,4.13-4.97,10.62-20.77,13.94-31.44,13.06-4.4-.36-10.3-2.67-14.43-2.75-3.84-.07-8.76,2.17-12.94,2.1-5.74-.1-16.46-2.63-21.57-5.21-1.12-.57-1.4-2-3.14-2.34-3.33-.64-8.12.48-11.66-.07l-8.88,8.28c-12.85,9.14-33.4,8.72-48.65,6.87-2.41-.29-3.15-1.73-4.81-2.04s-8.3-.46-10.26-.35c-2.92.16-4.02,1.98-6.19,2.34-6.53,1.07-20.12-.06-25.88-3.51-7.15-4.29-9.56-14.18-7.14-21.97.63-2.02,2.88-3.19,2.48-4.8-.19-.77-1.4-1.86-1.82-3.04-9.65-27.09-20.45-53.78-31.08-80.57-2.74-6.89-5.7-19.28-10.83-24.1-1.69-1.58-4.03-2.84-5.84-4.43-1.03-.9-3.84-4.66-4.15-4.76-2.51-.81-2.09,2.37-2.99,3.75-5.55,8.54-15.2-9.53-16.82-14.07l-1.71.45c.3,3.66-4.89,5.62-7.54,4.01-.32-.19-3.11-5.34-3.43-6.15-3.15-8.08-2.78-18.92.02-27.07-4.13-1.04-9.41-.99-12.69-4.1-6.3-5.98,4.49-8.87,7.66-11.9,7.49-7.16,11.29-20.19,16.4-29.15,3.98-6.98,8.43-12.69,15.3-16.94.51-1.68-7.68-9.1-9.33-10.76-2.65-5.23-7.38-9.91-9.48-15.52-7.7-20.5,1.96-35.81,3.09-55.84.58-10.22.26-21.62-1.13-31.71-5.36-3.68-10.8-7.48-15.92-11.51-55.72-43.93-87.15-99.19-93.85-170.56-.41-4.34-1.74-18.25-.4-21.49,2.88-6.92,15.55,1.76,19.86,4.09,26.78,14.49,55.1,36.22,75.35,58.91,16.85,18.88,31.03,41.71,39.39,65.77.99-.13,1.14-.94,1.31-1.76.77-3.69-.25-9.21,4.83-10.25,5.44-1.12,6.09,6.02,10.98,5.85-.44-3.84-4.18-14.54,1.16-15.59s10.76,5.02,15.37,7.62c1.96,1.11,9.45,4.85,11.26,5.19.78.15,1.57.04,2.35.04.58-3.53-.79-9.51,0-12.67ZM263.11,431.62v-14.73c0-.21-1.49-2.54-1.75-3.73-.97-4.5,1-5.6,1.76-9.63,4.25,3.92,1.64,10.63,3.98,16.22.69,1.64,9.92,15.27,11.76,13.23-2.71-12.71-.78-24.35,3.78-36.29l5.12-10.28c.45,3.4-1.93,6.48-2.69,9.28-6.53,23.96-4.26,48.54,17.36,63.74,1.31.92,11.34,6.47,12.06,5.75-.83-3.68-3.78-7.29-5.27-10.82-.91-2.16-2.51-6.67-3.31-9.02-.23-.68-1.03-3.47.36-3.44,9.53,22.86,37.78,32.46,43.86,57.53,1.12.2,1.78-.6,2.42-1.33,1.67-1.95,5.62-8.88,6.51-11.3.64-1.74,2.18-11.3,3.73-11.33,4.72,5.69,7.45,12.77,9.26,19.85,1.71,1.18,6.21-5.16,7.61-6.42,11.91-10.76,27.47-20.67,33.39-36.48,1.26-3.36,1.5-6.93,2.75-10.26.33-.87.15-2.1,1.44-2.32.03,3.13-.26,6.7-.85,9.76-.76,3.93-3.73,12.27-5.29,14.72-9.95,15.64-24.2,24.16-36.91,36.98.64,4.85,2.25,9.61,3.15,14.4.4,2.12-.68,5.28,1.53,6.34-.79-3.48.85-6.3,1.31-9.31.65-4.23.66-9.34,1.6-13.47.16-.72.94-3.17,1.88-3.25-.26,9.46.36,19,.04,28.45-.15,4.45-.38,9.93-.72,14.35-.73,9.38-1.7,6.87-7.2,11.98-8.81,8.18-11.98,23.89,4.46,22.62.28-2.07-1.47-.86-1.89-3.21-.81-4.61-.92-11.75,4.63-13.22v12.67c0,6,6.69,5.41,10.96,5.13-1.99-5.77-4.72-8.6-.37-14.41.8-1.06,6.48-5.54,5.79-2.44-.48,2.16-2.54,4.11-3.06,6.54-.62,2.86-.88,9.62,2.81,10.31,1.26.24,9.02-1.24,10.62-1.68,4.6-1.26,8.96-3.59,12.65-6.56,8.93-7.21,7.59-12.39,10.96-21.89,4.17-11.77,10.69-22.34,13.28-34.67,3.85-18.34,5.67-37.07,10.54-55.22l2.55-6.01v13.7c2.22.15,2.11-2.57,3.12-4.07,10.23-15.15,29.87-30.09,48.61-31.54.75-.06,2.55-.51,2.38.67-9.65,3.27-19.89,8.61-28.3,14.52-5.44,3.82-23.53,18.79-25.87,24.13s-2.59,14.8-3.95,20.71c-3.05,13.28-8.21,26.48-11.8,39.58-1.83,6.68-3.44,12.81-6.12,19.23-1.76,4.22-4.79,8.37-5.48,12.67h9.93c.19,0,1.6-.7,1.74-1.16-1.4-10.37,3.45-16.74,12.29-21.11-2.2-2.31-4.51-4.03-6.07-6.93-.56-1.04-4.29-9.97-1.8-9.84,1.76,1.92,2.81,4.51,4.47,6.48,5.17,6.15,10.7,8.71,16.88,13.26.84.62,1.91.7,1.59,2.17-3.7,1.27-10.74-3.76-13.68-2.41-3.84,1.77-12.16,15.46-10.86,19.74.55,1.81,8.87,5.68,10.15,4.59-2.43-6.95.81-15.38,8.9-15.06.66.58-9.13,13.63-5.51,16.13.25.17,5.33,1.56,5.89,1.64,4.41.6,7.75-.69,11.94-1.34-1.94-8.8-.89-17.64,9.91-17.81,1.48,2.04-1.99,2.98-3.42,4.78-2.63,3.32-3.88,8.13-3.75,12.36,6.21.27,11.85,2.6,18.12,2.77,7.15.2,24.64-2.54,24.38-12.02l-6.66-3.3-1.58-3.2c9.91.6,13.92,2.4,23.06-2.63,18.47-10.16,35.31-46.3,36.56-66.87.79-13.09-.53-25.24-5.5-37.36.88.2,1.52,1.1,1.87,1.89,12.28,28.16,9.5,59.63-9.41,84.08-3.25,4.2-9.89,9.29-12.34,13.01-.46.69-1.1.51-.01,1.38,9.01,2.55,17.66,3.67,27.06,3.06,80.31-5.21,140.32-82.6,133.23-161.3-2.41-26.77-14.35-75.75-29.97-97.44-6.13-8.52-14.87-16.69-23.9-22.01l-1.6.93v13.7c0,4.08-5.2,15.41-7.55,19.17-18.16,29.08-52.51,21.55-80.67,30.98-14.07,4.71-27.01,13.06-37.47,23.5-1.01,4.73-1.62,17.84-5.13,20.9-.47.41-1.23.71-1.39-.04-1.09-2.12-.4-4.48-.84-6.67-.13-.63-1.92-5.08-2.94-3.25-.79,1.42-.7,13.22-1.74,16.76-.34,1.17-.52,1.98-2.01,1.75,1.56-12.78-1.26-25.94-4.11-38.35l4.48,7.5c3.69,1.61,4.2,4.97,5.95,7.75.54.85.62,1.45,1.89,1.19.26-3.26,2.94-6.27,3.37-9.3.86-5.99.33-22.91-2.78-27.93-.95-1.53-12.75-12.96-11.54-14.14,6.84.17,8.78,5.83,12.67,9.58,2.42,2.34,5.96,4.22,8.23,6.85.97.22,1.66-.84,1.74-1.71.05-.51-2.72-8.14-3.19-9.17-4.73-10.25-13.39-17.98-23.86-22.04-1.22-.47-2.51-.68-3.81-.65.78-1.79,2.98-1.73,4.45-2.73,4.66-3.16,10.58-9.41,11.3-15.07-.75-.8-6.13,1.82-7.23,2.01-13.88,2.52-32.7-2.56-47.32-3.34-.95-.05-1.49.38-2.3.64,2.76-18.83,1.22-39.98-3.61-58.38-.91-3.45-2.28-7.01-3.2-10.5-4.04-.46-9.35.1-11.68-4.06,3.66-3.23,9.82.57,13.28.31,7.23-.54,22.89-4.54,30.71-6.33,18.33-4.21,39.39-10.07,56.7-17.28,49.75-20.73,82.6-59.09,113.43-100.98,1.62-2.2,5.78-6.09,6.78-8.29.46-1.03.7-1.62-.33-2.4-4.35.73-8.94.62-13.31,1.1-68.68,7.44-128.13,9.11-184.83,54.06-5.36,4.25-29.19,25.9-31.3,30.68-1.52,3.44-.8,7.86-5.19,10.42-1.52.29-.98-.68-1.04-1.72-.13-2.34.8-4.21.77-6.17-.05-3.92-7.24-11.64-9.33-15.39-1.94-.48-2.91,4.13-3.08,5.47l-1.66-1.41-11.71-24.59c-.96-.29-1.11.04-1.67.43-5,3.48-10.37,10.15-12.36,15.99-5.51-4.14-8.66-10.79-10.96-17.12-1.39-1.06-7.67,11.73-6.85,13.7l-2.39-.68-4.78-8.9-3.78,11.97c-1.36,1.52-1.25-.61-1.84-1.04-7.24-5.19-13.87-12.14-21.12-17.77-1.03-.8-2.24-1.37-3.07-2.43l-1.37.7v16.78c-4.09-1.04-5.94-7.32-10.27-7.53v16.78l-1.42.75c-10.76-3.14-20.42-8.75-29.76-14.78-1.61,1.2-1.06,3.23-.84,4.94.72,5.74,3.71,12.09,5.3,17.64-.45.48-10.16-5.42-11.2-6.26-1.53-1.24-5.9-7.99-7.66-5.39-.94,8.06-.3,16.18,1.73,23.99l-4.1-1.36c.54,4.22,3.24,7.88,2.77,12.55-.13.53-6.73,4.13-5.19.45l1.64-2.27c-1.39-2.49-3.78-6.62-4.5-9.24-.87-3.15-.53-6.72-1.2-9.76-4.83-22-22.24-49.59-36.7-66.73-24.45-28.98-56.23-51.14-89.73-68.53-.45-.64-1.16.39-1.26.79-.57,2.16-.21,9.53-.09,12.23,2.91,60.75,30.05,117.72,74.32,158.58,10.17,9.38,21.42,17.55,32.57,25.7,2.41,1.13,3.23-2.63,6.13-1.72.81,3.45-1.7,6.17-2.07,9.23-1.41,11.74.88,25.27-.67,37.69-1.25,9.94-6.97,25.63-5.43,34.9,3.34,20.16,29.85,45.11,47.75,53.63,57.77,27.48,135.94,10.41,162.34-51.7l6.32-18.67c-.74,15.49-6.42,31.11-15.47,43.78-3.86,5.4-8.59,10.14-13.29,14.8l6.79,4.16c2.76,2.09,4.76,4.88,4.85,8.5-.17.18-2.71-.54-3.21-.9-1.95-1.41-6.21-6-8.13-7.98-.63-.65-.73-1.5-1.3-2.03-1.53.03-12.3,8.46-14.83,9.83-23.38,12.63-59.57,15.35-85.93,14.14-19.65-.91-39.09-7.61-53.75-20.91-2.58-2.34-5.35-7.78-8.67-6.7-6.53,2.13-13.87,11.31-17.23,17.08-5.72,9.83-8.61,21.47-16.97,29.61-.93,1.3-7.99,5.78-7.8,6.57.45,1.95,14.02,4.31,16.43,2.41-1.4,4.26-4.32,8.13-4.78,12.68-.33,3.22-.28,9.01.08,12.23.39,3.48,2.02,5.46,2.66,8.65,3.75.54,2.4-3.3,3.2-6.04s5.85-15.22,7.52-16.46c.69-.51,1.38-.94,2.29-.78-.42,5.65-3.53,11.77-2.57,17.3.7,4.01,5.65,13.81,8.71,16.48.77.68,1.13.51,2.08.46ZM341.49,487.51c-5.63-6.83-12.54-12.38-18.8-18.58-1.65-.95-2.43,1.01-4.33,1.03-3.44.05-8.11-2.89-11.59-3.57l-12.83-8.05,33.96,91.12c-8.24,9.96-2.06,23.32,10.56,23.95.45-2.01-1.38-3.14-1.85-4.65-1.74-5.59-.9-11.86,5.27-13.84-.69,5.95-2.16,11.67-.06,17.53,1.5,1.93,12.99,1.78,15.12-.75-2.1-2.68-5.05-6.73-5.14-10.27-.04-1.5,1.73-7.28,3.44-7.19,1.08.65.9,1.35,1.04,2.37.45,3.22.48,6.41,1.39,9.57,1.97,6.84,4.24,5.93,10.93,5.86,1.01-2.81-1.69-4.01-2.05-5.83-1.24-6.32,1.03-12.7,5.2-17.38,1.29-1.45,4.85-3.09,5.08-5.23-3.1-13.36-5.97-26.95-4.12-40.74l-3.82-.64c.19-2.81-3.66-20.15-5.44-20.59-1.15-.29-1.33.98-1.74,1.67-3.67,6.16-5.84,13.77-11.26,18.86-3.11-5.38-4.89-9.71-8.96-14.66Z"/>
  <path d="M166.31,47.57c29.43,21.22,60.96,46.95,78.33,79.55,7.24,13.57,17.81,39.91,20.49,54.87.18,1.02.55,2.73-.98,2.36l-6.52-3.1-1.35.72c-.19,2.32,3.53,11.52,2.04,12.64l-4.1-1.36c-.6.59,4.27,11.8-2.69,7.1-.51-.35-.67-1.26-1.25-1.64-40.48-26.41-61.77-43.6-77.89-91.13-7.02-20.7-10.35-42.14-13.38-63.67.85-.75,6.21,2.86,7.31,3.65ZM165.55,49c-.89-.58-1.64-1.47-2.79-1.67-1.11-.22-1.12,0-1,.99.82,6.55,2.73,15.26,4.26,21.78,3.68,15.66,9.41,33.73,15.91,48.48,3.44,7.81,7.14,15.7,13.35,21.58,7.72,7.31,16.76,13.37,24.34,20.88,1.41.27,1.16-.56.89-1.57-.97-3.56-5.62-9.48-6.71-13.17-.6-2.05,1.9-.66,2.76-.01,4.94,3.73,11.15,12.99,16.03,16.16.84.54,1.38.85,2.43.65l-2.73-15.75c2.03-.14,4.74,8.41,6.15,6.85-.74-9.42-6.26-18.68-5.82-28.08,2.13.88,3.23,3.72,5.82,3.42l-3.39-9.28c-17.93-25.42-43.2-54.29-69.51-71.26Z"/>
  <path d="M631.64,89.11c-.58.06-1.32.24-1.71.66-45.86,50.15-78.87,75.89-147.76,87.23-13.76,2.26-30.49,5.47-44.25,5.82-2.52.06-3.08-1.63-1.06-3.18,1.76-1.36,5-2.58,7.09-3.53l-2.66-2.37,2.65-4.13c-1.93-2.52-4.13,1.34-6.83.34-.09-.63-.08-.87.32-1.38,1.67-2.11,7.34-5.69,9.71-7.76,27.95-24.41,57.84-54.97,94.63-65.32,22.5-6.33,43.27-6.11,66.27-7.02,3.67-.15,20.81-2.41,22.93-1.06.66.42.8.96.67,1.71ZM627.53,89.13c-8.07.27-16.24-.38-24.31,0-30.97,1.47-79.8,10.33-101.4,34.23-5.4,5.97-10.13,13.23-16.08,18.85-.27,1.39.54,1.2,1.54.85,3.95-1.36,7.9-4.78,11.47-6.35,1.04-.46,2.06.16,2.04.69-.05,1.44-18.21,17.57-19.16,21.57l17.8-3.42c1.81,2.12-7.06,7.82-8.2,9.93.65,1,1.32.94,2.35,1.06,20.37,2.32,58.1-15.81,75.26-26.87,21.63-13.93,38.71-32.18,57.81-49,.46-.41,1.32.04.87-1.56Z"/>
  <path d="M501.49,393.61c-.34,1.8-2.71,5.09-3.16,7.81-.14.82-.8,1.88.75,1.43s7.2-6.28,8.59-7.85l4.09-5.15c-2.23,8.76-10.2,17.16-16.76,23.3-2.4,2.25-14.83,13.15-16.81,14.01-1.12.49-2.23.43-3.41.36-.29-1.78.53-3.44.68-5.15.06-.74.5-2.56-.67-2.38-2.72,2.52-4.44,16.44-6.16,17.48-5.49,3.32-2.49-10.01-5.83-9.26-2.17,2.7-5.33,3.45-7.56,6.15-3.1,3.76-5.23,8.89-8.88,13.04-1.99,2.27-8.72,8.94-11.05,10.18-1.99,1.05-4.88,1.5-5.43-1.23-.44-2.17,4.67-5.57,3.46-8.27-5.09,4.79-10.01,10.63-16.79,13l12.91-12.77c3.78-5.65,7.05-11.45,9.65-17.75l2.08-.3c1.47.96-.68,11.63-.9,13.84-.38,3.85,2.98-.35,4.31-1.87,8.97-10.2,14.99-26.88,15.12-40.36.04-4.55-1.07-8.84-.71-13.39l2.65,12.75c.54,5.94-.67,16.41-2.29,22.21-.69,2.47-3.66,5.15-.73,5.45l7.55-10.93c2.63.66,2.05,6.64,4.1,6.14,1.88-4.07,7.09-5.27,7.89-9.58l1.7,5.46c1.25-1.94,4.31-3.55,5.59-5.01,4.64-5.32,10.96-19.24,13.29-26.1.86-2.55.5-6.28,2.7-7.91-.49,3.78.68,9.12,0,12.67Z"/>
  <path d="M386.92,224.23c5.66-.75,13.72-.24,19.05,1.86,1.87.74,9.27,4.72,8.53,7.2-1.05,3.5-8.06-1.83-9.78-2.52-10.1-4.08-20.7-3.01-29.27,3.91-2.19,1.77-4.19,5.13-5.82,6.5-2.51,2.11-4.49-.12-3.63-2.93.28-.91,4.97-6.07,6.03-7,3.72-3.25,10.03-6.38,14.9-7.02Z"/>
  <path d="M363.12,278.88c-9.32,9.52-24.17,2.28-35.25,2.72-8.09.33-15.36,6.99-23.42,7.48-3.27.2-6-.95-9.15-1.31-.51-2.64,2.71-.55,4.42-.65,9.99-.61,16.9-9.11,26.14-10.22,11.75-1.42,24.99,7.16,37.26,1.99Z"/>
  <path d="M520.4,383.96c13.62,10.74,32.47,29.62,41.94,44.02,1.34,2.03,3,4.69,3.54,7.07-12.19-14.61-27.03-26.93-39.51-41.32-2.57-2.97-4.92-6.73-7.74-9.73-.35-1.86,1.25-.46,1.77-.05Z"/>
  <path d="M278.01,239.3c4.23-.67,9.25-.1,13.2,1.54,2.29.95,9.15,5.1,8.16,8.14-2.36,3.14-5.38-1.19-7.69-2.44-6.41-3.48-13.05-4.29-19.3.14-2.16,1.53-7.04,8.71-8.82,8.17-3.51-1.06-.03-5.92,1.26-7.51,2.91-3.58,8.62-7.31,13.2-8.04Z"/>
  <path d="M311.75,391.55c.43-2.86,5.14-13.11,6.96-15.64.76-1.06,3.16-4.34,4.69-3.53-1.4,5.53-4.21,10.54-5.97,15.95-1.67,5.13-2.4,11.07-3.94,15.92-.25.8-.83,1.87-1.74,2.03.48-4.56-.66-10.34,0-14.73Z"/>
  <path d="M409.01,378.88c-2.86-1.32-3.79-4.44-5.47-6.51-1.28-1.58-12.13-13.53-10.96-14.72,8.65,2.87,15.91,12.2,16.43,21.23Z"/>
  <path d="M322.45,255.33c-.45.7-3.33,3.5-4.19,3.44l-6.5-4.22c2.16-3.44,14.73-5.45,10.69.78Z"/>
  <path d="M372.71,222.02c1.19,1.05-6.75,10.33-9.58,8.21.38-4.96,4.19-9.25,9.58-8.21Z"/>
  <path d="M296.5,231.79c.33.27,1.61,3.22,1.55,3.57-1.83,3.77-9.89-2.8-8.21-4.43,1.63,0,5.45-.13,6.67.86Z"/>
</svg>