<?xml version="1.0" encoding="UTF-8"?>
<svg id="katman_1" data-name="katman 1" xmlns="http://www.w3.org/2000/svg" viewBox="0 0 841.89 595.28">
  <path d="M542.8,268.15c.86.78,12.12-6.3,13.92-7.24,9.44-4.95,19.81-10.3,29.65-14.29,5.92-2.4,18.73-7.71,24.46-8.77,1.45-.27,7.15-.69,7.84.26,1.06,2.48-1.97,4.05-1.92,6.46,4.69,1.03,9.41,2.1,14.05,3.37,20.68,5.67,46.17,12.37,64.56,23.32.9.53,6.33,4.22,6.64,4.63.96,1.28.06,3.98-.57,5.4-8.49,5.37-18.12,9.83-24.12,18.21-14.84,20.71-11.07,43-10.74,67.01.02,1.6.69,3.04.6,4.81-.65,12.59-14.58,4.46-22.26,4.52-7.52.06-17.81,1.35-25.06,3.39-14.55,4.11-19.56,9.31-25.34,22.89-1.72,4.04-4.31,13.62-6.48,16.56-2.98,4.05-4.77.75-8.26.04,1.22,7.31,2.71,16.8,1.36,24.14-.57,3.1-5.16,14.39-6.82,17.3-4.65,8.15-13.74,15.38-20.16,22.18-.95,7.98,1.11,21.31-3.63,27.99-2.96,4.17-9.26,7.45-14.42,6.45-2.33-.45-9.23-7.19-10.55-9.53-.63-.37-1.41-.06-2.02.19-5.52,2.3-17.85,13.6-21.69,18.51-2.37,3.03-4.24,6.92-6.52,10.09-.66.92-2.35,2.08-2.65,2.75-.6,1.34,2.06,6.23,2.67,8.04,2.63,7.68,6.89,20.01,3.09,27.69-.34.69-3.74,3.71-4.44,4.13-9.86,5.78-25.75.23-30.95-9.7-.84-1.6-1.08-3.94-1.81-5.16-1.63-2.7-9.06-3.76-12.15-5-14.31-5.72-25.55-15.91-38.04-24.58-15.3.41-30.63,2.29-45.9,2.93-1.7.07-5.99.75-5.39-1.62.48-1.91,7.46-10.5,6.2-11.77-4.04-.83-34.29-5.07-34.8-6.76-.67-2.21,10.77-23.13,10.69-27.53l-114.16-19.55-.28-1.36,32.97-19.02c1.03-1.2.01-3.94-.38-5.5-5.82-23.07-17.56-36.57-40.88-42.72-3.53-.93-9.61-2.26-13.14-2.41-4.97-.21-11.05,2.74-11.46-5.18-.16-3.02,3.43-7.57,5.33-10.08,12.78-16.86,50.58-46.5,70-54.87,5.43-2.34,11.36-4.81,17.34-4.9l-.54-4.82c.44-.45,10.84,1.02,12.57,1.09,6.71.27,13.02-.38,19.77.59s12.2,3.89,18.55,5.57c2.54.67,5.24,1.2,7.82,1.83.71.17,1.05-.09.77-.77-.72-1.7-10.1-8.01-11.8-10.18-4.87-9.19-14.6-20.04-18.06-29.63-5.26-14.56-6.4-39.75-3.76-54.91.37-2.12,3.38-11.15,2.84-12.19-17.48-9.7-35.27-19.02-50.68-31.89-28.2-23.55-57.35-59.43-71.53-93.53-2.26-5.43-8.65-22.13-6.31-27.19,1.2-2.61,9.09-3.54,11.65-3.36,4.57.32,21.45,5.15,26.42,6.83,19.05,6.45,43.71,21.85,60.09,33.69,24.5,17.71,49.01,38.27,64.62,64.51,5.93-3.5,12.4-8.02,18.66-10.8,8.66-3.84,20.31-7.72,29.43-10.76,4.18-1.39,8.5-2.43,12.74-3.61.55-.72-3.96-4.57-4.27-6.17-1.24-6.29,4.58-11.18,9.79-13.23,2.25-.89,13.8-2.68,14.24-3.98.12-1.75.13-3.53.06-5.28-.39-9.9-2.84-20.62-3.23-30.53-.09-2.16.27-5.78,2.01-7.28,2.65-2.29,11.32-5.09,14.87-5.35,9.39-.71,33.74.8,41.16,6.44.45.34,2.85,3.33,3.19,3.92,3.93,6.91-1.48,17.46.15,25.03,6.48-9.25,11.74-19.61,18.51-28.65,16.22-21.69,47.04-53.5,72.59-62.99,2.63-.98,11.05-3.45,13.57-3.64,1.69-.13,5.66,2.57,6.43,4.03.63,1.21,1.24,8.78,1.13,10.53-.42,7.15-5.97,27.1-8.38,34.52-7.64,23.47-24.05,49.94-37.85,70.4-10.35,15.34-21.48,29.98-35.09,42.61-.22,1.11,8.14,10.31,9.47,12.34,13.43,20.57,17.34,40.98,17.29,65.28,0,2.52-3.85,15.27-3.25,15.81ZM565.83,111.13c4.51-8.13,9.19-16.16,13.25-24.54,7.61-15.7,12.73-29.54,16.61-46.62,1.47-6.48,4.03-15.13,2.06-21.58-.34-1.1-2.86-3.4-3.91-3.61-.83-.17-11.96,2.81-13.53,3.39-10.69,3.96-28,16.2-36.7,23.85-.82.72-5.47,5.2-5.56,5.69,2.45,4.7,6.34,8.57,9.25,13.1,9.24,14.37,15.71,32.37,17.02,49.43l1.51.89ZM466.7,326.83v-10.72c0-2.03,7.09,1.05,8.01,1.63,1.44.92,5.71,5.87,7,7.48s2.37,5.55,4.65,4.68c1.8-.68,9.56-7.05,11.66-8.72,15.28-12.17,29.08-27.3,38.33-44.32.35-.65,5.41-9.67,4.04-9.25-9.6,8.5-27.16,5.57-34.48-4.65-12.75-17.78.88-38.73,21.09-40.36,6.05-.49,9.98.39,15.26,3.21-3.85-18.13-12.15-36.24-25.21-49.54l-.54-2.09c19.4-16.52,33.09-38.32,46.56-59.68-2.27-23.74-11-47.12-26.96-64.99-10.99,10.04-19.76,22.01-29.44,33.25l-17.91,28.77c1.56,3.77,4.32,7.29,4.22,11.63-.03,1.25-1.12,3.73-.79,4.61.39,1.03,6.05,3.92,7.5,5.31.75.72,4.47,5.52,4.54,6.2.09.86-2.43,7.02-2.98,7.73s-6.1,3.68-7.21,4.04c-20.03,6.62-52.29,5.62-72.22-1.18-2.56-.87-7.72-4.07-9.97-3.89-17.51,5.42-36.05,10.89-52.14,19.72-1.93,1.06-9.66,6.43-10.96,6.27s-3.06-5.21-4-6.67c-14.3-22.2-37.31-41.24-58.46-56.75-3.12-2.29-24.32-17.41-26.12-17.28-8.66,14.3-15.56,30.05-18.92,46.53-.99,4.87-3.14,16.8-2.87,21.31.11,1.96,2.09,4.17,3.51,5.64,8.6,8.95,21.03,20,30.88,27.53,14.03,10.71,29.78,18.73,45.27,27.1.5.78-1.93,6.95-2.29,8.47-3.36,14.26-3.09,31.38-.52,45.76,1.63,9.11,3.75,16.27,8.95,24.01,1.01.11.43-1.12.37-1.71-.64-6.8-1.4-10.96,1.38-17.69,3.86-9.35,19.48-14.71,28.79-12.49,8.07,1.93,16.21,10.31,18.06,18.39,2.78,12.16,1.24,24.05-10.89,30.06-9.89,4.89-19.26.52-28.6-3.15-.56.54,2.15,3.96,2.66,4.56,22.23,26.45,63.94,33.56,96.77,31.36l1.35-.26c1.95-9.24,3.56-19.84,11.02-26.52,2.08-.36,6.8,12.14,8.59,12.74,3.06,1.02,12.47-3.44,13.05-6.08ZM236.26,157.22c1.4-7.21,1.83-14.93,3.37-22.09,3.37-15.67,10.33-30.97,18.6-44.59-.19-.84-13.11-7.68-14.98-8.63-5.46-2.77-13.51-6.8-19.19-8.68-5.63-1.87-23.62-6.83-28.78-6.57-5.95.29-7.19,1.26-6.64,7.16,1.68,18.14,22.74,51.94,33.79,66.95,3.44,4.67,8.36,11.53,12.32,15.55.48.48.48,1.16,1.51.89ZM485.45,109.53l2.16-21.69c-.41-2.97-2.01-5.7-4.47-7.35-7.67-5.16-33.23-7.2-42.31-5.66-1.68.28-9.67,3.91-10.61,5.08-1.16,1.44-1.11,4.03-1.06,5.81.19,7.02,2.14,14.79,2.18,21.94l.49,1.12c8.57,5.82,19.95,9.27,30.34,9.38l.7-.13c3.34-9.49,13.76-12.99,22.59-8.49ZM475.68,109.67c-3.37.44-7.2,2.48-9.21,5.25-.76,1.05-2.56,3.94-1.39,5.08.62.41,6.22.41,7.23.22,2.03-.38,2.35-2.38,5.68-1.35,2.9.9,4.79,1.76,8.28,1.9,5.4.22,5.47-.8,2.54-5.22-2.81-4.23-8.12-6.55-13.12-5.89ZM430.26,123.46c-.92.89,5.15,6.76,6.17,7.5,5.73,4.16,16.1,5.31,22.91,4.15,1.08-.18,6.22-1.38,6.28-2.27-2.46-3.34-4.38-8.22-3.33-12.35l-.38-.53c-7.77-.85-15.66-2.55-22.91-5.51-.81-.33-6.98-4.25-7.13-3.05l1.03,11.17-2.63.88ZM478.58,122.58c0-1.33-1.08-2.41-2.41-2.41s-2.41,1.08-2.41,2.41,1.08,2.41,2.41,2.41,2.41-1.08,2.41-2.41ZM490.82,123.99h-10.45c-.32,0-1.15,2.99-4.24,2.68-2.38-.24-3.49-3.21-3.8-3.21h-8.31c.32,17.5,25.82,17.81,26.79.54ZM490.83,129.89c-3.24,7.41-11.91,10.11-19.29,7.22-1.41-.55-4.01-2.72-4.66-2.83-.49-.08-7.46,2.3-9.62,2.5-6.57.6-14.74-.57-20.4-4.11-2.58-1.62-7.29-8.11-9.51-8.17-1.28-.04-8.51,1.78-10.06,2.32-8.25,2.88-13.08,9.63-4.66,16.15,16.2,12.55,61.09,12.31,80.04,6.18,4.62-1.5,7.92-3.66,9.18-8.54.9-3.47-8.13-9.44-11.02-10.72ZM542.12,228.09c-19.21-11.24-46.6,6.64-36.93,29.17,4.46,10.4,15.84,15.22,26.79,12.67,3.02-.7,8.83-4.39,9.84-7.31,2.7-7.87,2.05-19.07,1.51-27.42-.08-1.24-.66-6.54-1.2-7.11ZM610.94,251.99l5.27-11.44c-.36-.52-.71-.69-1.33-.8-3.49-.62-21.71,6.41-26.13,8.17-1.93.77-15.16,6.33-15.4,7.22-.42,8.72.24,17.02,4.74,24.63,4.44,7.51,10.15,11.28,17.06,16.19,1.98.55,2.19-2.94,2.94-4.41,1.62-3.18,4.9-10.65,6.89-12.93,1.73-1.98,5.73-4.16,8.03-5.64l-2.64-2.87c.83-1.89,5.15-3.42,4.8-5.42l-3.76-2.69,5.88-5.89-6.35-4.11ZM605.5,282.08c.71.57,12.26-5.6,14.72-5.9,11.42-1.42,30.25.88,42.34,1.63s24.85,3.34,36.43,1.05c.77-.15,1.43-.38,1.36-1.31-.17-.79-6.98-5.05-8.21-5.73-14.23-7.87-32.32-13.47-47.95-17.97-9.32-2.68-18.72-5.3-28.25-7.18l-.85.39-1.32,3.95c.99,1.51,6.8,3.61,6.58,5.1-.69,2.11-7.48,4.75-4.83,6.72,1.22.91,3.73.46,2.76,2.83-.36.88-4.1,2.99-4.74,4.38l2.44,1.32v1.64c-3.38,3.07-8.43,4.83-10.48,9.09ZM571.2,256.36c-4.73,1.98-9.41,4.3-13.94,6.69-3.62,1.9-12.83,6.4-15.51,8.61-1.53,1.26-2.39,4.07-3.23,5.85l21.74,6.18-5.61,22.2,1.29.85,18.95,1.14,3.02,16.54c2.85-2.44,5.43-5.43,7.58-8.5,1.31-1.87,9.32-15.83,9.29-16.97-.05-2.27-9.14-6.74-11.06-8.47-5.25-4.74-12.51-17.63-12.51-24.74v-9.38ZM348.15,267.23c-5.11.49-13.38,3.41-17.05,7.06-5.91,5.89-6.43,19.17-3.42,26.51,2.4,5.84,7.42,9.04,13.1,11.02,21.69,7.57,35.3-5.55,29.84-27.7-2.26-9.14-12.85-17.81-22.47-16.89ZM696.6,281.55c-3.48,0-6.98-.02-10.47-.03-10.08-.03-20.37-.97-30.53-2.11-10.51.59-22.98-2.33-33.24-1.65-4.2.28-9.48,4.22-13.62,5.42-.57.83,1.51,3.19,2.14,3.98,7.79,9.89,16.76,18.36,23.04,29.47,4.33,7.66,9.25,16.88,13.31,24.74,5.75,11.13,10.04,23.14,15.36,34.49,3.57-1.74,1.85-7.35,1.84-10.43-.08-27.52-4.46-55.35,19.06-75.3l13.11-8.58ZM557.76,284.81l-20.51-4.81-4.58,7.23-12.43,69.3-28.89-9.06c3.84,11.65,6.71,22.63,5.88,35.09-.64,9.58-3.2,15.45-9.66,22.5-5.78,6.31-14.62,7.47-22.78,6.74-6.98-.62-13.24-7-17.08-12.4-6.43-9.04-8.03-21.58-11.04-32.1l-17.95,24.13-34.92-28.86-9.74,6.69,6.88,23.23-24.09-1.58c.14,3.48-4.35,11.45-2.74,14.2l24.98,25.4c0,19.45,1.07,38.1,6.39,56.84,8.44,29.71,20.48,41.76,45.12,58.84,5.43,3.76,12.06,7.69,18.2,10.2,3.82,1.56,11.58,2.73,13.84,5.99,1.13,1.64,1.49,4.31,2.51,6.07,4.03,6.96,12.3,10.23,20.02,10.53.51-.03.32-.92.19-1.26-.54-1.39-5.29-6.36-6.62-8.39-.53-.81-1.31-.57,0-1.6l8.67,10.75c2.21-.13,7.5-1.89,8.13-4.17.56-2.05-5.52-11.97-6.47-14.77-.35-1.02-.75-1.16.39-1.98l7.76,14.46c2.22-11.51-3.53-22.33-6.98-32.94,4.02-4.36,6.41-10.15,9.98-14.71,6.05-7.72,15.79-14.08,23.65-19.79,2.56-.72,5.97,5.09,7.63,6.64,1.4,1.31,3.43,2.11,4.84,3.46.7-.96-1.2-6.52-1.37-8.01-.12-1-.56-1.41.57-2.16,1.51.06,1.82,8.52,2.67,9.64,1.1,1.45,6.7-.66,7.16-1.97.78-2.23-1.6-9.56-.19-12.5,2.17.8.36,12.55,2.94,10.71,5.4-8.73,2.61-19.89,4.31-29.59,4.96-4.62,10.29-9.2,14.64-14.41,19.78-23.69,12.59-49.95-.11-74.77-5.81-11.35-17.31-29.6-17.78-42.28-.23-6.28,10.3-10.44,14.49-13.9,4.34-3.58,7.72-9.03,11.24-13.42l-1.72-11.92-20.54-1.7c-1.45-2.07,5.33-19.78,5.08-23.57ZM616.98,296.86c-3.22-3.83-6.14-7.99-9.38-11.81-2.75-2.34-5.02,2.54-6.13,4.52-3.09,5.51-5.44,11.99-8.55,17.71-2.61,4.81-10.74,18.26-15.28,20.62-.55.28-1.01.33-1.61.27l-.81-2.67-8.04,9.57c4.72,16.77,9.02,33.57,11.99,50.77,1.86,10.75,1.6,22.34,6.23,32.35,1.33,0,6.52-15.33,7.52-17.66,2.79-6.47,4.98-10.62,10.15-15.58,8.12-7.79,32.41-11.51,43.42-11.12,2.21.08,13.68,3.06,14.2,2.56-.93-3.41-2.28-6.75-3.65-10.01-6.93-16.43-15.8-33.91-24.54-49.42-4.38-7.78-9.94-13.47-15.52-20.11ZM529.4,292.8c-.89-.2-1.09.28-1.6.81-1.36,1.4-2.86,4.18-4.31,5.87-6.77,7.89-14.19,15.12-22.24,21.71-4.83,3.96-9.96,7.62-15.02,11.27-.42.83,3.09,11.09,4.08,12.03s14.5,5.22,17.01,6.03c3.74,1.22,7.54,2.45,11.37,3.37l10.72-61.09ZM468.85,317.99v10.45c-4.05,2.88-9.86,7.77-15.16,7.14-2.46-.29-6.36-10.35-8.69-12.22-6.35,7.38-8.84,18.59-8.33,28.15.77,14.54,7.25,44.71,18.95,54.2,7.05,5.72,22.19,5.65,29.05-.36,1.91-1.68,8.63-11.43,9.24-13.81,4.35-16.95-1.16-33.05-6.84-48.62-2.55-6.99-3.05-11.68-8.04-17.68-1.14-1.37-8.5-9-10.17-7.25ZM343.8,373c10.97-9.92,9.32-23.02,4.19-35.71-.65-1.6-3.57-6.65-4.79-7.54s-5.7-1.36-7.67-1.98c-5.63-1.77-10.61-4.04-16.55-4.89-7.4-1.05-14.51-.28-21.89-.62-1.47-.07-6.83-1.55-7.52-.53l3.42,11.41-6.36,7.07c1.45,1.92,8.62,3.04,9.3,4.71s-2.76,6.98-3.41,8.96l9.06,2.2.05,4.24c2.79.24,8.02-.02,10.38,1.14,3.25,1.61,11.62,10.69,14.55,13.85.8.87,2.6,4.01,3.3,4.24,2.58.83,11.84-4.67,13.93-6.56ZM288.66,326.14c-1.74-2.26-16.99,4.13-19.81,5.41-16.54,7.54-32.96,21.23-46.78,33.07-7.67,6.57-16.05,13.76-21.95,21.99-7.55,10.54-1.34,13.06,8.81,8.81,20.63-8.64,41.7-24.64,62.34-34.12,6.85-3.15,10.72-3.94,18.34-3.68,1.65.06,8.53,1.24,9.36.84.23-.11.67-.67.53-.81l-9.42-2.66,3.3-9.14-9.92-4.33c-1.25-1.77,6.21-6.8,7.19-8.51l-1.99-6.87ZM434.55,349.07c-7.76-.22-15.58.3-23.34.02-15.97-.56-29.02-3.19-43.8-9.25-3.05-1.25-18.94-10.34-20.75-8.99,4.9,8.06,9.54,22.87,6.58,32.03-2.94,9.08-13.02,16.06-21.57,19.14l17.94,25.98c1.36.03,4.57-16.94,6.14-19.04l22.53,1.36-6.44-21.69c.18-1.84,8.42-6.06,10.19-7.51l-26.55-22.76-.78-2.16c1.41-.16,2.44.84,3.47,1.62,18.03,13.71,35.4,30.58,53.08,44.99,1,.82,6.46,5.28,6.99,5.38.5.1,1.09.17,1.35-.36l15.78-23.74-.83-15.03ZM582.99,417.12c.27-.27-1.77-6.26-1.99-7.38-3.15-15.57-4.24-31.59-7.9-47.3-1.94-8.33-4.88-16.45-6.83-24.78-1.07-2.18-1.97.21-3.13.92-3.49,2.14-11.81,5.98-11.78,10.71.03,4.67,5.01,17.74,7.15,22.39,4.8,10.47,12.99,21.63,17.1,32.2,1.83,4.7,1.26,12.29,7.39,13.24ZM245.6,413.15c15.55,14.1,15.74,33.3,21.86,51.82.99,2.99,2.31-3.73,2.42-4.32.77-4.15.67-8.47,1.29-12.64,4.32-29.28,8.75-57.34,22.98-83.66l1.07-3.77c-7.77-1.58-15.24-1.34-22.34,2.33l-62.08,33.85c-.49.7.59.9,1.09,1.06,2.22.74,4.95.6,7.33,1.24,10.52,2.82,18.39,6.85,26.37,14.09ZM347.73,476.07c-3.14-12.54-6.09-25.2-8.42-37.93s-3.74-25.54-4.98-38.97c-.29-3.14-.46-8.84-1.31-11.55-.47-1.5-7.13-10.09-8.59-11.77-2.54-2.93-11.48-12.04-14.69-13.07-2.42-.78-6.49.15-8.88-.33-1.88-.37-2.42-3.38-4.43-.13-3.09,5.01-8.22,18.23-10.58,24.26-9.16,23.39-10.46,49.03-14.25,73.63-.36,2.34-1.9,4.71-1.56,7.28,8.28-3.1,16.31-5.85,25.08-7.33,18.67-3.17,31.04-1.75,46.14,10.33.86.69,5.83,6.24,6.47,5.58ZM349.45,411.65l-13.27-19.68-1.31-.3c1.16,9.42,1.49,18.85,2.84,28.25,1.27,8.86,3.08,18.52,4.83,27.32,1.92,9.65,4.33,19.31,6.82,28.83,7.87-8.58,16.67-16.61,28.94-17.42-.39-3.53-.98-7.72-1.1-11.22-.13-3.82.79-14.44-.58-17.1l-23.25-23.37c-1.42-.61-1.56,4.49-1.91,4.77-.23.19-1.61.15-1.99-.07ZM261.98,451.42l-30,17.14,111.98,19.59.87,1.33-11.03,26.77,20.9,3.21c-.17-1.38-4.95-3.59-3.75-4.82l17.69-1.08-1.91-3.76,8.33-3.47c0-1.03-7.23-1.54-6.88-3.65l11.13-18.78-19.08-14.74c-3.2-.85-9.79,11.3-11.68,11.04-5.49-5.92-11.48-10.67-18.66-14.43-13.41-7.01-23.5-5.88-37.98-2.97-8.52,1.71-16.34,5.4-24.74,7.31l-5.17-18.72ZM378.22,461.13c-5.88-.1-11.58,2.28-15.97,6.16l.29,1.33,19.34,14.69c-.78,2.72-11.55,18.45-10.57,19.56l19.83,5.9c.59-.63-2.6-6.12-3.09-7.36-4.99-12.74-8.14-26.7-9.83-40.27ZM393.16,511.58c-.57-.54-14.13-4.47-15.08-4.4-.75.05-8.9,2.8-9.19,3.19l1.9,4.29c-5.05.75-10.19.73-15.28,1.08-.8.05-1.55-.41-1.33.8,3.51,5.12,9.31,5.1,15,5.64,1.12,1.1-5.26,10.13-6.17,11.8l.6,1.01,44.15-2.63c.16-.83-.08-1.24-.51-1.9-2.3-3.56-7.87-7.67-10.44-11.53-1.04-1.56-2.87-6.61-3.64-7.34Z"/>
  <path d="M388.27,257.78c-6.76,6.89-17.36,8.14-25.65,3.25-10.4-6.13-11.52-18.64-7.48-29.15,1.45-3.77,3.75-5.36,5.99-8.47l-8.49-4.11v-3.05s2.19-.51,2.19-.51l38.47,16.75c3.61,7.82.95,19.19-5.03,25.28ZM374.51,232.42c0-3.26-2.64-5.9-5.9-5.9s-5.9,2.64-5.9,5.9,2.64,5.9,5.9,5.9,5.9-2.64,5.9-5.9Z"/>
  <path d="M492.29,185.22c.32.31.44.84.54,1.28l-4.69,7.15c13.1,5.39,19.81,21.97,11.49,34.27-6.06,8.95-19.79,11.61-28.59,5.08-3.64-2.7-11.47-12.25-9.99-16.86l28.41-31.09c.7-.74,2.16-.48,2.83.18ZM480.89,212.89c0-3.28-2.66-5.93-5.93-5.93s-5.93,2.66-5.93,5.93,2.66,5.93,5.93,5.93,5.93-2.66,5.93-5.93Z"/>
  <path d="M473.67,241.89c.64,2.83-3.6,2.64-3.77,4.55-.12,1.41,1.53,4.49,1.92,6.14,2.14,9.14.75,27.09-2.71,35.91-11.06,28.22-38.2,30.31-56.51,7.23-5.14-6.47-12.4-22.45-13.37-30.58-.23-1.97.39-5.31-.13-6.84-.09-.26-5.39-4.61-.95-3.35,1.51.43,3.4,2.61,5.62,2.96,4.58.71,13.95-.56,18.09-2.74,3.78-1.99,10.78-10.5,13.1-11.06,1.96-.48,6.87,2.62,9.55,3.07,4.53.76,16.46.3,20.69-1.19,1.4-.49,7.62-4.97,8.47-4.12ZM468.3,283.69c2.29-6.69,2.08-12.65,2.13-19.58.01-1.42.62-2.73.6-4.26-.02-1.65-2.56-12.36-3.53-12.6-.93-.13-1.07.67-1.37,1.3-1.09,2.27-5.54,16.65-6.67,16.92-.81.19-1.14-.69-1.44-1.23-1.25-2.2-5-14.09-5.76-14.6-6.14-.02-10.95-.41-16.38-3.45-1.37.03-9.87,8.96-12.08,10.41-1.66,1.09-3.3,1.07-4.75,2.21l-2.19,14.16c-1.68,1.26-11.15-15.47-15.53-13.39-.64,8.35,3.4,15.89,5.9,23.58,1.05.76,4.02-3.8,4.84-4.52,11.62-10.21,40.43-11.48,51.9-.51,1.37,1.31,1.98,3.45,3.11,4.9.34.44,0,.98,1.22.67ZM464.02,248.86l-9.11.53,3.76,11.25c1.21.22.85-.06,1.19-.68,1.66-3.03,2.21-7.99,4.16-11.1ZM416.86,259.58l-8.57.53,6.7,8.56c1.14.02,1.27-7.88,1.87-9.1ZM419.89,299.95c7.31,7.13,16.07,11.6,26.58,8.79s16.96-12.29,20.69-21.99c-3.15-4.82-4.4-7.45-9.64-10.23-11.46-6.08-30.94-5.19-41.69,2.12-2.63,1.79-4.86,4.04-6.93,6.46,2.35,5.91,6.53,10.51,10.98,14.85Z"/>
  <path d="M425.97,234.39l12.1-3.21,1.28.85c.35,1.25-3.76,8.17-5.14,9.28-.44.07-7.41-4.17-7.71-4.51-.69-.78-.59-1.46-.54-2.41Z"/>
  <rect x="523.35" y="493.16" width="27.88" height="1.72" transform="translate(-192.6 491.85) rotate(-42.43)"/>
  <path d="M487.07,545.75c-5.67,6.4-13.66,12.52-22.5,12.85v-1.6c5.38.11,9.84-2.49,14.11-5.45,2.67-1.85,5.16-5.16,8.4-5.8Z"/>
  <path d="M317.18,329.24c-.02,3.91-7.09,1.9-9.64,3.48,2.71,3.8,8.44,6.93,11.01,10.43.54.73,1.01,1.08.78,2.17-.67.67-3.67-1.88-4.29-2.4-3.77-3.15-7.3-7.59-11.24-10.74-.26-1.14,1.79-1.56,2.54-1.72,3.39-.75,7.37-.66,10.84-1.21Z"/>
  <path d="M477.25,340.57c.67-.11,3.63,2.98,4.19,3.67,6.26,7.8,7.38,30.59,6.71,40.49-.81,12.03-10.62,20.44-22.65,17.78-8.26-1.82-11.05-8.23-14.07-15.4-4.36-10.32-7.31-22.14-5.48-33.33.26-1.57.8-6.41,2.36-6.79s10.47,4.88,14.85,4.22c3.72-.56,9.77-9.35,14.08-10.65ZM477.95,353.35c-.56-2.16,3.02-10.23-.79-10.18-5.94,2.2-3.72,5.43-.72,9.29.46.6.54,1.11,1.51.89ZM485.99,378.54c.59-10.77-1.34-21.49-4.82-31.62-1.45-1.1-1.67,9.32-2.95,9.64-1.43.32-5.34-7.81-6.42-9.1-2.31,1.21-5.19,5.11-7.63,5.76-2.21.58-3.99-.39-6.06-.19l-1.59,7.82c-1.04.27-1.03-.43-1.51-.9-1.95-1.94-4.08-5.24-5.47-7.67-1.68-1.14-2.11,5.94-2.16,7.21-.23,5.95,1.52,13.59,3.23,19.32.6,2.01,3.67,10.88,5.1,11.51,1.68-2.75,1.51-5.97,2.85-8.94,4.9-10.84,19.65-10.34,27.42-2.85ZM455.44,357.64c.17-1.78,1.06-3.6.29-5.38l-6.18-2.65c-.3,1.13.34,1.45.79,2.15,1.17,1.85,3.42,4.41,5.1,5.88ZM485.88,380.26c-.1-.17-2.71-2.19-3.13-2.49-7.39-5.2-19.79-4.39-23.27,5.07-.37,1.02-2.76,9.39-2.74,9.91.04,1.01,1.45,2.25,1.4,3.48,1.39,1.05,4.75-7.54,6.68-7.5,1.26.29,2.47,11.26,3.28,11.84,1.43,1.03,9.58-1.05,10.59-2.14,1.24-1.33-2.39-9.2-1.77-11.53.1-.38.49-.82,1.04-.59,1.39.59,6.88,6.95,7.51,3.23.19-1.13.72-8.74.42-9.27ZM479.03,389.26c-.16,1.15.9,7.5,1.87,7.49,1.28-1.06,2.25-2.44,2.79-4.02l-4.66-3.48ZM464.55,391.94c-.88-.81-4.13,4.68-4.25,5.57,1.6,1.61,3.55,2.81,5.85,3l-1.61-8.57Z"/>
  <path d="M601.04,256.2c-.58.66-7.63,5.62-8.12,5.52s-1.02-.92-.56-1.62,5.84-3.82,5.1-4.81c-1.1-.6-7.28-1.44-6.96-2.95.21-1.02,1.48-.66,2.16-.59,1.23.14,9,2.54,9.07,3.25-.3.35-.39.84-.69,1.19Z"/>
</svg>