<?xml version="1.0" encoding="UTF-8"?>
<svg id="katman_1" data-name="katman 1" xmlns="http://www.w3.org/2000/svg" viewBox="0 0 841.89 595.28">
  <path d="M599.45,214.74c20.84,17.61,42.1,36.37,57.98,58.74,2.88,4.06,7.31,10.17,8.23,15.07.52,2.77.53,14.47.13,17.38-.45,3.36-5.33,12.38-7.39,15.42-9.68,14.25-27.65,26.95-44.46,30.77-19.23,4.37-42.21,5.4-61.96,5.99-6.38.19-12.81-.18-19.19-.02,1.45,10.93,3.73,21.86,5.88,32.71,4.9,24.76,10.51,49.5,16.2,74.07.82,3.55,2.58,8.17,3.03,11.53,1.77,13.08-9.22,37.84-18.54,47.21-2.62,2.64-6.77,4.59-9.17,6.85-.36.34-.98.43-.8,1.13.17.7,10.66,6.76,12.1,7.8,6.58,4.74,22.57,18.24,24.45,26.03,1.05,4.35.15,11.23-4.98,12.31-21.4,4.5-58.96-18.03-74.11-32.47-2.28-2.17-7.1-8.76-9.61-9.56-31.86-4.78-62.85-4.62-93.71,5.35-19.47,17.37-50.17,43.32-78.12,40.77-4.66-.42-8.17-1.62-8.03-7.01.49-18.5,20.59-30.46,34.17-39.64l.82-1.15c0-1.09-8.41-6.63-9.99-8-11.77-10.24-19.58-24.22-23.28-39.33-2.15-8.77,1-17.27,2.53-26.1,1.12-6.48,2.19-12.99,3.05-19.51-4.26,1.93-7.98,4.88-12.12,7.05-5.33,2.78-16.86,7.58-22.65,7.98-1.19.08-2.04-.09-2.5-1.29l7.66-75.37-1.8.38c-31.4,14.2-60.43,32.58-90.26,49.51-.82.47-3.5,2.15-4.17,1.98-.67-.31-1.09-.88-1.52-1.44-3.55-4.59-8.24-13-11.34-18.26-11.58-19.61-21.53-40.25-31.52-60.71l-.06-1.5c41.19-14.38,82.34-29.18,121.62-48.24,1.62-1.57,1.31-7.88,1.65-10.24,2.05-14.32,5.37-28.17,10.13-41.8,2.27-6.5,9.33-20.26,10.17-25.74.54-3.54.14-8.71.52-12.59,1.85-19.15,1.23-38.5,2.91-57.75,1.25-14.25,4.49-28.35,5.94-42.59.99-4.12,9.52-13.29,12.73-16.87,28.18-31.41,53.28-45.15,94.49-54.99,7.31-1.75,17.12-2.6,23.81-4.83,3.39-1.13,5.79-3.82,8.78-5.29,3.48-1.72,8.58-2.62,12.38-1.53,2.66.77,4.61,4.12,6.76,4.89,3.49,1.25,13.02,1.37,17.68,2.21,29.02,5.23,58.9,20.05,83.54,35.85,13.4,8.59,32.15,21.47,40.83,34.88,2.74,4.24,2.21,16.5,2.7,22.05,2.11,23.75,3.57,47.61,5.82,71.34.38,4.05.6,10.94,1.5,14.52.2.79.56,1.45,1.1,2.06ZM442.03,31.94c.17-.76-.26-1-.71-1.47-3.49-3.65-13.75-1.26-16.76,2.44l17.47-.97ZM565.3,191.12l.02-42.48c-1.63-23.23-4.07-46.53-8.16-69.49-.69-1.37-2.47-2.18-3.74-3.06-30.86-21.47-77.7-43.86-116-42.21-35.21,1.52-84.47,15.56-112.1,37.86-1.7,1.37-6.6,5.44-7.43,7.13-1.04,2.14-.39,4.44-.6,6.68-1.14,11.84-2.27,23.8-.96,35.68,8.84-2.08,23.07-11.25,30.82-2.43,6.71,7.64,3.5,18.74,3.13,27.89-.17,4.12.17,8.28.02,12.4,11.29-1.27,22.45-3.55,33.74-4.85,12.18-1.4,26.14-2.9,38.31-3.42,14.69-.63,34.19,2.62,48.97,4.94,19.46,3.05,33.42,7.48,51.09,15.39,14.41,6.45,28.55,13.38,42.88,19.97ZM315.36,81.45c-.84-.22-.97.35-1.46.72-8.53,6.55-17.25,19.01-24.03,27.41-4.44,24.33-7.4,48.82-8.02,73.52-.06,2.26-.24,16.69.51,17.25,2.06-1.54,4.03-3.57,4.82-6.09-.03-10.19.12-20.38.05-30.57-.02-2.45-.64-4.97-.53-7.77.7-17.29,14.33-23.63,26.68-32.53,1.96-1.82.54-4.16.5-6.25-.22-11.98.42-23.78,1.47-35.69ZM595.88,211.02l-8.36-103.51c-7.13-10.45-16.45-19.22-27.07-26.07-.02,1.35-.05,2.71.06,4.06.84,10.52,3.71,21.97,4.78,32.59,1.61,15.91,1.73,32.07,3.41,48.03.69,6.58,1.87,22,4.94,27.1,2.29,3.8,16.12,14.91,20.22,17.15.67.37,1.12.85,2.01.65ZM289.16,151.57c-.7,5.49.52,12.31,0,17.96l.97.49c7.08-7.78,15.5-13.57,24.81-18.39,3.51-1.82,8.43-3.2,11.56-5.43,5.26-3.74,13.68-12.41,18.73-17.19.67-.63,3.13-2.84,3.07-3.56-1.65-3.12-3.47-7.64-7.43-8.11-8.62-1.03-21.98,4.96-29.24,9.61-8.48,5.42-21.09,13.8-22.46,24.62ZM348.24,139.55c.82-1.47,1.95-10.94.37-11.02l-16.26,15.52,15.89-4.49ZM348.37,155.45c.36-4.04-.26-8.52,0-12.62l-1.1-.65c-21.48,5.75-43.42,14.36-58.11,31.71v17.96l.97.49c14.78-17.58,34.81-27.27,56.98-32.32l.7-.76c-.3-1.31.48-2.85.56-3.81ZM546.38,217.82c.92-.92-6.32-16.89-7.35-19.1-2.99-6.4-6.88-14.58-10.53-20.53-.93-1.52-1.56-2.69-3.14-3.66-4.69-2.88-15.31-6.41-20.84-8.28-9.34-3.16-19.17-5.81-28.9-7.5-18.8-3.27-39.75-6.37-58.6-4.99-24.09,1.76-51.79,3.84-75.08,9.85-15.7,4.05-40.72,14.62-48.36,29.78-8.64,17.14-18.19,39.51-24.35,57.66-.92,2.7-5.15,15.15-4.86,17,.18,1.18,1.27,1.39,2.33,1.59,8.5,1.64,23.12.29,31.18-3.05,2.87-1.19,4.31-4.11,6.03-6.58,9.04-12.95,17.27-28.11,24.14-42.35,7.3-15.13,13.48-30.82,18.38-46.9.61-.11,1.76,0,1.91.76.21,1.03-5.85,17.43-6.76,19.87-6.09,16.25-13.98,31.63-21.69,47.13,3.78,50.67,1.57,100.47-5.08,150.8-3.95,29.92-9.55,59.6-14.51,89.35,2.13,29.39,24.88,55.18,53.88,60.69,23.41,4.45,45.53-6.48,68.69-8.5s41.91,2.16,63.58,4.36c28.51,2.89,50.82-3.31,62.93-30.73,2.81-6.35,7.49-20.08,6.67-26.74-12.5-45.82-19.91-92.73-29.22-139.19-.82-4.11-6.62-33-8.09-34.13-1.1-.84-3.07,2.64-4.21,3.1-.65.26-1.35.29-1.15-.66,10.53-13.4,22.93-25.7,30.83-41,1.37-2.65,3.64-7.14,4.08-9.99.08-.53.36-1.46-.68-1.16-1.73.49-3.72,2.41-5.95,2.79-16.9,2.86-21.81-15.89-18.83-29.02,2.82-12.42,12.82-12.87,23.55-10.66ZM574.53,196.94c-2.08-2.42-3.48-5.02-4.22-8.15l-2.57-19.99-.38,22.96c-.03,1.3,6.83,5.49,7.17,5.18ZM548.81,281.4c7.52-4.23,13.83-11.34,18.83-18.29,1.96-2.72,6.55-8.84,6.36-11.97-.74-12.39-6.25-36.65-11.11-48.13-1.59-3.75-3.59-4.96-6.57-7.5-7.86-6.69-16.82-12.36-25.46-17.97-.1.83.06,1.52.37,2.29,3.16,7.88,9.04,16.63,12.66,24.71,7.77,17.37,12.47,34.32,6.11,53.05-.98,2.88-4.96,9.86-5.11,11.92-.23,3.31,3.38,8.42,3.92,11.88ZM623.23,238.52c-19.97-19.09-44.5-39.17-69.73-50.87-2.61-1.21-5.33-2.51-8.09-3.31,10.86,9.27,23.41,17.37,31.46,29.45,7.48,11.23,12.08,25.45,4.66,37.97-3.5,5.9-4.82,4.3-4.57,12.41.59,19.31,1.6,44.52-4.41,63.06-.3.92-1.07,2.49-2.13,1.23-8.23-12.74-14.68-26.46-20.93-40.25-.7-.2-9.37,5.92-11.04,6.87-3.2,1.82-6.99,3.57-10.34,5.19-1.33.64-6.59,2.35-6.91,3.31l11.07,51.88c9.49.7,18.98-.01,28.44-.3,24.45-.73,53.27-.45,74.34-14.43,21.8-14.46,39.44-37.92,22.57-63.55-9.32-14.16-22.19-26.98-34.4-38.65ZM290.61,195.5c-.52-.53-2.74,1.97-3.16,2.41-5.17,5.48-7.05,9.88-7.3,17.49-.03.79-.48,1.27.52,1.93l9.95-21.83ZM577.34,254.59c.3-.17,3.32-5.03,3.67-5.77,7.44-15.69-3.98-34.01-15.22-44.59,4.69,16.52,8.74,33.29,10.19,50.48.45-.04.94.12,1.36-.12ZM547.72,220.84c-16.6-6.11-25.21,1.38-23.66,18.56,1.19,13.25,11.88,21.35,23.94,12.79,2.58-1.83,2.57-4.9,2.77-7.91.51-7.78-.48-16.1-3.05-23.44ZM317.79,243.06l-1.37.81-15.56,24.6c4.76,5.66,11.24,12.42,18.88,13.42l-1.94-38.83ZM309.92,280.03c-.07-.12-.99-.41-1.36-.79-1.32-1.34-8.16-8.7-9.4-8.48l-13.91,17.66-.46,1.71,25.23-8.74c-.04-.44.14-.96-.1-1.36ZM521.63,300.32c.55.48,3.89-1.03,4.69-1.37,3.43-1.43,21.27-10.59,22.23-13.17l-5.34-13.6-21.59,28.14ZM269.74,453.69c.44.44,8.6-1.62,9.82-2.08,7.34-2.73,16.87-7.48,23.25-12.18,3.12-2.3,3.48-4.45,3.81-8.32.12-1.4-.49-3.72-.37-4.31.11-.55,1.04-.92,1.24-1.62.3-1.06.83-4.71.52-5.63-1.1-3.34-8.53,6.55-9.17.43,3.09-13.65,4.02-28.64,7.43-42.13,3.76-14.89,10.6-27.77,12.02-43.31.91-10.01.93-20.06.99-30.08.03-5.33.6-13,0-18-.21-1.79-4.29-3.75-5.97-3.52-1.52.21-3.92,1.6-5.7,2.09s-3.55.54-5.24,1.07c-4.76,1.51-16.75,5.67-20.66,7.97-1.19.7-5.18,4.93-6.39,6.23-4.88,5.23-9.57,12.7-14.53,17.5-1.17,1.13-3.7,3.26-5.14,1.6l.5-15.69c-2.36-.24-4.09,2.22-5.82,3.08-.56.28-1.55.16-2.41.55-35.45,16.21-72.35,29.76-109.22,42.72l-1.41,1.05c-.33,1.14,3.79,7.3,4.57,8.9,2.68,5.52,5.29,11.35,7.9,16.85,8.42,17.71,18.62,34.45,28.71,51.23l.94.62c8.49-4.68,16.57-10.07,24.97-14.91,23.14-13.34,47.13-25.1,70.84-37.39l1.83-.17-7.3,77.45ZM316.34,353.71c-6.53,19.04-11.65,39.45-14.02,59.51-.14,1.15-.39,2.92-.43,3.96-.03.79-.22.99.6,1.54,2.08-1.71,6.15-2.84,6.93-5.68,1.69-18.79,6.48-38.37,7.41-57.14.03-.53.32-2.29-.5-2.2ZM545.89,555.61c.61-.61,3.52,1.93,4.11,2.44,1.96,1.66,12.4,11.96,13.68,12.06,2.03.16.32-4.22-.09-5.27-2.72-7.05-12.09-14.75-17.97-19.4-5.89-4.67-12.24-9.04-18.66-12.91-3.22.65-6.29,2.23-9.61,3.04-6.44,1.58-18.56,3.11-25.11,2.97-.77-.02-9.94-3.63-9.93-1.13,7.58,8.91,17.73,16.65,27.69,22.77,13.17,8.09,28.99,15.07,44.61,15.81.12-.97-.82-1.61-1.45-2.19-1.87-1.73-15.03-11.16-15.04-12.13l1.21-.75,18.32,14.21c2.53.93,6.75.75,5.25-2.8-4.46-4.91-10.29-8.57-14.85-13.32-.95-.99-2.4-1.85-2.17-3.41ZM309.06,579.87c10.7.13,21.57-4.15,30.9-9.14,12.42-6.64,25.61-16.11,35.84-25.79,1.05-.99,3.69-3.16.83-3.09-12.1.31-19.06,1.28-31.07-2.61-2.55-.83-7.3-3.5-9.32-3.83-1.12-.18-1.19-.02-2.13.34-2.4.91-9.6,6.44-12.1,8.29-9.54,7.05-22.6,16.88-21.93,30,3.71-3.43,6.5-7.76,9.94-11.42.39-.41,3.04-3.64,3.41-1.92s-11.26,13.18-12.43,15.75c-.51,1.34,2.39,2.97,3.46,2.97s2.39-1.04,3.16-1.74c4.6-4.14,9.61-11.47,14.53-15.08.66-.49.98-.91,1.96-.7,1.12,1.12-5.32,6.64-6.3,7.67-1.4,1.48-2.12,2.42-3.65,3.97-.85.85-6.01,5.42-5.09,6.31Z"/>
  <path d="M523.51,192.98c0,10.92-8.85,19.77-19.77,19.77s-19.77-8.85-19.77-19.77,8.85-19.77,19.77-19.77,19.77,8.85,19.77,19.77ZM503.99,180.61c-3.27-3.36-10.57-2.27-11.46,2.53-2.12,11.39,12.88,11.49,13.12,2.4.04-1.59-.54-3.78-1.66-4.93Z"/>
  <path d="M398.44,200.28c0,10.83-8.78,19.61-19.61,19.61s-19.61-8.78-19.61-19.61,8.78-19.61,19.61-19.61,19.61,8.78,19.61,19.61ZM389.33,194.41c0-3.72-3.02-6.74-6.74-6.74s-6.74,3.02-6.74,6.74,3.02,6.74,6.74,6.74,6.74-3.02,6.74-6.74Z"/>
  <path d="M420.63,451.69l-5.81-.68c-1.91,4.79-4.3,2.75-8.38,2.74-1.29.43-1.19,2.99-2.01,3.83-1.54,1.57-5.67-.76-7.68-.52-.64.15-1.4,3.39-3,3.41-.29,0-4.84-1.58-5.45-1.84-9.12-3.98-26.37-24.72-32.87-33.14-10.9-14.13-19.94-29.5-28.81-44.96l-.11-2.07c.73.27,1.39.65,1.87,1.28,4.15,5.38,8.52,15.23,12.48,21.49,10.17,16.09,23.65,34.4,37.56,47.37,4.27,3.98,8.82,8.34,14.83,9.28l2.49-3.16,7.12.97c1.23-6.07,3.37-4.16,8.25-3.49l2.05-3.78,5.57.69c6.91-24.24.38-49-7.56-72.08-5.2-15.12-14.41-32.36-18.43-47.09-.18-.65-.34-1.26-.23-1.94,1.61-.3,1.76.65,2.36,1.76,4.13,7.65,8.36,20.23,11.59,28.69,5.27,13.8,10.58,27.98,13.96,42.34,3.92,16.66,4.55,34.28.19,50.92Z"/>
  <path d="M457.09,457.08c1.34.92,2.95-4.39,4.6-4.39,1.88,0,1.39,5.32,3.67,3.7,2.05-6.74,3.88-.28,6.52,2.15l2.97-4.34c1.43.16,4.97,4.76,6.01,3.86.07-3.23,3.01-4.47,4.87-6.54,21.17-23.57,31.9-53.14,40.52-83.24l2.16.27c-8.4,27.83-18.55,57.84-37.58,80.29-2.24,2.64-6.45,5.79-7.78,8.72-.47,1.03.06,2.9-1.55,3.34-2.26.63-5.52-4.47-6.44-3.82-.44,1.29-1.17,4.81-3.07,4.31-1.46-.39-3.37-4.58-4.46-4.31-2.99,5.54-3.14,2.91-6.32-.48l-3.89,3.84c-8.1-9.06-9.98-21.01-10.91-32.73-1.57-19.82.74-42.5,5.07-61.89,1.37-6.12,4.59-20.02,7.44-25.07,1.09-1.94,2.29-2.09,1.94.47-.67,4.84-4.56,13.72-5.97,19.28-5.94,23.52-9.61,54.88-4.94,78.72,1.4,7.13,3.11,11.79,7.14,17.86Z"/>
  <path d="M393.7,258.76c0,12.99-10.53,23.52-23.52,23.52s-23.52-10.53-23.52-23.52,10.53-23.52,23.52-23.52,23.52,10.53,23.52,23.52ZM391.56,258.82c0-11.82-9.58-21.41-21.41-21.41s-21.41,9.58-21.41,21.41,9.58,21.41,21.41,21.41,21.41-9.58,21.41-21.41Z"/>
  <path d="M485.22,234.81c.06,2.39-2.39,5.13-4.5,5.93-6.98,2.63-11.82-5.45-18.13-5.9-5.92-.42-17.23,8.83-22.96,11.39-3.78,1.69-7.24,1.8-10.21-1.48-.43-.48-2.72-4.18-.74-3.63,2.07.99,3.64,3.9,5.96,4.28,6.43,1.05,19.11-13.87,29.44-12.49,4.94.66,11.21,8.57,15.99,5.71,1.81-1.09,2.84-3.88,5.16-3.81Z"/>
  <path d="M456.12,217.35c2.19.16,5.25-2.27,6.31.7-1.7,4.85-6.37,4.68-6.31-.7Z"/>
  <path d="M356.14,126.58l3.91-58.02c.16-2.01-1.88-1.76-3.2-2.15-.71-.21-.85.29-.71-.98,5.09-1.93,5.41,1.89,5.37,6.07-.06,6.28-1.49,13.94-1.97,20.38-.71,9.63-.91,19.48-1.95,29.11-.17,1.58-.23,4.74-1.45,5.58Z"/>
  <path d="M398.84,130.94c-1.75-.28-3.39.41-5.08.51-7.07.4-14.29.08-21.37.47-1.24.07-11.4,2.04-11.4.24,2.1-1.39,5.46-.59,7.99-.73,7.58-.41,15.25-1.23,22.8-1.47,1.97-.06,5.86-.58,7.06.99Z"/>
</svg>