<?xml version="1.0" encoding="UTF-8"?>
<svg id="katman_1" data-name="katman 1" xmlns="http://www.w3.org/2000/svg" viewBox="0 0 841.89 595.28">
  <path d="M470.74,254.29c9.26,3.15,18.9,5.03,28.16,8.22,8.31,2.86,18.94,6.83,26.91,10.38s12.8,6.24,8.24,15.7c-1.52,3.15-5.24,5.09-3.54,9.07.48,1.12,4.03,3.71,5.1,5.12,9.6,12.67-3.65,18.49-12.04,25.85-5.15,4.52-9.47,9.03-15.2,13.07-4.42,3.12-9.39,5.49-13.58,8.7l10.11,38.41c3.25,2.18,17.85-6.14,21.26-8.27,32.19-20.03,49.05-52.08,57.38-88.18.66-2.85,4.6-22.02,3.78-22.98-12.76,2.01-28.95-4.67-39.28-12.14-12.85-9.3-17.18-24.72-10.14-39.19-7.46-8.35-12.76-17.43-13.16-28.93-.63-17.86,5.99-35.61,19.27-47.55,3.39-3.05,7.41-5.42,10.84-8.4,1.83-1.6,4.71-5.64,6.05-6.58,2.12-1.5,6.55-.86,8.71-2.11.89-.51,6.22-6.09,7.19-7.25,13.1-15.6-2.77-20.18-7.22-33.69-7.65-23.25,15.53-48.56,38.05-50.95,4.56-.48,10.79.03,13.1,4.61,4.02,8-9.97,11.01-11.11,19.03-2.91,20.6,16.58,21.34,26.66,34.58,6.68,8.77,7.78,17.95,4.53,28.48-2.1,6.78-11.92,18.15-9.79,24.9.93,2.95,3.24,5.37,6.48,4.88,3.5-.54,12.12-9.8,16.57-11.15,2.92-.89,6.88,1.34,7.77,4.32,2.89,9.72-7.11,18.29,1.01,29.67,4.99,6.99,7.14-2.24,10.91,4.73,5.17,9.57,9.58,24.47,8.59,35.3-1.7,18.53-28.4,45.06-45.82,49.81-2.37.64-10.68.94-11.25,2.61-.76,2.24,4.82,14.22,5.78,17.52,13.58,46.62,2.85,104.19-18.96,146.7-21.81,42.51-66.48,81.45-113.35,92.34-2.32.54-10.1,1.96-11.47,2.82s-.92,5.92-1.27,7.9c-2.56,14.59-32.03,29.87-45.31,32.88-26.36,5.98-47.26-12.25-61.29-32.2-19.42-.9-39.67-4.65-57.03-13.73-11.11,9.02-25.24,13.93-39.24,16.47-16.39,2.97-34.35,3.58-49.49-4.33-3.3-1.72-9.43-7.54-12.77-6.84-1.79.38-3.79,2.73-5.44,3.62-4.96,2.66-17.4,5.38-15.31,13.27.48,1.81,4.05,4.65,5.66,5.77,4.56,3.14,13.74,4.84,8.93,12.15l-1.16.55c-17.7-4.15-33.98-20.1-13.54-34.52,5.22-3.69,9.4-4.59,15.24-6.41.67-.21,1.45-.21,1.56-1.14-7.14-3.42-12.58-10.66-16.82-17.17-4.41-6.76-13.62-27.21-13.29-34.87.12-2.74,1.41-6.17,3.36-8.1s13.82-9.46,16.38-10.08c1.17-.28,4.05-.69,5.29-.76,1.63-.1,4.76,1.05,5.42.04.76-1.17.1-7.83.28-9.94,1.39-16.2,12.16-33.42,25.29-42.67,2.06-1.45,8.59-4.11,8.97-6.07l1.69-23.62c-10.41-5.7-20.31-12.34-28.86-20.62-4.88-4.73-12.64-12.98-16.71-18.31-5.66-7.42.29-13.12,6.63-16.94.6-2.48-2.22-4.79-3.27-6.87-2.03-4.06-2.87-8.23,1.14-11.36l52.61-18.95c-17.73-8.47-35.39-20.33-44.98-38.01-7.97-14.71-7.77-33.6-1.61-48.89,2.4-5.96,6.88-11.96,8.53-17.93,3.43-12.39,2.82-27.06,5.17-39.94C249.13,32.57,363.5-6.78,441.14,41.8c66.32,41.5,89.09,139.06,37.93,201.42-1.9,2.32-6.49,6.2-7.83,8.4-.52.86-.87,1.65-.49,2.66ZM377.43,486.52v8.72c0,2.47,1.83,9.11,2.58,11.86,7.09,25.93,29.04,55.16,59.4,47.72,9.6-2.36,34.42-14.96,36.52-25.43.95-4.74-1.23-8.96,3.44-12.79,8.5-6.97,12.15-7.72,17.55-18.54,9.78-19.57,9.77-37.64,4.83-58.58-.64-2.69-2.42-5.96-2.78-8.65-.78-5.85-.15-13.63-.66-19.79-1.19-14.41-5.79-37.09-10.66-50.69-3.27-9.15-4.07-4.57-10.82-2.08-4.25,1.57-8.27,2.47-12.83,1.67-1.47-.26-3.97-.72-4.22-2.44,0-1.2,2.65-2.36,3.72-2.93,13.88-7.43,27.35-11.81,40.77-21.18,5.9-4.12,10.54-9.27,16.01-13.46,2.14-1.64,9.17-5.23,9.95-6.29,2.9-3.91-6.93-8.4-9.07-11.46-5.3-7.59,3.53-11.35,4.25-18.55-3.14-2.25-7.14-2.31-10.85-3.71-17.01-6.41-34.45-14.6-52.71-17.06-2.68-.36-11.66-.32-13.11-1.32-.59-.41-.93-.7-1-1.48,1.07-4.66,6.36-5.27,9.95-8.12,52.61-41.62,49.21-125.14,9.32-174.09-55.33-67.9-166.18-63.46-211.58,12.73-13.64,22.89-14.63,42.85-18.23,68.38-1.92,13.61-5.16,16.48-9.84,28.05-14.6,36.09,13.33,63.85,43.79,77.68,31.01,14.08,60.91,16.14,94.53,13.73,5.5-.4,10.95-1.85,16.54-1.2.41,2.18-1.15,3.64-2.81,4.71-10.06,6.51-44.72,7.24-57.03,6.1-10.04-.93-20.06-3.47-29.65-6.49-.67-.18-1.32-.24-1.94.15-.53.34-4.78,9.76-5.51,11.35-6.92,14.96-13.97,31.4-18.24,47.32-3.74,13.94-5.63,28.34-6.91,42.7,1.07-.19,1.03-1.22,1.29-2.02,5.91-18.86,8.54-33.02,20.7-49.67,30.99-42.42,71.76-33.28,99.39,6.39,14.47,20.77,24.72,45.06,26.58,70.56,8.68-2.72,16.89-8.05,26.24-8.95,3.16-.3,14.28-.56,16.63.66,2.03,1.05,2.55,3.31.19,4.13-12.65,1.81-23.5,4.48-34.35,11.36-16.3,10.33-27.78,25.56-32.16,44.52,2.04.14,4.24-.22,6.26.05,1.86.25,4.48,1.92,6.05,1.76,1.81-.19,3.95-4.16,5.88-4.97,6.28-2.64,12.79,1.07,17.59,4.96.96.78,1.33,1.88,2.17,2.64,4.26,3.89,3.65.64,7.53.39.87-.06,4.99.42,5.9.63,11.35,2.54,26.77,26.11,28.34,37.21.36,2.53,1.64,10.7-2.31,9.56-4.89-1.41-7.72-22.82-13.36-25.16-1.16-.48-1.59,2.69-2.43,3.57-1.41,1.49-2.96.91-4.48,1.53-4.98,2.03-7.34,3.65-13.27,2.44-7.29-1.49-7.99-8.12-9.59-14.17-1.08-.97-4.24,4.12-5.1,4.82-6.34,5.24-11.94-.43-16.7-4.38-.82-.68-2.09-.77-2.66-1.24-2.36-1.95-2.81-7.31-7.2-9.94-5.5-3.29-10.97,2.62-8.05,8.05,1.62,2.99,6.15,7.3,9.78,6.79,2.29-.32,5.97-4.32,5.89,1.01-.05,3.4-4.42,5.76-7.54,5.75-3.94,0-6.8-2.99-9.92-4.86ZM651.09,151.52c-.96-1.06-4.19,3.99-4.79,4.53-7.49,6.86-13.42,6.79-19.86-1.24-6.5-8.11-6.51-16.71-2.52-25.95,3.82-8.84,9.25-10.95,8.51-22.14-.92-14.03-8.51-14.15-18.12-20.37-13.39-8.67-19.39-23.19-10.36-37.59.92-1.47,5.84-6.21,5.02-7.3-12.38,2.58-22.81,10.83-27.58,22.63-9.03,22.34,11.86,27.02,10.77,43.85-.43,6.59-7.35,14.85-12.33,18.94-2.28,1.87-5.96,3.13-7.35,4.38-1.89,1.7-5.24,8.52-5.6,11.24-3.45-.49-1.3-4.88-6.04-3.34-1.94.63-10.53,9.13-12.31,11.15-14.09,16.1-20.4,41.27-5.12,58.67,2.6,2.96,6.02,3.45,5.18,8.71-.75,4.74-3.88,8.85-3.84,14.72.12,17.17,26.05,29.72,41.08,27.98,3.96-.46,3.27-2.99,5-5.82,5-8.17,14.43-13.31,22.96-6.52,2.06,1.64,6.03,7.83,8.11,7.89,9.27-1.42,16.27-3.38,23.96-8.89,15.85-11.35,30.38-28.41,26-49.25-2.35-11.19-7.14-10.03-13.58-16.49-7.79-7.81-9.42-19.36-7.2-29.79ZM609.27,255.29c-4.77-5.6-10.04.59-11.04,6.06-2.42,13.23-3.33,26.78-6.27,40.04-8.33,37.61-36.17,79.15-71.96,95.24-2.21.99-13.42,4.41-13.79,5.47l9.25,63.96c47.16-22.87,79.82-73.09,89.64-123.86,3.62-18.71,2.59-37.96,3.89-56.85.62-8.93,4.01-16.29,2.13-25.6-.41-2.05-.59-2.97-1.86-4.46ZM618.01,273.01l-1.2.31c1.85,4.31.61,8,.59,12-.16,32.84-2.02,62.67-14.12,93.54-14.53,37.04-37.5,66.25-71.07,87.71-4.41,2.82-16.98,8.62-19.44,12.44-1.58,2.45-3.15,10.51-4.51,14.13-.87,2.3-2.14,5.44-3.2,7.62-1.46,2.99-3.62,5.57-4.9,8.62.5.5,10.07-3.14,11.56-3.77,34.71-14.48,70.13-43.88,88.38-77.02,25.32-45.97,30.85-92.67,21.99-144.29-.74-4.28-2.29-7.42-4.05-11.29ZM255.34,353.6c3.53-19.43,10.25-39.05,18.54-56.94,1.16-2.49,8.82-16.19,8.5-17.27-.84-2.84-13.07.47-15.62,1.13-13.4,3.49-26.18,9.82-39.22,13.71-2.28.68-5.12.64-7.1,1.31-5.64,1.91,4.88,10.06,4.82,13.27s-13.37,6.16-9.53,11.93c9.06,10.31,17.79,20.17,29.44,27.69,1.39.9,9.4,5.82,10.17,5.16ZM400.11,417.18c2.14-2.68-.53-15.84-1.31-19.69-9.01-44.57-56.59-121.04-104.99-67.66-12.81,14.13-20.71,35.28-25.07,53.72-3.67,15.52-6.14,29.47-3.63,45.38,5.41,34.36,28.89,66.83,60.68,81.26,15.05,6.84,31.96,11.62,48.63,11.21.46-.44-2.59-7.44-2.97-8.75-7.04-24.4-.49-40.77,6.75-63.54,3.3-10.36,9.74-21.19,17.55-28.76,1.12-1.08,3.7-2.36,4.34-3.17ZM251.73,399.92c-1.49-1.53-10.17,7.26-11.44,8.7-9.49,10.79-14.27,23.68-13.22,38.21,10.87.22,29.34,4.41,29.19,18.06-.74.99-1.12.45-1.95.11-3.36-1.36-7.28-4.91-11.01-6.44-4.93-2.02-10.77-2.84-15.94-3.9l-.6,1.18c3.83,2.98,11.57,12.27,2.44,13.25-1.75-.25-4.2-4.9-5.72-6.36-3.92-3.78-19.84-13.98-15.34-.9,3.08,8.95,7.26,5.97,11.99,10.26.84.76,1.8,1.02.94,2.1-3.68,4.63-13.31.03-16.5-3.38-1.87-2-3.98-7.95-6.7-8.37-5.55-.85-.91,8.24.94,10.52,1.07,1.32,5.12,4.26,5.32,4.95.62,2.17-1.69,3.23-1.76,5.26-.12,4.16,7.22,15.97,10.01,19.52.98,1.25,5.53,6.2,6.57,6.67.26.12.99.15.89-.29-12.66-11.34-14.6-31.91,8.84-22.67,9.08,3.58,23.66,16.08,24.85,26.28,1.63,14.02-8.91,11.39-18.04,7.81-.97-.38-3.45-2.75-4.21-.9,8.25,4.41,17.88,7.91,27.34,8.45,12.76.73,37.45-3.71,48.16-10.84.89-.59,5.26-3.77,4.5-4.82-35.52-19.5-55.73-58.68-58.93-98.35-.37-4.6-.35-9.5-.61-14.12ZM417.56,479.73c3.35-4-10.47-23.31-15.15-10.63-4.28,11.57,9.82,17,15.15,10.63ZM432.61,473.4c-3.22.67-6.33,6.04-6.34,9.21-.04,8.21,13.94,7.35,14.82,4.72,1.43-4.25-2.86-15.1-8.48-13.93ZM237.09,499.36c-5.85-5.42-25.49-15.89-17.13.59,2.75,5.42,11.7,13.63,17.47,15.61,3.12,1.07,9.16,2.78,8.94-2.26-.18-4.02-6.35-11.23-9.28-13.94Z"/>
  <path d="M634.61,548.24c-5.91,6.87-15.6,8.71-23.68,11.49-2.32.8-4.65,2.5-7.08,3.15-4.63,1.23-4.59-.11-9.27,2.16-6.82,3.31-11.62,3.74-18.81,5.25-67.42,14.16-141.16,15.15-210.07,13.08-15.59-.47-33.33-.39-48.66-2.46-1.87-.25-7.73-1.49-9.32-2.13-3.35-1.34-3.1-7.04,1.42-7.48,8.61-.84,21.06,1.88,30.11,2.43,7.19.44,14.48.28,21.67.58,71.52,3.04,145.89.56,216.33-12.77,6-1.14,12.58-5.21,18.21-.45,1.49-.92,1.11-3.02,1.84-4.16,1.21-1.9,15.04-5.9,18.44-7.43,23.29-10.45,13.68-18.85-4.62-25.7-15.48-5.8-30.29-7.77-46.03-11.71-3.07-.77-14.64-3.09-14.33-7.24,1.02-1.1,2.3-1.91,3.78-2.11,10.56-1.45,42.67,6.9,53.84,10.56,13.97,4.58,42.08,16.51,26.23,34.94Z"/>
  <path d="M675.6,128.21c4.9-1.25,10.94.99,14.3,4.65,8.01,8.73,1.4,22.5-10.22,21.66-9.43-.68-12.42-11.85-10.13-19.74.61-2.11,3.95-6.03,6.06-6.57ZM685.21,144.14c2.42-2.63-1.89-8.52-5.84-6.75-5.49,4.21,1.51,11.46,5.84,6.75Z"/>
  <path d="M255.16,563.03c1.33-.39,3.76-.18,5.22-.05,9.76.91,20.46,4.85,30.45,5.63,4.47.1,6.21,5.99,2.4,7.83-1.67.81-10.5-.02-12.91-.33-.99-.13-1.79-.92-2.58-1.03-4.96-.7-19.12-1.93-22.62-4.45-2.32-1.67-2.45-6.88.03-7.6Z"/>
  <path d="M249.22,561.81c.75,1.28-1.88,6.56-3.32,7-2.75.84-17.2-3.05-18.17-5.8-.9-2.55-.14-6.4,3.12-6.53,2.29-.09,17.48,3.83,18.37,5.33Z"/>
  <path d="M661.76,104.14c10.4-2.13,12.65,13.95,1.68,13.11-8.53-.65-9.87-11.43-1.68-13.11Z"/>
  <path d="M194.42,376.88c-5.9,4.63-14.4-6.7-7.98-10.68,6.64-4.11,14.36,5.68,7.98,10.68Z"/>
  <path d="M593.77,532.42c6.95,6.16-6.28,14.08-10.57,6.67-2.92-5.04,6.14-10.59,10.57-6.67Z"/>
  <path d="M629.27,471.62c10.01-2.27,10.37,9.55,3.21,11.06-6.55,1.38-9.32-9.67-3.21-11.06Z"/>
  <path d="M662.34,262.31c10.42-3.07,11.2,14.15,1.35,11.03-4.82-1.52-6.01-9.65-1.35-11.03Z"/>
  <path d="M672.3,253.32c4-3.72,13.23.82,9.5,7.39-4.26,7.5-14.57-2.69-9.5-7.39Z"/>
  <path d="M650.92,473.47c2.3,1.85,1.76,7.19-.79,8.77-3.47,2.15-9.37-.63-8.54-4.9.74-3.82,6.34-6.28,9.33-3.88Z"/>
  <path d="M184.55,394.32c-2.72-1.98-2.49-8.01.99-9.18,6.87-2.31,8.91,9.56,3.35,10.01-1,.08-3.56-.27-4.34-.84Z"/>
  <path d="M198.97,383.24c4.75-3.83,11.04,5.71,4.48,8.42-5.21,2.15-7.69-5.82-4.48-8.42Z"/>
  <path d="M418.17,100.53c19.57-4.01,34.12,25.02,38.22,40.31,2.96,11.04,3.43,24.22,1.49,35.49-.77,4.48-2.2,12.04-5.58,14.87-11.22,9.42-41.07,10.16-53.53,3.04-4.69-2.68-6.17-13.23-6.82-18.44-2.39-19.08,2.09-70.32,26.22-75.27ZM418.77,108.35c-5.06.9-10.98,10.65-11.71,15.35-3.52,22.75,25.07,26.12,28.08,6.42,1.5-9.83-4.61-23.87-16.36-21.78ZM448.4,167.76c-2.2,2.41-3.12,5.71-5.16,8.37-3.32,4.32-13.07,11.31-18.58,10.92-5.12-.36-12.78-8.25-15.07-12.64-1.39-2.67-2.23-8.8-3.25-9.98-1.42-1.64-4.31-.32-5.46,1.22-2.47,3.32-.48,20.05,2.14,23.15.39.46.66.96,1.32,1.09,9.15,1.28,17.49,3.34,26.78,1.79,2.46-.41,8.74-1.96,10.81-3.02,5.74-2.95,6.88-15.14,6.48-20.88Z"/>
  <path d="M269.57,108.42c9.15,10.64,7.38,52.77,5.54,66.77-.5,3.76-1.59,10.07-2.61,13.63-2.4,8.35-11.98,8.98-19.12,6.47-2.94-1.03-10.55-5.34-11.59-8.26-.73-2.04-1.23-7.52-1.47-9.96-1.85-18.88.77-40.11,8.79-57.35,3.37-7.25,11.97-21.18,20.46-11.3ZM263.58,114.29c-2.14.55-6.21,9.04-6.78,11.33-1,4.03-1.09,10.43,1.03,14.08,3.89,6.71,11.25,4.34,11.97-2.89.4-4.03-1.03-13.12-2.13-17.17-.46-1.71-1.68-5.96-4.09-5.35ZM267.97,177.98c-10.03,10.94-15.92-3.2-17.36-12.4-.25-1.6.73-5.57-1.9-4.76-3.03,1.92-1.8,18.56-.29,21.98,1.7,3.83,11.83,9.05,15.22,7.08,1.21-.7,5.05-10.94,4.33-11.9Z"/>
  <path d="M263.27,219.59c1.29-.74,5.37,2.05,7.01,2.7,3.75,1.47,7.64,2.65,11.33,4.31,7.18,3.22,15.9,9.32,22.53,11.75,3.38,1.24,4.46,1.12,7.87.2,5.25-1.41,10.75-4.52,16.26-6,10.4-2.79,19.99-1.27,30.57-1.31l32.18-13.54c6.65-1.03,9.18,5.02,3.29,8.1-12.74,4.13-28.38,14.89-41.84,14.14-3.75-.21-8.28-1.97-11.91-1.78-10.25.53-23.46,10.36-31.97,10.23-7.24-.11-21.38-9.86-28.77-13.38-5.16-2.46-19.31-5.58-17.69-13.27.05-.26,1.05-2.09,1.15-2.15Z"/>
  <path d="M403.65,538.5c-7.23-7.95-16.92-22.87-9.63-33.29,8.67-12.42,32.29-2.77,40.27,6.57,7.48,8.75,14.12,27.2,3.32,35.82s-26-.34-33.96-9.09ZM405.54,505.91c-3.95.73-6.34,5.43-6.49,9.17-.3,7.17,8.01,18.84,13.59,23.15,11.89,9.19,27.58,7.4,22.36-10.94-3.09-10.85-17.69-23.56-29.46-21.38Z"/>
  <path d="M442.27,204.02c6.76-.73,18.9-.28,22.71,6.41,5.73,10.05-8.23,17.08-16.34,18.61-6.92,1.3-17.64.15-21.79-6.34-6.56-10.28,6.6-17.72,15.42-18.67ZM444.66,210.02c-4.89.59-12.97,3.22-13.01,9.02.8,2.95,9.66,4.63,12.27,4.66,3.49.04,14.63-3.56,15.67-7.22,1.73-6.07-11.15-6.91-14.93-6.46Z"/>
  <path d="M239.59,198.57c12.94-.93,21.58,14.4,5.85,19.73-18.46,6.26-23.43-18.47-5.85-19.73ZM237.74,204.59c-6.28,1.13-4.78,8.32,1.67,8.88,3.46.3,11.03-1.98,8.63-6.23-1.82-3.22-7.05-3.23-10.3-2.65Z"/>
  <path d="M313.5,51.25c3.35,4.15-2.36,11-7.63,7.64.88,5.23-8.62,11.28-11.12,5.4-2.38-5.61,4.13-7.23,6.99-9.22s8.16-8.29,11.76-3.82Z"/>
  <path d="M398.84,98.34c-1.01,1.07-2.03,2.17-3.06,3.25-1.01-1.19-2.81-1.94-2.61-3.74.28-2.6,3.87-8.6,5.97-10.34,3.78-3.14,9.41-3.72,8.07,2.65-3.34,2.37-5.64,5.28-8.37,8.18Z"/>
  <path d="M273.82,89.05c6.09-1.65,9.84,15.17,5.27,16.15-1.62.35-3.85-6.93-4.83-8.39-.73-1.09-2.94-2.46-3.2-3.46-.34-1.3,1.55-3.97,2.76-4.3Z"/>
  <path d="M327.43,212.35c2.19,3.45-6.76,12.73-9.86,7.1-1.5-3.45,6.23-9.83,9.86-7.1Z"/>
  <path d="M289.84,219.26c-3.14-3-5.06-10.17.36-6.67,6.21,4.02,5.49,12.26-.36,6.67Z"/>
  <path d="M314.29,66.11c1.46,3.99-5.27,8.99-5.84,3.83-.46-4.22,2.52-4.16,5.84-3.83Z"/>
  <path d="M580.12,253.16c-4.79-.11-9.79-4.43-12.94-7.8-7.83-8.39-13.33-20.24-10.22-31.89.92-3.46,3.52-6.58,4.26-9.57.81-3.31-.45-8.48,4.39-9.34,3.07-.55,5.28,2.6,6.51,4.96,5.76,11.02-2.79,8.69-5.96,14.74-7.03,13.41,7.49,28.26,13.96,38.91Z"/>
  <path d="M628.24,251.35c-1.32-1.91,8.36-12.14,9.74-14.62,2.03-3.64,2.74-7.37,2.29-11.54-.94-8.72-13.29-10.01-10.7-21.52.58-2.57,6.16-8.55,9.05-8.14,5.33.75-.49,9.32-.06,12.1.36,2.3,4.31,4.35,5.9,6.16,9.99,11.33,3.23,26.08-6.89,34.58-2.6,2.19-5.92,3.73-9.33,2.99Z"/>
</svg>