<?xml version="1.0" encoding="UTF-8"?>
<svg id="katman_1" data-name="katman 1" xmlns="http://www.w3.org/2000/svg" viewBox="0 0 841.89 595.28">
  <path d="M380.48,27.42c-1.46,5.24-5.89,9.46-5.97,15.28,24.83-5.76,55.51-3.93,77.96,8.77,1.47.83,5.48,4.21,6.26,4.42,1.28.34,9.36-1.75,11.82-1.88,3.77-.2,14.56.58,17.78,2.14.9.44,1.36.72,1.15,1.83-1.23-.1-9.3,4.16-7.97,5.32,10.35-.82,20.07,3.01,29.16,7.39l.04,1.87c-5.8,1.42-10.93,4.51-15.85,7.75l-3.38,3.26c10.94,5.77,21.31,12.56,31.18,20,8.61,6.49,19.65,15.19,26.32,23.53,1.07,1.34,2.51,2.81,2.32,4.66-10.35-.52-20.87,5.67-30.14,10.07-8.74,4.15-17.3,8.7-25.66,13.55-.46.41-.83.5-.66,1.27.12.53,6.05,6.61,7.17,8.13,2.64,3.55,4.73,7.26,6.74,11.19-1.86,2.27-4.77-.21-7.15-.82-1.56-.39-10.27-2.65-10.78-2.18l1.89,5.12-.96,1.49-7.86-1.22-1.42,3.29-13.54-2.02c-.77,2.9-4.91,9.99-3.71,12.59.18.4,4.33,4.55,4.66,4.55,10.54-8.22,22.74-13.49,35.68-16.71,18.44-4.6,38.32-6.85,57.18-3.58,1.92.33,13.79,2.7,8.71,5.66-15.94,5.25-31.28,12.44-47.05,18.09-8.86,3.17-17.55,5.36-26.81,7.09-2.94.55-7.59.27-9.43,2.19,10.37,3.31,20.98,7.51,28.99,15.14,23.89-2.92,48.41,5.84,69.62,16.2,16.64,8.13,31.69,19.63,41.62,35.47-.46.63-.87.9-1.66,1.02-2.59.4-17.15-3.32-21.34-3.93-23.07-3.37-40.55-4.95-62.3-14.8-1.86-.84-13-7.29-13.72-6.55.22,4.75,2.33,8.76,2.68,13.59,1.08,14.59-3.79,27.96-2.6,42.48l.55.78c5.52.11,8.22,5.32,11.99,8.62,2.98,2.61,13.21,10.1,14.55,12.7,1.97,3.83,1.09,10.91,2.71,15.9,1.38,4.23,6.03,9.54,6.63,13.31.87,5.46-2.15,15.64-2.61,21.9-2.06,28.18.51,58.18-19.3,81.73-2.66,3.16-6.55,5.21-8.92,8.36-4.51,6.02-5.27,12.89-11.73,18.18s-8.15,3.12-15.11,4.83c-4.38,1.08-8.42,6.12-13.14,6.8-6.35.91-10.16-.88-15.73-3.14-27.37,8.54-54.13,19.68-82.92,22.8-11.47,15.19-25.4,28.23-37.55,42.87-1.71,2.06-11.6,15.92-12.62,15.95-2.16-1.56.56-5.21,1.55-7.08,5.94-11.2,13.73-19.88,20.4-30.12.61-.94.6-1.58-.67-1.33-6.37,7.14-13,14.04-19.29,21.25-2.96,3.4-13.22,17.5-16.11,18.45-1.45.48-10.68,2.4-11.79,2.18-1.47-.29-3.2-4.92-3.5-6.49-.37-1.92-.41-4.14.36-5.98,8.22-12.14,16.45-24.31,26.07-35.41-6.21,1.14-16.39,10.25-22.27,10.67-4.24.3-12.87-4.32-14.92-8.28.33-1.97,11.32-4.18,13.62-5.04,8.29-3.06,11.01-6.88,17.64-11.61,3.33-2.37,7.78-3.84,10.59-7.02-9.39-.87-18.99,1.93-28.27,1.35-8.79-.55-9.31-1.78-10.26-10.34-.67-6.08-1.17-14.42-1.37-20.57-.08-2.56,0-7.44,2.85-8.53,3.85-1.48,4.91-.94,8.96-3.64.99-.66,5.63-3.69,4.84-4.79-4.43-1.52-8.65-5.57-12.28-8.67-4.13-3.52-13.47-11.53-16.31-15.6s-3.8-11.6-5.82-16.11c-.41-.91-.08-1.05-1.49-.84-1.33,1.66,2.08,32.84,2.82,37.38,2.98,18.16,13.12,45.36,11.78,62.63-.35,4.59-3.57,11.69-1.58,15.56,1.26,2.46,5.88,7,6.23,9.09.39,2.33-.89,4.31-.64,6.54.34,3.03,2.92,6.94,3.31,10.71.21,2.02.26,6,0,7.98-.12.92-.36,1.92-1.32.98-.28-8.83-7.96-17-3.44-25.49-5.03-5.19-8.7-4.61-7.8-13.32.61-5.88,2.39-9.05,1.91-16.01-1.43-20.98-10.2-44.48-12.54-65.89-.73-6.64-1.38-15.21-1.44-21.82-.05-5.35,1.31-11.63.64-16.59-1-7.4-6-18.09-8.25-25.65-1.38-4.64-1.82-10.37-3.34-14.6-1.18-3.27-4.22-5.6-4.81-9.15s.97-7.13.44-11.09c-.49-3.67-2.77-8.9-3.6-13.01-3.87-19.14-1.89-37.14,6.42-54.74,7.76-16.44,27.8-22.12,37.8-36.64,12.2-2.82,20.26-12.85,30.59-19.26,2.6-7.82,3.04-16.15,3.96-24.28l-13.29,6.64c-.91-4.76,2.28-8.87,2.31-13.3-8.75,1.86-16.67,6.05-24.91,9.31-.79-.84,3.84-8.84,4.77-10.18,1.73-2.51,4.93-5.1,6.54-7.42.39-.57.92-.66.65-1.67l-58.45-12.35c-1.31-5.56,21.69-30.17,26.54-34.52,3.06-2.74,6.88-6.27,10.64-7.64,1.61-1.98-7.42-2.71-8.31-2.71-2.89,0-5.9,1.28-8.97.72.49-5.25,6.67-7.2,10.49-9.77l9.44-3.84c-6.04-4.99-13.08-7.79-20.46-10.13-.88-.28-1.76.26-1.47-1.17,2.46-4.94,28.42-7.03,33.89-4.99,2.89-17.69,12.15-34.13,25.24-46.22.37-.96-2.65-2.38-3.31-2.64-3.55-1.39-8.46-1.83-12.27-2.36-.67-.09-2.27.46-1.67-.96,1.37-3.27,10.47-6.63,13.92-7.35,6.88-1.45,12.98-.75,19.88-.41,3.37-9.8,13.82-16.47,23.36-19.16ZM487.16,65.3c-3.71-.36-7.87.26-11.63,0,.01-4.23,6.42-4.97,8.64-7.97-8.73-1.79-16.91.9-25.45,1.18-25.6-17.22-59.5-20-88.86-11.83-.12-6.03,3.5-11.3,7.3-15.62-2.7.05-6.85,2.83-9.25,4.71-4.33,3.39-8.25,8.29-10.09,13.52-9.41-2.67-20.65-.77-29.18,3.71,3.86.85,14.5,1.35,17.3,3.97,2.97,2.78-2.32,3.94-3.32,4.68-3.75,2.8-8.41,8.85-11.2,12.73-7.94,11.05-14.11,24.46-15.41,38.09-2.54.61-.47-2.67-1.95-3.7-6.4-1.51-12.39-1.09-18.79-.1-2.87.45-7.95,1.1-9.83,3.12,4.27-.46,11.9,5.86,14.94,5.92,1.38.03,4.24-1.48,6.08-1.84,3.57-.69,7.16-1.45,10.82-1.48,3.64-20.64,22.93-36.14,41.13-44.28,1.76-.78,5.99-3.31,6.79-.87-7.56,4.07-19.74,11.49-23.4,19.48-.29.63-1.06,2.04-.2,2.46,17.72-20.78,42.62-29.79,69.78-27.9,12.65.88,24.99,6.48,37.82,5.24,3.04-.29,6.74-1.68,10.05-1.92,1.33-.09,10.16-.66,9.3,1.32-.59.85-6.61,5.84-5.65,6.64,3.79.02,23.32,3.88,24.94,5.96,1.76,2.24-6.79,4.52-6.34,6.33,12.68,7.6,21.24,19.51,30.9,30.26,1.93,2.15,15.7,15.8,15.61,16.95-12.89,7.53-30.1,9.12-39.88,21.26,0,1.77,11.3,11.49,13.64,12.97,1.14-.71-.27-1.46-.67-1.99-2.18-2.87-4.63-5.56-7.32-7.97-1.59-1.42-4.23-1.54-3.64-4l2.83.54c17.15-11.28,35.11-19.24,54.69-25.11.75-.22,1.17.43.96-1.01-16.99-17.84-37.8-33.15-59.78-44.24-1.63-2.37,9.68-9.25,11.72-10.48,1.5-.9,3.5-1.25,4.86-2.44-.96-2.34-15.41-6.04-18.27-6.32ZM423.68,115.16c-1.25-1.24-17.43,9.56-16.61,10.62l13.96,3.34,2.65-13.96ZM438.3,139.08c-.36-5.32,1.84-11.14,2.02-16.25.04-1,.29-4.88-1.01-4.98-6.81,2.27-12.27,6.26-16.93,11.65-.37,1.66,7.23,4.16,8.82,5.06.99.55,6.57,5.17,7.1,4.53ZM307.37,125.79c-2.26-1.42-19.38,7.06-17.28,8.63l6.68.35c2.27-4.31,7-6.09,10.6-8.97ZM363.2,156.69c-.58-4.6.43-10.23,0-14.95l-7.82,5.64c1.72,2.45,4.81,9.14,4.52,11.91-.06.57-1.35.55-1.67,1.03-1.41,2.12.54,7.4.32,9.98-1.77.63-1.91-3.36-1.98-4.32-.3-3.91,1.61-8.33,1.2-10.46s-2.75-4.29-3.21-6.48l-3.97,1.99v-5.98c-1.52-1.48-9.83,4.27-9.33,7.61.1.7,6.65,11.33,7.33,12,1.8,1.78,4.81,1.89,5.98,4.31-2.59.24-5.97-1.78-7.74-3.55-.92-.92-6.73-10.56-6.88-11.44-.82-5.09,7.11-10.06,10.94-12.27l1.68-7.95c-5.18-.65-8.69,3-11.56,6.72-9.15,11.87-7.59,15.56-.52,27.62,3.54,6.04,8.58,16.2,17,12.96l5.8,14.09,9.2,15.05c-7.75-4.93-10.38-15.03-14.95-22.58-1.99,1.94-6.47,5.95-6.33,8.91.06,1.31,1.66,3,2.2,4.51,2.18,6.06,3.81,12.34,5.78,18.47-4.93-4.81-4.64-13.29-7.24-19-.35-.78.32-1.21-1.39-.94l-1.41,18.86-5.25,21.01-1.64-1.32-18.3,14.27-.65,1.67c2.56.05,4.75,1.51,6.85,2.79,14.93,9.12,31.04,26.95,49.4,28.36,6.96.53,5.12-1.4,8.87-5.58,5.76-6.41,17.68-12.92,19.01-21.56.57-3.72-.39-2.95-1.33-5.39-.46-1.19-.25-2.71-.98-3.67-.46-.61-6.83-3.65-8.03-2.93.21-3.1,2.27-7.12,1.21-10.19-.4-1.18-5.76-3.22-4.54-4.42l23.68,14.54c2.71,1.17,5.34,2.44,7.89.08,7.55-8.21,17.06-15.12,24.6-23.25,6.35-6.84,10.75-15.28,16.9-22.29-6.81-4.35-9.09-10.47-7.79-18.44.09-.56.97-3.12,1.83-3.14l-.64,3.94c1.56.1,3.11,2.19,4.3.72,3.14-7.9,12.76-19.6,11.64-28.26l-1.32-.32c-7.94,11.42-14.59,24.03-24.6,33.88-.73-3.98.72-8.62.68-12.26-.01-1.09-.65-2.23-.69-3.36-.23-7.5-.41-15.04-2.67-22.25-3.86,1.18-4.98,6.33-5.96,9.65-.28.96.41,1.17-1.34.98-1.68-7.14-1.89-14.33-2.59-21.53-12.18-4.87-24.75-10.06-38.16-9.57-7.45,7.08-16.78,14.02-23.4,21.79-1.72,2.02-8.58,12.94-9.3,13.3-1.11.55-1.06-.78-1.3-1.32-.6-1.38-2.18-6.32-2.35-7.65ZM286.84,169.59c-1.47-.83,1.25-7.01,1.81-8.36,1.36-3.27,3.56-7.52,5.32-10.63.69-1.22,5.92-8.31,5.42-8.86-6.66,6-13.46,12.7-19.25,19.62-2.79,3.33-9.48,11.34-10.97,14.96-.27.67-.49,1.23-.35,1.97l21.62,5.39c6.24-4.66,15.22-6.82,22.91-8.05.27-1.69-1.47-2.01-2.62-2.36-7.18-2.15-16.43-2.7-23.89-3.69ZM540,180.29h-24.26c-8.27,0-32.65,9.73-40.03,14.47-11.39,7.32-13.26,16.09-21.11,25.41-6.26,7.42-20.58,20.77-28.25,26.92-4.29,3.44-5.03,2.32-9.97.99.02,1.16.07,2.34-.17,3.49-.64,3.01-3.75,13.44-3.53,15.46.11,1.03,2.02,2.33,2.34,4.01.3,1.59.16,4.85-.04,6.54-.38,3.24-3.95,10.03-3.91,11.29.2,5.86,13.16,16.86,18.16,19.8,17.18,10.1,38.15,7.82,56.94,4.55,1.79,1.34-10.06,6.72-11.26,7.01-8.79,2.14-19.33,1.18-27.96,4.94v-2.97c-6.15-1.99-12.25-6.33-18.25-8.34-8.26-2.77-18.06-2.47-26.64-3.7l-7.36,12.69c6.2,19.27,17.02,37.4,34.36,48.48,10.92,6.97,23.74,9.52,36.5,10.36-5.44,4.63-14.98,8.96-22.22,7.93-5.25-.75-7.8-9.35-10.95-12.83-1.54-1.7-1.38.93-1.91,2.03-4.78,9.98-8.92,9.7-16.4,16.18s-17.82,19.42-13.32,29.9c1.83,4.26,13.54,13.82,17.68,16.89,3.86,2.85,15.91,10.87,20.22,11.06,3.83.17,12.65-2.21,17.28-2.7,16.14-1.71,31.62-3.22,47.64-6.19,14.54-2.7,28.62-5.98,33.04-22.13,2.11-7.73,2.57-29.93.67-37.75-1.56-6.43-6.69-8.94-10.56-13.37-5.39-6.18-14.07-18.12-7.39-25.81-4.66-5.36-9.53-10.22-7.11-17.9.32-1.02,1.6-2.31,1.63-2.8.03-.58-.98-1.65-1.07-2.69-.22-2.53-.24-5.3,1.02-7.55,3.83-6.86,8.83,1.49,12.57,3.91l1-1.64c.02-6.44-1.15-12.84-.69-19.31.38-5.38,2.29-11.2,2.68-16.6.48-6.65-1.08-25.02-3.49-31.06-.77-1.94-3.58-3.2-4.48-5.15.42-.38,6.45,4.13,7.53,4.76,14.69,8.53,30.18,14.25,46.91,17.5l27.97-12.63c-5.28-4.1-11.05-7.28-17.03-10.2-17.26-8.41-35.8-15.04-55.07-16.71-6.86-.59-13.4,0-20.26-.01-.19-1.34,3.44-.74,2.65-2.31-1.2-2.38-15.91-9.57-19.09-10.82-1.81-.71-11.38-4.14-12.47-4.14h-18.94c-.57-1.69,2.02-1.79,3.06-1.91,5.8-.66,12.7-.18,18.53-.75,14.91-1.47,31.63-5.8,45.17-11.99l9.67-14.59ZM400.08,241.65c-1.06.11-2.17,2.02-1.36,3.15.22.31,6.32,3.05,6.85,3.15,1.59.31,8.81-.74,8.8-2.19-2.31-2.67-5.26-1.95-8.11-2.51-1.21-.24-5.8-1.63-6.18-1.59ZM351.23,354.42c1.15-10.74,5.16-22.28,9.19-32.35,2.87-7.18,12.28-23.12,12.11-29.76-.06-2.14-1.22-6.37-3.1-7.59-3.57-2.32-9.89-4.57-14.15-7.11-9.71-5.78-19.06-14.96-28.41-20.11-4.45-2.45-7.56-3.61-12.57-1.5-1.81.77-4.28,4.63-6.32,6.31-9.72,8.06-25.84,15.16-31.76,26.72-7.01,13.68-9.85,34.41-7.09,49.47,1.15,6.3,4.97,13.79,5.61,19.64.38,3.42-.87,6.58-.58,9.17.27,2.37,3.85,6.72,4.85,9.83.49,1.51.34,3.09.76,4.55,4.3,14.72,8.19,29.7,12.95,44.2,19.03,1.63,41.7-3.79,58.07-13.77,3.34-2.04,16.81-12.32,16.3-16.01-.35-2.55-4.44-6.9-5.42-10.6-.85-3.2-.56-7.12-1.27-10.03-.81-3.31-7.76-5.5-10.45-7.49-2.7-1.99-5.02-5.79-7.84-7.45-4.67-2.75-11.49-2.79-16.8-3.47l5.31,4.98c.11.49-.68.45-.98.32-2.01-.83-10.04-7.75-10.85-9.76-.18-.45-.44-1.47.2-1.52,6.06,6.49,19.27,4.36,25.63,9.61,2.16,1.79,3.85,5.59,6.6,7-.9-7.05-1.26-14.49-3.66-21.25-1.91-5.38-6.61-11.94-9.48-17.1-.33-.58-1.46-1.67-.47-2.18l9.56,15.03,4.06,12.21ZM411.05,285.3c1.19-5.16,3.72-10.64,1.99-15.95-1.24.2-1.09,1.4-1.4,2.24-1.4,3.82-2.43,8.65-1.91,12.72.12.91.41,1.99,1.32.99ZM395.76,309.89l-7.98-24.59c-4.17,4.49-10.18.94-15.28.67,1.61,5.15,1.29,8.24-.33,13.29-2.74,8.57-8.18,17.68-11.48,26.4-1.32,3.47-9.14,25.67-7.46,27.42,9.59-3.54,20.77-4.77,28.89-11.31,2.53-2.03,10.55-10.39,11.5-13.09.23-.66.71-3.45-.84-2.84-2.37.94-6.15,4.62-8.8,5.16l-16.13,1.48c-.02-.9-.23-1.3.44-2.03.82-.9,7.64-5.14,8.98-5.5,4.88-1.29,10.81-1.05,15.83-1.12-.66-3.14,2.92-7.08,1.66-9.93-.25-.56-2.06-2.64-2.65-3.37-3.71-4.56-10.28-11.1-14.61-15.31-.67-.66-1.36-1.1-2.25-1.38l.2-1.94c1.06-1.41,8.64-.57,10,.71,1.18,1.11,4.49,8.62,5.79,10.83s2.59,4.84,4.51,6.45ZM403.74,295.93v12.63c9.2-.42,5.14-7.18,1.52-11.79-.43-.54.03-1.21-1.52-.84ZM478.18,316.54c-13.64.68-28.6,2.18-41.73-2.48-3.36-1.19-6.05-3.4-9.45-4.17,6.6,5.59,15.75,8.88,23.69,12.42l21.67-3.29,5.81-2.48ZM531.19,312.65c-3.01.56-3.31,5.1-2.16,7.2.49.9,4.86,2.66,6.25,3.72,2.61,1.99,17.75,16.16,19,16.22,1,.04.7-1.42.68-1.98-.04-1.06-.2-3.35-.39-4.28-.82-3.93-12.33-11.39-15.91-14.66-2.24-2.05-4.55-6.76-7.47-6.22ZM536.97,327.56c-2.93-2.33-4.83-3.65-7.82-5.82-1.61-1.17-10.86-8.33-11.56-8.44-3.55-.54-4.18,7.38-2.09,9.46,4.67,3.22,8.73,7.31,13.24,10.68,2.71,2.02,6.11,3.11,8.94,5.68,2.35,2.12,12.94,12.88,14.28,14.96.97,1.5,2.94,9.42,4.96,8.98,1.24-.27,4.22-5.92,3.67-7.59-2.35-3.05-3.35-6.88-5.2-10.14-3.75-6.63-12.37-12.93-18.44-17.76ZM551.37,376.27c3.11,1.79,5.09-6.8,4.93-8.91-2.82-3.35-3.86-8.92-6.03-12.25-1.15-1.77-12.56-13.53-14.61-15.3-2.58-2.22-6.14-3.68-8.9-5.73-3.29-2.44-11.86-13.08-13.2-5.1-1.16,6.92,6.63,14.38,11.12,19.13,5.77,6.1,16.22,12.58,20.31,17.59,2.29,2.81,4.41,7.4,6.38,10.56ZM391.78,347.12c-1.24-1.18-8.26,7.8-8.8,9.48-1.08,3.37-.8,8.81-1.17,12.45,4.54-6.35,6.53-14.85,9.96-21.93ZM520.41,347.78c-3.81,5.97,3.42,15.8,7.35,20.54,3.11,3.75,6.53,5.43,9.34,9.93s4.14,14,11.52,8.39c1.61-1.22,2.96-5.36,2.69-7.26-.09-.64-6.18-9.85-7.04-10.95-3.64-4.66-9.22-7.13-13.59-11-2.67-2.37-5.73-7-7.93-8.68-.75-.57-1.22-1.22-2.34-.96ZM561.94,358.41c.35,1.27-3.02,5.49-1,5.97,3.08.73,3.18-5.14,1-5.97ZM559.26,371.04c-1.73-.33-1.02.28-1.38.94-.6,1.14-2.8,5.12-2.65,5.97,3.91.61,5.43,6.07,3.73,9.06-1.46,2.56-4.77-5.52-6.33-5.34-.2,3.82-1.79,7.55-5.99,7.99-.65.87,8.46,11.62,6.34,18.63-.71,2.33-8.95,13.13-11.01,15.57-2.22,2.61-6.03,4.53-6.62,7.66,1.16,1.43,13.23-12,14.23-13.35,2.63-3.53,9.08-14.54,10.04-18.53.89-3.71.05-8.41.32-12.31.4-5.82,2.89-10.87-.68-16.29ZM460.9,382.34c-9.26.62-18.15-2.55-26.58-5.99-.79.96,6.6,11.29,8.44,11.83,3.72,1.09,13.24-1.77,16.62-3.71.92-.53,1.78-.83,1.52-2.13ZM390.44,390.98c-.93-1.1-5.35-6.6-5.34-2.32,0,.99,6.2,7.54,5.34,10.3-2.52-1.65-3.46-5.32-5.63-7.32-1-.93-.83-.49-1.67.36l13.62,28.9c1.46-3.3,1.04-6.39,2.49-10.14.95-2.45,3.94-5.95,4.37-7.65.97-3.84-9.72-14.37-13.51-16.09l.33,3.97ZM369.12,400.35c-2.27-.71-1.82.88-2.89,1.93-2.12,2.1-4.26,4.18-6.35,6.31,2.74.92,6.08-3.56,8.2-.17.88,2.51-3.25,9.82-3.92,12.43-1.11,4.34,4.5-.92,5.68-2.31,2.05-2.45,3.17-5.63,5.25-8.08l-5.96-10.11ZM399.09,463.42c-1.21.27-1.3-.37-1.88-1.11-3.37-4.34-8.12-12.71-10.86-17.72-4.84-8.82-8.03-18.21-12.86-27.03-.64-.15-3.96,3.98-5.04,4.91-11.56,9.99-26.54,19.19-41.81,21.67-.88,1.02,7.5,15.39,8.77,17.48,8.78,14.5,19.47,25.78,29.38,39.08,3.12,4.19,7.28,12.5,10.37,15.55,7.83,7.75,28.46-7.24,30.58-5.65l-12.97,7.3c-.68,1.21,3.67.72,4.02.69,18.59-1.51,38.06-10.41,55.5-16.28,10.28-3.46,25.13-6.64,34.32-10.87,2.76-1.27,5.9-3.48,6.78-6.51,2.38-8.2,2.66-29.25-4.62-35.11-2.63-2.12-10.58.58-14.26.95-19.6,2-39.53,3.61-59.06,6.07-5.52.7-10.84,2.48-16.34,3.27l-.03,3.29ZM325.31,441.49c-3.61.11-7.1.08-10.57-1.06-.6-.2-4.95-2.32-5.34-2.63-2-1.59-5.92-7.17-8.04-8.57s-5.46-.98-7.94-1.03l3.41,13.87c8.62.29,18.38,2.9,26.88.76,1.11-.28,1.94.67,1.61-1.34ZM434.99,452.13c-13.39-2.76-23.63-13.63-33.23-22.6.95,6.8,11.73,24.96,18.9,25.16,2.97.08,10.43-.55,13.33-1.25,1.01-.24,1.17.47,1-1.31ZM484.17,494.01c-.33.42,4.55,4.12,5.28,4.35,7.65,2.39,8.59-3.87,14-6.01,8.26-3.27,15.3.12,22.22-9.02,6.59-8.72,7.48-16.9,6.27-27.46-.37-3.21-2.39-15.4-5.21-16.74-11.88,4.91-24.43,7.72-37.23,9.02,1.16,2.59,3.14,4.51,4.46,7.17,4.05,8.19,4.58,18.57,2.55,27.42-1.62,7.07-5.58,9.37-12.33,11.28Z"/>
  <path d="M587.69,116.96c.25-.1,2.88-2.99,3.93-3.69,15.63-10.37,8.88,5.89,11.15,13.22,1.16,3.76,8.17,6.8,8.36,10.32.27,4.98-10.58,5.41-13.01,7.54-2.27,1.99-2.93,11.46-7.29,11.32-4.38-1.33-4.51-8.05-8.04-9.87s-13.94-.88-15.21-3.4c-2.26-4.48,4.35-6.83,4.99-10.34,1.03-5.58-7.64-16.31,4.32-16.31,2.82,0,8.73,2.08,10.8,1.2ZM597.15,117.15c-.45-.52-7.45,5.53-9.13,5.87-2.86.58-9.81-2.5-11.48-1.56l2.04,9.97-3.37,7.65c4.33.03,8.92.85,12.4,3.55l3.21,4.42c3.06-7.2,6.19-8.42,13.59-10.01.99-1.54-2.72-3.48-3.93-4.96-3.96-4.82-3.51-8.97-3.35-14.93Z"/>
  <path d="M316.88,21.24c1.77,2.37,12.99,4.27,9.16,9.23-1.66,2.15-7.44,1.27-9.95,2.33-.09,4.38,1.14,16.81-6.28,11.78-2.15-1.46-4.24-5.8-6.23-6.39-3.22-.96-10.95,2.32-12.52-.81s4.07-8.05,5-10.97c-7.24-13.69-6.53-19.23,9-10.31,2.73-.06,7.66-10.37,10.57-5.92,2.44,3.72-.59,8.6,1.25,11.05ZM318.67,26.76c-.68-.68-4.5-1.52-5.63-4.01s.73-5.45-1.34-7.28c-1.32,1.66-4.38,5.2-6.63,5.24s-8.64-4.28-8.99-3.92c.67,3.14.98,7.6,4.7,8.34l-4.03,8.93c2.73.26,6.06-.5,8.67.3,2.78.85,3.3,4.43,5.94,5.02.11-3.37-.56-9.7,3.29-11,.74-.25,5.63-.03,4.02-1.62Z"/>
  <path d="M284.26,251.24c-.95-.97-1.75-6.16-2.79-6.84-1.38-.9-7.75-.21-8.58-2.75-1.19-3.64,3.52-6.17,3.91-8.56.46-2.84-3.16-8.39,0-9.96,3.01-1.49,6.34,2.88,8.98,2.75,2.04-.1,3.49-4.02,7.16-2.95,2.93.85,1.29,5.88,2.17,8.5s6.4,5.67,5.53,8.86c-1.35,3.25-5.35.78-7.61,2.42s-4,13.39-8.77,8.53ZM294.08,238.11c.66-.76-2.9-4.3-3.39-5.63-.71-1.92.63-3.19-.93-4.32-2.85,2.76-6.32,2.41-9.31,0-2.17,1.65.9,3.78.24,6.15-.28,1.02-3.25,3.45-3.88,4.8,3.48,2.11,8.77.34,9.25,5.93l1.36.39c.29-3.59,2.78-7.29,6.65-7.32Z"/>
  <path d="M372.23,560.18c-2.48,3.05-11.86,15.95-13.66,17.25-3.45,2.48,1.36-5.06,1.72-5.59,9.07-13.47,22.3-28.93,32.84-41.6,2.01-2.42,4.2-4.97,6.62-7,.38,2.05-.75,3.09-1.72,4.59-6.9,10.59-17.66,22.34-25.81,32.35Z"/>
  <path d="M405.74,524.57c.87.81-9.49,14.12-10.65,15.6-2.51,3.21-7.83,10.43-10.42,12.82-.53.49-1.29,1.65-2.19.82-.55-.51,1.41-3.13,1.84-3.8,3.26-5.05,14.66-21.37,18.72-24.48.91-.69,1.38-1.22,2.69-.96Z"/>
  <path d="M409.72,527.23c.59.53-5.87,9.26-6.66,10.28-3.19,4.14-8.78,11.53-12.27,14.98-.71.7-1.15,1.57-2.34,1.31,5.04-7.61,10.58-15.38,16.34-22.53.73-.91,3.64-5.2,4.92-4.04Z"/>
  <path d="M396.44,553.15c1.22-4.84,5.11-10.08,8.09-14.17,1.17-1.6,5.17-7.78,6.86-7.75.37,0,1.41,1.13.36,1.66l-15.31,20.25Z"/>
  <path d="M415.04,535.21c.46.42-2.27,4.17-2.77,4.87-1.92,2.69-5.1,7.01-7.22,9.4-.72.82-1.37,1.89-2.64,1.67-.9-.95,8.47-13.87,9.93-14.99.91-.7,1.38-1.22,2.69-.96Z"/>
  <path d="M416.37,538.53c1.36,1.53-3.32,6.74-4.38,7.91-.67.74-.98,1.67-2.26,1.39-.63-.7,3.59-6.98,4.36-7.93.62-.78,1.09-1.6,2.28-1.37Z"/>
  <circle cx="312.78" cy="582.38" r="2.17"/>
  <path d="M482.18,273.34c12.4-3.31,22.15,7.45,18.09,19.76-2.06,6.25-9.14,10.43-15.62,9.32-12.62-2.15-16.24-15.22-8.45-24.75,1.19-1.45,4.49-3.64,4.91-4.32.16-.26,1.36-5.17,1.43-6-2.16-3.55-17.75,1.5-8.36,5.66-2.39.2-7.52-2.15-9.77-3.52-5.26-3.19-3.73-8.14-2.85-13.43.55-.38,11.39,5.55,11.36-1-.02-4.19-5.11-3.87-8.04-3.66,1.03-2,4.15-1.28,5.86-.86,2.66.65,13.46,7.98,14.4,10.19,2.11,4.97-3.39,12.11-2.97,12.62ZM499.83,287.65c0-7.27-5.89-13.16-13.16-13.16s-13.16,5.89-13.16,13.16,5.89,13.16,13.16,13.16,13.16-5.89,13.16-13.16Z"/>
  <path d="M427.01,264.02c-3.93-1.09-6.88-.71-10.63.66,2.1-3.98,8.46-5.03,10.63-.66Z"/>
  <path d="M442.2,220.74c-4.3,2.59-7.99,6.57-13.2,7.39,2.42-3.18,5.14-1.39,3.67-6.66-1.94-6.95-11.46-7.44-17.26-9.94l-.92,1.5c1.23,3.76,2.13,8.05,5.2,10.79-.98,1.1-2.56-1.19-3.21-2.11-2.17-3.1-3.99-7.71-3.44-11.52,1.62-1.61,15.54,4.41,18.26,5.34s7.78,1.49,9.86,2.76c1.08.66,1.46.99,1.03,2.44Z"/>
  <path d="M419.7,172.98c4.81-.18,11.53-.46,10.64,5.98-8.09.91-15.36-1.8-21.89-6.36-.89-.62-8.39-6.65-7.35-7.59,3.54.05,6.22,3.07,9.16,4.46,3.07,1.45,6.69,2.19,9.45,3.51-9.49.35-1.73,4.58,1.34,3.72.72-.2,2.2-1.06,1.98-2.05-.31-1.36-3.07-.4-3.32-1.67Z"/>
  <path d="M409.04,182.32c.73,2.46-1.66,1.3-1.3,3.28l1.99,1.33c-1.62.18-3.03-.1-3.85-1.65l1.19-2.32c-4.87-1.54-9.95-1.87-14.96-2.66-.99-.16-2.05-.04-2.32-1.33,6.58-.02,13.06,1.28,19.25,3.35Z"/>
  <path d="M376.49,240.78l-.34,1.33c-5.77-1.16-10.81-6.25-12.28-11.97,1.38-.3,1.51.71,2.14,1.51,3.03,3.84,5.47,7.46,10.48,9.13Z"/>
  <path d="M394.44,247.42c.64,2.2-2.88,1.35-4.15,1.15-2.64-.41-6.81-1.59-8.48-3.81,4.24.98,8.08,3.36,12.62,2.66Z"/>
  <path d="M396.43,259.38c-.81,1.08-1.21,0-1.33-.99-.25-1.96-.67-7.21,1.33-8.32v9.3Z"/>
  <path d="M335.95,378.35c.47,2.06-1.49,1.37-2.82,1.15-6.7-1.1-17-4.62-23.45-7.12-5.15-2-11.27-4.68-15.6-7.98,6.92,2.18,13.37,5.64,20.25,7.99,7.02,2.4,14.41,4.22,21.63,5.96Z"/>
  <path d="M313.35,298.6c.37,1.87-.79,1.44-2.17,1.17-4.48-.9-9.29-3.63-13.79-4.83-7.98-2.12-14.6-1.77-21.6,2.98-.94-1.8,4.87-4.12,6.62-4.68,11.24-3.6,20.3,2.79,30.94,5.36Z"/>
  <path d="M325.2,307.38c3.26,5.93,8.91,11.31,10.75,17.8l-12.62-17.62,1.87-.18Z"/>
  <path d="M347.91,370.37c-3.67-.55-9.07-1.46-11.3-4.64,3.72.75,8.39,2.24,11.3,4.64Z"/>
  <path d="M344.59,382.34l7.96,1.65c-.03,2.07-7.44.05-7.96-1.65Z"/>
  <path d="M385.8,315.88c.85.99-.06,1.22-1,1.34-1.82.22-12.81-1.51-12.29-3.66,5.55-4.65,8.21,1.34,13.29,2.33Z"/>
</svg>