<?xml version="1.0" encoding="UTF-8"?>
<svg id="katman_1" data-name="katman 1" xmlns="http://www.w3.org/2000/svg" viewBox="0 0 841.89 595.28">
  <path d="M435.28,33.78c3.12.6,6.1-.59,9.19-.59,57.65-.01,116.6,29.17,138.8,84.48,10.45,26.03,10.75,54.16,9.27,81.52-.13,2.47-3.57,4.25-3.64,5.14-.05.59,4.37,9.12,5.05,10.77,6.46,15.69,12.36,32.32,17.33,48.56,3.73,12.17,7.98,24.78,8.85,37.53,30.25,11.58,61.47,20.87,91.57,32.84,5.42,2.16,19.28,7.01,23.32,9.94,1.63,1.18,2.31,2.13,2.09,4.23-14.73,26.88-30.66,53.19-46.78,79.29-5.64,5.04-7.02-1.35-9.82-4.07-3.6-3.49-13.6-9.41-18.29-12.42-20.78-13.3-43.01-24.18-65.19-34.91l10.81,66.92c-.31,3.45-1.5,6-5.37,6l-25.91-5.12c3.5,29.98-4.64,63.26-30.06,81.56,9.24,5.46,17.51,14.3,23.56,23.13,17.17,25.09-11.23,27.65-29.29,21.61-19.95-6.67-33.39-23.5-49.62-35.46-8.02-5.91-19.2-8.21-29.07-9.95-10.42-1.84-21.05-2.91-31.6-1.5-3.4.45-27.36,5.7-29.17,6.65-.57.3-6.17,6.94-7.68,8.31-17.03,15.42-46.04,28.81-68.86,31.56-13.42,1.62-28.18,1.24-19.33-16.77,6.91-14.06,20.6-25.32,34.44-32.07-7.48-6.12-13.45-14.29-16.93-23.36-11.66-30.34,4.3-74.51,10.98-105.41,2.76-12.75,5.5-25.57,7.24-38.5-23.37.29-46.88-2.07-69.61-7.47-35.23-8.37-77-28.25-53.32-71.63,14.15-25.91,37.88-48.43,60.8-66.53l-2.47-22.28c-.11-28.69,2.3-58.48,17.64-83.41,20.61-33.51,59.3-52.08,96.22-61.78,1.68-5.43,3.2-11.6,8.81-14.22,4.72-2.21,21.56-3.86,26.53-2.57,4.56,1.18,8.55,5.32,9.52,9.99ZM424.96,33.25c-1.86-.54-2.64-1.69-4.78-1.95-3.31-.4-11.25.17-14.69.7-2.78.43-6.46,3.44-6.75,6.35l25.9-3.83.32-1.27ZM526.66,154.13c-.59-15.02-1.08-29.35-4.15-44.14-5.3-25.53-22.09-57.19-48.49-66.01-12.39-4.14-43.69-2.76-56.97-.41-1.08.19-4.12.52-4.62,1.16.32,13.28-1.26,26.65-.93,40.03.2,8.11.68,16.77,1.31,24.91.85,11.01,2.8,21.97,3.83,32.95,36.98-5.78,75.32-2.71,110.02,11.51ZM408.96,144.53c-1.18-19.51-2.36-38.96-1.94-58.55.04-1.82.65-3.37.7-5.06.33-12.07-.07-24.27,1.89-36.17-22.27,6-49.67,10.14-66.21,27.5-19.95,20.94-24.45,47.75-25.29,75.78l1.64,31.7c27.7-15.99,57.58-29.35,89.22-35.19ZM582.95,151.57c-3.57-51.58-45.95-92.6-94.66-104.26,17.94,12.1,29.65,29.74,36.63,50.03,6.85,19.9,8.74,41.05,10.35,61.93l15.7,7c-.41-1.82-1.72-3.08-2.41-4.94-2.36-6.36-3.41-24.22,6.01-25.09,8.08-.75,22.24,10.33,28.38,15.32ZM338.61,71.62c-.47-.43-5.72,3.34-6.6,3.95-33.55,23.36-45.09,54.81-46.52,94.84-.34,9.58.48,19.27.05,28.84-.12,2.58-.49,10.47-1.17,12.27-2.08,5.51-13.79,14.22-18.39,18.71-14.88,14.54-43.44,41.43-47.49,61.89-.35,1.76.19,3.6-.79,5.28,1.97.33,1-.53,1.28-1.56,5.27-19.25,21.01-35.65,34.52-49.94,23.83-25.21,51.5-47.98,81.25-65.87-.5-.96-1.54.18-2.13.43-3.67,1.55-8.57,4.28-12.11,6.28-6.38,3.61-13.78,7.09-20.5,11.01-4.22,2.46-8.25,5.48-12.4,8.07-.55.34-1.66,1.36-2.12.44l26.12-20.58c-.55-20.65-1.79-41.27,2.32-61.64,3.86-19.1,12.23-37.46,24.65-52.42ZM584.24,177.8v-16.95c-8.49-7.21-18.37-12.4-28.47-16.94-2.07,5.85-2.06,14.26,2.87,18.88l25.6,15.02ZM602.75,265.39c.86-.97-6.47-21.94-7.46-24.76-4.28-12.2-9.16-24.66-14.98-36.2-4.62-9.17-6.07-11.46-14.42-17.56-35.94-26.28-83.88-36.43-127.81-32.1-23.29,2.29-45.72,9.14-67.48,17.27l7.65,1.61c11.7,4.56,15.19,20,7.32,29.67-9.57,11.75-28.92,7.03-33.06-7.12-1.85-6.3-.46-10.67,2.09-16.49l-10.2,5.47-11.54,29.07c21.91-5.07,33.72,23.61,20.45,39.33-4.6,5.44-8.63,5.94-14.54,8.51-.56.24-1.15-.03-.74,1.04.81,2.11,6.86,10.2,8.63,12.49,8.79,11.41,27.22,29.69,40.58,34.9,5.33,2.08,10.97,3.03,16.61,3.54.15,1.11-1.45.6-2.23.63-15.11.62-30.94-4.83-43.18-13.43l-8.32,50.85c6.79,34.78,26.97,63.66,44.75,93.42,3.97,2.55,5.08-8.84,5.72-10.33,1.45-3.35,2.98-.47,3.27,1.96.24,2.03-1.15,8.54-.69,8.96,4.98,4.52,8.94-7.28,9.31-10.55,2.08,3.78,2.37,7.36,1.6,11.52,8.37,1.61,10-11.6,10.8-17.67,4.69-35.73-1.37-63.93-11.83-97.4-.24-.77-.56-1.88.7-1.34,4.08,1.73,11.85,23.99,13.29,28.93,5.92,20.32,8.29,44.31,6.22,65.41-.89,9.09-3,23.21-12.35,27.31-5.8,2.54-7.4-.87-10.25-.62-1.18.1-3.39,1.93-5.51,2.13-2.41.24-5.65-1.63-6.02-1.57-1.47.24-1.8,4-6.64,2-2.6-1.07-2.94-3.98-4.36-5.87-18.83-25.18-31.47-49.47-40.57-79.69-.28-.91.4-1.13-1.29-.94-3.51,25.28-12.04,49.87-17.07,74.72-9.83,48.53,4.99,84.05,59.6,80.71,8.38-.51,16.68-3.19,24.96-3.82,9.66-.74,23.69-1.23,33.28-.68,33.59,1.94,76.63,19.74,103.26-10.54,33.04-37.57,8.58-92.84.86-135.15-6.48-35.53-11.88-74.42-5.01-110.15,1.34-7,3.98-13.72,4.79-20.72-10.62-24.05-23.08-47.89-28.12-73.93.97-1.12,4.4,5.65,4.81,6.38,9.84,17.54,16.68,37.59,26.2,55.68,5.93,11.28,13.78,28.59,25.48,34,7.65,3.54,15.49,4.16,23.42,1.12ZM357.98,177.98c-5.2,4.46.94,14.41,7.48,9.71,6.03-4.32-1.15-15.14-7.48-9.71ZM333.49,191.87c-.61-.57-8.13,4.36-9.29,5.1-2.11,1.34-6,3.58-7.66,5.13-6.9,6.47-11.49,33.62-11.83,43.18-.45,12.43,12.18,23.14,20.79,30.37l3.46-11.22c-13.66-22.91-7.95-50.56,4.53-72.56ZM379.53,204.11c0-1.41-1.14-2.54-2.54-2.54s-2.54,1.14-2.54,2.54,1.14,2.54,2.54,2.54,2.54-1.14,2.54-2.54ZM297.66,243.04l7.68-33.26c-8.68,5.25-8.84,18.68-8.94,27.82l1.26,5.44ZM334.6,217.6c-.69.14-2.55,1-3,1.47-2.32,2.42-2.26,17.31-1.96,21.11.21,2.64,3.17,14.18,4.81,15.65,3.09,2.78,12.56-3.43,15.02-6.1,11.44-12.45,2.04-35.56-14.87-32.14ZM343.08,344.1l6.96-40.57-.54-.68c-8.83-2.04-16.65-7.17-22.72-13.74-3.38,6.18-5.86,12.82-9.03,19.1-1.99,3.94-6.76,14.19-9.19,17.04-3.53,4.14-7.65,2.7-9.46-2.07-2.6-6.86-3.8-23.51-4.01-31.17-.29-10.89,2.69-26.76,1.34-36.52-.26-1.87-1.7-3.33-2.27-5.4-1.94-7.04-2.83-14.08-2.22-21.42.27-3.28,1.74-6.67,1.59-9.92-17.08,14.58-34.77,30.05-49.91,46.68-10.16,11.17-22.38,25.77-20.77,41.9,1.4,14.06,21.8,21.19,33.41,24.8,28,8.71,57.48,12.48,86.84,11.98ZM555.44,250.08l-1.27.32-.63,22.71c.4.55,9.61-7.94,9.6-9.27l-7.7-13.76ZM578.47,285.25l-10.55-14.06c-.4,0-3.67,4.68-4.39,5.52-.8.94-3.17,1.07-.59,2.65,3.87,2.36,11.23,3.64,15.53,5.89ZM334.12,271.83l-1.31.37c-.29,2.72-4.8,10.31-3.49,12.41,1.13,1.82,20.79,12.04,22.08,10.88l-17.28-23.66ZM598.94,438.77l-9.64-64.28c.84-3.2-.38-7.35,4.13-7.31,6.58.07,23.71,8.72,30.26,11.99,21.59,10.77,41.98,23.95,62.58,36.41l40.59-65.41-105.86-39.92c-1.91.16-.04,10.98-7.37,8.63-1.62-.52-10.74-8.51-12.77-10.27-3.04-2.63-5.54-6.04-8.72-8.55l-39.24-14.16c.53,3.36-.53,6.72-.67,9.89-.39,8.64-1.14,26.59.07,34.53.59,3.93,4.66,12.31,6.04,16.99,3.66,12.44,7.61,26.37,10.24,39.01,1.83,8.78,4.35,19.11,2.26,27.74l4.87,20.91,23.24,3.81ZM560.56,376.09l-2.23-13.44-2.88-9.58.94,6.4,4.16,16.62ZM387.22,531.53c-13.57,1.9-27.86-.48-40.35-6.1-11.6,5.07-22.96,11.97-30.01,22.72l12.48-5.1.31,1.26c-7.62,3.7-12.66,10.59-19.23,15.64-2.38,3.09,2.23,4.81,4.7,4.1,1.13-.33,3.38-3.36,4.64-4.35,4.83-3.82,14.64-9.21,20.52-10.83,1.2-.33.93.29.88,1.2l-6.6,3.33-10.67,9.47c23.57-2.77,47.2-13.85,63.32-31.33ZM559.92,547.52c.45-.45-2.97-4.52-3.5-5.13-3.43-3.87-12.37-11.31-17.45-12.02-2.76-.38-8.83,2.23-12.17,2.89-8.59,1.69-17.03,1.72-25.72.83,16.97,13.28,33.24,34.18,56.92,32.94-4.32-6.99-11.27-11.53-16.63-17.59,5.78,1.37,11.92,4.97,16.33,8.93,2.75,2.48,6.59,10.05,9.84,5.35,1.25-1.81-2.78-6.36-4.1-7.9-3.19-3.74-7.33-6.91-11.2-9.91-.21-1.72.64-.52,1.57-.29,2.06.53,4.17.98,6.1,1.89Z"/>
  <path d="M461.42,442.61c.26-.27-.29-6.55,1.91-7.04,1.14,4.66,3.47,12.04,9.65,10.6l2.19-6.76c7.52,16.25,10.65,5.14,17.26-2.57,7.45-8.69,15.93-16.55,23.34-25.27,13.12-15.46,24-32.91,30.73-52.11,1.21-.06,1.31-.3,1.29.97-.07,7.14-2.65,16.74-5.47,23.33-9.91,23.15-29.66,37.66-45.07,56-5.87,6.99-10.03,21.62-21.45,11.84-5.06,6.06-9.54-.78-12.93-1.8-2.85-.85-4.81-.08-8.07-2.16-9.41-6.01-7.72-26.32-6.82-36.03,2.2-23.54,9.7-47.17,19.92-68.36,3.25-6.74,7.19-14.65,12.06-20.24-8.25,27.85-20.34,54.45-24.19,83.58-.94,7.12-4.1,32.01,3.26,35.55.79.38,1.51.61,2.39.49Z"/>
  <path d="M511.51,198.73c0,10.57-8.56,19.13-19.13,19.13s-19.13-8.56-19.13-19.13,8.56-19.13,19.13-19.13,19.13,8.56,19.13,19.13ZM492.8,188.9c0-3.43-2.78-6.2-6.2-6.2s-6.2,2.78-6.2,6.2,2.78,6.2,6.2,6.2,6.2-2.78,6.2-6.2ZM500.99,212.88c2.48-3.9-4.31-6.75-4.86-2.03-.35,2.98,4.12,3.2,4.86,2.03Z"/>
  <path d="M524.94,255.94c0,12.93-10.48,23.4-23.4,23.4s-23.4-10.48-23.4-23.4,10.48-23.4,23.4-23.4,23.4,10.48,23.4,23.4ZM520.37,255.83c0-10.31-8.36-18.67-18.67-18.67s-18.67,8.36-18.67,18.67,8.36,18.67,18.67,18.67,18.67-8.36,18.67-18.67Z"/>
  <path d="M443.7,238.12c3.12-2.62,8.89,2.21,2.19,6.33-10.43,6.41-18.02-3.18-25.83-7.69-13.16-7.6-14.44,4.51-26.13,3.1-3.8-.46-5.53-3.31-5.42-7.05,2.38.48,4.03,2,6.68,1.94,6.09-.13,10.3-4.65,18.57-3.85,9.08.87,16.86,11.7,24.88,10.82,3.8-.41,3.31-2.13,5.05-3.6Z"/>
  <path d="M413.28,212.47c4.05-.38,7.57,2.83,4.94,6.88-4.9,7.54-13.38-6.08-4.94-6.88Z"/>
</svg>