<?xml version="1.0" encoding="UTF-8"?>
<svg id="katman_1" data-name="katman 1" xmlns="http://www.w3.org/2000/svg" viewBox="0 0 841.89 595.28">
  <g>
    <path d="M216.55,487.77l16.01-35.73,6.76-25.24c.07-1.25-5.87-4.79-7.29-6.27-2.71-2.82-3.73-4.47-3.42-8.45.53-6.81,5.29-21.46,7.7-28.29,2.81-7.95,9.01-17.29,10.23-25.27.79-5.17-.17-13.5,1.42-18.06.58-1.66,6.52-7.11,8.62-7.52,2.01-6.08,3.12-13.19,5.21-19.17,4.76-13.59,21.51-24.26,34.09-29.91,7.28-5.31,16-8.18,23.71-12.83l.34-.91c-.82-4.65-4.68-16.13-3.01-20.23.9-2.21,9.06-7.36,11.38-7.41,2.7-.06,1.63,9.06,3.56,9.71,2.11.72,6.19-.42,8.4-.97,6.19-1.55,7.08-1.83,4.78-8.71-11.23-5.84-24.07-11.36-33.5-20-4.9-4.48-7.05-8.93-9.52-14.98l-24.63-8.74-.39-2.19,3.05-1.35c.2-.26-.88-1.21-1.37-1.38-4.14-1.37-11.44-2.3-15.97-3.03-3.34-.54-6.48.99-5.16-4.09l.99.51c2.1-6.25,5.2-12.11,8.42-17.84,2-3.55,4.68-6.87,6.6-10.4.33-.6.68-.96.49-1.76-1.57,1.12-3.47,1.59-5.13,2.52-.33.18-.33.94-.7,1-2.51.41-3.38-1.18-2.3-3.41.42-.87,1.39-1.04,1.83-1.67,1.5-2.18,4.13-5.33,5.24-7.26.38-.66.73-1.36.53-2.14-4.86-2.55-10.46-6.04-14.47-9.78-4.46-4.17-4.83-6.16-1.6-11.63,1.14-1.93,3.9-5.65,5.4-7.58,3.79-4.89,8.31-9,12.61-13.4.83-7.16-2.7-18.7.13-25.26,3.93-9.1,18.92-20.8,26.93-26.17,37.11-24.88,95.93-19.07,131.4,6.68,8.02,5.82,8.56,6.8,11.39,16.11.14.48.09,1.14.74.99,1.17-3.86,2.83-8.05,4.58-11.68,2.02-4.2,4.99-9.59,7.52-13.48,2.71-4.15,6.1-8.71,10.89-10.34.1,1,.84,1.78.98,2.78,2.37,16.87-.71,36.79.55,53.99l-1.52,18.23c21.37-2.76,44.61-.71,62.33,12.41.88.07,8.46-6.67,10.01-7.82,19.34-14.43,45.62-28.01,69.46-32.54,2.04-.39,10.16-2.34,10.69.31.22.92,0,1.62-.46,2.42-1.17,1.97-6.12,6.95-8.01,8.98-14.61,15.73-33.57,31.88-50.86,44.64-2.11,1.56-11.33,7.12-12.19,8.31-1.15,1.59.02,4.08.06,6.01.07,3.34.2,6.78-.54,10.03l1.27,1.24c27.68,1.6,55.3,6.88,81.25,16.5v2.5c-13.92-5.58-28.62-9.55-43.38-12.37-12.72-2.43-26.1-4.28-39.04-4.57-.94,5.14-1.39,10.38-2.22,15.53-1.04,6.44-2.61,10.2-2.35,17.14.34,8.97,1.93,18.05,2.49,27.01.22,3.47.73,8.07-.27,11.22-2.09,2.78-11.42-.89-14.49,1.01-.16,3.46-3.24,7.25-3.71,10.29-.59,3.91.7,8.53-.54,12.46.45.79.84.1,1.22-.28,1.92-1.9,5.49-8.01,8.06-8.43,8.24-1.36,19.14,1.85,27.64.89l9.56-26.69,1.85-2.14,55.18,25.42v2l-54.68-24.46-10.46,27.32c-.75.62-1.68.59-2.59.67-7.75.66-17.41-1.92-25.03-1.03-3.87.45-8.23,9.05-11.36,11.64-3.41,9.28-7.92,17.58-14.8,24.73-.23.59-.04,1.16.03,1.75.25,2.16,3.49,15.6,4.28,17.25,1.69,3.52,7.65,5.55,9.08,9.92,1.61,4.94-2.54,11.62-1.35,16.85,7.11,19.67,13.68,39.53,19.36,59.67.09.58-.14,1.06-.36,1.57-1.17,2.71-10.94,6.44-11.09,8.85.88,4.51,1.75,9.06,2.39,13.61,2.95,21.06,7.08,41.52,10.56,62.43,1.48,23.6-.59,47.25-2.5,70.75h-1.99c.33-6.41.58-12.84,1-19.25,1.48-22.35,3.03-43.01-.65-65.36-1.27-7.72-3.8-15.22-5.21-22.79-1.94-10.44-2.58-21.6-4.29-32.21-1.02-6.32-2.09-12.68-3.6-18.9-10.65-2.52-23.14-1.75-33.85.66-3.07.69-13.84,3.86-15.9,5.6-.34.28-.55.53-.54,1,3.03,12.53,7.38,24.8,10.78,37.25,1.53,5.59,3.5,10.86,3.25,16.74-.34,7.72-2.21,16.01-2.49,24.01-.9,25.42,7.24,49.54,8.99,74.74h-2c-1.29-6.65-1.57-13.48-2.57-20.18-1.28-8.61-3.5-17.12-4.79-25.71-2.91-19.25-1.5-37.65.81-56.81l-10.75-37.33-2.7.03c-.71,8.26-.84,16.49-.98,24.77-.06,3.91-1,5.97.13,10.33.52,2.02,2.18,4.22,2.62,5.88,1.34,5.13-3.91,15.01-5.13,20.4-1.6,7.07,1.3,23.45,2.43,31.29,1.4,9.62,4.65,20.83,5.42,30.08.48,5.76-.7,11.5-.49,17.24h-2c-.6-5.35.9-11,.49-16.24-.41-5.21-2.48-11.36-3.36-16.64-2.01-12.08-4.92-27.27-5.15-39.34-.17-8.96,4.73-16.37,6.06-25.03l-7.79-14.25c-1.08,2.86-.97,6.1-2.01,8.99-1.14,3.17-3.92,4.97-4.71,8.29-1.03,12.19-2.68,24.32-4.03,36.47-.4,3.62,1.39,8.06-3.68,7.71-5.04-.35-12.8-3.3-18.2-4.34-24.01-4.63-49.48-6.18-73.9-6.14l-16.23,1.52c-.15.88.12,1.56.39,2.36,2.26,6.75,9.05,18.53,12.54,25.46,5.29,10.51,10.85,20.9,16.57,31.18h-1c-12.75-21.59-22.8-44.65-34.35-66.9-3.37-8.87-.19-31.03.86-41.35,2.9-28.61,7.63-57.06,11.46-85.54.96-2.5,12.67-9.16,15.7-11.3,16.02-11.35,41.99-33.1,35.08-55.4-2.48-8.01-9.96-15.21-17.98-17.54-.46-.03-.69.27-1,.54-.88.75-4.91,7.86-5.96,9.54-7.16,11.41-14.41,23.8-20.88,35.62-5.32,9.71-13.16,22.68-14.41,33.59-1.5,13.14-1.61,27.13-3.01,40.49-2.53,24.24-8.21,50.01-9.49,74.01-.48,8.93-.27,16.3,2.76,24.73,4.86,13.54,12.8,29.27,18.89,42.61,2.61,5.71,5.21,11.47,8.34,16.91h-2.5c-9.54-17.67-16.38-36.66-24.96-54.78-.35-.75.18-.93-1.29-.73-7.81,18.2-15.65,36.46-21.25,55.5h-2c5.34-20.35,14.41-39.44,22.49-58.78-5.1-14.54-2.24-30.86-.42-45.9,2.86-23.72,6.76-47.23,8.93-71.07.76-8.32.57-17.24,1.51-25.49.26-2.25,1.55-5.09,1.54-7.01-.01-2.06-1.95-7.05-2.41-9.63-1.87-10.43-2.61-23.65-3.16-34.34-.17-3.4.5-7.86.02-11.04-.11-.74.3-.8-.76-.75-2.76.12-9.32,6.63-11.22,8.91-12.67,15.2-19.39,41.63.02,54.31,5.23,3.42,9.41,2.53,8.95,10.04-.68,10.96-3.54,23.47-4.93,34.57-2.71,21.73-5.81,44.66-7.06,66.44-.45,7.84.05,16.31-.48,24.02-.67,9.66-7.59,21.11-11.26,30.24-4.65,11.56-8.58,23.44-11.76,35.49h-1c2.98-11.86,6.9-23.49,11.41-34.84,2.61-6.56,6.13-12.93,8.09-19.66-21.91,2.17-43.43,9.5-61.98,21.26-3,10.85-4.64,22.07-6.01,33.24h-2.5c1.69-10.73,3.37-21.47,5.65-32.1,2.12-9.86,6.51-21.75,7.78-31.22.77-5.68.43-12.1,1.07-17.93,1.62-14.77,5.87-29.13,6.99-44.01.21-2.77.71-8.51.54-11.02-.06-.96.06-1.53-.76-2.25-3.5-3.11-19.34-6.05-24.04-5.51l-.66.1c-2.75,11.97-5.01,24.57-9.06,36.19-5.03,14.42-14.04,27.64-17.88,42.62l-.63,65.12.51-72.5ZM437.55,93.27c-1.25-10.17-1.89-20.51-4.26-30.49-.48-1.26-1-2.09-1.99-3.01-2.74-2.53-11.88-7.18-15.57-8.93-37.52-17.82-87.08-17.95-120.42,8.94-4.82,3.89-15.19,13.6-17.35,19.15-1.47,3.77-1.01,5.48-.92,9.09.11,4.19.49,8.31.51,12.49l1.24,1.25c5.69-5.29,13-8.36,19.51-12.5.6-12.85,2.82-25.77,12.74-34.76,20.38-18.48,71.78-17.44,76.38,15.63.21,1.54-.24,6.34.59,6.91,13.02,2.16,25.76,5.95,37.87,11.13,1.58.68,11.04,5.71,11.66,5.08ZM326.72,63.95c6.59-6.18,17.68-7.17,24.83-1.43,4.23,3.39,5.84,7.59,8.31,12.19,6.97.03,13.95.37,20.88,1.13,5.34.58,6.41,3.04,5.74-4.74-2.92-34.12-59.05-34.64-77.69-12.82-7.14,8.35-9.07,19.84-9.24,30.5l20.27-8.47c.53-5.91,2.46-12.18,6.9-16.35ZM467.54,43.78c-.74-.53-3.89,3.51-4.48,4.26-5.36,6.85-9.45,15.32-13.01,23.23.94.22,1.19-.53,1.75-1,5.08-4.21,9.48-10.34,16.17-12.57l-.43-13.93ZM468.05,58.78c-.72-.83-10.2,6.59-11.23,7.51-7.3,6.48-9.47,10.68-11.91,20.09-3.62,14.01-4.84,29.27-1.35,43.39,1.11.91,3.01-2.4,3.71-3.03.46-.4,5.33-4.28,4.77-1.73-3.34,3.51-6.97,6.74-9.69,10.81-8.22,12.29-7.5,26.41-11.3,40.2l3.5,1.25c-4.17-.87-4.18,1.48-4.85,4.9-1.78,9.11-.67,16.09,5.34,23.39l2.01-.78-.99,1.74c4.29,4.86,9.54,8.64,15.16,11.84,1.94,1.1,14.66,6.85,14.83,7.67.2.93-.77,1.27-1.63,1.15-1.48-.21-7.69-4.04-8.36-3.41,5.02,10.96,6.25,23.1,7.25,35l11.49-14.01,13.25-12.75-4.5-.99c-.67-.48-.71-1.07,0-1.52,1.08-.7,10.96-.07,13.29-.21,39.95-2.54,50.07-28.88,51.25-64.75.15-4.49-.65-8.86-.27-13.27,6.02-3.94,11.96-7.95,17.7-12.3s19.41-14.43,22.63-20.37c3.81-7.01,5.85-15.88,7.9-23.56l-1.13-.69c-23.2,7.94-44.55,20.57-63.22,36.35-1.21.17-3.65-2.51-4.98-3.34-19.14-11.99-46.79-13.62-67.86-6.11-1.29-.85-.86-1.47.25-2.2s7.29-2.08,7.48-2.62c2.25-19.06,2.54-38.5,1.48-57.66ZM358.05,74.77c-5.53-23.24-36.81-18.11-37,5,12.09-3.11,24.44-5.37,37-5ZM441.05,95.28c2.61-11.69,5.95-25.73-6.49-33l4,32.12,2.49.88ZM311.05,85.27c32.87-7.55,70.28.14,99.51,16.24,4.26,2.35,8.4,5.69,12.65,7.85,4.88,2.48,10.38,3.82,15.3,6.22.42.35.86-.27.96-.63.61-2.13-.07-7.71.08-10.42.11-2.07,1.73-6.51.49-8-.73-.87-5.97-3.37-7.4-4.1-31.03-15.76-74.39-21.79-108.1-12.41l-13.49,5.25ZM258.05,132.77c.89.19.99-.26,1.42-.82,2.75-3.65,4.45-7.82,7.82-11.68,30.74-35.29,70.7-30.78,111.36-17.35,7.14,2.36,14.03,5.66,21.29,7.71,6.49,1.83,14.57,4.04,20.6-.11-21.2-14.82-47.34-23.79-73.24-25.75-33.5-2.53-67.62,9.68-86.26,38.73-1.72,2.69-4.4,6.09-2.98,9.26ZM618.55,89.28c-1.4-1.21-18.54,3.34-21.25,4.5l-7.75,25c8.97-8.18,18.58-16.53,26.48-25.76.37-.44,2.88-3.42,2.51-3.73ZM359.04,98.28c-18.66-4.45-38.38-6.76-56.98-.74-10.86,3.51-22.35,11.35-30.34,19.41-2.47,2.49-12.64,14.35-11.62,17.49.29.91,13.91,10.49,15.13,10.26,20.88-20.38,47.17-36.95,75.3-45.19l8.51-1.23ZM370.05,102.78c-5.28-1.57-11.7-2-17.19-1.45-3.06.31-15.37,3.86-16.99,6.07-2,2.73-4.94,11.47-5.96,14.99-.78,2.68-3.23,11.89-2.89,14.13.09.6.31.9.77,1.25,1.65-.36,7.13-8.27,8.25-7.49.68,4.68.75,9.44,1.65,14.1.42,2.16,1.06,8.59,3.7,7.53,2.19-.89,8.73-11.11,10.36-13.67,7.14-11.21,13.07-23.25,18.29-35.45ZM389.96,109.39c-.48-.56-12.13-4.47-13.81-4.97-1.25-.37-4.16-1.51-5.11-.92-5.77,12.42-11.64,24.9-19.1,36.42-1.72,2.66-8.2,12.56-10.76,13.28-.76.21-1.31.12-1.93-.38-2.45-1.97-3.56-16.93-3.71-20.54-.87-.23-1,.36-1.5.74-1.98,1.52-4.6,5.34-6.5,6.41-.76.43-1.11.46-1.99.34l1.5-.5c-1.81-10.86,3.42-21.68,7.49-31.49-12.72,4.69-24.13,12.28-35.48,19.56l.48,1.44c-2.9-.38-4.92,2.16-6.97,3.75l.97,1.25-2.18-.47c-2.04,4.15-2.13,10.46-1.17,15.08,2.15,10.34,6.69,21.63,9.21,32.29,3.76,15.91,2.54,31.12,15.91,42.09,7.97,6.54,35.72,22.26,45.48,22.05,4.31-.09,29.42-11.51,30.99-14.55.76-1.46.36-4.87,1.97-6.03s5.1.19,7.44-.96c1.61-.79,8.85-9.31,10.34-11.26,5.15-6.77,8.44-13.59,10.74-21.79,1.72-1.62,2.9,4.04,4.77,3.55-1.37-8.68,2.12-17.47,3.77-25.98,1.43-7.34,2.15-14.82,4.23-22.02-4.04,5.35-6.55,12.09-8.56,18.43l-1.92.07c-1.15-16.55-.46-35.02-10.84-48.92-2.45-.03-4.88-.25-7.28-.72-1.89-.37-5.02-1.74-6.7-1.86-.8-.06-2.6.6-2.69.49-.13-.15.33-1.17-.32-1.52-.29-.16-4.57-1.42-4.98-1.46-.65-.06-1.66.57-1.7.49-.11-.27.19-1.05-.09-1.39ZM439.47,117.85l-15.76-5.95-7.17,3.14c7.69,12.52,9.42,27.28,9.51,41.74,1.17.26.8-.16,1.12-.64,2.31-3.54,3.37-8.4,6.26-12.22,1.44-1.9,3.23-2.76,4.35-4.15,1.55-1.92,2.59-5.49,4.69-7.34l-3-14.57ZM280.55,197.77l20.48,7.29,1.01-.55c-2.33-12.5-4.98-24.95-8.24-37.24-2.71-10.21-7.96-20.18-5.76-30.99-7.73,5.4-13.59,13.04-18.99,20.75l8.84-3.68,1.16.68c.25,1.03-3.65,5.64-4.51,6.98-5.52,8.55-10.14,17.59-14.96,26.55l24.17,5.77c2.73,1.9-1.28,2.61-2.56,3.34-.43.25-1.38.34-.64,1.1ZM417.05,225.28c.33-9.88,4.56-19.41,10.94-26.84l-.17-1.18-4.03-2.98c-.98-.18-.61.16-.85.63-.72,1.41-.99,3.35-1.65,4.86-4.04,9.2-10.52,16.46-17.23,23.76.48.73.96.69,1.72.77,3.74.4,7.54.53,11.28.98ZM429.54,200.78c-1.18-.9-4.77,5.58-5.25,6.49-7.46,13.93-7.03,28.44.18,42.35,3.34,6.44,8.08,12.08,11.57,18.43.85.5,2.17.06,3.16.34,1.13.32,1.77,2.32,3.13,2.43,1.77.15,3.5-3.02,5.52.95,1.74-1.55,3.75-.3,4.86-.55.93-.21,1.65-2.02,2.7-2.32,1.23-.35,3.57.24,4.53-.72,1.7-1.71.86-14.63.56-17.57-.61-5.95-1.97-13.52-3.79-19.21-.53-1.67-3.11-8.54-3.92-9.58s-7.74-4.62-9.58-5.92c-5.51-3.88-10.97-8.77-13.65-15.11ZM543.04,204.78c-1.3-.28-.77.28-1.04.72-.81,1.35-1.37,2.92-2.24,4.24-.95,1.45-4.37,5.38-4.6,6.39-.52,2.27.57,8.28.41,11.42-.1,1.97-2.12,13.14-1.52,13.73,2.24.03,4.5-.05,6.75,0,1.8.04,4.06,1.61,5.17-.86l-2.92-35.64ZM533.05,218.28l-7.66,5.08c-5.81,2.74-12.4,5.51-18.71,6.79-4.28.86-11.22.57-14.73,1.77-4.02,1.36-18.46,17.33-21.6,21.4-1.95,2.53-6.91,9.08-7.68,11.82s.27,4.92-3.65,5.92l.11,1.64,2.34,1.4.31,3.7c.42.73,1.97-.42,3.27.21,1.12.54,1.24,2.64,1.83,2.78,2.75.67,4.51-1.57,5.99,2.52,1.25-.02,2.17-1.11,3.44-1.09s1.99,1.29,3.41,1.06c.2-.03,1.7-2.04,3.05-2.56,6.68-2.59,14.39-3.2,21.62-6.38,22.81-10.02,30.44-32.46,28.66-56.08ZM395.36,225.84l-7.07,52.42c13.64-5.13,25.97-13.57,36.68-23.31-5.07-8.54-7.98-17.24-8.64-27.21-.51-.72-11.8-1.92-13.51-1.99-1.48-.06-6.44-.26-7.46.09ZM391.55,233.78c-10.14,4.23-22.2,14.18-33.68,12.93-3.6-.39-6.76-2.38-10.31-2.93.93,7.6,4,15.56.99,23l-1-.74,1-3.76c-5.55,3.75-9.98,9.31-11.98,15.79l3.13,17.57c7.66,5.71,17.88,2.43,26.11-.35,2.74-.93,8.05-2.73,10.36-4.14,2.12-1.29,7.95-10.74,9.15-13.35,3.08-6.69,4.4-21.97,5.23-29.77.5-4.73.95-9.51,1-14.24ZM328.05,245.27c-2.71,0-9.05,3.69-9.47,6.28-.48,2.99,2.25,13.76,3.21,17.22,2.17,7.77,5.71,14.2,13.75,16.99l-7.5-40.5ZM347.05,251.77c-5.03.44-9.78,3.13-15,2.5l3,19.01c1.96.48,1.81-1.58,2.79-2.96s2.11-3.02,3.22-4.28,5.96-5.15,6.23-5.77c1.06-2.53-.6-5.83-.24-8.49ZM454.41,273.12c-1.54,1.26-2.72.25-4.11.25-.95,0-1.86.6-2.98.42s-1.44-1.27-2.12-1.44c-.96-.25-2.6.85-4.3.33-1.02-.32-3.5-2.86-5.81-2.69l-9.32-13.71c-12.18,9.27-24.54,18.82-39.27,23.72l.18,1.66c21.27,8.36,23.9,28.76,11.78,46.77-10.77,16-28.35,27.22-44.27,37.48l-3.04,19.76c-.17.52-.11,1.05.37,1.37.83.55,8.53-1.06,10.13-1.42,27.35-6.21,67.18-31.39,85.37-52.76,6.49-7.62,8.21-19.2,11.52-28.86,2.26-6.6,4.96-13.1,7.43-19.62.05-.79-1.54-3.66-1.91-3.88-1.1-.66-3.06.32-4.06-.94l-.51-3.99c-1.88-1.41-3.47-1.29-2.94-4.31-1.36-.32-1.55,1.36-2.14,1.85ZM527.05,258.78c-1.16-.31-.84.27-1.14.63-1.37,1.61-2.41,3.55-3.84,5.13-4.23,4.67-10.11,8.99-15.98,11.28l5.97,17.96c9.21-8.83,15.21-22.1,14.99-35ZM322.02,272.79c-.68-.18-1.23.15-1.83.37-11.84,4.35-37.1,18.69-46.41,27.1-10.17,9.19-11.86,19.65-14.73,32.51,2.02,2.07,3.92-9.37,4.14-10.1,4.48-15.03,13.31-22.06,26.2-29.8,10.69-6.41,22.34-11.35,33.09-17.67l-.46-2.41ZM335.93,287.39c-4.18-1.63-7.99-4.97-10.89-8.36-1.02-1.19-.97-3.35-3.12-2.66-17.95,11.68-47.21,19.75-55.88,41.15-2.05,5.05-2.6,10.34-4.38,15.12-1.2,3.24-1.72,6.36-4.29,8.96-1.29,1.3-4,2.18-4.6,4.15-.76,2.5-.37,7.46-.73,10.27-2.5,19.29-12.65,34.05-15.87,52.63-.19,1.1-.94,4.83-.13,5.4,11.64-1.07,23.4.94,34.01,5.72-.59-13.06-.1-26.18-.48-39.27-.09-3.24-.09-11.91-.71-14.4s-3.82-7.41-5.04-10.35c-1.5-3.61-2.75-7.44-3.77-11.23.45-.6,1.25.84,1.37,1.13,2.3,5.4,3.35,12.12,6.88,17.11,1.27,0,.66-9.19.73-10.76.23-5.3.97-10.65,1.03-15.97l3.5-25.76c1.29-.19,1.05.2,1,1.24-.62,11.84-3.89,24.72-4.49,37.01-.27,5.5-.04,11.23.27,16.72,11.04,12.39,28.98,21.18,45.11,24.89,2.21.51,14.34,2.75,15.05,1.56l2.96-26.08c-.53-1.81-5.35-3.38-7.05-4.45-3.97-2.51-7.12-4.78-9.66-8.84-11.69-18.68,2.37-47.99,20.26-57.9l-1.06-7.05ZM504,277.31c-.41-.3-5.53,1.48-6.32,1.85-.46.22-.88-.12-.55.76,3.26,7.56,6.13,15.28,8.27,23.25.61,2.28.78,6.39,1.75,8.25s6.5,4.05,8.39,5.35c-3.1-13.36-6.34-26.75-11.55-39.46ZM505.55,310.77c.87-.97-2.52-12.6-3.14-14.6-.73-2.36-5.33-15.46-6.83-16.14-3.38,1.17-9.11,1.49-12.15,2.88-1.98.9-2.16,3.39-5.09,2.86-.88-.16-1.42-1.07-2.49-1.01-1.13.06-1.93,1.35-3.43.94-1.38-.38-1.58-2.64-3.12-2.82-.59.22-.85.74-1.13,1.26-2.38,4.45-5.05,13.08-6.84,18.16-3.94,11.18-13.22,38.62-11.05,49.51.77,3.85,4.28,7.43,5.16,11.84,2.08,10.43,2.44,22.9,4.2,33.8.3,1.89,2.51,16.82,3.67,16.82,18.84-15.96,44.79-20.29,68.75-15.99-2.54-10.99-5.78-21.9-9.03-32.72-3.13-10.44-8.22-22.74-10.42-33.08-.26-1.24-.65-2.62-.53-3.88.25-2.76,2.9-5.48,2.28-8.82-.88-4.74-11.28-8.7-15.3-10.99-.04-.71-.24-1.21.7-.95s5.41,3.39,5.8,2.95ZM375.55,292.78c-10.68,3.2-24.03,10.87-34.77,4.51-.45-.26-.32-.87-.99-.02-.89,3.06.15,6.32.28,9.24.36,8.49.54,17.05,1.48,25.52.18,1.65,2.11,16.27,3.25,16.24l30.75-55.49ZM541.55,399.77c-4.63-20.24-12.69-39.58-18.9-59.39-.31-3.96,2.73-11.85,1.68-15.13-.61-1.9-8.42-7.83-9.27-6.97,1.44,3.74-1.42,6.64-1.89,9.87-.61,4.28,6.81,24.06,8.52,29.74,3.94,13.11,7.71,26.28,11.6,39.41l.88,1.14,7.38,1.33ZM465.51,418.32c-3.68-.76-4.23-1.66-5.21-5.04-4.3-14.75-4.33-32.48-6.89-47.61-.97-5.71-4.28-8.87-5.23-13.77-1.33-6.87,1.38-13.78,1.87-20.62-6.35,6.57-12.72,13.11-19.76,18.99-3.18,2.65-8.58,5.65-11.23,8.29-.51.5-.35,1.38-.84,1.78-.29.23-1.54.08-2.31.5-12.47,6.75-22.68,14.23-36.27,19.77-8.88,3.61-18.92,7.2-28.56,7.19-2.83,20.02-5.9,40.1-8.02,60.23-1.18,11.17-2.95,24.41-3.03,35.48-.05,6.58,2.26,11.01,5.11,16.68,1.32.83,12.59-1.29,15.15-1.44,24.21-1.38,55.05,1.96,78.89,6.65,2.38.47,17.21,4.54,17.88,3.86,1.88-15.09,2.7-30.41,5.4-45.35,4.07-5.14,7.11-13.68,4.7-19.98s-6.34-11.84-8.08-18.16c1.91,1.54,2.54,4.55,3.6,6.65.34.68.55,1.17,1.16.36l1.7-14.46ZM260.05,334.28c-4.36,1.67-8.42,2.23-10.02,7.22-2.07,6.44-.12,14.06-2.11,20.89-.98,3.35-3.71,7.53-5.09,10.91-4.43,10.87-10.91,27.9-12.16,39.37-.33,3.06,2.28,2.34,3.82.78.99-6.43,2.47-12.87,4.44-19.06,3.56-11.24,9.74-21.6,11.6-33.4.65-4.12.45-8.76,1.1-12.9.97-6.12,2.22-4.02,5.44-7.56.72-.8,3.61-5.6,3-6.24ZM330.05,393.28c-19.2-1.56-39.91-9.07-54.74-21.52-.67-.56-4.69-5.13-5.26-4.48-.46,22.59,2.24,45.16.49,67.74-1.32,17-6.15,33.5-7.52,50.48-.26,3.21.29,6.71-.04,9.96-.43,4.21-7.94,28.65-6.94,29.81,2.83-1.26,5.41-3.17,8.17-4.58,14.11-7.24,32.29-13.54,48.09-15.41,1.7-.2,5.11.58,6.27-.86,3.57-4.44,2.19-18.16,2.45-23.92.85-18.96,3.29-37.76,5.46-56.54l3.56-30.69ZM541.05,401.78l-10-1.5,1.5,8c.7.13,1.24-.14,1.85-.39.85-.35,7.51-5.19,6.64-6.11ZM476.54,408.28c-.82-.6-12.47,7.21-11.49,7.99l13.51,1.78c1.41-.96-2.04-7.97-2.02-9.77ZM240.04,423.28l1.03-6.77-8.53.27c-.98,1.08,6.53,7.33,7.5,6.5ZM470.49,419.33l-3.95-.56-2.03,16.74c1.56,3.85,3.15,7.86,4.95,11.59.79,1.64,1.86,3.84,3.08,5.17-2.36-10.85-2.02-21.89-2.05-32.95ZM474.47,419.84l-2.93-.07c.04,10.02-.38,20.16,1.51,30l.99-5.75c.13-6.71.36-13.3.48-20.01.03-1.45.9-2.74-.05-4.16Z"/>
    <path d="M522.38,166.58c0,5.46-4.43,9.89-9.89,9.89s-9.89-4.43-9.89-9.89,4.43-9.89,9.89-9.89,9.89,4.43,9.89,9.89ZM507.21,166.63c2.53,1.9,7.2-2.63,4.62-5.38-2.99-3.18-7.79,2.99-4.62,5.38Z"/>
    <path d="M450.92,153.4c13.28-2.5,13.32,19.1.38,19.42-11.27.28-10.89-17.44-.38-19.42ZM458.74,161.05c0-1.76-1.43-3.18-3.18-3.18s-3.18,1.43-3.18,3.18,1.43,3.18,3.18,3.18,3.18-1.43,3.18-3.18Z"/>
    <path d="M493.05,201.27l-15.49-14.3c-2.33-.73-5.51,3.9-7.26,5.3-.54-2.19,5.48-6.87,7.37-6.41,2.06.51,10.56,9.07,12.39,11.15,1.01,1.14,2.51,2.82,2.98,4.26Z"/>
    <path d="M535.55,182.77c-3.11-1.48-5.83-2.04-9.22-.97-3.63,1.14-5.69,4.49-8.27,6.97,2.56-6.36,11.94-11.5,17.49-6Z"/>
    <path d="M480.03,170.3l.02,1.46c-2.41.59-4.3.97-5.99-1.24-.03-1.22,5.05-.8,5.97-.22Z"/>
    <path d="M522.84,211.5c.21.11.09.7.93.81,5.75.74,9.61-2.69,13.27-6.53-2.2,4.93-7.85,7.81-13.21,6.97-4-.63-8.46-6.34-8.28-10.46,1.08.44.89,2.33,1.4,3.34,1.44,2.87,3.03,4.45,5.89,5.88Z"/>
    <path d="M404.04,142.77l-3.91-8.83c-2.2-3.52-4.93-7.4-8.74-9.26-.87-.42-5.08-2.25-4.63-.39.27,1.11,1.6,3.08,2.02,4.49,1.97,6.64,4.25,22.14,1.38,28.35-2.22,4.79-5.34-.85-6.35-3.38-3.4-8.55-3.7-19.42-2.77-28.48-.87-.23-1,.36-1.5.74-2.76,2.11-5.15,6.33-5.5,9.76-1.45.41-1.14-1.27-.97-2.22.28-1.57,1.36-3.75,1.97-5.28l-2,.25,13.26-9.25c.68,2.14,1.98,1.16,3.37,1.62,8.93,2.99,14.11,12.83,14.37,21.87ZM383.05,134.28c3.4,1.9,4.78-3,4.38-5.63-.83-5.33-4.83-8.01-5.4-1.14-.16,1.95.67,4.94.54,5.96-.04.34-.92.26-1.01.65-.68,2.67,1.61,14.7,2.63,17.77,3.4,10.18,5.98,5.47,6.38-2.34.19-3.66-.58-12.98-1.63-16.41-.17-.55-.81-1.21-1.39-1.36-.57,6.41,1.94,13.03.49,19.5-1.31,1.25-2.54-2.61-2.77-3.48-1.15-4.32-1.34-9.14-2.22-13.52Z"/>
    <path d="M305.05,163.28c-1.47-.95-1.78-4.14-1.94-5.81-.7-7.42.83-14.69,7.43-18.94-1.52-1.59-4.06-1.34-6.09-1.9-.51-.14-1.52-.12-1.4-.84,7.99,1.87,17.11,3.52,24.71,6.53.52.21,1.21.18,1.28.96h-2c.53,1.08,1.08,2.19,1.41,3.35.22.77,1.05.8-.16,1.64-2.28-2.99-3.75-6.48-7.74-7.49.81,3.07,2.48,5.88,3.26,8.98,1.12,4.45,2.78,17.48-.03,21.01-3.42,4.29-6.84-4.9-7.6-7.39-2.15-7.09-2.48-15.99-.65-23.1-4.06.34-7.43,3.17-8.88,6.86-.26.66-1.61,5.09-1.61,5.39v10.75ZM315.55,150.28c-.47,4.09,1.97,17.83,5.21,20.03,2.45,1.66,3.14-2.43,3.3-4.26.67-7.55-.07-12.83-3.25-19.29-.76-1.55-.24-4.83-2.28-5.74-4.21-1.89-3.96,11.78.17,10.72,1.14-.29.9-1.84,1.83-1.95.31,2.47,2.29,14.76,1,16-1.11.19-1.37-.71-1.75-1.49-1.62-3.37-1.33-8.3-2.36-11.64-.12-.39-1.33-2.17-1.88-2.36Z"/>
    <path d="M382.55,197.28c.84.64-.06.91-.74,1-2.04.28-3.66-.47-5.49-.52-11.85-.35-24,.98-35.27,4.52-.19-1.15.74-1.36,1.58-1.66,3.21-1.14,9.71-2.29,13.21-2.79,8.89-1.27,17.75-1.07,26.7-.55Z"/>
    <path d="M343.54,183.27l-5.96-6.18c2.82-2.15,3.71-5.47,5.96-7.82,1.26,2.71-2.92,7.27-2.98,8.74-.07,1.83,3.11,3.21,2.98,5.26Z"/>
    <path d="M399.55,161.28c.35,1.27-.9,1.28-1.79,1.44-5.15.92-10.5,1.12-15.7,1.55-.12-.71.88-.72,1.39-.85,5.1-1.27,10.99-.58,16.11-2.14Z"/>
    <path d="M327.55,176.27c-4.09.27-7.91,2.39-12,3-.26-1.42.34-.82,1.1-1.12,3.32-1.33,7.41-1.64,10.66-3.37l.25,1.49Z"/>
    <path d="M320.05,184.78v4.5s2.5-.75,2.5-.75l-2.99,1.75-.24-4.01-2.76.76c1.06-.94,1.81-2.53,3.5-2.25Z"/>
  </g>
  <polyline points="216.55 487.77 215.11 494.45 214.11 561.45 216.05 561.45 216.05 560.28"/>
</svg>