<?xml version="1.0" encoding="UTF-8"?>
<svg id="katman_1" data-name="katman 1" xmlns="http://www.w3.org/2000/svg" viewBox="0 0 841.89 595.28">
  <path d="M285.32,553.56c-.33-1.49,1.32-3.1-.27-4.01-6.4,1.53-12.76-1.26-19.27.53l-6.16-.61h7.59s-.59-1.17-.59-1.17c4.5-.67,18.55,1.58,21.31-1.77,1.12-1.36,1.98-4.29,3.22-5.82-20.38,6.71-41.24,2.87-60.91-4.23-8.24-2.98-19.25-7.2-27.11-10.86-9.82-4.57-17.27-12.63-19.46-23.46,2.5.23,3.65,2.63,5.81,3.82,5.93,3.28,16.87,2.82,22.8-.61-2.79-1.56-5.68-2.69-8.35-4.49-8.21-5.55-28.55-32.89-33.8-42.14-4.04-7.12-9.06-22.37-9.27-30.46-.03-1.23-.48-2.42,1.18-2.06,4.68,9.34,10.62,20.55,20.45,25.12.35-.37-3.85-6.56-4.39-7.58-10.47-19.71-9.99-35.26-7.21-56.89,1.66-12.94,8.24-34.05,5.5-45.96-.76-3.31-2.74-5.67-3.82-8.73,6.78,1.9,12.9,9.07,15.87,15.38,1.69,3.59,2.28,7.43,3.7,10.91.23.56.07,1.33.86,1.16.63-14.09,6.32-27.41,15.48-37.97,16-18.45,37.64-24.9,32.27-53.87-1.89-10.17-6.88-18.26-9.77-27.9,1.09-.23,1.41.54,2,1.21,4.2,4.83,7.54,9.99,12.6,14.27,17.37,14.71,42.92,18.74,56.68,38.54l8.17,1.46c-.88-2.09-3.07-3.13-4.66-4.98-8.35-9.69-13.13-20.71-10.38-33.72.91-4.31,4.06-9.24,4.53-13.58.85-7.73-.85-16.17-1.2-23.93-.16-3.46.15-6.98.05-10.44-27.63-13.37-42.74-43.42-45.58-73.12-3.27-34.19-.47-79.71,7.88-113.03.87-3.46,4.08-15.21,8.17-15.23,2.58-.02,11.7,7.19,14.28,9.15,22.01,16.73,46.09,38.53,66.06,57.77,6.07,5.85,11.65,12.11,17.31,18.37,2.88-.37,7.67-9.4,8.72-9.84,2.21-.93,2.42,4.06,2.61,5.49.11.84-.54,1.72.85,1.47l14.31-11.09-2.63,9.93c8.88-7.95,20.28-9.99,30.97-14.01,16.25-6.1,32.4-13.34,43.22-27.45,1.26.92.92,2.42.87,3.77-.32,8.18-2.48,20.01-3.57,28.56-.38,2.98-2.23,8.35-2.25,10.67,0,1.27,1.43,3.32,1.67,5.25,1.06,8.34-1.09,15.77-3.43,23.59,1.21,1.28,13.62-10.11,15.23-11.34,31.99-24.37,65.35-33.67,104.5-40.95,8.08-1.5,23.59-4.68,31.23-3.73,2.44.31,2.72,2,2.69,4.3-.23,14.1-8.55,42.5-12.58,56.97-9.25,33.2-23.38,74.09-50.25,96.95-13.02,11.08-29.08,17.98-45.54,22.22l-6.09,23.12.24,1.41c1.83-1.62,3.32-4.27,6.13-4.08-.67,6.38-1.79,12.85-.88,19.27,8.12-12.63,20.53-23.18,33.41-30.84,16.1-9.59,34.26-11.74,38.58-33.26.16-.81-.32-4.92,1.02-4.23,7.64,14.4-1.96,29.93-4.67,44.38-.63,3.35-1.49,8.06-1.5,11.39-.03,9.41,3.93,19.45,4.14,28.92,2.87-3.02,4.57-7.24,7.29-10.52,1.74-2.1,6.38-6.87,8.47-8.47.87-.67,1.72-1.57,2.93-1.45-.67,8.07-1.24,16.55.27,24.55,2.55,13.46,10.99,24.95,14.29,38.28,3.55,14.36,3.36,28.91-1.7,42.89,5.08-2.89,11.17-7.36,17.21-7.62,1.34-.06,2.91-.31,3.8.9-5.02,4.62-9.05,10.31-12.36,16.26-10.01,18-8.88,38.81-19.46,56.48-3.78,6.31-8.76,10.3-14.32,14.89,8.89-.13,16.77-3.79,22.77-10.23.1,3.81-2.21,7.62-3.98,10.91-6.02,11.17-13.46,20.66-25.01,26.39-7.61,3.78-16.81,7.34-25.33,7.68,3.04,3.38,10.08,4.24,14.28,3.47.87-.16,4.36-3.27,4.39-1.44.03,1.72-6.26,8.26-7.86,9.66-9.58,8.41-30.52,16.44-43.24,16.39-3.35-.01-9.69-1.95-12.32-1.77-2.05.14-2.34,4.57-3.04,6.21-.86,2.02-3.35,5.33-2.95,7.34.24,1.17,1.66,2.46,2.18,3.71,1.53,3.73,2.35,7.32,2.66,11.36l6.18.84c0,.87-5.68-.57-6.42,1.17.7,1.07,1.55.82,2.59.9,5.56.42,11.56-1.3,17.26-.6l-2.33.58,1.75,1.16-4.08.88,1.75.87h-17.23c-.17,0-1.96,1.94-2.27,2.4-1.31,1.97-.84,4.84-3.86,4.03l3.5,1.17c-3.02,5.27-11.82.12-14.58,5.55l2.9,1.45c-3.59-.72-6.08,1.76-9.36,2.63-7.59,2.02-16.95,1.62-24.79,1.45-8.06-.18-13.82-3.5-21.7-3.43-2.61.02-5.75,1.07-8.6.5-1.05,3.15-1.6,1.75-2.85,2.39-.58.3-.48,1.13-.83,1.17-.77.09-1.71-.64-2.72-.51-1.74.23-2,2.11-2.58,2.25-1.1.27-2.67-.23-3.94.02-7.05,1.36-9.51,3.09-17.29,2.05-4.58-.61-8.58-2.85-13.4-2.08l1.75-1.74-10.66.14c-3.1,2.04-4.95.11-6.06-.11-2.32-.46-4.38,2.54-7.23,1.71l2.33-1.16c-2.36-.05-1.94-1.81-4.51-2.18-2.08-.31-6.09-1.29-7.45-1.38-2.18-.14-4.99,1.44-7.31,1.21l3.5-1.74c-5.33-.6-11.69,2.5-16.69,2.39-1.9-.04-1.12-1.17-2.27-1.29-1.84-.18-3.51.62-5.26.67-7.69.18-14.13.4-21.34-2.66-3.12-1.32-5.44-4.05-8.77-3.79l.58-1.74c-2-.31-2.69,3.07-3.5-.59l1.16-.58c-1.31-.27-4.17.44-5.13-.14-.14-.08-1.58-2.02-.72-2.51,1.78-1,4.28.62,4.68.29l-1.17-1.74,3.5-1.17-6.42.57,2.33-1.47-1.77-2.89-8.16-.88,6.42-1.18-2.33-1.16c1.41-.49,6.19,1.19,5.84-1.17-2.36-.48-6.28-.12-8.36-.6-.43-.1-.35-1.04-.79-1.15-.87-.22-2.59.54-2.52-.59h11.68ZM362.26,97.18c.55-.63.66-1.21.33-1.99-.43-1.01-4.64-5.95-5.7-7.19-14.3-16.58-32.88-30.88-49.38-45.25-7.77-6.77-15.06-14.16-23.08-20.73-2.91-2.38-11.01-9.54-13.74-10.8-.72-.33-1.47-.55-2.24-.24-3.51,10.22-6.42,21.15-8.17,31.83-6.27,38.19-10.88,110.93,15.39,142.16,6.1,7.25,14.79,13.12,22.79,18.09.83-.04,1.84-7.06,1.16-8.16-.41-.67-3.99-2.88-4.97-3.79-34.36-32.03-35.92-101.31-21.61-143.13.44-1.29,3.55-9.01,4.08-9.36.73-.48.98-.34,1.5.29,10.19,11.52,20.91,22.63,29.14,35.7,12.88,20.46,21.57,44.36,20.79,68.88l16.65-11.09c.96-9.42,2.39-20.1,8.48-27.74,2.39-3,6.36-4.96,8.58-7.49ZM318.03,109.03c1.71-1.28-2.35-12.39-3.27-14.53-4.89-11.33-20.53-40.94-34.96-39.75-4.53.37-5.17,4.64-6.59,8.58-11.81,32.77-5.46,91.14,17.39,118.41.95,1.13,7.86,8.18,8.54,8.4.45.15.91.1,1.37.09.73-4.2,2.58-8.07,4.12-12,.84-2.15,2.15-6.48,3.1-8.31.2-.39,2.16-2.27,2.3-2.62,2.82-7.05-.69-5.75-3.92-9.83-1.84-2.32-5.61-8.92-6.98-11.71-3.16-6.49-4.58-13.7-4.45-20.95l9.92,4.09c-3.22-12.07-2.54-24.55-4.66-36.8,2.39-2.49,14.73,14.24,16.46,15.96.52.51.51,1.27,1.64.98ZM348.99,176.21v12.56c0,5.57,6.32,19.44,9.46,24.42,3.21,5.09,7.43,10.92,12.73,13.84.43-1.69-.96-3.02-1.13-4.41-1.92-16.08,9.9-21.38,18.96-31.8.36,1.12-.73,2.96-1.19,4.07-.37.9-3.47,6.76-3.19,7.02,10.33-2.72,21.17-8.39,27.75-16.93l.14,3.06-1.89,5.7c6.85-4.86,11.03-12.55,14.42-20.05.34-.76,2.82-8.16,3.4-7.4l-.29,4.67c5.22-4.49,7.63-10.67,7.89-17.52,1.02-.14.54,1.32.58,2.03.25,5.68-1.13,10.13-4.09,14.9l7-4.96c8.48-8.99,8.83-20.24,6.43-31.83,6.01.95,11.8-5.99,14.6-10.81l-9.92,3.21c-.5-.51,3.65-7.67,4.19-8.95,2.72-6.4,4.7-12.57,3.98-19.67-3.39,2.97-6.4,8.99-11.67,7.89,5.88-5.98,9.91-15.89,11.52-24.11.81-4.13.82-8.49,1.4-12.62.61-4.39,1.97-8.95,1.98-13.21-5.69,6.65-12.85,10.61-20.53,14.52-12.34,6.28-24.32,9.01-36.58,14.24-7.01,2.99-16.18,7.91-18.54,15.63-1.04.13-.57-1.31-.5-1.96.32-3.25,1.51-6.54,2.04-9.65.09-.53.62-1.78-.64-1.23-1.52.67-6.49,6.03-7.55,7.64-1.59,2.43-2.1,5.12-3.84,6.96v-2.34c-2.22,1.99-3.95,4.91-5.77,7.4-.16.22-1.83,4.23-1.85,1.06-.04-5.99,7.37-9.99,7.04-18.1-.03-.66.37-1.61-.58-1.45-4.58,9.97-16.33,14.25-21.51,23.77-2.53,4.65-4.32,12.72-4.24,18.02.05,2.87,1.46,10.23,4.26,11.52,1.38.64,3.4-.1,3.95,1.01-7.64,2.19-12.43,5.35-15.46,12.87-4.88,12.1-2.45,23.72,1.46,35.62l4.52-13.85,1.32-.75ZM608.35,65.81c-24.83,2.59-50.85,7.97-74.63,15.62-28.57,9.19-61.75,28.95-78.19,54.4-5.95,9.22-4.66,18.92-10.83,28.3-1.88,2.86-5.49,6.78-8.47,8.47-2.34,1.33-6.72,1.87-8.05,3.05-1.84,1.63-4.38,7.97-5.92,10.44-3.7,5.94-8.51,11.88-16.01,12.31-.3-.26,1.64-3.5-.28-2.91-6.77,4.36-13.79,8.58-21.76,10.37-1.3.29-2.65-.01-3.92.19-3.76.59-7.24,8.91-7.35,12.54-.14,4.75,2.04,7.76,3.52,11.94-1.42-.07-2.92.17-4.33-.05-9.45-1.48-20.1-20.88-23.41-29.16-.46-1.15-1.63-7.59-2.34-7.58l-1.5,3.7c.08.52,3.84,1.74,2.67,3.31l-14.3-6.73c1.76-1.67,8.53,2.08,9.34,1.46-8.92-16.71-11.75-42.03,6.42-53.48l-3.25-5.51c-30.75,15.93-44.78,51.48-43.48,84.98.23,5.89,2.09,12.98,1.74,18.69-.39,6.32-4.33,12.75-5.1,18.85-3.78,30.06,36.34,51.77,60.03,60.59,26.64,9.92,70.79,4.41,96.58-7.38s38.95-38.7,40.67-66.24c.3-4.75-3.36-1.76-3.5-6.11,17.11-.52,34.25-7.86,48.09-17.63,24.93-17.62,42.08-58.31,51.05-86.8,7.15-22.71,13-46.08,16.52-69.64ZM297.59,128.9c1.84,10.87,5.76,27.05,18.69,28.36,1.82-3.5,9.75-9.39,9.97-12.9-1.26-6.97-1.33-14.65-3.84-21.3-2.06-5.46-12.84-19.41-16.98-24.49-.54-.66-1.16-1.53-1.99-1.8.39,11.47,1.02,22.7,5.38,33.46,1.44,3.54,4.45,6.03,5.12,9.77-4.75-4.74-9.87-8.85-16.35-11.1ZM576.8,225.86c-1.49-.34-1.02.4-1.51,1.1-6.47,9.12-5.67,12.22-16.79,18.28-10.01,5.46-18.6,8.59-28.27,15.54-13.16,9.46-29.23,24.26-29.38,41.6l-1.19-6.69.03-23.97-1.16-.29c-1.89,3.86-4.67,7.26-6.91,10.92-1.63,2.67-2.7,5.71-4.42,8.43-2.02,3.19-13.86,15.67-11.8,18.64,9.37,2.91,18.84,7.34,28.85,4.24l9.46-4.85c-.84,7.57-7.55,13.07-14.61,14.9.02,1.21,4.21,4.58,5.25,5.85,5.28,6.5,8.59,15.99,11.1,23.88l-1.37.87-11.46-7.54c3.18,6.38,4.24,13.44,6.4,20.17,1.21,3.79,3.49,7.09,4.42,11.35.39,1.77,1.92,12.28-.02,12.27-3-2.91-4.57-7.47-8.46-9.33,2.44,6.44,3.67,13.07,2.07,19.89-1.98,8.44-11.67,14.3-16.67,20.72-1.01,1.3-3.07,5.69-3.91,6.03-1.93.8-2.57-.76-2.54-2.53.03-1.29,1.82-4.81-.57-4.39-2.27,5.8-7.55,11.39-13.44,13.43-.28-4.28,1.69-8.14,1.01-12.42-.08-.52-.25-1.76-1.01-1.6-.22,3.94-1.66,7.6-2.27,11.46-.31,1.99-1.25,8.59-.81,9.96.6,1.88,1.8,1.94,2.32,2.69.39.56,0,1.61.74,2.47,1.76,2.03,6.48,1.57,8.76.56l9.95-4.94c-3.26,4.4-9.03,5.61-14.02,7.01-.55.76,4.65,5.61,5.53,6.43,4.93,4.59,6.51,6.86,13.64,4.85l10.03-5.44c-2.36,3.15-6.27,6-10.04,7.19-1.59.5-3.36.36-4.94.92-.63.23-1-.27-.77.9,6.15,8.46,7.96,15.17,18.68,18.71,5.01,1.65,7.34,1.71,12.5.28,9.88-2.74,15.14-10.56,20.48-18.66.87.46-.13,1.41-.42,1.92-1.15,2.07-2.46,4.06-3.38,6.25l14.02-2.32c-.8,1.14-3.35,1.66-4.67,2.04-2.6.73-8.73,1.34-10.48,2.37-.79.46-3.8,5.37-4.98,6.7-6.91,7.76-14.59,13.76-25.42,14.6l1.16,2.04c-2.23.54-.61,2.86-.56,4.65.17,6,.18,12.24-.47,18.16.11.45.43.61.83.75,1.74.59,8.83,1.23,10.97,1.29,14.26.42,32.36-5.66,42.96-15.2-8.37.81-13.47-7.47-21.61-7.02-.06-.52-.09-.75.28-1.17,1.04-1.2,19.08-5.73,22.36-6.84,12.06-4.08,21.1-7.97,29.32-17.99.9-1.1,7.56-10.2,7.02-10.79-5.06,2.94-10.83,4.6-16.65,5.25-2.56.29-5.53-.38-8.04.14-2.22.46-5.56,2.89-7.82,3.86-.54.23-1.49,1.27-1.94.39,11.35-7.92,21.43-14.6,28.86-26.63,10.91-17.68,10.18-39.23,21.59-56.69,1.33-2.04,7-8.41,7.37-9.57.12-.38.12-.99-.28-.86-9.89,5.2-18.54,12.27-27.16,19.27-.61-.65,5.81-8.31,6.53-9.52,7.89-13.25,8.6-34.33,4.14-48.76-3.41-11.04-10.02-21.03-12.63-32.34-1.82-7.88-2.22-15.85-1.56-23.86-9.92,10.71-17.01,24.04-15.77,39.13-.76.16-.94-1.09-1.02-1.6-1.38-9.18-1.47-18.61-2.55-27.83s-4.08-18.25-3.45-27.55c.95-14.05,8.44-27.32,10.54-41.15ZM266.34,493.39c3.38.2,6.84-.15,10.22,0,.57-3.28-2.38-4.69-4.1-7.29-1.27-1.92-2.73-4.55-3.48-6.73l6.99,9.07,1.49-.29c.99-3.48.37-4.35-2.06-6.44l2.91.58c1-3.43,2.1-6.89,3.6-10.14,1.07-2.31,7.46-12.04,7.49-12.93.03-.8-2.56-6.25-2.83-8.84-.37-3.51.64-9.86-.19-12.66-.55-1.84-7.6-6.86-7.47-10.34l8.18,8.59c.22,5.5-.9,15.55,2.39,20.26,2.08,2.97,5.01-2.97,6.17-4.61-1.54-2.43-3.79-4.73-3.31-7.89l3.24,5.8c1.47,1.75,1.25-.12,1.72-.39.21-.13.79.47,1.72-.74s1.03-2.79,1.73-3.88c1.37-2.14,4.52-2.1,3.28-6.63.95-.37.27,3.14,1.74,1.75.79-.74,1.47-4.49,1.8-5.4.22-.6,2.11-1.41,1.13-3.94l1.15,1.74c3.7-5.91,3.53-12.35,4.69-18.97-.3-.67-.77-.56-1.22.06-1.74,2.4-2.57,8.37-3.47,11.32-.76.09-1.34-.31-1.95-.67-2.72-1.6-18.07-22.59-19.88-26.27-6.8-13.88-6.1-28.25,4.89-39.64-9.37,2.68-19.31,6.63-25.11,14.9l-1.49-.29c-.92-17.7,11.73-34.18,27.18-41.5,1.29-1.7-7.14-3.16-8.06-3.32-2.92-.52-7.97-.4-10.34-1.35-.68-.27-1.68-.44-1.46-1.45.38-1.71,16.13-10.64,18.7-11.68,5.79-2.36,11.6-3.29,17.81-3.81.86-.07,1.7.48,1.45-.86l-6.14-6.72c-1.41-.26-.32,1.1-.52,2.33-.08.48-.25,1.34-.92,1.17-9.32-23.38-34.22-28.65-52.76-41.58-4.26-2.97-7.77-6.59-11.79-9.83l3.39,10.04c12.48,35.7-29.28,48.07-40.99,75.04-3.97,9.13-6.23,19.11-5.33,29.11.43,4.77,2.81,9.48,2.91,14.32l-4.37-8.77-1.47-5.25c-1.6.47.02,5.11-2.33,4.67-1-11.57-4.18-24.61-12.26-33.29,2.53,15.39-2.7,30.3-4.6,45.34-2.75,21.66-1.25,42.14,9.75,61.36l14.7,21.8c-2.86-2.04-4.91-5.07-7.64-7.25-6.11-4.89-13.33-6.27-18.63-12.33-2.44-2.79-4.02-6.4-6.44-9.04,1.4,7.28,5.29,14,9.32,20.17,9.2,14.06,23.12,34.27,39.16,40.28,4.76,1.79,9.07,1.92,14.01,2.64l-7.58,2.63c-9.46,6.46-21.68,8.68-32.13,3.2-.9.93,6.86,8.53,7.89,9.33,3.91,3.05,9.54,5.04,14.15,6.88,16.66,6.61,31.22,13.25,49.48,14.19,11.12.57,22.29.09,32.44-4.71l-7.56-10.18c-10.21.86-20.84-.15-29.23-6.46l8.05,3.05c5.03,1.53,13.88,2.22,19.11,1.33.69-.12,1.04-.3,1.45-.87-5.08-7.47-6.76-17.19-7.84-26.03l-13.18-1.72c.12-1.54,2.23-.02,2.63,0ZM297.88,328.67c2.52.39,5.84-.29,8.47,0l-8.57,3.4c-14.64,6.85-25.18,18.57-28.81,34.57,11.67-8.97,26.65-14.72,41.46-15.18l-7.03,3.18c-21.91,12.49-19.69,37.87-3.6,54.46.57.59.57,1.65,1.87,1.34-4.23-8.74-2.86-19.9,4.67-26.28.11,2.18-1.63,3.74-2.18,5.7-1.53,5.46-.39,13.37.6,18.95.21,1.16,1.83,9.23,2.46,9.21,1.81-3.84,3.34-7.67,5.66-11.27,1.1-1.7,5.7-6.67,6.01-7.42.9-2.12,1.29-8.34,2.1-11.34,1.89-7.02,5.64-14.17,11.05-19.03-.71,3.32-3.45,5.8-4.95,8.77-11.73,23.19-1.6,49.03,19.13,62.63.56.36,8.59,5.44,8.02,3.67-4.82-7.48-8.54-15.26-4.93-24.24.38-.94-.07-1.42,1.43-1.17v10.81c0,1.16,3.21,7.37,4.07,8.78,2.24,3.68,5.75,7.78,8.78,10.79v-8.47c0-.12.54-2.28,1.16-2.04.91,8.73,8.74,13.12,12.97,20.04,3.44,5.62,5.04,12.11,6.32,18.51.54.41,7.41-9.83,8.06-10.92.9-1.53,2.16-3.73,2.88-5.3,1.03-2.26,1.14-5.56,3.08-7.14v9.64c0,1.02-1.22,3.86-1.75,4.96,5.44-1.85,10.81-7.41,13.68-12.31,2.41-4.12,3.2-8.31,5.1-12.43,3.73-8.08,10.75-15.4,11.6-24.91,1.89-.41,1.72,2.53,1.77,3.77.2,4.77-1.41,9.06-1.77,13.76,13-11.05,10.8-28.78,7.59-43.81l3.32,8.06c2,6.02,1.06,13.19,1.96,19.06,1.11,7.24,11.78,9.09,16.85,12.36,2.56,1.65,4.61,3.96,6.77,6.07.65-.4.67-.84.85-1.48,1.17-4.19,3.06-14.94,3.46-19.32.3-3.36-.19-6.29-.51-9.57,2.2,1.2,7,7.44,7,9.64v11.39c3.73-2.26,6.56-7.84,8.28-11.87,4.46-10.42,5.49-18.89.58-29.42-.69-1.47-7-10.76-6.52-11.29,12.78,10.13,16.75,29.18,11.68,44.39,4.92-6.17,14.18-13.18,16.08-21.01,2.54-10.48-3.6-20.98-11.41-27.47,5.07,1.33,12.41,5.01,16.37,8.45,1.04.91,1.32,2.13,2.32,2.64-.02-4.76-3.02-8.49-4.53-12.69-5-13.89-6.82-28.19-21.75-35.5,2.83-.31,5.75,1.65,8.19,2.91,5.76,2.98,10.99,7.1,16.92,9.65,1.09-1.11-8.89-16.56-10.53-18.38-2.66-2.95-6.14-4.97-9.91-6.16.77-1.9,3.28-.91,4.9-1.22,3.76-.72,9.48-2.94,12.04-5.77-13.72,6.42-27.67-5-41.15-2.89-2.39.37-8.36,3.97-11.26,5.09-2.91,1.13-6.95,2.95-9.51,3.84-2.27.79-6.27.79-8.76,2.14l1.75,1.17c.2,1.12-1.22.25-1.66.65-.12.11-.66,2.91-.65,3.21.05,1.39,1.41,1.13,1.66,1.46.15.2-1.5,3.12.07,4.9,1.83,2.09,15.34,4.12,18.69,4.96l-3.5,1.15c2.55.65,4.99,2.5,6.42,4.67-2.35-.87-4-2.79-6.41-3.81-6.47-2.74-13.96.34-17.85-2.01-5.27-3.18-3.94-14.86-5.31-15.24-24.48,2.56-47.82,15.76-72.85,9.45-2.93,4-7.68,8.14-12.96,7.55-2.73-.31-4.85-2.83-7.29-3.82-5.35-2.17-8.16-.96-13.41.04-.6.11-1.92.76-1.78-.32,6.38-2.87,12.58-2.15,19.27-1.18l-1.17-2.33c1.57-.29,1.37,1.49,2.49,1.96,2.18.91,4.17-.91,6.28-1.1v-2.03c2.03-.7.4,2.34,2.02,1.74,1.19-.44,1.64-2.32,1.47-3.5l1.16.59c.07-2.24,2.61-7.54,1.48-9.36-.55-.89-15.85-7.87-18.6-9.45-9.74-5.63-18.18-14.48-29.61-16.24-.44.39,3.56,5,4.07,5.56,2.14,2.38,5.21,5.48,7.6,7.58,1.27,1.12,3.11,1.91,4.09,3.2-15.46-3.72-28.76,3.03-42.05,9.94.78,1.91,3.33.93,4.96,1.17,5.25.76,9.74,3.51,13.44,4.08ZM353.08,554.73v12.56c0,.28,1.53,4.59,1.82,5.19,2.2,4.71,8.43,3.8,12.79,3.87.99-7.52-2.32-14.5-3.12-21.72-.4-3.59,1.09-2.02,2.06.28,2.74,6.47,2.66,14.11,4.27,20.87.61.97,5.85-1.1,6.54-1.93,1.87-2.27-.16-5.75-.4-8.31-.79-8.35,4.6-13.69,5.27-21,1.21-13.1-2.4-32.26-2.97-46.15-.32-7.73,1.26-20.43-.69-27.35-.38-1.35-9.79-15.81-10.68-16.19-1.61.2-.32,2.04-3.05.72-2.48-1.2-4.98-5.65-7.2-6.81-1.53-.8-3.59-.64-5.2-1.23-9-3.28-19.01-12.6-24.78-20.2-1.62-2.14-7.52-13.07-8.25-13.37-1.2-.49-.82.8-.87,1.45-2.43,33.82,13.41,61.84,22.61,93.05,3.47,11.77,6.99,24.88,6.03,37.24-.55,7.14-3.76,13.24-1.49,20.73.9,2.98,3.01,6.07,6.14,7,.71-.82-3.88-16.87,1.17-18.69ZM413.83,571.38c.48-3.07,0-8.31,0-11.68,0-1.97,2.08-.07,2.35,2.33.49,4.33.01,9.57-1.17,13.74,5.23-3.95,6.58-12.23,6.44-18.43-.07-3.24-1.26-7.81-1.15-10.98.19-5.52,3.77-16.93,5.26-22.82,5-19.66,10.25-37.88,13.8-58.05,1.86-10.56,3.86-21.24,4.27-31.97l-.6-1.15-5.55-3.08c-1.07.07-11.62,13.65-15.19,15.04-.75.29-1.07-.12-.88-.87v-4.1c-4.88,10.36-6.9,20.96-16.39,28.58-3.48,2.8-7.48,4.13-11.35,6.17-.7,2.38-.05,4.89-.29,7.3-1.99,19.74-3.03,41.92-7.08,61.27-2.05,9.83-10.12,20.49-3.57,30.57.37.57-.06,1.05,1.31.75.02-4.04.79-8.36,2.18-12.13.61-1.65.94-4.26,3.08-3.64-1.73,9.16-7.58,23.01,7.6,21.61.19-7.31.9-14.7,3.56-21.56,1.09-.07,1.79-.55,1.7.82-.24,3.63-4.6,18.5-1.79,20.48,3.73.78,9.39.33,11.46-3.21.39-.66,1.92-4.41,2.01-5ZM315.11,432.64c-2.88,2.81-4.36,7.03-6.76,10.46-10.75,15.38-24.76,24.69-26.52,45.92-1.44,17.48,9.17,41.32,24.93,49.82,6.82,3.68,21.43,4.09,27.34-1.65,11.49-11.17,3.92-28.12-.6-40.86-7.39-20.81-18.18-40.85-18.38-63.7ZM479.84,547.13c.05,2.03,2.56,2.74,3.76,4.12,3.47,3.98,4.75,10.05,3.83,15.15,7.92-.62,12.09-9.05,10.39-16.52-.08-.34-2.86-4.89-3.08-5.09-2.64-2.4-12.09,2.42-14.91,2.34,0-.41,5.66-3.82,6.7-4.69,19.3-16.14,17.69-42.66,6.45-63.08-6.56-11.91-23.06-29.19-33.31-38.54-1.47-1.34-4.25-3.44-6.3-2.95l-7.36,10.31c-1.17,8.7-2.62,17.37-4.42,25.96-3.45,16.51-14.39,45.08-6.46,60.16,9.78,18.59,24.23,7.17,39.32,10.91,1.69.42,3.61,1.88,5.37,1.93ZM503.23,493.95c8.53.57,18.11-4.8,23.95-10.75.5-.51,3.31-3.95,2.89-4.4-5.63,5.23-13.26,8.37-21.06,6.75-1.63-.34-9.47-4.84-9.89-4.41,1.43,4.25,3.9,8.2,4.11,12.82ZM301.26,540.53c-.98-.69,0-2.18-2.92-1.12-4.95,1.78-10.5,12.17-7.46,17.07,2.46-6.56,6.96-11.6,13.14-14.9-.81-.6-1.78-.37-2.75-1.05ZM327.96,552.98c-.46,3.22-2.79,19.28.37,20.36,5.95.42,12.55-1.97,13.49-8.54.81-5.65-.18-12.78-5.14-16.17-3.94-2.69-21.53-4.94-26.48-4.36-5.76.67-12.42,4.87-15.06,10.05-2.44,4.8-4.72,15.25,2.44,16.75-.09-3.74-.84-6.8-.42-10.64.11-.96,1.66-9.71,3.92-7.46-2.38,8.62-4.81,23.33,8.69,20.95.39-6.1-.83-11.58.14-17.67.34-2.12.59-6.78,3.43-6.2-.73,3.71-1.74,8.19-1.79,11.95-.02,1.92.82,10.03,1.5,11.41,1.15,2.36,10.87,1.3,11.4-1.45s-.25-6.97-.03-9.96c.05-.74,1.61-11.24,3.52-9.03ZM448.29,574.59v-9.64c0-.56.86-5.29,1.12-5.89.38-.88.64-1.63,1.8-1.41-.21,5.66-1.12,11.23.08,16.86,2.22.5,8,2.79,9.88,1.56,1.67-1.1,3.07-18.76,6.11-21.33,1.2.79.81,1.34.73,2.46-.32,4.89-3.56,12.29-3.41,17.11.11,3.48,6.87,1.86,9.15.91,4.45-1.85,4.37-14.48,4.34-18.74,1.97.43,2.19,1.97,2.32,3.8.32,4.45-1.65,8.67-1.16,13.13,5.58-1.97,6.12-9.88,4.64-14.86-4.61-15.55-37.18-11.33-44.67-1.5-6.16,8.08-.61,17.6,9.07,17.54Z"/>
  <path d="M284.15,551.81c-.12,1.12-2.35,1.13-3.18,1.19-7.67.5-15.48-.45-23.1-.9,8.77-.27,17.51.54,26.29-.29Z"/>
  <path d="M470.49,232.87c.68.86-3.89,9.25-4.93,10.54-.68.84-2.24,1.19-2.56,2.12-.69,1.98.97,6.78,1.1,9.23,1.02,19.74-15,40.49-36.24,34.49-32.83-9.27-7.09-84.85,24.14-62.69,7.11,5.04,7.51,13.64,18.5,6.32ZM432.38,229.48c-7.44,1.11-12.62,17.64-6.26,21.76,5.74,3.73,10.78-5.36,11.52-10.04.61-3.89.55-12.58-5.26-11.72ZM439.67,247.91c3.23,3.36,7.11-5.44,2.95-7.37-3.6-.97-4.74,5.51-2.95,7.37ZM450.44,247.09c-.24-.21-1.49-.87-1.55-.79,1.86,9.18.26,26.09-9.32,30.7-10.76,5.18-16.4-7.21-15.81-16.1-4.19,2.96-5.37,8.26-5.87,13.07l1.18.39-1.12,1.99c1.32,1.39,1.65,3.56,2.63,4.98,7.51,10.87,30.62,6.72,34.57-5.69,2-6.29.35-24.13-4.7-28.55Z"/>
  <path d="M586.73,86.26c-2.25,15.59-5.21,30.43-10.5,45.28-11.97,33.6-36.27,67.89-68.34,84.7-6.38,3.35-13.36,5.26-19.28,9.04.78-7.43-2.2-14.3-2.59-21.65l-8.51-2.59,10.51-2.34c9.54-1.97,14.92-8.35,21.03-15.19l-1-1.33c-4.65-.25-9.03-3.47-13.46-4.06-2.97-.39-5.45.45-8.32.14,3.96-3.9,9.48-6.7,13.46-10.49,2.2-2.1,4.54-5.62,6.69-7.92,2.95-3.16,6.36-5.94,9.06-9.33-15.47,1.95-33.73-2.76-47.01,7.6-3.91,3.05-6.86,7.75-10.53,11.08-.09-1.88,1.14-4.53,1.94-6.23,6.67-14.16,25.72-33.05,38.47-42.14,21.94-15.64,48.66-23.94,74.37-31.36,1.93-.56,13.25-3.86,14.02-3.21ZM580.23,93.34c-6.92-.8-13.57,1.42-20.08,3.41-17.95,5.49-40.75,14.48-55.95,25.24-5.89,4.16-20.89,17.89-24.95,23.55-.43.6-.42,1.91-1.16,2.62l6.18-1.1.57,1.14c8.81-1.25,17.87.31,26.86,0,2.03-.07,12.7-2.9,9.07,2.06-8.97,6.66-14.66,16.48-22.18,24.55-.29,1.12.15.67.69.93,4.2,2.05,7.32,3.4,11.97,4.41,1.48.32,3.22-.34,4.22,1.02-2.04,3.16-5.02,5.49-7.58,8.18-.78.83-.96,2.11-1.74,2.93-1.13,1.2-6.97,4.81-7.01,5.24-.09.9,1.8.79,2.32.29l-1.91,3.34c-2.45,2.12-4.71,3.19-7.77,4.24l1.52,12.87c34.6-11.45,57.58-40.5,72.93-72.22,6.15-12.72,12.16-27.55,14.54-41.54.66-3.85,1.32-7.54-.52-11.16Z"/>
  <path d="M313.37,212.42c2.14,1.53,2.49,4.92,5.56,5.25,4.66-3.78,11.47-10.79,17.5-5.24,10.94,10.07,12.4,43.06,4.99,55.21-5.79,9.5-16.13,7.45-22.11-.7-6.78-9.24-6.79-21.6-5.22-32.47.34-2.38,2.28-7.35,2.13-9.51-.06-.85-1.72-3.76-2.11-5.39-.52-2.22-.79-4.85-.74-7.14ZM333.99,239.1c9.23,7.85,8.56-18.71,1.82-19.69-1.44-.21-2,.18-2.87,1.21-3.18,3.79-2.75,15.26,1.04,18.48ZM340.24,253.32c-.54,4.98-5.32,14.22-11.14,9.66-4.92-3.85-5.19-15.39-4.67-21.08.39-4.27,3.04-8.22,3.24-12.53-2.72,3.46-4.54,7.98-5.99,12.12-3.27,9.38-6.41,20.56,3.07,27.6,8.19,6.08,16.16-1.38,16.09-10.2l-.6-5.57Z"/>
  <path d="M353.55,293.75c.19.11,1.3,2.62,2.15,3.38,3.13,2.8,11.38,4.11,10.81-1.97,1.87-1.45,2.63,2.03,4.24,3.33,6.49,5.25,16.61,4,21.75-2.52,2.37,2.18-1.63,5.22-3.68,6.24-4.86,2.44-10.9,2.59-15.88.46-1.39-.6-3.65-2.57-4.41-2.64-1.39-.14-3.77,1.64-5.83,1.79-4.73.35-10.72-3.05-10.79-8.19.53.04,1.14-.16,1.64.13Z"/>
  <path d="M371.09,275.6c1.55,5.62-5.47,4.4-7.79,8.08-10.97-10.2-2.39-12.68,7.79-8.08Z"/>
  <path d="M469.32,288.37v1.16c-3.48-1.81-9.76-2.72-13.26-.7-3.27,1.88.91,2.36.99,4.79l-5.74-3.29c2.44-6.41,13.06-4.99,18-1.95Z"/>
  <path d="M441.87,208.34l-21.03,6.41c5.29-5.27,13.77-6.51,21.03-6.41Z"/>
  <path d="M312.19,273.76l1.49-3.5c-1.86-2.34-4.39-2.77-7.07-3.5-.94-.26-1.72.62-1.43-1.17,5.3-1.54,17.16,5.79,7.01,8.17Z"/>
  <path d="M239.76,500.4c-1.1.26-1.39-.61-2.05-1.16-2.79-2.35-5.85-5.95-7.29-9.35l9.34,10.51Z"/>
  <path d="M540.01,439.65l6.14-4.65,5.78-7.07,5.59-11.63c-1.71,9.48-7.99,20.37-17.51,23.36Z"/>
</svg>