<?xml version="1.0" encoding="UTF-8"?>
<svg id="katman_1" data-name="katman 1" xmlns="http://www.w3.org/2000/svg" viewBox="0 0 841.89 595.28">
  <path d="M619.68,139.44c2.03,2.15-.35,8.34-1.37,10.79-9.24,22.08-39.5,46.46-59.37,59.29-15.71,10.14-32.9,18.15-51.06,22.88-.43.49,4.13,10.31,4.69,12.04,2.62,8.01,4.39,18.2,5.04,26.6.41,5.3-.45,10.42.63,15.81.15.75-.45,1.08.9.93,34.21-19.05,69.71-37.59,106.19-52.03,10.21-4.04,30.2-12.16,40.54-13.03,3.82-.32,4.68.75,5.09,4.5,1.73,15.67-2.75,42.27-5.67,58.22-2.52,13.77-6.46,35.36-11.69,47.94-.61,1.47-1.3,3.37-3.04,3.65-25.83,1.75-51.66,4.76-76.9,10.42l14.54,54.96c-.26,1.68-2.1,2.74-3.63,3.11l-32.88,5.76,12.66,31.8c-.23,1.9-2.21,2.29-3.82,2.89-2.91,1.09-23.95,6.32-24.04,7.58,3.48,6.39,7.91,12.76,11.26,19.16,1.57,2.99,5.53,8.91,1.74,11.5-2.43,1.67-14.72,4.77-15.51,5.97,1.47,22.92-4.8,45.4-22.4,60.82,4.99,5.99,19.54,16.33,11.53,25.31s-35.64-.77-45.02-4.73c-4.71-1.99-14-8.38-16.91-9.26-11.52-3.48-39.8-4.9-52.17-4.41-5.12.2-22.01,1.17-26.02,2.58-1.7.59-6.81,4.74-9.17,6.04-11.29,6.23-40.95,16.61-52.09,8.07-9.76-7.47,5.8-20.68,11.51-25.52-33.96-26.77-15.7-72.91-9.81-108.2-13.07-9.96-25.2-21.15-34.85-34.54-.8-1.12-8.89-14.55-9.48-13.94-9.38,27.79-7.52,60.32,22.7,73.13,2.31.98,11.21,2.94,11.41,5.08l-.9,2.17c-2.46,1.91-9.75-1.07-12.52-2.19-25.17-10.22-33.83-35.08-30.36-60.77.71-5.26,6.46-21.99,5.89-24.88-.81-4.1-5.43-10.39-6.28-15.04-6.87-2.86-11.87-4.6-5.13-11.88-1.59-2.6-4.71-6.71-1.23-9.12,1.41-.98,3.1-.58,4.24-1.83-4.68-5.02-1.9-10.74,4.88-8.83-.65-7.67.23-8.58,7.92-7.91,4.21-29.91,7.95-59.94,6.61-90.28-.39-1.14-14.69-4.94-17.27-5.85-23.55-8.37-57.74-26.37-71.13-48.13-4.69-7.61-6.76-12.43,3.78-14.98,8.64-2.09,18.73-1.65,27.5-.79.7-.66-5.33-8.21-6.1-9.41-21.44-33.69-24.14-76.83-.73-110.29,41.83-59.78,127.06-41.28,142.95,28.91,9.2,40.64-10.68,86.46-44.84,109.35,10.44,5.11,20.84,10.29,30.13,17.36,1.08.11,14.46-7.31,17.1-8.45,32.65-14.11,74.25-12.92,106.31,2.25,29.39-30.59,72.42-54.56,114.66-61.18,5.62-.88,27.42-3.22,31,.59ZM283.36,194.02c7.96,1.3,14.33.14,21.69-2.9,63.7-26.38,81.18-132.59,13.1-164.23-62.92-29.24-118.41,36.08-104.61,97.92,7.14,32.02,32.71,64.53,66.42,69.84l.66-.58c-.6-3.3,3.24-4.26,2.74-.04ZM573.59,147.8c-28.85,7.83-57.72,22.07-80.61,41.39-3.9,3.3-10.41,8.85-13.41,12.75-3.19,4.15.48,2.94,1.53,6.7-6.69-1.82-12.65-5.53-19.15-7.92-29.01-10.67-66.74-9.93-94.85,3.14-2,.93-13.34,6.81-13.55,8.11-.09.54.54,1.45.38,2.15-3.54-2.54-6.41,1.54-9.73,2.43l3.62-5.17c0-1.51-15.4-10.7-17.82-11.97-2.62-1.38-11.95-6.08-14.26-6.47-2.63-.45-7.75,2.71-10.5,3.83s-5.55,1.64-8.24,2.71c-2.22,5.2,5.05,8.34,4.59,13.06-.5,5.12-7.42,6.28-11.49,7.12l1.75,15.47c11.25,2.44,22.69,4.68,34.27,4.56,1.62-2.21,3.13-4.68,4.98-6.71.54-.59,3.91-4.31,4.57-3.64-5.61,9.76-10.28,20.88-12,32.11-2.2,14.37.26,27.28-.75,41.23-.27,3.75-1.6,7.47-1.84,11.23,7.61-7.07,18.8-6.73,26.77-.31,21.14,17.01,7.68,54.8-20.7,44.13,6.78,11,17.37,18.79,26.77,27.37-11.42-1.95-21.31-11.21-28.23-20.14-3.12-4.02-7.25-12.82-10.07-15.48-3.17-2.99-10.69-4.68-14.31-7.59l-2.8-9.68-1.71.03-1.9,6.62c-1.38,1.35-7.99-6.95-9.44-7.91-1.32-.2-.72.2-.92.88-.48,1.6-.58,3.54-1.25,5.15l-7.86-2.38c3.04,7.88,2.58,8.98-6.08,7.3l3.04,8.2c-.33,1.69-6.22.08-7.22,2.44,1.66,4.74,9.22,6.97.59,9.51-.65,2.37.86,1.64,2.69,2.34,1.26.49,3.73,1.26,4.58,2.12,2.12,2.17,2.86,10.01,5.75,12.49,2.62.06,6.39-28.01,7.29-31.03,1.03-3.46,3.57-7.5,7.61-7.29.22.93-.84.45-1.22,1.03-4.71,7.18-2.24,16.03,7.3,10.53-.8,3.57-6.68,5.6-9.43,3.06l-.62.58c-1.23,10.32-4.22,20.21-7.48,30.01,12.17,23.47,31.09,41.45,52.25,56.73l-.03,1.51-5.15-1.83-.8,1.04c-5.33,31.26-23.03,78.11,7.83,101.44,22.24,16.81,49.83,8.46,75.11,7.66,8.6-.27,18.18.34,26.76,1.22,14.91,1.53,29.59,5.64,44.73,4.26l-2.71,1.84-10.06,2.4c13.07,6.17,27.3,12.08,41.98,12.17-2.66-4.5-8.35-6.47-11.86-9.74-.48-.45-1.58-1.23-.62-1.81,3.9,2.12,7.88,4.13,11.46,6.79,2.88,2.15,4.52,6.42,8.31,2.64.02-1.59-10.38-10.14-12.76-10.66v-1.21c2.99,1.11,5.86,2.74,8.46,4.62,1.3.93,2.68,3.56,4.31,2.99-3.66-5.14-8.01-10.01-13.24-13.59-6.59,1.35-13.16,5.01-20.22,4.46,7.83-4.32,15.9-7.16,22.83-13.07,28.94-24.66,19.18-64.42,12.45-96.76l-8.01,20.27c-3.62,5.67-7.11,12-11.47,17.13-1.96,2.31-8.64,7.55-9.56,9-.75,1.19-.35,3.68-1.98,5.63-3.64,4.35-6.59-1.52-8.23-1.39-4.33,4.77-6.61,3.65-9.81-1.41-7.18,3.89-7.77.45-10.96-5.37-5.02.77-12.4,1.92-10.41-5.69.4-1.54,2.8-3.08,2.86-4.38.05-.98-.91-2.17-1.06-3.21-2.48-18.39-.48-47.96,8.07-64.68.92-1.79,2.3-4.37,3.96-5.46-1.81,7.52-4.32,14.87-5.8,22.49-1.75,9.05-3.07,19.69-3.35,28.9-.22,7.28,1.38,15.75.63,22.54-.25,2.3-1.46,3.85-1.87,6.02,2.8,2.5,6.98-.68,9.78.67l3.05,6.39,6.32-3,3.73,5.43c1.64.4,4.06-5.9,7.01-3.39.76.65,2.45,4.23,3.61,3.39,1.71-7.55,8.73-12.48,13.29-18.66,6.52-8.82,12.59-20.67,15.62-31.24,2.69-9.38,2.56-14.36,1.44-23.96-2.09-18.03-6.86-36.04-11.62-53.49-.21-.62-.65-1.2-1.37-1.04-.62.14-8.23,6.28-10.25,7.4-2.44,1.35-5.37,2.67-8.01,3.55-.59.2-1.72,1.15-2.13.3,12.01-8.74,23.8-19.28,29.81-33.16-2.25.71-4.04,2.31-6.35,3.07-8.87,2.93-18.99-1.21-23.96-8.96-13.95-21.78,8.12-53.39,32.74-39.14-5.66-11.25-3.68-22.94-4.87-34.98-.73-7.48-2.49-16.52-5.01-23.59-1.9-5.34-5.03-10.09-7.15-15.32,5.72-2.36,12.03-3.71,17.95-5.81,9.14-3.23,19.76-7.75,28.08-12.69,1.86-1.1,6.57-3.63,7.77-5.01,1.95-2.24,5.69-9.91,7.15-12.93,6.66-13.84,12-30.01,12.67-45.44ZM241.36,182.49c1.63,10.5,6.37,21.43,11.68,30.61,1.59,2.74,6.05,10.09,8.14,11.94,1.64,1.45,7.87,3.45,10.29,4.32,4.46,1.6,9.08,2.99,13.71,3.98,1.22-.87.05-12.19-.91-13.13-6.31-1.55-18-1.07-15.12-10.83.67-2.28,6.13-8,4.81-9.87-.52-.74-13.45-4.33-15.37-5.95l-17.23-11.06ZM279.13,198.97c-1.13,5.82,12.2,5.34,12.75,2.06.81-4.85-9.97-3.71-12.75-2.06ZM277.67,205.67c-1.39,1.73-5.09,5.29-2.48,7.18,2.83,2.05,19.3,2.44,20.27-.95.33-1.15-2.3-5.3-3.42-5.61-.88-.25-5.23.66-7.2.55-2.44-.14-4.71-1.18-7.17-1.17ZM665.47,228.12c-23.47,5.98-45.92,15.52-67.95,25.45-26.63,12.01-52.64,25.43-77.81,40.24,4.16,13.71,9.48,25.84,6.27,40.63l26.16,45.51c-.55,1.12-1.65,1.57-2.74,1.96-5.14,1.86-12.91,2.56-18.53,3.99-4.67,1.19-9.27,2.69-13.87,4.09,4.11,14.45,13.92,26.35,19.98,39.96.29,3.16-10.06,4.13-12.1,6.07l7.94,48.28c.4.42,9.61-2.88,10.77-3.53.66-.36,1.47-.58,1.32-1.54l-15.49-29.02,28.3-9.5-13.29-33.03,37.63-7.74-15.47-55.63c.63-1.36,5.93-2.31,7.6-2.71,16.74-4.06,36.64-6.36,53.86-8.2,3-.32,19.26-.99,20.24-1.97,10.05-33.19,17.57-68.39,17.18-103.3ZM322.28,245.16c-4.28-.74-8.7-.72-13-1.3s-12.5-3-15.93-2.99c-.89,0-1.63.05-2.03.99,2.21,27.79-2.03,55.65-5.47,83.19l6.4,5.87c7.98-6.73,11.26-.74,12.53,7.2l8.08,3.79c-.55-5.14-1.36-10.26-.91-15.5.54-6.25,3.49-11.91,4.68-17.84,2.55-12.66,0-26.37.79-39.37.49-7.95,2.46-16.46,4.86-24.04ZM502.25,302.52c-21.7,2.93-26.8,37.97-8,46.02,30.62,13.11,39.08-50.22,8-46.02ZM333.74,311.02c-29.05,1.09-17.06,58.61,11.26,44.17,19.1-9.74,10.81-45-11.26-44.17ZM544.39,377.81c.88-.89-9.22-17.58-10.46-19.66-2.62-4.37-6.28-11.49-9.11-15.23-.52-.69-.64-1.24-1.72-1.01-2.08,9.11-7.69,16.54-12.68,24.17l4.79,18.41,29.19-6.68ZM522.48,414.93l1.3,14.2c.54,1.87,6.04-.24,6.02-1.72l-7.32-12.49ZM374,560.35c-.32-1.29-.92-.95-1.82-.95-6.47,0-13.03-.28-19.48-1.77-4.98-1.15-9.63-3.16-14.3-5.15-2.29.07-15.67,12.25-14.29,16.4,3.09-3.12,7.56-8.48,11.92-9.68,1.1-.3,1.19.75.85,1.15-.17.2-3.35,1.89-4.26,2.74-2.41,2.25-4.43,4.55-5.82,7.59-.37,1.64,3.72,1.54,4.48,1.11.35-.2,3.98-4.89,5.28-5.96,2.62-2.15,4.75-3.1,7.93-4.24l.29,1.2c-1.75-.02-11.98,8.98-10.95,9.74,14.24-.27,27.72-5.75,40.16-12.17Z"/>
  <path d="M376.44,316.36c2.97,1.29,5.13,3.71,8.38,4.69,6.11,1.86,13.61.65,19.58-1.38,3.33-1.13,11.22-6.11,13.16-6.36,2.63-.34,9.72,3.98,13.18,5.02,7.69,2.32,18.41,3.26,25.02-2.07.23-.19,3.91-5.06,4.03-2.04.03.82-2.5,3.82-3.35,4.55-1.87,1.63-6.12,2.78-6.92,4.03-.99,1.54-1.05,5.35-1.71,7.41-2.26,7.11-5.84,15.9-10.53,21.72-22.17,27.56-43.98-5.13-49.6-27.04-3.83-2.44-10.93-2.82-11.23-8.54ZM396.09,337.23c-1.4,1.62,1.88,6.24,2.98,7.92,7.94,12.1,20.36,21.25,33.08,8.97,2.23-2.16,9.47-12.16,9.46-14.95-.01-2.31-6.04-5.52-8.17-6.48-10.63-4.79-22.73-4.45-32.84,1.44-.94.55-3.95,2.47-4.5,3.11Z"/>
  <path d="M357.44,264.19c30.52-3.89,28.14,43.21-.17,40.59-23.04-2.13-22.24-37.73.17-40.59ZM362.27,267.8c-7.66,1.76-6.67,14.93,1.74,16.26,16.47,2.61,11.86-19.38-1.74-16.26Z"/>
  <path d="M470,259.92c28.03-4.1,31.81,37.2,8.2,40.45-26.91,3.71-31.53-37.04-8.2-40.45ZM467.55,263.56c-8.77,1.44-10.74,14.13-1.69,16.6,12.73,3.47,15.94-18.94,1.69-16.6Z"/>
  <path d="M434.85,399.72c.33,1.74-.48.98-1.33,1.38-8.92,4.18-22.4,4.09-30.92-1.08-.22-1.63,1.01-.68,1.84-.61,3.81.32,8.07,1.33,11.86,1.53,6.21.32,12.42-.42,18.55-1.21Z"/>
  <path d="M415.87,295.24c2.86-.27,6.34-.54,8.64,1.36l-.08,1.09c-1.3,1.66-5.35,5.47-7.38,5.17-.94-.14-6.91-3.89-7.1-4.52-.78-2.53,4.28-2.94,5.92-3.1Z"/>
  <path d="M258.85,31.74c5.68-.76,9.07.93,7.79,7.18-1.51,7.34-25.09,35.67-31.35,42.27-3.78,3.98-12.62,11.92-13.42,1.23-1.29-17.03,19.44-48.33,36.99-50.67ZM263.72,34.77c-2.63-2.61-10.13,1.41-12.81,3.02-10.31,6.18-20.33,19.86-24.18,31.2-1.67,4.91-3.41,11-1.75,16.09,2.16,1.47,7.4-4.57,8.77-6.02,6.77-7.13,26.15-29.97,29.41-38.13.83-2.08,2.06-3.99.55-6.15Z"/>
</svg>