<?xml version="1.0" encoding="UTF-8"?>
<svg id="katman_1" data-name="katman 1" xmlns="http://www.w3.org/2000/svg" viewBox="0 0 841.89 595.28">
  <path d="M549.76,260.29c15.41,3.83,33.53,6.98,46.67,16.43,11.42,8.22,9.1,17.33,11.25,29.71,26.83-6.99,57.49,3.32,76.09,23.48,42.41,45.98,24.13,132.82-25.78,166.62-29.82,20.19-69.71,26.2-103.18,11.46l-7.08,7.15c.04,1.14,8.38,3.58,9.95,4.31,5.01,2.32,11.31,5.49,14.92,9.64,1.11,1.28,1.16,3.48,2.83,4,11.92.51,24.95-1.1,36.52,2.36,4.36,1.3,9.9,4.74,4.28,8.68-5.34,3.75-26.97,5.91-34.08,6.17-4,.14-11.8-1.16-14.87-.58-3.24.61-11.49,5.5-15.53,7.01-67.72,25.29-166.98,28.27-238.4,19.45-28.49-3.52-63.2-9.31-90.08-19.07-16.57-6.01-43.56-18.59-16.23-34.7,1.79-1.06,10.76-4.37,10.42-5.87-.16-.74-8.84-8.8-10.2-10.28-27.46-30.01-44.26-65.44-51.08-105.82-5.12-30.27-7.01-69.04-3.49-99.5,1.92-16.64,5.95-22.27,21.15-29.33,20.52-9.54,45.83-12.79,68.05-16.2,1.87-3.82,4.02-7.45,6.43-10.97,1.56-2.29,6.23-6.93,7.02-8.67,1.14-2.48,2.27-21.87,3.4-27.3,1.5-7.26,7.12-19.02,7.75-24.37.35-2.93-1.75-10.78-1.94-14.8-2.2-47.31,22.24-106.95,59.21-136.78,8.56-6.91,25.22-18.93,34.97-8.58,10.67,11.33,11.67,58.15,10.92,73.73-.11,2.17-2.36,15.15-1.43,15.68,11.45.21,23.01-.97,34.48-.36,4.18.22,9.34.89,13.55,1.46,22.78,3.03,45.97,10.81,65.03,23.68,1.1.09,11.2-8.96,13.25-10.42,34.53-24.65,95.18-40.93,137.43-37.95,8.14.57,27.48,3.14,28.32,13.3,1.14,13.86-16.59,39.09-25.29,49.82-24.22,29.87-56.97,50.23-95.2,56.94-1.04,1.42,1.72,7.45,2.25,9.44,3.57,13.52,6.49,27.05,7.75,41.03ZM291.39,153.47c12.94-13.72,28.95-25.28,46.65-32.14,6.35-2.46,12.88-3.89,19.35-5.89,3.28-14.92-9.43-31.6-23.92-34.89-25.82-5.85-46.18,14.88-53.01,37.77-5.07,17-6.44,36.67-6.37,54.35l1.35.34c1.36-4.24,5.69-7.15,8.47-10.3,2.45-2.77,5.01-6.64,7.47-9.25ZM246.81,272.96c-.33,3.13.24,6.71,0,9.89,2.06-.91,7.78-4.21,8.9-5.76.85-1.17.7-2.81,1.4-4.06,7.75-13.92,23.83-16.99,35.43-5.55,2.28,2.25,3.88,6.72,5.46,8.18,1.89,1.74,7.16,3.76,9.84,5.85,9.27,7.18,19.06,21.43,14,33.41,13.2,1.95,26.61,1.66,39.94,2.02,19.56.53,40.47,1.04,60.01-.65.73-.06,2.97-.37,3.12-1.12-4.81-12.38,5.76-23.66,15.01-30.55,9.06-6.74,18.17-9.08,29.48-9.25,12.61-18.26,43.49-13.86,48.34,8.42.8,3.69-.07,8.26.72,10.88.6,2,7.21,8.07,8.37,10.78l1.24.46c2.64-1.29,13.83-1.83,14.7-4.4.43-1.27.16-4.46.1-6.02-.93-23.22-5.03-67.08-14.48-87.85-.97-2.14-3.86-1.82-3.25-4.59,17.12-4.18,38.93-6.83,53.83-16.78,26.7-17.82,22.02-72.91-13.25-75.99-20.14-1.76-52.33,15.94-68.49,27.68-2.64,1.91-17.56,14.86-18.8,14.61-1.99-1.48-.22-3.97-1.72-5.8-.22-.27-4.9-3.44-5.65-3.9-51.02-30.71-136.49-28.45-180.24,14.47-12.73,12.49-20.77,40.01-23.43,57.75-.97,6.5-.99,21.7-3.91,26.1-1.48,2.23-4.74,4.9-6.44,7.21-4.45,6.06-9.44,17.09-10.23,24.56ZM288.18,270.14c-4.97-5.29-14.89-5.99-20.86-1.91-.84.58-6.26,5.72-5.5,6.43,9.29-2.21,18.54-3.68,27.96-1.36.47-.44-1.16-2.69-1.61-3.16ZM237.95,265.8c-1.44-1.43-33.91,5.62-38.5,6.87-8.35,2.28-31.29,9.61-34.67,17.86-1.53,3.74-2.21,14.75-2.55,19.28-7.42,97.35,19.76,194,117.35,232.6,80.41,31.81,193.68,28.55,259.22-33.4,1.62-1.54,6.86-6.23,6.79-8.2-.04-1.14-4.82-7.15-.17-8.42,2.32-.63,11.71,5.54,14.74,6.85,36.73,15.9,82.61,3.56,108.91-25.72,28.19-31.39,37.61-84.36,17.08-122.1-15.17-27.89-49.29-45.04-80.29-33.21-1.8.69-10.84,5.76-11.45,5.58-3.84-3.38,2.11-6.95,2.61-8.35.84-2.4-1-22.05-1.91-25.1-1.69-5.71-14.21-11.24-19.49-13.25-3.03-1.15-22.53-7.23-23.89-6.21-1.66,2.47.39,5.63.13,8.49,9.52,3.3,23.74,3.09,28.57,13.46.23,4.77-11.87,10.52-15.84,12.08-20.61,8.08-43.5,9.93-64.68,15.82-20.47,5.69-26.42,12.85-50.02,9.11-6.26-.99-14-4.82-18.51-5.37-12.82-1.57-30.94,2.78-44.36,1.91-22.18.77-44.58-1.83-66.82-2.61-8.27-.29-18.42,4.31-27.64,5.17-21.71,2.01-24.94-6.35-42.86-11.76-18.42-5.56-43.33-7.3-59.71-16.7-12.32-7.06-7.6-11.46,2.96-15.89,13.55-5.67,28.91-6.69,43.24-9.15l1.76-9.63ZM488.14,268.7c-3.32.45-8.72,2.92-11.08,5.29-.68.69-1.48.87-.36,1.71,12.17,1.29,22.12,5.69,32.43,11.91.91.55,3.2,2.69,3.42,2.73,3.09.7,0-7.34-.68-8.88-3.93-9.02-14.09-14.05-23.72-12.76ZM235.73,281.66c-1.52-1.58-2.66.06-3.59.14-12.25,1.1-23.34,3.14-34.59,6.71-2.98.95-6.01,1.99-8.73,3.55,5.2,3.8,12.82,4.63,19.12,6.19,3.46.85,7.18,2.06,10.73,2.86,3.41.77,7.28.54,10.68,2.14l8.3-12.19-1.92-9.39ZM314.34,310.14c1.04-5.86-3.2-11.73-6.84-16.01-12.81-15.1-34.63-16.09-50.94-5.95-3.24,2.01-16.52,14-15.94,17.46,10.69,2.51,20.83,5.03,30.4,10.65,1.03.1,1.22.11.96-.96-.58-2.47-2.91-5.44-.96-7.91,3.77,2.57,6.02,13.38,10.98,13.65,4.57.25,4.15-7.45,3.54-10.43-.48-2.33-4.12-5.23-1.56-7.3,5.71,3.16,7,10.29,6.53,16.32,11.58,3,7.04-9.8,6.1-16.33,3.1.44,4.94,5.21,5.4,7.9.3,1.77-.72,5.73,1.18,6.35,10.46.52,6.71-10.18,4.34-16.3l2.62,1.13,4.19,7.73ZM473.99,319.69l42.96-12.62c-16.59-18.22-43.61-28.77-67.3-18.2-7.65,3.42-21.09,11.26-18.3,21.26,1.8-3.38,2.88-7.6,7.16-8.86-1.53,5.87-6.64,16.96,3.41,17.05-1.63-3.41,3.39-15.11,7.15-14.33,2.08.43-1.11,3.66-1.51,4.62-1.58,3.84-3.68,13.01,2.81,12.43,4.41-.39,2.64-5.86,4.91-9.48,1.09-1.73,7.82-7.63,7.81-3.13,0,1.03-3.65,4.24-4.34,6.59-1.66,5.65-.07,8.92,6.06,6.74,3.3-1.18,13.8-13.35,9.18-2.08ZM560.42,287.2c-2.34-1.64-5.17-.11-7.29-2.29l.74,14.27,8.05-1.41.09-1.95h.67c-.14,1.5.18,1.57,1.56,1.25.74-.17,8.39-3.04,8.82-3.31.75-.46.66-1.13,1.21-1.7l-11.4-5c-3.33,2-1.62.71-2.45.14Z"/>
  <path d="M217.48,205.77c-1.18-6.53,7.23-13.1,11.05-5.94,2.47,4.63,4.22,25.05-3.11,25.02-5.72-.03-21.14-9.26-20.1-15.87,1.07-6.81,11.44-2.47,12.16-3.21Z"/>
  <path d="M607.2,236.26c-.5-.4-.76-1.58-1.51-2.21-4.36-3.65-11.47-9.6-9.46-16.22,1.87-6.13,11.64.67,12.14.21,1.51-9.37,12.91-12.57,12.99-.31.03,5.54-5.94,25.22-14.15,18.53Z"/>
  <path d="M187.35,235.89c3.02,4.95-11.72,8.53-13.43,3.53-2.08-6.08,10.19-5.98,13.43-3.53Z"/>
  <path d="M495.31,84.84c-1.89-1.77-2.38-8.65-.13-10.36,5.7-4.35,9.14,9.7,4.25,11.12-1.13.33-3.26.05-4.12-.76Z"/>
  <path d="M183.54,223.67c4.72-4.68,11.08,7.42,5.95,9.73-4.76,2.15-8.29-7.41-5.95-9.73Z"/>
  <path d="M506.55,86.54c8.55-1.74,11.03,8.71.58,7.28-6.01-.82-6.19-6.15-.58-7.28Z"/>
  <path d="M494.88,93.3c7.23-2.39,7.37,9.54,3.06,10.48-5.04,1.1-5.19-9.77-3.06-10.48Z"/>
  <path d="M482.97,91.04c-3.38-5.53,8.47-7.35,10.7-2.82,1.53,5.29-9.35,5.05-10.7,2.82Z"/>
  <path d="M204.31,234.62c5.19,6.32-11.84,8.72-9.01.47,2.39-1.83,6.84-3.12,9.01-.47Z"/>
  <path d="M187.26,242.06c6.6-2,7.23,10.32,1.49,9.07-3.11-.67-4.86-8.05-1.49-9.07Z"/>
  <path d="M573.1,462.76c-1.75-2.08-1.6-5.03.02-7.11,4.48-5.78,6.37-10.2,8.96-17.29,8.11-22.13,11.87-45.79,13.26-69.26-.18-1.97-3.28-2.14-3.89-4.19-2.71-9.12,18.53-13.46,24.74-13.87,43.39-2.83,58.3,40.3,43.47,75.53-11.89,28.26-37.87,44.16-68.68,41.82-4.13-.31-15.29-2.54-17.89-5.64ZM638.63,440.68c8.2-9.09,13.86-19.06,15.96-31.45,3.84-22.57-7.23-46.56-32.21-47.95-3.24-.18-16.37.36-17.33,3.93-.55,31.68-6.71,63.71-20.56,92.28,14.42,3.29,31.96.4,44.52-7.51,3.82-2.41,6.63-5.99,9.61-9.3Z"/>
  <path d="M456.78,205.22c12.3-.88,25.29,9.02,29.12,20.35,11.69,34.47-33.13,51.87-48.36,23.81-8.49-15.64-.76-42.72,19.24-44.15ZM452.65,210.7c-9.38,1.7-10.92,15.01-1.23,17.28,13.37,3.12,15.84-19.93,1.23-17.28ZM471.42,248.58c.45.45,3.53,1.43,4.27,1.43,7.11.05,7.73-12.26-1.9-9.99-3.48.82-4.35,6.59-2.37,8.56Z"/>
  <path d="M308.05,204.58c29.4-3.89,33.5,55.3-.18,55.62-35.02.33-26.58-52.08.18-55.62ZM311.45,210.01c-10.15,1.69-7.64,19.05,2.79,15.77,7.21-2.27,7.08-17.41-2.79-15.77ZM322.31,237.93c-4.6,1.6,1.95,8.46,4.69,3.31,1.43-2.68-2.45-4.09-4.69-3.31Z"/>
  <path d="M351.6,251.53c3.5-1.16,4.51,6.6,9.52,7.41,1.72.28,4.8.23,6.47-.27,2.77-.82,6.11-5.66,7.84-5.85,3.04-.32,3.32,2.32,4.76,3.43,4.44,3.4,9.89,4.89,15.14,2.19,2.74-1.41,6.21-8.79,8.04-4.9,2.53,5.4-5.66,11.3-10.38,12.11-6.75,1.15-11.99-.95-16.89-5.32-5.98,5.12-16.83,7.39-22.76.95-1.6-1.74-4.78-8.74-1.73-9.74Z"/>
  <path d="M374.11,146.44c2.07-.55,7.51,3.81,7.67,5.89.08.71-.72,1.72-1.26,1.97-1.03.47-10.76-6.69-6.42-7.85Z"/>
  <path d="M379,245.17c-1.72,1.59-7.77,1.21-7.28-2.1.81-3.17,10.09-2.65,7.28,2.1Z"/>
  <path d="M382.22,145.22c2.16.79,3.84,2.71,4.57,4.83.36,1.03.8.82-.49,1.82-2.69-.48-4-2.81-5.47-4.79l1.38-1.86Z"/>
</svg>