<?xml version="1.0" encoding="UTF-8"?>
<svg id="katman_1" data-name="katman 1" xmlns="http://www.w3.org/2000/svg" viewBox="0 0 841.89 595.28">
  <path d="M531.79,467.14c-2.61.41-.34-2.96-.61-4.27-1.11-1.07-10.29,5.36-11.89,5.26-.41-.03-1.08-.82-1.88-.93-1.9-.27-3.87-.38-5.76-.67-.26-1.8.33-1.02,1.38-1.21.81-.15.51-1.76.45-1.83-.56-.62-3.54,2.19-4.27.3l11.6-5.79-4.63,3.65.71,1.84-2.79,2.14c-.75,1.49,3.5.92,3.91.86,4.75-.75,10.36-6.51,13.62-7.15,1.24-.25,2.38.95,4-.08l13.86-21.72c.19-.84-.04-1.15-.9-.9-.79.24-4.31,3-5.39,3.77-7.16,5.1-13.33,11.38-20.56,16.37.98-5.6,3.41-10.93,4.62-16.46.63-2.89,1.94-9.25,2.12-11.96.13-2.02-1.69-3.61.9-5.16,1.41-.23.84.47.76,1.36-.86,9.52-3.77,20-6.56,29.15,1.1,1.12,6.34-5,7.31-5.8,2.86-2.39,15.94-12.75,18.62-13.13,1.47-.21,1,.93.64,1.87-1.12,2.94-13.42,20.46-12.54,21.33l35.4-14.64c.15.91-.05,1.44-.57,2.18-.79,1.14-7.65,7.19-9.19,8.51-4.04,3.46-8.67,7.09-13.43,9.46l.35,1.24c1.9,1.03,4.17.24,6.03.61,3.45.68,11.39,4.28,14.07,4.29,1.97,0,10.86-4.74,11.29-4.31.26,1.23-.57,1.43-1.39,1.96-3.65,2.35-9.83,4.11-13.86,5.98,0,1.12,2.27.86,2.95.81,4.54-.38,8.56-1.84,12.92-2.64l-18.31,11.6c-.24.88.25,1.02.59,1.53,1.72,2.53,5.98,2.25-.59,3.95l.3-2.47c-.75-1.78-8.42-1.33-10.36-1.18-2.33.18-4.64,1.28-7.03,1.21l4.86-7.63c-.11-1.43-6.75-.86-8.22-.91-3.91-.14-7.34-.43-11.44.17-2.06.3-4.86.74-6.57,1.97l10.98,1.53c-.41.84-3.22,1.85-3.97,1.89-1.99.13-3.13-1.67-5.18-1.28l6.71,4.27c-3.36-.77-6.38-1.27-9.39-3.14-.71-.44-.83-1.58-1.41-1.75-2.66-.74-16.49,2.81-19.71,3.97-1.56.56-12.17,6-12.2,6.71l7.32,3.37-1.84,3.03c1.39,1.92,10.52.09,13.1-.01,2.74-.11,5.52.13,8.26.03.5,2.19-2.39.92-3.66,1.22,1.67,2.3,5.55,2.03,8.4,2.89,3.51,1.06,8.02,3.34,11.21,4.05,9.77,2.15,20.78,1.5,29.77,7.46,1.24.82,2.93,2.02,3.72,3.29-3.55-.74-6.4-3.52-9.95-5-7.13-2.95-15.06-3.1-22.67-4.19-1.3-.19-2.32-1.27-3.71-1.24s-2.21,1.37-3.59,1.29c-1.18-.06-2.58-1.47-4.02-1.24.41-1.69,4.29.75,3.66-1.82l-19.28-4.84c-4.63.05-8.1,1.32-12.39-1.35l.54-3.58c-1.61.05-2.85-1.27-4.13-1.68-1.01-.32-9.43-1.99-10.22-1.99h-8.85l3.66,1.22c1.08,1.22-3.28,2.77-4.27,2.43-.33-.85,2.46-.54,1.22-1.82-.13-.13-3.17-1.06-3.46-1.08-2.46-.1-15.43,10.31-17.9,12.66l25.64-8.53c-1.52,3-6.17,2.33-7.94,4.87l8.84-2.44.31,1.22c-4.52,2-10.19,1.75-14.65,3.37-1.76.64-3.05,2.01-4.65,2.68-4.45,1.87-9.85-.14-13.06,3.72,2.71-.07,5.17-.39,7.32,1.53l-8.54,6.1c.55.79,1.23,1.19,2.09,1.57,1.06.47,8.31,2.59,9.48,2.78,1.49.24,2.59-.52,3.83-.28,4.01.79,8.12,1.84,12.06,2.96l-1.83,1.82c8.72,0,17.37,2.09,25.91,3.7l4,1.8h-9.16c-.33,1.87.58.93,1.44,1.28,1.47.58,2.9,1.22,4.39,1.74l21.97,1.22.27,1.86-14.03,1.83c8.39,5.38,16.74,4.1,25.97,4.86,1.07.09,2.01-.12,2.71.96.31,1.42-1.27.97-2.15.93-4.77-.21-11.81-1.93-16.25-1.51-5.63.53-13.45,6.44-20.05,5.76-.28-1.86.45-1,1.54-1.19,3.61-.62,8-.92,11.15-2.91.74-.47,1.24.03.14-1.09l-23.2-2.73c2.93.11,5.91-.17,8.84,0,2.47.15,6.95,1.34,9.13,1.2,1.45-.1,3.24-1.87,5.21-1.21,0-.83-1.79-1.28-2.45-1.51-3.23-1.11-7.82-1.21-10.37-3.36,4.76.24,8.98.55,13.75,0,1.13-.13.98.19.9-1.22h-11.9c-2.9,0-8.93-4.51-12.53-4.57v-1.25s2.45-1.51,2.45-1.51l-19.09-1.97-1.04-.78,1.21-2.13c-3.26-.18-6.14-1.46-9.46-1.23-.68.05-2.03-.33-1.52.91.63,1.53,10.58,5.46,12.81,5.81.59,2.11-3.02,1.27-2.43,2.73.09.22,3.11,3.37,3.35,3.37h16.79c-1.03,2.48-3.72.61-5.26.67-8.1.3-16.11,1.12-24.17-.85l-18.19-4.71.04-2.75c-.5-.45-5.07-1.86-5.98-1.99-3.07-.45-5.32.41-7.79.34-2.96-.08-6.33-.94-9.46-.49-.47-1.67,1.55-1.51,1.82-1.84.34-.4.14-1.6-.9-1.2-1.71.66-3.63,3.82-6.42,3.05-.17,1.59,0,.97.9,1.23,12.32,3.6-5.55,3.61-6.37,4.9-1.42,2.24,5.25,3.67,6.08,5.46-6,.33-11.6-2.71-17.7-2.44-1.1-.91,3.62-3.44,3.97-4.27l-.61-1.2c-1.3.38-20.67,2.74-19.24,4.85l1.83,1.23h-4.27c1.58,1.23.52,2.73.9,3.65.66,1.56,9.17,6.51,11.14,7.21,3.93,1.39,8.53,3.25,7.49-2.92,5.08.28,10,1.79,15.03,2.37,3.04.35,9.19,1.63,11.22-.53l-12.2-6.72c3.39-1.22,7.74,3.23,10.14,3.48,2.36.24,5.98-1.32,8.77.18l-.4-1.85-2.03-1.19c2.18-.63,3.52,1.74,5.23,1.83,1.26.07,2.04-.85,2.64-.89,2.61-.18,4.95.02,7.39.88l.29-1.21c1.09.96,3.52,1.13,3.37,3.04-3.64-.36-10.15-1.69-13.59-.57-2,.65-3.94.99-6.86,1.18-.94.06-1.71-.73-2.75-.32-1.61.63-.22.75.15,1.08,10.99,9.89,22.68,9.39,36.81,7.81,2.34-.26,4.8-2.65,7-.32-10.01,2.23-24.57,4.03-34.3.12-2.06-.83-5.73-3.73-7.54-4.06-3.79-.71-10.4-.26-14.62-.64-3.83-.35-7.67-1.4-11.49-1.87-2.09,2.78-.82,4.49-5.31,3.71l6.71,6.41c-.77,3.03-4,.47-5.22.32-1.75-.21-3.46.13-5.29-.2-10.74-1.93-21.12-5.81-30.8-10.7l-12.82,8.96c-2.14.36-2.57-5.56-4.22-5.95-3.86.52-12.93,5.1-16.29,4.09-1.22-.37-1.67-2.22-3.13-2.28-8.76,1.88-18.01,1.81-26.31,5.43l-.91-1.5c.89-.82,5.2-5.43,4.27-6.41l-24.1,6.72c-1.75,0,2.69-5.81,2.75-6.41l-.86-.86-14.12,6.03c-.73-.67-1.16-.76-.62-1.82.93-1.8,11.09-9.78,9.46-12.18-4.24-1.31-9.28-.14-13.66.64-2.66.48-6.52,2.31-9.3,2.35-1.56.02-2.33-1.05-3.55-1.11-1.82-.09-6.34,2.02-7.29,1.72l-1.9-3.01c-1.92,2.76-5.81,1.65-8.85,2.42.24-1.28,1.32-.96,2.15-1.2,2.29-.68,4.72-1.16,7.01-1.85.25-1.55-.26-1.29-1.52-1.22-1.58.09-8.09,2.5-8.85,1.84-.69-1.22,4.73-4.37,2.12-4.88-1.87-.37-12.74,4.22-16.02,4.73-1.32.21-3.21.48-4.42-.14.69-.36,3.05-2.59,3.34-2.6s1.06.95,1.89,1.08c2.17.34,13.52-4.51,16.45-5.5l.29,1.82,6.1-1.21-4.88,3.65,12.21-1.82c.38,1.57-.5,1.07-1.14,1.59-1.58,1.28-4.1,2.19-3.74,4.51l11.28-2.45v2.44c1.59-1.6,3.83-1.04,5.84-1.49,3.96-.89,8.84-2.92,12.99-2.73,10.66.47.07,8.52-2.04,12.76l17.7-6.7c-.89,1.32-7.69,7.93-6.71,9.15,6.24-2.82,18.73-2.55,23.82-6.39,1.99-1.5,3.57-4.05,5.23-5.76.63-.65.88-1.55,2.08-1.28l-9.49,12.79.04,1.87c6.63-2.44,13.7-2.95,20.7-3.72,1.55-.17,3.06-1.63,4.45-.4.49.44.62,1.6,1.38,1.99,2.71,1.37,7.1-1.76,9.6-2.53,1.91-.59,7.35.43,6.91-3.28,3.2,1.03.89,7.69,4.53,7.34,2.17-.21,10.18-7.46,11.64-9.78h.9c.04,1.07.57,1.44,1.39,1.97,7.81,5.05,22.55,8.42,31.75,9.77.77.11,5.21,2.2,3.5-.45-2.45-3.81-14.49-8.78-18.46-12.5-1.36-1.28-1.69-3.57-3.83-4.28-1.02-.14-.97-.06-.91.9.12,1.92,1,3.89,1.23,5.8l-9.47-6.7-2.42,3.65c-2.03-1.29-1.57-3.36-1.54-5.49-3.84-.08-5.28,4.67-9.15,4.88l3.05-7.32c-5.54-.7-12.62,4.94-16.6,8.59-1.57,1.44-2.59,2.4-2.33,4.84-1.3.17-1.33.04-1.22-1.22l-2.43,1.22c.93-2.26,2.86-4.04,3.48-6.58.21-.86.26-1.69.17-2.57l-4.58,1.81-.91-1.2,2.44-1.84c-2.3-.43-5.48,1.96-6.71-.61l3.05-.62c-.11-.83-.83-1.07-1.55-1.19-5.37-.91-11.9,1.24-17.37,1.19l4.88-3.05h-10.99l1.83-4.27c-3.73-.78-7.39,1.34-10.73,1.78-4.74.62-10.1.42-14.91.65l4.88-3.66h-8.85c-.48,0-3.4-1.64-4.58-1.52l9.76-3.37-4.88-1.83,3.05-2.43c-5.29.09-10.91,1.95-16.21,1.27-1.13-.15-.8-1.15-1.29-1.26-2.04-.46-5.2.36-7.51-.63l4.65-1.14,6.33-.38c-6.29-2.53-13.37-3.62-20.14-3.97l.78-1.36,6.54-2.6c-.71-1.08-1.64-.87-2.71-.96-1.47-.12-5.72.98-5.22-1.19h8.85c.18,0,2.26,1.35,3.32,1.56,2.74.55,5.78.69,8.58,1.49-.74,2.21-2.19.6-2.75.6h-9.77c-.34,0-1.35.9-2.14.62l1.02,1.85,25.84,4.24c-2.72-2.75-8.28-5.21-12.21-5.49-.48-2.47,2.64-.01,3.97-.6l.3-1.21c-6.56-4.03-11.99-8.11-20.14-7.94-.33,1.67.42,1.04,1.23,1.48.29.16,5.63,2.47,2.8,2.13-3.05-.37-4.41-2.05-6.96-2.82-3.79-1.16-8.95-1.06-12.95-1.4-.45-2.74,3.81-.61,4.58-.61h14.65c.29,0,1.14.91,1.82.62l.03-1.25c-5.45-2.86-10.92-10.05-15.87-12.82-.94-.53-1.71-.72-2.78-.59,1.07-3.26-4.4-5.84-6.43-7.9-4.98-5.06-6.16-10.39-14.93-6.74-1.35,1.31,4.31,2.59,5.07,2.44l.42,1.82-6.62-2.52c-1.8-4.66,7.24-2.87,7.22-4.5l-6.4-8.23c-1.8,1.28,1.46,3.19.91,4.87-3.79-1.56-2.37-5.31-3.49-7.79-.59-1.32-4.4-2.85-3.82-3.19l1.15-.06.04-.83c-1.75-2.2-3.46-7.13-6.68-4.3-1.22,1.07.62,1.27.6,2.12l-3.05-2.14,3.65-2.43c0-.83-7.15-5.58-5.79-7.63l2.45,2.44c.46.1.39-.59.29-.9-1.36-4.35-6.65-12.14-8.82-17.43-6.09-14.81-9.46-34.32-9.5-50.37-.04-12.48,9.8-19.16,18.67-25.91,1.1-2.21-4.04-11.03,0-15.85,1.16-1.39,3.42-1.3,4.38-2.03.7-.53,1.45-2.78,2.6-3.81,3.44-3.07,3.98-.46,6.48-.28,1.45.1,2.41-1.08,3.67-1.23,5.64-.63,8.25,8.39,10.33,8.58l27.37-8.68c2.65-4.42,3.88-9.75,6.27-14.48,1.03-2.03,6.73-10.35,6.73-11.37-.01-1.59-6.15-5.28-7.72-6.71-11.96-10.83-19.87-23.02-19.39-39.54.04-1.26,1.32-2.85.79-4.1-.46-1.09-6.54-6.36-7.96-7.94-21.12-23.63-34.39-52.36-23.15-84.3-10.09-13.5-21.12-30.47-25.81-46.82-2.55-8.91-2.94-12.68,7.92-10.98,6.96,1.09,19.06,6.08,25.7,9.1,1.81.82,8.71,4.99,9.74,4.73,5.12-6.37,9.26-13.44,14.48-19.75C311.41,9.79,429.76,1.72,506.69,72.56c32.65,30.06,58.25,79.5,62.34,123.85.19,2.07-.55,11.05.69,11.82l33.16-2.38c7.22.41,14.87-.46,22.03,0,2.22.14,7.97.49,8.7,2.89,1.04,3.43-3.9,17.13-5.35,21.27-8.35,23.8-20.66,50.74-32.67,72.93-1.84,3.41-7.01,13.44-9.45,15.58-1.9,1.67-3.23,1.71-5.68,1.36l-34.24-12.11c-7.6,10.51-18.11,18.99-29.78,24.69-2.06,1.01-13.63,5.23-13.93,6.25s.27,1.43.87,2.07c2,2.17,10.32,6.09,13.57,8.4,6.92,4.91,14.51,12.05,14.85,21.17.76,20.93-5.74,43.95-14.15,62.82-2.25,5.05-5.99,8.87-4.79,15.04,2.32-.51,2.17-2.92,3.34-4.89,3.22-5.44,7-11.01,11-15.86l.3.9c-5.45,8.15-12.31,15.98-14.04,25.95l-1.04-1.4-1.39-8.36c-1.4,2.41-1.39,4.57-1.24,7.32l-.91-1.24-1.43.13c-.41,1.82-4.04,4.8-2.88,6.61.95,1.49,4.24,1.12,4.54,2.2.53,1.92-.7,5.05-2.98,5.12l1.22-3.34-2.04-.84c-4.62,3.34-9.64,5.29-13.22,9.98,1.13,1.57,1.04.35,1.88.07,3.45-1.15,8.12-3.77,11.52-1.29l-7.47,1.06c-6.18,1.91-11.78,6.15-15.71,11.15,1.97.43,3.99-2.06,5.8-2.75l.29,1.2-11.59,6.42c3.59.63,7.16-1.56,10.74-2.07.67-.1,3.3-.59,3.29.54-4.03,1.21-9.39,1.95-13.17,3.62-.92.41-1.71.64-1.48,1.87,4.02-.66,9.18,1.86,12.98,1.09,2.69-.54,7.39-4.37,10.19-5.69,6.32-2.99,14.73-4.6,21.56-5.91,1.2-.23,2.26-.99,3.5-1.09.05-2.15-2.39-2.34-3.94-2.46-5.39-.44-11.69,2.91-17.43,1.85l5.81-7.92c1.2-.28,1.14.63.81,1.43-.64,1.59-3.78,3.09-4.18,5.28,5.5.67,12.64-4.17,17.66-1.47,1.21.65,1.95,2.62,3.44,2.74.57.05,4.92-1.61,6.7-1.84,5.38-.71,12.1.12,17.71,0,1.54-.03,4.35-1.55,4.26.59-2.58,1.05-1.79,4.74-3.98,6.71h10.68c.55,0,8.57-5.17,9.42-5.84s2.03-1.45,1.87-2.7c-4.59,1.15-9.26.55-13.71,1.19l-2.15-3.63c3.68-.12,7.35.61,10.72-1.17.62-.33,1.16.33.87-1.27l-22.58-5.19c5.4-3.17,10.72-6.69,15.55-10.7,1.32-1.1,6.91-5.93,7.66-6.99.57-.8.44-1.49-.31-1.52l-36.16,16.02-1.39,5.33c1.07-.59,7.5-1.43,9.16-2.13l.6-1.53-4.27-.61c4.65-1.16,7.33-3.9,5.14,3l-4.53,5.54,13.73,1.2.3,2.47c-5.38-2.66-12.98-2.63-18.92-1.83.84-1.71,2.85-2.27,4.2-3.45.62-.54,2.11-1.71,1.9-2.65-1.44-1.13-9.69,4.12-11.59,3.36,1.03-1.62,2.63-1.64,4.09-2.35.28-.14.14-.99.18-1.01ZM525.43,169.5c8.18,8.94,15.26,18.46,21.5,28.86,1.41,2.35,5.12,10.71,6.86,11.49.77.34,10.72-1,11.33-1.48,1.3-1.02.96-5.88.88-7.72-.56-13.17-4.5-29.5-8.62-42.05C519.35,42.8,388.11-12.49,283.39,58.5c-20.35,13.79-36.88,31.83-50.08,52.5-.28,1.17,5.64,4.43,6.73,4.24,20.84-15.37,45.32-25.22,71.39-26.86.97-.47,3.7-7.7,4.65-9.39,18.1-32.13,70.3-40.96,91.56-7.49,6.52,10.27,6.62,19.35,6.6,31.25,11.26,3.14,22.34,6.9,32.54,12.68,15.65-6.36,31.86-14.59,48.26-19.26,5.11-1.46,11.58-2.81,16.88-1.97,5.6.88,3.02,8.42,1.67,11.98-4.59,12.14-14.27,23.04-20.77,33.99,11.44,9.18,22.7,18.52,32.61,29.35ZM411.68,104.39c-.77-.62.02-10.72-.16-12.97-1.93-24.65-24.27-39.96-47.9-38.77s-43.05,16.35-50.36,38.16c-2.89.75-5.94.02-8.86.3-17.29,1.68-38.69,9.32-53.34,18.7-1.84,1.18-9.02,5.76-8.66,7.83l5.72,3.27c20.07-11.37,42.48-18.56,65.77-19.07,2.38-14.26,10.13-27.71,22.36-35.64,21.83-14.16,53.34-10.62,66.39,13.35,6.3,11.58,5.62,22.35,2.17,34.76,9.34,2.19,19.01,4.75,27.28,9.67,3.01-2.05,6.76-3.31,9.78-5.28.59-.38,1.61-.66,1.4-1.63-.3-1.41-12.55-6.53-14.65-7.33-5.53-2.1-11.31-3.56-16.94-5.34ZM396.66,128.74c.64-.69,4.09-5.33,4.23-5.86.26-.99-.41-2.77-.22-4.44.6-5.22,4.14-11.05,4.67-17.34,1.2-14.2-6.87-27.56-18.41-35.16-37.02-24.37-89.6,22.01-64.68,59.79,16.57,25.12,54.84,24.13,74.4,3ZM511.55,97.3c-1.11-1.76-4.26.23-5.24.38-2.26.35-4.01.33-6.4.92-2.52.62-20.39,6.39-20.63,7.46-.09,1.04,1.13,1.39,1.48,2.17,2.26,4.97-2.69,20.8-4.51,26.53-2.81,8.86-6.65,17.45-10.4,25.92l6.64-5.28c12.43-11.6,30.2-34.03,37.22-49.44.89-1.95,3.03-6.77,1.83-8.67ZM216.79,152.15c-4.71-14.87-8.1-31.09-3.91-46.4-.84-1.8-17.76-7.39-20.42-7.62-2.27-.2-3.94,1.13-3.63,3.49.48,3.65,4.95,13.36,6.69,17.17,3.15,6.89,7.48,15.02,11.62,21.35,2.65,4.05,6.06,8.87,9.65,12.01ZM313.86,103.92c-17.92.32-36.01,4.54-52.11,12.3-2.23,1.08-8.57,3.94-10.13,5.13-.61.47-.81.64-.64,1.48l7.35,4.01c16.85-9.33,36.09-14.25,55.39-14.8,2-.9-.63-6.22.13-8.13ZM214.71,105.81c-1.38.35-2.07,7.29-2.18,8.8-.85,12.07,2.66,33.57,9.27,43.83,5.13,7.97,18.43,17.46,26.73,22.11,2.33,1.31,10.18,5.64,12.21,6.14.71.17,1.06.47,1.83-.02s5.11-6.85,6.41-8.28c3.25-3.56,7.58-7.64,11.36-10.62,2.35-1.86,9.1-4.26,7.57-7.66-18.1-24.87-45.54-41.78-73.2-54.3ZM403.6,192.44c15.66-.84,32.53-7.05,45.37-15.98,16.01-11.13,28.66-41.7,30.87-60.7.41-3.52.59-8.74-3.85-9.41-36.84,13.36-69.43,36.14-97.12,63.49-1.18-2.4,5.31-4.69,2.76-7.03-.83-.76-8.23-3.51-9.92-4.12-37.35-13.62-87.63-5.15-108.78,31.35-7.55,13.04-8.38,26.06-11.64,40.25-1.12,4.85-3.92,9.51-3.36,14.64,5.86-6.8,13.7-1.36,17.48,4.8,6.61,10.78,7.14,26.7-5.26,33.35l22.57,18.32c-.48.91-1.47-.14-2.01-.44-2.31-1.29-4.74-2.51-6.84-4.13-.41.56-1.19.55-.53,1.18.39.38,3,2.78,2.67,3.07l-3.68-1.56c-4.74,6.52-8.92,14.91-10.82,22.78-3.71,15.36-.75,34.99,7.18,48.68,4.46,7.7,12.87,16.83,22.58,16.18l-7.83-13.25,1.11-1.39,11.44,12.73c1.18.54,3.34-.65,3.14-1.94l-7.85-15.07c1.88-1.88,9.25,10.33,11.4,10.92,3.7,1,4.39-10.2,4.49-12.42.66-13.92-2.71-23.27-4.76-36.2-.1-.65-.65-2.12.45-1.97,1.27,4.4,3.15,8.73,4.22,13.18,1.89,7.92,4.22,21.94,3.05,29.79-2.03,13.56-11.71,22.07-25.57,18.08,1.55,5.34.25,9.11-3.67,12.81,2.96.82,8.22.35,10.39,2.74,1.7,1.86,1.32,6.37,1.98,9,2.42,9.59,7.95,19.06,17.82,22.47,15.05,5.2,24.44-4.28,31.07-16.58,2.08-3.86,1.27-5.51,5.26-8.78,4.48-3.68,7.84-3.85,13.36-4.65.62-6.63,2.15-13.14,3.27-19.62.14-.79,2.17-5.48-1.15-4.24-2.24.84-4.4,1.95-6.77,2.42-4.1.82-11.46.65-15.67.1-17.38-2.25-13.03-23.26-9.48-35.01,5.02-16.62,16.86-35.02,30.9-45.41,2.21-1.64,7.92-5.49,10.34-6.15,1.14-.31.9.29.85,1.16-14.52,7.16-26.9,22.79-33.87,37.26-3.89,8.07-10.13,25.96-8.25,34.48.18.82-.08,1.54.92,2.12,2.23-2.59,4.08-6.35,7.01-7.92.92,1.16-9.22,15.33-.04,14.6.56-2.4,4.84-9.68,7.08-10.32s-.59,2.79-.86,3.42c-.69,1.65-3.1,7.27-1.33,8.51,2.37,1.67,18.52-1.24,21.74-3.37,3.61-6.26,6.45-12.93,10.16-19.14,1.79-3,4.39-5.51,6.09-8.57,2.82-5.09,4.02-14.67,11.74-13.79,2.98.34,5.24,2.43,5.26,5.45.41.38,6.36-3.62,10.38,1.51,1.57,2.01,1.05,4.97,1.24,5.17s3.12.23,4.85,2.16c2.34,2.61,1.18,4.84,2.14,7.02.59,1.35,5.92,5.79,7.51,8.36,2.2,3.54,3.3,7.71,5,11.48-1.02,1.24-.95.3-1.29-.54-2.59-6.49-5.8-13.17-12.14-16.84l-24.43,46.39c7.35.71,14.55-1.08,21.76-1.73,2.21-.2,4.96.14,7.23-.11,3.76-.4,30.51-3.9,31.5-5.27.37-2.03,1.58-4.85,1.64-6.8.16-5.22-13.43-17.52-16.94-21.82-2.52-3.08-5.11-5.11-.34-7.02,4.83-1.94,10.3-2.8,14.88-5.57.23-1.61.24-3.34-.04-4.95-.45-2.58-3.17-12.61-4.27-14.66-1.6-3.01-3.75-1.08-6.25-1.03-6.72.14-20.7,1.46-17.56-9.02,1.43-4.76,10.96-16.5,11.13-20.06-2.99-7.27-6.59-14.3-9.46-21.63-.67-1.72-.94-4.95-1.56-6.23-.49-1.02-2.78-1.26-1.82-4.14l-4.27,4.26c9.38-13.68,10.08-31.17,8.54-47.3-1.27-13.35-4.76-26.37-10.36-38.52-1.46-.2-3.28-1.22-4.62-1.44-2.04-.34-3.83.1-6.19-.55-1.04-.29-1.7.44-1.41-1.3ZM354.76,150.32c-16.53-.97-31.87-11.06-39.18-25.84-.87-1.77-3.29-9.77-4.57-10.12-17,2.34-34.79,5.26-49.65,14.29l17.12,15.24c2.57,1.76,11.33,15.13,12.61,15.5,1.41.4,11.48-4.3,14.22-5.11,8.33-2.45,21.59-4.61,30.22-4.64,5.44-.01,11.96,1.54,17.41,1.63.92.01,1.5.3,1.82-.96ZM324,131.01c-4.56-5.09-6.61-9.18-9.23-15.49-.72,1.71.7,4.24,1.42,5.9,12.83,29.52,55.73,36.28,79.18,15.48,2.25-2,10.6-9.41,6.1-11.61-18.35,25.02-56.17,29.49-77.47,5.72ZM403.98,116.17c-1.67.49-.55,7.48.85,8.19l17.4,5.75,7-4.52c0-1.06-7.02-3.9-8.37-4.44-2.19-.87-15.7-5.32-16.87-4.98ZM355.98,150.93c.18,1.07,1.22,1.08,2.04,1.31,5.12,1.44,10.46,2.04,15.63,3.9,1.94.7,9.57,4.73,10.58,4.47l34-28.31c0-1.29-10.05-4.39-11.89-4.65l-.8.19c-4.57,8.97-14.59,16.84-23.95,20.3-2.22.82-8.59,2.77-10.66,2.77h-14.96ZM549.5,210.75c.85-.83-2.31-6.55-2.95-7.73-12.6-23.35-34.08-43.89-55.06-59.71l-2.32-.2c-.32,2.09-6.23,5.99-5.34,7.8,20.74,15.97,39.06,32.56,53.47,54.63,1.13,1.72,2.56,6.26,4.52,6.38l7.68-1.17ZM537.89,211.96c-8.27-15.84-20.85-29.99-34.18-41.82-2.59-2.3-20.75-17.38-22.3-17.39-1.2,0-5.27,4.67-4.29,6.12,17.58,12.18,33.87,26.44,46.98,43.38,1.25,1.62,6.52,10.31,7.06,10.65,1.67,1.05,4.86-.75,6.72-.94ZM216.17,157.65l-1.25.36c-8.8,26.93,3.07,54.31,20.48,74.73,1.64,1.92,4.93,5.72,6.71,7.31.67.6,1.01,1.49,2.15,1.23.18-1.21-.32-2.06-.94-3.02-2.41-3.72-7.22-8.27-10.01-12.11-12.34-16.99-20.21-34.89-15-56.3.66-2.7,3.25-5.43,1.47-8.16-.89-1.37-3.54-1.81-3.61-4.03ZM505.89,185.98c-7.52-7.4-15-13.4-23.51-19.52-2.09-1.51-6.29-6.15-8.85-5.78-2.52,1.57-4.67,4.44-7.05,6.44-13.74,11.55-29.06,22.38-46.99,25.96-.76.87,4.34,13.13,5.02,15.38,5.87,19.15,7.51,37.48,3.83,57.26-.58,3.13-2.43,7.3-2.73,10.11-.7,6.52,9.26,24.87,12.41,31.45,1.34,2.79,6.8,16.39,8.34,17.29l10.34,2.17c.31-3.39-4.1-10.69-2.76-13.42,1.71-3.49,12.74.86,16.03,1.1l1.36-.86-19.34-65.43c-1.53-9.06-2.23-10.66,6.12-14.3,11.89-5.18,29.06-9.78,41.8-13.14,9.56-2.52,19.31-4.22,28.82-6.9,1.33-1.76-20.59-25.59-22.85-27.81ZM222.91,166.19c-9.04,21.68.24,42.21,13.45,59.49,1.19,1.56,8.52,10.91,9.42,10.71,5.23-5.26-2.31-10.32-5.43-14.71-10.95-15.42-20.49-34.53-15.13-53.89l-2.31-1.61ZM228.62,170.21c-.32-.24-.23-1.91-1.12-.34-2.47,4.35-.26,17.61,1.08,22.7,2.61,9.92,8.66,21.49,15.1,29.46.62.76,4.02,4.71,4.55,4.59.91-.53.74-1.31.97-2.09,1.75-5.95,2.11-12.77,4.07-19.13,1.6-5.22,4.01-10.02,6.21-14.98-.36-1.43-13.5-7.74-15.89-9.2-5.5-3.35-9.95-7.13-14.96-11.01ZM629.96,209.64c-18.5-1.53-37.81-.49-56.35,1.12-27.64,2.39-54.11,7.59-80.89,14.95-9.66,2.65-27.23,6.95-35.54,11.46-2.3,1.25-3.63,2.04-3.55,5l21.4,75.11-18.32-3.35,10.99,43.63-1.38.82-10.22-2.32c2.7,14.07,2,28.48,1.22,42.73,8.74-.61,7.62-3.95,7.32-11.29-.13-3.15-2.42-11.53.27-13.17,3.6-2.19,13.56,4.11,18.05,3.09l-1.92-38.07-9.07-3.74c.84-1.15,1.25-.91,2.43-.64,6.02,1.39,17.04,6.03,22.47,6.28,4.46.21,2.87-6.11,2.56-9.3-1.36-14.17-4.87-28.23-6.1-42.44,2.03-.26,3.82.22,5.77.65,21.3,4.64,47.25,14.29,68.09,21.65,3.33,1.18,11.77,5.4,14.46,5.64.7.06,2.31-.72,2.87-1.16,1.58-1.28,8.4-13.66,9.86-16.38,7.07-13.16,13.61-27.8,19.5-41.54,4.5-10.48,15.9-35.42,16.67-45.65.09-1.13.04-2.09-.59-3.06ZM257.82,280.21c.72.42,2.24.18,3.09,0,12.12-2.71,8.5-34.89-5.5-36.96-4.67-.69-8.18,3.04-8.7,7.5-.75,6.46,2.29,15.75,5.48,21.38.58,1.03,5.21,7.84,5.64,8.09ZM526.26,301.13l-29.27-8.58,3.68,25.61c7.66-1.37,20.7-8.27,25.03-14.9.46-.71.81-1.24.55-2.13ZM534.8,304.19c-1.98-.22-5.29-2.22-7.16-1.12-.24.14-.55,1.23-1.01,1.7-7.29,7.46-14.81,12.22-24.77,15.55-1.21,1.14.37,5.77.3,7.68.63,1.13,6.83-1.83,8.06-2.37,8.18-3.57,19.55-10.75,24.03-18.7.53-.94.83-1.62.55-2.74ZM542.13,306.02c-4.6-1.93-4.79,1.78-7.28,4.56-5.8,6.48-11.53,10.96-19.33,14.86-2.12,1.06-11.61,4.44-12.44,5.26-1,.99-.53,2.71-.59,3.99,1.74,1.75,21.8-9.72,24.61-11.71,3-2.13,14.24-12.02,14.95-14.98.15-.64.24-1.31.09-1.97ZM445.1,336.51c.6-3.1-8.14-24.41-9.46-24.41l-11.8,19.37c-.49,2.29,3.04,5.04,5.08,5.04h16.18ZM218.02,324.91v12.21c-1.19-.24-1.08-1.22-1.22-2.13-.61-3.74.6-9.64-4.55-10.11-6.6,2.74-.8,7.33-1.56,12.24-2.61.02-1.72-4.9-3.29-6.16-2.42-1.94-4.52.14-4.68,2.82-.39,6.56,3.03,10.67,5.21,16.18,4.41,11.18,8.08,22.38,14.14,32.87,1.07,1.86,4.56,7.6,6.01,8.64,2.49,1.78,17.18,5.02,21.07,5.79,2.15.42,6.81,2.2,7.63-.31.65.39.54,1.51,1.39,1.82,4.93,1.77,12.4,1.31,17.56,3.09,5.95-.95,8.9-5.02,7.32-11.03-1.13-4.3-6.91-5.46-9.88-8.13-2.51-2.25-7.11-11.04-8.31-11.84-2.8-1.86-13.8-.22-16.92-5.05-.5,2.4.76,4.3,1.16,6.46.07.39.46,2.68-.56,1.78-4.67-10.97-8.71-21.32-14.77-31.63-2.2-3.75-7.8-13.41-10.48-16.08-1.06-1.05-4.24-3.01-5.27-1.44ZM231.48,332.88c-.45,6.62,6.24,1.39,9.62.16,4.88-1.78,9.94-3.22,14.95-4.58,1.68-.98,2.53-3.79-.21-3.28-7.86,1.44-16.56,5.66-24.36,7.71ZM459.14,332.84c-.44-5.73-7.82-4.35-12.21-5.48l1.21,3.36,10.99,2.13ZM255.71,334.52c.96-.99,1.34-4.09-.62-4.01l-20.55,6.65c-.88,1.02,3,7.51,3.97,8.47.5.5.55.87,1.48.64,1.01-2.31,4.66-5.46,6.78-6.96s8.11-3.92,8.94-4.78ZM459.64,335.41l-9.26-1.91c-1.53.43-.51,3.15-.2,4.35,1.23,4.89,3.53,10.08,4.8,15.04l9.66,1.93-5-19.41ZM256.47,337.72c-1.43-1.54-14,8.34-14.95,10.39-.85,1.83,2.18,8.7,3.25,10.78,3.83,7.42,10.21,10,18.42,9.35-3.86-9.99-6.18-19.75-6.72-30.52ZM363.61,407.32h24.42c3.82-5.6,7.41-11.42,10.79-17.29,3.3-5.73,16.32-28.06,16.43-33.07.07-3.21-2.5-7.25-6-5.34l-5.03,3.81c0-3.84,7.69-8.06,1.83-10.68-6.58-2.95-7.94,1.67-11.6,5.8,1-4.02,4.69-11.9-2.67-11.4-5,.34-6.3,8.26-8.22,11.81-2.02,3.74-5.19,7.53-7.43,11.5-5.55,9.85-13.83,31.05-13.49,42.12.03,1.11-.07,2.06.97,2.74ZM485.73,343.22c-1.26.33-1.02,3.5-.97,4.6.29,5.72,1.62,11.94,1.88,17.65.13,2.91.49,13.02-.15,15.16-.26.88-1.03,1.56-1.98,1.61-2.91.15-14.39-5.32-16.25-3.97-1.55,2.81-.12,6.39.03,9.21.1,1.91-.67,8.95.98,9.43,12.45-3.29,25.17-6.5,36.48-12.88,4.1-2.31,12.6-7.75,13.69-12.55,2.03-8.92-8.52-16.13-15.2-19.95-5.64-3.23-12.42-6.17-18.53-8.31ZM347.44,414.64c18.51.21,36.75.76,55.24-.61,30.59-2.28,96-10.41,119.06-31.11,8.36-7.51,10.13-15.01,2.72-24.12-3.1-3.8-17.37-14.61-21.81-15.46-2.82-.54-6.15,1.32-9.31-.12-.34,1.77.52.97,1.34,1.37,12.08,5.91,39.58,17.61,23.4,34.66-10.05,10.6-36.35,17.63-50.5,20.93-34.14,7.96-69.44,10.4-104.61,9.6-2.85-.07-6.03-1.22-9.12-.62-.75.14-4.76,3.32-5.65,4.08-.44.38-1.15-.02-.77,1.4ZM198.7,356.25c1.62-1.66,7.29-4.66,6.22-6.92l-1.74-1.14c-10.18,6.65-23.51,18.14-13.56,31.06,16.43,21.34,67.65,27.41,92.83,31.16,2.49-.03,4.28-2.25,6.38-3.41-.21-2.23-1.62-.84-2.66-.98-22.92-3.08-75.98-10.09-90.38-29.29-5.91-7.88-3.41-14.01,2.91-20.49ZM222.29,389c-7.36-10.93-12.06-23.17-16.78-35.39-5.72,3.68-12.95,10.31-9.92,17.83,1.2,2.97,6.48,7.92,9.16,9.76,2.24,1.54,15.91,9.01,17.54,7.79ZM453.64,385.95c.95-8.21-.06-16.24-.88-24.44l-1.71-.49c-2.07,1.55-15.71,4.5-15.7,6.31l3.34,3.98,14.96,14.64ZM524.27,399.8c2.13-2.57,1.6-6.27,2.07-9.22.51-3.17,1.95-6.67.87-10.12-9.47,9.57-22.52,15.67-35.23,19.71-10.59,3.36-22.38,6.31-33.17,8.34-2.53.48-8.42-.13-10.08,2.13-1.05,1.44-1.48,5.03-3.33,6.44-.78-1.96,2.13-4.59,2.15-6.4-3.56-1.87-5.82,4.37-7.34,7.01l-1.2-.29,2.79-5.17-.66-1.24c-13.54,1.95-27.22,4.01-40.9,4.87-2.64.17-5.32-.14-7.95-.02-1.44.06-2.78.61-4.22.66l-41.22-.02c-.39,4.93-1.12,9.87-2.88,14.51-6.72,17.72-26.33,23.04-42.9,15.69-9.92-4.4-17.04-14.89-18.25-25.71-.78-7.01,2.61-8.44-5.94-9.93-28.4-4.97-60.02-6.95-83.55-25.72-.88-.7-2.44-2.76-3.08-3.03-.98-.41-1.8,2.81-1.84,3.33-.84,11.86,4.39,16.38,13.56,22.18,12.93,8.19,30.58,13.59,45.36,16.91,8.28,1.86,16.75,2.91,25.01,4.91,14.62,34.03,55.76,45.27,79.88,13.29,1.32-1.76,3.55-6.84,5.43-7.39,22.76-.29,45.54.66,68.11-2.71l2.27-1.39,8.85-11.29c.88.45-.1,1.49-.42,2.02-.62,1.01-7.77,9.72-7.21,10.18,1.46-.32,3.32-.45,4.61-1.19,2.54-1.46,5.09-8.26,7.3-9.18,3.09-1.28-2.2,4.02-2.41,4.31-.51.72-2.71,4.26-2.17,4.84,19.72-3.36,39.35-6.91,57.97-14.36,8.08-3.23,24.31-10.41,29.74-16.96ZM524.46,403.05l-13.5,8.77c-34.62,18.86-86.99,25.2-125.96,26.66-9.03.34-18.19-.21-27.18-.34-9.42,17.36-27.72,28.42-47.78,25.19-17.15-2.76-32.46-15.99-38.89-31.92-24.96-4.2-53.08-9.35-74.09-24.19-.89-.63-6.5-6.02-7.12-5.38,8.46,32.32,30.52,62.81,55.87,84.22,77.64,65.56,194.04,50.92,254.12-30.31,8.97-12.12,21.31-33.66,24.25-48.39.29-1.44.38-2.84.27-4.3ZM290.64,408.55c-8.9.35-6.53,13.84-4.55,19.51,6.6,18.94,32.68,26.83,47.92,13.15,5.97-5.36,10.24-12.84,10.07-21.07-6.26,9.39-14.09,20.63-26.86,19.52-5.16-.45-10.19-2.79-14.06-6.08-8.51-7.23-10.14-14.51-12.52-25.03ZM450.6,512.93c-2.03-.31-13.98,2.63-14.03,3.96,2.92,2.39,8.7-.81,11.7-2.33.71-.36,2.29-.77,2.32-1.63ZM448.16,521.47h-9.77l6.11-1.84c.23-1.49-.21-1.36-1.48-1.18-5.21.77-11.69,4.78-17.45,4.85-.16,1.63,0,.98.92,1.2,6.34,1.52,6.72-.3,11.65-1.16,2.97-.52,7.94.18,10.03-1.88ZM457.16,523.46c-2.41-2.52-10.06-2.91-7.2.66.9,1.12,3.56.13,3.08,2.23-2.71.86-3.67-2.57-5.77-2.77-2.26-.21-6.27,1.42-8.88,1.24,2.54,2.49,6.55,2.54,9.76,3.37l-1.83,3.04c1.49.8,5.22.16,4.9,1.83l2.7-2.45c.88,1,3.18.77,3.75,1.19.89.65.03,2.01,1.25,2.36l11.81,1.34c1.99-1.72-8.18-4.35-8.54-5.19,1.24-1.17,5.28,1.95,4.88-.9-2.15-.82-6.91-2.06-8.5-3.41-.98-.83-.85-1.95-1.42-2.55Z"/>
  <path d="M178.12,447.21c3.93,3.98,8.37,9.29,10.6,14.44,2.14,2.11.56-5.8.55-6.4-.03-1.51.31-6.92,2.46-5.18.5.4,3.43,10.13,3.71,11.71,2.62,1.29.72,2.91,1.82,5.35-1.73.33-.99-.44-1.39-1.33-1.72-3.83-2.95-8.64-4.11-12.71-1.7-1.83-1.26,5.05-1.16,5.75.45,3.23,2.76,6.41,2.7,9.51-4.05-4.51-7.07-10.08-10.98-14.66-2.5-2.92-9.63-10.44-12.49-12.54-.83-.61-1.28-1.13-2.47-.88,5.77,11.74,12.43,21.85,22.58,30.21-.65,1.03-1.34-.25-1.82-.62-.98-.75-6.56-6.01-7.33-5.18-.19,1.11.1,1.82.56,2.79.43.9,3.32,3.38.97,3.31l-12.52-10.98c.89,4.59,5.5,8.45,8.53,11.91l-2.34.8c-1.16-3.83-4.86-6.46-6.7-10.08-.67-1.32-2.45-4.95.3-3.98,2.96,1.05,5.62,4.21,8.43,5.64.72.36,1.47.77,1.52-.32.11-2.22-16.47-24.71-14.63-26.56,1.5-.2,2.52.79,3.6,1.58,2.78,2.01,7.18,5.94,9.61,8.4Z"/>
  <path d="M176.5,512.93l-14.25,4.97-1.01,1.73,21.36-.6c.34,1.46-.25.99-.79,1.36-1.16.79-2.91,1.24-3.48,2.9,4.47.42,8.71-.86,12.82-2.43,1.22,1.18-6.18,5.23-5.49,7.32,2.18-.56,4.96-.27,6.98-.64,6.47-1.18,12.62-4.33,19.57-4.84,5.72-.42,13.76-.85,18.61,2.13-.9,2.14-4.44-.55-5.95-.78-3.61-.54-7.98,2.29-11.62,3.35-3.26.95-12.08,2.91-15.1,2.65-1.53-.13-.97-1.78-2.42-1.93-2.2-.23-3.52,1.07-5.48,1.31-2.93.36-6.47-.29-9.48-.02v-2.44c2.03,3.52,7.07-2.39,6.1-3.66-2.08,1.52-4.23,1.22-6.68,1.28l-.33,1.77-6.42-1.83,3.66-3.65c-9.01-.46-18.9.82-27.77-.58-1.03-.16-2.04.16-2.75-.96-.37-1.24,2.15-1.24,2.91-1.34,1.76-.24,6.31-.95,7.75-.81,1.16.11,1.01-.1.92,1.24-1.56.11-4.67-.51-5.49,1.22h6.71s-.61-3.04-.61-3.04c6-.3,11.59-3.97,17.7-3.66ZM217.4,523.92c-.64-.84-9.98.99-11.72,1.4-2.13.49-5.66.92-6.59,2.87,4.82-.39,11.73-.85,16.29-2.32,1.07-.34,2.26-.4,2.02-1.94Z"/>
  <path d="M621.14,467.37c-5.47,3.99-18.77,15.5-21.64,21.39-.43.89-.89,1.7-.48,2.72l5.41,1.3c-.25,1.9-5.47.13-6.33-.55-1.32-1.05.31-3.99.95-5.14,5.32-9.54,27.77-25.48,37.71-30.66,1.4-.73,7.09-1.95,6.74-3.63-.56-.88-1.19-.85-2.1-.95-12.14-1.38-33.59,4.92-45.5,8.89-2.89.97-6.4,3.21-8.94,3.89-1.15.31-.88-.27-.84-1.15,12.09-4.37,24.2-9.42,36.98-11.56,4.52-.76,7.89-.53,12.17-.6,3.41-.06,6.95-2.17,9.42,1.55.39,2.24-8.43,5.09-10.27,6.11-4.17,2.3-9.45,5.61-13.28,8.4Z"/>
  <path d="M167.35,472.63l-1.82-3.05,6.72,1.83v1.83c-1.89.39-9.9.22-10.38,1.53l1.22.6-.91.9-30.83-6.08c5.46,4.24,11.93,7.24,18.31,9.77-1.16,4.25-2.64.49-3.81-.23-2.59-1.59-18.64-8.41-18.16-11.06.85-1.33,1.21-.52,2.19-.4,8.08,1.01,21.16,5.34,28.09,5.51,2.83.07,6.4-1.52,9.39-1.16Z"/>
  <path d="M202.14,516.59c-.1-.9,1.59-1.1,2.19-1.16,1.9-.21,3.84.02,5.74-.06.81-.71-3-3.3-3.52-3.54-1.47-.65-2.28-.02-2.8-.16s-.11-1.24-1.21-1.19c-2.98.13-10.24,3-12.2,2.36-.66-.22-1.08-.69-1.02-1.41l1.18-4.55-13.37-4.95c-.15-1.08,1.4-.64,1.97-.45,3.99,1.32,8.03,3.66,12.25,4.59,1.21-.87,8.02-6.08,8.64-5.98.8.12,1.05.28,1.53.93-5.21,2.38-9.28,4.86-10.98,10.68,8.12-1.61,15.97-4.46,24.41-3.65-.76,2.31-8.56.26-8.53,2.13,1.94,2,5.38,3.51,6.09,6.41h-10.38Z"/>
  <path d="M487.84,514.75c-.34.89-8.15-3.4-5.81-.59,1.91,2.29,12.25,7.76,15.31,8.5,4.78,1.15,9.71,1.2,14.45,2.03,3.81.67,8.64,2.41,12.4,2.87,4.04.49,8.25-.93,11.57-.62.91.08,1.91.17,2.13,1.25l-17.7-.61-.3,1.83c-1.57-.84-3.54-2.22-5.18-2.76-7.11-2.33-14.3-.98-21.53-4.11-1.9-.82-12.41-6.85-13.7-7.97-.4-.35-1.44-2.03-1.43-2.55l1.11-.4c.34-.39-1.47-2.09.45-1.75,2.01.35,6.99,3.13,8.23,4.89Z"/>
  <path d="M141.1,481.8c-2.6,2.57-7.1.39-10.75,1.76-.84.32-1.05-.2-.85,1.29l23.5,2.49,9.47-1.26-2.44,2.43,7.32,1.83c-4.06.49-8.69-1.98-12.51-1.88-2.74.08-9.48,2.88-11.49,2.4-.43-.1-1.02-.63-1.02-1.12,2.06-.07,5.43.13,6.71-1.83-7.75-.62-17.29-.17-23.8-4.59,1.25-1.14,3.22-.11,4.51-.31,1.04-.17,1.7-1.1,3.08-1.24,2.42-.26,5.82-.25,8.27.04Z"/>
  <path d="M216.19,534.9l.3-1.83c-10.07,3.05-20.58,4.01-31.12,3.66-6.47-.21-9.18-.76-14.94-2.76-3.04-1.06-7.63.05-9.79-2.11,2.86.03,6.43.2,9.19.88,2.26.55,3.4,1.98,5.12,2.21,5.79.78,19.54.41,25.7-.01s13.47-2.55,19.81-3.69c.79.78-3.77,4.1-4.27,3.66Z"/>
  <path d="M572.69,500.11c.05.98.29,1.38-.9,1.21-2.13-.3-5.79-2.55-7.98-3.02-2.11-.45-5.26-.32-7.74-.8-1.82-.35-2.92-2.14-5.35-1.07l1.22-1.82c-8.41-3.33-16.81-4.54-25.82-4.88l-1.04-2.13c.74-1.21,1.02-.54,1.69-.52,10.84.28,21.72,6.18,31.72,9.22,1.23.37,2.78-.1,3.99.28,3.38,1.06,6.61,3.1,10.21,3.53Z"/>
  <path d="M156.97,500.11c.34,1.76-.51.97-1.34,1.38-8.7,4.19-17.57,8.42-26.74,11.45-.92.84.06,1.11.91,1.22,3.47.44,6.62-.57,9.75-.64,4.04-.08,8.07.28,12.08.18l4.12,1.67c-10.35-1.94-20.79,1.38-31.13-.61-.29-1.41.16-.98.78-1.37,4.5-2.86,13.52-4.39,18.34-7.28,2.62-1.57,1.95-1.38,5.2-2.74,2.59-1.09,5.12-2.73,8.04-3.25Z"/>
  <path d="M592.22,513.54c.31,1.63-.35,1.06-1.22,1.49-6.81,3.35-12.51,3.18-19.54,4.91-5.2,1.28-11.03,5.6-15.86,2.45,6.32.1,11.57-3.23,17.7-3.97l-.61-1.82c.81-.63,7.31.07,8.76-.04,3.35-.25,7.35-2.63,10.77-3.02Z"/>
  <path d="M575.74,490.35c1.8,1.87-4.58.34-4.88,1.22,7.18,5.54,17.24,5.1,25.64,7.63.58.17,1.39.11,1.21.9l-5.49,1.83.63-1.21-1.78-.05-.02-1.49c-7.95-2-19.14-1.75-23.85-9.44,2.01,1,7.23-.75,8.54.61Z"/>
  <path d="M159.72,530.02c-.21.05-1.06.98-.92,1.22l1.22,1.22c-4.85-.64-10.91-.01-15.57-.61-.84-.11-1.92-.46-.91-1.22l20.45-2.32c2.19.74,4.45.3,6.66.54.59.06,2.3.27,2.19,1.17-3.61.6-9.91-.81-13.12,0Z"/>
  <path d="M226.56,476.92c.59.59.13,1.28-.91,1.22-3.27-.2-7.06-.82-10.35-1.21-3.46,1.23-6.98,2.24-10.71,1.81l3.66-.61-.36-1.88c-5.14-2.08-9.36.18-14.3.36,3.11-1.66,5.94-2.31,9.49-2.16,3.21.13,6.08,1.82,8.54,1.89,1.46.04,2.8-.68,4.26-.7,1.68-.02,3.55.87,4.84.68.92-.14,1.66-1.25,2.38-1.14.19.03,3.33,1.61,3.46,1.75Z"/>
  <path d="M551.32,531.23c.23-1.1,1.2-1.14,2.11-1.24,4.88-.52,7.92.34,12.24.63s8.35.48,12.51.61c.25-1.14-1.28-2.13-2.09-2.48-1.3-.57-3.08-.2-3.4-1.17,2.74-.11,6.36-.44,7.31,2.72l-.89,2.17c-1.4,1.3-5.87-.47-7.95-.61-6.53-.45-13.28-.44-19.83-.63Z"/>
  <path d="M222.9,486.07c-.86,2.25,2.85,4.28,4.74,5.33.56.31,7.81,2.92,6.86,3.82-3.38,1.3-2.65-.17-3.49-.59-3.49-1.73-6.13-1.24-9.93-1.24l4.88-.61c-1.69-5.68-6.51-1.06-10.37-1.22.82-1.57,3.86-1.42,4.96-2.71.75-.87-1.22-2.75,2.36-2.78Z"/>
  <path d="M213.74,466.53l-4.58-4.27-.6,2.43c-2.23-1.98-2.88-6.25-6.41-6.1-.41,2.72,2.18,4.37,3.05,6.71-1.38.41-1.99-1.66-2.83-1.78-1-.14-1.93,2.44-3.28-.65l2.18-.57.35-3.92,1.42-1.03c.6.01,9.7,5.97,10.08,6.43.76.92.73,1.62.61,2.74Z"/>
  <path d="M591.76,503.57c.48.28,9.28.59,11.16.8,1.06.12,1.98-.26,2.73.92-1.15,1.38-2.85,1.65-4.56,1.56l-.65-1.9c-5.69,0-10.81-.41-16.15,1.87.57-1.2,6.15-4.18,7.05-4.26.25-.02.23.9.42,1.01Z"/>
  <path d="M230.23,518.41l-14.04-4.88c-.16-1.06,1.42-.63,2.06-.54,2.88.41,4.78,1.58,7.3,2.49.91.33.71.74,1.61-.41-2.04-2.83-4.8-5.98-5.48-9.46l8.54,12.81Z"/>
  <path d="M233.54,511.46c1.23,1.49,1.37,1.92,3.39.86l.62,7.01-1.22.31c-1.6-6.51-6.3-10.33-11-14.64l7.06,4.24c.67.56.65,1.64,1.14,2.23Z"/>
  <path d="M439,536.12c-.18-1.05,1.52-.68,2.01-.48,1.61.66,3.96,3.21,6.11,3.66l10.18,2.63c-.79,1.13-1.38,1.01-2.6.79-1.54-.28-5.31-1.25-6.81-1.74-3.33-1.1-5.86-3.31-8.88-4.85Z"/>
  <path d="M172.06,479.53c.37.3,3.67,4.07,4.15,4.7s1.18.77.91,1.83l-9.15.61c.1-.88,2.67-1.04,3.43-1.14,1.3-.17,2.6-.07,3.89-.08.63-.45-6.43-6.9-7.93-6.72.25-1.42,4.25.43,4.7.8Z"/>
  <path d="M595.27,512.33c.48,1.27-1.75,2.59-2.31,1.52-.03-.06.45-.75-.08-1.21-3.68-3.21-8.47.91-9.2.28-.12-2.23,2.19-1.89,3.66-1.83l-.61-1.82c1.91-.02,3.89.5,5.19-1.22-.36,2.86.65,3.43,3.35,4.28Z"/>
  <path d="M583.06,501.94c.08,1.4.22,1.09-.9,1.22-3.35.39-7.29.44-10.69.6-.45-2.11,1.39-.74,2.31-1.35.37-.24.39-1.45,1.08-1.62,1.22-.31,6.21,1.99,8.21,1.14Z"/>
  <path d="M131.94,496.45c0,1.06-2.67.67-3.38.63-3.54-.18-8.01-.84-11.26-2.2-.96-.4-1.5.09-1.22-1.49,2.7-1.08,4.03,1.34,5.3,1.71,1.15.34,2.44-.1,3.51.15,2.2.51,4.1,2,7.05,1.2Z"/>
  <path d="M479.29,541.01c-.56,1.28-3.25.4-4.55.64-3.97.73-4.06,1.8-9,.39-.64-.18-1.85-.14-1.71-1.03h15.26Z"/>
  <path d="M167.96,496.44c-3.95.43-6.7-.19-10.25-1.67-.9-.37-1.66.37-1.34-1.37,2.64-.62,4.43.96,6.67,1.56,1.67.45,4.15-.35,4.92,1.48Z"/>
  <path d="M426.79,534.9c.04-1.06-.41-1.28.77-1.08,4.1.69,7.31,1.11,10.21,4.44-1.1,1.43-.9.62-1.87.06-2.81-1.62-5.83-3.25-9.11-3.42Z"/>
  <path d="M553.15,515.99c-.09,1.16-3.22.65-3.84.47-.3-.09-4.41-2.7-5.33-3.24-.36-.21-2.36-.59-1.2-1.52,1.08-.86,8.55,4.27,10.37,4.28Z"/>
  <path d="M533.62,534.9c-1.31,2.66,2.99,3.93,4.27,6.1h-4.88s1.18-2.05,1.18-2.05l-3.62-4.04h3.05Z"/>
  <path d="M494.55,525.75c.14,1.07-2.17.69-2.7.57-2.58-.61-6.57-2.1-9.2-3.03-.85-.3-1.86.75-1.51-1.2l13.42,3.67Z"/>
  <path d="M141.71,503.16c.25,1.59-.28,1.26-1.54,1.24-3.46-.06-7.77-1.17-11.27-1.55.8-1.24,1.35-.59,2.3-.53,3.5.23,6.93,1.32,10.51.84Z"/>
  <path d="M131.94,498.28c.32,2.11-2.9,1.26-4.25,2.18-1.13.76-.16,2.42-3.68.86-1.48-2.01,6.84-2.33,7.93-3.04Z"/>
  <path d="M548.88,530.62l-1.84.32.32,2.12-5.19-3.35c.36-1.02,6.43-.64,6.71.91Z"/>
  <path d="M141.71,490.34c.29,1.86-.45,1-1.54,1.19-3.1.55-6.31.95-9.44,1.25-.29-1.86.46-1,1.54-1.19,3.1-.55,6.33-.77,9.44-1.25Z"/>
  <path d="M532.4,541c-1.87.27-6.62,1.78-6.71-1.21,2.05.32,5.52-1.01,6.71,1.21Z"/>
  <path d="M547.05,534.29c.18.79-1.12,1.01-1.61,1.02-3.45.06-7.29-1.2-10.9.21-.82-.08.53-1.23.6-1.23h11.9Z"/>
  <path d="M350.48,205.87c-.82,5.1.61,10.51,6.86,9.65,12.8-1.76,5.69-24.62-6.24-10.87-1.46-1.52,7.47-6.88,8.98-7.19,11.63-2.38,21.81,6.06,23.19,17.43,3.22,26.56-36.11,25.86-35.24-1.36.06-1.95.73-6.52,2.44-7.66ZM370.45,217.58c-3.24.96-3.21,6.62,1.06,6.01,3.6-.52,3.54-7.36-1.06-6.01ZM378.31,228.2c3.78-4.68,4.77-10.46-2.8-10.73,1.63,10.27-8.7,8.04-15.47,7.29-1.11.27-.27,3.13-2.23,2.48l-1.22-3.37c3.23-1.39,1.4-4.84-1.88-3.7l-.57,3.4-1.22-2.44c-2.49.78.65,5.66,1.81,7.05,5.68,6.78,17.95,7.01,23.58.02Z"/>
  <path d="M271.74,238.83c-.49-1.96,2.16-1.05,3.69-1.49,3.82-1.12,7.79-3.3,9.09-7.29-2.71-3.29-4.68-1.21-7.01-1-2.61.24-7.71.97-9.46-1.03-1.18-1.36-.8-3.6-2.41-4.44-3.05,5.7-.81,12.11,5.49,13.44.23,1.32-.15,1.52-1.41,1.1-10.87-3.7-10-19.9-4.09-27.66s16.89-9.36,21.7.27c6.12,12.26-.94,28.25-15.59,28.11ZM279.51,206.57c-7.36,1.32-5.91,16.31,2.45,12.87,6.7-2.76,4.59-14.13-2.45-12.87ZM268.68,227.24c1.47-.05,3.28.48,4.27-.94.4-1.67-2.75-4.6-3.98-2.75l-.29,3.68ZM282.11,227.23c1.87.27,4.6,1.56,4.29-1.49-.37-3.73-4.75-1.5-4.29,1.49Z"/>
  <path d="M386.35,233.5c25.41-3.64,33.57,36.66,9.92,44.11-26.45,8.34-36.8-40.26-9.92-44.11ZM377.07,239.79c-7.91,8.3-6.47,24.79,2.1,32.32,17.22,15.15,37.74-9.06,26.15-27.98-5.94-9.69-19.86-13.14-28.24-4.34Z"/>
  <path d="M338.88,244.94c.11,1.52-1.54,2.47-2.63,3.17-6.62,4.21-16.69,1.91-23.33-1.34-4.16,3.56-8.92,5.31-14.5,4.14-1.26-.26-6.04-2.56-4.42-4.13,3.96,3.71,9.1,3.93,13.88,1.66,1.73-.82,3.39-2.97,5.05-2.95,5.88,2.71,15.53,4.83,21.61,2.14.93-.41,3.81-3.21,4.33-2.68Z"/>
  <path d="M312.48,230.44c2.81,4.84-6.5,6.57-7.54,2.32,1.12-3.24,4.67-3.67,7.54-2.32Z"/>
  <path d="M334,309.64c-3.94.16-6.96,2.32-10.98,2.45-.47-2.32,3.13-.83,4.27-1.22l-3.05-1.22c1.34-1.9,8.23-1.97,9.77,0Z"/>
  <path d="M459.76,390.22v-13.43c.4-.05,1.22.81,1.22.92v9.77c0,.9,1.25,1.77-1.22,2.75Z"/>
  <path d="M332.57,48.16c-.76.9-4.17,3.47-5.32,4.15-5.34,3.16-17.97,5.85-10.64-3.93,2.55.31-2.05,3.09-1.24,4.9.49,1.08,3.8,1.33,4.81,1.16.43-.07.35-.94.86-1.13,4.7-1.75,10.26-3.76,12.27-8.91-4.04-3.42-9.54,1.52-13.96,2.14l6.23-3.22c1.73-.14,5.75-2.1,7.18-1.39,2.33,1.16,1.15,4.63-.2,6.23Z"/>
  <path d="M307.14,48.99c-3.99,3.41-12.37,5.65-9.83,12.46,2.04,2.85,17.03-6.14,12.95-11-.58-.69-1.64-.84-2.5-.86l.95-1.2c4.17,1.02,4.01,4.87,1.76,7.89-1.99,2.68-12.31,9.99-14.47,5.39-2.73-5.82,6.02-12.03,11.15-12.67Z"/>
  <path d="M287.6,69.73c-1.42.27-1.74-1.37-2.87-1.71-3.88-1.17-8.85,2.34-12.39,3.54.71-1.29,3.03-2.79,4.31-3.32.39-.16,5.46-1.6,5.76-1.62,1.55-.11,5.23,1.08,5.19,3.11Z"/>
  <path d="M388.59,82.31c7.43,10.65,9.07,22.74,2.69,34.63-13.31,24.82-55.37,23.96-63.82-4.34-10.45-35.02,39.28-61.6,61.12-30.29ZM382.23,122.24c-.48-.51,3.89-5.24,4.49-6.19,7.43-11.7,6.86-27.5-3.26-37.47-17.07-16.82-47.46-7.25-54.02,14.99-4.64,15.72,2.41,32.15,18.48,37.04,2.01.61,7.87,2.3,9.62,2.58,4.31.7,12.91-1.31,16.97-3.1,11.68-5.16,19.89-17.14,19.31-30.14-.03-.74.47-2.27-.6-2.12l-.04,3.94c-1.72,1.96-.75,4.29-1.22,6.1-1.39,5.28-5.12,11.41-9.73,14.38Z"/>
  <path d="M381.5,99.1c0,13.54-10.97,24.51-24.51,24.51s-24.51-10.97-24.51-24.51,10.97-24.51,24.51-24.51,24.51,10.97,24.51,24.51ZM355.85,76.03c-14.57,1.1-26.74,15.93-21.56,30.35,8.02,22.35,42.63,14.64,44.87-7.65,1.37-13.62-10.11-23.7-23.31-22.7ZM350.48,121.02c2.41,2.53,9.66.66,12.82-.31,6.74-2.06,13.48-7.29,15.25-14.35-1.75,1.45-2.44,3.71-3.96,5.5-5.81,6.83-15.26,10.01-24.12,9.16Z"/>
</svg>