<?xml version="1.0" encoding="UTF-8"?>
<svg id="katman_1" data-name="katman 1" xmlns="http://www.w3.org/2000/svg" viewBox="0 0 841.89 595.28">
  <path d="M344,123.3c23.45-.21,46.49,5.71,66.3,18.17,7.58-2.99,14.9-6.63,22.51-9.54,42.56-16.24,89.98-22.33,134.52-10.15,3.38.93,17.84,4.78,17.42,8.99-2.76,5.21-8.32,9.43-13,12.99-24.43,18.63-54.22,29.95-84.7,33.93-14.49,1.89-28.62,2.14-43.2,1.29,2.12,4.4,4.13,8.77,5.61,13.45,1.5,4.77,2.13,12.59,3.63,16.34.67,1.68,3.3,3.04,4.12,4.95,1.32,3.06.52,11.91-.61,15.22-.6,1.76-2.22,2.98-2.45,4.21-.55,2.99-.2,7.69-.62,10.88-1.52,11.71-4.75,22.14-8.51,33.25,2.67.39,7.27,4.48,9.54,3.54,34.15-26.62,70.75-50.91,109.6-70.2,7.58-3.77,16.08-8.18,23.93-11.17,1.16-.44,4.23-2.26,4.96-1.11,2.46,3.88-17.57,79.67-22.42,88.95-15.54,6.72-31.73,12.12-47.47,18.5-4.36,1.77-34.42,13.76-35.44,15.4-.4.64-.4,1.35-.29,2.07l7.25,19.12c11.9-23.85,38.07-39.32,63.93-43.5,39.28-6.35,83.79,12.91,96.53,52.51.65.53,13.72,1.24,16.62,2.45,3.66,1.53,1.8,8.67,1.78,12.16-.67,1.34-6.21,2.73-7.79,3.71-1.42.88-9.32,13.01-10.33,15.12-1.47,3.08.94,7.49.91,11.12-.1,12.1-7.54,23.81-15.78,32.08,4.65,2.55,9.65,4.32,14.32,6.86,10.38,5.64,18.65,13.29,27.16,21.31-.59,3.76-.01,4.08,2.12,6.94,0,1.74-2.83,2.2-3.39,3.33s1.11,2.29-.27,3.93c-.84.99-11.94,7.47-13.91,8.49-5.55,2.9-11.49,5.17-17.58,6.63l-1.63,22.93c1.8,3.11,4.64,5.43,6.74,8.31,10.35,14.26,14.22,30.61,5.29,46.76,2.09,2.75,11.59,10.04,8.11,13.74-1.94,2.06-5.25,1.31-6.41,2.06s-.24,4.44-4.53,4.6c-2.81.11-6.57-1.98-10.28-1.89-3.18.07-7.1,1.43-10.36,1.78-32.47,3.46-65.97,3.92-98.6,3.13-7.97-.19-18.25-1.97-26.02-1.26-4.42.4-9.06,3.97-13.24,3.62-3.68-.3-2.06-3.63-3.35-4.54-1.68-1.19-6.77.99-9.75.06-3.27-1.02-1.92-4.18-2.95-4.91-1.32-.93-4.57.67-7.01-1.45-5.8-5.05,8.22-11.85,9.55-14.68,1.12-2.39-.12-5.19.19-7.74-8.95-1.5-17.52-2.65-24.85-8.47-3.02-2.4-5.41-6.26-8.48-8.24l-16.03,9.16c4.61,5.64,17.18,19.09,15.72,26.61-.86,4.41-6.24,1.79-7.48,2.17-1.71.53-.55,6.35-8.42,3.46-1.86-.69-3.12-2.25-4.98-2.91-1.26,0-2.36,2.29-3.9,2.78-3.95,1.25-8.41-3.08-11.9-4.4-48.99,4.53-99.72,4.52-148.81-.19-5.27-.5-12.03-2.35-16.94-2.46-5.24-.11-11.82,3.32-16.32,3.04-2.79-.17-3.4-3.31-4.33-3.53-.8-.2-5.18,1.99-8.3,1.02-1.32-.41-1.4-2.03-2.26-2.58-1.15-.74-3.68-.42-4.51-2.15-2.61-5.41,8.82-13.22,12.83-15.62,4.23-2.53,9.1-4.14,13.33-6.64.35-.21,1.23-.08.77-1.03-.34-.7-10.05-7.45-12.12-9.67-9.33-10-13.59-23.65-13.99-37.15-6.45-1.22-29.83-1.05-30.07-10.66-.08-3.07,2.69-9.76,3.84-13.01,6.73-18.95,14.97-37.46,22.67-56.02,0-.7-8.25-8.02-9.66-9.68-8.32-9.84-15.98-26.21-15.14-39.31,1.38-21.39,24.23-35,39.89-46.07-3.09-6.01-7.43-11.47-9.92-17.81-1.14-2.92-3-6.66-1.18-9.61,2.82-4.59,23.07-9.82,23.18-11.23-9.54-15.38-15.65-35.08-6.12-51.96-5.5-9.49-6.83-20.01-8.69-30.61-1.79-2.56-4.95-3.59-7.2-5.51-5.26-4.48-1.34-8.63-2.01-14.7.67-2.24,6.16-2.87,8.24-3.26,7.41-1.37,15.02-1.69,22.52-2.3,3.01-7.91,5.49-15.99,8.96-23.72,25.11-55.98,77.83-94.92,131.88-120.51,3.08-.62,1.38,2.79,1.34,4.39-.61,22.55-11.32,39.04-22.72,57.77l-19.62,27.89ZM252.6,171.11c14.31-25.38,42.81-40.2,70.71-45.8,3.89-.78,11.97-.96,14.66-2.89,1.54-1.11,5.77-6.86,7.02-8.72,5.37-8.01,11.22-22.18,9.94-31.88-.52-3.97-7.24-5.54-10.6-5.74-37.29-2.24-74.58,51-87.7,81.2-1.58,3.64-4.16,9.36-5.17,13-.31,1.13.28.89,1.14.83ZM527.99,120.27c-18.27-1.3-37.18.8-55.08,4.54-24.31,5.08-47.22,14.78-69.91,24.51-.99.1-1,.14-.82-.83.41-2.22,1.45-2.33,2.94-3.7-44.5-28.32-110.14-19.57-144.34,20.87l-7.56,11.5c14.31.96,28.89.68,42.99,3.92,6.07,1.39,12.33,4.77,18.42,5.19,8.69.6,18.79-3.34,27.87-4.25,19.5-1.96,42.8-1.02,62.25,1.9,10.02,1.5,19.76,2.81,27.91,9.01,4.92,3.74,9.25,8.4,14.23,12.09-.58-5.72-5.5-24.8-10.32-27.5-3.49-1.95-9.77-2.49-12.67-5.78,12.94,1.86,25.93,3.29,39.07,3.05,6.22-.12,24.49-.91,29.57-3.11,3-1.3,9.2-6.9,11.87-9.32,11.88-10.73,23.38-25.38,23.6-42.07ZM246.56,180.2c-10.25-.2-20.53.75-30.52,2.95-.5.35-1.14,8.29-.84,9.32.16.56,2.54,3.51,3.23,2.26.73-2.18-.11-4.49.56-6.7,1.15-3.78,7.35-3.93,10.49-5.25l17.08-2.58ZM266.53,182.61l-4.55.59c-7.07,11.39-14.91,22.4-21.73,33.95-1.19,2.01-5.84,9.3-6.15,10.84-.64,3.12,9.42,13.11,11.78,11.43l33.3-54.77c.15-.98-.66-1.29-1.47-1.43-1.84-.32-7.19-1-8.51-.05-6.83,9.71-13.75,19.37-20.48,29.14-1.97,2.87-4.97,8.77-6.99,11-.29.32-1.7,1.2-1.83,1.05l26.62-41.76ZM359.73,183.22c-13.89-.45-27.32,2.16-40.82,4.86l-14.85-2.14c2.05,2.1,5.76,3.45,8.59,4.12,12.91,3.08,27.03-7.32,40.73-5.64l6.36-1.2ZM284.69,184.43l-2.03-.49c-.72.12-5.22,7.09-6.09,8.41-8.55,13-17.75,27.72-25.27,41.3-.5.9-3.87,7.35-3.52,7.67l2-.74,34.92-56.15ZM369.42,185.64l-3.63.29-27.13,44.34c-.47,2.94,6.37,9.14,8.78,10.94,2.25,1.67,4.75,3.05,7.27,4.27l36.49-57.74c.17-1.28-.1-.76-.9-.88-1.43-.22-3.43-.49-4.84-.61-2.43-.21-11.21-.97-12.75-.05l-23.25,32.72,19.96-33.28ZM395.27,187.54c-.99.15-1.9,1.03-2.4,1.87l-34.97,56.46,2.76,2.09,1.52-.87,35.08-58.72c-.61-.85-.95-.99-1.99-.83ZM393.88,319.04c10.49-10.01,21.52-14.71,32.63-22.74,6.64-4.8,15.69-25.78,18.11-33.93,3-10.07,5.3-23.57,4.71-34.08-.24-4.3-.08-6.52-3.46-9.25-2.61-2.11-13.97-9.68-16.71-10.53-8.97-2.77-9.84,9.52-12.08,15.42-1.02,2.7-2.64,5.22-3.49,7.99.25.96,5.13,1.35,6.64,1.86,27.41,9.25,18.71,64.67-14.15,60.15-16.48-2.27-24.13-27.36-17.39-40.91l-.81-1.38c-19.25,5.29-42.82-1.02-53.22-18.84-2.46-4.21-4.74-9.78-6.11-14.47-1.18-4.02-1.91-14.76-5.72-16.07-5.59-1.93-17.03-1.63-20.23,4.03-3.99,7.07-5.87,15.54-10.78,23.12-9.04,13.95-24.61,19.98-40.89,16.27l-1.36.8c5.45,12.4,7.17,26.83,1.32,39.43-.89,1.92-3.3,3.35-2.23,5.63.36.78,5.59,5.68,6.68,6.65,15.23,13.58,32.48,20.67,51,28.31.9.37,1.65-.37,1.33,1.36-1.98.04-3.71-.83-5.75-.64-1.51.14-2.55,1.15-3.66,1.23-2.88.19-8.64-2.56-10.56.01l3.02.6-7.87.62.61,1.2-3.56.99c.7,9.45,1.14,18.91,1.12,28.36-.09,44.28-4.94,88.03-17.8,130.47-1.87,3.55-4.37,4.49-8.07,5.25-10.17,2.09-21.02.95-31.3,1.99-1.18.12-4.09.48-4.47,1.58-.16,15.4,7.16,30.52,19.7,39.45,30.37,21.64,60.97-5.06,93.1-7.15,29.37-1.9,41.25,5.25,67.35,12.53,21.6,6.03,45.47-1.15,58.72-19.61,1.71-2.38,8.7-13.8,7.12-15.97-3.66-1.21-8.16-.32-12.14-.57-23.8-1.51-71.32-9.44-93.06-18.3-7.87-3.2-6.73-6.91-6.49-14.68,1.31-42.41,13.56-93.86,27.82-133.77,2.81-7.85,6.47-16.8,12.37-22.43ZM474.12,365.99c.7.13,1.17-.08,1.79-.33,1.23-.49,13.1-10.38,13.84-11.58,1.38-2.21,1.76-4.32,1.04-6.89l-8.7-26.47.49-1.64c24.22-11.95,49.78-20.62,74.87-30.46,2.3-.9,8.66-3.01,9.9-4.63,1.78-2.33,4.51-12.71,5.59-16.2,5.47-17.64,13.39-44.32,15.17-62.32.07-.75.74-.86-.5-1.68-46.38,20.77-89.66,47.96-129.55,79.29-.66,1.46.74,2.74.95,4.5.83,7-2.6,12.83-6.65,18.11,3.09,3.21,8.75,5.38,9.99,10.03,1.3,4.89-4,7.12-3.87,8.68,7.6,12.76,13.78,26.67,15.64,41.57ZM412.83,234.17c-.95.28-6.58,7.86-8.62,9.56-1.63,1.36-4.29,3.02-6.16,4.13-4.75,2.84-6.85,1.28-8.74,7.6-8.83,29.38,23.26,52.64,40.28,25.15,7.19-11.61,7.96-28.92-1.47-39.58-2.97-3.36-10.78-8.19-15.29-6.86ZM247.7,288.45c7.18-11.32,6.47-27.13,1.57-39.25-2.16-5.33-2.75-3.59-6.76-5.95-2.64-1.56-5.16-3.3-7.74-4.96-6.85,12.65-1.68,30.13,5.25,41.95.93,1.59,5.69,9.37,7.68,8.21ZM442.65,309.1c4.46-3.78,7.9-7.65,10.14-13.15,4.51-11.07-.88-11.14-10.36-14.01-.59.17-2.29,3.21-2.68,4-.37.73-1.12.98-.15,1.7.97.54,3.9.4,5.13.25,1.35-.16,3.58-2.23,4.57.02-16,7.3-33.34,16.01-47.14,27-5.5,4.38-13.87,14.06-16.26,20.66-.16.43-.45,1.3.16,1.37l18.16-18.15.3.9c-10.55,9.46-19.66,20.2-24.19,33.92l1.8-1.53c.97-.16.66.79.46,1.36-1.24,3.44-3.65,7.16-5,10.75-7.16,19.08-12.18,45.41-14.76,65.73-.23,1.77-.97,6.76-.13,7.85.55.71,1.96.48,1.87,1.45l-2.73-.02-2.15,17.27,1.86,2.12-1.84.4-1.66,20.33c.48,2.54,1.72,3.55,3.94,4.56,7.51,3.43,25.73,6.63,34.54,8.43,23.14,4.72,52.66,9.91,76.09,11.06,2.25.11,8.01.53,9.41-.87,1.62-1.62,1.73-14.21.58-15.17-.97-.82-12.45-3.79-15.3-5.27-1.19-.62-1.72-1.74-2.86-2.28l-1.82,8.47.64-9.31c-4.43-1.04-1.76-4.11-1.2-7.26l-3.59-2.57c-.41-2.15,4.61-5.33,5.41-6.53,2.34-3.51-1.42-37.32-2.61-43.48-.2-1.04-.49-2.16-1.36-2.86l-13.01,15.42,7.86.31-1.18,3.32c-3.14.73-6.31,1.51-9.49,2.05-1.51.25-3.29-.23-4.66.18-2.16.65-1.8,5.15-6.64,4.01-1.56-.37-2.29-2.15-4.23-1.62-1.24.34-2.26,2.91-4.37,2.9-3.47,0-5.02-5.77-5.78-8.41-.98-.71-9.15,3.98-10.62-1.22-.46-1.63.36-2.51.24-3.81-.19-2.02-2.09-5.75-2.62-8.29-1.7-8.12-1.8-16.56-2.1-24.83l-21.17,18.76c-.26-1.13.63-1.44,1.2-2.12,3.89-4.63,18.99-16.85,20.3-20.85.33-1,.34-2.01.27-3.05-1.14-.26-1.43.65-2.12,1.21-4.91,4.03-9.48,9.21-14.54,13.3-5.46,4.42-11.83,7.91-16.78,12.86-3.26,14.8-3.67,29.88-4.69,44.95-.32,4.75-1.31,9.03-1.2,13.92.03,1.49,1.63,3.67-.6,4.55.27-1.34-.49-2.73-.49-3.94.07-12.53,1.48-26.11,2.87-38.15.86-7.37,2.02-14.68,2.77-22.03,11.81-10.78,25.57-20.29,35.8-32.51-.81-4.26,2.67-12.89,1.91-16.7-.33-1.66-6.79-10.57-8.37-9.87-7.9,7.81-13.39,18.67-17.83,28.81-3.5,7.98-6.04,17.03-9.71,24.78-.4.85-1.19,2.73-2.1,3.04,3.95-13.27,9.1-28.09,15.62-40.35,12.11-22.77,32.61-34.92,55.38-45.69,3.33-1.58,15.9-5.76,17.4-8.03s-.22-3.97-1.91-5.44c-4.15-3.64-7.04-4.21-12.05-1.56l3.02-3.63-3.63.6ZM241.59,290.47c-1.3-.76-10.87,2.71-12.9,3.49s-10.57,4.15-11.09,5.89c-.93,3.16,4.49,12.27,6.31,15.25,4.73,7.73,12.33,17.4,19.67,22.7,5.7,4.12,12.95,6.51,18.1,11.55l-1.21.6c8.8,8.85,11.3,21.8,12.1,33.9.26,4-.64,9.71,0,13.31.42,2.35,2.75,2.2,3.05-.57,1.16-10.52,1.65-26.96-1.98-36.81-1.4-3.81-4.37-9.28-7.72-11.34l.29-1.2c3.77,2.12,5.17,6.53,7.87,9.68-.13-4.16-3.07-8.72-5.5-12.05-7.6-10.43-17.45-13.12-26.84-20.37-1.51-1.16-4.73-5.25-5.8-5.7-.74-.32-1.14.14-.89.89l5.14,8.78c-2.1-2.16-3.86-4.65-5.64-7.07-2.5-3.4-8.25-11.01-9.69-14.53-.18-.44-.27-2.19.47-.99-.04,1.09.49.92,1.4.7,2.14-.5,6.09-3.02,8.78-3.96,4.19-1.46,9.08-2.71,13.44-3.2,1.04-.9-4.63-5.07-5.23-5.66-.69-.67-1.89-3.13-2.16-3.29ZM649.03,351.47c-2.53-11.87-11.56-22.75-20.9-30.24-33.16-26.6-84.47-23.97-115.29,5.12-5.82,5.49-13.17,15.37-15.84,22.91-.32.9-.73.71.41,1.6,2.48-2.69,7.92-3.34,11.51-3.61,8.8-.67,18.33.49,27.21-.02,3.2-1.62,4.98-5.28,8.37-6.76,7.19-3.12,13.77-.12,17.86,5.97.62.92,1.74,4.06,2.07,4.29.49.35,6.96,1.41,8.65,1.94,4.41,1.4,8.45,4.17,12.97,5.18,9.5,2.12,13.55-.8,21.96-3.51,1.92-.62,5.3-.77,6.51-1.36,1.47-.72,3.51-7.3,8.33-9.22,7.86-3.13,11.98,2.09,16.18,7.71h9.99ZM240.51,305.46c3.06.31,7.06,4.07,9.51,4.72,1.2.32,1.83.27,2.58-.78-.05-.91-9.63-4.93-11.22-5.12-1.19-.14-.91.16-.87,1.18ZM248.98,312.73c1.23-1.15-6.01-4.24-6.67-4.52-1.27-.53-6.41-3.24-7.24-1.23l13.91,5.74ZM278.03,352.67c-.05-8.32-1.56-16.86-3.92-24.82-2.64-8.89-5.23-16.03-14.43-19.85-2.43,1.5-5.53,2.73-7.87,4.23-1.89,1.22-7.4,5.23-8.69,6.73-.4.46-.81,1.25-.68,1.85.71,3.29,22.05,14.25,25.02,18.54l10.57,13.33ZM245.35,313.95l-12.7-4.85c-.28,1.25.64,1.39,1.37,1.96,2.46,1.92,8.92,6.23,11.33,2.89ZM240.5,318.18c.26-1.24-.62-1.41-1.39-1.93-1.88-1.27-4.88-2.82-7.08-3.51.79,1.55,7.16,6.56,8.47,5.44ZM434.71,436.72c3.8-5.25,9.67-9.1,13.98-14.15,11.42-13.36,21.98-37.22,20.52-54.98-1.13-13.7-8.08-29.92-16.08-40.85-14.83,4.73-28.8,12.2-41.51,21.07-1.65,1.67-1.43,9.46-1.65,12.13,2.68-2.03,4.07-5.45,6.65-7.57.48-.4,1.21-1.6,1.82-.6-3.88,6.42-7.5,13.54-7.88,21.18,1.22,1.27,1.21-.61,1.85-1.15,1.25-1.06,3.71-3.31,5.41-2.49-2.95,2.12-6.59,5.55-7.98,8.96-1.37,3.35-2.11,11.44-2.3,15.26-.49,10.09.86,20.75,3.03,30.56l1.8-.61-.6,7.87,8.07-2.37,4.94,9.02,5.55-4.14c1.82-.17,2,3.83,4.36,2.86ZM240.36,338.3c-.15-.26-1.42-.74-1.99-1.32-2.69-2.78-5.55-5.39-7.94-8.46-6.88,2.8-13.96,7.93-19.85,12.68-14.32,11.57-23.24,22.11-18.2,41.76,2.75,10.73,15.68,31.93,26.95,34.83,1.74.45,3.28-.67,4.23-.08.73.46,2.01,3.38,3.34,3.96l2.75-7.85c.5-.36,6.43,1.99,7.19-.4l-1.17-6.27,2.36-.06c1.4-5.79,1.55-11.83,1.27-17.79-.12-2.41-1.25-5.52-1.25-7.88,0-2.13.85-4.11.68-6.68-.43-6.58-10.26-13.78-14.55-18.43l9.07,4.84-4.71-10.51,3.41-3.16-.5-3.27c1.25.33.92,2.46,2.7,2.42.49,0,6.03-2.77,6.43-3.3.63-.85.26-4.21-.21-5.03ZM558.85,349.65c-1.17-8.69-12.04-10.72-14.52-1.82l14.52,1.82ZM238.69,480.99c-.23,1.05-1.16,1.23-2.09,1.23-13.52.09-27.93.07-41.78.46-1.76.05-4.24-1.61-5.71.47-.8,1.14-.97,3.86-.35,5.11,1,2.02,10.29,2.86,12.72,3.01,14.29.88,29.25-1.12,43.57-1.2l1.66-1.37c3.99-24.13,15.12-46.3,20.88-69.9,3.77-15.46,4.8-44.72-2.14-59.27-1.79-3.76-13.71-16.14-17.42-16.52-2.21-.23-14.76,5.61-16.32,7.27-.36.38-.86.58-.63,1.24l36.06,55.03c-.42.42-3.5-2.01-3.89-2.46-3.75-4.37-7.4-11.41-10.99-16.24-1.31-1.77-5-7.01-6.28-8.11-.68-.59-1-.46-1.84-.41-.06,8.09.06,16.91-1.48,24.85-.44,2.24-1.58,4.38-2.01,6.47-1.35,6.57,1.95,8.63-7.91,8.13-1.97,8.54-8.61,9.78-15.82,12.32l-4.56,8.15,2.7-8.11-5.45-1.92-7.24,16.99c-.16.97-.09.98.81.82,3.18-.6,6.31-1.91,7.07-5.35,1.49-.06-.42,2.74,1.43,2.35,4.04-.84,9.93-3.8,14.31-5.06,2.82-.81,12.19-4.09,13.96-1.89.46.54.59,1.17.59,1.86.02,3.17-8.24,10.14-10.65,13.02-2.23,2.66-8.61,12.51-10.75,13.46-3.39,1.52-17.93,2.12-19.26,3.74-.63.76-.09,2.26-1.15,2.17.28-2.13-1.21-4.55-2.29-6.48-.38-.67.06-1.04-1.34-.78l-5.46,16.64c0,.36,5.9,1.12,5.75-.9l2.39,1.24,40.89-.03ZM632.69,351.46c-1.46-8.37-10.12-7.36-12.12.28.25,1.56,10.37-.82,12.12-.28ZM559.93,352.2l-16.71-1.84c-9.75,23.87,21.26,26.27,16.71,1.84ZM406.94,362.96c1.26-1.49-2.48-11.14-6.04-8.45-.88,1.17,3.21,5.98,4.08,7.07.58.72.7,1.65,1.96,1.38ZM634.97,354.64c-2.47-1.65-5.02-.3-7.43-.15-3.92.24-7.59-1.62-8.17,3.32-1.96,16.56,15.97,19.85,16.98,4.88.2-2.97-.43-5.31-1.38-8.05ZM603.03,358.13c-6.72,2.24-13.23,2.83-19.93.26-.86-.33-1.76-.42-1.24.64,2.13,4.32,19.26,5.93,21.18-.89ZM637.53,395.65c1.04.21,1.51-.54,2.13-1.19,4.27-4.52,3.17-19.16,2.05-25.08-.44-2.34-1.79-5.23-2.37-7.62-1.12-.14-.45,1.22-.33,1.84,2.04,10.77,2.94,21.72-1.47,32.04ZM580.24,373.46c-2.06,1.97-4.92,9.11-6.98,12.09-9.83,14.26-26.59,17.17-42.42,11.17-15.04-5.7-17.01-22.43-26.89-33.07-1.52-.39-10.66,4.43-11.36,5.98-5.57,58.52,61.09,85.69,109.96,73.65,19.13-4.71,43.27-20.33,47.53-40.83.68-3.26,1.45-8.08-.15-11.04-7.83,11.42-28.78,13.12-38.43,3.32-4.78-4.85-9.55-19.46-12.72-21.77s-15.61-2.3-18.55.5ZM533.43,393.22c-1.97-4.98-3.27-11.26-3.02-16.63.14-2.94,1.25-6.34,1.64-9.25.09-.66.67-2.09-.44-1.95-.95,2.96-2.32,5.84-2.88,8.92-.68,3.75-.92,13.14.8,16.44.48.92,2.91,3.21,3.89,2.46ZM486.83,373.26c-.53-.59-8.7,4.46-8.96,5.83,1.7,7.26,4.34,14.55,4.72,22.01.52.55,7.19-2.56,7.3-3.94-1.57-7.9-3.67-15.75-3.07-23.9ZM536.92,378.81c-6.73.88-3.89,12.74-1.04,14.7,2.52,1.74,22.38,1.41,22.97-1.19-2.32-3.42-8.15-3.04-11.71-5.22s-5.77-8.86-10.21-8.28ZM465.05,460.4c1.1.25,1.19-.33,1.71-1.01,4.45-5.8,8.89-11.61,14.98-15.89,1.39-1.73.95-6.4.85-8.82-.47-11.97-2.69-24.92-5.12-36.64-1.02-4.92-2.15-10.63-4.26-15.11-.61,3.25-1.42,6.5-2.44,9.66-1.2,3.72-5.97,12.98-6.31,15.51-.72,5.4,3.05,13.18,1.79,19.01l-3.03-16.33c-.97-.03-1.23,2.12-1.23,2.74-.1,7.76,2.45,17.86,3.05,26.01.4,5.38.84,12.26.65,17.58-.04,1.16-.5,2.16-.64,3.29ZM634.35,384.9c-1.41.38-3.07,2.41-4.68,3.19-2.48,1.19-13.11,2.31-12.68,4.77,3.08,3.59,13.61,4.7,17.72,3.29,1.95-.67,5.58-10.45,3.04-11.31-1.13-.21-2.28-.24-3.4.06ZM274.37,410.75c-.53-2.47,3.04-11.46-.88-11.5-.78,0-1.16.34-1.42,1.03.02,3.29-.77,6.43-1.32,9.63-.4,2.34-.55,2.78-1.05,4.95-.59,2.61-1.24,5.19-1.95,7.77l1.8,2.05c-.84.16-1.97.23-2.42,1.06-1.93,3.55-2.46,10.7-4.23,14.68h7.86c-.33-2.72,2.63-14.34,1.57-15.78-.59-.8-2.29-.02-2.16-1.15l2.76-.57,1.44-10.6-.9-.92-2.09.29,2.99-.94ZM487.44,431.96c2.11-2.27,3.46-5.15,5.46-7.55,2.17-2.61,5.07-4.66,7.15-7.37l-8.17-14.09c-1.07-.31-7.32,3.46-7.51,4.5l3.07,24.5ZM491.07,436.8l15.15-6.93c2.66-4.43,1.59-6.34-2.14-9.4-5.22,4.49-10.32,9.82-13.01,16.33ZM509.83,430.14c1.8-.18,4.12.7,5.43-.9l-3.88-2.71c-1.11.83-1.67,2.24-1.56,3.62ZM470.49,475.54l-.5,2.66c.27,1.27,10.61,4,12.49,4.42,10.76,2.42,31.94,4.31,40.39-4.04,10.02-9.9,10.57-45.7-7.18-45.8-12.81-.07-32.74,14.23-41.27,23.37-2.26,2.43-4.32,5.98-6.56,8.27-3.06,3.13-6.76,1.96-.53,5.96l-2.27,4.25c1.29,1.59,3.6.72,5.43.91ZM675.05,464.04l4.23-1.52c-2.58-1.24-1.95-4.06-2.97-5.49-3.99-5.65-23.72-17.96-30.5-20.94-1.91-.84-8.18-3.39-9.87-3.51-2.7-.2-5.03,2.84-7.23,4.21,8.72,13.33,13.67,28.03,17.87,43.33,10.58-.58,19.75-7.08,29.06-11.55l.64-1.19-1.24-3.34ZM198.89,466.94c.62.66,7.65-.33,9.16-.55,3.66-.52,7.37-1.55,11-2.31,3.49-4.39,6.54-9.13,10.25-13.36,4.15-4.75,19.66-17.05,1.39-11.92-9.49,2.66-18.69,6.93-28.03,10.1-2.94,3.33-7.11,14.49-3.78,18.04ZM632.64,453.1c1.59-1.86-5.34-12.45-7.6-13.78-29.3,16.55-64.83,14.79-94.63.51l2.81,14.58c7.27.96,14.51,2.57,21.78,3.5,8.05,1.03,16.66,2.14,24.75,2.49,17.94.77,35.66-2.94,52.9-7.3ZM256.85,461.01h9.08c1.35-6.41,3.79-12.71,3.63-19.37l-6.67.29-6.04,19.08ZM633.62,454.58c-9.22,2.38-18.58,4.86-28.03,6.27-2.45.37-16.28,1.21-16.82,1.97l3.93,38.49,35.5-1.5c2.32-4.35,4.75-8.68,6.82-13.15,1.19-2.57,5.21-10.61,5.4-12.76.18-1.92-3.79-14.39-4.85-16.67-.38-.81-.98-2.52-1.96-2.64ZM540.27,501.98c2.9,1.88,6.3.21,9.18.16,13.45-.25,26.9.43,40.31-.84.9-.63.64-5.31.6-6.72-.09-2.93-.4-6.68-.64-9.65s-2.24-20.84-3.32-22.1l-52.98-6.39c-.97,4.47-.96,9.1-2.23,13.52-1.16,4-3.34,7.29-5.63,10.72l14.71,21.31ZM248.38,490.66c.68.59,9.76-1.19,10.84-2.78l5.54-25.38-8.44-.21-4.88,15.92,4.2,1.55c-6.92-1.29-6.43,6.12-7.26,10.9ZM638.14,521.53c.93-.09.92-.92,1.17-1.55,5.17-13.23,5.08-28.87,2.45-42.63l-12.02,24.51,8.4,19.67ZM514.1,519.08c4.68.66,7.83,4.44,11.7,6.66l13.6-21-16.04-21.9-6.17,3.99c.26,11.08-.27,21.52-3.09,32.25ZM514.07,505.5c.54-5.35-.4-11.49,0-16.95,0-1.81-9.94-.12-11.41.39.34,7.94.6,15.44-2.04,23.08-1.92,5.56-6.39,10.89-5.95,17.1.08,1.09-.15,1.97.94,2.69,2.5-5.56,11.32-9.06,14.23-12.99,1.75-2.36,3.93-10.34,4.23-13.32ZM495.92,511.85c.45.31,1.32-1.26,1.51-1.81,1.18-3.31,3.05-16.24-.12-18.05-1.57-.89-6.38-2.33-6.84.19-1.19,6.4,2.68,14.11,5.45,19.67ZM622.27,502.35c-9.53.44-19.07,1-28.62,1.03l-1.25.57c-.67,9.41-1.57,18.79-3.46,28.02-.71,3.46-3.35,10.05-3.45,12.96-.03.9.02,1.05.59,1.72.82.96,11.06,6.76,12.9,7.67,1.02.5,2.39,1.53,3.5,1.43,9.16-3.83,18.67-10.17,25.34-17.59,1.83-2.04,9.15-11.72,9.07-13.84l-8.76-20.93c-1.36-1.99-3.9-1.13-5.87-1.04ZM588.96,503.49c-11.21,1.22-22.75.05-34.06.46-1.43.05-2.76.56-4.19.66-2.51.16-7.85-.79-9.44.85l-13.72,21.83c7.75,7.97,14.68,16.18,17.35,27.28l38.2-9.69c3.07-8.01,4.83-17.03,5.92-25.55.3-2.33,1.66-14.33,1.01-15.38l-1.08-.46ZM473.27,508.86c-.83.19-3.77,6.57-3.82,7.62-.12,2.43,4.08,7.21-.75,8.42-1.35.34-2.64-.87-4.27-.06-.45.22-5.3,6.84-5.34,7.38-.2,2.33,4.48,4.97,6.52,5.38,18.85,3.86,22.65-22.17,7.66-28.75ZM483.12,508.9c-.36-.23-3.51-.59-2.94.82,4.09,5.75,5.75,12.73,3.82,19.57-2.77,9.81-14.52,13.95-23.14,8.83-1.04-.62-2.06-2.35-2.79-2.66-2.84-1.22,2.22,5.27,2.7,5.77,5.87,6.09,17.11,9.5,25.3,8.61,1.31-5.47,4.23-10.2,6.67-15.19-2.27-4.84-4.53-9.75-6.37-14.78-.66-1.8-2.78-10.66-3.26-10.96ZM646.41,515.08c-.26-.23-1.5-.9-1.61-.81-5.54,19.49-19.83,34.34-36.88,44.55-.21.91,4.76,10.44,5.73,11.7,2.3,3,9.7,4.55,13.46,5.3,9.58,1.92,19.52,2.02,29.17,3.2l-1.81-5.44c1.14.53,8.49,2.13,8.45.3-3.13-2.48-6.07-7.41-10.28-7.57,5.44-10.45,8.53-19.69,5.15-31.47-1.54-5.35-7.28-16.08-11.4-19.76ZM499.54,585.08c8.15-2.5,16.82-3.7,24.94-6.22,12.44-3.86,19.83-17.14,15.58-29.76-2.52-7.46-12.13-18.68-18.53-23.23-5.98-4.24-7.64-5.34-14.07-.96-11.83,8.08-18.77,26.97-17.7,41l-10.18,8.58c-.68,3.05,9.21-.17,9.68.29.63,1.7-3.83,5.3-1.43,5.98s9.14-1.59,12.01-1.74l.68,1.24-.97,4.8ZM387.54,545.78c-24.61-9.42-51.25-11.47-76.83-4.57-2.89.78-22.64,7.12-22.96,8.53,1.43,1.77.48,6.17,2.68,6.31,20.09-1.78,40.36-1.71,60.56-1.86,10,.85,20.16.9,30.23,1.24,1.32.04,4.57,1.59,5.1-.38-1.35-3.45,1.27-5.92,1.22-9.27ZM434.18,562.69l10.28,9.39c.58.72,1.79-.25,1.8-.61.03-.81-6.73-10.72-7.87-12.09-1.05-1.26-9.42-9.74-10.1-9.92-8.26,1.23-16.22,1.61-24.51.35-2.35-.36-7.68-2.3-9.28-2.21-2.01.11-3.51,4.32-3.04,6.02,1.27,4.61,15.99,13.28,20.53,15.83,2.03,1.14,9.57,5.57,11.14,5.84,3.21.55,2.96-2.39,2.44-4.9-.36-1.74-2.49-3.44-1.98-5.28,1.45,2.17,13.81,12.51,15.43,10.89.62-5.11-3.3-8.85-4.83-13.31ZM598.19,556.04l-16.02-8.5-36.83,9.09-.41,1.52c14.22,3.57,31.08,3.5,45.51.72.69-.13,8.66-1.5,7.75-2.83ZM232.64,571.16c1.52,1.33,31.83-6.39,36.02-7.85,3.31-1.16,13.13-4.89,14.52-7.9.76-1.64-.66-5.15-2.45-5.46-1.93-.33-6.19,1.11-8.46,1.23-9.32.5-15.46-1.88-23.69-2.36-3.53-.21-20.32,8.49-24,10.96-2.47,1.66-5.34,3.87-7.07,6.24.43.84,1.58.03,2.15-.27,4.53-2.36,8.81-7.09,14.18-7.9l-7.87,5.74-4.22,4.86c-.26,1.27.61.98,1.5.9,6.36-.59,11.81-6.23,17.86-7.87-3.05,3.01-7.51,4.98-8.47,9.67ZM591.53,565.11h12.71l-1.28-3.56c-3.45.87-8.7,1.24-11.43,3.56Z"/>
  <path d="M622.26,130.72c4.26-.63,10.03-.44,13.12,2.9,4.24,4.6,2.46,13.61,4.89,19.93,2.11,5.49,6.8,8.63,9.47,13.53,6.49,11.89.85,26.89,1.69,40.07,1.34,20.99,10.01,66.8-.68,84.61-1.65,2.74-5.55,6.91-8.82,7.52-12.86,2.4-10.66-14.47-9.77-22.48,3.3-29.72,11.52-60.99,4.48-91.18-8.22-35.24-39.58-17.08-60.25-6.35-27.14,14.09-53.18,31.53-79.86,45.42-2.47,1.29-13.53,7.32-15.49,4.57-1.29-3.52,3.04-6.92,5.47-9.14,22.39-20.45,55.71-34.44,81.13-51.41,12.59-8.4,42.19-36.16,54.61-37.99ZM633.69,134.4c-8.95-8.02-26.03,5.11-33.36,10.7-15.38,11.73-27.48,22.19-44.32,32.54-21.18,13.02-52.1,27.51-69.55,44.55-.78.76-4.86,4.85-3.86,5.8,4.52.29,8.79-2.52,12.72-4.53,32.99-16.9,65.67-41.13,100.05-55.49,45.63-19.07,46.54,25.51,45.22,57.93-.76,18.85-6.1,37.02-7.29,55.05-.43,6.61-.49,20.54,10.01,15.46,12.95-6.27,11.04-36.46,10.59-48.77-.54-14.63-3.76-29.83-4.29-44.13-.39-10.57,3.64-19.81.8-30.46-2.7-10.12-12.04-14.04-13.42-25.32-.57-4.63.84-9.63-3.3-13.34Z"/>
  <path d="M165.3,232.37c3.81-.37,6.47,4.2,7.71,7.15,2.89,6.89,3.84,15.82,6.36,23.3,3.46,10.32,15.42,30.31,14.47,39.87-.56,5.6-4.13,5.84-4.68,7.43-.73,2.14.13,8.49-.11,11.39-1.28,15.39-13.36,20.16-21.28,5.56-10.39-19.16-15.79-64.27-9.75-85.01.99-3.41,3.2-9.29,7.27-9.69ZM164.69,234.14c-1.8.49-3.9,4.68-4.54,6.4-7.23,19.46-.97,69.21,10.03,87.13,6.78,11.04,15.9,6.73,17.06-4.96.38-3.83-.66-9.24,0-12.71.32-1.69,3.83-2.68,4.58-5.11,2.76-9-7.9-26.05-11.34-34.72-2.89-7.27-7.81-31.16-11.98-34.62-1.11-.93-2.24-1.84-3.81-1.41Z"/>
  <path d="M680.9,323.42c-5.14,5.53-12.54,3.47-13.13-4.35,2.66-8.79,3.36-20.08,6.67-28.44,2.35-5.94,6.84-8.64,10-1.5,3.5,7.93,2.6,27.68-3.54,34.29ZM679.08,322.81c6.12-5.5,6.75-22.69,4.75-30.05-2.67-9.82-6.74-6.17-8.95,1.35-2.31,7.88-3.07,16.45-5.33,24.38.01,5.58,5.18,8.23,9.53,4.33Z"/>
  <path d="M167.1,406.67c5.28-1.58,8.91,5.26,11.32,9,3.63,5.64,14.23,22.12,5.62,26.7-9.42,5.01-18.06-12.04-19.62-19.35-.79-3.69-1.99-14.95,2.68-16.35ZM168.89,407.88c-6.14.55-2.77,15.94-1.3,19.83,2.06,5.44,11.84,19.92,17.51,10.88,2.49-3.97-2.32-12.22-4.4-16.11-1.59-2.97-8.43-14.9-11.81-14.6Z"/>
  <path d="M609.53,267.48c14-2.52,10.84,20.28-.88,22.72-15.89,3.3-9.4-20.87.88-22.72ZM608.91,269.29c-3.19.93-7.64,7.99-8.16,11.21-1.17,7.3,4.82,10.39,10.71,6.47,7.75-5.15,8.05-20.78-2.55-17.68Z"/>
  <path d="M200.78,277.41c-7.5-7.46-4.85-23.93,7.2-20.82,4.2,1.09,7.94,8.95,8.27,12.94.73,8.99-8.69,14.62-15.47,7.88ZM204.66,257.77c-11.45,1.25-6.22,22.65,3.92,20.97,10.75-1.78,4.98-21.94-3.92-20.97Z"/>
  <path d="M198.35,228.4c-3.99-4.01-6.88-19.02-.65-21.74,6.5-2.84,10.32,11.58,10.17,16.2-.19,5.76-4.46,10.62-9.52,5.54ZM198.57,208.11c-5.51,1.55-2.2,18.99,2.42,20.38,9.42,2.82,4.35-22.28-2.42-20.38Z"/>
  <path d="M242.74,123.49c3.68,3.25,2.96,12.7-4.08,10.44-8.13-2.61-3.23-16.9,4.08-10.44ZM238.53,123.4c-5.37.82-2.04,10.09,2.14,9.51,5.44-.76,2.47-10.21-2.14-9.51Z"/>
  <path d="M435.83,100.41c6.47-.97,3.68,11.49-3.04,9.48-4.43-2.46-.97-8.88,3.04-9.48ZM435.21,102.22c-2.04.59-4.37,5.04-1.85,5.89,4.75,1.6,6.46-7.22,1.85-5.89Z"/>
  <path d="M350.05,253.43c-1.95,4.61-7.62,7.1-12.38,7.29-8.84.34-14.51-5.22-22.13-7.57-8.47-2.61-10.95,3.42-17.71,5.86-5.92,2.13-10.03.01-13.14-5.26,2.28-.39,3.6,3.26,5.61,4.07,7.49,3.06,14.83-7.53,21.27-7.36,2.13.05,6.08,1.85,8.21,2.7,7.88,3.13,15.57,9.1,24.39,4.38,2.19-1.17,3.15-4.28,5.89-4.09Z"/>
  <path d="M314.34,233.44c-3.85,2.54-6.03,3.16-9.67-.29.95-2.37,10.57-.97,9.67.29Z"/>
  <path d="M451.58,453.3c1.55,1.42,3.62,13.56,3.16,15.87-.55,2.78-6.55,4.08-8.9,5.01l-35.06-3.38c-3.68-1.1-6.78-9.23-9.03-12.76-2.46-3.87-11.64-15.4-10.44-19.59.62-2.17,4.34-1.88,6.12-1.51,3.76.79,11.87,5.72,16.18,7.42,5.41,2.14,11.73,4.37,17.4,5.59,3.42.73,19.34,2.22,20.57,3.34ZM394.07,437.49c-3.27.9-.29,5.41.34,7.3l15.56,24.38,33.59,3.93c2.09-.31,9.24-2.04,9.91-4.04-.38-2.98-1.07-13.68-3.58-15-10.19-1.49-20.57-2.63-30.38-5.94-6.92-2.33-13.36-6.22-20.03-9.02-1.42-.59-4.09-1.99-5.42-1.63Z"/>
  <path d="M456.57,493.69c-13.64-1.47-27.22-3.64-40.69-6.21-14.57-2.78-29.18-6.66-43.38-9.25l-4.29-2.07,88.36,17.54Z"/>
  <path d="M639.34,408.96c-1.16.33-1.42-1.11-2.44-.95s-3.66,1.98-5.41,2.48c-4.34,1.24-27.28,5.77-30.3,4.85-3.39-1.03-6.28-4.32-10.54-4.6-5.88-.4-11.2,3.36-16.51,4.13-5.86.85-28.84-5.13-34.97-7.71-3.29-1.39-4.73-4.38-8.47-1.82l-.9-1.21,5.05-1.73c4.05,3.43,9.84,4.89,14.91,6.27s17.23,4.51,22.1,4.58c6.64.09,12.87-5.64,20.91-4.02,3.49.7,8.08,4.51,11.14,4.64s24.06-3.97,27.68-5.08,6.25-5.11,7.74.17Z"/>
  <path d="M231.43,440.44c-.17,1.07-1.22,1.04-1.96,1.37-4.58,2.04-23.24,7.46-25.2,9.91-1.21,1.52-4.14,10.95-2.54,12.06.98.68,13.59-1.14,15.17-1.84,2.33-1.04,2.62-3.58,4.54-5.15l-2.88,5.89-17.96,2.54c-1.27-5.29.92-10.71,3.88-15.11l26.95-9.66Z"/>
  <path d="M450.51,465.85c.17,2.59-2.31,3.98-4.52,4.25-6,.73-16.14-1.22-22.41-1.82-3.43-.33-8.01,0-11.37-.74-2.48-.54-6.44-8.19-7.08-10.77,2.51,1.86,3,5.83,5.1,7.9.93.91,1.94,1.39,3.21,1.63,10.17-.26,21.98,3.08,31.94,2.61,3.1-.15,3.17-1.12,5.13-3.07Z"/>
  <path d="M448.71,456.78l-.3,1.81c-3.64-2.13-8.37-1.78-12.54-2.59-8.73-1.7-17.34-4.13-25.42-7.87l-11.37-6.48c4.85,1.4,9.24,4.36,13.94,6.33,11.36,4.77,23.51,7.23,35.69,8.8Z"/>
</svg>