<?xml version="1.0" encoding="UTF-8"?>
<svg id="katman_1" data-name="katman 1" xmlns="http://www.w3.org/2000/svg" viewBox="0 0 841.89 595.28">
  <path d="M369.81,176.3c32.66-13.04,70.12-14.75,103.67-3.9,6.12-5.77,11.4-12.53,17.62-18.34,35.93-33.53,108.53-66.04,158.19-58.16,14.04,2.23,9.91,10.12,5.36,19.85-18.99,40.61-62.32,81.69-103.65,98.81-5.64,2.34-12.03,3.67-17.15,6.68,5.82,12.84,8.56,26.12,10.31,40.16.85,6.83-.84,13.96,5.92,18.5,13.13-1.97,26.3-4.03,39.52-5.39,29.63-3.04,63.63-5.16,93.29-3.05,3.21.23,12.19,1.1,14.55,2.53,5.95,3.6,2.16,11.11.41,16.08-6.8,19.29-15.82,38.6-23.48,57.63-7.25,18-13.72,38.42-21.64,55.81-2.35,5.15-4.14,6.24-9.91,5.6l-50.48-12.63,9.13,70.98c-.39,2.53-2.1,3.46-4.56,3.46-6.28,0-15.5-4.14-22.02-4.91l-1.39.94,8.31,44.03c.08,3.52-1.71,4.54-4.99,4.42-3.82-.15-23.34-4.72-24.72-4.02-6.65,12.67-14.14,24.14-25.33,33.26-15.37,12.51-55.72,33.57-73.47,18.01-1.23-1.07-2.51-3.34-3.41-3.91-2.21-1.39-8.56-.46-11.55-.65-24.38-1.5-48.65-3.71-73.14-3.06-33.71,29.95-89.27-25.32-91.82-58.84-1.34-17.68,6.61-31.68,25.64-32.04,0-22.16,4.32-43.72,11.31-64.62,4.02-12.04,9.58-23.53,13.08-35.74l-.27-.87c-21.34-17.06-32.83-42.46-23.8-69.51,1.07-3.21,4.53-8.67,5.03-11.44.96-5.33.24-12.17.76-17.53,1.27-13.18,6.04-25.61,10.89-37.76-26.39-15.9-45.94-39.67-58.57-67.64-11.16-24.71-19.76-60.2-16.35-87.3,1.71-13.54,6.46-13.11,17.48-7.74,17.36,8.46,40.56,27.61,54.79,40.95,21.96,20.59,41.75,45.03,56.44,71.33ZM450.86,544.36c.55-1.86,0-10.09,0-12.81,0-4.4,4.11-15.82,5.99-20.23,8.83-20.68,38.75-62.76,64.35-40.97,15.01,12.78.21,43.84-6.82,58.25l-11.08,16.66c12.43-5.75,23.98-15.35,30.98-27.25,1.77-3.01,5.15-9.76,5.93-12.99,1.61-6.62-10.9-12.49-5.81-19.82,1.94-2.8,9.5-8.01,10.25-10.49.55-1.84-.17-10.91-.53-13.25-.13-.86-.44-1.96-1.2-2.45-4.62-2.03-12.47-2.79-15.48-7.08-4.1-5.83.46-10.28,3.94-14.88,1.97-2.6,7.3-7.4,7.36-10.37.1-5.33-4.67-21.29-6.33-27.28-2.58-9.27-8.64-22.78-9.95-31.58-.22-1.45.29-2.3.37-3.66-6.56,2.6-13.57,5.1-20.73,5.18,6.39-5.68,13.84-10.05,20.13-15.85,18.04-16.62,27.24-39.48,18.45-63.59-1.86-5.11-5.95-10.51-7.31-15.25-1.7-5.94-1.55-15-2.79-21.6-4.1-21.78-11.96-31.43-25.43-47.74-.57-.69-1.48-.98-1.22-2.13,1.38-1.28,12.59,7.31,14.92,7.89,20.66-4.61,40.73-12.5,57.85-25.07,22.24-16.33,28.07-43.69,29.06-70.34.09-2.28.96-7.18-1.96-6.89-4.9.47-14.23,3.6-19.25,5.2-43.74,13.95-84.73,40.5-112.03,77.64l-1.53-.36c-.59-2.16,1.44-5.1.01-6.67-.89-.99-8.99-3.3-10.85-3.79-21.9-5.7-47.85-5.18-69.65.74-4.5,1.22-16.55,4.96-19.83,7.61-1.47,1.19-1.68,3.61-3.88,2.98-14.69-27.32-33.02-52.99-55.21-74.67-2.59-2.53-18.89-17.67-20.89-17.86-1.62-.15-3.68,4.96-4.38,6.4-8.91,18.5-13.93,50.24-5.49,69.35,5.51,12.46,21.1,27,32.03,35.05,1.95,1.44,12.65,8.88,14.03,9.12,2.09.38,3.62-3.08,4.77-4.14.77-.71,8.46-7.12,8.83-6.71l-13.52,20.32c-11.31,17.38-8.51,37.86-11.63,56.67-.56,3.35-4.25,9.31-5.5,13.4-1.07,3.48-1.9,7.2-2.28,10.83,1.76.34.97-.51,1.37-1.34,10.55-21.86,35.52-13.71,39.42,8.41,2.86,16.19-5.54,31.75-23.11,32.26,3.28,4.1,7.46,7.72,11.64,10.93,6.74,5.18,14.34,8.94,21.29,13.77-8.84.54-16.97-3.02-25-6.09l3.02,3.91c-8.82,12.1-14.38,27.11-17.38,41.79-.84,4.12-2.67,13.08-2.67,16.89,0,3.24,5.47,11.32,6.95,14.88,4.99,11.98-2.24,10.21-11.15,14.1l-.33,9.49c27.12,15.12,49.12,42.76,51.45,74.56,15.95-.53,31.85-1.76,47.89-1.24l38.45,3.05c.53.1,1.35-.49,1.46-.89ZM681.99,285.5c-1.55.03-3-.54-4.55-.64-31.6-2.03-70.3,1.13-101.86,4.91-5.25.63-14.18,1.17-18.86,2.48-.64.18-1.22.25-1.65.83-.53.61,1.19,9.27,1.29,11.02,1,18.09-5.04,32.96-15.86,46.94-1.53,1.98-6.63,6.61-6.75,8.54,7.21,24.16,15.8,47.97,19.74,73.02l1.07,1.98,31.08,11.3-9.72-68.86,2.42-.39c14.12,4.27,28.24,8.71,42.54,12.37,2.9.74,19.38,5.26,20.78,4.36l40.33-107.85ZM566.12,445.26c-.66-1.59-10.56-5.31-10.97-4.87-.82,5.1,7.44,3.98,10.97,4.87ZM501.48,493.44c-.53-4.53,8.09-17.36,5.81-20.75-1.14-1.7-7.4-.88-7.65.34,2.5,4.91,1.25,9.45-1.2,14.03-.77,1.44-6.98,10.55-7.38,5.46-.24-2.99,9.75-13.31,6.69-17.92-2.27-1.57-13.5,8.22-15.51,10.27-13.13,13.44-28.26,38.3-26.5,57.65,1.07,11.74,11.04,15.66,21.47,12.35,19.78-6.28,38.67-42.05,43.11-61.17.47-2.03,2.77-13.44-2.4-10.32-1.45.87-4.31,8.75-5.81,10.65-.45.57-2.36,2.44-3.04,1.25-1.92-3.35,8.32-15.74,6.74-18.91-.92-1.45-2.62-1.33-4.19-1.25-.98.24-4.37,16.36-7.72,18.02-.79.39-1.6.36-2.44.3ZM307.01,477.65c-.06,1.81-.29,3.81.08,5.59s6.99,11.38,3.82,12.03c-5.77-3.75-8.89-12.61-6.98-19.21l-1.03-1.44c-8.69-1.2-7.08,5.98-5.11,11.84.62,1.85,5.28,9.63,4.29,10.65-3.95-.42-7.27-6.83-8.24-10.35-.83-3.01-.67-6.13-1.57-9.11l-3.65.96c-3.74,5.89,7.15,20.08,5.85,22.16-2.13,2.1-4.65-3.33-5.51-4.87-.82-1.46-3.02-7.68-3.38-7.91-3.84-2.46-1.66,6.7-1.21,8.23,6.26,21.28,36.11,56.09,60.1,55.2,16.89-.62,13.61-15.52,9.13-26.86-6.4-16.23-23.48-35.61-38.52-44.42-1.23-.72-7.17-4.01-8.06-2.48Z"/>
  <path d="M188.67,259.91l21.31-8.88.52-1.69-45.64-58.66c1.15-1.82,3.29.09,4.59.89,17.88,11.01,34.91,25.48,52.41,37.23l2.15.59-18.92-50.93,1.53-1.51,45.99,74.8c.13,1.25-2.43,2.1-3.38,2.56-7.8,3.78-18.75,6.35-25.98,10.61-.66.39-1.33.67-1.63,1.45l31.65,36.52c-1.1,1.74-2.94.08-4.2-.66-13.3-7.9-27.4-17.99-40.38-26.7-2.92-1.96-18.92-12.25-19.74-13.8-.31-.58-.43-1.16-.27-1.8Z"/>
  <path d="M242.91,408.68l4.29-12.8c1.33-.99,14.7,10.77,16.78,11,2.78.29,11.08-7.69,14.49-8.72.95-.29,1.36.01,2.25.17l-12.79,22.28c-2.58,1.64-12.3-6.52-15.83-5.78l-4.59,11.42c-1.88.28-14.45-9.09-17.59-10.38-2.1-.86-4.92.52-4.6,2.74.3,2.09,7.09,9.82,6.35,10.83l-50.95,24.38.62-2.73,31.43-25.32c.57-.71.07-1-.3-1.54-1.47-2.13-11.04-9.06-10.84-10.36l24.33-24.56,2.07.43c4.63,5.05,8.45,13.3,13.08,18.02.58.59.79,1.16,1.81.93Z"/>
  <path d="M435.62,126.94l-12.8-2.44-2.44,25.24-1.53.39c-6.4-13.41-12.32-27.26-16.77-41.48l16.46,1.22-1.22-31.71c.86-.13,1.62.08,2.44.3,3.47.93,20.75,7.91,23.14,9.79.44.34,1.02.69,1.14,1.27l-8.43,37.42Z"/>
  <path d="M659.78,224.87c-4.49,4.75-9.09,9.45-13.59,14.21-.76.27-1.18-.06-1.75-.5-2.09-1.62-4.55-7.64-6.64-9.24-.56-.43-.99-.71-1.73-.48l-26.66,20.36c-.56.76-1.72-.17-1.83-.63-.68-2.68,26.25-41.32,29.64-46.61l13.95,13.4c10.42-5.33,19.88-14.58,30.01-20.01,9.33-4.99.25,5.78-1.66,8.09-5.88,7.1-13.35,14.63-19.75,21.41Z"/>
  <path d="M652.1,480.64l-5.42,20.32,15.78,8.64-.99.83-29.5-.52c-.17-3.69.78-7.32.93-10.98.03-.84.56-1.05-.63-1.81-2.5,1.18-8.63,6.97-10.96,6.72-.56-.06-6.77-4.26-7.84-5.01-.96-.68-7.1-5.19-7.11-5.68-.02-.74,1.1-.79,1.84-.65,1.94.37,9.93,3.26,10.97,2.53,1.14-1.89,4.72-13.76,6.38-13.76l5.55,7.26c2.8-.81,19.7-9.15,20.97-7.88Z"/>
  <path d="M495.74,296.22c11.42-10.54,29.46-6.68,37.96,5.55,9.73,14,6.42,34.93-8.85,43.37-30.14,16.66-53.23-26.67-29.1-48.92ZM510.43,294.84c-4.15-3.79-13.41.83-11.09,5.89,2.95,6.43,17.68.13,11.09-5.89ZM500.23,305.84c0-1.82-1.48-3.3-3.3-3.3s-3.3,1.48-3.3,3.3,1.48,3.3,3.3,3.3,3.3-1.48,3.3-3.3Z"/>
  <path d="M472.06,242.97c38.03-5.49,37.87,55.67-.62,49.7-24.28-3.76-22.95-46.29.62-49.7ZM483.01,257.25c0-5.31-4.31-9.62-9.62-9.62s-9.62,4.31-9.62,9.62,4.31,9.62,9.62,9.62,9.62-4.31,9.62-9.62ZM488.2,281.34c0-1.86-1.51-3.37-3.37-3.37s-3.37,1.51-3.37,3.37,1.51,3.37,3.37,3.37,3.37-1.51,3.37-3.37Z"/>
  <path d="M456.13,400.52c-12.62,12.32-23.27,26.42-31.4,42.15l.2,1.99,3.3,1.9c1.32,1.85-5.29,8.78-4.73,11.09l2.66,1.7,6.12-1.29c.88,2.59-.84,8.65,2.12,10.1,2.74,1.35,4.36-2.44,6.44-2.78,1.56-.25,3.19.61,4.82.65,23.14.52,45.13-7.73,63.7-21.11,2.39-1.72,8.76-8.05,10.73-8.79,1.16-.43,1.01.59.79,1.4-5.74,20.49-44.84,39.92-64.85,40.07-5.95.05-10.74-2.61-15.28-3.06-3.89-.38-6.9,2.71-10.53-2.23-1.38-1.87-1.84-5.94-2.51-6.64-1.39-1.44-6.68-.49-8.23-3.96-2.58-5.8,2.77-9.53,2.71-12.5-.05-2.18-3.88-1.75-2.77-7.03,1.58-7.51,13.46-24.96,18.67-31.19,7.65-9.14,25.6-25.79,36.98-29.04.38-.11,2.13-1.27,2.01.2-.05.63-8.41,6.75-9.75,7.92-3.82,3.34-7.57,6.9-11.19,10.45Z"/>
  <path d="M356.24,245.39c25.04-1.29,29.14,42.44,3.28,48.46-31.71,7.38-36.33-46.75-3.28-48.46ZM366.85,259.08c0-4.7-3.81-8.52-8.52-8.52s-8.52,3.81-8.52,8.52,3.81,8.52,8.52,8.52,8.52-3.81,8.52-8.52ZM354.04,279.53c0-2.46-1.99-4.45-4.45-4.45s-4.45,1.99-4.45,4.45,1.99,4.45,4.45,4.45,4.45-1.99,4.45-4.45Z"/>
  <path d="M407.69,464.9c-1.02.74-.11,6.08-4.17,8.33-3.84,2.13-5.27.18-8.46.2-2.06.01-4.48,1.48-6.7,1.72-19.3,2.11-42.55-7.75-55.21-22.25-2.7-3.09-7.01-8.33-6.39-12.51,17.02,17.41,39.31,24.73,63.45,24.42,1.18-.02,2.6-.75,3.51-.54,2.48.57,8.44,8.94,8.97-2.23.07-1.54-1.59-3.38.3-4.56,10.84,4.74,9.47-2.52,4.08-8.87.09-1.04,5.4-3.09,4.68-5.33-9.62-14.56-20.03-28.49-32.83-40.41-5.32-4.95-11.73-9.24-17.02-14.08-.68-.62-1.53-.9-1.28-2.07,1.2-1.07,10.17,4.02,11.77,4.99,15.73,9.54,35.8,31.07,43.83,47.64,3.69,7.61-.96,6-1.34,9.91-.23,2.39,2.96,4.68,1.55,10.04-1.56,5.92-6.68,4.09-8.73,5.59Z"/>
  <path d="M429.3,347.48c-8.55,8.55-19.3,3.43-25.4-4.96-8.66-11.91-11.91-32.31-2.42-44.5,12.17-15.63,26.77.92,31.11,13.99,3.23,9.75,4.61,27.58-3.29,35.48ZM422.68,318.55c-12.73,1.26-23.05,21.02-9.95,28.55,14.01,8.05,20.38-10.6,19.22-21.66-.53-5.01-4.26-7.39-9.27-6.89Z"/>
  <path d="M412.33,277.09c2.4-.13,6.21,1.01,6.27,3.83-.02,5.45-14.01,5.61-13.51.64.26-2.63,4.94-4.34,7.23-4.47ZM416.11,279.4c-1.72-1.18-9.82-.48-7.93,2.42.65.99,9.11,1.4,7.93-2.42Z"/>
</svg>