<?xml version="1.0" encoding="UTF-8"?>
<svg id="katman_1" data-name="katman 1" xmlns="http://www.w3.org/2000/svg" viewBox="0 0 841.89 595.28">
  <path d="M558.37,230.74c.13,2.33-2.33,3.11-3.24,4.88.09.84,9.83,4.16,8.35,6.26-3.42,1.68-13.74,4.54-16.05,6.95-1.32,1.38-1.76,8.47-3.27,8.82-2.29-.72-3.88-3.16-6.13-4.01-3.68-1.39-9.89-1.88-14.13-3.06s-8.16-2.67-12.09-4.16c-1.44-.55-8.98-4.25-9.63-3.6.45,11.98-1.8,23.99-6.43,35,10.38,11.73,18.07,25.63,16.66,41.88-.41,4.73-3.28,9.66-6.28,13.23-1.13,1.34-5.59,4.82-5.38,6.23,5.57,4.24,10.32,10.16,13.28,16.51,5.17,11.07-.72,5.46-7.68,4.66l1.86,5.32-1.09.66-10.52-6.91.92,4.18c-.69.68-5.36-3.41-6.35-4.09-6.18-4.25-12.12-7.6-18.87-10.85-7.46-3.59-19.48-5.48-17.92-16.37.27-1.88,1.97-3.54,1.12-5.37-1.01-2.16-12.84-10.27-15.33-10.26-2.14,0-1.99,2.35-3.33,2.75-.28.08-4.48.07-4.89-.01-2.44-.5-4.21-3.33-5.82-3.97-1.15-.46-6.31-1.31-7.81-1.49s-.21,2.93-.18,3.9c.42,11.66-7.6,20.22-16.05,27.18-1.81,1.48-4.73,2.95-6.23,4.46-.38.38-.67.41-.49,1.12l49.36,25.18c1.86.85,13.02,1.94,13.22,3.37l-2.67,8.14c2.84-1.02,5.48-2.55,8.38-3.46,21.48-6.81,41.13.9,56.56-21,.72-1.03,2.53-5.01,3.18-5.22,2.98-.96,8.11,5.31,8.05,8.31,2.6-2.62,4.53-5.47,8.03-7.05.68-.31,4.31-1.81,4.52-.54l-1.88,10.38c2.11.55,9.12-4.69,10.47-2.79.23.32-1.44,6.56-1.58,7.73-2.7,22.18,13.92,33.6,23.4,51.25,7.4,13.77,13.06,33.62,6.95,48.77-2.61,6.46-6.85,8.07-11.76,12.38,5.68,8.87,11.14,18.89,12,29.66.64,8.12-1.7,26.84-7.4,32.99-.74.8-5.6,4.39-6.51,4.64-3.12.83-3.95-.73-6.28-.75-2.69-.02-4.73,1.77-8.39,1.46-1.23-.11-2.58-.9-3.14-.85-1.22.1-3.35,1.74-5.18,1.76-4.24.05-2.95-1.81-4.22-4.15-.68-1.24-2.7-3.33-3.64-4.72-.62-.91-2.7-5.09-3.05-5.31-.96-.58-5.28-.42-6.07.57-1.11,1.38-2.65,5.16-3.96,7.06-5.29,7.65-11.78,12.91-18.78,18.87-1.98.9-2.85-2.88-5.23-2.5-1.79.29-5.81,5.19-7,4.99l-4.35-4.06-9.89,1.1c-.71-.51-.26-.56-.12-1.05.52-1.9,2.12-4.25,2.43-5.95.16-.88.46-5.21-.09-5.66-2.43-2-5.45,3.56-7.54,3.13-1.25-.26.6-4.31.62-5.36.02-1.64-4.09-3.82-5.51-5.08s-2.31-2.92-3.82-4.07l-8.87-1.3c-3.11,7.26-4.82,18.56-10.98,23.95-1.4,1.23-3.68,1.92-4.63,2.8-.69.64-.63,1.59-1.27,2.1-1.45,1.16-6.48,1.71-8.28,1.38-1.25-.23-.78-1.43-1.82-1.44-3.35-.04-6.79,2-9.76,3.29-1.08-.76-.67-2.14-.71-3.25l-4.64.92,1.75-7.61c-10.77-11.24-16.66-26.02-17.31-41.63-10-4.41-19.72-9.53-28.13-16.57-2.04-8.08-2.55-16.43-2.3-24.76-10.05,3.27-20.58,4.47-31.12,4.87-5.53,10.05-8.07,21.45-9.77,32.72-4.22.45-9.02-1.66-13.19-.88-2.59.48-8.8,5.82-10.78,5.93l-9.23-5.93-13.65,1.34c-.15-.47-.31-.91-.26-1.42.36-3.51,2.42-8.41,2.96-12.31.64-4.67.54-9.4.52-14.11-18.06,5.68-37.55,11.66-56.19,4.87-15.4-5.61-24.28-11.06-28.11-28.09-8.15-36.29,22.22-56.37,53.6-36.88,9.54,5.93,11.95,13.23,18.84,21.1.88,1.01,11.19,11.4,11.85,10.68-.81-2.51-2.69-4.64-3.95-6.96-18.23-33.59-12.39-69.76,8.96-100.2,1.71-2.44,11.82-13.93,12.09-14.85.3-1.05-.04-2.35.2-3.51.19-.94,1.11-2.32,1.11-2.9,0-.52-3.77-7.71-4.36-9.4-6.76-19.37-1.77-38.76,10.9-54.29-2.3-11.73,3.12-23.51,3.87-34.75.09-1.4.25-5.69-.48-6.53l-24.08-10.75,4.01-33.03c-13.21-3.54-26.59-6.76-40.14-8.86-11.93-1.86-25.01-3.24-37.07-3.8-2.08-.1-12.91.46-13.52-.42-.87-26.01,2.15-52.17,8.57-77.32.29-.59,1.04-.22,1.54-.16,4.81.6,12.6,3.33,17.55,4.76,30.71,8.93,60.18,21.22,88.71,35.53.2-5.86,2.47-11.37,4.64-16.72-26.27-1.7-53.75-11.47-74.06-28.34-.88-.73-2.81-1.93-2.53-2.97.45-1.08,5.02-2.07,6.36-2.46,33.31-9.7,70.73-5.35,101.14,11.02,4.02-1.54,7.78-3.49,11.92-4.77,9.43-2.92,18.92-3.62,28.68-2.2.27-1.07-.2-.76-.58-1.06-2-1.55-4.34-2.78-6.34-4.32-20.75-16.01-35.5-39.75-38.12-66.14.88-.89,13.11,4.81,14.95,5.72,29.88,14.83,52,41.78,60.62,74.06,1.07,4.02,1.54,8.98,2.68,12.65.71,2.28,2.77,5.05,3.72,7.43,3.12,7.85,2.41,12.26,3.03,20.19s5.84,14.67,6.49,22.77c.56,7-1.32,13.15-3.24,19.73l15.05-1.34-2.07-30.92c3.19-40.05,37.61-98.03,85.47-78.04,17.95,7.5,34.44,29.19,32.97,49.22-.32,4.45-.35,7.25-.43,11.64-.1,5.06-2.52,11.85-4.19,16.71-.73,2.13-3.66,7.72-3.71,9.33-.04,1.32,1.72,4.53,2.1,6.2,5.72,25.07-33.92,32.95-51.58,34.4-.69.06-1.35-.38-1.16.69l36.07,29.44,4.8-.21,2.09,3.98h6.73ZM423.68,105.34c-4.05-23.64-17.09-46.88-34.82-62.94-1.24-1.12-7.05-6.29-8.15-6.26-8.08,5.61-12.25,18.57-10.32,27.97.65,3.18,5.24,7.95,7.75,10.35,5,4.8,15,12.67,21.21,15.49,4.67,2.12,9.84,3.11,14.46,5.96.68.42.95,1.13.58,1.52-.49.51-11.2-4.78-13.01-5.33-11.52-3.49-24.29-3.5-35.85-.11-1.95.57-8.59,2.93-9.89,4.04-.26.22-.88.64-.47.94,1.5,1.32,7.84,4.22,8.14,5.8.13.69,0,.82-.69.69-19.55-12.55-42.55-21.05-65.97-22.28-3.31-.17-11.51-.54-14.39,0-.53.1-.94.16-1.1.76-.67,9.24,2.95,22.09,9.9,28.52,2.56,2.37,13.89,4.33,17.81,4.95,13.27,2.1,24.08,1.31,37.26.8,1.94-.07,1.81,1.36.22,1.65-3.71.66-10.04.89-13.9.95-2.49.04-7.12-1-8.98-.17-.82.36-3.71,8.5-4.06,9.89-2.69,10.82-.64,17.58-.2,28.09.73,17.08.04,35.48-1.42,52.5-.15,1.78-1.03,4.4-.96,6.03.1,2.26,3.31,4.7,3.27,6.52-.03,1.42-3.52,2.6-4.44,3.9-.66.94-3.03,12.74-3,14.22.05,2.26,2.79,4.43,2.37,6.91-.16.58-3.46.45-4.11,2s-1.8,10.28-1.95,12.45c-.08,1.21-.67,8.05,1.39,6.97,1.06-.56,3.38-3.61,4.63-4.66,8-6.69,17.78-11.52,28.34-12.31.54-.38-7.26-6.56-8.14-7.41-2.96-2.87-10.23-10.72-11.87-14.15-.35-.73-.57-1.28-.43-2.12.82-.17,1.14.42,1.63.92,2.58,2.65,4.99,6.99,7.67,9.98,2.07,2.31,11.52,11.41,13.91,12.13,1.09.33,7.5-.38,9.55-.3,7.51.31,14.82,2.21,22.06,3.99,1.02-1.84-.33-3.84,1.84-5.15v-.68c-.37-.05-.93-.17-1.17-.44-1.52-1.75-3.02-11-4.07-14.06-2.59-7.58-7.26-13.65-12.39-19.64l1.14-.69c4.6,4.81,9.07,10.52,11.61,16.73,1.7,4.15,2.9,13.17,4.5,15.93.65,1.12,2.43,1.16,2.68,2,.42,1.43-1.98,2.24-2.22,3.29-.08.33.45,3.57.62,3.86.33.57,10.06,4.78,11.81,5.84,4.3,2.59,9.02,6.51,11.12,11.18.9,2,1.14,4.15,1.9,5.99,1.93,4.63,4.54,7.63,5.92,13.12.36,1.45.9,6.97,1.28,7.55.9,1.38,6.62-1.2,7.91-.95.91.18.44,1.22.19,1.81l-4.13.51c2.05,4.96,6.18,9.74,10.21,13.24.76.66,5.4,4.57,6.04,3.94-.13-1.8-1.27-3.53-2.08-5.12-1-1.96-4.44-6.68-4.88-8.13-.3-1,.81-.83,1.4-.47.77.48,4.02,6.12,4.71,7.37.91,1.64,2.46,7.19,4.32,6.82,1.32-.26.14-3.23-.1-4.07-1.2-4.24-3.73-7.99-4.76-12.18l1.42.29c1.64,1.85,4.55,12.1,5.53,12.96.34.29.52.27.93.22.2-2.26-.47-4.45-1.06-6.6-.68-2.51-6.25-16.99-7.59-17.97-.42-.31-1.05-.45-1.57-.52-.35-.48,2.96-4.51,3.5-5.55,3.43-6.59,2.68-15.28,1.46-22.4-.68-3.95-1.91-7.73-3.11-11.52-.77-.17-.94.25-1.38.7-1.46,1.5-5.98,7.23-7.44,7.88-1.13.5-2.31.02-3.39.33-.91.26-1.26,1.68-2.38,1.73-.62.03-1.49-.46-2.36-.47-2.48-.02-2.43.82-4.72-1.28l-2.95,1.58-1.83-4.23-2.81-.21-.21-3.74-3.49-1.64c1.92-3.84.69-8.25.9-12.53.27-5.75,1.51-12.23,3.15-17.75.39-1.31,3.44-9.97,3.9-10.26,3.05-1.93-.14,4.19-.42,4.92-4.5,11.99-4.38,18.98-4.73,31.49-.03.97-.56,2.05-.51,2.77.11,1.35,4.09,1.49,2.8,4.87,2.9-.56,3.19,1.43,3.72,3.71,3.28-2.36,3.57.55,4.96.86.2.05,3.87.1,4.09.08.93-.08,1.23-1.08,1.96-1.31.85-.26,1.91-.01,2.94-.31,2.26-.65,5.41-4.63,6.94-6.53,12.31-15.29,14.13-34,6.52-52.01-.51-1.21-4.06-8.59-4.88-8.58-3.59,4.14-7.61,7.98-12.16,11.05-1.28.86-8.98,5.66-9.9,4.73-.09-.1-.15-1.07.29-1.42.85-.69,4.67-2.1,6.18-3.02,6.87-4.21,12.68-9.56,17.13-16.31.62-.94,3.26-5.26,3.33-5.97.12-1.21-1.23-5.55-1.38-7.42-.3-3.86-.03-8.52.67-12.33.39-2.09,2.51-7.14,2.44-8.49-.11-2.2-3.47-8.33-3.92-12.28-1.37-12.15.09-17.62-6.9-28.86-1.14-1.83-5.33-6.56-5.68-7.79-.19-.68-.34-1.26.61-1.07l3.95,3.71ZM565.32,122.51c3.9-22.55-13.59-45.51-34.23-52.82-44.79-15.85-74.89,37.82-80.5,74.42l2.79,33.94c.79.55,4.58-.42,4.21,1.36-.26,1.25-8.8.58-10.47.68-3.81.23-7.65,1.1-11.5,1.04l-5.22,7.77c5.55,10.26,10.14,21.03,9.54,33.01.81.21.93-.33,1.39-.69,9.01-6.91,13.91-15.03,25.23-20.75,23.67-11.95,33.14,6.54,35.15,27.48.92-.19.79-.95.92-1.63,1.29-6.84,1.68-13.87,3.26-20.66l1.34.77c-.21,4.18-5.82,32.25-4.63,33.87.97,1.31,12.19,5.66,14.45,6.45,6.93,2.4,15.49,3.17,21.57,5.37,1.83.66,3.16,2.96,5.35,2.78l2.1-7.43,14.62-6.74-7.68-4.4c-1.05-2.11,2.15-2.05,2.11-3.73-4.31.4-5.19.11-6.48-3.99l-3.46.27-40.67-32.74c.44-.67.89-.65,1.59-.72,5.4-.58,10.75-.57,16.14-1.51,11.37-1.97,36.48-10.28,37.99-23.78.32-2.82-.22-9.72-1.9-12.04-1.24-1.71-7.37.51-9.49.65-.85.06-3.13.49-2.99-.66.83-6.91,5.48-21.8,8.62-28.08,2.12-4.24,5.34-9.53,10.84-7.5ZM307.66,207.89c-.31-.52,0-1.24.13-1.79,2.24-9.76,8.81-23.09,9.97-32.3,1.02-8.1-.71-20.85-1.35-29.23-.19-2.53.33-5.15-.23-7.66-33.54-17.63-69.16-31.67-106.13-40.4-2.9,13.58-5.69,27.24-6.97,41.11-.65,6.99-1.2,14.34-1.41,21.34-.06,1.92-.28,10.76.44,11.67.45.57,1,.59,1.65.67,3.68.48,8.67-.22,12.58-.04,4.42.2,9.03.56,13.45.95,21.37,1.87,42.53,6.29,63.13,12.02l-3.95,33.65,24.19,10.06,2.33-15.46-7.82-4.59ZM553.77,141.99c2.08,1.42,5.93-5.17,6.54-6.61,1.02-2.39,2.68-6.55.59-8.66-3.06-.68-9.66,12.18-7.13,15.27ZM560.23,149.46c-1.63.14-2.2,1.99-3.59,2.67-1.79.89-3.23.74-4.52-.84l-2.1-4.16-2.31,9.5,1.03.63,8.86-1.73,2.63-6.07ZM436.46,155.04c-2.02,4.82-2.89,10.79-2.55,16.01.05.78.55,5.36,1.16,5.34,2.89-6.26,4.47-14.98,1.39-21.35ZM317.79,181.97c-1.21-.34-1.22,1.13-1.51,1.96-2.58,7.35-4.38,15.05-6.83,22.46.03.87,4.87,3.76,5.78,3.92,1.02.18.56-.22.71-.69.5-1.54.75-4.75.91-6.52.66-7.01.18-14.12.93-21.13ZM440.4,313.87c24.89-1.67,46.31-16.36,55.15-39.83,10.45-27.74,9.7-101.56-37.46-66.26-3.09,2.32-16.81,14.48-18.03,17.27-1.09,2.48-1.36,7.76-2.43,11.04-1.42,4.36-3.81,8.58-6.06,12.55,4.35,12.75,8.08,28.31.03,40.38,3.39,7.99,7.99,16.11,8.8,24.85ZM315.94,222.84l2.29-1.21-1.6-2.51c-.63.47-.94,3.43-.69,3.71ZM402.71,277.58c1.94-3.03-5.55-10.86-7.86-12.66-21.08-16.36-57.94-18.13-78.67-.26-45.19,38.96-9.76,104.99,46.77,96,17.72-2.82,44.25-15.99,51.85-33.15,1.38-3.12,3.76-7.33-1.5-6.98-4.4.29-5.1,4.92-8.49,6.75-9.88,5.32-14.9-4.81-22.71-5.05-3.18-.1-8.75,2.35-12.27,3.05-6.51,1.3-11.53.76-17.89,1.15-9.18.56-19.14,5.51-27.5.09-1.14-.74-2.67-1.77-2.46-3.34.41-.45,3.46,2.22,4.15,2.58,7.1,3.72,16.32-.01,23.95-.72,4.89-.45,10.4-.08,15.26-.53,5.62-.51,12.02-3.96,17.26-3.67,7.18.4,9.94,7.14,18.57,6.07,5.21-.65,5.17-4.9,8.56-6.77,2.28-1.26,4.45-1.26,6.99-1.14.55-2.32-3.85-10.57-5.79-10.66-1.42-.06-2.5,1.47-4.92.7-3.06-.97-4.65-8.49-5.32-11.4-1.04-4.55-3.28-15.48.02-19.03.62-.67,1.89-.84,2-1.01ZM401.38,283.68c.19-2.13,2.56-1.35,3.71-2.55-1-1.24-2.43-2.57-3.66-.88-.48.66-1.37,3.12-.05,3.44ZM496,280.58c-.43-.4-.94-.76-1.48-.15-1.28,1.48-2.89,5.43-4.23,7.39-10.99,16.04-28.26,25.47-47.56,27.45,1.9,1.93,4.74,2.91,6.92,4.45,3.4,2.4,11.91,10.14,12.96,13.98.19.69.36,1.25-.6,1.06-1.25-.5-3.91-6.33-5.34-5.11-5.18,14.22,14.95,15.01,23.06,20.8,2.35-.4,9.5-5.58,11.33-4.33l1.62,3.52c2.97-1.21,6-4.24,9.39-2.69l1.27,2.65,2.99-2.61c.17-1.03-6.1-6.88-7.27-7.06l-7.56,3.18c-.39-2.21,2.07-2.06,3.4-2.86,15.99-9.67,19.57-22.49,13.2-39.98-2.08-5.7-7.69-15.61-12.09-19.71ZM404.99,283.81c-.19-.2-.99-.64-1.28-.39-1.86,1.1-.59,7.1,1.64,7.67,1.98-1.18.78-6.1-.36-7.28ZM403.72,301.33c.23,9.03,9.68,8.02,6.96-.93-2.19,2.79-4,3.1-6.96.93ZM422.75,312.94c.49-.43-3.88-4.94-4.37-5.61-1.29-1.75-2.37-4.11-3.58-5.7-2.51-3.28-2.67,3.73-2.17,5.42.08.25,2.93,4.08,3.15,4.28,1.46,1.35,5.01,1.54,6.97,1.61ZM311.45,346.68c-3.16-3.29-6.19-6.71-8.75-10.51-.73-.02-1.44,3.64-1.17,4.39l3.03,16.5c.58.8.5.22.93.01,1.02-.5,1.93-1.23,3.03-1.63,1.24-.46,5.89-1.46,6.27-2.09,1.44-4.02-1.33-4.58-3.33-6.67ZM300.61,343.13c-.77-.17-.94.25-1.38.7-5.71,5.87-11.8,14.61-15.88,21.74-1.49,2.6-3.3,5.86-4.1,8.67,3.27-2.84,6.51-5.85,10.25-8.09,2.79-1.67,11.22-4.58,12.52-6.52,2.05-3.05-1.04-12.74-1.42-16.51ZM494.74,359.85c-.58-1.65-3.94-11.4-4.62-11.88-1.01-.72-6.53,2.71-7.91,3.29-.18.74.63.94,1.07,1.24,3.74,2.54,7.7,4.84,11.46,7.35ZM505.42,363.1c-.38-1.84-3.98-14.21-4.61-14.66-1.2-.86-5.74,1.42-6.53,2.36-3.5,4.16,8.76,10.23,11.14,12.3ZM508.16,348.74l-4.5,3.05c-.07.35,1.36,4.6,1.67,5.14,1.42,2.48,5.88,2.34,8.23,3.84,1.08-.63.18-1.73-.16-2.62-1.24-3.27-3.55-6.35-5.24-9.4ZM455.73,379.35l-11.93-2.23-50.27-25.88c-7.61,2.59-4.27,3.09-.98,6.99,10.87,12.9,18.12,28.03,20.97,44.75l26.32.89c1.89-2.98,3.98-6.6,6.36-9.2,1.73-1.89,5.29-3.96,6.5-5.58.68-.91,3.56-9.23,3.03-9.75ZM333.58,360.32c5.55,5.44,9.59,11.48,12.76,18.58.55,1.23,2.01,6.61,2.86,6.9,17.89.58,36.16-3.96,51.19-13.63-3.47-6.46-8.29-12.03-13.24-17.38-5.52,1.81-10.75,4.31-16.41,5.77-12.38,3.18-24.87,3.63-37.16-.24ZM314.9,355.34c-10.94,1.18-20.52,12.04-21.28,22.84-1.58,22.32,18.92,43.54,41.58,41.58,7.86-.68,13.93-5.38,21.62-6.25.75-.43.04-1.13-.28-1.6-1.28-1.91-5.38-5.59-6.02-7.44-.95-2.74-.72-7.3-1.26-10.35-2.76-15.63-15.35-40.82-34.35-38.77ZM501.94,387.25c2.4-.27,5.21.2,7.66,0v1.39c-12.66-.7-25.75,5.45-32.51,16.25,8.35-1.89,10.01.94,12.9,7.78,1.98,4.69,7.28,23.69,9.37,25.92,1.43,1.51,6.79,4.62,8.89,5.98,11.38,7.35,23.44,13.83,35.88,19.21,8.55-3.86,16.75-11.93,16.6-21.96-.15-10.11-11.21-25.84-15.12-36-5.8-15.08-6.74-30.06-3.96-45.97-9.37,2.86-9.6,12.97-16.01,19.05-1.65,1.57-8.7,6.5-10.73,6.47-.58,0-1.25-.4-.9-.91,7.28-3.3,19.1-11.31,15.11-20.67-.8-1.87-3.63-5.62-5.53-3.64-1.37,1.43-3.03,4.92-4.71,6.89-19.15,22.51-47.49,8.44-67.89,25.35-6.16,5.11-11.12,13.23-13.37,20.87,7.34-.39,14.57.91,21.83,1.67,3.65-3.34,10.67-5.25,14.16-8.16,1.73-1.44,3.55-5.23,5.32-7.22,5.18-5.82,15.22-11.42,23-12.3ZM296.89,364.5c-7.27,2.58-14.94,8.37-19.43,14.71-4.04,5.71-6.77,18.4-7.5,25.47-.61,5.86-.85,9.87,1.39,15.32,3.83,9.31,11.21,17.31,19.73,22.53.85-.18,1.59-7.27,1.66-8.57.43-8.24-1.52-16.42-1.9-24.62-.42-9.16-.27-28.81,2.33-37.19.87-2.81,2.59-5.01,3.73-7.65ZM550.47,367.75c-.39-.41-8.32,2.66-8.73,4.03s-.22,8.26-.11,10.15c.52,8.53,3.08,17.42,6.3,25.28,7.16,17.44,24.9,36.35,5.08,52.95-1.96,1.64-4.16,2.65-6.14,4.07-.25.18-.9.03-.58.81.29.71,10.32,7.71,12.08,9.29,3.17,2.84,6.3,6.27,9.02,9.56.26.25.57.43.95.43.61,0,7.38-4.97,8.16-5.79,11.92-12.46,3.29-40.44-3.96-53.67-9.02-16.47-24.85-28.36-23.46-48.98.18-2.69,1.17-5.45,1.39-8.13ZM403.66,416.45l6.35-18.49c.72-3.46-1.93-10.05-3.29-13.48-.62-1.57-4.35-10.04-5.31-10.49-9.95,5.38-20.39,9.67-31.53,11.93l3.23,40.77c.33.23,6.53-.79,7.19-1.32,1.55-1.27,3.28-9.16,6.11-10.14,5.1-1.76,12.01,1.03,17.25,1.23ZM367.9,386.38c-6.18.51-12.3,1.21-18.53.88l2.53,16.28,7.45,9.27.27,1.57-25.13,7c-.6.42-.36.66-.26,1.2.36,1.93,2.09,4.44,2.68,6.41,11.49.55,22.91-.4,34.29-1.79-.2-13.66-1.52-27.29-3.3-40.81ZM292.25,448.09c.8.21.93-.33,1.39-.69,1.61-1.24,2.9-2.82,4.77-4.06,1.54-1.02,4.96-2.29,5.85-3.44,1.41-1.81,3.15-10.82,3.33-13.39.19-2.74.21-7.05-.03-9.77-.59-6.81-4.76-8.4-8.26-13.56-.78-1.15-1.84-2.81-2.48-4.02-1.48-2.79-2.24-6.31-4.1-8.67-2.57,19.33,4.56,38.43-.47,57.59ZM411.61,400.72c-.79-.15-.96.17-1.27.81-2.14,4.37-2.92,10.73-5.23,15.23,1.5,2.76,6.2,3.26,7.9.45l-1.4-16.49ZM435.64,413.14c.25-.24,2.53-5.72,2.7-6.37.14-.58.4-.71-.25-1.19l-24.16-.69.47,11.38.69,1.14c6.56-2.6,13.65-3.14,20.56-4.28ZM379.56,435.32c-.25,2.75.19,5.81,0,8.59.9.21.89-.32,1.31-.78,1.37-1.5,6.72-9.54,7.82-9.84.82-.22,1.07.04,1.55.63-17.64,18.6-25.27,45.62-18.89,70.69,37.35,30.08,87.97,28.87,123.87-2.88,2.24-1.98,4.7-5.35,6.94-6.99.64-.47.94-.87,1.88-.67.84.8-6.12,7.36-6.96,8.13-25.85,23.71-63.52,32.65-96.85,20.21l-.71,1.13c.17,3.22,2.81,19.61,5.36,20.68,2.49-4.26,6.04-8.14,10.51-10.39,3.09-1.56,4.15-2.4,6.91-.06,6.95,5.87,5.32,19.03-3.39,22.16-2.35.85-4.9.38-6.82,1.53,0,.53,6.62,7.37,7.27,7.59.35.12.72.09,1.08.07l.47-2.32c1.22-1.05,7.16,5.77,9.04,5.61s1.74-4.6,3.72-5.19c2.72.1,3.75,3.81,5.4,3.54,7.99-1.28,12.93-19.06,14.62-25.81-4.58-1.83-10.2-3.11-14.52-5.47-1.11-.61-2.81-1.32-2.47-2.87,14.15,7.02,29.61,10.35,45.45,8.29.44-5.15,2.94-11.84,2.35-16.85-.2-1.65-2.04-6.23-1.82-7.46.13-.74.9-.75,1.41-.02.94,1.34.35,3.6,1.84,4.43l2.57-7.89,1.07,1.06-4.1,17.51c.35.4,3.75-2.83,4.4-3.26,1.85-1.23,6.79-4.24,8.77-2.81,1.41,1.02.56,11.55.29,13.73-.55,4.44-1.29,9.81-5.46,12.19-3.06,1.74-7.09,3.13-10.1.6-.96.06-.89,6.09-.6,7.09.14.48,3.94,4.47,4.33,4.54,2.62.44,4.09-3.95,6.09-5.09,2.2.38,4.22,4.23,6.08,4.52,2.07.32,4.17-3.06,5.49-3.19,1.67-.17,3.1,2.15,4.85,1.18,12.19-9.68,20.31-23.5,22.25-39.08,1.18-9.46-.42-17.9-2.26-27.11l1.49,1.06,3.15,15.19c1.43-4.02,3.08-8.04,5.21-11.75.77-1.34,4.1-6.72,4.98-7.44.65-.53,1.16-.3,1.89-.31l-7.04,11.3c-3.34,6.61-8.21,22.56-6.67,29.59.65,2.96,6.12,15.39,8.6,16.49.22.1,2.88-1.06,4.79-.62,2.1.49,3.17,3.79,5.9,3.15-.96-7.82,5.88-4.55,8.59-.57,1.62-.3,1.29-1.93,2.57-2.91,4.13-3.16,6.3,1.85,9.07.24,2.11-1.23,4.99-9.3,5.75-11.89,7.79-26.63-5.59-50.59-26.76-66.08-.55-.4-4.51-3.17-4.8-2.86,1.85,5.38,5.3,12.66-2.68,14.27-2.26.46-14,1.88-15.43,1.27-.64-.27-4.35-4.65-5.1-5.58-1.77-2.16-3.76-4.9-5.31-7.23-1.14-1.72-4.98-7.53-5.3-9.13-.12-.58-.19-.97.15-1.51.62-1,7.66-5.09,7.66-5.81l-19.72-12.32-.69.69,7.78,23.82c.35.74-.36,1.96-1.05,1.04l-18.46-54.92c-3.37-7.57-5.68-7.57-13.06-4.46-6.58,2.78-12.19,7.58-18.64,10.62-1.56.31.2-1.93-.23-2.33-16.52-2.69-33.11-1.07-48.47,5.64-1.62.71-10.13,5.62-10.72,5.49-.42-.09-.88-.86-.72-1.37.49-.69,8.19-4.08,9.62-5.01.45-.29.83.05.6-1.03-6.11-2.51-12.53-3.86-19.18-3.17-4,4.66-7.18,12.6-7.75,18.72ZM307.81,439.27c2.18-.25,5.13,0,7.43,0,.33,0,4.3,1.25,5,1.5,1.01.36,4.92,2.7,5.46,2.47l9.64-13.87-3.23-7.66c-6.1-.35-11.5-1.37-16.95-4.18-1.04-.53-5.61-3.8-5.96-3.78-.33.02-.52.52-.51.95.07,3.23.62,6.65.7,9.9l-2.74,15.14c.52.17.96-.44,1.16-.46ZM285.25,461.07c1.71-5.53,5.37-9.95,5.96-15.94-4.66-3.84-9.59-7.19-13.6-11.9-2.73-3.2-4-6.38-6.17-9.62-.4-.6-.53-1.27-1.48-1.07,1.69,13.92,6.9,26.54,13.98,38.49l1.31.03ZM223.98,492.22c-.44.59,3.57,2.02,4.06,2.2,13.79,5.1,28.33,2.36,42.11-1.31,2.71-.72,10-2.54,12.04-3.75,1.72-1.02.26-6.54.28-8.53.03-2.54.31-6.17.49-8.8.11-1.56,1.34-5.69.69-6.74-4.77-3.43-9.6-7.65-13.48-12.07-9-10.27-10.72-18.49-24.86-24.37-19.11-7.95-37.95-5.43-44.44,16.37-5.92,19.88,5.24,54.25,31.3,43.38,21.11-8.81,15.94-40.73-5.55-37.13-4.37.73-5.47,5.41-6.62,5.92-2.3,1.01-.4-2.58.04-3.21,6.68-9.52,21.62-3.64,25.5,6.01,6.45,16.05-5.48,30.73-21.59,32.04ZM373.06,428.82v27.63c.7-.1.87-.88,1.17-1.38.72-1.2,3.88-7.06,4.09-7.99.43-1.93-.68-5.71-.64-8.05.06-3.5,1.26-7.66,1.89-11.13-.04-.64-6.19-.05-6.51.92ZM341.94,466.44c.28,2.23-.2,4.91,0,7.2,5.22-1.06,10.64-3.41,15.49-5.64,3.21-1.47,9.97-4.52,12.53-6.51.48-.38,1.7-1.52,1.7-2.01v-29.26c0-.13-.48-1.08-.78-1.18-.9.02-1.82-.05-2.72,0-4.57.24-9.28,1.23-13.89,1.43-5.02.21-11.6-.68-16.3-.04-.65.09-1.21.09-1.62.7-1.98,3.92-6.36,7.98-8.27,11.7-.29.57-.65.98-.47,1.69s4.73,4.31,5.75,5.43c3.36,3.71,7.96,11.55,8.59,16.49ZM281.57,516.83l12.2-1.32,8.93,5.79c3.89-1.16,8.51-6.03,12.52-5.88,1.88.07,8.2,1.56,9.27,1.33.36-.08.52-.37.7-.65,1.74-10,4.15-19.58,8.32-28.84,4.94-10.98,10.53-14.49,4.49-27.55-6.94-15-25.65-25.58-40.39-13.93-18.11,14.32-11.88,36.1-13.25,55.95-.35,5.11-2.02,10.06-2.78,15.1ZM543.38,465.4l-21.05-10.35-8.12,5.41c-.38,2.39,10.57,16.88,12.8,19.21.7.73,1.85,2.17,2.82,2.33,3.08-.91,14.85-.84,16.48-3,1.78-2.37-1.12-11.78-2.93-13.6ZM371.2,462.96c-.72-.18-1.09.19-1.65.44-4.6,2.07-9,4.94-13.83,7.07s-9.57,3.87-14.45,5.53l-3.98,7.39c10.28.54,20.42-1.46,30.19-4.4l3.71-16.03ZM497.52,527.06c-1.73-1.66-11.92,6.4-12.75,8.35-1.29,3.04-.63,9.37-1.62,12.74,1.61,4.96,4.48,4.57,8.52,2.52,4.98-2.53,5.31-7.52,5.86-12.72.16-1.51.64-10.28,0-10.89ZM532.82,539.12l-1.62-5.57-2.09,5.57h3.71ZM418.93,534.09c-3.93.49-12.24,8.19-13.17,12-.38,1.56,3.36,8.02,4.8,8.71.99.47,2.93.65,4.05.59,7.44-.43,11.84-7.77,10.15-14.79-.54-2.22-3.32-6.82-5.83-6.51ZM482.2,542.37c-4.32,1.08-8.91-.04-13.26.44-.7.08-1.15.04-1.59.72,3.64,4.11,8.33,6.72,13.23,9.05,1.18-.06,1.52-8.84,1.62-10.21ZM554.02,548.44c-1.05.3-1.09,3.4-.32,3.95.77.56,4.63-.3,4.66-.96-.53-1.38-2.83-3.43-4.34-2.99ZM568.58,551.19c.19-3.51-5.82-3.2-5.1.47,1.96.43,3.26.24,5.1-.47ZM547.69,552.58c.07-1.75-3.39-3.48-4.58-2.72-.35.79-.97,2.38-.09,2.98l4.67-.26ZM493.21,561c-.6.15-3.16,3.39-3.08,3.83l2.99,2.64,3.91-3.1c.11-.67-2.79-3.63-3.82-3.37ZM480.81,565.13c1.43.05,3.12-.07,4.17-1.16-.61-.45-2.53-3.06-3.24-2.55l-.93,3.71ZM506.82,562.35c-1.69-.77-3.59-.3-4.15,1.56l.91,1c1,1,3.68-1.97,3.24-2.57ZM416.26,565.13c.23,1.49-1.7,3.15-.25,4.15l3.48-1.6c-.56-.43-2.62-3.11-3.24-2.55ZM425.54,568.84c.93-1.08-3.3-4.02-3.71-3.71l-1.4,5.57,5.11-1.86ZM437.14,569.29c.15-2-1.45-3.27-3.01-4.14l-2.55,5.09c2,.27,3.71-.34,5.55-.95Z"/>
  <path d="M388.15,160.71c0,6-4.86,10.86-10.86,10.86s-10.86-4.86-10.86-10.86,4.86-10.86,10.86-10.86,10.86,4.86,10.86,10.86ZM380.36,152.79c-3.99,1.17-2.1,9.99,2.25,7.38,3.08-1.86,1.49-8.48-2.25-7.38Z"/>
  <path d="M423.53,135.65c5.82-.17,8.73,15.83,5.27,19.63-4.27,4.7-8.02-4.21-8.71-7.57-.64-3.09-1.2-11.92,3.44-12.06ZM422.52,140.64c-1.53,2.07-1.54,5.34,0,7.41,1.94-.86,1.15-7.4,0-7.41Z"/>
  <path d="M356.24,169.56c6.63-.61,17.63,5.13,19.29,12.04,3.36,13.95-6.64,25.4-20.69,19.29-14.82-6.44-16.07-29.73,1.4-31.33ZM354.83,171.4c-3.7.58-7.71,3.71-9.03,7.23-4.86,12.96,10.45,27.17,22.94,20.62,5.02-2.63,6.28-9.94,5.72-15.19-.9-8.34-12.03-13.85-19.63-12.66Z"/>
  <path d="M385.37,210.3c5.62-.59,10.73-2.92,16.02-4.64-2.8,10.8-16.48,13.76-24.15,5.8l.69-1.15c2.4-.18,5.08.25,7.43,0ZM399.07,207.98c-6.25,2.33-12.47,3.06-19.04,3.94,3.81,3.7,10.13,3.66,14.55,1.08.73-.43,5.18-4.39,4.49-5.02Z"/>
  <path d="M395.86,184.25l-.04-1.35c3.06.29,5.67,1.55,8.84.71,4.19-1.11,8.28-9.02,11.75-8.92,1.03.03,2.18.84,3.31.76,1.47-.1,1.9-1.24,2.81-1.84,1.5-.99,1.22,1.03.24,2.1-2.39,2.59-5.47.02-7.42.92-1.23.57-5.29,5.42-7.21,6.74-3.87,2.65-7.92,2.41-12.27.88Z"/>
  <path d="M419.04,164.79c.59.54-2.32,3.89-3.12,4.11-1.73.48-5.57-2.45-4.01-3.18l7.13-.93Z"/>
  <path d="M463.98,447.28c10.66-1.4,18.15,14.4,20.67,22.75.65,2.15,2.71,9.97,2.12,11.66-.22.64-2.03,1.59-2.71,1.94-6.46,3.22-23.92,8.71-30.77,7.55-3.45-.58-5-3.42-5.4-6.67-1.12-9.12,5.02-35.76,16.1-37.22ZM463.62,449.02c-8.92,3.85-12.77,18.34-13.87,27.23-1.97,15.93,3.78,14.72,17.12,11.78.55-.63-2.5-3.03-2.99-3.74-4.41-6.46-4.35-24.67-1.79-31.92.44-1.24,1.44-2.06,1.53-3.34ZM471.38,458.82c-4.03,1.04-2.44,18.17,3.12,18.96,3.02-3.4,2.36-9.09,1.18-13.17-.42-1.46-2.34-6.29-4.3-5.79Z"/>
  <path d="M381.3,457.01c4.13-.81,6.18,6.6,6.95,9.57,2.47,9.61,2.24,19.29,1.53,29.12l-.76,1.1c-4.91.18-16.21-.16-17.24-6.32s.13-17.73,2.45-23.8c1.03-2.69,4.17-9.1,7.08-9.67ZM379.1,494.07c-1.84-8.13-1.57-19.06,1.06-27.03.92-2.8,4.71-6.89,1.89-8.65-2.15-.4-5.75,7.48-6.43,9.23-2.16,5.6-3.16,15.15-2.56,21.12.39,3.86,2.19,5.17,6.03,5.34ZM386.03,471.34l-1.36-.02c-1.61,6.26-1.25,12.86.46,19.04l1.36-.02c1.76-5.98,1.58-13.08-.46-18.99Z"/>
  <path d="M474.61,500.87c-21.23,21.13-47.46,30.37-75.39,14.64-2.97-1.67-6.23-4.69-8.86-6-3.22-1.62-14.4-4.04-16.11-6.64-.64-.97-1.32-3.07.43-3.22.95,2.9,2.02,3.05,4.57,4.26,30.22,14.25,67.79,3.7,96.91-8.68,1.7-.72,9.77-4.05,10.43-4.9s.71-2.88,1.89-3.69c2.16-.5-.19,4.35-.67,4.9-1.21,1.37-7.08,2.78-8.83,4.17-1.31,1.04-3.05,3.85-4.36,5.16ZM403.71,512.18c-1.35,5.04,4.21,5.95,8.01,7.09,17.62,5.32,34.96,1.57,49.73-9.03,2.76-1.98,10.63-6.79,5.29-9.58-16.82,5.93-34.22,10.73-52.11,11.98l-10.91-.46ZM401.83,511.74l-6.01-.95c-.85.76,4.61,3.61,5.34,3.72,1.31.19.54-1.95.67-2.77Z"/>
  <path d="M439.84,425.46c1.19-.13,2.51-.56,3.34.56-3.24,5.64-7.01,11.18-11.36,16.03-1.65,1.84-7.79,8.13-9.65,8.93-4.87,2.09-12.87-1.73-15.59-6-1.41-2.21-1.1-2.22.61-3.88,7.17-6.95,22.73-14.6,32.65-15.65ZM440.4,427.2c-8.56,1.07-17.83,4.88-25.04,9.56-1.23.8-8.08,5.82-7.9,6.86,2.99,4.15,9.67,8.19,14.7,5.54,1.52-.8,7.94-7.52,9.4-9.2.87-1.01,9.46-12.29,8.84-12.75Z"/>
  <path d="M560.07,526.42c-6.7,6.24-16.31-.04-19.44-6.95-2.4-5.32-.69-7.56,2.87-11.71,3.06-3.57,7.54-6.77,11.87-8.58,1.17.02,1.7,2.1,2.08,3.01,1.61,3.85,2.84,9.03,3.56,13.16.3,1.71,1.3,6.86,1.09,8.19-.08.48-1.62,2.5-2.03,2.88ZM555.58,501.04c-4.05.52-14.36,10.14-14.72,13.76-.43,4.25,7.09,12.14,11.29,12.67,2.78.35,7.56-1.42,8.05-4.4,1.01-6.13-3.31-15.93-4.62-22.03Z"/>
  <path d="M423.06,459.84c5.21-.27,5.54,11.07,5.29,14.51-.08,1.06-.39,4.51-1.24,4.8-3.1,1.41-13.7-2.41-14.5-5.38s6.7-13.73,10.45-13.92ZM422.16,461.65c-3.11.93-6.85,8.36-8.11,11.3,1.78,2.5,8.89,5.73,11.65,4.81.76-.25,1.25-4.72,1.26-5.74.02-2.61-.77-11.57-4.81-10.37Z"/>
  <path d="M505.31,514.14c3.93-.98,6.05,7.69,4.24,10.76-2.62,4.44-11.95-.51-10.43-5.31.35-1.12,5.12-5.19,6.19-5.45ZM506.13,515.52c-2.03,1.22-7.53,4.59-4.68,7.37.41.4,3.7,2.26,4.23,2.29,4.87.34,2.8-7.94.44-9.67Z"/>
  <path d="M400.34,451.92c.76-.2,2.24-.35,2.7.33.23.34,1.24,7.44,1.18,8.16-.16,1.9-2.22,3.2-4.02,3.45-1.39-.07-3.5-6.83-3.49-8.12.01-1.37,2.41-3.49,3.63-3.82ZM401.16,453.21c-4.36,1.2-2.21,6.06-.46,8.81.67.15,2-1.34,2.04-2.05s-1.11-6.73-1.58-6.76Z"/>
  <path d="M446.9,449.95c-.62,3.22-2.73,5.9-3.5,9.27-.66,2.89-.25,5.7-.68,8.14-.32,1.79-1.65,1.53-1.88-.44-.45-3.87,1.96-12.5,4.28-15.74.46-.64.84-1.4,1.78-1.24Z"/>
  <path d="M391.6,459.27c.54.36,2,9.6,1.93,10.89-.04.84.09,1.53-.73,2.07-1.92-1.34-.93-3.7-1.22-5.74s-1.24-4.72-1.34-6.56c-.06-1,.92-.96,1.36-.66Z"/>
  <path d="M485.34,92.44c5.3-.85,8.78,3.08,9.36,8.07,1.08,9.34-5.73,25.76-10.9,33.58-.68,1.03-2.46,4.23-3.67,4.22-1.69-.02-10.37-6.42-12.07-7.91-1.5-1.31-5.54-4.82-5.35-6.67.21-2.16,5.34-11.78,6.72-14.22,2.83-4.99,10-16.12,15.91-17.07ZM489.11,97.04c-.31-.2-1.13-.14-1.54-.05-4.26.93-8.97,16.31-5.08,20,3.18.66,6.17-6.48,6.81-8.95.52-1.99,1.53-9.89-.2-10.99ZM487.31,124.38c-3.61,1.13-5.1,3.92-9.4,2.19-6.38-2.57-5.5-14.39-4.54-19.85-2.85,3.77-5.73,8.78-7.51,13.16-.68,1.68-1.91,3.47-.87,5.22,1.22,2.06,7.02,6.55,9.17,8.01,1.38.94,5.24,3.82,6.51,2.74.56-.48,7.17-11.06,6.64-11.47Z"/>
  <path d="M552.2,172.55c.82-.98,1.05-4.96,1.76-4.97,1.11.88.79,2.55.49,3.74-1.5,6.13-11.53,4.43-15.58,6.25-.66.29-3.6,3.31-4.71,4.12-26.53,19.39-61.56,6.65-68.94-25.25-.46-1.98-.35-4.46-.78-6.19-.59-2.4-3.22-4.15-3.58-8.05-.08-.83.24-3.51,1.13-2.04,1.28,2.1.79,5.26,3.28,8.33,3.63,4.46,25,15.56,31.3,18.86,18.03,9.45,28.74,11.94,49.34,7.52,1.61-.35,5.26-1.11,6.27-2.32ZM468.27,160.14c.49-3.49,3.29-6.76-1.86-7.89.11,5.58,2.37,10.79,4.7,15.73,3.91.13,6.47-5.05,6.71,1.97,9.08,1.39,17.91,5.24,24.82,11.32,1.43,1.26,6.99,7.88,7.75,8.06,3.37.8,4.85-3.84,6.63-5.76,1.29-.64,2.34,2.63,2.88,3.45,1.52.89,14.49-6.39,15.23-8.08.09-.21.2-1.14-.22-1.15-3.73-.19-6.29,4.9-7.42,4.65l-1.61-3.96c-18.7-.33-34.07-12.95-50.07-21.02-2.66-.67-4.75,3.16-7.54,2.69ZM476.17,168.51c-1.43-.15-2.82.37-3.62,1.61l1.99,2.55,1.63-4.17ZM507.28,189.4c.13-.72-.07-1.08-.44-1.65-4.35-6.71-18.93-14.91-26.85-15.88-2.14-.26-3.9-.3-3.87,2.45.02,1.38,3.79,4.79,5.04,5.77,7.35,5.82,16.72,9.21,26.11,9.31Z"/>
  <path d="M493.82,193.58v1.38c-2.48.53-5.07.67-7.61.42-.72-.07-9.65-1.67-7.72-3.66,5.13,1.83,9.89,2.77,15.33,1.86Z"/>
  <path d="M549.08,124.84c-.64-.63,4.34-7.69,5.08-8.48.92-.98,2.14-.93,1.69.63-.12.42-4.52,6.62-4.98,7.1-.62.65-.66.97-1.79.76Z"/>
  <polygon points="501.24 94.66 501.24 104.41 499.85 104.41 499.85 95.35 500.56 94.66 501.24 94.66"/>
  <path d="M335.78,274.97c15.56-2.65,20.16,23.43,19.96,34.43-3.69,5.71-13.63,7.4-20.02,6.73-4.94-.52-4.84-1.12-6.19-5.42-2.71-8.64-6.66-33.56,6.25-35.75ZM337.2,276.35c-5.78.58-7.76,6.03-8.59,10.95-.95,5.67-.16,11.29.93,16.91.6,3.11,1.57,6.14,2.42,9.19,4.79,2.76,17.83.8,21.38-3.23,1.07-1.22.77-4.12.68-5.82-.46-8.48-5.28-29.15-16.81-28Z"/>
  <path d="M349.73,273.56c.22.39.09.87.11,1.3-.69.72-5.25-2.85-5.92-3.58-.47-.51-.84-.29-.58-1.53.86-.12,1.37,0,2.11.44.28.16,4.14,3.13,4.28,3.37Z"/>
  <path d="M399.53,274.86c.41,1.73-1.21,1.39-1.66,2.75-.37,1.14.29,3.12-1.35,3.28-2.04-.43.43-6.79,3.01-6.03Z"/>
  <path d="M396.28,318.05c-.59.61-4.68-2.25-3.71-3.25.59-.61,4.68,2.25,3.71,3.25Z"/>
  <path d="M411.14,313.87c.64.58-3.53,4.73-3.7,2.55-.06-.75,3.08-3.12,3.7-2.55Z"/>
  <path d="M345.19,403.5c-.95.17-1.23-.1-1.86-.69-1.41-1.3-6.11-8.14-7.65-8.14l-3.45,8.55-1.43.27,3.73-11.13c.75-.14,1.38.15,2.01.51,1.28.73,7.15,7.33,7.97,8.74.35.61.93.91.68,1.87Z"/>
  <path d="M318.95,408.15c-.14.02-1.18.52-1.18.74l1.88,4.6c0,.4-1,.31-1.17.24-.28-.13-2.83-5.05-2.93-5.44-.17-.64.19-1.53.61-1.53h9.75l.69.7-.69.7c-2.17.23-4.89-.32-6.97,0Z"/>
  <path d="M438.86,381.37l7.02,8.45c-.09,1.05-7.26,3.93-8.73,3.94-1.57-1.7,5.94-3.29,6.06-3.96.16-1.92-7.28-7.75-6.06-9.04l1.71.62Z"/>
  <path d="M345.49,281.53c4.61,4.59,7.85,20.85,1.71,24.83-1.73,1.12-2.65,1.25-4.59.56-5.47-1.94-8.41-13.15-8.12-18.38.35-6.38,4.71-13.27,11-7.02ZM339.75,288.18c4.2,3.51,5.17-6.44,1-7.31-3.46.05-2.76,5.85-1,7.31Z"/>
</svg>