<?xml version="1.0" encoding="UTF-8"?>
<svg id="katman_1" data-name="katman 1" xmlns="http://www.w3.org/2000/svg" viewBox="0 0 841.89 595.28">
  <path d="M560.16,537.41c1,0,3.59-1.28,4.16.63-5.91.39-12.41.18-18.26.64-.74.06-2.87.2-2.88,1.28,13.88-.21,27.75-1.36,41.64-1.65.97-.02,1.58-.31,1.91,1.01-7.2-.38-14.34,1.13-21.47,1.78-9.89.91-20.99,1.15-31.28,2.8-8.29,1.33-15.69,6.21-24.44,6.94-3.41.29-6.67-.64-9.52-.56-2.09.06-5.1,1.4-7.13,1.27-1.5-.1-2.32-1.3-3.83-1.4-1.6-.1-3.18.94-4.81.69.26-1.25,1.31-1.11,2.26-1.28,7.1-1.3,14.45-1.02,21.59-2.09,9.38-1.41,25.65-7.05,30.72-15.39,14.99-24.65-10.04-53.61-30.56-65.62l-11.2,12.34,8.32,2.87c-8.47.46-17.53-.61-25.93.01-13.08.97-41.05,7.82-44.72,22.52-2.38,9.51,8.27,16.26,15.88,19.11,14.01,5.25,29.69,3.42,43.89-.33,10.11-2.67,20.2-6.73,28.5-13.13,1.39-.14,1.14.19.32.96-5.68,5.34-16.4,9.68-23.86,12.01-14.66,4.57-31.64,7.29-46.61,2.72-12.81-3.91-26.29-14.09-15.9-28.11,3.52-4.75,9.72-6.42,13.98-10-14.39,2.89-27.46,10.12-39.27,18.68-8.06,5.85-18.44,14.65-23.51,23.24-3.52,5.95-11.13,20.54.64,21.46,1.4-6.47,11.23-12.5,17.31-9.91-5.22,3.04-13.59,4.3-13.45,11.85l37.49-.03c15.35.71,31.02-.12,46.62.27,7.18.18,20.18,2.72,26.37-.24l1.23,1.34c4.53-.3,9.01-.06,13.53-.03,12.85.08,26.15-1.53,38.96.05,2.8.35,5.63,1.04,8.35,1.77l.28,2.55c-1.36,2.17-42.95,6.55-48.82,7.21-30.94,3.47-63.74,5.58-95.53,4.42-2.88-.11-6.77-.32-9.59-.65-.95-.11-1.97-.5-.95-1.28,2.54-.42,5.66.43,8.01.29,4.77-.28,11.05-8.56,15.36-11.18,1.02.61-.19,1.43-.63,1.93-2.64,3-7.34,5.7-9.94,8.95,9.7-.48,19.47.41,29.16.04,1.36-.05,2.52-.57,3.82-.67,2.11-.16,3.13,1.41,5.88-.85l11.09-11.32-83.57,1.92c.53-5.98-4.55-.48-6.09-3.2l1.92-.64c-1.6.25-3.36-1.51-4.73-1.33-.4.05-.32,1.19-.82,1.31-1.42.34-3.42-.23-5.01.02-3.68.56-6.87,2.06-10.58.64l.65,1.27c-2.53,1-5.97.07-8.02.32-.55.07-1.15.8-1.94.91-1.98.28-8.03.01-8.53,2.43-.16.77.59,1.85.47,2.04-.14.23-4,2.48-4.76,2.6-5.54.89-13.4-1.09-19.15-1.27-14.98-.48-29.95.77-44.83,1.33-9.96.37-19.9-.36-29.8,1.26.11,1.04,2.72,1.19,3.52,1.27,20.37,2.11,40.75.77,61.15.65.12.93-1.68,1.15-2.29,1.22-22.84,2.38-49.41,1.12-72.3-1.23-7.18-.74-11.77-2.42-19.2-2.52-5.08-.07-10.03-.08-15.08-.68.22-1.25,1.36-1.04,2.21-1.3,3.2-.97,6.61-1.45,9.95-1.26-1.62-2.99-7.99-2.03-11.23-1.94-5.54.15-11.39.89-16.94,1.3-.28-2.4,2.74-.1,1.92-3.2h1.27c0,.34-.07.96.14,1.11,1.91,1.36,16.86-1.16,20.36-.47.57-.52-1.64-4.11-2.89-3.83l-31.69.62,16.33-3.19,13.76-.65c-.73-4.38-3.28-9.49-3.79-13.82-.58-4.9,0-21.9,2.27-25.91.39-.68,2.07-.16,1.51-1.9l-7.04,3.53,8.36-6.53c2.08-8.65,7.15-15.96,10.86-23.89l1.28.32c-2.11,8.05-8.5,13.86-10.25,22.09,8.72-4.67,17.09-10.62,26.89-12.81l-5.45-5.11c-12.83-13.59-16.4-40.34-18.24-58.61-.58-5.8-.36-11.83-.94-17.63-.51-.77-14.17-4.15-16.61-5.17-1.03-.43-7.4-3.69-8.02-4.15-1.01-.75-3.26-4.78-1.03-4.1,2.08.64,7.26,4.54,10.15,5.87,5.07,2.33,10.55,3.81,15.8,5.65.3-9.83,1.86-19.52,3.87-29.14.23-1.11-.7-1.91,1.26-1.59l-3.74,30.31c.65,1.94,13.28,4.8,15.91,4.91.8-.79-1.21-16.37-1.31-18.87-.77-19.69,3.47-40.96,14-57.67,0-.85-8.19-6.53-9.5-7.67-11.49-10.03-18.99-19.6-27.15-32.41-5.05-7.92-9.72-16.16-13.81-24.63,0-1.76.03-1.44.77-.12,6.77,12.1,14.15,25.27,22.93,36,4.81,5.88,10.49,12.23,17.27,15.71l-16.11-25.19c-28.86-53.21-35.6-118.11-25.32-177.32,1.92-11.07,4.88-21.81,8.14-32.52-1.27-1.38-5.19,6.79-5.58,7.55-8.3,16.4-12.97,35.37-17.28,53.17l-5.33,31.18c1.39-21.97,6.21-44.59,13.44-65.33,1.24-3.56,2.62-7.98,4.02-11.35,3.91-9.42,11.21-19.01,12.96-28.63l10.56-15.1c.27-1.28-.29-.77-.81-1.08-5.09-3.02-10.38-2.33-15.54-4.32-2.41-.93-5.61-3.24-.92-2.93,6.3.41,12.7,4.28,18.74,5.37,5.52-3.79,6.59-12.6,12.9-15.33,1-.43,3.46-1.16,3.56.36.06.95-10.56,12.43-11.93,14.95-.48.88-1.13,1.48-.86,2.66,3.45,1.16,7.42,3.69,10.58,5.75,11.79,7.68,23.47,18.12,32.98,28.5,1.9,2.07,10.09,11.13,10.87,12.83.13.28.16,1.05-.31.95l-20.14-20.83c-7.46-5.89-14.42-13.46-22.52-18.48-.8-.49-1.41-1.25-2.49-1.02,14.36,21.85,28.49,44.18,38.51,68.44,7.98-.93,15.3-5.93,23.61-5.04l-1.09,2.43-20.72,6.27c1.67,5.22,3.95,10.28,5.62,15.5,13.26,41.33,14.85,85.09,11.72,128.22l7.57-31.16c3.49-22.93,4.23-56.84-2.76-79-.92-2.91-4.29-7.55-3.5-10.5.08-.3.85-1.3,1.24-.7,1.71.75,3.67,9.58,4.18,11.83,7.23,31.93,5.6,66.46-1.81,98.14-1.79,7.66-5.45,15.03-4.93,22.92l13.13-12.16.95.31-2.56,2.57c2.42.61,4.28-4.52,7.05-4.17l-.65-1.91c1.05.04,2.06-.04,3.04-.49,5.12-2.35,12.02-8.18,17.67-11.15,2.81-1.48,17.75-7.46,18.41-8.49,2.47-9.37,2.68-22.36,5.88-31.26.7-1.95,2.21-3.33,3.36-4.96,1.43-.27.91.64.97,1.6.26,4.36-2.89,10.68-4.06,15.16-.87,3.3-1.54,6.14-2.35,9.18-.85,3.21-1.46,6.59-1.28,9.92,3.22-1.24,6.61-2.33,9.97-3.15,15.13-3.71,29.8-5.17,45.43-4.53.78.03,2.38-.48,2.23.63l-20.2.62c-7.41,1.03-14.9,1.75-22.21,3.4-2.44.55-15.17,3.65-15.76,5.37l-1.39,11.09,18.23-1.3c14.63-.37,29.06,1.68,43.26,4.82,2.43.54,13.45,4.16,14.63,3.43l6.6-17.41c.6-.88,1.46-1.57,1.95-2.53,13.37-26.61,32.63-50.47,56.56-68.33,1.81-.18.53.8,0,1.29-3.91,3.71-8.56,6.86-12.51,10.54-18.21,16.96-35.75,39.91-45.12,63.11-.5,1.24-1.71,3.22-1.3,4.46,16.17-20.08,34.72-39.09,54.46-55.7,25.22-21.22,54.27-37.14,86.12-46.13.41-1.76-4.47-6.94-3.84-7.67.96-1.13,1.4.88,1.65,1.21,1.39,1.89,2.54,3.97,3.89,5.88,23.35-6.61,47.67-9.88,71.95-10.3.15-.92-1.13-.89-1.79-1.08-17.2-4.78-44.01-3.78-61.86-2.05-1.27.12-2.81.56-3.93,1.2l-.31-1.27c25.28-4.51,51.22-2.9,76.21,2.56l-1.91-30.74c1.07-.21,1.35.23,1.77,1.11,3.73,7.73,1.5,22.3,2.1,30.88,6.52,1.68,16.83,3.01,22.35,6.79.84.58,4.01,4.29,1.63,4.15-2.97-.18-12.03-5.2-15.98-6.45-1.34-.42-8.08-2.51-8.67-1.9-2.82,31.2-15.84,61.06-35.55,85.18-.9-.44.08-1.59.43-2.13,11.12-17.05,23.53-34.51,28.42-54.84.17-.69.97-3.23-.34-3.23-3.83,9.08-8.63,18.43-13.83,26.84-22.01,35.61-71.77,71.46-110.9,85.71-16.05,5.85-33.68,10.21-50.75,11.05,9.24,8.84,18.05,17.77,22.89,29.94,1.66,4.19,2.4,8.85,4.32,12.96,12.6-18.76,28.94-34.51,46.93-48l13.59-8.35c.29,1.34-.69,1.45-1.46,2.06-7.46,5.92-15.63,10.75-23.01,17.19-9.69,8.44-25.92,24.22-32.42,34.98-1.8,2.99-4.2,7.19-2.36,10.45,17.5-23.79,39.79-44.39,63.15-62.37,12.35-9.5,25.13-19.56,40.28-24.09.64-.83-4.81-5.4-5.39-6.44-1.8-3.2-.16-5.2,2.79-2.79.74.6,6.32,7.78,6.72,8.65.53,1.13.26,2.56.86,3.62,2.9,5.14,6.19,10.13,9.12,15.26,1.82.95,9.21-3.18,11.52-3.88,4.58-1.38,9.33-1.83,14.09-2.24.31,1.77-.37,1.08-1.4,1.44-5.82,2.05-15.85,3.8-20.83,6.74-.82.48-1.39.6-1.5,1.75s5.8,13.09,6.74,15.69c7.03,19.37,9.49,49.53,8.04,70.14-.13,1.8-.35,5.72-1.94,6.7,1.39-18.42.73-37.04-2.76-55.21-.58-3.01-4.08-18.13-5.26-19.72-1-1.35-4.7.79-4.81,2.23,1.34,8.58,3.19,17.12,4.41,25.72,2.82,19.92,3.69,39.62,3.3,59.79l7.47-3.1c2.74.39-.32,1.42-.74,1.8-1.32,1.25-6.68,5.28-7.02,5.82-1.24,1.94-1.37,7.71-2.29,10.2-1.11.15-.61-1.46-.63-2.23-.06-1.8.35-3.33.38-4.77.01-.59-.25-1.29-.7-1.31-1.41-.07-21.12,13.17-23.97,15.09-7.44,5-14.8,10.44-22.03,15.75-2.95,2.17-21.91,15.85-22.56,17.19-.44.89,2.9,6.54,3.68,7.86,2.56,4.32,13.57,19.21,13.31,23.15-.27,4.02-16.51,15.73-19.54,19.59l.34,5.11,1.95-.29,32.31-24.69.31.95-33.62,26.59c-.8,4.4-.81,8.86-2.22,13.15-1.18,3.6-3.71,6.47-5.15,9.9,6.29-.01,12.6.02,18.89,0ZM247.96,132.66l8.98-2.86c1.01-.77.32-.75.1-1.4-1.59-4.66-2.54-1.71-4.93.42l-1.58-1.27-2.56,5.12ZM261.39,139.04c-.45-9.24-9.96-2.91-14.73-.3-17.08,9.31-33.06,26.21-44.18,41.96l2.05-1.46c15.19-18.33,35.5-30.26,56.86-40.19ZM531.66,215.92c.85-9.47,3-18.89,3.83-27.87.09-.94.49-2.63-.93-2.21-3.98,3.05-13.34,4.98-15.39,9.59-.73,1.64-2.86,7.76-3.33,9.48-.74,2.72-4.77,24.08-4.03,25.11l16.98-10.24c1.39-.14,1.14.19.32.96-1.5,1.4-5.24,3.88-7.11,5.06-5.47,3.46-12.69,7.35-18.5,10.32-18.73,9.57-39.04,16.84-59.25,22.73-.8-.73,1.2-1.4,1.61-1.6,6.77-3.21,15.92-5.4,23.2-8.18,5.67-2.16,11.23-4.56,16.84-6.85l7.97-31.41c-18.18,13.89-34.99,29.75-50.61,46.44-4.17,4.45-9.4,9.56-13.41,14.74-2.2,2.84-4.14,5.74-5.77,8.95,3.89,2.14,7.99,3.73,11.71,6.2,1.09.73,8.76,6.33,7.48,7.56-4.33-.71-8.22-4.22-12.14-6.11-15.98-7.71-39.56-11.69-57.32-12.49-10.65-.48-20.57,1.71-31.09,2.59-1.2,15.66-1.65,31.4.01,47.07.88,8.34,3.53,16.96,4.4,25.06.08.7.57,2.31-.56,2.16-2.11-10.69-4.82-21.45-5.76-32.34s-.29-21.37-.24-31.91c0-2.49-.98-5.04.26-7.8l-1.06-1.54-9.2,1.87,7.04,7.67-9.37-6.89-9.8,3.09c-.81,2.72,3.15,1.94,2.52,5.08-4.54-4.23-3.64-4.25-9.19-1.83-7.86,3.42-19.24,10.32-26.61,15.01-5.01,3.19-9.36,7.04-14.14,10.51,1.11-3.89,5.06-6.17,6.43-9.89,2.45-6.64,3.52-24.43,3.83-32.03,1.68-40.99-1.75-85.08-16.02-123.64-.46-1.23-2.16-6.43-2.97-6.68-23.03,7.81-42.32,21.5-58.21,39.67-.59.68-1.74.96-2.54,1.94-8.96,11.06-3.33,38.71-.82,52.01,3.54,18.77,10.63,47.76,25.42,60.38,8.65,7.39,27.02,17.15,28.85-1.31,1.28-12.9-2.22-27.81-4.31-40.51-3.61-21.93-8.22-43.6-14.89-64.83,1.83-.34,1.04.46,1.44,1.41,6.74,16.19,12.01,41.75,15.04,59.28,2.13,12.32,6.61,36.21,3.86,47.7-4.4,18.33-28.38,4.21-35.7-4.64-.13,1.14.67,2.03,1.17,2.98,3.15,5.9,7.51,13.3,11.35,18.75,1.66,2.35,13.05,16.72,14.69,16.72l8.65-6.42c-3.32,5.02-7.52,9.52-10.52,14.77-11,19.3-12.47,44.43-11.29,66.26.07,1.37.54,7.57.75,8.21.36,1.09,2.02,1.27,2.98,1.51,2.25.55,19.09,3.69,20.22,3.31,1.51-.51.99-3.86,1.46-5.6,4.54-16.67,21.5-25.67,37.6-18.57,9.4,4.14,15.92,14.58,15.78,24.89.81.84,20-2.03,23.21-2.15.94-.03,1.55-.81,2.4.55l-24.98,3.2c-1.71.84-1.05,3.23-1.59,4.81-3.2,9.43-9.44,16.43-19.29,19.14-4.93,1.36-8.68,1.13-13.7.71,6.63,8.52,12.14,17.87,13.44,28.81l-6.69-15.4c-5.08-9.16-12.49-16.62-21.27-22.28-9.05-5.83-20.95-8.6-31.58-7.15l-.65,7.67c1.89-.46,3.03-1.75,5.08-2.27,8.61-2.22,17.1.67,24.57,4.96,14.62,8.39,25.93,24.66,22.86,42.14,19.18-2.28,37.78-.39,56.05,5.75,3.99,1.34,7.82,3.23,11.83,4.5.16,1.18-1.3.49-1.95.35-17.01-3.51-29.68-9.71-48.32-9.84-.64,0-3.99.29-4.16,1.14,22.52,2.74,45.42,11.31,60.18,29.16,4.63,5.6,13.68,19.81,3.24,23.67l1.91,7.37c2.34-.96.7-3.38.91-5.15.08-.64,1.49-4.62,1.84-4.94.25-.23,1.06-.09,1.46-.38s.45-1.02,1.03-1.25c2.65-1.08,7.37-.03,10.11.57,14.46-24.58,39.82-40.61,66.6-49.05.13-1.14-2.2-.69-2.82-.58-1.79.31-4.28,1.06-6.15,1.54-16.47,4.24-31.82,11.92-45.78,21.46-.68-.17-.38-.84,0-1.29,1.58-1.88,11.25-7.52,13.97-9.08,14.88-8.53,29.84-13.01,46.56-16.53l-4.94-8.18c-3.58-7.53-4.11-17.19-3.41-25.46.14-1.66.32-3.55,1.63-4.77-.3,10.8-.7,21.59,4.28,31.58.35.7,4,7.24,5,6.2-1.38-3.47-3.83-6.39-5.08-9.96-6.27-17.91.21-38.08,11.5-52.46,10.07-12.82,24.99-22,41.61-15.71-2.62-7.59-6.92-14.75-9.28-22.41-5.01-16.19-3.56-31.46-13.11-46.45-6.21-9.75-15.3-17.13-21.79-26.55,9.42-1.72,18.92-2.66,28.3-4.69,17.81-3.86,32.8-9.63,49.1-17.5,8.98-4.34,33.6-16.49,38.64-24.12,12.11-18.34,7.11-48.19,1.33-68.18-.77-2.66-5.09-16.21-6.58-17.13s-12.8,3.18-12.79,3.86c6.85,5.79,1.43,14.64-2.56,20.51-5.7,8.39-13.22,15.84-22.12,20.79-.56-.42-.44-2.16-.33-2.81.09-.58.66-.35.66-.39-.09.32-.22,1.86.32,1.92,5.82-4.83,11.45-9.22,16.32-15.06,3.36-4.03,9.35-11.31,8.83-16.62-1.09-11.05-12.6-4.49-18.71-1.58-3.72,9.69-3.83,20.16-5.85,30.18-.26,1.27-.88,1.1-.9,1.17ZM616.19,164.05c-1.64-1.52-1.31,2.79-1.27,3.51.12,1.88.39,6.37,1.91,7.37l-.64-10.89ZM582.89,239.61c4.45-18.33,7.12-40.34,1.3-58.61-1.25-3.91-2.53-6.53-4.82-9.94l-1.15-.52-8.13,2.81c8.07,18.91,13.98,40.08,12.13,60.78l.67,5.47ZM611.07,222.96c-.27-4.18-1.16-8.98-1.3-13.1-.19-5.6.07-11.6,0-17.35-.03-2.26,1.49-4.6-.93-6.69l-1.54,17.03c-.04,3.35.8,6.51,1.17,9.59.33,2.73.22,6.25.7,8.9.2,1.11.66,1.8,1.91,1.61ZM516.29,196.07c-.89-.95-18.24,10.79-19.48,12.86-1.03,1.72-2.38,6.88-3.03,9.14-2.09,7.24-3.7,15.44-5.02,22.83l21.68-9.69c.41-11.87,3.45-23.54,5.85-35.13ZM616.83,220.4c.36-1.84,1.92-2.61,1.89-4.71-.07-3.94-1.77-13.01-3.07-16.83-.28-.84-.19-1.95-1.36-2.15,1.14,4.2-.11,7.81,0,11.83.09,3.61,1.72,7.77,1.28,11.54l1.27.32ZM342.74,261.4c-19.57,6.2-37.94,18.25-52.51,32.65l12.38-7.79c12.1-6.52,25.06-11.76,38.86-13.34-.12-3.58-.31-8.46,1.28-11.52ZM605.31,294.69c-1.92-4.6-3.78-16.49-10.28-15.09-9.27,2-29.33,17.72-37.4,24.09-22.67,17.88-43.3,38.41-61.7,60.62-2.43,16.26,9.25,29.56,14.45,43.56s5.71,30.72,2.71,45c1.06-.75,1.91-3.01,2.47-4.25,7.7-17.08,9.61-33.91,4.58-52.1,1.05.15,1.3,2.31,1.59,3.2,3.95,12.08,2.84,23.81.13,36-.71,3.19-2.71,6.05-1.74,9.48l-1.27-.65c2.56,3.87-9.72,19.04-8.97,19.85,4.59,1.09,9.64,4.56,13.39,7.43,2.92,2.22,12.52,12.52,13.83,13.07,1.22.51,1.01-.66.83-1.47-.64-2.85-5.76-10.31-7.88-12.62-3.93-4.28-9.23-6.77-13.78-10.23,12.15,2.69,20.82,13.72,26.05,24.39,5.42.66,11.62-3.36,15.57,2.5-.67-3.25-1.84-6.99-3.07-10.05-2.16-5.39-6.52-16.24-9.21-20.89-1.72-2.98-5.27-2.03-4.32-8.41.52-3.46,8.6-10.83,11.48-13.5,13.8-12.8,32.04-23.17,49.32-30.4l-25.17,14.21c-5.92,4.26-12.88,8.26-18.38,13-2.88,2.48-13.59,13.53-14.05,16.71-.35,2.47.01,4.95,2.97,4.29,22.49-18.21,46.29-34.73,71.29-49.3.24-25.71-1.7-51.93-6.62-77.16-.27-1.39-1.08-7.37-2.06-7.56-21.62,9.87-41.66,26.32-57.29,44.05-2.54,2.89-6.17,7.03-8.21,10.18-1.24,1.93-7.88,15.2-7.79,16.54.13,1.8,2.71-.22,3.27-.57,20.67-12.97,39.52-29.84,60.56-42.55,2.04-1.23,9.35-6.1,11.1-4.95l.62,1.62c-4.04,1.91-5.27,7.64-9.29,10.26l.65-3.2c-6.03,4.58-12.09,9.21-17.62,14.4-5.8,5.43-9.02,9.57-13.56,15.9-2.7,3.76-6.94,7.04-6.92,11.96.81.84,9.07-4.25,10.66-5.03,7.46-3.67,14.45-8.53,21.44-11.87,1.99-.95,4.05-1.98,6.33-1.67,1.47,1.41-7.56,11.29-7.07,14.32l5.79,1.04c-14.24,3.03-2.12-8.36-.65-13.13.27-.88-.07-1.15-.94-.94l-33.62,19.56c-4.29.89-5.54-.53-4-4.66,5.6-15,29.27-31.55,40.8-42.45.5-.47,1.67-1.28.66-1.91-6.15,3.42-12.21,7.4-18.08,11.38-15.56,10.52-30.78,22.18-45.64,33.44l1.28.32c-2.11,2.79-6.8,3.1-9.63,1.18-.7-5.48,1.98-8.88,4.89-12.96,8.18-11.43,20.24-23.19,30.34-33.06,1.58-1.55,4.83-3.44,6.2-5.01.7-.8,1.07-3.21,2.77-3.95l-1.27-.95,33.66-22.42c-.44-2.31-1.81-14.23-3.32-14.69-39.67,14.86-74.45,40.79-104.96,69.76-.48.1-.44-.67-.31-.95.36-.81,6.74-6.85,7.99-8.04,16.09-15.3,38.4-31.68,56.75-44.42,11.68-8.11,26.34-15.35,39.65-20.24ZM612.35,296.61c-2.02-.09-2.04-.34-1.92,1.58.3,4.62,2.78,9.83,3.55,14.45l4.09-1.6c-1.49-4.99-4.58-9.59-5.73-14.43ZM303.89,406.68c0-5.62-4.55-10.17-10.17-10.17s-10.17,4.55-10.17,10.17,4.55,10.17,10.17,10.17,10.17-4.55,10.17-10.17ZM495.8,404.21c-12.44-3.38-24.71,6.57-32,15.7-1.07,1.34-8.42,11.66-7.7,12.47l39.7-28.17ZM497.07,417.01c1.59,1.88,8.66-3.95,8.75-4.78.24-2.17-4.89-7.4-7.43-5.78-6.92,4.82-13.53,10.03-20.56,14.69-1.49.99-3.22,1.01-4.93,2.11-6.39,4.1-12.03,10.12-18.68,13.98-3.27,4.72-3.59,10.8-4.53,16.28l29.14-22.41-.96-1.28h3.2s-2.56-1.28-2.56-1.28l1.92-.64-1.27-1.28,2.56.63c-1.66-2.17,1.12-3.6,1.03-5.46-.03-.69-.88-1.42-.85-1.9.06-.87,6.11-4.7,7.21-4.78,1.75-.12,4.24,1.3,5.78,1.2,1.22-.08,1.55-1.48,2.84-1.22l-.64,1.91ZM223.62,464.4c1.36-.34,1-.97,1-1.91,0-3.91-.07-8.34.45-12.32,1.5-11.47,7.79-22.05,6.14-34.04l-16.56-4.89c.43,17.79,2.21,36.66,8.97,53.16ZM507.32,415.09l-4.48,2.88c2.12.51.63,1.37,1.01,2.24s1.25,2.49,1.8,3.61c.16.34,1.83.74,1.04,2.79l3.25-1.66-2.62-9.87ZM233.86,427.26h9.29c1.76,0,8.98,1.76,11.07,2.38,2.9.86,5.55,2.58,8.46,3.38-1.71-3.75-3.22-7.33-3.5-11.55l-23.07-4.48c-1.43-.16-.78.21-.95.99-.62,2.94-.59,6.3-1.3,9.28ZM271.56,431.01c.58-2.46-.61-7.2-3.47-7.61-6.43-.92-3.33,11.98,3.47,7.61ZM511.17,427.9c-2.18-.51-2.15,1.59-3.85,2.24,4.2,1.41,1.07,5.99,3.85,8.01v-10.25ZM295.34,428.54c-.89-.84-8.43,3.77-7.68,6.4.76.76,8.78-5.35,7.68-6.4ZM481.06,444.53c.79-1.04-3.09-7.62-2.56-9.58-10.4,6.14-19.29,14.39-28.7,21.89l1.17,9.48,20.49-14.74c.56-1.85-1.54-1.11-1.92-2.55,4.62,2,6.58-1.74,9.42-3.86.6-.45,2.02-.55,2.1-.65ZM246.03,438.79c-7.59-1.17-16.27,5.83-16.64,13.44l1.31-2.54c2.17-.31,2.03.01,1.89,1.9l.64-2.56,1.9,1.28c.16-2.01,2.26-2.62,3.55-3.83,2.57-2.4,5.07-5.02,7.35-7.7ZM256.92,442l-7.26-2.52c-1.71.72-4.48,7.11-5.05,7.49-.66.45-2.12-.08-3.14,1.07.61,3.58-1.67,1.27-1.84,2.61l.65,2.23,1.9-1.28,1.93,3.2-1.91-.64c.25,4.73-3.86,7.05-3.2,11.53,2.15-1.7,4.35-4.28,6.04-6.44,2.99-3.83,8.97-11.24,11.14-15.12.38-.68.87-1.28.74-2.12ZM254.26,466.87l13.43-17.52c-1.73-1.4-6.61-6.33-8.55-4.85-.97.75-2.1,3.36-3.16,4.58-.64.73-1.64.99-2.27,1.74-5.15,6.2-10.13,13.72-14.72,20.33,1.72,1.59,1.61-2.48,2.23-2.25,1.46,1.09-.09,2.24.62,3.82.27.6,2.85,3.08,3.55,2.58l-.65-1.27c4.02.48,7.26-4.37,8.35-7.69l1.16.54ZM256.91,476.59c.29-.16,1.63.05,2.51-.37,5.28-2.49,11.25-13.81,16.24-17.79.6-1.07-.76-2.38-1.48-3.3-1.2-1.52-2.84-2.77-4.19-4.16l-22.05,26.56,1.27.94c-.15-2.75,5.69-.38,6.09,1.93,2.58-1.1,1.4-3.71,1.6-3.82ZM505.4,458.64l-5.08,2.64.6,2.48-2.56-.63c1.69,3.24-2.23,3.02-3.8,4.2-1.22.92-1.35,3.29-3.89,2.85l.65,1.27h-4.49s1.28,1.92,1.28,1.92c-3.26.34-5.87.64-7.68,3.84,2.21-.04,5.12,1.56,7.21,1.19,3.38-.6,10.11-8.05,12.25-10.85l5.51-8.9ZM278.04,459.92c-.76-.58-2.4,1.4-2.88,1.91-4.27,4.6-7.75,10.79-12.17,15.37l.33,1.93,3.84-1.27.32,3.19,12.83-14.76-2.27-6.37ZM461.48,467.35c-.98-1.89-1.27-2.69-1.22-4.87l-7.93,6.2c-.34,1.32,4.53,10.12,5.69,10.76,3.42,1.89,11.44-1.87,15.37-1.6-.93-1.26-5.49-3.59-6.88-3.72-2.29-.23-3.43,2.43-5.92,1.8l4.47-4.48c.09-1.56-2.42.18-2.55,0,1.14-2.89-.43-2.95-1.03-4.1ZM281.89,468.25l-3.82,3.54-8.98,11.83,14.45-1.24c1.23-4.91-.62-9.46-1.65-14.13ZM276.13,488.75c-6.17.04-12.55.86-18.59,2.21-6.85,1.54-12.95,5.1-19.83,5.46l3.19-2.88c-.72-.99-.95-.96-2.08-.83-3.07.35-11.82,4.57-15.01,6.14-2.25,1.11-12.67,6.72-13.67,8.1-1.28,1.77-3.79,15.55-3.77,18.05.01,1.59,1.05,2.41,1.1,3.27.16,2.96-.26,6.18.46,9.13,5.23-13.72,11.57-30.17,25.94-36.49-4.64,5.78-9.88,10.94-13.72,17.34-11.04,18.39-13.38,37.24,12.63,41.47l23.5-21.03-19.85,21.76c6.77,1.05,13.66,1.84,20.53,1l16.61-14.44-11.52,14.09c6.71.39,13.47-1.08,20.14-1.3,13.1-.44,27.24.16,40.37.67,2.92.11,6.64,1.39,9.58,1.29,1.47-.05,8.34-1.48,9.3-2.28,3.5-2.89,1-10.6,9.36-11.77,3.35-.47,7.23,1.3,7.93-3.63.7-4.97-3.09-8.02-5.04-12.03l2.06-1.6,4.6,3.74c4.32-3.62-1.47-12.75-4.18-16.3-14.83-19.47-52.46-33.02-76.23-28.23-4.11.83-7.86,3.25-12.13,2.91l8.32-3.83ZM368.99,548.94c-.26-4-7.31-3.12-7.04.64l7.04-.64ZM500.28,554.71l-25.01.92-12.13,11.87c8.74-.12,17.68-.16,26.27-1.58l10.88-11.21ZM525.25,555.35l-22.6-.51-8.49,8.18-2.2,3.21c6.31-1.39,15.41-.07,21.28-2.09,2.22-.76,9.05-5.66,11.21-7.33.54-.41,1.17,0,.8-1.47ZM563.04,556.63c-5.26-.57-19.79-2.99-24.05-.67-1.75.96-5.07,4.27-6.7,5.78,7.73-.63,15.62-1.44,23.27-2.66,2.02-.32,4.67-.59,6.54-1.15.93-.28,1.12.36.94-1.3ZM537.42,555.35h-9.29c-.64,0-8.35,7.23-10.25,7.68-.88.95.71.71,1.3.66,2.12-.15,6.97-.46,8.66-.95,2.37-.69,7.54-5.53,9.58-7.39Z"/>
  <path d="M187.75,557.91c.24,1.45-1.26,2.12-2.39,2.41-5.85,1.51-13.88.07-20.02,1.42-.22-2.04,2.8-2.28,4.23-2.49,5.97-.86,12.21-.49,18.18-1.35Z"/>
  <path d="M531.02,502.19c-2.15.53-1.04-2.42-1.42-4.01-1.23-5.07-7.99-9.7-12.42-11.92l-11.13-4.55c10.75.89,25.03,8.15,24.97,20.48Z"/>
  <path d="M399.73,567.52l-.96,1.29c-6.15-.64-12.44-.3-18.57-1.29-.95-.15-1.98-.04-2.24-1.28l21.77,1.28Z"/>
  <path d="M464.22,394.04c0,14.89-12.07,26.96-26.96,26.96s-26.96-12.07-26.96-26.96,12.07-26.96,26.96-26.96,26.96,12.07,26.96,26.96ZM432.81,379.45c-6.87-7.56-21.83-.04-17.38,11.3,5.61,14.28,27.19-.49,17.38-11.3ZM459.85,394.68c-3.24-.57-6.2.43-6.36,4.09-.28,6.63,9.23.93,6.36-4.09Z"/>
  <path d="M413.18,433.03c-3.9,9.47-16.3,12.65-25.77,11.36-4.64-.63-9.71-3.79-14.32-4.25-11.14-1.11-15.01,8.36-23.36,13.01-7.05,3.92-16.36,3.96-23.77.82-1.61-.68-5.13-3.97-2.14-3.63s6.71,2.62,10.45,3.01c18.13,1.92,20.59-13.29,32.78-15.54,15.08-2.78,21.56,10.79,39.56-.78,2.17-1.39,3.6-4.25,6.57-3.99Z"/>
  <path d="M572.41,253.47c-7.53,9.36-25.44,18.96-36.47,24.04-20.78,9.56-42.93,16.21-65.11,21.66l2.06-1.45c24.37-7.58,49.59-15.15,72.24-27.03,12.33-6.47,23.77-13.65,31.69-25.31.55.89-.89,2.93-1.37,3.75-.71,1.21-2.15,3.23-3.03,4.34Z"/>
  <path d="M360.19,423.26c-1.03-.98-.85-2.78.49-3.39,1.48-.68,2.41.33,3.42.17,1.19-.18,2.91-3.02,4.6-1.14,1.98,5-5.52,7.22-8.51,4.36Z"/>
  <path d="M325.04,293.16c2.74,2.41,5.73,4.8,8.09,7.61.6.72,1.55,1.04,1.27,2.24-.57.63-11.84-10.51-12.49-11.52-.29-.45-.71-1.09,0-1.29,1.33.69,2.17,2.12,3.13,2.95Z"/>
  <path d="M313.92,529.09c-.25,1.29-1.36,1.04-2.24,1.27-1.54.4-4.28,1.01-5.83,1.21-13.04,1.72-52.99,2.77-60.48-9.84-4.22-7.1,3.42-17.82,9.62-21.48l-6.02,7.1c-4.83,7.91-5.04,13.99,3.87,18.44,12.17,6.08,31.91,6.12,45.4,5.17,5.16-.36,10.45-1.68,15.68-1.88Z"/>
</svg>