<?xml version="1.0" encoding="UTF-8"?>
<svg id="katman_1" data-name="katman 1" xmlns="http://www.w3.org/2000/svg" viewBox="0 0 841.89 595.28">
  <path d="M342.1,123.23c-6.53-1.12-11.93-7.15-7.76-13.69,5.75-9.01,30.24-11.97,40.16-11.25-.25-1.81-1.92-2.64-2.83-4.33-5.58-10.27,3.45-12.8,11.87-12.49,15.46.57,31.34,8.15,44.55,15.57-2.18-24.36,10.67-20.37,24.32-8.42,7.99,7,14.58,15.48,20.87,23.99,1.44-1.86,3.64-3.19,6.09-2.97,7.49.69,17.96,16.25,21.95,22.28,15.37-16.17,30.82-32.48,48.36-46.35,41.18-32.56,94.13-53.81,145.12-65.5,11.95-2.74,28.14-6.68,40.17-7.18,3.78-.16,7.83-.13,8.81,4.35.91,4.14-3.61,19.44-5.05,24.33-26,88.35-92.62,157.16-190.08,153.95-1.52-.05-6.61-1.73-7.11.33-.16.66,3.1,11.05,3.52,13.22,3.79,19.55,3.56,42.28,1.35,62.05-.5,4.48-2.06,9.37-2.4,13.8-.43,5.64.43,11.71-.09,17.36s-2.85,10.8-4.85,16.19c7.77,4.52,15.61,9.07,21.57,15.92,1.33.35,11.85-6.87,14.11-8.14,42.64-23.88,89.29-26.29,104.18-81.52,1.52-5.62,2.93-12.61,3.41-18.4.38-4.55-2.2-19.09,6.7-15.41,6.15,2.54,19.59,28.97,22.7,35.87,27.98,61.96,34.32,155.12.62,215.83-29.62,53.36-83.94,80.67-144.86,75.09-1.17.36-8.55,11.86-10.39,13.93-18.37,20.6-61.47,25.71-87.56,23.97-7.5-.5-15.3-2.22-21.73-6.16-2.29,2.42-4.8,3.98-7.89,5.22-9.96,4.02-28.28,4.02-38.32.33-1.85-.68-6.48-3.71-7.46-3.71-1.18,0-7.39,2.58-10.05,3-11.84,1.86-28.27,1.22-37.35-7.42-11.94,1.72-41.87,4.95-50.46-4.95-5.92-6.83-1.11-18.56,4.68-24.02,2.93-2.76,6.76-3.94,9.97-6.22-1.71-2.31-3.71-4.86-5.08-7.37-9.7-17.71-6.4-39.43,2.55-56.75-.14-.64-8.45-4.27-9.87-5.1-10.95-6.4-18.93-16.55-24.67-27.68-3.84,6.9-8.01,1.41-10.6-3.11-7.09-12.35-6.8-28.11-4.67-41.76-8.84,6.9-14.96,13.24-15.6-3.4-.83-21.56,9.95-44.85,27.98-56.82,1.81-1.2,11.07-5.81,11.25-6.85-6.8-10.93-8.78-20.07-6-32.76.73-3.31,2.91-7.52,2.93-10.78.04-5.94-1.64-13.22-1.89-19.29-.88-21.05.69-43.16,8.12-62.95-.3-1.52-4.79-.3-5.91-.36-69.42-3.48-109.63-42.85-129.48-107.3-5.94-19.27-13.66-53.31-11-73.02,1.08-7.98,7.44-6.41,13.18-4.57,29.3,9.39,72.83,36.3,97.62,55.05,27.13,20.52,45.56,43.53,69.52,66.33,1.17,1.12,2.69,1.89,3.86,3.04l18.91-13.03ZM478.26,358.77c-3.97-.47-8.71.35-12.77,0-.35-1.45.28-1.03.79-1.43,9.42-7.4,23.34-11.28,34.12-16.94,14.74-7.75,33.47-21.09,34.91-39.25.41-5.22-.42-10.96-.01-16.21.36-4.61,1.91-9.71,2.41-14.42,2.29-21.79,2.75-53.61-4.6-74.39-1.47-4.17-7.06-8.22-9.66-11.84,41.97,5.86,84.49-.55,120.59-23.05,36.7-22.87,60.3-57.16,76.61-96.62,5.6-13.53,10.64-28.01,13.42-42.35-47.51,6.97-96.02,21.16-138.35,43.92-32.95,17.72-61.27,42.61-86.3,70.11l-17.45,14.95c-.85.19-1.18-.05-.92-.92.81-2.69,4.85-9.43,4.23-11.69-.31-1.13-2.89-5.01-3.73-6.28-.75-1.14-10.19-13.36-11.1-12.27,1.13,5.92,2.32,12.17.93,18.07-12.83-17.55-24.83-37.67-43.65-49.23-3.09.04-.8,6.73-.29,8.43,2.16,7.3,6.93,12.42,10.63,18.66.29.48,1.24,1.11.28,1.59-21.76-11.03-42.95-26.45-68.23-27.42-1.38,1.32,4.56,6.9,5.6,7.79,4.82,4.16,11.09,6.89,16.15,10.64.48.35,4.44,3.47,3.8,3.99-17.52-4.8-37.71-8.63-55.46-2.8-1.14.37-7.97,3.32-8.11,3.74-.12.36-.19,1.5.38,1.61l29.54,10.55-.38,1.28c-2.04-.2-11.64,9.29-10.83,9.92,4.94-1.23,9.39-2.37,14.59-1.81.6.06,2.34.27,2.23,1.18-5.42.93-20.56,10.73-24.95,9.73s-.28-8.89,1.39-11.17c.67-.92,5.61-5.37,4.87-6.02-5.56-.73-10.64,1.74-15.37,4.25-14.31,7.59-26.53,20.56-38.53,31.26-.47-3.89,2.26-7.25,3.79-10.57l-.68-1.27c-8.02.81-16.18,1.17-23.98,3.74-.27,1.15.39,1.21,1.03,1.76,2.15,1.86,17.64,12.06,17.65,13.5-14.13,5.74-31.95,4.35-46.75,1.27-44.16-9.2-70.89-40.65-86.44-81.19-6.48-16.91-11-34.97-11.99-53.12,1.37-1.55,33.73,16.01,37.18,17.96,41.61,23.51,77.2,53,108.95,88.59,1.86,2.08,3.09,4.76,5.29,6.58.73.58,1.02.14,1.58-.31.64-.51,5.9-7.85,5.88-8.47l-.57-1.25c-13.13-12.21-24.81-25.91-37.73-38.32-32.75-31.46-71.72-56.76-112.89-75.92-3.21-1.49-14.02-6.82-16.73-6.96-1.31-.07-.81.03-.95.94-.32,2.16-.13,6.41-.02,8.77,1.99,43.69,20.98,99.51,54.23,128.97,21.29,18.86,59.17,31.85,87.59,28.37,3.91-.48,7.12-6.91,10.88-8.12-2.8,10.07-7.19,19.62-9.79,29.77-4.11,16.03-5.31,33.79-4.56,50.32.27,6.02,2.05,13.48,1.95,19.29-.19,10.78-7.17,16.33-3.13,29.88,8.07,27.08,40.19,33.62,60.6,47.21,2.28,1.52,4.53,3.13,6.04,5.48-9.61-.42-19.48-3.69-28.26-7.56-3.72-1.64-13.97-8.05-16.91-8.06-3.77-.02-10.5,3.02-13.82,4.93l-12.66,9.45c.67-10.33,8.42-17.32,16.81-22.12l-8.37-7.14c-22.03,7.46-36.97,30.54-36.18,53.56,6.06-6.19,13.43-12.5,22.12-14.33-8.12,16.95-11.24,36.73-4.97,54.83l4.44-10.19,2.4-1.65c2.59,18.57,14.18,37.86,32.4,44.24l-12.78-19.3c-9.01-16.35-11.49-38.16-.61-54.22,1.37.95.56,1.15.31,2.15-2.86,11.57-4.17,19.54-2.32,31.63,3.5,22.94,19.02,37.41,40.33,44.73.66-.85-5.03-8.34-5.93-9.96-3.84-6.97-7.63-17.19-4.98-24.93,3.2,9.72,7.63,18.99,14.33,26.8,15.15,17.66,38.09,23.67,54.22,39.87,1.62-3.29,2.28-7.11,3.94-10.39.47-.92,1.22-3.06,2.59-2.69-.16,3.15-1.06,6.52-1.27,9.63-.05.72-.45,3.45.64,3.45,1.2-2.98,4.38-5.06,6.56-7.46,4.96-5.46,9.18-11.49,14.63-16.53,1.52-1.41,8.31-7.25,9.68-7.77,1.07-.41,1.25.85.92,1.23-.07.08-1.22.28-1.88.91-4.99,4.76-10.71,10.3-14.63,15.93-.35.5-1.67,1.21-.63,1.86,22.84-11.4,46.85-23.32,53.29-50.47,1.7-1.82,1.28,4.6,1.23,5.29-.87,11.91-7.75,22.44-14.95,31.47,30.52-9.12,54.33-34.25,53-67.64-.19-4.86-1.66-9.75-1.59-14.61,8.57,14.73,5.79,34.08,1.1,49.7-3.38,11.27-8.16,20.9-15.13,30.36,28.26-3.9,60.2-22.87,62.35-54.18.79-11.49-1.3-22.27-3.76-33.36.71-.93,7.05,7.48,7.61,8.27,5.16,7.3,9.34,15.96,12.96,24.13.22.16.77-.34.93-.62.95-1.72,2.65-12.73,2.83-15.24,2.01-28.61-9.32-58.46-37.84-68.78l-8.27,8.24c7.87,5.83,15.79,13.82,16.79,24.06-6.56-7.77-14.71-13.95-24.04-18.08l-25.8,13.41,4.25,4.46c3.31,2.58,6.38,15.8,3.84,18.27-1.19,1.16-1.23-1.02-1.4-1.37-4.2-8.65-10.53-15.49-20.71-16.7ZM692.3,227.91c-1.66-.17-1,0-1.22.93-1.33,5.51-1.83,11.61-3.31,17.27-5.44,20.84-16.65,38.56-33.89,51.49-1.69,1.26-10,6.13-10.49,6.96-.7,1.18-.09,2.76-.34,4.02-.43,2.19-7.08,9.43-9,11.57-1.31,1.46-6.74,6.14-7.17,7.17-.56,1.33.81.83,1.39.77,3.13-.29,16.84-3.37,17.85-.05,1.37,4.5-10.94,27.71-13.02,33.23.41.4,9.3-4.13,10.52-4.75,3.37-1.72,10.71-6.84,13.64-7.56.92-.22,2.34-.49,2.98.43,1.86,2.65-2.09,23.83-3.46,28.08l30.2-24.97c2.12.2,2.83,5,3.25,6.78,1.65,7.04,1.82,14.74,2.7,21.92l11.84-28.04c1.3-.98,3.78,4.99,4.27,6.01,2.42,5.05,3.49,10.77,5.67,15.51.28.62.38,1.46,1.26,1.53.9-3.16,6.54-24.92,7.81-25.54.98-.48,1.07.61.93,1.24.29.22.98-.57,1.11-1.06.65-2.35-.27-11.72-.5-14.82-2.43-32.06-12.12-67.98-26.86-96.52-2-3.86-5.01-7.31-6.17-11.6ZM629.99,312.04c-8.06,1.34-62.47,25.48-62.79,30.21,11.09,16.93,14.72,37.84,12.24,57.88-.6,4.83-4.33,21.65-8.4,23.99-6.6,3.79-7.75-8.73-12.08-11.14.17,7.73-2.91,14.95-5.49,22.03,16.97,23.27,25.7,52.76,20.25,81.54-.34,1.78-3.38,11.88-2.93,12.33,23.67,1.51,48.26-1.72,70.02-11.3,56.11-24.71,85.79-86.78,84.52-146.35l-5.59,18.39c-.69,1.69-2.26,6.24-4.6,5.8-3.71-.7-7.03-18.9-9.43-22.33-3.42,7.17-6.26,14.67-10.18,21.6-.94,1.66-3.1,5.97-4.2,7.01-3.09,2.92-5.32.76-5.82-2.81-.83-6-.08-14.07-.69-20.5-.4-4.25-1.34-8.54-1.87-12.78-9.07,7.98-17.75,16.82-27.84,23.56-2.3,1.54-6.81,5.52-8.59,1.35-1.37-3.22,3.46-17.84,4.35-22.41.44-2.27,1.12-4.51.92-6.86-1.07-1.21-24.91,14.6-28.98,13.76-2.1-.02-3.01-1.48-2.86-3.47,3.34-12.62,11.21-23.58,15.63-35.84-8.65-.62-33.46,7.86-19.3-9.02,3.65-4.35,8.87-8.14,12.45-12.48.58-.7,1.51-1.01,1.24-2.18ZM476.07,566.9c20.53-.05,45.9-2.23,63.76-13.21,36.26-22.29,32.19-80.21,8.2-110.16l-11.22,11.19c-13.24,11.07-29.81,16.83-46.59,20.09-1.97,1.01-5.65,12.83-6.69,15.74-5.46,15.33-9.76,31.08-16.81,45.81,12.5-4.82,26.02-5.47,38.43-.11,2.64,1.14,6.16,2.61,7.68,5.09-5.17.08-10.74-1.84-15.87-1.9-10.29-.11-28.38,2.72-35.84,10.32-1.98,2.02-7.61,10.66-6.1,13.27l4.22,1.99c.83-4.18,1.5-9.83,6.86-9.97.69.67-4.25,7.61-2.56,9.69,1.05,1.29,5.61,2.14,6.96,1.24,1.11-.75,2.6-8.94,6.5-8.43,2.84,2.78-1.91,5.9-.92,9.34ZM477.32,465.96c-5.49,2.59-10.78,5.88-16.4,8.21-5.54,2.29-16.12,6.37-21.89,5.47-.89-.14-1.49-.97-2.07-1.1-1.3-.29-20.8,10.7-23.39,12.46-2.08,1.41-3.95,3.15-6.08,4.51-3.73,17.02-4.47,34.47-6.2,51.76-.4,3.96-2.69,12.83-1.73,16.08.63,2.15,5.77,4.16,7.97,4.18-.07-1.83,2.41-9.2,4.67-8.72.93.2.81,1.12.67,1.89-.42,2.32-2.3,4.99-1.33,7.5.62.85,9.81,1.48,11.27,1.2,1.93-.36,2.07-2.89,3.15-4.32.63-.83,5.58-6.18,4.51-2.35-.53,1.9-1.9,3.85-1.74,6.05,10.47-.25,14.66-6.46,19.42-14.53,8.73-14.81,15.57-32.83,21.37-49.05,1.81-5.05,9.49-25.3,9.7-28.95.02-.41.17-1.02-.33-.95-17.18,4.96-.76-8.65-1.55-9.33ZM382.61,565.65c8.88-.81,9.22-7.32,9.96-14.65,1.22-12.07.8-28.42-.62-40.49-.24-2.04-.63-6.94-1.59-8.38s-7.46-6.28-9.3-7.53c-8.42-5.74-18.08-9.65-26.69-15.06-2.81-1.76-9.21-7.36-11.21-8.16-1.4-.55-3.07.29-4.93.04-4.71-.64-9.01-3.1-13.57-4.22,2.74,14.45,6.77,28.77,11.05,42.85s10.81,37.42,17.72,49.58c2.21,3.88,5.43,5.46,9.86,5.41-.33-1.6.39-8.61,2.8-8.1,1.88.4.17,6.56,1.5,7.85,1.16,1.43,9.16,1.96,10.37.27s.08-7.23,3.1-8.73c2.56,2.39,1.28,6.22,1.56,9.33ZM317.17,472.81c-1.49-.34-1.01.27-1.39.82-11.28,16.17-9.12,44.37,6.7,57.12,2.32,1.87,7.42,4.11,9,5.96.67.78.82,1.06.64,2.15-7.2-1.31-20.12.64-25.57,5.9-3.15,3.04-7.45,11.72-.61,12.8.81-3.33,1.5-8.25,5.61-8.72l-1.21,9.93c10.96,1.56,22.06,1.08,32.99-.6-10.39-27.83-20.38-56.19-26.18-85.37Z"/>
  <path d="M521.57,171.2c-.74-.67,2.03-2.94,2.54-3.37,4.07-3.39,9.52-5.99,13.85-9.2.99-.74,7.15-5.36,7.3-5.8.1-.31.22-1.61-.37-1.57l-19.58-.62,2.48-4.36-7.47,3.74c-1.6-2.07,10.46-15.63,12.44-17.78,42.32-45.84,106.58-74.94,166.26-90.47,3.37-.88,15.98-4.51,18.38-3.8,1.54.45,2.11,2.22,1.42,3.64-21.88,46.68-47.84,95.69-97.14,117.88-31.05,13.97-66.63,17.59-100.12,11.73ZM706.01,47.2c-.24-.27-5.5,1.38-6.26,2.31-1.86,2.28-4.93,10.39-6.72,13.68-20.3,37.52-40.05,67.21-80.07,85.68-1.9.88-9.42,3.14-10.1,4.23-2.99,4.77,8.43,1.18,10,.66,31.01-10.36,57.35-40.52,73.71-67.74,5.43-9.03,15.73-26.43,18.95-35.89.34-.99.67-1.85.48-2.94Z"/>
  <path d="M472.22,213.12c38.11-2.22,49.11,84.13,3.56,87.1-47.98,3.12-40.44-84.95-3.56-87.1ZM471.58,218.07c-14.45,1.13-18.26,27.78-5.8,34.16,9.95,5.1,18.41-6.26,19.04-15.26.55-7.82-3.72-19.65-13.24-18.9ZM471.55,269.19c-7.24,1.34-8.64,11.43-1.07,14.49,12.15,4.92,17.04-17.45,1.07-14.49ZM464.36,283.86c-.28-.16-.44-1.3-1.01-1.76-4.62-3.63-11.31,2.26-5.65,7.49,8.16,7.52,19.4,6.55,28.59,1.81,7.75-3.99,3.48-11.97-3.19-9.42-4.36,1.67-3.2,4.98-10.42,3.83-.97-.15-7.96-1.74-8.33-1.96Z"/>
  <path d="M333.26,213.72c29.04-1.04,35.31,62.27,16.94,78.69-12.11,10.82-30.96,8.56-40.16-4.72-13.54-19.54-5.85-72.92,23.21-73.96ZM332.58,219.33c-6.71,1.41-11.49,12.1-11.6,18.31-.16,8.73,6.13,18.98,15.94,14.69,13.86-6.07,12.61-36.56-4.34-33ZM333.2,267.94c-9.48,1.97-7.46,17.24,3.96,14.54,9.54-2.26,7.62-16.95-3.96-14.54ZM349.57,279c-3.91-.55-5.75,3.75-8.79,5.23-3.79,1.85-9.08.97-12.75-.83-2.75-1.35-2.78-4.66-7.3-3.66-5.08,1.13-4.55,8.33-.44,10.15,1.51.67,3.1.03,4.54.44,1.04.3,1.81,2.01,3.65,2.58,8.89,2.78,22.19-3.47,21.08-13.92Z"/>
  <path d="M361.42,386.81c-.14-4.89,3.63-8.96,6.22-12.78.13-.43-.51-.43-.92-.3-9.21,2.9-22.84,16.33-24.63,26.16-.91.11-1.12-1.63-1.18-2.23-3.63-33.99,49.85-42.89,74.1-36.09,1.45.41,3.26.78,4.35,1.87.02,1.52-7.62.81-9.02.94-18.19,1.66-36.73,8.53-48.92,22.43Z"/>
  <path d="M375.19,294.64c4.47-.53,4.8,4.13,9.5,4.07,5.65-.06,10.01-6.13,12.51-6.01,3.11.15,7.13,6.99,14.32,6.2,3.79-.42,5.06-4.16,6.95-4.35,4.49.96,3.39,4.87.12,7.03-4.48,2.96-9.09,2.87-14.03,1.27-2.06-.67-6.54-3.87-7.3-3.89-1.5-.04-7.99,4.93-12.46,4.96-4.76.02-12.88-3.29-9.6-9.28Z"/>
  <path d="M445.95,204.33c6.52-2.16,6.3,10.45,2.92,11.64-6.47,2.27-6.1-10.59-2.92-11.64Z"/>
  <path d="M355.63,204.34c6.14-1.79,5.71,11.32,1.07,11.76-5.24-.32-5.08-10.59-1.07-11.76Z"/>
  <path d="M394.91,279.76c6.64-1.06,9.66,5.16,3.45,6.59-7.38,1.69-9.92-5.56-3.45-6.59Z"/>
  <path d="M362.66,361.88c-4.56.2-10.48-1.6-13.09-5.6,4.33,1.35,9.64,2.64,13.09,5.6Z"/>
</svg>