<?xml version="1.0" encoding="UTF-8"?>
<svg id="katman_1" data-name="katman 1" xmlns="http://www.w3.org/2000/svg" viewBox="0 0 841.89 595.28">
  <path d="M232.51,464.8c0-.44.96-1.57.86-3.34-.42-7.84-11.53-19.66-16.43-25.63,1.67-1.47,9.38,9.56,11.68,10.37l.85-1.73,5.62,4.32-3.45-8.64,2.58,1.73-.43-3.45,2.59,3.45c2.15-1.44.37-3.23.44-5.19l2.57-.43-4.29-8.22,6.04,6.05c2.1-6.96,6.77-12.75,9.72-19.28.86-1.9-.03-3.73,2.42-4.58-1.66-2.28-.72-6.3-1.34-8.08-.73-2.12-5.93-8.53-8.17-9.23-2.09-.65-13.56,4.67-16.87,5.73-31.97,10.26-69.42,14.36-102.93,12.08-6.92-.47-19.46-1.11-25.72-2.82-2.51-.69-4.87-1.59-4.9-4.52.24-4.16,12.31-13.08,15.95-15.96,46.84-37.14,118.04-68.74,176.67-80.2,10.31-2.01,21.37-2.76,31.49-4.83,16.62-3.4,29.18-14.22,44.47-21.26,39.31-18.11,89.55-19.89,130.03-4,3.71,1.46,15.27,8.13,17.74,8.14,2.97,0,17.48-9.74,18.18-12.81.17-1.71-.76-3.23-1.47-4.7-3.74-7.73-11.27-18.87-16.42-25.95-3.07-4.23-21.07-24.61-21.49-27-.18-1.05-.13-2.21.18-3.24,1.15-3.79,20.26-14.7,24.11-18.3.51-.48.78-1.05.79-1.75.06-3.13-20.37-30.42-23.87-34.96-13.2-17.18-27.93-34.91-44.44-48.97-3.74-3.18-21.01-14.82-21.26-18.12-.34-4.4,4.46-8.51,7.4-11.28,16.62-15.69,66.91-50.41,88.4-55.16,10.87-2.4,13.14,3.81,18.35,11.57,21.46,31.98,56.94,96.21,67.33,132.46,4.58,15.97,6.08,20.07-7.14,31.37-5.88,5.03-40.07,24.34-40.97,26.61s2.09,10.17,3.11,12.96c4.95,13.63,12.71,27.13,18.11,40.7,1.87,4.7,3.95,6.34-.12,10.56-7.94,8.22-23.08,13.67-32.33,20.43-.73.53-1.71.8-1.38,1.95,5.4,6.62,11.72,12.65,16.74,19.61,2.11,2.93,7.87,13.91,9.18,15.03,3.75,3.22,31.14,12.78,38.34,16.15,18.61,8.69,51.94,26.79,65.89,41.36,1.12,1.17,2.48,2.46,2.83,4.12.74,3.52-2.11,5.34,1.9,6.72-1.12,1.19-3.24-.37-4.62-.17-8.99,1.33-18.48,4.42-27.93,5.68-19.03,2.54-33.25-.07-49.54,12.73-.85.67-6.3,5.45-5.26,6.41,7.47-1.8,14.94-3.96,22.44-5.66.88-.2,2.82-1.16,2.63.47-8.83,2.07-17.8,4.13-20.74,13.85,3.11-1.71,5.06-8.09,8.64-7.36l-6.05,8.22c12.02-2.62,24.44-5.98,36.77-6.9.96-.07,3.22-.64,3,.84-22.82,1.95-43.59,9.6-64.62,17.99l-19.27-.68.86,1.7c-5.1,2.56-11.64,1.56-16.68,2.65-.64.14-.67,1.43-1.27,1.64-4.21,1.48-15.93,4.24-18.7,6.22-1.48,1.06-1.62,1.52-1.39,3.36l9.93-1.74-.42,2.6c5.11.74,10.22-.75,15.1-.9.97-.03,3.28-.55,3.05.9l-11.47,1.07-11.01,4.13h17.73c1.29,0,8.3,1.35,8.22,2.59h-16.86l-16.86,4.32,41.91-3.49c4.33.18,8.69-.14,13.02.04,1.05.04,3.22-.65,3.01.86-5.54,1.25-11.29.38-16.85.88-9.16.83-17.86,1.24-26.82,1.72-4.9.26-17.87,2.13-21.52,5.09-1.15.93-.21,2.59-.56,3.78-.18.63-5.26,9.74-6.19,11.28-7.88,13.03-18.94,22.26-30.96,31.31,6.03,1.04,12.49-.97,18.55-1.34,1.16-.07,5.4-.64,5.65.89-9.77,1.78-31.14-.4-37.63,7.78-.69.87-1.65,1.13-1.28,2.6l12.96,2.61c.24,1.43-2.14.97-3.05.89-1.92-.15-3.69-.77-5.59-.89l4.32,3.02-1.72,1.28,2.59.86-22.48-1.71c.99,2.17,7.22.35,7.34,3.46-9.34-1-20.97-7.08-28.56.83l.49,2.17,32.84,16.02c-11.08-2.9-27.23-13.74-38.49-13.9-2.44-.03-4.74,1.13-6.83.93-3.01-.28-6.9-5.27-11.56-5.89-3.24-.43-5.45,1.41-8.89.32-4.64-1.47-3.73-7.48-7.31-9.99h-15.57c-.48,0-3.02,2.14-3.02.01,7.75-2.49,11.22-4.18,10.38-12.98-3.93.06-5.25-.98-7.85-3.84l-9.45-3.08c4.23-1.79,17.24,5.61,19.89,3.94l2.59-5.66-10.37-1.75,6.91-.86c-.47-1.95-3.78-1.21-5.18-2.19-.9-.63-.75-2.12-.87-2.12h-17.3c-.19-1.52,1.96-.82,3.02-.86,5.08-.21,10.11.31,15.14-.87l-9.12-3.41-42.77-2.63,3,1.74,25.53,2.56c-4.47-.07-8.96.12-13.44.04-2.33-.04-4.56-1.19-6.89-.99-4.39.38-3.24.09-6.86.04-3.24-.05-12.24-.55-14.61.19-1.45.45-1.96,2.68-1.43,3.32.88,1.06,2.3-2.08,4.05-2.39,2.38-.42,4.79-.17,7.18-.2l-6.91,2.58c2.68.41,7.15-1.3,8.64,1.73-3.91.34-8.94-.74-12.63.72-1.85.73-1.53,2.13-2.42,2.8-3.25,2.45-9.83-1.79-13.74-1.62l-12.43,8.29c-3.18.27-7.85-5.98-11.72-4.82l-47.84,15.38c-2.53.07-.81-1.06.21-1.52,14.02-6.31,30.78-9.39,45.21-14.9.2-1.61-1.76-.68-2.63-.47-1.66.41-5.08,2.29-6.33,2.04-1-.2-2.1-2.07-3.36-2.63-3.51-1.57-5.09.15-8.01.21-30.64.56-60.4,8.24-90.36,13.84.76-1.33,4.36-1.96,5.87-2.33,11.92-2.93,25.11-5.62,37.21-7.76,9.4-1.67,19.7-3.61,29.14-4.59,3.52-.37,23.66-.49,24.52-1.86.39-3.27-.79-8.05-2.06-11.11-3.28-7.9-7.56-6.12-15.11-6.95l1.72-1.71c-4.01-1.91-7.7-1.99-12.1-1.75l8.2-.84,11.69,2.58-6.54-18.96-9.88-9.15,9.51,3.03c.04-4.46-.05-8.94,0-13.41ZM562.03,292.25c.78.7,12.76-8.08,12.12-10.72l-24.19-54.67c-.36-3.79.47-4.11,3.14-6.23,13.55-10.77,34.01-19.44,46.52-31.31,5.68-5.38,3.71-8.58,1.94-15.73-8.7-35.08-46.87-106.5-67.72-137.26-7.88-11.62-8.94-11.31-21.7-5.42-16.06,7.41-68.58,38.05-77.62,51.24-.91,1.33-1.89,2.93-2.04,4.57.32,3.49,26.56,26.67,30.97,31.24,15.52,16.06,32.22,36.86,45.31,55.02,3.02,4.19,10.55,13.96,12.2,18.13,1.04,2.65-2.04,4.8-3.89,6.45-3.3,2.94-22.88,14.35-23.29,15.69-.21.7-.01,1.41.27,2.06,15.59,19.37,30.96,39.02,42.9,60.94l3.45,2.16c2.03-4.12-.69-9.47,2.17-12.95,1.99.03,5.8,14.8,7.36,17.27l2.68-7.25c.66-1.04,1.12-1.93,2.08-.54,2.46,3.6,3.99,11.33,5.62,15.59l2.58-.87-.86,2.58ZM486.79,281.87c-19.06-9.2-40.76-12.1-61.85-11.23-1.05.04-3.22-.65-3.01.86,23.47,1.85,50.5,10.75,68.73,25.98,2.45,2.05,16.29,15.3,12.56,18.13-7-2.44-12.75-7.8-19.31-11.39-31.54-17.24-89.5-26.09-123.05-12.05-1.06.44-2.68.13-2.94,1.81,22.85-3.09,42.95.56,64.45,7.78,5.18,1.74,10.95,5.21,15.95,6.54,7.61,2.02,17.08,2.49,25.13,4.28,34.1,7.57,66.61,20.04,99.45,31.57,1.34-1.44-9.58-15.64-11.26-17.7-12.33-15.16-28.22-27.07-44.53-37.63l-1.28.42,8.64,9.53c.35,1.74-.73,1.54-1.97,1.1-5.13-1.83-14.03-11.36-19.64-14.09,1.42-.67,4.21,1.54,5.45,2.33,2.55,1.62,8.4,6.93,10.56,7.61.44.14,1.41.24,1.28-.42-7.08-6.76-16.01-14.59-25.95-15.57l2.6,2.15ZM550.05,298.16c2.59-1.75,9.68-2.26,9.25-6.12-.15-1.39-3.79-10.67-4.61-11.92-1.89-2.87-2.8,5.19-4.34,5.19-4.11-3.1-4.63-8.48-6.5-12.95-1.5-.21-.82,1.97-.86,3.01-.05,1.6.58,8.2-1.29,8.21l-7.4-3.91-9.46,6.1c-.24.56,4.67-.26,3.48,5.07-.2.88-2.66.02-1.75,2.28.48.42,6.33-.36,8.03.03.47.11,1.11,2.58,3.2,1.71l-1.72,1.71c2.58.34,5.71-2.3,8.1-1.76.83.19-.21,2.7,3.14.91l-1.73,2.58,3.89-1.75.56,1.61ZM501.48,313.01c-4.34-10.19-16.39-18.47-25.92-23.8-25.62-14.32-59.75-19.9-88.4-13.12-12.93,3.06-24.34,8.71-36.16,14.45l.41,1.7c30.89-10.07,62.94-10.67,94.56-3.72,11.12,2.45,24.65,6.79,34.79,11.91,7.17,3.62,13.48,9.28,20.71,12.58ZM485.06,443.61v-23.78c0-.94-2.5-15.4-2.82-16.21-.82-2.06-4.17-3.24-2.81-4.98l3.02,2.59-3.01-8.65-1.73.87c-2.58-2.57-7.57-3.55-8.21-7.78l6.04,3.03c-3.02-2.98-6.25-5.96-9.58-8.58-1.62-1.28-12.38-6.84-10.3-9.15l13.25,8.79c22.22,12.81,78.18,35.31,102.96,32.61,12.11-1.32,12.8-6.5,10.66-17.36-3.02-15.35-23.43-45.99-37.03-53.78-5.13-2.94-14.13-5.56-19.99-7.68-24.58-8.93-52.55-17.58-78.32-22-5.18-.89-15.53-.79-19.51-2.11-1.14-.38-1.47-2.27-2.9-3.15-9.43-5.77-39.63-10.21-50.84-9.68-21.22,1-47.82,5.93-64.89,19.01l-.42-2.58-4.32,1.71,6.05-4.75c-.08-.8-1.46-.47-2.17-.45-17.34.32-50.58,9.74-67.69,15.34-6.04,1.98-24.26,7.93-28.22,11.56-5.34,4.9-18.96,28.23-21.68,35.4s-5.77,22.17.66,27.41c3.88,3.16,21.33-2.93,26.56-4.51,19.01-5.72,29.06-9.9,43.7-22.89,4.07-3.61,6.46-5.49,10.37-8.61,1.78-1.42,1.07-4.29,4.63-2.7l7.88-14.66c-5.12,12.04-10.79,23.64-14.26,36.33-4.09,14.97-6.33,30.58-9.09,45.83,12.96-.95,18.98,12,21.87,22.68,2.75,10.19,4,21.62-.99,31.26l11.12,7.46c-5.58-.63-10.35-4.25-15.15-6.92l-.86,1.77c-4.88-.73-4.5-4.12-7.36-7.37-5.93-6.72-10.96-9.52-14.06-18.81-4.27-12.79-1.81-21.92.53-33.82.19-.96,1.51-1.59,1.47-2.74-3.15-.61.56-2.28-2.18-2.16-16.99,21.83-23.43,55.19-12.97,81.28,1.26,3.13,3.71,6.21,4.78,9.06,1.19,3.18,2.22,14.33,5.7,15l9.95-2.86c3.39,1.74,8.68,7.47,12.44,7.41,4.67-.07,8.06-7.34,11.27-7.86l12.42,2.54c.56-.39,2.76-12.47,2.67-13.33-.23-2.29-4.43-4.59-4.32-7.36l5.17,4.32c-.53-2.23,2.35-4.28,2.46-5.75.07-1.02-3.12-7.39-2.44-8.08,10.67,2.98,20.84,7.63,31.63,10.31,30.79,7.64,68.2,6.9,97.22-6.42-11.06-5.93-8.64-18.76-4.2-28.44,6.74-14.69,22.86-24.34,39.17-22.08,7.72,1.07,10.81,7.21,14.78,12.89l3.01-7.78c-5.62,37.22-47.33,45.9-76.97,57.51-1.57.61-2.92,2.24-4.28,2.64-2.66.78-5.53-.19-7.81.84-4.12,1.85-14.04,18.25-16,22.92-7.55,17.97,2.31,8.46,5.5,10.47,1.51,2.84,2.5,9.09,5.5,10.51,3.61,1.71,8.95-1.51,13.06-.09,2.78.96,2.14,6.91,10.98,4.64,4.02-1.04,8.04-5.7,11.26-6.9,24.29-9.02,44.79-15.2,63.54-35.06,19.62-20.78,20.82-44.54,16.86-71.8,1.72.36,1.47,1.78,1.71,3.04.97,5.02,1.24,10.35,1.86,15.44l5.07,2.76c9.06-10.28,11.04-24.51,16.01-36.79,1.38-3.41,4.63-13.21,9.06-10.83-5.15,2.64-4.41,8.33-4.33,13.41l-1.71-.87-1.81,9,1.79.95c-3.46,2.21-2.14,4.79-1.67,8.16l5.99.07-1.72,1.71c11.47.97,27.16-4.62,33.22-14.77,2.09-3.49,5.97-14.17,6.18-18.03.07-1.25-.41-1.56-1.39-2.16-26.8-6.19-53.34-13.44-79.11-23.01l-9.06,4.37,1.78,1.33-.93,2.98,2.6.43-2.58,2.61,1.73,1.7c-3.38,9.05-.94,20.51-1.73,30.29-.08,1.01-.26,3.88-1.73,3.89ZM253.27,396.9c1.71,1.4,4.85,5.51,6.46,3.44.82-1.06,2.96-11.78,2.99-13.51.02-1.38.13-2-1.22-2.82l-12.57,6.42c1.45,2.26,2.93,4.14,4.33,6.47-1.07-.87-6.08-5.98-6.92-5.18l8.66,12.09,1.67-1.24c-1.46-1.71-2.34-3.89-3.42-5.67ZM590.57,423.71c.17-.53.33-1.93-.61-1.71-3.9-1.33-7.09-.36-7.17,4.3,2.7-.64,5.1-1.76,7.78-2.59-.52,1.67-6.34,4.89-7.78,6.5l1.72,1.3-1.72,3.45,7.78-3.45-6.02,5.66,2.11,2.98,8.81-7.64,15.85-9.65c-4.74,1.04-10.96-1.11-15.12-.94-1.72.07-3.82,1.23-5.63,1.79ZM270.01,473.57c1.4,1.45,8.39,7.94,10.1,6.86,7.07-4.48.06-34.16-3.96-41.1-3.47-5.98-13.91-13.99-17.22-4.37-4.56,13.26,1.81,28.96,11.09,38.61ZM585.39,447.08c1.64.86,8.85.73,5.16-2.15-1.8-1.41-14.38-4.95-16.67-4.62-5.87,4.28-11.28,8.84-17.23,13.05-.98.69-1.92.62-1.53,2.35,6.97,1.76,13.34,4.39,20.75,3.46l-3.45-7.78c6.78,4.88,10.92,3.36,18.15.86.31-3.37-4.04-3.14-5.19-5.17ZM461.56,449.01c-14.39.53-27.8,8.79-33.14,22.29-3.51,8.89-4.16,26.01,9.4,25.04,10.04-.72,37.65-19.48,39.41-29.85,1.93-11.38-4.51-17.88-15.67-17.47ZM363.11,513.67l-31.13-2.59c.33,1.58,1.7,1.6,2.99,1.75,7.72.92,17.48,2.02,25.12,1.7,1.05-.04,3.22.65,3.01-.86Z"/>
  <path d="M228.19,276.69l-.84,3.04c-1.46.99-4.45.01-6.35.57-2.51.74-10.3,16.32-11.83,19.73.91.81,13.56-3.72,15.79-4.52,5.68-2.05,15.73-7.69,20.72-8.74,1.31-.27,2.04.05,3.27.3.31.43-.59,2.71-1.1,3.22-1.66,1.68-16.93,7.43-20.31,8.66-4.32,1.57-9.21,3.33-13.6,4.56-2.97.83-12.91,4.82-11.04-1.48,1.66-5.61,10.59-16.04,11.48-20.58.55-2.81-5.95.07-6.92-2.6,2.24-3.94,7.23-.79,9.92-3.03l10.81-18.15-32.86,11.23c.06-.79-.23-1.68.19-2.42.72-1.25,19.76-8.66,22.71-9.7s16.85-7.24,16.89-2.19l-12.96,20.8c1.44,1.99,3.88,1.22,6.03,1.3Z"/>
  <path d="M280.95,281.01c.37.37-1.65,9.71-1.93,10.18-.33.55-4.18,2.09-4.13,4.51l9.94-1.73c3.02,4.28-13.15,7.38-14.31,6.55-2.56-1.82.95-5.29.89-6.99-.05-1.41-1.98-2.26-1.71-3.87,2.39-.45,6.09-1.23,6.05-4.33-2.54-.07-4.73.96-7.32.9-.73-.02-3.04.34-2.18-1.32.93-1.79,13.74-4.87,14.7-3.9Z"/>
  <path d="M638.13,474.75l-17.32,2.99-46.67,13.43c2.76-2.38,8.03-4,11.65-5.21,16.58-5.56,34.83-10.89,52.35-11.2Z"/>
  <path d="M206.56,471.29c.2,1.51-1.96.81-3.01.86-5.08.21-9.25-.77-13.81-.9-15.13-.43-30.36.75-45.45-.4,20.66-3.01,41.52-.19,62.28.44Z"/>
  <path d="M229.05,454.85c-6.81-6.19-13.74-12.2-21.9-16.58l-24.79-9.36c15.66,1.96,30.4,9.24,41.92,19.91.86.79,5.74,5.01,4.77,6.03Z"/>
  <path d="M393.38,442.73c1.25-2.02-3.34-1.69-1.73-3.44,1.81-1.96,19.58.94,23.82.89,2.7-.03,8.36-.62,11.11-1,10.44-1.46,20.89-5.33,29.07-12.01,2.77,8.17-3.46,12.13-9.79,15.71-17.23,9.76-31.38,5.17-49.45,3.32-2.78-.28-7.89.68-9.95-.43-3.72-2,6.63-2.73,6.93-3.05ZM409.38,445.34c3.93,1,11.58-.74,16,0l-14.24-1.77-3.06.05c-.03.54,1,1.65,1.3,1.72Z"/>
  <path d="M320.73,440.14c-12.22-1.41-27.22-2.02-37.21-9.91-5.14-4.06-8.77-8.32-6.89-15.15,2.79-.18,3.61,3.25,5.28,4.66,10.52,8.89,21.32,8.38,33.99,11.01l4.84,9.4ZM307.76,433.23l-12.97-1.72c1.31,1.77,5.36,3.05,7.42,3.38,1.55.24,6.45,1.06,5.55-1.65Z"/>
  <path d="M378.67,479.94c3.51,3.83-11.97,7.62-14.27,7.6-6.7-.08-12.64-5.12-17.37-5.85-4.16-.65-10.28,2.89-17.03,1.52-1.84-.37-10.53-5.11-10.14-7.14.61-3.19,5.57,3.14,6.61,3.75,8.72,5.12,13.73-1.12,19.71-.72,2,.13,5.08,2.92,7.41,3.87,5.34,2.17,10.71,3,16.47,1.79,4.08-.86,5.13-3.68,8.6-4.8Z"/>
  <path d="M357.92,460.91c2.16,2.31-9.15,5.31-10.79,5.24-4.11-.17-7.34-3.8-9.94-6.54-.08-3.64,18.51,1.06,20.74,1.3Z"/>
  <path d="M410.67,428.91c-.14,1.29-3.22,1.92-4.29,2.19-3.19.81-7.1,1.21-10.41,1.26,3.31-3.99,10.06-2.11,14.7-3.44Z"/>
</svg>