<?xml version="1.0" encoding="UTF-8"?>
<svg id="katman_1" data-name="katman 1" xmlns="http://www.w3.org/2000/svg" viewBox="0 0 841.89 595.28">
  <path d="M584.49,478.96c2.87-6.94,7.13-14.68,8.74-22.02.12-.56.56-1.95-.42-1.8-6.8,15.19-18.16,27.78-31.75,37.25-75.84,52.83-155.75-18.01-193.24-82.43l-1.83-.75c-21.38,14.46-42.88,28.8-66.23,39.94,1.01,15.06-1.76,32.66-15.23,41.58-16.82,11.15-35.1.64-44.56-14.57-13.03,4.17-25.84,9.4-39.52,11.12-.58.61,3.79,7.8,4.54,9.03,50.66,83.19,150.93,100.35,241.08,85.01,53.61-9.12,103.18-40.95,130.12-88.5,1.18.24.5,3.11.25,3.85-.97,2.83-9.82,14.07-12.23,17.15-51.26,65.35-130.65,79.82-209.97,72.1-80.31-7.81-140.44-51.05-169.17-126.77-55.3-145.78,58.21-308.26,217.3-288.79,97.07,11.88,166.48,78.88,192.8,171.29,4.05,14.22,5.15,26.3,7.75,40.46,1.52,8.28,3.98,11.7,3.18,21.19-.17,2.03-1.46,5.16-1.5,6.54-.1,4.31,1.35,9.83.97,15.1-.71,9.77-5.17,16.67-8.35,25.45-2.64,7.29-5.72,20.62-9.82,26.75-.66.99-1.57,1.89-2.9,1.81ZM442.06,180.27c-27.72-7.35-56.25-11.85-84.99-8.8-137.71,14.57-218.99,160.38-170.34,287.69.71,1.86,4.85,12.33,5.55,13.03,1.23,1.24,10.53-1.78,12.6-2.37,9.58-2.71,18.89-6.4,28.25-9.73-3.34-15.55-1.52-35.65,11.39-46.51,17.66-14.85,40.42-.84,48.52,17.13l.75.04c18.89-9.83,37.11-20.89,54.66-32.94.32-.33.47-.73.54-1.18.25-1.81-4.88-10.3-6.03-12.8-20.76-44.93-32.68-106.93-11.26-153.52,16.33-35.52,53.35-54.01,91.84-51.74,5.19.31,10.36,1.84,15.5,2.23.65.05,3.03.46,3.04-.54ZM601.11,380.32c-7.88-65.99-42.78-131.41-97.36-170.03-32.44-22.95-76.01-37.25-115.44-25.87-63.94,18.46-73.36,86.91-61.91,143.92,4.68,23.29,13.01,46.07,24.29,66.87,1.54.98,4.5-2.45,6.07-3.01-7.57-16.27-14.89-32.76-19.71-50.12-16.01-57.69-10.28-137.74,60.58-151.67,57.19-11.24,114.94,26.12,148.3,69.7,24.4,31.87,38.13,66.44,47.73,105.23.51,2.07.4,5.07.94,6.82.5,1.65,5.13,6.55,6.52,8.16ZM588.92,355.38c-12.8-53.37-43.35-105.37-88.82-137-31.92-22.21-73.08-35.54-111.66-23.85-40.26,12.19-57.11,52.19-56.97,91.62.72,1,21.23,1.84,24.42,2.18,16.05,1.75,32.39,5.75,47.21,12.09,1.84.79,8.55,4.77,9.76,4.46,15.74-16.98,38.91-24.79,61.9-21.54l-10.2-13.9c-6.86-11.2-13.37-22.7-17.34-35.3-1.24-3.94-3.97-12.76-3.99-16.54-.05-8.01,12.66,3.17,14.93,5.05,15.62,12.98,32.81,33.66,37.75,53.69,1.27,5.15,1.49,15.99,3.12,19.6,1.16,2.56,5.17,6.92,6.88,10.3,1.92,3.79,3.11,8.51,4.96,12.22,2.54,5.11,6.53,8.71,8.21,14.51,2.07,7.12.48,12.45-2.19,19.08,8.25,1.56,16.01,4.58,22.55,9.91,3.45-2.36,6.46-5.36,10.14-7.42,10.17-5.69,22.44-6.58,33.25-2.2,2.12.86,3.96,2.29,6.1,3.04ZM454.53,386.41c2.61-.36,6.6,0,9.42,0,1.38,0,6.33,1.46,8.04,1.93,1.53.43,5.81,2.68,6.8,2.43,10.1-10.39,23.87-15.42,38.38-14.36,3.3.24,18.6,4.07,20.15,2.18l.06-2.16c3.31,2.27,4.21.22,2.21-2.77l3.32,1.1c.46-10.66-13.23-17.52-22.16-19.68-3.59-.87-5.59-1.71-8.31,1.39l1.66-4.43c-10.74,1.8-12.86-13.51-8.58-20.5,1.95-1.62-.6,2.88-.69,3.19-1.23,4.69-.4,15.92,5.72,16.73,4.11.55,5.19-2.25,6.34-5.79,3.91-12-3.13-16.42-7.71-25.58-2.65-5.3-3.97-11.25-7.18-16.65-1.14-1.92-5.14-6.39-5.5-7.8-1.22-4.73-.73-11.79-2.07-17.33-3.97-16.41-15.79-33.24-28.26-44.33-.8.51-.78,1.08-.87,1.91-.81,7.6-.83,25.97,1.5,32.91.59,1.76,7.39,9.95,9.07,11.99,1.95,2.35,4.56,4.2,6.08,6.94-11.94-4.38-25.05-3.83-37.13-.27-11.54,3.4-23.77,10.43-30.84,20.27-16.97-8.09-35.02-14.79-53.95-16.11,3.18,8,13.82,24.05,21.73,27.31,6.94,2.86,16.81,3.24,24.26,3.72-2.4,8.31-1.98,16.4-.07,24.73,1.58,6.89,7.49,28.37,15.02,30.44,1.84.51,2.1.66,3.75,1.23,17.77,6.13,22.3-12.56,9.6-19.03-4.23-2.16-8.08-1.53-12.23.31,6.61-5.97,18.46.14,19.82,8.17,1.61,9.47-4.89,13.16-13.45,12.34-1.57-.15-2.79-1.2-4.15-.84,2.39,2.18.29,9.61,1.97,11.87.98,1.32,7.88,5.41,9.96,7.23,1.76,1.54,4.3,4.07,5.79,5.85,1.55,1.85,3.45,4.69,4.44,6.91-4.01-3.97-7.77-8.36-12.18-11.92-21.37-17.27-52.36-21.94-78.7-15.23-.49.67,6.97,14.02,7.74,14.7,1.62,1.43,3.56.65,5.56.82-.46,1.56-4.81-.59-4.44,1.39l7.89,11.78c10.4,1.45,20.55,4.25,30.36,7.89.12,1.03-1.12.43-1.69.3-4.66-1.1-9.31-3.38-14.36-4.48-4.15-.91-8.55-1.38-12.76-1.92-.21.85.34,1.21.67,1.82,1.19,2.28,24.19,46.99,76.75,76.76,2.81,1.59,5.23,2.87,7.03,3.79,2.73,1.52,7.11,3.25,13.35,5.2,0,0,0,0,0,0,.05.02,13.78,5.18,28.69,6.12,2.8.18,6.91.42,12.36-.01,2.08-.17,9.14-.81,18.02-3.59,6-1.88,14.8-5.34,24.36-11.95.37.36,6.23-3.73,7.05-4.31,7.59-5.35,23.17-21.12,26.35-29.67.44-1.19-.27-2.26-.1-2.51.11-.15,1.21-.41,1.85-1.22,15.06-19.05,18.32-41.34,5.75-62.78-.63-1.08-2.23-2.47-2.67-3.43-.22-.49-.19-1.07.55-.55,4.28,3.03,7.15,11.32,9.7,15.79,3.91-15.9-7.85-30.3-20.23-38.52,2.19-1.03,8.46,6.08,9.42,5.26-1.49-8.42-1.89-13.45-10.33-17.09-14.65-6.32-30.22-1.82-41.17,9.12,1.69,3.39,5.97,9.75,3.52,13.48-.13.2-3.2,3.15-3.41,3.23-6.81,2.75-18.01-1.55-25.37-2.08-12.55-.9-26.56,4.49-35.14,13.65,3.66,5.69,9.34,9.36,2.73,15.44-4.57,4.2-12.52,2.53-17.72,5.54,2.4,1.99,4.85,4.02,6.92,6.37,1.47,1.66,3.43,3.99,4.14,6.1l-10.26-9.96-8.57-5c7.68.28,15.44-.78,22.69-3.36l-1.07-3.29c.43.37,3.94,1.29,3.31-.27l-2.76-3.05,3.32.55c.24-4.79-6.08-8.18-9.98-9.69-6.14-2.37-13.95-2.93-20.5-3.61-.2-.56,1.16-1.07,1.38-1.1ZM403.27,324.35c-20.46-.71-39.85-7.65-57.45-17.64l-14.03-8.96c.76,23.23,6.62,46.23,15.1,67.75.91,2.3,6.73,16.56,7.99,16.98l18.64-2.26,3.7-4.06c.19-1.18-.2-.65-.76-.88-1.62-.65-8.82-1.88-9.18-3.06l7.17-15.17-11.09.28c-1.57-2.09-7.61-14.09-6.57-15.73,2.19-1.33,4.14-.1,6.28-.05,10.71.26,21.34,1.11,31.91,3,1.17.74-.42,4.13-.86,5.28-1.41,3.67-3.87,7.38-5.8,10.82.06,1.11,4.16,1,5.14.71,1.52-.45,7.44-10.49,10.97-10.77-2.22-8.61-3.12-17.49-1.16-26.24ZM384.43,363.13c-.72-.5,7.55-13.45,8.07-15.49.17-.68.48-.9-.31-1.41l-33.25-3.04,4.97,11.37,13.86-.28c.13.8-.04,1.43-.31,2.18-1.32,3.68-5.51,8.71-7.02,12.93-.24.69-.58,1.29-.43,2.06l9.73,2.2-3.08,6.11c6.58.48,13.52.22,19.96,1.39,9.43,1.71,18.48,5.23,27.14,9.14l-.82-8.31c-10.74-5.81-14.88-17.55-17.47-28.81-2.17-1.49-9.3,9.57-10.68,11.28l-10.37-1.31ZM357.12,394.24c-20.18,13.4-40.38,26.72-61.92,37.89-1.11.84.76,5.05,1.4,5.83s.58.33,1.19.11c1.57-.57,3.6-1.81,5.19-2.6,20-9.94,38.44-22.68,57.03-34.97l1.08-1.52c-1.46-1.28-1.75-5.09-3.96-4.74ZM299.09,447.37c23.5-10.55,44.69-25.27,65.95-39.65l.47-.51c-1.32-1.98-2.46-6.31-5.44-4.99-19.94,13.78-40.41,26.81-62.11,37.68l-.52,1.06,1.65,6.42ZM257.39,409.28c-24.46,3.36-27.58,40.08-19.92,58.42,8.22,19.65,32.2,36.58,50.55,17.66,23.01-23.73,2.81-80.67-30.64-76.08ZM235.36,467.32c-.65-1.72-.65-5.22-3-4.99-12.71,4.2-25.22,9.69-38.57,11.64l1.2,4.89c3.18,1.95,35-9.64,40.37-11.55ZM198.89,485.49c1.9,1.1,20.39-4.12,23.72-5.15,3.76-1.16,12.04-3.65,15.14-5.37.51-.28,1.11-.5.89-1.21l-2.45-4.24-.99-.45c-12.23,4.5-24.53,8.92-37.37,11.42l-1.19.95,2.26,4.05Z"/>
  <path d="M345.95,135.4c-.34,2.53-1.72,5.49-4.44,6.09l-31.22,4.75-2.03-9.46c-1.15-.76-5,3.22-6.26,3.99-9.12,5.57-22,5.06-31.24-.02-4.19-2.3-6.77-5.95-10.71-8.4-.82,1.04,5.04,14.46,5.41,17.04.16,1.1.42,2.3-.39,3.23l-39.02,15.23-31.37-71.13c-1.06-1.39-7.91.86-10,.72-.42-2.29-2.02-4.94-3.24-7.02-4.31-7.39-11.19-16.76-14.45-24.35-.39-.91-.85-1.32-.36-2.41,1.01-2.23,10.24-8.42,12.75-10.01,17.45-11.05,41.7-19.8,62.56-17.09,21.41,2.79,37.06,16.04,36.93,38.71l17.5-4.94-3-20.16c.19-.8,5.61-5.6,6.59-6.18,4.19-2.46,31.46-9.48,36.97-10.14,6.77-.81,3.34,6.45,5.39,10.39,1.8-1.94,7.52-12.55,9.5-12.61.41-.01.78.06,1.14.27l25.86,21.16,10.89-7.44c.4-1.61-9.21-4.9-5.23-8.56,8.64-8.51,16.2-18.23,24.62-26.92,3.67-3.78,6.72-8.32,11.01-2.11,1.87,2.71,9.94,17.07,10.74,19.73.47,1.56,1.1,3.7-.45,4.79l-17.62,7.87c-.65.39-1.26.78-.35,1.33,1.26.76,6.23,1.46,8.31,2.21,4.57,1.64,7.95,4.46,12.2,6.36.07-1.16-.15-2.41.03-3.57.41-2.49,8.41-10.12,11.03-10.61,6.01-.61,13.97,2.19,19.72,1.48,1.11-.14.81-1.2,2.17-1.72,3.94-1.51,21.42-4.16,26.07-4.41,2.18-.12,5.3-.41,6.62,1.68,3.17,12.63,3.85,25.88,5.85,38.77,4.33-1.88,8.2-4.55,12.86-5.7,3.07-.76,6.02-.79,9.06-1.47l-.75-17.93c.37-1.25,8.63-6.92,10.13-7.08,2.75-.3,9.99,2.16,13.15,2.97,5.85,1.5,19.76,4.58,24.42,7.17,2.58,1.43,2.89,5.59,3.17,8.19,2.3-2.17,1.05-7.48,5.75-6.62l29.57,8.67c1.16.43,1.29,2.1,1.3,3.22.03,3.6-4.62,16.27-5.99,20.65-7.76,24.76-16.67,49.2-24.82,73.83-.74,3.02-6.32,6.06-9.11,6.41-1.29.17-18.08-4.52-19.62-5.37-3.03-1.66-4.42-6.12-6.45-8.52-3.73-4.42-17.32-3.59-22.92-7.01-2.22-1.36-8.3-11.52-9.5-11.55-1.9,2.8-1.49,6.22-3.85,8.88-1.21,1.36-7.78,5.93-9.43,5.97l-31.2-5.81-12.05-15.15c-3.07,2.14-2.81,4.02-7.21,3.91-5.85-.14-18.23-2.63-24.2-4.08-2.05-.5-4.64-.64-5.99-2.32v-8.04l-12.67,3.4c-1.27,1.98,1.28,17.63.36,21.7-.41,1.84-4.89,5.33-6.82,5.42-2.3.1-9.02-3.34-11.63-4.47-14.07-6.07-28.55-14.63-42.42-20.2-.57-.23-.98-.43-1.64-.3-.44,4.6.6,10.22,0,14.69ZM399.98,40.91h9.42c1,0,15.92-7.28,18.21-8.39.75-.37,2.93-1.23,3.09-1.91-.59-1.56-1.14-3.18-1.87-4.68-2.28-4.7-6.47-12.45-9.28-16.77-1.82-2.79-3.13-4.5-6.34-1.86l-28.2,30.85c-1.46,2.94,7.81,6.11,6.38,8.28-4.67,1.82-8.99,4.77-12.53,8.3l-26.1-21.5c-1.43-.24-2.31,1.22-3.15,2.2-2.92,3.38-5.18,8.47-7.81,12.14-1.29.23-.72-.58-.81-1.39-.23-2.18-.41-9.84-1.39-10.81-.33-.33-.65-.55-1.14-.57l-35.74,9.16c-.9.75-.61,3.71-.54,4.99.41,7.18,1.66,14.44,2.26,21.62-.1,3.1-2.24,1.41-4.18,1.36-7.77-.2-14.69,1.65-21.62,5.02-1.4-.28-.7-5.02-.85-6.37-5.61-47.99-71.49-34.85-99.36-15.14-.72.51-3.2,2.19-3.46,2.67-.68,1.25,3.04,7.74,3.9,9.43,4,7.84,8.78,15.32,13.02,23.03l8.6-4.74.75.9,32.27,77.18,31.17-12.28-11.84-38.64-6.06,1.67,8.78,33.17-18.22,7.27-31.66-76.7c-.35-.53-.48-.89-1.22-.82-1.92.18-8.5,5.43-10.29,4.3l-10.6-19.63c.02-1.11,2.98-2.46,4.07-3.12,19.9-12.09,62.41-24.84,78.18-.96,13.51,20.45-3.7,43.56-23.77,50.38l-.27-1.37c18.38-6.19,34.72-26.62,24.47-46.11-12.73-24.2-52.35-14.17-71.6-4.35-1.53.78-9.09,4.7-9.34,5.66l9.41,17.86c1.12.82,8.53-3.87,10.44-4.18.75-.12.71.16,1.06.67l31.68,76.7,16.58-7-9.28-31.45c.23-1.24,6.95-3.4,8.59-4.13,2.25-1,4.37-2.29,6.55-3.43,1.68-.33.27,1.98.33,2.99.9,15.08,12.89,27.24,27.94,28.59,10.08.91,16.07-1.66,23.55-8.02.94-.8,2.82-3.54,3.05-3.61,1.31-.41.62.58.56,1.12-.34,3.09-1.16,8.49-.87,11.38.06.65.03,1.62.83,1.77l29.12-5.12v-24.66l61.78,29.37c.56-.38.72-.74.84-1.39.47-2.6.11-8.68.03-11.66-.06-2.15-1.4-14.57-.9-15.25,9.16-1.51,17.55-5.37,25.54-9.92,1.13.76.53.83.44,1.52-.28,2.2-3.8,13.58-2.91,14.51l29,4.86,2.01-1.24,4.15-5.81,1.94,3.88-2.2-1.66c-.58,1.45-2,3.32-3.03,4.47-.95,1.05-2.45.74-1.89,2.36,2.59,2.21,8.8,12.81,11.4,13.58,2.14.64,5.98-2.5,7.95-3.61.15-.7-3.36-10.37-3.96-11.95-.16-.41-1.05-.42-1.09-.78l.59-2.41,6.11,14.66,27.64,5c3.5-.08,4.61-7.42,5.04-10.25,1.5-.46,2.47.88,3.63,1.08,4.67.84,10.84-2.98,15.21-4.4l.07,11.01,22.82,5.04c1.7,2.93,1.78,8.48,4.62,10.47,4.06,2.83,14.15,3.37,18.91,6.08l2.08-.44c9.07-26.59,18.64-53.12,27.01-79.95.8-2.56,4.94-15.12,4.62-16.53-.1-.45-.32-.87-.73-1.11l-30.92-8.89c-1.6.11-2.2,5.62-2.76,7.26-.27.8-.31,1.67-1.11,2.2-1.43.03-1.1-10.76-4.32-11.19-4.31-1.49-36.68-11.25-38.08-9.86l.55,26.6c-7.35-1.97-15.08-1.43-22.15,1.4-3.41,1.36-6.02,4.06-9.43,4.7-.07-1.18.13-2.41,0-3.6-1.21-10.21-2.38-23.28-4.58-33.1-1.14-5.06-2.94-4.64-7.81-4.24-2.8.23-24.31,3.54-25.15,4.51-.36.42-.11,1.77-1.03,2.04l-20.88-2.09c-1.01.31-1.15,1.01-1.48,1.86-1.92,4.9-1.39,12.06-2.81,17.14-.17.6-.19,1.02-.81,1.4-7.1-7.44-16.48-13.05-26.74-14.81-6.14-1.05-12.69,1.05-16.51-4.59l-.04-1.11,19.46-21.04,7.47,11.91-22.99,11.91.56,1.11ZM420.21,28.16c.62-.7-3.73-7.98-4.52-9.05-.35-.47-.52-1.1-1.27-.9l-17.49,19.64c.82,1.05.63.69,1.47.38,7.17-2.59,14.22-8.07,21.81-10.08ZM438.49,55.32l2.22-15.52c-5.86,4.29-10.85,10.88-2.22,15.52ZM533.26,43.13c-.53-.54-7.71,3.65-6.69,5.79l1.24,15.72,5.13,1.13c2.02-.49.33-8.48.3-10.16-.09-4.16.12-8.34.02-12.49ZM301.06,45.35c-2.94.82-6.17,3.72-6.14,6.93.06,5.39,2.3,12.15,2.79,17.64l5.01.92-1.66-25.49ZM173.59,59.2c-1.45.93-6.46,3.88-6.01,5.68l18.49,30.88,4.63-4.61-17.11-31.96ZM232.32,165.02l-31.84-77-5.59,7.22,31.43,70.57,1.2.81,4.8-1.61ZM197.98,89.13c-.5-.44-9.47,5.67-9.97,7.19,4.66-.17,7.38-3.89,9.97-7.19ZM421.88,122.93c7.87-1.94,7.62-11.09,8.86-17.73l-8.04,4.42-.82,13.31ZM259.49,109.63l-5.47,3.1c2.07,7.11,3.58,14.87,8.78,20.46,9.14,9.81,26.07,14.17,37.69,6.63-2.32-.11-4.55.8-6.9.86-17.66.47-33.96-12.87-34.11-31.06ZM421.32,110.19l-12.77,3.57-.53,3.07c.58.59,15.92-2.02,13.3-6.65ZM405.24,142.87l-.91-1.57-58.38-27.79c.23,1.5-.48,4.32.27,5.55.31.52,8.14,4.23,9.51,4.9,14.46,7.16,29.32,13.55,43.96,20.32,2.51,1.15,3.52-.65,5.56-1.41ZM456.78,124.6l-26.95-4.4c-2.07-.05-3.54,1.95-5.19,3.01-.53,1.04,1.51,1.07,2.11,1.2,6.26,1.35,18.18,3.95,24.19,4.09,3,.07,4.85-.98,5.83-3.91ZM530.49,129.03c-4.18,1.31-8.15,3.78-12.74,3.33-.82.78,5.76,8.93,7.01,9.92l6.19-4.2-.45-9.04ZM314.36,131.25l-4.92,3.71,1.04,9.59c5.6.36,2.48-9.41,3.87-13.3ZM507.21,141.22l-26.34-4.45-5.79,3.06,26.35,5.76c.75-.21,6.84-3.5,5.78-4.37ZM342.62,139c-8.45,1.39-17.87,1.77-26.19,3.46-1.07.22-2.83.6-2.62,2.08,7.93-1.28,16.03-2.05,23.94-3.48,1.16-.21,2.57-.44,3.66-.8.93-.3,1.46.25,1.21-1.26ZM553.21,143.44l-20.25-3.9-6.35,2.79c.24,1.05,1.39,1.1,2.21,1.38,2.69.93,13.95,3.66,16.37,3.61.91-.02,6.15-2.18,7.23-2.73.58-.3,1.04.29.79-1.15ZM578.15,161.16c-.06-.74-.79-.9-1.35-1.14-4.66-1.94-13.61-2.98-17.45-5.27-3.36-2.01-3.03-6.7-5.29-9.58l-6.94,2.71c1.41,2.82,4.47,8.92,7.25,10.17,2.23,1.01,16.64,5.16,18.62,5.18,1.61.02,3.41-2.01,5.16-2.07Z"/>
  <path d="M428.2,345.4c2.02,10.49,11.01,8.44,15.8,1.11.34,10.06-15.21,12.42-16.86,1.33-.16-1.09-.59-2.88,1.05-2.44Z"/>
  <path d="M485.3,328.78c8.03,5.67,12.28.14,9.98-8.31.54-.73,3.89,5.83,1.89,9.38-2.73,4.81-10.51,4.39-11.86-1.06Z"/>
  <path d="M462.01,353.71c-.46-1.97,2.1-.4,3.59-.51,3.39-.24,4.79-3.78,5.28-6.69,4.53,1.7,8.81,2.37,11.63-2.22-.78,6.56-7.8,3.36-10,4.18-1.13.42-2.16,3.21-3.06,4.09-2.2,2.17-4.69,1.81-7.44,1.14Z"/>
  <path d="M470.88,339.87l-1.11,3.88-4.43-.56c-.95-2.39,4.81-3.98,5.54-3.32Z"/>
  <path d="M260.15,433.65c21.05-3.58,25.01,34.44,7.5,37.42-20.9,3.55-24.82-34.48-7.5-37.42ZM262.38,435.33c-8.36.33-11.94,10.15-11.5,17.3.59,9.44,9.92,21.76,19.91,14.94,11.64-7.95,5.72-32.79-8.41-32.24Z"/>
  <path d="M337.09,64.19c1.1.81,15.79-20.53,18-20.52,1.56,0,14.84,14.43,17.94,15.61l-.03,1.18c-11.58,16.88-7.69,39.05,11.37,48.16,4.31,2.06,8.22,2.46,12.86,3.21.79.78,2.51,16.03,1.92,16.64l-58.18-27.44h2.22s54.59,26.32,54.59,26.32l-.91-13.49-.84-.82c-1.92-.18-3.88-.4-5.73-.92-8.8-2.46-16.94-9.24-25.11-13.68-6.97-3.78-14.31-6.96-21.43-10.44l26.09-29.6-13.59-12.54-1.62-.49-17.81,21.02c-1.74.02-2.87-19.2-4.12-21.37-1.69-1.25-13.91,3.75-16.83,3.75-.7.18-.91.58-.96,1.27-.16,2.09,2.67,11.41,3.18,14.58.68,4.19.73,13.13,1.97,16.31.95,2.43,4.23,5.8,5.65,9.31,4.4,10.88,1.67,14.48-.22,24.68-1.01,5.44-.18,11.45-1.7,16.86.72.51,12.53-1.92,13.03-2.76l.82-21.91,1.11-.82-1.06,24.01-15.01,3.13c1.24-5.36.46-11.62,1.15-16.85,1.36-10.3,5.38-14.56.61-26.19-1.19-2.91-5.7-8.32-6.08-9.99-.4-1.76.09-3.65-.12-5.42-1.03-8.48-2.52-16.9-4.45-25.21l-3.35.9c.39,6.22,1.4,12.52,1.72,18.73.03.57.28,6.57-1.13,4.73l-1.7-24.6,24.45-6.2,3.3,20.83ZM371.44,60.31c-1.04-.24-1.31.59-1.94,1.1-2.13,1.76-4.7,4.58-6.66,6.64-5.83,6.14-11.34,12.72-16.9,19.12l26.6,14.14-5.25-8.88c-3.12-7.92-2.51-17.1.55-24.92.98-2.49,2.66-4.71,3.59-7.21Z"/>
  <path d="M542.13,49.78c4.03,1,24.35,5.15,26.08,7.45l5.52,39.1,12.17-35.24c4.93,1.64,12.86,2.27,17.33,4.36.53.25,1.29.6,1.36,1.23l-28.98,85.01-12.33-4.17-3.41-33.45c-1.58-.29-.9.4-1.24,1.22-2.63,6.37-4.84,12.93-7.7,19.2-.77.49-11.18-2.08-11.5-3.05l1.3-10.76c9.32-9.72,16.05-23.52,11.11-37.09-2.09-5.75-5.93-8.6-9.98-12.71-.08-.44.29-.74.29-.87v-20.23ZM543.24,50.89v20.5c15.26,9.36,13.64,29.59,4.34,42.86-1.22,1.74-4.4,4.57-5.13,5.95-.43.82-2.08,9.64-1.94,10.14l9.13,2.96.51-.36,10.26-25.52,3.99,38.96,10.19,3.7,28.45-82.8-16.54-4.73c-4.13,11.99-7.19,24.47-11.59,36.36-.26.69-.27,2.08-1.46,1.86l-6.12-42.65-24.09-7.22Z"/>
  <path d="M492.19,40.42l4.52,39.59c-.25,1.8-3.12,4.88-4.19,6.88-8.7,16.23-2.51,32.18,12.99,40.8l-1.98,4.69-18.18-4.49-5.29-32.12-9.14,16.06-10.53-20.48c-1.57-.07-3.72,22.94-5.49,24.43-.48.41-1.01.56-1.63.47l-15.35-3.11,2.81-16.25c.96-.02,1.18-.32,1.06.78-.57,4.92-2.13,9.77-2.69,14.69l14.95,2.02,4.96-25.8,1.69.37,10.23,20.14,9.41-16.61,5.93,34.79c4.94.86,10.56,3.07,15.4,3.78,1.8.26,2.15-1.59,1.99-3.11-15.41-8.81-20.83-25.55-12.24-41.57,1-1.87,4.09-5.34,4.22-6.91l-4.51-37.95c-2.38.46-10.73.81-11.87,2.77l-5.63,26.61-1.82-.08-5.01-22.97-17.73-1.88c-2.17,12.15-2.82,24.55-4.53,36.75-.12.89-.14,3.62-1.59,3.11l5.52-41.33,19.44,2.24c.94.68,3.56,17.8,4.39,20.55.24.8-.31.97,1.12.81l4.94-25.26c.84-.99,13.05-3.05,13.84-2.38Z"/>
  <path d="M403.58,89.12c7.66-.3,13.86-4.92,19.66-9.42l13.57,10.81c-13.89,12.79-42.6,22.75-57.08,6.11-22.51-25.87,16.73-60.85,46.3-40.76,1.31.89,6.12,4.31,5.74,5.72-8.41,10.11-18.29,18.93-28.2,27.54ZM430.1,60.4c-12.12-10.26-26.51-12.65-40.54-4.41-26.03,15.28-16.28,50.5,14.85,48.1,10.74-.83,22.38-7.04,30.75-13.57l-11.43-9.03c-6.75,3.97-13.36,9.64-21.81,8.75.04-.45-.09-.97,0-1.39.23-1.15,9.85-8.31,11.66-9.96,4.72-4.31,9.04-9.13,13.27-13.89,1.27-1.43,3.81-2,3.27-4.59Z"/>
  <path d="M295.4,79.3c27.84-3.15,33.54,29.52,14.79,45.27-20.52,17.25-49.9,1.68-41.3-25.23,3.4-10.65,15.68-18.82,26.51-20.05ZM296.5,80.41c-12.26,1.25-26.16,11.09-27.52,24.02-2.75,26.26,26.23,34.39,42.63,17.14,14.98-15.75,9.19-43.63-15.11-41.16Z"/>
  <path d="M520.94,73.75c27.55-3.73,33.69,27.17,14.8,42.51-24.33,19.76-54.27-7.48-34.08-31.31,4.16-4.91,12.86-10.34,19.28-11.2ZM522.06,74.87c-10.77,1.29-23.99,11.72-25.31,22.9-3,25.37,27.37,31.41,42.04,13.78,13.35-16.04,5.93-39.39-16.73-36.68Z"/>
  <path d="M250.99,93.92c-1.34,1.24-10.39,7.21-11.44,6.29l-7.55-27.7c-.38-1.97,3.11-3.16,4.63-3.75,17.78-6.89,27.17,13.33,14.36,25.16ZM233.53,71.47l6.69,26.12c.29.62.36.95,1.17.88s6.33-3.61,7.29-4.38c15.94-12.82,2.45-33.25-15.14-22.63Z"/>
  <path d="M435.17,69.18c-.48,2.38-.25,5.22-.55,7.49s-4.91-1.51-5.01-2.78c0-1.36,5.07-5.27,5.56-4.71Z"/>
  <path d="M388.81,83.39c-3.52-3.38-2.73-9.9-.65-13.84,3.64-6.89,17.45-14.3,23.47-7.04,4.5,5.42-1.29,10.52-5.28,14.16-3.69,3.37-12.79,11.3-17.55,6.73ZM402.9,61c-6.62.79-14.21,6.77-15.25,13.57-.67,4.36,1.24,9.8,6.54,8.78,3.7-.72,15.88-10.84,17.29-14.31,2.4-5.9-3.53-8.64-8.57-8.03Z"/>
  <path d="M293.71,90.92c24.2-3.78,20.3,31.1-2.35,29.23-17.69-1.46-14.29-26.63,2.35-29.23ZM294.27,92.03c-4.3.74-10.54,5.24-12.33,9.29-5.96,13.57,9.01,22.89,20.5,14.41,11.78-8.69,6.99-26.3-8.18-23.7Z"/>
  <path d="M522.61,82.63c19.81-1.92,19.21,26.19.82,29.08-22.92,3.6-22.33-27-.82-29.08ZM511.29,107.77c11.79,10.34,32.99-7.28,22.26-19.76-11.29-13.14-36.34,7.41-22.26,19.76Z"/>
  <path d="M240.1,74.72c9.78-.05,10.1,9.72,5.26,16.07-.88.21-1.15-.75-1.42-1.34-.55-1.22-4.38-14.2-3.83-14.73ZM245.64,88.57c2.23-5.83,2.89-10.23-3.87-12.74-.35.44,2.23,9.52,2.69,10.88.24.72.17,1.69,1.18,1.86Z"/>
  <path d="M402.34,67.6c1.1-.11,1.71.33,2.22,1.29-.2.61-.54,1.2-.98,1.68-1.39,1.52-6.61,6.13-8.3,7.21-4.78,3.05-1.94-3.92-.01-6.11,1.43-1.61,4.96-3.86,7.07-4.07ZM394.17,76.93c.74-.76,9.28-7.34,8.3-8.31-3.65,1.35-7.84,4.2-8.3,8.31Z"/>
  <path d="M576.43,496.67s9.65-17.27,10.96-19.52l-2.9,1.81-8.31,13.86"/>
</svg>