<?xml version="1.0" encoding="UTF-8"?>
<svg id="katman_1" data-name="katman 1" xmlns="http://www.w3.org/2000/svg" viewBox="0 0 841.89 595.28">
  <path d="M324.27,569.85l4.67-2.98,1.31-4.34c-22.83,5.07-46.54,5.37-69.82,3.99v3.33s-5.68-.64-5.68-.64c-4.16-14.69,8.92-23.59,19.87-30.06,4.76-2.81,7.12-1.02,6.43-8.22-.36-3.71-4.78-5.49-7.32-7.96-4.56-4.41-10.57-9.61-9.9-16.56,1.12-11.56,15.91-32.67,23.85-41.32,1.12-1.22,6.16-5.24,6.34-5.63s.96-5.2.93-5.71c-.08-1.59-8.01-6.91-9.9-9.28-8.73-10.92-2.83-22.33-.06-34.17-14.1-5.21-23.68-17.88-24.58-32.95-.69-11.48,2.84-38.65,12.71-45.87,1.36-.99,4.33-1.77,5.1-2.55,1.65-1.67,2.56-4.75,5.54-6.76s10.18-1.9,9.94-5.97c-.05-.85-3.39-8.8-4.02-9.36-1.65-1.47-9.89-3.5-12.61-4.68-16.48-7.19-39.01-22.77-37.24-43.21.14-1.62,1.76-5.35,1.05-6.35-6.35-2.78-12.6-5.85-18.55-9.41-2.19-1.31-16.01-10.39-16.38-11.59-.76-2.47,7.43-7.31,8.61-9.55-2.86-.82-15.93,3.22-17.2,1.23-.86-9.37,7.18-17.02,10.01-24.73.26-.7.92-.67-.11-1.46-10.54-1.73-22.52-1.34-32.87-3.7-1.32-.3-2.79-.78-3.78-1.73-1.29-1.91,4.84-8.06,6.36-9.52,4.78-4.59,10.97-8.34,16.29-12.29-11.98-6.89-33.01-15.82-23.94-33.26,5.25-10.1,23.25-17.22,33.79-20.08,11.37-3.08,23.56-4.24,35.32-4.25,1.62-15.75,4.61-30.97,12.83-44.68,20.62-34.41,70.28-46.32,107.96-44.38,4.4.23,12.23,2.22,15.9,2,1.59-.1,4.48-2.22,6.48-2.83,8.8-2.69,22.03.05,29.13,5.84,2.13,1.74,4.3,5.56,6.02,6.61,4.06,2.49,15.38,5.05,20.75,7.18,22.3,8.84,56.31,29.04,70.58,48.44,5.5,7.48,6.71,16.17,7.71,25.21.84.87,7.57-6.71,8.63-7.65,11.26-9.94,25.67-19.69,39.46-25.71,4.59-2.01,18.77-9.35,17.58.27-3.31,26.76-23.73,61.32-42.03,80.7-1.92,2.03-9.42,7.87-9.7,9.95-.12.94.7,5.4,1.34,5.96.99.85,6.97,2.86,8.79,3.84,6.21,3.38,11.8,7.5,16.91,12.39,1.43.25,3.88-3.91,4.88-4.96,28.18-29.74,70.41-48.58,111.72-47.52v23.58c-.41,2.14-16.13,16.54-18.96,18.95-22.72,19.35-50.1,33.15-78.15,43.01,1.11,8.13,1.99,16.07.04,24.16.81.79,11.62-5.25,13.51-6.1,15.87-7.09,50.06-21.43,66.61-21.87,1.63-.04,3.52-.28,3.7,1.72-2.59,18.71-5.2,37.51-10.06,55.79-.87,3.26-4.01,15.63-5.9,17.38-.9.83-1.16.84-2.33,1-6.61.89-15.64-.42-22.67-.06-1.54.08-8.47.55-9.19.79-2.23.74.09,8.77.23,10.88.09,1.45.22,2.96-.28,4.36-2.85,1.56-16.18,1.18-17.38,3.26.55,3.58,7.47,19.24,5.76,21.53-1.23,1.64-19.72,2.49-20.06,4.18.18,4.29,9.01,18.98,7.05,22.2-.95,1.57-30.77,8.87-34.66,11.97-3.27.21-4.3-6.41-7.25-7.87l-9.36,5.87c1.51,5.98,4.35,11.83,6.03,17.96,5.54,20.2,6.54,41.68-6.71,59.12-10.72,14.12-28.35,21.29-45.49,24-.21,1.02.11,1.54.63,2.35,4.73,7.31,16.06,13.11,18.68,23.21,1.59,6.14-1.5,11.68-1.04,13.73.35,1.55,7,10.83,8.44,13.45,5.41,9.88,11.73,21.79,10.52,33.35-.56,5.31-1.26,5.38-6.64,4.99-.2-.17,1.9-5.56-.33-4.64-3.21,3.61-5.02,5.58-10.31,4.64l5.63-4c9.02-7.09,3.21-16.83-.89-25.02-2.66-5.32-6.24-10.13-8.75-15.53-1.36-.94-4.78,6.03-5.7,7.25-1.65,2.21-4.05,4.34-5.6,6.7,8.6-1.63,19.47,7.97,21,15.94,1.74,9.07-15.37,12.82-22,13.32-5.81.44-21.85.39-23.47-7.13-1.2-5.53,4.58-7.83-5.41-4.13-.05,5.63,5.04,9.04,8.61,12.59-2.42-.25-5.35.36-7.68.04-3.42-.47-5.86-6.55-7.36-9.38-12.7,1.34-25.96,2.89-38.3-1.48-14.15-5-10.39-11.6-17.83-20.74-4.77-5.86-11.81-11.17-16.93-16.86l-15.34,11.14c-3.71,12.46-13.35,18.34-26.14,18.08-1.34,7-3.48,13.23-7.4,19.2h-9.97ZM407.39,34.55c1-.89-4.52-4.24-5.1-4.54-5.27-2.65-14.43-4.61-19.5-1.11l24.6,5.65ZM447.29,165.55c1.8-21.85,3.57-43.61,3.97-65.53.6-32.95-4.18-49.04-37.35-59.68-40.8-13.09-84.86-16.51-124.45,2.28-28.61,13.58-43.86,38.71-44.32,70.4l25.93,1.32c-.44-3.05-.77-5.87-.68-9,.05-1.79.82-9.41,1.47-10.5,1.01-1.7,5.57-2.03,7.63-2.34,3.06-.47,9.1-1.47,11.89-1.44,6.43.06,1.7,8.39,2.98,12.65,16.04-3.38,31.63-2.01,46.91,3.83,1.9-.34,1.93-10.79,4.28-12.15,1.95-.99,12.08,1.75,14.78,2.53,2.4.68,11.24,3.25,12.16,5.13,1.34,2.73-2.85,15.08-4.42,18.2-2.27,4.48-5.88,7.48-9.21,11.06,30.73,7.55,59.97,19.72,88.44,33.26ZM450.73,168.77c.63,1.03,20.74,6.77,23.13,7.13,1.14.17,2.24.68,3.36-.02,6.79-14.26,14.12-27.66,23.39-40.46,2.75-3.8,9.31-9.65,9.24-14.08-.29-21.05-7.01-29.42-22.35-42.21-13.49-11.24-29.47-20.88-45.53-27.95-.54.51,3.94,5.53,4.52,6.44,15.34,23.59,5.48,76.07,4.12,104.28-.11,2.27-.08,4.61.11,6.86ZM274.4,98.06v12.97l15.57-6.04c2.14-1.55.61-7.4,1.06-9.92-.61-.61-12.5.86-14.25,1.38-.81.24-2.15.81-2.38,1.61ZM513.46,180.85c-3.69-.38-7.88.27-11.64,0-.48-1.68,1.43-1.65,2.5-1.8,2.59-.37,6.87.34,8.79-.54,4.83-2.22,21.09-18.53,25.3-23.24,6.21-6.95,6.46-9.19,8.32-18.28,2.49-12.16,3.45-25.51,3.98-37.93.04-.92.6-1.15-.68-1.98-24.53,14.81-44.53,38.22-58.72,62.96-1.3,2.26-10.56,19.1-9.45,20.14,1.29.08,4.22-.25,4.65,1.33-19.67,3.66-36.46,15.94-45.99,33.47-2.66,4.89-4.16,10.36-6.92,15.02-2.35,3.97-5.98,7-8.25,11.03,3.58.04,6.79-1.34,9.92,1.38,2.43,2.1,4.63,8.8,4.73,11.96.19,6.29-3.51,16.79-11,16.98-1.3.03-4.86-1.5-4.31.25,1.03,3.27,5.49,10.07,7.69,12.92,10.43,13.5,28.11,22.9,44.16,27.99.13,1.14-2.29.73-3.01.68-1.9-.13-3.78-.63-5.64-1.01-4.01-.84-13.23-4.87-15.68-5-1.97-.11-3.79,2.74-6.26,2.01-.17,1.24,0,1.96.63,3.02,2.33,3.95,9.48,12.62,12.69,16.57,2.57,3.15,5.35,6.17,8.29,8.98l8.65-11.95-.67,5.31c6.23-5.4,14.01-9.12,22.28-9.97.4,1.91-.62,1.05-1.44,1.53-9.93,5.81-20.29,11.57-27.27,20.95l-4.54-1.2c1.82,3.51-2.27,3.83-2,6.64,1.6.06,3.55-.52,4.65,1.01.34,1.58-7.21,5.24,1.99,4.98l-1.99,5.31c2.08-.07,3.35-2.06,5.58-1.97,1.61.07,4.23,1.52,6.22,1.8,16.8,2.41,33.43,1.17,45.4-12.11l8.62-12.98c-1.86,17.49-18.17,31.63-35.9,30.59-1.32,1.37,3.72,4.36,4.73,4.91,29.09,15.88,58.65-17.02,56.45-45.47-.48-.53-10.07,5.44-11.95,2.32,5.25-7.17,14.11-11.96,11.95-22.27-.78-.81-7.41,4.47-9.12,5.17-.79.32-4.1,1.77-3.5-.17,1.12-3.64,8.36-10.01,9.6-13.67.88-2.58-.03-5.3.67-7.97.63-2.43,5.58-9.42,7.12-12.83,5.19-11.51,8.92-27.36,7.85-40.01-.12-1.42-.85-6.26-1.42-7.22-.87-1.45-2.7-.88-3.22-2.42,16.68-6.63,34.58-12.73,49.81-22.34,9.66-6.09,12.15-9.88,17.25-19.99s8.73-21.17,12.74-31.81c.03-1.88-18.01,3.98-19.46,4.48-29.91,10.3-54.73,29.45-74.65,53.69-1.31-2.08,1.97-5.18,2.2-6.43.55-2.98-11.58-11.73-14.3-13.38-7.12-4.3-18.19-8.61-26.46-9.45ZM364.82,119.67l4.38-14.64c-.89-1.44-20.01-6.9-21.58-5.89l-2.46,9.89,19.66,10.64ZM275.73,115.67c25.83,3.63,51.64,7.9,76.83,14.67,3.83.13,7.66-4.56,10.27-7.02-15.44-11.09-36.27-18.81-55.51-17.61-7.62.47-24.56,4.16-30.72,8.48-.57.4-1.24-.12-.87,1.48ZM445.88,168.95c-43.11-21.67-89.95-35.2-137.43-43.77-34.68-6.26-72.09-12.22-106.53-1.85-8.87,2.67-27.8,9.87-28.57,20.69-.65,9.15,18.86,19.08,26.57,20.86l-15.6-9.99c-5.18-4.8-9.3-9.05-3.66-15.59,1.05-1.22,7.97-6.35,8.97-6.32.43.02,1.29,1.03.67,1.99-2.13,3.3-13.11,6.42-8.33,13.62,4.11,6.18,16.46,12.93,23.3,15.93,5.95,2.61,24.21,9.1,29.93,7.36,26.54-17.83,58.73-26.05,90.73-24.29,28.3,1.56,57.43,12.44,85.04,18.7,4.81,1.09,33.01,7.68,34.96,4.52l-.04-1.87ZM362.82,158.93c-18.65-5.38-39.35-8.06-58.82-6.67-2.47.18-11.77,1.47-13.6,2.36-3.11,1.5-10.07,15.22-11.66,18.93-3.2,7.43-5.9,15.93-6.99,23.93l29.25-31.91c-4.07,9.23-8.01,18.44-9.76,28.47-1.21,6.96-2.33,17.5-1.57,24.43.11,1.01.06,1.65,1.03,2.28,13.61-12.09,25.9-25.52,38.27-38.86.63-.67,1.25-1.38,1.31-2.35,1.21-.16.61,1.44.36,2.03-1.07,2.54-10.09,17.86-9.01,19.25,9.58-6.24,19.35-13.31,27.27-21.59,2.36-2.47,15.64-17.85,13.92-20.27ZM294.35,233.71c.36-3.01-.26-6.56,0-9.64-4.74,1.56-3.56,7.31-5.5,11.46-5.22,11.17-14.28,6.2-17.42-3.5-3.22-9.94-1.38-20.23,1.64-29.91l-3.98,2.66c-.4-.3-.36-5.53-1.99-3.98-3.9,9.01-5.21,17.76-4.66,27.59.15,2.67,1.1,5.96,1.32,8.66.06.73.49,2.48-.65,2.31-6.42-16.42-7.16-30.42,2.77-45.43.89-1.34,2.49-2.24,3.04-3.61.82-2.07.85-5.82,1.5-8.14-5.25.25-7.94,5.17-11.15,7.97-.45.4-1.86,1.31-1.48-.31,2.12-2.73,3.81-6.06,6.51-8.27,2.19-1.79,6.49-3.38,7.74-4.74,1.48-1.61,2.07-5.38,3.12-7.52,2.08-4.22,4.74-8.07,6.55-12.39-9.51,2.32-18.8,5.56-27.74,9.49-6.19,12.54-7.73,26.82-6.82,40.71.79,12.1,5.79,27.12,2.99,38.91-2.65,11.17-7.43,14.63-.68,26.6,18.51,32.85,90.02,42.22,122.21,29.1,5.59-2.28,12.73-8.66,18.66-11.93,9.75-5.37,20.25-8.91,30.76-12.49l-2.04-3.91c-6.42,4.63-17.37,1.07-14.31-8.09-6.47,2.37-12.9,7.77-19.31,1.69-7.57-7.18,10.81-15.47,16.65-15.65,1.53,1.36-6.25,3.76-6.88,4.08-4.11,2.08-16.48,7.89-6.68,11.81,6.21,2.48,12.35-2.31,17.5-5.64,2.65-1.72,9.75-6.18,10.41-8.87,1.01-4.12.67-7.62,2.61-12.02,2.32-5.26,7.41-9.35,10.19-14.41.86-1.57,4.17-9.19,4.16-10.53-.93-3.18-3.5-5.94-5.05-8.95-5.75-11.11-8.92-22.49-12.96-34.25l-46.9-12.07-4.96,9.07c11.46-5.75,27.16-2.46,35.9,6.65-9.4-4.42-18.94-7.32-29.53-5.92-3.16.42-5.83,2.88-9.06,2.32-9.46,11.56-20.44,22.06-33.28,29.81-1.86,1.13-10.46,6.56-11.95,5.43-1.09-.83.05-3.73-1.61-3.04-.59.24-7.15,7.88-8.64,9.32-2.27,2.2-7.82,5.35-8.29,8.34-1.25,7.93.22,15.8-4.57,23.36-3.99,6.29-14.29,6.12-20.53,3.63-1.1-.44-2.63-.48-2.2-2.09,5.46.68,15.43,2.88,19.63-1.31,2.25-2.24,4.59-9.18,4.97-12.32ZM247.8,169.54c-.96-.98-11.44,5.71-13.6,6.01-9,1.25-19.08-3.61-27.79-5.25-9.64,3.86-17.83,10.34-25.77,16.86-.28,1.59.73.83,1.68.96,10.14,1.41,19.05,1.88,29.27,2,3.1.04,5.88,1.89,8.94-.64l-14.77,24.79-.52,2.47,26.94-5.96.66,1.31-17.6,18.22c8.29,7.1,18.14,12.24,28.25,16.26.56-.06.83-.99,1.04-1.5,3.45-8.34-1.62-29.87-2.05-39.97-.52-12.05,1.01-24.31,5.31-35.57ZM472.56,179.53l-21.67-6.64c-2.76.23-4.4,2.31-7.23,2.66-7.05.86-14.63-.78-21.63-1.35,1.98,12.76,7.35,25.18,13.31,36.57,1.05.23,1.37-.32,1.99-.99,2.27-2.46,4.75-7.6,7.33-10.62,4-4.69,10.86-10.7,16.25-13.67,3.33-1.84,7.75-2.79,10.8-4.48.75-.42,1.13.04.85-1.47ZM285.04,217.09c.61-2.19,0-10.9,0-13.96,0-.21.61-.73.61-1.34,0-1.36-1.24-2.88-2.35-3.61-5.77,2.41-6.22,15.17-2.55,19.21,1.37,1.51,3.73,1.67,4.29-.29ZM652.77,232.05c-1.86-1.86-31.62,8.47-36.07,10.14-14.19,5.33-28.72,11.73-41.76,19.42l-6.6,18.61c1.3,3.85,12.73,16.44,11.87,19.86-.65,2.61-12.48,3.84-13.16,6.22.87,3.73,8.97,17.89,7.17,20.75l-9.12.85c-.28.53-.47,1.13-.58,1.72-.5,2.78-3.03,15.52-2.83,17.08.32,2.49,7.73,11.64,5.95,13.66-2.82.53-18.29,4.51-17.82,7.53l2.53,4.18,25.21-8.44c1.54-2.38-7.74-18.85-7.87-22.8.62-2.04,18.27-2.84,21.18-4.46,1.23-1.8-6.09-18.18-6.53-21.49.44-2.08,16.52-2.36,19.15-3.8l-1.24-15.87,37.81-1.42c6.47-19.99,10.58-40.83,12.73-61.75ZM427.82,243.49c-8.49,1.91-8.51,25.74.52,25.74,10.7,0,12.9-28.76-.52-25.74ZM415.04,258c-4.23,3.3-10.1,6.49-8.87,12.84,1.68,3.48,11.58,3.4,12.43-.02.16-.65-2.9-12.82-3.57-12.83ZM417.97,301.8c.25-2.24,1.12-4.17,2.19-6.12s6.32-7.74,6.45-8.24c.3-1.19-2.48-5.11-3.56-5.26-35.86,8.95-63.2,32.97-82.02,64.04-3.01,4.97-6.59,10.61-8.1,16.16,2.88-2.32,5.09-5.32,7.63-7.99,1.64-1.73,5.62-4.33,6.66-6.64,1.91-4.27-.15-8.55,4.33-14.29,5.57-7.12,10.27-4.86,15.91-8.03,1.76-.99,3.83-4.56,5.69-6.28,12.58-11.66,27.25-18.56,44.84-17.34ZM565.57,287.34c-2.22-.69-3.2,1.66-3.28,3.57-.03.75,1.21,6.98,1.49,7.85.83,2.6,8.46-1.25,8.51-1.87l-6.71-9.55ZM446.49,303.98c-.29-.51-8.05-5.63-9.48-6.79-2.08-1.69-5.8-7.71-8.65-5.29-1.11.95-6.82,9.59-7,10.96s.7,1.31,1.6.93c1.74-.75,1.19-3.33,3.73-2.59-.85,2.54-1.01,5.2,1,7.3.65-.02,3.19-5.97,4.32-4.64l.67,5.98c1.56.43,1.13-.43,1.51-.85.93-1.03,2.21-2.4,2.48-3.8h.98c-.23,3.41,8.66,1.04,8.98.65.1-.12.08-1.48-.14-1.87ZM418.84,307.7c-.32-.2-.34-1.44-1.21-1.74-10.75-3.77-37.76,9.58-44.15,18.84-.39.56-.93.66-.65,1.67,7.24.05,12.57,3.98,18.86,6.71,4.61-7.42,10.47-14.66,18.37-18.67l-10.62,10.99c-1.43,3.26-9.11,9.95-3.68,12.29,10.3-15.57,28.39-28.66,47.55-19.95,1.18-1.12-5.04-4.79-5.98-5.04-2.08-.55-3.62.74-4.88.33-1.2-.39-1.1-2.58-2.74-2.62s-2.73,2.49-4.37.38c-.57-.74-.67-2.29-1.28-2.71-1.33-.91-4.08.24-5.21-.46ZM326.94,312.51c-9.71-.12-18.98-2.7-28.38-4.55-1.03-.2-.98-.2-.91.91.16,2.24,2.86,7.67,3.9,10.08,6.76,15.72,15.39,30.72,25.06,44.77,1.46.49,1.06-1.51,1.02-2.35-.44-7.79-2.92-15.92-1.99-23.94l-.63-3.89,1.93-21.02ZM336.24,313.18h-6.65s-.66,11.96-.66,11.96c1.7.38,1.16-.45,1.72-1.25.93-1.31,6.54-9.82,5.59-10.72ZM354.19,319.16c-.42-.41-9.66,2.09-11.65,2.07-1.84-.03-2.5-1.02-3.33-1.13-1.43-.2-8.55,9.69-7.61,11.01,4.22,1.57,10.44,1.99,14.43-.43.99-.6,8.85-10.85,8.16-11.51ZM462.59,351.08c-7.44-.62-1.37-3.09-2.12-6.83-.8-3.95-8.63-16.96-12.05-19.24-13.27-8.84-27.24-6.86-39.04,3.11-1.98,1.67-10.44,10.7-10.65,12.67s3.1,5.89,4.41,7.54c13.97-5.51,31.45-5.81,42.82,5.08l-16.96-3.65-16.28.66c-.59.84,4.23,5.2,5.08,6.55,6.94,10.96,7.06,30.77,2.55,42.65-.71,1.88-5.43,9.31-4.97,9.97,29.17,10.1,67.87-12.52,54.85-46.55-1.03-1.32-4.56,1.53-5.52-1.78s.96-2.86-3.4-5.28l1.28-4.88ZM304.98,338.44c.07-1.14.06-2.25-.3-3.35s-6.12-12.16-6.66-12.63c-.58-.5-.75-.86-1.67-.64-1.24,3.62-5.34,5.83-5.34,9.97,5.39.2,9.86,3.56,13.96,6.65ZM361.4,379.78c4.18,9.33,24.59,25.51,34.64,19.46,5.28-3.18,8.51-19.32,8.72-25.19.67-18.05-12.57-42.27-32.26-43.61-9.33-.64-19.98,2.06-19.64,13.32,4.22-1.07,9.03-3.79,13.28-.99,0,.75-7.02,2.41-8.32,2.97-7.21,3.13-12.1,10.72-7.28,17.98,3.56-2.36,7.84-5.21,12.28-3.98.66.81-11.8,6.13-12.66,12.26-.81,5.76.87,10.14,7,11,1.27-.8.62-1.45.35-2.6l3.87-.61ZM342.22,335.79c-4.4.18-8.43.08-12.63-1.33l.66,21.27,1.88-1.1,10.08-18.84ZM304.98,356.39c5.95-10.02-4.32-20.2-14.28-21.28-7.38-.8-13.66-.57-17.55,6.4-7.22,12.95-9.99,38.83,8.56,42.81l-.66-3.98c4.31-.45,8.03,2.51,11.31-1.66,4.5-5.73-4.47-13.48-10.65-11.65-1.05-2.92,4.56-2.98,6.84-2.5,3.73.78,8.6,8.18,11.17,4.71,4.79-6.48-2.17-15.58-8.68-17.84-.64-.22-6.98-.52-5.33-2.31,2.12-2.29,9.94.15,12.46,1.82,1.39.92,5.88,6.12,6.81,5.48ZM334.24,459.46l-7.62-13.32c-4.09-10.14-4.6-23.31-4.38-34.25.06-2.69,1.08-5.18.73-7.98-.33-2.59-2.6-3.57-2.74-5.95-.26-4.37,3.92-11.99,3.98-15.29.02-1.22-1.13-3.33-1.29-5.3-.33-3.96.64-7.36,1.22-11.18l-12.49-17.11c.13,2.33-.38,5.43-1.49,7.49-.88,1.63-3.34,3.01-3.7,4.28-.85,2.97-.05,5.7-1.8,9.51-.9,1.96-3.92,4.85-4.19,5.79-1,3.43-.24,8.86-2.14,12.49-.01.64,2.38-.06,3.66,1.01,2.31,1.91,5.8,9.75,5.59,12.87-.35,5.23-6.02,25.3-8.24,30.35-3.05,6.93-7.55.14-11.32-1.33-1.04-.4-1.01.2-1.01,1,.03,9.6,15.94,18.41,23.81,21.42,2.85,1.09,22.45,6.37,23.42,5.5ZM406.07,353.74c5.08,16.17,3.3,34.44-5.9,48.78,2.25,2.14,8.59,6.51,11.24,4.1,5.96-5.44,8.51-22.18,7.95-29.93-.55-7.47-3.78-23.03-13.29-22.95ZM343.55,357.07c-.56-.66-7.06,6.55-7.16,7.05-.16.86.69,2.43.54,3.88-.58,5.43-2.85,11.63-3.35,16.65-.46,4.6,1.54,9.99.65,14.62-.35,1.84-2.3,2.34-2.66,5.32-1.94,16.25,1.37,40.74,13.55,52.65,5.15,5.04,8.5,5.21,15.48,6.13,26.24,3.47,52.01.83,76.71-8.56,1.06,1-3.15,3.45-3.79,3.85-6.06,3.82-15.62,6.55-22.66,7.93-20.3,4-42.32,2.46-62.66-.48,1.53,7.56,5.79,13.76,13.72,15.2,28.06,5.07,80.31,2.24,104.18-14.66,8.16-5.78,13.56-10.83,8.03-21.2-12.12,3.28-22.72,11.59-35.5,12.67l19.94-9.31-.65-1c-16.42-2.16-31.96-8.93-46.34-16.83-5.17-2.84-12.05-8.28-16.89-10.37-2.73-1.18-6.48-.94-8.93-3.7l22.78,26.14c-.17,3.85-9.37,7.85-12.68,9.21-2.86,1.17-6.27,2.96-9.37,2.52-2.92-.41-8.7-8.61-10.63-11.34-3.76-5.32-16.89-27.3-16.35-32.8.2-1.99,2.23-3.75,3.67-5.03,1.73-1.54,5.03-1.99,3.97-4.64-1.38-3.46-6.01-7.49-6.48-11.83-9.82-1.44-17.51-5.92-15.76-17.08.24-1.5,1.8-3.53,1.69-4.7-.15-1.52-4.58-7.07-3.06-10.3ZM489.85,367.05l-12.63-2c-.21,1.36.19,4.86,1.72,5.2.83.18,12.05-1.7,10.91-3.2ZM334.16,365.79c-2.98-.52-7.27-.3-8.43,3.06-.82,2.39.85,1.85,1.32,3.09,1.08,2.84-.77,8.96,3.22,7.38-.21-1.2.8-9.18,1.98-8.29l1.33,2.65c.34-1.43,1.8-7.14.58-7.89ZM478.55,372.36v10.97c0,.72-2.08,3.41-1.3,4.96,10.31,1.95,22.69-.21,29.23-8.94l-14.95-9.43-12.98,2.44ZM289.03,403.61c.39-.52-4.09-7.51-4.77-8.85-.63-1.25-.93-3.72-1.54-4.44-.41-.48-6.9-2.26-8.94-3.7-2.64-1.86-4.2-4.95-6.69-6.94,1.37,9.25,7.02,17.81,15.28,22.29,2.05,1.11,4.32,2.53,6.66,1.65ZM503.81,386.98c13.46-.78,12.4,17.06,16.3,25.94.52.93.9.58,1.67.39,3.55-.88,11.67-11.71,11.92-15.43.19-2.77-4.11-15.35-5.92-17.25-1.82-1.9-8.17.33-11.01.42-2.26.07-5.07-1.99-6.98.29l5.66,4.3c3.11,3.77,6.94,16.22,7.49,21.14.15,1.36.48,2.51-.85,3.47-2.65-5.96-3.25-12.79-5.81-18.79-2.33-5.46-7.92-11.24-12.47-4.49ZM292.35,397.62c.98-4.41,2.27-8.96,2.87-13.45.11-.84.82-.92-.54-1.83-2.22,2.07-5.28,3.29-8.32,3.32-.78.78,3.01,9.59,4.1,10.87.59.7.68,1.38,1.89,1.1ZM330.91,385l-4.9.08c-.61.11-.71.58-.95,1.04-.27.51-2.79,10.63-2.76,11.21.16,3.45,8.21,4.06,9.17,1.19.43-1.29-.08-13.01-.56-13.51ZM516.21,426.65c2.08-2.28,1.74-5.09,1.48-8-.38-4.26-4.84-23.29-7.22-26.02-1.73-1.98-3.78-2.33-6.32-2.36-2.14-.03-13.19,1.18-14.53,1.99-1.64,1-1.88,5.17-1.7,6.96.48,4.99,5.39,22.99,7.28,27.97,2.93,7.72,16.59,4.31,21.01-.53ZM485.86,392.31h-9.64c-.25,0-1.62,1.7-1.83,2.18-1.22,2.82.96,3.15,2.32,5.31,1.21,1.93,3.2,6.15,4.48,7.49,1.37,1.43,3.33,1.42,4.59,3.39,2.57,4.05,2.09,10.29,3.39,14.54.27.9.91,1.67,1.69,1.65,1.56-.03.28-3.93.12-4.76-1.86-9.83-7.4-19.77-5.11-29.8ZM296.34,432.2l8.64-30.34c.54-1.56-3.53-8.53-4.31-8.89-.97-.45-2.23,2.55-2.67,3.31-3.26,5.58-10.16,22.22-10.33,28.31-.11,3.82,5.34,6.62,8.67,7.61ZM400.08,414.25c-1.28,1.23-7.97-7.87-8.66-8.29-1.25-.75-4.83-.8-6.63-1.35-5.83-1.78-10.79-4.13-15.28-8.32-.98,1.08,6.85,8.67,7.97,9.65,2.79,2.44,12.56,9.48,15.78,10.15,4.68.97,8.79-1.21,12.8-3.22-.38-2.58-2-1.56-3.24-2.31-2.35-1.42-5.04-4.69-8.04-3.29l5.31,6.98ZM471.39,413.44c1.41,1.55,7.24-1.44,7.22-4.17-.01-1.7-5.08-9.99-7.66-9.69l-3.6,4.91,4.04,8.95ZM325.03,403.71c-.29,16.73-1.03,35.37,8.96,49.7,1.48,2.13,5.75,7.79,8.56,7.39,1.01-.14.92-.79.35-1.66-.78-1.19-2.44-2.31-3.48-3.84-10.39-15.24-11.82-33.32-9.87-51.27-.5-1.78-3.3-.98-4.51-.32ZM483.95,472.01c24.19-.87,49.06-16.2,53.03-41.55.64-4.11,1.03-9.74.74-13.87-.12-1.65-1.62-11.67-2.98-11.63-2.38,3.49-5.05,6.89-8.3,9.64-1.24,1.04-5.06,2.83-5.22,3.09-.44.7.08,5.57-.56,7.76-2.28,7.9-16.09,11.88-23.29,8.89-2.96-1.23-4.67-4.9-7.74-4.16-.72.17-2.08,4.91-2.8,5.99-1.49,2.26-5.86,4.33-6.63,6.04-1.12,2.48,3.35,9.38,2.05,14.66-.37,1.5-1.79,2.69-1.72,4.21.11,2.2,3.37,8.03,3.42,10.94ZM369.32,405.7c-1.33.33-5.15,3.25-6.41,4.34-.87,2.67,7.5,18.48,9.37,21.7,2.47,4.25,9.84,15.87,13.22,18.71.67.56,1.26.89,2.17.86,2-.07,15.77-6.26,16.76-7.79.53-.82.34-1.13-.33-1.7-6.7-7-13.75-13.79-20.31-20.92-2.05-2.22-11.71-14.43-12.98-15-.58-.26-.8-.38-1.48-.21ZM469.9,414.91c.77-.8-2.96-9.41-5.31-9.3.02,1.36,3.09,11.61,5.31,9.3ZM450.28,416.25h12.3l-2.36-6.67-10.94,4.68c-.21.71.44,1.83,1,1.99ZM463.92,443.51c6.25-2.56,20.21-6.87,21.78-14.45.51-2.47-1.01-16.18-3.5-16.13-5.12,4.87-12.68,6.72-19.61,6.64.19,1.65,1.47,2.58,2.03,4.28,2.1,6.31,1.9,13.58-.7,19.66ZM409.21,414.35l-9.12,5.55c6.57,4.49,13.61,8.4,20.82,11.75,8.02,3.73,31.93,13.46,39.89,11.06,4.6-1.39,4.17-19.71.46-21.49-1.35-.65-11.98-.74-14.88-1.08-7.66-.91-15.65-1.5-23.28-2.65-2.83-.43-12.21-3.6-13.89-3.15ZM338.11,464.91c-8.95-1.4-17.83-2.98-26.45-5.8-1.64-.54-9.91-4.37-10.66-3.63-1.06,5.05,3.98,7.34,7.53,9.42,10.09,5.91,21.61,9.07,32.71,12.51l-3.13-12.5ZM364.17,504.02c.27-1.21-.37-1.3-1.11-1.88-6.75-5.27-17.46-9.6-25.03-14.21-13.1-7.97-25.18-17.6-39.33-23.85-9.95,7.69-17.64,19.14-23.5,30.19,10.31,14.22,26.97,23.28,42.9,30.2l24.11,7.46c-5.36.5-10.32-.88-15.43-2.18-20.01-5.09-38.84-17.26-52.72-32.38-5.92,8.46-4.08,12.98,2.56,19.7,15.46,15.65,50.34,30.9,72.29,26.53,6.21-1.23,10.85-5.13,11.27-11.67-1.5-.19-2.88.54-4.33.66-.73.06-2.48.48-2.31-.65,9.44-3.11,19.2-8.77,25.22-16.87l-8.95-8.39c-12.36,1.54-25.18,3.43-37.59,1.02-1.11-.22-2.93-.39-3.29-1.69,11.81.27,23.58-.16,35.24-2ZM351.53,479.41c.41-.35-4.21-6.54-4.77-7.53-1.4-2.49-1.42-7.47-5.2-7.09-.36,5.61,3.21,15.22,9.97,14.62ZM376.47,495.38c3.6.45,7.94-.33,11.64,0-.25,1.35-1.41,1.09-2.33,1.33-3.57.92-7.32.64-10.97.67l2.65,5.32c-2.81-.58-4.97-5.08-7.13-5.83-2.53-.87-7.99-1.24-10.81-1.16,10.54,5.56,19.65,12.79,28.28,20.93,5.66,5.34,18.16,17.32,21.47,23.74s1.33,9.34,10.12,12.49c24.73,8.86,61.81-3.48,75.65-26.04,2.57-4.19,7.41-14.75,6.52-19.5-.96-5.11-6.46-10.42-10.05-13.94l-2.35,14.92c-.92,1.09-.54,4.77-2.62,4.36,1.36-8.09,5.32-21.99-2.66-27.26-.2.25-.38,7.46-2,5.32-.53-4.17-3.29-22.87-5.97-24.96-.99-.78-1.04-.1-1.69.35-.9.63-6.82,5.21-6.86,5.65,4.48,7.16,8.06,15.24,9.18,23.62-3.08-2.72-8.18-21.95-11.71-22.55-7.94,4.07-16.22,7.28-24.85,9.59l-9.97,2.66c5.75,3.62,11.57,7.24,17.71,10.21,7.32,3.54,15.5,5.87,22.72,9.23.93.44,1.82-.4,1.45,1.5-17.47-2.64-32.87-11.4-47.6-20.59-18.62,2.95-37.43,1.93-56.14,1.32,2.24,4.21,2.96,7.97,8.31,8.64ZM358.85,492.71l-5.35-8.28-22.57-5.01,6.2,4.1c6.95,3.62,13.74,8.34,21.72,9.19ZM369.49,494.04c-3.43-6.01-3.89-9.5-11.97-9.3,1.45,5.68,5.6,10.77,11.97,9.3ZM332.76,559.06c.7-.59,3.09-8.34,1.51-9.51-16.18-2.42-32.4-7.78-45.57-17.58-3.82,8.21,1.81,5.87,6.97,7.65,5.11,1.76,12.48,8.38,14.57,13.36s-4.93,4.95-8.99,5.49c-12.02,1.61-26.69,1.42-38.51-1.01-5.32,5.77-.62,5.88,4.68,6.41,13.97,1.38,30.53.19,44.54-1.33,2.84-.31,19.66-2.53,20.79-3.47ZM265.09,553.24c-.18.91.03,1.1.7,1.61,2.88,2.24,21.7,1.96,26.22,1.69,1.85-.11,14.95-1.43,14.96-2.98-7.84-11.09-16.47-14.84-29.38-8.78-4.71,2.21-8.21,5.76-12.49,8.46ZM493.01,543.43c-8.85,1.18-34.6,16.94-13.84,21.47,7.03,1.53,14.07.92,20.94-1.07,9.58-2.77,13.84-6.81,6.03-15.26-3.64-3.94-7.67-5.86-13.14-5.14Z"/>
  <path d="M524.91,228.21c15.97-3.31,22.2,23.32,8.62,31.9-6.37,4.02-13.99,3.24-18.3-3.23-5.41-8.12-.36-26.58,9.68-28.66ZM521.96,242.49c5.66,4.67,14.34-5.47,7.48-10.46-6.25-4.54-12.95,5.94-7.48,10.46Z"/>
  <path d="M442.2,239.14c-9.96-10.03,6.68-35.8,17.97-26.95,10.43,8.18-6.49,38.5-17.97,26.95ZM456.41,214.19c-4.64,1.2-6.12,12.49-.14,12.49s5.78-13.95.14-12.49Z"/>
  <path d="M544.32,282.22c0,8.53-6.92,15.45-15.45,15.45s-15.45-6.92-15.45-15.45,6.92-15.45,15.45-15.45,15.45,6.92,15.45,15.45ZM541.79,282.21c0-7.06-5.73-12.79-12.79-12.79s-12.79,5.73-12.79,12.79,5.73,12.79,12.79,12.79,12.79-5.73,12.79-12.79Z"/>
  <path d="M475.77,250.13c4.05,6.51,13.25,12.64,19.07,4.55,1.94,1.32.52,3.55-.65,4.65-5.63,5.27-16.12-.29-19.43-6.03-4.57.41-7.87,3.26-12.87,1.73-2.72-.83-6.32-6.5-2.96-8.33,1.19.93.86,2.44,1.64,3.67,4.3,6.8,12.91-1.58,15.21-.24Z"/>
  <path d="M513.12,313.83c.21-1.22,1.37-1.12,2.24-1.41,6.37-2.17,12.74-3.1,19.07-6.2,7.07-3.46,12.62-8.76,18.58-13.66-.84,3.18-3.88,6.46-6.29,8.66-9.08,8.3-21.46,12.15-33.6,12.61Z"/>
  <path d="M381.95,186.97c1.76-.14,5.12,1.38,6.5,2.51,11.85,9.75,12.48,50.58-6.66,50.6-11.79.01-14.8-19.47-14.33-28.34.41-7.74,5.08-24.02,14.49-24.77ZM387.91,215.22c6.14-4.54,2.7-24.1-4.64-22.96-6.61,1.03-7.38,22.73,1.33,23.68.89.1,2.61-.21,3.3-.72Z"/>
  <path d="M408.71,235.37c-.33.32-1.42.49-1.17-.84,3.07-16.4-1.03-38.63-17.41-46.73-17.25-8.53-25.64,7.74-27.3,22.3-1.73-.54-1.39-2.72-1.32-4.3.25-5.99,2.78-11.98,5.32-17.3-1.85-.64-3.42,3.15-4.01,3.64-2.62,2.18-.01-3.41.68-4.31,7.3-9.48,21.7-9.59,31.45-4.19,14.91,8.24,18.92,26.15,16.34,42.02-.2,1.26-2.23,9.37-2.59,9.72Z"/>
  <path d="M366.17,240.03c10.05,11.53,24.42,4.91,36.86,2.61.47-.09,2.45-.99,2.35.38-.11,1.56-15.48,5.88-17.78,6.15-8.76,1.03-18.74.93-21.44-9.14Z"/>
  <path d="M352.2,257.32c-5.56,12.15-23.64,12.06-35.24,12.63-2.36-1.91,6.25-2.07,6.8-2.17,4.43-.8,19.84-3.85,22.46-6.8,1.8-2.02-.32-4.76,5.98-3.66Z"/>
  <path d="M259.11,273.93l10.84-5.44,9.76-7.19c1.58,1.99-7.5,8.32-9.1,9.18-3.54,1.92-7.45,3.28-11.51,3.44Z"/>
  <path d="M272.27,255.21c-.25.43-7.35,4-8.71,4.9-2.15,1.41-4.02,3.74-6.44,4.52-.72-.7,3.36-4.47,3.98-4.99,3.23-2.74,7.13-4.63,10.99-6.3.63.09.41,1.48.19,1.87Z"/>
  <path d="M317.62,244.68c-4.93.11-2.01,4.39-1.36,7.03s-3.16-.83-3.81-2.18c-2.4-5.01,1.94-9.31,5.17-4.84Z"/>
  <path d="M261.76,251.34c1.25,1.05-6.59,4.61-7.26,5.04-1.7,1.08-3.12,2.39-4.7,3.6-.61-3.35,10.38-9.97,11.96-8.64Z"/>
  <path d="M359.24,68.1c3.99,3.88,8.51,10.51,10.57,15.67,1.13,2.83,4.32,9.22-.13,9.83l-24.31-2.01c-1.69-.61-3.92-5.45-5.46-7.18-9.02-10.12-27.81-11.02-37.6-1.68-1.43,1.36-3.11,4.89-4.25,5.72-2.66,1.94-18.45-.5-22.54-.66-3.15-1.98,3.67-11.18,5.26-13.3,18.85-25.02,55.88-28.4,78.47-6.41ZM356.62,70.69c-23.29-22.9-63.88-15.56-77.57,13.72l15.99,1.06c2.79-1.73,4.28-4.86,6.97-7.02,11.15-8.91,30.09-7.71,39.91,2.62,1.76,1.85,3.65,6.34,5.46,7.17,3.4,1.57,10.49.68,14.49.8,1.44.04,3.44.97,4.53.64,2.39-.72-.8-6.55-1.66-8.16-1.74-3.29-5.48-8.24-8.12-10.83Z"/>
  <path d="M483.87,520.65c-5.95,8.14-15.82,15.29-25.93,16.61l10.85-5.43,15.08-11.18Z"/>
  <path d="M437.31,537.27c1.08.82-.01,1.2-.98,1.33-6,.77-12.58-.43-18.45-1.51l-4.5-1.81c8.04-.2,15.85,2.67,23.93,1.99Z"/>
  <path d="M280.38,125c.16,1.16-1.51.62-2.32.66-3.49.15-6.2-.6-9.29-.69-22.48-.68-45.11-.17-66.86,5.68-1.87.5-9.62,3.85-10.64,2.99-.25-1.29.6-1.6,1.52-2.13,17.41-10.02,60.09-10.37,79.92-7.83,2.57.33,5.04,1.27,7.65,1.33Z"/>
  <path d="M390.77,150.26l-.32,1.31c-11.29-3.86-24.25-5.75-35.33-9.89-.85-.32-2.04-.15-2.25-1.4,13.11,1.05,25.45,6.15,37.9,9.98Z"/>
  <path d="M342.89,137.63l-5.47-.19c-2.61-1.4-6.72-.61-8.49-3.14,4.73.38,9.46,1.82,13.96,3.33Z"/>
  <path d="M503.81,429.54c-1.88.34-1.09-.45-1.5-1.46-2.27-5.64-4.57-18.81-5-25.02-.08-1.21-.37-1.93.85-2.77l5.65,29.25Z"/>
</svg>