<?xml version="1.0" encoding="UTF-8"?>
<svg id="katman_1" data-name="katman 1" xmlns="http://www.w3.org/2000/svg" viewBox="0 0 841.89 595.28">
  <path d="M433.64,26.92c1.13,1.14,12.99,1.95,15.7,2.5,22.24,4.51,51.06,19.56,65.49,37.31,11.84,14.55,9.57,38.52,13.21,56.03,7.85,1.57,16.31,1.41,23.21,6.06.3,1.61-.7.99-1.77,1.06-4.75.31-9.92-.02-13.92,3.21,4.94,2.18,9.99,3.85,14.5,6.91,1.37.93,11.96,9.75,10.47,11.3-4.04-2.23-8.78-3.69-13.38-4.11-1.05-.1-1.86-.76-1.6.89,5.35,3.74,11.6,7,16.42,11.42,1.29,1.18,7.6,7.54,6.42,8.93-12.58,2.88-24.87,8.55-34.26,17.5,3.09.2,18.62,5.23,19.27,7.86.3,1.2-.97,1.45-1.79,1.77-4.76,1.86-10.68,3.06-15.71,4.99s-10.03,4.74-15.33,6.45c-1.46,1.59,3.99,2.36,4.77,2.71s12.08,5.7,10.21,7.27c-8.5-.36-16.72.15-24.98,2.15-.2.92,1.33,1.15,1.95,1.24,4.03.59,7.46,0,11.4,2.18,4.63,2.56,5.01,7.89,7.22,12.05,2.92,5.5,8.89,10.16,7.99,17.36,1.41.37,1.38-.59,2.01-1.2,3.68-3.6,6.96-9.07,10.47-13.08,22.17-25.38,50.72-52.41,78.67-71.25,3.49-2.35,17.14-11.65,20.43-10.87,1.27.3,6.61,12.74,7.46,14.84,4.27,10.56,7.52,21.75,9.95,32.88,2.74,12.58,5.35,26.45,4.75,39.23l-76.54,51.35c-.34,1.31,10.42,20.9,11.95,24.24,1.23,2.67,7.43,15.5,6.4,17.26-1.77,1.57-10.7,3.62-10.47,6.07,2.71,5.87,5.58,11.8,7.87,17.84,1.56,4.1,9.7,26.71,9.04,29.24-.33,1.27-2.31,2.43-3.44,3.04l-36.13,16.74c-.65.76.01,1.28.25,1.93,1.28,3.41,9.86,15.54,7.9,18.68-11.86,4.19-24.51,8.14-37.01,9.39-.31,4.48,4.32,7.55,3.57,12.13l-7.85-.71,1.13,5.79c5.62-.25,11.85,5.65,15.98,6.72,14.21,3.7,20.27,2.96,33.53,12.16,40.54,28.14,34.32,74.12-19.5,73.91-8.87-.03-16.23-1.33-25.69-.7-4.32.29-13.55.73-17.18,1.38-1.01.18-13.22,5.68-12.53,6.38l2.14,1.43c-2.52-1.25-8.52-1.33-8.2,2.16l4.63.7c-2.92.69-6.18-1-8.85-.7-3.02.35-8.56,2.66-12.41,3.35-24.42,4.35-50.16,1.08-74.78,2.32-23.24,1.17-45.73,7.02-66.34-8.55-2.13-1.61-8.53-9.13-9.67-9.61-5.64-2.39-16.65-.97-21.91-7.39l-19.48,2.02c-.16-1.87-.1-1.18,1.07-1.4,5.1-.95,10.35-.62,15.34-2.17l-2.49-2.66c-5.52,3.64-12.24,2.51-18.48,3.46-5.25.8-9.71,3.07-14.53,4.03-2.04.4-4.33-.21-6.11.31-1.12.33-2.12,2.14-3.56,2.86-15.27,7.61-41.81,8.11-46.69-12.14-6.02-24.96,15.02-47.77,34.25-60.27,2.59-1.69,12.89-6.69,13.87-7.89,1.4-1.71.67-4.79,1.24-6.97,2.63-10.06,9.81-16.18,16.09-23.86-7.78-12.96-13.64-27.31-16.23-42.32-.81-4.66-.49-11.99-1.75-16.1-.63-2.06-9.72-7.59-9.66-15.27.01-1.45,1.36-2.31,1.13-3.97-.21-1.49-1.91-2.85-2.08-5.17-.21-2.89,1.44-4.77,1.51-7.15s-1.2-4.36-.72-7.08c.59-3.29,4.35-4.28,4.84-5.88.65-2.14-.43-4.66.67-7.19,1.57-3.64,7.45-4.01,9.09-5.9,2-2.32.81-8.63,6.85-9.7-6.63-20.23-8.42-41.19-.08-61.25-.34-1.11-9.08-2.73-11-3.32-25.71-7.92-50.22-20.24-70.7-37.81-4.54-3.89-19.8-18.43-20.79-23.51-.91-4.66,11.02-6.16,14.35-6.44,22.03-1.9,46.35,1.68,67.28,8.37l27.29,10.89c-10.27-15.24-19.94-31.27-25.73-48.87-6.68-20.3-9.88-45.78-6.19-66.93.92-5.28,1.91-15.5,9.09-9.51,3.61,3,9.79,11.72,12.7,15.86,9.16,13.05,16.35,27.59,22.82,42.14l1.1.81,9.07-5.4c-2.04-19.06-6.05-37.12,6.1-53.69,9.76-13.31,27.91-23.92,42.65-30.88,2.25-1.06,11.73-4.29,12.64-5.2,1.11-1.12.41-5.49,3.52-8.62,8.03-8.08,34.83-15.1,43.24-5.35,1.83,2.13,2.51,6.14,3.36,6.99ZM412.62,19.43c-5.93.66-16.29,3.87-20.88,7.67-1.71,1.41-5.55,5.27-.93,4.84,5.36-.5,12.17-3.26,18.14-4.04,3.36-.44,18.72-.63,19.55-1.15,2.45-1.52-2.5-5.25-4.04-6-3.89-1.91-7.61-1.79-11.85-1.32ZM435.62,94.9c17.69,1.9,35.52,4.46,52.09,11.12l1.45-.77c-3.14-14.44-3.78-30.4-8.36-44.45-9.29-28.51-51.16-31-76.09-28.57-3.01,1.56-9.46,10.5-7.33,13.47,2.14,1.75,4.84-.17,7.19-.1,13.35.35,27.79,5.13,36.42,15.76,1.42,1.75,3.88,4.03,1.26,5.61-1.62.97-19.28.17-22.67.81-10.8-9.73-32.65-7.98-41.36,3.65-1.67,2.22-2.75,6.35-4.88,7.25-1.6.68-3.26.41-4.84.87-8.76,2.57-18.64,9.01-11.9-5.48,4.67-10.04,16.11-19.61,26.23-23.75,2.26-.92,9.53-2.39,10.71-3.57.98-.98.72-4.5,1.37-6.48.29-.88,5.32-7.59,2.55-6.73-14.18,4.39-29.26,10.89-41.71,18.97-16.21,10.51-22.32,19-20.67,39.11.21,2.58,3.96,22.39,5.33,22.63l24.94-10.02-.09-1.47c-3.46-1.29-10.84-6.44-9.11-10.5.8-1.87,14.57-7.03,17.2-8.65,1.87-.27,3.6,2.68,6.21,3.51,5.86,1.88,34.48-3.17,39.61-6.87,1.86-1.34,3.03-4.28,4.68-4.6,2.4-.46,20.51,1.48,21.48,2.82,2.45,3.37-6.92,14.18-9.69,16.45ZM508.19,65.89c-9.19-9.46-27.33-21.41-39.49-26.54-.65-.28-1.82-1.55-2.38-.48,6.58,4.86,13.11,10.22,16.24,18.02,6.12,15.25,6.47,34.82,9.8,50.88,2.54,1.58,6.44,2.93,8.56,5,1.46,1.43,2.43,4.63,2.66,4.83,1.09.92,15.74,2.84,18.4,4.45,1.62-1.14-3.55-34.87-4.6-39.3-1.74-7.3-4.01-11.49-9.21-16.85ZM438.47,64.2c1.41-1.2-7.94-7.98-8.9-8.58-24.12-14.97-61.78-3.5-71.76,23.57l14.51-3.51c6.22-15.38,28.13-21.49,42.53-14.62,1.94.93,4.18,3.45,6.17,3.82,4.44.84,12.42-1.84,17.45-.68ZM336.96,116.18c-1.68-12.38-7.03-25.88-4.67-38.58.59-3.15,2.48-6.02,2.32-9.1-13.37,13.73-10.24,34.89-7.5,52.11l9.85-4.43ZM424.69,78.62c-1.33.42-2.23,2.87-3.81,4.05-5.74,4.27-34.91,9.2-41.85,7.79-2.55-.52-4.47-3.53-6.52-3.42-1.5.08-13.14,5.79-13.23,6.78,2.49,4.55,7.63,7.21,12.45,8.62,12.96-3.52,26.47-6.81,39.95-7.57,7.32-.41,16.5,1.89,22.47-2.52,3.4-2.52,6.25-7.46,7.9-11.36-.47-.81-1.02-.86-1.82-1.05-2.07-.48-14.13-1.77-15.53-1.33ZM413.34,99.4c-34.02,2.02-86.86,20.12-112.31,43.32-3.23,2.94-10.13,10.57-.47,8.1,10.68-2.74,26.64-12.49,37.97-16.99,44.05-17.5,83.8-21.4,130.9-15.27,9.8,1.28,14.38,4.14,24.86,1.13,7.84-2.25,6.42-3.9.34-7.06-21.67-11.25-57.15-14.66-81.3-13.23ZM314.97,153.45c-5.12,1.25-22.41,6.14-24.67-.68-3.16-9.57,18.16-18.22,18.23-21.8-1.35-3.2-10.44-24.3-12.47-24.47-8.09,3.81-14.68,11.49-17.85,19.82-2.4,6.32-2.8,8.73-.88,15.13,3.8,12.64,10.52,25.65,17.35,36.91,3.39,5.58,18.8,30.02,24.92,29.99.81,0,7.84-2.55,9.77-3.03,2.79-.71,5.64-1.05,8.48-1.52,1.12-.77.68-2.93.51-4.15-.3-2.1-4.72-17.35-5.57-17.99l-34.24-9.67c-.77-1.12,2.37-4.72,3.2-5.71,3.51-4.23,8.2-7.59,12.3-11.21.48-.43,1.37.04.91-1.63ZM498.45,172.72c-1.89-8.54-5.18-17.1-8.91-25.01-2.32-4.92-8.26-16.91-11.47-20.65-1.02-1.18-1.54-1.49-3.02-1.98-4.97-1.65-18.44-2.76-24.09-3.04-4.82-.24-9.73.09-14.56.07-4.49,14.41-10.21,28.96-17.56,42.04l3.21-13.21-1.4-.34c-3.45,7-8.05,13.33-11.34,20.44-2.3,4.98-3.87,10.26-6.17,15.23-9.14-11.86-13.54-27.22-13.92-42.1-1.66-.45-1.19.39-1.63.9-1.44,1.68-7.44,9.35-7.67,10.91l.12.94c1.32.09,6.48,4.99,5.61,5.8l-8.56-1.11-5.01,11.11c-2.1-1.74-2.26-7.28-1.56-9.81l-.95-1.61-10.1,4.16-9.51,6.54c2.69-10.26,11.46-17.21,22.01-17.97.5-6.8,3.4-12.93,5.82-19.15-.56-.67-10.86,11.06-11.78,12.13-1.13,1.32-5.24,7.73-5.7,7.88-.39.12-1.81.21-1.8-.38,1.01-2.6,1.21-5.41,1.92-8.08,1.3-4.87,3.17-9.14,5.23-13.68-2.98,1.06-16.75,5.42-17.69,7.65-1.27,10.35-2.68,20.75-2.25,31.21,4.78,11.08,14.77,19.5,13.87,32.54.68,1.36,7.26,2.79,9.3,3.55,3.3,1.22,8.04,4.79,10.7,2.17.98.06.99,4.1,3.6,4.3,2.18.17,7.39-5.17,8.17-4.31,1.66,1.83-5.14,5-4.99,5.35,9.76,7.18,20,14.85,25.11,26.29,2.61,5.85,2.25,12.9,8.45,15.82,16.89,7.95,37.73-2.6,51.61-12.61,16.29-11.75,27.4-27.06,32-46.89,17.88,1.33,27.57-19.25,26.3-34.71-.74-9.09-7.55-25.17-19.03-19.77-10.14,4.76-8.27,19.71-10.92,28.35-.31,1.02.42,1.25-1.44,1.05ZM589.55,228.84c20.11-18.72,40.78-37.07,63.87-52.14,2.01-1.81-4.29-16.04-5.04-16.52-.88-.57-1.3-.29-2.13.05-2.97,1.18-11.08,7.73-14.25,10.06-26.55,19.52-71.72,59-89.16,86.45-5.45,8.58-1.27,7.87,3.79,15.2,13.67-15.05,28.05-29.25,42.92-43.1ZM667.49,240.4c-.79-20.87-5.09-42.47-12.34-61.96-38.52,28.13-73.23,60.8-106.4,94.97-.52.74-.3,1.36-.05,2.13.93,2.85,4.18,7.63,5.55,10.93,2.73,6.58,4.17,14.53,6.73,20.4s9.08,14.64,12.55,21.01c2.05,3.76,14.84,26.69,14.62,28.69l-14.65,10.07c.66,4.18,10.29,15.32,8.12,18.83-.86,1.39-18.27,9.13-21.3,10.83-1.74.98-5.48,2.9-5.88,4.8l11.11,20.77c1.15-.54,1.91-1.21,3.28-1.4,3.26-.45,7.27,2.29,8.48-1.44l3.22,1.41c1.14-1.13-7.01-11.44-4.33-13.96l39.26-19.32c-3.77-16.35-10.53-31.75-16.94-47.17-.04-3.18,10.52-6.24,10.6-7.05l-18.29-37.42.37-3.79c24.11-18.93,49.95-35.66,76.27-51.33ZM332.81,224.83c-7.35-5.79-14.14-11.65-22.18-16.72-21.82-13.74-49.19-23.25-74.9-25.41-.52,10.51,2.15,21.95,6.88,31.32,5.97,11.85,9.86,13.48,21.69,18.29,15.38,6.25,32.21,10.32,48.53,13.22l-1.42,2.84,2.85,1.43c-3.34,1.34-14.11-3.04-16.07-.71-.48.57-3.37,8.53-3.72,9.84-3.38,12.61-2.21,40.77,6.21,51.2,1.52,1.88,3.44,1.64,3.58,1.79.27.27-.87,2.04-.62,3.07.14.6,4.34,5.26,5.21,6.97,2.41,4.77,3.65,8.86-.28,13.08,5.91,4.67,15.38,10.2,7.13,17.93,3.41,2.45,2.91,9.51.02,12.17-1.81,1.66-4.52,1.08-4.31,3.17,8.16,3.34,16.74,6.35,25.7,6.43-1.54-2.36-6.28-4.44-5.36-7.84,2.79,3.48,5.54,5.06,9.39,7.03,22.97,11.81,71.46,30.36,96.48,34.87,1.49.27,3.3.9,4.72.86,9.15-.27,27.48-18.68,33.63-25.62,1.77-2.01,8.77-9.92,8.9-11.83.13-2.03-3.58-11.43-4.65-13.85-6.68-15.18-20.35-26.38-35.71-32.16-11.11,7.53,7.18,10.19,8.89,16.65-4.35,3.59.7,3.52.04,7.6l-5.69.75.72,6.42c-.28.29-5.2-.32-6.66.13-1.55.48-1.52,2.48-2.82,2.99s-2.68-.15-3.41.15c-1.17.47-3.27,3.87-3.55,5.3-2.83-2.43-4.26-5.71-7.12-8.22-4.92-4.32-23.43-13.56-29.74-13.88-4.58-.23-10.25,4.49-14.27,6.29-8.16,3.66-17.11,7.5-25.95,8.66.04-.99,1.9-1.51,2.72-1.91,6.97-3.39,14.69-6.21,21.81-9.6,4.99-2.38,7.43-4.06,12.67-6.02,1.92-.72,3.54-2.16,5.63-2.48l-.71-3.54h2.46c1.7-1.67-1.47-1.47-2.12-2.84-1.23-2.62.95-3.16-3.61-5.02l.07-3.57c-.85-1.32-2.17.07-3.51-.06-7.78-.78-20.98-2.2-28.31-3.82-5.11-1.13-8.88-4.02-13.54-5.74-10.15-3.73-19.39-3.52-29.96-1.81.36-1.07,2.58-2.01,3.58-2.48,1.73-.8,3.79-1.63,5.7-1.81-8.98-28.98,32.93-30.39,30.02-1.74-.29,2.8-1.94,4.67-1.35,7.35l40.48,7.34c-.09,4.31-.3,5.63,4.29,6.41-1.45,4.16,2.51,4.64,2.79,6.06.32,1.59-.95,6.27-3.41,6.01-.25,1.2.32,1.45,1.16,2.03,4.16,2.86,14.19,6.16,19.55,9,4.29,2.27,8.59,7.72,13.21,4.01l2.15,2.79c1.33.33,3.59-2.85,3.2-4.29.61-.58,6.32,4.79,5.41-.04-.71-3.75-1.63-4.19,3.87-4.24v-2.14c-1.81.28-2.24-.11-2.72-1.8.65-1.73,3.28-1.12,2.71-3.19-6.2-2.97-11.45-7.95-17.62-11.3-4.47-2.43-20.4-9.49-24.76-9.2-1.42.1-2.53,1.36-4.02,1.21-.37-1.4.58-1.38,1.2-2.01,5.95-6,17.42-15.32,18.74-24.09.94-6.22-1.31-19.77-2.8-26.22-.1-.43-6-4.14-5.01-6.93-1.12-.19-.79,1.01-.7,1.77.33,2.9,1.58,4.07-1.94,5.98-7.89.21-12.01-16.84-7.02-20.67.63-.49,1.03-.79,1.84-.38l4.27,4.36c-5.12-28.66-43.22-48.67-70.24-46.66-5.72.43-11.31,2.3-16.87,3.49-.64,2.63,1.62,2.67,2.61,3.81,1.16,1.34,7.26,8.1,5.95,9.75ZM354.86,199.94l-12.04-2.94c-.14,1.79-.14,5.63,1.9,6.31.43.14,8.64.91,9.08.78,1.42-.41,1.38-2.89,1.06-4.14ZM510.22,223.41c-3.43-.36-7.84,0-11.42,0-.42,0-1.49,1.68-1.07,2.14l2.15,1.43c-6.14-.21-8.39,7.93-12.85,11.42,7.7-2.48,17.81-8.23,26.07-7.13.98.13,2.14.41,1.06,1.42-23.58,6.8-48.36,19.07-64.98,37.47-2.81,3.11-8,9.1-9.19,12.94-.94,3.03-3.35,16.5-2.9,19.17.14.84.43,1.7,1.39,1.82.28-1.39.02-4.1,2.15-3.57,1,9.48,4.81,2.15,6.42-2.51l-2.84-.7c1.88-1.73,4.66-3.26,6.43-4.99,5.19-5.09,4.38-13.36,8.57-19.27-.62-1.15-1.25,0-1.79.36-2.44,1.62-12.82,9.03-13.2,11.08-.66,3.59.81,8.58-2.52,11.76-.06-2.87-.25-12.11.73-14.26.58-1.28,7.62-7.17,9.29-8.56,15.76-13.16,47.43-34.87,68.64-25.14,2.02.93,13.11,9.9,13.78,9.41,2.91-8.74-3.24-14.97-7.27-21.63-1.39-2.3-2.75-6.81-4.11-8.55-1.13-1.45-10.44-3.86-12.53-4.08ZM520.57,446.13c10.74-10.03,18.19-19.92,23.9-33.56,17.02-40.65,23.57-104.18-4.33-141.28-17.34-23.06-35.4-28.05-60.99-12.54-.9.54-1.81-.15-1.41,1.77,23.24-3.96,44.52,18.41,52.95,38.07,2.86,6.66,5.88,15.47,4.86,22.61l-7.95-22.38c-9.82-25.24-51.18-56.95-67.13-18.79-1.55,3.72-1.98,8.57-3.76,11.95-1.65,3.14-8.53,7.51-5.64,12.13,11.75.59,22.81-4.85,34.51-5.03.37,2.13-.56,1.13-1.67,1.5-6.1,2.05-17.33,3.51-22.07,5.8-.97.47-1.46.78-1.24,1.97,8.46,2.95,18.52,9.89,24.27,16.78.67.8,1.73,1.16,1.42,2.5l-18.08-12.97c-3.04-1.31-6.01-3.3-9.06-4.5-3.62-1.43-9.89-4.28-12.84-1.43-.67.64-6.51,8.34-6.78,8.94-.39.86-.62,1.24-.04,2.14s15.68,6.65,18.72,8.42c18.22,10.63,30.98,30.3,32.36,51.52,1.08.29,1.19-.28,1.79-.7,2.59-1.8,14.43-12.79,14.56-15.33.11-2.21-3.04-10.5-4.09-13.01l-10.12-18.07c1.25-.25,1.77.64,2.51,1.41,6.61,6.88,11.23,16.19,13.86,25.29l1.46.41,20.71-33.91c1.37-1,.51,1.31.39,1.82-1.09,4.86-3.2,8.24-4.66,12.48-.51,1.48.38,1.01,1.19.52,1.71-1.05,4.7-7.61,5.84-9.91,1.89-3.83,3.79-8.31,5.11-12.39,1.71-.24,1.61.12,1.28,1.63-1.19,5.36-3.99,10.28-5.56,15.5l15.35-12.85c.54-.11.46.69.34,1.05-.65,2.12-9.55,11.74-11.68,13.66-4.35,3.91-11.54,7.29-15.11,10.96-.9.93-7.82,10.9-8.18,11.82s.13,1.32,1.05,1.05c8.66-5.84,18.01-10.66,25.72-17.83l1.06.35c-6.18,8.04-15.03,13.6-24.01,18.11-2.03,1.02-5.02,1.35-6.64,2.64-2.17,1.73-6.44,8.33-9.04,10.95-4.84,4.88-14.56,14.55-21.48,9.47-1.4-.32-3.56,3.49-3.08,4.16,2.56.67,5.66,2.45,7.66,4.13.81.69,1.97.8,1.62,2.3l-10.33-6.42c-3.81,2.14,3.75,5.89,2.48,7.13l-6.06-2.89-4.6,4.77c-.24,1.32,4.93,4.45,6.16,5.13,7.49,4.12,16.14,5.58,24.47,6.94,1.93,1.88,11.98,13.55,10.72,15.31-14.73,4.09-30.4.15-43.69-6.62-2.3-1.17-12.96-8.31-13.77-8.34-1.82-.05-8.54,5.16-12.04,3.65l-.86.56c-1.4,1.97.36,11.1.43,13.94.2,7.77-1.65,22.81,3.19,28.94,2.33,2.95,8.03,1.73,11.33,2.23,21.25,3.26,37.81,10.43,59.85,3.28,8.59-2.79,25.8-13.44,28.32-22.36,1.34-4.72,3.41-17.4,2.86-21.99-.08-.7-.39-2.15-.99-2.56-6.82,9.24-11.75,19.6-20.73,27.11-1.2,1.01-3.06,2.64-4.62,2.87ZM406.71,251.97c-1.43,1.05-1.96,2.11-1.86,3.91.37,6.77,7.97.55,1.86-3.91ZM438.48,271.23c1.98.09,4.05.2,5.69-1.08l5.72-8.2c-6.13,2.05-9.63,2.08-11.41,9.28ZM431.83,267.88c-1.43-1.6-8.7-4.68-10.97-5.1-1.03-.19-1.19-.15-.96.97,1.11,5.33,11.5,11.12,14.13,15.85l-.2,13.05c1.41-1.81,3.82-11.4,3.62-13.21-.1-.93-2.12-2.87-2.68-4.15-.88-2.02-1.66-5.97-2.95-7.41ZM431.34,301.22v-18.2c0-.89,1.26-1.21-.4-3.16-.62-.73-4.76-3.45-5.66-3.63-1.13-.23-1.18-.06-.97.96.44,2.23,1.73,4.39,1.33,6.9l2.13-1.42v11.07c0,.38,1.04,5.4,1.25,5.89.27.61.76,1.17,1.26,1.6h1.06ZM333.08,291.48c-3.52,3.44-4.53,8.11-3.78,12.9.8,5.11,7.1,2.94,11.53,3.46,4.7.55,8.26,2.98,12.72,3.79,7.79-12.56-8.85-31.49-20.48-20.15ZM414.2,318.34c4.85,1.8,9.74,3.73,14.43,5.93,1.15.54,4.9,3.27,5.21,3.27,3.3-.03.45-5.11.35-6.04-.49-4.4,4.89-8.32,6.43-12.06-.3-1.37-13.68-5.34-15.92-4.54l-10.5,13.43ZM308.48,331.13c1.62-2.36-9.36-23.43-16.42-17.48-4.9,4.13,1.75,7.41,4.01,9.68,3.56,3.58,7.3,10.74,12.41,7.8ZM576.08,383.85c.47-.45.73-1.38.55-2.03l-8.88-16.6c1.81-2.68,15.05-8.2,14.82-10.69l-18.44-31.9c2.02,23.15-.52,46.71-7.13,68.9,1.05,1.34.82.86,1.88.48,1.84-.66,16.51-7.51,17.2-8.17ZM315.51,348.87c.61-.61.91-2.01.77-2.88-.62-3.71-11.85-10.05-15.2-12.67-4.23-3.31-13.41-15.49-19.28-7.83-4.62,6.03,5.55,7.45,8.83,9,3.79,1.78,6.05,5,9.59,6.83,4.44,2.29,10.85,2.55,14.04,6.3l-8.2-1.43c-.99.48.93,1.39,1.27,1.58,2.04,1.15,6.25,3.02,8.18,1.1ZM278.18,336.52c-2.98.24-3.94,3.64-2.81,6.1,1.29,2.83,8.33,3.61,11.32,5.09,2.45,1.21,4.34,3.32,6.84,4.58,3.53,1.78,16.15,5.41,20,5.74,1.11.1,1.31.46,2.16-.79-1.56-4.07-6.25-4.76-9.63-6.78-4.77-2.85-15.2-11.88-18.74-12.67-1.14-.25-8.39-1.34-9.14-1.28ZM298.39,357.78c-.53-.45-6.12-1.55-7.95-2.39-5.18-2.39-8.45-7.77-15.44-6.34-.85,5.09,2.05,8.34,6.43,10.35,1.77.81,9.75,3.5,11.4,3.64s2.21-.41,3.58-1.14l-.63,3.15c.59,2.49,13.4.67,15.96-.31,2.19-.84,2.74-2.03,3.94-3.91l-14.25-2.49c-.45,1.3-.17,3.37-2.16,2.86-.11-.92-.23-2.85-.89-3.41ZM281.41,370.47c.13-2.13,1.56-5.19.37-7.15l-5.35-2.13c-.11,3.77,1.74,7.38,4.99,9.28ZM416.96,409.11c-26.04-7.82-50.56-19.69-75.37-30.63-9.21.14-18.03-1.52-26.6-4.81-2.72-1.04-7.28-4.32-9.72-4.62-2.1-.25-4.05.78-6.31.72-9.08-.24-13.04-8.78-12.56,5.37.09,2.75,1.14,5.78.9,8.74,7.04,6.12,15.54,9.28,24.11,12.67.67,2.4-8.26,8.22-10.33,9.63-1.2.82-6.49,3.33-6.69,3.65-1.26,1.98,4.64,13.85,6.77,15.5,1.52,1.18,10.15,3.68,8.11,5.81l-4.29.73c9.03,18,29.64,28.8,49.59,30,7.03.42,12.22-.94,18.95-2.18-.62,4.61,2.95,11.82,8.39,9.46,3.67-1.6,11.19-15.6,13.15-19.69,1.84-3.85,12.33-30.04,10.59-31.88-3.64.6-2.59,7.37-5.7,9.28.51-5.01,2.87-9.99,1.41-14.99h-2.12s-2.53,8.55-2.53,8.55l-3.9,7.15,2.14-13.92-1.42-.35-17.14,34.26c.76-11.59,10.23-20.39,6.78-32.12-4.1-13.95-21.31-14.53-33.04-11.63-3.88.96-7.87,3.71-11.57,3.42,14.95-11.67,44.79-13.19,48.55,10.34,1.69-1.12,2.27-3.74,3.56-5.35.95-1.19,2.97-3.54,4.5-3.14,3.49,3.73,2.53.58,4.8-.45,3.37-1.54,3.63,3.35,4.4,3.83,1.45.91,3.39-.98,4.11,4.09.78,5.52-.92,10.1-2.09,15.3,6.96-5.21,10.85-14.09,10.6-22.75ZM507.01,424l-8.28-11.34c-7.43-1.76-14.64-2.95-21.61-6.23-1.99-.94-9.49-6.3-10.78-5.66l-4.29,4.32c0,1.67,12.31,7.43,14.49,8.33,5.1,2.11,11.37,3.02,15.47,6.29-7.86-.23-15.78-3.42-22.74-6.88-1.99-.99-10.21-7.13-11.53-5.24-.46,2.65,1.9,3.33,3.63,4.57,11.4,8.19,31.75,14.27,45.62,11.84ZM552.7,423.3l7.06-2.49c-2.04-3.22-3.28-7.13-5.34-10.3-.5-.77-2-3.74-3.14-2.91-2.33,5.51,2.57,9.98,1.42,15.7ZM424.91,459.7c-5.04-15.04.89-30.51-.67-46.08-.18-1.79-.15-2.73-1.83-3.87-1.31.86-1,1.89-1.1,3.17-.84,10.47-5.08,33.87-2.48,42.52,1.16,3.87,1.57,4.79,6.08,4.27ZM429.8,411.99c-.61-.96-3.05-1.31-3.46.96-.9,4.98.22,13.71.03,19.3-.27,7.67-2.77,16.45.43,23.82.55,1.28,1.86,3.18,3.46,2.92s.52-1.29.39-1.78c-3.03-11.4-1.13-16.01-.7-27.1.09-2.38.35-17.35-.14-18.12ZM443.51,461.81c.43-2.91-2.04-4.38-3.02-6.61-3.8-8.63-1.5-21.26-1.98-30.86-.16-3.16-1.21-6.49-.84-9.87-.56-1.69-3.02-1.12-4.49-1.21-.55.17-1.08,4.42-1.15,5.37-.81,10.24-.02,21.77-.69,32.15.85,7.56,6.45,7.57,7.06,9.4l-.62,5.21c28.68,5.02,51.64,18.98,81.52,9.81,10.54-3.23,28.29-12.12,23.77-25.49-16.31,15.71-34.62,20.91-57.1,19.26-14-1.03-28.19-7.49-42.45-7.17ZM415.63,455.42c-2-8.57,1.29-16.43.71-24.98-4.53,6.27-12.15,9.95-15.58,16.91l1.36,1.97,13.52,6.11ZM308.44,448.19c.97-1.69-4.32-6.12-4.88-8.14-1.57-1-4.12,1.5-5.29,2.6-4.89,4.6-8.9,11.97-10.42,18.48l20.6-12.94ZM313.54,451.14c-.08-.11-2.28-.73-2.81-.37-7.75,4.72-14.89,10.5-22.51,15.38-14.18,9.08-32.08,17.48-41.69,32.01-.33.5-1.38.52-.8,2.24,5.53-5.04,10.51-10.69,16.47-15.29,13.76-10.61,30.86-17.94,45.29-27.53,1.32-.88,7.52-4.39,6.05-6.43ZM408.49,455.43l-8.87-5c-.83,1.11-4.02,4.69-1.49,4.99s5.39.49,7.88.7c.78.07,2.66.52,2.48-.7ZM253.28,496.53c-3.19,3.21-9.14,6.8-3.63,10.99,13.22-19.39,35.06-28.11,54.12-40.1,3.5-2.2,11.93-7.23,14.41-9.86.48-.51,1.21-.79,1.03-1.69l-2.13-1.59c-20.53,14.63-45.89,24.24-63.8,42.25ZM327.82,461.83c.99-1.4-4.46-4.32-5.66-3.21l-22.18,14.65c-.51.75,3.31,2.17,3.9,2.87,4.84,5.66-6.37,11.58-10.66,6.38-1.28-1.55-.51-4.7-2.13-4.24-4.09,1.18-15.66,8.99-19.59,11.83-4.46,3.23-11.24,8.62-14.83,12.65-.27.3-1.05,1.81-.96,1.9,3.53.33,6.51,2.46,8.92,4.86,8.91-6.9,18.69-15.48,29.16-19.96,10.54-4.51,22.26-4.17,33.29-6.68,1.18-1.27,1.78-2.93,2.9-4.24,2.19-2.56,9.73-9.98,10.69-12.16.67-1.53-4.03-1.71-4.99-1.48-1.99.48-14.25,8.94-14.99,8.26.04-3.4,12.78-8.76,12.84-9.63-2.54-2.95-7.12,1.07-9.28,2.85-2.68,2.21-4.51,5.27-7.12,7.5.2-5.33,6.28-9.87,10.7-12.15ZM562.69,465.42c-4.1-2.2-8.06-5.08-12.84-5.71,2.29,2.23,7.57,4.96,10.68,6.09.67.24,2.32.94,2.16-.38ZM528.43,498.25h-12.49c-2.97,0-11.35-2.27-14.41-3.44-9.23-3.53-15.74-10.87-24.83-14.32-17.06,4.49-34.44,8.2-50.84,14.78l-18.79,12.26c-.15-4.35,10.46-9.91,10.72-12.52.34-3.41-4.98-6.16-6.44-8.89,4.19.26,8.31,3.86,9.33,7.81l3.55-1.08-2.17-5.3c.32-.38,4.34,2.97,5.03,3.21,2.33.83,10.45-2.69,13.52-3.57,8.6-2.46,20.07-4.48,28.03-7.66,1.01-.4,1.66-.81.53-1.63-24.69-8.52-53.47-14.24-77.82-1.77-1.59-1.6,8.84-7.72,9.99-8.21,4.92-2.12,10.4-2.77,15.71-2.51-4.34-4.88-20.28-4.48-25.2-1.46-.88.54-3.06,4.44-4.4,5.77-3.81,3.79-8.9,6.29-13.59,2.35l-13.91,11.19c.03-3.6,3.93-6.61,6.41-8.93,1.74-1.63,6.16-3.06,4.64-5.35-3.93-.46-12.33,8.33-14.99,11.42-14.81,17.18-17.33,32.82-7.04,53.46,7.49,15.03,19.22,23.81,35.8,27.02,15.48,2.99,28.13-.58,43.32-1.26,34.48-1.55,62.97,4.3,95.81-10.56,17-7.69,30.8-16.56,31.65-37.24.93-1.14,1.3.08,1.43,1.06,1.47,11.56-3.9,24.18-13.55,30.71.96,1.49,1.16.64,1.98.59,22.56-1.43,28.85-30.84,22.12-48.97-3.3-8.91-11.83-21.41-21.26-24.07,6,9.41,9.41,20.3,10.74,31.37l7.81.39c-1.56,2.2-5.54,1.19-7.13,2.15-.69.42-1.2,2.44-1.79,2.46-.23,0-.78-1.24-1.82-1.08-4.72.71-15.4,7.28-20.88,9.13-1.14.38-2.13.75-3.37.55,1.31-4.67,23.96-11.27,24.3-12.61-.77-11.91-5.55-24.53-13.58-33.44l-.97-.29c-6.7,5.73-14.14,8.77-22.58,11.03-1.61.43-6.12.58-6.99,1.21-.29.21-1.38,3.11-2.01,4.06-3.13,4.75-5.31,4.12.76,6.5,5.88,2.3,11.46,2.59,17.18,4.23.97.28,2.22.08,2.46,1.46ZM556.27,465.42l-8.94-3.58c-1.24-.01-3.02,1.99-3.21,3.2-.25,1.58.4.85,1.04,1.14,4.34,1.96,10.14,6.68,11.12-.77ZM337.1,508.96v10.35c0,1.51,3.85,10.5,5.7,11.78-3.8-11.18-5.28-23.16-1.42-34.55l-2.85-2.21,24.28-26.42c-4.4.3-12.52-1.93-16.23-.52-6.28,2.4-19.43,19.87-22.23,26.31-8.96,20.62-4,39.38,18.46,45.94-5-7.49-8.98-17.56-7.87-26.78.18-1.49.53-3.34,2.16-3.91ZM619.09,522.53c.46.05,1.43-.95,1.43-1.07v-12.14c0-.65-2.05-6.33-2.51-7.48-6.9-17.08-29.56-32.25-47.46-34.99l17.35,8.7c9.9,5.23,31.19,24.26,31.19,35.91v11.07ZM604.1,498.24c-9.49-15.79-28.96-22.67-44.79-30.57-1.93-.77-5.94,2.85-3.74,4.5,6.23,5.42,14.72,10.91,19.13,17.99.59.95,1.83,2.6-.22,2.37l-6.07-5.7,3.7,9.86c7.63,1.2,15.18,3.51,21.65,7.82,2.82-3,6.35-5.13,10.34-6.27ZM299.04,475.5l-4.73,3.21c.43,4.71,6.35,5.33,8.45,1.19.55-1.4-2.66-4.57-3.71-4.4ZM506.3,482.56c-4.54,1.28-9.55.15-13.93.71-.99.13-2.07.39-1.06,1.42,7,3.55,11.15,7.97,14.99-2.12ZM324.25,486.13c-12.13,1.21-23.68,1.96-34.48,7.98-3.29,1.84-22.16,14.5-23.39,16.6-.49.84-.65,1-.64,2.07.04,5.31,3.45,21.52,6.26,25.95,1.01,1.59,2.67,3.99,4.77,3.79,1.51-1.44-.72-1.44-1.35-2.19-3.68-4.39-10.54-24.09-7.62-28.92.85-1.41,9.88-7.37,11.96-8.74,8.77-5.74,19.61-11.64,30.01-13.53,4.44-.81,11.17.32,14.47-3.01ZM321.39,490.41c-19.88-.07-36.4,10.92-51.78,22.14-.82,1.32,2.58,15.53,3.43,18,1.28,3.72,4.3,11.24,9.07,7.34-4.17-5.68-12.22-26.38,1.48-23.5,1.3-4.85,3.59-7.33,8.52-4.7.24-7.06,8.1-3.95,8.54-4.29.72-.55.75-4.77,4.92-5.33,9.48-1.25,4.02,10.37,3.65,14.95s-.71,18.24,6.09,18.3c4.91.05.82-3.29-.03-5.03-4.3-8.77-2.9-24.62.75-33.59,2.29,2.29-.68,6.1-.38,8.89l.73,6.09c-.04-6.75,2.48-13.12,5-19.27ZM612.65,533.23c5.86-12.37,5.33-23.67-2.53-34.93-.74-1.06-7.13-8.82-8.16-7.89,9.27,10.25,15.15,21.48,11.78,35.69-.53,2.24-1.93,4.32-2.43,6.14-.37,1.34.33,1.04,1.35.99ZM593.38,509.67c.79-4.69-7.35-7.32-11.03-8.59-1.68-.58-9.19-3.3-9.55-1.07l2.04,11.08,2.3-6.25c4.06-2.32,7.64-.27,8.41,4.11.35.28,2.94-3.93,6.13-1.49.84.64.56,2.31,1.71,2.2ZM583.4,543.94c11.21-.29,18.88-1.92,24.64-12.12,4.56-8.07,5.08-15.48,2.1-24.25-2.01-5.92-3.45-8.85-9.64-5.42-5.59,3.1-3.89,6.79-5.29,11.84-2.1,7.53-5,16.72-8.44,23.69-.52,1.05-4.05,5.66-3.36,6.27ZM309.26,533.94c-2.87-6.52-3.58-13.9-2.78-20.98.31-2.77,3.1-8.1,1.36-10.09-3.27-2.45-4.72,1.89-5.41,4.62-1.42,5.63-1.37,13.01.02,18.63.85,3.42,2.39,8.47,6.8,7.83ZM246.44,543.23c-3.72-7.61-4.66-15.3-2.53-23.59.99-3.84,5.92-9.39,3.65-12.14-2.53-3.07-4.11.69-5.52,3.13-5.27,9.16-6.94,23.68,1.9,31.18.81.68,1.17,1.72,2.5,1.42ZM581.85,506.23l-2.82.29c-1.83,12.3-2.98,27.29-14.19,34.92,5.85,5.72,11.78-5.65,13.89-10.36,3.21-7.15,6.82-17.52,3.11-24.85ZM261.19,509.92c-1.39-1.43-6.15-3.85-8-2.44-3.06,2.32-7.14,13.58-7.49,17.53-1.63,18.48,8.82,25.38,25.74,18.57-1.3-2.79-2.81-5.4-3.79-8.34-1.95-5.85-3.37-22.13-6.46-25.31ZM302.12,535.37c1.07-.79-2.46-10.79-2.76-13.29-.27-2.25.97-18.4-3.65-15.26-2.92,1.98-2.41,28.6,6.41,28.55ZM574.11,543.94c5.01.85,6.45-1.31,8.87-5.05,3.49-5.41,9.44-21.3,8.25-27.41-.24-1.21-.88-1.77-1.76-2.5-3.53,2.96-3.15,7.99-4.44,11.97-1.9,5.88-4.33,12.2-7.47,17.51-1.19,2.02-3.66,3.23-3.44,5.48ZM295.69,536.09c-.53-3.52-2.41-6.49-3.24-9.96-.92-3.85-.77-9.77-1.93-13.06s-3.71-1.95-4.15,1.22c-.7,5.08,1.6,16.05,5.02,20.03,1.28,1.48,2.19,2.08,4.29,1.77ZM289.98,538.23c-.8-2.46-2.43-4.45-3.39-6.95-1.18-3.07-3.06-16.33-6.93-15.17-3.18.95.62,12.41,1.64,14.76,1.69,3.9,3.72,8.26,8.69,7.37Z"/>
  <path d="M568.4,553.95c0,1.2-2.37,1.36-3.2,1.42-7.54.6-15.91-.3-23.59-.03-3.48.12-7.31,1.38-11.04.74,1.82-2.57,6.65-1.18,9.63-1.43,9.35-.79,18.86-2.65,28.2-.7Z"/>
  <path d="M334.96,544.66c-.25,1.37-1.49,1.18-2.47,1.45-5,1.4-11.21.83-16.36,1.48-5.27.67-10.76,2.47-16.14,2.77-.36-2.09.51-1.15,1.66-1.51,9.92-3.08,22.94-3.18,33.32-4.19Z"/>
  <path d="M337.81,547.52l-1.05,1.43-33.93,5.7c.2-1.2,1.39-1.28,2.3-1.62,3.69-1.41,31.07-6.73,32.68-5.5Z"/>
  <path d="M329.25,541.81c1.13.86,0,1.3-1.05,1.43l-30.35,3.56c-.34-2.03.42-1.19,1.65-1.52,3.15-.86,28.56-4.38,29.76-3.47Z"/>
  <path d="M341.38,550.38l-6.26,1.94-23.01,4.47c.19-.99,1.28-1.48,2.13-1.79,7.95-2.79,18.71-4.31,27.13-4.63Z"/>
  <polygon points="548.42 551.08 555.88 549.62 570.9 549.66 579.11 551.08 548.42 551.08"/>
  <path d="M292.84,549.66c.13,1.04-1.87,1.28-2.56,1.35-6.7.73-14.14.38-20.99,1.49-.16-1.87-.09-1.18,1.07-1.4,7.39-1.38,14.98-1.6,22.48-1.44Z"/>
  <path d="M555.55,558.93h-23.56l8.93-1.42c3.72.22,7.79-.34,11.45-.04,1.25.1,2.76-.14,3.17,1.47Z"/>
  <path d="M348.52,553.23c.34,2.03-.42,1.19-1.65,1.52-4.73,1.28-9.99,2.02-14.77,3.47-.39-2.05.56-1.15,1.56-1.61,4.49-2.11,9.91-2.94,14.85-3.38Z"/>
  <path d="M291.41,553.22c-3.24,3.06-9.59.43-13.91,2.15-.94-.57,2.67-2.15,2.85-2.15h11.07Z"/>
  <path d="M232.87,542.52c.16,1.87.1,1.18-1.07,1.4-2.58.48-6.89,1.6-8.92-.34l9.99-1.06Z"/>
  <path d="M604.09,548.94c.35,2.16-.54,1.14-1.73,1.44-1.74.44-3.59.78-5.4.69v-2.13s7.14,0,7.14,0Z"/>
  <path d="M351.19,254.99c17.07-2.77,21.32,25.49,4.73,26.89-18.35,1.55-18.65-24.64-4.73-26.89ZM360.96,262.29c0-2.55-2.07-4.62-4.62-4.62s-4.62,2.07-4.62,4.62,2.07,4.62,4.62,4.62,4.62-2.07,4.62-4.62Z"/>
  <path d="M380.65,286.95c2.17-.16,2.23,2.11,3.76,3.07,7.36,4.61,14.34-6.3,17.17-5.79,3.57.64,7.11,7.06,10.47-1.94l1.44.74c-.91,6.44-7.78,8.34-12.5,4.05-5.32,5.73-19.16,11.79-20.34-.13Z"/>
  <path d="M530.57,393.32c-5.78,7.38-15.17,12.46-24.27,14.26l24.27-14.26Z"/>
  <path d="M520.57,255.54c.03,1.24.4,1.52-1,1.37-2.09-.23-4.3-1.13-6.5-1.36-3.9-.42-8.37-.29-12.15-.7-1.07-.11-2.2-.16-2.47-1.45,7.72-1.37,15.01-1.28,22.13,2.15Z"/>
  <path d="M527.71,516.11c.19,1.46-1.2,2.38-2.19,3.16-31.21,24.41-75.16,31.77-113.82,30.4-23.34-.83-40.65-4.57-53.48-25.76-2.93-4.84-6.53-11.34-6.12-17.08,2.68,2.43,3.43,7,5.12,10.22,10.21,19.52,23.55,27.17,45.3,29.66,30.7,3.51,74.12-3.05,101.55-17.49,2.93-1.54,22.35-14.26,23.64-13.11Z"/>
  <path d="M488.13,505.01c1.81,1.86,3.38,3.95,5.31,5.74-.63,1.02-2.17-.33-2.8-.77-8.5-6.13-15.9-14.65-24.33-21,2.99-.1,6.1,2.3,8.5,3.98,4.46,3.12,9.5,8.13,13.31,12.05Z"/>
  <path d="M357.8,484.69c.59.74-4.05,9.63-4.8,11.29-.46,1.02.42,1.94-1.62,1.56.35-4.02,2.26-8.24,4.57-11.5.26-.37.83-2.62,1.84-1.34Z"/>
  <path d="M472.03,149.16c-9.81-1.74-20.16-2.44-29.84.5-4.76,1.45-8.91,4.61-13.71,5.92,6.13-14.11,23.29-18.12,36.79-12.15.84.37,8.3,4.36,6.76,5.73Z"/>
  <path d="M472.75,172.72l1.44,5.38c.21,12.37-23.33,20.71-32.85,13.53,4.74-2.4,10.27-1.92,15.54-3.72,6.91-2.36,13.89-7.94,15.87-15.19Z"/>
  <path d="M507.73,170.57c.67.73,6.26-4.86,9.32.31s-1.53,15.92-7.9,16.82c3.77-4.24,7.2-9.22,6.45-15.22-3.33-2.69-7.39,1.27-9.67,3.8-1.49.03-1.23-7.56-1.08-8.91.56-4.99,4.89-14.12,9.96-15.73,1.4-.45,4.18-.92,3.97,1.11-6.91,2.9-10.25,10.8-11.07,17.84Z"/>
  <path d="M370.21,197.43c5.77,4.72,9.92,6.95,17.75,5.8,2.8-.41,5.54-2.21,8.2-2.52,2.91-.33,1.64,1.42.37,2.72-10.37,10.64-24.81,6.12-29.43-7.53-1-2.95,2.89,1.34,3.11,1.52Z"/>
  <path d="M484.16,189.14l-13.93,19.98c-1.43.29-1.28-.61-.91-1.62,1.33-3.66,5.54-8.22,7.7-11.58l-1.06-.35-16.78,15.7c1.23-7.78,8.1-13.96,11.4-21.08l1.44-.34c1.75,1.91-4.39,8.84-4.99,10.36-.34.86.19,1.42,1.05,1.05,1.88-.81,13.62-14.44,16.07-12.13Z"/>
  <path d="M425.63,240.54c-2.15-1.74,5.19-2.31,5.73-2.47,8.62-2.53,17.04-6.54,23.15-13.28,1.02-1.13.8-3.27,3.23-3.52,3.44,2.68-7.59,11.31-9.77,12.71-6.27,4.03-14.83,7.26-22.35,6.56Z"/>
  <path d="M414.91,210.56c-2.53,7.63-1.94,9.8,4.65,14.27l-.75,1.42c-2.42.59-9.54-3.05-10.22-5.5-.57-2.08,2.83-6.39,4.15-8.43.59-.91.55-2.11,2.16-1.76Z"/>
  <path d="M494.87,189.86c.31,1.44-.32,1.91-1.03,2.88-1.44,1.96-8.84,9.8-10.74,11.39-.8.67-1.15,1.74-2.5,1.42-.9-.84,10.38-16.67,14.27-15.7Z"/>
  <path d="M439.9,179.5c.04.66,2.02,4.2,0,4.64-2.33-7.27-4.36-18.79.7-24.98.62,1.33-.71,3.29-.71,3.93,0,5.36-.3,11.12,0,16.42Z"/>
  <path d="M395.63,193.42l-13.55-22.12c1.18-1.17,5.41,4.91,6,5.77,3.09,4.47,6.6,11.1,7.55,16.35Z"/>
  <path d="M420.62,240.54c-2.88-.24-8.07-.58-8.56-4.28,2.33,1.06,8.05,1.39,8.56,4.28Z"/>
</svg>