<?xml version="1.0" encoding="UTF-8"?>
<svg id="katman_1" data-name="katman 1" xmlns="http://www.w3.org/2000/svg" viewBox="0 0 841.89 595.28">
  <path d="M556.26,60.68c23.09,20.3,40.62,38.53,51.48,67.89,12.2,33,28.99,86.54,26.51,121.28-3.01,14.13-3.07,30.28-6.39,44.19-.22.92-.09,2.09-1.38,1.77-3.39-17.5-7.6-36.99-15.96-52.84-20.8-39.4-61.32-20.15-67.51,17.74-.19,1.18-1.42,6.8.09,6.88,6.64-3.95,13.09-2.96,19.7.25,1.27.62,2.52,2.01,3.43,2.41,1.81.8,4.11.86,6.23,2.03,7.63,4.23,9,14.41,5.98,21.91-1.42,3.52-2.45,6.3-3.74,9.87-4.02,11.07-17.1,13.82-26.97,9,1.43-2.14,4.06-3.55,3.88-6.55-.39-.01-.79-.05-1.19.02-2.46.44-11.14,5.74-14.74,7.15-2.87,1.12-5.8,2.05-8.77,2.9-1.66.47-10.05,2.03-10.26,2.85,3.17,10.06,4.47,20.52,5.25,31.02,20.04,8.48,44.23,33.88,42.82,56.95-.66,10.75-7.63,19.66-14.33,27.48-.86,1.01-3.45,2.73-3.11,4.03l28.4,23.67c4.72,4.99,7.46,11.01,7.51,17.98-1.65.57-5.56-.71-6.55.98-.5.85-.38,7.92-1.99,8.23l-1.65-.46.48-.96-6.34-.77-2.95,10.93c-2.25.48-3.08-2.14-4.86-3.56-7.8-6.23-37.99-18.56-47.91-19.68-9.2-1.04-26.52,1.37-30-10.84-.78-2.73.27-5.25-3.4-6.66-17.73,15.29-39.48,24.68-62.09,30.31-1.42,1.05,1.7,8.52,2.43,10.23,4.02,9.28,9.16,12.34,5.99,23.96-2.12,7.76-8.85,13.83-10.98,21.11-.55,1.87-2.26,9.67-2.32,11.33-.06,1.77.99,4.1,1.01,5.85.11,6.96-4.1,16.26-8.78,21.35-.79.86-2.38,2.94-3.54,2.64-.42-.11-5.29-5.01-5.94-5.78-2.1-2.5-3.76-6.42-5.66-8.44-.34-.36-.43-.98-1.14-.8-1.82,2.57-3.32,5.41-5.19,7.94-1.09,1.47-8.64,10.97-10.07,10.01-1.57-3.23-4.39-6.16-5.98-9.36-1.73-3.46-2.15-7.36-4.05-10.53-3.32,3.37-7.71,4.86-12.02,6.45-1.41.52-2.32,2.14-4.73,1.3-1.82-7.73-2.71-16.89,1.42-24.06,1.35-2.34,5.14-5.8,5.97-7.65.87-1.92.96-5.41,1.59-7.65,2.38-8.53,5.94-15.85,10.95-23.12l-11.53-22.48c-12.53-2.42-24.15-6.56-35.11-13.03-31.14-18.39-53.3-50.08-60.67-86.16-5.35-26.15-1.7-52.98,3.06-78.88-6.12-2.04-12-5.13-16.82-9.46-1.18-1.06-4.07-4.94-4.84-5.38-.51-.29-.98-.38-1.48,0-12.88,21.88-15.28,48.69-14.1,73.68-2.87-3.86-4.89-8.88-6.81-13.36-6.44-15.07-11.82-32.56-14.44-48.77-3.32-20.56-.76-38.33.83-58.69,2.28-29.38,2.3-51.28,16.2-78.12,9.04-17.45,22.55-38.22,35.58-52.91,6.47-7.3,13.08-9.74,20.62-15.36,9.54-7.11,19.57-17.08,27.53-25.95,3.91-4.36,11.73-15.73,15.55-18.48,9.89-7.12,22.43,6.03,16.87,16.39-1.83,3.41-4.94,5.04-7.4,7.67-9.12,9.72-13.93,31.85-11.03,44.6,11.59,26.54,18,81.43,48.49,93,5.75,2.18,9.36.99,13.8,6.14,8.68,10.08,13.94,21.04,25.35,29.6.9.67,3.04,2.65,4.08,1.92.82-2.82,2.38-5.48,3.09-8.33,1.85-7.4.67-19.54-.14-27.36-1.89-18.31-6.91-36.15-13.69-53.17-11.79-1.78-22.19-6.96-30.57-15.38-3.54-3.56-6.23-8.04-9.69-11.69-4.3-4.53-8.93-6.1-11.62-12.2-4.02-9.13-3.02-22.59,5.53-28.87,3.39-2.49,8.78-.97,11.68-3.39,1.48-1.24,4.35-8.66,6.35-11.16,3.07-3.84,6.13-4.97,11.09-4.36,2.16.26,4.95,2.11,6.74,1.81,1.47-.25,5.47-3.04,7.33-3.89,3.57-1.65,8.2-4.17,11.52-5.5,9.5-3.82,15.11.7,22.13,6.55,6.91-1.18,13.92-.62,20.84-1.51,8.23-1.06,14.91-5.51,20.31,4.11,4.08,7.27,3.49,16.44-4.51,20.45-7.34,3.67-21.05,2.58-18.93,14.66.05,16.22,7.78,30.58,12.52,45.83,2.42,7.79,4.7,16.02,6.71,23.92,1.16,4.56,1.83,10,3.14,14.37.65,2.15,1.11-.26,1.55-.9,4.97-7.34,11.79-10.79,16.36-18.18,11.97-19.34,9.44-38.26,9.31-59.69-.19-33.35,5.96-61.76-21.36-86.09-8.49-7.56-17.23-9.59-9.64-22.75.8-1.39,3.72-5.66,5.11-6.07,1.18-.35,6.69-.25,7.9.16,13.31,9.93,26.87,21.06,41.51,28.99,9.48,5.14,18.94,6.87,27.79,13.54,3.03,2.28,6.39,5.42,9.29,7.97ZM625.51,265.65c.88-.18.91-.96.99-1.68,4.33-40.67-7.66-81.11-20.3-119.28-5-15.1-9.47-28.89-18.9-41.87-10.72-14.76-29.45-33.44-44.01-44.48-9.69-7.34-20.25-9.39-30.72-15.47-6.9-4.01-13.68-8.76-20.24-13.31-4.81-3.34-12.68-10.56-17.39-12.76-.33-.15-.63-.45-1-.51-2.35-.35-7.01,7.11-5.23,9.66,17.59,12.86,30.97,29.25,32.83,51.76,1.22,14.76.36,30.8.45,45.74.15,25,3.06,46.87-12.71,68.44-3.93,5.37-13.13,10.49-14.39,16.73-.28,1.4.07,2.82-.17,4.21-.91,5.32-3.58,13.78-3.86,18.52s2.44,10.18,2.46,14.84c.66.77,2.29-2.23,2.51-2.59,3.82-6.32,7.67-16.79,9.01-24.05.6-3.23.22-7,1.01-9.69,1.36-4.63,8.91-14.03,11.68-18.95,15.49-27.52,11.39-54.79,10.77-84.97-.18-8.95-.1-17.84-.49-26.74-.18-4.09.72-11.19-1.33-14.72-1.38-2.38-7.34-5.27-6.68-9.37,3.75,4.8,7.26,7.21,13.61,6.79,6.35-.41,8.58-1.5,15.42.15,16.7,4.03,39.79,27.67,50.17,41.23,13.87,18.13,20.79,45.14,27.38,66.95,8.05,26.64,16.81,55.62,18.61,83.49.26,3.95-.53,8.06.5,11.91ZM309.97,101.8c1.08-4.46,4.1-8.74,6.69-12.51,4.06-5.9,9.04-11.09,13.4-16.74,1.07-4.09-2.3-9.47-7-7.97-1.86.6-9.16,10.83-11.17,13.14-9.69,11.16-22.33,24.22-34.35,32.75-5.94,4.22-12.69,7.16-17.65,12.63-12,13.25-25.78,34.91-34.13,50.82-13.85,26.38-13.74,47.96-15.97,76.9-1.58,20.55-3.59,38.02-.9,58.77,1.56,12,4.83,23.61,7.72,35.32.91.1.39-1.02.34-1.55-.34-3.46-1.43-7-1.8-10.36-3.8-35.3-.08-70.45,3.88-105.5,1.97-17.46,3.78-30.89,11.25-47.09,7.88-17.07,31.07-50.75,48.71-57.77,6.38-2.54,13.15-1.55,18.78-4.56,2.53-1.35,4.42-3.61,6.83-5.08.35.4-2.16,3.72-2.45,4.59-.72,2.19-.49,4.49-.4,6.77,6.4,20.67,12.69,42.47,20.48,62.66,6.99,18.11,15.74,32.19,31.62,43.74,3.39,2.47,9.61,5.31,12.27,7.66,1.88,1.67,5.31,9.48,7.13,12.31,4.95,7.66,11.28,13.9,18.37,19.56,1.17.54,7.18-6.95,9.73-6.59.18-.75-.11-.78-.52-1.18-1.76-1.75-4.3-3.56-6.1-5.33-6.18-6.07-11.77-12.77-16.92-19.78-1.08-1.47-2.72-5.12-3.84-6.13-1.36-1.22-9.16-3.04-11.7-4.11-17.95-7.56-27.21-25.31-33.75-42.59-5.91-15.63-12.75-35.41-17.1-51.45-3.06-11.29-2.36-22.12.94-33.27l-2.42,1.94ZM524.13,66.79c-2.38-.25-5.11.18-7.54,0l17.09,31.29c8.31,17.38,16.26,35.13,21.32,53.8-.82-.14-.87-.95-1.11-1.56-8-20.68-14.1-38.01-26.11-57.03-4.42-7.01-10.61-16.8-15.91-22.95-.3-.35.02-.92-1.11-.62.58,16.92.34,33.85.46,50.83.17,22.69,2.49,40.59-6.7,62.3-3.72,8.78-9.08,15.37-13.61,23.34-3.49,6.15-2.11,6.73-3.14,12.9-1.04,6.2-4.07,15.22-6.82,20.9-1.32,2.72-5.24,7.69-5.92,9.64-.36,1.05-.65,3.39.21,4.12,1.9-.25,6.7,2.93,7.54,2.96,1.15.05,4.44-1.7,5.98-2.11,16.29-4.32,32.74-2.13,46.54,7.63.8,0,2.56-9.98,3.02-11.56,6.88-23.57,29.62-44.31,55.25-33.58,14.5,6.07,22.78,20.14,27.54,34.45,1.25.19,1.02-.2.97-1.21-1.53-28.56-13.68-66.15-22.5-93.71-8.38-26.18-14.21-44.64-33.88-64.82-8.98-9.21-28.68-23.66-41.58-25.03ZM432.48,92.56c-6.18-1.52-11.41-11.37-17.73-12.16-5.67-.71-11.82,3.83-16.04,7.32-.79.65-4.08,4.33-4.39,4.35-1.35.08.81-3.3.24-3.88-1.01-1.03-5.33,4.42-7.06,4.37-2.54-1.64-7.01-4.46-10.09-3.79s-6.72,8.56-7.64,11.57c4.18.83,3.98-1.61,5.84-4.12.5-.67,1.49-2.34,2.42-2.19l-2.8,6.57c2.2,2.35,6.4,4.29,6.2,8.01-2.58-1.85-4.96-5.65-8.54-5.8-2.47-.1-9.37,2.88-12.26,3.71-4.57,1.31-5.86-.51-8.62,4.51-3.3,6.01-3.15,14.59,1.46,19.9.9.09,2.84-3.58,3.67-4.56,3.54-4.16,7.68-6.11,13.22-5.47,2.58.3,4.89,1.63,7.41,1.83,4.56.35,9.52-1.98,14.12-2.01s11.92,2.06,16.13,3.84c6.82,2.89,13.36,11.12,20.57,5.92-1.07,4.87-7.09,4.34-10.69,2.43,0,1.48-2.8,5.36-4.14,5.36-3.93-.81-2.42-8.71-3.77-10.1-1.56-1.61-12.22-4.68-14.76-4.92-8.09-.77-5.14,2.89-10.14,7.07-2.65.15-4.34-4.62-5.95-5.08-1.48-.42-7.5-1.42-9.14-1.55-2.86-.22-4.86,0-7.39,1.35-1.76.94-7.57,6.24-6.37,8.28.19.32,4.75,3.67,5.76,4.7,8.76,8.9,12.93,18.36,25.98,22.64,3.63,1.19,13.26,2.07,15.27,4.67,1.69,2.18,5.27,11.35,6.48,14.42,3.2,8.13,6.5,17.9,8.04,26.48,2.9,16.17,1.55,32.77-.24,49l1.48.62c2.5-.8,6.83-4.63,8.86-5.25.62-.19.97.12.72.72-.39.94-8.47,6.84-9.88,7.62-6.45,3.55-13.7,4.22-19.73,8.95-5.62,4.41-8.32,11.32-13.65,16.01-15.45,13.61-27.61,14.32-36.96,35.97-1.38,3.2-3.24,11.27-4.61,13.38-.15.23-.62.63-.73.48.21-6.19-7.52-3.06-10.24-.26-6.11,6.29-5.65,22.85,5.85,20.19-1.57-4.23-2.78-7.25-1.89-11.86.23-1.18,2.53-7.98,4.33-6.61-3.09,6.19-3.45,14.22,1.69,19.45,5.49,5.59,17.06,6.68,22.64.74,3.87-4.12,3.22-9.12.95-13.88,3.41,1.17,4.53,5.57,5.43,8.67,11.04,3.34,13.03-10.21,7.22-16.7-1.1-1.23-4.14-2.29-4.4-3.91-.19-1.23.49-2.87.52-4.33.12-6.12-.72-12.15-.5-18.26l4.13,8.74c3.6-3.28,7.66-7.01,11.75-9.63,5.32-3.4,18.46-10.81,20.59-.82-1,.88-1.28-1.01-2.47-1.91-2.63-1.98-6.63-1.57-8.27,1.39-2.58,18.79-6.36,35.97-12.86,53.75-2.13,5.82-6.61,14.12-8,19.72-.07.27-.14.79.23.72,3.01-3.27,6.82-5.66,10.7-7.77.33-.11.35.46.24.72-.74,1.65-6.6,6.02-8.27,7.77-24.38,25.59-36.37,72.32-23.56,105.75,2.48,6.46,10.84,23.16,15.08,28.19,1.7,2.02,5.9,4.19,8.49,4.89.46,1.49-1.73,1.06-2.63.92-2.97-.44-5.35-2.39-7.9-3.78-1.18-.11-4.22,4.49-4.93,5.62-3.91,6.24-6.34,13.78-7.39,21.05,3.13-.15,4.4-.41,6.24,2.27.48.69.73,1.91,1.02,2.3,1.01,1.31,1.01-.71,1.46-1.42,1.59-2.51,4.2-6.16,7.32-6.55.27.25-3.23,5.04-3.65,5.82-.37.69-2.12,3.84-1.69,4.38,7.02-6.48,13.19-4.21,17.02,3.89,2.94-2.83-.19-10.68,4.7-12.07,2.33-.66.02,2.43-.3,3.59-.38,1.36-.65,2.68-.51,4.1,2.76-2.31,4.87-4.22,8.76-3.18,1.51.4,2.87,1.93,4.12,2.68.45.27.33.82.97.01.77-8.84,6.97-15.34,10.7-22.85,6.58-13.26-.22-16.65-5.2-27.88-.44-1-1.65-5.47-1.86-5.68-.81-.8-.82.25-1.01.68-1,2.23-1.71,5.2-2.39,7.58-.66-.08-.84-.66-.94-1.23-1.01-5.77,4.05-15.58,5.94-21.24,5.7-17.06,8.07-36.6,5.07-54.44-2.29-13.64-8.67-25.3-15.9-36.85,1.22-.95,5.11,4.12,5.92,5.01.43.47.43,1.05,1.37.82-2.65-32.32-1.7-68.28,16.04-96.52,10.8-17.19,27.92-33.17,49.59-24.78,9.6,3.72,16.58,10.77,23.34,18.22l-11.42-19.44c7.2,6.39,12.37,15.09,16.64,23.72,1.25,2.53,8.09,19.15,9.22,19.5,12-1.36,23.37-4.92,34.03-10.57,2.45-1.3,11.78-6.57,13.25-8.14,1.79-1.9,1.21-5.53-.19-7.52-3.82-5.44-11.91-4.26-13.88,1.96-3.11-2.59,2.9-7.33,5.63-7.75,3.34-.51,7.69,1.1,9.86,3.69,1.33,1.58,1.43,3.53,2.75,5.02,7.89-11.46-5.01-23.54-16.25-14.78-2.18,1.7-3.56,4.12-5.65,6.02-7.3,6.64-17.32,9.52-27,7.52l-1.67,5.61c-1.83-1.02.05-5.82-.27-6.27-12.23-4.45-17.23-18.36-26.45-26.31-1.35-1.16-4.22-3.38-5.82-3.9-1.83-.6-4.76-.08-5.65-1.15-7.86-39.02-15.45-78.33-29.86-115.52-.37-.52-.68-.6-.99,0-.61,1.17-1.05,4.04-1.92,5.86-2.02,4.2-6.02,9-10.47,10.68-.34-.31,5.03-6.48,5.55-7.33,2.9-4.79,4.7-12.15,5.14-17.71.67-8.61-3.21-18.11-6.31-26l1.61.6,4.46,5.23c2.56-5.92,7.28-7.86,12.91-9.94,2.75-1.02,12.03-2.78,12.61-5.87.41-2.22.06-5.78-.88-7.85-3.07-6.8-9.51-2.47-14.97-1.68-5.75.84-13.56-.06-18.81,1.61-.5.16-.94.55-.82,1.12l2.43,3.17ZM386.78,123.68l-4.86.98c-.56.84,2,3.6,2.68,3.88.82.34.66-.33.83-.62.43-.73,1.87-3.64,1.35-4.24ZM275.93,198.55c.67-25.23,7.76-49.8,14.58-73.9-17.6,4.59-32.19,19.06-42.97,33.11-16.02,20.88-23.07,41.16-26.06,67.29-3.77,33.01-6.32,63.54-3.9,96.75.16,2.17-.11,4.39,0,6.56.68.02.97-1.51,1.11-2.04.77-2.82,1.26-5.74,2.16-8.54,3.67-11.52,9.25-21.61,15.12-32.08.3-1.74-1.82-4.12-2.58-5.97-1.39-3.4-2.46-7.73-2.71-11.39-.06-.81-.49-10.88,1.96-9.01.92,3.3,2.08,6.99,4.86,9.24-1.83-14.31,1.17-30.34,8.55-42.74,3.11-5.21,12.4-14.11,13.21-18.87,1.23-7.18-2.29-10.23-7.94-13.21-.36-.19-1.53-.15-.69-1.01.14-.15,3.1-.93,3.64-.98,7.29-.76,12.4,1.2,18.39,4.95,1.16.72,1.66,2.16,3.24,1.86ZM298.28,125.63h-1.42c-4.88,11.16-9.57,22.29-12.91,34.03-2.03,7.12-4.2,15.47-5.47,22.73-.72,4.13-2.28,13.64-1.57,17.37.22,1.18,4.23,5.76,5.23,7.41,2.37,3.89,4.9,10.03,5.4,14.53.34,3.09-.31,6.5.17,9.56.18,1.19,2.28,6.94,3.5,6.66.36-.08,4.41-3.72,5.84-4.38,1.35-.62,2.75-1.04,4.16-.46-.72,3.72-3.52,6.59-3.78,10.6-.8,12.32,14.62,15.02,14.42,25.08-.12,6.14-6.39,12.31-9.14,17.48,8.06,7.41,15.05,15.82,21.59,24.61,9.59-9.81,21.13-18.28,34.66-21.73,2.2-.56,5.46-1.4,7.65-1.59,2.57-.23,6.14.49,8.47-.28,1.76-.58,8.44-5.55,10.01-7.01,2.32-2.17,4.27-5.08,5.55-7.98-7.64-5.54-14.74-12.04-19.81-20.07-1.82-2.87-4.2-9.32-6.14-11.36-2.09-2.21-9.05-5.65-12.09-7.84-29.28-21.18-34.47-50.77-45.53-82.83-2.83-8.21-6.04-16.29-8.78-24.53ZM415.92,131.52l-3.85-1.52c-.16,1.39.44,5.72,1.7,6.32.83.39.77-.56.95-.97.24-.55,1.37-3.59,1.2-3.83ZM276.13,203.21c-4.25-4.75-9.18-8.23-15.65-9.39-.56-.1-4.04-.79-3.99.11.02.38,3.95,3.68,4.72,5.96,3.49,10.22-4.85,15.86-10.07,22.74-5.99,7.88-9.8,15.55-8.23,25.7.66,4.28,2.73,9.17,6.52,11.47.14-1.77-.82-3.26-.77-5.1.22-8.15,12.69-17.89,14.57-29.72.28-1.79-.66-4.08,1.38-4.97,11.97,1.54,7.05,16.56,12.78,23.02.97,1.1,7.77,6.08,8.75,5.11-.58-2.19,2.89-6.01,2.89-7.54,0-.68-1.86-3.75-2.29-4.98-1.94-5.61-.98-9.49-1.7-14.83-.83-6.15-4.85-13.06-8.91-17.59ZM278.85,290.44c13.6-4.57,16.99-17.69,12.38-30.61-3.58-10.01-11.24-9.29-16.18-16.4-4.84-6.97-.78-17.78-9.57-22.02-1.1.05-.68,5.64-.85,6.91-1.35,10.02-14.7,20.04-13.37,28.7.76,4.93,5.86,9.31,6.58,12.87.41,2.04-.51,4.34-.37,6.69.39,6.33,5.23,15.92,12.03,17.16,7.39,1.36,10.57-12.02,8.88-17.4,2.5.47,1.45,7.29,2.67,7.28l5.59-4.37c-1.28,4.77-7.64,5.78-7.77,11.18ZM297.81,236c-4.46.64-10.27,7.28-11.08,11.55-.5,2.6,2.79,4.37,4.29,6.67,4.5,6.92,5.5,17.35,2.66,25.04-2.53,6.86-8.55,10.25-14.57,13.59l.72,9.27c.5.49,8.03-2.08,9.23-2.68,5.27-2.64,7.38-8.92,10.6-13.71s7.55-8.78,9.21-14.61c2.31-8.1-6.04-10.77-10.06-15.92-4.35-5.57-4.6-13.19-.98-19.19ZM268.08,295.86c-6.99-2.39-11.74-9.14-12.51-16.42-.25-2.41.63-7.56.23-8.94-1.46-4.94-8.63-9.54-11.19-13.65-1.74-2.8-2.73-6.01-3.44-9.2-.83.53-.6,1.38-.77,2.15-1.69,7.85-.89,15.8.52,23.61-3.63-.24-5.23-4.31-7.77-6.32,1.52,16.7,14.74,36.81,32.57,38.68,1.37-.68,2.39-8.1,2.36-9.92ZM505.59,275.69c10.34,9.76,23.45,6.97,31.9-3.42-10.25-8.78-23.02-13.69-36.68-12.93-1.08.06-8.04.81-8.02,1.7,4.7,4.2,8.32,10.43,12.8,14.66ZM482.37,444.38c39.35-40.41,46.9-114.67,7.74-157.83-39.64-43.69-73.32,12.46-79.86,49.97-2.85,16.33-3.6,51.06,1.07,66.74,1.66,5.58,5.1,11.41,6.82,17.49,6.04,21.35,1.54,41.43-7.05,61.26,26.81-5.32,52.19-18.02,71.27-37.62ZM555.08,299.62c.27.48,3.45,1.36,4.19,1.39,11.63.52,21.58-20.64,6.44-23.2,1.17,5.33.25,11.95-3.88,15.81-1.32,1.23-7.69,4.32-6.75,6ZM276.9,293.37l-5.83,3.16c-7.99,37.46-17.37,78.61,3.49,113.67,14.58,24.51,40.6,45.34,68.85,51.25,1.2.25,6.38,1.28,7.08,1.08,1.42-.43.32-2.45.29-3.59-.47-18.17,2.62-34.5,9.26-51.31-31.07,13.34-62.15-8.1-73.65-36.96-8.06-20.23-8.66-42.37-8.5-63.95l-1-13.35ZM332.01,312.98c-1.33,1.32-7.84,9.67-8.62,9.53-4.83-6.1-8.5-13.09-13.66-18.94-.82-.92-6.02-6.31-6.58-6.57-1.87-.86-3.58,3.04-4.84,4.4s-5.83,4.62-6.21,5.46c-.8,1.76-1.9,9.78-2.06,12.04-2.74,39.57,20.92,100.69,70.43,73.84,4.13-2.24,7.17-3.9,9.38-8.12,2.87-5.49,5.15-12.11,7.69-17.83-3.34,1.63-7.54,3.06-11.33,2.31-2.98-.59-.87-2.87-1.07-4.75-4.06,2.84-8.35,2.48-13.05,2.5l-.73.73-.5,4.74c-8.07,2.16-18.2-2.61-22.12-9.97-1.52-2.86-3.64-7.48-5.03-10.53-4.99-10.91,2.51-26.66,14.59-28.91,3.51-3.84,5.02-9.31,7.93-13.95,2.22-3.55,4.97-6.68,7.5-10-7.87,2.64-15.83,8.17-21.71,14.02ZM558.41,308.92c5.02-.35,10.04-3.86,10.2-9.24-1.64,2-7.51,2.14-8.74,3.17-.7.59-1.85,5.65-1.47,6.06ZM397.48,305.52c-.89-.79-5.21,2.69-5.82,3.64l4.38,2.47,1.45-6.11ZM388.24,334.21c-.34-3.03,3.25-14.99,1.47-16.78-.42-.43-1.57-.8-2.18-.73s-5.17,3.96-5.55,4.69c-2.24,4.4,1.22,6.43,3.54,9.46.68.89,1.07,1.91,1.63,2.73.3.43-.08.9,1.08.63ZM380.46,351.71c-2.8.77-5.37,1.53-8.26.48l-.48,9.73c3.78-2.21,8.02-5.67,8.74-10.21ZM344.97,365.81l-4.87-9.99-6.32.27c.42,5.33,6.32,8.95,11.18,9.72ZM554.86,417.2c1.31-1.46,2.88-7.29,3.06-9.34.9-10.33-5.84-22.78-12.16-30.61-7.18-8.89-16.53-16-26.96-20.68-1.52,1.41-.29,3.66-.23,5.57.22,7.52-.46,16.77-1.61,24.2-2.69,17.42-10.89,34.08-21.74,47.78.67.99.72.47,1.34.39,2.79-.37,5.08-1.37,8.08-1.07.68.07,6.43,1.64,5.16,2.86-1.11-.2-1.94-.55-3.13-.5-4.44.19-3.85,2.74-5.91,5.81-2.66,3.97-13.36,15.21-13.27,19.26.02.85.74,1.9,1.2,2.63,4.09,6.55,15.18,4.38,21.84,4.9,10.2.81,20.91,5.6,30.16,9.7,1.43-3.23,1.14-6.09,3.43-9.18,2.09-2.82,2.66-2.07,5.05-3.21,1.46-.7,2.47-3.23,4.87-3.88,3.27-.89,5.31,1.29,6.02,1.17,1.04-.17,2.63-2.67,1.27-3.58l-21.2-17.24-3.58,3.86c.1-3.21,2.16-6.38,3.87-9.01,1.94-2.98,10.62-12.27,11.19-14.1.1-.32.1-.82-.23-.72-3,1.76-6.95,2.85-10.46,2.91,2.69-2.88,4.56-5.02,5.3-9.04.25-1.34-.21-2.71.29-4.09.58-1.6,1.65,1.93,1.68,2.22.5,4.49-3.33,8.35,3.28,5.16.57-.27,3.11-1.84,3.41-2.18ZM351.71,465.55c-31.18-3.64-58-22.91-75.5-48.24l-6.12-9.68c11.77,37.71,45.85,68.86,84.83,76.33l.54-1c-1.84-5.63-3.37-11.47-3.76-17.4ZM574.94,473.26c.7-.6-4.62-6.41-5.34-7.05-.95-.85-5.58-4.73-6.59-3.17-1.34,2.06.55,2.48,1.49,3.4,3.19,3.11,5.22,7.66,10.44,6.83ZM570.08,480.55c.32-5.13-9.37-16.43-13.93-16.89-1.28-.13-4.59,1.57-3.84,3.26.24.54,4.55,3.82,5.6,5.13,1.57,1.95,2.46,4.28,3.92,6.29l8.24,2.21ZM560.35,487.36c1.8-5.56-6.01-18.85-11.5-19.34-3.12-.28-5.97,8.39-4.92,10.97l16.42,8.36ZM362.34,545.3c-1.04.28-4.8,3.14-5.71,4.04-3.71,3.64-6.55,10.49-6.76,15.65-.02.6.11,1.51.71,1.63,1.04.2,13.2-7.56,15.06-8.75.93-4.2-.27-8.36-1.96-12.15-.33-.6-.75-.57-1.34-.42ZM372.69,577.3c.71.52,3.05-2.74,3.6-3.44,1.44-1.85,9.24-13.01,9.42-14.41.33-2.48-2.64-9.16-4.78-10.58-6.03-3.99-11.49,4.39-12.08,9.77-.73,6.74.73,12.75,3.84,18.66ZM396.87,548.23c-3.28.63-6.99,8.25-6.68,11.29.21,2.06,6.44,12.01,8.06,13.86.4.46,1.18,1.67,1.88,1.5,4-5.12,5.97-11.53,4.3-17.89-.85-3.22-3.44-9.55-7.56-8.76Z"/>
  <path d="M425.68,113.71l-.99.52c-6.41-3.09-14.41-2.67-20.91-4.88-1.06-.36-2.29-.62-2.42-1.97-.4-4.05,10.16-17.69,14.35-17.7,2.98-.01,6.75,7.26,7.76,9.71.48,1.17,2.2,5.66,2.2,6.55v7.78ZM411.58,95.47c5.62,1.66,5.65,9.31,6.07,14.11l5.34,2.43c1.26-.24.72-5.24.53-6.35-.51-2.95-4.76-12.1-7.83-12.62-1.57-.26-4.02.55-4.11,2.43ZM410.12,97.43c2.47,2.83,3.37,4.72,3.43,8.52.03,1.67-1.54,3.44,1.63,3.1,1.63-.55.13-6.35-.44-7.74-.71-1.74-2.45-4.37-4.62-3.89ZM411.1,104.72l-.74-3.4c-1.95-.3-1.79,1.63-1.7,2.91l-2.91-.48c.25,5.08,2.4,1.04,2.77.96.76-.17,1.77.12,2.58.01Z"/>
  <path d="M362.48,483.47c7.3,8.41,17.1,9.08,22.61-1.46,2.06,6.05-7.08,11.73-12.17,11.2-4.47-.47-10.63-4.71-10.44-9.74Z"/>
  <path d="M374.38,111.69c1.81,0,2.94,2.74.61,3.85-4.01,1.91-3.37-3.85-.61-3.85Z"/>
  <path d="M351.55,114.93c2.1-.63,3.01,3.4,1.42,3.88-2.1.63-3.01-3.4-1.42-3.88Z"/>
  <path d="M531.67,236.96l-3.31-9.57c-4.64-11.36-11.92-21.28-19.54-30.78.38-.35,2.93,1.77,3.41,2.18,10.24,8.75,18.36,24.8,19.44,38.17Z"/>
  <path d="M332.33,241.34c-4.45,10.72-8.39,20.29-10.14,31.91-.54,3.56-.23,7.62-1.19,10.97-.14.5-.11,1.47-.82,1.36-.56-13.28,2.05-32.44,10.58-43.13.46-.57.55-1.33,1.56-1.11Z"/>
</svg>