<?xml version="1.0" encoding="UTF-8"?>
<svg id="katman_1" data-name="katman 1" xmlns="http://www.w3.org/2000/svg" viewBox="0 0 841.89 595.28">
  <path d="M271.81,81.19c11.07,10.84,21.01,22.42,30.05,35.07,14.83-6.05,30.15-10.88,46-13.57,26.59-4.51,52.71-3.44,78.85,3.19,12.72,3.22,24.7,8.17,36.52,13.7,1.56-.16,5-5.53,6.37-7.02,42.27-46.03,122.88-90.32,186.9-85.8,17.97,1.27,17.31,7.72,12.58,22.74-5.11,16.25-15.14,34.31-24.71,48.4-28.23,41.52-68.15,72.46-117.24,85.25,5.36,15.44,7.23,31.18,8.9,47.36.45,4.38.08,9.38.71,13.92.25,1.79,2.63,12.92,3.45,13.1,29.68-20.69,60.93-39.42,93.53-55.21,8.36-4.05,22.29-11.39,30.75-13.75,2.05-.57,4.86-1.16,6.64.32,2.38,1.99,4.15,17.43,4.69,21.36,4.27,30.79,6.94,68.12,5.2,99.11-.11,1.93-.64,8.16-1.37,9.44-1.19,2.1-5.75,3.31-8.06,4.02-20.89,6.41-44.35,9.33-65.65,14.45-.93.22-1.87.49-2.49,1.31,7.42,14.16,15.27,28.15,22.35,42.48,4.55,9.22,10.12,19.88,13.98,29.25,2.12,5.14,4.77,9.27-1.66,12.55l-47.14,13.92c-.89,1.26,5.42,10.76,6.42,12.73,2.81,5.5,6.2,12.06,8.24,17.82,3.56,10.07,1.08,10.37-7.93,13.03-11.21,3.3-22.97,5.2-34.31,7.96-.79.91,6.06,19.69,6.18,23.35.14,4.69-3.23,5.19-6.83,6.19-6.21,1.73-13.06,2.26-19.3,4.08l-7.95,13.84.97,1.37c10.6,1.5,21.87,3.02,32.14,6.01,6.65,1.94,22.51,7.7,10.87,14.96-14.86,9.27-66.06,14.27-85.07,16-72.22,6.6-149.68,6.35-221.86.01-24.22-2.13-67.29-4.49-88.81-14.18-20.63-9.29,3.43-16.05,12.71-18.7,2.1-.6,12.49-2.12,12.84-3.73-10.66-16.23-22.96-41.08-20.96-60.97.71-7.11,5.44-8.24,6.22-10.94.95-3.32-.48-4.69,2.41-8.4,3.92-5.03,7.64-2.07,9.82-3.53.47-.32,1.45-3.59,2.24-4.75.87-1.28,3.73-3.24,4.01-4.31.45-1.75-2.29-4.58-3.02-6.3-9.83-23.4,4.24-54.64,16.57-74.81,1.45-2.38,10.62-15.03,10.71-16.06.14-1.73-3.35-3.76-4.8-5.35-24.15-26.51-33.21-58.46-18.86-92.61,2-4.77,5.15-9.3,6.63-14.35,3.86-13.11,3.93-27.05,8.71-40.87.94-2.71,5.63-12.15,5.15-13.9-48.78-19.74-86.88-63.19-102.21-113.39-2.96-9.69-8.03-30.29-5.11-39.71,2.16-7,12.45-7,18.59-6.82,45.41,1.31,94.84,29.89,126.41,60.8ZM256.97,428.51h9.85c.22,0,2.04-1.29,2.7-1.43,2.8-2.73-7.29-7.99-9.37-8.75-.19-1.63,0-1.01.92-1.28,1.51-.44,7.66-.86,7.82-2.83-1.58-3.49-4.52-6.12-6.12-9.62-3.74-8.15-2.94-15.86-1.35-24.4,1.34-.19,1.03-.07,1.42.8,1.31,2.95,1.82,7.31,2.86,10.51.27.84-.25,1.69,1.11,1.4,19.13-24.33,49.98-31.98,79.79-26.7.35-13.3,10.44-49.21,27.45-27.45l.82.18c11.26-5.07,23.67-9.91,36.22-10.26,12.61-.35,10.87,4.1,6.81,13.17-4.23,9.46-9.73,15.3-15.38,23.4-.38.54-.88.63-.62,1.59,18.83,2.58,34.56,13.26,46.09,27.96,7.05-7.41,15.69-13.81,25.75-16.51-7.51,6.6-15.05,13.06-21.94,20.33-1.61,1.7-12.06,12.89-12.31,13.79-.69,2.48,5.66,3.43,7.55,4.03v1.89c-2.28-.3-11.05,3.56-9.25,6.38,1.83,2.86,10.57,2.35,13.7,3.17.35.44-8.27,5.03-6.99,7.61,3.71,1.16,7.67.74,11.44.01.27,2.92-7.3,3.97-5.12,6.7.76.95,4.86,2.78,6.23,3.31,15.85,6.22,33.35,1.58,47.16-7.21l14.03-9.8c-7.9,9.64-15.4,20.09-27.11,25.33-3.78,1.69-7.89,2.56-11.67,4.22,11.36,8.36,18.13,21.39,21.79,34.79,4.33,15.83,4.51,39.18-1.78,54.52-1.51,3.68-4.08,6.52-5.39,10.18,42.08-15.69,54.32-64.73,49.58-105.52-5.42,5.86-10.25,12.6-17.21,16.8-8.03,4.84-10.2,3.32-9.4-6.22,1.51-18.03,10.35-38.07,15.04-55.55.78-5.5-8.96-27.5-11.83-33.64-3.49-7.47-7.57-14.62-11.61-21.78-.8-.55-6.35,3.91-7.62,4.67-5.39,3.26-11.56,5.98-17.61,7.82-1.97.6-4.41,1.42-6.49,1.14,20.83-14.7,40.24-31.09,50.33-55.2s4.15-38.66.59-63.11c-2.28-15.64-1.88-30.08-5.46-46.03-.7-3.13-3.4-15.1-4.5-17.11-.9-1.64-6.94-5.52-8.83-7.06-1-.81-3.06-1.8-2.88-3.15,2.04.25,3.64,1.84,5.68,2.26,9.22,1.9,40.36-11.11,49.85-15.7,3.72-1.81,16.49-8.07,18.8-10.44,1.71-1.76,2.93-7.21,3.55-9.8,5.09-21.29,1.89-47.74-4.6-68.51-.87-2.78-5.42-15.93-7.17-17.01-1.48-.91-7.81,2.11-9.76,2.96-18.4,8.07-39.03,21.16-55.02,33.34-16.7,12.72-32.98,27.58-44.24,45.4-.74-1.31,0-3.16-.44-4.64-.54-1.78-12.26-7.1-14.71-8.18-49.16-21.64-109.14-17.02-156.08,8.15-6.6,3.54-12.8,7.74-19.16,11.67-.47-.48,3.21-4.77,3.79-5.42,2.57-2.9,6.05-6.21,8.91-8.89,2.36-2.21,6.06-4.24,7.63-6.97.04-2.19-11.41-16.18-13.65-18.78-17.64-20.46-39.48-38.18-62.95-51.49-2.23-.02-10.13,10.9-11.63,13.16-14.42,21.78-21.49,48.74-16.48,74.73,9.48,9.93,21.7,18.18,33.73,24.75,3.08,1.68,17.43,9.14,19.78,8.81,1.93-.28,4.18-4.65,5.44-3.83l-.33,2.53,4.15-3.48c-8.11,13.49-14.26,27.99-17.61,43.42-1.96,9.03-2.53,19.6-5.46,28.24-2.5,7.37-7.34,14.33-9.68,22.11-3.88,12.92-3.57,25.72.15,38.63l3.34,8.41c-1.61-12.04,1.17-24.91,13.13-30.42,22.3-10.27,43.51,16.13,39.47,37.56-4.21,22.31-29,24.87-42.74,9.39-.47-.1-.44.67-.31.94.77,1.69,8.36,10.27,10.13,12.13,6.26,6.52,15.51,13.78,22.98,18.97,3.45,2.4,7.95,4.27,10.75,7.36-1.92.05-3.63-.98-5.49-1.23-7.77-1.04-10.72-2.6-17.81-6.29-1.69-.88-5.95-4.6-7.55-3.34-1.01.8-4.23,5.43-5.26,6.85-13.36,18.46-34.12,58.58-17.27,79.33,7.61,9.38,22.58,10.61,33.38,6.71,10.19-3.68-1.56-6.15-2.88-9.25-.53-1.26.87-.95,1.6-.97,3.1-.09,6.39,1.91,9.2-.94l-6.36-7.3ZM631.4,415.15c-12.2-26.07-25.45-51.65-38.92-77.09-1.33-3.21-.38-6.96,3.17-7.92,20.93-4.99,42.25-8.56,63.11-13.81,2.29-.58,11.6-2.58,12.38-4.15,1.61-37.94-.96-75.72-6.69-113.17-42.97,18.15-83.96,41.34-121.78,68.61-2.01,2.12-.3,4.92-.24,7.34.37,15.44-1.98,28.46-8.47,42.44-3.15,6.78-7.48,12.9-11.27,19.31-.07,1.38.93,2.36,1.66,3.38,10.05,14.2,23.32,27.81,33.58,42.07,2.87,3.99,7.45,8.55.94,11.64-2.63,1.25-17.2,4.23-17.69,5.87,1.11,5.09,3.27,9.88,4.72,14.86,1.18,4.05,1.95,10.31,3.37,13.8,1.45,3.58,10.14,13.18,12.99,17.53,2.16,3.3,5.78,7.24,5.27,11.26-4.85-3.6-7.86-6.92-14.22-3.73l-.08,29.16c2.55-1.99,5.8-2.65,8.89-3.5,11.26-3.11,23.04-4.83,34.31-7.97.25-1.08-.14-1.99-.48-2.98-3.49-10.41-12.51-21.72-17.01-31.95-.89-2.28.2-4.29,1.92-5.75l50.55-15.25ZM262.47,288.88c-19.79-20.41-45.68-.76-33.58,25.63,5.61,12.23,22.02,22.79,34.45,13.26,11.93-9.14,8.61-29.1-.87-38.89ZM412.08,336.33c-22.31.26-52.3,11.8-50.22,38.78l1.94-.42c5.12-8.07,11.98-15.16,19.37-21.18,2.87-2.34,23.13-16.75,25.09-15.27-4.89,4.23-10.66,7.76-15.83,11.82-9.44,7.42-18.59,15.46-25.49,25.37-.45,1.51,2.53,1.01,3.51.96,20.41-.99,35.63-22.46,41.61-40.07ZM356.77,393.54c-2.96-16.02-3.35-32.2,6.47-45.98,1.48-2.08,5.5-4.22,3.35-6.73-6.92-8.11-12.41,12.04-13.34,16.45-2.55,12.11-1.86,24.03,1.55,35.88l1.96.37ZM548.76,387.18l-30.51-38.77,18.73,40.7c1.92,1.98,9.15-1.8,11.78-1.93ZM372.35,382.1c-3.03.31-6.45-.22-9.54,0-1.87,0-.83,10.08.63,10.16,5.11-2.81,10.25-6.57,15.88-8.27,1-.3,8.73-2.77,7.97.33-11.39,6.59-21.04,15.63-35.2,14.23-9.12-.9-16.55-8.19-24.47-12.08-.36-5.39,9.48-.38,12.13.9,1.48.71,8.69,5.54,9.4,4.9l-2.85-15.9c-.73-1.51-8.75-2.42-10.79-2.56-23.98-1.59-44.83,4.98-60.75,23.21-.67.77-4.21,4.87-4.32,5.24-1,3.34,5.1,6.55,5.6,10.73.43,3.64-2.54,5.45-2.54,6.94,0,1.39,3.5,3.36,2.43,8.12-.66,2.93-5.26,5.01-5.52,5.96s.67,2.56-.1,4.94c-.92,2.83-2.87,3.14-3.45,4.19-.65,1.17-.16,2.92-1.04,4.68-1.75,3.5-9.07,5.72-9.46,7.7-.33,1.7.4,7.4.65,9.53,3.88,33.79,32.03,85.33,66.12,96.62,13.35,4.43,18.21,1.43,30.49-1.9,14.68-3.98,17.27,2.11,29.63,3.43,16.39,1.76,38.3-14.59,46.39-28.2-4.94-18.14-5.43-39.37.89-57.25,3.6-10.17,11.09-21.89,22.26-24.46.98-1.1-4.12-3.45-5.03-4.18-3.04-2.46-3.48-5.23-5.16-6.91-.92-.91-2.68-1-3.8-2.55-1.75-2.42-1.26-4.86-.69-7.55-.37-1.31-5.47-1.99-6.63-6.75-1.24-5.06,2.64-6.55,2.66-8.59,0-.85-1.3-2.19-1.55-3.33-1.29-5.89,5.13-7.78,8.01-11.93-6.87-9.99-16.79-18.09-28.07-22.68-4.92-2.01-16.3-5.45-21.12-3.73-6.38,2.27-11.59,6.26-19.04,7.02ZM520.79,466.65c.93.91,6.28-3.61,7.29-4.46,3.71-3.14,14.12-13.79,14.85-18.26.22-1.35-1-7.95-1.34-9.84-.51-2.81-5.09-21.35-6.51-22.1-1.24-.66-.88,1.07-1.01,1.51-5.17,17.61-11.05,34.78-13.28,53.16ZM197.22,474.91c-1.31,6.85.4,14.3,2.21,20.99,5.19,19.18,19.91,44.87,35.98,56.83,19.65,14.62,37.77,11.52,35.53-16.46-1.17-14.63-18.29-49.63-27.98-61.02-4.17-4.9-12.07-12.49-17.79-15.27-1.73-.84-9.32-4.11-10.06-1.82-.85,6.13,3.03,11.48,3.71,17.38-2.85,2.84-8.92-11.84-9.49-12.43-1.22-1.24-4.9-1.46-6.1-.29-4.05,3.98,4.54,18.35,3.51,19.72-4.15-1.11-6.09-5.35-9.52-7.63ZM247.44,457.75c-1.79.09-3.63-.13-5.42,0-.95.07-1.84-.49-1.57.95.93.66,6.81,7.61,7.62,6.68l-.63-7.63ZM470.54,462.87c-2.53-.79-5.18-1.82-7.91-1.29-6.19,1.21-5.78,16.48-7.64,16.5-4.55-1.87-.95-15.64-1.6-16.52-17.38,10.25-20.38,37.91-18.35,56.18,2.23,20.01,17,57.07,43.26,47.23,29.29-10.97,19.05-70.25,4.87-90.27-7.85-11.08-11.14-7.36-12.61,4.66-4.63.04-3.06-8.31-2.1-11.33.57-1.81,2.4-3.12,2.08-5.17ZM553.84,493.98c-1.76-.26-.97.22-1.27.95-.92,2.23-.82,4.39-1.32,6.32-.32,1.24-2.85,8.9-2.49,9.26l9.53-1.91-4.46-14.62ZM278.57,537.22l-1.26.31c.28,6.04-1.11,11.9-3.17,17.48.95.86,14.43-1.67,15.89-2.86,1-.81.46-.59,0-1.27-1.82-2.72-6.5-6.82-8.89-9.56-.77-.89-2.39-3.95-2.58-4.11ZM434.26,546.83c-1.64-.94-7.92,5.73-6.92,6.91l12.07,2.55c.9-1-4.99-7.57-5.16-9.45Z"/>
  <path d="M151.44,239.07c3.97-26.25,35.59-22.57,38.62,3.02,1.07,9-3.92,32.79-8.61,40.66-1.55,2.6-3.76,3.97-6.84,4.02-14.43.23-45.42-7.48-51.17-22.56-5.71-14.96,6.45-30.45,22.44-26.89,1.77.39,3.49,2,5.56,1.75ZM176.65,231.66c-8.59-7.66-18.33.94-18.27,10.91.01,2.34,2.16,7.54-1.03,8.47-3.37.98-6.88-3.82-9.91-5.1-12.58-5.3-22.09,7.31-14.7,17.88s30.12,14.81,42.15,15.21c4.24-11.87,12.71-37.62,1.78-47.37Z"/>
  <path d="M171.64,311.66c7.21-.99,14.52,5.78,14.81,12.9.23,5.52-3.81,14.67-6.79,19.33-4.93,7.72-8.34,6.46-16.31,3.73-10.08-3.45-22.32-11.94-16.83-24.16,2.65-5.9,10.71-7.87,16.06-4.37,1.99-3.48,4.79-6.84,9.06-7.43ZM155.61,334.08c3.78,4.38,10.54,6.95,16.17,7.69,3.02-4.96,11.42-18.79,2.88-22.02-7.38-2.79-3.33,9.76-8.99,10.23-4.62.38-5.47-6.98-10.4-4.76-3.71,1.66-1.73,6.48.34,8.86Z"/>
  <path d="M453.91,225.91c36.8-3.44,43.61,54.98,7.37,59.5-39.12,4.87-43.91-56.08-7.37-59.5ZM455.11,237.36c-1.34-1.66-5.55-3.97-7.77-4.04-11.56-.35-15.73,15.61-5.53,20.84,11.36,5.82,19.89-8.63,13.3-16.8ZM449.71,266.51c0-2.48-2.01-4.5-4.5-4.5s-4.5,2.01-4.5,4.5,2.01,4.5,4.5,4.5,4.5-2.01,4.5-4.5Z"/>
  <path d="M304.43,274.44c-27.45,27.46-64.85-16-37.93-42.07,28.1-27.22,63.41,16.59,37.93,42.07ZM304.43,236.11c-5.25-5.84-15.44-3.89-17.72,3.77-3.02,10.15,9.07,18.33,16.99,11.28,3.74-3.33,4.03-11.37.72-15.05ZM294.31,260.16c-6.22,1.27-3.22,10.45,2.24,9.31,5.8-1.21,4.22-10.63-2.24-9.31Z"/>
  <path d="M474.65,336.7c-26.86-21.61,8.34-71.21,35.34-49.65,27.9,22.28-7.72,71.87-35.34,49.65ZM494.6,286.29c-28.35,1.67-34.59,47.99-7.75,51.24,32.99,3.99,40.03-53.14,7.75-51.24Z"/>
  <path d="M339.55,295.07c.41.28,1.33,4.99,1.84,6.1,3.71,8.07,12.2,11.14,20.05,6.45,2.52-1.5,4.12-4.55,7.72-4.4,4.01.18,7.49,6.28,12.78,6.98,9.66,1.29,14.9-5.77,16.19-14.53,8.03-.6,3.44,10.21.29,13.96-8.04,9.56-21.16,7.77-29.34-.57-5.91,3.99-10.12,6.97-17.7,6.27-7.88-.72-17.15-9.88-15.56-18.09.32-1.67,2.49-3.05,3.74-2.18Z"/>
  <path d="M373.9,282.97c.8,5.73-13.35,4.1-13.35.91,0-3.44,11.11-2.52,13.35-.91Z"/>
  <path d="M291.3,430.42c.18,3.67,4.23,4.11,4.93,8.1,1.87,10.65-15.01,12.44-14.51,1.13.18-4.17,4.6-6.02,5.04-7.77.27-1.07-2.26-5.91-2.46-8.13-1.29-13.72,15.09-31.25,29.23-26.05,10.85,3.99-.37,10.12-3.68,15.35-5.01,7.92-5.08,19.58-18.54,17.37ZM305.76,400.71c-9.43,1.29-19.63,14.06-17.51,23.54.8,3.59,4.75,3.45,7.77,2.96,5.97-.97,7.79-11.74,11.01-16.32,2.22-3.15,5.91-5.11,7.14-8.73-2.17-1.79-5.68-1.81-8.42-1.44ZM287.95,435.61c-6.6,1.39-1.2,12.99,3.99,7.21,2.85-3.17,0-8.05-3.99-7.21Z"/>
</svg>