<?xml version="1.0" encoding="UTF-8"?>
<svg id="katman_1" data-name="katman 1" xmlns="http://www.w3.org/2000/svg" viewBox="0 0 841.89 595.28">
  <path d="M471.73,196.91l25.98-14.55c.95-.08.91-.04.85.85-.15,2.47-3.88,12.31-2.26,13.46,1.22.86,3.5-1.02,4.83-1.38,1.48-.39,8.6-1.24,8.92-1.7-.18-13.02-1.11-26.37.96-39.29,3.02-18.92,13.71-37.5,21.71-54.86,10.52-22.82,22.37-46.88,26.71-71.67.91-5.21,1.29-10.59,1.17-15.87,3.53-.79,6.49,4.63,8.04,7.33,8.47,14.71,13.96,35.53,16.47,52.28,7.75,51.65.6,107.41-25.54,153.17-1.37,2.4-5.17,6.26-5.16,8.85s2.82,6.28,3.66,8.67c3.35,9.49,5.61,19.59,9.51,29.06,9.72,23.59,24.81,34.02,12.67,61.87-4.1,9.39-10.25,17.35-16.87,25.04,6.54,3.29,12.99,6.29,18.71,10.93,1.35,1.09,5.59,4.72,6.44,5.86s3.55,6.4,2.25,7.29l-12.31-1.42c-.61.62,3.92,9.18,4.5,10.87,1.87,5.54,5.12,20.87,2.49,26.01-.48.94-2.19,1.15-2.45,2.05-.54,1.9,2.63,8.92-.05,10.57-2.7,1.66-8.83-7.28-11.74-7.57.73,4.73,1.84,9.47,2.23,14.26.25,3.04-.5,7.16.12,9.94.58,2.56,8.13,14.83,10.04,17.91,4.69,7.56,14.24,21.93,21.53,26.54,9.33,5.89,30.19,9.37,20.21,25.46-1.93,3.11-5.02,2.95-6.48,4.42-.48.48-.59,1.67-1.25,2.38-3.35,3.62-5.82,1.94-8.95,3.35-.76.34-1.41,1.66-2.28,2.19-17,10.35-48.82-7.92-63.08-18.46-1.39-1.03-7.67-7.55-8.99-6.38,1.85,10.29,4.23,24.25-8.36,28.25-4.21,6.93-11.51,4.44-18.16,5.33-.73.1-1.37.86-1.71.86-.72,0-7.69-2.28-8.64-2.89-3.01-1.94-3.81-5.09-5.89-7.53-2.67-3.13-16.48-16.83-20.07-16.25-4.49,9.82-10.46,16.19-19.07,22.42-7.86,5.69-11.99,5.51-19.67,9.37-8.65,4.35-13.23,17.03-18.82,23.95-3.15,3.91-5.8,3.93-10.64,3.51-3.66-.32-2.83-.52-6.85-.17-4.23.37-6.79-2.53-8.96-3.05-1.19-.29-2.97.92-4.36.93-2.72.02-4.73-1.63-6.44-3.52-5.74-6.31-7.38-21.24-4.56-29.06l-.17-3.63c-5.13,4.55-10.64,8.83-17.06,11.44-2.65,1.08-9.89,3.13-12.6,3.61-2.19.38-6.21-.64-7.84.55-5.2,8.07-9.38,16.76-15.34,24.34-3.6,4.58-10.25,12.68-16.48,12.63-1.85-.01-3.11-1.04-4.53-1.15-3.83-.27-7.25,1.55-11.55-1.25-1.07-.7-1.27-1.99-2.6-2.43-1.48-.49-3.13-.07-4.66-.37-3.14-.63-5.73-2.44-6.74-5.56-3.08-9.45,1.76-28.63,4.37-38.48,3.07-11.61,11.45-40.81,22.82-45.93,2.31-1.04,4.07-.74,6.26-1.57l4.74-17.89c-.59-.58-12.24,2.93-14.33,3.27-45.97,7.61-95.39-17.95-120.93-55.55-15.94-23.46-22.34-49.48-23.46-77.71-1.59-40.09,9.87-99.25,45.29-124.03,2.03-1.42,4.79-3.29,7.27-2.31,1.08.75.33,12.28.53,14.56,1.67,19.35,14.32,33.46,29.26,44.24,34.51,24.92,90.49,35.35,116.29,69.57,1.26,1.67,6.66,11.44,7.4,11.65,3.16-.72,5.77-3.23,8.76-4.55,9.01-3.97,19.03-5.89,28.89-5.49-.93-4.4-3.15-8.3-4.44-12.61-1.11-3.69-2.91-10.37-3.36-13.97-.87-7.01.3-15.73-.56-22.35-.1-.77-.13-1.47-.81-1.99l-27.39-3.91c-37.17-7.47-71.27-23-99.55-48.01-10.07-8.91-21.94-21.83-28.7-33.34-.97-1.65-2.49-6.6-3.4-7.64-.5-.58-1.47-.35-1.98-.94-2.69-3.1-9.27-20.46-10.3-24.93-1.91-8.34,1.27-4.74,5.31-3.07,25.34,10.47,48.66,9.47,74.76,13.55,27.66,4.33,57.28,14.67,80.81,30.42,9.43,6.32,17.58,14.08,26.03,21.5l20.69-34.67c1.4-.34,4.23,6.46,4.46,7.83l2.47.5c.03-2.05,1.41-2.04,2.27-3.01,3.6-4.07,6.91-9.29,10.33-13.17.74-.84,5.03-5.04,5.89-4.44l1.4,7.82,18.97-16.25,2.51-.46c-.13.65.61,1.6.61,1.9v13.69ZM467.82,200.26v-12.3l-2.09.16c-5.31,5.6-11.71,10.14-17.87,14.82l-1.27.11-1.4-5.02-17.89,18.42c-2.84-1.67-1.54-6.96-5.3-6.69l-16.69,30.05.17,1.23c2.28,2.78,5.55,5.8,7.48,8.77.57.88,1.89,3.03,1.49,4.1-3.05-2.36-5.86-4.42-8.67-6.98-12.26-11.11-22.45-21-36.71-29.8-37.8-23.34-79.05-29.63-122.68-33.83l-26.74-7.36c5.14,18.9,17.93,36.79,31.29,50.87,35.2,37.1,81.94,54.51,131.12,62.84,4.77.81,10,.8,14.78,2.27,1.91,1.78-5.97.63-5.91,1.64-1.2,33.41,14.72,68.6,45.76,83.43,25.38,12.12,65.65,13.99,91.31,2.22,21.8-9.99,42.57-29.91,49.77-53.08,6.66-21.42-3.09-29.93-10.73-48.2-4.51-10.8-7.43-22.25-11.45-33.27-1.44-3.94-6.47-13.42-6.73-16.75-.38-5.07,2.59,1.11,3.63.84,14.25-20.74,22.06-45.13,26.29-69.85,2.56-14.95,2.24-28.51,3.6-43.35.46-5,.26-5.13.03-10.05-1.08-22.29-1.4-42.98-8-64.67-2.22-7.31-5.79-14.41-9.35-21.12-.84-.16-1.26.18-1.55.95-.81,2.14-.89,7.55-1.41,10.33-3.85,20.77-12.15,41.74-20.65,60.96-9.61,21.72-21.31,39.77-25.51,63.91-2.17,12.47-2.34,25.62-2.29,38.25,9.72-1.06,1.43,4.18,2.82,6.12l8.36,2.26c-3.25-20.37-.03-40.02,5.63-59.48,7.25-24.92,21.11-47.44,29.04-72.13,2.68-8.36,4.21-17.38,6.67-25.75.24-.81-.31-.97,1.13-.81,2.94,9.59,4.78,19.39,6.09,29.41,5.8,44.53,1.65,93.83-19.36,134.23-.46.89-1.43,1.04-1.79,1.7-1.94,3.58-3.66,8.63-5.81,11.93-.51.79-.86,1.82-2.03,1.6-.21-5.12,3.54-9.37,2.79-14.53-3.17,1.04-4.37,5.07-8.11,5.4-2.01-.23-1.27-5.08-.26-6.26-1.22-3.27-2.72-.51-3.23-.31-3.6,1.46-7.36,2.75-11.31,2.27l1.67-1.95c-.02-1.2-13.87-6.46-16.2-6.43-.59-2.67,2.83-2.02,2.23-4.46l-21.79,4.47c-.2-4.36,2.57-8.05,3.35-12.29-3.47,1.43-23.6,13.25-25.71,11.18ZM254.85,300.87v-10.06c-3.37-1.09-6.45-2.97-9.45-4.8-14.26-8.67-30.07-19.95-37.71-34.95-4.38-8.6-5.53-17.34-6.88-26.58-.21-1.43,1.44-3.86-.45-5.21-2.03,1.72-4.41,3.01-6.44,4.73-23.32,19.87-36.16,67.63-37.47,97.24-.22,4.92.21,9.91.03,14.84,1.6.3.9-.44,1.26-1.22,2.64-5.67,5.02-11.42,8.43-16.74,3.64-5.67,4.71-6.68,9.29-1.3,1.84,2.16,4.76,6.3,6.41,8.68,1.37,1.98,1.78,4.62,3.95,6.1,1.95.01,4.24-14.72,5.44-16.9.35-.64.82-1.59,1.72-1.46l25.53,22.28-1.06-25.1c1.42-.68,2.89-.06,4.3.35,5.3,1.53,10.31,4.12,15.62,5.65l1.21-.83-5.53-24.23,21.8,9.5ZM343.53,341.32c-7.94-8.96-18.34-15.35-28.67-21.35l-54.97-26.36-1.69,12.3c-.17.18-2.76-.69-3.28-.91-4.57-1.91-11.62-7.75-15.7-8.9-.93-.26-1.78-.59-2.57.28-.42.59-.25,1.21-.14,1.85.94,5.38,4.83,12.73,5.8,18.27.24,1.38.47,2.74.16,4.14l-1.18.82-17.04-5.93c-.83-.2-2.15-.37-2.69.41-1.47,2.11,1.41,22.25.31,26.3-2.59.46-4-2.14-5.67-3.55-4.85-4.12-9.52-9.17-14.44-13.5-1.49-1.31-6.13-5.72-7.57-5.86l-7.81,20.68c-5.01-5.54-8.68-13.5-13.47-18.95-.46-.53-1.36-1.92-2.17-1.72-1.32,2.02-3.15,4.27-4.32,6.32-2.11,3.66-8.64,17.29-9.26,20.92-.93,5.45,2.35,20.73,3.84,26.64,14.87,59.01,69.17,98.71,129.14,96.16,6.14-.26,14.01-1.07,19.94-2.86.85-.26,2.02-.64,2.61-1.31,4.81-12.47,10.38-25.57,18.51-36.27,1.22-1.61,6.28-6.51,6.64-7.33,1.19-2.67,1.25-7.86,2.65-11.32s4.79-7.31,4.63-11.02c-2.1,1.37-5.13,3.81-6.08.43-.25-.88.09-7.71.21-9.09.71-7.61,4.74-18.7,9.01-25.08,1.76-2.63,4.47-4.65,6.1-7.38.19-2.12-8.91-14.64-10.85-16.82ZM398.89,349.12c-1.92-2.61-14-.74-17.28-.02-20.74,4.59-36.01,21.35-38.46,42.59-.1.9-.22,3.98.86,4.21,3.6-2.2,7.56-5.33,12.01-4.74-1.56,3.11-4.18,5.42-6.04,8.49-3.67,6.03-6.52,13.88-7.37,20.85.83.85,6.32-4.13,7.64-4.93,1.17-.71,3.93-2.15,5.22-2.05-5.26,11.11-6.24,23.13-9.32,34.84-.41,1.54-2.49,5.63-2.43,5.95.16.82,1.01.73,1.7.61,8.05-1.44,15.63-8.56,23.45-10.94.15.82.46,1.35.33,2.25-.34,2.37-7.12,16.08-6.47,16.75l19.28-9.5c1.25-.22.72-.06.57.57-.86,3.56-3.63,6.36-4.2,10.06,9.94-3.01,18.5-8.13,26.57-14.53.51-.4,1.33-.42,1.74-.75,1.58-1.28,4.83-6.1,7.17-6.53,1.17-.12.73.07.85.83.73,4.89-2.36,10.68-3.35,15.38,2.07,1.92,16.19-10.11,18.17-12.29,2.85-3.12,10.47-13.63,9.77-17.57-.15-.86-1.03-1.49-1.11-2.3-.15-1.67-.42-3.43-.54-5.04-.65-8.49,2.59-21.62,7.58-28.69.81-1.15,5.43-5,5.25-5.92-10.12-3.91-20.42-6.64-29.58-12.9-9.05-6.18-14.94-13.75-21.21-22.4-.46-.64-.38-1.69-.8-2.26ZM584.08,377.45c.24-.98-.4-1.12-.83-1.68-3.02-3.96-11.6-10.23-16.1-12.41-1.3-.63-6.01-2.34-7.08-1.86-3.99,3.31-7.9,8.22-12.88,9.81l.56,1.95c14.45,6.05,24.59,18.8,31.02,32.7.83,1.79.84,5.4,3.07,5.59v-9.78c0-3.04-4.59-16.05-6.46-18.69-.95-1.33-2.53-2.4-3.59-3.67,0-.21,3.42-1.96,3.62-1.96h8.66ZM489.61,460.46v-11.74c0-.16,1.26-2.73,1.95-2.51,1.91,1.66,1.54,5.7,2.82,7.25.78.94,5.81,3.08,7.65,4.49,6.66,5.13,13.23,13.36,18.9,19.41,4.17,4.31,7.5,14.58,11.17,18.3,2.93,2.97,3.68.86,5.24-2.01,4.4-8.04,5.36-17.89,7.05-26.77,5.34,1.18,6.01,8.77,9.22,12.29,5.78-10.3,2.33-23.42,4.2-34.65,1.29-.91,3.99,5.02,4.79,6.1,4.77,6.38,6.35,8.55,6.96-1.32.74-12.02-.11-23.59-5.61-34.39,5.46-.33,8.71,6.18,13.98,5.86-2.31-16.55-12.69-33.67-27.23-42.08-2.5-1.45-6.24-4.12-9.13-3.22s-7.93,4.55-11.34,6c-19.32,8.25-40.49,10.86-61.02,8.28-4.82-.61-9.59-1.57-14.41-2.15-10.92,9.12-12.65,22.36-11.58,35.96.7,8.84,3.96,15.06,9.76,21.54,1.1,1.22,9.17,9.03,10.35,7.81.36-4.34-1.64-9.6-.06-13.77.16-.43-.1-1.14.89-.75,2.71,1.06,7.91,7.96,10.34,10.35,4.46,4.39,8.88,8.67,13.99,12.29l1.12-.56ZM348.2,422.17c-.79-.84-5.11,3.9-5.95,4.39-1.44.84-3,.78-4.24,1.35-3.91,1.79-14.41,22.73-16.56,27.6-7.93,17.96-9.99,31.76-14.53,50.31-.45,1.85-2.99,11.11-3.73,11.92-1.01,1.13-1.74.36-1.97-.82,1.25-7.28,1.28-14.86,3.93-21.84l-1.3-1.29c-.76.06-4.76,2.69-5.59,3.37-11.13,9.06-21.25,47.79-22.17,62.23-.36,5.76-1.53,19.35,7.53,17.59,4.38-.85,3.89-9.03,7.56-10.05.1,4.1-.6,8.39-2.74,11.93,2.63,3.85,6.93,4.22,10.31.94,2.66-2.58,2.13-6.6,4.46-9.52,1.27-.23.77.55.83,1.38.34,4.49-.91,7.05-2.79,10.91,1.3,1.16,6.61-2.04,7.84-3.05,4-3.27,13.42-17.78,16.2-22.51.69-1.17,4.28-7.69,4.38-8.39.11-.74.11-1.01-.46-1.55-.67-.63-8.3-2.38-10.45-3.53-.69-.36-5.68-3.68-4.65-4.57,5.62.62,9.35,3.94,15.38,4.46,34.13,2.93,52.99-24.84,59.47-54.54.48-2.2,1.78-14.16,3.69-14.19,1.02.67.79,1.48.86,2.48.62,8.16-3.41,23.72-6.45,31.61-1.24,3.21-2.92,6.36-4.68,9.33-.33,2.05,6.02,3.09,7.63,3.38,14.19,2.57,28.01,2.47,42.25.07,7.83-1.32,25.77-5.91,31.87-10.61.72-.56.99-1.16,1.46-1.89-20.47-9-53.53-10.28-56.99-38.01-.2-1.62.21-3.33-.07-4.96l-2.21-1.24,1.71-11.4-21.68,12.69-15.4,4.01c-2.5-.76,1.33-4.09,1.83-4.88.43-.69,1.05-2.05,1.16-2.88-.6-.56-9.21,4.47-10.8,5.13-1.12.47-9.21,3.93-9.31,1.86l9.49-17.61c-.25-.24-2.67.74-3.18,1.01-4.84,2.53-10.01,5.38-15.38,6.97-1.92.57-7.28,2.13-8.84,1.25-.91-.67-.16-.9.12-1.59.93-2.3,2.62-4.19,3.65-6.42,4.55-9.77,5.26-20.67,8.54-30.86ZM443.47,439.25c-.86-1.25-1.62-2.62-2.76-3.66-2.5,3.85-4.34,8.21-7.08,11.91s-8.17,8.76-12.02,11.46c-2.46,1.73-5.36,2.69-7.73,4.57-2.69,35.34,41.05,33.17,62.5,45.93,11.06,6.58,13.97,13.23,21.91,21.68,1.82,1.94,8.54,4.82,10.88,2.54-2.96-3.98-3.79-9.5-2.78-14.25,5.05,3.26,3.05,16.22,11.41,15.07s3.24-13.99,3.12-19.54c.46-.58,2.53,1.82,2.66,2.06,1.79,3.13,1.97,7.35,2.93,10.79,2.66-.25,5-4.4,5.37-6.69,3.53-22.16-14.23-45.96-31.14-58.37-1.43-1.05-3.51-2.89-5.25-3.14-.93-.13-.9-.02-.84.84.1,1.44,1.72,10.35-1.69,9.55-3.01-.7-11.11-7.92-13.68-10.38-3.82-3.66-7.18-7.74-10.61-11.75l-1.36.89c-.09,4.66,4.5,14.09-3.59,10.22s-15.13-12.32-20.22-19.74ZM571.65,461.16c-1.05,1.31-3.6-.17-4.73-.87-2.4-1.49-3.71-4.32-6.32-5.13-.03,9.22.6,18.8-2.96,27.5-.66,1.61-3.18,7.59-5.44,6.35s-2.7-9.54-3.85-12.4c-.32-.78-.15-1.51-1.18-.5-.52.51-1.55,8.47-2.05,10.24-.68,2.41-2.58,7.48-3.65,9.76-.68,1.44-2.85,2.13-2,4.22,14.46,11.91,39.17,33.03,59.36,27.42,3.42-.95,5.93-3.04,5.35-6.89-.44-2.91-4.05-4.52-3.89-7.58,1.9-1.83,9.51,7.15,9.55,9.46,3.04.27,5.69-3.56,5.58-6.37-.13-3.26-4.44-4.61-3.95-8.12,1.87-.31,3.15.87,4.47,1.95l4.74,6.43c9.2-12.33-6.85-16-14.64-20.56-10.98-6.43-19.61-20.72-27.01-31-.31-.44-.91-.57-1.28-1.11-1.47-2.13-2.09-4.96-4.57-6.57l-1.53,3.76ZM465.02,514.96c-4.84,1.7-9.17,4.6-13.98,6.41-17.13,6.45-45.71,7.19-63.58,3.28-3.97-.87-7.28-4.14-9.66,1.21,7.96,14.65,27.63,16.93,42.81,15.95,13.46-.87,38.27-12.38,43.99-24.76.32-.7.54-1.3.42-2.09ZM423.66,545.7h-17.61c-7.49,0-19.14-5.65-25.13-10.08-1.53-1.13-3.37-4.77-4.53-1.09-1.59,5.03-2.01,16.52-.88,21.6.77,3.44,5.02,11.11,9.34,8.61,4.24-2.45,1.51-7.95,5.84-9.53l-1.58,11.07c5.07,3.86,11.58,1.42,13.5-4.47.14-.42,1.02-7.64,2.6-6.05,1,3.87.48,8.1-1.67,11.45,8.34,4.28,11.21-9.16,14.88-14.18l5.25-7.33Z"/>
  <path d="M395.71,263.98l-15.65-1.67c3.8,5.38,10.85,10.72,10.34,17.88-1.9-.66-2.35-2.55-3.66-3.61-2.63-2.12-13.87-1.57-18.14-1.98-48.96-4.69-91.93-32.33-121.57-69.59-2.7-3.39-5.93-6.59-7.27-10.89l15.93,2.79c40.15,1.47,75.67,5.39,109.22,28.84,11.2,7.83,20.75,17.91,31.38,25.63,1.44,1.05,3.86,1.53,5.01,2.82.62.69.35,1.29-.3,1.41-1.01.18-9.7-1.49-11.58-1.83-1.49-.26-3.32-2.18-4.89-.13,2.43,3.03,6.16,4.74,8.94,7.26.46.41,2.85,2.55,2.23,3.08Z"/>
  <path d="M472.09,270.88c9.22,10.84,15.01,37.88,2.44,48.16-11.86,9.7-26.29-4.14-29.38-15.91-3.3-12.56-3.62-40.72,15.68-38.6,3.92.43,8.75,3.39,11.26,6.34ZM461.51,269.11c-4.52,1.32-4.13,10.34-2.92,13.88,1.56,4.57,9.34,12.75,13.16,5.9,1.99-3.57,1.35-6.97,0-10.68-1.22-3.39-6.05-10.32-10.25-9.1Z"/>
  <path d="M540.35,249.56c3.65-.53,7.13,2.29,9.3,4.97,6.49,7.97,10.7,24.64,9.14,34.75-1,6.44-5.92,8.82-11.76,5.88-10.85-5.46-16.29-32.38-10.68-42.29.93-1.63,2.05-3.03,4-3.31ZM549.29,270c.07-1.21,1.8-3.94,1.79-4.62,0-.37-1.99-6.36-2.38-7.11-1.32-2.61-4.46-5.64-7.68-4.06-3.97,1.94,1.67,19.58,8.26,15.8Z"/>
  <path d="M549.42,314.85c.23.23-1.65,4.93-1.99,5.55-.53.97-1.66,1.43-2.32,2.71-1.89,3.64-2.51,11.09-4.05,15.51-2.28,6.55-9.5,20.69-16.74,22.38-8.28,1.94-16.61-5.29-20.61-11.89-1.6-2.64-3.57-9.34-4.89-10.76-1.14-1.23-4.19-2.09-5.85-3.65-.66-.62-4.39-5.49-1.96-4.75,3.98,1.2,5.73,4.18,10.6,3.31,9.65-1.73,22.84-16.66,30.71-16.67,3.85,0,9.73,2.71,13.15.73,1.37-.79,1.94-2.88,3.95-2.46ZM541.6,322.12c-3.18-.05-6.97-2.78-9.49-.29,3.01,2.51,4.73,6.16,6.15,9.78l1.25-.7,2.1-8.8ZM529.77,322.19c-10.61,1.84-16.47,13.55-27.28,15.04-1.95,2.04,6.05,12.58,8,14.31,3.7,3.28,11.11,6.86,15.85,3.94.32-.19.43-.95.76-1.16,3.58-2.37,6.37-6.48,7.9-10.57,2.63-7.05-1.2-15.73-5.23-21.55Z"/>
  <path d="M533.53,301.77c-.12.23-1.82,2.68-1.95,2.79-2.07,1.85-5.48-.87-7.31-2.29-.05-1.64,12.52-6.95,9.25-.5Z"/>
</svg>