<?xml version="1.0" encoding="UTF-8"?>
<svg id="katman_1" data-name="katman 1" xmlns="http://www.w3.org/2000/svg" viewBox="0 0 841.89 595.28">
  <path d="M592.09,249.08c-1.24,1.08,6.89,9.56,7.9,10.98,16.25,22.81,24.4,53.59,28.94,81.06.43,2.6-.17,5.15.47,7.93,1.59,6.97,9.78,13.89,11.18,24.93,2.48,19.55-5.32,33.66-15.68,49.24,16.49,8.1,32.29,20.02,38.35,38.08,8.21,24.47-4.44,47.69-29.18,53.95,5.57,10.7,11.31,34.81-9.08,28.81-10.91-3.21-17.45-13.16-25.34-20.42-.48,13.05,1.39,26.02.87,39.08-.17,4.17-.4,10.3-.84,14.28s-2.98,4.04-3.44,0c-.72-6.44.92-13.33.91-19.31-.03-12.35-2.25-25.34-.22-37.73l-35.5-45.85c-14.54,37.51-45.02,69.25-87.29,71.4-26.81,1.36-68.18-8.5-85.69-30.25-1.71-2.12-4.75-5.99-4.19-8.4,28.9,32.83,87.96,44.49,126.39,23.1,16.22-9.02,31.29-26.05,39.89-42.4,3.22-6.14,11.42-23.09,12.81-29.17.14-.61.64-1.8-.23-1.91-1.02,2.31-10.34,9.62-8.66,3.11.47-1.82,5.16-8.18,4.89-10.24-.53-3.92-7.08,4-7.54,4.21-1.53.68-3.55-.7-2.42-3.25,1.32-2.97,4.27-5.42,4.08-8.95-1.33-1.28-11.73,6.22-14.69,0-1.04-2.19.74-7.17-1.69-6.73-4.03.72-5.96,8.41-6.69,11.79l-67.19,5.03-48.29,7.54c-.41-2.19.42-1.48,1.67-2.06,16.67-7.77,58.31-10.77,77.68-12.2,10.62-.79,21.94.01,32.57-1.67.57-.24,1.97-5.35,2.64-6.78s2.71-3.12,2.85-3.86c.45-2.36-5.3-10.5-5.4-13.69l-9.99-12.56c-35.39,19-81.04,4.36-98.58-31.67-27.28-56.05,22.63-117.57,83.04-102.35,49.45,12.46,69.8,71.75,40.3,112.94,2.17,1.57,19.66-3.01,23.12-4.16,2.51-.83,12.44-5.8,13.38-5.85,1.76-.09,8.2,2.96,11.8,3.29,5.27.47,10.32-.57,15.52-.82-1.85,5.8-10.04,7.13-15.32,6.49-3.8-.46-9.25-3.35-12.71-3.11-3.17.22-7,3.14-10.16,4.19-6.92,2.29-14.62,4.08-21.86,5.01-4.83.62-9.76-1.79-12.09,4.51,3.22,2.52,5.82,9.59,8.27,11.93,1.46,1.39,5.91,1.88,6.59,3.09.47.85-.1,2.29.33,2.98.34.54,6.3,2.22,6.99,4.34,1.08-1.08,1.71-2.16,3.38-2.48,9.11-1.76,31.85,1.12,41.72,2.75,4.39.72,16.5,4.57,19.55,3.98,2.06-.4,8.77-10.93,10.1-13.44,7.88-14.84,9.99-30.76,2.54-46.24-1.48-3.09-6.43-8.91-7-11.47-2.33-10.55-2.74-22.39-5.63-33.84-10.25-40.71-29.3-79.97-76.53-83.85-29.81-2.45-56.84,25.92-86.33,17.47-7.45-2.14-19.94-9.68-26.95-10.06-4.41-.24-12.92,2.86-16.92,4.92-2.81,1.45-5,4.69-8.16,4.36-2.23-.24-15.56-10.73-19.05-12.95-39.97-25.42-96.94-42.35-143.94-47.51-14.83-1.63-30.24-3.13-44.91,0l62.98,10.07c-2.67,16.13,3.38,34.62,9.68,49.51.96,2.26,2.4,6.43,3.56,8.2,2.12,3.23,18.11,8.58,22.69,10.06,22.29,7.19,47.7,11.38,71.1,12.87,5.23.33,12.97-.92,17.65-.02,1.42.27,2.08,1.07,2.95,2.08l-7.44,1.37c-.86,3.71-3.03,6.85-4.34,10.36-9.43,25.46-11.46,62.82-10.09,89.9.81,15.97,4.95,27.8,1.47,44.22-3.5,16.53-10.83,32.8-15.67,48.99,4.94,6.29,10.73,11.48,14.67,18.84,13.77,25.69-11.39,29.63-30.65,24.36l-13.04,45.38-2.92-.03c1.33-19.45,10.5-37.1,15.14-55.8l-.81-1.78-18.6-15.01-.65-2.36c7.3-12.22,14.79-24.4,22.53-36.33,9.21-14.21,20.04-27.85,27.76-42.77-1.85-11.64-2.92-23.54-3.42-35.26-.24-5.74,1.33-19.65-.45-23.9-2.14-5.11-19.52-24.75-24.27-30.31-9.11-10.65-19.33-22.21-28.96-32.34-4.24-4.45-17.87-19.19-21.93-21.73-6.92-4.35-20.8-8.24-29.33-12.66-21.06-10.92-46.99-29.66-61.62-48.38-4.55-5.83-10.86-13.21-8.11-20.83-3.94-.56-15.87-9.91-18.67-9.2-3.26.84-11.22,16.87-13.07,20.58-13.68,27.42-24.73,61.1-31.62,90.98-4.17,18.1-7.79,36.63-6.98,55.29,41.31,18.32,82.23,38.2,121.88,59.91,14.77,8.08,33.74,17.83,47.03,27.7,1.93,1.43,7.52,5.14,6.95,7.42-8.9,16.88-18.32,33.76-24.65,51.85-2.49,7.11-5.38,14.73-5.29,22.33,13.5,5,26.94,10.68,39.52,17.75,2.43,1.37,13,7.29,13.35,9.37l-.31,1.14c-.35.7-9.58,9.77-10.27,9.96-1.91.53-3.18-.85-2.83-2.75.1-.54,7.47-5.85,6.71-8.36-.89-2.98-34.86-18.45-40.05-20.46-4-1.55-10.63-1.61-11.11-6.59-.22-2.33,2.14-10.97,2.93-13.77,5.75-20.55,16.91-40.9,26.95-59.61l-.03-1.69c-27.33-18.14-56.46-33.73-85.58-48.82-28.51-14.78-57.41-29.03-87.08-41.39l-2.34-1.86c-.49-32.07,7.56-64.6,17.27-94.97,4.97-15.55,11.16-32.72,17.98-47.52,2.56-5.57,14.6-29.17,19.23-31.21,2.1-.93,5.45,1.5,7.54,2.53,6.57,3.23,12.42,7.85,18.98,11.1,32.83-5.38,68.48,1.43,100.42,9.73,30.09,7.81,58.87,18.8,86.3,33.35,8.21-20.57,20.73-43.09,41.99-52.07l-4.24-5.49c-.71-7.28,18.41-6.66,23.13-6.62,7.61.06,20.56,3.01,26.82,1.99,5.94-.97,17.32-6.96,24.82-8.76,6.03-1.44,23.19-3.63,27.72.81,4.45,4.36-4.69,6.18-3.37,7.99l16.79,8.4c3.89-36.23,16.68-73.02,37.95-102.7,4.86-6.78,22.51-28.65,30.64-28.91,3.22-.1,4.66,4.02,5.72,6.52,12.64,29.73,4.25,98.12-2.33,130.31-2.8,13.7-6.53,27.47-11.41,40.57,20.61,9.17,23.71,27.39-2.62,28.96ZM606.78,117.24c-4.48-.02-8.96,0-13.43,0-5.62,0-28.56,10.15-34.58,13.28-2.07,1.08-12.39,6.74-13.26,7.73-2.57,2.96-6.53,23.42-7.06,28.21-.35,3.23-1.17,10.49.36,12.86s4.87,4.49,6.68,6.75c3.51,4.38,6.97,9.7,9.79,14.56,1.73,2.98,6.18,14.07,7.62,15.46,2.35,2.27,22.96.14,27.86,3.47,1.27-.32,2.73-6.11,3.23-7.65,9.68-29.78,15.58-65.68,15.7-96.75.07-19.2,1.27-39.79-3.75-58.39-.69-2.55-1.64-6.84-3.76-8.4,2.94,15.71,4.38,31.53,5.86,47.45-1.14,3.6,2.04,20.5.02,21.89-.63.49-1.07-.49-1.27-.49ZM515.67,159.23c-9.72-1.33-17.73,0-27.05,2.75l-9.89,3.95c6.53,1.53,11.91-1.42,17.44-2.28,4.59-.71,8.72-.67,13.1-1.18.77-.09,8.62-1.31,6.4-3.25ZM456.89,168.47c-8.45-.76-18.83-1.68-27.27-.84-3.62.36-10.13,2.78-3.81,4.68,3.24.97,12.09-3.26,16.48-3.76,2.54-.29,5.71-.24,8.27-.05,1.32.1,4.68,3.15,6.33-.03ZM542.55,189.45c-8.93-11.76-23.08-22.4-38.62-21.81l19.87,8.24,18.75,13.57ZM557.66,217.16c-3.64-9.59-12.16-19.13-19.75-26-21.59-19.55-46.97-24.97-75.32-19.1-4.29.89-19.7,5.59-22.23,8.42-7.16,8-2.12,42.46-1.1,53.49,29.23,1.19,56.94-11.34,85.35-15,10.96-1.41,21.99-2.08,33.04-1.8ZM445.14,172.67c-23.36,2.66-41.28,18.94-52.2,38.89-1.35,2.47-8.79,17.56-7.88,19.03l20.33,14.19c3.97-2.06,7.56-4.89,11.82-6.43,6.1-2.2,12.3-1.62,17.52-5.19-1.26-17.47-4.16-35.84.8-52.91l9.62-7.58ZM607.19,239.83c2.82-5.69-5.01-11.2-9.5-13.58-17.9-9.48-66.94-5.47-87.06-1.12-12.83,2.77-25.35,7-38.46,9.4-10.03,1.84-20.15,3.45-30.38,3.63.21,1.3,1.57,1.58,2.53,2.08,31.78,16.24,47.97-.92,77.71-9.59,24.06-7.02,54.31-13.52,76.23,1.76l8.94,7.42ZM362.85,345.63c1.32-7.85,1.4-15.97,2.64-23.81,2.05-12.95,7.38-25.2,5.39-38.38-.97-1.39-17.97-1.31-21.03-1.64-18.38-1.96-36.26-6.7-54.17-10.89l67.17,74.72ZM551.37,342.16c0-37.67-30.54-68.21-68.21-68.21s-68.21,30.54-68.21,68.21,30.54,68.21,68.21,68.21,68.21-30.54,68.21-68.21ZM529.69,397.81l-8.06,6.27c-.37,1.52,5.47,9.96,7.19,10.29,2.08-.63,8.59-4.28,8.75-6.19s-6.16-10.63-7.88-10.36ZM531.64,422.04c3.64,1.56,14.34-6.5,13.43-9.63-1.53-5.22-16.17,6.86-13.43,9.63ZM588.4,467.71c-.39-.53-1.72-.8-2-1.73-1.98-3.39-7.11-15.47-9.46-17.45-3.06-2.59-8.64.24-11.32-3.81l.1-5.91c-.73-.88-2.72-.69-3.79-1.29-4.2-2.33-1.57-5.21-2.15-6.28-.45-.82-3.47-1.69-4.22-3.33-1.1-2.43.49-3.92.23-5.35-.29-1.65-6.13-6.02-8.18-5.18-1.34,3.02-14.57,8.81-11.73,12.17,7.12.43,5.09,4.7,6.62,9.77,2.77,2.01,16.16-7.91,15.16,4.56l4.09.11,1.07,8.17c6.69,1.18,4.82,6.68,3.28,11.48-.82,2.54-4.04,4.32-1.6,7.39,12.44,15.32,23.46,31.9,36.02,47.12,8,9.68,18.81,24.28,32.72,22.71,3.15-1.51,2.83-8.59,2.32-11.56-1.59-9.23-21.64-37.26-28.74-44.31-6.57-6.52-12.09-8.7-18.42-17.28ZM598.51,471.88c3.87,3.92,13.77,10.38,15.51,12.69.96,1.27-.14,2.46.63,4.26,2.68,6.28,13.48,15.08,16.43,22.28,3.43,2.55,14.1-3.89,17.2-6.43,18.09-14.82,17.98-36.96,4.97-55.21-20.59-28.89-60.81-30.08-93.06-31.63-.17,4.41,6.19.68,6.71,4.6l-7.55,3.37c1.15,2.68,9.24-.15,10.07,2.53,1.03,3.36-4.44,3.2-5.86,5.03-.01,1.81,10.12,2.47,11.74,2.1,1.65,5.56-6.53,2.99-5.88,8.39,3.31.84,8.42-1.72,10.87.45,1.88,1.66,7.03,13.78,9.44,17.45,2.96,4.5,5.23,6.51,8.78,10.11ZM322,492.29c1.85,1.81,9.79,8.01,12.02,9.39,1.03.64,2.2,1.09,3.24,1.72l1.14-1.25c9.34-26.44,20.14-52.62,26.12-80.1-7,9.41-13.71,19.15-20.16,28.95-3.08,4.67-24.09,36.36-24.01,38.64.02.49,1.2,2.21,1.65,2.65Z"/>
  <path d="M590.41,348.15c3.25-14.17,21.6-15.75,29.37-3.77.1,2.78-7.76-1.05-8.85-1.21-7.99-1.19-13.51,2.18-20.52,4.98Z"/>
  <path d="M571.1,355.72c2.72-1.35,19.68-1.96,12.9,3.24-5.41,4.15-14.31-1.69-12.9-3.24Z"/>
  <path d="M595.44,328.84l-8.37,13.03c-1.68,2.43-3.74.5-4.22-1.69,2.12-5.62,7.94-8.22,12.59-11.35Z"/>
  <path d="M490.49,262.5l-16.79,3.36c2.89-3.22,16.79-12.2,16.79-3.36Z"/>
  <path d="M549.05,342.11c0,36.38-29.49,65.88-65.88,65.88s-65.88-29.49-65.88-65.88,29.49-65.88,65.88-65.88,65.88,29.49,65.88,65.88ZM529.79,385.79c26.93-30.49,20.79-79.58-15.78-99.37-49.98-27.04-106.83,18.67-91.78,73.31,10.08,36.59,50.16,54.95,85.27,41.13,3.35-1.32,16.28-8.25,17.4-11.15.69-1.77-2.14-1.37-3.14-2.31-.45-.43-1.45-2.76-1.05-3.14l9.07,1.52Z"/>
  <path d="M463.62,380.89l20.34-2.74c3.84-.32,7.21-2.59,10.55-3.72,3.51-1.19,10.85-.98,11.91-6.56.93-4.9.62-17.93-.71-22.81-.39-1.44.61-2.34-1.79-1.94.8,11.83-.9,9.61-10.07,6.71l-.85,7.56,10.91-.84c1.02,1.12-4.64,18.14-9.94,15.78-1.53-3.27-4.21-4.93-.97-8.22-10.92-6.3-9.77,6.02-13.17,8.44-1.27.9-6.55,2.02-8.26,2.02-3.35-.01-3.48-3.15-6.74-3.7-9.53-1.61-12.57,2.57-21.78-5.09-1.74-1.44-2.18-4.19-4.61-4.19l1.68,3.75-3.36.44c-.1,3.54,1.94,6.33,4.62,8.39,2.07,1.59,6.26,1.56,5.44,5.05-19.34-2.93-21.77-31.08-15.53-45.32,15.52,11.41,34.72,20.1,54.16,20.96l-15.36-7.71c-2.62-2.06-10.9-6.61-10.54-10.11.26-2.49,3.02-4.62,3.01-6.77-.03-7.6-6.57-10.77-13.46-9.65-1.22.2-2.22,1.4-2.71,1.51s-.28-1.31-1.03-1.65c-3.67-1.68-6.41-.67-8.6,2.49,4.55-13.13,20.3-22.81,33.99-21.81,29.43,2.15,41.92,39.96,39.05,65.06-.87,7.64-7.93,10.39-14.48,12.39-11.28,3.46-20.09,2.98-31.7,2.29Z"/>
</svg>