<?xml version="1.0" encoding="UTF-8"?>
<svg id="katman_1" data-name="katman 1" xmlns="http://www.w3.org/2000/svg" viewBox="0 0 841.89 595.28">
  <path d="M214.53,280.32c2.68.55,1.82-.34,2.55-1.46,1.41-2.18,6.74-15.41,8.23-15.53l27.87,24.41c3.69,1.67,11.95-6.36,15.83-7.99l-5.16-7.38c10.4-10.77,19.24-23.3,29.58-34.07,1.11-1.16,4.77-5.53,6.24-4.52l16.98,27.7c-.46,1.96-20.24,10.83-23.44,12.89-1.12.72-2.03-.11-1.46,2.54,13.31-.36,24.04,7.47,32.36,17.03l3.98-21.56,32.16.04,3.78-5.54c7.69.43,17.44-1.22,24.84-.23,2.47.33,3.85.57,4.79,3.16l5.95,41.17c3.93-1.37,7.34-3.84,11.4-5.05,9.13-2.73,19.73-3.01,28.32,1.65l-.14-4.39-6.66-2.99v-24.41l45.9,10.3,4.07,15.81,4.03-13.67c2.31-.39,32.81,6.62,36.26,8.01,1.1.44,2.34.38,2.78,1.83l-37.36,112.36-28.45-8.02-1.13-11.93-27.29-3.97,1.19-14.2c-7.17,2.22-13.89,4.27-21.57,3.4l1.14,13.63-41.89-6.92-1.26-16.91c-2.2-2.81-5.44,9.42-6.23,9.07l-10.23-15.88-2.35,11.42-35.73-5.13c-2.6-1.63,2.15-13.09,1.18-16.5l-27.24,7.94v31.79l-69.26-32.93v27.82c-3.98,2.44-29.39,7.03-32.2,6.16-4.48-1.39,1.18-12.8-4.67-13.52-23.94,21.23-58.16,11.44-60.79-22.16-.13-1.68.91-3.3-1.68-2.82l-6.3,5.2,12.54,47.01-34.46,10.12-38.23-83.91-10.22,2.91-21.63-37.46c22.62-15.66,49.86-25.69,77.83-23.33,24.66,2.08,45.04,20.36,41.47,46.53,12.42-6.05,23.82-9.08,37.46-4.54l-1.18-11.32-7.89,1.11-1.06-24.9,46.47-13.7v15.9ZM296.84,246.28l-20.99,24.43,1.72,2.8,28.93-14.22-9.66-13.01ZM385.85,275.9l-15.73-.06-5.74,31.73-5.72-27.18-22.64-.05c.88,8.2-8.62,39.07-6.26,44.24.84,1.83,5.41,3.92,5.03,6.12-2,3.16-6.62,5.63-8.13,8.97-.83,1.83-3.45,15.9-3.06,17.14.5,1.56,1.52,1.49,2.81,1.8,2.45.59,17.42,2.88,18.53,2.18,2.99-8.49,2.15-19.18,4.8-27.56.4-1.27.38-2.75,2.15-2.94l11.94,26.11,7.11-17.84,2.53-1.45,5.05,37.52,23.33,4.48c1.22-6.31-4.93-7.01-8.48-10.24-16.1-14.66-13.33-35.61-.69-51.54l-6.83-41.41ZM211.12,376.83v-35.2l68.12,32.93v-18.17c-13.13-.99-25.95-8.23-32.13-20.1l-26.89-11.13,28.34-29.52c-3.51-3.27-6.63-7.02-10.18-10.23-1.57-1.42-10.42-9.13-11.35-8.49l-18.75,27.22c-1.66-1.08-1.57-2.18-1.76-3.9-.37-3.36.16-21.97-1.09-23.33l-27.7,7.82-.67,6.94,7.93-1.15c1.76,1.26,1.64,23.59,2.53,27.58,1.28,5.81,8.71,11.2,9.85,20.8,1.62,13.59-4.84,18.08-5.61,27.13-.38,4.43,1.76,8.61,1.19,13.06l18.17-2.28ZM95.45,401.67l19.03-6.2-11.11-42.88c18.46-12.25,40.62-40.17,20.77-60.8-19.49-20.25-61.54-10.85-83.35,1.56-1.64.93-6.88,3.38-6.68,5.5l13.48,21.83,8.57-3.93,39.29,84.9ZM288.34,328.01l1.07-4.02,24.95-26.22c-15.41-23.43-59.89-11.81-62.41,16-3.8,41.94,49.42,41.15,70.42,17.08l-14.17-13.04c-5.3,6.36-12.06,8.56-19.86,10.2ZM481.35,338.22l-10.12-44.95-30.77-6.14.13,7.83,6.65,1.3c-.21,4.91-2.05,10.28-1.07,15.27.56,2.84,3.1,3.65,4.33,5.88,6.34,11.49,6.83,23.76.8,35.62-4.85,9.55-11.48,9.38-12,22.15-.06,1.38-.18,2.73.52,4l17.12,2.25c2.64-12.09,4.01-24.5,6.59-36.6.28-1.31.15-4.52,1.89-4.33l1.08,54.94,16.02,4.76,32.78-96.62-22.69-5.74-11.27,40.38ZM321.24,315.52l2.27-12.48-7.85,7.54c-.29,1.67,4.26,5.88,5.58,4.95ZM396.59,361.67c20.41,20.43,59.85-7.38,50.09-34.76-11.04-30.98-63.46-11.55-55.67,25.01.64,3.01,3.43,7.6,5.58,9.75ZM242.9,315.53c-1.09-1.28-9.09,6.37-7.94,7.93l7.94,2.28v-10.21ZM160.89,318.09c-39.37,4.8-43.93,66.71.57,59.61,35.31-5.64,39.34-64.47-.57-59.61Z"/>
  <path d="M531.87,318.93c-2.28,0-6.13,2.76-6.89-2.81,5.98-14.24,17.87-25.53,26.76-38.05l-52.07,7.77c-4.7-2.94,2.56-58.52,8.55-65.77,5.51-3.47,47.29,1.26,56.41,2.52,10.86,1.5,21.87,3.57,32.53,6.07,5.52,1.29,28.27,6.42,30.13,10.83l-.31,3.04-12.79,12.24c1.61,3.27,4.18,1.59,6.43,2.55,6.41,2.74,2.36,6.71,3.14,10.56.32,1.59,4.96,9.42,6.78,9,8.28-6.08,14.84-13.94,22.23-20.96,1.72-1.64,5.79-3.33,6.5-4.29,1.29-1.76,4.5-11.85,6.55-15.59,9.36-17.06,34.73-44.11,51.32-54.28,4.87-2.98,19.43-10.73,20.84-.7.8,5.73-16.43,31.08-20.68,37.19-7.95,11.44-17.8,21.75-24.77,33.69,13.27,4.55,24.35,13.42,33.51,23.85,1.7,1.93,6.45,10,6.98,10.33,2.79,1.75,25.37,5.61,31.65,7.81,10.93,3.82,20.67,10.15,31.18,14.8v28.38c-21.16-2.47-40.43-12.39-60.08-19.22-.3,9.17-23.19,27.6-21.75,34.44l21.77,9.08c.78.65,5.26,8.6,5.33,9.37.34,3.35-8.52,17.6-11.92,18.39-1.71.4-4.11-1.09-6.46-.94-6.27.41-16.05,4.99-23.99,5.64-6.84.56-15.75.28-22.74.07s-9.71-3.96-13.87,5.33c-3.05,6.83,1.77,13.97,2.04,21.27.45,11.81-4.5,20.57-13.58,27.48l.03,1.84c10.2,10.68,10.74,28.47-8.45,17.63-4.55-2.57-29.03-20.09-31.28-23.24-5.85-8.2-6.72-7.61-14.3-14.06-4.06-3.46-7.11-8.18-11.9-10.81-18.94-10.41-42.08-10.97-62.08-16.26-30.05-7.94-12.77-22.13,8.66-21.72-1.73-17.02,11.89-27.15,24.98-34.63-32.34,1.08-9.75-13.76-2.27-27.81-7.37.02-14.76-.02-22.14,0ZM620.99,325.17c-1.3-5.1,0-22.79,0-29.52,0-1.97,4.42-7.63,4.22-11.18-.34-6.01-11.01-14.02-6.49-21.17l-12.49,1.11,4.53-4.53-9.87,1.46-2.5,2.84c-6.26,22.78-12.01,45.67-8.06,69.5-4.61-1.89-8.34,4.08-12.11,6.62-17.55,11.82-53.17,23.79-36.71,50.14-4.26,1.35-3.15-3.18-6.22-3.45l-9.69,1.2.19,3.22,4.34,1.88-11.32,2.83,30.65,5.68c-1.02-2.64-6.13-4.45-3.98-7.93,16.76,15.92,42.18,15.37,59.6,30.1l-4.53.56c-1.18,1.04,20.94,17.22,23.83,17.04l-3.4,2.26,24.98,18.14c-3.66-4.16-3.2-5.78-1.19-10.7-1.88-2.97-5.19-1.9-7.88-.65l-.03-2.84c11.9-4.03,21.78-12.59,21.62-26.06-.11-9.58-6.09-14.89-1.36-25.23,1.46-3.19,10.01-13.43,13.24-14.02,1.49-.27,2.44.42,1.71,1.71-.87,1.54-3.58.98-3.39,2.84,8.92.25,17.74,1.77,26.72,1.19,7.85-.5,31.17-4.99,35.71-10.8,1.35-1.72,1.51-4.28,3.41-5.72l-4.52,1.71.66-6.85c-6.85-2.54-17.15-10.89-24.56-8.55-6.02,1.9-12.82,7.46-20.96,7.46h-17.6c-.2-1.67,2.97-2.05,4.07-2.17,5.67-.6,11.79-.48,17.51-1.23-1.51-9.96,11.16-18.23,20.42-16.41,8.7-13.58,23.5-23.47,22.73-41.5,2.86,1.81,2.01,4.28,5.26,6.65,3.03,2.21,20.38,9.97,23.81,10.32,4.49.46,28.81-3.69,28.8-8.45-17.92-9.76-37.4-18.15-57.88-19.86l.57,4.53c-6.73-15.3-28.06-38.34-44.82-41.54-4.56-.87-5.1.99-9.12,1.8l32.95-41.4,1.1-4c-7.33-.6-20.88.76-26.7,5.64-2.75,2.31-12.2,15.98-14.36,19.7-3.82,6.59-6.68,13.76-8.31,21.22l-1.15,1.1-2.84-1.77c-8.92,7.92-16.27,17.04-26.11,23.95-.4,2.74,2.79,1.35,5.17,2.76,11.1,6.57,2.91,26.62-9.06,25.03-2.49-.33-3.87-2.41-6.33-2.25-.85.93.58,13.79.53,16.45-.07,3.7-2.27,3.24-2.8,1.14ZM586.93,301.9h-22.71c3.65-12.72,25.13-25.73,29.24-36.07.56-1.41-.07-4.29.35-4.73.18-.19,3.2-.01,5.08-1.15,1.44-.87,21.98-18.36,20.95-19.35-19.29-4.99-38.79-9.83-58.63-12.34-13.11-1.66-33.72-4.09-46.45-2.49-5.06.63-4.72,6.47-5.83,11.2-1.25,5.33-6.96,40.15-4.89,42.22,19.32-3.04,39.45-9.72,59.03-6.8l-29.51,40.85c2.24,1.9,24.68-2.43,29.92-.96,4.19,1.17-3.33,6.74-1.53,10.05l2.75-1.2,1.13,2.26,4.05-1.05-.57,3.39c7.85-6.53,20.38-11.72,17.61-23.84ZM584.55,296.1l2.37-13.5-11.33,13.06,8.96.44Z"/>
  <path d="M98.73,339.37l-8.94-31.1c4.9-5.37,17.93-4.25,22.59.98,9.24,10.36-1.81,27.94-13.65,30.13ZM98.72,312.12c.31,2.69,2.92,16.68,6.23,15.89,6.73-6.97,4.93-17.71-6.23-15.89Z"/>
  <path d="M278.91,297.6c6.08-1.38,13.57-.66,17.34,4.87l-21.96,23.19c-10.7-6.18-6.27-25.58,4.62-28.06ZM287.18,303.04c-9.27-2.02-15.84,6.11-12.47,14.75l12.47-14.75Z"/>
  <path d="M163.43,324.62c-.94,2.36-4.49,2.17-5.43,5.33-3.02,10.15,9.68,14.95,15.35,9.11,1.27-1.31,1.14-4.81,3.7-5.37,4.84,14.83-14.54,25.57-25.53,14.76-9.86-9.69-.79-24.16,11.91-23.83Z"/>
  <path d="M421.16,317.8c.12,1.76-2.29,1.4-3.44,2.77-8.13,9.63,8.32,17.79,14.21,10.81,1.68-1.99.76-5.19,2.85-5.64,5.53,14.36-11.02,24.54-23.07,16.83-12.04-7.71-4.7-26.65,9.45-24.77Z"/>
  <path d="M690.25,337.09c-2.59.42-2.85-2.65-5.7-1.85-1.75.49-8.81,6.19-11.7,7.73-5.24,2.79-19.24,9.26-24.03,4.33-4.37-7.28.91-17.16,4.12-24.23,1.19-2.62,6.24-9.53,6.43-10.58.36-2.01-2.02-3.77-2.02-4.35-.07-4.7,6,3.84,6.85,4.49,3.9,2.94,10.51,3.74,13.64,6.8,2.7,2.65,2.88,6.66,5.1,9.66,2.38,3.21,7.04,3.99,7.31,8.01ZM673.08,340.36c.48-8.92-9.67-16.3-18-16.88-1.11,7.37-7.06,14.98-4.41,22.55,8.09,1.45,15.25-2.76,22.41-5.67Z"/>
  <path d="M658.15,278.27c16.82-3.71,14.02,22.56-2.3,17.7-8.39-2.5-6.2-15.83,2.3-17.7Z"/>
  <circle cx="704.54" cy="326.65" r="8.7"/>
  <circle cx="681.74" cy="311.72" r="3.78"/>
</svg>