<?xml version="1.0" encoding="UTF-8"?>
<svg id="katman_1" data-name="katman 1" xmlns="http://www.w3.org/2000/svg" viewBox="0 0 841.89 595.28">
  <path d="M642.55,50.98c-11.04,5.81-20.6,17.51-27.67,27.71-10.1,14.56-16.97,28.46-15.64,46.81.58,8.01,4.26,15.67,5.07,23.6.93,9.09.59,23.25-2.38,31.9-6.78,19.81-27.41,25.67-26.88,49.64.08,3.76.61,8.44,3.99,10.63,11.09,7.2,24.4-10.72,26.24-20.38l2.4-11.36c3.54,17.49,3.11,37.41-2.64,54.41-4.15,12.24-14.36,21.52-24.72,28.69-12.38,8.57-27.28,11.43-29.35,29.12-.59,5.07-.68,22.22,7.84,20.79,5.06-.85,13.05-15.15,16.38-19.62,2.13-2.87,4.53-6.22,6.92-8.83,1.69-1.85,8.88-8.75,10.7-9.55.69-.3,1.05.12.83.83-10.14,15.88-16.85,33.71-22.63,51.59-11.95,36.94-13.57,60.85-48.59,84.1-23.99,15.92-51.77,24.88-80.85,23.15-7.11-.42-14.89-2.52-21.94-2.8-7.46-.3-11.86,3.26-18.54,5.62-9.07,3.21-19.1,6.56-28.28,9.39-6.08,1.87-12.21,3.3-18.42,4.63-2.75,1.73-.76,7.48.03,10.15,3.6,12.21,14.5,23.59,15.39,36.34,1.64,23.6-13.26,36.15-36.19,34.5-9.31-.67-12.79-5.22-20.51-7.04-14.86-3.5-24.24,5.24-39.32-5.09-30.85-21.12-35.91-65.81-24.24-98.91,1.43-4.05,6-11.68,6.63-14.73.34-1.67.15-2.94-.26-4.55-1.06-4.14-5.32-13.7-7.21-18.08-1.75-4.07-4.08-7.99-5.99-12-2.86-5.99-2.98-10-8.33-14.72-6.32-5.58-12.44-9.45-17.67-16.63-11.81-16.2-13.86-41.57-9.61-60.68,4.66-20.93,11.82-27.58,5.63-51.17-3.07-11.69-9.39-20.8-17.16-29.79,15.74,4.56,27.77,21.52,45.54,14.33,7.19-2.91,11.65-11.69,12.37-19.12,1.6-16.44-5.39-21,2.9-38.71,3.83-8.18,9.72-17.22,16.22-23.41-2.93,7.07-7.77,18.53,1.56,22.9,4.16,1.95,7.12,1.83,10.99-.51,21.19-12.79,2.56-33.31,4.32-51.34,1.31-13.37,18.89-29.44,29.28-37.06,2.01-1.48,5.06-4.09,7.26-3.99-7.07,6.73-10.4,18.21-1.09,24.71,7.69,5.37,20.19-.83,27.33-5.21,15.17-9.3,21.23-37.34,10.55-51.78-.66-.89-4.83-4.33-4.17-5.1,19.52,6.48,35.98,21.51,47.5,38.22,3.83-6.74,7.45-14.54,13.77-19.39.56-.43.71-1.09,1.69-.84-.44,7.83-1.08,16.66,5.68,22.16,10.7,8.7,21.96-3.99,24.43-14.27s-1.51-17.32-9.85-23.35c.34-.65,1.69-.19,2.26-.01,12.32,3.98,30.52,22.28,38.11,32.73.99,1.36,4.39,7.62,4.74,7.91.68.55,7.89,2.19,9.2,2.32,19.07,1.91,20.22-15.6,36.46-16.82,13.93-1.04,29.5,1.23,43.33.04,17.23-1.48,19.9-18.6,31.73-25.62,7.35-4.36,23.85-7.88,32.35-7.62.94.03,2.23-.02,2.52,1.17ZM488.22,143.75c2.38-.32,5.88,0,8.43,0,.24,0,.95.88.82,1.35-3.52,24.49,3.02,50.08,15.54,71.13,1.82,3.05,4.82,6.4,6.32,9.42,7.43,15.03-10.23,23.01-4.91,36.39,2.84,7.15,7.45,2.46,10.91-1.35.43-.09.35.52.27.83-2.9,11.28-8.76,23.26-11.63,34.47-4.28,16.7,6.32,24.6,12.13,38.71,3.27,7.94,4.44,14.34,3.37,22.89-2.52,20.3-10.43,38.18-27.47,50.12,1.1.36,3.01-.55,4.08-.98,5.08-2.02,9.6-4.68,13.91-8.01.44-.34,1.08-1.51,1.68-.57-5.79,9.21-14.4,17.54-22.78,24.45-14.29,11.77-30.76,22.15-49.53,24.69-5.01.68-10.33.05-15.14,1.73-4.85,1.69-9.12,6.37-13.75,8.74.33.49,1.44.7,2.02.79,36.42,5.57,65.74.21,96.66-19.61,38.56-24.71,38.39-55.17,52.3-94.45,2.86-8.06,6.29-15.86,9.81-23.64-5.7,5.81-9.13,13.95-14.6,19.97-9.48,10.45-18.22,2.68-19.15-8.99-.99-12.49,2.71-24.51,13.32-31.69,12.05-8.16,22.89-11.84,33.09-23.7,11.15-12.95,12.34-31.38,12.64-47.8l-6.76,9.26c-7.94,9.26-24.2,14.35-27.38-1.83-5.84-29.66,21.59-36.08,27.23-59.05,6.12-24.95-5.4-40.42-3.79-63.39.91-13.02,10.72-29.66,18.36-40.11,5.33-7.29,11.56-13.67,18.21-19.73-10.41,1.25-22.39,3.43-29.52,11.79-1.73,2.03-2.9,4.63-4.54,6.71-15.44,19.62-30.99,12.99-52.83,13.51-4.28.1-12.34.08-16.14.72-5.34.9-7.71,5.22-11.39,8.28-9.17,7.62-15.87,9.79-27.96,7.75-5.83-.98-8.66-8.35-12-12.74-4.55-5.99-10.54-12.62-16.26-17.47-2.39-2.03-5.1-4.1-7.85-5.64.04,2.41,1.24,4.47,1.42,7.01.67,9.69-5.94,23.04-15.78,25.87-13.6,3.91-21.02-7.12-21.63-19.38l-5.44,7.49-6.08,13.87c-1.17-6.95-6.62-13.17-11.24-18.28-7.77-8.61-17.53-16.43-27.56-22.19,10.7,23.93-2.52,51.78-27.25,59.62-14.74,4.67-25.16-3.23-24.76-18.57-7.43,6.83-17.79,15.57-21.51,25.15-6.33,16.26,8.88,31.8,2.95,46.8-2,5.05-10.1,14.02-15.73,14.63-8.81.94-14.87-3.58-16.03-12.37-3.9,5.5-8.57,13.4-9.86,20.21s1.05,12.33,1.43,18.87c.77,13.36-5.35,28.88-19.56,32.16-11.25,2.59-20.75-3.89-29.91-9.39,1.12,3.09,3.22,5.6,4.59,8.61,5.38,11.84,7.44,26.46,5.34,39.28-1.93,11.78-7.95,21.93-8.81,34.48-1.39,20.25,2.06,39.74,16.5,54.62,1.03,1.06,10.18,9.55,11.04,8.63-.72-4.65-1.87-9.22-2.73-13.85-1.29-6.92-1.49-7.67-3.88-14.11-7.8-21.06,10.47-50.66,16.12-71.31,1.39-5.08,2.27-10.28,3.43-15.41,1.98,1.42,2.84,7.22,4.2,8.43.63.56,1.36.77,2.17.59s8.34-11.64,10.49-12.68c2.33-4.21.21-8.58.72-13.34,1.39-13.11,8.95-19.9,21.7-21.88-.58-7.67,1.39-15.82,7.43-20.96,2.06-1.75,7.89-3.95,8.66-4.84.92-1.06,2.03-6.48,2.83-8.41,7.8-18.75,28.78-27.64,47.92-29.11,7.32-8.07,22.22-21.19,33.16-23.06,4.74-.81,4.04,1.73,6.67,4.3,3.11,3.05,9.97,8.34,14.49,7.9,5.36-.51,14.76-9.41,17.69-13.83.54-.82.71-3.3,2.04-3,.71.16,7.71,8.03,8.71,9.29,2.91,3.67,8.56,14.86,12.35,15.77,12,2.86,18.87-11.26,27.98-16.52,2.33-1.34,7.47-3.7,10.01-4.04ZM470.72,155.21c-5.44,4.7-13.61,15.44-22.09,10.7-2.77-1.55-8.33-12.4-11.07-15.92-2.54-3.27-5.39-6.19-8.38-9.04-4.26,7.25-15.36,18.32-24.48,16.62-2.23-.42-7.24-4.98-8.99-6.78-2.12-2.18-3.52-6.48-6.87-5.81-8.07,1.62-22.84,12.07-28.55,18.15-1.5,1.6-2.13,3.78-4.06,4.93-18.36,1.09-36.96,8.5-46.25,25.15-2.1,3.77-4.39,7.99-3.31,12.4-6.22,1.69-10.88,4.46-13.93,10.28-1.99,3.79-4.94,11.66-2.16,15.28-.97,1.4-2.69.61-4.15.9-6.76,1.33-12.51,5.77-15.62,11.93-1.64,3.25-5.84,16.33.82,14.89,1.81-.39,10.15-7.64,12.6-9.35,86.96-60.8,203.11,5.19,196.42,110.4-1.77,27.83-14.2,54.33-32.34,75.04-3.55,4.05-15.46,12.06-2.26,11.23,23.63-1.48,54.13-22.93,68.88-40.75.52-.63,1.36-.91,1.12-1.97-5.58,2.47-11,5.93-16.98,7.47-1.19.31-4.44,1.43-4.95-.16,15.02-7.26,27.74-22.96,31.22-39.34,3.74-17.6,1.57-30.42-5.82-46.5-2.73-5.93-7.31-11.7-7.96-18.46-1.28-13.17,9.91-28.66,11.81-41.04.05-.33.15-.93-.28-.84-4.99,4.46-8.95,3.21-11.08-2.98-4.06-11.78,7.16-16.18,7.98-26.55.67-8.5-6.3-14.76-10.2-21.82-6.47-11.71-13-30.04-13.95-43.4-.59-8.29.42-16.76.3-25.04-.55-.82-4.96-.08-6.14.11-8.25,1.28-13.18,5.01-19.26,10.26ZM385.61,467.04c75.18-18.82,113.56-104.74,75.99-173.55-35.98-65.88-121.55-82.33-180.52-35.83-6.1,4.81-21.9,19.69-22.96,27.07-1.2,8.37,6.93,25.71,8.22,35.91,1.52,12.02-3.42,29.88,7.11,38.43,6.98,5.67,14.22,3.6,19.11-3.36.43,3.76-3.6,7.48-7.01,8.74-1.67.62-3.51.06-5.29,1.46-1.41,1.12-3.17,4.81-4.83,6.41-7.46,7.17-18.16,9.03-27.52,4.42-3.46-1.7-5.38-5.43-9.05-5.85-1.14,3.88,7.36,29.91,9.28,30.36s1.27-4.05,1.53-5.21c.43-1.91,1.69-4.05,1.98-5.89.43-2.68-.19-4.9-.15-7.45,7.4,13.69,16.72,24.67,29.79,33.18,35.53,23.16,70.96,24.1,110.92,11.94,19.49-5.93,35.39-15.83,51.29-28.26.26,1.1-.57,1.33-1.17,1.92-11.27,10.86-19.11,17.15-27.59,30.88-7.53,12.18-10.08,17.31-21.26,27.09-1.62,1.42-6.46,4.39-7.35,5.58-.5.66-.65,1.18-.52,2ZM264.09,321.36c.91-1-4.03-18.49-4.84-21.17-1.48-4.92-4.64-15.95-7.04-19.95-.36-.6-.94-1.76-1.82-1.55-1.41.33-4.54,12.66-5.34,14.91-9.56,26.86-28.08,54.25-1.14,77.58,8.18,7.08,22.8,8.97,29.8-.57,4.95-6.75-.51-7.62-3.96-11.22-3.98-4.15-5.87-10.34-5.6-16.05l-2.24,4.22c-6.95,5.39-7.15-6.75-6.74-11.24.46-5.04,3.76-13.4,8.91-14.97ZM257.97,426.56c.35-2.94,1.39-5.73,2.56-8.41,1.71-3.94,6.76-8.96,4.45-12.93-1.29-2.21-7.33-9.54-9.26-11.53-1.36-1.4-2.16-2.29-3.21.13-3.56,8.15.26,20.99,3.37,28.95.48,1.22.89,3.16,2.1,3.8ZM278.78,417.56c.21-.87-.14-.9-.6-1.36-1.73-1.74-7.86-5.99-10.24-5.27-2.72.82-7.1,9.8-6.22,12.72,2.22,7.42,8.42-1.19,11.26-3.18,1.74-1.22,3.72-2.4,5.81-2.91ZM419.07,418.7c-2.31,1.94-11.89,5.02-12.92,7.3-1.49,3.3,1.07,7.82,4.38,8.37,1.18-.3,3.49-5.45,4.43-6.87,1.17-1.77,3.97-4.86,4.66-6.59.45-1.13.46-1.46-.55-2.22ZM379.43,457.48c.47-1.75,1.79-2.66,2.51-4.51,1.35-3.45,4.03-18.29-.09-19.56-2.63-.81-6.89.98-9.62,1.41-21.09,3.32-41.29,4.3-61.84-2.49-7.38-2.44-20.29-10.3-26.4-11.27-9.88-1.57-16.3,6.5-21.3,13.85-13.98,20.53-18.81,48.47-12.17,72.48,4.18,15.11,17.39,37.79,33.03,42.87,9.23,3,12.39.13,20.9-.51,9.47-.71,14.23,4.27,22.58,6.51,14.57,3.92,26.43,1.61,34.65-11.69,11.04-17.86-2.27-29.5-9.15-44.17-6.21-13.24-10.98-29.14,1.89-40.12.08,2.07-1.53,3.67-2.05,5.82-3.01,12.42,9.77,7.52,16.38,5.14,12.4-4.47,23.3-12.14,32.07-21.9,5-5.56,11.53-11.58,3.14-17.7-3.33,4.64-5.8,9.71-9.61,14.04-1.37,1.56-13.64,13.01-14.9,11.8ZM402.47,427.13c-.66-.64-14.39,4.02-16.35,4.87-1.24,7.06.48,14.05-2.2,20.99,7.5-7.03,16.57-15.33,18.55-25.86Z"/>
  <path d="M562.71,110.03c-7.81,8.52-11.84,20.08-10.61,31.69.97,9.12,8.98,13.89,16.79,16.94-2.57,2.91-7.67,4.72-11.51,4.82-2.16.05-4.02-.67-6.19-.64-6.51.1-11.9,6.51-13.49,12.41-5.33-7.76-4.01-17.62-2.15-26.32,3.29-15.39,12.4-32.11,27.17-38.89ZM536.86,172.43c2.02-2.41,2.83-4.59,5.32-6.76,6.96-6.06,10.15-2.39,17.86-3.51,2.27-.33,4.82-1.49,6.6-2.95-5.23-2.92-13.15-7.06-14.91-13.19-1.67-5.8-.96-14.9.71-20.7,1.05-3.64,3.21-6.63,4.09-10.24-9.52,7.87-16.85,20.39-19.52,32.48-1.73,7.87-3.02,17.23-.15,24.86Z"/>
  <path d="M562.01,249.59c8.84-1.41,5.36,10.06,2.63,14.43-2.33,3.73-9.52,10.25-13.41,5.08-4.36-5.79,3.51-18.35,10.79-19.51ZM553.79,267.37c5.33,3.18,13.13-12.13,10.08-14.3-2.24-1.59-6.54,2.2-7.82,4.07-2.11,3.08-2.74,6.55-2.27,10.23Z"/>
  <path d="M329.21,150.12c5.94,6.5-7.52,20.83-14.75,16.72-2.96-1.69-3.59-7.46-2.53-10.46,1.93-5.45,13.26-10.65,17.28-6.26ZM321.36,152.31c-9.4,1.93-9.28,18.46,1.79,9.66,1.68-1.34,6.89-7.8,3.99-9.52-1.73-.42-4.06-.5-5.78-.15Z"/>
  <path d="M229.47,279.66c-3.8-4.7,1.74-20.73,9.82-17.41,7.43,3.06,2.51,16.96-4.47,18.89-1.58.44-4.36-.27-5.34-1.48ZM236.41,265.31c-2.91.58-7.43,10.74-3.33,12.74,4.14,1.01,11.07-12.71,3.33-12.74Z"/>
  <path d="M552.97,360.34c5.5-.47,2.88,10.74,1.76,13.53-1.58,3.92-7.58,10.45-11.13,5.18s4.14-18.27,9.37-18.71ZM553.15,364.15c-5.18,1.5-7.6,8.54-7.31,13.49,5.96.29,7.68-8.7,7.31-13.49Z"/>
  <path d="M364.65,119.17c.74.74,1.86,4.59,1.8,5.7-.2,4.23-10.02,13.9-14.91,10.49-5.3-5.83,7.47-21.87,13.11-16.2ZM360.67,129.5c1.29-1.41,5-7.2,2.09-8.17-3.49-1.17-8.38,5.2-9.07,8.22-.17.76-.78,4.31.71,4.09,1.6-.23,5.15-2.92,6.27-4.14Z"/>
  <path d="M460.95,333.8c-1.93,1.94-4.6,3-6.75,4.77-19.47,15.96-31.26,46.98-51.71,65.23-22.38,19.98-61.71,25.73-78.4-4.27-.94-1.68-2.05-6.89-2.85-7.83-.42-.5-4.61-1.54-6.19-2.81-4.18-3.35-4.92-11.33-4.21-16.3.79-.13.82,1,.96,1.56.59,2.41.73,4.79,1.83,7.17,4.58,9.91,12.64,4.76,20.07,1.49,14.85-6.54,27.8-16.24,41.97-23.81,26.04-13.91,56.02-21.67,85.28-25.2ZM447.38,338.92c-.94-1.49-7.86.31-9.59.67-41.02,8.37-72.84,26.93-107.65,48.93-9.28,12.12,6.34,23.83,17.11,27.2,35.46,11.08,58.85-16.5,77.05-41.83,7.08-9.86,14.49-19.86,21.37-29.79.82-1.18,2.6-3.76,1.71-5.17Z"/>
  <path d="M304.64,531.7l-5.72-11.42c-5.49-14.38-6.82-40.66-2.99-55.48,1.5-5.78,3.68-11.78,6.74-16.88.75.38,0,1.54-.17,2.09-7.12,23.52-9.47,39.55-3.78,64.27,1.39,6.01,4.09,11.57,5.9,17.42Z"/>
  <path d="M410.2,358.05c2.1-.41,3.25,1.4,4.02,3.07,2.35,5.08.92,12.73-1.32,17.67-.45,1-2.99,5.4-3.63,5.92-6.43,5.16-4.87-10.64-4.48-13.47.43-3.07,2.05-12.54,5.41-13.2Z"/>
</svg>