<?xml version="1.0" encoding="UTF-8"?>
<svg id="katman_1" data-name="katman 1" xmlns="http://www.w3.org/2000/svg" viewBox="0 0 841.89 595.28">
  <path d="M563.68,153.06c7.07,7.15,15.2,13.53,20.82,21.96.1.71-.38,1.07-.83,1.49-2.87,2.65-23.24,4.47-28.23,6.32-.34,2.73,2.53,3.47,4.14,5.05s8.11,7.86,7.94,9.8c-.04.52-.27.97-.62,1.35l-29.81,14.54c-.31,4.55-7.41,9.78-8.56,12.35-1.64,3.66-.16,6.5-3.98,11.86-11.31,15.85-36.71,22.12-54.4,27.35-.59.17-2.05-.3-1.5,1.01.83,1.96,14.68,9.27,17.16,11.37l.22,4.16,7.95,8.24-1.8-6.56c.23-1.22,4.12-2.87,5.39-3.48,15.8-7.62,38.24-14.35,55.35-18.79,21.94-5.68,59.29-13.15,81.45-11.11,3.86.35,5.19,1.74,4.45,5.75-1.32,7.22-6.77,19.84-9.56,27.21-3.68,9.73-7.87,20.27-12.03,29.79-1.52,3.47-4.35,12.21-8.2,12.71-13.21,1.72-30.16-1.33-43.78-.06l-21.8,1.32-3.03,52.41c-.58,1.27-1.08,1.3-2.35,1.45-7.67.91-16.68-.9-24.43-1-1.2.73,1.21,5.85,1.16,7.64-.05,1.91-1.69,3.2-1.74,4.4-.09,1.99,2.67,6.7,2.48,8.85-.34,3.62-6.81,5.01-6.99,7.01-.07.79,3.74,13.66,4.34,15.32,1.98,5.47,5.7,11.65,8.02,17.33,6.03,14.76,11.79,29.51,18.67,43.9,1.76,1.04,4.57,1.51,6.08,2.95,1.73,1.65,1.05,3.5,2.51,5.04,13.38-5.82,28.61-4.27,37.97,7.7,4.24,5.43,14.59,26.05,14.27,32.49-.71,14.43-29.67,20.23-40.5,24.81-8.33,3.52-20.67,11.91-28.99,13.46-2.43.46-24.09.46-25.5-.18-3.52-1.6-10.07-15.52-11.54-19.51-2.02-5.51-3.94-12.94-5.44-18.63-.46-1.75.18-4.02-.83-5.83-3.75.79-7.19.47-10-2.35-3.94-10.69-12.17-22.09-15.33-32.82-1.28-4.36-.57-9.14-1.72-12.85-2.08-6.69-13.85-25.25-18.25-31.8-1.15-1.72-1.98-3.93-4.03-4.48-4.62,6.24-9.66,12.56-14.62,18.67-3.19,3.92-7.95,8.27-10.75,12.06-4.26,5.75-7.63,13.27-13.98,17.7-1.58,1.1-5.51,2.13-6.2,3.31-3.72,13.7,3.9,27.89-3.02,41.33-8.64,16.79-30.6,19.15-46.1,10.79-2.97,4.67-10.71,10.52-16.43,8.79-.33-.1-5.83-2.55-6.13-2.74-1.77-1.14-1.91-3.4-2.53-3.81-1.53-1-3.04.78-5.37-2.23-4.24-5.48-1.19-10.7-.45-16.61l-8.46-8.68c-4.01,5.53-7.38,11.57-11.46,17.04-2.6,3.49-10.52,13.93-14.22,14.98-.98.28-1.97-.18-2.58,0-1.42.45-3.44,2.18-4.69,2.14s-2.38-1.62-3.52-2.15c-1.08-.5-2.3-.24-3.48-.95-2.96-1.78-2.95-8.69-2.84-11.79.34-9.07,2.77-18.7,3.75-27.74l-9.78-6.8c-2.54-.24-3.33,3.7-6.3,3.89-2.02.13-3.58-1.25-5.14-1.31-1.82-.06-2.78,1.55-4.85,1.16-4.23-.81-3.61-6.01-4.62-8.74-.67-1.8-3.5-4.77-4.6-6.81-12.79-23.86-15.45-51.55-15.46-78.31-6.22-6.38-14.33-11-20.13-17.89-6.65-7.9-12.36-20.48-11.34-30.95.81-8.39,6.31-14.13,6.92-22.86.33-4.73-.32-9.86-.05-14.63.58-10.08,3.28-20.59,8.75-29.13-16.77-12.43-30.51-27.73-40.51-46.14-3.66-6.74-9.49-18.82-10.53-26.25-.66-4.67,2.93-4.8,6.55-4.61,11.07.61,28.17,8.44,37.62,14.33,16.2,10.1,28.99,24.56,39.77,40.09,23.03-6.74,48.3-5.84,70.7,2.77,1.8.69,6.04,3.63,7.45,2.74,4.5-9.38,10-18.43,16.77-26.34,7.79-9.11,15.43-13.63,23.98-21.01.65-.56,1.33-.61,1.05-1.79-12.99.17-26.93-.83-38.99-5.68v-1.95s9.85-5.04,9.85-5.04c-12.91-4.71-26.63-9.69-38.87-15.94-3.03-1.54-7.87-2.79-6.4-6.84,1.56-4.29,11.55-15.5,15.15-19.06,2.11-2.09,8.01-6.12,9.25-7.86.42-.59.75-1.15.62-1.92-.23-1.35-21.72-8.68-25.19-10.98-3.2-2.13.79-4.85,2.97-6.79,7.8-6.95,18.81-11.77,27.57-17.41.52-15.98,1.66-32.11,5.57-47.66,6.25-24.85,26.43-39.55,47.96-51.52,51.5-28.64,127.78-24.74,173,14.58,21.51,18.7,19.77,43.29,17.84,69.6,7.18,5.5,26.33,17.11,28.26,26.22,2.21,10.44-9.96,7.93-16.33,7.78ZM422.98,91.56c-.89-7.25,4.23-7.31,9.93-8.13,20.5-2.93,58.08-.09,76.41,10.25,6.04,3.4,2.33,6.46,4.29,8.39.87.86,7.78,2.84,9.66,3.65,6.1,2.65,12.11,5.57,18.03,8.6,1.6.15,1.9-3.54,2.03-4.75,4.95-46.92-19.93-70.96-62.51-83.06-35.25-10.01-75-11.28-100.23,19.16-13.32,16.08-14.99,41.69-15.86,61.76,18.47-8.39,38.04-13.69,58.25-15.87ZM405.27,23.8c-8.06.38-15.91,4.47-22.51,8.85-17.2,11.42-22.73,24.46-26.73,44.24-1,4.95-5.45,34.86-2.71,36.88l8.74-5.5c1.34-26.56,3.54-55.82,26.09-73.39l17.11-11.07ZM381.83,31.38l-.3-1.25c-15.75,6.37-30.62,15.14-43.71,25.99-13.54,11.23-17.71,18.11-21.58,35.44-2.98,13.35-4.33,27.53-4.09,41.2,9.79-4.66,20.79-7.63,30.54-12.22,1.74-.82,6.91-3.45,7.78-4.89s-.37-9.11-.34-11.75c.11-9.05,2.06-21.28,4.02-30.19,3.88-17.57,10.86-33.78,27.68-42.34ZM547.2,116.93c2.57-20.47,3.21-44.11-11.71-60.2-.55-.6-3.43-3.84-4.13-3.15,4.28,5.77,8.73,12.06,11.25,18.84,5.07,13.61,3.05,28.7,2.69,42.93l1.89,1.59ZM509.63,96.84c-.9-1.04-5.62-2.57-7.26-3.2-21.76-8.37-50.98-11.65-73.92-7.05-.63.13-2.13.26-2.3.98-.24.98-.16,3.62,1.05,3.97.96.27,8.71-1.17,10.67-1.25,17.06-.71,37.08,1.46,53.7,5.28,3.65.84,14.94,4.98,17.31,4.92,1.77-.04,1.61-2.66.75-3.66ZM544.81,143.4c.4.28,8.01,2.77,9.23,3.13,4.03,1.19,18.2,4.6,21.06,1.78.38-.37.65-.73.65-1.29.28-3.06-6.57-9.31-8.89-11.4-38.46-34.7-102.69-47.34-152.94-40.14-22.22,3.18-44.32,10.85-63.12,23.04.6.92,1.22.88,2.17.98,28.76,3.15,57.15-9.9,86.21-11.43,29.02-1.52,84.39,7.27,103.59,31.36.79.99,1.77,3.79,2.05,3.98ZM452.16,134.67c-1.51,1.04-2.88,2.45-4.12,3.79-2.39,2.59-11.3,13.46-13.61,14.28-.74.26-1.06.57-1.6-.31-2.59-4.17,4.31-34.69,7.92-40.26-.44-.62-.83-.82-1.57-.95-3.49-.6-12.45.81-16.39,1.35-19.11,2.66-37.41,9.79-56.8,10.36-2.06,1-6.97,12.84-7.89,15.55-4.11,12.1-5.89,28.1-6.07,40.82-.06,4.19.41,8.23.65,12.38-.06.08-1.42-.59-1.69-.84-2.27-2.13-5.77-8.54-8.46-11.5-8.43-9.28-18.76-13.41-25.98-.03-12.76,23.65,12.97,53.17,37.43,39.92l-.04-2.2c1.53-1.17,4.84,4.46,6.01,5.71,20.78,22.1,57.71,42.64,88.75,41.21,19.66-.91,60.59-12.23,72.41-28.97,5.59-7.92,2.19-16.87,3.35-25.79,1.7-12.99,7.01-27.16,9.87-40.19,2.14-9.77,4.03-19.76,4.82-29.72-2.98-4.43-30.95-20.16-33.81-18.87-5.83,9.55-11.64,19.29-19.6,27.27-1.13,1.13-8.02,7.32-8.88,6.61l8.23-16.16c.36-1.54-.98-.67-1.41-.3-4.94,4.31-10.18,11.91-15.03,16.8-3.72,3.75-9.06,8.95-13.03,12.32-.97.82-6.38,5.38-7.27,4.45-1.9-12.41.7-24.81,3.79-36.75ZM528.2,218.94c1.14,1.3,4.26-5.9,4.54-6.54,3.24-7.33,6.15-17.82.2-24.5-3.3,9.99-5.39,20.48-4.75,31.04ZM224.7,284.84c-.12-2.55,3.46-2.08,3.08-4.61-.23-1.56-7.87-11.52-9.44-13.43-6.66-8.1-16.52-17.7-25.13-23.66-5.36-3.71-7.73-6.52-13.46-1.65-7.21,6.13-7.63,19.65-4.61,27.96,2.2,6.07,11.83,15.07,16.94,19.18,2.09,1.68,8.34,6.6,10.48,7.33,1.4.47,4.57-3.78,4.38-1.29,0,.13-1.39,1.36-1.78,2.01-6.75,11.53-10.09,19.83-10.88,33.48-.31,5.3.52,11.23-.07,16.4-.8,6.94-6.14,12.83-6.82,20.42-.16,1.79-.75,5.1,1.18,5.94.28-9.55,8.08-20.86,18.81-15.95,15.81,7.24,19.59,40.59-.42,45.41,9.37,9.91,21.64,16.1,32.94,23.45-2.69.66-5.31-2.1-7.6-3.17-1.45-.68-3.16-.9-4.68-1.66-.77-.38-8.43-5.69-8.64-4.04-.11,26.1,3.38,50.88,14.97,74.37,2.14,4.34,5.59,7.33,5.61,12.76,1.08,1.94,2.34-2.85,3.77-2.52,3.12,3.61,5.92,5.15,5.43-1.29,7.26,2.91,4.26-.12,4.49-4.05.26-4.32,2.86-10.69,3.57-15.44,1.64-10.98,1.76-22.11.18-33.09,1.15.45,1.71,2.92,1.99,4.02,1.65,6.31,2.14,13.86,1.8,20.37-.16,3.09-1.76,7.84-1.23,10.74.45,2.5,4.2,5.16,5.04,7.01.12.27.16,1.04-.31.94-.87-.64-4.51-4.08-5.39-3.16-.98,5.6,4.84,8.26,7.92,12.02,2.09-4.84,2.87-10.06,4.58-15.05,1.8-5.24,4.4-9.99,6.52-15.03,2.6-6.18,4.06-13.91,8.85-18.7l-3.79,11.4,5.18-6.54,1.78-.75c-7.19,12.32-15.27,25.76-18.45,39.84-.43,1.9-2.21,8.53-.59,9.63l2.57.28c-.99,2.02-2.36,3.38-1.25,5.69l5.69-1.89c-.12,1.89.05,3.78,1.59,5.05l4.43-3.16,2.54,4.41c1.64-.33,1.84-2.21,2.87-2.8,1.3-.74,4.12-.99,5.86-1.76,13.77-6.11,23.33-15.62,31.41-28.15l8.97-16.04c-2.69,13.1-11.88,27.24-21.84,36.13-1.72,1.54-8.44,5.8-8.59,7.29,6.34,16.47,20.79,29.03,39.43,25.45,20.99-4.03,39.93-21.32,43.43-42.74.54-3.3,1.44-23.63-1.45-24.23l-11.69,3.16c-1.48-1.48,7.48-16.31,7.58-19.39.03-.88-2.66-7.83-3.12-8.2-.65-.71-1.09,0-1.65.3-4.47,2.46-8.52,7.04-14.03,8.18l-1.45-.86c.88-5.16,8.83-20.88,7.95-25.02-.19-.87-3.41-6.3-3.83-6.31-5.01,5.21-10.43,12.36-18.06,13.29l6.84-29.95-2.72-4.89c-2.42,3.96-4.54,8.12-8.55,10.77.77-2.22,2.34-3.52,3.34-5.84,4.41-10.19,5.61-29.81,2.66-40.41-2.67-9.62-4.19-16.28-6.22-26.1-2.56-12.41-7.97-23.63-12.46-35.37,2.72.18,2.51,5.61,5.68,4.14.92-.43,9.46-9.32,10.77-10.81,6.3-7.18,9.54-10.89,10.18-20.87.73-11.29-.82-22.45-5.78-32.61-1.27-.91-6.67,3.5-7.85,4.41-14.9,11.45-25.79,28.08-33.6,44.97-.44.2-.52-1.82-1.12-2.37-1.62-1.45-13.67-5.85-16.43-6.68-21.63-6.53-47.61-6.06-68.29,3.35ZM340.02,312.08c.56.39,1.65-.21,2.24-.6,2.93-1.91,9.43-7.85,12.33-10.48,6.09-5.52,12.43-14.11,18.68-18.7,3.58-2.63,15.05-6.94,16.81-9.17.5-.63.96-.64,0-1.29-1.63-1.09-9.64-2.31-8.8-5.57.73-2.85,13.24-6.82,16.22-8.54.44-.26,1.73-.75,1.14-1.41l-15.54-7.33c-8.06,16.22-18.07,33-30.08,46.63-2.31,2.62-12.53,11.49-13.34,13.32-.34.77.08,2.95.35,3.14ZM536.34,375.99l3.57-52.51c.68-.75,1.61-1.07,2.58-1.22,6.29-.93,15.61-1.13,22.11-1.34,14.67-.47,29.41.66,44.07-.28,8.32-18.41,16.18-37.27,22.82-56.39.89-2.55,2.05-5.54,2.7-8.1.16-.64.81-.72-.15-1.44-20.6-.66-41.98,2.13-62.14,6.33-25.65,5.34-50.28,14.09-74.74,23.16-.12.68.09,1.28.29,1.92.94,3.08,6.08,14,7.82,16.9s6.09,6.43,8.36,9.38c3.25,4.24,14.05,21.5,14.52,26.04.53,5.22-2.41,11.27-2.9,16.48-.16,1.68.75,3.87.39,6.22-.67,4.36-6.01,7.92-9.96,9.04-1.4.4-7,.75-7.08,1.76,1.24,5.15,5.64,3.21,9.79,3.5,5.94.42,11.95,1.07,17.97.54ZM440.12,296.87c1.4-1.27-24.45-24.9-26.3-27.23-2.09-2.64-1.5-3.52-2.56-5.68-.15-.3-3.21-4.04-3.45-4.16-3.17-1.59-15.17,5.25-19.01,6.04l51.32,31.03ZM447.73,267.1c-5.6-.03-11.71-.44-17.24-1.46s-10.45-3.57-15.74-3.98c-1.04.77-.74,3.6-.26,4.78.84,2.07,12.42,13.11,14.65,14.49,5.11,3.17,13.68,2.34,19.22.73l-1.28-2.88-2.52.35,3.16-12.03ZM450.41,267.88c-.33.34-1.8,4.67-1.91,5.39-.64,4.44,1.42,3.78,3.3,6.54,1.51,2.22,2.92,5.95,3.45,8.59.56,2.8.21,8.03.81,9.96.19.62.77,1.2,1.47,1.05l22.49-19.95c0-1.15-17.08-11.73-19.29-12.39-1.72-.51-9.23-.3-10.33.82ZM414.11,319.67c1.39-7.86.76-16.85-.91-24.7-.69-3.27-3.47-13.14-5.69-15.21-.9-.84-10.58-5.73-11.43-5.67-1.2.93-.76.73-.42,1.66,1.46,4.1,4.41,8.1,5.85,12.54,3.17,9.79,2.78,19.36,3.9,29.36l8.71,2.01ZM393.68,277.42c-1.52-1.36-5.13.79-4.86,2,.11.49,4.83,6.26,5.8,8.16,4.7,9.23,5.48,17.28,6.19,27.39.08,1.14-.17,2.05.98,2.81,1.16-.76.89-1.68.98-2.81.62-8.26-1.57-21.28-4.61-29.02-.65-1.64-3.43-7.6-4.47-8.52ZM398.31,317.47c.45-1.79,0-7.18,0-9.5,0-1.34-1.17-6.24-1.58-7.93-.99-4.1-6.33-19-11.3-18.84-8.44.26-18.44,14-24.18,19.51-2.94,2.82-18.49,14.44-18.72,16.79-.09.96,3.93,11.39,4.54,13.83,1.45,5.8,1.85,11.76,3.4,17.51,2.68-11.94,12.95-24.08,26.29-20.92-2.1-7.41-9.72-10.12-16.14-12.68-.98-.39-1.84-.5-1.59-1.89,7.04-.44,13.72,4.27,18.06,9.49,2.62,3.16,3.4,7.72,8.54,7.33l9.37-11.59c-.58-7.09-2.06-13.79-4.66-20.4-.36-.91-.42-1.84.67-1.31,2.97,1.46,6.36,17.83,6.03,21.54.4.02,1.21-.74,1.26-.95ZM438.74,400.05c3.1-20.13,3.45-40.65,3.89-61.06.12-5.76,1.83-12.49-.12-18.2-.46-1.33-2.8-2.8-3.78-4.45-3.22-5.4-1.95-10.36,1.33-15.25l-27.81-18.78c2.11,8.26,4.53,16.41,5.09,25,.23,3.57-.78,11.08-.04,13.84.33,1.24,5.76,2.61,5.77,9.63,0,3.81-2.23,5.29-2.42,7.04-.22,2.05.8,3.08-.14,6.3s-3.12,4.17-3.98,6.15c-1.15,2.62-1.22,5.72-3.6,8.31.16.91,7.58,5.67,8.81,7.06,1.67,1.89-.8,3.42-2.22,4.72-8.61,7.85-24.56,16.48-36.41,13.95-.87-.9.04-1.16.93-1.26,2.81-.33,5.03-.19,8.06-.82,5.71-1.19,11.96-4.13,16.93-7.15,1.62-.98,10.35-6.9,10.14-8.1l-9.05-6.61c-1.63,1.86-4.85,1.37-6.11,2.1-.34.2-3,3.8-4.1,4.77-3.55,3.11-11.26,7.57-15.91,8.17-4.27.55-9.2-.34-13.58.99-6.29,8.07-.56,11,6.56,14.38,17.97,8.54,42.16,11.09,61.77,9.29ZM450.84,283.62c-2.84.48-5.6,1.66-8.51,1.85-2.47.16-4.77-.64-7.01-.55-.56.02-2.09-.52-1.52.85.19.46,6.26,6.66,6.99,6.94,2.22.85,10.7-.1,11.73-2.18l-1.67-6.92ZM486.16,286.96c-1.35-1.3-4.73-4.8-6.1-2.44,2.62,3.63,4.97,8.2,6.63,12.37.95,2.39,3.94,13.99,4.44,14.57.8.94,4.46.57,6.38,1.23,2.42.84,4.17,3.62,5.95,4.18,2.64.83,6.29-.94,7.64,2.18h-6.33c-.24,6.87,7.37,5,11.07,8.89l7.3,9.49c.14-1.1-.06-1.98-.49-2.99-1.77-4.14-9.34-15.45-12.3-19.38-5.62-7.48-17.6-21.78-24.18-28.09ZM476.68,286.19c-.2.06-3.2,2.29-3.31,2.46-1.02,1.6,1.45,3.87,2.17,5.46,1.31,2.91,2.6,5.97,3.72,8.95.82,2.19,2.35,9.32,3.01,10.31.74,1.1,5.23-.45,5.73-1.27.97-1.56-2.73-11.82-3.67-14.12-.83-2.02-4.66-10.08-5.87-11.24-.63-.61-.85-.82-1.78-.56ZM480.04,315.25c1.4-1.38-6.08-19.66-7.83-22.26-.6-.89-.93-2.07-2.3-1.82l8.19,23.68,1.94.39ZM452.79,293.71l-9.49,2.2c2.12,1.87,5.84.73,8.46.87l.76-.5.27-2.57ZM467.97,294.37c-1.5-1.04-8.07,6.27-8.83,7.88.9,2.42,2.41,5.03,2.45,7.69s-1.88,4.97-1.89,7.53c-.02,5.24,2.09,12.85,2.59,18.39,1.7,18.98,1.47,38.09,3.18,57.01.14,1.57.61,7.61,1.63,7.85,9.89-1.29,19.84-2.77,29.28-6.08,2.87-1,13.8-5.13,14.08-8.12.59-6.13-6.6-5.59-11.11-7.25-6.95-2.56-14.7-7.96-19.31-13.65,1.61-.63,9.98-9.89,11.4-8.54-.89,3.23-5.25,5.34-7.01,7.9-1.32,1.92,3.22,4.68,4.9,5.93,4.4,3.27,10.98,6.8,16.42,7.67.87.14,1.88.39,1.52-.89-1.1-3.92-6.64-12.07-9.46-15.25-1.56-1.76-3.51-2.17-4.88-4.62-.74-1.31-1.11-3.86-1.63-4.4s-3.52-1.16-4.74-1.91c-4.07-2.48-3.37-5.4-5-8.94-.52-1.13-2-2.2-2.63-3.71-1.11-2.66-.42-4.37-.93-6.67s-3.48-4.65-3.63-7.78,2.59-5.13,1.72-8.04l-8.13-21.99ZM446.92,299.57c-4.41.81-4.3,3.66-5.68,6.99-.34.83-1.39,1.39-1.63,2.19-1.24,4.05,3.19,9.64,7.2,10.27,17.12,2.71,15.01-22.19.11-19.45ZM499.04,349.45c-1.58-.06-4.46,1.17-4.45,2.87,5.89,9.71,13.74.61,14-7.6.22-6.98-5.42-28.35-13.64-29.49-7.8-1.09-23,3.42-14.52,13.24l15.44-4.34c-.27.65-.52,1.49-1.13,1.88-2.7,1.72-12.25,2.51-13.33,6.17-.59,2.01,1.18,7.75,3.34,7.79,2.72.05,9.77-5.13,13.65-3.8-3.1,3.95-16.82,3.54-11.42,11.09,3.05,4.26,7.75.93,11.72.3l.31,1.89ZM457.86,319.69c-3.89.76-.92,8.05-.64,11.09,1.59,17.37,2.68,35.17,3.2,52.56.28,9.2-.49,18.44.25,27.63.65.93,6.18.7,7.67.62,10.05-.53,25.01-3.12,34.3-6.88,1.46-.59,7.65-3.58,8.16-4.56.72-1.16-1.9-7.42-2.61-7.58-6.7,2.79-13.47,5.56-20.55,7.28-3.25.79-21.99,4.38-23.37,2.75l-6.42-82.91ZM404.01,329.2c4.27-1.35,9.46,4.33,12.51,4.97,3.3.7,3.04-4.87,2.41-6.91-1.7-5.51-15.74-7.63-20.63-6-5.85,1.95-11.21,12.21-13.31,17.74-.97,2.56-1.89,8.17-2.83,9.84-.17.3-.81.81-.95.63v-5.7c-3.33,2.84-6.89,15-4.26,18.2.76.92,6.52,2.98,7.88,3.19,6.82,1.08,11.12-1.64,15.36-6.51.65-.75,1.96-3.43,2.33-3.51,2.55-.56,4.44,2.49.86,1.94-.46,1.93,2.42,2.05,3.82,1.64,2.24-.66,6.13-6.37,5.43-8.62-.79-2.57-5.86-5.04-8.06-6.58-.76-.53-1.55-.03-1.19-1.64,1.47-1.13,9.3,4.15,11.09,4.95,8.57-8.42-2.37-12.65-9.06-16.2-.79-.42-1.77.44-1.4-1.42ZM444.41,412.04c2.71-15.76,2.81-31.74,3.29-47.71.39-12.75,1.71-27.2.06-39.92-.18-1.38-.64-2.66-2.24-2.83l-.3,28.86c-1.76,17.28-1.15,34.92-4.42,51.97-21.97,2.54-44.63-.61-64.9-9.32-5.77-2.48-7.7-6.81-9.95,2.3.11,1.11,2.92,2.93,4,3.65,16.53,10.9,51.61,15.22,71.15,13.81,1.15-.08,2.34-.1,3.31-.82ZM453.34,321.68l-3.08-.09.03,51.03-1.93,29.44,8.47-.09,1.04-1.49c-.22-21.91-.39-44.1-2.54-65.89-.16-1.66-1.43-12.57-1.99-12.9ZM499.69,359.61c4.28,5.24,13.48,3.85,18.08-.61,7.13-6.91,5.23-21.15-1.59-27.61-.55-.52-8.29-5.79-8.27-3.77,3.6,10.56,6.82,29.56-8.23,32ZM383.65,333.09c-18.55-12.26-37.58,13.07-29.32,30.26,2.24,4.66,13.4,9.51,18.34,9.58,2.4.03,7.57-1.86,8.52-4.14s-3.92,1.12-4.61.24c-5.47-5.66-3.04-18.28.36-24.76,1.17-2.24,7.79-9.3,6.7-11.17ZM199.82,358.49c-8.04,1.48-10.21,15.6-9.18,22.19.77,4.93,7.81,16.74,12.69,18.36,9.35,3.1,14.93-8.67,15.08-16.3.2-9.91-6.31-26.51-18.59-24.25ZM521.86,359.61l-8.99,5.26-8.75.75c1.9,2.5,7.19,1.83,10.02,1.15,3.47-.83,6.8-3.72,7.72-7.16ZM397.67,365.32c-1.93.12-3.1,1.79-5.02,2.26-4.6,1.13-9.37-.17-11.45,5.97,5.82-1.62,12.57-3.3,16.47-8.23ZM365.36,375.45c-4.52-1.7-5.73,4.07-9.18,6.34-1.48,5.83-1.02,10.8,1.46,16.26,1.13,2.48,6.57,11.07,8.33,13.04.34.38,1.73,1.24,1.91,1.11l2.49-7.82c-.31-1.06-8.52-4.08-8.8-8.37-.17-2.75,2.59-5.75,2.86-7.81.19-1.42-1.44-2.49-1.44-4.07,0-1.73,3.11-7.95,2.36-8.67ZM457.87,403.96l-9.42.72-1.34,7.51,10.17-.27c1.25-.87.31-6.24.6-7.96ZM381.78,407.81l-6.87-1.91c-.85,2.83-2.38,5.71-3.23,8.5-.39,1.27-1.35,3.07-1.15,4.31.12.74,3.99,7.15,4.65,7.42,1.25.5.89-.87,1.11-1.38.94-2.22,6.27-15.82,5.48-16.94ZM503.96,408.55c-1.32-1.35-8.06,1.55-8.06,2.06l10.12,4.75c.53-.72-1.34-6.09-2.06-6.82ZM397.04,412.2l-12.3-3.13c-5.22,8.67-2.66,9.78,6.25,6.88.85-.27,6.8-2.79,6.05-3.76ZM523.76,459.08l-16.79-41.18c-2.6-1.45-5.64-1.85-8.35-3.06-1.79-.8-5.4-3.56-6.39-3.8-1.9-.45-11.48,2.08-14.42,2.41-6.82.75-13.75.65-20.59,1.27l-1.26,11.41,16.47-4.12c-2.67,2.29-7.34,4.03-10.78,5.06-10.7,3.21-22.56,4.19-32.93-.63-.24-1.71,1.06-.72,1.9-.63,1.5.16,9.06,1.65,9.52,1.34l1.9-10.2-1.07-1.48c-7.88-.56-16.17.42-24.01-.07-4.4-.27-13.18-2.78-16.93-1.77-1.21.33-2.83,2.09-4.24,2.72-5.1,2.29-8.93,3.12-14.61,3.13l-4.28,9.62c7.76,14.59,14.16,29.91,16.36,46.45,10.33-.48,15.34-4.15,21.85-11.38,7-7.77,12.92-16.64,19.95-24.41-3.28-.9-6.62,1.2-9.82,1.59-.64.08-2.39.42-2.21-.63,8.42-2.52,17.22-6.81,26.24-5.66,3.24.41,20.71,6.75,21.91,9.14.53,1.06-.39,1.05-1.31.68-1.12-.46-18.33-8.63-18.33-6.38l16.16,26.92c2.57,5.62-2.39,11.44,3.8,15.83,7.47-7.05,17.04-13.16,26.5-17.21,7.86-3.36,17.24-6.59,25.77-4.97ZM443.29,427.41c3.28-.05,6.84.43,9.82-1.27,1.16-1.99,2.67-9.89.97-11.14l-9.88.96-.91,11.45ZM448.23,438.31c-1.27-.32-5.05-.64-4.85,1.34,5.98,12.31,15.53,23.72,20.74,36.31,1.58,3.81,1.09,4.99,1.34,8.8.06.94-.48,1.83.94,1.57,4.79-3.18.28-5.72-.27-9.22-.51-3.28.53-7.12-.33-10.45l-17.58-28.35ZM534.53,484.43c.19-1.11-.16-1.97-.5-2.99-.96-2.86-7.34-16.27-9.1-18.15-3.66-3.92-11.15-1.93-15.75-.72-9.39,2.47-20.16,8.15-28.08,13.74-1.45,1.02-8.07,5.58-7.93,7.05,2.96,7.05,6.38,13.95,10.99,20.08l7.7-6.23c5.47-3.81,22.2-12.78,28.41-12.78h14.26ZM393.24,479.04v9.19c5.93-1.91,9.08-7.74,12.68-12.35-1.93-.11-12.34,2.12-12.68,3.16ZM470.85,485.07c-2.12,2-3.83,3.23-3.36,6.47.31,2.15,8.58,20.08,9.7,20.11l4.63-6.54-10.96-20.04ZM534.98,495.02c1.83-2.18,1.45-6.34-1.23-7.59-1.63-.76-13.55-.63-14.42.17,1.19,4.26,4.47,5.3,7.56,7.32,1.41.92,2.03,3.01,3.84,2.56.47-.12,3.97-2.13,4.25-2.46ZM518.7,492.66c-.5-6.54-7.59-2.51-11.39-.93-2.57,1.07-8.69,3.07-8.15,6.16.2,1.14,4.46,10.59,6.23,8.71-.71-8.76,4.67-14.16,13.31-13.94ZM538.34,496.46c3.5-.34,7.39-6.25,2.74-7.51-2.96-.8-2.78,5.93-2.74,7.51ZM538.34,519.91c4.43-2.15,8.59-4.8,13.08-6.88,5.93-2.75,14.66-6.29,20.99-7.52,2.86-.55,7.97-.33,9.86-.91.57-.17,1.22-.72.97-1.39-6.75-9.77-18.82-12.53-29.88-8.51-10.24,3.72-13.37,15.52-15.03,25.2ZM523.12,497.1c.2-2.65-4.78-2.11-6.65-1.9-7.27.81-10.12,6.18-7.95,13.03.9,2.84,3.69,5.42,4.85,1.55.52-1.72-1.29-3.89-1.04-6.66.51-5.49,6.48-5.69,10.79-6.02ZM265.88,506.6l-7.28-9.49c-1.54.89-.39,3.63.3,4.76.65,1.06,6.2,5.46,6.98,4.73ZM544.67,497.1c-2.69-2.65-8.86,12.43-9.32,13.8-2.74,8.32-3.43,16.14-2.09,24.84-1.65.27-1.88-1.37-1.93-2.51-1.05-.24-1.86.3-2.75.68-4.21,1.78-23.27,15.21-26.39,18.59-2.59,2.81-.85,5.13,1.61,7.3,2.62-2.69,5.68-4.94,8.73-7.1,16.34-11.54,41.75-28.45,60.79-33.62,5.5-1.49,11.14-1.83,16.7-2.95,1.01-1.39-.92-4.14-2.59-4.46-8.22-1.57-25.7,4.73-33.48,8.31l-18.78,10.68c-.04-8.53,1.8-19.31,5.58-27.04,1.18-2.41,2.99-4.14,3.92-6.53ZM492.07,521.18c1.56-5.66,3.75-11.01,8.16-15.02l-4.07-8.41c-1.46-.32-11.46,8.75-12.93,10.47-3.06,3.58-5.28,5.73-3.49,10.43,2.23,5.83,5.94,4.52,9.57.69l2.76,1.86ZM526.29,500.28c-1.41-.64-9.43-1.63-8.86.93,2.36,3.92,6.34,1.66,8.86-.93ZM537.7,499.64c-17.21,3.67-27.64,16.19-34.75,31.45-1.89,4.05-4.62,9.36-5.32,13.7-.55,3.38,2.79.84,3.87-.59,2.7-3.58,4.69-22.11,11.19-10.35l1.14.55,15.67-9.71c1.61-3.78,1.59-7.97,2.69-11.89,1.28-4.57,3.72-8.81,5.52-13.17ZM586.45,507.29c-.91-.29-1.83-.6-2.8-.69-10.47-.9-34.05,8.73-42.86,14.8-1.87,1.29-3.51,2.16-3.07,4.84,14.86-8.84,31.01-16.85,48.79-17.11l-.05-1.85ZM492.08,530.68c1.26.26,1.49-.6,2.03-1.45,2.22-3.45,3.77-8.57,6.1-12.28,1.64-2.61,3.16-3.76,4.86-5.91.54-.68,1.42-.78.33-1.59-3.79-1.05-5.42-.38-7.39,2.77-1.31,2.1-6.86,17.37-5.93,18.46ZM388.16,509.78c-1.51-.62-1.84,2.14-1.86,2.94-.09,4.84.98,8.16-.33,13.56-3.61,14.93-24.8,19.93-37.32,13.38l-1.07.82c-1.59,1.64,1.02,2.75,2.33,3.44,11.01,5.74,28.07,1.86,34.72-8.85,5.03-8.09,4.18-16.23,3.53-25.29ZM302.55,511.12c-1.53-.97-6.68,2.69-8.78,2.48v1.88s10.76.63,10.76.63l-1.97-4.99ZM495.25,541.45c1.1.22,1.28-.27,1.76-1.08,1.43-2.44,2.65-7.55,4.03-10.54,2.28-4.95,4.86-9.77,8.06-14.18.35-1.4-1.07-2.47-2.12-3.17-2,.51-2.7,2.19-3.75,3.69-4.61,6.56-10.28,17.22-7.97,25.29ZM274.65,513.64c-.64-.36-4.4.71-5.13,2-1.34,2.36-2.72,13.96-3.01,17.27-.25,2.87-.89,9.98-.36,12.39.2.91.56,2.25,1.61,2.49.63-2.36,1.78-4.93,3.8-6.33-1.95,9.18-.84,11.28,5.4,3.17l.95,3.16c.07.09,1.41-.61,1.69-.85,2.79-2.47,8.41-10.71,10.86-14.16,2.92-4.1,5.62-8.33,8.34-12.56-.44-.66-.84-.79-1.58-.93-4.29-.81-8.44-1.86-12.53-.09-3.19-4.41-2.89-2.39-6.49-2.43-2.88-.03-3.01-2.84-3.55-3.14ZM592.82,522.44c.01-4.86-5.7-3.52-9.11-3.09-21.27,2.67-52.4,22.58-69.91,35.27-1.86,1.35-9.56,6.4-8.98,8.56l1.51,1.7c10.12-8.53,21.91-16.26,33.35-23.03,16.09-9.53,33.91-19.51,53.13-19.41ZM383.59,520.68c-3.89-2.75-6.56,2.23-9.07,4.29-2.76,2.27-6.14,4.83-9.22,6.62-1.3.75-13.75,6.07-13.25,6.7,10.25,4.22,26.48.34,30.88-10.61.53-1.32,1.92-6.1.66-6.99ZM585.54,533.85c2.78-.33,6.57,0,9.5,0,1.36,0,1.82-7.98-3.2-8.83-11.68-1.97-33.54,9.27-43.79,15.06-12.54,7.08-25.02,14.99-36.32,23.88-.36,1.53,2.01.99,2.87.97,5.15-.16,32.75-7.83,35.79-11.1,1.33-1.43,2.25-4.79,3.15-6.66-.93-.87-11.38,4.2-13.26,4.8-.58.19-2.11.78-1.94-.36,5.43-3.22,12.07-4.37,17.74-6.66,8.68-3.51,19.99-9.96,29.46-11.09ZM530.09,528.15c-.78-.78-8.13,3.99-9.45,4.8-3.97,2.45-8.33,5.4-12.03,8.25-1.39,1.07-8.47,6.67-8.98,7.5-.61.99-.73,1.75-.59,2.89,1.28.27,1.69-.28,2.56-.92,3.7-2.73,7.25-6.27,11.17-9.1,3.82-2.76,13.9-8.19,16.37-10.87.79-.86,1.16-1.26.93-2.54ZM330.5,542.72l-2.49,6.61c.89,3.72,9.35-2.92,10.75-4.37,1.1-1.13,2.72-3.34,3.53-4.71.44-.74,1.34-.87.26-1.66-6.34-.25-11.43-.5-17.35-2.93-2.83-1.17-5.26-3.04-8-4.34-1.29,3.22-4.23,11.86,1.23,11.74l5.09-5.4c-3.7,9.98-.91,13.68,6.97,5.06ZM504.13,541.45c3.4-3.03,10.71-5.39,4.75-10.13-1.15-.01-5.32,9.39-4.75,10.13ZM560.51,544.62c5.07-1,10.32,1.04,14.91,1.28,6.37.32,15.07-5.2,19.29-9.83-.52-.53-.95-1.22-1.7-1.45-4.15-1.28-22.18,5-26.97,6.98-1.73.72-4.36,1.58-5.53,3.02ZM573.81,546.53l-17.32-.53-5.49,10.03,21.41-8.08,1.39-1.42ZM550.37,556.67c-11.57,2.61-22.68,8.11-34.54,9.49-1.84.21-3.91-.22-5.7,0-.88.11-1.83.34-.94,1.26,11.52,2.31,23.35-1.83,33.81-6.42l7.37-4.34Z"/>
  <path d="M301.83,322.37c23.36-4.35,27.1,39.64.77,35.05-17.14-2.99-15.57-32.3-.77-35.05ZM309.68,331.31c0-3.52-2.85-6.37-6.37-6.37s-6.37,2.85-6.37,6.37,2.85,6.37,6.37,6.37,6.37-2.85,6.37-6.37Z"/>
  <path d="M212.88,324.35c5.87-5.58,15.98-5.93,20.81,1.24,11.75,17.46-7.75,39.34-22.23,25.4-7.07-6.81-5.34-20.21,1.42-26.63ZM225.16,323.6c-6.79,1.37-4.76,12.71,1.65,12.38,8.04-.42,6.98-14.13-1.65-12.38Z"/>
  <path d="M320.21,359.76c28.07-4.5,26.9,46.27.48,46.78-24.96.48-22.87-43.19-.48-46.78ZM319.56,362.28c-18.51,3.78-20.46,42.13,1.12,41.72,23.36-.44,24.71-47.01-1.12-41.72Z"/>
  <path d="M282.35,367.85c-.14,4.11-6.34,6.48-9.82,6.38-5.27-.14-11.12-5.71-13.3-5.71-1.78,0-5.65,3.05-7.58,3.79-5.44,2.08-11.42,1.12-13.65-4.77,2.4-1.03,3.9,2.73,6.18,3.32,5.64,1.46,10.54-2.96,15.05-5.57,6,3.76,9.9,8.14,17.6,5.58,2.29-.76,3.41-2.39,5.53-3.02Z"/>
  <path d="M255.94,354.98c-4.5-5.38,10.19-5.72,6.81-.72-1.55,2.29-4.95,2.95-6.81.72Z"/>
  <path d="M414.78,150.51c-7.76-10.18-21.25-2.99-27.86,4.77-4.06,4.77-10.79,17.94-10.79,24.06v9.5c0,.1-.62,1.85-1.26,1.58-2.68-16.32.8-35.46,15.89-44.61,15.8-9.58,28.52-1.5,33.2,14.84-2.74-1.81-3.97-5.38-6.14-7.83-1.16-1.3-1.81-1.58-3.04-2.32,5.97,7.83,6.11,20.63,4.99,30.02-.84,7-2.58,14.04-6.88,19.73l3.16,2.2c-3.03.57-6.73,1.01-9.82,1.14-3.56.15-7.19-.41-10.74-.53-5.56-.19-10.75.54-16.18-1.25-.95-.89.08-1.15.95-1.27,2.35-.31,13.21,1.56,14.26.64-1.1-2.91-3.2-5.03-4.26-8.09-4.34-12.53-.56-33.51,10.3-41.95,5.48-4.25,8.41-4.13,14.24-.65ZM409.53,151.91c-5.51,1.68-6.75,16.93,1.14,16.41s6.75-18.81-1.14-16.41ZM394.89,195.75c1.66,2.31,1.97,4.02,5.43,5.03,7.05,2.06,11.67-2.18,14.38-8.21,5.71-12.68-8.67-11.55-4.99-.88-3.59-1.31-5.33.19-8.55,1.28-.61-.04.1-10.66-5.98-8.55s-2.67,8.02-.29,11.33Z"/>
  <path d="M514.88,197.4c-1.08.12-.69-2.19-.66-2.87.27-5.49,1.07-10.79.66-16.44-.76-10.36-5.71-25.45-19-19.96.07,1.16,1.98.42,3.16.95,5.84,2.64,6.09,19.89,5.73,25.37-.62,9.51-2.98,19.6-10.16,26.26,4.94-.2,8.97.79,13.9.28.86-.09,1.51-.91,1.3.67-.76.85-1.91,1.24-3,1.44-3.28.59-13.16-.61-16.79-1.28-1.31-.24-7.08-1.72-7.45-2.69l1.31-.69c-3.99-11.2-3.06-27.33,1.55-38.26,1.06-2.51,3.4-5,4.09-6.68.12-.29.17-1.04-.31-.94-1.51,1.23-2.64,2.83-3.94,4.26-.39.43-.41,1.86-1.44.5,5.39-10.75,19.14-20.2,29.15-8.89,8.52,9.63,5.91,27.76,1.88,38.98ZM496.33,161.37c-4.78,1.24-6.3,14.89-.77,15.19,7.34.39,6.91-16.78.77-15.19ZM489.55,201.84c.46-2.52-.7-12.54-4.4-9.15-3.03,2.77-1.37,7.99,0,11.33,5.74,13.95,18.59-6.33,15.22-10.78-2.82-3.72-7.54,4.5-5.12,7.34-2.82-.97-3.59-.72-5.7,1.27Z"/>
  <path d="M428.08,141.01c-12.81-7.32-25.83-12.09-40.85-11.4-1.69.08-3.67.74-5.53.82-.34.02-1.81.61-1.75-.52.14-2.66,15.52-10.85,19.15-10.33,5.4.76,20.24,11.43,24.49,15.47.52.5,4.97,5.48,4.5,5.95Z"/>
  <path d="M528.19,146.71c-9.76-4.31-20.19-3.96-30.42-1.59-2.41.56-5.33,2.08-7.57,2.59-.82.19-1.14-.31-1.29-.98,7.79-4.33,20.27-14.66,29.48-14.6,4.95.03,9.72,10.13,9.8,14.59Z"/>
  <path d="M481.11,219.34c.24-.14,0-1.52,1.14-1.03.95.42,1.13,1.57.94,2.5-15.63,7.47-40.61,4.87-54.67-5.16-1.36-.97-3.48-1.76-2.97-3.68,4.96,1.77,8.88,4.8,13.96,6.62,10.6,3.79,31.62,6.73,41.6.74Z"/>
  <path d="M344.97,196.03c-2.1.42-7.13,5.95-7.36,7.5-.47,3.21,6.55,7.28,7.46,9.4,1.21,2.81-4.99-1.76-5.69-2.55-2.61-2.89-3.89-6.09-2.15-9.75,2.64-5.57,7.5-4.43,1.84-11.48-3.57-4.44-9.22-9.02-14.87-5.35-1.86,1.21-2.66,3.59-3.21,4.08-2.35,2.08-.24-3.2.93-4.46,3.8-4.09,9.2-3.9,13.61-.88,2.21,1.51,10.8,11.18,9.44,13.48Z"/>
  <path d="M390.7,208.8c-5.48-.59-10,.7-14.81,3.13l-.4,1.94,16.17-1.89,6.01.62c-7.97,1.93-16.55,3.97-24.77,2.8-3.69-4.96,14.91-11.81,17.8-6.6Z"/>
  <path d="M519.15,219.11c7.17,7.41-24.72,8.24-15.64.81,3.46-2.83,12.38-4.19,15.64-.81ZM504.76,222.74c4.35.52,9.65,1.3,13.29-1.58-1.58-1.97-4.15-2.44-6.57-2.18-.85.09-8.37,2.36-6.72,3.76Z"/>
  <path d="M464.21,211.97c-.46-2.18,1.58-3.87,1.28-5.98-.26-1.83-3.43-3.09-3.19-5.42,1.07-.98,6.01,3.98,6.25,4.88.43,1.66-2.91,5.5-4.34,6.52Z"/>
  <path d="M460.9,40.46c19.53-1.2,44.41,9.22,51.12,28.97.96,2.81,3.23,12.73,1.64,14.93-.62.82-1.04.78-1.96.65-3.17-.45-14.09-6.67-16.47-5.17-1.34.84-1.52,5.17-4.12,5.41-2.26.21-6.11-1.76-8.52-2.24-6.24-1.25-13.63-2.42-19.96-2.85-4.14-.28-9.38.61-13.3,0-5.14-.81-3.77-6.43-6.36-6.94-3.83-.75-19.84,2.62-21.27,1.63-.89-.62-.54-1.54-.46-2.39,2.06-20.74,20.66-30.83,39.65-31.99ZM504.12,61.17c.27-1.19-.67-1.5-1.26-2.22-13.6-16.5-48.33-21.18-65.73-8.7-1.05.75-4.7,3.35-1.4,3.04,5.81-.54,11.08-2.02,16.41-3.24,12.08-2.77,30.29-1.24,40.12,6.82l11.86,4.29ZM494.62,59.91c-.96,1.03,3.34,5.59.95,6.95-2.59-3.13-3.94-7.31-7.27-9.82-7.32-5.53-23.74-6.62-32.59-5.32-4.99.74-8.01,5.19-9.88,9.45-1.06.18-.71-1.57-.59-2.17.38-1.86,1.72-2.98,1.86-4.79-5.66,1.11-14.99.08-18.65,5.11-1.3,1.79-6.13,12.48-3.16,13.18,6.63-1.13,13.4-2.09,20.14-1.73,1.68.57,1.37,5.97,4.01,6.76,2.85.85,9.69-.15,13.21.1,4.76.33,10.9,1.26,15.64,2.1,2.72.48,9.73,3.03,11.62,2.99,1.73-.04,3.26-4.66,3.5-6.26,1.45-1.26,15.17,4.83,17.68,5.64.21-5.63-.21-13.8-5.26-17.23-1.04-.71-10.79-5.39-11.21-4.94Z"/>
  <path d="M457.02,309.33c0,4.07-3.3,7.37-7.37,7.37s-7.37-3.3-7.37-7.37,3.3-7.37,7.37-7.37,7.37,3.3,7.37,7.37ZM455.15,309.23c0-3.06-2.48-5.54-5.54-5.54s-5.54,2.48-5.54,5.54,2.48,5.54,5.54,5.54,5.54-2.48,5.54-5.54Z"/>
</svg>