<?xml version="1.0" encoding="UTF-8"?>
<svg id="katman_1" data-name="katman 1" xmlns="http://www.w3.org/2000/svg" viewBox="0 0 841.89 595.28">
  <path d="M437.17,433.28c.01-.29,1.43-1.58-.26-1.35-2.93.4-8.58,3.58-12.15,4.6-4.15,1.18-9.53,1.12-12.58,2-1.15.33-5.19,4.1-6.79,5.09-3.32,2.05-8.7,4.83-12.38,5.98-1.83.57-9.08,1.53-9.86,2.02-1.28.81.84,5.12,1.06,6.55.77,4.98.7,12.79-1.47,17.35-.73,1.53-2.06,2.67-2.82,4.2-3.47,6.96-1.82,13.89-1.61,21.09.27,9.24-1.14,11.82-9.35,16.02-6.65,3.4-16.19,5.93-23.42,3.24-1.69-.63-3.53-2.51-5.2-2.27-13.75,15.97-26.32,33.15-46.3,41.85-11.89,5.18-28.45,7.96-41.3,6.23-11.49-1.54-20.24-18.14-24.67-27.72-6.84-14.81-9.47-20.23-2.87-36,8.36-19.96,24.18-40.28,35.59-58.92,1.79-2.93,7.47-11.39,8.18-13.99.63-2.28-2.05-5.43-3.1-7.74-2.37-5.23-8.29-19.02-7.34-24.27.29-1.61,2.49-5.27,3.43-6.84,6.98-11.65,16.66-23.3,23.14-35.19.53-.97,1.23-1.84,1.39-2.98.16-1.66-2.17-5.88-2.94-7.8-.62-1.54-.79-4.03-1.67-5.35-.99-1.5-6.22-4.16-8.09-5.95-5.19-4.95-11.9-19.72-12.61-26.82-1.15-11.38,2.97-30.15,6.95-40.99,1.35-3.67,5.17-9.65,5.14-13.17-.01-2.01-2.74-3.12-1.79-6.15.3-.94,1.78-1.35,1.56-2.78-5.81-3.07-1.32-6.52.6-10.21,1.15-2.2,4.63-8.19,5.08-10.08.41-1.71-.39-2.9-.36-4.59.11-6.86,18.8-24.17,24.34-29.18,4.61-4.17,9.51-8.21,14.33-12.13,2.02-1.65,4.95-3.05,6.21-5.14l-31.55-4.65-.87-.76c-.35-1.5,8.97-6.37,10.8-6.75l-.9-1.52c-7.84-.28-15.84-.15-23.67-.64-1.44-.09-7.08-.39-6.75-1.88l25.92-29.18c-3.45-.05-6.65,3.05-10,4.04l-.74-1.25,17.67-16.93c-1.76-7.34-.81-15.06-.97-22.6-.39-17.88-3.06-31.25,8.4-46.65,11.63-15.63,32.47-25.39,50.99-30.03,13.31-3.33,20.52-4.19,34.14-1.73,26.15,4.72,63.1,14.9,68.96,45l1.77,50.9,18.24,8.49,1.11,1.31c-3.45,1.95-8.19-1.57-10.8,1.08l38.21,23.49c-.36,1.4-1.49,1.97-2.63,2.65-11.22,6.71-26.59,10.72-38.43,16.66l-.94,1.49,4.51-.02.62,1.66c4.19-.77,11-3.55,14.54.02,1.41,1.43,1.38,3.36,2.24,4.78,3.37,5.54,35.67,17.63,42.86,21.95,3.49,2.13,1.26,6.66,2.7,8.65.61.84,8.43,4.55,10.13,5.54,8.77,5.12,23.84,13.16,29.24,21.53,3,4.65,6.33,13.25,4.26,18.63-.99,2.58-10.47,11.9-13.05,14.49-8.34,8.35-17.45,16.08-25.95,24.28s-16.31,16.12-24.5,24.16v.86c1.14,1.22,1.71,2.14,2.27,3.73,1.93,5.46,2.97,13.93,4.01,19.75,2.27,12.77,3.83,25.7,6.09,38.46,13.5-1.74,26.69.43,39.62,4.2,12.91-8.66,27.2-15.33,42.06-20,9.02-2.83,25.52-7.38,34.65-6.27,3.11.38,4.38.68,2.94,3.9-1.72,3.84-12.87,13.35-16.54,16.53-9.55,8.27-20.03,16.16-30.18,23.7-2.16,1.6-13.2,8.62-13.6,10.21,1.74,6.09,5.34,11.46,7.1,17.55,3.28,11.35,3.08,22.13-2.96,32.45-1.17,1.99-5.71,6.87-5.76,8.18-.03.89.5,3.58.71,4.64,1.57,7.84,4.9,16.1,6.64,24.15.85,3.93,1.19,8.57,2.01,12.57.53.71.72.49,1.4.3,2.02-.57,8.58-7.55,11.3-8.69l-13.36-10.8,28.97-31.98-.45-1.54-14.65-15.08-.29-1.92,43.51-70.49,2.18-.79,13.56,48.89-.55,2.19-24.87,19.94c2.34,3.34,22.13,24.22,22.16,25.92.04,2.19-32.31,21.42-35.65,25.38.01.77,9.02,9.49,9.98,11.63.27.6.46,1.01.02,1.6l-30,17.29c-.18,2.39,7.63,5.1,4.3,7.26l-15.67,5.93c-2.49,9.3-3.83,18.58-11.3,25.43,1.76,2.11,3.2,3.42,3.27,6.46.21,8.6-11.27,6.77-16.91,7.98-11.96,2.56-18.09,10.58-27.46,16.83-3.15,2.11-4.1,1.09-7.47.25l-.06-3.19c-1.03.55-3.36,1.03-4.09.03-.19-.26-.23-.54-.26-.85-.25-2.98,9.91-11.2,12.99-12.15v-.8c-3.17-2.26-3.09-5.78-4.6-8.92-3.93,2.2-8.37,4.27-12.98,4.34-3.23.05-6.94-1.58-9.71-1.66-4.23-.11-17.26,8.19-21.67,10.73-2.4,1.38-8.23,5.94-10.7,5.53-1.48-.25-1.41-1.92-2.22-2.11-.72-.17-2.35,1.05-3.5.23l-.5-4.09-2.76-.31c-2.04-2.76,2.71-7.18,4.65-8.87.68-.59,3.88-1.38,2.1-2.74-.39-.3-1.34-.4-2.1-1.03-.91-.75-4.29-4.46-4.59-4.59-1.65-.76-5.23-.09-7.28-.28-6.64-.62-27.32-2.7-31.61-7.27-1.11-1.19-1.85-3.86-2.09-5.47-.67-4.48-.13-9.02-.03-13.42.2-9.1.63-18,2.16-27.01l-.3-.82c-6.62-2.68-6.28-22.06-3.43-26.14.43-.62,1.48-.8,1.58-1.24.36-1.61-1.65-3.86-1.65-4.76,0-11.33-.52-23.33,0-34.57ZM384.24,68.45v10.53c0,.75,1.03,2.95.62,4.24l.8.85c4.78-.97,9.71-.42,14.51.04,18.03,1.75,36.26,7.07,51.86,16.19,1.1.14.7-.04.8-.79.45-3.34-.47-6.61-.56-9.71-.4-13.46.32-33.65-5.83-45.48-9.78-18.84-35.14-28.66-55.07-31.89-3.45-.56-6.92-1.49-10.34-.67.87,10.1.18,20.31,1.68,30.39.33.83,3.34,1.45,4.73,2.29,1,.61,4.2,3.24,4.37,4.28-.43,2.21-3.42-.65-5.05-.63-.79,0-3.49.78-3.88,1.44-.54,4.13-.48,8.42.53,12.45,2.07,2.95,21.94-4.22,22.98,4.02-.5.86-1.12.69-1.89.82-6.47,1.13-13.68,1.02-20.26,1.62ZM380.37,43.52l-1-30.42-.88-1.3c-21.57,1.97-47.76,13.92-59.29,32.94-5.24,8.64-5.42,15.3-5.74,25.04l.57,35.94c21.99-9.79,44.39-21.53,69.13-22.14-.7-4.48-.25-9.36-1.1-13.76-.12-.61-.17-1.07-.84-1.31-2.53.33-5.56.86-8.06,1.02-4.83.29-12.18.98-16.76.57-1.44-.13-3.19-.2-3.51-1.92-.3-3.28,10.35-10.61,13-12.95,4.61-4.07,8.52-9.47,14.49-11.7ZM452.1,36.23c-5.74-5.69-15.87-11.25-23.43-14.1-1.05-.4-4.31-1.96-5-.68,16.28,6.93,28.32,22.23,29.16,40.25l2.05,39.46.48.81,8.81,3.74c.75-2.98,0-5.66-.02-8.35-.22-20.04,3.06-46.16-12.05-61.13ZM337.25,24.17c-1.1-.31-1.48.4-2.18.79-16.37,9.22-30.93,23.28-31.89,43.21-.53,10.85-.29,26.9.56,37.84.08,1.06.46,4.79,1.42,5.09,1.74-.17,6.37-2.94,6.69-4.58.49-13.93-.62-28.26-.01-42.14.4-9.11.91-12.48,5.74-20.19,5.21-8.32,12-14.08,19.67-20.02ZM386.4,46.3c-4.72-5.01-12.38,3.44-16.21,6.75-4.81,4.15-9.32,9.2-14.61,12.93l-.5,2.47,48.61-3.25c1.17-1.27-2.53-1.61-2.94-1.64-8.94-.61-20.26,1.53-29.19,1.16-2.11-.09-3-.43-2.14-2.73.7-1.89,5.83-7.86,7.46-9.56,1.36-1.41,3.96-4.14,5.57-4.96,1.24-.63,2.62-.88,3.96-1.18ZM371.28,63.05l10.03-1.04c-.09-1.49.03-10.31-1.13-10.29-3.48,3.33-7.03,6.77-8.91,11.33ZM374.41,85.89c-11.86,1.05-27.46,7.04-38.51,11.72-3.76,1.59-12.11,4.89-15.05,7.09-2.09,1.56.68,3.6,2.08,4.81,9.66,8.35,25.9-1.31,36.46-4.07,13.37-3.49,29.69-4.15,43.51-3.53,11.6.52,31.9,6.64,42.04,2.66,8.12-3.19,2.32-5.32-2.17-7.42-20.34-9.49-45.99-13.23-68.35-11.26ZM315.19,107.41c-.38.66.06,1.3.43,1.85,1.39,2.06,6.7,7.66,8.72,9.11,8.7,6.26,19.58-1.59,28.46-4.39,17.62-5.55,39.28-7.47,57.63-6.09,9.58.72,26.97,5.6,35.39,2.97,3.29-1.03,9.89-6.17,5.2-8.88-1.58,1.31-2.52,2.72-4.46,3.67-10.32,5.03-31.88-1.49-43.66-2.12-12.83-.68-28.76.13-41.25,3.08-14.16,3.34-32.84,16.06-43.85-.12l-2.61.92ZM469.57,115.44h9.72l-24.84-11.88c.49,2.38-2.17,4.27-2.7,5.68-.44,1.16,2.44.76,3.54,1.85,1.27,1.26.84,4.42.71,6.17-.51,6.81-2.88,13.47-3.17,20.32,2.73-1.95,6.31-14.92,9.44-14.93l42.55,20.45c1.96,1.02,3.66.19,5.47-.64l.06-1.11c-13.26-8.25-26.26-17.01-40.24-24.03l-.55-1.88ZM322.12,140.82c-.29-3.25-.6-6.53-1.34-9.73-.98-4.21-4.83-12.02-5.14-15.44-.11-1.23.7-2.21.33-3.47-.32-1.1-2.35-3.21-3.61-2.98-1.04.2-8.63,5.22-9.94,6.24-3.56,2.77-7.15,6.92-10.54,9.98,2.6.15,5.96-3.91,7.53-.05l-25.89,30.02,4.48-.06c12.31-8.83,23.36-19.45,36.31-27.36l7.82,12.84ZM332.04,185.46c9.18,9.66,27.06,15.89,39.23,20.99,5.16,2.16,13.77,8.04,19.3,6.32,14.42-8.34,32.87-14.6,46.02-24.73,11.77-9.06,9.45-22.64,11.52-36.01,1.77-11.4,5.35-23.98,6.26-35.32.11-1.32.33-2.72-.19-3.99-1.48-2.51-9.7.36-12.41.57-4.78.37-9.24-.52-13.93-1.01-9.69,5.6-22.78,8-31.19,15.3-8.29,7.19-15.64,15.84-24.04,22.96l-1.33-1.31,7.01-31.36-1.08-.55-5.41,4.33.4,1.34,1.79.27v1.65c-1.23.77-3.32-.97-4.89-.58-1.49.37-5.42,3.69-5.37,5.36.02.68,1.95,5.25.26,5.19-.91-.03-2.23-5.65-3.08-7.18-2.96-5.33-9.64-9.59-15.39-5.88-6.41,4.13-7.28,17.72-7.21,24.7,1.41,3.13-.92,11.34,2.31,12.81l24.71.94c.15,1.4-.78,1.52-1.86,1.64-4.36.52-14.97.39-19.4-.09-2.73-.3-5.39-.92-6.58-3.68-.52-13.31-3.28-29.11,7.86-38.91-3.34.12-6.27,2.59-9.58,3.11-8.11,1.27-12.65-1.93-17.96-7.43.6,5.27,3.19,10.12,4.47,15.24,1.67,6.69,2.42,14.31,3.08,21.22,1.01,10.68-.93,26.1,6.68,34.1ZM365.87,112.74l-10.8,2.42c2.34,1.99,5.98,2.83,8.87,4.02.97-.21,1.73-5.29,1.93-6.44ZM362.63,126.24l.33-3.27-3.28-1.05-.55,1.08,3.51,3.24ZM386.94,133.8l-11.25,2.79-1.7,9.63c.94.24,1.08-.39,1.62-.8,2.42-1.86,6.03-5.73,8.44-8.04.44-.42,3.43-3.08,2.9-3.57ZM458.22,134.34c-.06-.05-1.37-.07-1.56.05-.55.35-5.5,10.8-5.76,11.8-1.91,7.35-1.94,15.73-2.94,23.25,2.26.14,4.34-2.16,5.62-3.82,5.38-6.96,6.58-18.17,5.72-26.69-.06-.59-.91-4.44-1.09-4.59ZM315.65,137.04v12.15c0,1.73,3.3,10.95,4.23,13.05.5,1.12,3.24,6.45,3.86,6.95.4.32.6.32,1.09.26,0-.27.03-.54.01-.81-.43-9.09-.54-24.37-7.56-30.8-.54-.49-.75-.99-1.64-.8ZM468.49,188.62v38.89c0,.07-.99,1.11.28,1.35,1.46.27,6.85-8.49,7.72-10.09,3.73-6.85,5.5-15.17,8.71-21.54.39-.78.5-1.53,1.65-1.31.15,2.36-.87,4.57-1.61,6.76-3.42,10.08-8.51,21.98-16.75,28.88l32.4,13.51c2.72-20.74,17.77-38.67,31.86-53.2,0-.95-14.87-7.44-16.93-8.45-4.23-2.07-23.06-10.79-24.59-13.76-.72-1.4-.35-2.8-1.36-4.04-2.77-3.39-13.06-.45-15.98,1.95-.64.53-.68.53-.01,1.08,12.22,3.48,24.29,7.35,35.32,13.72l.34,1.66c-11.25,1.03-22.52,2.13-33.76,3.24-1.76.17-6.71-.72-7.29,1.36ZM505.22,182.94c-2.53-2.6-7.21-4.42-10.66-5.81-8-3.22-16.45-5.21-24.69-7.68l-27.27,15.42c-1.56,1.81-4.53,3.25-4.34,5.84.23,3.24,4.9,8.51,7.27,10.64,1.4,0,13.87-14.07,17.1-14.8l42.58-3.6ZM325.37,173.77c-7.19,2.41-4.98,4.93-4.84,10.51.43,17.28.65,35.77,2.14,52.95.52,5.93,1.7,19.68,3.27,24.82.22.74.28,1.46,1.31,1.38,12.1-12.92,23.55-26.48,36.16-38.91,1.38-2.3,13.27,3.42,13.27,1.91l-8.25-19.02c-10.26-4.47-20.98-8.46-30.26-14.83-6.33-4.35-13.37-10.27-12.8-18.8ZM319.97,216.97l-1.88-38.34c-10.22,8.25-20.98,17.18-29.72,26.99-3.31,3.72-8.36,9-8.36,14.05,3.57-4.53,8.05-10.64,14.31-11.34s13.93.91,19.54,4.23l6.12,4.41ZM466.87,187.81c-4.1-.24-6.34,2.07-9.19,4.58-6.6,5.83-13.02,13-18.63,19.71-.98,1.17-1.85,2.47-2.85,3.63-.89,26.67.32,53.24,1.53,79.8.17,3.69-.53,7.52.52,11.1,1.24.89,13.35-6.75,14.92-8.3,5.71-5.6,5.68-16.65,14.27-20.15.08-1.45-.56-2.78-.6-4.21-.42-16.28-1.37-32.44.04-48.61l-.02-37.56ZM441.25,207.57c1.11-1.3,3.32-3.16,2.86-4.79-.16-.59-4.87-5.79-5.77-7.23s-1.18-3.49-1.99-4.49c-.72-.89-.52-.32-1.08-.02-.62.32-4.44,2.7-4.62,2.95-1.11,1.52-.29,12.12-.57,15.1-1.3,14.17-9.86,26.54-22.89,32.2-1.12,3.43.87,11.58-.86,14.27-1.99,3.1-12.66,2.22-16.15,3.03-.59,16.3-1.97,32.52-1.63,48.88.27,1.41,3.11,2.44,4.32,3.78,4.99,5.53,4.28,15.95,3.88,22.86l6.24,2.67c9.75-.22,19.6-1.47,29.31-2.59-5.64-6.18-5.06-18.85.73-24.65.69-.7,2.37-1.12,2.78-1.81,1.16-1.93-.18-12.97-.29-15.91-.58-15.53-1.02-30.99-1.04-46.45,0-4.59-.68-29.34.49-31.38.86-1.49,4.86-4.75,6.27-6.4ZM534.74,192.72l-3.06,2.9,4.06,2.43c1.45-.09.78-5.5-1-5.33ZM373.97,216.43c4.4.47,8.53,2.25,12.84,3.1s20.2,3.55,23.49,2.72c.66-.17,5.3-3.05,6.07-3.65,6.23-4.85,11.23-14.78,11.07-22.68-1.3,1.03-5,1.98-5.93,2.97-.78.83-1.26,4.63-1.9,6.2-7.31,17.96-30.39,14.87-45.37,9.73l-.27,1.61ZM575.64,250.12c2.65-2.92,5.87-4.64,5.75-9.09-.46-16.79-20.35-27.14-33.14-34.42-3.71-2.11-12.67-7.56-16.18-8.67-.96-.3-1.62-.67-2.71-.34-.64.2-7.66,8.89-8.69,10.24-2.59,3.35-5.32,7.2-7.57,10.79-1.68,2.67-9,15.15-8.35,17.4l14.54,9.3,1.21.2,15.62-18.72,2.05.15c-15.22,18.81-31.01,37.24-44.28,57.52,7.52,1.19,15.74,7.83,19.34,14.42,1.58,2.89,1.94,6.05,3.61,8.8l17.59-18.05c13.92-12.63,28.52-25.51,41.22-39.53ZM418.8,200.78l-28.93,14.01c-6.32,1.13-12.08-4.34-17.35-5.81-2.67-.74-.42,3.46.74,4.12,1.88,1.08,10.49,2.83,13.01,3.19,13.63,1.94,29.75.82,32.53-15.51ZM416.46,233.53c1.43-1.26,4.7-5.22,5.8-6.89,4.09-6.19,6.28-15.27,6.26-22.63-1.99,2.32-2.79,5.69-4.41,8.28-2.45,3.92-9.84,11.3-14.48,12.04-2.43.39-14.23-1.53-17.43-2.09-5.78-1-11.53-2.51-17.15-4.18-.34.34,3.31,8.25,3.83,8.86,1.22,1.42,10.65,2.24,13.18,2.48,2.27.21,4.71-.16,7.01.01,1.09.08,5.69.55,6.22.8,2.37,1.14-.07,8.52,1.9,8.91.82.17,8.23-4.68,9.25-5.58ZM321.59,241.82c-1.34-6.19-.02-15.41-1.75-21.19-1.36-4.54-10.67-8.93-14.96-9.89-14.72-3.28-19.11,2.98-25.5,14.52-1.3,2.34-6.87,12.58-7.21,14.36-.12.65.29,1.63.81,1.94,3.75,2.27,7.69-7.62,9.99-9.47.58-.47.46-.78,1.09,0l.29.82-11.33,14.65c-.18.99,1.71,1.7,2.03,2.75,1.01,3.39-4.71,14-6.09,18-4.21,12.22-6.88,27.07-5.69,39.95,1.28.07.95.17,1.07-.81,1.02-8.09,2.49-13.35,7.83-19.72,14.96-17.85,44.81-23.78,59.68-2.42,3.93,5.65,4.34,9.85,5.95,16.2.19.75,0,1.68,1.07,1.89l.57-16.5c-1.62-9.5,1.57-20.27-5.15-28.33-1.57.73-8.06,9.45-9.46,8.1l-3-21.58c-2.79-3.28-11.66-6.81-11.56-11.68.02-.72.29-.87.78-1.3,1.4,2.34,1.94,3.8,4.04,5.67.77.68,5.92,4.63,6.48,4.04ZM367.5,329.86v-8.37c0-1.35,1.76-6.32,2.6-7.67,3.62-5.86,10.4-7.41,16.84-6.11l1.65-50.74c5.32-1.22,11.33.4,16.22-2.41,1.45-7.53-.23-15.38-.05-23.01-13.26-.26-26.14-1.37-38.67-5.92l-1.32.2-18.62,19.24c-.67,1.47.68,3.7.84,5.63.54,6.45-.49,14.89-6.51,18.5-.67,10.17,2.52,25.19-.12,34.86-.85,3.13-4.34,5.7-6.3,8.14,2.69,3.93,15.58,18.43,19.68,18.71,3.45.23,9.63-2.19,13.75-1.06ZM491.54,284.31c5.56-5.54,13.08-18.23,18.32-25.16,3-3.97,6.17-7.86,9.4-11.66l-8.29-5.08c-2.69,1.85-4.63,6.31-8.46,5.67l-33.73-14.37c-.8.48-.76,1.06-.85,1.86-.93,8.11.24,18.31.56,26.5.22,5.49.13,10.99.54,16.47,2.78-.26,5.89.21,8.3,1.7s4.43,5.86,5.6,6.28c3.13,1.13,6.31.08,8.61-2.22ZM503.08,246.13c2.89.14,4.36-2.64,5.86-4.58-.63-.93-4.53-3.65-5.34-2.97-.18,2.53-1.52,5.09-.52,7.55ZM344.81,247.76c-.94-.24-1.08.39-1.62.8-.82.63-7.34,7.68-7.48,8.22-.37,1.4,2.02,3.62,2.74,5.18.66,1.42,1.13,3.67,1.52,5.24,6.16-3.7,5.82-13.12,4.85-19.44ZM326.31,281.41c-11.78-10.4-25.78-10.09-39.3-3.14-2.39,1.23-11.44,6.82-11.87,9.22,3.18,31.23,5.65,67.39,32.7,87.77,2.24-.05,3.49-2.42,2.96-4.51-.09-.36-4.83-3.77-5.7-4.68-8.02-8.38-6.24-19.16,2.49-26.17.87-.7,3.27-1.59,3.49-1.92.43-.65.27-3.38.62-4.78,1.2-4.84,7.72-9.99,12.46-10.8,5.65-.96,14.61,8.42,18.33,12.25,1.26.37,7.71-2.81,7.71-3.44-11.95-8.42-18.58-22.52-31.85-29.17,2.2-1.63,10.83,5.67,11.34,5.13-.52-2.34-1.49-4.62-1.92-6.99-.65-3.65-1.19-8.48-1.37-12.18-.09-1.84,1.11-4.53-.09-6.59ZM468.35,280.3c-3.88.66-6.36,4.96-7.88,8.32-3.49,7.7,1.17,5.68,2.05,11.3,1.14,7.28-.64,16.93,1.5,23.88,3.23,10.45,11.89,5.57,14.61-1.89,2.43-6.67,4.13-27.16,2.25-33.87-1.58-5.64-6.73-8.72-12.53-7.73ZM328.61,284.49v10.53c0,1.61,1.27,6.63,1.77,8.49.68,2.52,1.72,8.27,5.02,5.32,2.7-2.42-.31-12.68-1.53-15.83-1.13-2.95-2.78-6.49-5.26-8.51ZM513.82,311.46c1.45-2.5.34-5.64-.62-8.22-3.19-8.55-13.33-18.61-23.1-16.59-1.03,1.12,5.56,3.07,6.42,3.57,3.13,1.82,4.32,3.4,3.84,7.23,7.99-1.13,11.3,6.86,11.61,13.51l1.86.5ZM483.08,288.27c.78,7.74.43,15.72-.6,23.43-.38,2.82-1.04,6.83-1.83,9.52-.89,3.01-4.49,6.87-.48,9.12,5.47,3.08,10.68-3.16,12.89-7.51,2.58-5.09,7.92-24.8,5.08-29.37-1.62-2.61-11.82-5.19-15.06-5.19ZM280.54,335.8c-2.01-8.66-3.69-17.37-4.85-26.2-.88-6.7-.79-13.78-2.43-20.24-3.82,4.31-6.76,10.73-7.29,16.48-.6,6.55.03,10.81,2.77,16.66,2.57,5.49,6.37,10.42,11.8,13.31ZM460.93,300.69l-2.97-5.39c-4.47,5.87-11.08,10.26-18.09,12.42v1.61c2.15-.4,3.29,1.52,5.09,2.15,3.96-5.32,9.16-9.88,15.97-10.8ZM501.83,299.16c-.71.21-1.1.72-1.34,1.39-.92,2.52-1.07,7.97-1.81,11.15-.84,3.59-2.46,8.8-4.16,12.04-1.33,2.54-4.45,4.62-3.46,7.59,3.04,9.09,10.63-3.58,12.38-6.77,2.03-3.7,6.68-12.76,6.22-16.64-.4-3.4-3.69-9.95-7.83-8.75ZM460.93,302.85c-4.55-.65-14.54,6.91-14.96,11.14-.27,2.78.61,7.37.37,10.73-.51,7.15-3.56,15.93-12.16,11.13-.68.05-4.8,10.78-5.37,12.4-.72,2.03-2.98,7.78-3.02,9.45-.03.95,3.8,10.23,4.36,10.77.71.69,6.34,2.29,6.96,1.85,1.8-3.4-2.39-5.68-3.96-8.09-1.48-2.26-2.35-4.45-1.89-7.23.29-1.78,6.74-12.2,8.19-14.49.53-.85,1.85-3.8,2.85-3.62,1.3.23-.45,3.08-.71,3.6-2.07,4.15-7.38,10.69-8.48,14.75-1.32,4.85,3.37,7.06,5.26,10.44,1.05,1.87.71,3.23,1.49,5.01,5.34.57,11.89-5.5,15.82-.18,6.62,8.96,1.52,18.68-7.5,23.03-2,.96-6.87,2.02-7.99,2.81-.72.5-.92.95-.88,1.82l-.46,68.04c1.42,10.84,14.61,10.01,22.93,10.06l16.99-1.11c-.61-3.59-9.6-10.21-12.69-10.22s-11.2,7.27-12.96,10.21c-.79-.59-.87-.8-.72-1.77.45-2.94,10.66-10.14,13.68-10.13,3.39,0,9.77,5.01,12.11,7.49,1.72,1.82,1.61,3.88,4.62,3.94,2.29.04,4.49-.47,5.78-2.38,1.09-1.6,5.95-12.91,5.45-14.26-.39-1.03-4.33-5.22-5.44-7.01-7.42-11.9-10.07-27.53-.12-38.8,1.61-1.83,5.24-4.11,6.18-5.7,1.26-2.12,1.99-6.24,3.16-8.73,1.1-2.36,4.73-7.47,5.13-9.45.96-4.65.42-15.79.69-21.46.33-7.09.25-14.09,1.45-21.12-5.6-2.03-6.22-6.08-5.8-11.58-4.67,2.98-8.61,2.25-10.27-3.24-4.52,2.82-9.69,2.41-12.76-2.1-8.19,6.14-12.88,1.02-14.73-7.39l-.59-18.59ZM379.24,309.46c-11.51,1.82-10.71,17.89-9.53,26.55.95,6.92,3.84,15.3,11.68,16.94,4.56.96,10.3-2.52,11.78-6.88,1.77-5.19,2.7-19.64,1.81-25.06-1.53-9.27-6.14-13.06-15.73-11.55ZM441.86,334.01c3.02-2.73,3.42-14.42,2.63-18.22-1.07-5.11-8.44-7.74-11.55-3.39-3.98,5.57-3.85,14.22,0,19.8,2.05,2.96,5.95,4.5,8.92,1.81ZM512.24,313.11c-.73-.03-1.05-.19-1.64.35-1.03.94-4.11,9.04-5.08,11.01-2.88,5.82-5.68,6.56-4.49,14.16.36,2.33,1.4,5.06,4.17,4.71,1.59-7.69,2.49-15.55,4.73-23.1.74-2.49,2.29-4.62,2.31-7.14ZM323.62,324.57c-2,.3-6.27,2.76-7.65,4.26-6.35,6.95-.96,14.96,4.26,20.48,9.69,10.24,25.1,17.59,19.57-4.98-1.61-6.55-7.77-21-16.18-19.75ZM522.5,326.61c-1.98-1.99-8.66,7.93-9.61,9.56-6.41,10.92-7.75,21.4-8.23,33.9-.2,5.3.19,10.66.03,15.95,2.09-1.28,3.06-3.53,4.85-5.14.98-.87,6.07-4.95,7.02-2.69-3.78,1.51-11.01,8.23-12.41,11.89-.55,1.44,2,.21,3.07.65,3.34,1.36,2.24,6.45,1.27,9.09-1.05,2.85-6.23,11.12-9.73,8.06-1.36-1.19-.51-2.8-1.63-3.49-.99,6.02-9.76,8.05-10.26,14.58,4.44-2.05,6.74,6.18,6.39,9.38-.3,2.79-2.19,8.03-5.6,7.95-1.36-.03-2.09-1.36-3.49-1.12,1.99,9.48,7.26,18.76,14.57,25.12.98.85,5.56,3.47,5.4,4.31-.22,1.22-1.22.44-1.77.16-2.8-1.38-4.03-4.44-6.86-4.74-2.31,7.57-6.35,14.55-9.06,22-6.54,17.94-10.38,40.65,1.27,57.35,1.11,1.59,3.41,2.69,3.46,4.9l-4.31-3.52-4.61-7.29c-2.08.27-4.27,5.49-4.54,7.35-1.57,11.26,8.04,17.61,16.69,22.1,1.04,2.11-4.38-.68-4.73-.73-1.57-.25-4.69,1.97-5.82,3.13-.93.96-4.41,5.61-1.47,5.03,2.37-.47,3.65-2.8,6.07-2.85.75,3.29-5.86,4.55-3.51,7.01,1.98-.96,3.67-1.83,5.39-3.24s1.65-3.28,4.07-2.68l-5.39,6.75.79.79,28.36-15.66c.05-1.35-4.67-2.23-3.24-3.77.36-.38,7.99,3.67,9.69,4.07,5.24,1.25,12.89.65,17.27-2.76,3-2.34.93-6.06,1.1-9.71.54-11.93,9.6-23.11,21.08-26.17.23,1.11-.54,1.25-1.24,1.72-3.98,2.67-7.63,3.9-11.19,7.71-7.91,8.48-8.82,21.51-4.42,31.99,1.13,2.68,3.72,3.45,3.89,6.1-3.6.27-7.93,4.18-10.6,6.69-2.12,1.99-5.54,5.86.16,3.13,1.11-.53,3.82-2.87,4.22-2.79.84.16.74.65.28,1.35-.91,1.38-3.4,2.84-3.25,4.85l1.08.26,4.06-5.38c2.13,1.91-1.88,4.21-2.97,5.66-.08.41.51.34.81.28,1.65-.34,11.08-8.47,13.6-10.17,5.05-3.42,10.15-6.29,16.24-7.52s22.14-.31,12.2-10.86c-1.66-.31-6.33,5.18-8.83,3.43,8.89-5.33,13.63-10.47,16.88-20.38,1.76-5.36,3.4-10.97,2.56-16.61-2.58,1.18-4.64,3.18-7.36,4.25-3.91,1.53-8.12,2.06-7.8-3.46.33-5.69,10.7-12.23,12.91-17.35,1.55-3.58-.3-6.34-.46-9.91-.45-.55-8.25,9.27-11.98,2.54-4.37-7.86,8.42-14.07,7.93-19.89-.4-4.82-4.03-10.43-3.76-15.62-.65-.85-.62-.29-1.18-.08-2.4.88-5.85,3.01-8.28.91,2.49-1.33,4.78-.76,7.52-2.19s5.69-5.24,7.27-7.85c6.99-11.46,6.39-23.03,1.96-35.35-.64-1.78-5.86-13.69-6.77-13.7-.53.56-3.5,2.82-3.51.76,7.01-5.08,14.29-9.79,21.23-14.96,3.61-2.68,12.92-8.98,15.32-11.95,1.81-2.24,6.16-12.15,7.21-15.21.49-1.42,2.81-9.27,2.14-10.01-21.94,4.53-44.16,13.06-61.84,27-2.46-.16.98-3.02.82-3.23-10.27-2.58-21.95-5.39-32.61-4.26-5.07.54-9.9,2.92-14.92,3.71-1.79-1.61,7.92-3.14,8.14-4.13l-7.06-45.02ZM367.42,331.55c-9.38-.56-19.14,1.57-26.82,7.05-1.11,1.89,5.2,14.02.35,20.07-1.86,2.32-4.69,2.99-7.48,1.97.5,8.62-1.48,16.24-11.62,15.12-3.38-.37-6.19-2.54-9.44-3.25-.03,2.12-1.25,5.02-.28,7.03.22.46,6.29,4.23,7.58,5.38,1.06.95,2.28,2.2,3.18,3.3.74.9,2,3.72,2.47,4.01,2.26,1.39,19.35-3.55,23.14-3.6,2.06-23.36,33.03-27.74,42.58-6.92l39.07-4.88c-1.54-12.59-9.2-23.72-18.62-31.88-1.82-1.57-13.72-10.34-15.4-8.63,1.04,10.47-6.72,22.77-18.4,17.05-8.79-4.31-8.83-13.39-10.3-21.83ZM338.88,336.88l2.15-1.34-3.77-3.52,1.62,4.86ZM431.77,336.34l-13.81,1.58c-.76,6.64-1.41,16.17,7.84,15.13l5.97-16.71ZM416.1,337.96c-2.04.07-4.11-.14-6.14.07-.64.06-3.39.23-3.04,1.28,3.48,1.63,5.67,5.65,9.19,6.76v-8.1ZM331.17,359.7c-.37-.44-3.74-1.91-4.68-2.61-5.98-4.43-11.35-10.44-14.98-16.93-5.87.98-10.38,10.17-9.85,15.82.8,8.59,15.93,19.58,24.39,18.03,4.94-.91,7.61-11.3,5.12-14.31ZM288.59,354.76l-1.48.04-23.02,35.56c-.46.91-.41,1.94-.27,2.91.36,2.49,3.58,9.81,4.74,12.56,7.59,17.95,19.72,35.06,32.23,49.85l20.77-26.73c-5.01-7.78-9.99-15.81-11.97-25-3.28-1.23-6.58-1.71-9.58-3.66-7.32-4.75-6.73-14.4-.58-19.95,1.46-1.32,4.96-2.8,5.59-3.48.55-.59.37-.92.35-1.65-1.24-1.26-17.22,4.84-21.22,3.66-1.88-.55-2.73-3.81-2.59-5.56.41-4.97,10.22-5.99,14.08-6.75l-7.07-11.82ZM643.11,433.96l.61-3.15,24.53-19.78-13.15-46.07-42.31,67.91c-.42,2.14,8.09,9.48,9.92,11.47.8.87,5.69,6.32,5.68,6.76l-29.18,32.41,14.03,10.26-15.03,12.54,1.01,19.05,14.58-4.87c.64-.86-6.98-4.68-4.09-6.5l29.22-17.24c.66-.65.05-.91-.28-1.37-2.57-3.69-6.71-7.13-9.22-10.78-.33-.48-.79-.72-.27-1.36l35.36-24.65-21.4-24.64ZM302.14,373.6c.42-.57-3.38-4.51-4.02-4.88-2.25-1.3-13.04,1.29-14.38,3.5-1.14,1.88-.17,3.04.52,4.83,1.31,1.66,15.21-3.11,17.88-3.45ZM431.23,370.9l2.66,24.07c7.34.48,21.2-4.41,22.59-12.58.53-3.1-.5-10.87-3.67-12.31-1.6-.72-10.12,2.45-13.22,2.49-2.74.03-5.69-1.17-8.37-1.66ZM430.61,378.54l-40.16,5.34c-1.66-.33-1.43-2.59-2.32-4.18-9.12-16.34-37.96-10.65-37.49,9.19l-.65.97-23.96,4.66c-2.14,1-1.09,5.26-2.81,6.9.05,1.06,3.08.25,3.88.11,7.99-1.37,15.92-3.52,23.86-5.13,1.34.25,1.4,2.43,2.03,3.32,11.49,16.35,30.13,10.42,36.91-6.68,1-2.53-.17-3.71,3.84-4.26,11.39-1.58,24.95-1.2,36.02-3.41.56-.11,1.73-.59,1.83-1.2l-.97-5.63ZM307.55,379.54l2.44-1.61c.1-2.2-3.98.14-5.16.78-6.03,3.26-10.79,10.04-7.11,16.88,2.69,4.99,18.3,9.09,22.8,6.92,1.52-.74,3.06-6.61,3.11-8.25.19-6.11-11.01-12.78-16.07-14.71ZM431.77,387.1l-39.06,3.88-.65.43c-4.87,21.36-30.75,27.13-41.69,7-12.71,2.1-25.24,6.61-38.25,5.97-.74-.14-1.02.02-.78.79,10.99,35.97,44.39,53.54,80.57,42.81,24.34-7.22,42.46-35.66,39.86-60.88ZM505.76,392.51c-.79-.82-5.75,3.25-4.62,4.87,3.02,2.89,4.86-2.18,4.62-4.87ZM294.62,462.68c1.22.54,4.26-4.39,4.76-5.55-15.38-18.86-29.48-39.55-36.94-63-3.35,2.82-2.1,6.65-1.19,10.37,2.91,12.02,11.02,25.91,17.65,36.36,4.81,7.57,10.11,14.84,15.71,21.82ZM437.71,396.83c-1.44.03-3.86-.45-4.59,1.08-.31,9.94-4.4,19.33-9.77,27.5-2.66,4.04-6.15,7.41-8.86,11.38,4.62-.44,9.42-1.7,13.79-3.21,1.63-.57,9.43-3.48,9.43-5.15v-31.6ZM485.93,433.93c4.81,3.99,8.12-8.91,3.65-13.09-4.97-4.66-7.75,9.69-3.65,13.09ZM271.3,430.91h-1.5c-3.09,5.87-6.57,11.57-10.1,17.18-10.55,16.76-24.27,35.2-32.18,53.15-4.16,9.43-6.24,13.88-2.87,24.12,3.93,11.92,15.29,37.39,29.22,38.83,34.26,3.56,54.52-12.24,75.55-36.11,8.56-9.72,22.36-23.68,23.89-36.6.12-1.04.81-11.1-1.48-10.14-7.75,9.13-15.98,17.97-23.45,27.33-2.61,3.27-12.83,15.85-13.68,18.73-.96,3.26.08,7.5-2.3,10.12-.48.53-8.48,6.47-9.01,6.66-.32.11-.65.13-.99.09-.48,0-.36-1.09-.25-1.33.49-1.13,8.05-5,9.38-7.36,1.59-2.81.45-7.41,2-10.42,3.43-6.66,12.88-14.63,16.7-21.65l43.19-49.71c.23-1.22-.53-.75-1.34-.8-15.36-1.07-25.99-2.67-38.58-12.19l-10.57-9.95-26.49,33.47c-.38.59-.86.67-1.51.49-3.78-1.03-21.29-28.66-23.65-33.91ZM342.82,514.72c-.42.45-.84,1.24-.22,1.75,7.13,5.27,16.92,2.81,24.35-.57,13.66-6.21,8.96-10.67,8.63-22.65-.24-8.75,2.04-11.41,5.35-18.45,2.25-4.79,2.45-10.84,1.55-16-.59-3.4-1.02-7.58-5.43-6.24-2.77.84-.13,6.49.09,8.87.98,10.48-4.17,17.74-4.23,27.45-.02,3.78-.1,7.58-.02,11.36.05,2.55,1.4,4.63-.07,7.5-1.58,3.08-9.92,8.09-13.32,8.35-1.79.14-2.39-2.5-4.25-3.61-3.28-1.96-9.94-.44-12.44,2.24ZM374.51,456.23c-1.12-1.06-3.21,2.34-3.29,3.5-.11,1.61.91,2.91,1.09,4.37.53,4.35.61,8.82.59,13.19.89-.11,1.09-2.04,1.26-2.78,1.48-6.26,1.92-11.99.35-18.28ZM364.42,511.16c1.78,1.59,6.75-3.52,7.25-5.57-.74-9.72-.85-19.37-.95-29.13-.04-3.49.41-6.92-.05-10.71-.1-.83-.58-4.68-1.28-4.65-4.68,3.01-1.7,6.82-1.36,11.07.32,4.02-.34,8.43,0,12.42.2,2.31,1.57,3.66.97,6.36-.74,3.34-7.87,11.16-9.54,14.8-.18,1.13,2.59,2.59,3.47,3.38.7.63,1,1.6,1.48,2.02ZM365.33,466.5c-.95-.19-1.33.49-1.89,1.07-1.25,1.3-9.14,10.38-9.34,11.22-.35,1.47.86,3.58.97,5.26.53,7.68-1.18,14.42-4.31,21.33l3.52-.53c4.11-7.98,11.44-14.74,12.16-24.02.37-4.79-.39-9.62-1.1-14.33ZM439.71,474.13c-3.03.88-2.78,12.59-2.53,15.32.62,6.74,3.25,9.48,9.6,11.47,8.03,2.52,16.46,2.31,24.7,1.78,1.93-.12,6.84.58,7.88-.76.35-.45,1.75-8.9,2.26-10.7,1.35-4.84,3.3-9.63,5.17-14.29l-.76-1.22c-12.76.9-28.61,4.49-40.98.47-1.69-.55-4-2.44-5.32-2.06ZM591.1,481.62c-1.48,4.21-8.9,9.06-7.34,14.06,1.88,5.99,9.82,0,10.49-3.66.2-1.08-2.23-11.04-3.15-10.4ZM366.42,488.11c-2.01,5.03-6.04,9.51-8.76,14.2-.23.39-2.2,3.73-.7,3.61,1.08-.09,8.56-13.1,10.14-14.73.5-.77.47-2.88-.68-3.08ZM442.03,508.63h7.56l-.67-5.27-5.51-1.72c-1.3.27-1.54,5.78-1.39,6.99ZM462.55,504.85l-11.33-1.09c-.28,6.07,1.87,9.31,8.36,8.09,2.88-.54,3.33-4.58,2.98-7ZM440.41,526.45c9.34-6.75,18.94,3.25,25.11,9.71.32,0,1.89-2.67,2.16-3.23,2.12-4.39,8.95-20.24,9.76-24.31,1.33-6.7-5.55-3.33-9.52-3.54-.93,3.57-.53,5.96-2.76,9.12-5.72,8.1-14.65,5.01-17.18-3.7l-6.49-.26-1.07,16.21ZM450.68,511.33c1.29,7.76,11.18,7.1,13.9.67.51-1.2,1.48-5.18,1.19-6.3-.14-.53-.86-1.16-1.33-.32.53,8.85-7.63,10.89-13.76,5.95ZM362.47,510.94c-3.33-4.07-12.26-6-15.49-.96,5.35-.4,9.32-.21,12.68,4.41l3.52-.9c.05-.91-.11-1.81-.71-2.54ZM584.21,524.7c2.45,2.46,11.9-3.2,13.09-5.82.78-1.71.02-7.77-.24-10-.1-.82-.02-1.34-.83-1.86-3.26,4.02-8.21,7.96-10.98,12.23-.95,1.46-2.76,3.72-1.04,5.45ZM478.75,512.41c-.94-.19-1.1.23-1.5.92-2.13,3.64-4.56,11.93-6.35,16.34-1.15,2.85-2.55,5.61-3.84,8.39.63,1.74,7.16,10.67,8.99,8.91-.8-6.67,1.02-11.53,5.38-16.45-1.85-5.83-3.39-12.01-2.68-18.11ZM440.5,538.24c9.03,2.95,19.16,6.89,28.64,7.83.67.07.77.66,1.5-.45-5.85-6.46-15.57-21.92-25.95-19.48-6.14,1.44-4.03,7.33-4.19,12.1ZM477,549.27c-12.27-2.03-24.33-4.6-36.05-8.78-1.06,8.55,15.59,10.02,21.88,10.79,3.26.4,10.57,1.28,13.5,1.13.85-.04,1.36-.1,1.87-.85l-1.2-2.3Z"/>
  <path d="M560.66,398.84c0,6.02-4.88,10.9-10.9,10.9s-10.9-4.88-10.9-10.9,4.88-10.9,10.9-10.9,10.9,4.88,10.9,10.9ZM543.92,391.49c-1.24.42-3.99,5.42-2.79,6.96l1.66,1.11c4.18.11,5.6-9.57,1.13-8.07Z"/>
  <path d="M546.26,474.6c-1.49,4.93-4.96,9.41-7.22,14.11-4.9,10.15-6.53,21.73-10.75,30.84-.48,1.04-1.27,1.53-2.01,2.32l3.22,1.61-1.07,1.89,2.73-.31.52,2.48c2.04.45.13-2.46,2.37-1.56,1.33.53,1.31,2.78,3.03,2.64v-2.16c2.86,1.05,2.72-.77,4.31-2.44,6.37-6.67,21.52-18.84,29.44-23.49.51-.3,1.48-1.03,1.9-.26-.74,1.4-2.11,2.22-3.3,3.19-7.17,5.85-15.86,11.14-22.63,17.33-.85.78-4.87,4.58-5.14,5.16-.78,1.71,1.19,3.15-.54,4.31l-2.64-1.13-2.19,2.2-2.17-3.24-3.24,3.77c-1.35-1.04-.7-2.84-.81-4.31l-4.32,2.15,1.08-5.4c-1.35-.06-2.87.43-3.77-.81,1.33-1.38,3-3.09,3.8-4.83,2.5-5.46,3.86-13.85,6.09-19.84,2.51-6.74,6.92-16.07,10.95-22,.59-.88,1.05-2.36,2.38-2.21Z"/>
  <path d="M501.97,478.93c2.81,7,5.95,13.92,8.36,21.08,1.1,3.27,2.75,12.41,4.64,14.27,1.68,1.65,4.79,1.98,6.45,3.81.48,1.93-5.05,1.45-5.71,2.39l-.47,3.86-3.55.5v4.32c-1.96.89-1.94-2.61-3.24-1.36-.93.9-.44,2.43-.53,3.52l-1.66-.34-1.59-3.98-3.77,1.62.29-5.38c-2.51-2.32-17.6-19.22-15.41-21.62.48-.06.7-.09,1.09.26.78.7,3.8,7.03,5.17,8.88,1.95,2.62,9.98,10.17,10.78,11.94.48,1.08-.08,1.54-.04,2.09.19,2.62.95-.55,2.15.08l1.92,2.13.55-2.7c1.18-.18,2.01,1.93,2.98.54l.26-2.7,3.23,1.07c-.6-4.6.78-4.27,4.32-5.67l-5.54-3.09c-1.43-5.65-2.79-11.41-4.69-16.91-1.14-3.32-7.3-16.21-7.05-18.34l1.08-.27Z"/>
  <path d="M498.89,423.66c2.4,1.97,4.89-.71,7.11-.39,1,.14,2,1.51,3.41,2.04,2.7,1,7.31,1.06,10.01.03,1.64-.63,2.33-2.19,4.16-2.04-.9,2.47-3.61,3.48-5.85,4.4-.09,4.59.07,9.18-1.23,13.63-5.15,17.72-12.83-12.48-14.8-14.79-.91-1.07-5.25-.55-4.59-4.32,1.33-.34,1.23,1.01,1.77,1.45ZM504.68,430.31c1.67,1.55,3.94-9.33-1.49-4.06l1.49,4.06ZM507.96,427.12c-.32,2.65-1.46,5.55-1,8.2.33,1.9,3.69,10.25,6.02,9.55,2.77-.83,3.46-13.71,2.96-16.36l-.81-.81-7.18-.57Z"/>
  <path d="M571.97,425.71c0,6.31-5.12,11.43-11.43,11.43s-11.43-5.12-11.43-11.43,5.12-11.43,11.43-11.43,11.43,5.12,11.43,11.43ZM568.22,419.16c-5.03-5.37-16.35-3.34-17.6,4.44-1.5,9.36,8.66,15.03,16.13,9.66,4.59-3.3,5.37-9.93,1.47-14.09Z"/>
  <path d="M501.79,409.33c1.03-.34,7.62-.61,7.2,1.26-1.11,1.14-3.46,3.7-5.1,3.55-1.8-.16-4.47-4.03-2.1-4.81Z"/>
  <path d="M418.62,122.03c1.49-.14,3.46,2.08,3.93,3.44,1.27,3.67.82,19.44-.1,23.59-.57,2.6-3.71,10.01-7.12,5.77-2.26-2.81-2.21-16.77-1.95-20.78.2-3.01,1.32-11.65,5.24-12.02ZM417.19,141.36c.31.2,1.61.07,1.9-.52.44-2.44,2.07-14.04-.57-14.59-.74-.15-1.21.64-1.47,1.21-.68,1.53-.65,13.39.14,13.9Z"/>
  <path d="M358.15,125.86c1.17.89,2.91,6.3,3.16,7.92.68,4.42-.03,15.65-1.1,20.02-.76,3.1-1.53,6.21-5.34,4.24-2.03-1.05-3.12-3.57-3.44-5.74-.58-3.99-.62-19.45.68-22.81.83-2.17,3.59-5.49,6.04-3.63ZM358.31,142.17c.54-1.72,0-10.83,0-13.5,0-1.44-2.97-2.02-4.17.69-.82,1.83-.69,10.83.12,12.55.74,1.57,3.57,1.81,4.06.27Z"/>
  <path d="M410.17,158.65c6.22-1.02,12.92-.16,19.12-1.14,1.89-.3,5.06-.89,5.86-2.78.47-1.1.88-5.61.97-7.13.67-11.11,1.45-30.97-14.89-28.93-5.86.73-10.27,7.88-9.98,13.52h-1.62c-.15-17.49,23.38-22.02,27.39-3.37,1.13,5.22,1.07,14.39.71,19.86-.44,6.83-.82,9.14-7.92,10.44-5.9,1.09-12.73.52-18.75,1.05l-.9-1.52Z"/>
  <path d="M375.6,186.73c-.17-1.03.42-1.45,1.35-1.62,3.37-.58,7.52-.16,10.79-.55,5.34-.64,12.64-1.97,17.55-4.05,2-.85,3.41-2.11,5.13-2.98.63-.32,1.17-.7,1.36.3-.86,2.32-4.2,3.59-6.34,4.45-9.05,3.67-20.16,4.17-29.84,4.45Z"/>
  <path d="M419.89,169.44v-3.78c-2.23-.26-2.87,2.19-4.83,3-.69.29-1.87.77-1.65-.56,1.41-1.06,7.9-7.35,9.17-6.22.22.9-2.32,4.62-.27,4.32s6.02-3.59,8.53-4.45c1.02-.35,1.17-.75,1.99.39l-12.95,7.29Z"/>
  <path d="M348.06,167.82c.74.76,4.94-2.71,5.67-2.68.34.01,1.06.85.55,1.62-.32.49-8.47,5.32-8.84,2.97l.99-4.07-4.84,1.92-1.1-1.11,7.3-3.5c1.64,1.16-.15,3.11.27,4.84Z"/>
  <path d="M385.86,152.7c.09,1.48.04,2.89-.24,4.35-.39,2.04-3.54,8.73-3.52,9.43s2.49,4.37,2.99,5.62c.31.76.42,1.53-.58,1.12-.29-.12-3.44-4.5-3.66-5-1.21-2.76,2.67-6.83,3.25-9.97.34-1.83.03-3.71.13-5.55h1.62Z"/>
  <path d="M398.63,248.65c-5.7,6.01-16.92-1.96-10.36-9.55,6.05-7,16.82,2.74,10.36,9.55ZM398.84,243.71c0-2.95-2.39-5.35-5.35-5.35s-5.35,2.39-5.35,5.35,2.39,5.35,5.35,5.35,5.35-2.39,5.35-5.35Z"/>
  <path d="M352.38,246.68c.61-.14,1.34.16,1.44.78.16,1.04-1.69,9.02-2.14,10.67-1.49,5.47-3.55,11.45-8.76,14.46-2.01-1.5.98-2.4,2.12-3.81,4.98-6.13,5.28-14.78,7.34-22.1Z"/>
  <path d="M443.49,209.49c4.14-1.06,6.11,7.02,6.09,9.92-.07,11.99-11.54,14.01-11.38.54.03-2.95,2.05-9.63,5.29-10.46ZM443.5,211.65c-4.13,1.14-4.75,13.79-.59,16.05,5.47-1.19,6.01-11.02,3.35-14.69-.77-1.06-1.24-1.78-2.77-1.36Z"/>
  <path d="M387.16,388.38c0,8.98-7.28,16.26-16.26,16.26s-16.26-7.28-16.26-16.26,7.28-16.26,16.26-16.26,16.26,7.28,16.26,16.26ZM385.47,388.38c0-8.04-6.52-14.56-14.56-14.56s-14.56,6.52-14.56,14.56,6.52,14.56,14.56,14.56,14.56-6.52,14.56-14.56Z"/>
  <path d="M383.07,387.38c0,6.28-5.09,11.36-11.36,11.36s-11.36-5.09-11.36-11.36,5.09-11.36,11.36-11.36,11.36,5.09,11.36,11.36ZM364.44,380.81c-8.81,9.42,6.47,22.91,14.93,12.5,7.91-9.72-6.76-21.25-14.93-12.5Z"/>
  <path d="M369.65,379.55c.2,2.26-1.96,2.2-3,4.29-1.16,2.34-1.21,5.12.38,7.24.74.99,3.1,2,3.17,2.24,1.11,3.41-4.42-.42-5.34-2.23-2.04-3.99-.03-10.65,4.79-11.54Z"/>
</svg>