<?xml version="1.0" encoding="UTF-8"?>
<svg id="katman_1" data-name="katman 1" xmlns="http://www.w3.org/2000/svg" viewBox="0 0 841.89 595.28">
  <path d="M567.25,153.57c-19.75,18.28-38.98,37.19-59.36,54.79-1.21,2.3.83,2.36,1.65,3.28,2.88,3.26,11.66,11.45,12.23,15.01.6,3.8-.4,5.42-2.67,8.15l-32.15,32.68c7.82,3.67,16.27,6.41,24.16,10.16,43.51,20.64,76.84,60.9,86.61,108.44.69,3.38,1.88,16.87,2.69,18.29.13.23,3.42,2.29,4.24,3.11,3.27,3.28,6.09,7.56,9.23,10.93,3.7,3.97,14.94,12.83,16.93,16.3.62,1.08.4,2.93,1.02,3.34.69.46,2.23.04,3.3.51.63.28,1.42,1.57,2.23,2.13,3.72,2.56,17.94,11.03,17.98,15.29.01,1.27-.96,2.16-1.11,3.3-.39,3.08-.32,6.53-1.06,9.68-.82,1.28-13.47,5.6-15.59,5.82-13.28,1.35-29-3.06-41.66,1.38-5.7,2-10.95,6.99-16.19,9.96-9.42,5.34-19.11,6.77-29.59,8.83,2.46,3.23.23,7.22.57,10.56.58,5.63,3.91,14.86,5.26,20.92.62,2.81.64,5.65,1.38,8.42,2.04,2.63,11.3,7.62,11.09,11.04-.05.77-.9,1.33-.78,2.58.19,1.91,1.77,2.31.38,4.97-1.54,2.95-7.79,5.42-8.39,6.32s-.07,2.48-.26,3.55c-.59,3.22-6.46,3.11-8.66,5.25.24,2.55,3.63,4.26,2.07,6.96-.79.5-11.01-3.08-12.76-3.73-7.46-2.8-14.49-6.54-22.16-8.89s-15.71-3.46-23.31-5.56c-7.08-1.96-17.67-6.77-24.37-7.78-2.08-.31-3.27.47-4.71.37-6.35-.44-12.76-1.8-19.13-2.12-10.31-.52-21.76-.09-32.16-.03-8,.05-10.64.34-18.11,2.59-32.05,9.66-63.9,12.72-97.36,9.42-11.41-1.13-21.97-4.35-32.71-8.16-2.09-.74-4.87-2.78-6.65-3.16-3.49-.73-10.26.75-14.61.44-14.95-1.06-30.8-11.38-44.21-17.36-1.12-.5-2.3-1.88-3.3-2.14-3.58-.95-9.2,1.34-12.14-2.02-1.8-2.06-1.64-6.01,1.12-7.11-1.77-2.57-2.39-4.82-.58-7.62l-.52-.55c-4.08-.72-8.12-1.5-12.12-2.59-13.57-3.71-31.64-9.92-44.38-15.55-11.43-5.05-1.59-11.66,3.92-16.43,25.21-21.8,56.78-37.82,89.61-44.15l-.54-1.63,11.96.51c3.35-33.02,26.44-59.14,52.32-77.61-.52-.89-1.16-.66-1.89-.82-3.14-.69-6.92-.7-10.2-1.25-32.14-5.37-61.13-13.52-89.41-29.91-9.75-5.65-33.58-20.09-38.44-29.66-2.42-4.77,1.24-3.93,3.71-4.85,1.22-.46,3.3-2.55,4.76-3.41,37.62-22.16,91.19-28.62,133.76-18.47,26.67,6.36,50.26,21.53,70.18,39.89.4.26.85.34,1.32.3.7-.07,9.34-7.44,11.03-8.64,22.78-16.29,49.12-27,75.06-37.17l11.73-34.3c-15.02.46-29.93-1.25-44.93-1.65-4.12-1.81-3.51-4.52-2.86-8.28,9.06-52.8,39.23-117.46,63.39-165.44,3.79-7.52,13.48-22.28,15.59-29.09.55-1.79.04-3.54,1.2-4.79,3.29-2.96,11.63,2.92,14.64,5.04,30.33,21.23,61.91,66.13,74.73,100.71,1.34,3.6,4.9,12.49,3.86,15.82-.68,2.17-13.23,12.46-15.87,14.91ZM571.26,136.34c.68-1.15-.28-3.56-.71-4.78-4.44-12.8-13.57-29.21-20.74-40.83-15.44-25.02-34.8-44.88-56.61-64.34l-1.39-.28c-23.01,53.07-48.88,105.33-64.96,161.14-2.67,9.27-5.12,18.79-6.94,28.2,10.01.85,20.74.19,30.54,2.42,2.45.56,8.27,3.21,10.04,3.03,5.19-.53,2.52-14.29,8.2-14.16,5.32.12.35,13.13-.15,15.66-2.2,11.11-3.79,16.83-8.05,27.37-.72,1.78-5.84,12.39-5.17,13.08l20.71,1.37c9.3-13.22,22.66-23.2,32.64-35.89-6.23-7.16-15.97-14.36-15.22-24.87,2.69-.5,5.48,1.47,7.93.03,22.44-22.46,45.61-44.1,68.34-66.25.42-.41,1.39-.69,1.52-.9ZM504.91,287.92c-3.83-1.47-7.59-3.24-11.46-4.62-7.57-2.68-20.46-3.38-21.19-13.14-4.47-.32-13.56-1.84-17.63-.66-.72.21-2,1.62-3.28,2.16-10.37,4.41-21.55,7.13-31.42,12.71,7.17-.32,14.35-2.02,21.52-2.45,12.52-.75,27.82,0,40.24,1.7,7.23.99,14.53,3.6,21.46,4.7.58.09,1.89.58,1.76-.4ZM339.6,307.21c-32.66-27.52-69.23-36.96-111.88-33.1-11.62,10.45-25.28,21.13-21.12,38.89.82,3.52,2.71,8.25,6,9.79,20.16,9.46,49.39,14.56,71.47,17.88,11.51,1.73,24.53,1.73,35.43,5.98,12.99,5.06,6.7,8.88-3.44,9.85-8.25.79-16.49-.59-24.64-.93-4.08,8.13-12.23,13.9-18.35,20.61-32.34,35.48-39.07,81.06-11.39,122,3.11,4.6,13.09,14.54,10.71,20.07-.9,2.09-2.64,1.71-3.9,2.63-4.7,3.42-4.7,14.13-.19,17.68,4.12,3.25,13.97,4.74,18.52,8.58,38.65,4.22,78.7,3.85,115.1-11.06,6.8-2.79,13.14-6.54,19.8-9.62,4.77-2.2,9.93-3.59,14.54-6.16,1.11-4.8.83-10.16,1.78-15.11,1.49-7.81,5.56-14.79,12.92-18.17l-1.64-3.73c-.01-.4,1.12-.68,1.4-.65,1.75.15,8.35,7.36,7.87,9.29-1.83,2.03-4.1-1.05-5.18-2.42h-.8c-3.3,4.91-7.01,9.16-8.69,15.01-1.27,4.39-2.43,13.84-1.97,18.25.16,1.59,5.21,7.94,6.54,8.71,1.11.64,2.65.75,3.92.99,5.83,1.07,11.91,1.31,17.74,2.42,21.16,4.01,43.1,12.86,63.08,20.82,3.29,1.31,4.64,3.82,7.89.81l9.55,2.72c.67-.62-4.87-5.57-2.78-8.39.94-1.27,7.45,1.7,9.32,1.31.88-2.95-4.73-4.88-2.19-7.37.81-.8,2.58-.29,2.74-1.34-4.17-2.26-8.02-1.62-10.08-6.54-5.53-29.47-13.27-53.61-32.45-76.93-3.14-3.81-7.13-7.21-9.83-11.29-1.76,1.08-8.7,2.94-6.21-1.13.82-1.34,15.06-7.86,10.73-1.35l.4.55c16.44,7.65,26.38,22.89,33.54,38.93,4.64-3.59,10.39-3.33,15.77-4.92s17.15-7.89,21.03-11.66c5.98-5.81,7.83-17.61,10.99-24.97,2.43-5.64,3.97,3.51,4.17,5.95.27,3.25-.08,6.04-.94,9.15,2.19,2.48,5.25.87,7.8.83,5.98-.09,11.93-.05,17.85.71,4.73.61,13.8,3.72,17.6,3.68,1.83-.02,2.44-1.37,3.82-1.63,1.1-.21,5.47.19,5.7-.03.57-2.07-1.51-2.01-2.22-2.95-1.3-1.73-.13-3.61,1.08-5.03l-.19-.74c-10.48-7.25-21.72-13.55-31.46-21.79-.83-.7-2.53-3.54-3.71-2.71.73,1.79.96,5.19.14,6.95-.32.69-2.01,2.29-2.61,1.23-.34-3.3.76-5.7-.84-8.94l2.22-1.15-8.99-10.08c-1.23-.23-.75.54-.81,1.35-.23,3.27-.31,6.56-1.03,9.77l-3.27.25c-1.27-12.95-3.19-25.84-6.52-38.42-7.41-27.93-24.1-57.06-45.55-76.49-1.07-.97-7.11-6.3-7.76-6.47-1.18-.3-2.03,1.55-4.12.94-.93-.28-6.44-4.47-8.2-5.45-31.13-17.28-75.59-19.82-109.89-12.18-14.94,3.33-33.82,12.34-46.47,21.08-.54.37-1.03.76-1.44,1.27l9.51,9.04c15.65-7.52,31.3-14.22,48.66-16.78,38.17-5.63,79.22,6.39,103.61,37.18,1.82,2.3,6.77,7.38,1.4,8.46-45.1-16.56-94.05-29.5-141.96-16.66-1.32.87.45,3.9,1.47,4.59,6.87-.87,13.56-1.5,20.35.31,1.61.43,5.14,1.33,3.57,3.59l-1.14.54c-7.24-.92-14.3-2.37-21.51-.57.03,2.13,2.1,3.33,1.12,5.59-.36.66-2.07.84-2.78.71-.62-.11-8.02-3.57-8.97-4.11-6.24-3.58-12.24-11.82-17.42-16.88-7.22-7.07-14.57-14.53-22.3-21.04ZM383.01,330.8c.68.41,1.45.16,2.17.03,5.04-.86,10.7-3.09,16.12-4.06,31.53-5.61,65.44-.44,95.86,8.4,7.24,2.1,15.05,5.58,22.11,7.32.45.11,1.49.64,1.43-.37-.07-1.26-13.55-12.34-15.62-13.79-35.33-24.73-86.2-24.42-123.04-2.84-.57.34-2.07,1.03-1.86,1.86l2.83,3.44ZM233.04,438.29c-1.2-1.19-18.48,4.75-21.22,5.75-5.92,2.17-12.4,4.84-18.12,7.49-1.44.66-8.58,3.89-9.17,4.46-.97.94-.22,2.77-.8,4.1-.44.99-4.08,3.88-5.15,5.2-7.67,9.44-9.6,19.98-9.57,31.88,24.89,10.05,52.56,3.97,78.2.52-9.17-18.38-14.92-38.64-14.16-59.39ZM257.02,535.27v-8.44c0-.23,1.45-3.81,1.69-4.3.7-1.43,3.55-4.22,3.18-5.43-5.86-4.83-9.31-11.79-13.87-17.78-4.68,4.84-11.25,8.6-17.83,10.49-13.17,3.79-27.09,2.19-40.34,4.36-3.12.51-.83,4.21-.12,4.21h7.9c.62,1.88-1.27,1.86-1.52,2.27-1.23,2.09,2.65,1.87,4.25,2.34,5.84,1.71,11.56,2.27,17.3,3.94s11.15,5.06,17,6.97c7.66,2.5,14.4,3.27,22.35,1.35Z"/>
  <path d="M392.78,427.29c.24.38,2.86,1.07,1.28,3.4-.88,1.3-9.63,2.31-12.12,3.68-1.69.93-1.81,2.17-2.74,2.85s-2.64.82-3.7,1.6c-.96.7-3.45,4.29-4.29,5.51-1.09,1.57-3.45,7.44-5.44,6.99-2.61-2.03-.84-4.96-.33-7.58-8.68-1.36-11.72-14.58-10.84-22.01.26-2.23,1.86-7.06,2.91-9.08,3.7-7.1,14.08-10.7,21.78-9.73,6.78.85,13.91,6.7,14.5,13.82.18,2.15-1.29,10.1-1.01,10.55ZM376.88,409.41c-2.94-1.17-13.29,3.69-11.18,7.09,1.62,1.65,3.61.89,5.39-.09,1.16-.64,6.84-6,5.8-7ZM363.26,423.04l-4.09-1.65.29,7.09c1.61-1.93,1.35-3.81,3.81-5.44Z"/>
  <path d="M431.24,388.86c37.13-3.98,39.69,44.26,6.12,51.89-22.59,5.13-40.27-13.15-30.61-34.97.66-1.49,4.35-7.92,5.26-8.91,3.48-3.78,14.15-7.46,19.23-8.01ZM434.52,393.78c-2.83.19-6.36,1.06-9.16,1.73-6.11,1.48-9.49,1.76-12.81,7.34-12.37,20.73,4.6,40.72,27.13,32.03,24.11-9.29,20.42-42.85-5.16-41.11Z"/>
  <path d="M470.82,391.2c-7.36-6.47-16.09-8.93-25.84-7.4l.07-2.66c15.83-5.94,31.07,3.03,39.05,16.66,9.71,16.56,8.02,39.97-1.09,56.45-1.16,2.09-7.71,12.25-9.96,11.83-.94-.66-.95-1.27-.73-2.33.54-2.61,3.59-7.66,4.68-10.6,7.3-19.8,11.59-46.3-6.18-61.94Z"/>
  <path d="M275.9,507.67c-.5-.49-1.7-.74-1.81-1.52-.28-2.04,3.39-7.94,3.8-10.21.54-3.03-1.29-5.21,1.17-8.63,6.48-9,24.86-3.66,26.4,7.42.64,4.64.43,11.33-5.67,11.16-5.07-.14-11.81-.76-16.73,1.21-2.1.84-3.4,3.56-5.9,2.3-.62-.31-.79-1.27-1.25-1.73ZM293.52,488.42c-2.34-.49-11.04.27-9.77,4.01,1.35,3.97,8.6-2.24,9.77-4.01Z"/>
  <path d="M581.74,435.56c-1.52-10.42-.62-20.75-2.33-31.18-1.96-11.97-6.33-23.55-11.2-34.57-1.05-2.37-4.35-7.48-4.77-9.44-.19-.88.22-1.37.32-2.18,1.03-.83,5.55,6.89,6.08,7.81,9.42,16.35,16.2,43.96,14.64,62.77-.06.74-1.2,8.21-2.74,6.79Z"/>
  <path d="M331.19,498.84l2.27-.55c1.52.37,1.74,4.36,5.79,2.91,4.58-1.64,3.41-9.22,5.15-10.66,1.13-.94,6.02.29,8.23.05,5.23-.56,8.76-4.98,10.74-9.43.55-1.23.01-2.95,1.89-3.01,2.61-.09,1.54,5.12,1.11,6.57-2.14,7.22-11.26,11.76-18.39,10.45-1.7,3.44-2,7.01-5.59,9.15-4.95,2.96-11.5.73-11.21-5.49Z"/>
  <path d="M347.35,478.18c.15.09,1.54,2.61,1.63,2.99,1.12,4.89-2.08,9.13-7.21,8.31-.49-.08-5.34-2.42-5.52-2.67-1.66-2.32,7.96-10.46,11.1-8.63Z"/>
  <path d="M410.97,352.24c5.8,3.24,12.44,5.49,17.66,9.5-2.25,2.93-8.67-.1-11.44-1.63-1.18-.65-10.57-6.86-6.22-7.88Z"/>
  <path d="M494.7,444.69c-2.52-2.51,4.16-5.32,6.16-5.82s8.16-1.32,8.89,1.41-5.37,1.75-7.48,2.18c-2.47.5-5.99,3.8-7.57,2.23Z"/>
  <path d="M457.99,478.13c.56.35,4.77,10.31,3.87,11.91-2.28,2.4-6.3-8.96-6.99-10.17-.13-1.32,2.17-2.33,3.12-1.74Z"/>
  <path d="M545.77,364.19c-2.53-1.09-3.87-3.3-6.37-4.79-1.38-.82-7.44-2.58-6.15-4.46,1.63-2.39,14.51,4.68,12.53,9.25Z"/>
  <path d="M419.43,341.37c.64-.4,2.36-.07,2.58.85-.35,2.03,4.59,8.53,1.93,9.4-3.59,1.17-6.26-9.16-4.51-10.25Z"/>
  <path d="M436.6,344.62c3.55-1.18,5.03,9.39,3.2,9.76-2.24-.41-5.48-9-3.2-9.76Z"/>
  <path d="M433.54,352.75c-3.78.9-7.37-3.3-5.49-6.85,2.29-2.03,6.04,6.29,5.49,6.85Z"/>
  <path d="M463.51,476.43c1.08-.22,1.46.22,2.21.79,1.04.79,5.33,6.9,2.96,7.38-1.37.28-2.88-5.22-4.65-5.69l-.51-2.48Z"/>
  <path d="M476.58,89.6c-6.34,17.91-14.91,34.94-21.66,52.7-7.17,18.86-12.99,38.33-18.62,57.66l-2.21.24c7.12-30.16,16.84-60.94,30.04-89,3.08-6.56,6.92-14.7,11.04-20.57.46-.65.02-1.33,1.41-1.02Z"/>
  <path d="M564.68,136.29c-.44.4-3.87,2.37-4.19.98-.38-1.66,1.6-1.85,2.31-3.13.34-.62.86-2.68.86-3.4-.02-8.67-21.79-36.89-27.59-45.32-2.19-3.18-12.14-17.09-12.53-19.63-.32-2.09,1.23-2,2.3-.65,2.54,3.18,5.02,8.05,7.5,11.57,8.96,12.68,19.81,25.67,27.23,39.23,2.54,4.63,9.04,15.88,4.1,20.36Z"/>
  <path d="M493.34,194.89c2.26-.32,6.08-.5,7.78,1.2,5.09,5.1-9.06,2.7-11.1,2.93l-.86-.79c-.8-2.43,2.44-3.09,4.18-3.34Z"/>
  <path d="M502.09,193.03c-1.34,2.21-13.18.94-10.81-4.28l10.01,1.17c1.15.36,1.07,2.12.8,3.11Z"/>
  <path d="M493.95,50.99c-.56,2.18,4.54,7.75,1.91,8.6-4.12-.04-5.52-4.93-4.08-8.35l2.17-.25Z"/>
  <path d="M490.74,69.44c-2.85,1.38-7.31-6.81-4.61-7.62,2.27-.49,5.51,6.71,4.61,7.62Z"/>
  <path d="M491.37,184.32l.24-2.7c7.18-2.31,6.44,5.32-.24,2.7Z"/>
</svg>