<?xml version="1.0" encoding="UTF-8"?>
<svg id="katman_1" data-name="katman 1" xmlns="http://www.w3.org/2000/svg" viewBox="0 0 841.89 595.28">
  <path d="M482.91,71.23c35.27,34.71,51.16,85.68,40.51,134.49-1.88,8.62-5.22,16.72-7.27,25.26l1.65,1.14c12.9-3.77,12.87,10.55,16.37,18.57,9.43,2.99,21.05,1.55,17.5,15.27-3.16,12.22-13.47,26.44-16.61,38.84-.85,3.34.11,11.25,4.79,10.54,1.58-.24,7.53-4.14,9.88-5.11,86.46-35.85,153.47,54.94,118.84,134.48-20.42,46.9-70.94,73.87-120.82,76.13-4.24.19-19.17-.88-21.72.33-2.13,1.01-3.17,7.61-2.54,9.63,4.23,5.94,10.78,9.62,14.94,15.66,13.55,19.65-16.37,15.51-27.17,16.78-2.45,1.04-1.98,8.3-6.36,9.33-8.78,2.06-16.31-7.25-22.56-6.26-3.24.51-4.43,9.6-11.02,11.09-6.74,1.53-15.49-8.94-21.16-10.22-4.07-.92-10.78.13-15.4-.24-8.02-.64-20.04-2.68-22.52-11.61-1.23-4.44,1.15-6.01.63-9.09-.22-1.28-5.98-12.23-6.74-12.5l-26.16,2.04c-16.33-.27-32.7-2.88-48.18-8.05-3.58-1.2-16.79-7.68-18.7-7.68-2.31,0-6.69,6.55-7.13,8.57-.46,2.13,1.24,4.98,1.07,7.4-.14,2.03-2.13,5.67-3.53,7.19-7.26,7.88-42.38,14.71-54.02,17.08-5.54,1.13-14.63,3.95-19.39.37-1.44-1.08-2.08-4.18-3-5.01-2.25-2.01-10.88.54-14.2.75-9.15.56-18.35,1.58-16.12-10.6-5.03-1.93-15.15-2.51-13.98-10.22,1.22-8.04,17.22-13.19,18.23-16.7.71-2.47-1.13-4.3-1.67-6.58-2.42-10.15-2.59-16.88-.83-27.17,4.07-23.75,17.92-45.63,38.86-57.83.55-.52.8-1.2,1-1.91.7-2.43-3.73-16.22-4.34-20.31-1.16-7.85-1.02-16.07-.92-24.01.03-2.22,1.1-5.72.73-7.74-.57-3.16-10.71-7.19-13.73-9.07-21.35-13.32-42.29-31.92-57.35-52.14-3.98-5.35-7.23-9.61-.75-14.93,1.47-1.21,6.11-2.99,6.29-3.3.98-1.57-1.73-7.13,1.76-11.05,2.89-3.24,12.05-3.61,12.95-5.18,1.41-12.41,3.9-25.29,19.04-16.94,7.05,3.89,6.64,6.73,16.53,5.58,6.15-.71-3.1-8.78-4.95-11.48-7.37-10.74-10.22-21.67-5.3-34.33,2.31-5.97,11.08-15.41,11.85-20.18.67-4.14-1.81-13.37-2.02-18.28-.32-7.42.58-15.92,1.66-23.29C237.73,36.01,394.78-15.5,482.91,71.23ZM497.38,242.61c37.08-62.15,15.8-143.05-44.36-181.66-75.63-48.54-185.22-12.71-215.66,72.02-4.75,13.21-8.61,28.29-7.09,42.32,1.84.15,1.19.11,1.4-1.07,2.6-14.55,5.91-29.49,14.37-41.81,6.64-9.67,19.12-20.84,28.9-7.83,13.57,18.07,9.54,58.63,5.49,79.9-1,5.28-2.63,18.18-8.61,19.12-7.67-.36-15.86,1.43-23.41,1.52s-11.18-3.14-13.72-9.81c-.78-2.04-1.9-11.38-4.06-10.86-8.36,12.9-18.38,21.91-11.37,38.38,6.29,14.78,36.12,36.94,50.34,44.93,37.3,20.95,86.62,27,128.32,17.88,4.02-.88,19-4.68,21.69-6.57.64-.45,2.44-4.58,3.46-5.96,18.55-25.19,44.75-40.97,74.31-50.48ZM274.87,132.1c-5.14-4.23-9.78,6.97-10.7,10.6-1.73,6.84-2.28,19.82,3.62,24.77,4.79,4.02,10.9,1.84,12.09-4.08,1.16-5.73-.51-18.77-2.18-24.52-.31-1.07-2.35-6.38-2.83-6.77ZM240.22,170.3c-4.18-.46-4.73,7.86-4.97,11.03-.63,8.22-.23,30.02,4.65,36.56,3.07,4.12,9.71,3.96,13.04.4-4.36-5.06-7.93-10.63-9.85-17.11-.69-2.33-2.88-11.57-2.88-13.47v-17.42ZM277.18,199.46c-2.45-.07-3.16,2.96-4.62,4.26-3.38,2.99-5.97,4.25-10.69,3.59-7.59-1.07-9.76-13.71-11.37-14.23-4.59-1.5-2.93,8.85-2.09,11.34,6.7,19.71,30.01,17.38,28.77-4.95ZM540.15,263.54c-1.14-1.79-12.28-1.53-14.89-3.95-3.49-3.24-1.19-14.33-5.1-16.26s-11.21,7.09-14.98,8.86c-5.26,2.48-13.57,3.51-19.67,5.93-19.85,7.88-50.49,29.42-58.13,49.94-12.08,32.46,19.14,79.45,54.5,55.21,27.73-19.01,40.58-56.63,53.26-86.09,1.21-2.8,6.61-11.12,5-13.64ZM236.49,357.83c.96-.96,5.72-15.76,7.14-18.8,5.27-11.18,13.76-22.84,22.51-31.53,1.92-1.9,5.77-2.98,4.55-6.62-.37-1.1-10.71-6.09-12.65-7.28-6.15-3.78-19.53-15.17-25.38-15.86-3.18-.38-8.77-.77-11.99-.83-3.84-.07-7.42,1.38-11.24.58-3.83-.79-10.59-7.8-13.54-6.87s-1.55,8.4-1.94,10.9c-.93,5.9-9.63,6.26-14.08,8.31-1.38,5.09,5.18,8.13-1.02,11.42-2.65,1.41-8.33,1.19-6.43,5.36,14.06,16,28.71,31.89,46.52,43.84,2.36,1.58,12.57,8.05,14.56,8.22.84.07,2.39-.27,2.98-.86ZM413.61,313.3c-12.13,2.12-24.13,5.75-36.53,7.02-25.87,2.63-52.47-.71-77.29-8.02-3.08-.91-13.95-5.58-15.8-5.46-3.21.21-9.13,6.72-11.43,9.21-2.07,2.25-8.34,9.03-8.16,11.69.14,2.15,13.32,25.17,15.51,28.62,1.24,1.95,3.48,6.53,5.61,7.19,32.03,4.45,64.26,7,96.57,5.16,6.3-.36,14.51-.54,20.55-1.49,4.34-.68,13.09-13.56,15.91-17.53-3.17-9.91-5.11-18.51-4.89-29.03.05-2.53,1.56-4.78-.06-7.35ZM582.06,314.13c-13.68,1.02-28.33,5.17-39.56,13.06-.28,6.06,2.23,11.92,3.24,17.87,6.93,40.85-2.05,92.8-19.09,130.51-1.23,2.72-5.89,9.68-6.16,11.63-.53,3.91,4.44,14.6,3.56,19.61.36,1.2,2.04,2.22,3.21,2.48,3.56.78,12.83.33,16.94.18,52.11-1.9,104-29.57,118.86-82.35,15.36-54.59-19.95-117.55-80.99-112.99ZM527.21,322.54c-.93.3-1.53,1.66-1.73,2.57-.78,3.54,3.99,16.97,5.2,21.5,1.23,4.6.66,11.79,5.66,14.24,1.56-.33,1.15-5.46,1.07-6.74-.27-4.37-5.02-29.6-7.79-31.31l-2.4-.25ZM259.85,333.15c-4.62.97-13.58,28.69-14.48,33.92-.5,2.89-1.39,9.95-1.24,12.64.08,1.36.39,2.23,1.49,3.11.84.67,11.46,6.59,12.33,6.86,1.82.56,4.36.85,5.75-.71,2.15-5.15,14.95-18.93,14.95-23.49,0-1.69-1.11-3.17-1.81-4.63-3.19-6.68-9.88-19.2-13.99-25.11-.54-.77-1.95-2.8-3-2.57ZM520.12,335.32l-18.12,25.31c-.72,9.89-2.68,19.76-3.02,29.69-.07,2.08-.73,9.87,1.89,10.3,1.18.19,4.59-4.5,5.54-5.71,4.22-5.35,8.97-12.23,12.52-18.05,8.98-14.74,10.29-17.5,5.47-34.65-.59-2.12-1.35-7.64-4.29-6.89ZM426.05,361.3c-1.37-1.68-3.06-6.71-6.2-4.66-1.77,1.16-11.04,11.8-7.18,14.12l29.64,25.09c2.48,1.08,13.11-.51,15.12-2.28,1.8-1.59,3.11-9.31,1.81-11.09-1.18-1.62-9.41-3.15-12.13-4.22-8.65-3.41-15.33-9.9-21.08-16.95ZM530.74,365.87l-28.23,42.96,21.82,41.57c.78.16,1.29-.48,1.72-1.01,1.7-2.1,5.94-21.2,6.76-25.23,2.2-10.82,6.51-33.31,5.12-43.57-.36-2.68-3.86-15.71-7.19-14.72ZM284.09,369.53c-1.55.46-6.79,8.34-8.19,10.29-1.7,2.35-9.85,13.79-10.08,15.57s.33,3.1.86,4.76c1.41,4.37,9.41,24.8,11.59,27.51,2.01,2.49,15.12,11.41,18.24,12.34,7.06,2.09,21.76,3.58,29.38,4.03,1.38.08,5.19.32,6.08-.3.73-.56.61-1.36.7-2.14,1.04-8.62-.38-20.07-.03-29.18.25-6.53.84-13.38,1.42-19.91.3-3.35,2.82-14.6,1.78-16.72-.4-.81-1.27-1.28-2.15-1.4l-49.61-4.84ZM490.48,372.22l-3.51.4c-4.3,4.51-15.53,5.44-17.04,11.4-2.38,9.37-1.16,25.74.84,35.29,1.23,5.86,3.65,11.53,5.57,17.18,1.25,1.79,7.82,3.43,10.35,4.58s4.88,4.08,8.05,3.68c-.8-13.93-4.95-27.61-5.68-41.6-.54-10.4.9-20.58,1.41-30.92ZM396.49,373.14c-16.39,1-31.28,2.12-47.87,1.96-2.22-.02-4.52-1.68-6.33.72-1.35,1.79-3.04,23.36-3.27,27.3-.35,6.07-.68,13.94-.71,19.91-.03,6.46.88,12.75.76,19.21.45,2.78,4.32,3.04,6.71,3.24,16.03,1.34,34.08-.9,50.32-.21,2.11-.32,3.29-.97,5.05-2.06,2.94-1.83,19.02-14.15,20.71-16.26,2.27-2.84,14.37-21.54,15.46-24.35.49-1.26.85-2.16.44-3.56-.41-1.39-11.31-10.47-13.38-12.25-3.51-3.03-15.19-13.43-18.83-13.87-2.71-.32-6.27.06-9.05.23ZM261.73,449.52c1.88,1.85,2.83.57,3.73-1.22,1.17-2.34,6.2-15.41,6.6-17.6.38-2.06-.07-3.55-.6-5.47-1.26-4.53-9.36-24.7-11.72-28.1-1.48-2.14-12.19-8.49-14.79-7.89-2.05.47-.59,9.09-.36,10.97,1.44,11.99,5.54,24.77,10.44,35.78.87,1.96,5.93,12.78,6.71,13.54ZM457.77,399.95c-4.3,1.38-11.35.23-14.87,3.26l-14.66,23.04c-.73,1.73-.29,2.99.49,4.54.85,1.68,10.61,13.5,11.79,13.84,2.26.66,9.97-3.96,13.15-5.06,2.3-.79,10.53-1.85,11.15-3.83-3.51-11.71-5.65-23.64-7.05-35.79ZM514.74,471.67c3.81,2.38,7.23-9.63,6.89-12.16-.42-3.09-4.24-10.98-5.75-14.21-3.49-7.42-8.14-14.46-11.48-21.94l-2.54-.66,4.57,32.75c1.55,1.98,7.53,15.74,8.3,16.22ZM422.05,433.52c-3.78.96-15.65,12.88-20.62,15.66-4.16,2.33-12.84,2.48-17.92,2.7-14.35.6-28.76-.71-43.09-.43-1.07.75-.74,4.38-.66,5.73.43,7.03,1.65,17.16,2.92,24.09,1.34,7.32,1.24,9.84,7.97,13.36,10.2,5.34,38.21,17.56,48.79,19.47,7.15,1.29,4.38-5.25,5.08-9.92,2.11-14.04,9.53-29.7,18.12-40.9,4.04-5.27,9.31-9.33,12.95-14.75l-11.61-15.22c-.67-.11-1.29.04-1.93.2ZM333.19,451.31c-12.29-4.12-30.56-1.82-42.01-8.11-2.68-1.47-11.55-9.17-13.66-9.13-1.21.03-1.42.77-1.91,1.63-1.64,2.88-4.77,11.95-5.86,15.47-1.74,5.64-2.62,6.22.46,11.58,8.41,14.64,27.5,33.79,41.73,42.88,1.32.84,8.14,4.97,8.98,4.97,1.07,0,3.02-1.49,3.93-2.2,2.59-2.04,10.45-9.54,12.53-12,3.7-4.38.34-11.39-.36-16.55-1.3-9.49-2.03-19.22-3.82-28.53ZM241.45,437.74c-3.22.66-12.65,9.85-15.11,12.68-14.76,17-20.98,39.76-15.64,61.87.71,2.93,3.84,9.08,3.1,11.58-.68,2.28-12.37,5.35-14.07,8.76,2.13,6.8,14.18-3.19,16.71,1.7,1.31,2.54-3.92,6.3-5.31,8.27l1.39,2.06,19.36-3.12c4.12,1.64,3.11,8.82,7.26,9.2,11.7-2.76,23.71-4.47,35.35-7.38,4.32-1.08,16.05-4.13,19.31-6.29,3.76-2.49.91-9.02,2.03-12.9.95-3.29,9.27-7.9,5.23-12.65-25.42-18.15-43.81-44.6-56.53-72.86-.8-1.07-1.82-1.18-3.08-.92ZM499.02,559.21v-10.31c0-.26,1.42-2.38,1.83-2.48.74-.17,5.38,3.83,7.81,4.21,2.4.37,13.04.78,15.44.58,1.65-.14,2.25-.64,1.94-2.27-.71-3.71-11.67-10.27-13.95-13.89,3.67-24.92-.33-59.6-19.82-77.49-33.74-30.97-75.17,17.35-77.18,51.49-.6,10.14.83,18.11,4.67,27.4.96,2.31,3.12,4.38,3.62,7.1.49,2.67-1.04,4.81-.29,7.33,1.87,6.21,22.34,3.31,27.77,4.23,5.13.87,13.21,8.84,17.3,9.08,4.1.24,6.58-10.44,10.69-11.95,3.24.11,18.44,8.67,20.17,6.97ZM400.16,520.15c-.78-1.16-22.74-8.22-26.27-9.65-9.7-3.92-19.06-8.72-28.83-12.49-1.14-.18-1.91.18-2.86.73-.76.44-11.99,11.68-12.44,12.44-2.78,4.73,7.65,6.78,11.41,7.86,18.38,5.26,39.49,6.69,58.3,3.55.82-.35.98-2,.68-2.45Z"/>
  <path d="M422.57,119.49c25.38-.79,38.28,32.12,40.81,52.68,1.55,12.59,1.01,43.11-7.04,53.21-9.56,12.01-21.01,9.78-34.37,8.11-9.5-1.19-19.04-3.16-28.44-4.98-2.71-1.4-4.01-7.1-4.9-10.03-7.25-24.01-7.13-53.58,4.54-76.17,5.32-10.3,17.06-22.44,29.4-22.82ZM429.86,132.08c-21.6,3.31-20.63,43.93.54,43.96,9.08.01,16.8-9.14,17.95-17.65,1.48-11-5.17-28.35-18.49-26.31ZM452.54,179.6c-1.46.49-4.43,13.7-5.23,16.13-4.33,13.14-10.25,24.29-22.61,31.43-.79.78-.31,1.21.4,1.78,1.57,1.24,14.44,2.27,16.54,1.65,7.39-2.17,14.89-29.25,15.42-36.48.22-2.98,1.13-16.4-4.52-14.51ZM390.95,199.46c-1.9,1.42,1.9,13.49,3.03,15.8,4.51,9.24,16.55,11.7,25.8,9.11,6.06-1.7,17.01-11.76,18.35-17.97.43-2.01-.35-3.18-.12-4.3.3-1.44,4.39-5.38.57-7.27-5.61-2.78-3.49,4.16-4.63,6.74-.2.46-5.67,7.13-6.36,7.86-8.32,8.76-20.85,8.24-28.83-.58-1.12-1.24-6.13-10.64-7.81-9.4Z"/>
  <path d="M415.76,250.57l-2.09.48c-2.03-3.43-4.11-4.32-8.15-3.96-13.62,1.21-28.15,10.66-43.01,4.62-4.85-1.97-12.13-7.47-17.45-7.34s-9.85,7.1-14.12,6.96c-4.66-.15-7.91-7.15-13.51-7.02s-11.76,6.28-17.1,7.8c-5.83,1.66-13.04-.82-18.72-2.69-3.93-1.29-13.63-6.54-16.69-5.72-1.56.42-3.18,3.32-4.44.54-1.39-3.07.72-6.29,4.14-6.15,9.84,2.85,25.7,12.15,35.83,9.17,5.07-1.49,9.88-6.87,15.96-7.5,6.55-.68,11.36,6.89,15.12,6.63,2.45-.17,5.92-4.07,8.29-5.26,9.51-4.79,18.32,5.3,26.91,7.08,12.52,2.59,27.19-4.41,38.97-5.9,5.7-.72,11.09,1.68,10.06,8.27Z"/>
  <path d="M380.28,146.13c1.7-13.88,13.23-33.8,29.16-32.36,1.12.62.36,1.27-.36,1.8-2.3,1.7-6.32,2.23-9.55,4.67-10.28,7.78-11.08,14.51-17.09,24.14-.58.93-.58,2.07-2.16,1.74Z"/>
  <path d="M292.83,147.55l-2.17-.31-.55-.87c-.62-6.59-2.15-14.63-4.96-20.64-.69-1.48-5.21-7.25-4.4-8.04,4.39-.5,7.46,5.83,8.87,9.25,2.68,6.48,3.51,13.65,3.21,20.6Z"/>
  <path d="M340.23,228.71c3.94-.34,1.73,6.01-2.17,4.81-2.79-.86-.03-4.62,2.17-4.81Z"/>
  <path d="M317.71,233.58c-2.68.99-5.78-4.3-2.39-4.92,2-.36,2.84,3.43,2.39,4.92Z"/>
  <path d="M628.17,466.54c-16.84,17.58-42.34,24.06-61.98,6.67-26.92-23.83-10.95-63.87,21.55-71.62,3.43-.82,10.04-2.58,12.96.14,3.62,3.36-6.92,4.8-9.24,5.71-20.1,7.87-32.8,33.28-18.81,52.2,16.14,21.82,51.06,9.63,61.25-11.89,7.64-16.14,7.24-38.95-8.32-50.29,2.14-4.89,9.7,2.22,11.66,4.7,14.42,18.21,5.8,48.86-9.07,64.39Z"/>
  <path d="M652.58,442.62c1.05,1.04-7.46,10.25-7.8,6.04-.09-1.1,7.15-6.69,7.8-6.04Z"/>
</svg>