<?xml version="1.0" encoding="UTF-8"?>
<svg id="katman_1" data-name="katman 1" xmlns="http://www.w3.org/2000/svg" viewBox="0 0 841.89 595.28">
  <path d="M258.02,575.31c1.94-5.99,6.74-17.39,5.53-23.54-.15-.78-6.95-8.32-8.2-10.09-14.94-21.14-5.41-30.48.19-51.69,1.33-5.04,1.83-10.28,3.43-15.41,1-3.22,3.92-8.32,4.47-11.05.94-4.64-.22-13.94.13-19.26.56-8.57,2.63-19.68,4.59-28.11,1.66-7.1,4.38-13.89,5.93-20.94-5.79,1.83-11.45,4.24-17.39,5.61-7.18,1.66-25.26,4.56-31.61,1.53-2.67-1.27-2.82-2.94-2.56-5.75.43-4.74,5.11-7.42,7.42-10.87,3.47-5.18,6.46-14.57,9.86-20.62,2.53-4.5,5.89-9.61,8.86-13.86.93-1.33,4.04-4.18,3.81-5.62-15.79-8.91-27.87-23.45-34.66-40.2-3.92-9.66-6.11-17.69,1.09-26.6.97-1.2,3.97-3.43,4.43-4.44,1.15-2.56,1.71-10.76,2.92-14.82,5.87-19.69,17.82-29.02,34.11-39.61.5-.33,1.15-.41.96-1.24-.19-.86-12.1-6.92-14.03-8.15-14.67-9.33-29.9-24.8-37.73-40.42-1.71-3.41-5.69-11.84-3.71-15.21,1.72-2.93,8.87-1.71,11.83-1.22,6,.99,14.28,3.84,20.09,5.96,21.68,7.91,42.13,20.66,55.98,39.35l12.39-16.79c-5.69-6.83-11.4-13.67-15.53-21.62-6.73-12.94-14.83-41.64-11.86-55.81,1.33-6.35,7.97-3.55,12.24-2.2,12.44,3.93,23.74,11.33,34.63,18.3.27-19.04.36-38.92,2.85-57.84.73-5.56,3.23-21.66,7.31-25.1s9.71,1.96,12.79,4.87c13.67,12.91,28.65,36.95,37.02,53.87.9,1.82,5.55,13.51,6.28,13.67.94.21,1.09-.76,1.41-1.35,5.07-9.58,8.13-23.43,14.96-32.02,6.08-7.66,10,1.37,12.94,6.85,14.22,26.53,30.22,89.81-8.53,102.71-.99.33-5.86,1.09-6.08,1.4-.12.55.04.72.27,1.11.72,1.26,6.31,5.42,7.86,6.55,24.14,17.52,60.09,24.01,87.03,9.05,1.78-.99,12.07-7.89,11.8-9.18-8.59-6.25-20.42-9.66-30.89-11.27-5.16-.79-10.87-.54-15.8-1.39-6.92-1.2-1.05-7.09,1.65-9.56.33-2.25-8.01-3.25-5.67-8.05,1.09-2.23,7.62-2.62,8.35-3.86-5.6-12.06,5.45-5.61,7.39-7.27,1.09-5.43,5.07-10.88,9.48-14.07-.36-1.69-5.1-3.27-6.81-4.28-10.96-6.42-23.23-15.43-31.1-25.44-3.05-3.88-11.8-14.71-4.9-18.06,8.35-4.06,15.48-5.54,23.82-11.12,31.23-20.92,36.48-64.28,80.81-67.17,53.25-3.47,84.2,48.15,61.35,95.13-4.12,8.47-10.05,13.71-14.51,20.96-.27.44-.81.5-.56,1.38,16.05,1.02,27.26,16.9,25.44,32.36-.28,2.38-1.69,4.53-1.6,6.99h8.04c1.55,0,2.23,2.7,1.85,4.03-.43,1.51-3.97,3.2-4.34,5.09.59,2.39,17.98,6.95,1.14,11.41.34,2.65,4.28,9.07-1.36,8.82-3.06-.14-8.7-2.82-12.32-2.68-13.14-1.28-26.43.36-38.36,6.11-.1,11.85.05,23.79-2.57,35.39-5.05,22.33-18.05,40.67-38.5,51.3,3.88,7.96,12.21,14.89,20.26,18.44,1.84.81,7.09,1.82,8.01,3.08,3.69,5.01-11.33,8.31-14.25,8.56-16.11,1.35-30.67-7.6-38.27-21.49-14.04,2.93-27.81,3.28-41.87.34-3.18-.67-6.28-1.91-9.47-2.52-4.76,4.75-9.59,11.17-11.85,17.55-2.43,6.87-.91,5.25,2.57,9.81,6.74,8.83,13.37,21.19,12.21,32.67-1.26,12.38-15.57,6.39-23.56,5.83-7.15-.5-14.45.75-21.5-1.03-10.04,10.97-21.1,18.4-34.94,23.84-2.56,1.01-6.36,1.52-8.53,2.56-1.84.88-3.72,3.72-5.44,5.09-6.71,5.38-15.17,7.76-22.94,3.01-2.37-1.45-3.9-3.76-5.87-5.21-2.52-1.85-14.71-3.65-19.24-5.15-3.81-1.26-10.72-5.23-13.59-5.82-1.44-.3-2.6-.41-2.92,1.27-.59,3.16.17,8.65.02,12.21-.06,1.31-.54,2.52-.6,3.83-.7,15.51-.84,31.04-3.85,46.29,9.48-1.14,18.98-1.01,28.47.07,10.05,1.15,19.97,3.59,29.42,7.14,27.51-16.19,58.85-24.51,90.66-26.61.59-9.72,3.01-19.27,7.12-28.07,1.04-2.23,6.03-9.77,6.19-11.03.15-1.18-.57-2.5-.58-3.81-.07-6.64.68-20.31,4.87-25.65,4.87-6.19,20.92-4.4,27.97-3.3,1.83.29,4.13,1.51,5.71,1.51,1.84,0,5.29-1.63,7.37-2.07,38.87-8.16,77.7,4.71,101.45,36.79,1.93,2.6,4.67,8.27,6.52,10.11,1.45,1.44,4.81,2.99,6.6,4.48,4.47,3.72,13.07,10.76,13.08,16.89.02,8.1-7.71,15.81-10.29,22.45-1.14,2.94-1.31,7.29-2.22,10.53-3.87,13.86-11.63,25.7-21.8,35.73,7.43,9.76,14.56,23.07,8.5,35.2-3.98,7.97-12.54,13.38-21.54,12.82l-.86.79c3.36,12.54,3.83,25.44-.05,37.92h-4.43c6.72-22.53-.4-45.72-11.09-65.65l1.25-.74,2.07.45c.19-4.12-.25-8.35.01-12.46.14-2.15,1.88-5.53.59-7.26-.52-.69-4.43-2.69-5.44-2.87-6.86-1.25-12.71.63-17.06,5.96-1.4,1.72-3.82,7.27-4.47,7.72-2.23,1.55-13.23.17-15.23-1.87-1.33-1.36-1.39-5.77-2.02-7.95-3.84-13.2-19.48-19.6-30.13-9.83-1.19,1.09-1.57,3.32-3.57,3.11-2.17-1.51-3.07-3.99-5.27-5.86-5.48-4.66-13.5-4.67-19.87-1.84-.27,1.3.09,2.63-.22,3.94-1.15,4.8-4.93,10.9-5.85,15.21-.78,3.7,1.58,6.09,4.04,8.45,9.28-10.59,22.74-.5,25.5,10.54,3.01,12.01-6.44,25.06-14.96,32.68-1.66,1.49-10.79,7.71-11.09,8.33-2.08,4.26.43,15.34,1.94,19.95h-3.33c-2-3.54-1.09-8.17-3.07-11.61-.29-.5-3.46-4.26-3.83-4.48-1.7-1-3.72-.42-5.53-2.23-2.07-2.07-1.5-4.91-2.84-7.14-.37-.62-9.84-9.61-10.5-10.01-4.74-2.87-21.03-.3-27.07-.43-9.03,7.5-14.49,11.38-3.72,20.68,7.4,6.38,16.51,10.49,24.95,15.23h-9.98l-16.9-11.09c-.87-.18-.9-.06-.75.74.62,3.35,3.15,6.76,1.57,10.35h-12.2l7.71-2.82.1-.77c.04-4.74-10.46-33.18-9.21-35.21,1.09-1.78,7.79-.98,10-1.11,1.08-.06,2.13-.53,3.31-.57,10.53-.4,21.17.63,31.64-.47,7.13-10.88,13.03-23.15,18.1-35.15.96-2.27,7.17-17.43,7.01-18.4-.08-.46-.79-.85-1.29-.84-13.56,1.02-27.05,2.63-40.29,5.74-14.96,3.51-29.44,8.98-43.55,14.93-2.06,13.84-.64,28.07-4.57,41.67l15.51,23.33c-.02.93-.77,1.41-1.46,1.85-2.54,1.63-9.04,3.46-10.95,5.12-1.02.88-1.03,1.44-.89,2.71h-3.33l-4.44-22.16c-.68-.7-2.66,2.46-3.3,3.06-5.23,4.87-12.48,9.96-19.98,9.68l.33-1.71c9.05-2.82,17.28-8.3,22.13-16.57,6.76-11.51,5.77-24.59,6.37-37.41.42-8.94,1.27-15.03-.07-24.32-.24-1.65-1.61-8.96-2.41-9.78l-6.4-.54.03-1.62c17.6-4.82,36-11.62,52.09-20.25,1.47-.79,5.38-2.74,6.32-3.66,1.41-1.38,4.2-7.8,4.2-9.66v-9.42c-.39-.52-.57-.7-1.25-.72-3.14-.11-13.88,2.6-17.6,3.49-18.81,4.47-38.36,11.97-54.61,22.43-1.06.68-6.55,5.84-6.29,2.59.1-1.7,4.44-3.72,2.69-5.06-.99-.76-7.58-2.46-9.29-2.9-11.91-3.05-28.08-4.66-40.23-3.41-5.92.61-11.63,2.55-17.53,3.25-2.15-2.18,7.23-4.3,7.75-4.72,3.47-2.87,5.32-47.81,5-54.85l-1.38-1.4c-5.39.46-15.54,4.03-18.05,9.13-2.29,4.64-4.48,13.99-5.69,19.25-2.98,12.99-4.58,26.45-4.26,39.79,2.58-.41,3.11-4.03,6.09-3.32.81.79-3.62,5.89-4.33,7.03-8.81,14.28-8.58,29.67-15.07,44.77,1.83,1.36,4.11.79,6.4,1.93,9.78,4.85,8.79,20.81-1,25.09-1.24.54-3.78.08-3.75,1.8,6.26,10.76,15.99,19.04,26.22,25.9,1.41.95,8.44,4.37,8.16,5.68-.17.81-1,.73-1.68.61-3.3-.59-9.43-4.53-12.35-6.52-1.95-1.33-5.56-4.95-7.03-5.72-.56-.29-1.05-.34-1.66-.28-.61,7.09-3.04,13.75-4.99,20.51h-4.99ZM614.45,72.7c-1.75-25.43-19.89-48.17-45.42-52.95-25.36-4.74-43.14,1.68-59.33,21.1-18.5,22.2-22.76,37.55-51.37,51.17-1.93.92-6.64,2.16-7.92,3.16-.55.43-.74.57-.59,1.34,35.41,21.13,83.04,19.1,118.91.02,1.05-12.14,2.61-24.25,8.85-34.93,8.95-15.33,23.45-19.32,32.28-1.21,1.73,3.55,2.51,7.16,3.47,10.96.23.92-.56,1.62,1.12,1.35ZM344.86,45.19c-.98-.91-5.24-4.67-6.39-4.01-2.36,4.38-3.42,9.35-4.34,14.23-3.58,19.08-4.51,43.57-4.07,63.03.08,3.42,1.47,7.2.02,10.78-.8.2-1.31-.19-1.98-.51-2.47-1.19-7.54-6.26-10.6-8.25-3.72-2.43-8.45-4.96-12.43-6.97-2.88-1.45-20.45-9.74-22.11-8.1-.73,23.85,6.21,49.91,21.64,68.42.97,1.17,3.91,4.99,5.14,4.66,14.06-14.14,30.49-26.26,48.79-34.4,6.67-2.97,23.17-9.25,30-8.17,8.27,1.31,4.84,10.89,2.8,16.02-.97,2.43-5.5,9.54-5.73,10.94-.2,1.24,3.39,6.73,4.34,8.2,1.23,1.92,8.28,11.89,9.83,12.34,39.11,1.47,35.4-45.54,27.85-71.62-3.28-11.32-8.17-23.26-14.67-33-.62-.22-.75.29-1.07.57-1.43,1.26-6.25,11.69-7.43,14.19-1.59,3.38-3.15,6.91-4.61,10.35-1.26,2.94-5.35,15.81-6.91,16.94-.36.26-.88.64-1.31.38-4.5-10.01-8.5-20.3-13.75-30.06-7.8-14.48-21.01-34.84-32.99-45.98ZM608.35,103.73c3.83-13.03,4.54-30.02-1.56-42.49-8.43-17.23-21.41-8.81-27.91,4.43-4.31,8.78-6.33,20.03-6.56,29.75,9.74-.51,19.03-6.72,26.8-12.29,1.99-1.43,7.4-7.04,9.46-6.59,2.91,7.42,1.21,16.88-.36,24.56-.22,1.06-2.16,2.92.13,2.63ZM595.05,119.24c1.38,1.07,3.76-3.31,4.33-4.26,3.96-6.62,6.78-17.18,7.31-24.84.08-1.21.4-8.6-.82-8.57l-5.83,4.81c1.5,11.14-.4,22.67-4.98,32.85ZM591.57,92.17c-1.88.52-2.4,4.57-.1,4.94,4.28.69,3.87-5.98.1-4.94ZM588.98,99.86c-.82,2.43-.9,10.16-3.35,11.35-6.24,3.03-5.78-9.77-6.36-13.05-.48-.78-6.58.61-6.88,1.48-1.89,5.58,2.66,24.11,9.76,25.57,6.12,1.26,7.36-1.24,9.67-6.15,2.82-6,4.86-13.71,4.89-20.32-2.66,1.8-4.66,1.95-7.73,1.12ZM586.73,128.67c-10.53,1.2-15.27-8.96-16.93-17.71-.58-3.07-.35-6.45-.8-9.17-.11-.65-.3-.99-.83-1.37-28.07,14.45-62.33,18.05-92.97,10.36-9.37-2.35-18.52-6.03-26.48-11.48-1.15,1.57,5.2,9,6.45,10.47,8.11,9.47,20.75,18.36,31.78,24.18,18.1,9.55,37.83,14.5,58.22,16.34l-.02,1.63-2.22.96-.54,24.26c.58,3.71,12.65,4.89,15.8,4.73,1.5-.08,9.43-1.32,10-2.19.23-11.58,1-20.44,6.36-30.77,3.23-6.23,8.96-12.85,11.74-18.74.24-.5.65-.75.45-1.49ZM616.66,165.24c3.52-14.05-7.84-30.63-22.99-29.36-5.57.47-9.77,6.03-13.02,10.26-5.11,6.66-8.55,13.75-8.32,22.43,2.74-2.53,4.41-6.07,6.92-8.87,9.06-10.11,22.97-14.06,32.42-1.92,1.93,2.48,2.61,5.63,5,7.47ZM323.98,230.63c.71-.63-3.47-11.68-4.97-13.04-2.1-1.91-5.3-.77-7.22-1.65-4.85-2.21,6.67-4.63,7.73-5,29.52-10.35,57.97-32.23,68.62-62.74,1.97-5.64,3.78-8.47-4.01-7.88-9.75.73-25.31,7.79-34.03,12.52-24.76,13.45-45.31,33.46-58.55,58.39-2.23,1.09.25-4.97.28-5.31.27-2.5-4.87-8.92-6.67-11.02-12.26-14.32-32.41-25.78-50.13-31.9-7.96-2.75-16.79-5.4-25.25-5.52,3.45,16.43,17.36,32.35,30.23,42.65,4.95,3.97,24.89,17.17,30.41,16.62,1.32-.13,7.93-2.38,8.66-1.64l-.37,1.67c-25.46,7.06-48.91,28.36-50.62,55.96l1.71-.32c.53-10.81,4.7-20.05,11.61-28.2,5.8-6.85,24.17-21.96,33.36-21.24,8.98.71,19.05,15.67,19.79,24.05.88,10.13-11.17,19.95-18.24,25.7,4.19-.18,25.07-8.9,26.33-11.6-2.33-8.96-2.79-21.28,4.7-28.03,5.11-4.6,10.4-4.02,16.64-2.49ZM527.25,151.56c-1.79-1.48-13.04-3.46-16.34-4.45-2.55-.77-15.9-6.09-16.81-6-3.94.41-11.18,10.38-11.57,14.46.05,2.01,6.97,2.99,8.63,4.13,2.95-1.16,5.35-3.55,8.55-4.71,11.61-4.24,23.48,2.49,30.76,11.35,1.7,2.07,7.66,10.35,1.42,8.89l-2.66,6.92c3.08,2.5,4.36,5.31,6.36,8.42.28.44.37,1.52,1.23.71.46-.43,2.26-11.19,2.27-12.47.08-7.14-6.28-22.63-11.86-27.25ZM539.62,153.05l-3.32-.56c-.9,4.58.36,8.66,3.32,12.19v-11.64ZM573.44,184.08c.62.53,9.77-4.75,11.43-5.47,4.34-1.89,9.9-3.76,14.51-4.89,2.2-.54,11.67-1.83,12.54-2.43.34-.23.7-.44.82-.87-.95-5.82-5.23-12.72-10.87-15.03-9.91-4.06-19.35,6.26-24.23,13.79-2.94,4.54-6.13,9.31-4.2,14.91ZM504.56,158.18c-1.19.15-6.53,1.7-6.51,2.9,9.77,5.18,18.86,11.46,26.32,19.66,1.36.01,4.02-8.15,4.17-9.67-5.09-7.28-14.54-14.12-23.98-12.89ZM527.43,185.75l1.66,4.69-1.38.84c-12.77-16.69-30.89-29.02-51.83-32.69-.77,2.1,2.3,3.91,1.42,5.55l-8.07,3.05,5.57,5.56c.24,2.49-4.38,3.12-4.46,5.79,14.02,1.13,28.93,3.66,41.39,10.44,2.71,1.47,10.72,6.3,11.28,9.23.46,2.43-3.63-1.02-4.61-.77-.75.19-5.08,4.6-6.23,5.47-19.57,14.88-39.98,15.63-63.76,13.89-30.27-2.22-54.66-17.25-67.61-44.92l-1.42.38-18.25,21.24c3.55.8,17.26-10.77,18.31-10.28,2.38,1.78,1.27,4.35,1.7,6.62.79,4.15,4.73,22.34,7.16,24.42,3.27,2.79,6.68,2.92,10.19,7.54,4.43,5.82,3.1,12.2,7.05,16.2,38.44,39.04,102,20.59,124.2-26.41,1.7-3.61,5.47-11.84,4.76-15.48-.23-1.21-5.44-12.17-7.07-10.38ZM384.3,167.58c-.47-.27-1.05-.09-1.55-.12,7.74,21.65,27.16,37.95,49.33,43.77.27-1.27-.62-1.24-1.36-1.68-3.87-2.29-8.41-3.94-12.45-6.4-11.19-6.82-21.77-17.11-29.32-27.77-.83-1.17-4.25-7.58-4.65-7.81ZM622.77,175.22c-15.24.08-32.61,4.2-45.62,12.29-6.11,3.8-5.21,4.24-4.26,11.53,7.6-2.44,14.93-5.43,23.01-6.1l10.53-.55,15.24,2.21c.56-1.87-2.84-3.34-1.98-4.99.69-1.33,5.41-2.19,6.97-2.78,1.01-1.35-6.65-4.43-7.15-5.9-.83-2.48,3.17-3.45,3.27-5.73ZM542.65,181.95c-1.12.11-3.42,14.08-4.1,16.19,6.69,3.93,21.65,5.36,28.78,2.29,3.91-1.68,1.8-5.21,1.67-8.32-.07-1.6.43-7.67-.52-8.35-3.16-.58-6.56,1.17-9.75,1.42-5.56.44-11.08-.94-16.08-3.24ZM402.14,277.18c-9.13,2.7-18-3.58-14.81-13.42,1.03-3.16,4.99-6.58,8.14-7.38,1.84-.47,3.78.29,5-1.09l-3.87-4.47c-9.38,7.19-21.61,8.04-30.51-.5-11.65-11.19-6.81-31.93,8.87-36.05,1.5-.39,7.68-.82,7.75-1.64l-6.35-22.44c-5.28,4.13-11.59,7.22-18.02,9.13-2.66.79-5.15.72-7.75,1.68-4.15,1.53-10.24,5.79-14.78,7.94-3.65,1.73-7.4,3.37-11.28,4.52-.19.93.24,1.13.9,1.58,1.72,1.17,5.23,2.39,7.37,3.72,18.91,11.72,33.38,33.12,37.21,55.07,10.23-.29,20.27,2.03,29.09,7.22,1.18-.03,3.79-3.01,3.03-3.87ZM569.55,202.92c-6.96,2.81-15.5,2.84-22.86,1.53-1.5-.27-9.35-3.02-9.82-2.61-16.96,53.63-79.72,79.49-126.91,43.99-1.21-.91-6.01-5.67-6.43-5.77-1.18-.27-1.78,1.96-1.66,2.85,1.89,2.44,4.4,4.53,6.06,7.17,2.06,3.29,2.72,5.7,5.33,9.08,29.12,37.85,82.47,49.87,123.77,24.01,27.36-17.13,35.61-49.62,32.53-80.25ZM398.74,234.89c0-9.63-7.81-17.43-17.44-17.43s-17.44,7.8-17.44,17.43,7.81,17.43,17.44,17.43,17.44-7.8,17.44-17.43ZM370,281.06v11.36c0,1.36-1.92,7.51-2.68,8.96-.22.42-2.11,3.8-2.86,2.95,4.94-17.15,2.41-34.88-5.63-50.62-4.81-9.42-13.2-20.17-21.53-26.69-1.55-1.21-12.12-8.66-13.31-7.47.67,2.76,2.06,5.37,2.64,8.16.33,1.58-.15,3.29.25,4.74.31,1.1,6.5,7.84,7.93,10.91,4.67,10.01,6.5,30.05-4.89,36.15-10.75,5.76-21.62-5-25.4-14.45-1.31-.82-7.9,3.45-9.72,4.28-9.38,4.27-19.1,7.57-29.03,10.32-1.3,1.13.18,2.3.42,3.49,3.58,18.14-15.95,30.15-32.22,28.32-1.1-.12-9.76-2.98-9.76-2.43,9.8,21.88,29.78,34.96,51.55,43.22-.73,1.08-1.25.83-2.34.71-4.95-.57-10.56-3.57-15.21-5.32l-.71.16c-10.21,10.45-16.76,24.15-22.51,37.45,5.36,2.08,11.69,2.77,16.2,6.83,3.12,2.8,1.74,5.35,6.95,4.08,6.22-1.52,12.32-4.3,18.22-6.73l12.6-22.3-2.66-4.61c1.67-.57,3.07,2.17,4.16,2.08.98-.08,4.66-5.59,6.72-5.82,6.33-.69,3.24,12.74,5.77,15.07,1.92,1.76,12.55,6.15,15.52,7.21,5.14,1.83,10.43,3.05,15.77,4.17l.62-1.14c-5.72-13.36-2.65-30.77,3.45-43.56.7-1.47,5.63-9.9,6.47-10.17.26-.08,1.39-.18,1.39.29-6.61,12.95-12.15,26.55-11.11,41.58.14,1.97,2.21,13.53,4.7,12.98,1.3-.29,8.11-9.13,13.19-10.15,6.14-1.22,10.75,8.42,12.89,12.93,14.01-12.06,22.02-35.65,18.97-53.85-1-5.97-3.41-10.91-5.38-16.51.83-.89,3.19,2.8,3.56,3.37,6.62,10.26,6.46,23.9,3.94,35.44-1.08,4.96-3.18,9.59-4.73,14.39,18.98-13.93,21.29-43.65,13.71-64.42-4.24-11.62-12.8-23.6-25.91-25.35ZM272.28,226.33c-14.46,2.83-33.89,22.4-37.73,36.53-.3,1.1-1.62,7-.94,7.4,6.11-.42,11.14-1.99,17.33-.7,5.27,1.1,8.26,3.75,12.34,6.86,9.24-4.64,20.06-11.28,25.45-20.36,3.19-5.36,3.23-8.01,1.3-13.95s-10.55-17.21-17.75-15.8ZM314.98,232.42c-20.19,3.18-9.55,50,11.94,45.2,5.79-1.29,8.57-11.1,8.73-16.21.35-10.65-7.19-31.12-20.68-28.99ZM403.65,260.71c-3.71-2.87-12.07.09-13.02,4.68-2.05,9.96,10.96,11.28,15.63,4.55,4.18-6.03,1.14-14.91-3.01-20.19-.41-.52-5.09-5.51-4.98-2.77.01.33,3.67,4.1,4.33,5.08,3.33,4.94,7.35,13.37,1.62,18.06-8.26,6.75-16.31-2.79-9.81-7.59,3.37-2.49,6.32-1.29,9.94-.32.07-.05-.58-1.4-.71-1.5ZM396.1,265.59c-1.47,4.08,5.67,2.95,6.04,1.32-.66-2.78-4.02-2.09-6.04-1.32ZM412.68,266.93c.19,2.83,0,5.98,0,8.87,0,.26-1.53,4.16-1.83,4.82-1.11,2.51-2.97,4.22-3.75,6.76,3.57,3.13,6.51,6.91,9.25,10.79,1.05,1.49,2.26,4.51,3.28,5.59.3.32,7.4,3.74,7.86,3.82.67.1,1.12.19,1.56-.45.19-7.58,2.93-14.33,7.38-20.34l-23.49-21.23c-1.82-.07-.29,1.07-.27,1.38ZM402.15,284.93c.9,1.01,5.14-5.06,5.49-5.87.67-1.55,1-3.74,1.22-5.44.05-.39.8-2.03-.34-1.98-.85.04-1.73,5.95-2.27,7.14-.74,1.65-2.32,2.94-3.4,4.32-.41.52-1.09.33-.7,1.82ZM223.96,279.71c-3.45,3.28-6.24,8.22-5.72,13.11,2.76,26.18,48.6,16.25,45.28-7.56-2.41-17.29-29.4-15.2-39.56-5.56ZM376.1,381.91c13.8-3.23,27.23-12.48,36.32-23.3.51-1.17-2.11-7.09-2.46-9.15-1.64-9.65-.6-24.33,2.21-33.73.56-1.89,3.81-8.62,3.81-9.45,0-2.14-6.54-10.79-8.29-12.73-7.16-7.93-19.87-15.1-30.74-15.28-1.14-.02-1.63-.32-1.4,1.12,1.04.23,2.22.5,3.15,1.02,29.16,16.17,32.35,69.28,8.23,90.99-3.79,3.41-9.5,5.11-10.82,10.51ZM441.5,315.42c1.38-8.35,7.5-14.63,12.2-21.32-.14-.63-10.78-5.8-11.42-5.84-2.56-.15-5.87,6.5-6.75,8.73-1.93,4.93-2.19,9.15-1.68,14.44,1.54.3,6.46,5.16,7.64,3.99ZM554.59,313.2c-11.13-3.28-19.64-12.09-25.87-21.56l-15.14,5.24c5.91,12.53,19.74,20.18,33.55,19.11,2.31-.18,6.28-.6,7.46-2.78ZM418.59,308.84c-2.54.83-5.69,17.63-5.91,20.72-.38,5.25-.46,22.39,2.5,26.3,2.68,3.54,16.37,1.93,21.04,2.24,4.11.27,16.38,3.48,19.12,1.37,1.64-1.26,1.31-6.19,1.14-8.32-1.39-16.74-19.31-36.97-35.09-41.94-.95-.3-1.74-.71-2.8-.36ZM598.61,385.56c-24.32-28.07-64.14-39.45-99.64-27.52-3.84,11.57-19.22,27.77-31.21,30.46-1.5.34-4.74.01-5.2.3-.7.44-5,9-5.63,10.46-3.34,7.68-5.21,15.6-6.02,23.93.17,2.57,7.85.76,8.36,4.46.42,3.07-5.51,7.52-7.27,9.93,1.78,13,8.57,25.22,17.75,34.43,2.57.28,4.87-.77,7.49-.92,8.08-.45,13.21,2.32,18.32,8.33,6.47-7.03,16.62-8.27,25.05-3.97,7.91,4.03,11.1,12.26,12.65,20.6.99,1.68,8.71,1.9,10.72,1.58,4.44-12.55,18.7-18.95,30.31-11.12,3.45-4.96,5.11-9.54,12.13-6.46,2.62,1.15,5.27,4.42,7.01,5.22,2.22,1.02,7.36-5.45,8.83-7.24,23.31-28.35,19.68-65.57-3.63-92.48ZM478.53,355.47c-4.1.09-9.38.06-11.64,3.89s-4.77,21.69-2.35,25.29c1.55,2.3,6.89-.91,8.93-2.09,6.33-3.64,17.31-14.02,20.41-20.61.91-1.94,2.24-3.8-.14-4.84-3.24-1.41-11.46-1.73-15.21-1.65ZM353.22,378.13c-2.22.47-10.84,7.53-11.43,9.72-.55,2.05,6.19,5.79,8.11,6.12,3.47.6,8.52-.06,11.42-2.17,2.29-1.67,1.48-2.56.63-4.89-1.08-2.95-5.24-9.53-8.73-8.78ZM227.06,399.02c7.67.36,15.26.07,22.83-1.13l.95-1.3c-.05-3.67-14.07-8.13-17.47-7.46-2.19.43-8.61,8.44-6.31,9.89ZM615.56,406.3c2.08,5.68,4,11.51,4.91,17.53.45,2.94.31,6,.6,8.82.09.84.06,1.38.86,1.9,2.39-4,7.32-11.57,6.26-16.22-.5-2.18-5.5-7.11-7.35-8.72-.8-.7-4.51-4.02-5.28-3.31ZM448.15,441.2c-.64-.12-1.07.07-1.64.3-3.5,1.4-11.59,7.78-15.82,10.23-16.74,9.67-34.68,17.25-52.95,23.56l-.45.98,2.94,18.7c.68.89.66.25,1.2.08,6.61-2.12,13.27-5.45,20.03-7.69,14.24-4.72,31.56-9.01,46.47-10.62,2.88-.31,15.09-.29,16.3-1.45.58-.42.57-.9.47-1.55-.19-1.2-6.23-8.36-7.49-10.3-4.29-6.65-7.67-14.43-9.08-22.24ZM581.59,482.31c-2.1.61-3.65,4.93-4.25,6.86-2.53,8.17-2.62,22.28-.06,30.48.41,1.31,4.04,10.63,4.44,11.08,3.18,3.61,12.73.25,16.07-2.28,12.59-9.57,5.64-27.18-2.75-37.08-2.26-2.67-9.88-10.11-13.44-9.06ZM455.5,554.67c2.51,2.24,10.9-2.79,13.34-4.4,11.54-7.61,27.13-24.37,20.01-39.19-2.68-5.58-9.97-10.64-16.13-7.37-4.16,2.21-11.36,17.03-13.18,21.74-3.38,8.73-6.79,20.06-4.04,29.22ZM450.37,542.61c1.98-12.59,6.74-24.74,13.78-35.32.38-1.55-2.08-2.87-2.98-4.02l-17.38,33.09c-.22,1.44,3.86,4.77,5.19,5.7.47.33.55.77,1.39.54ZM253.16,511.16c-1.76,3.73-2.74,18.96,2.39,19.82,11.94,1.99,12.66-25.34-2.39-19.82ZM402.14,544.27l2.78-3.61-.81-1.3-4.18.48c-.37.83.86,5.42,2.21,4.43ZM376.65,568.11c.5.43,7.73-2.7,7.76-4.13.02-.9-7.75-11.88-8.97-13.22-.49-.54-.5-1.19-1.56-.93-.13,6.22,1.52,12.27,2.77,18.29Z"/>
  <path d="M553.48,575.31h-3.88c1.16-2.29.19-4.94.68-7.36.33-1.61,2.15-4.46,2.8-6.62,1.7-5.66,2.9-23.42-1.53-27.6-3.02-2.85-19.76-5.19-20.76-1.86,3.4,9.95,3.96,20.68.91,30.8-.93,3.07-3.48,6.81-2.95,10.16.18,1.12,4.29,2.33,5.33,2.47h-7.76l-1.1-6.38c-11.76-5.2-27.95-11.09-17.64-26.49,7.47-11.15,25.61-17.84,38.58-14.39,12.25,3.27,32.87,21.92,20.02,34.18-2.29,2.18-12.04,6.91-12.42,7.53-.75,1.23-.04,4.04-.27,5.55ZM527.37,532.68c-7.69,1.03-22.21,12.52-19.64,21.04,1.4,4.65,14.59,11.74,19.62,11.53,4.24-9.97,3.93-22.55.03-32.57ZM555.7,564.78c3.43-.7,10.51-5.83,11.05-9.17,1.16-7.14-4.1-12.66-8.57-17.42-1.26-.23-.76.55-.82,1.37-.31,4.02.85,8.8.55,13.3-.27,4.06-1.58,7.94-2.21,11.92Z"/>
  <path d="M251.58,33.56c5.8-6.5,2.42-10.65,4.79-17.09,2.53-6.87,10.31.99,14.38,2.78,7.6,3.35,11.75-.7,18.62-.88,8.14-.21.69,13.57,1.39,18.55.59,4.2,8.07,12.51,7.08,15.98-1.07,3.72-13.17,2.71-16.93,4.16-4.07,1.57-10.2,11.03-12.77,11.66-4.33,1.06-6.67-8.28-8.34-11.36-3.72-6.88-8.44-6.37-14.46-9.93-1.92-1.14-3.29-1.74-2.84-4.34.29-1.64,7.34-7.56,9.08-9.52ZM272.2,61.38c1.44-1.51,2.69-3.47,4.39-4.76,5.03-3.8,11.32-2.81,17.18-3.89.58-.11,1.18-.24,1.37-.88.38-1.29-6.82-11.71-7.16-15.53s2.62-10.11,2.68-14.3c-.35-.86-1.04-.9-1.84-.9-3.07,0-7.76,1.93-11.19,2.17-6.94.49-11.58-4.58-17.61-7.09-1.77.4-2.11,11.13-2.69,13.4-1.27,4.98-7.77,9.53-11.54,12.85-.46.44-.67,1.01-.49,1.63.4,1.35,9.95,4.76,11.79,5.98,5.67,3.75,6.12,10.95,10.09,15.98.84.21,4.17-3.79,5.01-4.66Z"/>
  <path d="M410.84,407.02c-2.54-2.17-10.45-2.04-10.81-5.01-.45-3.7,4.88-6.26,5.73-9.56s-2.03-12.11,3.17-11.54c3.21.35,5.51,2.87,9.57,2.69,2.57-.11,8.23-3.15,9.68-2.55,3.47,1.44,1.03,8.46,1.94,11.95.62,2.38,6.56,7.37,5.59,9.39-2.48,3.41-7.82,2.38-10.82,4.75-2,1.58-4.69,7.82-6.98,8.04-3.05.3-5.12-6.5-7.07-8.17ZM427.08,384.13c-3.19.29-5.84,2.25-9.13,2.26-3.68,0-6.07-2.54-9.7-2.26,2.1,7.21-.86,11.87-5.53,16.9,4.48,2.38,7.85,1.55,11.3,5.87.95,1.19,2.61,5.58,4.22,4.7,1.03-.57,3.17-4.98,4.78-6.32,2.97-2.47,6.95-1.71,9.51-4.23-1.46-2.41-4.34-4.85-5.06-7.59-.88-3.38.21-6.11-.39-9.31Z"/>
  <path d="M445.77,33.44c4.11-1.27,5.82,7,9.06,9.03,1.78,1.12,8.79,2.33,9.33,4,1.16,3.53-4.82,6.35-5.77,9.58-.8,2.69.88,10.62-2.31,11.58-2.56.76-7.33-3.11-10.47-3.19s-8.07,3.22-10.76,1.89c-2.51-1.24-.32-8.05-.66-10.38-.46-3.2-6.28-7.46-5.35-10.56.78-2.6,7.83-2.59,10.1-3.79,2.49-1.31,5.11-7.62,6.83-8.16ZM455.36,64.11v-8.31c0-1.26,4.99-6.43,6.09-7.76-2.6-2.23-6.51-1.98-9.14-4.15-1.8-1.48-3.84-6.65-5.04-7.16-1.52-.65-3.69,4.15-4.85,5.29-3.27,3.21-6.35,2.37-9.64,3.93-.6.28-.78,0-.73.98.09,1.85,3.48,4.55,4.31,6.81,1.19,3.25-.29,6.7.17,10.09.52.54,7.38-2.3,9.12-2.24,2.57.08,6.02,2.44,8.57,3.13l1.15-.61Z"/>
  <path d="M622.61,340.46c5.42-1.25,3.53,4.77,5.02,8.05,1.12,2.48,6.32,4.75,6.11,6.99-1.03,3.17-5.64,3.45-7.66,5.61-1.54,1.65-2.38,6.49-3.86,7.23-2.89,1.44-6.23-4.51-8.46-5.41s-4.39-.02-6.54-.67c-5.17-1.57.59-6.92,1.04-9.59s-3.04-7.51-.21-9.61c1.43-1.06,5.88.91,8.29.59s4.46-2.78,6.26-3.19ZM623.87,343.12c-2.51.2-4.6,3.04-6.98,3.31-2.34.27-4.57-1.38-6.84-.51-.5,2.12,1.12,4.35,1.04,6.3-.12,2.8-2.96,4.77-2.74,7.52,2.06.32,5.22.22,7.07.97,1.47.6,4.32,4.82,5.39,4.57,2.25-4.57,3.81-7.9,9.09-9.49.22-2.88-3.16-3.14-4.48-5.65-1.11-2.1-1.05-4.75-1.56-7.04Z"/>
  <path d="M330.64,511.03c.32,2.41-2.29,3.08-3.51,4.56-1.13,10.63-4.52,23.44-11.22,31.96-16.84,21.4-28.22-14.26-31.46-26.64-.49-1.89-.45-4.97-1.22-6.54-.88-1.77-4.62-2.29-4.13-5.01,2.53-.27,4.2,1.86,6.78,1.56,4.79-.55,11.61-6.23,16.22-6.03s13.15,7.67,18.45,8.25c3.23.35,7.01-1.48,10.1-2.11ZM323.99,516.58c-3.23-.54-5.76-.81-8.86-1.96-4.25-1.58-10.92-7.22-15.1-6.22-7.32,1.75-11.94,10.64-10.82,17.73.73,4.65,6.8,18.14,10.1,21.49,4.93,5,8.98,3.7,13.33-1.12,6.86-7.62,9.6-20.07,11.36-29.92Z"/>
  <path d="M355.25,493.48c0,6.34-5.14,11.49-11.49,11.49s-11.49-5.14-11.49-11.49,5.14-11.49,11.49-11.49,11.49,5.14,11.49,11.49ZM347.1,488.93c0-2.19-1.78-3.97-3.97-3.97s-3.97,1.78-3.97,3.97,1.78,3.97,3.97,3.97,3.97-1.78,3.97-3.97Z"/>
  <path d="M287.83,489.67c0,6.23-5.05,11.28-11.28,11.28s-11.28-5.05-11.28-11.28,5.05-11.28,11.28-11.28,11.28,5.05,11.28,11.28ZM282.36,485.54c0-2.11-1.71-3.83-3.83-3.83s-3.83,1.71-3.83,3.83,1.71,3.83,3.83,3.83,3.83-1.71,3.83-3.83Z"/>
  <path d="M372.49,527.12c0,7.57-6.14,13.71-13.72,13.71s-13.72-6.14-13.72-13.71,6.14-13.71,13.72-13.71,13.72,6.14,13.72,13.71ZM369.28,527.12c0-5.8-4.71-10.51-10.51-10.51s-10.51,4.7-10.51,10.51,4.71,10.51,10.51,10.51,10.51-4.7,10.51-10.51Z"/>
  <path d="M299.99,496.18c1.69-.47,6.29-.17,5.64,2.27-.68,1.15-2.58,2.88-3.98,2.52-1.24-.32-4.58-3.98-1.66-4.79Z"/>
  <path d="M528.34,383.21c12.17,10.93-7.11,39.41-20.51,29.64-14.08-10.27,7.88-40.98,20.51-29.64ZM522.86,383.68c-6.2.91-7.86,11.78-.6,11.9,6.52.1,8.52-13.07.6-11.9Z"/>
  <path d="M607.49,448.1c-7.37,6.99-12.83-2.18-13.55-9.39-.66-6.59,1.86-17.89,8.49-20.87,6.06-2.73,10.32,3.79,10.91,9.23.79,7.31-.36,15.82-5.85,21.03ZM602.37,430.56c5.18,2.99,8.98-9.81,2.28-11.44-3.17,1.46-4.53,4.42-3.94,7.82.11.62,1.32,3.42,1.65,3.61Z"/>
  <path d="M548.7,431.02c-16.89-15.04-7.57-35.59,15.03-33.58,14.57,1.3,33.55,17.14,25.09,32.82-7.41,13.71-30.05,9.72-40.11.76ZM581.99,409.92c-8.27-8.91-28.51-14.74-36.52-3.04-11.59,16.92,22.09,38.73,37.75,25.26,7.12-6.13,4.4-16.16-1.23-22.23Z"/>
  <path d="M530.2,455.61c-.14-1.24.31-2.13,1.15-3,3.31-3.45,19.01-11.36,23.77-12.26,2.89-.55,5.17-.7,7.24,1.68,2.24,2.57,8.97,17.86,6.1,19.96-.72.52-.91.31-1.37-.3-1.1-1.43-2.88-9.27-4.08-11.99-3.14-7.12-3.56-7.5-11.17-4.88-7.71,2.65-14.07,8.17-21.62,10.79Z"/>
  <path d="M609.96,458.33c-.63.92-4.15,1.02-4.18-1.33-.04-3.8,5.92-1.21,4.18,1.33Z"/>
  <circle cx="593.48" cy="450.26" r="2.06"/>
  <circle cx="503.59" cy="433.75" r="2.03"/>
  <circle cx="516.77" cy="421.54" r="2"/>
  <circle cx="498.69" cy="415.82" r="2.02"/>
  <circle cx="595.61" cy="467.07" r="1.99"/>
  <path d="M322.18,291.17c1.69,1.72,4.25,14.48,4.51,17.39,1.36,15.39.44,36.45-19.63,36.79-16.46.28-34.14-8.99-44.89-21.06-1.18-1.32-3.35-5.14-4.16-5.81s-7.22-1.55-3.21-2.67c5.9-1.64,12.63-2.29,18.76-3.99,11.88-3.28,25.5-8.85,36.4-14.6,3.1-1.64,7.52-5.24,10.33-6.33.69-.27,1.37-.26,1.9.28ZM261.9,317.64c-1.05,1.22,5.9,8.53,7.2,9.7,3.77,3.41,8.25,5.83,12.48,8.57,1.58-1.31,1.28-3.5,1.91-5.28,5.03-14.07,17.05-23.85,31.5-27.25,1.42-.33,6.22-.57,6.81-.95,1.35-.89-.93-7.6-2.43-7.45-.58.06-7.23,4.46-8.67,5.22-15.31,8-31.86,13.92-48.79,17.45ZM321.11,305.56c-10.82.33-23.49,7.66-29.74,16.32-3.13,4.33-6.25,10.23-5.38,15.72,12.64,4.74,31.08,10.1,36.29-6.98,2.25-7.38,2.61-17.42.35-24.69-.48-.52-.94-.39-1.53-.37Z"/>
  <path d="M557.79,138.8c2.4-.01,10.35,1.53,11.13,4.1,1.38,4.56-3.78.64-5.15.15-4.33-1.55-8.79-1.27-13.05.32-1.7.64-7.06,5.27-7.77,2.19-.31-1.32,4.53-4.28,5.71-4.8,2.36-1.03,6.59-1.94,9.13-1.96Z"/>
  <path d="M474.56,118.37c1.59,1.09,3.55,4.74.48,4.78-1.23.02-5.45-5.73-3.31-6.12,1.04.24,1.96.74,2.83,1.34Z"/>
  <path d="M246.93,292.69c-2.86,2-4.43-9.37-4.2-10.83.17-1.08,1.95-1.99,2.81-.8.67.93,2.17,11.08,1.39,11.63Z"/>
  <path d="M227.27,284.94c.59-.13,1.43.64,1.64,1.11.27.59,1.41,8.2,1.42,9.16.01,2.02-1.6,2.74-2.75,1.03-.94-1.39-2.57-10.8-.31-11.31Z"/>
  <path d="M324.88,236.95c6.38,4.81,13.07,22.18,4.48,27.04-9.34,5.29-18.08-11.41-18.17-19.23-.11-8.54,6.34-13.35,13.69-7.81ZM323.92,248.84c2.17-1.37-1-11.08-4.92-9.08-3.48,1.77,1.49,11.24,4.92,9.08Z"/>
</svg>