<?xml version="1.0" encoding="UTF-8"?>
<svg id="katman_1" data-name="katman 1" xmlns="http://www.w3.org/2000/svg" viewBox="0 0 841.89 595.28">
  <path d="M229.44,288.11c.83,8.19,6.26,19.08,11.85,25.1,3.41,3.67,8.05,6.09,11.31,9.92-22.55-9.38-33.46-32.89-24.54-56.25,1.58-4.14,5.42-8.71,6.51-12.24,4.17-13.56,4.06-25.47,10.93-39.26,1.13-2.27,5.46-8.09,5.86-9.59,1.44-5.46,1.32-16.32,2.43-22.94,9.18-54.96,47.06-105.51,93.72-134.63,11.43-7.14,24.15-13.74,36.91-17.97-3.35,40.86-21.7,81.43-46.65,113.58-3.95,5.08-8.74,9.66-12.37,14.93l18.48-1.7c6.77.52,13.53.78,20.25,1.87,13.79,2.25,26.87,7.5,39.32,13.59,9.18-4.37,18.16-9.2,27.48-13.3,52.27-22.96,108.92-32.4,165.4-20.14,1.95.42,17.54,4.13,17.54,5.07-38.82,47.19-95.78,76.57-156.92,81.35-4.08.32-8.92-.23-12.91.26-.54.07-.75-.09-1.15.58,5.8,14.8,7.86,31.58,7.2,47.45-.1,2.48-1.75,8.94-.85,10.74,39.36,26.9,70.22,64.57,90.2,107.81.93.77,5.65,1.54,6.87,1.41.81-.09.97.24.83-.84-3.56-4.67-7.39-9.31-10.6-14.22-.49-.76-1.88-2.26-1.3-3.17l38.38-17.63-34.2,18.48c6.18,7.49,13.19,14.41,17.65,23.16l-14.89-.83,1.64,4.14,25.38,3.57c.44-.39-1.09-2.21-1.43-2.7-3.3-4.65-7.47-8.81-10.92-13.35-.44-.58-1.79-1.96-1.18-2.72l52.65-22.09-26.98-54.55,38.52,58.87c.29.73.01,1.03-.46,1.53-.59.61-5.68,2.87-6.98,3.51-12.37,6.12-25.59,10.53-37.67,17.23-.32.46.5,1.64.83,2.12,2.88,4.31,7.05,8.57,10.06,13.1,2.86,4.29,5.32,8.91,7.83,13.4l-44.13-2.75c3.73,19.86,2.92,38.45-3.29,57.66-.64,2-3.26,6.79-3.34,8.3-.06,1.18,2.44,5.57,2.72,7.72,2.2,16.73-12.18,39.85-22.34,52.58-5.28,6.61-11.9,12.16-16.5,19.35l-2.2-8.27c-4.38,2.14-5.51,4.98-7.87,8.66-.35.54.06.98-1.23.71l-2.21-11.58c-1.06-1.15-3.85,5.4-4.95,5.51-3.22-7.76-4.55-15.54-3.86-23.98.41-4.93,2.49-9.28,3.28-14.05-10.52-1.99-20-7.07-28.96-12.69l-21.39,2.85-.83.83c-4.24,19.15-21.34,34.83-38.89,42.19-5.43,2.28-12.28,3.25-16.67,7.07-.79.69-.73,2.53-1.92,1.37,1.71-4.26-.68-5.96-4.76-6.29-4.37-.36-2.58,2.36-5.16,4.37v-11.31c0-1.72,2.05-6.87,2.92-8.67l5.35-8.15c-21.46,3.56-43.49-6.71-53.94-25.76-6.76-12.31-7.39-25.43-4.06-38.92-4.8-7.72-17.43-14.67-13.15-25.22-4.14-.58-7.46-3.34-5.52-7.72l-8.01,7.15c-38.96,31.86-98.32,10.7-107.34-38.52-6.98-.83-9.95-3.44-9.27-10.8.09-.98,1.1-1.93.97-2.69s-2.42-3.85-2.91-5.35c-1.14-3.48-1.21-6.63.5-9.95.74-1.42,2.69-2.76,2.95-3.66.42-1.43-.08-3.27.15-4.82.73-4.93,7.81-8.32,12.1-5.55-4.89,1.04-9.79,4.41-6.53,9.85.51.85,2.31,2.03,2.13,2.83-1.13,1.23-2.89,1.45-4.15,2.49-5.27,4.35,1.73,12.7,2.48,12.14,1.09-12.88,4.64-24.55,12.02-35.15,22.58-32.43,69.85-38.92,98.3-10.36-.59.93-1.21-.23-1.64-.56-1.84-1.41-6.52-5.82-8.56-5.84-1.15-.01-3.14,4.76-3.95,5.84,2.49,3.5,5.24,6.88,7.44,10.59,1.7,2.87,4.2,9.55,6.15,11.5,2.23,2.22,6.68,4.27,9.4,6.59,2.96,2.52,5.37,5.7,7.99,8.54.67-.85,2.35-1.73,2.36-2.9.01-1.89-2.23-7.09-2.93-9.21-.18-.54-.75-1.78.28-1.66,6.64,15.37,8.48,32.12,2.21,47.98l10.81,1.08c.5.08.73-.21,1.05-.51,1.09-1.03,4.46-7.54,5.9-9.56,14.53-20.54,34.44-36.74,60.01-40.64.29,1.42-.3.97-1.07,1.38-5.44,2.92-11.71,4.94-17.29,8.1-18.79,10.65-33.83,26.84-46.16,44.3-6.08,1.16-12.09-1.1-18.15-.77-1.21,5.52,6.05,8.08,9.31,11.26.2,1.08-.17.68-.69.94-2.55,1.29-13.23,4.02-11.63,8.01.87,2.16,8.52,1.82,10.67,1.81.35,1.28-.3.92-.7,1.26-1.98,1.7-6.74,4.21-5.1,7.56,2.39,4.87,13.61-3.19,16.83-4.41.73.81-3.61,8.26-.81,11.56,3.12,3.67,8.75-2.92,11.01-4.39s14.08-2.26,17.94-3.02c27.16-5.32,50.61-20.12,68.6-40.62.21-.24.6-2,1.43-1.03,1.71,2.01-13.7,18.65-15.99,20.69-16.99,15.14-36.85,23.66-59.37,26.67-2.85.38-6.98-.12-9.74.74-1.08.34-2.76,2.77-4.07,3.65-3.25,2.18-9.79,3.8-13.01,1.21-1.61-1.29-1.79-5.08-2.97-5.48-.66-.03-5.13.07-4.6,1.32,11.9,13.23,24.99,25.75,40.8,34.22,29.61,15.85,65.65,19.61,98.74,16.26.25-.96-.4-1.1-.82-1.66-8.55-11.17-15.25-17.91-16.3-33.35-.05-.73-.41-3.45.57-3.6,5.3,22.9,23.92,43.2,47.1,48.61,23.44,5.46,41.82-4.43,51.57-25.8,15.6-34.2,10.72-74.47-7.36-106.64-13.25,11.12-30.55,12.33-47.16,10.46-.23-1.26.07-.88.7-1.23,3.63-1.99,8.37-3.06,12.35-5.29,5.09-2.86,10.74-7.51,14.51-11.97,1.52-1.8,7.07-9.44,7.52-11.29.14-.58.35-1.05-.04-1.62l-12.69-18.23c-.63-.01-1.82,6.08-2.22,7.15-4.89,13.15-23.53,25.94-37.5,25.94h-12.41l10.19-7.19c9.12-8.24,17.01-18.6,19.99-30.76,1.21-4.94,2.65-13.67,1.15-18.47-.57-1.84-4.5-3.72-5.39-5.63l-1.66-.29c-1.35,7.31-4.56,16.05-9.39,21.78-.41.48-2.7,3.1-3.3,2.49,2.84-10.01,2.81-20.07,0-30.06-.7-2.49-2.35-7.41-3.87-9.37-2.69-3.46-9.29-6.2-12.41-9.65l-7.71,16.56-5.25,7.71c10.37-27.64,15.67-59.12,3.2-87.04l-29.12-6.72c20.98,1.4,42.17,1.97,63.08-.63,3.12-.39,11.28-1.21,13.71-2.28,1.53-.68,8.93-12.02,10.92-14.45,10.51-12.86,24.03-24.6,38.04-33.4.21-1.01-.27-1.09-.95-1.52-6.18-3.9-23.98-9.25-31.59-11.43-5.78-1.66-26.79-7.33-31.57-6.8-7.1.8-22.61,7.08-29.8,9.96-19.05,7.61-38.28,17.13-52.8,31.86,1.3-3.52,3.93-7.07,6.33-9.93.77-.92,5.3-4.67,4.69-5.5-14.14-6.83-28.64-11.75-44.4-13.24-36.55-3.46-77.08,12.52-98.12,43.08-7.82,11.36-11.53,23.63-14.96,36.89-1.18,4.56-1.8,12.15-3.3,16.01-1.24,3.21-8.04,7.53-7.46,12.67,20.95,3.1,35.28,30.16,19.03,46.88-.63-1.24,1.26-2.82,1.87-4.2,5.36-12.22-.28-28.24-10.78-35.97-1.03-.76-11.21-6.69-11.21-3.68,0,4.47-.44,10.05,0,14.34ZM255.92,200.13c.68.79,4.7-4.95,5.23-5.52,12.98-14.07,30.23-25.82,48.39-32.14,3.06-1.07,7.03-1.46,9.97-2.72,4.09-1.76,12.53-16.02,14.83-20.47,6.8-13.2,11.67-28.63,14.07-43.29.27-1.65,2.25-10.8.43-11.13-16.84,6.77-33.9,13.41-49.52,22.72-13.01,7.76-16.15,11.32-23.28,24.7-11.3,21.2-18.68,43.68-20.12,67.85ZM231.17,328.72c-.36.57-.23,3.55.46,4.08s9.65,2.19,11.88,3.01c2.75,1.01,6.98,4,9.4,4.39,3.68.59,10.88-.75,15.44-.54,2.28.11,6.93,1.38,8.77,1.14,1.99-.25,3.13-4.53,4.66-5.9.21-.7-.39-.89-.85-1.22-5.19-3.71-18.91-7.3-25.3-7.79-3.21-.25-23.13.76-24.46,2.82ZM228.19,334.84c-2.19.45-14.28,7.53-15.56,9.26-1.07,1.45-2.86,7.38-3.33,9.36-.62,2.63-2.43,12.22-.58,13.83l17.14,7.1,22.9-12.91c.49-.52.78-1.11.96-1.79.94-3.38,1.66-12.18,1.8-15.9.04-.92.09-1.44-.57-2.18-.39-.44-7.04-3.58-8.13-4-3.54-1.35-11.05-3.5-14.64-2.76ZM210.09,344.15c-.09-.13-2.7-1.16-3-1.15-.92.01-5.4,4.74-6.31,5.8-9.26,10.76-15.17,26.31-14.91,40.53,1.88-.32,6.84.67,8.02-.54.7-.72,4.02-8.92,5.13-10.87,1.67-2.93,5.83-7.62,6.84-10.26s.42-8.99,1.12-12.67c.3-1.57,3.52-10.29,3.12-10.84ZM227.38,375.67c-.65.85-.63,1.87-.71,2.87-.5,5.76-.66,18.73,0,24.32.09.8.06,1.45.91,1.84l22.56,12.71,24.28-13.75c-.21-7.98,1.21-17.91.3-25.68-.09-.8-.06-1.45-.91-1.84l-23.19-13.18-23.22,12.71ZM292.15,365.71c-.86.15-13.17,8.98-14.19,10.07-1.32,1.41-1.47,2.55-1.65,4.42-.68,7.31.31,16.06.31,23.45l15.52,11.5c5.29-3.08,10.88-7.34,14.81-12.03,2.89-3.45,3.31-4.44,3.6-9.08s-.31-9.05-.87-13.52c-4.61-6.25-10.42-11.52-17.53-14.8ZM210.14,436.75c-.84-3.89-2.51-7.49-3.16-11.46-.5-3.04-.25-10.36-1-12.23s-5.41-7.3-6.97-10.13c-1.17-2.13-4.36-10.63-5.13-11.42-1.18-1.21-6.14-.22-8.02-.54-.52,17.54,7.49,33.62,19.31,46.07l4.96-.28ZM183.66,391.53c-5.9,2.41-4.29,7.64.28,10.47.95-.64.71-.86.68-1.76-.09-2.77-1.08-5.88-.96-8.71ZM305.17,414.85c1.7-1.7,4.65-.3,6.03-3.07.36-.73,2.06-6.75,1.96-7.22-.11-.58-2.17-2.62-2.83-2.51-2.49,2.33-4.43,5.11-6.96,7.41s-9.44,6.22-10.75,8c-1.62,2.19-3.49,7.93-5.16,10.84-2.09,3.64-4.57,6.75-7.05,10.1-.72,2.27,2.21,4.36,2.6,6.56,1.35.96,6.96-3.57,8.22-4.61,2.59-2.15,13.55-13.4,13.79-16.04.11-1.23-.86-1.97-.99-2.85-.27-1.88-.3-5.18,1.13-6.62ZM225.45,405.95l-17.44,7.99c.05,5.08.52,10.28,1.74,15.21,2.01,8.12,4.07,8.84,11.05,12.67,1.49.81,7.77,4.2,8.89,4.24,2.19.08,9.31-2.24,11.76-3.08,1.64-.56,8.37-3.12,9.26-3.98,1.66-1.6.3-3.02.25-4.73-.15-5.07-.2-10.27-1.96-15.14l-23.55-13.18ZM230.56,447.81c-.21.3.55,3.32.84,3.81.98,1.68,11.4,3.16,13.77,3.33,12.22.83,26.32-1.87,36.6-8.53l-4.18-6.28c-3.98.03-8.65,1.03-12.54,1.05s-8.58-1.2-12.09-.95c-1.93.14-8.26,3.6-10.85,4.49-3.75,1.29-7.71,2.11-11.55,3.08ZM322.65,469.86l-1.1.27c-1.53,24.58,9.99,48.21,34.87,55.04,18.15,4.98,37.7.17,53.93-8.43.29,1.18-.65,1.23-1.25,1.78-3.69,3.34-10.53,7.22-15.14,9.13-3.42,1.41-8.16,2.17-11.18,3.71-3.22,1.64-10.56,11.91-7.44,15.71,3.52-3.73,7.43-7.26,12.23-9.27.5-.21,1.4-1.2,1.83-.37-3.72,3.17-8.1,5.99-10.58,10.38-1.71,3.03-.05,4.15,3.01,4.71,3.52-2.35,6.15-6.46,9.49-9.3.85-.72,2.74-2.6,3.6-1.92-3.67,3.28-6.65,6.95-9.37,11.04.04.5.96.32,1.38.28,14.04-1.42,35.25-21.18,43.19-32.38,1.26-1.78,5.12-7.06,5.6-8.74.3-1.04-.16-.72-.8-.81-5.91-.78-13.63.36-19.86,0-34.83-2.02-65.94-15.4-91.33-38.85-.74-.68-.99-1.88-1.07-1.95ZM541.59,488.64h-1.57c-6.91,18.45-23.25,30.7-42.79,33.05-1.49.18-4.63-.52-5.52.55-1.65,4.73-3.29,9.55-3.6,14.6-.25,3.95-.79,9.59,3.51,11.43.61.26.58.74,1.2-.1.85-4.41,2.52-8.15,6.06-11.04l-2.91,5.91c-1.76,5.35-1.04,9.47,5.54,8.29,3.96-.71,2.78-3,4.17-5.76.47-.93,4.29-6.54,4.79-6.79.88-.44.97.32.6,1.15-1.4,3.09-3.96,5.88-3.63,9.88,12.68-3.2,19.5-16.06,25.46-26.65,2.56-4.54,5.1-9.12,6.94-14.02,2.49-6.66,4.86-13.63,1.75-20.51Z"/>
  <path d="M583.01,309.34c.19-1.06,1.15-.91,1.9-1.12,21.75-6.26,56.25-5.65,78.9-3.83,2.84.23,18.52,2.6,19.59,1.93,13.62-22.59,22.59-47.66,29.51-73.09l9.09-40.82c-1.59,26.48-6.3,53.44-14.19,78.74-3.46,11.1-7.71,22.57-12.74,33.04-.81,1.69-5.99,12.16-6.7,12.6-1.68,1.03-7.07-.85-9.28-1.21-31.83-5.18-63.85-8.24-96.08-6.25Z"/>
  <path d="M381.9,253.77c0,11.39-9.23,20.62-20.62,20.62s-20.62-9.23-20.62-20.62,9.23-20.62,20.62-20.62,20.62,9.23,20.62,20.62ZM364.96,244.67c0-4.08-3.31-7.39-7.39-7.39s-7.39,3.31-7.39,7.39,3.31,7.39,7.39,7.39,7.39-3.31,7.39-7.39Z"/>
  <path d="M712.63,185.79l-25.93,4.12c-21.86,4.01-42.91,11.26-63.24,20.05-38.71,16.73-75.62,39.1-102.22,72.35,2.39-5.59,6.67-10.98,10.49-15.71,22.67-28.06,55.7-49.56,89.2-62.48,28.97-11.17,60.57-17.76,91.7-18.33Z"/>
  <path d="M261.29,231.15c20.28-3.43,25.21,27.5,7.69,35.27-22.77,10.1-24.22-32.47-7.69-35.27ZM274.56,241.69c0-3.71-3.01-6.72-6.72-6.72s-6.72,3.01-6.72,6.72,3.01,6.72,6.72,6.72,6.72-3.01,6.72-6.72Z"/>
  <path d="M301.7,267.43c-.75,2.36-3.63,2.76-5.2,5-9.52,13.56,14.92,20.97,24.53,15.71,2.22-1.21,2.54-2.8,4.38-4.16.7,5.03-7.55,7.2-8.72,9.21-.88,1.51-1.43,9.2-2.02,11.77-2.2,9.53-7.02,24.68-18.23,13.24-6.73-6.87-11.22-18.29-15.28-26.92-4.01-1.35-7.48-1.47-9.36-5.81-.48-1.1-2.31-5.65.1-5.34.84,11.69,19.82,8.92,21.38-.41,1.02-6.06-2.25-8.86-5.93-12.83,5.08-1.55,9.41-1.4,14.34.55ZM299.49,291.13c-1.41-2.04-6.26-3.65-8.28-1.93-1.56,1.33.22,6.09.01,8l3.35-4.09,4.92-1.98ZM312.73,293.34c-5.48-.2-13.26-2.24-17.68,1.9-7.05,6.61.78,22.1,9.11,24.04,5.07-.52,8.74-21.36,8.57-25.94Z"/>
  <path d="M423.25,303.46c0,15.25-12.36,27.61-27.61,27.61s-27.61-12.36-27.61-27.61,12.36-27.61,27.61-27.61,27.61,12.36,27.61,27.61ZM420.84,303.46c0-13.87-11.24-25.11-25.11-25.11s-25.11,11.24-25.11,25.11,11.24,25.11,25.11,25.11,25.11-11.24,25.11-25.11Z"/>
  <path d="M575.28,349.6c-1.08.25-1.31-.56-1.88-1.15-14.91-15.5-28.69-32.08-42.22-48.79l-7.74-10.73,51.84,60.67Z"/>
</svg>