<?xml version="1.0" encoding="UTF-8"?>
<svg id="katman_1" data-name="katman 1" xmlns="http://www.w3.org/2000/svg" viewBox="0 0 841.89 595.28">
  <path d="M260.69,403.76c18.77,2.54,29.33,21.8,45.78,27.72,3.02,1.09,23.7,5.05,24.79,4.01.24-7.08-6.56-8.71-9.6-14.18-2.69,2.38-8.29,8.31-11.85,6.9-5.87-2.32-3.51-11.2-5.46-15.91-5.41-1.74-18.73-.37-16.8-9.19.86-3.91,10.98-19.94,9.96-21.91-5.62-5-30.8-16.38-32.72-22.54-.74-2.37,2.21-6.83,3.41-9.22,1.95-3.89,17.68-28.6,16.78-30.07l-64.35-33.41c-2.3-2.01-3.36-2.79-2.92-6.16l24.18-39.34c-.11-2.12-13.78-1.1-16.3-1.21-12.31-.58-28.04-.95-39.98-2.61-5.8-.81-8.5-4.07-9.6-9.61-2.93-14.64-3.08-37.17-3.45-52.5-.54-22.21-1.22-49.21.88-71.02,1.12-11.64.33-19.73,14.54-17.9,10.2,1.32,27.76,7.75,38.04,11.24,31.6,10.73,62.28,25.32,91.5,41.3l1.23-.4c-12.76-11.11-25.29-22.66-35.89-35.94-3.68-4.6-13.64-17.04-13.44-22.51.12-3.29,2.59-5.47,5.68-6.09,16.03-3.23,45.2,3.18,61.19,7.74,22.51,6.43,45.17,16.1,66,26.71,2.71,1.38,11.47,7.34,13.58,6.99,17.96-10.07,38.57-15.33,59.06-16.58,1.1-1.07-10.13-17.37-11.53-19.78-6.77-11.67-14.98-26.42-19.39-39.08-6.76-19.42-4.23-24.14,16.72-18.39,40.82,11.21,82.99,44.75,108.07,78.18,2.93,3.9,6.34,11.12,9.24,14.15,2.58,2.7,11.79,6.61,15.75,9.3,22.38,15.17,36.53,38.95,38.19,66.21.61,9.93-.85,33.06-8.38,40.13-2.04,1.91-5.26,2.09-5.83,5.03-.47,2.42.22,5.67-.03,8.32-.39,4.17-1.97,11.22-1.72,15.03.21,3.3,3.66,7.72,4.88,11.06,7.31,19.95,1.42,40.85-14,54.95-1.96,1.79-11.3,7.83-11.57,9.3.96,3.16,3.24,6.45,3.22,9.91-.02,2.86-2.84,6.73-2.36,8.97.29,1.38,4.05,6.92,5.01,9.24,4.18,10.12,4.59,16.46,6.89,26.51,1.21,5.28,4.64,8.85,3.62,15.19-.41,2.54-2.5,4.59-2.31,7.3,4.89,1.37,7.05-1.9,10.62-3.15,10.59-3.71,23.17-4.09,30.64,5.74,10.15,13.35-2.12,30.69-7.85,43.35,10.94-5.86,46.34-22.85,54.99-8.64,6.94,11.4-9.74,29.08-17.81,36.23-17.27,15.31-37.66,22.3-60.57,24.21,14.47,11.31,16.86,41.47.29,51.65-7.44,4.57-27.19,6.82-35.6,4.94-8.96-2-13.54-9.12-17.86-16.42l-24.79,4.22c-3.02,4.81-2.95,10.8-6.54,16.01-8.2,11.9-35.09,16.36-47.78,11.3-11.93-4.76-16.44-16.62-18.57-28.38-8.66-2.45-18.12-2.82-26.22-7.01l26.72,3.77.02-10.44-55.98-9.61c.05-1.41-.56-1.78,1.06-1.48,3.63.67,6,.37,9.38.66,15.64,1.34,31.71,4.68,47.14,7.49,3.14-9.4,9.56-17.97,20.1-19.2l-1.43-1.49c-24.89-2.19-49.46-6.74-74.04-10.97l-1.25,1.31c.22,16.97-12.08,23.24-27.28,24.5-14.92,1.24-23.65-1.31-30.96-14.88-6.09,1.65-13.09,1.28-19.13,2.37-3.08.56-3.28,6.34-4.44,8.92-8.64,19.29-53.76,25.46-64.25,4.44-17.02-2.84-34.54-4.76-51.36-8.58-11.71-2.66-23.32-5.77-21.63-20.55-7.2-1.11-13.89-6.08-14.15-13.88-.07-2.1,1.04-5.45.78-6.54-.38-1.54-2.97-2.27-4.06-3.5-10.3-11.66-1.02-26.57,13.74-26.33,2.07.03,10.91,2.95,11.31,2.52-.96-12.98,7.34-22.53,18.36-27.98-11.87-13.51-24.81-37.67-12.88-54.65,7.73-11.01,25.18-12.37,35.71-4.92,12.52,8.85,12.66,28.18,3.07,39.11,4.34.41,9.57-.57,13.78,0ZM566.78,109.77c.67-.71-1.64-3.28-2.18-4.07-13.79-20.11-36.74-41.62-57.51-54.41-2.76-1.7-9-6.32-11.74-5.09-10.66,4.77-21.89,35.33-15,46.02,6.01-5.41,18.22-4.52,24.76-.52,3.01,1.84,3.72,4.31,6.51,6.02,18.69,2.03,37.7,5.07,55.17,12.05ZM444.85,142.34l-27.83-18.51c-23.38-12.28-47.31-24.9-72.79-32.44-3.88-1.15-9.19-3.2-13.05-2-1.73,2.41.55,16.79,1.32,20.42,2.81,13.29,15.33,39.07,26.75,46.75,11.42,7.68,51.36,17.37,65.25,17.46,1.98.01,3.6-.82,5.32-1.59,1.94,1.92-7.81,5.27-9.05,5.2l-.14,2.33-4.16-1.67,1.67,3.33-7.51-3.33,7.51,8.34c-1.33,1.21-10.78-9.66-13.36-7.93l7.51,7.93-8.34-5.84,2.08,5.84c-2.6-2.25-4.09-6.19-7.94-6.67l6.67,10.01-7.94-8.35c-3.55.09,1.67,2.96.01,4.17l-5.42-5.01,4.16,9.19c-2.07.02-4.17-7.4-5.84-5.84,2.2,5.83-1,12.16,0,18.36-1.42-.35-1.74-4.35-1.73-5.43.03-2.75,1.12-5.19.9-7.93-2.95,2.52-1.53,9.05-1.67,12.94-.09,2.53-2.33,5.93.48,7.9l52.89-14.24c2.75-30.7,2.48-68.66,26.81-90.95-15.08,2.18-29.96,7.99-40.91,18.78,2.63,1.37,20.67,16.34,18.36,18.79ZM323.4,228.02c14.47-15.11,27.33-32.71,42.1-47.68.92-1.28,2.39-2.75.93-4.21-43.16-27.32-88.19-52.46-136.41-69.93-11.69-4.23-26.17-9.34-38.22-11.89-2.97-.63-6.32-1.83-9.25-.89-1.13.82-2.36,14.98-2.48,17.56-1.51,31.22-1.24,71.7,1.71,102.75.28,2.91,1.01,10.99,1.82,13.21.4,1.11,1.27,1.53,2.3,1.88l66.74,4.66c1.26,2.12.6,3.01-.26,4.92-3.94,8.76-14.85,21.58-20.35,30.62-1.21,1.99-6.38,9.9-5.93,11.41l68.05,35.62c.85,1.16.05,2.05-.28,3.1-2.47,8.02-14.24,23.48-18.71,32.26-.86,1.7-3.07,4.76-2,6.42l26.91,15.77,2.42-2.33,6.63,2.44c1.59-4.32,2.09-.14,2.62-.01,2.27.56,4.95-1.43,5.76,1.69l3.31-1.71c.19-.09.94,4.08,2.72.22,1.1-2.38,1.58-6.71,2.69-9.37-4.45-1.94-9.23-4.54-13.28-7.21-1.39-.92-5.94-3.32-5.81-4.78l26.5-43.48-40.18-23.04c-2.73-2.68-.88-4.24.72-6.64,2.17-3.26,14.97-17.23,15.28-18.99.14-.77-1.98-3.31-2.47-4.84-2.37-7.45-.19-14.5,5.97-19.19,4.36-3.32,6.26-3.99,10.44-8.35ZM484.11,98.08h19.21c.67-1.68-2.58-3.03-3.72-3.37-4.34-1.32-13.8-1.96-15.49,3.37ZM548.33,143.93c-.82-21.26-12.34-36.87-33.83-39.91-11.21-1.59-26.08-2.24-36.64,1.62l-.83-1.72c-14.99,5.44-20.82,17.3-25.07,31.75-5.61,19.05-7.5,39.49-7.93,59.3,20.1-3.68,40.54-4.48,60.97-5.01-.19-24.25,7.89-40.77,33.09-45.01,3.23-.54,6.93.34,10.25-1.02ZM555.1,144.01c-2.47-15.82-8.32-31.12-24.21-37.58l7.93,7.51c7.61,8.55,10.73,18.77,12.22,29.96l4.06.11ZM624.23,182.24c.24-.48-1.67-9.04-2.08-10.48-10.62-37.46-47.12-56.74-82.92-63.65,11.87,8.94,17.02,22.13,18.53,36.58,15.22,2.59,38.94,8.26,45.94,23.8,4.53,10.05,3.58,26.56,1.57,37.24l18.31,8.44c.62-9.73,2.82-19.52.83-29.23l-1.65,7.51c.3-2.78-.42-6.17-.08-8.82.2-1.55,1.43-1.15,1.55-1.39ZM433.99,113.96c-2.11-.06-12.06,4.31-11.69,6.24.33,1.71,1.83,1.03,2.97.49,2.45-1.15,6.45-4.88,8.71-6.73ZM603.54,184.1c2.95-28.44-37.43-38.03-58.91-36.78-22.92,1.33-34.96,12.55-36.18,35.64-.09,1.74-.33,7.19,1.26,7.7l5.31.13c-.12-13.15.39-27.12,14-33.18,14.6-6.5,51.91-1.94,63.59,9.46,7.04,6.87.25,16.71,10.93,17.04ZM589.34,180.76c-2.22-7.88-9.99-12.29-17.1-15.05-13.14-5.1-33.55-8.2-45.82.16-4.06,2.76-4.57,4.14.79,4.78,6.56.78,13.26.93,19.83,1.89,14.18,2.07,28.41,4.84,42.29,8.23ZM373.86,214.17l8.24-3.03,2.48-36.56-2.85-2.11c-1.69-.36-.95.21-1.27,1.09-.54,1.48-1.03,3.73-1.37,5.34-2.41,11.65-3.35,23.55-5.23,35.27ZM519.18,191.63c25.13,1.73,50.1,6.45,74.79,11.35,3.25-.53,3.38-13.8,2.48-16.38-1.07-1.77-12.65-4.01-15.44-4.61-11.12-2.39-23.54-4.52-34.81-6.11-4.02-.57-22.32-3.3-24.53-2.21-3.04,1.51-2.44,14.52-2.5,17.96ZM371.35,184.95l-40.92,46.76c12.85-3.04,24.86-8.62,36.34-15.02l4.58-31.74ZM598.53,204.15l3.77-.82c1.32-4.17,3.08-15.61-1.7-17.55-1.89-.35-1.15.83-1.24,2.07-.4,5.39.3,10.9-.83,16.3ZM611.75,213.47c-5.34-2.32-10.69-4.38-16.39-5.74-37.57-8.93-87.53-14.66-125.86-11.1-23.93,2.23-48.35,9.03-71.2,16.08-6.56,15.33-8.95,34.49-7.72,51.14.34,4.59,1.29,14.13,5.25,16.47,10.32,6.09,29.27,11.04,41.24,16.39,6.72,3,16.29,9.32,21.98,11.43,5.06,1.87,13.07,1.74,19.03,3.52,4.79,1.43,10.59,4.28,14.94,6.77,8.46,4.86,30.97,18.93,34.97,26.84,3.24,6.41.94,13.19,10.62,10.68,4.99-1.29,9.84-10.71,13.14-14.41-2.16-.83-4.67-.24-6.99-.51-.88-.1-3.92-.32-3.85-1.56,25.94-3.57,55.15-9.35,70.14-33.01.18-3-3.23,2.5-3.75,2.94-12.4,10.57-20.7-6.9-20.52-17.96.2-12.42,10.24-28.62,24.28-27.14-4.34-7.67-.55-16.44,0-24.64.22-3.36,1.39-25.05.7-26.16ZM393.9,214.18c-2.07-1.88-42.29,17.91-47.33,20.73-4.27,2.4-15.45,8.62-17.69,12.38-3.99,6.7.39,12.59,3.21,18.67-7.82-5.32-10.44-15.89-3.32-22.96,1.81-1.8,4.52-2.42,5.83-4.6-11.27-.75-26.97,4.24-18.54,18.11,9.51,15.63,34.81,21.81,51.94,22.8v-2.5c-12.06-1.28-37.8-3.67-35.09-20.88l-1.65,1.66c.42-5.81,5.9-9.56,10.41-12.55,14.26-9.45,38.5-17.54,50.49-28.02.95-.83,2.06-1.29,1.73-2.85ZM379.71,257.61c-11.58-1.65-23.08-4.67-33.83-9.16-19.69,11.85-7.78,18.67,7.76,23.11,4.55,1.3,9.21,2.12,13.9,2.8,1.68-8.11,5.68-12.15,12.17-16.75ZM484.94,326.91c-16.76-7.65-31.77-18.58-48.71-26.03-11.44-5.04-46.94-15.02-52.72-24.11-4.41-6.93,5.67-7.99,2.87-14.99-9.89,3.47-15.03,12.5-10.35,22.47,5.08,10.82,25.54,17.3,36.24,20.97.13,1.59-2.64.75-3.54.61-5.78-.89-15.81-3.39-21.25-5.47-1.12-.43-4.03-1.5-4.43-2.66,2.47-.13,4.39,1.49,6.62,2.14.8.23,2.77,1.05,2.55-.47-5.24-1.9-10.59-4.39-14.61-8.35-5.67,5.19.74,12.85,5.68,16.02,10.47,6.71,23.54,2.98,35.23,4.02,25.68,2.29,36.68,20.38,57.05,25.63,10.43,2.69,36.64,5.07,43.21,12.74,2.61,3.05,4.19,7.74,4.56,11.72l-3.34-6.68c-1.69-.02-.68,3.35-.46,4.22,1.39,5.3,5.06,8.5,7.16,13.31,1.49.19.82-1.88.73-2.81-.84-8.63.21-17.57-5.31-24.76-4.44-5.8-30.33-23.7-37.46-26.85-1.42-.63-16.32-6.07-16.44-3.61l16.71,12.94ZM338.54,332.52c1.03-.75,11.79-17.22,14.85-20.65,2.57-2.88,13.26-11.75,14.21-13.35.93-1.56.11-4.11.61-6.07.39-1.5,2.87-3.11,2.27-5.12-.67-2.25-6.59-1.1-8.73-1.34-18.13-2.05-33.62-6.94-47.5-19.14l-13.04,15.4,39.45,23.15c1.84,3.92-.32,6.75-2.05,10.08-6.15,11.85-16.23,23.09-22.37,35.18l12.51,7.16c.16-1.94-1.62-3.25-2.09-4.99-1.7-6.21-.34-14.21,5.48-17.93,2.11-1.35,5.19-1.49,6.4-2.38ZM608.27,267.06c-15.45.32-22.51,25.32-15.3,37.44,8.42,14.13,20.74-5.26,22.55-14.44,1.16-5.88,1.35-23.18-7.25-23ZM373.86,303.55c-1.73-.19-2.96,1.1-4.19,2.07-7.62,5.96-27.3,28.13-27.59,37.63-.14,4.62,8.93,12.53,12.56,15.85,5.02,4.58,10.77,8.46,15.88,12.93-9.18-4.07-19.23-11.17-25.91-18.76-3.77-4.28-6.98-7.58-5.83-13.8-10.21,4.65-5.92,12.37.4,18.39,20.96,19.97,50.93,31.81,78.94,37.55-.41-1.41-3.08-2.16-4.34-2.74-10.44-4.77-21.76-7.99-32.39-12.29-.17-1.62,2.42-.48,3.21-.29,8,1.96,15.61,5.9,23.49,8.26.83.25,2.68,1.15,2.52-.43-3.92-1.42-5.87-5.34-9.43-7.69-5.38-3.54-13.06-5.45-18.95-8.2-.22-1.47,1.89-.82,2.72-.63,3.16.7,5.92,3.47,8.96,2.74l-13.36-9.6c4.87.79,9.25,5.92,14.19,5.42-9.88-8.35-18.55-18.39-24.2-30.09-.15-2.48.95-.63,1.53.14,4.86,6.47,8.7,14.11,15.15,19.5-1.47-9.32-7.06-16.68-10.84-25.06l8.33,10.02c1.37-11.97,7.32-21.92,15.88-30.05-9.79.59-18.24-.39-24.81-8.25l-5.25,2.39,3.33-5ZM483.29,363.67l1.31-1.72c-17.44-19.78-33.74-41.29-61.41-46.35-13.27-2.43-20.3-2.24-28.28,9.4-14.91,21.75-4.98,37.7,11.52,53.3,9.39,8.88,20.9,16.69,30.51,25.45,1.83.27.98-.29,1.26-1.22.89-2.94,1.19-5.96,3.3-8.43l4.61,1.31.02-1.69c-14.4-11.06-32.19-19.25-46.3-30.54-1.41-1.13-10.59-8.85-9.25-10.37,17.11,15.72,37.62,26.99,57.19,39.27,7.6-13.01,18.34-23.15,32.63-28.4l-1.28-4.19c1.86.77,4.05,1.85,4.18,4.18ZM587.67,334.44c-7.68,2.71-16.34,5.03-23.68,8.47-11.95,5.61-14.78,11.04-17.03,23.9-1.79,10.21-2.25,21.59-3.55,31.95h2.5c3.89-17.69.15-47.32,24.66-49.28l-2.54,2.49c-.78.57.45,1.42.96,1.56,9.1,2.53,19.36-10.51,18.67-19.09ZM510.83,347.81l-31.73-6.68c.83,10.99,12.58,18.25,18.79,26.71l16.27-17.94c-1.06-1.08-.83-1.59-2.09-.43-1.09,1-12.65,15.45-13.76,14.21-.37-1.57.87-1.99,1.66-2.93,1.17-1.39,12.1-11.75,10.86-12.94ZM591.01,341.13c-2.24-.47-1.43.59-2.07,1.65-1.31,2.18-2.44,4.53-3.77,6.69,4.06-.54,6.06-4.49,5.84-8.34ZM590.07,352.93c-5.29-3.79.78,6.91,1.09,7.67,1.43,3.49,2.67,7.07,4.03,10.58-2.17.41-1.48-.4-2.06-1.66-.96-2.09-5.97-15.83-7.55-15.86-2.69,2.9-7.99,3.43-7.09,8.34l5-2.09-5.84,5.85,7.51-1.68-8.34,4.61v1.65s6.67-1.26,6.67-1.26c-3.6,2.42-9.93,3.34-10.01,8.77,7.37-1.55,14.96-.78,21.7,2.51l-.41-6.68c2.27,3.67,1.34,7.46,6.26,9.18,1.05-1.39-4.81-18.4-6.06-21.07-.53-1.14-4.48-8.58-4.9-8.88ZM515.84,356.16c-1.45-.38-1.67.6-2.51,1.24-4.02,3.07-8.3,9.23-12.4,12.66,3.07,5.39,4.43,10.26,2.32,16.46,4.13,3.94,8.97,3.09,14.26,3.05l-.78-4.65-9.24-1.21c-.2-1.45,1.9-.79,2.91-.83,2.18-.08,4.37.08,6.54.03l1.39-2.14-6.63-1.7c-4.58-4.99-.57-10.73,5.8-8.73l-1.67-14.19ZM570,357.12l-3.21-.96,1.67,17.53c2.26,2.65,5.79-11.92,5.81-13.05.03-1.31-.17-2.48-1.63-2.81l-2.51,6.68-.14-7.38ZM543.4,356.99c-2.15.27-3.29,1.88-5.62,2.31s-4.75-.22-6.9.61c3.16,6.33,10.82,2.73,12.52-2.91ZM564.28,367.84c.17-3.16-3.45-12.24-6.68-8.77-6.64,7.13-7.22,31.58-9.18,41.34,1.14,1.18,9.93-5.77,8.34-2.1l-4.17,3.76c3.5.06,5.93.84,7.69-2.74,3.69-7.49,3.35-21.53,4.83-29.82-2.97,2.15-2.12,7.41-6.46,8.22-8.86,1.66-4.02-13.91-.48-14.83,2.88-.75,4.23,3.81,6.1,4.93ZM342.12,408.77v-13.78c0-1.37,2.26-8.62,2.93-10.43,1.06-2.84,3.18-7.19,5.41-9.2-2.63,11.51-8.86,22.97-5.83,35.09l2.49-.85c-1.76,3.16,7.93,5.46,8.35,5.01-.39-4.86.41-9.47,1.24-14.21.93-5.28,5.52-16.09,5.5-19.64s-8.98-7.6-12.01-9.73c-3.55-2.49-6.87-5.38-10.18-8.18-.83,0-3.47,6.3-4.19,7.52-.64,1.08.15,2.11-2.08,1.64l4.78-9.61-3.1-2.91c-3.9,8.99-10.72,35.32-4.21,43.03.85,1.01,10.33,6.87,10.88,6.24ZM530.88,363.67c.24,7.18,11.53,4.24,11.68-1.67-3.88,2.5-7.18,3.29-11.68,1.67ZM226.02,423.8c.76-3.94,1.61-8.04,4.19-11.27,4.54-5.7,10.01-4.31,14.87-11.85,16.46-25.54-11.45-48.27-30.76-32.43-16.54,13.56-1.14,44.3,11.7,55.56ZM498.32,383.71c3.76-2.3.8-7.84-1.64-10.47-.7-.75-7.11-6.41-7.57-6.62-3.64-1.66-9.34.69-12.81,2.19-11.45,4.94-25.1,19.18-28.98,31.16-1.2,3.7-3.41,9.84,1.31,11.3l2.07-2.49c-1.26,5.81,6.06,7.66,10.38,9.11,2.34-4.01,3.59-8.35,5.98-12.39,6.63-11.22,17.49-21.4,30.75-23.51l.51,1.72ZM557.6,367.83c1.66.14,3.07,1.08,2.5,2.93-.74,2.41-4.01-.46-4.99,1.68,4.79,7.82,9.15-5.07,5.4-6.25-1.27-.4-2.58.3-2.91,1.64ZM520.84,367.02l-1.67.42c1.99,12.32.92,25-1.65,37.15,2.83,2.68,5.31-7.38,5.63-8.98,1.76-8.73,2.57-20.96-2.31-28.6ZM540.9,369.52l-9.19.83c.21,10.17-.94,20.22-3.33,30.07,2.45-.94,7.48-1.17,8.58-3.52l3.94-27.37ZM516.67,377.03l-.13-3.62c-2.12-3.31-4.89-.52-3.95,2.7l4.08.91ZM604.36,402.92c3.83-21.59-23.07-28.64-37.57-17.95l8.91-1.97,1.11,1.54c-10.68.31-11.93,6.89-13.37,15.87,13.2-4.99,30.26-9.56,40.91,2.51ZM421.46,399.59c-19.07-4.44-37.77-10.04-55.45-18.45-5.66,10.48-7.86,22.82-8.07,34.63l25.06,7.17,3.32-8.68c-.63-2.44-6.85.16-5.73-7.52.27-1.85,4.92-12.51,6.35-12.92,10.27,1.92,21.37,5.38,31.72,6.49.92.1,3.01.75,2.81-.73ZM504.99,393.74c1.48-1.51-8.06-6.34-9.8-6.49-9.83-.86-28.26,19.55-28.61,28.73-.22,5.61,14.64,10,19.2,6.99l-3.34-7.5c1.12-1.17,7.79,8.05,12.01,4.96,4.44-3.26-3.37-13.54-2.82-14.15,3.21,1.33,5.82,5.03,6.71,8.32,8.29-.57,2.86-12.92-.87-16.66,4.21-.1,6,4.63,7.93,7.5,2.61-1.09-.6-9.54-2.91-10.45l2.5-1.24ZM515.84,403.76l1.33-11.73-8-.79c1.62,3.72-.71,7.68,1.24,11.74l5.44.78ZM442.34,407.1c.92-3.56,2.12-7.09,1.67-10.85-2.11.99-2.54,4.73-2.78,6.81-.1.9-.4,4.06,1.11,4.04ZM436.5,411.27l-8.51-6.1-38.86-7.94c-2.71-.11-4.15,8.93-5.18,11.05.82,3.27,31.94,8.12,36.87,9.06,3.93.75,13.18,4.04,16.13,4.01,2.8-.03,4.92-3.19,6.07-5.5-.05-.59-4.92-4.68-5.68-3.33,3.17,1.6.39,5.18-2.1,5.43-2.65.27-9.22-2.3-10.43-5l4.17-.85c1.32-1.72-16.56-5.06-18.37-4.99,3.96,4.41-1.56,7.75-5.45,4.18-1.65-4.4,1.34-4.01,4.61-4.6l-10.01-2.94c0-1.65,3.41-.76,4.37-.61,10.36,1.57,21.81,6.5,32.37,8.13ZM601.8,417.9c5.68-20.93-17.76-21.92-31.67-15.8-.48,1.92.37,1.37,1.05,1.9,4.85,3.77,9.01,6.46,10.73,13.03,3.14,2,4.83-6.78,3.25-9.09h1.66c.75.54,3.28,20.38,8.54,9.77,1.92-3.88.86-6.68,1.08-10.61,3.33,2.72,3.04,6.97,2.93,10.86l2.43-.06ZM325.43,402.09c-.87,5.63,1.61,7.05,5.58,9.87,11.24,7.99,28.73,13.68,42.01,17.29,6.51,1.77,21.28,6.02,27.29,6.2,3.39.1,3.67-1.01,5.27-3.71-.72-1.25-1.77-1-2.84-1.31-9.48-2.69-20.26-4.16-29.89-6.86-17-4.77-33.17-10.88-47.42-21.48ZM550.09,405.44c-25.44-9.39-41.46,29.82-44.83,49.11-2.24,12.84-2.51,32.78,11.01,39.4l-2.11-7.92,1.67-.43c1.54,3.5,2.64,10.18,7.53,9.18-8.28-13.18-5-27.66-.01-41.35,5.47-15.02,16.59-33.94,30.9-41.76,1.68-.92,8.21-2.91,8.37-3.33.69-1.81-1.94-1.3-2.95-1.28-18.42.47-32.86,27.29-38.61,42.41-3.44,9.04-6.24,18.88-6.05,28.61-2.82.19-2.62-2.51-2.56-4.6.68-23.3,17.83-55.42,37.64-68.05ZM513.33,407.11c-4.45-1.09-6.55,2.89-7.5,6.68,1-.2,8.69-5.68,7.5-6.68ZM307.87,436.34c-22.13-6.56-31.25-30.8-57.1-28.3-27.47,2.65-19.83,28.29-5.97,42.52,14.41,14.79,33.58,17.34,52.89,21.44,46.95,9.97,96.42,20.41,143.64,28.41,36.94,6.26,89.14,14.53,125.66,8.36,32.76-5.54,58.68-24.06,87.94-38.18,2.43-.19.71,1.01-.14,1.54-17.36,10.85-36.71,21.25-55.41,29.36-.2,1.5,1.82.76,2.71.62,13-2.07,26.55-7.85,38.51-13.28,8.99-4.08,41.78-19.66,47.3-25.36,4.41-4.56,8.08-14.37-1.23-15.46-18.05-2.11-63.84,28.13-82.82,36.65-57.75,25.91-119.04,13.77-179.19,3.2-43.36-7.63-89.94-16.25-132.8-25.89-19.43-4.37-38.41-8.2-49.47-26.53-10.72-17.77-1.54-26.06,17.46-24.15,16.38,1.65,26.95,21.68,45.31,25.69.84.18,2.93.84,2.72-.63ZM521.69,408.78c-2.58-2.43-11.67,9.57-11.68,12.52,1.97,1.93,12.69-11.57,11.68-12.52ZM640.29,411.29c-1.78-.17-3.69-1.32-5.44-1.29-8.56.14-18.99,21.28-22.27,28.27-1.54,3.27-11.92,27.78-10.71,28.96,7.29,1.18,9.12-11.25,11.81-17,6.48-13.88,12.76-28.33,25.52-37.09.74-.51,1.54.13,1.09-1.85ZM573.47,413.78c-9.33-8.21-23.97,3.3-30.49,10.86-11.17,12.95-29.3,49.61-18.65,65.44,6.16,9.15,21.18,3.45,27.4-3.23,6.04-6.47,25.69-48.24,26.66-56.86,2.01-17.94-13.17-15.86-23.29-7.43,3.78-.09,7.77-2.96,11.47-3.56,10.47-1.7,12,3.39,9.99,12.5-2.12,9.59-21.26,50.14-28.13,56.22-8.74,7.74-22.77,6.42-24.24-6.7-1.6-14.19,4.73-28.84,11.86-40.77,7.62-12.75,20.84-29.3,37.42-26.48ZM625.25,412.12c-1.94-1.5-9.35,5.85-10.41,7.54-2.94,4.7-1.76,14.73-9.45,15.69-2.98.37-4.37-1.79-6.86,2.23,11.61,8.01.6,24.63-11.7,18.78-.75,2.12-1.77,10.14-.06,11.33,2.87.35,9.89,1.34,11.8-.83,1.43-1.63,3.41-10.13,4.55-12.99,5.82-14.55,12.48-29.4,22.12-41.76ZM401.42,438.01c-18.73-3.53-39.06-8.02-56.52-15.73-6.15-2.72-11.76-6.45-17.81-9.33.22,9.5,9.39,12.64,16.97,16.02,10.87,4.85,39.85,14.3,51.13,14.9,4.59.25,5.18-1.71,6.23-5.86ZM286.17,442.17c-2.21-.66-4.94-3.04-6.69-4.57-8.1-7.1-15.31-16.14-23.39-23.38-26.47-1.28-12.68,21.18-.83,30.89,7.93,6.51,17.07,8.93,26.73,11.69l84.35,15.44-14.65-9.97-47.14-8.4c-.21-1.44,1.97-.88,2.9-.81,4.1.31,8.57,1.81,12.65,2.39,9.52,1.36,19.17,2.24,28.71,3.43-.72-1.68-2.09-2.69-3.78-3.31-7.09-2.63-17.7-1.66-24.62-5.45l21.71,2.08c-2.54-7.14-12.32-5.12-18.37-7.52-.2-1.46,1.89-.78,2.9-.83,2.83-.13,6.02-.36,8.77,0l-.06-2.43c-1.06-1.73-25.68-1.34-29.51-1.81-6.99-.87-15.64-6.28-21.3-10.44-3.17-2.33-9.13-8.96-12.19-10.36-.36-.16-1.37-.21-1.24.41l20.87,20.05c.13.62-.85.56-1.23.4-1.15-.47-6.58-5.04-7.96-6.24-7.37-6.43-13.37-16.09-22.53-19.64-.37,1.57.87,1.99,1.66,2.93,7.38,8.82,16.69,16.72,24.22,25.46ZM391.4,414.62c-1.66-1.84-6.86,8.21-5.85,9.18l7.51,1.68c-.6-3.62,6.53-9.3.86-10.02-.71,2.02-1.85,4.04-2.95,5.86-.63,1.05.17,2.12-2.07,1.64l2.5-8.34ZM611.05,414.62c-5.58-1.29-10.52,16.19-8.29,17.47,6.56,1.51,7.69-6.83,8.28-11.62l-5.42,10.01c-1.84-2.55,6.19-15.14,5.43-15.86ZM648.63,421.3c-6.33-16.23-18.95,4.27-23.21,11.44-2.03,3.41-16.46,32.31-15.19,33.66,1.66.29,2.41-1.07,3.2-2.22,3.54-5.12,6.79-16.33,10.01-22.56,3.82-7.39,15.81-31.64,25.2-20.31ZM412.28,420.47l-12.14-3.15c-1.4,1.05-5.54,7.86-4.56,8.98l11.96,2.42,4.74-8.25ZM508.33,417.13c-1.34-1.3-9.15,8.41-8.35,9.17,4.46-.39,6.16-5.94,8.35-9.17ZM472.37,428.89c-2.82-.56-5.88-3.97-8.26-4.71-2.08-.64-4.31-.25-6.57-.94-3.92-1.2-7.16-3.89-10.98-5.27-2.57,4.98-6.98,8.91-10.23,13.58-2.82,4.05-9.86,18.18-12.98,19.59-3.4,1.53-18.96,1.61-22.8.7s-3.44-3.19-4.78-3.79c-3.92-1.73-16.36-3.12-21.89-4.62-11.76-3.19-22.41-8.08-33.57-11.53-.68-.21-1.93-1.29-2.34-.16,21.82,44.06,72.89,51.74,116.92,41.34l-3.33-2.49,11.69.82c-4.98-14.85,1.96-29.79,9.14-42.51ZM583.48,431.32c.38-3.02,2.47-6.31,2.99-9.15.18-1,.21-2.48-.89-2.52-3.75-.15-2.05,4.11-2.18,5.31-.16,1.52-1.99,5.64.08,6.35ZM418.96,420.47c-2.52-1.91-8.12,7.7-7.51,10.01,2.72,2.72,6.29-8.93,7.51-10.01ZM423.13,420.47c-1.8-1.95-7.22,9.54-6.67,10.01l3.22-.12,3.45-9.9ZM563.45,427.14c2.2-.68,12.12-.78,10.84-4.57-1.52-4.5-10.57.57-10.84,4.57ZM616.91,464.73c3.85-.93,12.26-1.73,14.56-5.06,2.82-4.07,8.56-17.61,10.64-22.77,1.38-3.44,6.44-13.53,2.37-16.06-3.59-2.23-9.52,7.17-11.21,9.72-2.31,3.49-17.9,32.61-16.35,34.17ZM436.5,424.65l-10.02-2.14c-2.43,2.47-3.89,5.59-5.01,8.81l9.48,1.74,5.56-8.4ZM595.19,434.66l2.55-.37.66-1.01.96-10.31c-5.15,1.79-4.14,7.14-4.16,11.69ZM562.62,423.81c-5.32.55-13.25,2.6-15.03,8.34,5.92-1.58,12.58-1.62,15.03-8.34ZM505.82,488.94c-10.57-20.91-1.74-44.35,6.67-64.3-2.6,2.33-5.91,7.42-7.28,10.67-2.01,4.78-1.56,11.27-5.3,14.75-1.37,1.28-2.89.85-4.31,3.21-4.68,7.82-4.09,35.96,10.21,35.67ZM226.02,426.31c-14.68,4.02-25.57,20.34-16.56,34.52.68,1.07,4.95,4.67,4.03,5.56-5.12-.8-7.1-6.41-10.42-9.2-8.74-7.33-28.11-3.88-26.14,9.41,1,6.73,8.38,9.72,8.84,12.02.24,1.22-1.51,3.68-1.53,5.73-.04,5.15,5.28,11.83,10.54,12.12,3.34.19,7.64-8.25,12.86-6.69l-7.06,6.71c-8.22,17.69,14.2,19.79,26.1,22.27,13.03,2.72,26.36,4.39,39.42,6.92l-3.05-7.38-34.53-9.33c13.46-10.55,3.22-29.57-12.88-27.48-1.78.23-4.43,1.94-5.79,1.52-1.08-.33-1.43-2.11-2.3-2.77-3.2-2.39-6.58-4.19-10.78-3.84-.25-2.19.04-1.33,1.25-1.7,7.48-2.32,10.47,4.56,12.51,4.77.85.09,2.8-1.21,4.27-1.33,14.22-1.14,23.51,7.37,23.87,21.51l24.07,8.49c.13-2.93,1.76-7.3,1.32-10.08-.65-4.14-7.15-7.46-7.23-8-.2-1.37,1.24-3.27,1.33-4.86.59-10.92-13.43-13.51-20.46-7.13l6.55-18.62c-9.06-9.33-17.47-19.53-18.26-33.16ZM478.23,477.21c-3.49-11.4-3.18-22.67.7-33.94l9.34-16.96c-3.2,3.54-8.94,1.3-11.72,3.73-4.31,3.78-9.89,18.69-10.59,24.49-1.01,8.33.48,25.75,12.27,22.69ZM590.17,426.32c-2.17-.43-1.45.48-2.09,1.63-1.15,2.09-3.96,11.06-.82,11.73,3.14.67,3.06-11.62,2.91-13.35ZM567.63,435.49c4.97.01,7.3-2.49,6.67-7.51-1.41.24-7.07,7.2-6.67,7.51ZM495.81,447.19c4.76.59,2.92-3.83,3.44-7,.63-3.83,1.44-7.62,2.39-11.38-5.26.3-8.01,16.6-5.83,18.37ZM570.13,428.82c-6.96,1.06-12.81,3.23-15.87,10.01,8.04,0,11.82-3.57,15.87-10.01ZM401.42,448.03h19.63c1.83,0,8.85-12.49,7.93-13.36-5.49.92-13.85-2.96-18.77-2.51-3.05.28-9.94,14.7-8.79,15.87ZM489.95,432.16c-1.67-1.74-6.46,9.27-6.83,10.28-3.94,10.6-5.96,26.85,2.26,35.64,2.18.17.85-.35.63-1.46-.89-4.52-1.52-8.42-1.05-13.14.2-2.06,2.41-7.97,2.35-8.4-.1-.71-1.81-.99-2.38-1.83-4.82-7.06,2.13-14.87,5.03-21.1ZM539.23,442.17c6.98-.84,13.69-1.28,15.86-9.18-6.82,2.47-13.16.86-15.86,9.18ZM490.78,438.01c-2.44-2.71-9.67,18.62,0,12.1-7.26-2.3-1.19-4.01-.83-5.2.48-1.58.15-4.96.83-6.9ZM571.8,438.01c-5.36-.17-10.26,2.99-11.69,8.34,6.41-.17,9.74-2.27,11.69-8.34ZM583.49,438.84l-1.7.48c-2.43,9.08-4.99,18.31-4.04,27.82l4.4.99c2.38-.33,1.08-22.56,4.68-25.54-2.36-.72-3.59-.86-3.34-3.75ZM560.11,440.51c-6.49.64-12.18,3.42-14.19,10.02,6.34-1.57,12.16-2.9,14.19-10.02ZM592.44,440.68c-4.87,1.47-9.65,14.52.64,14.08,10.05-.43,11.06-17.62-.64-14.08ZM546.75,443.86c-6.35.85-12.21,1.82-13.36,9.17,7.16.72,10.38-3.49,13.36-9.17ZM563.45,448.87c-6.69-.25-10.74,4.42-13.36,10.01,7.05-1.05,10.16-3.93,13.36-10.01ZM493.29,483.1c-4.25-10.95-2.4-21.7.83-32.57-7.64,4.26-7.4,13.44-6.66,21.28.35,3.64,1.49,10.58,5.83,11.28ZM537.56,461.38c7.5-.06,11.6-2.99,14.19-10.02-6.39,1.67-11.88,3.01-14.19,10.02ZM570.97,467.23l3.39-.36.66-1.01.94-12.82-4.43,10.17-.57,4.02ZM538.39,455.55c-6.17-.33-8.75,2.25-9.18,8.34,4.82-.16,7.06-4.71,9.18-8.34ZM562.62,458.06c-2.15-1.66-9.44,8-8.35,9.18,5.93-.27,6.25-4.86,8.35-9.18ZM555.1,460.56c-7.43-.04-9.77,3.61-13.36,9.17,7.21-.06,10.47-2.74,13.36-9.17ZM288.68,476.43c-14.11-2.63-28.57-5.86-40.52-14.18l-4.58,8.75c11.42-.45,20.15,6.16,17.63,18.22l4.52,3.89,8.8-10.37c2.55-1.32,5.12-2.9,7.84-3.85,2.38-.84,6.88.09,6.31-2.46ZM529.21,473.07c6.83.37,11.96-3.77,14.19-10.01-6.93,1.22-11.43,3.12-14.19,10.01ZM587.67,480.6h-24.22c-2.03,5.37-5.91,9.87-10.02,13.78,25.95-2.1,50.92-13.1,73.49-25.9-7.08.31-14.16,2.53-21.26,2.96-9.32.57-19.26,0-28.4-.07-3.52-.03-8.89-1.11-10.47,2.53l9.18,1.67c-2.84.15-5.74-.32-8.57.24-4.73.94-1.99,2.8,1.47,3.12,3.52.32,7.3-.27,10.86,0l7.94,1.66ZM556.76,469.75c-2.14-.09-4.53.37-6.28,1.64-.73.53-5.98,6.98-5.4,7.53,6.44-.26,10.03-2.91,11.68-9.18ZM681.21,471.42l-57.62,28.38c21.79-2.6,43.24-11.39,57.62-28.38ZM546.75,472.25c-6.8.3-11.75,3.6-14.19,10.01,6.87-.33,10.89-4.41,14.19-10.01ZM533.38,475.59l-5.91,1.37c-1.22,2.15-.54,3.97.08,6.14.64.49,6.78-6.66,5.83-7.51ZM502.48,495.62l-13.09-6.53c-2.23-.63-6.89-5.51-8.38-5.85-1.71-.4-6.11,1.24-9.66.5s-5.73-4.57-7.75-4.84c-2.84-.38-14.42,2.67-18.45,3.24-6.17.87-12.48,1.17-18.67,1.8l76,11.68ZM537.56,489.78c2.22-.41,4.71-.91,6.65-2.12.97-.61,7.56-7.01,6.7-7.9-5.87,2.58-11.81,2.35-13.35,10.02ZM294.52,535.71c9.96-2.46,23.28-1.34,30.06-10.43,8.91-11.95,3.63-41.14-12.94-43.01-8.07-.91-16.58,1.43-24.64,1.68,5.71,4.21,12.84,7.78,13.35,15.86l-7.93-9.18c-14.67-10.9-23.61,7.55-23,20.49.31,6.55,3.37,14.88,8.38,19.19,17.42,14.96,27.67-13.13,23.4-27.15,6.32,5.31,3.27,19.39-.48,25.84l-6.21,6.72ZM537.55,483.94c-3.63.46-11.05.96-5.25,4.91h1.33s3.92-4.91,3.92-4.91ZM343.79,487.29c-1.82-.55-3.62,1.61-5.08,1.3-2.17-.47-3.29-3.93-5.77-3.81.84,5.99,7.65,8.12,10.85,2.51ZM352.98,488.96c-5.12-2.38-5.25.67-8.42,2.84s-6.12,3.25-9.14,5.06c-3.35,2.01-3.69,3.85.69,3.23,6.98-.99,12.82-5.64,16.87-11.13ZM380.54,498.96c-4.34-3.94-11.04-6.3-16.7-7.5,3.8,4.69,10.96,6.33,16.7,7.5ZM334.61,509.83c13.09-2.6,27.25-2.66,40.25-5.26,1.43-.29,6.19-.47,5.68-2.66-3.61-3.07-8.65-2.57-13.1-4.45-5.13-2.17-6.16-5.7-13.19-4.31-1.82.36-7.12,5.51-9.88,6.81-6.2,2.93-11.42.39-9.75,9.87ZM385.33,496.69c-.61-.66-2.17-1.16-3.12-1.05-.63.62,5.84,9.22-4.16,12.97-1.92.72-4.83-.63-4.2,2.05,8.62,5.03,16.68-8.34,11.47-13.97ZM385.55,521.51c9.38-.9,18.64-1.76,21.95-11.87,4.61-14.13-5.91-8.35-15.26-12.34.51,9.12-.03,17.37-6.69,24.21ZM263.5,511.62l-26.53-8.41-1.74,3.71c-.43,1.41,25.87,7.93,28.38,7.92l-.11-3.22ZM388.91,506.5c-3.04,11.3-15.61,14.82-22.99,5.01l-2.08,1.26c-.64,2.42,5.96,7.74,8.33,8.36,9.49,2.5,14.82-3.67,17.2-12.08.23-.81,1.06-2.76-.46-2.55ZM597.69,558.26c8.91-2.01,20.14-2.39,24.91-11.42,5.09-9.64,3.78-22.48-2.85-31.1-6.66-8.67-13.55-7.19-23.32-5.09-1.14.24-2.11-.11-2.9,1.26,16.15,10.17,18.19,33.54,4.16,46.35ZM577.11,547.11c-.6-.52-.78-1.7-1.55-2.2l-2.08,1.27c4.96,13.21,21.74,16.08,27.97,2.06,4.02-9.03,2.7-23.3-4.59-30.46-4.66-4.58-13.38-7.44-17.52-.86,1.18,1.84,1.9.96,3.32.89,5.14-.29,6.64-1.34,11.28,2.05,16.5,12.09,4.27,45.27-16.82,27.25ZM576.27,520.4l-4.22-5.44c-.65-.19-12.94.86-13.55,1.16-2.25,1.12-6.79,8.33-10.15,10.75s-6.97,3.65-10.77,4.7l.87,4.11c6.01-.75,13.26-4.5,17.52-8.71,3.67-3.63,4.04-8.34,10.64-8.62,4.18-.18,4.03,2.7,6.11,4.34,4.19,3.31,9.59,5.2,14.95,5.5l-11.4-7.8ZM552.59,516.52c-4.18.75-4.95,6.94-10,4.58-.34-.16-7.13-7.05-5.85-2.51,2.32,8.2,14.83,5.92,15.85-2.07ZM503.32,574.13c13.12-2.21,25.61-3.41,30.02-17.99,3.47-11.48-.03-27.58-10.05-34.96-9.23-6.8-21.22-1.44-31.66-.48l8.63,3.47c15.27,11.52,17.46,36.9,3.06,49.96ZM590.88,530.84c-4.46-.41-9.47-1.06-13.67-2.6-6.24-2.29-6.9-6.51-14.83-4.02-1.85.58-7.62,7.66-11.2,9.68-3.73,2.1-7.88,3.05-11.88,4.42l.81,6.56c1.47.2,2.97.1,4.45-.06,8.8-.94,36.41-5.28,43.8-7.98,1.4-.51,2.79-.94,3.38-2.52l-.86-3.47ZM487.22,524.22c-7.8,1.62-12.29,14.98-12.33,21.98-.06,11.28,8.23,29.28,21.96,26.92,21.14-3.64,15.43-54.1-9.63-48.89ZM585.17,544.06c.13.14,3.2.89,3.78.89,13.91.11,10.62-22.07.81-20.94-1.22,1.98,2.34,2.34,3.91,5.27,4.58,8.56-1.27,10.34-7.34,13.03-.77.34-2.5.33-1.17,1.74Z"/>
  <path d="M474.03,570.03l-.38,2.45c-29.56-6.65-59.42-12.08-88.97-18.77-9.22-2.09-19.34-4.19-28.38-6.7-1.88-.52-5.54-1.32-6.67-2.92l124.39,25.95Z"/>
  <path d="M182.36,393.08c13.32-3.07,16.41,16.45,3.77,18.05-10.79,1.36-14.33-15.61-3.77-18.05ZM191.19,401.81c0-3.35-2.71-6.06-6.06-6.06s-6.06,2.71-6.06,6.06,2.71,6.06,6.06,6.06,6.06-2.71,6.06-6.06Z"/>
  <path d="M191.75,422.67c0,4.95-4.01,8.96-8.96,8.96s-8.96-4.01-8.96-8.96,4.01-8.96,8.96-8.96,8.96,4.01,8.96,8.96ZM188.54,422.66c0-3.2-2.59-5.79-5.79-5.79s-5.79,2.59-5.79,5.79,2.59,5.79,5.79,5.79,5.79-2.59,5.79-5.79Z"/>
  <path d="M480.58,202.71c29.65-.21,26.44,52.07-3.44,48.73-29.36-3.28-25.86-48.53,3.44-48.73ZM484.5,207.07c-10.58.47-9.73,20.49,1.59,20.41,12.86-.1,11.09-20.98-1.59-20.41Z"/>
  <path d="M598.23,256.47c-9.11,9.1-20.21,1.39-23.35-9.04-3.16-10.52.72-33.76,15.51-31.39,15.07,2.42,17.45,30.82,7.84,40.43ZM584.12,220.14c-6.26,1.2-8.14,17.17.63,16.67,8.18-.47,6.79-18.09-.63-16.67Z"/>
  <path d="M572.35,269.85c1.16-1.19,1.82-3.02,2.03-4.66,3.95-1.17,2.27,2.88,1.1,4.87-2.8,4.74-7.67,5.41-12.76,5.2-2.83,8.98-10.88,31.27-20.78,33.93-16.09,4.32-19.77-29.28-18.72-39.34-2.16-2.26-5.03-2.75-6.93-5.6-1.13-1.71-3.66-7.13-.45-7.07,2.61,8.51,9.53,10.65,17.88,9.55,4.09-.54,10.33-4.34,14.23-4.07,5.67.39,15.35,16.45,24.39,7.2ZM528.07,270.24c-1.08.28-1.19,1.02-1.37,1.97-1.53,8.29,1.26,30.4,10.42,33.9,6.42,2.46,16.87-11.54,16.17-16.16-1.06-7.05-16.68-22.27-25.22-19.71Z"/>
  <path d="M467,268.4c0,14.17-11.49,25.66-25.66,25.66s-25.66-11.49-25.66-25.66,11.49-25.66,25.66-25.66,25.66,11.49,25.66,25.66ZM463.94,268.34c0-12.52-10.15-22.68-22.68-22.68s-22.68,10.15-22.68,22.68,10.15,22.68,22.68,22.68,22.68-10.15,22.68-22.68Z"/>
  <path d="M547.28,248.53c2.47-.75,7.19-.51,8.64,1.97-3.22,4.05-6.92,2.57-9.99-.84.41-.42.75-.95,1.35-1.13Z"/>
  <path d="M488.88,111.62c10.44-2.35,12.91,7.68,3.63,8.63-8.31.85-10.52-7.08-3.63-8.63ZM488.29,116.44c.52.82,7.49.17,7.5-1.24-2.13-2.36-4.81-1.78-7.5-1.24.11.7-.2,2.15,0,2.48Z"/>
  <path d="M416.46,378.7c-6.47-2.72-12.46-7.74-17.54-12.51l15.31,10.16,2.23,2.35Z"/>
  <path d="M453.2,334.44c-3.85-3.04-8.73-5.2-11.68-9.18,2.25-.47,12.96,7.77,11.68,9.18Z"/>
  <path d="M439.84,323.59c.07,1.19.4,2.01-1.16,1.58-1.87-.51-6.23-2.89-8.69-3.89-1.25-.51-2.27.5-1.83-1.88l11.69,4.18Z"/>
  <path d="M577.23,123.48c3.2-.11,7.61,3.91,8.65,6.9-2.98,8.71-17.82-6.57-8.65-6.9Z"/>
  <path d="M285.11,492.46c14.95-1.43,19.02,34.94,3.78,36.4-16.49,1.58-18.45-35-3.78-36.4ZM287.64,500.82c-8.5,2.1-7.31,21.66,2.25,20.72,7.65-.75,7.04-23.02-2.25-20.72Z"/>
  <circle cx="540.17" cy="184.48" r="3.43"/>
  <circle cx="555.04" cy="186.63" r="3.36"/>
  <circle cx="525.8" cy="182.5" r="3.33"/>
  <path d="M566.07,186.73c1.16-1.81,5.78-1.08,5.81,2.81.05,6.36-8.49,1.39-5.81-2.81Z"/>
  <circle cx="581.8" cy="191" r="3.19"/>
  <rect x="590.57" y="191.13" width="5.9" height="5.16" transform="translate(369.58 776.49) rotate(-87.06)"/>
  <path d="M448.18,408.77c-2.49-.67-.72-4-.15-5.59,1.38-3.83,4.47-9.35,7.66-11.95-1.86,6.23-7.32,10.66-7.52,17.54Z"/>
  <path d="M490.56,529.2c16.8-3.76,23.36,36.51,5.58,38.25-16.48,1.61-20.64-34.88-5.58-38.25ZM493.06,537.57c-7.41,1.66-7.14,15.53-1.02,19.87,13.12,9.3,16.34-23.3,1.02-19.87Z"/>
  <path d="M559.17,388.84l.11,4.9c-2.85.03-5.89.71-7.47-2.18-.4-2.37,5.42-4.43,7.37-2.72Z"/>
  <path d="M414.48,435.76c11.08-.69,9.49,12.27-2.44,9.58-7.29-1.65-2.92-9.24,2.44-9.58ZM418.83,438.97c-3.54-1.8-5.95-1.18-8.21,1.96,2.01,2.31,5.63.94,8.34,1.25l-.13-3.21Z"/>
  <path d="M594.9,441.52c6.57-.63,4.87,11.26-2.45,9.73-4.66-2.11-1.78-9.32,2.45-9.73Z"/>
  <path d="M286.75,504.96c7.34-2.22,8.14,11.56,2.29,12.42-6.68.98-6.95-11.01-2.29-12.42ZM286.22,514.79c5.92,2.19,4.56-7.69,2.03-8.3-3.05-.73-3.17,6.55-2.03,8.3Z"/>
  <path d="M498.94,553.06c-.93.93-3.87,1.26-5.19,1.05-5.51-.87-5.56-14.05,2.27-12.39,4.5.95,5.26,9.01,2.92,11.34ZM496.55,544.16l-3.29.29c-4.78,9.43,7.35,10.69,3.29-.29Z"/>
</svg>