<?xml version="1.0" encoding="UTF-8"?>
<svg id="katman_1" data-name="katman 1" xmlns="http://www.w3.org/2000/svg" viewBox="0 0 841.89 595.28">
  <path d="M230.27,339.19c-1.35-.31-1.64.44-2.41,1.23-2.25,2.31-19.17,23.62-19.31,25.2-.2,2.17,5.06,4.6,6.39,6.32.53.68.2,1.76.75,2.44,5.2,6.45,10.63,12.98,12.99,21.12l-1.56,2.2c1.14,2.52,2.87,5,3.78,7.59,2.02,5.72,3.95,28.69.53,33.33-.77,1.04-2.4,1.25-3.15,2.51-3.15,5.29-2.26,16.57-11.75,18.57l.4-3.23-2.78,3.71c-3.88,1.28-7.18,6.86-11.19,7.49-2.72.42-3.62-1.89-6.2-1.53-1.73.24-3.02,2.47-4.74,3.43-15.99,8.88-23.32,5.66-39.17.84-1.68-.51-3.84-.03-5.9-.57-8.09-2.12-22.14-11.91-25.67-19.62-1.49-3.25-2.43-10.06-3.82-12.41-.45-.76-2.3.14-2.82-1.18.04-2,2.43-4.81,2.38-6.46-.06-2.22-4.18-4.99-4.68-7.46-.72-3.55,2.08-7.12,1.97-9.52-.06-1.28-1.45-2.33-1.27-4.75.15-1.99,5.42-17.02,6.54-19.42,1.74-3.76,5.54-7.31,8.46-10.19l-1.18-3.95c13.84-7,24.26-19.37,41.13-18.72,6.44-34.18,19-66.74,33.2-98.31.11-2.06-8.15-10.78-10.05-13.34-38.39-51.8-68.85-118.67-71.68-183.89-.23-5.39-.74-28,1.01-31.4,2.21-4.29,4.56-2.27,7.65-.71,20.75,10.45,48.65,33.05,65.79,49.05,26.31,24.58,47.95,53.26,71.55,80.25,44.54-23.52,93.83-41.86,143.54-51.16,54.71-10.23,95.82-1.33,139.86,31.66,15.14,11.34,29.76,23.55,43.35,36.7,14.43-16.96,26.96-35.5,41.24-52.57,27.5-32.88,59.28-62.71,95.92-85.24,3.24-1.99,14.08-9.28,17.15-8.45,2.41.66,2.86,6.03,3.03,8.35,4.67,60.51-21.4,134.68-55.66,183.8-17.61,25.24-38.73,45.06-60.72,66.32-.85,3.12,3.33,8.34,3.18,11.93-.1,2.34-1.91,4.37-2.3,6.68-.8,4.74-.22,11.11-1.06,15.92-.9,5.13-3.97,10.69-4.04,16.24-.06,4.45,3.72,10.02,3.18,12.74-1.11,5.55-14.26,13.77-14.31,20.4,8.53,44.36,25.12,99.53,1.63,141.68-35.87,64.38-155.43,79.02-221.23,72.14-62.3-6.51-149.45-21.23-164.29-94.51-5.67-27.99,4.13-67.12,9.55-95.61.78-4.12,4.73-15.16,4.56-18.08-.13-2.25-9.52-8.8-11.69-11.66-5.66-7.43-3.79-17.31-6.05-25.9ZM132.42,43.18c4.18,10.91,12.2,20.42,19.42,29.5,5.28,6.65,11.64,14.45,17.36,20.65,1.85,2,6.14,6.79,8.07,8.12,2.34,1.61,5.11-2.71,5.29-4.54.14-1.43-.53-2.44-1.26-3.56-3.68-5.66-12.43-14.61-17.33-19.87-7.78-8.36-19.75-21.32-28.31-28.3-.53-.43-3.04-2.25-3.25-2ZM736.55,44.8c-.9-.84-14.79,9.95-16.55,11.34-10.58,8.35-25.39,20.68-33.56,31.14-3.59,4.6-10.28,11.61-3.26,16.18l14.6-13.76c11.47-13.04,23.95-25.19,34.71-38.87.65-.83,4.68-5.46,4.07-6.03ZM211.39,101.69c-2.91-2.86-13.38-12.81-17.08-12.44-7.01.7-17.61,26.79-19.44,33.19-14.82,51.71.11,104.45,42.89,137.47,6.39,4.93,13.01,10.44,21.33,6.81,10.75-4.69,8.7-10.84,12.62-19.73,5.56-12.64,20.3-25.08,30.39-34.32,1.61-2.39-.69-7.19-1.67-9.77-11.08-29.16-46.64-79.18-69.04-101.2ZM666.81,94.28c-3.29.81-17.26,16.5-20.44,20.06-18.14,20.32-37.15,45.38-50.68,69.02-3.03,5.3-11.97,21.1-12.41,26.35-.23,2.73,15.33,25.99,17.83,30.8,5.23,10.06,7.32,18.56,15.34,27.52,6.93,7.74,6.84,7.51,16.33,3.37,19.44-8.48,44.52-33.94,53.8-52.96,13.85-28.41,10.54-85.31-6.29-112.1-2.24-3.57-8.88-13.19-13.47-12.05ZM572.49,187.02c4.14,2.25,15.73-4.16,12.9-8.4-.92-1.37-4.66-5.25-6.12-6.87-71.41-79.36-158.12-74.26-251.12-37.58-19.27,7.6-40.16,17.17-55.69,30.84,1.42,4.03,6.72,10.88,11.5,10.75,2.51-.07,10.42-2.91,12.58-4.46,4.44-3.17,6.37-9.74,11.37-12.48l-3.22,8.08,5.65-2.83c-7.99,9.33-16.19,19.66-15.35,32.76,2.23-.44,5.82-7.55,7.27-6.46l-1.22,4.03c4.99-5.3,10.63-9.98,16.58-14.15.65-.46,1.58-2.17,2.42-.81-3.52,2.27-5.16,5.77-7.67,8.51-9.25,10.1-19.04,18.75-27.89,29.53-2.37,2.88-23.47,30.31-21.85,31.92,9.94-3.38,17.89-11.77,27.5-15.76,8.58-3.56,21.35-3.5,28.24-6.54,3-1.32,8.79-7.19,12.44-9.4,4.05-2.45,8.35-4.74,13.09-5.52l-16.02,10.67-6.21,5.51,31.97-16.15c2.38-.15.68.92-.15,1.47-1.69,1.14-3.91,2.09-5.67,3.22-.37.24-2.61,1.15-1.47,1.77l39.59-3.28c32.69,3.11,67.57-7.36,99.28,1.07,6.16,1.64,12.16,3.97,18.09,6.27l1.52-1.65c7.32,2.57,17.57,6.23,25.19,7.21,3.22.41-1.83-2.18-2.38-2.49-3.38-1.89-7.05-3.17-10.45-4.91-1.01-.52-2.62-1.38-.18-1.44,7.05,2.09,13.09,6.8,19.99,9.13,10.79,3.66,24.68,3.63,34.84,8.03,2.43,1.05,16.61,10.61,18.36,8.73-1.4-17.77-11.68-33.85-22.32-47.63-1.35-1.75-7.21-7.72-7.59-8.59-.16-.35-.21-1.33.39-1.2l10.92,9.7c-5.93-20.83-17.57-39.63-33.15-54.59,1.38-.86,3.89,1.59,4.86,2.42,12.49,10.6,23.12,26.45,29.22,41.55ZM294.15,176.62c-2.91,4.68-12.77,8.92-6.87,14.54,2.24-4.82,6.05-9.17,6.87-14.54ZM287.29,535.71c-4.9.76-11.47-.56-16.58,0,23.49,24.41,59.58,32.47,92.03,37.78,53.65,8.78,113.68,8.44,165.78-7.64,20.6-6.36,42.63-14.16,59.22-28.13.35-1.92-.87-1.01-2.04-1.17-15.62-2.09-28.02-9.19-33.56-24.69-12.58-35.23,28.16-66.06,60.42-53.14l9.95,6.62c-.24-13.58.71-27.24-.91-40.73-2.24-18.71-11.63-68.65-22.94-82.2-14.74-17.68-56.89-23.07-79.51-27.25-23.38-4.33-50.5-9.36-74.2-8.36-21.58.91-47.92-.03-68.49,3.49-21.82,3.73-43.55,7.87-65.51,11.32-1.48.23-2.88,1.26-4.35,1.37-3.21.25-6.62-2.14-10.02-1.6l6.47-3.64-2.42-2.82c3.69,1.09,6.28,3.3,10.51,2.42l-4.85-4.84c11.97,1.15,23.95.72,35.87-.93,4.19-.58,10.58-1.37,14.44-2.54,3.3-1,6.11-3.69,9.15-4.61,2.46-.75-.85,2.06,1.59,1.6,4.95-.94,10.92-5.43,16.18-5.68,1.61-.07,1.28.16,1.21,1.62l-8.08,2.44c-.22,1.27,1.15.87,2.04.83,4.29-.2,9.41-1.5,13.69-1.68,20.39-.9,40.94.39,61.09-3.19l-2.42,2.41c24.57-.76,48.89,3.27,72.98,7.5,7.87,1.38,21.76,5.87,28.75,6.06,3.69.1,7.68-3.06,11.5-3.03l-8.89,6.45c8.74.53,16.3-5.7,25.07-5.64l-12.12,5.66c-.06,1.45,3.62.9,4.39.75,4.62-.91,10.16-4.67,15.01-5.6l-12.94,7.26c8.79,2.43,17.08,6.85,25.07,10.93l-2.42.41c4.09,6.27,15.46,9.85,19.96,14.79.57.63,1.41,1.98.29,2.62l-4.88.38c1.56,3.77.84,8.58,4.45,11.3,3.75-3.52,5.25-7.89,5.65-12.94l2.84,2.86c3.52-1.02-.5-6.84-.83-10.5-.71-7.71,2.65-15.17,2.1-21.5-.45-5.2-4.9-11.01-6.1-16.13,1.72.21,7.29,10.68,8.88,8.89.47-4.8-.11-8.34-2.42-12.51.91-2.28,5.09.02,4.84-2.42-.45-4.49-6.76-17.08-12.92-15,.3-1.7,3.82-.41,3.23-3.22-1.66-.43-3.88.99-5.28.08-1.94-1.26-6.99-9.98-9.29-12.59-7.28-8.26-30.23-23.63-40.24-27.87-11.32-4.79-32.07-3.58-44.65-7.75-2.52-.83-4.31-2.81-6.09-3.62-2.43-1.1.91,3.47-1.59,2.41-1.49-.63-7.85-6.21-9.31-4.84-.1,1.09.64,2.92-1.2,2.42-15.83-9.07-34.66-10.69-52.62-10.54-47.56,3.56-92.08-2.45-136.99,15.84-6,2.44-12.59,9.11-18.26,12.5-1.31-.81.27-1.79.81-2.43,2.4-2.86,5.47-5.38,8.27-7.85.55-.48,1.55.04,1.03-1.85-15.14-.88-26.53,9.66-38.57,16.82-6.17,3.67-31.51,16.88-33.1,22.78l2.93,5.67c-2.42.56-7.38,7.2-8.07,9.33-.13.41-.22,1.32.39,1.19,1.53-1.32,3.74-4.65,6.07-3.64-3.3,3.43-4.54,8.27-5.87,12.73-2.48,8.27-4.73,17.13-2.62,25.69l2.04-3.22,1.2,2.42,6.06-7.28c-2.52,8.05-4.95,15.74-3.22,24.26,1.57,2.08,2.52-5.38,4.03-4.85l-1.61,8.89,2.43-3.22c1.35-.23.9,1.99.8,2.82-.37,3.08-1.72,5.35-2.93,8.07,1.9,3.65.91,6.84,4.95,9.32l1.2-3.22c-.2,1.79,6.08,9.23,7.28,8.08l2.49-10.85-4.1-1.29c-1.52-2.14,8.6-11.63,10.5-13.35,12.21-11.03,26.02-17.52,42.87-16.56l-8.12,3.6c-32.86,3.03-38.1,41.93-43.4,68.21-3.99,19.79-9.57,47.96-10.74,67.71-.13,2.13-.29,4.87.39,6.86,5.63-6.06,10.25-11.38,18.56-13.79,33.61-9.75,69.31,28.72,51.24,60.95-4.13,7.36-14.42,16.22-22.89,17.54ZM230.16,282.68l-18.09-15.46c-20.18,25.68-30.58,56.32-36.8,88.14,4.54.93,9.07-.23,13.36-.03,2.75.13,7.48,2.46,9.3.49,3.47-6.18,6.81-12.53,10.65-18.5,2.74-4.26,13.03-17.29,14.04-20.74.36-1.24,3.58-16.63,3.6-17.53.04-1.66-1.34-2.45-1.25-3.6.23-3.13,3.5-8.26,5.15-11.05l.04-1.72ZM202.77,370.72c-.74-1.71-3.06-2.44-4.67-3-5.74-2.01-26.14-7.85-31.21-7.44-4.87.39-15.8,4.82-20.17,7.37-.95.56-5.64,3.49-5.88,3.89-.67,1.11.77,2.74.46,3.19-.18.27-4.59,1.8-5.9,2.63-5.31,3.36-8.67,6.81-12.69,11.58l1.65,1.71c-2.08,8.26-9.58,21.4-6.69,30.01.66,1.98,2.89,3.58,3.25,4.83.61,2.14-.14,4.75.25,7.02.87,5.05,3.79,9.09,3.16,14.24l2.41-1.62,2.45,8.08,2.79-1.62c2.86,4.08,14.41,14.6,19.3,13.78.45-.08,1.08-2.45,2.58-2.24,4.5,4.05,11.76,6.52,17.78,6.32,4.09-.14,31.2-7.64,33.32-10,.81-.9.82-2.59,1.85-3.48l3.24.48-.81-2.42,2.35-.05.15-3.1,6.02-1.67,1.59-5.76,2.82.07c4.73-14.54,7.5-28.32,1.45-43.1-1.03-2.52-3.22-4.8-4.05-7.34-.6-1.83-.09-3.7-.82-5.54-1.45-3.64-12.27-12.6-15.94-13.28-3.53-.66-7.08,2.09-10.54,2.11l7.7-4.03-1.23-2.42,4.04.79ZM264.85,459.09c-31.28,4.21-24.04,44.65-9.49,62.45,10.33,12.63,33.34,12.9,44.86,2.03,27.42-25.84-1.86-69-35.37-64.48ZM593.24,459.12c-22.84,2.12-44,22.29-38.77,46.39,4.2,19.37,31.82,34.01,47.47,18.92,8.67-8.36,18.19-28.34,19.56-40.29.95-8.35,1.3-14.21-5.84-19.59-6.18-4.66-14.86-6.13-22.41-5.42Z"/>
  <path d="M365.01,411.44c0,22.01-17.85,39.86-39.86,39.86s-39.86-17.85-39.86-39.86,17.85-39.86,39.86-39.86,39.86,17.85,39.86,39.86ZM338.45,379.8c-19.53,2.88-10.25,33.26,6.43,24.25,12.34-6.67,7.08-26.24-6.43-24.25ZM303.21,411.49c0-1.87-1.51-3.38-3.38-3.38s-3.38,1.51-3.38,3.38,1.51,3.38,3.38,3.38,3.38-1.51,3.38-3.38ZM350.77,428.15c-1.39-7.05-7.12-9.13-3.64,0l.42-2.43,3.22,2.43ZM343.06,430.23c-.77-.69-1.52-2.64-2.38-2.72-5.8,3.46-12.73,4.72-19.44,3.89-4.13-.51-7.03-4.09-11.2-4.13-7.47,19.25,35.01,22.74,36.66,4.94-1.99.37-2.44-.88-3.65-1.98Z"/>
  <path d="M577.71,411.03c0,22.02-17.85,39.88-39.88,39.88s-39.88-17.85-39.88-39.88,17.85-39.88,39.88-39.88,39.88,17.85,39.88,39.88ZM518.78,379.81c-14.09,2.92-8.06,28.51,7.54,25.34s9.81-28.93-7.54-25.34ZM560.79,406.42c-2.86.96-1.76,6.2.25,7.6,5.94,3.11,6.78-9.97-.25-7.6ZM514.84,428.03c5.98-12.68-2.27-10.23-3.12.11l3.12-.11ZM519.8,422.49l-3.36,4.32-1.48,5.38c1.67,1.92,5.8-8.21,4.84-9.7ZM522.49,426.23c-.46-.3.04-1.46-.66-1.31-2.17.86-3.8,8.37-4.48,10.78,5.23,7.86,19.56,9.97,27.84,6.11,4.45-2.07,9.13-9.27,5.62-13.71-10.51,2.95-18.7,4.37-28.33-1.87Z"/>
  <path d="M371.2,479.3c.42-.45,1.58-.91,2.24-.62,10.29,12.85,35.36,12.14,49.31,6.48,2.18-.89,6.01-4.05,7.68-4.11s11.15,4.68,14.34,5.56c10.65,2.94,24.82,3.4,35.42.18,4.52-1.38,11.39-3.69,11.32-9.31,11.64,1.64-1.42,9.39-6.05,11.35-13.07,5.53-27.37,4.48-40.88,1.2-3.91-.95-11.05-4.32-14.22-4.44-2.32-.09-6.78,2.68-9.39,3.44-12.57,3.67-26.46,4.78-39.07.59-3.29-1.09-15.14-5.55-10.7-10.32Z"/>
  <path d="M422.84,455.56c-1.59-2.48,2.3-2.97,4.37-3.14,3.12-.26,7.07-.51,9.28,2.01-2.53,1.98-4.85,4.19-8.28,3.49-.47-.1-5.22-2.11-5.38-2.36Z"/>
  <path d="M260.19,336.77l-10.51,10.51c1.1-4.21,6.23-9.37,10.51-10.51Z"/>
  <path d="M423.56,293.9c-3.11,3.44-7.69,5.95-12.13,7.26,2.83-3.35,7.91-5.89,12.13-7.26Z"/>
  <path d="M246.44,348.89c-2.49.76-1.77-2.87-1.54-4.38.29-1.95,1.22-5.23,3.16-6.14l-1.61,10.52Z"/>
  <path d="M253.72,297.12c-5.16.64-3.19-6.58-2.42-9.69l.97,6.7,1.45,2.99Z"/>
  <path d="M593.41,281.76c2.46.41,4.6,7.56,2,8.08-2.76.56-.76-6.32-2-8.08Z"/>
  <path d="M574,209.77l-19.41-22.63c.97-.86,7.56,6.22,8.5,7.26,4.2,4.64,7.79,9.95,10.91,15.37Z"/>
  <path d="M560.24,197.65l-8.1-6.86-9.68-10.93c.57-.55,6.04,4.16,6.85,4.87,1.97,1.73,4.38,4.07,6.11,6.02.75.84,5.41,6.26,4.82,6.9Z"/>
  <path d="M543.25,188.75c-4.37-4.07-9.09-8.8-12.93-13.34-.77-.91-1.96-1.32-1.61-2.83,3.44,3.06,7.08,6.23,10.11,9.69,1.48,1.69,3.79,4.34,4.43,6.48Z"/>
  <rect x="298.09" y="199.29" width="16" height="1.16" transform="translate(-51.68 274.98) rotate(-45)"/>
  <path d="M212.47,428.14c-1.54.18-.52-1.58-.41-2.43.98-7.63,1.9-14.08-2.81-21.01,2.29-2.27,6.28,9.62,6.42,11,.49,4.7-1.76,8.26-3.2,12.44Z"/>
  <path d="M181.74,459.68c-6.9,0-12.79-4.71-16.98-9.69,5.94,1.66,12.17,5.79,16.98,9.69Z"/>
  <path d="M211.65,388.52c1.12,3.49,8.26,12.42,7.23,15.66-.52,1.64-2.61,1.37-3.98,1.32,2.2-5.75-2.32-11.55-4.85-16.58l1.59-.39Z"/>
  <path d="M211.66,418.45c.28,3.18-.53,6.27-1.72,9.19-.52,1.29-5.64,10.05-7.17,8.59,3.66-5.24,5.04-10.21,7.07-16.01.46-1.31-.42-2.16,1.82-1.77Z"/>
  <path d="M172.85,461.3c-3.72,1.78-15.31-12.26-14.56-12.92,1.52-.35,1.92.84,2.83,1.61,3.89,3.27,8.15,7.65,11.72,11.32Z"/>
  <path d="M189.83,452.42c-1.79,5.2-18.56-1.67-16.17-4.05,5.13,2.35,10.59,3.38,16.17,4.05Z"/>
  <path d="M154.24,456.45c-1.74,1.83-6.56-7.71-6.89-8.86-.88-3.01-.71-6.63-.37-9.73l2.04,8.06,5.23,10.53Z"/>
  <path d="M163.95,461.3c-1.84,1.69-10.77-10.22-9.7-12.93l9.7,12.93Z"/>
  <path d="M196.31,436.24l7.26-12.13c-.89,4.56-3.65,9.21-7.26,12.13Z"/>
</svg>