<?xml version="1.0" encoding="UTF-8"?>
<svg id="katman_1" data-name="katman 1" xmlns="http://www.w3.org/2000/svg" viewBox="0 0 841.89 595.28">
  <path d="M499.33,116.45c19.95-21.51,45.07-42.69,71.44-55.85,8.41-4.2,27.74-14.89,29.62.7,1.15,9.51-2.32,26.14-4.52,35.75-6.93,30.24-22.25,65.09-42.55,88.65-.89,1.03-8.39,7.62-7.45,8.5,12.28-.86,25.59-1.22,37.97-.73,6.21.24,14.32.77,20.45,1.53,6.6.82,22.78,3.43,16.04,13.75-5.61,8.6-44.57,19.53-55.58,22.43-13.22,3.48-26.58,6.38-40.1,8.48-.77.91,4.81,19.9,5.42,23.18,6.02,32.96.59,66.49-19.56,93.58l2.38,7.98c7.43-7.21,14.52-14.79,22.33-21.63,34.64-30.31,83.5-57.49,128.93-66.81,13.01-2.67,20.62-2.16,16.27,13.43-5.61,20.13-15.86,47.45-23.59,67.19-.97,2.47-1.86,4.97-3.57,7.06-27.14,12.54-54.75,24.15-81.21,38.1l27.74,65.11c-.23,1.67-2.12,2.95-3.57,3.59-3.7,1.63-25.39,6.41-26.19,7.52.96,3.48.28,7.13.97,10.61,1.13,5.71,10.16,20.46,9.48,24.99-.99,6.57-10.74.9-12.66,2.22-2.36,6.66-5.21,12.99-9.19,18.84,21.34,3.19,44.49,4.52,65.09,11.15,31.75,10.21-.21,17.87-13.89,20.56-70.48,13.89-146.87,9.44-218.26,8.75-14.59-.14-26.68,3.32-41.11,4.93-52.29,5.81-109.14,3.8-160.78-5.87-14.2-2.66-36.82-6.81-49.49-12.92-20.41-9.86,9.99-16.99,18.43-18.79-15.37-30.06-8.15-71.9,10.77-98.8,1.45-2.06,9.53-10.89,9.72-11.62s.02-1.01-.26-1.62c-1.7-3.74-12.58-10.12-10.9-15.82.22-.76,5.27-6.09,6.35-7.14,3.66-3.55,8.35-6.98,12.65-9.75-5.6-13-4.72-26.86-1.7-40.37-14.6-6.71-25.87-18.2-34.3-31.7-4.89-7.83-16.28-26.29-.49-27.86,14.73-1.47,33.91,3.36,46.66,10.77,1.92,1.11,11.9,8.79,12.54,8.37,2.68-5.93,7.4-12.21,12.41-16.32,3.53-2.9,6.81-3.51,10.22-6.14-1.43-11.73-2.41-25.05,1-36.55.99-3.34,3-5.88,4.05-9.07-11.9-1.55-40.53-6.64-32.75-24.6,7.21-16.65,41.71-27.4,58.28-30.73.29-1.07-.27-1.17-.7-1.78-2.08-2.96-5.73-6.49-8.09-9.64-12.11-16.13-23.39-35.11-30.23-54.17-2.08-5.8-7.31-19.86-2.85-24.86,4.9-5.49,25.97-.45,32.8,1.29,28.17,7.17,53.61,22.61,73.96,43.05,9.16-21.57,19.41-42.71,31.55-62.76,12.78-21.11,39.33-61.35,64.52-66.69,25.38-5.38,73.15-2.11,92.26,17.73,6.93,7.2,7.82,14.23-4.55,13.06-11.53-1.09-16.46-4.91-29.55-2.43-3,.57-22.23,6.25-22.6,7.91,2.15,5.97,4.86,11.83,6.83,17.86,2.16,6.6,5.98,26.51,8.41,30.6,1.17,1.97,10.5,9.66,13.09,12.44,2.11,2.27,3.8,5.24,6.02,7.46,1.05.23,4.6-5.05,5.58-6.11ZM511.11,41c-9.08-8.73-21.6-13.9-33.89-16.1-13.54-2.42-42.69-3.28-55.62.7-18.39,5.67-41.89,39.45-52.2,55.6-14.4,22.57-26.72,46.86-36.3,71.85,9.92-4.24,20.25-7.28,30.72-9.87,3.33-7.33.89-11.97,10.25-14.04,10.99-2.43,35.28-2.72,46.02.39,6.42,1.86,6.32,6.59,6.72,12.43l1.06,1.07c15.31.93,30.23,4.31,44.94,8.3l14.79-20.73c2.06-2.94-2.48-7.79-4.5-10.18-8.6-10.18-20.3-17.7-30.16-26.58-5.97-5.37-11.75-10.98-17.01-17.04l1.75-1.75,28.74,22.68-20.56-65.58,1.42-.74,8.27,16.01c5.87,1.78,15.55-10.23,18.32-10.7,2.86-.48-.51,3.76-1.06,4.26,6.23-.23,12.55-2.66,18.79-2.69,6.45-.03,13.1,2.25,19.5,2.69ZM457.92,182.85h-21.28c-.26-2.13,2.52-2.39,4.09-2.65,5.9-.98,11.98-.63,17.89-1.25-.81-.97-2.17-1.38-3.36-1.6-3.39-.65-26.81-3.96-27.81-2.98-.23,5.77-2.81,9.26-8.9,9.24-6.77-.02-15.14-1.44-21.95-1.5-6.36-.06-27.93,2.15-31.86-.05-3.12-1.75-1.97-4.73-3.22-7.41-2.59-1.87-25.14,5.39-29.3,6.96-3.79,1.44-7.43,3.25-11.17,4.79-.13,1.26,2.4.75,3.18.69,5.36-.42,13.29-2.4,18.41-2.09,1.16.07,2.84.88,3.23,2.09-10.29,1.54-20.67,4.09-30.93,5.6-29.44,4.32-59.98,4.98-86.81,19.57-6.22,3.38-24.8,14.71-14.85,22.68,4.71,3.78,19.68,6.45,25.97,7.36,21.49,3.12,43.32,3.06,65.01,2.98,4.72-11.33,8.51-23.13,16.07-33.01.14-.42-4.14-1.46-4.78-1.58-24.98-4.68-61.99-6.52-83.8,8.04l-10.71,8.45c-1.61-1.31-.23-1.57.36-2.49,15.97-25.01,69.46-22.99,94.94-19.77,47.33,6,84.71,17.9,134.12,12.67,50.5-5.35,91.36-14.52,115.82-62.9,3.3-6.52,2.42-7.98.17-14.77-5.67-17.1-18.83-34.07-30.98-47.06-2.5-.42-26.1,23-29.35,26.5-16.31,17.6-32.22,39.13-41.45,61.39-.91,2.18-4.56,14.15-5.7,14.15-2.86-3.39-1.74-8.12-1.06-12.04ZM312.43,187.72c2.09-7.82,4.64-15.48,8-22.85.99-2.16,5.18-8.29,4.77-9.88-.64-2.49-18.04-16.85-21.26-19.22-2.61-1.91-21.09-14.3-22.58-13.19-7.51,14.3-14.78,29.55-16.99,45.8-.41,3-1.42,12.95-.41,15.16.51,1.12,7.92,8.08,9.17,8.2,3.46.32,12.13-2.09,16.35-2.51,7.6-.75,15.33-.98,22.94-1.52ZM420.17,135.5c-15.71-3.52-32.51-3.18-48.26-.17-1.19.64-4.28,14.58-3.98,15.91.48,2.05,7.12,1,7.7-2.09,1.47-7.85-2.2-9.21,8.89-10.26,6.88-.65,16.51-.82,23.31.07,11.64,1.52,4.34,8.44,7.46,12.4,1.36,1.74,5.11.79,7.16,1-.6-5.62-.16-11.56-2.29-16.86ZM379.2,166.54h26.6c.24,0,4.54,1.87,3.9-1.05-.53-2.4-9.31-.05-10.48-5.13-2.39-10.32,4.14-8.03,11.09-9.53l-.23-6.31c-1.78-2.7-24.68-1.16-29-.58l-1.07,1.06c-2.84,10.38,8.7,2.63,9.8,8.43,1.53,8-3.05,9.88-9.91,10.62l-.71,2.48ZM320.34,181.43c6.1-2.01,11.77-5.27,17.88-7.29,7.6-2.51,15.58-3.67,23.27-5.81l1.77-18.83c-.64-.98-1-.3-1.62-.23-3.41.4-9.83,2.59-13.31,3.76-7.2,2.44-14.15,5.61-20.7,9.44l-7.28,18.95ZM427.42,148.81v18.79c3.63,2.8,9.86,1.88,14.45,2.57,6.38.95,12.75,2.43,19.13,3.4l8.27-17.31c-13.59-3.84-27.67-7.2-41.85-7.46ZM422.46,175.41c1.01-4.84-.75-12.85,0-18.08-6.24-1.77-12.71-1.46-19.15-1.41-.3,5.99,9.05,2.07,10.97,6.39.99,2.24.35,8.29-2.24,9.07-10.43-.48-22.26,1.11-32.52.17-7.08-.65-6.39-7.2-2.99-11.61l8.95-1.99.1-2.73-17.22,1.42c-1.18.45-1.92,10.33-1.97,12.38-.08,2.85-.15,5.94,1.74,8.25l52.9.29c.33-.2,1.35-1.77,1.42-2.13ZM613.95,204.14c-.9-1.22-21.38-3.43-24.44-3.58-15.53-.78-54.94-1.52-67.3,7.22-1.1.78-7.54,10.04-7.41,10.76l7.43,14.59c19.83-3.34,39.71-7.87,58.93-13.92,8.23-2.59,18.28-5.74,25.95-9.51,1.11-.55,8.02-3.97,6.84-5.56ZM512.53,555.9v9.93c8.16,1.75,12.24-8.04,13.64-14.73,27.35-9.98,39.95-37.41,38.13-65.41-.94-.98-16.49,10.54-22,8.92-7.61-2.24,2.74-12.9,4.84-16.51,4.4-7.55,11.45-23,5.46-30.7-4.85,3.36-16.16,10.32-21.97,9.19-6.07-1.18,1.67-11.44,3.06-14.63,4.17-9.52,9.14-20.6-.97-27.95-3.95,1.08-19.39,9.33-21.99,5.01-2.11-3.5,7.62-21.96,5.77-27.69l-11.8-28.34c-1.84-1.28-5.93,4.91-8.02,5.81-.88.38-1.86.49-1.88-.49s9.47-13.69,10.92-16.02c24.66-39.7,25.51-77.12,8.56-120.49-.6-1.52-3.73-9.35-4.25-9.95-.61-.71-1.63-.72-2.48-.71-1.13-1.19,7.68-8.84,6.38-10.63-12.83,4.4-26.28,7.51-39.71,9.22.5,4.49,10.41-.11,9.92,5.67l-27.3-2.19c-37.78,2.19-75.88,6.8-113.14-1.68-4.04-.92-8.05-2.09-12.03-3.23l1.74-1.83c17.05,2.85,34.07,6.93,51.45,6.79l-.7-1.07-56.26-9.46c-3.85.96-14.11,25.89-15.58,30.55-2.1,6.63-2.86,15.37-5.56,21.39-2.07,4.62-11.84,14.47-12.01,17.82-.07,1.55.33.82,1.04,1.14,15.82,7.19,24.97,30.43,14.48,45.54-1.08,1.56-5.04,4.32-4.03,6.06,8.47,6.61,16.84,13.56,26.85,17.83l-1.71,2.08-12.26-3.39-1.28.57c-6.63,16.38-12.24,38.48-4.95,55.34,5.05,11.68,17.56,21.1,30.13,22.71v-2.85s2.12,0,2.12,0c-.28,2.18,2.57,6.18,4.65,6.41,4.54.51,1.26-4.81,1.02-6.75-.12-.93-.54-2.88,1.07-2.49,1.91,2.48,2.79,7.27,6.73,7.08,2.24-3.72-.21-7.73,1.03-11.39.6-1.78,2.13-1.87,2.83-2.84s4.26-5.92,4.36-6.3c1.33-4.89-12.52-25.4-15.85-30.33-1.32-1.95-11.88-15.4-10.79-16.51,1.57-.23,2.65.7,3.8,1.54,3.91,2.88,10.03,9.82,13.2,13.72,6.01,7.41,11.62,16.29,14.92,25.16.9.83,5.04-4.12,6.04-4.94,18.81-15.45,45.36-29.31,69.83-31.22.28,1.55-.69,1.67-1.78,2.11-12.4,4.99-22.94,8.96-34.86,15.5-17.09,9.38-34.02,20.72-45.6,36.65l3.02,1.08.52,1.76c-4.08.15-5.82,10.27-2.87,9.23.31-.11,4.85-4.28,4.96-1.43.05,1.32-4.5,3.61-1.7,7.39,4.33,5.84,5.41-3.28,10.22-2.77l-2.1,5.33.62,1.45c2.32,2.82,8.68-1.16,11.76-1.18,4.11-.03,10.37,1.9,14.91,2.19,23.21,1.47,42.94-2.7,64.37-10.8,3.42-1.29,6.48-3.91,10.45-3.37-2.91,4.87-9.49,8.74-14.64,11.24-15.69,7.62-33.07,8.91-50.24,10.09l-25.89-2.18c3.27,7.08,6.97,13.89,9.54,21.3,6.99,20.12,8.82,43.45,1.81,63.79,18.65-.55,37.16,2.23,55.34,6.01,8.92,1.85,29.07,5.62,36.55,8.84.68.29,1.28.39,1.71,1.11l-3.5,1.1c-.28,3.22-.02,6.93,2.08,9.56.99,1.24,4.19,3.66,5.35,1.76-.76-3.48-.41-7.17,2.11-9.92,2.31-.05-1.23,12.38,5.74,12.76,5.75.31.66-10.63,6.68-11.36ZM303.31,252.36l-25.92.02-28.69-2.15,10.56,8.93c10.47,10.45,18.33,22.53,23.49,36.45l4.83-15.37c5.3-9.91,14.49-15.91,15.73-27.88ZM280.61,320.44c.21-15.31-5.87-31.42-14.91-43.64-2.8-1.17-17.56,7.79-20.49,10.02-1.59,1.21-8.2,5.9-6.42,8.06,12.12,1.04,22.9,7.06,28.37,18.08l13.44,7.48ZM568.61,470.76c.85.62,18.26-4.52,20.37-5.43,1.09-.47,2.3-.7,2.8-1.97-4.49-10.34-8.87-20.73-13.5-31.01-3.67-8.14-10.56-19.45-13.04-27.39-2.27-7.28.32-7.42,5.92-10.63,24.48-14.04,52.57-23.49,77.55-36.63l26.11-74.33c-.96-3.53-11.06-.2-14.09.54-17.16,4.21-37.58,11.97-53.66,19.39-34.52,15.93-64.48,40.3-90.66,67.52l-.23,2.28c2.52,4.82,3.69,10.19,6.41,14.93,4.87,8.46,13.4,17.14,19.17,25.51,12.02,17.45,21.61,36.59,26.84,57.22ZM301.28,329.56c2.3,1.32,6.49-5.2,7.21-7.14,3.94-10.69-2.28-32.07-15.32-33.79-3.18.76-2.86,12.96-2.61,15.84.43,4.92,2.63,11.28,4.84,15.73.61,1.23,5.4,9.08,5.88,9.36ZM258.39,308.62c-3.44-3.87-14.17-7.99-19.3-8.06-10.68-.14-18.91,8.72-23.01,17.75,3.17-1.48,6.25-3.06,9.56-4.26,10.91-3.96,22.17-5.42,33.7-3.54.1-.07-.68-1.58-.95-1.89ZM304.73,371.5c-1.19-8.63-5.54-21.37-13.55-25.8-9.21-5.09-21.33-4.79-31.49-6.1l-9.24-.04-21.85,2.26c-2.87,1.29.48,4.61-1.52,6.26-10.19-17.23-25.23-32.11-44.32-38.99-2.79,7.6-6.09,15.31-7.5,23.36-1.7,9.79-2.42,10.8,6.3,15.76,8.4,4.78,18.59,7.27,28.14,8.4.13.11-.81,1.84-1.22,2.15-3.63,2.78-11.08,5.33-15.47,8.46-1.49,1.06-3.49,1.93-3.86,3.94-1.43,7.58,2.44,23.16,5.98,30.16,2,3.95,4.83,9.85,9.51,5.24-6.09-17.89,11.83-30.09,27-19.76,9.45,6.44,15.12,22.76,7.14,32.21,5.45-.32,42.34-5.82,43.21-9.64-9.2-14.78,1.74-46.39,22.75-37.87ZM284.05,333.13c1.5-1.82-9.11-10.31-10.72-11.43-17.81-12.42-41.44-9.13-58.65,2.64,2.38,2.61,5.59-2.46,8.49-1.77,1.39,1.26-5.67,4.31-5.66,5.32l8.21,10.88c21.23-5.24,43.93-4.84,64.83,1.52l-7.8-6.73,1.3-.43ZM308.27,358.03l3.5-9.5-14.49-13.18-10.27-14.9c-1.6,6.75,3.45,8.72,6.53,13.67l14.73,23.91ZM199.77,358.75l-7.84-1.13c-1.34,2-1.51,4.47-1.38,6.79.36.41,8.63-4.73,9.22-5.66ZM287.63,406.88c.19-.11,1.42-2.87,2.23-3.8,4-4.61,8.19-6.4,12.61-10.08l1.44-15.32c-10.59-10.61-20.29,5.21-21.15,15.47-.17,1.99.22,16.43,4.87,13.73ZM231.44,391.61c-10.05-8.96-25.43-4.35-23.86,10.75.74,7.1,4.61,3.94,10.11,4.78,6.94,1.06,12.66,6.27,17.89,10.47,5.8-7.05,2.15-20.4-4.13-26ZM516.08,414.76c.55.56,12.32-3.46,13.43-5.41.62-2.14-6.73-8.87-8.13-10.89-1.68-.31-.85.76-1.07,1.74-1.11,5.07-2.56,9.69-4.24,14.56ZM303.3,400.58c-15.61,5.41-15.62,22.58,3.51,12l-3.51-12ZM191.11,424.56c.41-.74.13-3.68.63-5.41.78-2.7,2.57-4.92,3.66-7.46-1.37-1.58-3.7-8.36-5.79-8.17-1.56.14-14.86,11.49-14.61,12.92l9.9,10.77c.91.66,6.05-2.36,6.22-2.66ZM196.23,423.27c7.36-2.39,26.8,7.66,32.68,2.55,7.04-6.12-10.08-13.06-14.78-13.71-8.4-1.16-18.17,1.14-17.9,11.16ZM289.13,419.01c-2.01-1.82-1.52-5.88-4.55-5.67-1.78.12-10.32,3.79-13.17,4.63-3.56,1.04-7.46,1.4-11.03,2.45-3.26.96,2.07,3.01,3.4,2.74,1.2-.25,4.92-3.37,7.31-4.09,6.3-1.9,11.73-1.21,18.04-.05ZM308.28,538.17c-.61,9.25-3.13,19.61-7.2,27.92-.68,1.39-3.89,5.16-3.11,6.15,11.31,4.2,26.73,1.25,36.77-5.11,23.83-15.09,28.66-59.08,26-84.62-1.01-9.72-6.19-33.61-12.17-41.02-3.67-4.54-10.42-4.77-15.47-6.52-9.9-3.43-15.53-10.26-23.08-16.66-4.98.88-9.41,3.46-13.06,6.85,3.08,6.98,7.18,13.67,7.77,21.53,4.33-1.09,5.89-1.81,10.2.08,4.91,2.15,19.73,17.2,23.49,21.9,3.48,4.35,4.6,5.87-.03,9.92-7.67,6.7-19.27,6.46-28.7,4.98l.71,24.82c14.86.92,9.2-16.04,20.7-20.08,9.57-3.36,13.89-1.93,17.43,7.13,7.6,19.46.99,37.8-17.09,47.83-7.8,4.33-11.62,6.57-18.22-.46-1.78-1.9-2.32-5.13-4.95-4.63ZM251.58,509.76l5.64.43c2.21-3.68,3.32-9.51,7.28-11.89,5.74-3.46,21.95-3.49,27.42.55,3.09,2.29,5.84,10.98,7.62,11.57,1.67.06,6.72-.3,7.22-1.78.59-1.74.3-15.54.12-18.38-.16-2.54-1.06-5.05-.85-7.66-.3-.95-4.6-2.95-5.9-4.03-10.87-8.97-5.41-20.22,1.63-29.56-2.24-14.8-8.69-29.55-26.4-27.1-8.33,1.15-13.66,8.97-16.36,16.27-.8,2.17-3.23,11.19-3.01,13.03.15,1.25,3.48,5.87,4.25,8.39,3.47,11.19-.21,15.56-8.58,22.32l-.09,27.84ZM247.99,509.09v-26.24c-8.48,1.95-18.01,2.72-26.02-1.29-8.88-4.45-9.2-7.4-3.08-14.69,4.14-4.93,20.18-20.93,26.07-21.46,2.54-.23,4.62,1.3,6.82,2.1.73.26.69,1.01,1.55-.11.82-6.88,3.66-13.16,7.09-19.1.94-3.58-10.1-5.13-12.75-5.04-2.28.07-10.07,1.86-11.95,2.99-1.54.93-2.56,3.64-4.39,4.83-5.27,3.43-15.61.37-21.65.27-19.74,19.98-25.01,50.07-23.42,77.42.93,16.1,7.74,36.5,19.51,47.86,3.37,3.25,8.16,7.53,13.15,7.06.42-.32-7.06-9.28-3.19-9.2.6.01,6.05,7.64,7.78,9.22,6.75,6.18,17.11,10.03,26.23,10.65,1.78.12,13.88.38,13.85-1.81-8.73-9.58-11.29-22.76-13.81-35.11-.88-1.39-2.19-.22-3.15.41-9.48,6.25-6.85,14.06-22.06,6.37-18.49-9.35-25.76-28.52-18.04-47.89,3.71-9.31,6.03-10.73,16.1-8.33,10.16,2.42,9.36,10.66,14.35,18.27l11.02,2.81ZM169.26,516.18c2.59,16.68,12.44,40.59,29.61,46.65,1.27.45,9.45,3,9.4.51-27.47-23.54-30.28-66.05-20.91-98.93,3.58-12.55,9.71-24.96,18.78-34.4-10.46-6.53-22.28,5.81-28.34,13.49-21.26,26.94-30.79,76.74-6.76,104.6,1.48,1.72,11.44,10.68,13.13,9.2-9.1-11.81-16.77-25.83-17.02-41.13h2.11ZM534.52,450.93c.88.83,14.91-5.83,15.97-8.5l-7.11-13.48c-1.5,4.07-2.19,8.4-3.88,12.43-.52,1.25-5.37,9.18-4.98,9.55ZM381.83,453.28c-.9-.63-2.49-.48-3.54-1.07-3.85-2.18-4.22-2.18-8.29-3.77-5.74-2.23-5.69-6.41-9.73-10.16l-8.01,1.31c16.19,33.56,18.52,91.51-5.7,121.61-.72.89-5.83,5.22-4.94,6.05,17.04,2.41,29.09-12.74,35.36-26.69,1.28-2.85,5.93-18.29,6.84-18.69.26-.12,1.78-.26,1.78.36-1.35,9.98-5.2,19.46-10.06,28.24l-9.8,12.53c7.33.01,13.89-5.69,18.45-10.97,18.67-21.59,16.62-56.84,6.71-81.92-1.31-3.31-6.61-15.11-9.07-16.82ZM222.05,471.1c-3.21,4.18-.27,5.49,4.15,6.95,9.96,3.27,32.53.85,30.13-13.82-.6-3.66-6.41-14.18-10.7-13.84-1.49.12-5.52,3.33-6.87,4.45-4.02,3.34-13.63,12.26-16.71,16.27ZM328.43,466.24c-8.3-9.04-20.08-25.66-27.97-5.74-6.84,17.28,16.76,21.34,28.78,17.43,10.71-3.49,4.01-6.45-.8-11.69ZM545.87,489.23c.75.72,15.71-7.74,16.65-9.94,1.71-4-2.58-12.66-3.18-17l-5.29,13.49-8.17,13.45ZM313.7,534.16c6.87,6.34,2.93,11.7,16.05,3.86,17-10.15,21.66-29.84,10.48-46.29-.41-.19-6.37.94-7.3,1.24-5.65,1.86-5.88,14.27-11.95,17.84-3.49,2.05-15.95,4.47-20.17,4.66-10.13.45-6.5-9.35-13.17-13.05-3.18-1.77-17.72-1.8-20.71.27-3.32,2.29-3.51,11.2-7.56,12.47-3.83,1.2-21.68-2.38-25.24-4.62-4.98-3.14-5.92-15.51-11.09-17.28-1.3-.45-8.14-1.59-8.99-1.06-6.51,13.37-7.85,26.43,2.03,38.52,3.35,4.1,11.99,10.33,17.17,11.25s8.67-10.32,17.23-10.9c13.58-.93,13.82,12.84,26.22,14.21,13.89,1.54,14.62-5.87,23.02-11.73,4.25-2.96,10.05-2.99,13.97.63ZM254.01,536.06c-1.06.08-.82,1.39-.75,2.13,1.65,16.44,10,38.94,29.82,37.55,14.75-1.04,21.6-24.53,22.04-36.87.04-1,.52-1.29-.77-2.12-1.23-.26-7.6,7.22-9.23,8.49-9.94,7.77-23.41,7.23-32.63-1.38-1.94-1.81-5.8-8-8.5-7.8Z"/>
  <path d="M433.69,235.51c26.99-1.36,31.66,44.31,3.32,47.35-29.92,3.21-30.94-45.96-3.32-47.35ZM425.82,242.58c-7.56.74-8.1,14.89,1.92,13.28,7.56-1.21,5.44-14-1.92-13.28Z"/>
  <path d="M339.36,231.26c10.77-.53,17.47,10.25,17.19,20.04-.37,13.05-12.08,27.81-26.09,22.49-18.66-7.08-11.05-41.56,8.9-42.53ZM345.68,238.32c-7.14.68-6.85,12.25-.17,12.68,8.4.55,8.36-13.46.17-12.68Z"/>
  <path d="M486.17,294.38c28.65-1.01,33.93,44.85,2.39,52.1-36.63,8.42-36.67-50.89-2.39-52.1ZM486.83,299.35c-16.72.64-27.61,22.13-17.87,35.94,9.66,13.7,31.79,5.11,35.58-9.72,2.95-11.55-4.27-26.74-17.71-26.22Z"/>
  <path d="M402.64,289.27c8.27,1.57.28,10.95-4.5,12.87-8.82,3.55-14.59-.89-21.4-5.81-7.26,4.54-17.01,7.89-23.38-.05-1.7-2.12-4.55-8.13-2.34-10.41,3.47-3.58,4.35,5.07,6.19,7.27,7.22,8.61,14.91-3.02,20.15-2.49,3.54.36,8.32,7.69,14.24,7.86,5.6.16,9.88-3.91,11.03-9.25Z"/>
  <path d="M372.61,278.74c.77-.1,6.47.62,7.33.89,5.88,1.85-.89,6.66-7.53,3.99-3.39-1.37-3.16-4.42.2-4.88Z"/>
  <path d="M235.06,358.22c11.94-.43,15.17,18.15,4.43,23.58-17.26,8.72-21.57-22.96-4.43-23.58ZM243.71,368.89c0-2.62-2.12-4.74-4.74-4.74s-4.74,2.12-4.74,4.74,2.12,4.74,4.74,4.74,4.74-2.12,4.74-4.74Z"/>
  <path d="M278.31,351.11c15.79-4.05,16.91,22.62,4.15,21.08-9.9-1.19-13.78-18.61-4.15-21.08ZM276.15,358.12c-3.61.89-1.66,8.09,1.69,7.39,5.04-1.06,2.48-8.41-1.69-7.39Z"/>
  <path d="M271.94,376.29l1.94-4.06c4.2,3.93-.77,8.99-5.59,8.47-1.49-.16-3.11-1.39-4.35-1.34-2.3.1-4.84,4.86-10.26,2.42-2.56-1.15-3.58-6.02-1.07-6,.98,0,1.8,5.46,7,2.73,1.02-.54,2.99-2.79,3.25-3.85.43-1.74-2.24-.7-2.79-2.09.81-1.41,3.52-2.79,4.64-1.07.59.9-.58,2.12-.32,3.09.52,1.97,5.84,3.6,7.56,1.7Z"/>
  <path d="M267.85,387.11c.72,3.93-3.78,6.25-6.37,3.18l6.37-3.18Z"/>
  <path d="M191.1,411.07c-2.59.73-9.63,9.64-11.9,7.94,2.54-4.77,7.3-8.3,12.05-10.63l-.15,2.69Z"/>
</svg>