<?xml version="1.0" encoding="UTF-8"?>
<svg id="katman_1" data-name="katman 1" xmlns="http://www.w3.org/2000/svg" viewBox="0 0 841.89 595.28">
  <path d="M321.84,153c6.75-2.1,13.19-5.65,19.99-7.87,39.93-13.07,86.74-9.91,122.51,12.82.43.2.87.29,1.34.17.79-.2,8.72-10.98,10.2-12.69,27.84-32.17,69.36-56.54,109.61-69.83,9.86-3.26,24.75-8.05,34.87-8.81,10.02-.75,12.3.94,8.94,10.67-3.7,10.73-12.31,24.68-18.51,34.36-25.3,39.48-61.38,75.37-105.06,93.79-.47.25-.55.6-.57,1.1-.04,1.35,5.76,13.54,6.74,16.28,10.16,28.15,12.24,61.08,6.86,90.47-1.38,7.57-5.78,15.82-1.79,22.84.31.54,4.28,4.55,4.59,4.62l25.81-29.87c34-35.01,73.37-68.61,117.89-89.57,1.71-.81,7.79-3.75,9.11-3.55,1.67.25,2.45,3.57,3.01,5.08,10.62,28.53,15.52,74.46,16.28,104.98.08,3.27.57,14.24-.13,16.58-.27.89-1.06,1.3-1.87,1.58-30.32,8.39-60.59,17.81-89.14,30.99l21.02,30.78-.59,1.69-18.39,7.77c-.73.98,11.35,18.46,12.76,20.85.92,1.57,3.7,6,3.38,7.51l-30.27,11.25c-.5.61-.14,1.16.01,1.77.75,3.07,6.32,10.77,8.09,14.35.63,1.28,1.55,2.48,1.43,4.03-.67.74-16.66,3.87-19.3,5.13-.53.25-1.14.3-1.34.99-.67,2.03,6.72,18.45,7.3,22.48.12.85.35,1.67-.12,2.48l-22.73,3.7-11.49,18.97c-.38,1.13,2.41,1.24,3.22,1.35,15.56,2.2,34.27,3.81,49.04,9,32.34,11.36-13.49,20.54-23.98,22.52-43.01,8.14-91.15,11.02-134.92,12.2-64.18,1.73-131.08.29-194.72-8.66-14.4-2.03-39.19-5.61-51.89-11.89-2.53-1.25-6.33-3.32-5.92-6.67.73-5.99,20.41-9.35,20.58-11.53-12.55-18.31-21.72-40.06-26.63-61.78-1.2-5.31-5.21-16.86.31-20.39,1.26-.8,3.27-.79,3.39-.92.74-.78-.35-7.2,4.73-8.78,3-.93,4.97.94,5.88.7.66-.17.96-1.43,1.55-1.89,6.76-5.15,10.21,2.74,14.08,7.1l7.06-6.07,3.97-18.84c-7.34-5.64-15-13.3-15.97-23.06-3.1-31.16,22.92-52.18,50.57-58.9.18-2.08-1.78-3.38-2.76-4.99-12.32-20.11-11.73-35.5.45-55.68l-2.3-20.04c.05-17.35,2.55-34.38,8.68-50.6-20.09-56.54-7.35-119.98,26.51-168.27,5.85-8.35,13.95-18.87,21.72-25.4,12.98-10.91,14.34,1.54,15.52,12.66,2.34,22.13,1.42,47.35-.57,69.53-1.55,17.25-3.98,34.61-8.04,51.43ZM275.86,89.21l6.9-16.66c-1.58,1.25-2.51,3.73-3.36,5.54-1.18,2.5-3.19,6.77-3.95,9.27-.17.57-.63,1.97.41,1.85ZM315.94,157.45c2.14-12.45,7.44-27.03,5.85-39.74-.92-7.38-12.4-32.58-17.2-38.55-.45-.56-.9-1.28-1.76-1.19-.79.08-6.4,3.21-7.61,3.9-6.07,3.46-22.13,14.52-24.81,20.59-2.9,6.54-5.53,20.08-6.54,27.36-2.88,20.79-2.3,55.35,5.25,75.06.21.55,1.24,1.83,1.57,1.58,9.54-20.4,26.42-37.03,45.25-49ZM479.3,209.32c-.17-.92.19-1.25.99-1.59,1.77-.75,5.95-.98,8.21-1.56,22.13-5.72,42.31-17.87,60.26-31.68,10.54-26.06,17.25-53.93,17.86-82.13.02-.91.51-1.89.49-2.41-.07-2.85-6.67.77-8.32,1.48-13.68,5.88-28.97,14.66-41.17,23.2-25.49,17.84-47.42,40.86-60.45,69.43-.36-6.88,2.48-13.78,5.39-19.96l-.18-1.3c-45.33-29.05-112.14-26.92-154.85,6.08-33.11,25.57-47.5,62.26-43.71,103.96.28,3.06,2.29,9.41,1.71,11.97-.1.46-1,.4-1.31,1.11-9.35,21.44-13.43,33.29,2.22,53.83,2.54,3.34,14.23,14.86,17.91,15.46,2.16.36,11.79-4.49,14.96-5.48,13.58-4.25,28.49-4.98,42.65-4.76-.65-2.82,1.46-6.84,1.05-9.34-.1-.64-5.3-11.08-5.71-11.58-1.02-1.28-4.29-1.07-6.26-1.79-2.88-1.05-4.91-4.16-5.18-7.17,2.8.87,3,4.04,6.3,4.9,8.52,2.22,12.85-3.53,18.59-8.26,10.14,6.06,24.69,10.9,33.04-.46l-1.32-2.51c2.78.3,5.23,1.83,7.17,3.75l-3.48.53c-1.97,1.37,3.24,12.97,3.8,15.81,1.32,6.67.97,14.14.11,20.87-.23,1.81-2.34,8.17-1.64,9.23,8.34,4.96,17.29,9.29,24.21,16.24,7.65-2.24,15.2-5.02,22.97-6.94,12.47-3.08,25.1-5.07,37.93-3.15.14.81-1.02.83-1.59.98-7.74,1.89-17.38,2.04-25.54,3.77-18.33,3.89-38.76,11.68-54.31,22.12-2.43,1.63-10.05,8.33-12.01,8.58-.67.08-1.53-.46-2.16-.34-2.55.5-9.96,2.23-7.54,6.27,1.07,1.79,5.57.41,4.89,1.99-2.8,2.99-6.21,5.71-7.45,9.79l1.13,1.71c3.23,1.56,7.17-2.08,10.34-2.58l-5.19,6-1.04,3.94c2.47,3.52,6.29,1.64,9.68.97-1.81,2.78-3.06,5.79-1.59,9.05,2.9,3.08,8.17-1.36,9.8-.93.59.15,2.63,2.1,3.69,2.68,18.41,10.19,44.82,9.57,64.54,3.57-3.9,4.16-8.19,7.12-13.79,8.62-1.62,2.19,13.56,2.33,14.65,2.29,9.75-.41,19.18-3.55,27.9-7.73l12.05-7.2c-3.75,4.46-9.01,7.18-14.17,9.68-11.92,5.78-24.84,9.79-38.13,10.43.1,2.36-1.93,13.74.88,14.37.95.22,6.98-6.64,8.31-7.77,13.5-11.36,35.68-16.44,52.87-12.92-1.09,1.82-4.25.95-6.03,1.15-15.79,1.78-30.42,4.83-43.09,14.95-2.27,1.81-10.38,9.45-9.83,12.06,9.53,17.55,15.4,37.27,14.12,57.46l-4.3-20.12c-4.65-16.21-10.36-33.91-19.82-47.99-1.35-2.01-5.12-8.15-8.07-6.33-2.9,4.33-.91,10.58.18,15.37,1.18,5.22,3.37,10.15,4.42,15.39l-3.88-6.74c-3.12-5.45-4.94-23.71-10.63-26.15-7.9-3.4-2.84,12.47-1.99,15.78,1.05,4.11,2.81,8.32,3.75,12.35.12.53,1.25,1.37-.18,1.89s-8.8-23.58-12.51-25.44c-4.16-2.09-2.82,6.98-2.44,8.8,1.78,8.68,6.62,16.83,7.19,25.84l-8.71-19.73c-.87-1.33-3.94-4.79-5.4-2.71-1.72,2.45,6.21,19.8,7.5,23.6,4.16,12.33,7.2,25.02,12.45,36.98,6.4,14.6,25.28,49.31,39.29,20.49.33,2.97-2.34,5.46-3.16,8.04,1.4,1.24,14.2-6.71,16.27-8.15,3.91-2.72,7.48-5.92,11.03-9.08.72-.23,1.15.14.85.85-.6,1.41-4.02,2.61-3.44,4.89.59.59,4.07-1.7,4.59.57-2.84.67-7.18,1.8-9.61,3.31-.6.37-1.01-.03-.73,1.29,30.51.96,57.73-13.21,74.14-38.78,10.78-16.79,15.83-38.17,16.68-58.03.11-2.52.31-15.41-.55-16.61-2.69-1.38-23.57-4.34-23.6-6.4l20.99-11.21-5.21-20.68c-.54-.83-.73-.52-1.45-.34-2.27.58-6.45,3.09-9.19,4.04-4.65,1.61-14.25,4.75-18.8,5.37-1.11.15-1.71.28-2.44-.76l23.46-25.41-.21-2.42-9.74-16.08c-1.54.44-1.78,1.89-2.86,2.85-4.19,3.76-9.2,7.75-13.93,10.79-3.68,2.37-8.46,5.67-12.82,5.85-.84-.82,6.97-19.03,7.88-21.71,1.25-3.73,4.94-14.92,4.8-18.22-.1-2.21-9-11.53-10.67-11.81-1.11-.19-.73.28-1,.75-1.53,2.58-1.97,6.25-4.45,7.89.72-4.3,2.79-9.16,2.88-13.53.07-3.24-1.91-5.31-1.71-7.93.32-4.19,2.97-10.63,3.85-15.17,5.74-29.56,3.1-71.64-10.67-98.81-.87-1.71-3-5.98-4.91-5.91-2.79.1-6.34,1.75-9.85,1.75-3.12,0-5.83-1.2-8.91-1.19ZM672.96,224.26c-.96-.93-10.02,3.85-11.7,4.68-15.01,7.5-30.58,17.28-44.23,27.03-34.35,24.56-65.67,55.63-91.69,88.79,15.5,17.17,28.8,36.08,37.6,57.61l23.78,27.95c.22.53-1.49,1.91-1.86,2.12-2.62,1.55-11.53,4.15-12.18,7.24-.54,2.57,1.36,11.62,1.44,15.28.11,5.12-.27,10.16-.92,15.23l.64,1.18,14.64-4.6c.72-.78-6.75-10.27-5.75-12.64l30.99-11.27c.45-2.01-16.09-23.81-16.04-26.39.02-1.02.82-1.42,1.52-1.91,3.69-2.59,10.89-4.25,15.17-6.67.65-.37,2.31-1.09,2.05-2.07l-20.15-28.17c-1.88-1.48-3.92,1.71-6.06.33,30.63-16.24,64.16-26.17,97.31-36.01l.88-.85c.52-31.9-2.69-64.06-9.87-95.14-1.68-7.29-4.11-14.39-5.57-21.73ZM353.21,324.6c-8.98,7.97-9.43,20.31-5.77,31.25,4.42,13.24,20.22,29.41,31.19,12.28,7.23-11.29,11.23-30.36,7.27-43.27-2.97-9.68-4.04-5.51-10.31-3.44-2.71.9-5.26,1.02-7.98,1.65-4.25,6.23-5.82,11.54-7.19,18.82-.15.8.37,2.27-.94,1.92-2.07-.57,3.06-18.9,4.86-20.94-4.53-3.15-7.59-1.42-11.14,1.74ZM275.05,354.38c-2.42-1.38-4.82-5.49-7.64-5.87-2.03-.27-9.48,2.08-11.8,2.9-15.34,5.46-31.42,17.51-36.66,33.45-3.61,10.97-3.09,24.28,6.64,31.9.79.62,3.4,2.73,4.32,2.07,1.93-5.42,3.92-10.79,6.46-15.97.86-1.76,4.7-7.4,4.93-8.35.42-1.74-1.78-1.91-1.64-3.6,5.08,3.35,3.95-1.61,5.46-3.44,1.43-1.72,8.21-2.03,5.77-8.09l-3.19-1.1c4.03-3.13,6.85,2.48,10.25-2.1,3.66-4.93-2.18-8.97-1.64-9.39,4.49.2,4.55,5.88,9.16,2.54,4.39-3.19,1.92-7.03-2.6-7.66-2.11-.29-5.37.83-6.56-1.2,2.14.65,3.81-.88,5.49-1.12,4.01-.59,7.53,1.31,10.79,3.34l6.71-4.24-4.26-4.06ZM385.21,364.65c-11.75,29.76-40.07,9.68-42.98-13.37-.27-.52-.69-.88-1.25-1.05-2.03-.6-12.63-.3-15.43-.14-40.24,2.28-78,30.61-90.24,69.03.6,2.72,15.73,9.1,18.9,10.4,8.81,3.61,17.95,6.32,27.03,9.14,17.61-29.98,64.16-21.33,67.06,14.29,24.38,4.34,49.13,3.52,73.83,3.46,2.3-.5,5.46,3.14,6.42,3.39,1.1.29,2.2-.88,3.37-1.06,4.43-.66,5.69,1.94,9.44,2.85l-.57-8.62c-15.24,1.66-32.03-.08-45.57-7.58-1.43-.79-3.59-3.01-4.85-3.25-1.78-.33-3.56,1.09-5.61,1.1-5.73.05-8.9-4.24-8.39-9.76-2.71-.52-6.6-1.33-7.3-4.48-.27-1.21.16-3.5-.21-4.1-.2-.33-3.99-1.21-4.78-2.97-2.42-5.37,3.66-9.2,3.72-11.18.07-2.33-5.17-5.1-.37-9.88,3.36-3.35,8.52-2.46,11.86-3.94,2.2-.98,9.08-7.64,12.13-9.7,4.96-3.35,10.61-5.75,15.44-9.31-5.09-6.13-13.12-9.83-20.04-13.75l-1.62.46ZM573.21,422.29c-1.76-2.04-3.09-4.56-5.41-6.08l4.32,17.24,7.14-4.31c-1.83-2.45-4.07-4.56-6.05-6.85ZM301.73,470.23c5.22,1.23,8.25,3.8,14.07,3.43,25.23-1.58,21.87-41.75-5.67-39-24.41,2.44-25.95,37.25-3.1,44.34,25.36,7.87,43.77-20.96,27.45-41.24-14.98-18.6-45.39-10.37-49.83,12.79-2.85,14.89,6.69,28.14,20.82,32.3l.86-1.13c-13.77-5-21.82-19.8-16.37-33.91,6.45-16.7,29.48-21.68,40.75-6.85,15.57,20.49-9.66,45.65-28.97,29.26ZM398.84,476.55c-17.78.09-35.57-1.13-53.12-4.04-1.92.24-2.13,2.52-3.19,3.75-14.51,16.8-40.54,19.73-56.04,2.59-5.35-5.92-7.63-13.22-9.71-20.74-10.85-3.23-21.75-6.44-32.15-10.95-2.69-1.17-11.29-6.3-12.99-6.58-.6-.1-.88.1-1.2.58-.49.72-1.1,8.65-1.15,10.36-2.42,90.5,105.12,138.82,175.49,86.99,1.66-1.22,6.6-5.05,7.68-6.39,2.53-3.13-2.98-12.03-3.28-15.93-3.05,3.09-5.17,7.12-9.18,9.19l5.98-7.52,2.59-4.24-9.46-27.87c-.61-3.22-1.22-5.98-.27-9.21ZM209.58,447.44c-.97-.93-2.45-1.57-3.8-1.33-1.45,4.82-.04,9.28,1.29,13.9,1.46,5.06,3.95,9.83,5.58,14.82l-2.55-2.91c-3.49-3.8-7.49-20.94-11.25-22.66-.95-.44-1.84-.6-2.58.28-3.61,4.31,4.87,21.37,6.61,26.43-.81.81-3.9-4.05-4.26-4.64-2.02-3.25-3.9-9.11-6.07-11.74-.84-1.03-2.71-1.85-3.47-.43-2.58,4.84,6.1,20.29,8.62,25.15-1.65.93-2-2.4-3.44-2.59,1.4,8.11,4.81,16.29,8.04,23.85,5.9,13.81,14.81,30.52,25.85,40.81,14.26,13.29,24.79,7.45,27.6-10.64l1.13.28c-.71,5.04-2.54,9.5-4.58,14.09,4.77-2.58,9.3-5.73,11.92-10.64-1.96-1.83-3.94-3.63-5.89-5.47-12.3-11.6-22.46-26.99-28.3-43.51-2.03-5.74-3.07-11.27-5.5-16.92s-11.21-22.51-14.96-26.13ZM224.14,463.91v-11.49c-5.84,2.95-3.87,7.72,0,11.49ZM396.55,551.26h24.42c.13,0,1.84-.59,1.37-1.35-2.15-3.74-3.86-7.69-5.63-11.62-.23-.51.35-1.04-.92-.84l-19.24,13.81ZM268.97,543.78l-3.69-2.86c-.79,1.48-4.98,4.63-1.6,4.19,1.76-.23,3.47-1.31,5.3-1.33Z"/>
  <path d="M199.43,244.67c.65,5.75,4.72,13.24,10.12,15.74,1.92.89,9.64,1.72,8.84,4.36-.3.99-8.44,1.34-9.9,2.75-6.15,3.2-8.09,9.17-9.94,15.34-.61,2.04-.12,6.07-3.16,6.08-1.81-.87-2.53-9.83-3.48-12.63-1.63-4.83-4.05-8.42-8.4-11.14-1.94-1.21-8.81-3.36-8.82-5l.98-1.34c10.36.92,14.33-3.9,17.71-12.74.85-2.24,2.68-10.51,3.46-11.48.91-1.13,2.58-.34,2.58.28,0,3.03-.32,6.88,0,9.77ZM202.55,267.63c1.94-1.71,4.04-2.52,6.07-3.99-6.31-3.15-10.56-8.84-11.77-15.8-3.63,5.6-6.02,11.22-12.93,13.5,6.02,3.74,11.25,9.48,11.49,16.96h1.72c-.16-3.49,2.88-8.43,5.41-10.66Z"/>
  <path d="M222.28,278.42c.73.92,1.83,5.56,2.79,7.27,1.42,2.54,3.39,4.61,6.39,5.1,2.55.42,5.41-.76,7.03,1.57-4.22,3.16-8.7,1.91-9.2,8.6-.14,1.83,1.84,10.9-2.56,7.2-2.01-1.68-3.08-6.43-6.65-8.86-1.75-1.19-7.92-2.55-8.03-2.99-.1-.38-.08-1.58.1-1.86,9.1-1.43,8.5-8.33,7.37-15.79l1.48-.69,1.29.46ZM229.31,293.24c-2.58-.41-4.34-2.21-6.03-4.02l-3.73,6.02,6.02,4.89,3.74-6.88Z"/>
  <path d="M219.75,335.56c3.68,3.98,7.12,1.08,10.72,3.94.38,1.62-4.05,2.28-5.13,2.91-4.29,2.5-2.68,6.58-2.89,10.78l-1.57.84c-2.48-.09-3.1-7.73-8.65-8.94-1.58-.35-6.87-.12-7.62-1.58-.27-1.13.44-.8,1.12-1.14,6.3-3.23,7.75-1.91,7.52-10.37-.05-2.02-1.59-4.43.27-6,1.06-.18,1.38.12,1.94.92,1.58,2.26,2.16,6.35,4.29,8.64ZM221.84,340.36c-2.19-.19-3.43-2.08-4.88-3.44l-3.15,4.88c.71,1.06,2.1.85,3.02,1.45.71.46,1.8,2.98,2.71,2.28l2.31-5.16Z"/>
  <path d="M431.49,240.53c35.53-2.25,41.88,54.45,6.66,58.38-39.32,4.4-41.7-56.16-6.66-58.38ZM435.68,259.1c0-6.66-5.4-12.05-12.05-12.05s-12.05,5.4-12.05,12.05,5.4,12.05,12.05,12.05,12.05-5.4,12.05-12.05ZM444.69,273.25c-11.21,1.23-12.97,17.35-2.41,18.78,14.09,1.9,17.29-20.42,2.41-18.78Z"/>
  <path d="M286.99,298.77c-11.02-11.68-10.1-37.7,4.57-45.88,22.9-12.76,39.23,31.09,19.94,47.53-7.68,6.54-17.71,5.57-24.51-1.65ZM304.43,258.3c-2.99.68-5.58,6.5-5.57,9.36,0,5.16,4.15,10.73,9.48,11.21,14.79,1.33,9.14-23.53-3.9-20.57ZM306.7,298.78c6.14-6.27-4.3-16.83-10.66-10.95-6.62,6.12,4.12,17.63,10.66,10.95Z"/>
  <path d="M454.82,346.44c-29.17-22.92,12.2-71.18,35.64-41.67,19.84,24.99-11.55,60.59-35.64,41.67ZM456,305.53c-25.82,26.72,12.48,62.04,33.21,32.94,17.18-24.12-11.91-54.98-33.21-32.94Z"/>
  <path d="M265.72,306.65c8.37-7.74,18.97,3.73,23,10.8s7.48,21.24,4.66,28.64c-4.48,11.76-18.32-1.28-22.67-6.6-6.22-7.61-13.69-24.77-4.98-32.83ZM270.54,306.58c-1.44.3-3.24,1.61-4.12,2.78-8.17,10.88,5.18,32.49,15.36,38.01,13.41,7.27,10.46-13.78,8.29-20.93-2.17-7.14-10.59-21.7-19.53-19.86Z"/>
  <path d="M536.97,175.62c-4.29,4.11-9.96,8.97-14.94,12.35-2.55,1.73-5.53,3.21-8.24,4.69-.37-1.5.49-1.01,1.08-1.48,4.4-3.49,9.95-6.31,14.55-10.04,9.63-7.81,17.23-17.98,24.31-28.13.8.41.03,1.5-.26,2.04-3.67,7.04-10.8,15.11-16.5,20.57Z"/>
  <path d="M453.44,162.77l-20.02-8.99-22.5-6.51c6.83,0,14.17,2.11,20.66,4.33,7.32,2.51,16,6.2,21.87,11.17Z"/>
  <path d="M542.51,513.33c.35.4-2.57,5.53-3.09,6.39-5.41,9.11-15.2,19.09-24.2,24.65-1.68,1.04-4.1,2.53-6.04,2.86,10.09-7.03,19.75-14.33,26.91-24.52,1.85-2.63,3.21-5.61,4.93-8.31.23-.36.65-2.05,1.49-1.07Z"/>
  <path d="M345.96,297.26l1.35,1.64,2.69-1.09-.58-1.71c12.71-.99,2.36,8.39-4.18,5.04-.65-.33-1.24-.68-1.51-1.41-.48-1.03,1.45-3.03,2.23-2.47Z"/>
  <path d="M507.47,325.98l6.31-30.45c-.92,9.29-2.07,19.66-5.09,28.52-.26.75-.16,1.75-1.22,1.93Z"/>
  <path d="M539.31,472.29c1.2,1.48,2.41,2.73,3.2,4.55l-1.13.28c-2.68-5.54-8.19-8.7-12.08-13.21,4.06,1.65,7.31,5.05,10.01,8.38Z"/>
  <path d="M597.11,444.36c-6.4,2.04-12.35,6.42-18.96,7.47l3.8-2.22c4.35-1.41,9.32-4.78,13.57-5.99.97-.28,1.19-.43,1.58.74Z"/>
  <path d="M595.95,442.64l-6.05-7.44-.83-2.33c2.6,2.67,5.88,6.15,6.88,9.77Z"/>
  <path d="M389.08,534.6c-10.25,9.32-25.44,15.73-38.94,18.8-1.96.45-6.12,1.72-7.6.44,7.97-1.43,15.84-4.15,23.47-6.98l23.08-12.26Z"/>
  <path d="M304.6,364.49l-31.65,19.21c-1.14,1.52,1.24,3.97.35,7.23-.46,1.67-4.42,7.13-6.62,6.59,2.7-2.79,8.49-7.83,3.66-11.16-4.42,1.59-6.78,6.19-9.81,9.01-.64.59-.37,1.03-1.89.71,3.97-10.41,16.69-18.2,26.14-23.57,5.96-3.38,13.03-7.27,19.83-8.03Z"/>
  <path d="M255.04,400.27c9.02-1.35,9.55,9.44,4.47,14.8-1.35,1.42-5.03,3.71-6.97,3.96-11.65,1.5-7.89-17.21,2.5-18.76ZM255.04,401.37c-5.83.95-11.52,11.01-6.49,15.43,4.51,3.96,12.18-3.83,12.83-8.5.49-3.48-2.59-7.54-6.35-6.93Z"/>
  <path d="M310.91,157.03l-.44-1.87,9.06-31.45c-.93,11.59-4.1,22.69-8.62,33.32Z"/>
  <path d="M327.09,455.23c0,8.37-6.78,15.15-15.15,15.15s-15.15-6.78-15.15-15.15,6.78-15.15,15.15-15.15,15.15,6.78,15.15,15.15ZM324.85,455.32c0-7.19-5.83-13.01-13.01-13.01s-13.01,5.83-13.01,13.01,5.83,13.01,13.01,13.01,13.01-5.83,13.01-13.01Z"/>
</svg>