<?xml version="1.0" encoding="UTF-8"?>
<svg id="katman_1" data-name="katman 1" xmlns="http://www.w3.org/2000/svg" viewBox="0 0 841.89 595.28">
  <path d="M630.3,531.29c-2.68-1.25-4.63-1.81-7.69-1.39l2.1,3.48-7.69-1.4c.44-1.83,2.09-.41,3.17-1.31.84-.7,1.06-2.41,2.2-2.8,1.77-.6,3.95.93,5.82.61.04-1.12.25-2.26-.68-3.16-1.08-1.05-11.06-4.49-13.15-5.03-3.05-.79-7.94-2.13-10.96-1.57-1.52.29-4.1,2.36-5.99,3.1-37.26,14.57-72.5,17.08-110.65,25.73-4.4,1-11.12,1.88-13.83,5.4l6.99.7c-2.56.36-6.24-.56-8.6.15-3.16.95-4.66,5.72-11.34,5.52-5.63-.17-7.01-6.42-12.93-4.96l2.78-1.74c-3.29-4.05-9.61-2.33-14.12-1.54-6,1.05-18.02,5.84-23.48,3.53-4.07-1.72-.54-9.96-2.22-11.12-5.65-.91-23.46.13-27.36-3.4s2.48-8.54,1.44-9.49l-133.1-6.33-1.05,1.9.92,1.61c6.82-3.61,16.01-1.7,7.35,6.3l4.19,1.42-10.49,2.78,8.39-9.42c-5.2-3.63-10.8,2.08-14.68,5.23l2.08-11.19-7.68,6.99c-.79-2.19,3.65-12.08,1.03-12.59-6.95,1.42-6.69,8.92-6.64,14.69-1.43-1.92-11.34-10.19-12.55-5.88-.48,1.68,4.33,7.94,5.43,9.87.35.61,1.53,1.77.5,2.3l-9.41-5.65.63-1.29c-14.97-11.68-31.64-1.12-46.66.48-10.61,1.13-3.9-9.19-5.05-10.32-31.72,5.13-5.42-18.87,4.12-27.05-1.05-7.91-3.66-15.62-4.15-23.63-1.1-17.81,3.98-43.13,10.02-59.97,1.5-4.17,9.87-19.99,10.01-21.89.04-.48-.25-1.23-.59-1.56-26.1-16.14-61.45-43-50.91-78.19,1.45-4.83,6.91-12.98,7.57-16.21.99-4.87.32-12.22.87-17.32,2.64-24.52,11.46-48.25,25.02-68.69-1.89-23.21.37-46.89,8.04-68.89,3.31-9.51,3.5-14.58,14.82-13.83,20.65,1.37,44.14,13.84,62.29,23.04l34.58-7.48c9.94-39.63,52-54.85,87.95-62.24,22.99-4.72,74.91-8.52,90.04-26.76,2.72-3.27,7.9-16.65,8.72-17.15,3.83-2.32,6.98,3.19,9.45,5.24,1.62.01,3.88-12.75,7.73-13.3,5.32-.75,8.12,8.44,10.44,8.46,4.53-3.16,15.98-14.15,21.54-12.5,4.27,1.27,5.41,14.14,7.16,14.55,3.89-2.07,13.79-10.88,17.8-7.32,2.27,2.01,2.9,12.33,3.52,15.71.79.82,14.65-8.83,17.14-3.51.11.24,1.04,4.99,1.04,5.25v18.18c0,.26.93,1.05.71,1.75,3.9-1.12,16.43-5.33,18.52-.69,1.4,3.11-4.61,14.58-5.16,19.29-1.62,13.76,6.48,24.02,14.63,34.17,17.01,21.19,34.41,36.65,46.04,62.36,20.26,44.8,13.92,97.57-28.76,126.29-2.49,1.68-11.23,5.89-12.38,7.2-.61.68-.92,1.06-.75,2.06,37.45,30.73,87.14,93.46,61,144.22-1.61,3.13-5.99,8.01-6.79,10.69-.34,1.13-1.84,10.91-1.67,11.46.25.81.92,1.1,1.7,1.15,5.33.03,10.78.21,16.08.71,3.76.35,24.81,2.54,26.26,3.86.57.51.14,1.55.34,1.77,1.3,1.41,14.67,1.95,15.7,3.47.23.33.01,1.6-.31,2.12-1.5,2.37-22.65,7.63-26.52,9.19l-.43,1.97c-5.42-1.9-10.6,1.8-16.14,1.7-.98.64-.44,3.2-1.01,4.58-1.94,4.62-11.32.76-14.78.75-3.24,0-13.04,10.33-14.24,13.95-1.27.17-.64-1.51-.38-2.13,1.69-4.02,5.82-8.3,8.78-11.51l-1.05-1.74h-11.89l-.94,1.16c-1.19,3.75,2.35,10.97,1.98,11.43-1.2,1.45-1.37-1.32-1.75-1.4-1.6-.33-.93,2.28-1.73,1.4-1.39-1.52-5.4-11.45-5.6-13.98l2.1,3.49c.93.18.74-.25.69-1.03-.12-1.93-2.11-7.09-3.18-8.72-3.64-5.54-10.64-5.71-15.35-1.43-2.09,1.9-5.52,7.36-3.89,9.99.63,1.01,15.54,7.63,16.42,7.45l2.5-6.26v16.09ZM519.09,28.46c-1.63-1.15-14.97,9.44-15.39,12.58-1.89.5-1.46-1.43-2.46-2.75-.8-1.06-6.44-7.71-6.97-7.72-5.03,7.31-6.82,16.07-12.24,23.42-15.74,21.35-60.19,25.02-84.77,31.32-20.28,5.2-44.83,13.52-61.03,27.09-7.46,6.24-17.07,16.05-15.45,26.6,1.25,1.77,15.36,1.11,18.22,1.36,16.13,1.38,32.95,4.46,48.21,9.78,4.97-2.59,9.9-5.19,15.09-7.33,6.99-2.88,22.79-6.49,27.91-9.86,2.21-1.45,6.41-7.34,9.14-9.74,26.68-23.47,55.12-27.44,76.53-60.55,1.67-2.58,8.4-13.52,8.8-15.7.26-1.44-3.8-2.44-4.86-2.08-4.37,1.49-11.3,12.14-15.42,15.04.65-2.36,2.7-4.7,4.21-6.62,3.51-4.49,8.39-10.95,14.67-10.17l-4.21-14.67ZM547.07,32.65c-.82-.7-6.48,2.51-7.63,3.21-14.24,8.6-17.5,22.73-26.76,35.48-17.36,23.91-40.69,30.84-63.03,47.47-4.57,3.4-10.13,7.57-13.07,12.45,9.91-1.06,19.84-3.86,29.86-3.89,2.36,0,5.07-.09,6.82,1.84,2.04,2.25,3.41,12.97,3.8,16.48,2.39,21.84-.11,43.82-.65,65.62-.13,5.32-.62,11.51,1.08,16.47,33.11-27.35,48.76-69.73,51.41-111.89.14-.2.89.36,1.05.69.29.57-.26,8.03-.37,9.45-1.85,23.58-9.95,49.53-21.56,70.06-8.84,15.64-33.36,37.13-9.16,51.58,9.7,5.79,21.67,9.87,31.89,15.67,16.16,9.17,30.71,25.52,50.58,21.8.38,1.86-.47,1.2-1.38,1.74-1.31.77-8.83,3.61-7.71,5.24,2.84.82,6.23,4.74,8.91,5.43,7.2,1.86,21.61-6.28,27.38-10.74,8.22-6.35,15.83-16.89,18.95-26.85-2.31,2.41-3.51,6.09-5.42,8.88-.42.62-.4,2.01-1.56.57,22.45-37.59,8.98-81.12-15.81-113.58-16-20.95-42.34-41.54-39.36-70.97.4-3.96,3.4-10.54,3.44-13.35.03-2.52-1.84-6.79-2.11-9.83-.51-5.72.36-12.04-.01-17.82-1.18-1.24-14.62,6.02-15.03,9.09-.62-.58-1.3-1.05-1.58-1.91-.94-2.81-2.26-17.76-2.97-18.37ZM315.45,138.81c7.66-28.77,40.69-43.48,66.74-51.79,25.61-8.17,81.74-13.19,97.73-33.75,5.22-6.72,4.22-8.81-1.03-15.02-5,11.09-8.58,17.81-19.47,23.9-31.56,17.64-81.25,15.67-117.45,30.12-21.44,8.56-43.25,23.91-47.37,48.09l20.84-1.55ZM586.24,67.62c-.66-.61-11.71,1.81-13.3,2.43-5.45,2.14-5.96,17.98-5.57,23.08,1.18,15.44,14.35,35.36,25.15,46.18,3.18,3.19,5.94,3.9,9.79,8.4,28.19,32.93,46.24,86.71,20.32,125.89-9.3,14.05-22.08,21.71-37.07,28.65l12.85,10.15c28.05-10.68,48.47-36.79,53.36-66.32,5.87-35.45-9.1-69.02-30.57-96.27-10.46-13.27-38.38-40.13-40.48-56.03-1.3-9.81,3.05-17.16,5.53-26.16ZM248.37,149.52c-16.89-9.03-35.27-17.06-54.34-20.14-1.62-.26-7.03-1.62-7.9-.48-2.41,3.17-6.12,16.11-7.28,20.53-3.63,13.85-6.55,33.63-5.15,47.83.07.76.31,4.48,1.65,3.93,4.95-5.54,10.38-11.62,16.94-15.23.62-.34,1.75-1.55,2.3-.5-32,28.49-48.02,70.92-46.16,113.65l-2.76-.68c-11.89,21.16-9.49,41.8,12.09,54.66,3.04,1.81,13.57,5.59,14.84,6.84,1.86,1.82,3.4,8.54,6.35,10.48,2.08.64,5.96-5.01,4.45-6.94,1.03-.74,15.84,2.39,18.17,3.16,7.9,2.59,17.29,9.86,25,11.36,7.33,1.43,16.69.82,24.31,1.57,11.94,1.17,25.24,3.77,37.04,4.22,15.84.61,29.92-9.46,46.16-10.55,11.34-.76,22.75,1.29,33.94.04l-2.03,2.36c7.11,11.58,9.94,3.93,15.36-3.38,22.91-3.65,45.32-11.66,63.96-25.56.47-.15.51.66.34,1.04-.91,2.03-6.33,5.22-7.29,6.7-1.52,2.33-1.4,14.3-4.33,15.29-3.71,1.25-7.33-7.76-10.13-7.3-12.63,6.36-26.36,10.74-40.52,11.86-3.45,1.06-5.76,9.32-10.1,9.56s-5.97-5.2-8.93-6.53c-5.43-2.43-27.66-1.39-34.35-.45-10.04,1.4-18.21,5.56-27.56,8.11-14.59,3.99-40.61-1.7-56.46-3.29-5.23-.53-11.52-.13-16.69-.79-10.68-1.36-18.4-8.5-28.26-11.6-2.86-.9-10.56-2.78-13.31-2.85-4-.11-4.09,7.27-9.28,5.87-2.33-.63-5.25-8.46-7.26-10.23-2.28-2-7.35-1.7-9.82-4.15-1.75.05.11,3.88.45,4.43,3.35,5.43,19.23,16.43,25.14,20.32,40.71,26.81,88.81,34.49,137.01,34.69.16,1.22-1.59.66-2.44.69-3.5.14-7.03-.17-10.53-.03-5.67.23-11.71,1.81-17.47,0l-2.08,2.13c-2.87-3.37-9.55-2.24-13.9-2.88-14.82-2.17-29.44-5.11-43.79-9.36-3.38-1-7.14-2.87-10.31-3.68-.67-.17-3.11-.77-2.98.53,17.77,11.47,30.26,28.71,46.52,41.95,32.6,26.56,73.74,42.06,116.04,44.11,2.44.12,16.85.34,17.56-.69-.27-9.09-.1-18.35,1.2-27.48.63-4.41,3.95-13.74,3.9-16.99s-3.54-10.84-4-15.46c-.33-3.32.06-6.72-.08-10.05.84-1.1,1.28-.02,1.4,1.03.74,6.24.47,12.88,3.84,18.55,2.24-3.09,3.04-7.19,4.65-10.74,5.51-12.13,13.5-24.3,23.3-33.34.77-.71,1.23-1.64,2.47-1.37-3.67,4.81-7.96,9.07-11.46,14.06-14.75,20.97-23.63,58.01-22.1,83.49.43,7.22,2.94,14.4,2.14,21.61l.99,1.11c1.26-.79,2.31-1.35,3.87-1.06.74.14,3.39,1.02,2.78,2.48-2.85-2.05-5.04-1.56-7.95-.06-1.85,1.51,3.69,4.78,5.05,6.82,1.91,2.88,3.36,7.29,3.62,10.72,3.2-.07,1.81-4.47,2.39-7.04.39-1.71,1.71-3.52,2.85-4.84l-1.05,5.59c14.57-13.68,24.87,3.91,23.07,18.19h6.29c-1.83-4.35-2.33-9.76.36-13.99,1.08,1.39-2.25,6.01,1.04,5.59,5.59-18.68,30.3-7.95,24.49,9.09,55.74-7.16,67.24-73.67,60.74-119.84-3.2-22.73-12.5-42.96-18.78-64.79l2.92,5.12c2.38,5.21,7.17,20.12,10.03,23.54.27.32.85.97,1.03.71l1.4-9.79c-.04,3.73,1.33,7.91,1.47,11.54.08,2.16-.86,3.93-.72,6.19.23,3.47,3.43,11.08,4.38,15.26,2.39,10.52,4.36,21.57,4.7,32.37.25,7.87-.6,15.63-.73,23.46,15.61-14.6,22.77-35.85,26.37-56.5.84-4.85,1.97-11.08,2.29-15.89.6-8.86-.36-18.32,0-27.28.04-.85-.53-2.6.69-2.44,2.73,32.94-2.19,68.75-20.28,96.87,0,3.18,17.58,17.8,21.68,19.23.13,1.35-2.16.57-2.83.38-2.89-.78-4.78-2.87-7.65-3.19-.19,7.03,1.74,13.8,4.2,20.28,1.66,1.58,1.9-4.31,2.09-4.89,1.66-.13-.41,3.39,1.73,2.8.58-.16.31-.97.87-1.39,10.46-7.77,21.13,2.2,22.52,12.98,6.37-.92,11.5,1.78,17.53,3.09.06-8.04,8.08-16.38,16.29-14.54,3.28.74,3.97,3.95,6.79,4.74l-4.2-8.38,2.67,1.87,4.66,10.71c2.11-1.12,1.43-3.26,2.11-4.89,2.39-5.75,5.73-13.9,12.94-13.98-.31,1.18-2.19.89-3.47,1.77-5.02,3.46-8.53,11.11-9.12,17.11,6.71,1.33,5.72-3.15,8.26-7.47,2.82-4.8,6.34-5.9,10.61-8.96-1.71-1.48-3.6-5.68-4.02-7.85-.45-2.35,1.17-7.15-.52-7.88-1.98,3.28-5.69,5.92-9.04,7.74-.65.35-2.49,1.51-2.49-.04,7.39-4.39,13.73-12.69,18.04-20.08,24.12-41.26-4.57-88.81-32.72-119.47-19.91-21.69-43.92-41.46-68.91-56.97-1.17.75.29,1.53.71,2.08,3.68,4.79,7.69,9.38,10.25,14.93,5.18,11.24,7.2,24.51-10.05,20.54-14.43-3.32-33.94-29.67-44.26-41.06-5.26-5.81-11.76-11.5-16.8-17.46-2.52-2.97-5.13-5.51-4.63-9.7l-7.19-1.42-1.07,1.59c2.24,11.91,3.7,24.16,1.87,36.25-.11.71-.2,2.78-1.2,2.64-.25-15.24-2.35-29.99-5.95-44.76-2.54-10.44-6.09-20.59-9.45-30.77-1.26-.97-4.14,9.98-6.98,9.09,1.39-10.82,5.56-21.19,7.48-32.02,2.71-15.2,3.59-33.35,2.3-48.74-.18-2.15-1.84-15.49-2.74-16.14-17.97-.99-37.31,4.43-54.26,10.17-14,4.74-23.29,9.99-38.27,12.78-2.31.43-4.76,1.83-6.82,1.57,1.73-2.31,5.22-2.42,7.49-3.69.79-.44,1.19.05.9-1.56-37.84-9.8-79.04-10.74-117.1-1.35-7.55,1.86-17.66,6.54-24.52,7.65-3.06.49,2.52-2.88,3.11-3.18,2.55-1.31,5.65-2.27,8.38-3.17l-.04-1.97ZM569.45,317.99c-.61.37-1.1.36-1.74.04-10.67-5.34-20.83-14.38-33.22-14.73,5.75,8.5,16.16,19.22,27.01,20.19,4.44.39,8.65.03,7.95-5.5ZM157.54,360.65c4.39-3.14-2.98-6.73-5.6-8.39l5.6,8.39ZM435.87,355.76c-.38-.43-8.79,3.63-8.91,5.23l5.1,6.68,1.78-.46c1.59-3.57,2.28-7.51,2.04-11.45ZM243.56,520.8c14.67-3.26,25.23-13.12,32.53-25.86,2.45-4.27,7.29-13.68,8.39-18.19.27-1.1.57-1.8.22-3-.41-1.4-10.21-10.3-12.13-12.38-16.55-17.99-31.15-37.79-50.36-53.14-9.27-7.4-19.39-12.9-30.34-17.46-18.04,33.15-25.96,73.96-13.34,110.46l4.18-3.49c-.1,1.83-2.09,2.38-3.17,4.17-.56.93-1.36,1.44-1.01,2.82,5.06-6.68,11.01-4.31,14.95,2.17,2.78,4.57,3.06,8.46,3.88,13.61,3.72.81,7.01-1.36,10.88.32-.08-3.39-1.8-6.63-1.03-10.5l2.08,2.79c3.6-18.24,25.57-8.84,23.09,6.99,1.31.02,3.68-2.92,4.23-3.81.83-1.33.15-3.08,1.36-3.18v3.49c1.78.5,3.95-2.73,5.27-.71l.33,4.91ZM297.63,473.01c-.74-.4-2.2-2.73-4.25-3.12-3.28-.64-2.05,3.25-2.66,4.7-.26.61-1.17,1.16-1.54,1.99-2.95,6.67-5.46,13.52-9.27,19.75l11.77-.81c2.39-7.04,6.41-13.57,11.2-19.23l.1-1.62c-1.64-.58-3.9-.86-5.36-1.65ZM555.32,476.89c-3.06-.75-6.67-8.19-9.63-6.81-.38.18-5.9,5.17-6.21,5.71-1.97,3.45-1.11,8.94-3.56,12.5.63,1.02,1.34.96,2.38,1.07,2.08.22,17.2-.1,17.86-.74l-.84-11.74ZM296.7,495.62c.58.58,14.41.1,16.35-.09,3.39-.33,15.53-2.28,18.13-3.55,2.18-1.07.23-5.02-.88-6.51-2.79-3.72-16.67-6.28-21.32-8.75-3.29.33-13.87,17.3-12.27,18.9ZM337.27,485.84l-4.89-.7,2.44,5.58,2.45-4.88ZM359.65,490.73l-20.51-4.25c-2.62,3.13-3.72,7.39-3.17,11.49l1.04,1.04c3.05,1.01,14.7-2.67,18.27-3.92,2.68-.94,4.98-.67,4.37-4.37ZM656.01,494.36c-4.03,1.02-10.89,8.53-10.04,13.2,3.82.71,20.36,5.27,22.83,3.83.87-.9-.05-2.84-.41-3.85-1.34-3.75-7.84-14.32-12.38-13.18ZM566.02,520.75c1.41.98,21.13-7.02,22.38-8.62,5.29-6.8-10.44-22.69-18.96-12.66-3.66,4.31-5.06,15.9-3.42,21.28ZM156.14,517.3c.67.86,13.14-.12,14.67-1.05,1.18-.72,1.75-3.85,2.52-5.17s2.07-1.83,2.75-3.54c1.31-3.31,2.05-8.79-2.65-9.02-7.33,4.35-13.28,11.3-17.29,18.79ZM194.5,520.71c1.61-5.97-3.29-20.37-11.29-17.95-5.06,1.53-13.11,19.43-12.38,25.04l23.68-7.09ZM220.47,524.29l8.41-.33c7.55-10.78-7.6-26.65-16.81-15.41-6.32,7.73-.22,17.05,8.4,18.55v-2.81ZM412.8,538.99c1.08-5.3-2.5-18.95-8.81-19.58-5.61-.56-16.51,11.86-18.47,17.12.55,2.56,23.85,2.55,27.28,2.47ZM439.29,545.21c2.26-8.69-3.05-25.63-14.53-20.48-7.7,3.45-11.78,18.51-9.77,26.05,8.42-.11,16.35-3.32,24.3-5.57ZM458.77,528.67c-5.32.9-9.95,7.38-9.58,12.68.29,4.26,7.46,14.38,12.16,13.72,3.39-.47,9.26-7.36,10.54-10.5,3.36-8.24-4-17.46-13.12-15.91Z"/>
  <path d="M156.13,487.94l-2.79,11.88c1.74.07,3.51-.07,5.25,0,.85.04,2.6-.53,2.44.69l-9.78.7,2.79-11.18c-2.78.05-3.14,3.2-4.55,4.89-1.86,1.04-.69-3.86-1.04-4.19h-2.09c-.08,1.51.09,3.05,0,4.56-.05.83.52,3.06-1.04,2.44-.5-.2-2.78-9.1-6.65-7.69l2.1,8.38c-2.24.56-2.83-1.63-4.25-2.38l-4.5-1.11-.34,6.28c1.52-.46,5.19,2.63,4.89,3.86-6.14,3.03-15.18,7.27-7.36,14.36l15.04,7.67c-12.15-2.56-28.98-11.59-11.19-22.04l-4.03-4.27.85-7.29c1.2-1.85,5.38,1.43,7.37.73-.09-1.78-.42-5.77,1.85-6.19,2.01-.37,4.82,4.34,5.84,3.39,1.7-9.3,4.39-.02,5.25-.01,1.86-1.71,3.01-4.06,5.94-3.48Z"/>
  <path d="M659.83,527.94c-.32.58-.42,2.63.21,2.66,1.21.44,12.93-4.12,12.94-2.46-8.08,2.04-16.09,5.63-24.48,5.94l9.78-3.15-2.09-2.08,4.89-3.17c-.39-3.99-6.53-1.59-8.74,0-1.34-1.98,5.48-5.06,6.97-4.91l4.55,3.92c.37,1.66-3.67,2.6-4.02,3.24Z"/>
  <path d="M616.31,531.3l-2.79,1.04,8.2,6.51,16.68-3.3,4.49.64-29.37,4.9,4.49-1.38c2.27-2.76-6.99-5.19-6.58-7.34l4.89-1.05Z"/>
  <path d="M342.86,541.79c.52,2.31-3.28,1.4-4.46,2.15l-2.18-3.54-2.79,2.78c-1.15-.54-2.22-4.6-4.55-4.19-.64.72,1.37,5.65-1.4,4.89-.04-2.48-.68-5.63,2.45-6.32l3.49,3.51,2.76-2.76c2.82,2.25,2.34,5.18,6.68,3.48Z"/>
  <path d="M309.29,550.88c.16,1.22-1.59.66-2.44.69-8.62.35-16.96-.87-25.53-.71.39-1.48,1.92-1.43,3.14-1.46,3.98-.1,9.84,1.22,14,1.46,3.59.21,7.24-.14,10.83.01Z"/>
  <path d="M279.22,550.17c-7.52-.82-15.19-.7-22.72-1.4-.86-.08-3.73-.26-3.85-1.38,4.83-.37,9.6,1.01,14.34,1.38,3.76.3,9.61-1.25,12.23,1.4Z"/>
  <path d="M532.39,550.18l-12.21,1.42-13.66-.04c-.16-1.22,1.59-.66,2.44-.69,7.8-.32,15.64-.51,23.43-.69Z"/>
  <rect x="385.52" y="554.37" width="23.78" height=".7"/>
  <rect x="314.19" y="552.28" width="21.68" height=".7"/>
  <rect x="482.73" y="552.28" width="19.58" height=".7"/>
  <path d="M606.52,541.79c.12,1.02-1.82,1.25-2.5,1.33-4.22.48-8.62.71-12.88.75l15.38-2.08Z"/>
  <path d="M416.29,242.47c-.72,2.56-8.13-1.15-7.7,1.74,11.88,24.35,15.89,52.1,8.92,78.5-1,1.08-11.25,3.05-13.63,3.49-9.14,1.72-18.66,3.02-27.89,4.28-17.72,2.43-35.61,3.96-53.41,5.68l5.28-2.05,10-1.54-1.31-37.66c-1.21-.32-1.4.5-2.1,1.04-1.14.88-6.39,6.07-6.9,7.08-1.54,3.03-.29,7.19-2.54,10.05-1.08-2.15.76-5.22-1.4-6.98-.6.01-6.91,7.44-8.36,8.41-.64.43-1.97,1.28-2.48.32,16.59-17.66,34.56-35.57,53.52-50.69,10.43-8.32,31.75-24.62,45.38-23.04,1.6.19,3,1.18,4.6,1.35ZM402.31,324.28l13.66-2.77c4.44-19.39,4.01-40.01-1.81-59.08-1.07-3.5-5.38-15.34-7.95-17.22s-6.33.82-8.84,1.87c1.72,5.47,3.93,10.66,5.45,16.21,3.46,12.68,5.12,27.31,3.69,40.35-.75,6.81-3,13.88-4.18,20.64ZM369.9,264.21c-1.43.22-9.25,7.86-9.54,9.39-.39,4.72-.35,24.76,6.63,24.76,6.58,0,7.71-18.1,7.33-22.67-.16-1.95-1.97-11.85-4.42-11.48ZM340.06,331.98l58.76-7.33c2.27-1.1,6.65-21.52,5.27-23.48-5.7-2.37-14.67-1.58-20.34.72-4.61,1.87-8.26,8.49-12.68,11.8-11.78,8.81-19.62,2.69-32.4,1.52l1.39,16.78Z"/>
  <path d="M219.07,310.99c-2.44,2.42-4.81-7.93-5.41-8.9-.45-.73.03-1.22-1.57-.89-1.79,8.79-1.08,17.7-1.76,26.59-17.06-5.53-34.82-10.62-50.33-19.61-5.06-24.25,1.91-48.48,13.5-69.69.86-1.57,3.08-3.81,3.48-4.94,1.45-4.1-4.99-2.08-4.06-5.78.99-.04,2-.12,2.97.17,4.4,1.3,12.14,15.23,14.63,19.64,9.66,17.07,17.95,36.17,25.4,54.33.46,1.13,3.51,8.73,3.15,9.08ZM169.42,310.99c-4.03-19.37-1.61-39.57,6.4-57.59,1.2-2.69,6.69-11.25,6.91-12.75.35-2.43-1.91-4.04-3.18-5.89-2.71-.67-10.72,16.7-11.86,19.59-5.13,13.08-8.17,28.95-7.39,43.03.45,7.99.5,11.46,9.12,13.6ZM196.01,263.44c-2.28,5.54-3.81,22.84-.34,27.26,4.93,6.28,8.32-7.99,8.08-11.51-.13-1.86-4.64-11.79-5.82-13.82-.32-.55-1.46-2.27-1.91-1.92ZM209.28,308.2c-19.54,9.2-20.88-22.32-39.55-17.53-1.18,1.69,1.11,18.72,2.46,20.71.48.7,1.2,1.19,1.96,1.54l33.34,12.03c.79-.36.96-.92,1.1-1.71.73-4.08-.14-10.58.7-15.03Z"/>
  <path d="M602.14,353.1c4.59-.99,14.36,5.29,18.31,7.97,23,15.64,42.84,44.46,41.98,73.26-.5,16.76-16.23,5.29-22.66-.26-16.85-14.53-30.75-36.74-37.08-58.03-1.38-4.63-7.11-21.52-.54-22.94ZM631.45,372.08c-4.57-4.19-21.76-17.08-27.39-17.09-3.25,0-3.31,2.69-3.14,5.28,1.12,16.74,14.92,44.03,25.52,57.03,1.22,1.5,8.55,10.5,10.14,9.08,2.36-6.37,5.65-12.05,7.35-18.88,1.28-5.14,3.56-14.81,1.19-19.37-2.17-4.16-10.04-12.71-13.67-16.05Z"/>
  <path d="M511.93,416.06c12.03-1.92,7.23,15.96,5.26,22.75-5.08,17.52-20.15,38.24-36.54,46.69-4.86,2.5-8.66,4.7-12.04-1.27-4.35-7.68-7.22-30.59-6.17-39.32.39-3.29,2.5-5.63,4.97-7.62,8.01-6.42,34.63-19.65,44.52-21.23ZM471.75,485.62c.46.39,1.09.73,1.69.78,5.67.53,22.8-15.13,26.8-19.79,8.83-10.26,19.14-31.06,17.48-44.79-.61-5.09-3.21-4.58-7.15-3.62-9.51,2.31-34.9,14.4-42.15,20.79-4.63,4.07-4.78,6.94-4.59,12.96.18,5.76,3.95,30.33,7.93,33.67Z"/>
  <path d="M339.82,221.23c-5.66,5.99-15.06,11.53-22.58,14.83-5.14,2.26-15.96,7.5-20.53,3.24-3.55-3.3-21.97-29.32-23.24-33.41-1.16-3.74-.1-6.35,3.97-6.83,16.32-1.92,40.64.8,56.32,5.98,10.13,3.34,15.15,6.57,6.05,16.19ZM340.52,217.74c5.54-6.48.19-8.55-5.38-10.57-13.4-4.87-35.79-7.57-50-6.7-2.3.14-9.41.44-10.01,2.63-.38,1.05.08,1.86.44,2.8,1.08,2.8,6.25,9.77,8.26,12.73,2.83,4.16,6.29,9.06,9.4,12.98,1.27,1.61,6.08,7.79,7.46,7.91s7.22-2.01,8.98-2.63c10.04-3.53,23.91-11.03,30.85-19.15Z"/>
  <path d="M387.63,406.8l34.18-14.41c17.42-9.28,33.16-20.98,44.43-37.4l11.6-23.71c-4.48,30.07-33.55,52.43-59.42,64.7-9.62,4.56-20.31,9.15-30.79,10.82Z"/>
  <path d="M233.95,220.26c2.56-2.49,11.48,3.8,14.02,5.54,3.49,2.39,16.99,13.76,17.84,17.19.16.67.21,1.07.02,1.75-.48,1.79-15.91,15.94-17.91,16.45-1.15.29-1.85.3-2.95-.21-3.98-1.84-9.51-19.69-10.6-24.38-.92-3.97-3.49-13.36-.42-16.34ZM245.13,259.06c1.73,1.76,6.55-2.95,8.23-4.36,2.24-1.89,10.73-9.35,10.39-11.74-.48-3.36-15.38-14.65-18.85-16.89-1.34-.87-7.57-4.85-8.58-4.56-.68.3-1.03.9-1.33,1.54-1.34,2.86,1.82,15.43,2.94,19.09.77,2.51,5.95,15.63,7.2,16.92Z"/>
  <path d="M291.31,274.43c-1.73-1.42-5.37-10.35-5.08-12.67.52-4.22,11.16-9.49,15.01-10.92,4.25-1.58,11.5-4.75,10,2.99-.4,2.04-7.56,19.24-8.6,20.09-1.78,1.47-9.42,2.07-11.33.5ZM307.67,250.27c-3.78,1.43-18.35,7.8-19.74,11.09-.7,1.65,3.56,10.74,5.29,11.51,1.53.69,6.79.77,8.04-.33.82-.73,8.33-18.99,8.43-20.25.04-.46.11-.79-.33-1.11l-1.68-.91Z"/>
  <path d="M285.42,284.52c1.82,2.91-6.9,21.72-10.41,23.34-4.24,1.96-9.63-7.27-11.29-10.38-1.24-2.32-3.5-5.57-2.32-8.14,2.24-4.9,19.23-6.86,24.02-4.82ZM283.42,285.12c-3.72-.81-18.51,1.64-19.96,4.93-1.01,2.28,6.73,14.81,8.79,15.74,1.25.56,2.64.16,3.51-.89,1.1-1.33,6.88-13.71,7.32-15.57.34-1.43.49-2.75.35-4.21Z"/>
  <path d="M304.38,440.38c.07.06.2,1.14.7,1.72,8.97,10.4,18.22,19.45,30.18,26.51l11.09,6.03c-17.65-6.09-32.85-18.67-43.35-33.92l1.38-.34Z"/>
  <path d="M310,287.92c3.26-8.94,10.35-16.87,17.47-23.08l-17.47,23.08Z"/>
  <path d="M271.53,362.75c-1.55-1.57,4.49-4.63,5.68-5.15.9-.39,3.69-2,4.1-.08.34,1.58-7.77,6.48-9.79,5.23Z"/>
  <path d="M278.01,275.84c-.58-.55-1.71-3.37-1.5-4.22l4.82-2.95c5.12,2.82.13,10.45-3.32,7.17ZM282.01,270.44c-4.02-.5-4.02,1.71-2.74,4.85l2.11-.36.63-4.48Z"/>
  <path d="M217.68,349.46c1.15-1.07,7.99,4.48,7.69,5.93-.77,3.73-8.82-4.88-7.69-5.93Z"/>
  <path d="M228.86,287.21l-2.6-8.23-1.58-9.95c1.25.22,1.2,1.41,1.49,2.34,1.56,4.97,2.22,10.65,2.69,15.84Z"/>
  <path d="M624.71,493.52c-4.94-1.39-8.19.06-12.59,2.1,2.17-3.25,9.76-5.24,12.59-2.1Z"/>
  <path d="M547.77,101.18l-1.93-5.41c-1.71-9.34-1.4-17.43-.16-26.76,1.23.2.78,3.63.73,4.58-.22,4.09-.91,7.5-.73,11.85.22,5.19,1.9,10.56,2.08,15.74Z"/>
  <path d="M183.87,415.32c4.09-1.41,9.22,3.29,12.13,5.82,3.18,2.76,10.25,9.85,10.43,14.05.24,5.48-6.5,25.76-9.03,31.43-5.95,13.33-12.65,7-16.05-3.55-3.04-9.43-3.66-21.47-2.75-31.34.28-2.99,2.5-15.45,5.27-16.41ZM187.08,470.97c3.72,3.58,6.72-1.6,8.12-4.47,2.6-5.33,9.39-25.34,9.22-30.65-.2-6.53-12.98-17.27-19.17-19.12-2.1,1.02-2.4,3.44-2.91,5.44-2.78,10.95-2.88,26.86.14,37.68.56,2.02,3.45,10.01,4.61,11.12Z"/>
</svg>