<?xml version="1.0" encoding="UTF-8"?>
<svg id="katman_1" data-name="katman 1" xmlns="http://www.w3.org/2000/svg" viewBox="0 0 841.89 595.28">
  <path d="M510.07,569.48c-1.75-2.09,2.5-13.32-2.18-12.43-.66.13-4.2,6.39-5.3,7.69-3.79,4.42-7.44,4.94-10.78,7.72-2.17,1.81-7.66,11.3-10.46,11.04-2.99-.28-4.27-9.01-6.95-8.43-1.12.24-3.68,4.09-4.86,5.12-1.86,1.62-6.04,4.26-8.47,3.04-2.12-1.06-2.33-9.8-3.79-10.24-1.07-.32-2.8,1.62-3.86,2.08-1.69.74-11.71,2.75-12.63,1.44-1.48-2.13,1.77-8.48,1.16-11.66-.23-1.17-6.03-11.21-6.67-11.35l-21.99,11.99-1.38-.07c-1.58-.52-1.66-5.36-1.84-6.94-3.06.6-5.44,2.99-8.51,4.24s-9.05,3.9-9.49-1.04c-.11-1.28,1.33-4.04-.96-4.49-3.4-.66-11.35,4.18-14.68,3.19-3.66-1.09,1.29-9.91.41-11.89-6.38-5.7-12.16-12-16.76-19.27l-22.75-11.25c-3.03,12-8.05,23.81-14.85,34.16s-12.75,17.31-25.63,18.37c-2.27.19-4.75-.26-7.01-.01-5.7.62-11.99,3.35-17.54,1.02l.27-5.53c-5.91.33-11.99,2.78-17.93.93-.74-3.34,1.89-6.11,1.43-9.43-4.77-.63-9.78,1.39-14.29.03-1.27-1.75,5.33-12.77,5.75-15.83,1.07-7.77-.19-18.03.55-26.45,1.37-15.6,5.48-32.33,11.12-46.88,2.74-7.08,6.31-13.71,9.4-20.62l-.52-1.01c-16.94-10.29-37.13-23.02-38.53-44.97-1.48-23.33,6.72-55.72,15.79-77.25,2.65-6.29,8.19-14.67,9.97-20.53,1.49-4.9,1.44-12.95,2.49-18.51,1.61-8.54,7.53-31.38,15.3-35.7,7.17-4,25.03,1.91,32.47,4.99,5.63,2.33,10.77,5.75,16.37,8.13,10.78-.81,21.47-2.29,32.32-1.96l.73-.77c1.87-26.95,27.06-42.44,51.4-46.6,4.4-.75,9.47-.74,13.81-1.69,3.97-.88,8.1-2.8,12.27-3.73,17.02-3.75,36.21-2.88,53.78-5.72,14.88-2.4,19.28-4.82,26.4-18.1,2.92-5.45,2.63-11.93,9.92-5.59,5.54,4.82,7.74,12.76,9.01,19.74,1.14.98,6.04-4.05,6.94,2.31.3,2.14-.35,3.88-.34,5.58,0,.47.29,1.09.64,1.11.55.04,8.12-3.91,9.99-4.51,6.38-2.05,15.25-3.37,21.8-1.77,2.03.5,2.72,1.11,2.08,3.14-1.02,3.25-4.67,7.08-6.22,10.8-.33.8-2.16,6.08-1.9,6.34,10.38-2.96,6.99.14,6.06,6.82-3.87,27.91,23.2,64.11,34.36,89,9.13,20.36,14.69,45.03,9.84,67.2-4.91,22.45-20.89,44.17-44.27,48.98-.07.57,0,.97.26,1.49,2.26,4.5,7.49,10.12,10.33,15.17,15.35,27.32,16.01,70.82,1.51,98.68-4.8,9.23-8.23,10.15-16.27,15.23-4.98,3.15-9.18,7.74-15.99,7.35-1.2-.4-1.29-2.65-1.96-3.3-3.09-2.97-12.82,5.28-17.61,4.36-3.34-.64,0-6.22-4.55-6.48-1.98-.12-7.07,3.5-8.96,3.5h-7.25ZM469.07,331.48c1.14,1.17,9.24-7.3,10.25-8.5,21.31-25.14,18.22-67.15,37.04-95.46,6.15-9.25,12.65-11.7,12.23-24.32-.16-4.89-1.68-10.15-4.12-14.38-.88-1.53-4.22-6.97-6.32-5.76-5.33,14.44-16.17,20.25-30.57,23.18-31.07,6.31-58.54-.91-85.97,20.53-9.12,7.13-20.17,22.03-20.58,33.98-.11,3.14,3.52,3.26,6.02,3.97,4.31,1.23,15.94,4.62,19.78,4.76,3.24.12,7.11-3.76,10.07-5.41,5.83-3.26,17.83-8.79,24.4-8.64,7.9.19,13.15,13.19,15.48,19.56,6.49,17.78,9.03,37.86,12.27,56.48ZM532.07,210.98c3.2.21,4.24-8.02,2.24-8.5-2.61-.61-2.42,7.04-2.24,8.5ZM484.36,353.69c4.56,4.89,9.2,9.6,14.2,14.05l51.49,44.04c2.34.64,11.7-5.99,13.78-7.78,21.19-18.22,27.7-50.91,23.59-77.62-5.07-32.97-36.62-79.16-25.09-111.38.76-2.11,3.96-7.04,4.16-8.38.09-.62.2-.99-.41-1.4-9.35-1.82-19.59,1.06-27.65,5.87-28.4,16.94-29.69,51.29-38,80-4.94,17.05-8.92,28.9-22.35,41.15-.98.9-6.46,4.67-6.54,5.08-.26,1.23.73,2.19,1.33,3.12,2.9,4.43,7.84,9.34,11.49,13.26ZM404.57,218.48c-20.61,2.76-44.83,19.08-43.78,42.03.44.61,14.15,2.13,14.79,1.74,1.2-.73,1.23-5.71,1.64-7.38,3.94-16.26,14.5-26.61,27.36-36.38ZM565.39,224.54c-1.87.61-1.43,7.43-1.35,9.21,1.46,31.76,23.08,59.75,27.94,91.06,3.41,21.99,1.13,45.95-9.66,65.68-6.47,11.83-15.5,19.74-27.76,25.25-.09.41,1.8,2.72,2.25,3.25,1.07,1.26,9.22,9.83,9.88,10.11,2.08.9,7.27-1.27,9.48-2.27,26.59-11.99,37.66-44.72,34.89-72.1-4.51-44.5-45.41-80.04-44.01-125.53.05-1.56,1.7-5.76-1.65-4.67ZM314.07,263.97c.59-.57-5.53-3.31-6.16-3.59-5.67-2.46-13.28-4.93-19.32-6.18-5.06-1.04-10.53-2.64-14.76,1.27-5.55,5.12-12.96,30.03-13.27,37.73-.02.49-.21,1.58.27,1.76,2.45-2.5,4.15-7.46,7.75-8,1.47,1.47-9.83,19.28-11.26,21.99-13.25,25.01-26.34,66.97-22.16,95.18,1.54,10.39,6.9,16.76,14.41,23.59,21.61,19.66,57.68,35.12,86.76,37.74,28.23,2.55,77.35-2.23,100.21-20.29,2.49-1.96,7.84-8.58,10.28-8.73,1.72-.11-.08,3.24-.47,4.04-10.03,20.36-57.99,28.54-78.52,29.98-27.56,1.92-51.77-1.55-77.08-12.41-4.28-1.84-11.69-6.45-15.67-7.37-.59-.14-.83-.34-1.49,0-.82.43-4.37,7.53-5.08,8.96-10.26,20.74-16.17,43.83-16.95,67.05-.11,3.26-.51,10.7.03,13.51.22,1.17,4.21,5.52,5.08,7.92.73,2.01.86,3.77,1.15,5.85.61.82.75.24,1.25-.27.78-.78,1.24-2.15,2.01-2.99,7.11-7.74,9.86,11.41,12.74,11.62,3.73-1.45,5.66-9.19,10.4-7.78,2.62.78,6.03,10.88,8.62,11.39,3.68.72,9.38-1.02,12.59-2.89,9.54-5.59,19.83-24.63,23.54-34.96.95-2.66,3.57-10.5,3.11-12.87-.41-2.14-11.1-8.78-13.26-11.74-.5-.68-.94-1.01-.72-2.02,1.19-.2,2.01.26,3.02.73,6.15,2.84,13.38,9.15,19.82,12.68,21.35,11.71,49.45,19.2,73.9,16.59,2.05-.22,9.13-1.22,10.63-1.87.74-.32,1.56-.99,1.6-1.84-3.98-18.28-4.63-39.31.68-57.39.36-1.23,2.13-7.69,3.6-7.39.9.18.79,2.02.76,2.73-.11,3.43-1.49,7.62-1.94,11.09-2.23,17.31-2.24,33.18,1.59,50.28,2.51,11.23,6.83,22.77,13.15,32.36,4.25-2.24,6.85-2.31,9.62,1.87.91,1.38,2.62,6.79,3.34,7.16,1.01.52,2.73-4.82,3.72-5.27,6.8-5.58,10.11,2.42,13.27,7.27.64-6.99,6.49-12.63,13.21-7.71,1.95,1.43,2.62,4,5.52,2.94,2.66-.98,7.33-7.19,8.78-9.72,12.84-22.34,11.35-72.44,2.12-96.13-1.83-4.69-6.01-10.67-7.13-14.87-.23-.85-.59-2.27.01-3.01,1.88.74,3.1,2.76,4.15,4.35,3.4,5.17,6.77,11.93,9.11,17.65.69.14.64.1,1.04-.32,1.94-2.04,3.92-5.64,5.97-7.92.86-.95,6.37-6.86,7.48-5.76.15,1.23-.56,2.15-1.1,3.15-1.94,3.6-10.3,13.08-10.88,16.12s1.89,10.42,2.42,14.03c2.53,17.25,1.88,38.07-1.79,55.11-.83,3.88-3.07,9.02-3.56,12.47-.25,1.77.06,3.04,2.1,3.16,4.72-8.96,10.65-2.31,13.73,3.78,1.04,2.06,1.66,7.61,4.26,2.63,2.06-3.93,2.04-9.16,8.44-7.83,1.79.37,5.03,3.41,6.08,4.92,1.17,1.67,2,6.79,4.22,5.4,2.02-5.43,1.91-12.93,9.93-10.54,5.87,1.75,5.38,9.57,12.65,2.87,12.64-11.67,17.07-50.55,16.02-67.03-2.21-34.58-28.15-63.11-53.28-84.22-1.64-.64.15,2.27.28,2.72.75,2.58,1.67,4.09-.03,6.52-2.98,4.28-22.53,12.52-27.97,13.52-5.96,1.1-7.86-2.9-10.94-7.11-5.34-7.3-10.12-16.99-13.67-25.33-1.62-3.8-6.31-13.19-2.66-16.34,4.28-3.7,13.19-2.77,18.25-4.24-6.38-6.29-13.34-11.98-19.51-18.49-2.01-2.12-4.48-4.9-6-7.26l-.99.25c-.51,4.51,1.98,20.33-.06,23.44-.39.6-.62.97-1.43.81-1.35-1.02-2.59-23.18-3.01-26.74-2.57-21.95-8-51.87-16.26-72.24-1.37-3.37-5.22-12.6-9.43-12.49-3.27.09-11.51,2.91-14.79,4.24-8.96,3.63-14.25,8.62-21.95,13.55-.55.35-6.14,3.91-4.98,1.02.48-1.19,4.95-5.16,3.92-6.33-12.95-4-26.19-6.57-39.76-7.5-11.58-.79-24.44-.67-35.99.5-9.76.99-19.36,4.01-29.25,3.49-.28-1.45.43-.8,1.1-1.13,4.57-2.25,10-3.43,14.9-4.88ZM497.97,378.63c-2.66.15-13.02,1.02-14.15,3.35s1.47,7.69,2.37,10.13c2.85,7.71,7.16,16.46,11.67,23.33,1.56,2.38,3.89,6.95,6.97,7.08s13.25-4.45,16.42-6.1c2.89-1.5,8.85-4.26,8.86-7.68.02-13.11-17.95-21.8-26.25-29.79-1.79-.89-3.96-.42-5.89-.31ZM393.56,553.48c1.83-5.23,4.11-9.23,9.75-4.99,1.69,1.27,4.62,6.52,6.01,6.52,2.14,0,1.72-6.92,5.1-7.92,5.84-1.73,9.34,5.6,12.36,5.39,2.4-.17,6.14-2.96,5.77-5.7-.18-1.34-3.04-9.43-3.73-10.8-.27-.53-.41-1.26-1.08-1.44-19.55,4.76-40.04,2.38-59.17-3.05l.47,1.77c3.01,1.99,6.55,8.68,9.25,10.26,2.03,1.19,2.74-.96,4.43-.91,2.36.07,5.9,3.32,7.32,5.14l3.51,5.73ZM253.43,554.83c2.74-2.16.63-10.48-3.5-9.26-1.49.44-5.65,8.68-5.15,9.44,1.56,1.44,7.29.9,8.65-.18ZM382.39,545.55c-1.44.28-5.68,11.96-2.58,12.27.73.07,6.84-2.53,7.7-3.15,4.34-3.15-2.14-7.73-5.12-9.12ZM413.59,561.97c2.74-.41,9.18-3.54,8.98-6.7-.09-1.46-2.86-4.32-4.23-4.83-5.49-2.07-5.76,8.31-4.75,11.54ZM397.67,550.59c-1.39,1.4-3.26,10.3-1.3,10.87.97.28,7.53-2.54,8.23-3.7,1.95-3.2-3.21-8.91-6.93-7.18ZM265.48,553.07c-.41-.24-1.15-.2-1.58-.02-.76.32-5.69,8.7-6.08,9.94-.17.55-.5.82.23,1.25,2.08,1.23,11.88.72,11.18-3.15-.14-.78-3.37-7.8-3.76-8.02ZM522.41,563.82c3.16-3.54-1.94-11.38-5.83-9.59-2.21,1.01-5.01,10.53-3.79,12.28,1.07,1.52,8.54-1.47,9.62-2.69ZM555.93,556.08c-2.52.75-5.12,11.1-2.53,11.86,1.37.4,9.49-4.31,9.68-6.23.26-2.48-4.4-6.46-7.16-5.63ZM536.44,556.57c-.94.19-1.8.93-2.3,1.73-.94,1.5-3.38,10.03-1.26,10.65,1.1.32,9.99-3.59,10.11-5.83-.44-2.97-3.09-7.26-6.55-6.55ZM276.14,569.42c.89,1.42,10.89-.47,11.7-2.45.57-1.39-3.42-9.29-5.44-8.9-.83.16-5.61,7.78-6.04,8.95-.29.8-.49,1.57-.22,2.41ZM452.9,571.81c3.22-3.24-.73-12.56-6.02-9.27-1.79,1.11-4.41,9.74-3.57,11.44,1.12,2.27,8.43-.99,9.6-2.16ZM480.24,565.65c-1.24,1.2-2.37,4.29-2.16,6.03.14,1.15,2.6,7.33,3.73,7.32,1.58-.01,5.49-6.27,5.73-7.81.68-4.47-4.02-8.72-7.3-5.54ZM469.39,575.3c4.08-4.81-2.72-14.04-6.75-8.5-.5.69-2.39,4.83-2.48,5.54-.14,1.1,1.65,6.75,2.76,7.06,1.62.45,5.43-2.88,6.47-4.11Z"/>
  <path d="M365.07,66.73c-.02.19-.71.65-.5,1.25.89.2.99-.26,1.42-.83,1.03-1.36,6.1-13.32,6.82-13.17l22.93,19.95,10.32-6.72c.26-1.06-4.82-4.58-3.77-6.23l26.02-30,14.73,21.75c-5.92,4.16-13.33,6.78-19.34,10.62-.49.32-.89-.05-.64,1.12,9.61.08,19.56,5.38,24.51,13.5l1.41-.83,2.65-16.1,24.7-.54,1.06-3.54,22.69.25c.41.27.63,1.22.76,1.74,2.4,9.46,2.16,21.56,4.75,30.75.15.54.15.92.72,1.26,5.98-4.35,13.6-6.2,20.94-5.43,3.14.33,5.8,1.82,8.81,2.44l-.22-3.03-4.27-1.22c-1.8-1.31-.67-16.76-1.01-19.75l35.38,7.61,2.62,12.39,3-11,30,7-28.53,87.98-21.98-6.72c-1.5-1.25.74-7.96-1.49-9.01l-20.51-2.75,1-11c-.61-.6-7.4,2.5-8.75,2.5h-7.25l1.42,9.77c-.22,1.32-4.92.25-6.02.09-8.79-1.33-17.6-3.25-26.33-4.92l-1.57-13.43c-1.72,1.8-2.56,4.82-3.87,6.86-.31.49.05.89-1.11.64l-6.76-12.5-2.07,9.54-27.21-4.26c-1.31-.9,1.26-11.27,1.53-13.28-4.7,1.62-9.13,4-13.98,5.26-2.3.6-5.14.82-7.52,1.23v25l-52.24-25.5c-.74.45-.7.98-.79,1.73-.39,3.45,1.25,19,.31,20.31l-24.49,3.91c-1.42-.34-1.09-9.25-1.79-10.94-.35-.33-5.19,3.7-6.04,4.21-14,8.46-32.82,5.51-39.55-10.37-.3-.71-1.91-4.82-1.91-5.09v-8.25l-5.02,3.73-.94,1.48,8.92,34.97-26.47,8.6-28.55-63.98c-1.53-2.33-5.32,3.22-7.69,1.19l-16.3-28.75c18.26-12.61,42.64-22,65.07-17.02,15.49,3.44,29.25,18.79,24.97,35.27.47.41,6.13-2.91,7.37-3.38,7.33-2.78,14.26-2.81,21.63-.12l-.5-9-6,1c-.29-6.32-1.39-12.7-.77-19.02l35.27-11.48c-.33,3.89.45,8.45,0,12.25ZM427.32,40.99l-15.18,17.81c-1.26,1.63-.04,3.63,1.93,2.97,2.71-2.22,19.17-8.55,20.29-10.28.53-.82-.73-2.19-1.18-2.87-1.72-2.64-3.94-5.12-5.86-7.63ZM495.02,64.03l-11.93-.03-4.02,24.97c-1.18.28-1.14-.45-1.35-1.37-.59-2.57-2.79-19.32-3.61-19.91l-16.81.25-5.27,31.79c-.21,2.73,3.85,3.41,4.57,5.99,0,1.39-5.77,5.48-6.63,7.38-.44.96-2.53,12.28-2.41,13.1.08.58.21,1.03.85,1.19l15.2,2.34,4.72-24.26,9.26,20.5c3.41-3.84,4.11-10.16,6.45-14.79.27-.53-.26-.94,1.04-.71l4.61,29.89,17.9,2.6c-.28-4.81-3.56-4.92-6.73-7.51-12.4-10.12-10.26-27.91-.76-39.24l-5.06-32.19ZM414.07,139.73v-12.5c0-1.84-5.39-2-6.99-2.51-5.4-1.74-10.57-4.91-14.27-9.23-1.12-1.31-2.76-4.51-3.77-5.23-3.85-2.7-13.76-4.58-18.32-7.18-.43-.24-.87-.43-1.15-.86l20.91-23-15.16-14.74-16,21.99-1.25-20.75-.78-1.23-20.6,6.08c-1.25,1.85.21,3.84-.11,5.9,1.13.36,5.35-1.74,5.76-1.01,1.04,1.85.53,6.1.74,8.26.32,3.23.71,12,1.63,14.37.57,1.45,2.58,3.09,3.46,4.54,4.43,7.29,4.64,16.18,1.91,24.11-.63,1.83-2.3,4.23-2.53,5.97-.26,1.86.21,7.52.53,9.51.09.53.3.97.71,1.32l12.82-1.88-.04-26.68,51.48,25.28,1.02-.54ZM288.52,156.93l-8.38-34.11c6.99-5.33,13.88-11.05,18.01-19.01,10.42-20.07-3.42-35.33-23.84-36.83-16.29-1.2-32.76,5.22-46.62,13.12l-.25,1.72,9.69,16.59c1.47.93,7.22-3.47,7.93-2.94l29,65.28,1.04.5,13.42-4.34ZM422.86,100.27c5.92-6.66,12.08-13.11,18.17-19.61-10.73-15.58-38.35-10.84-46.05,5.48-3.56,7.54-2.69,18.06,2.6,24.58,9.58,11.8,27.18,9.73,39.32,3.34,1.82-.96,10.26-6.22,9.64-8.27l-10.32-9.26c-1.18-.31-4.7,3.88-6.49,4.86-2.87,1.57-6.38,2.37-9.66,2.08.73-1.22,1.87-2.16,2.79-3.2ZM567.57,112.48l-7.46-35.3-23.04-5.2-.26,6.01c.78,1.54,4.07.58,4.67,2.32l-.93,10.89c10.69,11.61,9.58,26.19.21,38.23-1.05,1.35-3.54,3.12-4.07,4.43-1.11,2.74-.32,6.7-.92,9.64l12.56,2.28.97-.79c2.06-9.36,2.69-19.8,4.99-29.02.22-.87.22-2.19,1.26-2.48l.97,42.69,12.05,3.61,24.52-74.05-.25-1.28c-4.77-.69-11.05-3.38-15.72-3.7-.52-.04-1.03.02-1.47.33-2.31,10.23-4.76,20.43-7.1,30.66-.18.77.34.87-.99.75ZM447.57,85.48c-.69-.04-.96-.15-1.52.34-.42.37-4.33,4.68-4.42,5-.41,1.5,3.01,2.82,3.7,4.15,1.18.22.6-.53.75-1.23.6-2.73.68-5.57,1.49-8.27ZM506.75,98.16c-14.94,13.79-9.98,39.01,13.06,36.81,15.72-1.5,28.83-21.79,19.48-35.96-7.31-11.08-23.78-8.94-32.54-.86ZM386.07,93.98l-5.52,4.72-.48,1.77,6.5,2-.5-8.5ZM305.25,137.3c20.42,21.17,57.48-19.2,33.07-37.32-20.48-15.21-51.56,18.15-33.07,37.32Z"/>
  <path d="M411.29,339.75c11.98,11.61,21.07,41.58,17.05,57.74-1.51,6.07-5.55,8-11.01,9.99-13.3,4.87-34.73,6.8-48.38,2.86-4.46-1.29-5.04-5.51-5.37-9.63-1.2-14.81,3.14-29.65,9.8-42.68,6.78-13.26,22.55-33.18,37.91-18.29ZM403.07,406.48c5-.97,18.12-2.49,20.25-7.5,1.86-4.4.53-18.47-.38-23.62-1.77-10.01-8.59-28.93-17.2-34.8-1.6-1.09-6.4-3.65-7.16-.85,6.72,7.28,9.76,17.9,10.93,27.57s.75,20.23-2.43,29.45c-.47,1.37-4.47,9.3-4.01,9.74ZM389.94,347.07c-1.08.23-1.38.79-1.99,1.54-5.55,6.72-6.01,30.08-.64,36.89,5.84,7.42,9.15-4.32,10.13-8.91,1.53-7.15,1.21-18.69-1.77-25.46-.97-2.2-3.1-4.62-5.73-4.07Z"/>
  <path d="M269.42,396.83c-2.02,2.21-4.95,1.38-7.44.99-8.03-1.24-19.53-5.99-21.28-14.72-2.84-14.16,1.75-31.61,8.79-43.96,3.53-6.19,12.55-18.32,18.85-7.68,7.08,11.96,6.53,44.51,3.49,58.02-.39,1.74-1.33,6.16-2.41,7.34ZM262.57,331.48c-4.63.96-7.79,5.37-10,9.24-5.98,10.48-10.88,30.56-7.77,42.28.72,2.7,3.27,6.15,6.03,6.97,1.05.31.74-.59.76-1.26.09-2.99-1.34-7.62-1.54-10.97-.79-13.06,1.87-30.38,9.11-41.43.44-.67,3.93-4.35,3.41-4.84ZM265.92,339.54c-2.79.71-4.63,10.13-4.84,12.7-.29,3.53-.02,21.57,5.23,21.73,3.38-.65,3.36-4.99,4.17-7.73-1.6-7.95-.94-17.15-2.42-24.99-.19-1.03-1-2-2.14-1.71Z"/>
  <path d="M242.57,399.48c0,10.19,5.15,13.98,13.04,18.71,42.72,25.63,95.48,20.14,142.56,11.14,10.41-1.99,20.67-2.19,26.09-12.41.51-.96,2.6-8.07,4.3-6.45.49,16.55-9.83,19.69-23.39,22.86-22.11,5.16-46.68,6.38-69.38,7.12-33,1.08-55.37-1.83-83.69-19.77-8.19-5.19-13.54-10.15-11.09-20.91l1.54-.3Z"/>
  <path d="M492.39,485.65c6.09,6.28,7.11,9.39,3.76,17.66-3.14,7.76-9.75,17.43-15.1,23.9-3.37,4.07-8.77,11.97-12.42,3.95-4.94-10.84-7.18-44.3-4.44-55.81.54-2.27,1.46-4.82,4.14-4.91,5.04-.18,20.31,11.35,24.06,15.21ZM474.92,528.82c3.36-2.79,10.99-16.23,13.55-20.69,1.99-3.47,6.9-9.96,4.81-13.61-2.31-4.03-16.72-15.57-21.19-16.8s-4.24,2.6-4.51,6.02c-.75,9.61.63,32.6,3.22,41.77.37,1.3.97,2.67,1.77,3.76.74.46,1.75.07,2.35-.44Z"/>
  <path d="M555.47,459.13c3.15-.24,10.44-.82,12.85.85,4.09,2.82,10.32,14.81,9.76,19.76-.48,4.21-7.26,9.89-10.55,12.44-3.09,2.39-12.09,8.66-15.72,8.34-2.89-.26-7.06-8.07-8.33-10.71-2.1-4.37-6.42-15.2-7.3-19.7-.2-1.05-.3-2.86-.1-3.88.89-4.58,15.46-6.81,19.38-7.11ZM566.9,464.65c-2.09-2.05-5.25-2.47-8.04-2.13-3.21.39-12.86,2.9-15.91,4.09-3.94,1.54-1.96,4.58-1.01,7.75,1.09,3.65,7.76,19.02,10.78,20.26,2.19.9,9.42-4.22,11.52-5.73,2.68-1.93,10-7.3,9.88-10.65-.05-1.41-6.02-12.43-7.21-13.6Z"/>
  <path d="M341.4,311.3c-4.36,4.52-17.65,13.37-23.96,12.06-5.65-1.17-13.05-16.66-15.1-21.9-1.6-4.1-3.39-9.56-4.13-13.87-1-5.86-1.79-9.23,5.64-8.63,9.62.77,29.93,12.7,37.23,19.26,5.32,4.78,5.26,7.96.32,13.08ZM337.89,300.66c-4.79-5.27-26.16-16.54-33.14-17.15-2.38-.21-3.92.34-3.48,2.97.96,5.8,10.78,27.42,14.97,31.32.39.37,1.87,1.33,2.31,1.45,4.14,1.15,14.12-5.38,17.28-8.27,3.79-3.47,6.19-5.79,2.06-10.34Z"/>
  <path d="M268.4,486.13c4.44-.21,11.19,11,13.08,14.69,5.68,11.11,7.73,22.68-6.42,27.9-5.11,1.89-11.66,3.61-13.27-3.21-1.76-7.45-.59-32.2,4.34-38.23.57-.69,1.4-1.12,2.28-1.16ZM278.89,521.8c2.9-2.89,3.63-7.01,2.42-10.82-.81-2.56-9.06-17.23-10.87-18.14-2.12-1.07-2.9.94-3.61,2.65-2.29,5.53-2.99,22.95-1.23,28.71.23.76.63,1.5,1.12,2.13,2.19,1.66,10.39-2.75,12.17-4.52Z"/>
  <path d="M300.89,333.16c4.78,4.35,11.46,17.31,13.15,23.6,1.17,4.37,1.61,5.83-2.51,8.43s-17.92,7.55-22.61,6.19c-1.27-.37-2.37-2.64-2.63-3.87-1.37-6.54,2.51-27.55,6.18-33.37,2.49-3.95,5.08-4.02,8.42-.98ZM296.42,337.03c-.58.15-1.44,1.22-1.78,1.77-1.44,2.37-5.26,19.37-5.46,22.55-.09,1.48.37,5.31,2.13,5.63,3.63.67,11.94-1.98,15.43-3.57s4.76-1.89,3.43-6.29c-.87-2.88-8.99-16.93-11.16-18.83-.62-.54-1.74-1.46-2.59-1.25Z"/>
  <path d="M349.43,320.05c2.31-.63,8.63,5.65,9.5,7.81,1.57,3.86-1.55,7.5-3.67,10.57-1.24,1.8-4.9,7.1-6.95,7.11-1.91,0-5.76-5.14-6.13-6.92-.75-3.6,3.48-17.53,7.25-18.56ZM347.21,340.83c.3.28.71.43,1.11.51.67-.09,6.94-8.66,7.16-9.73.6-2.87-3.42-7-6.35-6.57l-4.58,11.23c-.05.6,2.16,4.1,2.66,4.56Z"/>
  <path d="M380.89,323.04l1.18.7c-4.8,8.19-11.73,15.19-15.23,24.25l-2.8.27c-1.37-.96,1.01-6.1,1.6-7.46,3.14-7.23,8.7-13.46,15.25-17.76Z"/>
  <path d="M274.07,322.48c1.19-1.3,4.47,5.81,4.74,6.51,1.33,3.53,2.45,9.55,1.75,13.23-.44,2.32-2,2.31-2.85-.12-1.96-5.62-2.28-13.68-3.63-19.61Z"/>
  <path d="M317.57,421.98c-.72,3.2-3.79,5.5-7,3.99.24-3.37,4.1-4.99,7-3.99Z"/>
  <path d="M282.07,416.98c2.25-.64,7.35,4.18,5.03,5.78-2.92,2.01-5.7-5.08-5.03-5.78Z"/>
  <path d="M274.44,87.6c9.75-1.53,16.22,3.96,14.51,14.01-.9,5.32-6.92,10.67-11.62,12.87l-7.75-24.28c.03-1.3,3.71-2.42,4.86-2.6ZM276.9,92.55c-.87.29-.8.78-.74,1.54.09,1,3.53,11.89,4.16,11.88,2.98-2.59,5.31-7.64,2.68-11.17-1.1-1.48-4.32-2.84-6.1-2.26Z"/>
  <path d="M415.95,81.1c3.49-.41,8.78.97,10.42,4.4l-14.77,17.26c-1.53,1.68-2.72-.07-3.74-1.33-6.13-7.54-1.52-19.21,8.09-20.33ZM410.08,96.98c.93.15,1.44-.65,2.01-1.24,2.64-2.73,4.83-6.23,7.75-8.75,1.09-2.08-3.29-1.53-4.3-1.29-4.74,1.12-7.33,6.88-5.46,11.28Z"/>
  <path d="M325.57,101.48c-.61,1.29-2.11,1.66-3.01,2.74-6.34,7.63,8.89,16,12.51,4.5.22-.68-.35-.9,1-.74,4.68,13.06-13.23,20.75-20.5,10.25-5.34-7.72,1.29-16.88,10-16.75Z"/>
  <path d="M522.57,95.98l-3.26,2.48c-6.76,9.84,10.59,14.86,12.51,4.02,4.31,7.2-2.77,15.13-10.47,15.01-15.3-.23-14.73-22.84,1.22-21.51Z"/>
</svg>