<?xml version="1.0" encoding="UTF-8"?>
<svg id="katman_1" data-name="katman 1" xmlns="http://www.w3.org/2000/svg" viewBox="0 0 841.89 595.28">
  <path d="M582.86,148.53c21.94,2.58,44.08,4.84,65.63,9.85,8.35,1.94,19.52,4.7,26.71,9.29,2.95,1.88,4.85,2.97,4.69,6.97-.48,12.45-29.47,48.53-38.38,59.52-10.41,12.85-21.87,25.02-32.02,37.99.8,2.13,1.34,8.97,3.43,9.59,2.52.75,8.14-.09,11.24.13,8.83.62,25.79,2.19,32.54,7.88,2.63,2.22,3.94,4.14,4.34,7.65,1.78,15.68-16.95,41.51-27.39,52.68-2.14,2.29-9.83,8.28-10.72,10.13-2.41,5.06-4.28,17.74-6.21,24.11-11.79,38.93-30.19,71.61-64.68,94.49-6.29,4.17-13.07,7.49-19.45,11.49-.24,21.72.02,44.69-9.98,64.56-8.67,17.23-25.33,26.82-44.67,21.03-20.76-6.22-29.59-33.79-32.13-53.14-.29-2.2-.32-15.09-1.76-15.42-15.86.16-32.14-2.49-47.61-5.95-17.93-4.02-36.1-9.77-52.84-17.29-.73-.07-9.32,8.37-10.98,9.63-16.65,12.62-53.9,24.98-70.62,7.56-18.15-18.9-3.54-52.83,8.78-71.32-6.83-9.32-13.93-18.41-19.29-28.71-19.53-37.58-18.84-79.55-11.04-120.31-3.96-4.92-8.39-9.35-11.88-14.67-15.22-23.21-26.33-66.61-19.4-93.7,4.49-17.57,15.12-18.3,30.26-11.27,11.76,5.46,22.63,14.8,32.32,23.26,1.25,1.09,1.69,3.75,3.95,2.43.59-.35,5.78-8.58,8.64-10.61,7.74-5.5,9.38,6.2,12.47,10.91.37.57.47,1.31,1.42,1.1.86-.19,9.38-11.97,11.69-13.07,1.69-3.37.04-7.26-.03-10.58-.42-20.36.63-40.42,1.91-60.67.96-15.04,1.1-38.47,6.46-52.27,1.78-4.57,2.79-6.51,8.24-5.37,4.83,1.02,17.21,11.61,21.31,15.32,4.97,4.49,13.2,14.98,17.96,18.04.78.5,1.25.78,2.24.6,1.23-7.51,11.1-34.84,18.3-37.01,3.05-.92,7.77,2.53,10.13,4.47,8.38,6.87,16.08,17.02,22.81,25.5l.85.12c18.49-12.4,36.24-26.29,55.72-37.17,6.13-3.42,19.46-11,26.27-9.46,3.82.87,6.43,9.78,7.57,13.27,3.12,9.58,5.32,20.72,7.24,30.65,2.2,11.34,3.72,22.86,5.51,34.28l1.85.58c6.76-1.5,13.61-3.24,20.47-4.23,5.54-.8,22.98-3.09,27-.19,6.89,4.98,9.89,38.39,11.11,47.32ZM605.54,281.85c.51-.49-3.77-9.8-1.82-11.59,18.64-24.4,39.54-47.82,57.29-72.84,3.57-5.04,8.31-11.36,10.96-16.83,3.98-8.21.2-8.37-7.06-10.84-21.53-7.32-46.11-9.92-68.53-13.58l-74.88-7.86c-1.17-4.65-.72-10.33-1.23-15.19-2.8-26.76-8.18-61.83-15.33-87.62-1.17-4.24-2.67-13.4-7.89-12.74-9.94,1.27-36.67,20.18-46.07,26.63-22.77,15.63-44.83,32.48-65.63,50.63-.99.18-7.97-9.11-9.38-10.7-10.31-11.59-22.18-24.17-33.79-34.42-2.8-2.47-13.88-12.14-16.81-12.31-2.99-.18-3.98,5.07-4.52,7.43-2,8.79-2.78,22.2-3.31,31.43-1.43,24.84-.71,49.75-1.88,74.55-.14,3.01-1.14,6.2-.69,9.41l-14.5,19.63,8.23,21.77c1.13.82,14.2-11.08,16.11-12.62,5.28-4.24,18.9-15.95,24.34-17.98,3.38-1.26,3.34.31,4.57,2.93,5.21,11.05,5.93,23.96,10.09,34.76.3.79.79,1.22,1.41,1.73,3.44-3.45,22.04-16.93,25.78-15.71l5.47,10.41c1.53.98,7.3-5.35,11.57-4.04,2.47.76,4.88,9.6,6.53,9.91l15.58-5.5c1.88.44,5.28,8.15,6.24,10.22,4.27,9.13,7.37,18.89,11.31,28.16.85.27,1.67,0,2.48-.24,9.32-2.78,21.49-10.51,31.13-14.35,2.76-1.1,10.24-4.12,12.73-3.67,2.19.4,9.51,10.9,11.33,13.33,8.42,11.28,16,23.24,24.13,34.72,9.68-4.38,18.72-10.23,28.45-14.49,2.1-.92,8.88-3.97,10.67-3.92,4.6.13,6.61,11.9,8.92,15.23l28.01-3.82ZM405.58,85.06c3.04-2.52,6.45-4.63,9.18-7.53-4.06-5.04-20.69-28.47-26.24-28.75-4.15-.21-8.12,11.15-9.39,14.57-1.86,5.04-5.86,16.4-6.53,21.29-.13.93-.36,1.79.19,2.66l13.81,14.5c6.16-5.76,12.51-11.37,18.98-16.74ZM577.11,148.59c.81-.64-1.63-17.72-2.05-20.37-.56-3.57-3.63-22.02-5.55-23.5-3.74-2.87-24.31,1.36-29.66,2.49-5.51,1.16-10.91,2.81-16.37,4.16l4,32.23,49.64,5ZM223.89,163.26c-12.95,2-10.93,29.31-9.86,38.61,2.35,20.43,11.02,48.02,23.03,64.76,5.5,7.67,15.7,18.9,25.21,10.19,11.88-10.88,23.94-45.13,22.4-60.96-1.23-12.66-20.17-30.6-30.02-38.19-6.97-5.38-21.81-15.79-30.77-14.41ZM350.3,195.41c-1.32-.83-6.5,2.65-7.97,3.57-11.19,6.99-21.58,16.76-32.16,24.68-3.03,1.79-3.85.24-5.2-2.2-4.22-7.63-7.33-18.52-11.14-26.75-.86-1.86-5.08-11.04-6.39-11.29-2.21-.25-7.82,8.6-7.82,9.71,4.89,7.08,9.93,12.4,10.74,21.47,1.64,18.43-5.85,41.39-15.9,56.71-6.17,9.4-14.96,19.88-27.31,13.76l-.9.98c-1.75,12.01-3.89,24.02-3.25,36.22,7-6.48,13.69-14.37,24.17-9.96,18.41,7.74,40.34,58.52,45.75,77.42,2.88,10.06,5.98,24.88,1.57,34.67-4.28,9.5-14.28,10.69-22.85,14.41,22.12,20.99,48.68,36.14,77.35,46.44,51.05,18.33,104.89,22.45,155.09-.94,46.86-21.84,70.67-55.65,85.06-104.42.83-2.8,2.4-7.24,2.69-9.95.15-1.36-.58-1.09-1.42-.78-2.14.78-5.18,3.17-7.72,4.28-24.46,10.69-52.72,7.05-61.4-21.34-7.1-23.23,3.77-58.6,29.88-64.54.34-.48-2.72-8.28-3.21-8.87-.41-.49-.66-.57-1.28-.67-3.69-.6-27.16,11.41-32.54,13.6-1.86.76-5.14,2.48-6.94,1.98-4-1.11-28.32-40.15-33.91-45.24-1.16-.19-2.24.05-3.36.33-13.12,3.2-27.75,11.87-40.88,15.97-.92.21-2,.36-2.9.05-2.24-.75-13.52-34.49-17.29-38.46-4.02-.73-13.26,6.62-16.19,5.63-2.01-.68-3.82-10.06-7.04-11.11-2.82.41-8.74,7.09-11.06,5.86-2-1.06-3.55-10.42-5.48-11.03-2.06-.65-9.13,4.24-11.27,5.61-4.02,2.57-10.73,8.83-14.22,10.42-.9.41-1.62.59-2.52.04-1.75-1.08-7.59-32.2-10.79-36.26ZM555.86,364.38c28.48,31.58,81.09-23.13,94.75-47.87,7.12-12.9,9.38-22.53-7.64-26.29-18.63-4.12-55.9-2.16-73.77,4.87-25.55,10.05-30.7,50.02-13.33,69.28ZM285.44,432.67c6.12.45,17.02-3.35,21-8.1,10.34-12.32-2.52-43.63-8.21-56.8-5.38-12.47-20.36-44.04-32.71-49.4-7.7-3.34-13.72,2.74-18.44,8.32-3.73,4.41-4.37,4.96-4.09,11.06.3,6.5,1.87,14.24,3.46,20.53,4.68-6.36,8.91-16.29,18.22-10s19.83,35.46,21.69,46.52c1.42,8.41,2.65,16.48-6.94,19.82-1.48.51-7.16.89-6.75,2.71l12.76,15.35ZM264.25,355.97c-1.71-1.8-4.59-3.6-7.08-2.14s-8.51,12.52-8.34,15.34c.13,2.33,2.83,8.76,3.8,11.38,1.66,4.49,3.61,8.93,5.72,13.23,1.23,2.49,8.38,15.87,9.91,16.63,1.65.82,6.26-.66,8.08-1.41,2.99-1.24,3.9-1.71,4.38-5.09,1.25-8.74-10.2-41.34-16.47-47.93ZM335.81,480.21c-16.93-8.31-32.68-19.33-46.72-31.92-2-1.8-11.03-11.54-12.33-11.73l-4.86,5.89c-9.21,14.13-17.01,33.37-9.01,49.71,4.1-3,17.73-17.45,22.1-17.08,3.62.31-1.02,5.79-2.23,7.28-2.01,2.47-14.13,14.45-14.47,15.87-.29,1.21,4.77,3.74,5.85,4.16,15.99,6.26,41.61-3.78,54.42-14.03.9-.72,6.39-5.5,6.69-5.94.5-.73.8-1.32.56-2.22ZM493.11,571.77c16.5-2.49,24.44-18.9,28.11-33.47,3.61-14.31,4.32-29.51,4.44-44.24l-1.63-.36c-17.13,7.09-36.09,11.96-54.62,13.64-2.92.26-5.94-.21-8.86-.02-1.94.13-6.88.3-7.24,2.24-.96,5.16.51,17,1.55,22.45,2.79,14.67,12.07,38.47,29.42,39.5,1.76-1.21,1.63-11.37,1.96-13.87.34-2.64,1.48-13.4,3.49-14.2.42-.17,1.88-.23,2.09-.07.21.17,1.29,5.07,1.29,5.34v23.05Z"/>
  <path d="M364.13,297.21c20.81-1.92,63.03,28.94,76.25,44.65,6.01,7.14,12.08,17.75,8.13,27.1-5.57,13.18-44.9,35.48-58.86,38.41-8.7,1.83-15.4.77-21.94-5.48-17.15-16.4-23.43-73.07-16.27-94.62,2.22-6.68,5.58-9.4,12.68-10.05ZM363.48,302.87c-4.27.61-7.13,3.34-8.38,7.4-4.53,14.64,1.38,52.03,6.05,67.24,2.65,8.65,9.38,24.74,19.86,25.65,9.73.84,31.89-12.77,40.44-18.34,5.18-3.37,21.72-14.41,22.89-20.05,2.24-10.78-13.54-24.8-21.03-31.11-12.26-10.33-43.8-33.1-59.82-30.8Z"/>
  <path d="M514.45,400.79c6.4-.49,19.51-1.15,24.72,2.7,10.11,7.44-2.25,31.34-6.8,39.86-5.94,11.11-21.17,36.53-35.16,36.89-11.44.29-35.95-20.53-43.59-29.1-6.53-7.33-16.39-20.22-7.9-29.39,10.44-11.28,53.17-19.75,68.73-20.96ZM468.11,457.81c6.66,5.8,20.59,16.99,29.57,15.9,13.48-1.64,29.32-29.81,34.41-41.39,2.69-6.13,9.45-22.06.81-25.71-9.32-3.94-36.33,1.8-46.88,4.28-8.1,1.9-32.54,8.23-36.77,15.02-5.96,9.56,12.3,26.2,18.87,31.92Z"/>
  <path d="M497.4,277.62c5.76-.53,12.73-.96,14.97,5.5,2.51,7.25,4.12,32.77,1.93,39.82-.23.74-1.66,2.81-2.24,3.44-5.48,6.01-29.47,15.69-37.6,16.11-4.04.21-6.26-.92-8.22-4.39-4.66-8.23-7.95-35.37-4.85-44.08.4-1.13,2.11-3.74,3-4.58,5.37-5.16,25.48-11.12,33.02-11.82ZM500.57,282.04c-6.36.39-16.92,3.19-22.94,5.49s-11.5,4.52-12.31,11.69c-.88,7.8.77,27.9,4.31,34.85,1.08,2.13,2.21,3.83,4.83,3.88,6.33.13,27.18-8.89,32.21-13.16,3.04-2.57,3.74-3.82,4.11-7.89.58-6.46-.37-26.23-2.83-31.88-1.47-3.38-4.19-3.17-7.39-2.97Z"/>
  <path d="M323.69,235.26c11.68-.73,4.37,20.56,2.34,26.36-4.83,13.79-10.91,26.23-22.66,8.18-2.52-3.87-7.18-12.65-6.57-17.14,1.19-8.61,19.24-16.92,26.88-17.4ZM319.25,241.59c-3.05.49-9.93,3.93-12.41,5.9-6.35,5.05-4.64,9.44-1.43,15.84,1.44,2.87,6.02,11.31,9.94,8.46,3.47-2.53,10.49-23.76,9.62-27.99-.62-3-3.18-2.62-5.73-2.21Z"/>
  <path d="M473.99,146.84c8.85-1.82,9.95,9.77,9.63,15.96-.35,6.83-6.22,30.28-15.36,29.82-8.12-.41-7.83-14.56-7.29-20.27.65-6.74,5.32-23.93,13.02-25.51ZM475.86,167.97c4.13-4.56,4.77-22.42-2.66-16.87-3.78,2.83-6.41,13.98-2.84,18.02,1.52.91,4.37.1,5.5-1.15Z"/>
  <path d="M411.45,129.2c1.96,1.58,1.71,8.32,1.39,10.81-.87,6.93-12.43,29.9-20.43,29.42-10.41-.63-.97-24.1,1.84-29.06,2.47-4.36,11.35-15.88,17.2-11.17ZM405.77,132.28c-3.38,1.01-10.03,14.15-5.71,15.6,6.67,2.23,14.33-18.17,5.71-15.6Z"/>
  <path d="M436.9,180.18l-.28,1.93c-.64.84-2.4.23-2.95.97-.97,1.3-2.75,8.48-4.01,11.02-3.07,6.18-10.35,16.55-18.25,11.88-7.41-4.39-3.14-16.55-1.23-23.14.48-1.66,2.63-5.75,2.73-6.82.13-1.52-1.64-2.44-1.28-4.05l25.26,8.21ZM429.84,181.53l-14.39-4.5-3.18,10.71c5.84-.36,10.33-.24,14.83,3.79.75-.18,4.27-9.05,2.74-10.01ZM414.63,190.43c-4.35.79-4.16,5.1-3.48,8.86,1.78,9.73,13.69,1.08,14.4-4.88-.34-3.32-8.29-4.45-10.92-3.97Z"/>
  <path d="M500.69,155.54c1.06,12.64,2.21,35.53-7.65,45.09-5.4,5.23-14.1,4.45-19.83.39-.59-.38.4-1.15.69-1.23,1.63-.43,6.69.96,9.9.44,12.89-2.07,14.26-22.06,14.99-32.38.23-3.27-.53-7.78.01-10.73.2-1.08.67-1.77,1.89-1.58Z"/>
  <path d="M384.47,174.48c-27.32-2.25-8.48-37.03,5.05-45.47-.04,2.88-3.17,4.9-4.68,7-6.09,8.45-17.08,26.44-5.73,34.68,1.88,1.37,5.06,1.53,5.36,3.79Z"/>
  <path d="M417.6,366.77c-5.03,5.22-21.21,15.77-28.41,15.21-6.82-.53-11.54-14.28-13.24-19.91-2.34-7.74-7.21-27.94-1.29-34.13,3.27-3.42,7.86-1.67,11.7-.28,9.77,3.55,32.93,19.42,35.1,29.95.94,4.55-.94,6.13-3.85,9.16ZM379.23,331.88c-4.06,1.22-1.99,12.93-1.41,16.32.92,5.31,6.43,25.24,10.72,27.81,2.89,1.73,6.7-.18,9.43-1.4,3.81-1.7,16.97-9.94,17.95-13.65,1.75-6.68-11.23-16.77-16.08-20.25s-14.89-10.55-20.6-8.84Z"/>
  <path d="M511.3,419.73c12-.61,9.9,5.28,5.44,13.02-2.96,5.14-14.52,20.92-19.81,22.5-6.25,1.87-16.27-5.45-20.88-9.49-5.73-5.03-10.99-9.51-2.48-15.13,7.21-4.75,29.01-10.47,37.73-10.91ZM514.44,425.39c-2.71-2.52-20.24,2.23-24.36,3.46-3.86,1.15-8.46,2.47-11.92,4.51-5.34,3.14-3.55,4.4.41,8,3.33,3.03,11.88,9.22,16.45,8.27,6.08-1.25,17.1-17.12,19.93-22.82l-.52-1.42Z"/>
  <path d="M489.16,293.38c2.85-.45,7.63-.95,9.27,1.8,1.4,2.35,1.44,12.98.71,15.76-1.49,5.68-14.66,13.46-20.1,11.85-5.07-1.51-4.43-18.84-1.99-22.57,2.02-3.08,8.56-6.26,12.12-6.83ZM494.92,297.11c-3.83-.87-12.42,2.01-14.45,5.26-1.56,2.5-2.52,14.79-.01,16.47,2.62,1.75,12.65-4.77,14.19-7.34,2.35-3.95,2.14-10.3.28-14.39Z"/>
</svg>