<?xml version="1.0" encoding="UTF-8"?>
<svg id="katman_1" data-name="katman 1" xmlns="http://www.w3.org/2000/svg" viewBox="0 0 841.89 595.28">
  <path d="M502.84,150.55c20.93-32.37,49.88-61.1,81.48-83.16,22.89-15.98,53.57-32.41,80.98-38.24,8.53-1.81,28.45-6.8,30.19,5.6,3.91,27.98-24.53,82.94-39.53,107.03-19.52,31.36-44.04,58.95-71.22,83.83,3.01,12.31,8.05,24.09,10.58,36.77,1.9,9.55,1.36,24.43,3.26,31.59.61,2.32,6.55,10.99,8.19,14.73,18.22,41.5,8.61,86.82-23.86,117.75,9.3,55.24-3.65,122.77-65.07,139.37-7.02,1.9-16.94,1.66-22.46,3.22-4.62,1.31-6.93,8.55-16.01,4.62-2.43-1.05-3.14-4.32-4.5-4.73-1.61-.48-6.05,2.29-9.88,1.71-5.32-.8-5.14-6.51-6.17-7.15-1.85-1.15-7.1,1.43-10.35-2.03-3.82-4.07-2.1-10.97-1.48-15.88-.81-2.44-8.89-.86-9.97-7.51-1.86-11.52,8.84-38.03,14.45-48.71,5.75-10.93,20.93-33.11,31.38-39.23,6.56-3.84,8.43,1.58,10.37,1.24,1.52-.26,3.11-4.7,5.17-3.12-18.76,24.41-35.66,51.26-44.02,81.16,17.29,1.03,6.69,7.78,6.39,17.02-.37,11.31,14.73-5.53,17.79-4.95,5,.94-1.04,15.36,2.36,17.82,3.59,2.6,12.72-7.58,16.56-9.25,4.74-2.07,12.25-2.88,17.91-5.01,44.75-16.86,57.3-62.36,51.79-106.4-4.89,1.04-9.48,3.53-14.44,4.35-3.36.56-6.79-.52-9.87,1.12l-.92-1.8c1.65-1.58,11.01-13.31,9.64-14.67l-8.72,3.65-.44-1.8c49.84-19.94,70.66-75.46,45.08-123.51-1.57-2.94-6.64-8.71-7.27-11.07-1.04-3.91.18-10.08-.23-14.44-2.41-25.71-12.74-49.75-21.08-73.83,2.5-.55,1.56.76,2.26,1.82.88,1.33,3.88,7.16,4.67,7.33,19.97-14.09,36.52-32.8,51.56-52,2.44-17.6.55-36.14-4.15-53.24-2.03-7.37-6.54-20.98-10.14-27.45-.62-1.11-1.26-2.27-2.47-2.84-36.39,24.3-71.43,56.55-91.33,96.04-1.66,1.17-12.21-6.33-14.71-7.62-57.21-29.35-128.1-26.25-182.71,7.56-1.47-.28-7.7-12.83-9.37-15.39-13.51-20.68-33.5-41.72-52.22-57.83-2.99-2.57-29.97-24.19-31.6-22.95-12.88,26.24-19.21,54.07-16.11,83.5,11.47,15.01,24.85,30.14,39.01,42.6,1.98,1.74,12,10.79,13.73,9.58l5.54-9.13c-9.19,25.36-18.38,49.38-21.07,76.58-.36,3.64.66,8.34-.23,11.69-.53,1.98-4.45,6.39-5.76,8.91-11.31,21.8-15.65,44.31-8.71,68.35,7.57,26.22,27.16,47.86,53.2,56.4l-.45,1.81c-2.3-1.69-5.14-2.37-7.8-3.22-1.12-.36-1.29-.95-.93.94.69,3.67,10.52,13.81,9.18,15.12-3.44,0-6.85.18-10.29-.25-4.54-.57-10.62-3.94-13.26-4.2-1.19-.12-1.59.42-1.98,1.39-2.88,33.3,1.79,68.56,28.77,91.08,15.11,12.61,23.8,12.15,40.54,18.15,3.97,1.42,14.14,12.55,17.58,10.22,2.89-3.01-2.25-17.54,1.49-18.25,3.14-.6,14.32,11.52,17.76,9.09,3.44-4.17-4.12-15.46-3.5-17.66.8-2.84,7.6-2.27,9.98-3.4-8.1-29.49-24.92-55.9-43.06-80.21l.44-1.36,4.58,3.68c5.15-3.38,6.87-3.63,11.93-.01,19.02,13.61,44.02,60.78,44.51,83.96.15,6.94-5.28,7.84-10.67,9.54.38,7.17,3.24,15.72-5.62,18.16-1.81.5-4.25-.24-5.77.66s-1.15,4.49-4.95,6.05c-5.73,2.35-8.52-.95-11.1-.68-1.24.13-3.56,4.31-6.59,5-9.59,2.21-10.64-4.41-15.42-5.29-13.37-2.45-20.93-1.97-34.34-7.84-52.42-22.93-59.49-84.07-52.49-134.59-32.1-31.86-41.97-76.07-23.16-117.99,1.61-3.59,6.94-11.15,7.54-13.55,1.08-4.29.49-13,1.15-18.11,2.27-17.39,6.55-34.36,13.44-50.47-30.63-27.69-57.29-59.21-77.8-95.19-12.18-21.37-36.96-71.5-33.69-95.45,1.31-9.57,8.9-9.33,16.92-8.83,34.72,2.18,79.47,28.29,106.71,49.19,27.35,20.99,50.65,46.36,70.39,74.57,1.13.34,17.03-7.11,20.01-8.19,43.22-15.75,94.27-16.58,138-2.24,9.04,2.96,17.45,7.91,26.48,10.39Z"/>
  <path d="M409.27,315.03c21.41-1.09,35.31,37.49,37.67,54.46,3.77,27.13-1.74,67.38-37.03,67.38-52.3,0-43.7-92.99-12.4-117.03,3.12-2.4,7.83-4.61,11.77-4.81ZM403.7,382.9c-7.55,1.17-21.31,10.42-21.7,18.64-.27,5.59,3.61,13.2,7.25,17.38,13.15,15.12,35.4,11.61,45.34-5.14,5.73-9.66,4.41-17.05-4.04-24.24-7.44-6.33-17.27-8.13-26.84-6.65Z"/>
  <path d="M545.1,273.67c0,21.93-17.78,39.71-39.71,39.71s-39.71-17.78-39.71-39.71,17.78-39.71,39.71-39.71,39.71,17.78,39.71,39.71ZM492.66,243.52c-12.91,2.19-15.2,22.35-2.26,26.58,24.95,8.16,26.48-30.69,2.26-26.58ZM525,291.9c2.16-7.75-7.77-14.67-12.3-7.26-3.9,6.38,2.04,11.47,8.63,10.01.02,3.31-.92,6.26,2.4,8.15,11.01,6.26,15-13.74,1.27-10.89Z"/>
  <path d="M312.98,233.47c32.35-2.25,52.01,35.64,33.54,61.11-5.57-3.92-12.86-1.59-11.34,6.01.49,2.46,3.45,3.03,2.35,5.09-32.12,23.54-72.13-7.52-59.64-44.93,4.81-14.41,19.89-26.22,35.1-27.27ZM328.41,247.29c-12.88-12.87-33.21,5.12-21.25,18.95,12.41,14.34,35.36-4.85,21.25-18.95ZM338.09,288.49c0-3.7-3-6.7-6.7-6.7s-6.7,3-6.7,6.7,3,6.7,6.7,6.7,6.7-3,6.7-6.7Z"/>
  <path d="M540.36,327.9c52.26-7.57,48.36,76.09-.92,69.22-34.48-4.81-33.25-64.27.92-69.22Z"/>
  <path d="M267.08,327.9c46.49-6.77,51.89,63.57,13.28,69.22-44.33,6.48-51.69-63.63-13.28-69.22Z"/>
  <path d="M175.33,229.74c10.15-2.32,18.18,10.76,22.43,18.44,2.61,4.71,11.29,22.76-1.3,20.64-5.28-.89-23.37-17.87-25.82-22.87-2.68-5.49-2.35-14.61,4.68-16.21Z"/>
  <path d="M633.53,230.78c10.02-9.26,21.51-.85,16.62,11.58-2.4,6.1-18.14,21.57-24.24,23.43-3.49,1.07-8.48.71-8.96-3.82-.64-6,11.86-26.83,16.59-31.19Z"/>
  <path d="M159.77,273.78c8.04-1.46,29.03,5.8,34.04,12.29,11.06,14.33-26.35,11.13-34.12,6.61-7.65-4.45-9.98-17.07.08-18.9Z"/>
  <path d="M652.24,272.88c6.85-.87,15.56,0,14.71,9.17-1.23,13.2-29.78,14.74-38.87,10.86-4.34-1.86-3.94-6.96-.69-10.04,3.75-3.56,19.57-9.31,24.86-9.99Z"/>
  <path d="M408.33,290.28c13.53-1.46,17.97,12.43,1.57,12.69-13.37.22-14.27-11.32-1.57-12.69Z"/>
</svg>