<?xml version="1.0" encoding="UTF-8"?>
<svg id="katman_1" data-name="katman 1" xmlns="http://www.w3.org/2000/svg" viewBox="0 0 841.89 595.28">
  <path d="M735.03,111.84c1.96,2.36-1.15,12.79-2.01,16.14-4.31,16.64-12.15,33.13-20.48,48.06,22.14,50.15,22.95,109-1.46,158.54-1.91,3.87-6.12,9.2-7.35,12.88-1.77,5.29-1.95,12.66-3.2,18.37-5.69,25.99-24.36,64.58-49.79,76.27-10.55,4.85-3.2-8.08-1.85-13.31,4.22-16.37,5.15-30.84,2.55-47.62-3.64-23.44-14.2-45.12-26.77-64.9.74-.81.85-1.31,2.04-.7,5.17,2.67,15.55,24.43,18.03,30.51,12.23,29.96,15.67,61.46,4.88,92.54,9.43-6.32,14.54-21.48,17.33-32.21,11.17-43.04,1.34-80.72-19.64-118.17-1.38-2.47-1.09-4.55,1.23-1.9,5.56,6.34,11.38,19.39,14.39,27.41,13.82,36.82,15.42,79.49-1.85,115.44.74.77,5.68-4.6,6.41-5.38,12.89-13.79,22.28-32.68,27.47-50.73,11.26-39.13,6.98-81.08-3.55-119.84,1.55-1.8,4.31,8.57,4.52,9.29,7.23,24.24,8.64,50.44,8.29,75.65l2.81-4.26c6.16-12.84,11.3-26.17,14.5-40.11,8.79-38.29,3.42-77.77-10.58-114.05-1.24-.29-1.31.43-1.91,1.12-3.08,3.55-6.16,9.62-9.27,13.65-11.35,14.72-24.99,27.32-40.04,38.19,15.31,24.52,24,52.76,26.95,81.53.56,5.48,1.17,12.05,1.38,17.5.11,2.75.39,15.72-.35,17.23-.14.29-.84.84-1.01.66-1.33-5.39-.35-11.01-.69-16.51-2.14-34.26-10.58-69.51-29.98-98.05-10.92,7.16-22.33,13.68-34.59,18.3-1.21,7.83-1.17,15.85-2.25,23.7-3.33,24.25-12.25,47.75-25.52,68.16,4,6.84,7.91,13.81,10.03,21.52l-1.95,1.08c-.11-2.84-8.22-19.54-9.78-19.54l-9.43,12.03,2.49,18.49c19.71,21.4,18.52,53.4,4.45,77.54l-7.96,11.25c.81.77,16.66-8.88,18.42-10.23,7.62-5.86,9.49-22.02,10.56-31.24.42-3.64-1.05-8.03,1.7-11.11.83,12.22-.9,24.88-5.06,36.39,2.89-.1,6.31-6.41,8.77-5.08,2.8,1.51,4.74,11.97,4.72,15.2,1.56.25,2-1.33,2.71-2.34,20.11-28.89,5.87-84.6-15.54-109.88-2.21-2.6-5.27-4.84-7.4-7.43-.62-.76-1.64-1.09-1.34-2.36,2.51-2.21,10.22,6.26,11.8,8.08,22.37,25.63,35.37,83.14,15.7,112.8-1.14,1.71-6.17,8.78-8.58,7.15-1.42-5.03-.05-10.33-2.6-15.26-.31-.6.16-1.1-1.17-.88-1.23.21-5.93,4.83-7.53,5.97-6.47,4.64-13.71,9.36-20.88,12.83-2.06,1-10.04,3.45-10.73,4.81l7.15,66.37c.36,8.96.58,31.79-6.8,37.76-9.22,7.45-30.33,5.47-41.24,2.86-29.05-6.96-51.1-33.39-67.05-57.13l-26.88.06c-20.55-1.73-41.23-3.2-61.35-7.85-21.96,23.29-50.76,41.69-84.23,38.82-31.76-2.73-20.46-25.64-5.2-40.91.94-14.26,2.33-28.76,6.85-42.34-.13-1.56-5.05-.85-6.37-1.01-20.01-2.42-38.75-11.3-54.04-24.16l-1.58-.1c-.28,6.3-4.75,14.14-5.24,20.06-.1,1.19.55,2.21.52,3.21-.1,2.5-10.86,20.3-13.2,23.2-2.48,3.08-10.76,12.05-14.91,10.36-7.39-3.01-11.24-23.06-12.25-30.27s-1.17-9.06.28-15.72c2.24-10.29,3.82-20.83,5.91-31.17,1.11-5.52,3.9-13.48,4.37-18.61.2-2.19-.8-3.82-.43-5.71.28-1.41,1.81-2.5,2.26-3.86,1.18-3.52,6.06-21.39,5.58-23.78s-2.61-5.16-3.06-8.42c-1.42-10.35,6.71-41.78,9.99-53.03,3.38-11.6,6.76-18.55,18.03-24.38-5.15-26.8-1.26-54.41,6.9-80.19-3.5-6.61-7.47-12.87-10.73-19.62-19.54-40.48-30-103.22-7.63-144.29,3.16-5.79,4.29-6.41,11.27-6.33,29.51.38,63.59,19.01,85.26,38.12,1.88,1.65,9.75,10.5,11.12,10.5,3.47-2.97,6.58-6.59,10.12-9.46,41.55-33.66,128.33-34.92,168.18,1.66,5.82,5.34,3.05,4.97,2.31,11.81,2.5,1.17,6.66,4.36,9.3,3.93,62.55-27.94,139.1-20.51,200.3,7.63,2.79,1.28,15.05,7.21,16.41,8.86ZM305.8,106.93c-1.87.34-2.61-.89-3.71-2.01-6.64-6.76-13.02-17.17-19.86-24.63-11.34-12.35-35.12-34.23-51.75-37.23-5.32-.96-5.68,2.46-7.71,6.79-16.64,35.4-12.35,81.65.61,117.6,4.36,12.1,9.93,24.72,17.37,35.2,4.36-8.57,7.77-17.59,12.36-26.06,16.31-30.15,41.4-56.21,70.7-73.9.38-3.24,3.13-9.66,1.59-12.31-1.25-2.14-10.34-9.98-12.84-12.11-19.6-16.71-43.73-30.07-69.45-34.03,3.71,3.09,8.33,4.86,12.35,7.53,16.87,11.23,37.49,34.24,48.48,51.29.44.69,2.42,3.34,1.87,3.86ZM406.12,56.57c-22.47,1.6-60.68,14.65-74.3,33.56-11.6,16.11,2.77,45.82,15.43,57.94,46.67,44.66,120.1,2.39,148.95-42.55,2.26-3.53,10.32-17.06,9.85-20.46-.34-2.49-11.92-9.46-14.65-11.03-25.25-14.52-56.31-19.52-85.28-17.46ZM723.1,110.3c-4.47-3.47-10.72-5.82-16.01-7.91-51.44-20.31-107.97-28.1-161.96-12.64-7.53,2.16-14.88,5.12-22.25,7.76-.37,1.6.28,1.08.87,1.49,5.26,3.61,11.07,6.46,15.63,11.12,28.71-15.89,62.91-21.87,95.4-24.08l-1.12,1.91c-32.51,3.66-66.92,8.74-94.99,26.43-2.11.18-3.73-2.76-5.36-4.05-7.9-6.22-16.85-11.04-26.18-14.75-4.15,5.5-7.28,11.92-11.34,17.64-30.59,43.2-100.47,80.62-147.83,40.89-16.04-13.46-20.15-25.61-23.97-45.47-.11-.57.31-1.52-.98-1.02-1.93.76-8.23,5.59-10.39,7.14-37.67,27.18-65.22,69.48-75.12,114.99-4.19,19.29-5.1,38.27-1.77,57.82,11.17-1.08,21.71-.85,30.62,6.8,11.29,9.7,9.51,21.46,6.9,34.5-.82,4.12-6.52,23.31-5.55,25.45s14.23,12.07,16.99,14.05c50.79,36.5,115.75,45.32,176.17,30.81,3.24-.78,10.03-2.05,12.62-3.56,2.16-1.27,4.93-6.04,6.9-7.93,19.94-19.26,46.99-30.35,74.88-24.94,4.88.95,9.54,3.07,14.33,4.32,30.84-28.3,46.34-70.38,47.67-111.82l-4.07-.31c-.95-.63-.81-1.51-.34-2.4.7-1.32,12.74-5.27,15.18-6.39,53.09-24.34,92.12-73.49,103.89-130.78l-.45-1.08c-20.59-1.69-42.21,1.15-62.31,5.8-33.09,7.65-63.18,22.81-91.67,40.8-.2.99.77.68,1.47.87,2.06.55,7.86,2.09,9.6,1.82,2.05-.32,11.61-7.46,14.53-9.11,19.39-10.93,48.05-21.59,69.61-27.47.45-.12,7.02-2.35,5.9-.17-23.72,9.61-48.85,16.12-71.47,28.31-2.51,1.35-12.91,7.18-14.15,8.77-.59.75-.97.55.01,1.35,1.63,1.31,7.58,3.24,10.12,4.71,7.84,4.55,9.22,5.39,1.66,11.8-3.35,2.84-9.3,6.48-13.35,8.23-2.69,1.16-15.33,5.52-16.98,3.26l.33-1.7c11.88-1.85,22.78-7.55,31.68-15.5-9.8-7.69-22.25-10.4-34.36-12.14-1.16-.73-1.76-1.74-1.06-3.03.56-1.04,13.13-9.05,15.26-10.39,24.99-15.73,53.29-27.91,82.18-34.45,17.9-4.05,36.21-6.48,54.61-5.73ZM255.92,297.72l-10.09-3.73-.03-2.02c2.78-1.86,11.5,4.75,13.95,4.97.88.08,1.03-.35,1.56-.92-9.04-6.63-21.65-6.55-31.2-.88-1.75,1.04-7.77,5.52-7.18,7.53,1.04,3.5,36.11,14.05,41.76,12.56.55-3.7-2.79-15.03-7.42-13.88-1.63.4-10.11,6.53-10.78,3.42-.51-2.38,8.39-5,9.43-7.06ZM263.67,299.08c-2.26,1.58.53,2.86,1.39,4.67,1.71,3.59,2.62,7.03,2.42,11.06l.53.82c2.31.83,3.21.35,3.47-2.05.5-4.62-3.52-12.38-7.8-14.5ZM266.71,319.29c-10.49-1.1-21.26-3.31-31.18-6.92-5.15-1.87-9.92-4.55-14.99-6.59l-1.39,4.07c3.06,3.19,10.52,5.4,6.64,10.83-2.77,1.84-7.65-2.96-8.62-2.76-4.5,4.93,3.67,7.63,7.5,9.34,11.9,5.34,25.67,7.77,38.67,8.19v-4.05c-6.25.28-24.52-1.53-28.68-6.03-2.4-2.6-1.48-6.65,2.04-6.7,1.95-.03,11.04,3.15,14.38,3.76,2.59.47,11.14,1.91,13.25,1.54s2.46-2.8,2.38-4.7ZM264.68,327.38c-9.64-.95-19.08-2.43-28.31-5.4-.25,1.48.96,1.85,2.01,2.36,4.6,2.22,17.93,4.16,23.24,4.4,1.37.06,3.6.62,3.06-1.37ZM261.31,338.84c-11.24-.09-23.39-2.91-33.88-6.91-2.24-.85-11.62-6.02-12.29-5.9-5.56,1,7.37,8.38,7.78,9.05,1.77,2.89.2,5.25-3.05,5.14s-8.7-5.41-8.42-.35c.19,3.3,13.79,8.31,16.97,9.25,4.34,1.29,9.38,2.32,13.85,3,2.33.35,13.95,1.85,14.98,1.22.79-.49,1.89-2.67.69-3.41-1.38-.85-6.34-.11-8.44-.33-3.7-.38-18.24-2.6-20.4-4.88-1.25-1.32-1.36-5.32.5-6.25,2.16-1.08,14.89,3.14,18.62,3.64,1.8.24,12.14,1.03,12.77.12l.3-3.41ZM220.19,337.48c1.22-1.14-5.77-4.54-6.73-4.71-1.38,1.36,6.21,5.21,6.73,4.71ZM253.89,345.58l-22.92-4.04c4.27,4.01,11.67,3.5,17.16,4.74l5.75-.7ZM256.59,357.04c-15.63-1.44-32.51-3.27-45.5-12.8-4.1,5.22,7.97,6.71,6.29,12.31-1.8,5.21-8.39-2.38-9.32-1.54-2.84,7.35,7.53,12.03,13.13,14.17,9.72,3.71,20.41,4.81,30.71,3.72,4.44-7.33-4.34-4.66-9.04-5.17-3.99-.43-16.19-2.21-18.64-4.95-1.59-1.78-1.73-4.32.3-5.8,1.9-1.39,11.78,1.56,14.98,1.98,5.11.67,10.26.56,15.35,1.33l1.74-3.26ZM369.17,406.93c-33.83-5.95-65.81-19.16-92.96-40.19-1.35-1.05-9.97-9.16-10.85-8.35-1.09,7.34-4.22,7.19,1.66,12.82,17.81,17.06,42.74,31.77,66.07,39.77,3.45,1.18,21.18,6.88,23.27,5.75.58-.31,3.87-4.23,5.45-5.37,2.48-1.78,5.18-2.54,7.35-4.44ZM226.26,361.07c4.94,1.46,10.04,2.77,15.17,3.37,2.56.3,7.75.87,10.13.72,1.21-.08,2.2.16,3-1.05l-26.63-4.38-1.67,1.34ZM579.5,364.46c-.81-.94-5.24,4.47-6.05,5.05l7.4,5.05-1.35-10.11ZM581.29,380.87c-40.49-40.49-130.71,5-109.49,62.64,13.57,36.85,58.66,51.66,92.4,32.05,31.25-18.17,44.41-67.36,17.09-94.69ZM210.74,373.22c-.71-2.56.17-7.21-3.36-7.41-.29.3,1.66,7.14,3.36,7.41ZM259.29,367.83c-3.27-.41-3.17,2.46-4.04,4.71,2.65.37,4.17-2.4,4.04-4.71ZM247.15,376.59h-10.45c-2.31,0-8.39-1.79-10.96-2.52-3.98-1.13-7.98-2.55-11.59-4.61-2.49-.58-.27,4.63.28,5.81,5.46,11.62,28.74,16.06,32.73,1.32ZM464.23,430.18c-.32-3.33.23-7.07,0-10.45-18.03,3.48-36.23,5.85-54.6,6.75,3.6,9.98,2.8,23.65-3.77,32.3-13.81,18.18-42.04,12.56-51.88-6.65-5.13-10.01-4.96-21.38-.98-31.71-34.1-7.22-65.58-24.6-90.67-48.53-2.11,2.88-3.43,6.33-5.74,9.07-1.57,1.86-7,5.53-7.39,6.27-1.64,3.1-4.26,17.35-5.12,21.73s-1.11,4.6-2.29,8.44c-2.44,7.9-3.44,16.34-5.77,24.28.02,1.58,6.3,5.99,7.97,7.2,10.66,7.77,23.84,14.27,36.75,17.18,2.66.6,13.27,2.66,15.16,2.12,1.46-.42,5.48-10,6.2-12.05,3.75-10.74,5.23-22.9,9.12-33.69l1.94,1.11c-4.32,25.86-15.5,50.07-18.71,76.16-.58,4.66-.08,11.76-1.05,15.81-.61,2.54-5.22,6.6-7.1,9.08-1.46,1.93-4.21,4.84-3.74,7.05l11.47-9.42c3.15,2.66-4.21,5.8-6.42,7.73-3.53,3.08-12.77,11.28-8.42,15.84,3.9-7.23,11.56-13.13,19.89-13.47l-.05,1.96c-6.14,2.07-17.24,7.03-15.73,14.96,33.43,10.95,68.05-9.28,90.59-32.77l-12.77-5.09c-.22-.92,0-2.39,1.04-2.6,1.15-.24,10.31,3,12.54,3.53,23.53,5.65,49.49,8.72,73.67,9.25,13.26.29,24.88-1.77,37.79-2.72,1.68-.12,3.38.04,5.05,0,.07,1.09.23,1.56-.69,2.33-2.3,1.92-13.51,1.89-17.2,3.04-.64.2-1.33-.39-.94.99.8,2.86,7.23,10.77,9.42,13.5,9.88,12.33,27.18,29.68,41.79,35.74,11.79,4.89,26.43,7.23,39.08,5.73.78-11.5-9.11-21.78-18.84-26.31l1-2.67c7.65,3.13,16.11,10.89,19.04,18.69.74,1.96,1.67,9.46,2.53,9.62,1.62-.82,6.56-1.95,6.91-3.78-1.27-9.18-5.87-19.18-13.01-25.19-.81-.68-11.3-6.93-4.85-5.96,8.48,1.28,18.98,17.92,20.04,26.16,1-.11,1.5-2.51,1.7-3.34,2.34-9.34,1.67-21.73.98-31.37-1.42-19.92-4.87-39.79-6.74-59.66l-15.15,7.42c-39.08,15.51-87.92-10.78-92.03-53.61ZM254.57,376.59l-3.76.62-5,7.47c3.41-1.74,8.02-3.84,8.75-8.09ZM245.13,388.73c-8.64,1.41-16.67.82-24.73-2.58-3.81-1.61-6.69-4.47-10.32-5.52l-4.65,19.11,2.62,1.12c.76-3.26,1.19-9.64,2.83-12.34.79-1.29,1.05-1.3,2.56-1.14l-2.4,15.5c1.27,2.01,13.56,4.67,16.51,4.67.69-.6,3.04-12.97,4.22-14.99,1.24-2.12,3.34-1.35,3.12,1.04s-4.54,13.98-3.92,14.67c3.2,1.12,5.75.1,8.97.03l5.18-19.56ZM470.96,400.86c-24.92,6.11-50.48,8.69-76.17,9.09,5.33,3.12,9.01,7.94,13.22,12.31,19.11-.57,38.32-2.1,56.88-6.91l6.07-14.49ZM240.42,411.64c-8.5.1-17.09-.76-25.12-3.54-4.1-1.42-7.29-3.86-10.84-5.35-2.16-.91-2.3,1.29-.81,2.84,2.98,3.1,15.93,7.13,20.42,7.89,2.88.49,14.07,1.61,15.95.23l.4-2.08ZM203.34,409.62c-1.69,7.17-3.55,14.34-5.09,21.55-1.51,7.04-4.82,20.11-5.06,26.69-.12,3.52,3.75,4.19,6.41,5.69.73-.46.85-.92,1-1.71,3.13-15.68,5.14-31.63,8.81-47.21.59-3.25-3.65-4.18-6.08-5.01ZM377.12,409.82c-40.34,3.24-23.32,68.15,14.76,54.53,27.67-9.89,17.12-57.09-14.76-54.53ZM237.72,417.03h-11.8l-13.14-3.37-9.39,51.86c.61.71,15.64,2.91,17.82,2.8s3.35-.27,4.43-2.37c3-5.82,6.39-23.03,8.13-30.3.56-2.32,4.63-17.95,3.96-18.63ZM226.26,470.97h-11.12c-2.19,0-10.75-2.19-13.13-3.05-2.69-.98-7.86-4.78-9.79-5.05-1.54-.22-1.27,1.13-.7,2.06,3.19,5.18,29.39,11.29,33.76,8.11.69-.5,1.14-1.16.97-2.06ZM202.03,499.25c-2.56-8.62-4.37-17.47-4.86-26.5l-4.61-2.46c.84,4.5,1.12,9.16,2.22,13.62.77,3.14,4.83,15.78,8.26,16.07,5.19.44,20.2-21.97,18.5-23.62-7.5.55-14.41-.71-21.57-2.7l2.7,18.2c1.9.17,4.84-17.87,7.4-14.83.02,7.7-3.59,15.04-6.14,22.16l-1.91.06Z"/>
  <path d="M450.31,180.65c9.1-8.85,21.94-11.02,33.98-7.83,52.26,13.85,62.73,115.66,3.9,118.17-52.42,2.24-68.55-80.53-37.88-110.34ZM457.99,181.24c-2.34.34-3.98,1.62-5.58,3.2-10.24,10.11-9.56,41.63,4.37,48.25,13.62,6.47,21.72-10.24,21.63-21.57-.08-9.43-8.49-31.61-20.41-29.88ZM495.67,253.27c-10.13,12.01-25.49,11.04-36.4.67-13.58,13.88,3.48,28.24,17.25,31.82,6.9,1.8,13.89,1.56,20.72-.56,3.03-.94,12.06-5.15,12.1-8.72.04-3.84-10.33-23.8-13.66-23.22Z"/>
  <path d="M313.06,176.54c27.09-3.69,25.75,43.21,23.67,60.07-2.24,18.19-14.89,55.1-36.16,58.22-25.09,3.68-32.37-31.58-31.2-50.08,1.41-22.19,18.36-64.78,43.68-68.22ZM319.76,184.6c-8.4,1.96-15.37,19.57-16.58,27.23-1.2,7.53-2,31.18,10.76,28.29,8.98-2.03,16.57-20.84,17.4-29.12.8-7.96,1.33-29.41-11.58-26.4ZM295.93,265.79c-3.31-3.36-4.53-8.27-5.96-12.56-5.59,2.64-12.72,11.47-12.51,17.84.12,3.71,3.67,9.99,6.09,12.85,11.04,13.05,23.79,7.36,33.03-4.08,4.85-6,3.58-6.94.68-13.8-2.52.88-4.04,2.9-6.86,3.58-5.52,1.34-10.48.22-14.47-3.82Z"/>
  <path d="M441.98,284.23c.83,3.49-3.81,2.75-4.08,5.06-.35,3.01,2.21,12.39,2.65,16.26,3.38,29.43-1.33,75.26-41.36,71.7-34.19-3.04-48.94-44.33-55.42-72.67-.68-2.97-.85-8.07-1.71-10.43-.65-1.78-4.2-2.51-3.89-4.18.28-1.52,1.67-.49,2.33-.33,13.72,3.2,22.26-3.61,34.4-8.84,8.29,1.75,16.63,3.67,25.05,4.68,13.69,1.65,28.76,2.93,42.03-1.25ZM437.11,309.99c-25.73-5.3-59.62.33-71.9,26.57-1.28,2.73-3.35,7.49-2.4,10.33,2.96,8.9,17.51,21.06,26.13,24.43,40.36,15.79,54.31-30.49,48.17-61.33Z"/>
  <path d="M368.98,253.36c1.67-.37,6.3-.06,6.87,1.62l-.24,2.32c-4.7,4.38-14.63-2.16-6.63-3.94Z"/>
  <path d="M368.73,99.08c14.63-15.22,39.27-18.47,56.89-6.46,29.12,19.85,2.4,51.68-24.44,54.08-29.24,2.61-57.11-21.97-32.45-47.62ZM397.34,88.92c-28.31,2.99-50.64,38.43-16.2,51.56,14.7,5.61,31.54,1.93,43.33-8.26,25.08-21.66-2.43-45.91-27.12-43.3Z"/>
  <path d="M255.86,146.65c-3.19.15-23.01,4.72-23.38,7.11,1.29,3.51,2.68,6.95,4.45,10.25,2.61,4.88,7.36,9.78,9.57,14.02.56,1.08.9,1.75.65,3.05-1.24,1.28-5.52-4.39-6.35-5.44-1.77-2.26-4.25-6-5.65-8.5-1.56-2.78-6.77-13.2-5.2-15.72,3.82-2.88,8.59-3.63,12.9-5.32.68-.27,1.19.37.9-1.03-11.14-15.39-18.08-32.99-22.83-51.33-.98-3.78-2.6-8.82-3.01-12.55-.32-2.98.98-3.98,2.07-.68,4.38,13.24,6.69,26.38,12.44,39.48,1.88,4.28,11.65,23.28,15.21,24.56.83.3,3.37.72,2.88-.85-14.65-21.35-26.68-50.07-28.3-76.2-.1-1.61-.52-8.77,1.01-9.09,2.5-.53,1.51,5.63,1.68,7.07,2.55,21.53,10.76,45.36,21.45,64.17,2.07,3.63,8.13,10.97,9.18,13.73.41,1.07.59,2.16.31,3.29Z"/>
  <path d="M373.04,415.85c14.32-2.21,28.83,5.96,30.52,21.07,3.33,29.85-36.01,33.08-45.3,6.87-3.99-11.26,2.44-26.04,14.78-27.94ZM393.88,425.36c-17.73-17.74-45.58,4.2-27.75,24.71,19.13,22,46.9-5.55,27.75-24.71Z"/>
  <path d="M386.26,109.86c4.21-4.54,15.04-5.41,18.93-.19,7.24,9.71-10.05,18.36-18.16,12.09-4.01-3.11-4.16-8.25-.78-11.9ZM394.62,109.11c-12.18,1.73-8.67,14.83,4.11,10.86,8.06-2.51,5.61-12.23-4.11-10.86Z"/>
  <path d="M376.45,425.94c18.16-1.8,21.93,25.52,1.82,23.45-14.22-1.46-16.83-21.97-1.82-23.45ZM376.43,429.32c-13.3,1.92-5.91,20.52,7.4,16.19,9.89-3.22,3.27-17.73-7.4-16.19Z"/>
</svg>