<?xml version="1.0" encoding="UTF-8"?>
<svg id="katman_1" data-name="katman 1" xmlns="http://www.w3.org/2000/svg" viewBox="0 0 841.89 595.28">
  <path d="M439.19,20.39c.72-.59,1.11-2.07,2.46-2.78,5.43-2.84,4.54,4.87,7,6.86,9.67,4.77,21.69,6.94,31.17,11.83.8.41,3.29,1.78,3.44,2.56l-22.93,33.18c4.86.77,9.69,1.35,14.39,2.86,2.85.92,12.08,5.82,13.81,5.64,1.39-.14,8.07-4.45,10.12-5.43,12.1-5.81,35.17-15.07,48.4-13.04.87.13,1.81.44,2.22,1.31,1.63,5.02-10.15,14.36-13.78,17.07-10.62,7.92-22.74,13.54-35.2,17.92-.33.76-.51,1.59-.5,2.42.22,11.82,4.71,30.12-1.85,40.11-1.12,1.71-5.04,5.47-5.39,6.61-.77,2.49,0,6.93-.23,9.77-1.16,14.55-8.1,26.64-18.43,36.61-.25.97,2.82,6.34,3.65,7.18,1.43,1.44,4.17,1.35,5.29,2.84,1.46,1.94.91,5.39,2.26,7.61,1.96,3.23,9.86,8.95,12.99,12.01,1.88,1.83,7.92,7.75,8.77,9.72,1.76,4.05-2.19,8.32-1.31,10.27,5.83,7.49,12.89,14.39,18.75,21.78,7.59,9.57,6.72,15.22-1,24.47-10.17,12.18-19.68,8.1-33.21,11.29-.57.13-.94.17-1.28.74l5.41,12.12-.88,12.34c14.03,24.83,28.5,49.53,44.07,73.43,2.55,3.91,8.85,14.75,11.63,17.37,2,1.89,8.41,3.67,11.29,5.21,9.16,4.93,17.27,14.82,25.75,21.25,10.75,8.14,19.94,11.45,27.33,23.67,1.86,3.08,4.3,9.62,6.41,11.95,1.59,1.76,5.36,2.53,6.72,4.92,2.41,7.49,2.39,16.09,4.43,23.57,1.18,4.33,3.72,8.88,5.21,13.29,3.13,9.26,6.87,24.72,6.14,34.35-1.31,17.24-28.69,20.66-42.22,20.78-16.96.15-31.98-3.57-33.26-23.28-.63-9.75,4.36-21.13,4.96-30.57.05-.83.1-1.24-.43-1.96-.3-.4-7.03-4.81-8.27-5.72-3.59-2.66-5.52-3.37-8.93-5.57-5.06-3.26-6.38-8-8.05-13.45-8.7-3.25-14.86-2.92-19.55-11.95-1.58-3.04-3.53-10.88-5.22-12.78-1.34-1.5-7.47-4.7-9.68-6.32-13.27-9.77-26.64-25.94-37.33-38.67-8.8-10.48-17.85-24.32-27.26-33.74-3.12-3.13-6.55-4.99-10.86-6.14-6.16-1.65-6.56-.48-11.14,3.16-14.54,11.58-30.86,28.67-43.52,42.48-4.54,4.95-10.27,10.98-14.23,16.27-.97,1.29-3.03,3.98-3.03,5.47,0,1.31.83,2.23.41,3.89-.57,2.23-3.25,3.17-4.4,4.62-2.6,3.25-4.05,26.08-5.06,31.94-.65,3.8-.69,5.7-3.17,8.83-1.39,1.75-7.77,7.06-8.15,8.35-1.18,3.97,1.72,10.4,1.31,14.26-.45,4.14-6.29,7.18-6.66,8.82-.22,1,.84,3.15.63,5.17-.46,4.41-4.09,9.38-4.38,13.65-.57,8.26,2.6,17.97-.05,26.44-1.35,4.31-8.31,5.04-12.26,5.74-7.66,1.37-16.66,2.3-24.44,3.06-12.88,1.24-47.88,4.01-57.76-4.24-4.74-3.96-4.23-15.73-2-21.02,1.83-4.36,13.34-17.12,17.5-19.5,1.86-1.07,10.14-3.7,10.44-4.56,1.15-3.4-1.38-7.83,1.58-11.92.6-.83,2.96-2.41,3.01-2.6.86-3.54-1.02-8.57-.28-12.67.85-4.77,5.65-7.46,7.3-11.7,1.97-5.05.39-11.14,1.97-17.03,3.55-13.25,13.1-28.46,18.24-41.76,3.14-8.12,4.58-16.89,9.36-24.14,2.34-3.55,5.68-7.26,8.42-10.58,10.44-12.65,21.83-24.55,32.48-37.02.21-1.17-.52-.65-1.25-.73-1.19-.13-3.63.05-4.58-.38-2.27-1.03-3.64-4.5-5.19-5.35s-4.56-.91-6.37-1.63c-2.55-1.01-10.11-10.15-9.99-12.77.12-2.86,7.41-15.64,9.38-18.65,1.75-2.65,3.81-5.88,6.67-7.33,4.51-2.29,10.68-5.19,15.66-3.98,7.57,1.83,3.18,9.71,10.94,10.95.35-.05,2.56-5.13,2.65-5.75.15-.98-1.72-4.38-1.91-6.39-.51-5.33,2.04-8.57,2.04-13,0-5.37-1.83-11.46-2.16-16.89-.98-2.68-10.23-1.93-12.14-6.36-.95-2.21-1.6-6.81-2.1-9.4-1.72-8.78-2.18-17.94-3.89-26.61-1.29-6.58-5.08-14.27-5.29-20.73-.17-5.19,3.91-19.77,8.27-22.77,1.54-1.06,5.13-1.86,6.27-3.36,1.05-1.39,2.9-7.62,2.39-9.28-.41-1.32-7.85-4.07-9.59-4.92-4.16-2.05-11.35-5.04-14.79-7.71-2.25-1.75-3.93-5.86-5.39-6.61-2.79-1.45-17.63-2.44-18.6-5.44-.32-.99.29-2.19.94-2.95.53-.63,2.3-.67,1.27-1.73-1.65-1.7-11.08-.93-12.05-4.47-1.1-4.02,6.81-12.83,6.78-13.78-.05-1.28-4.21.23-5.23.28-8.54.38,2.43-7.96,1.24-9.02-8.17.53-3.95-5.6-.98-9.24,2.24-2.75,5.59-5.62,8.33-7.91l.63-1.65c-.55-8.37-3.38-17.22-3.97-25.46-1.21-16.62,22.15-30.24,35.73-35.25,3.27-1.21,8.36-1.95,11.12-3.38,3.32-1.73,3.62-5.71,9.35-5.56,3.19.08,4.06,1.75,6.12,2.88s16.96,2.66,19.94,2.62c.6,0,1.19,0,1.73-.31l27.51-32.98c1.38-.63,3.01-.21,4.42.06,4.37.86,10.36,4.04,14.45,4.59.92.12,1.73.05,2.47-.56ZM437.27,24.1c-.42-.69-13.59-4.54-15.34-4.92-.95-.21-1.87-.74-2.76-.1l-24.82,29.71,32,8.53c1.61-7.9,3.18-15.7,6.4-23.12.75-1.72,5.13-9.11,4.52-10.1ZM441.4,26.11c-1.91,3.75-4.43,7.62-4.84,11.92-.08.78-.37.89.53,1.51,1.01-2.66,3.34-2.02,4.95-3.04,2.24-1.44,1.07-7.17,1.22-9.62l-.39-.61-1.47-.16ZM479.81,39.07l-32.73-11.53c1.76,13.18,1.5,26.52.25,39.75-.14,1.53-1.67,6.23-.5,7.04,2.55-.61,7.32-.13,9.27-1.77l23.28-31.72.43-1.76ZM446.83,39.54c-1.05-.14-1.88.06-2.86.39-2.87.96-13.03,8.38-14.64,10.86-1.05,1.61-1.4,6.33-1.52,8.48-.47,8.32-.05,17.53.75,25.79l2.52-1.01c.37-.08.34.51.24.74-.71,1.72-3.91,5.06-5.09,7.42-4.13,8.28-3.76,18.08-6.4,26.84,7.64-6.26,16.21,0,14.95,9.21-.95,6.97-8.92,10.17-14.45,5.79-.94,1.22,5.95,8.26,6.49,10-.55.54-3.58-2.74-4.01-3.23-1.26-1.43-2.02-3.08-3.07-4.43-.43-.56-.5-1.03-1.41-.83-3.43,9.84-3.9,18.99-1.36,29.1,2.12,8.44,6.51,15.23,9.91,23.09.45.55,2.72,1.68,3.29,1.71.64.04,1.11-.78,1.9-.83.95-.05,4.5.52,4.7.38.8-.55.32-2.71,3.58-1.66,4.42-9.68,3.38-20.71.99-30.8,1.06.64,1.63,2.6,2.01,3.73,1.63,4.87,1.79,10.39,1.48,15.51-.09,1.54-1.84,6.18-.18,6.72.93.3,1.56-.06,2.21-.69,1.24-1.17,3.54-6.24,4.86-8.14,3.2-4.6,7.28-9.24,12.11-12.14l-11.9,14.35c-1.33,2.35-2.78,4.67-3.84,7.16-1.44,3.39-1.61,7.75-4.73,9.8.41,1.99,1.78,2.17,1.18,4.71,2.25.95,3.59-.28,4.26,2.77,2.09-.74,2.9.18,4.76.73l1-1.08c.91-.14,1.72,1.02,2.43.96,1.28-.1,9.41-5.36,10.99-6.5,15.27-11,22.1-26.63,21.84-45.4-1.11-1.15-7.44,5.96-9.5,4.75,2.57-2.06,13.24-9.98,13.99-12.51.39-1.31-2.6-.11-4-.46-4.97-1.26-7.05-7.34-6.45-11.98.92-7.1,10.12-11.74,13.96-4.29l.93-.83-.94-16.91-2.49-14.26,2.28,3.52c5.27-2.05,21.54-6.63,24.44-11.05,1.37-2.08,3.74-15.16,2.24-16.43-3.7.02-7.49,1.87-10.95,3.22-3.1,1.22-23.59,10.19-23.95,12.05l.93,2.18c-.31.3-4.86-3.13-5.66-3.58-11.65-6.61-26.7-9.45-39.84-6.17-1.12.28-6.23,2.47-6.49,2.25-.96-.79.74-1.07.99-1.24,1.95-1.27,4.63-1.6,5.47-4.05,1.36-3.97,1.83-13.08,2.03-17.47.24-5.4-.17-10.85,0-16.25ZM366.33,48.05c-3.22-1.34-6.5-1.51-8.99,1.24-.03,1.39,7.52.24,8.37-.12.72-.3.75-.14.62-1.12ZM408.83,104.54c-.52-12.65-.34-25.45-2.86-37.89-2.31-6.19-5.93-11.75-12.62-13.38-26.82-6.51-55.54-.61-76.02,18.01-6.31,5.73-8.63,9.02-7.93,17.94.51,6.47,2.2,16.56,3.45,23.05.11.59.22.9.74,1.25,27.94-19.31,63.65-15.5,95.25-8.99ZM420.76,105.47c.69-3.48,1.5-6.9,2.43-10.32.34-1.25,1.32-2.43,1.53-3.47.94-4.58-2.15-18.66-4.15-23.13-3.04-6.8-12.33-11.3-19.24-13.01,1.25,2.97,3.54,4.77,4.93,7.82,2.03,4.48,2.32,9.15,3.07,13.93l1.07,26.93c.56,1.64,8.56,1.37,10.37,1.25ZM424.83,70.54v-9.75c-3.25-2.23-7.71-2.81-11.5-4,1.22,2.34,4.43,3.33,6.27,5.23,2.52,2.59,3.08,5.94,5.23,8.52ZM541.82,67.06c-.99-1.45-10.81.58-12.28,1.96-1.03.97-.24,1.55-.44,2.53-.47,2.31-1.35,4.55-.53,7,.49.87,1.48-.19,2.02-.51,2.31-1.34,9.49-6.75,10.68-8.82.39-.68.71-1.35.55-2.16ZM401.83,106.03l-.85-1.39c-32.73-6.31-73.3-7.76-96.91,19.89-.67.79-4.05,4.71-3.24,5.5,13.15-2.13,25.65-6.99,38.89-8.85,12.35-1.74,24.97-1.77,37.35-3.15,5.92-.66,9.68-.92,14.82-4.18,3.59-2.27,6.43-5.65,9.93-7.82ZM407.7,107.16c-.85.15-1.79.42-2.36,1.13,1.23,1.16,2.78,3.04,3.35,4.64.14.4,1.18,5.09,1.17,5.38-.02,1.59-1.54,1.99-1.34,2.75.31,1.1,1.95,1.92,2.21,2.83.54,1.86-.25,7.91,3.77,6.58,1.63-.54,1.55-5.79,1.97-7.54s1.41-3.31,1.74-5.26c.48-2.91.24-6.29,1.09-9.3l-1.21-.82c-3.46.5-7.01-.99-10.38-.38ZM332.33,142.29c-.29-2.5,0-5.87,0-8.5,0-1.36,2.39-4.96,3.43-6.09l-.44-1.4c-4.43-2.73-7.78-1.5-12.4-.17l-.35,1.16c1.81,6.71,3.57,13.44,5.01,20.25,1.35,6.33,1.97,13.29,3.58,19.42,1.4,5.3,2.64,6.54,7.33,9.17,5.71,3.2,13.9,6.89,20,9.5,11.82,5.08,14.68,6.63,26.3-.38,5.12-3.09,21.52-14.61,23.44-19.56.9-2.31,1.18-5.19,1.11-7.64,1.55-.54,1.03,1.59,1.57,1.93l3.43.07-.55-4.95-2.45-.06c3.3-2.27,2.5-4.86,2.49-8.49-.12-.17-3.36,3.42-2.95.3.58-4.41,3.33-5.98,5.22-9.28.57-1,2.88-5.62.97-6.02-2.19-.45-5.62,7.11-7.73,8-.66-3.87-.48-7.53-1.33-11.42-.88-3.97-2.9-7.06-4.18-10.82.58-1.06,4.54,1.26,4-.5-.38-1.23-5.51-8.28-6.74-8.28l-4.75,3.77c-.28,1.11,2.79,1.49,1.98,3.22l-11.47,5.28c1.63,1.45,3.68,1.69,5.45,3.04,4.15,3.18,6.56,10.6,6.04,15.7-1.24.09-.86.13-.99-.75-.28-1.92-.31-3.16-.88-5.13-3.76-13.07-17.37-16.04-19.63-.62-.79-.09-1.61.5-1.48-.72.23-2.18,1.46-4.19,1.97-6.28-3.21,1.37-5.99,3.58-9.07,5.17-.56.29-2.3,1.6-2.68.83-.28-.57.59-1.61.98-2.03,2.87-3.03,7.67-5.79,10.78-8.72.47-.45,2.06-1.59,1.24-2.26-2.28,1.08-7.71-.07-9.5,1.5-.49.43-4.64,10.01-5.66,11.84-1.08,1.95-5.79,9.97-7.42,10.59-.35.13-1.15.32-1.2-.22-.93-4.79-1.07-9.8-.97-14.71-1.01-.98-2.82,2.16-2.94,2.87-.26,1.6,1.58,1.71,1.44,3.13l-2.67-.45-2.57,2.96c-.94-4.51-4.9-7.85-9.24-8.78-4.77,3.8-4.46,10.69-4.52,16.27-.53.19-.97-1.55-.99-1.75ZM424.7,118.16c-9.64,1.75-7.59,17.97,2.85,16.35,8.52-1.32,7.77-18.28-2.85-16.35ZM345.83,122.04c-1.23,0-2.46-.06-3.69.06-.56.06-3.09.17-2.81,1.18l6.49,4.25c.84-1.87-.21-3.53,0-5.5ZM491.7,122.14c-9.03.84-7.77,17.69.34,17.37,8.74-.35,8.27-18.17-.34-17.37ZM362.08,123.54h-8c-.46,0-1.82.92-2.75.5-.54,2.29,1.65,1.48,3.27,2.49s2.46,4.56,3.99,4.54c1.18-.01,5.66-6.23,3.49-7.53ZM319.83,147.54c-.58-.62-7.53,2.97-7.99.74-.2-.98.99-1.12,1.6-1.39,1.64-.73,10.05-3.31,10.36-4.65-1.62-3.59-2.48-7.4-2.54-11.37l-2.92-2.61c-2.47,1.33-5.1,1.23-7.66,2.37-2.97,1.33-5.07,3.94-7.34,6.17-.64,2.85,8.58-1.04,9,1-2.06,4.2-5.74,7.51-7.76,11.73-.51,1.05-2.08,3.36-.77,4.29,1.81,1.28,8.6-3.27,11.02-2.78-3.87,3.73-1.9,3.88.2,7.55,1.68,2.94.82,4.33,5.42,5.1,3.97.67,1.36-2.79.98-4.01-1.21-3.9-1.76-8.03-1.6-12.15ZM329.33,164.04c-1.33-4.45-1.37-11.06-3-15.25-1.73-4.45-2.16,2.76-2.02,4.52.28,3.48,1.98,8.99,5.01,10.73ZM413.81,169.57c-1.58-.36-3.93-1.72-5.47-.78-.23.14-3.36,3.85-3.43,4.11-.28,1.07.48,2.09.43,3.14.37.33,8.15-4.66,8.39-5.08s.1-.94.07-1.38ZM394.34,208.04l12.72-14.03c5.85-1.85,11.25-5.81,16.56-8.98l-6.77-14.28-21.76,14.79-.75,22.49ZM388.83,204.04c.88-5.64.2-11.39,1.77-16.98,1.15-1.38,2.66-2.37,4.08-3.42s8.42-5.29,8.92-6.1c.7-1.13-.12-2.71-1.01-3.49l-21.02,14.99c-1.05,1.66,3.36,5.66,1.01,7.49l-2.8-6.43c-.71-.27-1.7-.03-1.9.75-.5,1.91,4.91,10.87,4.47,13.69,1.55.39.76-1.3,1.69-2.05,2.3-1.84,3.93,2.36,4.8,1.55ZM428.96,191.66c-.43.47-3.36,9.9-4.35,11.9-4.66,9.36-14.18,18.99-23.79,23.21-2.07.91-7.4,1.91-8.25,3.78.37,4.81.81,10.26,2.75,14.74,1.86,1.11,9.87-2.47,12-3.51,17.03-8.31,29.43-22.31,33.74-40.76.37-1.58,2.11-4.68,1.54-5.97-.3-.67-1.94-1.33-1.75-2.22,2.5-1.43,5.24-5.54,4.44-8.49-.9-3.32-3.68,3.74-3.92,3.98-1.03,1.02-2.17.46-3.03.97-.53.32-.71,1.58-1.3,1.72-.64.15-1.4-.85-1.95-.8-.36.03-.81.74-1.48.77-1.28.06-3.16-.96-4.66.67ZM392.33,210.04l1-23.5c-1.05.33-1.3,1.24-1.58,2.16-1.53,4.93-1.77,14.37-.76,19.45.18.93.07,2.26,1.34,1.89ZM423.33,187.54c-.57-.51-5.49,2.71-6.46,3.29-3.63,2.16-8.64,5.04-11.78,7.72-4.55,3.9-7.96,9.73-12.62,13.61l1.38,10.36c.81.69,7.45-2.86,8.63-3.58,10.47-6.35,18.96-19.32,20.85-31.4ZM377.83,205.54l-5.47-13.77c-3.8-.04-6.98-2-10.54-3.02l-2.99,9.79c1.78.59,3.01-1.32,4.29-1.5,1.83-.26,6.38,2.75,8.08,3.89.98.66,6.02,5.22,6.63,4.61ZM380.84,210.04c1.24-.37,1.04-1.7.96-2.68-.19-2.3-3.94-13.55-5.25-15.28-.45-.6-1.43-1.11-2.21-1.03-1.07,1.2,6.34,16.22,6.5,19ZM469.84,204.04l.73-1.34c1.4.35,3.22.9,4.26-.4l-4.31-7.23c-1.27-.37-10.46,6.99-13.06,7.39-1.06.16-1.89-.45-2.77-.33-.77.11-1.48,1.14-2.5.85-.65-.18-1.06-1.22-1.66-1.33-.63-.11-1.52.6-2.36.35-.91-.27-2.02-3.92-5.28-2.4-2.32,8.55-1.8,17.31-.31,25.96.64,3.7.93,10.72,5.76,10.49l-.75-2.49c8.65,7.83,14.94,18.07,23,26.5.53.55,2.61,2.96,3.25,2.49,2.72-9.44,12.04-18.44,20.34-23.41,2.8-1.68,7.03-2.71,9.27-4.1.55-.34.49-.83.89-1.25l-22.02-20.98c-1.28-1.79-.58-6-2.2-7.3s-7.94-1.12-10.28-1.47ZM380.83,221.04c0-2.49,1.28-6.7.24-8.99-.3-.65-6.47-6.61-7.5-7.5-.85-.73-7.16-5.64-7.73-5.01.46,6.77,4.95,13.88,9.99,18.25.51.44,4.63,3.69,5,3.24ZM380.69,227.68c-.69-.83-6.31-3.66-8.09-5.15-4.32-3.6-8.46-9.26-10.51-14.49-.48-1.23-1.92-7.06-2.23-7.28-1.33-.97-8.6,2.7-9.54,4.03-1.4,1.97-2.47,11.5-1.87,13.89.29,1.15,3.08,4.78,3.97,6.03,8.06,11.28,20.81,20.82,34.91,22.34l-2.05-15.95c-4.29.68-3.21-1.74-4.59-3.42ZM382.83,209.29c-.79,6.18.59,13.9,0,20.25,2.17-.07,10.18.53,10.33-2.3-1.14-5.53-1.65-11.32-2.98-16.81-.42-1.73-.6-3.74-2.1-4.89-1.33,2.37-1.93,4.29-4.74,1.99.21.69-.45,1.35-.51,1.75ZM349.84,250.04l5.08,30.17c1.15,1.17,9.37,4.05,9.86,2.04-1.65-7.36-2.53-14.96-4.69-22.21-3.63-12.19-11.39-24.42-12.74-37.26-.38-3.57.14-7,0-10.5-.02-.61.38-1.86-.49-1.74-.79,2.3-1.69,4.62-2.26,6.99-1.61,6.74-.72,9.39,1.12,15.89,1.67,5.9,4.05,11.66,6.06,17.45l-.92.66-1-1.5ZM440.83,221.04c-.93-.22-.97.32-1.41.83-2.22,2.56-4.03,6.55-6.57,9.43-8.93,10.14-23.27,18.49-36.48,21.27l5.43,24.25c.72.39,1.46.23,2.22.17,1.77-.14,14.51-2.8,15.49-3.41,1.88-1.19-.74-7.31,3.08-10.55,1.67-1.42,19.76-9,22.13-9.37,3.65-.57,6.15,1.77,8.86,3.9,1.74,1.36,5.91,6.05,7.26,6.74.87.45.95.09,1.5-.51-2.59-4.86-2.65-11.69-4.89-16.6-.86-1.89-6.05-8.47-7.81-9.19-4.34-1.79-10.81-1.37-14.79-4.71l6.85,1.67,1.11-.69c-.88-4.36-2.27-8.71-1.97-13.22ZM390.71,231.16c-.73-.89-3.53-.33-3.84.69,3.97,34.48,13.31,67.98,21.98,101.45-.19,3.7-8.85,16.35-7.98,18.92.34,1,3.54,1.73,4.49.59,2.43-2.89,3.68-11.89,5.59-15.41.3-.54.64-.98,1.13-1.36.75.75,1.54,1.46,2.23,2.26,2.98,3.43,7.35,11.32,10.4,13.74,2.1,1.67,7.4.04,7.12-1.25-.15-.66-8-8.24-9.25-9.75-9.29-11.17-14.11-32.7-18-47-5.63-20.71-10.34-41.7-13.87-62.88ZM393.29,279l-4.91-25.26c-.71-.9-5.47-.98-7.15-1.35-11.37-2.5-20.81-8.67-28.89-16.85l5,13.5.49-4.49c5.52,18.21,8.49,37.14,11.01,56,1-.19.82-1.05.99-1.75,1.58-6.36,1.57-13.13,2.97-19.54,1.05-.76,4.74.67,6.29.78,4.74.34,9.54-.27,14.2-1.03ZM500.37,237.59c-.24,1.41.72,2.59,1.71,3.44,2.97-2.98,3.18-5.94-1.71-3.44ZM517.66,291.86c2.13-1.9,7.01-8.05,8.12-10.63,1.98-4.56,1.25-7.54-1.44-11.44-4.68-6.77-12.5-14.48-17.99-21.01-1.23-1.47-7.35-9.68-8.27-9.77-2.52.62-5.05,2.74-7.2,4.32-2.81,2.06-13.51,11.33-13.51,14.46,0,1.23,7.12,10.03,8.48,11.49,4.87,5.19,4.38,1.62,8.53-1.44,3.63-2.68,12.12-2.29,16.65-1.73,1.1.13,3.49.36,3.3,1.94-4.45-.5-9.81-1.45-14.24-.99-6.01.62-9.74,8.37-15.76,10,3.52,6.74,3.15,14.88,1,21.99,7.51-1.45,15.68-1.73,23.12-3.12,3.54-.66,6.49-1.62,9.2-4.05ZM467.54,258.83c-1.84-2.33-4.03-5.07-6.01-7.24-.5-.56-.74-1.25-1.7-1.04l4.61,17.14c2.44,2.18,6.64,8.77,10.07,7.8l.63-.97c-1.84-6.28-3.56-10.57-7.6-15.68ZM450.33,292.04c-1.46,3.66-4.27,3.5-2.19,7.95,2.71,5.78,11.07,4.35,16.2,3.31,5.46-1.11,7.36-1.9,9.14-7.36,2.25-6.93,2.1-14.15-3.4-19.38-5.8-5.51-12.2-13.82-19.09-17.91-3.64-2.16-7.03-3.11-10.58-.28.05,1.05-.73,7.51.92,6.94l2.02-1c-4.51,5.51-2.41,10.06-.99,16.23,2.48.68,2.87-2.22,4.98-2.48.66.67-3.75,4.58-3.98,5.76-.37,1.88,1.46,10.27,3.74,10.26,1.29,0,1.8-2.21,3.25-2.02ZM437.83,258.04c-.62-.64-15.01,6.29-15.74,8.01-1.13,2.68.82,6.38,2.53,8.45,3.65,4.43,4.8,1.87,8.2-1.21l-2.49-.74c3.17-1.44,6.59-2.03,8.76-5.03l-1.27-9.48ZM475.84,260.54c-.68.47-.98,3.77,1.7,2.97l.72-1.14c-.14-.91-1.48-2.49-2.43-1.83ZM476.16,266.12c-2.03.67,1.18,6.32,1.65,7.69,1.16.32,7.45.65,7.51-.52-2.03-2.64-5.27-8.46-9.16-7.17ZM438.83,270.54c-.31-.38-2.81,1.66-3.23,2.01-1.87,1.55-8.01,6.98-8.55,8.98-.71,2.66,3.54,8.98,6.26,7.75.55-.25,7.5-5.92,7.7-6.38.8-1.89-1.09-4.26-1.55-6.24-.42-1.79-.49-4.25-.63-6.12ZM428.27,289.46c-1.01-4.2-4.51-6.09-1.67-10.93l-4.52-4.98c-1.29,1.01-.57,2.74-.81,4.18-.47,2.87-2.48,8.43-1.72,10.84,1.14,3.59,6.37,2.82,8.71.9ZM419.11,275.16l-15.92,3.48-.84,1.1c4.86,16.17,8.39,33.75,14.61,49.42,1.29,3.24,5.78,11.69,8.88,13.12,2.04.94,6.73-.86,8.99-1.49,7.05-1.97,14.77-4.74,21.63-7.37,3.59-1.38,26.15-10.88,27.14-12.88.39-.8.23-1.23.01-2.01-.4-1.44-4.77-10.45-5.68-11.85-1.76-2.73-3.95-1.38-6.83-1.67-1.8-.18-3.57-2.12-5.77.28l8.92,7.56c-.67,1.62-2.75,7.13-4.67,7.17-2.7.06-14.26-10.39-16.78-12.76-5.49,1.06-10.32,2.2-13.82-3.15-.61-.93-.57-2.18-1.17-2.83-2.08-2.27-6.38-1.44-7.17-7.33-.14-1.04.7-3.53-.59-3.92-1.16-.35-4.03,3.74-8.77,2.27-6.33-1.95-1.56-11.05-1.46-15.05.02-.81.16-1.72-.74-2.1ZM482.08,277.04h-8.25c2.73,6.93,3.55,14.23.51,21.26-1.77,4.1-6.4,6.68,2.01,5.01,1.28-.25,4.13-1.04,5.1-1.76,4.97-3.67,5.49-20.09.62-24.51ZM398.73,351.43l8.55-18.09-13.5-52.01-.78-.75-12.36,1.42c-1.62,12.43-2.9,25.35-8.23,36.86-1.27,2.75-5.69,8.62-5.37,11.18.2,1.66,1.72,3.62,1.84,5.42,5.01.03,10.05.79,14.96,1.79,4.01.81,9.32,1.72,12.48,4.26-8.85-1.64-17.62-4.41-26.69-4.43-1.5.51-1.43,7.47-1.24,9.11l30.33,5.21ZM369.83,321.54c3.33-8.49,6.05-17.26,7.42-26.33.36-2.36,1.86-12.15.6-13.43-.99-.75-3.48-1.36-3.94.09-.44,4.24-.97,8.52-1.81,12.69-1.13,5.65-4.91,15.53-5.16,20.38-.05.96,1.29,7.89,2.88,6.6ZM444.73,296.44c.89-1.52-1.58-4.29-2.13-5.92-.41-1.21-.77-5.32-1.52-5.48-2.19,1.58-8.28,5.59-8.91,8.09s3.33,5.94,5.55,6.32c1.4.24,6.52-2.16,7.02-3.01ZM451.33,306.03c-.48-2-2.94-2.06-4.22-4.02-.96-1.47-.85-3.2-2.02-4.47-2.04,2.17-6.96,2.72-4.48,6.47,2.11,3.18,7.54,3.45,10.72,2.02ZM428.33,343.54c-1.29,1.25,4.85,6.86,6.14,7.39,10.92-3.2,21.85-6.46,32.48-10.52,5.24-2,11.61-4.43,16.56-6.94,1.17-.59,5.74-2.99,6.31-3.69s.9-2.99,1-4c.26-2.66.8-8.54.46-10.95-.23-1.68-5.12-12.05-6.22-13.28-1.17-1.31-1.71.56-2.77,1.21-1,.61-3.45,1.3-3.47,2.51l7.31,13.75,2.19-.98c.14,1.06-.85,1.63-1.54,2.2-9.8,8.22-36.84,17.64-49.57,21.43-2.89.86-5.85,1.93-8.89,1.87ZM463.72,305.66c-1.09-.45-9.39.18-9.38,1.13,3.69,3.08,7.33,6.47,11.32,9.17,4.5,3.03,5.07,2.35,6.45-2.91l-8.4-7.38ZM347.2,321.16c-1.06.18-5.07,1.74-4.84,3.07s3.12,1.54,3.93,2.6c1.03,1.35.91,4.24,2.04,5.96,1.86,2.82,7.83,4.05,9.41.59-2.85-6.77-.29-13.97-10.54-12.23ZM338.69,324.61c-1.99.55-8.41,9.65-8.78,11.81-.46,2.69,4.41,5.37,6.9,4.35,1.2-.49,9.03-7.1,9.31-8.21.74-2.93-5.05-8.61-7.43-7.96ZM365.65,334.22c-.79-.81-6.25-4.22-6.82-3.68.53,2.02,2.9,2.72,4.21,4.53,1.06,1.45,1.91,3.82,2.79,5.46,2.92-.62,1.45-4.65-.19-6.32ZM492.27,330.6c-1.05-.61-4.57,2.63-5.8,3.33-2.77,1.59-5.46,2.47-8.17,3.86-.41.21-1.32.1-.97.99,1.23,3.12,19.2,7.58,22.99,7.25.12-.72-.03-1.3-.28-1.97-1.52-4.18-6.09-9.12-7.78-13.47ZM366.33,345.54c.64-.69-4.75-10.38-5.72-11.03-.61-.41-1.01-.6-1.78-.47-1.1,2.88,1.25,3.43,2.41,5.33,1.44,2.36,1.65,5.79,5.08,6.16ZM353.8,337.07l-7.1-2.46c-1.59,1.47-9.2,6.81-8.9,8.64,1.79,1.2,7.15,5.74,9.19,5.22,1.63-1.26,7.71-10.08,6.81-11.4ZM355.34,337.04c-.55,4.65-3.96,8.08-6.45,11.75,0,.86,7.68,4.48,8.62,4.21,3.62-5.47,5.82-13.25-2.17-15.96ZM408.33,350.54h11.25c.19,0,.76-.65,1.25-.5.68-.93-7.06-9.25-7.76-11.01l-1.25.35-3.5,11.16ZM331.84,346.04l2-3.24c-1.25-.57-4.37-3.63-5.5-3.04-1.06.55-4.09,7.21-4.04,8.52.06,1.47,4.78,7.92,6.07,8.98,2.43,2.02,5.68,1.49,8.15,2.85,1.87,1.03,3.93,4.97,5.17,5.33l10.15-.14,6.97-8.53c.21-1.04-.17-.57-.7-.77-2.22-.86-1.71,1.69-3.77,2.05l.76-3.01-9.11-4.41-4.16,2.42,1.5-3.49c-3.69-.73-6.6-3.38-9.24-5.89l-4.25,2.38ZM502.26,347.62c-7.33-.26-14-1.74-20.76-4.49-1.61-.66-4.32-2.64-5.54-2.97-2.97-.8-7.59,2.23-10.49,3.26-12.64,4.47-25.53,8.12-38.6,11.16l1.58,6.84,18.89,7.11-22.01-5.74,6.52,18.48,8.22,2.77c1.95-1.34-2.44-2.43-1.49-4,5.56,4.33,10.36,9.68,15.01,14.99,2.41,2.75,5.98,8.54,8.48,10.52,2.3,1.82,6.16.83,8.86.34,11.94-2.17,27.05-10.37,36.16-18.34,2.34-2.05,10.7-10.49,10.7-13.26l-15.54-26.67ZM359.83,354.54c2.76,1.19,8.15-4.24,6.23-6.46-.22-.25-2.8-2.49-2.99-2.54-1.47-.34-3.55,7.52-3.24,9ZM379.33,349.04h-7.25c-.23,0-.93-.71-1.48-.52-1.6.12-4.37,4.37-5.27,5.78-.36,1.09,9.03-1.35,9.84-1.66s5.34-2.39,4.16-3.59ZM403.88,368.08l-1.29,2.95-2.18-3.83c-.23-2.64,7.64.57,8.91,1.11,2.04.86,3.93,2.08,5.85,3.16l1.15-.68c-1.71-2.7-3.05-11.48-5.22-13.27-1.08-.89-6.11-2.29-7.76-2.74-6.65-1.8-13.99-2.87-20.77-4.29-2.29.14-4.66,2.86-7.23,3.79-3.16,1.15-9.61,1.26-11.68,2.32-1.29.66-10.79,11.28-10.82,12.18,1.63,1.28,3.85.48,5.7.81,13.7,2.38,29.45,15.85,36.39,27.61,1.95,3.31,3.15,7.07,5.17,10.34,10.09-8.35,18.69-18.56,29.73-25.75.02-.9-11.25-7.1-12.98-8.01s-11.98-6.4-12.97-5.7ZM425.83,360.54c.02-2.09-.76-5.45-2.25-7-2.25-2.33-4.95-1.02-7.75-2-.89,6.73,4.78,7.85,9.99,9ZM414.83,357.04c.29-4.78-3.83-5.71-7.49-3.75l7.49,3.75ZM428.83,378.54l-5.76-16.49-9.24-3.51c-.59.58,3.84,12.1,4.78,13.46,1.98,2.87,7.04,5.16,10.21,6.53ZM391.71,396.43c.64-1.54-2.73-5.34-3.86-6.65-8.63-9.99-22.73-19.09-36.25-19.22l-32.76,37.23c.14.63,10.62,2.56,12.39,3.12,7.53,2.37,14.29,6.69,20.34,11.66l7.5,7.98,32.64-34.1ZM519.76,376.63h-1.35c-.94,2.77-5.82,6.06-4.82,8.88l28,36.52c.45,0,4.23-5.17,2.88-6.34-5.45-8.39-10.97-16.75-16.34-25.19-1.21-1.9-7.68-13.44-8.37-13.87ZM498.05,447.83c.44.39,2.07,1.87,2.31,1.98,2.34,1.06,15.99-5.57,18.81-7.18,8.13-4.64,16.1-11.18,21.5-18.84l-29.09-38.24c-11.02,9.96-25.76,19.15-40.55,21.94-2.07.39-4.87-.41-6.69,1.3,7.31,8.67,14.2,17.79,21.73,26.26,3.51,3.94,8.14,9.37,11.97,12.78ZM390.53,417.24c1.92-1.95,7.36-5.89,7.71-8.57.23-1.74-3.59-9.45-5.15-11.03-1.84-.15-22.29,21.87-25.01,24.89-1.08,1.2-7.71,8.44-7.73,9.24l6.49,11.53c.59.26,1.39-.87,1.76-1.26,7.58-8.01,14.21-16.96,21.94-24.8ZM354.84,463.53c-.95-1.29,7.12-5.55,6.99-8.18-.05-1.13-1.06-1.98-.78-3.32.42-2.02,3.8-4.79,4.68-6.83-5.89-13.07-16.26-24.93-29.56-30.75-3.74-1.64-16.34-5.81-19.61-3.94-.58.33-2.59,2.6-3.21,3.29-8,8.97-8.55,18.55-12.78,29.22-5.77,14.53-17.05,31.52-18.73,46.77-.79,7.15.81,8.74-3.8,15.2-3.68,5.16-5.08,3.75-4.7,11.29.08,1.68,1.24,11.34,1.74,12.26.42.78.98.3,1.17-.35.68-2.34.66-4.67,1.71-7.29,1.67-4.17,2.97-5.41,7.63-5.87,4.97-.49,10.64.28,15.74-.51.58-.55-5.12-13.5-6.14-14.35-2.75-2.27-5.6,1.67-8.36,1.35l3.84-2.9c3.3-1.99,4.84-.75,6.68,2.14,1.62,2.56,5.03,12.69,6.12,13.62,1.23,1.05,5.91,1.78,7.89,2.87,6.2,3.41,4.08,11.99,5.48,17.77l2.96-4.28c4.36-3.59,10.31.96,14.34,1.27,2.24.18,7.09-4.66,7.58-6.84.68-3.03-1.35-8.03-1.43-11.39-.2-8.61,9.66-9.95,11.39-17.65l4.52-31.9-1.37-.72ZM551,424.37c-.91-.82-4.16-6.34-4.92-6.32-8,14.12-22.08,25.54-37.26,31.23-1.95.73-4.4,1-6.3,1.71-.54.2-.85-.25-.68.8,11.21,12.62,27.51,18.61,40.49,29.01-.31.59-1.49.18-1.97-.03-1.82-.76-13.32-9.43-14.52-8.22,1.74,6.5,4.42,13.93,11.1,16.64,7.76,3.15,17.12,4.26,24.85,7.9l-.2,1.44c-2.88-.88-6.76-3.02-9.63-3.4-.9-.12-1.59-.3-2.07.69.62,2.59,1.16,4.98,2.74,7.17,4.53,6.28,11.29,5.6,18.19,4.52.62-.89-3.07-4.51,2.01-6.73l31.51-6.48.49-.52c-1.04-2.99-2.46-7.74-.75-10.74,1.15,3.05.3,6.6,2.04,9.46.69,1.13,6.55,5.17,7.21,4.54-.88-3.64,4.97-10.55,4.69-12.91-.32-2.62-4.12-9.34-5.6-11.93-9.53-16.72-19-18.87-32.82-30.18-9.09-7.43-16.28-16.82-28.02-20.47-1.64,1.12.99,2.13.75,3.49-.06.07-1.12-.48-1.33-.67ZM616.45,508.42c1.25,1.25,8.92,1.66,10.18.67,1.11-.87.75-3.84.64-5.23-.22-2.65-2.81-17.75-3.96-19.04-.6-.67-2.02-1.08-2.73-1.76-1.06.84-.62,2.2-1.13,3.35-1.42,3.18-4.07,6.14-4.57,9.93-.28,2.14.14,10.66,1.57,12.09ZM613.7,509.41c1.19-1.21-.06-7.11-.78-8.71-2-4.45-5.77-4.99-10.2-4.53-9.2.96-19.07,5.17-28.49,6.01-2.68.8-3.49,1.03-1.99,3.7,1.65,2.93,7.48,9.09,10.87,9.62,6.16.96,19.96-1.16,25.85-3.59.82-.34,4.33-2.08,4.74-2.51ZM563.33,509.54c.92,2.43,4.08,4.69,6.24,6.01,1.91,1.17,11.45,5.87,9.5.51-.36-1-6.02-6.52-6.49-6.52h-9.25ZM620.83,524.54c.23-1.63-.36-2.89-.91-4.34s-4.48-9.57-5.33-9.57c-5.86,3.94-13.46,5.98-20.48,6.43-2.96.19-10.3-.66-12.44.06-1.77.59-2.47,9.96-1.08,9.91,10.7-8.3,28.24-7.52,40.24-2.49ZM639.33,549.54c-.66-13.28-5.34-26.25-10.24-38.5-.95-1.16-3.08,0-4.48.02-2.49.04-4.83-.11-7.27-.52,3.54,9.42,8.43,18.16,14.9,25.84l7.09,13.15ZM314.33,543.29v-16.5c0-.21-.6-3.35-.72-3.78-.48-1.74-1.09-2.87-2.61-3.89-4.66-3.13-20.79-3.7-26.3-2.46-6.73,1.51-6.67,11.77-7.37,17.38,12.49-1.84,26.32,1.48,35.82,9.94l1.18-.69ZM578.27,520.1c-1.51-.37-2.61-1-3.31.82-.79,2.05-2.56,11.27-2.81,13.7-.07.73-.02,1.21.18,1.91l5.26-7.98.67-8.46ZM593.2,523.16c-7.72,1.11-15.94,7.58-19.77,14.23-1.06,1.83-5.17,10.51-3.13,11.93,4.75,1.49,4.81-1.5,7.04-4.02,13.59-15.3,33.48-13.56,48.72-1.75,1.61,1.24,3.16,4.1,5.39,3.89,1.95-.18,4.46-1.04,3.61-3.38-2.92-8.08-12.71-18.24-21.22-20.29-4.51-1.09-16-1.28-20.65-.61ZM269.34,538.04l4.92-3.34-1.69-7.66c-5.24,1.3-3.48,7.05-3.24,11ZM322.7,531.12c-3.81.64-6.22,12.64-6.3,16.09,4.17,2.03,8.3,10.99,12.3,11.72,4.92.89,3.13-.9,3.11-3.61-.01-1.31-.04-2.59.15-3.89.53-3.64,4.86-10.84,4.29-14.01-.67-3.75-10.41-6.82-13.55-6.29ZM270.84,540.04c.39.33,8.8.38,10.19.56,9.15,1.21,17.57,6.24,24.65,11.86l8.15-4.7c.45-1.54-4.35-5.01-5.64-5.81-7.92-4.93-21.31-8.29-30.48-6.28-.8.18-8.32,3.13-6.87,4.38ZM582.41,542.1c-.59,1.03,1.17,2.57,1.92,3.19,6.42,5.36,22.81,4.9,30.4,2.38,1.4-.47,7.86-3.24,7.58-4.83-9.64-7.13-22.49-9.14-33.65-4.24-.92.4-6,3.06-6.25,3.49ZM249.84,553.04c14.76-7.13,35.2-5.62,46,7.75,1.73,2.14,3.24,6.73,6.28,7.22,1.04.17,4.25.42,4.66-.79.22-.78.03-1.53-.06-2.3-.23-1.89-1.9-9.27-2.49-11.01-.85-2.49-10.52-7.68-13.2-8.8-11.34-4.71-25.41-5.25-35.74,2.11-.75.53-6.17,5.11-5.43,5.81ZM626.64,546.24c-.83-.74-1.87-1.26-2.56-2.2-2.72,2.98-6.58,4.62-10.43,5.56-10.39,2.53-25.2,2.78-33.07-5.56l-5.25,6.74-5.5.25c-.92,6.47,3.53,7.54,8.62,9.13,14.2,4.46,37.7,4.28,51.36-1.9,4.72-2.14,10.34-4.69,6.97-10.69l-7.2,1.48c-.89-.15-2.18-2.14-2.94-2.82ZM318.16,550.22c-1.02-.87-2.05-1.45-3.44-1.08-.71.19-5.28,2.8-6.14,3.39-.81.55-2.38,1.43-2.65,2.37-.38,1.32,2.45,10.47,2.86,12.95.23,1.39-.03,7.79,1.35,8.13,6.31-1.64,14.22-1.58,20.33-3.57,4.16-1.36,1.98-7.81,2.17-11.4-.55-.79-2.84-.36-3.91-.59-5.24-1.11-6.96-7.16-10.54-10.21ZM293.33,561.04c1.1-1.15-6.47-6-7.31-6.44-11.05-5.71-27.52-5.6-38.03,1.34-.74.49-1.58.8-1.68,1.85,0,1.6,6.54,3.6,8.02,4,12.63,3.4,26.43,2.31,39-.76ZM639.83,554.04c-.46-.49-6.1,3.99-7.16,4.58-14.55,8.03-41.56,7.67-56.96,2.3-1.27-.44-4.82-3.27-4.35-.66.83,4.58,6.71,9.64,11.09,10.91,9.67,2.82,30.03,1.88,39.77-1.01,7.99-2.37,17.49-6.45,17.61-16.13ZM295.24,562.13c-4.76.7-9.33,2.54-14.17,2.91-7.92.6-19.7.5-27.24-1.75-2.3-.68-8.74-4.11-10.15-3.77-1.83.44-4.91,10.94-4.09,13.1l.36.79c15.22,5.07,31.74,4,47.65,4.15l19.73-1.53-.23-6.52c-.4-.65-3.36.12-4.51.03-4.21-.34-5.5-4.25-7.35-7.42ZM332.83,573.54c-22.52,4.69-46.67,6.64-69.74,5.49-5.29-.26-11.67-1.07-16.87-2.13-3.65-.74-9.32-4.39-5.67,2.67,2.73,5.28,15.01,6.67,20.51,6.99,16.65.97,35.42-.84,51.95-3.09,4.5-.61,13.16-1.41,17.06-2.94,2.51-.99,2.57-4.62,2.76-6.99Z"/>
  <path d="M474.83,123.04c-.06,2.05-2.68,2.29-3.97,3.28-4.48,3.42-4.33,18.92-13.8,17.75-4.44-.55-6.55-7.88-7.48-11.52-.59-2.3-.57-6.03-1.6-7.86-.42-.75-4.46-3.25-3.65-4.14,2.1.99,2.69,2.46,5.24,2.54,3.51.12,7.48-2.8,9.96-2.54s5.82,4.3,9.56,4.52c2.8.16,3.32-1.47,5.73-2.02ZM450.4,125.6c-.71,4.54,5.26,1.31,8.19,1.41,2.6.09,4.86,1.27,7.08,2.46l1.13-.72c.72-2.46-5.26-5.46-7.28-5.67-3.18-.33-6.31,1.39-9.13,2.53ZM456.72,128.66c-1.51.18-5.76,1.47-5.66,3.41.24,4.82,4.72,14.29,10.52,8.96,1.32-1.22,4.31-6.52,4.13-8.18-.34-3.21-6.33-4.51-8.99-4.19Z"/>
  <path d="M436.2,98.16c6.23-1.27,10.4,5.31,7.74,10.74-.56,1.15-2.71,3.25-3.96,3.54-10.38,2.38-11.1-12.78-3.78-14.28ZM440.67,101.12c-2.74.22-3.69,6.47-.09,6.47s2.66-6.68.09-6.47Z"/>
  <path d="M477.5,113.87c-7.1-7.14,3.63-18.26,9.54-10.29,5.64,7.62-3.82,16.04-9.54,10.29ZM480.17,103.11c-3.38,1.14-4.18,5.06-.56,6.45,3.21.31,3.98-5.79.56-6.45Z"/>
  <path d="M462.83,113.54c-.16,3.34-3.9,2.99-5.5.74-.42-1.93,4.44-1.24,5.5-.74Z"/>
  <path d="M321.33,519.54c-.93-.37-1.32-2.29-1.57-3.17-.5-1.78-1.06-4.06-.72-5.84.37-1.96,7.4-13.29,9.03-12.98.94.18.56.68.28,1.26-1.53,3.09-6.66,7.46-7.41,11.1-.66,3.18.36,6.46.38,9.63Z"/>
  <path d="M347.83,489.05v1.49c-5.87-.99-9.93,3.7-15,5.5-.08-.07.57-1.34.84-1.53,1.77-1.2,7.79-4.32,9.82-5.05,1.7-.62,2.45-1,4.34-.4Z"/>
  <path d="M314.33,514.53l-7-2.74c2.15-2.57,5.57.75,7,2.74Z"/>
  <path d="M553.33,457.79c-.15-1.22-4.57-10.22-2.25-10.24,3.89,6.17,4.97,16.99,4.19,24.18-.17,1.54-.65,4.35-1.94,5.31-.55-6.05.74-13.36,0-19.25Z"/>
  <path d="M580.83,453.54l-10.62,1.62c-1.8.85-3.14,2.18-4.08,3.92l-4.79,8.95c.88-3.59,4.15-12.87,7.86-13.89,3.49-.96,8.02-.46,11.64-.61Z"/>
  <path d="M385.69,161.61l.92.41c1.84,2.93-5.79,16.51-8.53,19.01-9.62,8.77-20.68-5.36-25.17-13.33l.76-1.08c10.82-.43,21.7-1.79,32.02-5ZM384.83,164.04l-21.99,3.75c-2.08,4.51-4.52,6.68.04,10.45,2.78,2.3,7.59,5.2,11.16,3.74,4.49-1.84,8.19-8.95,9.67-13.33.23-.67,1.32-4.44,1.12-4.62Z"/>
  <path d="M390.34,148.54l2.37-.13.63,1.13c-1.31.29-9.58,1.21-9.49-.25,3-1.07.16-5.41-.36-8.15s-2.29-14.55,1.2-15.54c.64-.18,1.05-.09,1.64.18,3.8,1.76,5.4,18.75,4.01,22.75ZM385.09,127.04c-2.4,1.57.13,7.65,2.48,7,2-.56-1.12-7.34-2.48-7ZM386.39,142.48l-.55-.94c0,1.51.53,3.04,1.75,3.99,2.89-4.87-.75-2.67-1.2-3.05Z"/>
  <path d="M348.33,153.05l-.28,1.02-7.72.97,1.94-1.73c-1.64-3.3-2.97-6.84-3.43-10.52-.25-2.02-.91-11.04,1.35-11.67,3.1-.4,4.39,4.92,5,7.33,1.08,4.28.62,10.38,1.72,13.8.2.62.87.75,1.43.82ZM343.33,138.54c.58-.64-.94-6.45-2.99-6-1.2,2.76-.13,5.55,2.99,6Z"/>
  <path d="M392.33,152.04l-2.49,6c.44.41,5.05-1.45,6.25-1.51,1-.05.79.1.75,1l-9,2,1.74-5-7.74,3c.49-1.49,10.09-5.94,10.5-5.49Z"/>
  <path d="M342.83,158.54l-.99,4.49,7.5-2.99c-1.57,1.53-6.7,5.18-8.75,5.5-1.88.3.89-3.82.25-4.5l-6.5,3.49c.58-1.47,7.58-6.93,8.5-5.99Z"/>
  <path d="M354.33,153.54c1.04,1.9-1.29,4.63-1.33,5.25-.08,1.12,2.26,2.62,2.84,3.5.42.64.53,1.1-.26,1.25-.86.16-3.91-3.57-4.71-4.32l3.46-5.68Z"/>
  <path d="M379.79,73.5c-.34.51-10.97,1.79-12.22,1.55s-1.23-1.33-2.06-1.93c-6.64-4.79-17.56-4.16-22.4,2.96-.76,1.11-1.58,4.17-2.11,4.51-1.03.66-10.2,1.94-10.67,1.46-.02-4.81,2.36-9.72,5.49-13.26,9.12-10.33,25.82-11.81,36.97-3.94,1.56,1.1,8.28,6.76,7,8.67ZM340.2,78.9c.41-.45,1.2-2.86,1.92-3.83,4.86-6.62,14.91-8.59,22.07-4.64,1.26.7,3.27,2.93,4.42,3.11.83.13,7.19-.72,7.88-1.11,2.09-1.19-2.26-4.9-3.49-5.82-14-10.41-37.32-4.57-41.15,13.4.63.86,7.53-.21,8.36-1.12Z"/>
  <path d="M380.34,76.04c.11,5.38-3.97,10.98-8,14.26-10.02,8.15-31.01,10.18-39.51-1.01-.79-1.04-2.98-3.82-1.14-4.64,1.18-.53,7.98-1.28,9.4-1.12,2.05.24,3.91,2.11,6.23,2.77,6.23,1.77,14.88.3,19.01-5.01.87-1.12,1.21-3.01,2.34-3.66.97-.55,11.24-2.01,11.66-1.59ZM378.33,77.54l-8.38,1.36c-5.04,8.1-13.76,11.3-23.01,8.78-2.2-.6-4.61-2.52-6.35-2.67-1.29-.11-7.75.54-7.74,1.78,9.89,14.3,36.36,10.03,44.07-4.42.84-1.57,1.71-2.95,1.41-4.83Z"/>
  <path d="M352.2,72.66c3.12-.49,11.37-.6,12.53,3.23,2.33,7.73-15.11,11.24-19.67,6.17-4.05-4.5,3.13-8.78,7.14-9.4ZM352.71,74.17c-3.84.56-11.4,5.01-5.02,7.76,4.2,1.81,10.04,1.24,13.6-1.69,6.93-5.71-4.26-6.7-8.57-6.07Z"/>
  <path d="M402.34,190.54c1.42-3.71,4.57-7.31,7.49-10-1.46,3.74-4.35,7.49-7.49,10Z"/>
  <path d="M379.84,168.54v1.5c-4.65-1.14-9.31-.86-14-.5.15-.87,1-.88,1.68-1.07,3.78-1.08,8.45-.24,12.33.08Z"/>
</svg>