<?xml version="1.0" encoding="UTF-8"?>
<svg id="katman_1" data-name="katman 1" xmlns="http://www.w3.org/2000/svg" viewBox="0 0 841.89 595.28">
  <path d="M576.28,222.89c16.57,10.19,9.87,17.25-6.43,19.29-10.56,1.32-21.26.48-31.8-.48-11.82,6.16-24.57,10.36-37.86,11.94,1.24,14.48,5.13,28.75,4.64,43.37,2.6.26,3.86-2.51,5.69-3.99,43.36-34.79,97.05-64.15,150.21-80.83,6.2-1.95,23.06-8.35,28.36-4.96,5.59,3.58,2.15,17.4,1.18,23.14-5.03,29.78-14.03,64.11-22.16,93.35-.9,3.23-2.48,10.64-4.67,12.69-2.01,1.87-8.57,3.09-11.55,3.81-20.09,4.86-40.84,7.36-60.64,13.5-.55.7-.12,1.35,0,2.06,1.41,7.78,5.79,18,8.07,26.03,1.15,4.05,4.94,14.99,4.9,18.37-.02,2.43-1.77,4.42-3.9,5.34-3.72,1.61-25.89,5.26-26.69,6.37,3.08,10.83,8,21.06,11.14,31.88,1.86,6.43,4.98,12.34-3.66,14.65-12.04,3.22-26.57,3.27-38.85,6.22-1.16,1.36,7.24,19.86,7.07,24.24-.11,2.83-2.01,5.09-4.81,5.74-5.8,1.34-14.38,1.36-20.58,2.12-1.17.14-5.79.68-6.14,1.21-1.13,20.62-11.04,37.95-28.26,49.12,6.41,6.82,12.79,21.22-.56,24.22-13.21,2.97-33.6.18-47.06-2.04-8.34-1.37-16.61-3.46-24.89-5.15-1.8.18-4.46,4.64-5.98,6.04-7.15,6.61-18.22,12.33-28.1,12.65-2.41.08-4.85-.83-6.6-.66-1.88.18-7.32,3.03-10.38,3.7-8.04,1.77-15.73,1.84-23.7-.41-2.68-.76-7.04-3.56-8.89-3.86-2.26-.37-7.81.81-11.17.55-11.13-.88-18.65-6.32-26.73-13.34-5.76,1.07-11.43,2.97-17.33,3.37-6.05.4-26.34.78-30.44-3-7.11-6.54.72-17.32,5.38-22.72-8.74-6.13-15.57-14.46-19.84-24.25-11.48-26.33-1.09-68.73,4.67-96.43,5.82-27.96,12.78-55.8,21.03-83.11-5.55-8.34-10.93-15.59-13.69-25.44-5-17.83-2.48-34.08,2.47-51.53-15.56-3.88-31.22-8.56-45.17-16.61-7.86-4.53-24.25-15.28-22.1-25.67,1.87-9,21.21-20.33,28.99-24.42,8.97-4.72,18.38-8.28,27.6-12.45-28.03-16.63-50.18-41.8-66.21-70-4.91-8.63-16.35-29.8-14.29-39.22,2.21-10.09,22.99-6.32,30.57-5.1,37.19,6.01,73.11,28.53,98.7,55.54,1.55,1.64,10.09,12.4,10.99,12.41l1.98-1.41c22.41-35.78,45.39-76.96,83.38-98.24,13.21-7.4,29.89-13.6,44.52-17.58,9.53-2.59,15.15-5.1,24.88-1.51,18.15,6.7,39.06,21.33,57.68,29.79,12.72,5.78,27.48,10.1,39.65,16.43,15.48,8.06.7,16.57-8.09,22-21.21,13.11-40.85,16.16-64.07,22.74-9.83,2.79-3.25,6.19-1.29,12.67.92,3.05,1.47,6.32-.11,9.3-1.27,2.4-6.3,4.76-5.81,7.93l13.23,30.25c24.29-10.66,51.38-19.26,77.89-22.33,24.55-2.84,59.75-1.28,83.02,7.62,19.05,7.29,9.29,16.33-1.3,26.02-15.13,13.85-37.5,26.32-56.32,34.49-1.04.45-10.5,3.55-9.79,4.55ZM540.22,75.35c-32.86-10.49-62.53-27.99-93.11-43.45-8.21-2.32-28.03,4.56-36.42,7.73-12.33,4.65-24.88,10.81-35.61,18.48-24.07,17.2-40.54,44.34-56.55,68.65l10.01-.33c-6.46,3.89-15.13,4.11-18.02,12.35,7.99-2.68,16.15-4.71,24.56-5.78,1.96-.82,1.9-6.78,7.14-8.93,10.04-4.13,48.55-3.65,58.46,1.02,4.97,2.34,4.1,7.77,5.06,8.43,1.24.85,14.74,3.29,17.77,4.12,9.58,2.63,19.16,5.66,28.14,9.92,4.24,2.01,8.06,4.89,12.44,6.58.51-.52-5.21-10.72-5.21-13.68,0-4.81,7.01-9.67,6.06-12.82l-44.91-60.97c13.94,10.56,25.53,24.34,36.7,37.74,2.1,2.52,4.51,5.44,6.04,8.33,1.45,1,3.31-4.8,3.66-6,3.93-13.26.84-29.21-.33-42.73l3.34,7c3.45,9.77,5.97,19.98,6,30.39,19.91-4.45,44.09-10.48,61.22-21.9,1.12-.74,4.72-2.71,3.54-4.13ZM277.64,174.66l12.63-24.86c-23.2-30.04-56.05-54.08-92.59-65.11-3.51,17.91-4.67,44.56,6.39,60.04,5.59,7.82,16.94,17.55,24.77,23.3,4.32,3.18,21.93,14.78,26.42,14.03l22.38-7.4ZM353.12,128.29c-5.32.52-8.79.57-10.74,5.96-2.55,7.03-5.19,29.52-4.48,36.9.1,1.05.62,4.21,1.29,4.74,19.11-1.72,38.46-1.14,57.49-.02.65-.44,1.11-2.56,1.25-3.43,1.36-9.03,2.2-25.66,1.39-34.65-.32-3.57-.6-6.6-4.21-7.8-8.56-2.86-32.52-2.61-41.98-1.69ZM334.56,139.43c-10.61.86-20.89,3.93-30.91,7.32l-13.83,25.4,40.97-5.94c1.28-.92,1.52-11.82,1.84-14.33.52-4.13,2.31-8.19,1.92-12.44ZM471.97,178.7c.98-1.67-2.21-12.89-3.33-14.76-2.5-4.17-25.38-13.89-30.91-15.84-7.07-2.48-23.2-7.64-30.16-7.96-3.23-.15-2.36,4.44-1.22,5.96s4.42.74,5.33,4.67c1.11,4.77,1.09,16.57-6.35,14.71v4.68c20.49,2.13,40.83,5.96,60.55,11.85l6.08-3.31ZM407.34,161.47c-.34-1.62,2.3-11.37-.99-10.68-1.21.25-2.41,10.92.99,10.68ZM586.19,206.77c-1.55-15.96-14.04-32.28-27.06-41.17-5.9-4.03-5.87-3.74-13.05-2.61-7.15,1.12-16.17,3.52-23.23,5.49-27.94,7.79-54.43,20.32-78.47,36.39-2.33.67.18-4.1-.31-4.65-48.31-7.68-97.35-8.04-145.71-.48-3.08.48-21.38,3.48-22.4,4.65-4.4,14.21-7.35,28.85-11.17,43.24-1.48,5.58-12.69,39.46-10.36,42.05,2.91-1,6.54-3.12,9.67-3.21,21.03-.56,35.7,28.45,23.33,45.22-4.17,5.66-7.84,6.2-14,8.05-.75.22-1.18-.44-.97,1.01l9.41,8.62,14.62,9.74c-4.29-.03-8.98-1.26-13.04-2.64-5.42-1.84-9.97-4.84-14.99-7.37-7.49,25.2-13.83,50.87-19.19,76.64-5.05,24.28-15.05,65.08-7.17,88.26,6.37,18.75,20.27,26.4,36.36,35.75-3.27,1.54-9.2-1-11.98.01-3.69,1.34-9.79,6.9-10.72,11,1.5,1.2,6.34-6.04,8.68-5.33-.07,2.76-3.4,3.73-2.67,6.67,1.48-.22,3.58.35,4.9.03.65-.16,5.09-10.53,9.79-7.71-1.34.66-4.8,6.93-4,7.68,2.46-.21,16.46-1.61,16.62-3.66-12.47-21.18-8.63-59.23,9.05-76.5,1.65-1.61,5.27-3.26,6.24-5.12,1.13-2.19.46-4.34.97-6.38,1.5-6,4.65-11.29,7.19-16.86.2-1.49-.23-.8-1.01-.98-17.88-4.31-31.65-17.53-37.73-34.73l11.34,11.02c6.15,4.99,12.84,10.15,20.25,13.13,3.3,1.33,7.62,3.24,11.13,2.22-2.47-2.52-4.61-5.49-5.34-9.01.91-.86,9.63,6.09,11.34,7.02,2.91,1.58,8.14,4.67,10.63,1.22l-1.26-4.9c1.05-1.07,15.81,12.01,10.99-1.99-1.06-3.09-3.69-5.46-4.32-8.7,1.41-1.33,8.04,4.81,8.02,6.67,2.54,1.85,2.01-6.56,1.91-7.59-.94-10.05-6.34-23.46-10.92-32.48-1.5-2.96-11.42-18.8-11-20.29.96-3.41,7.48,2.71,8.69,3.9,10.95,10.88,18.06,26.53,21.31,41.49,3.95-.24,7.72-1.24,11.74-1.08,2.44.1,5.93,1.36,8.05,1.33,1.9-.03,3.21-7.3,3.97-9.28,4.54-11.89,13.1-26.91,23.35-34.74,2.14-1.63,4.11-3.15,6.99-2.68.16,1.16-.08,2.08-.52,3.15-2.54,6.1-10.78,15.91-14.52,22.88-5.81,10.84-11.19,22.79-10.33,35.4l6.71-6.31,3.3-1.03c-1.87,5.45-7.06,9.66-6,16.02,2.26,1.25,11.56-5.14,12.01-4.67l-1.24,5.92c2.63,4.16,19.09-7.55,21.62-9.92,1.14,3.98-3.79,7.02-5.68,10.01,14.44-1.75,27.42-10.19,37.74-20.01,2.21-2.1,3.99-4.88,5.98-6.71.73-.68,1.16-1.57,2.35-1.31-7.73,21.54-27.69,38.53-51.41,37.39,2.75,7.49,6,14.21,6.66,22.38.3,3.72-.55,8.35.16,11.86.48,2.36,4.03,7.6,5.22,10.81,4.12,11.16,5.39,27.02,3.97,38.74-.71,5.86-3.02,11.26-4,17.03l45.74,7.35c1.5-2.73-1.77-4.93-2.67-6.68-1.99-3.86,4.84.22,6.12,1.56,2.67,2.79,2.34,6.38,8.25,5.11.7-3.06-2.11-4.16-2.67-6.67.74-.7,3.67,1.44,4.33,2.01.52.45,3.97,5.8,4.35,2.98.36-2.65-7.79-9.73-10.04-10.64-3.47-1.4-7.08.72-10.32.32-.92-.11-1.93-.39-1-1.34,17.39-7.31,35.16-19.11,39.86-38.6,5.58-23.13-5.31-63.26-10.68-87.08-5.6-24.84-11.93-49.58-19.2-73.95-.94-.66-9.18,4.44-11.07,5.23-7.14,3.01-14.82,4.21-22.28,6.09l30.04-19.37-.33-1.33c-24.54.55-28.15-29.32-13.71-44.42,9.65-10.09,26.31-13.21,36.07-1.65l-5.4-52.02c-3.12-.47-10.12-2.62-11.43-5.62-.36-.83-.8-.64.14-1.44,2.21-1.9,9.14-.73,12.35-1.02,16.16-1.48,34.36-5.15,50.04-9.39,16.17-4.37,31.9-10.3,47.02-17.41ZM457.42,187.52c-10.22-1.97-20.29-4.76-30.57-6.49-3.6-.6-20.88-3.44-22.83-2.53-.87.41-1.61,1.97-2.86,2.5-3.93,1.69-16.5-.71-21.5-.86-8.52-.25-17.56-.13-26.1,0-5.36.08-11.82,1.44-17.37.73-4.41-.57-3.39-5.28-5.42-5.94-40.68,1.18-80.11,14.07-116.33,31.69l-9.43,5.59c17.1-4.37,34.12-9.28,51.39-13.04,58.17-12.67,116.64-17.26,175.88-8.9,3.6.51,16.2,3.69,18.42,2.9.47-.17,4.87-3.21,5.6-3.77s1.38-.67,1.11-1.88ZM267.79,206.21c-1.55-1.46-36.6,8.29-41.39,9.68-8.52,2.47-19.16,5.45-27.23,8.82-1.79.75-4.14,1.61-5.35,3.18-.17,1.17,7.28,6.81,8.73,7.84,9.35,6.63,22.21,12.29,33.21,15.53,1.96.58,14.06,3.71,14.94,3.54.96-.18,1.44-1.35,1.79-2.16,2.41-5.63,3.91-15.07,5.96-21.42,2.75-8.53,6.34-16.62,9.36-25.02ZM679.11,220.24c-60.19,15.58-115.01,46.93-164.16,84.23-.44.74.17,1.67.43,2.38,3.51,9.51,11.76,22,16.52,31.56s9.83,19.45,14.13,29.27c1.9,4.32,5.93,10.67.25,13.86-3.12,1.76-20.74,5.35-21.37,7.38.35,2.44,1.33,4.78,2.13,7.09,2.05,5.99,12.36,28.69,11.84,32.83-.2,1.62-1.61,3.61-3.17,4.23l-26.91,5.26,8.68,47.39,17.41-1.73c1.33-1.31-7.32-19.33-7.86-22.52-.48-2.88-.45-4.02,1.89-5.81,4.97-3.79,31.94-5.32,40.14-7.26,1.29-.3,3.04-.24,3.81-1.51.69-2.65-11.52-29.57-12.93-35.02-2.11-8.15.49-8.87,7.65-11.01,6-1.79,14.76-2.47,20.19-4.51.81-.3,2.22-.62,2.44-1.56-2.56-8.75-4.98-17.56-7.61-26.29-1.32-4.37-6.74-17.38-6.2-20.87.08-.54,1.01-2.62,1.39-2.99l76.25-18.91,25.06-105.47ZM570.27,231.58c1.51-1.33-5.31-3.91-6.39-3.96-1.58-.07-8.17,1.89-10.06,2.53-.88.3-2.04.2-2.25,1.42,6.31.85,12.36.19,18.69,0ZM255.37,295.25c-2.89,4.66-.4,15.38,1.26,20.61,1.32,4.16,8.04,17.92,11.84,19.54,5.65,2.4,12.9-3.04,15.48-7.86,6.66-12.45-.71-31.3-14.29-35.39-4.29-1.29-11.71-1.06-14.29,3.11ZM488.54,294.64c-18.39-13.79-43.09,13.73-31.68,33.32,3.6,6.17,13.23,9.96,19.89,6.75,2.16-1.04,8.35-10.43,9.73-12.97,3.76-6.96,9.89-21.22,2.05-27.1ZM534.21,373.14l-31.05-62.09c-3.63,7.65-6.29,15.18-11.14,22.24-1.7,2.47-7.13,7.79-7.29,10.13,7.86,27.28,14.85,54.78,21.09,82.48.47.79,1.15.66,1.91.62,2.47-.11,11.63-1.92,14.07-2.68.95-.3,1.85-.5,2.17-1.61-3.37-10.24-8.46-20.03-11.48-30.39-2.63-9.05-2.68-10.97,6.38-14.34,4.89-1.82,10.3-2.95,15.33-4.37ZM376.63,425.9c-6.13-1.6-12.52-2.05-18.7-.34l-.67,2.33c6.19-.34,12.2-.97,18.31.6l1.05-2.59ZM399.33,471.29c.54-.54-2.21-7.09-2.75-8.26-.62-1.35-5.75-10.66-6.25-11.11-1.9-1.68-5.46.85-9.37-3.98-3.31-4.09-2.43-11.33-6.82-12.55-2.74-.76-11.6-.56-14.5-.11-5.08.78-4.02,9.08-8.36,13.01-3.89,3.53-6.99,2.12-10.89,3.13-.44.11-7.67,3.52-8.19,3.83-2.03,1.21-7.24,8.67-7.67,11.03-.26,1.44-.2.73.68.69,7.09-.28,11.34-1.16,17.87-2.84,9.53-2.45,15.79-1.66,25.15.52,1.64.38,3.4,1.67,4.89,1.84,2.79.32,6.56-.86,10.33-.38,5.55.7,10.66,3.37,15.86,5.17ZM325.21,451.94c-6.15-1.23-15.04,20.87-13.35,22.7,5.08-.58,4.09-8.58,6.77-12.25l6.58-10.44ZM410.68,480.64c.18-7.76-3.37-20.66-8.37-26.68-1.23-1.48-4.11-3.07-3.11-.25,1.3,3.65,4.57,7.78,5.96,12.09,1.28,3.99,1.28,8.97,2.33,12.36.27.86,2.58,3.17,3.19,2.48ZM360.94,473.3c3.32-.48,7.57.35,11.02,0,0-.89-1.85-1.53-2.55-1.79-7.84-2.92-21.11-3.56-28.62.34-.69.36-3.31,1.52-2.88,2.44l11.65,4.39c3.05-1.98,7.8-4.86,11.38-5.38ZM321.88,475.3c4.73,2.24,7.71,1.21,11.33-2.33.06-1.34-5.4-.33-6.16-.17-1.42.31-4.33,1.22-5.17,2.5ZM390.65,475.31l-11.35-2.68c-.93.79,5.2,5.1,5.84,5.23s3.71-.9,4.51-1.23,1.27.52.99-1.33ZM303.18,531.39v-9.68c0-2.8,2.99-13.49,4.05-16.65,2.88-8.66,7.64-16.54,13.98-23.07-9.72-1.12-15.23,3.14-20.31,10.73-17.45,26.08-12.87,77.29,24.98,80.73.11-2.32-2.09-3.79-3.2-5.8-1.19-2.15-2.79-5.01-3.32-7.37-.15-.66-.67-2.35.51-2.17,3.04,6.46,8.96,13.04,15.45,16.27,18.54,9.22,46.26,4.19,54.68-16.27,1.26-.05.68,2.88.51,3.52-1.02,3.84-3.93,7.94-6.24,11.14l.7,1.34c36.34-6.72,41.91-62.06,21.31-86.05-3.65-4.25-9.28-8.06-14.94-5.08,2.14,2.73,4.25,5.78,5.8,8.87,4.94,9.84,7.83,22.88,8.24,33.84.06,1.53.31,4.99-1.36,5.69-.6-13.71-2.84-30.29-11.83-41.21-8.8-10.69-30.32-14.52-40.82-4.42l-6.11,13.58c-1.46-7.85,6.16-13.57-4.14-16.9-17.24-5.57-29.06,17.72-33.57,30.95l-4.37,18Z"/>
  <path d="M307.07,237.09c31.52-1.63,32.79,50.52,2.44,53.24-36.16,3.25-33.21-51.66-2.44-53.24ZM309.02,245.76c-9.32,1.61-9.73,16.9.68,18.4,14,2.02,13.48-20.85-.68-18.4Z"/>
  <path d="M429.92,237.09c32.19-2.56,37.91,56.67-.19,53.24-27.85-2.51-29.34-50.89.19-53.24ZM439.22,254.94c0-5.08-4.12-9.21-9.21-9.21s-9.21,4.12-9.21,9.21,4.12,9.21,9.21,9.21,9.21-4.12,9.21-9.21Z"/>
  <path d="M372.39,290.59c3.1,1.98,5.83,5.85,9.8,7.88,5.99,3.05,15.11,4.81,20.11-.82,1.71-1.93,3.15-8.25,5.94-6.01,1.6,1.29.7,5.67.11,7.38-4.34,12.52-20.7,10.96-29.92,5.22-2.2-1.37-6.98-6.6-8.82-6.55-1.31.04-3.98,3.52-5.44,4.55-8.13,5.77-25.1,10.91-30.38-.77-1.33-2.94-3.16-11.38,2.16-9.5,3.03,11.94,13.45,10.64,22.46,5.84,4.51-2.4,9.65-10,14-7.22Z"/>
  <path d="M366.44,273.81c8.97-1.6,16.07,3.52,6.65,8.66-7.72,4.22-14.9-7.19-6.65-8.66Z"/>
  <path d="M330.04,542.59c.56.66,5.69,1.85,6.57,1.21l1.68-5.77c6.89.2,13.75,1.09,20.67.73,2.19-.11,8.98-2.09,10-.7l1.33,6.03,6.17-1.5,2.84-7.51,19.35-3.68c-3.16,17.69-15.59,33.37-33.91,36.52-28.49,4.9-50.5-8.21-56.89-36.52l19.57,4.13c2.44,1.01,1.51,5.77,2.61,7.06ZM325.06,538.89c-.9-.68-5.74-1.78-5.17.16.26.88,2.81,5.69,3.43,6.59,4.06,5.85,14.8,7.17,21.27,8.78l1.4,7.61c2.42.06,14.96,1.06,15.91.04l1.37-7.65c5.39-1.75,14.82-3.07,19.03-7.01,2.62-2.45,3.19-6.38,5.01-9.34-7.4-1.99-5.54,5.87-7.8,7.39-1.08.72-13.37,4.07-14.58,3.98-.57-.04-1.04-.14-1.36-.66-.65-2.55.43-3.68-2.61-4.07-2.18-.27-15.23-.18-16.24.85-.55.56-.52,2.87-.89,3.78-1.06.91-14.96-2.7-16.33-3.9-1.64-1.44-1.35-4.76-2.45-6.56Z"/>
  <path d="M318.2,522.71c-1.6-.16-8.56-1.67-8.96-3.11-.63-2.26,10-19.58,12.09-22.47.69-.96,2.4-3.81,3.54-3.8l11.69,29.39c-5.9-.43-12.56.59-18.36,0Z"/>
  <path d="M383.29,493.34l14,26.29c-1.05,3.04-22.64,3.48-26.23,2.98l-1.01-1.43c1.88-4.59,3.67-9.24,5.6-13.8,1.32-3.12,4.02-10.68,5.76-12.94.57-.74.69-1.37,1.89-1.1Z"/>
  <path d="M346.58,528.06c-.6-.59,4.99-11.86,7.63-11.4,1.74,3.82,5.69,7.03,5.73,11.4h-13.35Z"/>
  <path d="M344.74,169.33c-1.67-1.68.12-16.94.6-20.12.42-2.78,1.98-11.93,3.95-13.41,3.46-2.61,20.82-2.68,25.7-2.4,3.49.2,16.26,1.44,17.96,4.07s1.23,13.47,1.07,17.02-.62,10.72-1.54,13.82c-.24.82-.43,1.63-1.16,2.18l-46.59-1.16ZM387.95,140.8c-11.28-2.06-23.39-2.2-34.7-.37-1.69,1.12-4.07,22.93-3.04,24.42l35.81,1c1.95-1.38,2.05-21.57,1.93-25.05Z"/>
  <path d="M376.46,158.63c-1.65,1.5-16.41,1.95-18.85,1.49-4-.75-3.71-6.94-1.5-9.14,2.92-2.91,18.28-3.35,20.8.52,1.27,1.95,1.26,5.58-.45,7.14ZM372.62,152.79h-10.35c-.51,0-1.96,1.12-3.01.67.1,1.19-.68,2.04,1.01,2.03,3.96-.03,8.01-1.5,12.35-.03v-2.67Z"/>
</svg>