<?xml version="1.0" encoding="UTF-8"?>
<svg id="katman_1" data-name="katman 1" xmlns="http://www.w3.org/2000/svg" viewBox="0 0 841.89 595.28">
  <path d="M541.91,21.83c.19,1.47-.87,2.53-1.59,3.65-5.95,9.17-17.77,20.51-25.9,28.1-19.73,18.42-41.87,34.29-65.25,47.71,3.18,9.48,3.52,19.48,5.39,29.13.94,4.84,2.83,9.51,3.63,14.37,2.17,13.19.31,25.72-8.53,36.05l-.25,1.17c4.44,20.66,6.7,41.32,13.66,61.4,2.31,6.65,5.64,13.07,7.7,19.8.42,1.37,1.86,9.06,2.39,9.1,1.35-.91,2.61-1.88,4.19-.92l-.93,4.93c2.06-.31,3.88-1.64,5.93-.43.49,2.52-.83,4.8-1.93,6.92,2.54-.29,4.22-2.15,7-1.5,1.06,1.07-2.97,7.15-3.79,8.46-2.75,4.36-6.31,8.12-8.98,12.53l.99,23.05c18.62,3.86,37.11,8.42,55.39,13.61,5.96,1.69,16.92,4.03,22.01,6.49,3.21,1.55,3.2,7.13,1.11,9.35-2.79,2.95-24.27,5.24-29.23,5.53l.35,1.5c2.17,1.15,6.02,2.53,7.84,3.96.58.46.27.94.31,1.53l-13-1.99c.12.75.94.93,1.49,1.26,4.66,2.75,10.41,4.72,15.35,7.65,1.11.66,7.66,4.56,7.65,5.34-.49.62-1.12.92-1.87,1.12-3.83,1.05-8.23,1.64-12.12,2.63.92,1.94,4.81,2.83,6,4.25,1.86,2.23-.87,15.07-1.43,18.46.26,1.03,4.39,1.14,5.21,3.76s-.38,5.62.69,8.31c.82,2.08,4.09,5.59,5.47,8.53,7.45,15.95,16.61,37.98,21.8,54.7.73,2.35,3.12,9.8,2.77,11.71-.41,2.21-10.82,9.15-13.65,9.74l-.58.95c.65,5.91,1.81,11.9,2.23,17.84.67,9.34.84,21.73-.55,30.94-1.21,8.04-2.6,11.05-10.1,14.4-20.45,9.12-44.74,4.75-65.86.18-34.72-7.51-68.26-19.73-101.73-31.32-26.67,8.45-53.58,17.15-81.51,20.54-19.41,2.35-48.7,2.99-67.93-.06-5.48-.87-11.06-2.73-13.41-8.09-5.93-13.46-5.4-29.7-4.9-44.09l.27-7.78c-4.45-6.9-13.04-11.4-18.03-17.47-1.5-1.82-2.88-3.16-2.71-5.68.27-3.82,5.31-12.52,7.38-16.16,4.83-8.49,10.71-16.34,16-24.54.51-2.04-4.75-6.04-3.82-10.26.6-2.71,8.01-8.44,7.84-9.52-3.24-5.42-9.13-12.02-5.95-18.6,2.52-5.2,12-13.95,16.5-18,5.58-5.01,12.46-8.93,16.3-15.2,1.17-1.92,11.99-6.39,14.87-8.13,4.33-2.62,8.29-6.65,12.84-9.19-1.27-2.18-1.37-6.49-1.02-8.99,1.47-10.49.03-21.09,1.67-31.83.45-2.92,1.17-5.82,2.25-8.57l-4.92-8.07.26-.76c1-1.07,1.99-.9,3.27-.5.72-.75-3.2-4.92-1.54-7.18,1.4-1.89,6.28.94,6.54.67l-1-5,5.5,1c-.29-1.89.78-5.21-.8-6.45l-25.15-12.72,21.42-31.09-39.48-8.75.39-2.36,17.63-31.9-.88-1.13-29.57-5.84,13.98-38.54c-1.25-1.39-14.23-3.98-16.97-4.57-16.3-3.54-32.82-6.09-49.25-8.75-1.63-.47-2.4-4.68-2.72-6.28-4.5-22.94-5.55-50.83-7.13-74.37-.18-2.66-1.92-15.55-1.05-16.91,1.04-1.63,6.37.46,7.95,1.01,5.01,1.75,11.04,4.76,15.94,7.06,25.4,11.91,49.96,26.58,74.7,39.79,21.31-1.35,42.83-3.9,64.19-.23,29.28-14.21,64.71-13.93,95.01-2.97,4.15-3.38,8.2-6.86,12.6-9.91,15.57-10.78,35.49-19.43,53.4-25.6,16.61-5.72,34.3-10.43,51.76-11.99ZM503.62,61.54c9.06-7.69,18.52-16.44,26.55-25.2,2.93-3.2,7.57-8.22,9.65-11.86.31-.55.9-.95.1-1.41-1.44-.82-31.35,5.36-32.27,6.73.32,10.42-2.37,20.05-6.5,29.5-1.01,2.31-3.17,4.81-2.99,7.01,1.91-1.48,3.64-3.24,5.46-4.79ZM263.41,73.32c-1.15-1.28-3.14-2.21-4.66-3.08-22.41-12.82-47.28-26.52-70.66-37.34-6.48-3-13.05-6.08-19.95-7.99-.75.34-.69.96-.76,1.64-.37,3.7.27,9.6.53,13.52,1,15.12,2.42,30.92,4,46,1.2,11.5,2.34,23.16,4.96,34.41.55.8,2.92.97,3.95,1.18,18.03,3.7,44.15,5.56,60.7,11.8,1.31.5,3.58,1.24,3.31,2.99l-13.93,37.37,30.5,5.51c.94.99-4.99,9.4-5.49,11.27-.12.46-.28,1.38.48,1.23l1.5-1.49-1,5.74,1.5-.24-.49,5.5c.83.19,1.01-.27,1.49-.76,3.43-3.54,6.3-8.16,9.76-11.74l-1.25,9.5,3-5c2.38-.18-.63,4.15,0,5.5,1.87-1.02,5.62-6.85,4.5-1.5l1.8-1.49c-1.87-6.12-5.35-11.94-7.44-18.12-1.01-2.97-2.18-6.71-2.73-9.77-.25-1.4.15-3.22-.21-4.29-.46-1.39-4.55-1.87-5.92-1.83l.03-1.22,24.48-50.02c-1.45-1.57-3.76-.29-5.73-.24-14.22.39-31.79-1.43-45.89-3.66s-27.88-5.56-40.87-10.61c-.12-1.16,7.8-5.45,9.31-6.18,18.64-9.1,40.89-12.95,61.18-16.58ZM506.41,38.58c.22-2.29,0-5.12,0-7.5,0-1.4-4.29.03-5.22.28-22.65,6.11-57.56,21.33-74.54,37.49-.32.3-.8.46-1.24.49l2,2.49-14.99-5.25c-26.35-6.32-55.01-5.85-80.01,5.27l2,1.99c-38.23-5.12-77.2-.76-114,10.01-.77.87,2.46,4.55,3.18,5.32,4.9,5.31,19.87,17.1,26.69,18.56,3.66.78,9.97.99,13.86,1.14,14.29.55,28.76.04,42.93-1.62,1.47-.42,2.73-6.29,3.46-8.04.82-1.97,1.93-4.75,2.98-6.52.5-.86,1.19-2.45,2.41-2.34-1.71,3.72-3.76,7.21-5.14,11.1-2.58,7.31-2.92,14.21-4.47,21.53s-5.06,14.49-6.88,21.87c21.16-12.64,38.22,17.38,18.09,30.59l-.15.66c3.65,7,8.83,13.36,10.55,21.25-1.33.25-.87-.29-1.22-1-6.47-13.15-11.78-22.06-20.8-33.72-4.92-6.37-11.04-11.94-14.51-19.26-1.85-.16-2.01,3.89-2.74,4.01-1.96.33-4.6-4.9-6.96-5.04l-.77,4.02c-4.96-.97-7.22-2.89-6.5,4l-5.5-.5.45,6.45c-.65.38-4.88-.67-4.45,1.29,3.89,3.07,2.68,8.08,3.74,12.76,1.45,6.35,4.62,13.71,7.33,19.67,6.34,13.95,14.47,27.18,23.44,39.56l-.26.75-3.25-2.5c-3.76,15.36-8.19,30.75-8.91,46.65.38,1.22,6.77,4.53,8.35,5.65,9.6,6.8,20.96,17.07,28.04,26.46.35.47,1.89,2.35,1.51,2.74-.98.23-1.18-.52-1.7-1.05-6.8-6.91-11.97-14.25-19.79-20.71-2.27-1.88-20.19-15.1-22-13.24.81,4.77,5.04,8.21,7.77,11.97.49.68.93,1.04.72,2.02-4.34-3.45-7.49-10.72-14.01-9.76-.7.5-.4.68-.26,1.27.97,4.12,5.91,8.9,8.21,12.43.22.34.96.34.56,1.56-1.08.13-1.81-1.47-2.48-2.27-1.49-1.78-6.14-8.78-7.95-4.57,9.76,12.97,22.39,24.84,35.2,34.82,4.55,3.55,15.2,12.08,20.96,10.99,1.98-.37,4.77-3.96,4.77-5.72v-8.25c1.31-.21,1.42,1.06,1.55,1.95.53.48,11.62-3.25,13.45-3.7,20.96-5.19,43.66-6.39,64.13,1.38,3.76,1.43,7.19,3.57,10.87,4.88-.24-.64,1.34-7.31,2.5-6-2.22,4.89-2.44,15.78,5.11,14.88,10.11-1.22,35.05-23.42,41.88-31.64,1.34-1.61,13.02-17.28,12.01-18.24-2.28.37-5.66,1.27-7.27,2.97s-2.15,4.8-4.22,6.03c-.16-.95.06-1.46.48-2.26,1.24-2.4,6.23-9.11,6.04-11.48-.2-2.53-4.83-.27-6,.52-.91.61-6.12,8.09-7.02,7.23l7.61-10.64.39-2.36c-1.15-1.14-7.78,4.72-9.01,5.74-4.25,3.54-8.77,8.94-12.97,12.03-.68.5-1.01.94-2.02.72-.27-1.11.65-1.11,1.15-1.6,2.83-2.77,5.9-5.5,8.84-8.16,1.34-1.21,8.35-6.59,8.75-7.24.87-1.43-.43-6.81-.89-8.6-1.98-7.66-6.27-15.95-8.86-23.64-6.41-19.03-9.03-39.03-12.49-58.76l-6.49,5c-.29-1.33.1-1.09.62-1.65.84-.91,10.23-9.65,8.88-10.84-12.8,2.81-21.94-6.53-20.5-19.26,1.05-9.25,10.62-16.1,19.72-14.72,1.57.24,3.12,1.31,4.53,1.98.56.27,1.12.72,1.25-.27.08-.62-2.99-10.2-3.36-12.13-1.39-7.1-1.7-14.47-3.37-21.63-1.94-8.33-5.32-16.21-8.76-23.98,1.11-.29,1.7,1.42,2.08,2.16,1.33,2.58,2.65,5.97,3.8,8.71.45,1.06.47,3.69,1.78,3.57.86-.08,6.23-3.31,7.49-4.04,10.13-5.81,27.65-16.77,35.8-24.7,6.46-6.29,13.19-23.55,14.05-32.45ZM223.59,90.65c-1-.98-3.99-5.16-4.68-5.6-.44-.28-.66-.2-1.11-.15-2.23.23-10.57,3.84-13.06,5-2.61,1.21-5.73,2.79-8.08,4.42-.75.52-1.92.85-1.74,2.01,16.2,4.7,32.62,9,49.5,10.5-7.13-5.15-14.53-9.95-20.82-16.17ZM307.41,108.33c-.47-.47-11.46,1.32-13.26,1.49-2.32.23-5.95-.77-7.53.97-8.46,14.45-15.49,29.71-22.21,45.03l3.79-.98.19-5.78c1.63-1.36,3.19-.21,5.01-.24-.72-4.4,2.2-6.63,5.75-3.51,1.71-1.86.46-5.12,4.04-3.53,1.68.75,3.45,3.61,4.47,4.03,1.09.45,1.29-2.67,2.23-3.26,3.2-1.99,4.31,7.26,7.51,7.26.86-8.66,5.39-16.53,7.37-24.88,1.27-5.38,1.5-11.19,2.64-16.61ZM453.28,173.69c3.91-6.66,5.15-14.46,4.66-22.14-.31-4.8-.32-7.1-5.42-8.58-9.95-2.89-19.82,4.97-20.13,15.09-.37,12.08,9.31,19.74,20.89,15.64ZM315.98,174.76c1.11.63,4.92-3.41,5.7-4.41,9.64-12.35-.03-29.51-15.47-27.47-5.35.71-7.85,4.72-6.56,9.98l16.34,21.91ZM266.41,161.33c.58-.51-2.91-4.05-3.49-3.5l-.29,3.02,3.79.47ZM267.91,192.83c-.88-.18-1.24.45-1.76.99-1.52,1.58-8.19,10.66-9,11l-1.24-2.49-1.01,2.99c-.95.11-.32-.97-.25-1.5.24-1.83.84-3.62.76-5.49l-2.49,3.99.75-6.99-10.2,18.26,39.94,9.25-21.5,32.99,24.5,11.01c.09-2.09,1.02-4.57.4-6.65-.49-1.66-6.83-5.99-6.69-7.39,2.63-5.07,5.82-9.83,8.89-14.62,2.53-3.95,6.48-7.2,5.81-12.48l-10.04-16.23-13.36-2.64c-.5-.67,3.3-5.52,3.41-6.33.09-.64-1.18-1.7-.92-2.66l-4.75,5c-.86-.14,1.06-3.79-.49-2.99-1.09.56-1.85,4.32-3.25,4.99l2.49-11.99ZM283.41,207.83c.69-.71-4.45-9.13-5.25-10.49-.52-.01-5.36,8.42-4.75,8.99l10,1.5ZM287.91,258.33l5-22.5-1.51.87-9.91,15.96c-.06.65,3.93,4.53,4.73,5.12.59.44.73.77,1.69.55ZM282.11,298.64c-.95-1-1.71-2.44-2.94-3.3-1.91-.03-3.08,11.47-3.25,13.24-.32,3.33-1.06,9.98-.49,12.99.21,1.12.98,1.58,1.82,2.18,2.59,1.84,12.94,5.62,14.12,7.39.98,1.26.04,2.54.02,3.92-.04,3.88-.43,9.4,0,13.05.1.88.04,1.11.82,1.68,1.41,1.03,9.43,2.75,11.7,3.3,23.56,5.74,48.01,7.72,72.28,7.26,9.5-.84,19.11-1.51,28.51-3.49l-2.28-39.79c0-.68-.33-.85-.84-1.16-.69-.42-7.96-1.42-9.43-1.57-11.97-1.24-25.6.11-37.36,2.63-6.13,1.31-12.15,3.34-18.08,5.31-.75.52-.65,4.11-.93,5.18-3.62,13.58-18.43,1.89-24.82-2.93-9.83-7.4-20.4-16.96-28.86-25.89ZM473.41,303.83c-.81-.74-.92.4-1.13.64-1.16,1.3-2.5,3.01-3.56,4.41-.52.69-4.24,5.55-3.8,5.95l8.95-2.55c.28-.32.12-7.92-.46-8.45ZM463.42,316.33l.75-3.99c-2.28,2.77-7.95,5.92-9.25,9.26-.25.64.09.92.73.74l17.92-6.09.83-2.15c-.56-.94-.72-.51-1.37-.44-3.32.38-6.26,2.63-9.61,2.67ZM424.78,324.96c-1.18-1.84-20.08-9.41-21.37-8.14l2.5,39.5c.85.83,20.25-3.97,23.01-4.75,11.43-3.19,33.74-10.77,42.16-18.84,2.51-2.4,3.08-5.75,3.32-9.18.09-1.27.58-6.27-1.14-6.17l-19.59,6.93c-1.5-.83.19-1.96-.51-3-5.19,3.73-16.89,13.36-23.4,11.89-4.06-.92-3.66-6.18-4.99-8.26ZM290.41,331.33l-14.5-7v8.75c4.13,3.03,9.47,5.84,14.5,6.75v-8.5ZM431.42,352.32c12.58,1.21,25.16,1.59,37.77,1.98,17.82.56,60.34,1.18,75.08-8.38.53-.34,1.28-.53,1.15-1.34-.11-.5-7.73-2.64-8.99-3.02-7.75-2.27-15.69-4.47-23.5-6.5-12.42-3.22-25.04-6.39-37.72-8.27-.98,6.48-7.65,10.22-12.95,13.11-9.43,5.16-18.91,7.58-28.82,11.18-.57.21-2.01.53-2.02,1.23ZM274.92,334.83c.29,1.95-.63,5.75.46,7.28.91,1.27,11.64,6.12,13.71,6.8.49.16.48.73,1.09-.07v-7.53s-15.26-6.48-15.26-6.48ZM292.42,365.33c-.73-.79,4.39-10.8,5.49-12.25-.05-.67-9.59-3.26-11.12-3.86-2.1-.83-9.16-5.03-10.59-4.89-9.9,5.98-19.14,13.54-27.54,21.49-2.57,2.43-5.68,5.39-7.99,8.01-.71.8-3.54,4.11-3.74,4.77-.58,1.95,4.1-1.55,4.66-1.85,5.96-3.22,12.58-6.56,19.33-7.41.22.94-.54,1.18-1,1.75-1.74,2.13-4.34,3.94-6.21,6.29-7.14,8.97-11.97,21.44-14.79,32.46l22.19-3.95c.4.25.82.34.56.95-.59,1.4-9.48,7.37-10.93,9.55l-.82,1.94c9.03-2.02,18.14-4.35,27.49-4,.98.86-5.53,4.54-6.5,4.5l.49,1.25,15.5,2.74c-.86-3.02-2.51-5.74-3.51-8.74-3.15-9.47-3.7-21.14,0-30.52,3.14-7.96,6.16-6.37,11.01-.74-.1-.89-.23-2.42-.61-3.16s-1.3-.75-1.41-1.19c-.75-3.02,5.12-15.5,7.03-18.64-2.05-.81-5.98,6.6-7,5.49ZM553.79,346.95c-.17-.15-3.8-1.45-4.25-1.51-2.65-.41-7.07,2.65-10,3.77-11.16,4.25-23.11,4.82-34.87,5.63-25.38,1.74-50.74.83-76-2l-16.75,4.24c1.27.69,3.45,1.29,4.88,1.63,29.89,7.1,72.68,4.98,103.37,1.63,4.63-.51,31.28-4.01,33.28-6.22,1.07-1.18,1.49-6.17.34-7.16ZM319.91,357.33c-3.19-.38-6.46-.97-9.59-1.66-2.19-.48-9.98-2.95-11.4-2.09-.78.47-3.97,6.65-3.5,7.25l5.75-4.49c.73-.14.89,0,.75.75-.29,1.5-3.69,6.81-4.6,8.91-1.39,3.22-2.57,6.62-3.38,10.03l11.57,60.45c6.24,4.84,12.91,9.6,19.64,13.86,2.87,1.82,11.97,7.9,14.64,8.41,2.02.39,2.28-1.42,3.98-1.82,4.55-1.06,7.13,2.07,10.97,3.82,1.74.8,3.89,1.68,5.7,2.3,4.74,1.63,15.89,2.74,18.48,6.02,1.45,1.84,1.57,5.09,4.91,3.66.25-2.16,2.52-7.47,4.61-8.13,2.54-.81,6.45,1.27,9.23,1.26,8.16-.03,15.85-8.54,22.73-10.3,3.28-.84,5.09.11,9-1.5,23.69-9.72,22.8-33.12,26.66-54.84,1.57-8.83,4.89-18.74,4.37-27.66-.09-1.55-1.1-4.43-1.03-5.44.03-.54,1.93-.49,1.51-1.79-4.08-.32-8.15-.38-12.24-.51-1.53-.05-3.41-1.35-4.75.26,2.44,1.09,10.49,3.88,10.99,6.51.22,1.17-.15,6.28-1.75,6.26-10.56-7.76-25.82-12.8-39.02-12.05-1.65.09-6.41.67-7.7,1.3-1.11.54-6.91,6.79-8.28,8.22-8.58,8.91-16.59,18.48-24.51,27.99l-1.73.52c-.75-4.21.17-8.01,0-12.24l2.99-23.76-19.49,24.5c.16-8.04,2.68-15.95,4.52-23.75-.11-1.38-5-2.63-6.42-3.1-13.24-4.34-28.05-4.73-40.78,1.42l-11.82,7.68c-.69-.38-.06-4.14.13-4.88.91-3.64,3.55-4.71,6.69-6.31,3.36-1.7,7.01-2.66,10.52-3.99.52-.2,1.73-.42,1.66-1.08ZM249.62,363.54c1.67-1.56,4-3.14,5.55-4.7.58-.58,1.4-1.07,1.23-2.01-1.71,1.46-6.5,2.6-7.78,3.97-.95,1.02-.78,2.37-2.46,4.04-3.54,3.53-8.96,7.05-12.86,10.52-4.45,3.96-17.12,15.32-18.61,20.51s3.69,11.87,6.48,15.97c1.51.37,9.66-10.26,11.22-11.77.38-.37,1.06-1.26,1.51-.49-4.36,7.47-12.08,12.55-17.51,18.99-1.05,1.24-3.03,3.38-2.97,4.96s2.71,6.64,4.23,7.3c1.44-1.75,2.55-4.23,4.23-5.76.68-.62,2.06-1.26,1.51,0-.38.87-3.84,4.56-4.71,5.79-7.92,11.15-16.05,23.07-21.78,35.47,4.13-4.73,9.28-7.62,15.75-7.54,9.87.12,16.84,2,27.43.47,7.92-1.15,7.79-2.52,13.67-6.33,4.51-2.92,10.14-4.85,14.65-7.85-6.98-2.76-11.71,2.14-18.01,4.01-.2,2.15-2.66,2.08-4.75,2.24-6.5.5-14.04.12-19.74-3.25-.2-1.01.4-.88,1.13-.62,4.08,1.43,7.18,3.04,11.87,2.88-10.97-8.56,5.29-13.57,10.86-17.85.63-.48.76-.72,1.14-1.4-3.44-.44-7.17,2.37-10.26,2.75-.8.1-.82.06-.74-.75l13-25.24-14.3,3.47-1.15-.76c2.75-10.6,6.87-20.88,12.84-30.08l7.11-9.13c-8.03,1.06-14.4,6.52-21.21,10.03-.48.25-1.42.93-1.79.21,2.85-6.96,9.73-12.91,15.21-18.04ZM411.91,358.33c-1.3-.18-2.31-.95-3.69-.96-5.07-.02-12.99,2.47-18.57,2.95-2.67.23-10.8-.78-12.29,1.21-.32.43-1.14,4.66-1.33,5.67-2.04,11.01-3.13,22.44-3.12,33.62l39-42.49ZM326.66,360.33c2.75-.3,5.94.22,8.75,0l-3.87-1.38c-8.08-1.35-13.65.07-20.98,3.29-4.25,1.87-9.09,3.58-8.65,9.09,4.74-3.15,9.44-6.49,14.88-8.36,2.39-.82,7.54-2.38,9.86-2.64ZM355.41,364.33c.22-1.04-.5-1.16-1.15-1.6-2.66-1.81-6.7-2.1-9.85-2.4,2.82,2.37,7.89,1.75,10.99,3.99ZM453.41,375.33c2.05-5.91-2.16-7-6.66-9.09-8.32-3.85-27.16-7.4-35.74-4.06-1.16.45-1.82.93-2.6,1.9,4.06.09,8.15-.51,12.24-.25,11.52.74,23.1,5.45,32.75,11.5ZM360.91,365.33l.52-3.77-7.01-.23,5.01,3.74,1.49.26ZM375.91,361.33h-12.25c-.51.38-.86.79-1.12,1.38-3.17,7.13-3.9,17.31-6.12,24.88l1.24.25c3.17-5.32,6.97-10.35,10.76-15.25,1.27-1.65,9.21-9.53,7.49-11.26ZM528.91,364.34c-3.5-.94-5.38-3.1-9.26-3.04-10.25.15-20.68,2.4-30.97,2.56l-26.77.48c-.58,1.54.96,4.21.82,5.27-.07.51-1.1.92-1.31,1.99-.5,2.55.53,6-.5,8.74.74-.54,5.76-9.29,6.99-8l-1,1.99c4.31-2.18,8.36,3.66,9.53,7.23,3.81,11.64-4.09,25.79-9.53,35.77l20.5-5.5c1.29-.99-2.99-1.39-3.31-1.44-1.44-.2-9.68-.32-9.68-1.31,9.58-4.82,20.6-6.61,30.99-9.26-.46-1.04-2.81-1.13-3.89-1.35-1.92-.38-3.98-.78-5.9-1.1-1.65-.27-4.67.79-4.7-1.54,16.95-5.85,33.86-12.61,51.5-16.01.19-.83-.27-1.01-.76-1.49-1.29-1.25-4.7-3.12-6.41-4.09-6.01-3.42-12.56-6.05-18.83-8.92-.13-.57.15-1.24.73-1.33s4.91.3,5.96.4c1.64.15,3.35.94,5.05.96.99,0,.8-.06.76-1.01ZM452.98,426.77c4.83.63,9.07-4.38,11.65-7.97,6.36-8.82,15.7-28.93,9.8-39.23-1.18-2.06-3.88-5.46-6.38-4.36-6.78,3-9.17,14.45-10.5,21.01-1.04,5.13-2.76,13.4-3.13,18.38-.04.54-.31,1.37.49,1.23.87-3.54,6.13-9.1,6.41-12.37s-4.16-3.32-2.43-8.4c.75-2.2,6.71-10.92,9.46-9.16.35.22,1.43,4.5,1.06,4.93-2.25.29-.48-4.13-2.67-3.95-1.16.1-5.95,6.15-6.53,7.5-2.28,5.33,2.49,4.97,2.1,9.08-.36,3.76-6.08,10.21-7.38,14.12.06,2.31,5.93-1.69,6.44-2.05,1.86-1.3,3.68-3.1,5.3-4.7.79,1.59-2.7,3.99-4.01,4.99-2.7,2.05-5.23,3.65-8.77,3.73-.49,1.13-1.85,6.64-.9,7.22ZM296.91,397.33c-.63-4.87-1.03-9.84-3.78-13.97-2.26-3.4-5.25-6.58-7.92-1.48-6.46,12.34-3.19,35.68,6.93,45.47,1.91,1.85,10.68,7.65,10.8,2.25.03-1.46-1.62-9.86-2.17-11.38-1.39-3.86-7.77-5.21-8.26-9.28-.37-3.06,2.07-6.91,3.73-9.37.04-.66-3.96-7.35-4.53-7.79s-1.06-.61-1.76-.44c-.92.63-2,8.3-4.02,8.97-.13-1.74,3.19-10.14,4.31-10.47,2.36-.7,4.74,6.61,6.68,7.47ZM522.42,399.33c3.29,3.25,6.69,5.71,11.26,6.88.39-.05.7-.63.86-1,.79-1.8,2.34-14.94,1.79-16.55l-7.21-4.33-34.21,11c-.18,1.08.09,1.01.98,1.25,1.52.41,14.02,1.82,14.01,3l-7.48,2.5,12.99,21.75c-3.83,1.03-7.85.19-11.74.51-7.58.63-25.28,4.21-31.23,8.77-1.38,1.06-1.7,2.12-2.46,3.54-1.71,3.22-7.84,18.21-6.71,21.03,1.52,3.81,11.12,8.19,14.39,10.65,5.48,4.12,9.91,11.13,10.75,18,1.09.18,1.01-.09,1.25-.98.97-3.58,1.2-8.73,1.97-12.55.17-.86.46-1.97.72-2.81s-.41-1.41,1.06-1.16l-3.49,19.99,16.84-11.4c8.96-4.7,14.9-10.47,25.67-8.36,12.8,2.51,26.53,10.19,36.23,18.76,1.14.06-.24-3.54-.39-4.1-1.71-6.03-4.33-12.51-6.61-18.39-4.76-12.25-10.65-28.05-16.39-39.61-1.15-2.32-4.68-6.19-5.12-7.88-.62-2.38.34-6.32-.48-8.02-.87-1.79-7.03-2.72-9.02-3.48-2.97-1.12-7.69-3.63-8.22-7.02ZM297.41,401.33c-1.28-1.19-5.59,6.75-2.46,10.21.36.4,4.78,3.53,4.95,3.29-.08-4.62-1.42-9.06-2.5-13.5ZM513.91,422.83l-12.84-20.41c-7.53.36-14.81,3.81-22.16,5.41-.11,1.32-.05.83.76.98,4.06.75,8.36.59,12.24,2.27-4.19,1.93-9.19,2.46-13.72,3.78-2.77.81-11.02,3.1-12.81,4.69-1.6,1.44-3,3.97-4.97,5.53-2.66,2.11-4.99,3.16-8.5,2.75-.38,6.43-3.8,12.16-7.75,17l-4.75,4.99c3.75-1.31,7.48-3.38,11-5.24,12.21-6.46,23.42-15.07,36.99-18.51,8.56-2.17,17.68-2.86,26.5-3.25ZM258.91,406.83c-4.62.08-5.57,2.61-6.99,6.5l5-3.74,1.99-2.75ZM274.41,415.33c-8.91.6-17.78,2.22-26.37,4.62l-6.12,12.37c2.74-.97,5.5-1.94,8.4-2.39,1.06-.16,1.92.46,2.74.3,1.25-.24,3.81-3,6.14-3.37s11.71.24,14.46.48c4.44.38,10.36,2.44,14.76,3.74,5.22,1.55,10.36,3.47,15.5,5.25l-.47-3.79c-4.1.74-7.91-.79-11.03-3.45-1.56-1.33-2.82-3.8-4.36-4.64-3.47-1.89-18.88-3.16-19.63-4.12l6-4.99ZM259.28,427.94c-1.52.26-18.07,10.58-19.88,12.13-6.96,5.99-1.38,9.87,5.75,9.25,6.07-.53,11.34-5.2,15.52-5.97,5.16-.96,13.29.81,19.43-.07,5.28-.76,6.09-10.46,1.99-12.89-1.12-.66-6.48-1.91-7.94-2.06-4.87-.48-9.98.36-14.88-.39ZM300.41,475.83c2.83,2.17,4.82,3.23,5.78,6.96.35,1.35.31,6.12,1.53,6.49l42.36-7.05c1.29-.43.97-6.69.79-8.12-.13-1.07-.92-3.59-1.32-4.68-3.13-8.58-6.7-7.63-13.65-11.35-12.6-6.74-23.94-17.58-37.01-22.49-2.91-1.1-11.06-4.09-13.73-4.28-1.03-.08-.73-.14-.52.52,1.57,4.9,1.4,6.15-.74,10.99.47.42,10.76-1.16,12.62-1.17.65,0,1.1-.45,1.37.67l-17,2.01c5.06,4.42,4.95,10.28,4.21,16.51.64.88,2.38.46,3.32.26,4.44-.94,9.39-4.38,13.97-5.27-.9,2.27-12.99,5.39-12.99,6.24,3.25,2.13,6.01,3.79,7.25,7.74.36,1.15.66,5.93,1.48,6l12.25-4.98c.2,1.11-.73,1.34-1.47,1.77-2.43,1.4-5.91,2.09-8.52,3.23ZM459.91,454.33v-8.5h1v7.75l1.5,2.75c.09-3.9,1.62-8.1,2.99-11.76.98-2.61,3.35-6.3,4.01-8.5.21-.7-.05-.89-.73-.73-6.92,3.78-13.59,8.34-20.64,11.86-4.53,2.27-14.54,5.02-17.62,7.38-.22.17-.67.62-.5.75,7.52-.97,19.04-5.31,26.41-2.66,1.47.53,2.03,1.86,3.59,1.66ZM283.84,461.26c1.84-4.77.49-15.87-5.71-16.92-.99-.17-5.65.43-6.73.72-2.69.72-17.73,8.81-19.75,10.75-4.93,4.72-8.83,13.1-14.17,17.83-4.26,12.47,8.43,9.25,14.67,4.17,2.4-1.95,4.31-4.87,6.92-6.58,3.15-2.07,17.38-9.29,20.64-9.86,1.36-.24,2.78.16,4.14-.11ZM488.41,500.83v-11.25c0-2.82-3.21-10.6-4.79-13.21-4.11-6.78-9.28-8.12-15.17-12.33-4.94-3.54-9.17-10.38-15.43-11.06-3.61-.39-10.44.79-14.21,1.5-3.16.6-6.31,1.48-9.4,2.36,2.42,2.33,5.56,3.67,8.26,5.98,8.74,7.48,12.53,18.42,13.26,29.74.23,3.52-.42,7.63-.05,11.05.08.76.05,1.24.77,1.72l2.99-2.48c1.41.25,2.35,1.51,3.74,1.8,3.38.71,10.99-5.28,14.68-6.89,1.64-.72,3.35-.69,4.71-1.29.83-.36,1.43-1.42,1.89-1.61,1.76-.75-.07,1.98-1.39,2.62-1.09.53-2.73-.16-2.37,1.37l12.5,2ZM439.21,465.55c-3.41-3.36-12.21-9.68-17.04-9.25-1.34.12-4.02,1.51-5.36,2.17-5.77,2.82-12.46,8.45-19.14,8.4-2.14-.02-6.75-1.68-7.99-1.55-2.72.28-5.67,7.46-5.26,10.01.22.23,4.23-.63,4.71-.95.73-.5-.42-2.22,1.7-1.45,1.8,2.64,4.06,4.64,5.9,7.34,4.43,6.5,7.85,15.89,10.04,23.46.68,2.34,4.96,18.75,4.42,19.6-.29.46-1.41.66-1.77,1.25-.01.46,3.99,2.51,4.84,1.88l21.63-13.4c6.78-3.13,12.11.45,13.9-9.1,2.13-11.35-2.14-30.09-10.58-38.4ZM341.91,459.82c6.33,1.28,9.38,9.5,9.99,15.26.15,1.42-.57,6.36.8,6.68,6.73-1.33,13.61-2.07,20.31-3.59,1.4-.32,6.48-1.09,6.85-2.17.29-2.4-.62-5.31-2.42-6.95-2.59-2.35-11.89-3.18-16-4.5-1.94-.62-4.26-1.54-6.12-2.38-3.98-1.78-9.88-7.31-13.39-2.36ZM247.41,458.83l-17.75,2.49-10.74-.49c-.61,6.6-1.81,13.16-2.5,19.75-2.12,20.27-5.19,47.76,2.73,66.77,3.34,8.01,14.89,8.41,22.52,8.98,32.92,2.45,63.66-.45,95.56-8.43,24.72-6.19,49.32-14.95,72.72-24.9-3.11-16.6-7.2-34.3-18.14-47.56l-.65-.16c-9.41,1.86-18.69,4.19-28.14,5.92-15.32,2.8-30.94,4.35-46.23,7.27-9.91,1.9-20.42,3.86-28.13,10.87-5.53,5.03-10.63,16.42-20.54,12.54-5.55-2.17-.64-8.79-1.22-9.54-8.37,6.39-15.3,4.1-12.15-7.4,2.2-8.03,7.35-13.76,12.89-19.61s7.86-8.13,14.74-11.78c.67-.35,1.28.16,1.01-1.21-1.21.08-2.53-.17-3.72.03-2.34.39-19.89,9.3-21.9,10.96-2.91,2.4-4.46,5.59-8.44,7.7-6.38,3.39-16.74,3.59-13.42-6.42.87-2.61,8.01-10.16,10.16-13.34.31-.46,1.72-2.05,1.31-2.44ZM214.41,494.33l3.53-32.74c-.27-1.83-6.07-1.88-7.72-1.7-2.82.3-7.18,2.19-9.41,3.95-1.73,1.36-6.85,8.28-6.85,10.25,0,3.28,9.42,10.16,11.97,12.49,2.28,2.09,4.66,5.22,6.99,7.01.5.38.63.97,1.5.74ZM260.58,484.5c-2.31,2.85-7.61,15.95-4.95,18.86,3.44,3.76,10.44-1.15,13.04-4.01,1.85-2.03,3.1-5.23,4.97-7.53,2.62-3.19,10.54-10.63,14.07-12.43,1.59-.81,7.55-2.36,8.24-3.26,2.24-2.92-1.85-9.65-4.58-11.52-4.1-2.81-6.64-1.26-10.64.79-5.68,2.92-15.94,13.89-20.15,19.1ZM550.82,476.92c-6.64-2.86-15.4-7.16-22.67-7.59-5.04-.3-12.48,4.05-16.89,6.59-3.14,1.81-21.09,13.53-21.74,15.76l-.08,9.62c13.33,1.98,27.63,2.29,40.58,6.17,3.68,1.1,8.56,2.74,10.89,5.85-2.47-.56-4.55-2.43-6.86-3.39-18.24-7.56-41.96-4.69-60.81-10.97-4.24,1.08-10.35,7.44-14.54,6.84-1.56-.22-2.81-1.86-4.43-1.41-.73.2-1.18,1.23-1.89,1.67-.53.33-1.45.11-1.85.38-.24.16-.87,2.15-1.4,2.86-2.64,3.55-8.57,2.93-12.73,4.76-7.23,3.18-14.75,9.94-21.97,13.57l-7.17-2.18-23.83,9.13c.46.67,1.05.91,1.73,1.27,4.34,2.29,11.9,4.48,16.79,6.21,21.45,7.62,44.41,14.97,66.48,20.52,24.54,6.17,53.23,13.34,77.76,4.26,8.55-3.17,10.4-5.7,11.68-14.82,1.58-11.21,1.15-24.16.05-35.44-1.3-13.36-4.3-26.57-7.09-39.66ZM297.79,476.95c-1.66.1-9.68,3.26-11.25,4.25-5.95,3.79-13.47,12.54-16.71,18.79-2.2,4.24-6.72,10.8,1.32,11.35,8.63.59,13.16-10.3,19.32-14.72,1.84-1.33,5.82-3.75,7.85-4.65,3.21-1.42,7.86-.85,7.56-4.83-.35-4.54-2.5-10.53-8.08-10.2ZM569.76,489.97c-.46-.57-3.8-3.47-4.61-4.13-1.31-1.07-3.23-2.37-4.67-3.33-1.05-.7-7.46-4.8-8.06-4.18l4.51,23.49c1.32.9,13.2-7.15,13.5-9.26.12-.83-.13-1.92-.66-2.58Z"/>
  <path d="M333.78,111.95c16.87-2.71,22.44,24.68,4.33,26.83-20.84,2.46-17.97-24.64-4.33-26.83ZM340.97,118.6c0-2.67-2.16-4.83-4.83-4.83s-4.83,2.16-4.83,4.83,2.16,4.83,4.83,4.83,4.83-2.16,4.83-4.83Z"/>
  <path d="M422.28,113.45c17.68-2.83,20.26,23.9,6.26,26.26-20.15,3.4-20.53-23.97-6.26-26.26ZM426.26,116.98c-4.43-5.02-10.65,1.83-6.86,6.11,3.63,4.09,11.26-1.11,6.86-6.11Z"/>
  <path d="M403.41,154.83c1.3,1.28-6.93,5.56-7.23,6.01-.89,1.33-2.24,8.22-3.04,10.46-1.55,4.37-5.54,15.32-8.97,18.03-6.74,5.32-14.24-8.38-16.35-13.17-1.09-2.48-3.93-12.95-4.67-13.83-.4-.48-4.93-2.12-6.56-3.69-.37-.35-3.46-4.23-1.43-3.32,7.04,9.76,16.24,5.76,24.51.16,5.37,3.69,9.13,6.86,15.94,4.27,3.14-1.19,4.88-3.63,7.81-4.93ZM365.92,168.33c3.25-.91,6.1-3.17,9.47-3.78,5.79-1.05,12.14.75,16.78,4.23,1.15,0,2.12-5.56,2.75-6.7-.14-.98-3.19-.14-4.26-.24-4.67-.42-7.4-3-11.4-4.92-4.43,3.03-8.9,5.29-14.37,5.64l1.03,5.76ZM376.1,187.13c6.48,5.09,8.88.4,11.67-5.19.98-1.97,4.52-10.14,4.06-11.74-.42-1.46-5.46-3.59-7.01-4.02-6.28-1.75-12.35-.48-17.68,3.15-.92,1.44,2.67,8.75,3.58,10.44,1.19,2.22,3.44,5.84,5.38,7.36Z"/>
  <path d="M392.52,249.91c-.24.42-.1.94-.08,1.39l3.73,1.52.78,3.97,4.45-1.46,1.52,4.5,3.19-1.98,2.64,2.91,1.36.03.88-1.35,1.14-.12,3.02,2.52c.97-.66.55-1.97,1.26-2.76.62-.69,6.26-3.27,7.76-4.24,6.63-4.24,13.66-9.71,19-15.5,1.9-2.06,3.64-5.02,5.54-6.96.52-.53.72-1.27,1.7-1.05.45.45-2.99,4.61-3.51,5.23-5.42,6.52-12.79,12.93-19.83,17.67-2.12,1.43-8.23,4.29-9.42,5.58-.88.95-1.1,3.21-2.05,3.48-1.55.45-2.57-2.26-3.51-2.42-.85-.15-2,1.86-3.19,1.25l-3.25-2.67c-.69.11-1.08,1.83-2.89,1.3l-2.59-3.89c-1.07.79-2.47,1.37-3.78.73-.85-.57-.67-3.13-1.44-4.06s-3.36-.97-3.51-2.95c-.16-2.11,3.36-2.73,4.11-4.37.62-1.34.54-4.2,1.01-5.99,4.03-15.19,13.97-30.51,25.61-40.89.7.44.15,1.26-.27,1.73-1.02,1.15-3.2,2.56-4.5,4-8.6,9.54-16.26,22.87-19.75,35.25-.55,1.94-.42,4.91-1.33,6.67-.74,1.42-3.55,2.5-3.8,2.93Z"/>
  <path d="M386.16,139.83l.77,1.26-.25.76-5.99,3.49c-.38-.03-6.17-3.68-6.46-3.99-.5-.55-.34-.85-.33-1.53h12.25Z"/>
  <path d="M347.41,417.83h-.5v-37.75c0-.55-4.17-8.22-5.5-8.75.07,2.55,1.27,5.31,1.49,7.75.71,7.81.43,25.55-2.23,32.76-.57,1.54-2.03,4.12-4.16,2.88-1.44-.83-2.5-8.77-2.62-10.62-.36-5.63.29-28.93,4-32.54.81-.79,2.12-.64,2.52-1.72-10.08-5.61-18.3,2.25-21.74,11.51-4,10.79-3.31,24.07-1.28,35.26l28.52,5.23c-6.87-.33-14.36-.87-21.12-2.12-1.72-.32-8.01-1.54-8.63-2.87-.48-1.03-1.15-8.12-1.24-9.76-.6-10.32-.11-23.83,5.98-32.51,6.65-9.47,17.98-11.08,24.42-.4.39.64,2.09,4.03,2.09,4.41v39.25ZM339.17,371.83c-1.83.43-4.27,14.48-3.65,16.64.15.53.64,1.01,1.14,1.25,2.78.21,4.53-8.62,4.69-10.7.1-1.24-.31-7.63-2.18-7.19Z"/>
  <path d="M410.91,422.33v-2.5s1.74,1.51,1.74,1.51c6.59-.05,13.89-.4,20.37-1.66,1.17-.23,4.45-.76,4.81-1.69,1.69-11.63,2.77-23.72-.06-35.26-2.19-8.96-9.58-18.13-19.32-12.6,2.5,7.58,2.44,16.98,1.99,24.97-.14,2.44-1.31,13.82-3.35,14.65-.36.15-1.35.21-1.62.02-3.62-11.67-2.87-24.46-1.05-36.45-.84-.91-3.7,4.17-3.95,4.8-.51,1.3-.72,2.28-.55,3.7-3.24-.28-.91-3.43.1-5.15,3.96-6.72,10.63-11.51,18.67-8.37,12.08,4.7,12.29,26.55,11.75,37.29-.12,2.44-.82,11.08-1.65,12.85s-6.14,2.51-8.19,2.81c-6.41.93-13.22,1.06-19.69,1.07ZM417.9,371.33l-1.43.05c-.95.58-2.52,11.43-2.58,13.17-.05,1.25-.34,2.87.78,3.77,1.68.33,3.34-7.08,3.58-8.41.61-3.34.97-5.31-.35-8.59Z"/>
  <path d="M336.41,424.33c.22.94-.53,1.18-1,1.75-2.24,2.73-5.41,4.85-7.5,7.74,5.65-1.65,11.13-4.08,16.9-5.35,1.76-.39,6.09-1.82,7.1-.15-9.47,1.19-18.38,4.72-27.25,8.01l-.75-.75,9.5-9.25c-6.69,1.47-13.3,3.58-19.49,6.49-.01-1.86,2.48-2.28,3.87-2.87,5.77-2.45,12.57-3.96,18.62-5.62Z"/>
  <path d="M421.91,429.82c5.93-1.17,11.52-4.28,17.6-5.16.87-.12,1.15-.71,1.89.41l-21.99,7.25c-1.02-1.09,4.52-5.35,4.49-7-.61-.57-13.76,5.18-15.99,4.25l18.25-6.24c.81,0,.63.58.24,1.23-1.17,1.99-3.19,3.39-4.5,5.25Z"/>
  <path d="M402.41,444.83c.81.62,0,.91-.74,1-3.45.44-7.87-.19-11.5,0-5.24.27-10.73.86-15.93,1.57-7.24.98-14.68,2.34-21.32,5.43-.22-1.03.51-1.16,1.15-1.59,2.41-1.64,9.61-3.17,12.73-3.77,11.52-2.21,23.89-2.69,35.61-2.63Z"/>
  <path d="M375.91,421.33v13.25c0,.19,1.17,2.36-.75,1.25l-3.25-6.25c1.99-2.49,2.11-5.98,4-8.25Z"/>
  <path d="M313.41,446.84c.27,1.35-.54,1.17-1.53.78-3.89-1.52-7.03-7.88-12.46-7.03,5.54-3,9.22,5.02,14,6.26Z"/>
</svg>