<?xml version="1.0" encoding="UTF-8"?>
<svg id="katman_1" data-name="katman 1" xmlns="http://www.w3.org/2000/svg" viewBox="0 0 841.89 595.28">
  <path d="M465.81,351.75v60.98s1.62,1.61,1.62,1.61c48.54-22.87,99.63-43.56,151.28-58.51,38.19-11.05,78.45-20.35,118.38-20.54l-80.12,190.62-2.72,1.49-106.07-16.38,4.44,45.53-2.25,12.68c-2.2,1.64-5.15-5.5-5.41-7.2-2.33-15.6-1.7-33.55-2.27-49.34-.09-2.5-2.55-7.05-.04-8.88l104.95,13.91,4.42-1.17,72.57-171.29-1.23-2.27c-103.6,12.59-200.55,56.39-294.86,98.32l55.99,81.77-87.33,47.24c-1.18-7.25,11.18-9.22,14.84-14.26l-40.04-3.36c-30.27.31-60.52-2.08-89.8,6.96l-19.54,6.81c1.29-2.98,5.75-5.29,8.46-6.91,33.63-20.16,84.14-18.46,121.38-10.87,5.66,1.15,17.64,5.91,22.3,5.76,3.87-.13,8.66-5.02,12.43-6.28l-19.69-57.92-8.67,1.56c5.13-4.47,32.68-22.82,33.93-27.69.83-3.27-14.97-20.55-16.36-25.57l39.53-19.52c.4-4.34,1.93-8.5,2.25-12.86.86-11.92,1.26-35.63-.17-47.14-.19-1.52-1.01-6.08-2-6.78l-10.31-.67-1.83-3.09c1.24-1.72,36.36-1.76,42.27-2.22,25.89-2.01,55.67-5.82,81.02-11.24,9.04-1.93,28.67-6.26,36.49-9.63,1.02-.44,2.29-.29,2.69-1.78,2.06-6.21-16.53-31.33-21.32-36.66s-23.25-22.3-29.78-23.03c-24.92,3.09-50.03,6.92-74.28,13.45-20.71,5.58-40.31,14.84-61.24,19.47l5.45-7.06c-24.3-24.08-57.29-43.2-90.88-50.84-54.27-12.34-121.7.02-163.91,37.57-7.65,6.81-23.84,26.81-27.68,36.02-.58,1.38-1.16,2.5-.87,4.08,6.08-1.23,12.78,5.44,15.61,10.21,10.12,17.09,2.59,51.99-13.48,63.85-3.98,2.93-7.92,3.4-12.01,5.59,10.06,28.2,32.04,49.65,52.82,70.17l27.36,14.91c-17.81-5.7-34.55-15.08-51.97-22.15-7.67-3.11-20.03-3.89-22.73-11.88l-1.6.02c-7.84,13.25-20.19-6.92-20.39,13.11l-14.23,1.16-.13,13.05-5.46,1.91,2.37,9.58-6.54,5.44c10.2,19.59,18.78,39.35,31.47,57.56,4.71,6.76,11.36,12.45,14.52,20.07l-10.44-9.86c-15.95-17-23.36-40.53-34.8-59.65-1.58-2.64-7.12-8.19-7.44-9.04-.82-2.14,6.86-4.39,7.54-6.73l-2.15-10.73c10.19-1.75,5.4-8.47,7.15-16.08l13.36-2.02,4.25-12.03c3.87.91,10.39,5.17,14.09,4.28.82-.2,3.96-7.18,7.75-6.47,2.5.47,5.33,7.57,8.45,9.11l25.21,9.38c-4.57-4.92-9.03-10.03-13.56-14.98-44.67-48.95-49.17-96.02-10.85-151.65,29.35-42.6,79.6-61.88,129.93-66.67,17.65-57.62,40.92-114.77,77.47-163.07,11.27-14.89,26.28-32.23,41.17-43.4,8.23-6.18,21.81-17.72,28.32-4.35,7.73,15.87-2.16,75-6.74,94.03-10.84,44.95-31.91,88.66-61.75,123.88-.75,1.11-.91,2.18-.08,3.34.58.82,15.64,6.34,18.58,7.79,22.01,10.81,41.01,25.43,58.52,42.45,32.78-12.98,67.12-24.04,102.14-29.29,42.65-6.4,100.2-5.84,141.71,6.28,8.79,2.57,29.63,9.52,20.76,22.2-12.22,17.47-58.93,36.86-79.45,43.55-48.16,15.68-100.17,21.57-150.71,22.28ZM406.47,109.07c-26.18-6.94-54.32-2.95-78.77,7.93-11.11,20.64-21.54,41.74-30.44,63.46-2.16,5.28-17.68,44.35-15.96,46.09,17.71-.65,34.53.23,51.9,3.57,3.55.69,8.74,4.4,12.39,2.02,1.75-1.14,8.59-9.48,10.35-11.68,16.65-20.71,30.98-49.16,40.09-74.13,1.68-4.59,11.86-35.67,10.44-37.26ZM139.29,321.18c-3.21.96-7.96,15.92-8.97,19.64-3.74,13.71-6.14,32.52-1.16,46.1,3.17,8.64,14.84-3.03,17.95-7.34,6.7-9.28,11.45-26.74,9.81-37.99-1.08-7.43-8.05-23.26-17.63-20.41ZM438.18,469.5h-2.95c-.83,6.95-22,15.58-22.12,18.93l20.4,55.61,39.78-23.67-35.11-50.87Z"/>
  <path d="M380.38,367.28c0,18.27-14.81,33.08-33.08,33.08s-33.08-14.81-33.08-33.08,14.81-33.08,33.08-33.08,33.08,14.81,33.08,33.08ZM368.19,353.63c0-8.53-6.91-15.44-15.44-15.44s-15.44,6.91-15.44,15.44,6.91,15.44,15.44,15.44,15.44-6.91,15.44-15.44Z"/>
  <path d="M177.29,334.95c-10.02-10.63-2.16-33.09,8.21-41.4,33.86-27.13,44.96,21.95,18.18,40.45-6.89,4.76-20.11,7.61-26.39.94ZM200.8,290.48c-11.47,2.59-10.44,27.05,7.18,22.55,11.46-2.93,8.53-26.1-7.18-22.55Z"/>
  <path d="M389.31,450.32c0,21.37-17.33,38.7-38.7,38.7s-38.7-17.33-38.7-38.7,17.33-38.7,38.7-38.7,38.7,17.33,38.7,38.7ZM384.09,450.27c0-18.55-15.04-33.59-33.59-33.59s-33.59,15.04-33.59,33.59,15.04,33.59,33.59,33.59,33.59-15.04,33.59-33.59Z"/>
  <path d="M279.1,393.51c-12,11.56-23.85,6.73-35.4-2.25-6.5-5.06-9.6-12.28-18.97-13.14-10.03-.92-25.47,6.07-29.1-8.78,8.4,9.48,18.6,3.97,29.14,4.34,18.14.65,25.32,25.16,42.69,23.02,3.94-.48,7.52-3.3,11.63-3.19Z"/>
  <path d="M237.36,357.27v3.26c-10.36,3.1-12.3-7.33,0-3.26Z"/>
</svg>