<?xml version="1.0" encoding="UTF-8"?>
<svg id="katman_1" data-name="katman 1" xmlns="http://www.w3.org/2000/svg" viewBox="0 0 841.89 595.28">
  <path d="M464.22,49.89c14.86,14.78,23.67,35.26,25.66,56.08,10.95,5.06,21.7,10.52,31.92,16.93,3.28,2.05,9.03,7.78,12.69,7.36,7.13-.81,17.78-4.93,25.45-6.5,31.88-6.52,71.33-10.56,103.53-5.5,4.1.64,11.73,2.03,15.35,3.64,3.63,1.61,3.87,7.81,4.1,11.5,2.5,38.77-21.44,95.8-44.25,126.77-4.31,5.86-9.58,11.01-13.43,17.13,1.09,10.22,3.83,20.24,4.73,30.49,3.47,39.92-5.5,82.3-24.18,117.59-6.23,11.78-13.66,23.12-22.62,33.01-.27.85.17,1.36,1,1,.65-.28,4.18-3.92,5.83-5.02,3.69-2.45,10.62-4.69,13.11-6.56,1.57-1.18,2.56-6.13,6.17-8.76,3.18-2.31,4.85-1.4,7.63-2.55,2.29-.94,6.78-6.34,10.77-8.23,9.11-4.32,26.55-5.34,20.61,9.4,11.68,2.85,19.8,14.44,17.34,26.51-.52,2.57-3.65,6.37-3.78,7.8-.13,1.36,2.64,8.08,3.1,10.44,6.69,34.56-19.71,64.82-54.97,61.76-32.33-2.8-51.36-37.25-38.92-66.71l7.03-12.64c-12.94,14.55-27.66,26.75-43.73,37.72-.31,1.47,13.73,12.49,15.84,14.58,18.9,18.76,36.67,51-.27,62-40.91,12.18-101.94-12.2-131.34-41.56-15.69,1.24-31.64.64-47.26-1.42-28.45,20.64-68.71,34.74-103.95,36.53-15.33.78-52.57-.4-53.11-22.04-.56-22.59,32.91-44.07,50.05-54.27-39.17-27.4-68.97-66.45-81.74-112.94-27.27-16.18-60.5-44.66-17.43-67.65,1.73-.92,7.37-2.54,7.85-3.77-1.2-40.12,8.83-80.32,28.8-114.97-11.78-44.88-7.81-95.37,7.58-138.92,2.08-5.9,12.13-31,16.99-33.21,2.8-1.27,14.91,2.14,18.45,3.23,22.85,7,45.33,20.49,64.56,34.38,35.98-45.85,112.5-54.73,154.85-12.62ZM407.47,193.13c.4,3.75-.29,8.05,0,11.87l10.62-7.7c7.35-8.25,13.15-18.14,12.45-29.61,1.63-.53,1.9,1.64,2.23,2.84,3.42,12.21-3.62,25.23-13.15,32.72-3.18,2.5-12.39,6.2-13.83,7.88-1.91,2.23-4,8.69-7.16,12.51-25.39,30.64-73.97,17.93-96.3-10.17-19.33-24.33-24.44-57.51-15.62-87.15-2.13-1.99-26.39,15.84-29.49,18.33-48.86,39.29-76.89,101.94-74.98,164.83,8.35-.69,16.54-1.97,23.07,4.4-.57,1.31-10.75,1.4-13.14,1.78-9.47,1.49-22.66,6.74-30.48,12.26-7.13,5.03-11.12,8.95-6.59,17.87,6.05,11.92,24.18,24.96,36.32,30.17,8.17,3.5,18.03,6.49,26.79,4.07,1.1,1.1-7.29,8.25-9.42,7.53l-.07,2.64-14.24-2.71c22.17,73.29,89.19,120.99,162.11,136.04,62.45,12.89,136.43-.73,187.19-40.12,55.02-42.69,85.07-114.78,75.28-184.36-.25-1.78-1.86-11.98-2.27-12.65-.45-.74-1.03-.82-1.76-.38-5.24,2.69-12.51,8.95-17.95,10.56-.95.28-1.2-.07-1-1,14.63-16.93,30.35-33.68,42.34-52.64,12.16-19.24,22.18-42.1,28.16-64.1,4.22-15.54,7.5-32.38,6.52-48.48-1.08-1.65-21.17-3.79-24.45-4.04-30.41-2.33-63.6,2.02-93.28,8.46-16.5,3.58-32.74,8.21-48.83,13.23.91-7.83,8.64-9.66,14.23-13.23.03-1.88-29.74-18.86-31.19-17.3-1.51,27.02-17.76,54.1-44.78,61.73,14.49-11.93,26.43-26.24,31.69-44.62,18.76-65.57-41.75-112.3-103.62-99.55-35.27,7.27-66.57,34.58-74.59,70.24,7.93-8.97,15.91-18.08,27.62-22.23.67-.24,3.54-1.67,3.57-.16-40.7,28.43-50.27,91.33-15.62,128.58,16.7,17.95,46.48,26.79,68.48,13.5,32.86-19.85,10.15-71.51-19.93-60.63-17.16,6.21-12.47,31.89,6.75,29.82,3.88-.42,9.82-3.72,10.47-7.84.09-.6-.38-8.1,1.39-5.73,3.52,19.45-20.04,25.68-31.09,11.08-12.68-16.76,4.17-36.45,23.28-34.81,16.65,1.43,32.55,20.16,34.26,36.29ZM302.87,70.13c-18.29-13.26-39.62-25.72-61.24-32.71-2.54-.82-9.68-3.58-11.55-2-1.23,1.04-4.28,7.76-5.21,9.71-17.24,36.1-23.31,85.99-18.79,125.54.75,6.53,2.82,12.86,3.31,19.42l12.87-17.32c-6.7-36.97-7.55-79.1,6.1-114.64,3.09-8.05,2.96-8.48,10.64-4.52,20.2,10.44,39.09,29.91,51.11,48.96l12.75-32.44ZM639.48,441.08c1.65-2.56,8.62-9.03,2.91-10.71-4.59-1.35-11.58,1.37-15.48,3.91-2.43,1.58-6.56,6.63-7.81,7.17-1.4.6-2.62-.5-4.21-.26-1.87.28-5.83,2.97-5.26,5.32,17.08-2.56,33.04,2.73,44.79,15.25,1.17,1.24,3.83,6.42,5.4,5.11.2-.17,1.23-4.52,1.31-5.14,1.42-11.43-10.12-22.73-21.65-20.64ZM657.79,507.57c14.06-46.42-43.77-76.47-73.93-39l23.33,11.81c13.11-21.27,45.61-12.48,43.09,13.23-.15,1.52-1.55,3.35-1.2,4.67.16.62,7.8,10.15,8.72,9.29ZM644.62,490.82c0-9.12-7.4-16.52-16.52-16.52s-16.52,7.4-16.52,16.52,7.4,16.52,16.52,16.52,16.52-7.4,16.52-16.52ZM604.71,492.13l-25.59-12.06-2.73-.32c-.94,4.84-2.57,9.57-2.74,14.56-1.13,33.62,33.52,54.14,62.89,38.47,2.97-1.58,14.44-9.66,13.53-13.01-.32-1.18-7.32-10.59-8.21-10.66-13.86,8.65-29.66,4.07-35.66-11.35-.62-1.58-.58-4.66-1.49-5.64ZM357.27,533.35c-29.69-4.38-57.55-16.66-83.64-31.05-12.71,7.04-25.68,14.7-36.11,24.92-6.57,6.44-20.63,22.35-8.68,29.74,16.71,10.33,55.52,4.62,74.16-.21,13.29-3.44,42.97-13.71,53.41-21.85.56-.44,1.24.01.85-1.55ZM432.57,536.75c-.65.88,9.76,7.67,10.91,8.41,26.43,17.21,66.07,31.12,97.77,25.98,34.14-5.54,18.42-30.09,2.59-46.29-2.69-2.76-17.33-15.67-20.09-15.93-2.04-.19-11.42,5.41-14.28,6.7-24.36,10.97-50.35,17.79-76.9,21.13Z"/>
  <path d="M613.78,62.07c0,23.29-18.88,42.17-42.17,42.17s-42.17-18.88-42.17-42.17,18.88-42.17,42.17-42.17,42.17,18.88,42.17,42.17ZM602.14,44.87c1.58-2.26-8.2-10.94-10.33-12.34-24.61-16.13-56.41,1.07-56.03,30.25.33,1.11,1.25,1.07,2.27,1.17,2.92.28,7.4-1.61,10.77-.7,4.72-12.76,18.84-13.98,28.46-5.56l24.85-12.83ZM537.72,73.4c2.51,9.09,11.65,18.6,20.37,22.03,24.96,9.81,52.3-10.56,49.5-37.29-.6-5.74-1.76-4.2-5.88-2.5-7.09,2.93-13.93,7.59-21.14,10.4,2.65,21.01-25.55,27.41-32,7.35h-10.85ZM561.28,57.95c-12.93,2.72-9.4,24.41,5.11,22.07,13.71-2.22,10.51-25.35-5.11-22.07ZM548.58,67.97h-12.21c.5,3.75,10.13,2.17,12.21,0Z"/>
  <path d="M210.79,467.94c0,15.14-12.27,27.41-27.41,27.41s-27.41-12.27-27.41-27.41,12.27-27.41,27.41-27.41,27.41,12.27,27.41,27.41ZM171.96,467.45c1.57-4.35,6.41-8.15,11.13-7.89,2.34.13,6.12,2.81,7.49,2.45,1.03-.27,9.44-7.26,9.25-8.29-7.87-10.29-24.97-9.66-33.17-.08-1.51,1.76-6.32,9.04-4.09,10.85l9.4,2.96ZM202.59,457.37c-.67-.71-11.06,6.9-10.17,9.49.35.45,8.69-6.26,9.16-6.77.85-.92,1.25-1.33,1-2.72ZM203.72,462.88c-.53.05-8.32,5.88-8.63,6.31-1.07,1.51-.35,3.12-.79,4.64-2.51,8.72-13.06,12.78-19.79,5.86-1.49-1.54-2.02-4.27-4.31-5.19-1.17-.47-8.18-2.16-8.29-.52,4.49,11.48,16.07,18.63,28.25,14.7,7.52-2.42,14.27-10.12,15.16-18.09.19-1.71.67-7.93-1.6-7.72ZM190.29,471.5c0-4.17-3.38-7.55-7.55-7.55s-7.55,3.38-7.55,7.55,3.38,7.55,7.55,7.55,7.55-3.38,7.55-7.55Z"/>
  <path d="M179.16,189.98c0,8.58-6.96,15.54-15.54,15.54s-15.54-6.96-15.54-15.54,6.96-15.54,15.54-15.54,15.54,6.96,15.54,15.54ZM173.65,189.91c0-5.52-4.48-10-10-10s-10,4.48-10,10,4.48,10,10,10,10-4.48,10-10Z"/>
  <path d="M672.87,307.28c0,6.2-5.03,11.23-11.23,11.23s-11.23-5.03-11.23-11.23,5.03-11.23,11.23-11.23,11.23,5.03,11.23,11.23ZM668.19,307.22c0-3.58-2.91-6.49-6.49-6.49s-6.49,2.91-6.49,6.49,2.91,6.49,6.49,6.49,6.49-2.91,6.49-6.49Z"/>
  <path d="M171.73,401.72c0,5.58-4.52,10.1-10.1,10.1s-10.1-4.52-10.1-10.1,4.52-10.1,10.1-10.1,10.1,4.52,10.1,10.1ZM167.27,401.64c0-3.12-2.53-5.66-5.66-5.66s-5.66,2.53-5.66,5.66,2.53,5.66,5.66,5.66,5.66-2.53,5.66-5.66Z"/>
  <path d="M647.44,339.49c13.78-2.55,16.39,15.66,5.12,18-14.25,2.95-15.19-16.13-5.12-18ZM655.37,348.57c0-2.96-2.4-5.35-5.35-5.35s-5.35,2.4-5.35,5.35,2.4,5.35,5.35,5.35,5.35-2.4,5.35-5.35Z"/>
  <path d="M149,244.35c-3.43-1.69-2.5-7.57.06-9.78,5.36-4.64,14.41-.59,15.4,6.23.39,2.71-.84,8.68-4.25,8.35-3.48-.33.43-4.37.36-7.14-.24-9.55-14.97-7.32-11.57,2.34Z"/>
  <path d="M232.36,498.89c0,3.76-3.05,6.81-6.81,6.81s-6.81-3.05-6.81-6.81,3.05-6.81,6.81-6.81,6.81,3.05,6.81,6.81ZM228.21,501.97c1.91-1.92,1.28-6.28-2.28-6.61-7.4-.7-2.33,11.25,2.28,6.61Z"/>
  <path d="M650.24,398.68c0,3.57-2.89,6.46-6.46,6.46s-6.46-2.89-6.46-6.46,2.89-6.46,6.46-6.46,6.46,2.89,6.46,6.46ZM640.99,396.45c-2.25,3.91,4.23,8.86,5.83,3.44,1.27-4.3-4.16-6.33-5.83-3.44Z"/>
  <path d="M180.15,151.62c0,3.61-2.93,6.54-6.54,6.54s-6.54-2.93-6.54-6.54,2.93-6.54,6.54-6.54,6.54,2.93,6.54,6.54ZM170.88,148.86c-3.65,3.63,4.47,9.92,6.35,3.25.91-3.24-4.03-5.56-6.35-3.25Z"/>
  <path d="M488.71,49.77c6.5-1.06,10.02,9.05,2.71,12.26-7.68,3.37-11.72-10.79-2.71-12.26ZM491.49,53.15c-2.96-.69-5.37.12-5.23,3.49,1.05,2.05,2.94,3.04,5.24,2.43.98-1.96,1.01-3.96-.01-5.91Z"/>
  <circle cx="162.46" cy="253.73" r="1.95"/>
  <path d="M654.24,146.83c1.45,1.42.12,5.29-.29,7.18-2.78,12.9-8.24,27.22-13.67,39.24-11.91,26.36-29.1,50.9-48.62,72.12-.95,0-4.93-14.4-5.75-16.62-7.84-21.21-21.57-42.15-37.99-57.66-1.28-1.2-8.31-6.19-8.1-7.36,24.15-19.88,58.29-32.11,89.24-36.31,4.02-.55,23.11-2.63,25.19-.59Z"/>
  <path d="M493.9,300.74c0,37.31-30.25,67.56-67.56,67.56s-67.56-30.25-67.56-67.56,30.25-67.56,67.56-67.56,67.56,30.25,67.56,67.56ZM489.25,300.72c0-34.75-28.17-62.93-62.93-62.93s-62.93,28.17-62.93,62.93,28.17,62.93,62.93,62.93,62.93-28.17,62.93-62.93Z"/>
  <path d="M505.29,386.03c.87.91,3.86-.08,3.26,2.14-12.14-.09-24.22-3.08-36.3-4.06-9.9-.81-30.29-1.02-38.8,3.93-5.88,3.42-4.54,8.25-2.56,13.69,6.05,16.65,27.05,33.7,43.07,40.37,17.28,7.2,43.49,10.63,58.32-3.04-3.06,6.89-9.38,11.93-16.29,14.57-31.36,11.94-76.64-13.42-91.24-41.69-18.02-34.9,25.91-37.48,48.85-35.28,4.94.47,29.79,4.72,31.82,8.13.19.32-.25,1.14-.14,1.25Z"/>
  <path d="M219.16,219.54c21.57-23.94,59.04-28.22,78.97.17,31.27,44.54-12.58,123.65-66.61,99.85-39.25-17.29-38.16-71.37-12.36-100.01ZM258.09,204.53c-50.67,3.11-73.54,81.24-29.66,107.94,38.02,23.13,74.36-16.96,75.92-54.22,1.15-27.54-16.04-55.57-46.26-53.72Z"/>
  <path d="M324.03,163.28c.19-1.49,1.8-6.84,2.39-8.47,13.5-37.08,69.74-39.31,78.35,1.67-1.23,1.45-1.04.21-1.43-.62-4.05-8.77-8.48-14.67-17.13-19.5-29.89-16.69-60.86,9.79-60.84,40.81-.69.29-1.35-1.58-1.35-1.69,0-3.71-.44-8.72,0-12.21Z"/>
  <path d="M316.48,330.6c4.42,8.66,13.26,11.31,20.11,3.3,1.57-1.83,4.35-8.13,5.06-8.51,4.94-2.65,1.45,6.87.15,8.97-6.34,10.27-19.72,11.98-26.92,1.68-9.43,7.11-20.25-.55-20.65-11.41-.07-1.88.56-7.04,3-7.04,2.58,0,.83,4.23,1.01,6.46.24,3.03,2.33,8.3,5.19,9.75,6.79,3.46,10.98-4.4,13.05-3.21Z"/>
  <path d="M639.67,490.64c0,5.65-4.58,10.24-10.24,10.24s-10.24-4.58-10.24-10.24,4.58-10.24,10.24-10.24,10.24,4.58,10.24,10.24ZM628.47,482.6c-12.17,1.67-6.04,20.26,4.41,15.31,7.63-3.61,5.28-16.64-4.41-15.31Z"/>
  <path d="M571.19,69.23c0,3.9-3.16,7.07-7.07,7.07s-7.07-3.16-7.07-7.07,3.16-7.07,7.07-7.07,7.07,3.16,7.07,7.07ZM562.63,64.02c-5.96,1.74-3.5,11.71,2.4,10.63,6.76-1.23,4.27-12.58-2.4-10.63Z"/>
  <path d="M186.83,475.52c-9.91,5.37-12.71-9.92-3.61-9.32,4.23.28,5.64,6.07,3.61,9.32ZM186.1,471.72c0-1.87-1.52-3.39-3.39-3.39s-3.39,1.52-3.39,3.39,1.52,3.39,3.39,3.39,3.39-1.52,3.39-3.39Z"/>
  <path d="M471.47,298.08c0,27.33-22.15,49.48-49.48,49.48s-49.48-22.15-49.48-49.48,22.15-49.48,49.48-49.48,49.48,22.15,49.48,49.48ZM398.21,264.26c-13.56,14.07-3.59,35.96,15.7,34.35,15.2-1.27,26.55-16.68,19.68-31.21-6.23-13.18-26.17-12.71-35.38-3.14ZM452.69,329.59c1.77-1.53,4.85-6.13,5.48-8.42,4.7-17.19-19.95-23.07-27.32-7.65-7.22,15.12,10.25,26.13,21.84,16.07Z"/>
  <path d="M289.05,225.05c20.92,21.17,10.47,61.93-14.77,75.04-35.54,18.47-67.07-12.74-56.95-49.49,8.51-30.91,46.6-50.98,71.72-25.56ZM257.38,220.78c-23.33,3.39-23.27,42.1,7.12,36.97,6.17-1.04,14.28-9.03,15.25-15.28,2.36-15.31-7.41-23.87-22.37-21.69ZM278.4,266.9c-13.2,2.29-13.54,23.31.52,22.95,14.64-.37,18.24-26.21-.52-22.95Z"/>
</svg>