<?xml version="1.0" encoding="UTF-8"?>
<svg id="katman_1" data-name="katman 1" xmlns="http://www.w3.org/2000/svg" viewBox="0 0 841.89 595.28">
  <path d="M318.08,232.11c-.05.39-1.45,1.32-1.02,2.55,1.5.33,1.65-.15,2.5-1.07,4.64-5.06,9.68-19.56,13.59-26.24,1.82-3.11,5.33.6,7.42,2.27,14.82,11.82,27.78,26.33,42.82,37.88l22.53-12.88c1.45-2.07-6.15-10.36-7.67-12.24l-.02-2.01,56.27-64.37,31.03,46.34-42.78,25.17c22.26.19,41.68,12.08,54.66,29.62l6.64-34.21,1.67-2.42,51.87-.07,1.66-8.23,50.41-.05,13.45,72.57c18.13-13.95,43.22-15.96,63.86-6.12v-8.16s-11.23-2.05-11.23-2.05v-41.9l74.34,16.09c4.79,1.34,5.33,25.81,7.92,25.78,3-3.26,3.77-21.51,7.25-22.3l63.77,15.17-63.33,188.59-46.85-15.05-1.19-19.25-44.83-6.27,1.9-23.35c-11.91,3.54-22.99,7.53-35.76,6.13l3.06,22.48-68.31-11.39-3.22-28.47-3.07.71-7.66,14.6-13.88-26.48-2.98-.07-2.54,18.41-1.17.94-59.65-9.13,4.09-28.61c-5.24,2.31-10.26,5.3-15.64,7.34-9.39,3.56-20.27,6.26-30.34,6.96v53.14l-113.43-54.16v48.03l-54.15,8.18-2.57-24.54c-22.4,20.06-57.61,28.35-82.74,8.16-12.65-10.16-20.22-26.18-20.76-42.38-.03-.95,2.35-7.92-.7-6.63l-11.55,10.5,19.13,75.7-57.03,17.9-61.55-137.2c-.64-.97-.89-1.69-2.27-1.54-2.18.23-11.29,7.36-13.81,5.89L.26,258.66c-.02-1.65,1.18-2.08,2.13-2.98,6.1-5.8,29.54-17.39,38.07-21.19,44.43-19.82,119.64-30.32,148.21,19.73,7.93,13.9,8.77,27.12,6.79,42.77,4.58-1.96,8.35-4.92,13.01-6.91,16.03-6.85,32.95-7.22,49.31-1.27l-1.02-19.42-13.28,2.05-1.87-40.71,76.46-24.69c-.71,8.27.96,17.97,0,26.06ZM453.85,177.59c-1.29-.74-3.1.24-4.03,1.32l-30.01,36.41c-2.57,2.7-.76,4.27.62,6.94l47.42-22.29c.95-1,.08-1.86-.36-2.8-.75-1.64-12.61-18.98-13.64-19.57ZM599.03,226.54l-26.51-.05-9.71,53.11-8.86-44.76c-1.65-.97-3.53-1.11-5.4-1.25-6.86-.51-21.13-.81-27.69-.01-1.13.14-2.27-.05-3.02,1.07l-11.77,65.89c-2.2,8.45,6.66,8.9,9.27,15.36l-14.24,15.64-5.14,29.2c.52,1.76,9.74,2.98,11.97,3.4,3.03.56,22.59,3.88,23.59,3.23l8.81-51.98,20.97,43.93c.62.46,2.37-1.95,2.82-2.79,4.46-8.44,6.63-20.86,11.24-29.65.71-1.35.94-2.57,1.78-.28l9.88,64.2,37.62,5.3c1.39-9.9-7.24-10.89-13.3-15.83-20.65-16.85-23.57-45.46-12.43-68.65,2.17-4.52,10.2-13.61,10.49-17.19l-10.36-67.9ZM310.92,392.54v-56.71l112.4,54.16v-30.66c-22.21-1.38-41.84-14.24-53.2-33.15l-42.86-16.93c-.42-1.54.41-1.69,1-2.56,1.78-2.58,8.1-8.93,10.73-11.75,3.89-4.17,34.2-33.79,34-36.28l-32.96-31.13-34.22,46.98-3.22-45.32-1.97-1.28-43.29,12.97c-2.55,1.31-2.14,10.69-.66,11.75,3.3,2.35,11.69-4.51,13.2.08l3.43,45.61c15.29,18.4,20.27,38.01,12.78,61.24-1.34,4.14-5.22,10.16-5.78,13.64-1.12,6.99,1.78,15,1.17,22.21.41,1.02,1.11,2.17,2.3,2.35,1.37.22,18.35-2.41,21.23-2.93,1.45-.26,5.45-.92,5.9-2.28ZM135.38,351.36c30.03-17.99,62.5-60.84,36.55-94.7-24.8-32.37-77.96-25.73-111.89-13.84-13.76,4.82-26.24,12.12-39.26,18.49-1.86,2.58,19.82,34.01,21.54,39.64,2.42,1.41,13.12-7.5,17.09-5.87l62.42,139.43c2.87,2.01,26.84-7.9,31.72-8.77l-18.18-74.38ZM475.01,270c2.48-2.77,4.68-5.83,7.56-8.26-36.32-44.02-119.39-9.78-102.65,49.53,5.26,18.65,24.18,31.73,43.01,33.62,24.75,2.48,55.68-9.16,71.73-28l-22.32-20.44c-3.63-1.91-4.24,2.36-6.22,4.01-8.01,6.68-18.78,12.46-29.53,10.33,12.42-13.9,25.99-26.93,38.4-40.8ZM756.44,330.72l-17.83-76.67-49.59-10.18c1.51,4.93-3.57,12.16,1.43,14.4,2.63,1.18,7.71.21,8.64,3.7l-1.69,24.1c26.55,26.98,17.09,67.04-9.19,90.34l-1.25,21.75,26.32,3.88,1.79-.8,13.79-69.5,2.01,92.31c3.52,1.5,25.96,9.11,27.56,7.75l52.26-160.75-37.84-8.76-16.4,68.43ZM492.81,292.9l3.06-21.45c-8.53,7.85-19.87,14.46-3.06,21.45ZM658.15,285.02c-34.8,2.44-66.6,43.2-47,76.04,26,43.55,100.51,2.89,88.64-46.74-4.52-18.89-22.57-30.63-41.64-29.3ZM365.08,309.25l-2.55-18.36-12.77,13.25,15.32,5.11ZM228.95,296.26c-35.18,3.88-66.84,49.94-44.55,81.79,20.15,28.79,60.66,19.02,79.94-5.52,25.72-32.72,9.95-81.27-35.4-76.27Z"/>
  <path d="M128.03,331.73l-15.33-51.65c.06-2.22,3.27-3.31,5.12-3.99,23.26-8.57,43.97,8.07,34.9,32.86-3.55,9.7-15.21,19.7-24.69,22.79ZM134.15,313.35c9.74-3.33,13.47-21.45,3.33-26.33-2.4-1.16-11.73-2.81-11.12.86l7.79,25.48Z"/>
  <path d="M447.42,275.1l-30.23,33.7c-3.2,1.64-9.54-9.08-10.53-12-9.19-27,23.88-47.96,44.21-27.78l-3.44,6.08ZM429.19,270.67c-11.22,1.92-18.14,13.95-12.49,24.27l19.76-21.11c1.17-4.3-4.61-3.62-7.28-3.16Z"/>
  <path d="M232.24,307.22c-.08,3.08-3.8,3.29-5.97,5.78-15.91,18.27,25.2,33.42,27.44,7.5,2.32.87,2.83,4.46,3.05,6.64,2.7,26.26-32.77,35.63-45.81,15.17-10.45-16.4,3.19-35.05,21.29-35.08Z"/>
  <path d="M658.35,294.96c-1.18,2.36-5.19,2.97-7.07,4.67-12.11,10.98,4.62,29.54,19.69,20.71,4.36-2.55,5.49-6.78,7.3-11.08,11.62,24.95-23.06,42.41-41.02,24.16-15.77-16.04-.3-41.34,21.09-38.46Z"/>
</svg>