<?xml version="1.0" encoding="utf-8"?>
<!-- Generator: Adobe Illustrator 22.0.1, SVG Export Plug-In . SVG Version: 6.00 Build 0)  -->
<!DOCTYPE svg PUBLIC "-//W3C//DTD SVG 1.1//EN" "http://www.w3.org/Graphics/SVG/1.1/DTD/svg11.dtd" [
	<!ENTITY ns_extend "http://ns.adobe.com/Extensibility/1.0/">
	<!ENTITY ns_ai "http://ns.adobe.com/AdobeIllustrator/10.0/">
	<!ENTITY ns_graphs "http://ns.adobe.com/Graphs/1.0/">
	<!ENTITY ns_vars "http://ns.adobe.com/Variables/1.0/">
	<!ENTITY ns_imrep "http://ns.adobe.com/ImageReplacement/1.0/">
	<!ENTITY ns_sfw "http://ns.adobe.com/SaveForWeb/1.0/">
	<!ENTITY ns_custom "http://ns.adobe.com/GenericCustomNamespace/1.0/">
	<!ENTITY ns_adobe_xpath "http://ns.adobe.com/XPath/1.0/">
]>
<svg version="1.1" xmlns:x="&ns_extend;" xmlns:i="&ns_ai;" xmlns:graph="&ns_graphs;"
	 xmlns="http://www.w3.org/2000/svg" xmlns:xlink="http://www.w3.org/1999/xlink" x="0px" y="0px" viewBox="0 0 965.404 1113.535"
	 style="enable-background:new 0 0 965.404 1113.535;" xml:space="preserve">
<style type="text/css">
	.st0{fill:#E95328;}
</style>
<switch>
	<foreignObject requiredExtensions="&ns_ai;" x="0" y="0" width="1" height="1">
		<i:pgfRef  xlink:href="#adobe_illustrator_pgf">
		</i:pgfRef>
	</foreignObject>
	<g i:extraneous="self">
		<g id="Layer_1">
			<g>
				<path d="M379.772,0c85.826,0.832,158.657,16.959,224.439,57.837c22.41,13.926,42.637,31.348,63.99,46.996
					c21.484,15.744,42.702,31.91,64.841,46.684c16.852,11.246,35.782,18.408,56.032,21.544c29.984,4.644,56.383-4.317,80.361-21.567
					c25.478-18.33,43.431-42.41,53.743-72.199c1.398-4.038,4.018-8.089,7.134-10.996c4.884-4.556,10.886-3.425,14.374,2.363
					c2.202,3.653,3.701,7.821,4.981,11.924c17.314,55.502,20.068,111.793,9.602,168.943c-7.427,40.551-19.849,79.162-42.308,114.032
					c-22.293,34.611-50.572,62.708-88.978,79.234c-33.349,14.351-67.834,16.877-103.296,9.615
					c-40.308-8.255-77.679-24.573-115.082-40.953c-16.608-7.273-33.255-14.689-51.523-17.058
					c-39.345-5.102-71.699,20.789-76.957,56.996c-5.585,38.456,6.378,70.035,39.92,91.802c14.858,9.642,31.352,15.324,48.448,19.45
					c29.671,7.161,59.864,9.258,90.269,9.35c3.494,0.011,6.989,0.303,10.481,0.518c5.395,0.331,9.866,2.357,11.699,7.78
					c1.917,5.673,0.743,10.983-3.634,15.159c-2.263,2.159-4.95,3.951-7.655,5.555c-31.247,18.524-58.325,42.044-82.429,69.052
					c-53.553,60.004-88.091,130.09-109.596,207.093c-15.656,56.062-21.403,113.494-24.253,171.358
					c-0.738,14.978-1.571,29.958-2.813,44.9c-0.347,4.171-1.579,8.636-3.681,12.217c-4.677,7.97-14.171,7.888-18.36-0.327
					c-2.578-5.055-3.983-10.951-4.788-16.629c-6.895-48.601-17.303-96.365-32.1-143.216
					c-25.303-80.116-66.322-151.364-119.957-215.707c-39.595-47.5-84.547-89.665-129.833-131.527
					c-29.989-27.721-59.827-55.594-85.41-87.616c-23.404-29.295-40.792-61.78-49.88-98.198c-11.819-47.36-9.39-94.474,4.641-141.133
					c14.983-49.825,41.225-93.36,74.123-133.171c38.916-47.094,85.268-84.589,141.743-108.813
					c33.124-14.208,67.622-23.59,103.429-27.594C350.496,1.574,369.648,0.749,379.772,0z M671.362,587.698
					c-1.483-0.684-1.891-1.016-2.322-1.048c-2.823-0.212-5.649-0.486-8.477-0.508c-24.349-0.185-48.656-1.127-72.689-5.35
					c-24.544-4.313-48.515-10.482-70.127-23.597c-41.825-25.382-57.522-65.653-47.417-111.365
					c9.989-45.186,54.572-71.987,100.824-59.031c16.914,4.738,33.32,11.57,49.549,18.416
					c34.998,14.762,69.732,30.097,107.359,37.304c29.777,5.704,59.04,4.497,87.634-5.957c39.389-14.4,68.24-41.624,90.382-76.3
					c32.035-50.17,44.485-106.241,47.14-164.824c1.752-38.647-4.592-76.387-15.695-113.361c-0.255-0.85-0.841-1.601-1.572-2.949
					c-0.664,1.457-1.147,2.294-1.441,3.192c-10.767,32.967-30.717,59.232-58.638,79.456c-27.155,19.67-57.093,28.994-90.851,23.117
					c-23.547-4.099-45.306-13.146-64.629-26.724c-26.961-18.945-53.378-38.756-79.084-59.374
					c-41.684-33.433-87.616-58.008-139.511-71.194c-61.34-15.587-123.226-19.195-185.817-8.892
					c-42.868,7.057-83.189,21.231-120.769,42.997c-41.037,23.769-75.377,55.237-104.874,92.18
					c-32.718,40.977-57.82,85.857-70.391,137.17c-11.159,45.55-10.782,90.85,3.849,135.59c12.329,37.704,33.772,70.028,60.24,99.256
					c28.242,31.187,59.729,58.997,90.629,87.419c39.408,36.249,77.122,74.111,111.098,115.587
					c41.878,51.123,76.423,106.653,101.251,168.029c25.78,63.731,40.744,130.233,50.511,198.055
					c0.213,1.482,0.608,2.938,0.919,4.406c0.433-0.045,0.865-0.09,1.298-0.135c0.686-11.602,1.55-23.197,2.029-34.808
					c2.027-49.162,5.768-98.146,15.545-146.472c15.345-75.844,43.252-146.482,87.6-210.264
					c31.963-45.969,70.735-84.871,118.488-114.497C665.906,591.673,668.251,589.868,671.362,587.698z"/>
				<path class="st0" d="M671.362,587.698c-3.111,2.171-5.456,3.976-7.958,5.528c-47.753,29.626-86.525,68.528-118.488,114.497
					c-44.348,63.782-72.255,134.42-87.6,210.264c-9.777,48.325-13.518,97.309-15.545,146.472
					c-0.479,11.611-1.342,23.206-2.029,34.808c-0.433,0.045-0.865,0.09-1.298,0.135c-0.31-1.468-0.705-2.924-0.919-4.406
					c-9.767-67.822-24.731-134.325-50.511-198.055c-24.828-61.377-59.373-116.906-101.251-168.029
					c-33.976-41.476-71.69-79.338-111.098-115.587c-30.9-28.422-62.387-56.232-90.629-87.419
					c-26.467-29.228-47.91-61.553-60.24-99.256c-14.63-44.74-15.007-90.04-3.849-135.59c12.57-51.313,37.673-96.193,70.391-137.17
					c29.497-36.943,63.837-68.412,104.874-92.18c37.58-21.766,77.901-35.941,120.769-42.997
					c62.591-10.303,124.476-6.694,185.817,8.892c51.894,13.187,97.827,37.761,139.511,71.194
					c25.706,20.618,52.123,40.429,79.084,59.374c19.323,13.578,41.083,22.625,64.629,26.724
					c33.758,5.876,63.696-3.448,90.851-23.117c27.921-20.224,47.871-46.489,58.638-79.456c0.293-0.899,0.776-1.735,1.441-3.192
					c0.731,1.349,1.316,2.1,1.572,2.949c11.102,36.974,17.446,74.714,15.695,113.361c-2.655,58.583-15.105,114.654-47.14,164.824
					c-22.141,34.675-50.993,61.9-90.382,76.3c-28.594,10.454-57.857,11.66-87.634,5.957c-37.627-7.207-72.361-22.542-107.359-37.304
					c-16.229-6.846-32.635-13.678-49.549-18.416c-46.251-12.956-90.835,13.845-100.824,59.031
					c-10.105,45.712,5.592,85.983,47.417,111.365c21.612,13.116,45.582,19.284,70.127,23.597c24.033,4.223,48.34,5.164,72.689,5.35
					c2.827,0.021,5.654,0.296,8.477,0.508C669.471,586.681,669.879,587.013,671.362,587.698z"/>
			</g>
		</g>
		<g id="Layer_2">
			<g>
				<path d="M1612.772,0c85.826,0.832,158.657,16.959,224.438,57.837c22.41,13.926,42.637,31.348,63.99,46.996
					c21.484,15.744,42.702,31.91,64.841,46.684c16.852,11.246,35.782,18.408,56.032,21.544c29.984,4.644,56.383-4.317,80.361-21.567
					c25.478-18.33,43.431-42.41,53.743-72.199c1.398-4.038,4.018-8.089,7.134-10.996c4.884-4.556,10.886-3.425,14.375,2.363
					c2.202,3.653,3.7,7.821,4.98,11.924c17.314,55.502,20.068,111.793,9.602,168.943c-7.427,40.551-19.849,79.162-42.308,114.032
					c-22.293,34.611-50.572,62.708-88.978,79.234c-33.349,14.351-67.834,16.877-103.296,9.615
					c-40.308-8.255-77.679-24.573-115.082-40.953c-16.608-7.273-33.255-14.689-51.523-17.058
					c-39.345-5.102-71.699,20.789-76.957,56.996c-5.585,38.456,6.378,70.035,39.92,91.802c14.858,9.642,31.352,15.324,48.448,19.45
					c29.671,7.161,59.864,9.258,90.269,9.35c3.494,0.011,6.989,0.303,10.481,0.518c5.395,0.331,9.866,2.357,11.699,7.78
					c1.917,5.673,0.743,10.983-3.634,15.159c-2.263,2.159-4.95,3.951-7.655,5.555c-31.247,18.524-58.325,42.044-82.429,69.052
					c-53.552,60.004-88.091,130.09-109.596,207.093c-15.656,56.062-21.403,113.494-24.253,171.358
					c-0.738,14.978-1.571,29.958-2.813,44.9c-0.347,4.171-1.579,8.636-3.681,12.217c-4.677,7.97-14.171,7.888-18.36-0.327
					c-2.578-5.055-3.983-10.951-4.788-16.629c-6.895-48.601-17.303-96.365-32.1-143.216
					c-25.303-80.116-66.322-151.364-119.957-215.707c-39.595-47.5-84.547-89.665-129.833-131.527
					c-29.989-27.721-59.827-55.594-85.41-87.616c-23.404-29.295-40.792-61.78-49.88-98.198c-11.819-47.36-9.39-94.474,4.641-141.133
					c14.983-49.825,41.225-93.36,74.123-133.171c38.916-47.094,85.268-84.589,141.743-108.813
					c33.124-14.208,67.622-23.59,103.429-27.594C1583.496,1.574,1602.648,0.749,1612.772,0z M1904.362,587.698
					c-1.483-0.684-1.891-1.016-2.322-1.048c-2.823-0.212-5.649-0.486-8.477-0.508c-24.349-0.185-48.656-1.127-72.689-5.35
					c-24.544-4.313-48.515-10.482-70.127-23.597c-41.825-25.382-57.522-65.653-47.417-111.365
					c9.989-45.186,54.572-71.987,100.824-59.031c16.914,4.738,33.32,11.57,49.549,18.416
					c34.998,14.762,69.732,30.097,107.359,37.304c29.777,5.704,59.04,4.497,87.634-5.957c39.389-14.4,68.24-41.624,90.382-76.3
					c32.035-50.17,44.485-106.241,47.14-164.824c1.752-38.647-4.592-76.387-15.695-113.361c-0.255-0.85-0.841-1.601-1.572-2.949
					c-0.664,1.457-1.147,2.294-1.441,3.192c-10.767,32.967-30.717,59.232-58.638,79.456c-27.155,19.67-57.093,28.994-90.851,23.117
					c-23.547-4.099-45.306-13.146-64.629-26.724c-26.961-18.945-53.378-38.756-79.084-59.374
					c-41.684-33.433-87.616-58.008-139.511-71.194c-61.34-15.587-123.226-19.195-185.817-8.892
					c-42.868,7.057-83.189,21.231-120.769,42.997c-41.037,23.769-75.377,55.237-104.874,92.18
					c-32.718,40.977-57.82,85.857-70.391,137.17c-11.159,45.55-10.781,90.85,3.849,135.59c12.329,37.704,33.772,70.028,60.24,99.256
					c28.242,31.187,59.729,58.997,90.629,87.419c39.408,36.249,77.122,74.111,111.098,115.587
					c41.878,51.123,76.423,106.653,101.251,168.029c25.78,63.731,40.744,130.233,50.511,198.055
					c0.213,1.482,0.608,2.938,0.919,4.406c0.432-0.045,0.865-0.09,1.298-0.135c0.686-11.602,1.55-23.197,2.029-34.808
					c2.027-49.162,5.768-98.146,15.545-146.472c15.345-75.844,43.252-146.482,87.6-210.264
					c31.963-45.969,70.735-84.871,118.488-114.497C1898.906,591.673,1901.251,589.868,1904.362,587.698z"/>
			</g>
		</g>
	</g>
</switch>
<i:pgf  id="adobe_illustrator_pgf">
	<![CDATA[
	eJzdvWd7KjmzKHo/z/PwH8ARG9N0Ds42GOewnLONbWyzjAETJuwP97ffKqkz3WoRZt855529vaBb
qKRSZVVJ05mTs/zGW/OlmlcEMZ36Y3q62K5Wus32Ypo8Tu/W671Ot42PsqdzackQRGy1sWs+2S0v
q+1OrdlYTMuyIAoSvi3j77PHfzWq7bl0dg4fnde69So8tCxZ0eWKlK+qxnterehmvlJ5NfNvimSY
2rsuVTVRaDU+5tyxQN+lShd+K4kFtSCLspaWFkUxvXFImlQaf1Y6ndr/YANdMRV8uNnsNd5qjY/N
5t8wLFER05KliWlVlq20IuoqttmpnVY7fQ0FTZFURRdlS1TIjwRJUy1VUURD1bADU7AUDf6RdEM1
sDNF0C1R1iVTFU0ZOy41X3vf1Ub3pN18rXY6xWa92e4spov/VBrpw8oHvKmkb6r1evOv9Ga98voF
v9nY1Z7KtXoV8PZd6aYlhSB5Y1eSnzZ7tfrbUe/7pQoolVWLPFeeSK8XHegOesbP5LnxtPsNj86q
3S5MCoCStTrd3vSPBZ6S/7J3p9WPGllbQPHDnNNzu9n6rrS/OjwIkS1LS0IIdnpe/W7VYREpnlXL
EuC3mijiP/5vTnPABW0qS5qgK/A/yQAAZlqWJEtQZFmXdcs05TTAFQVTweHopipZ8MBSBRgPjljT
dLtDb02qf9aqfy2mj5qNqo34jXb3jJKPqgJZkb/2q9Nevdq+aNS6gAzalUUxf9h8q9bhF14X5XqF
IJz8J3l/7RbnlfZHtQsU16z3uoRbTBcKrO5B5Z8qEgnFl2Q8bcLSNABWowujfqq9P/1Juezpo7so
GTZg6+m4VW2cNy/JlCTZVNOKKZppUUAekU0lrSt6WjLJaAB5puGOT/L+OiA36t1quwGL5ID9F2Bs
Nd6ebHlRfQvA0QgchOLgwjCQeE+Ano/bNcDGooNN42m7XXvziNyQ0yb9QzAuAGbxf0ApsmgBx3M+
scj/DF3STEmVeZ7YCIKl78I8HHIApi0e+lhQFA7PcCYw92LzG6mwQ2QUrjDwZb35Yb/1vpB30EWv
ZeOGkgMQ7Um71sCOU38c0Xfm00m9By+3281ea7fx3kz9kaWS+6DWqKbpyzR5C6KYPKu0u38121/w
dfetWvHkjlCpteYSOj37qnZfP8Pd2k9H6RiQ2HaGCx2Qr86/PL8vVd8BltcBfbrV+LNab7Z8HdN2
PD1eVl9Bu4FkeEsfv/yGLzgvFK/p83blFdYAvrtteDo8qVcalbaLNGeV/oQ3FVhVb4zYsNq95uoT
WKUFgyC9BBclsYHvFReoSvcTNFa18dZxe6dfvZHjbOgznh6LlXq99tGutD5rr+nNdq/zmT5vNutu
7xHvXUj+d+QV/pKLgv/5fmnWa51vF4z/yQnQcO21Xj37p9OtcpHJCTJ/u3HcoPjpn4XdIDwB0Bn0
NwON/n8XmvurKEjw8v8kKGevBDNRMIKvXDj24/8gFGeRt95qIH5iGJ/Z5uyvCkjsg9pLAqMimt9r
jTcY91mv1q16vNn8bqHxnD77rLSqhHOclmdelxrR+D69lc8najSLvkOzrPtPvQrKsrDfaP7VIN/S
izCoOxDilV69+zCXLhxVvqvpBWhzVgMTs+o2EtPH+MezRaT0dQWfnMIfwVAtQ5ZUMFkt1dI1UO26
YUmWKhuSpqsqGDn4RIR3uiprpqXpaCJYoqRqhmSJmqTokmR3fr2B3brf/sFve/DpNzz7C5yW9GH6
7kFMv6XgJQAnI3mDAVOhv5T6I12A+eAHMnlAmG/qyTg8qdTB1qjSyZ68jHt2YS+BYPP6f3AVwu7D
ySv8/6Y3Zndkgy34AXQaWOR+xNAmQ9KXJNKXVOxjV/+P8xw6Cz+Ng2AP2nEswEMF6pp+KjgPkAbx
a+0V0VNp/2M/uD48OALnIeb1Ujr793e9AQ3ywL7t2kuvWwVtu0Aab7Tblf/VbsYExdfu9RO82Xa1
YbeS04VdQJX7Gv90/0FxQl5nZxqdpz8r7c4SMPoZQGh8BNv+Wan33Mb4ohPTsAFSwm5nj6YT/Pp/
PKpeaiSQIfFgClAKzsURwQkHuvzNF/4Tk22A+8gz0Xrz9av6xjVJp+k4iWJ0REhsRPCtda3yUq9y
cQbP6v7/vvgoFF57nW7z+18UC/+JWQ4m+hb/5J8lth2I0v9VEl3sVNB2Qx0KgoafUv83+AYG9F8b
z/9drNx5/+u/r97/C2zSqdde/+8R44CPTfB2GfN9aXZBxh9U37s0/su19v0/+k+Ic0lTNMGSdQP8
K8tUYfKn1Qpr8p/V2scnl+Rxm/43JirKimDIoiEZqiJKyRP9q/bW/eSap93yvzFNy7QEUbZkUwbn
2bQSp/k3n+T6r0zPUJJX7h+uKf3zHzI0iAQ9a/bar1Wy8fvfsDRAAf4nxvFd7VbewAQbw2CskQcz
+WbHUbiIzNc6QN6+HQ7cMnw698agmZYpxTRD9bHpDUbVTEONaVquN5vt7XbVnboY0xB3kZ3RaaLD
XOFWO7iZ1Gzs+EW6Ihu6EdPrKbbzg4/vmjQ9blVea91/OHomEzt1PeLEpn58mbGDwP1dWMtSrdOt
NF6riYMmijwwZs0UBbp3K8qSpknM6W793fWIgveXCDPwQ1Oy5LSpqjL9xUmzRvasn/p/etYlwVDS
wtX8cXCK1Xq9CGKo61FOdEOC3+P3906161Ikc9rlymt1o/FRd/Ar67IUR8A42xD9UrtsY1fS0+90
a7vaTlca3Vq6Uq9VHKGdpek+Pv782tgt9+p1JwJq7/PD24iuRV/XzV63jvvSnW67+eUqhaTW3erf
yejA2YWxoWuawkCGR/PxZElXJECXcXxPFsTHHAhdY7X14ONOQSLFvVbciSmx40VSwxwXR9+GDQrD
EZhvrZrgINV+9NqsOwuo6A6AVuXNG6W9Tp1WsxteOyCYvvX8rnS+PNG9sZve6HWb6dNKp1tte2P0
L7+UduR7utZpYh5R+gU3mckefLi1lW5VWkAnndp3r07YMaQhsUml3X1pVtpv6VfM5glpDWzQbVca
nVYFVNrrP+kPwGG6441Nk1XZjO0tLafb7hr6lzuiqQR9+4R3Ur8vHh3F4Oer0Xz9AhaBfslGH98g
XqLpM7KtN7fE4frnJgXGe9KudqrtP6vpc+BiskVZeanVPW4imXxu145Eobl+ZwEiIU0wZ22jXa1s
EJKPcu/DFO+ib7ezYQ/7rFoHlqn20bXXwt6R8kXCDQOkoD9DztBlU1BEy1BMSbMks4+BSUpZwDd1
JgFKsVWv/HNYaTvskXUAp1HMggXxCpaPI219o/BU2capQ8vh1L1wYp5vYKfV+nnzlI7JljLNTs1V
ZJLTZTjXry8bkLtLuc+QdGZK1iyCZPwaoOUQT/PParuF23KOjOHX1ETUkjybTRIx8KvsKH/L3eeD
V4Wtv1vNdhejcRsdUMqd/WrSkF/rtRawBUY5/wYO+oDenTFLougSeuA3bSIR83+SFKP0S6Xus5iY
2oZM67LWqVGWQqOkOjCCUBXG4CcWuEfau4236t9n1ddm4y3hRy6cmAGriuxYbZKI+YWKZAywuqj5
AsacYUiSYNl5fCYQLUEJDzYuK41a5xN4L4iLvCaKyQOqoir6s0oMh8iOsneH1bda7zvt5Yg+9DM9
EZ7uFjPJEEyXXYohUrWb9ksGz4ZBCX1Y7Xy6mpboRh8414oI/OS4122BOkn4kakbst+45sMqWaYY
tPKRWLnW7gTMdMMahLbPmy0/VMPSXNowLVnmIza3tz5ai5sFoYIkLuWaiUfooan4ZEofwRxUGh89
zGM8abZcG2EJYb0222/VtwgpmC4cNbvB964G7TNJP5t/7dTeIgwVWfSGclL7u1qHn76TxMqg8Ozr
sVFphdvgs6vPWr162PwTiOepVel+dpIadaofJP82PLSzy22S1YScA1bfa8TYzyp/Vg9B+ddAhDvK
ygePIBu6KTcb3bPeS4em/7J528fUchrsYBYjB90yNJrRH9tAf8yD49c+pMciqp2irXZOg2onYI9t
nZwlNPaoCdsehzVv8hTpD5nCyoNCRt8HRPJb+Y2mp//TtQbRrmhjRDo5EfTrDa7gBSQL7bd2R6C7
yyFO6mv13mu8hjwHf5vXbwFGVu1nyb6Oqg00JRxFme2X+n2/qDQazW4IayHY3823PvOwfwr2anTc
Zeycbm+md7eKumTpel4WIgzPEKBWu/lec31QPjXm7+LvltAI0HnfbKAFRh8qQWKPadlsvTYZmIEW
aIsltGg2gLK6NB7h16RRjcHJCSnDmIZ2r764hSLGNG339Rm5hi26gr71M7ToDoPWo0/Fh7rrfFbe
qm1/DKavN2xV7YbgxjSsS8iVFRYHQCtsAzA7bAySho0uyfxhNWpUPyo+L1CJGVn1z2qd0dHv5ovw
Vu3UPhqV4Mr2o+211WoLfzX98bkEHu506wKRW1hv8+2xji+tlcVzzTo6qjCqCNkZBvNGu7ShDTC8
1htKkLp/fMm/ooITfss5qlbYOwisEqA1IImjesNGdm9OAEOSI4kbF8m3g2hYsc0CG6rgzRN7ENxm
TRFlI+5HNawMEbrNVpJ46lSH6rkOVqazEEAntQbosZd/0qU2kHqbvTLYiW8ddVERNPR+NM3ULMVk
w237cGGYg/ySbsUnck4A2wwG860do7MAG0atAWlGonsJ3E9Yxq/aopS82/DF3k9M7rLSeal1v12D
NoGr8GcJ6vG13hZcS+gFK0oTGvtMg7gmjgZsNV3jy5AjG7ffhGa7hkWtPjkZpYWwZcsOAjHXkfT4
IXyyhght3kGNfzbb/8PTl5PtJkUrPmzWwUC6CzSx4Z8MmURbvTY6TDqERl3w/Jj2DO2pVX/9J3GW
sFz1Sktgs4iv4Z8MsK2P76+QVRrbrIP5+E4jrAmNkgnYEKQ07tv4+TiB9snPqAbwW5gcPwKu6WK9
edLgYYLJM2yBMKs13ptJ7V7bTOFP2rR9JROJ/WEU/aXS7rCW1JsGSD6/kuBoHVBWSY39ekCPbU4K
x0Mj4WjtjYSjcTuoL/qQ997oCm/1Vvu9GfAcY9olCENs1AF/nuVtgTn5UkM/k+2ROWHr1+9/mBLa
a9nsflbDm1Mhe6LTaxHb+a9P8HyTjY+3XoKKoropyv1gcBCuSq9TLTVfN/Frh38tk22EIJRA+yV3
MwlDABvOb9Lo+I8UBCC6GrgerIQPTrGDP3H2v/w/i8Nzu4oF/VUcSjuhKdr7XmwwrlXnq9YC5d/4
YqyYZ4PU65zNKqFQVxDne80XrBP0Y9zwNg/tkA8NHRdoqXR6M7yPEYpCHdvb++eem+zvkgSGeHuk
UaT+DvtjX06js0AKQl88LbpZMDaH3cUE5/xBwvOIVFh4dfLxHmJ4eLjVALLzelK8Nyft6mutE+BT
tyucMK2TjR7BQfM1pId8P6XHdUS8uo4IxV5u4xb+Pniz/ZC2vl+qb3TB+odPivl8mA==
	]]>
	<![CDATA[
	EL1XpfNS6OEBdOJEXnedl4ENDrpI2+3KGxqk6Urjzd7xYO5x0F+RkxGw2Bh/RXal+34VhEUJZ2Bg
9Gcc0JYixJWvRjRUeIg904pE7M15mfqjgC/8j1AMbpwVd3dNrVRFaUZ6zq1qz0Zu7fKlIBZyh/nc
2mdXwU+yuvxrUXFf/HI/kRdLytp5d7P0bm1/7UyerlRK7+LNqvtWzq2c6p+ZOWVnJZMvzJ4CmExu
9Ws5M3d0a2UWPmvw7vldyOR6i2eZhcPrUiYvHspiYeUmS+BrmeLcL7Ujdw5hdKUvde34eVXZNBVT
v9W/b5fzz+WmcaWIb95bceepWgQw7fbqysvGQutob33f6qyaO8tXQrl5q15ute9vxdJt+ea8vLKx
8irNbxgNsXBcvcit3jzI4t7JaVHcedYK8nNm51hamP28jB0JgOEYTLu9lultPh/2Djd29NfjxZlG
bX5b6x6uwyAuz9YLXbG8+HBcalrPZ/kN+O3et/g2c1Nyobbo2mzXV62dqd+kcxj0y5a7DjOk6Wpr
brlFfm6Drpxu2p+e99bIz4RCR/uBT2etviYUaR2z3DiXs9bNFAxBaiD0Y28Z2/edD1NQDsxebnU7
M+MhA/o1t5Wrpcl3Mk57+HR0B512e6lz235YOjkWC+pZFmeD4/UAw4+le/X682AhEurDx+ZOLFRd
/l3IREElJLDUeWk/FnJXBHAf1KPNucmLVv0gCmpn8lHfjIO6s/rLaFwSqACmb7rq3HVu6fX4MBLq
RPlRjYUqljf316OgAhgArE9ONdpzK9FIVm8exfL70Vk01O3M8oy093QeCXV7Rz4nUAml9SNZvl09
fyZQA4RHl/aqfd9bPUCoc/3rmr1R7urSHEBVmx5UBEOX9kB0kHwyOxuCqmnfT604qE/th8/GeQzU
9YpulKckujZ+wBTq49rzaRzUnSklu3QfDXU589CZ/KyehqAiGAr4V3Fu9Wfq+yAKam6pvrgaA1Wf
nPzp3RrRUNWbO7G8v3yCYKKmO1H+tqbVo9KvKKhiuVnbi4U6c3hc3Q5BJWBswFVx+9fkbTSSj67E
6a/C5RlANVph5pndflJsqDf5bAiq9vN1durINGnr/qscmO7tqniwaykIdb5vrjtfP4a6uaZGQRUP
vt+rIagUjA3YPNx6fImD+ige14/PoqHuz97uC0KzHQn17FDBQ6pip3uwre6rMVDvVPF892wuBmqv
e3awfWd4UAGMD/Cl2K3FQj2vHhU+46DuipePs6vRUA+sWQBzmc0crUVO9yp/ORML9WojuzQZB7Um
3i6sPHpQcTY+wEe71d+Z1/lsJNSHl4nDWKhfi/XZvRio92tI0I+PG2r0dI9zE615YM5IqM/KdTYW
6sTN43zBg0rUml9WZNrt8skXQs31Mc+xvJ6bMJdfAeriT1g89aTGpQ31y5oPQQUwP0/Gd5sAlmdX
sztBzXOSW2x2txDqQj/Lnhemj2uHpwB1vROe69ZRS7ShdtdyuDZBuTgtTj1R5pEfuot7QQn1S9za
uigjVCEEtd17ns7MVrPGDUAt90JQiSIo5K8o4DVpPx+COnG+d35KoCprFwcHfqhyt5GRi91XhCr2
zfVSuf99XVqeB6h7GQATRnK7vZVzFO3Jd+htRrZ23+PfKq+7+ai3jlrLra4067E/B0E80459K24t
vy04b8/6NPXB+s6dJ2y2L/vk/cHp+RPj7dvza/zbw0z9w3vbjzTxUJ0S4n9+3Pv6Hf/27NKyot46
SBPPPrc2439+fto8jn3b7i7Ijpbbvulj48sL48eHtPswx4mXH8Ve/NurqZMpxlv9Puu9jUDa1c5n
Kf7nt9pdLv7tw1f2OOqti7THrHod//PHj8dq7FtQ+aur8W/Vy3yFhTRpRXi/iH+7aalq/NujVaXJ
Qpp0/LO4FPvzxZlW8yn2bWYmV9Sct0/tfqRlpg5Xv5wGL2FBmJHF0nfs29yyfFBivF06LfuQRhu0
/P6jukDMx9MY5+2wwXTedlbOwfkrbhb2rgBMabK6d1Zay52dm/nMTA8+bZ+AOzlbLF/fl99AOUyU
yC+hj8nZCP99slBbeZkDOpjYAuWwdhoQou0JeXblJO8grTN5eXPim+7qpDJLnE3qDy0W72480V04
NBuz4MRf94gzBOh4X46CCsphUQrbAjZg23wV5w9joIIzZJzOPcRAvbmPggpg6HQnyi0larq2PzR5
exELdXb3RfhwoG7X/VCXM3MEqmcLqGdTfiSfaLIP6tvMzKQHtTNrzHjUqgSgap9z2bW7eggqMdVt
JD/4pxuEOlGuCLFQiWsRA1WfRL/i2WcLBKer3jwxoG5P6fFQ0a8IQaWmuk1QaKdU4qCexkM1j/Yv
46GikRIUNgB4ChssuJ/ythE2v1LgaqcUxah2ZDaBpuLz/OIGR5fEgPPkBsbCVPqLfg6e7Q8NrVrb
10V5dk3cRdwo4djd6sLWgu9PMT9fdEMCIJ6UqV/47NTjKsCrhnyT22x2jug44FMJwwRbBHRITAH8
ixP4OoNOcW/egUCNaxuCbzgnMy2nydm64615MlDc06anvT+rrezbuW2Mk448DobGMNT1H9okEKIk
I94sfFZL0/gHbWgXQfNRwT2Yw11JqkzN7rg49GN/dXVr2v6zcNiMHROJC9BhlTvMYU1KCxfSAv65
88d27IEd+7C+lt3aD2HdQZof8eRP5brkue5RM1SmlvYPkmaIf3CBaDAldhlnJ7xljF1DZNQrv6PW
P0MagTr55lhGjjUUq7+rl1FUCmDi8MXqrfN1NRDN28Imiuyb0tZDZ3sU+nKIa0lApI0F+8RiikU9
gBkM++9F4W5wGUH0TYQg2rpfnQ9Koa2wFHLnzyGFfA474vxmoR3AoTvooBSqnggz1FjrR98WOuy7
oeGE2POpNwui/nDBRV/kPgc0ftySH3qb+9FCPI49afyvn9xu8hOjT25t8deho28Y6H6emyG8FDOS
hZbLafHzolJgf8YmgQiy37ov5UeeEgVz0/JTvMuPAWEzg39OY5dKfJcmbmIRQxQBH25Yinsza1PO
ymHBmTqNHsUQdEvevLX2huwtzH2Vie0c4T43CAlfyqMwoH84L3IvtJqeR+AsaKE2ubhA/tgikWxU
RNBGZeJpInlJyR8vDk0D4H00Uu4Tif7e1sVq96LQN7AXZS7OFqhMHMqxdFv4bOZW+q0zxrJQA9IV
iradtp1knXFLobdtaX7zdzmkpugeAZ816VvkL7PLVlMhRHq7Uf2LDMN/7I3FqNomYIKCux9f835d
HD+m6kTcmFARuCPiGVaUreeM6fjUZd7wGnomR2AZk2w97jW0/PqGaxlZ+LrMsykCTY4BehMGoi+v
q9CetN1bYcjeIroSx4o0aaxIk8eKNGUUpNma2ia3BUcRBLzbjx3xbbayNbLlLG9ev/kkiC3T4j2N
aH7ormW4Te9Y9vzYCer94dmzuzaVSGl97jTZGI5EUHea7YfZHgEbQTMDISgKOzibauXpgtOXiLQY
YTZPCQyNYJIHM4gXGDkSDD/AYBKYmGckIaszOBLP6kxCSwLLhp3HykR321NYfnNwh8S8B3Hdc6HY
uE8HrmVLbeD0u2LAgJIfOh/dQSDEhT9+70Y54J5lEyVJ4hjlofMTq/cjx+SIzqhhjUkUgPUwzRcX
4BEFD93szIBxgXjEK2uX54f88tsZU4S+eeh8JvB0mHhjzPxdsq3oWp2jkpb4PvtzzZYRNGvI84xi
XHfggu6AkcjAGgbcKMSXOjZ8+Tk9UXv24SvE7NJex2N2Mhxlymr1Qo6XX9gMEgn83gsye0wwxYk4
uBGoILkpU4vZKaZjyetz7BHjnieYwhHI/d4LGvfhyREwgfnFTE7NjhIIoSHV772wph48SATE0Au6
nb4pebPhmJL1o8Q62+wgkZ/S9sg284hBIkDM+2L2lh0dDIdLAp5/EEGM2E6/UCBgAlGJoKVd6N9E
au0HzewECMTMjuObtYvc5Ijoa+17etFem/4R8arGxV+zHGThmINs1QiTWxwD37T2g1oxQULFjGRa
ip2XM5vksOi+pwsHn5KPoIGCQmpwCFGw+CsTVH9KrJ2WhBudY81DZq7fTgsiKGjmRiOIy8zFzS47
tffUv+bweHAGjJo6yuNc2CkcIlqOVREqWwpS9WcHutgaEHtb5MAhjdJG2SJ+CY29rXRHFDHXZ2SL
g0NCs8P4uHID60BPdIY6CjqbQ+y4YC8uH7rm4LAdsfY5vF6ot8bsqF8XDq4Inc3i8EbjQL0FA+q4
Y5wNWaIk/PC7KrDlB2/IDbsSo7pyXNyBPDPsbZ6xaxS3UxhjWWDOKRc2/YZppHRz2ROVSb90g2dj
kW5kbTpfI+8FFvuyNAISxAl0cdr32NtB2HnhkG7R+gZ7O8mMKt0uPOk2khSAleOUbglSADsaXbqR
ROXRDQ0ynLHs4pKOgtItsHXzy9sFirIPApn3dN1YQbXADmR0iK7lZ5nnuVxkVP36clxbuds3Lc/Z
jjXVEy02XNJIMRklcXE2bKELvcXvu/JKXFdCQ2/DOpY+rt66v490i+xdXF7GvuxLmOITD32UdjmK
4R/oxZ9SYRu3w3XE73bHh1RJR4y0piR7PdAVNTnGFuTGGfYrR5ISPybrH2RaYQxOYRFkyjVbo8Ur
x2DOrd0bf44GMxKJXb1MhiK3w5DbVZT1P4RagwUdOQLmkMAY9CMMh6kcudUadsRn/Uf14jnspKPh
9WN40RLi0IPrx3x/LOz6OqQcA9urg+rHpzYjGO3Py1rwJyrHouAaI3s7Mcvix6bHmYwtvCIAfmHb
mtxGMHT1OcmlCHj4HHr7Ykff+7O7GUjjYXaWA+oj6Kc2F8eztmGRI4SomLcv1SoxYy9IZCxu7WMy
e22Ymuql06+pXjoDqSmiPWM1VVGID1/ypMaF4gIvnajIYRSfJdPLzThTe6G3UG4X08VO+Qv/o3uT
9g/GFEx56XDFoT27oz/X0V3NQlSmb+wOe4zdgQkK8X5AgCz8Y4rZiiDD4iQLVlqszRu2DX1gRDse
gdI94/3u3XCOfNk82Go/rjx55XzsWj4i08ZRzseu5UuRU0bGUM4XBdWr5fNCQyOW87Fr+VJOkeyo
5Xyuvoms5fMFU0Yr52PX8qW80sXRyvnYtXx+G3qkcr4cs5Yv5ZUujlbOF1zXcEGdQwIjl/Oxa/lS
vmK/kcr5IkzPInvfc6hyPnYtH/UImAnQ8cVIK61kzziUeR9fjHST347xEvjHRPmmyHb/JwPyPr5W
sRObPOPlDnIWKYQDxCxUJQWIS2ELYOjlO5tIyoHiRVUzqPwj8tgOmyRRmaco7awxGKqCXfn9m1Jf
jGv4GYYSCEP1N84k+WZ4zy5c9Y0pxS7EnGkmJhByjYkr0MVAFWfxHjsHipNut+53Y0t0AonKCWVc
SftoifklnnF7k8+MHG52JncTjpRFp8ElTG7w/JL+hEssu8uNoUwywILDBoix7G6AbQ==
	]]>
	<![CDATA[
	n1RcLe7NQovhEfDtViBi+mo8uByVuN4SXGHCN6zeggle8/2WRaWc5LrzSuhylHM8kGfs86Qr5YHq
XhlFry/yT4ihQxJ6sBgA4IuxMe6PqAQSYFixRrU/9v9ltmNtjEE3vWBe1/Ebh7zFaCm3pjDJHOOv
KYxIaA7FBfjr0RLqb5B8s96Y4reJ3raDKZUBxTlYnaM1ycq891aQr0ArGPWMyrznLnUMRz051zAV
XVOYVJMzAEWQgxqCtsBIvbFKdOzMe/7eEpL5B0Qas2hnwIEtZm/HhzTmaQ0cSAvFi7urP6E8Knnz
+jHBniSBLg7ru7va42X72FhnYukeuw/sIOHQE6I9T64l8ieBzzevf+L5nL1R0re9usPvD0abaDtR
gqIv3J3UR+I5Lp774DOqghUryVV7iau02mHXsAedomj2wGK7JCkQiY5UqDyO288brFovkDsYVHlx
9gxOiX0+S8j7CkfVgxZmxLbp792kSt2gKxpP0LsDxoL4CvX6NosjfNrYsqytyfHZaQ/d6YRCW45N
UttO2x0wFhRf8ZebjRqTPzmJE1WlLkcsKEQH0YGu3UGjN6yqOozeBH1PTvLsH1MSV4fVGmNYg0Vv
4lPiwxV6g6EqGL1RpqyvQt8pI3tJGYN80RtlanEiMhVosDS4770hozcRmffAQTPjid7A5KTZ0ZOT
vvd4oze24xFbD5eQUpkcvdlzcm7HUA+XGL2hWxGJtYKjRm8ADOJGG7xAKAZB0dVBfQTNVwe/eNIN
l8auXUzH5+ik3EMZkg1pMPMmh6QIv7DZHzkC5DRu7YfCP1FRdc4IEEwuyzs5QtBx9XCciYHsMjZ/
LscoJX48icckdzChxG/kY89a+yTzfvicQA83bNGdckt+EyOniCBjSDa2rc5QOmA2Yk/2bBTNF/Bv
vOK8cVfm9e0RcKftDVSZ5+7ixqXtjacyj0iBUbkwuTKPOxl2tMo8X+6gvzhvpHlF8GHIYeftaNDK
vNiNlfFW5qVoFV64OG/clXnhyO3Qph+7Ms+TaWFlNtbKvFC4O5zSOVxlXv8GcrS3Vuw7kHm4ujXX
tkjF1a3xp15ecKReelIg4eQN7I0j9TJZClw2R67+R3mU4024TOwo9viNATaLaUeDnLsSPxzXwo/K
gRqgI4Z3HUj99EmBWH7EOr/4AFpyHQMwYzDQhTZZPz/Cs4H5MTo0VORIlOAqy4qx9VPuodr8/Hg5
UCo0Ycb4LTzsbXh+9BBOmHFEUx3V+kIUP4Z6SSUddUw6Gpwf+11c2tHI/Eh6ifO4Q2otsSOuyvV+
qz9C2JDe4jdwE1PXg9HsWXLecSp87QEWmx0knIHBtX+1ff8zniJZaSI+UWTwIllpgquslbNIVppQ
R3ZtAOHVyKqfwaKDpFBsLEWyV2Mpkr0aV5Hs1biKZK/4D7pOioBhDlT/QdeBFIjkbKgQP4YOunbA
wOMLtkbj5EdGUR5NtRqsXmiIojyKtGiEjrEojyLtk+M8rpGK8nhjnSMW5cX7nmMtyou1BcZblJfy
HxHOVz4+TFEeJWieLOBi6JBkhlDoP/0+SkkXhdFOvw9O01+6OGzKrq83Zt5h0LJJSD3EMjrmmYwD
WTZFYdiQZv9qPgl8R4GxkiGwGpKhA31kEUwfZQ2LkyyidYUbvPc4Ga/Si6Rqex3IDaKdj0y+8esp
s3D5uJXJbyiPmfyetYUX1Bfx001m4fP3Of5Zz+RehT0Ak1konRbxD15Zak25qzoTGrT9KVAA1+5I
020/8waqpNQJedEKJMMGStEmZlhld0LeTzQBqLll+eNXFNSUfaU4XkZ+F1d2d8squ/vNKvZ7PzoL
bhMFS9HwMvLXOKhvrIqwzTMfVLciLOXeU/hZ9SRkuBQNb+d25xouu7uJhQoYXmEW+4llSzyKgapP
Tp1+y49xZXdJxX4dNWq6dtndwvNlLFS8dPczrrBRYBf7lQ9mY6G2OxermViomfWH/HlgXauWs0dA
vniLMVe8ffsONY1s99j7biS2o1cjP25dHyc21T5t6rOVKRY+3W+ETFQnopP9DilYMptyL/62KI78
3qBxG7HFdEd2CgfKnoovLjqZLccEqQI7Hlx3oCXdWhYzpr6MrlLYQB66ZK2ceAz1SNfrRcWiUn+M
43o93rBdKTlrmxNVS/NRHhkjd3CIm/Xiwnbz8b5n8s16/DPMszLvB5th8u0K/MPizmENjSkcfki+
VI9/TL7AkWNy8KTWchb2JQWIx1TYxxOzGUNhX1RVXyjzfhyFfVGTs9N5xlnY1z+SUo5z33OQwr7h
CzFH3hMnazPewr4oxJDZjLewL/Ewk/EU9nEp6dEL+7wxed41O9w9VGFfVEjGzrkdZ2FfVFVfZNbQ
aIV9URZjsCpiLIV9UVV9qcizH0Yq7IuSsz5hM67CvqgxUX0z1sI+lgE1xsK+KLOVxmzGWtgXtYap
5Mu2Bi3si+pqiM3ipMK+qK7irc6hC/vikDbmwr7xIS3RYkxA2jgK+6J2YSIy70ct7Iuq6gsmXI6l
sC+qqi8VfeLYKIV9QSanVX0hq3MchX1RHTDyoYct7Avg5KkQjkOPq7AvytCJlwJDF/YF0GHvwPpz
1cdU2BeFjlTEYY0jFvbFpIzgsLQh+DHoI8oPnRch6CPuej6ix57D1vQ1MhzE6DM54mv6Etneb3JE
Rn6ohB7rLX6JMZvx3OIXVREWt70Kw5odGVW0QhRNDV6ZlkAHnzz34nIOi1so9I8paKrDsLgZO2lM
Aasg2lTnRRU3V6fYp4/isA7U+4HlZ9BfWumm+q9AwtKupNwmnlCe//K/4VOtBrr8zyHoOHt9b/Cs
x3hhk3T/38iX/6V893sm1fSNcPS5m6jMvP9v5Mv/IkRnUr3jMJf/hYOQ0ff/9eFm0Mv/2ATNlVvF
c/mf37IZaPtpP1y5P9QZXWC0JkQned1uZe3CmE3xVK9yWOT77HTjFF81EUxubpTQq71NtD9khmOo
pi+2rsnzPTmv7Rsu0zigPbGcj6cqN7HYsS+zMRV5hF5ykhpeajhASVOq/7KtoG2MAnO2r6Sp8pRA
ESHNx8jrPBuIAWMLucaZagW9jTHV6uR7SPWXChdiJmRS8xVizoVLjvvDD5wdzQ80HD8JhDoaS4Hp
3AJf4lhyRzx3tfEljmFvCbV/zNQ4F2mOHTo3168Lr8/Hebwh9DYW088eWECwMZLI/cosFptvM3L8
VUGx9+Iyqyj6T5vGosBF9iZhn8Mem7V92Ry5niVFr9lJmDh/CWnnK1KMDOWwY29ct5YlSQHvZOcR
ahYuPAPDnzg2XEdcJRQJW9+ko5GPMbim4YfRb/gmw4m/Z2ydUNoAVRSYoyHGuunDbBbPRmRrYFFg
kY1D7uB94Oq/EerLfLOOSbLg5kfOe/9CMi2OH0e99y/lFWJGX/03YCFmjMHfV3yR3NEwJU1hF7fv
6r/h5+VnRoZaS+6I/96/hKg66W0M9/55+dAxV/+NXO3rK8E65TjHI7G+jGX8pAY6SxXv2BvK+ElF
naWKvY1e7Xv/4+VPDR8dxM3fPEe1b+IZXaSjkYNfpBckgdGlMQ6HmUTleWuJHfFW30dFwEIRKHKL
4IjV9/5NbazNQmYMg4HHY+FHmNddlyHTEmqp+rC5mOXJI0s5p8QnV6aNkiLZj7RxneEOXXne/VCx
ziDS9LH5nrCglzyebGwhFY2nkasluWqpOMcUJotA+GGIutvN65t8yGLsS/eIPG6Kr+72pcN7GSaX
kr4Z+TLMgJ0GM/1i+038l2GG80Big5Bcdbeb112OGDafZXMz8mWYXs4tFp+OXneLl/TF6cBUuBw7
ue4WxjTIZZgEWdE5UJ5Bj7m8B50IgLZNiKVSmfn9JYlUC2KJ4Vlm4entPDN/vqHjpxNSZwhgMvn9
J00sXH8Zti5aaX75B+jEooIVXNn4yjzzpCD6UfrUnqDJsO7VdFPNll/5Ba6my75MnX7FXf7HvIbv
MR+Kp4VKAjf14xio+uRUQ1l6iqsHfAxBtSW0ezVdRouHur3dvnGhhusBJ3/03n1cjdwDgGEUIv5a
99+wGKyRyy3VL+LqAbXP+fWr+ZYHFWcTmG58ISIg+UOMhSqWH3biah9Jedz0V+HyJa4QscKAui0u
xkJtdz72Jj2oKXoXnr8k8H5Sv4hD8gJrrrszoXVFHs0T+ClaKp93qkJ7b7FN/e2OJ6s87SaOVzKh
PYKYpu3e09e0T3HirPvMUYeD4bcL2ZAyJf5VMMoREE6nEcdOsK5dOJn5Dm0neQFXrvw09qVnLXbe
SFQwJb4EaZ370rOoMbn5AjCsxNx6vpqvKAfFAzPQLtfJTEIiaygITEggrlRofuOEJ8ctcflmJ3xR
9RHL45g54qnByuNyA6HK6yqkb+zeFsY0QzcHjDdFkTFDgWNMKd/N5axhxSSH847J2Ypgx5cHRFV/
Dphv0+v4IvqCjZDoullohEVXcmw6xXljzM1CfMU2f+R2a2wVUY9bUT5ySNjwusk3+YmBJhe9TbQ1
hiN2bxZaXhhs+HgaFsrxeNdJZ3dvjSMijfWI4D7EK2l+3PDXrSV6NdhboK5psIOJvCCkW8qLR94F
rZPyyFc8uMKmMnEde5DQQJ50OSqG7BM2A+2hY+1ffFZeX8DAIYG4CEw59ux/3hifx572Wub6MxLe
thNPhuAyUshsvsz4S40HLWi760YZKf7dKP6b6hKPhxik0mugS1UYY+qu7cXnqieb6sExBcR/uCjR
jdzy1SVODVlb2m9AwfAb7MuIBljD/nyBkXpLuAbacQo5e0u6SCi2q1S4Tnq7T8uMNE2OaqIBekvY
AR0QaUlXCg2GtGqkwIisYo43GwP1iI6+GbIkkbceMZDOM3hJYqyZHeviDlWSyFuPOHQcerCLBqOt
Tu6SRN56xFTCtW4JJYm8qxSVADNASWKMXuirR0wxy3wSSxKTqT/u+PaBShJ56xF5PemYLTx2PaI9
HC938DRkV7nIGNNlhdEEPfbLCrnDdqNdVkii6slm3qiXFfqFzb94WWHChuS4LitMkZP6Yi8GHNdl
hX25HP/OZYWpqKvDxn9ZYZ8tMNplhaExhQ+aCZrWdEQJFcuhCw+dOrDxnGoVe+HhoAVlYzrVKnjb
YUzC5eAXHo6U2st/4SGzAJD3Np/kCw9HP9WK68LD5FOtxnLhIfu2Q2f/ZuQLD9mJkV5S34gXHrKt
+WBy0ggXHroAI287DEWghr/wkJ0rRetvxnDhIfu2w1Fjne6Fh+x5pZIuP+G98JA9JQpmDBcesm87
THHXeyZceMjOaEuFKyRHOR08/rZDH0GPduGhv56l/7bD1JDlcX0XHrIDEan4w7MGu/CQaV4VKQmM
4cJD9lYMJ6UlX3g4yD2FcYXBA9WRRunAyOD9MBcesnuJrFgZ5sJDxpjAz+UQnXwXHrJvO0wxCjH5
q9V+VxMuhA7YAknVaqwLD9m3HUauzTAXHrJSvMm11f0lF8NceBjF+15Ci2dyDFlGxg==
	]]>
	<![CDATA[
	t8fszxcY6cJD9l6ZXxGMdOGhh/Ao4z5q63uoCw/ZvfQHuoa88DCyl3Hc6VUNXHjI7oVZSlId4MJD
ntTeMVx4GODHvtsOHTttTPwYd3q0f0NypAsP2bZ+KrJoaYgLD+MH1n8g4DD8aF94OKKpznvhYXI5
9lguPGTfdpga8J7CIT3uoHHbf+HhYFcUhrsKHwI0+oWH4dLg4G2HqchCzCEuPBxBpg1y4SHb+EnR
I1tHv/DQHVjkbYeBncJRLjwcsBZ32AsP2bcdRpPAEBcesnuJz+UY8MJDVi9P7dQfsTsZgxVesW87
THGdEs9x4SH7tsPI4P0wFx6ybzuMVmtDXHjIvu0wlXBGF3/hFfO2w5TvbLuRLjzkjXWOeOFh7GpG
HKQ5ROGVc+HheFIUEy88ZFuMRKaN48JDtsXo3ykc6cLDPmwGbjvs31gZ8sJD9o6PmziWdApX0oWH
7OzjYFR9hAsPI5BmsJA25IWHbAWf+iO+Tnd1kAsP2WNKeWWlo114GNYVwQOWXTAPnY/YSOQ65eCk
k1nnxP5Uies7Eg6OFzYJ+f7BIspyKAJW9Ie8nqfrwc1ias25KctUTNt4mPPhZlU7aXooDXmrWIW3
Y+YzM72tq82rDDw7a3mm+lO12G6vyJurFw832cx0w1Azs4tiOTPfPPuVkRfPDnNL9cXN3OpKez13
sf85K24dtRSxbG2ti+XN/S1xe6F3Kh4Ym3fiwd3tq3g43xHEs6VZTTx7WiNW58XvlzfxcrbxKV4e
SD/iZWtvSrxaeymJD8df++JDV7gWn3bzDfF5/nRafF5+nGu3j/Kz7c7Gg97uNGd2273F7l1nsrX5
LigHZs8uNf1onqzqs5nDi81p2QAw2cps9WTy8vZ8darRLpRnZPXpaPb5bNGcON97zefOyyezq7+W
q3rOrUuc3aneb+WNg5nfsCy5Mhbg5TPt2kNh+rh2eEqcgegAsb/kda5WtzK5uvorcEEmXrepzt3k
lpfzi5H4IuiACc+Iz4fZX6G5ApjQdHNLryr8XFxbFcvnV2Vxe7J50u6YV2+kttUtVz3PrRTy5KrO
CVohubX1u9Du3DeX8Nlk/8HNlFs8q2t1peWzq6mNYUdpDyz/nk7QgKQr8lDu4eWh1/R+0YXDq+tM
Nl/BEiws/d3DP0t47ehJJl+YeUTMreJ9pPd42aiFA/RE7Ay1carddZOs18Z386CzsX919ZgrLUz3
ytmd3V3wUb/vy09zd/vA2jeabdlMobABv/x5Mk891FXtvoNfC7ZI1nZm3U9ZvNmwjoEjvFdoZ57W
IoMKX8CvC/bXoiDgV8GLC2g7hdzW5fUOjuheWbtsbRZrlYIkFlbVrDvUB/Etm110XizOey+krcfF
ZefF+oL3AvTdwSp5QShttSz43j30HtedHx2I3gs//O3FOZzrnB/09nrOQ58f9HYZC5i9d8TchscH
BaopCtvHIp5ol1OmrO8ufL2QsfN5EDFdy+7jpJjDJgvwx2jA1928I1V6tHwKnh0INGtIWyAX+cCT
UxFFuAR/3vDrNe1XWTtvCHQN56aEOeI3ioWbXbKaAKYoLdlQb44FAkbZNBVzqfo491781Mto2WzW
zUnTR5lkfVHA0t7CLq6jCKDL00JUl1H9ka0Ini4vRK9L/WJlsbhxMbP0XPw09lsb5xuNK8JV8ubd
/CMl47nX69r60kGmDRR2TiqLHSJ79i/yy4FHMhXgUeEbnp0KiKUFLCSao58qE5d58gmwfjZPP23e
KjvI8zdATcu75BOAsdf35UMjfEPUkFj4uhAwSCLBypmz5AV0vpGlnypTxRV7OF8V2R3OC0C4WHNe
fKjlLfkQOfhW88/mRVm7KKPz9Azv9Nt8qVBZnln8aMxelJe31N+eord18fb1LzuoR//YwULHcDlY
9iiS8E33roCjBNN+Y2Oeftq638vRT76Rdz8U8kzevMlthYaj337v1Evv053z9eW1a3Vj/1oE+ak9
aCBVfmUdYaPM1KZntl6/fiy2UvfMALFQ+TFdq+QoEMcilzR3ZzJzy0cqyMjZS1t0ljJTJXPZFaJr
+G4vs/DTOsYXayhT30DeXu9k5n8m2/1HKxQQaZNZR+wdNmz+Pq7Ok1lQ/8amEULieGQ+FnxrIulD
WbvaqhAaRbdLsEUnll6D6FwIis6CXMrf5cSCtrLgrP5O3rljBR4XBbSYrm3hvL0/Z/vlWrkQHRHW
dsU+EiAvQNjicS1CSM7SzeLJLIi6tzsyaGnhIIcpsPt5Mkpp4WOlUNpbboohEYtpcPXN+kSjLOWn
dj8dVjyaIwtEDbjtgwmBzJDMBmQrLvIhUqEBRLbeJGIVpZsIKD39oeJUe9lHS+yIYlPa0Q+8zukq
SS+P0/mQ7dh3QNNMwOB76rINvuKmIMpg8N0cbSy0xPWN119H5dJaTtvbWGiuz5XP14ybjR39+Wjz
+fAKt1etLfN1Yav9uPi4dHvQWN2uX17fb+xod+J6odP6JEajr7QfMDyLy5cj+tk+5KD8lCPtfGJv
slUsbn7NNu5LgjHbATBLVav9tXHWy3waPzunB1uVyqywdfs28UmsCJ+FN918KIZ8E16oAEafXDw4
XV/cqtY2v7LZX1s7JzVp/WejsFHa/a51yqW6tOnYaaUaYPq0ixekH1HbabU3k+EATUigH/rS/lTp
vrS9vfK1cV5SfgaaMPZX8HwpX0o8imT1LOscGFGYwoiZQLhQnl2dKDnya7Kzlavdfm6cX161BwJt
z0YGaSjtBpwiXtBXckkQlq/KT90HaX1p7+s0CuvUho5B/NrS6syQaz4Cpc1/dPoS223RKc/Skz/s
Iz4OGygU85QjxbkppDRR7JQam8cn6w/lkqY9b5wv/c6Wdu/0PQCdnQDtURZcpvwhGo2w5+rF0/xW
1HJHIZxK6KFx3o/w7qyg7mx8g8g6UyNCQ5yzH3Lq6Hg4s/8XyQ3AJM7+3vIFAla1yx8vrsorUwGM
I1YvxFKv8nlFxOr6+3lraav98HKs1V8ep+DFyfF6od2d2nw+ks/K1qS2WramTt+KD3uTO0u9j9WF
TUFtX4ILML8dhQlqQ4+f7UMk6KtY4V2HqSmQsz/3i0qx9LRxXny85yBBAOOwPR6HM8Tqc00YtWfM
nEcgvL4JAxjGnIHc8o28CX7IdKPUbq8t/hpy1sT3HGClQbC1piIkTsLUEyhtSInTJ+IDW3j8Un5Q
te6jNH7NzqFgQqhHEvg3TJnQhNmUNjaNik5h8pw5yI0NOuUeBTbKSkfy18iUNrgV5wibKBFDXG1/
/C0igLZQOpXRtTvK5G6z6xhULOPBeXv4dRYjaw8YKTsiTuGviaVM3swfZ2ZbF1PUFQTPED7J5TP0
B1d9TuFcu72QWcg8z6JneNkXYztZAW9t5cY+Yg4D1MSDtG2BJWXtvLterJVn2uuXs9c/682d9k35
aWFncuP4Y/kAcKNOld5/dU5JILmTeZgt2euwcjtJbAZlo50pBWftA03MwX7oHuityvPW13rjp/AM
8E9veG2Mwud0c6EvcpswZxfqr9L7TGsSBfwLwH99GsCyAcCNdtCyGMyk5DCqnBTFOJNyTLoNo4Oc
+twxqjZnY1c6FuEobEbA+ZjU2rjUaijh8l+xogDXAGY8RgVbo6NxO7C8/Zcddrk743feSMiLj+bj
3ajBsB+GH5q1HYEau5bJzD/WWy67YRCyD/EkbFT5KYRlTyDCqGfmjm4tVCbr+GcTtcYR/To/O7mM
6uQAFdEB6pR9om9eBQE10Bk+KWOAchF3ecR/Sd8MKwoc2ev3aUOyN+WcDDtmnzYEOrSLyy35L6vr
l/sru8CK55mtZ/34k61qyVaEq23/t/XNOFSdf8Jo3DLnjMLmZOTADYnZDLjSIOUvp0rM+MHglCa/
Ps2vL91/PpWE0+d28X2l8TK4ZdVXSvLv2DhO9gMvnw1Jc2hyjMriHDQHYAbisyGZzA3ej0GwjERp
gwiWWCYbVqYNyGQ055afz4ZkMqS0wT0Y3NuTN68/w0EEfy7N2oex+HByaG3s6DpmdMG/y5ubz0eT
R+SJtWX25G2tJ51tXW2eHawXumv7GzvahVC6LV+ewVexvDjTLC2WJt90kTdYONgewdAhnCiT418I
4fxbewQha2vgPYJkd/Zf8aT5LGwqocdna8Y4OShshvYu+Z0stDqHC18ORPjc8bRudjzxtCF2JflB
s+Jpo3ga/7uRW8e/cuNpES6eHU/7suaHiqfNtjP5Peua+CtIaeC8GGP0ZVx23yg/fdXnyxv1Cp4v
wMHs5BNJR2z3ng8MN2VE4CV3Ygv4KH42W6xl7uZ45ZyXO5ifaxcXhxc2+trp/P3G+cXvRy4iJ5/K
Txn4tLTgRTKG2I0aZsIOpeXnZ3aXhlVryRMmWxGRc557GT560zdhADOeRU6O2YxlkdkTJpQ2jkVm
r3CK1nuOvsjsFR42OjjghF07bdRFZk84yk4bapHZE6ZO4XCLbAfE5MA2vz/BH8Z0UvTvEcwGxptr
+H0OctCL7wBx3DS3VULOX6lApHZf0at3PrSblhrIwS/89qwdsTqhFTxY5Nm0elT65fgm7Zx/nKSD
5bWzwFaEuHu/IAT7+LStKNukvgjcNESUb2fSZ/XO3Mp7vvnTnPLlY6+DX6ngpUG0j16gj52ZHX/+
o3pGL8shicq51YUjGa/pxRTBnRx+EtxnBfcZOdhsdeEM1Gs32yYJl6KYFW5DCpleNzS9nHm2L6t5
XpGJ0e7e9HQPi6ZuwwspqFGz395msTr3gLSUoZn3y0vfpy4T39A8+v47j5ybaMjabM7t55wqg50H
YeL3haPRBUxDPMFMSDKiuezaXd1HUOS6YoI0xTj+stP65Z7kkXZu6fX4EDM3J5zh+C6Kmvch4a6t
vNAdD4KHRcnDw1zx9u3RwYOQD+BB/XHYeO7RjwT545eLhFs/EmA4obgAOZ+YjYfK8hHBAxmOcleX
TA8JtLjHB9WubXgIyDQmHgSPC64zzcIWRUJ78+aOgxioJ73ec0i8l/HwkFE7dzMuHq4ZxICn4ziI
vI+iJpvSmH2cNdh9JHbgnAAzSh83LbeDeLaw1yauj/ufEQdBbit12XO4PkglZdJESAeOOdjfR7U7
4kQ+fXRlI21g0qpnBqJNnE2frLpsDM7ngQ5umqEOXKTx93HfGlnYnDzFCCzeFTl5aUd1gLMJ9HHL
6qPaSVyR+SlfB2vFn2Yo4fLkc0TSOvnqxXZgp/Ym99HMJGMzXgdSU7094fRx8+31Ie4c3rwGTKl7
l4JufOMNXuqH7Z7CVBJNaax53bwMIYBClHZTjSQUfnK/+YykEgw/cPP+zdewVOJR2k2jN+JE2vEC
iJfSbnoTowyCUNrt5GQS28mde6+PzOzl55l/EC8vCQLI1jcsZLxUf0YcxGfbr6SHWpGXrw4HWbCV
9EujO6QQczr46Q2tpNEpw5IitB3fF7OWL4qXvZtXMWx3TdMSFg6vj11PmpQWuQWheA==
	]]>
	<![CDATA[
	K1vBdjJWbtTgNlGOVDr5iwjLT09OEc5J0ylVOmtJCx8fqzmSCm5ftiUWviZoXSItlAPHo0C+YjFU
1v70u0pKSOfsOqjZH/Skd3L218Vsng6WfoVx0p+9Xyx2iTdDwGi7vrJOf5XlqjHnqx71zWF1Jed7
4SttWy3mfaWjblEeAbO6W/DXPC19bDg/Opa8alDbV99emfdVj/pAbxcXfC98oLd3BZKWMLMwL29e
35Oyuzmw6n8DeWyfSuSrsnaRga8n617nT+TEBXhWJvWe8+AqVDeJR4CxAnQQDkyw149BCp8cF0g5
KdmKuP6ZgicXEi0hpZWMJ3dK4fDsS4Gfn8MSTC5PkhJSu1by5sDDzbMDhlGKGMgd9Jei+WsQLRhb
o8juiN0LjaofWIEwyNye+csyt8vrs9Xz0u6bfU0rzOFackj2XPZYQJ6rP01S97hwU1F9ZaLBCsmX
Y1oaapftvlwU7Grbl2tRejnYnYNPd5JdJvjyKK9auzKszUtFcT69qaQDeyG/TvO0dBSP84Cv1wRp
9Odfd6Lz6VHyVYq6tc7w4k3xvXjMKE+0IPb58Gfans3Xtz5cya/3J1yf2732av9ebdroPorStrSe
hU8Vyfn0hvrGa2oX9nV/q30j0rqX5fm51SXjMj9xWH4+nCZ1oZvKzFPHEPe2cxqs14NuF8LSitLD
RuDsBxIfsWWVXXc75xRunjRtRF5/5Zxa98cOFU+1iZMZVzx1bKRpAr3Q3mYtTcWQm0YyIWmtoraY
k3amfqO821nwStrhR5d4EMYOOWVjHY9PFwi1StuPAh4eu1OIOSt4RyRHcfjPvJ9x3u1TAS8tiI1n
R/Luz9slmcXplj3o1XUiALI2mkFaOfWT+4Kv+n+hVRRJESeVaSHRtbdmLzLIL2eGRzl/HecjicUc
5fEShba03Vos4Ff4Y1zuFJ+/Nqp2dTqILNIzkgB27oku59Ckzv+7mvpD0y05LYn4t3Daq1fbx+3a
R62RBiG1lPqjsLErSReNt2a5Xa2eV//ulpqvve9qo5teTBc2zoq7u6ZWqr4236ppeqKN9my4IiNv
T8WmcP9RM4HIItlx2iy9W9tfO5OnK5XSu3iz2ndehbKzgptipylaW7xMcwEXPmvw7vldyOR6i2eo
ZUuZvHgooyaNPGvVFyK+1b9vl/PP5aZxpYhvoXQIYg2srrxsLLSO9tb3rc6qubN8JZSbt+rlVvv+
Vizdlm/OyysbK6+2MDquXoB9+CCLeyeneFa1VpCfMzvH0sLs52VUhWxQRvsrZO1AdmyF7Ko+XewB
/Op1afKtt1V82D691o+KbxPrhe7y3nqh87ZUtia/Trau1hVaFAtg7LpYPfNCjIRQXFvKfRl42/fN
o0Phhw1PxXn1/OAn1QW73pqeUnHTtkVwN2vn2z11bXYHNnY+SVlUrFkbVZpBarbxMMPdFim5Jl+B
fe/apNTa+Vm54NZiix4PoRwArLpm0P6cn7+sbsV9kfO/OMi9ui/y/hePRtV9UQiBaRU/3HeS70fb
mz9oOB3N+59dZF/c+ugF/4sP9c19IRBJD8y9LjpV7NJOvoxK/0iyC63XTvHrL3/nLx85jA/+oqd7
SK9TxqKtNxYOm1Q2vOZXMFz6q0CCutLr2i5i7hftFMG8/rog/So+22LnqW0fQDKXV1G0nOf9enlt
fcnl0dPNuvAxv3Hy+n5Q2t/NnHlkKTo3phdT4YPaQveHbMpzO+XlgbqM6s/Zj7K7/HWw4kkSrXsy
Vd1+uDU/Ns56U7Wt27cTVArnkkfG/kNJbh4V1yRRfVMvrRmvmG9nr9sVNYLl0q8iStyrgsMAV9D5
y8McfpIcjXdFTklo4ifF/aTSDraWvvEwn1u7v6fXskL55tY96uVWdD/5aE5+lh/dczZuFf+L0teU
Y2/81tzDK3R/Oln9DM+A2Vqw5oDFxcspv7yj2wggkpzDDZw/9qli9il0YAP4NJkyM3eMeH2APzdX
eCPBg0Q+0dk8yP6mhx8qPlNDI8Lh/Co/X94USzlzrlzeOrw0HSvnWxOrL4s6OelCmVpefkbb6pbj
GCD7+KpN53gMPOvK2TUL5LsZs4szTVndutr8uQTROV/KWZq67AjR1hq8OMTMTlIDC+9W1rxkttWf
qe8Dx+R19yXpou192/ILRkxNosrEHjndJOc0IQW7CwKiGTF337Fz733n88BXo01EJzF+4M9KKyA6
z1TbGVvM/jiG03qe7FCiqwb2zsJl27EjjWX3OHpw3u4ij457f1y/D5MAvkBhW4iQszkqYp0RP9ji
HHw4ezZZ3BT5oidTBKSs6Jorb6FjgLxjKQBBpkTRB4IVzx75OKaClQhAkKkapTSUqERqTq07x2Ns
H4vUX/N5id4xQPbmKM+xJ4SQUt4Z/h7LhMXUkc9Ymdp61Lytxoi9yrx/n/HV3A+GusjjTDfrxt06
J319qPPbJMfU2VZtzvdvq+YPvQ0lOWvdKIFz4uGxPpmZ3pxy00ZfZ/r62Cz4+pDK19uSx1+264GG
FpoLhdrqxRax9gu1hcVVCuas5Ty+/CGPicVQqB03ci5P7wMJHO0HDBL+SGHULgFxpHBK9j6qfW7a
/PrVfMXZ0ZQEbycvvJ2J7BbaziTmIP+O5tyQO3m+vCFpiE0GPxK+zJaDhHXFhwTcZaaOFMGDWvDw
gCP68u1ooguWsK27tvjVcJAwH9xRP8z7c++H295eSY7tJcQH6S1VfNvbUcSAsbJZ0gGSgL0hHUVQ
zD7IDSF0MZI6iNljxxOL5nj7iOzgffZn3mMLJxFuIM7Ac5JyAw0CwPT1sZhdGG0iRSEf4m8HafwT
OVCFwQcRTCAFPVoYibRA34pRHQAY3j5QNWdj+ZzN5I4iwMDG3JB92B1Y3fkRhQ1GUnKRfXCSBfHW
DnILiX34B9GHzQspz15SIgVYeSBo6AxBWv4OPlZIXGCkPlpFMRETku2wx/SRn9qVaHLvxPbOptOH
Pok5Oj++duAKz9ntyr8lrx2mfT0HKW37YCKeUHjmBZZgvADyURqzj0chmko4yR3BgPWZQChJg2gt
JlAJ1TesPtDgHYlvd/Jl0aW0ISeyox9IHIMIUFrfONZO5YRBtFcLktvBjtoVLpZ9Hbw8Ts/7lPRQ
yHj5yOV4B2Hrm/5xtKSRSAvDOnmPLOKVNGtFXvMrwkCZbFjlERJir3qxMIwAIsFNcFmJ7ei5x45a
M/OZV7W0lnu6Bp96+wA8aWvS9vfBdXUDjvckhk2DWvMb9xs5f+rvVZaeCum5or6zYY+rDYxyUG/4
+isvP+28LWAibZ7GuPB8SBJRsM+HvJgg0cxZ5/RG+IRnsZM9B+pnuxsONERJg/swWNvFxUO9qzR8
6Tk0qNm9sKF/qKE9BN+L4rQbO9xfCAUhLyQ3fBjcS/hYeff51N6L0DGQ1GE+mHADo0f+wCjIQ3+g
68gfGwUxhTGeIzc0hWdBYnAR2B5NL98xkG7nv3K0CTADEsivvOsR0IMMVrN4huovwY5S6kXs6JdI
NzRed47JV7vf19s7yTlQt5xzN0dpDECe0xddxJwLwdPtnPBSYrSrLxDiRrvOCxHhKl9/Pm+Nu0vR
16VUmOws5y6W2vrqhXq0YTy8Ze145u1ZxtkNvQts4j17RCbP9d6+3Ojkgj9yubOCpu+VYEcsb3dp
HEUuvR5r9qf6hWx/6t09OqEheWuu8kRrRbfkD9z0u9LsKOXtOnZ5C39e5Kb8VD+gwWv5qXdqd/48
d+3S3K1/b/d56e23+0JNBQ7U9WbzfJUpDhwWnnH/hMPMKNOme7tuyOmhQDl+Rr5Q7SNwl+40+1Op
4sZVHxS73eX3Rng4x8Xzh3KpPvG6cXp+P7v1kl+/sje/l1GwOMdPd1s6DcFSwVZ+0gY61TbqSFua
ET3WU22jjrRNudfXj+1U26gjbalaG+uptlFH2pK9tZFPtd3AXVI86we3Qp+2Gm/+bVB4PA2Pzqrd
Xos00Z42qx+1xkHln2o79YeUpv+J8B/+Nay0JJtpWdPgi4ZPD15Sf2RJ67Q0lz4A5SWmN/DKhqfC
Rrtbqr12a81Gpf1PepE8uz48uNgtpRfT9DdP8JuldBZGJj5Bc3g1R/Zhn3C8T6Qv/HP9F/lYTf3R
cz7Mk0/H+OcD/9AxQtN/8NsefPoNz/5KS2L6MH33IKbfUvDyNPWHrEqioIiKYmiyqkpqWhF1RdAt
UdbBgBBNOf2NjSxdkGRLNXXRVCwTG8mCqZnwj0F+JWu6KVjwVtJU2dItaKHqgqGIliTJmmoCknRF
FQxVslRF0SwF+xA16EO2LN0EYEYaJJasa4YgaZKpaapuGloa3kqCJeuWCj0ZlgHdGIagGKYFoPG1
oQqaCI1lXdVVhGKZAFaWJF23LFmGFpoJUKAzWCVTswgUQxYFWdIVER4oBIqqCDBQFXrXDFNKw6wk
QVVUURZheKIFLWRdsFRDUhUcGjwwAE2aoVCEqIABS5IFyZBNTdJwaASOKQoqoEbDseOPLFGE2Rii
IquGCJMxLEuADmEomqHiaE1LEQxdkxTdkMj8TckSdFEXJcC1rkrYQhR0GRZCEslPEI6pWoJmWppi
Ot2YmgCjMjARQFF0eGDgA0t10QifYT4wVkAwYAsfWLCAho0VZz6WBliVSB8IyJI1QVU1UQQUE0CW
IgqarCnOcgAeAR26DCPWVAOxr8LwgVBUVSUDgUEKMCzFNCUT6AAemCr8RJV0TcReKBhNEySgPUlT
FFlUsJEJyyGrogLjUREQ0Ani2tB1wAT2a8mCaiq6REBjC10UYF0MmLkFrbCFBoBEVZIUQ7e09CsC
0jXsBogGSJWMF7Gg6pKoAQQC2ZCQjE1FRTpAtACBAZUbCjCDgsxvAWplCdBqyColFVhDEdZeJ4Sv
UEBAtaoM3RhAUwp2Y8LKG6ppGJZMScMABpIsQzFxdGTO0K8IZKCYSO/4QIQFgck4pGCZEqBJMWBZ
VFOkJAfvBSAfU1OhOZkRLBmgCIZLOka2A+IHLhJFWF0FV16HoUiiCvyMpEzHBtaMjOOQZEKEQAow
N7CaYI4SBWTKOAGDcBWws2wApgBxwHuw2BbSBvRraTKQuyZSplJkARCMCLC5DpBi4bxsZCPzopjR
NI3M0CE5WcQJAATEnI6MR9mBEp0JwsmSYc4OzwA3AbKBDWGMlB1ABgCpg6QCskfcgmwTgF9EwJoL
yARAIDUodSBedBFki2oPBigTuBVYD3AhKbggpIUsiD5hBcgIkgL8EWQAIhGxolChIAHnSRLlXwkb
SbBkigZIkCUV8Y8iTlOhgShS0tUVBWSYgj81VcQ1jEcAGWHpKA50nJAGi6ooKnCuARiislQGRIHI
0QDx9FfANBrgTZNNylYgWARgRE0RDRiEjLiFscEaAzAUYyDWgfF0EHqSCdKEDEU3BBANosN4CAho
DSgKWAuWnC6AAbQBcg64kbIVSDiYM8yJjAWnCNpBA9RZwBOE5jQJqAeoAISuTQuglw==
	]]>
	<![CDATA[
	kEIspGOdym0YvCAasiyqmv0roDlM/SGaCn8FhCGIwKuGIqlkpQGmIGsWJX5cVZC2ILcNeAlLTZQ3
/EQFOQaqycL1IIB0HeSNposGTBXFC5AKrAB8VmyxpQH5A+nCS8nuRgQVotvajSAB+EyEdhKIIAmJ
QQXZAvMDDABNG6a9RiDeLQNGr0mE61XQd6Ypw5LbgEB5wAMLVlCma6QCdxqOlkG0I5qAZOxFxtc6
jAz4UEYiJVBQq5iAA0uh9E8amTJwtyjRhQexAWpE1JAQkCixhQLcojsiGOSFYACB22KBtgC6hk4s
nDMRcwYskASazRXcIHVQCnscAagQgOMkA2iKCDEQoyBPQZ8RikNAIGxU0L8gRygiQQGhhgBFTmSw
y0QKaCjFIVQQRCDJJaAKWywbkoI63qIsj4AMUMaSREU90eC4pgrIXcpX0AJWXVbw55KjwGE+QCyi
6YhtMDKAAgEPJjFBsBMFl8dUiOFjYAsZMAkSQVLJKkMLkNImKE3LFmCACBQj8NxjIR1lpQKYV22R
paogckFvylRMI8egxQUMJhJhAi2AbnVbWBFKgO+wPrqkyZQSAD/QQBSp+WHYhI3SFG08SydzVhRo
BEQmkxkhf4BGBzEAq2vQFYOOQTxZQOcmXTGYiYB2g8tjMDtooZu6DblILEYQPrCmIPxRfKaRGnFZ
LaowEA0mqHBgYKpr06jqgD1QphJzAhuAMIKnIBpBDmILWFLgJpBJKOopIWAjP9tJqJ8Babrp8CFY
BYLiGAYgjIACgDIACSA/JZUCAjEOXdg0CC3AmAUFbjr2IQUEhoAKSy8DVZnYRiU2CtiBus0xIioZ
YAe6hLBswGSq4ikqMEaAAkFfUw2OLUCe6YBVjWpIAscAXgVkAonKoPnTSBIwOkkHY4HSLdIgQAD1
pSI70xYSSBXN0ehIYSLoC5NMUaKAFJf/bUCgDYBrgGdgQHTWYPOC/DXJsmI3ODwQySKV29gCbG/o
AujfXiJUeEBIRKBJ2AJGDwSqKGhJOKQAw1NAfJg6sclhHWW0FEC0osBF1wDMAbA9gYOoXIMWaJKY
6FRQXwGmi9JV1eC3iO80Gvio8OCBhzrgZcGEhdYNW6nAgAVPGcCMQKSDOJJBK6KqMpG4QSVaoNiJ
8Qm0DK4QWl2GRW0FyiDgfUC3aKlRLpLRRXLhIBcZFqBO9IxCGZkT6A2kDfV+VJwzGMKuHQlIIgag
jt2QVVUEEOOgfInkI3AkNKdhRmA0gX40qHYAjIF0t7UkKB8wFUBa6qB5RWRO8BeA0C3JMeNBdgFu
wcwSkVw0qgDBEBURbbaYE4GiNLTvQLSIKtFuIjpZMEZTxnUFjWsgicGPwGQmlg1IaRg7KHVqtgM/
AZmawKrADWDDosCitg8YwkRDEkDgRaEBJ4JcA/mIekcHHgFLCJSGiCskgpgAkYbLDDxPPDHgB5Ct
VIHghEAQgjNnUQfONsuArcBcA75RqL0ton/giG0kIBPtADCLqXDBGYEUAKyC1QUqWkQzEh6AgNaA
FkxibyOJgTrRYEE0In8sNKiQrEFmAeXRJQIOMEAsQqcGsiuQCMhPQB14t3QBYErgW4L4BEIGzkED
nLAruJoaSHyYoozmKXC4bXpCCwXtJ/ADwSyRDKohANXgOEGfZO1M6mCjq2MR0weJG5ELeNBsJ0mB
l+D0QTcainukZdBNIq6URk1PaAFqB2gFCFx1iBumh+4LmLGSjp4h8fXRn5aJn4FyAUwBYF+gDeoF
khbAMIBZ4k2mk4MKAOgd4yklomTB5AEbQkI/nvAKOqugLUEKEo3zTRrhIos6YWQqTGH6QCEyWWKV
GihAV7Y5ggoGzGi6lqJtKoGX7JgmSNSkgRq0ZZEgXbeMDgYsI4Dp8D8xpsBGhvVE7WF3A/IRTCV7
IUDooj6xKE07LVTTFdBU4yMgzZBdWQqNDNszQmUPdGbBUiEbU9VBYxOOqgeZDGYi/liiGgxEEcEX
jomoehgnsh5odeoio8KFYaum7ihykLKmvWaEtVBpA0T418YpDBoVIbSwoylogbuWGPDVq22Vw6qA
FFWJAY3YEgDtjtuD/YLtCNBArFBPEKYt4EDcOAHIDRws4B3pRaJOERiFoJiIDKIzAqoC+ocFd/wX
oCpgA/js2PJA8aDBZBpBQfmCrizIBc2OloB5AXIY6F+2bP9YBzoCFJEADCojsjYSMiRMCJU6bYTW
GKBEJgKRupjA4Z6xBV6VACY3tVWIowRiFt7pLpkAeaC+NaijZIe7TNRiGL+hQh8WHsMjihfgwlCV
BU6X4jjn4PKhaDZkx/oyiPRQbAbCwYKqkQzPHyaGuUl0MBAdymuCX01wvAYaZzLAWFR0N/ABZglQ
HOhKFFI4NLBIwGwyDNNhH10GnYAhLHTJbJ8TA0/wS4NacQhHBesRdQhMhAZUwHJXHSuWdKOj3Urk
hB1EUlCwufxDbWzq/TvGGBpono2KzK8pRI+7VjfGRuCNF/4xwWoFUJod5sAWgGoV2ul2UMBEqw/s
D40ax3aUQ0M/VXUZ0UKXGW0bEsAw0BJ2lBdOTlUBi+BhyLbfiAMFMSy5rIvjQrcYXHcUXPZsgPNB
x1Opg4oG2BnIGhYU/U8SSkHWBTeKuid08GBSQ0MJ1xBb6Bj/0kzHD8G4GtAnkKunfjHcZYK56PIh
diOJJFRkh1uRjBXdkxE4FCBTQJ8IC0MbgCEhYrxKIzNE7wykJohcYq/S+B1YqKAVZZBQMom9qSiw
KNtSNCjgv6ESd9xWkC4CEAlIbsIxFNEg4xRgOoP2AZxrYRjI1vtI1mDRCuhXg5Cj7oyJw4XFUemT
NAmNgvAG0atTfxo4B+NsDssj5cMSa2CDEC8Q+wBZC5QE4osQMeUfCzQn2HfUgJAoINO1hJENQe+j
UpJIUIYEVNFwdOJS6AhqGPxVPVyLABhHYhMxjUyDcgH68zAnI7uA2lWIsqWeOkagqbeiU5oDZEP3
uoL2BQgrEL/g6VJ/DFEJ5h0oWKBfap0SyQNuHpCujKY/WRBwmxTUbdT8RxMQunUjQWiUwAphvENF
ZxZFNhopCg3sor4FfQ/uggl0Q+JLBG3oc4N8EO2oARocEkoVwAt6v2hKWEiAIGTofInNAj9HRws7
QQkqeOFwBCcgtYIVAZqdWslosoNrAMxBdDIOBExeYDETnEfZJC4s6DVUksiVGkKRCe+jmU4MLAAO
ZhzMGxgCnUs00mD1wNKy7LALsfUAJRjckIEbZMJ0QCnAll7cHaxhYAYQtmhQEXmASh5WygkxgBcK
qhGELN1ZQCLAWKvsk22AQlgZ3PIwwFHSqFwy0SR34pBoTIHbg64wCHaUXEg1GBOTieOVRqcIdI1l
0GAGoU4ZBBNyLzVuCSDFQpXlbC6grjH8ngFpgDFUycKYNtGmYIOaqN+pUgY4yMZAIySCjmoRLSoY
FLFAFdu5AHHuj2RouOkB/OnSOJkxrCdYnLYaB3EHQteLeYHVAsIMRBf4GwY+AKUEI3HCH4rtLQFL
ovaFBdQNnRormm3dEHktGUDTliF5MRRkdYBrEncKTXHgSeBg3BmxyAqqZEXBErRtXWKKq2RTA9S0
SGMboLrAQjbdECIQCPAGGKLQExVeMFDQLeCiOBaFgv4rjB0EDQoI9DOBuOCbs/9CKFsjnoJJA1LQ
KxA6ZVeQEGAnIOLpZgZgEkPnQJ2aEwOQiJwAX4DE+GDyaHCC9WSaXnxLRQcTdDQN80EbEd13TyTB
9IHCbe+YkgSyI9itaLfRYAQqOECegaE4mcZOYEQSDQfbQRoST4F5g9mFWwMS1WewcCAwSdAPW4Bt
ooJMJhpPIjszIJ9E2ZbK2MICGQcWIlqnNAAjU07zAQI/nPpDskab2KEIEglCexc4iARoYJnoe3Af
bcVEY4S4TSHTXRjaAtZMpIJSsSM0INRAT2kajZpLQHICjUvQ/QcVBbCMzhWNSmPMUdBRUFi2869i
gBwZ2FSIM4cePhqCsj/aDW49MpdJQuvEBzcxDmpHZCVKvc5sCGAgfrQNwVWTRBo2AcBg/gLLkb2F
NI4BRJjtANrWLolcW0gLdowfxCIJKni7AAoaUz5GArUkgH6RXS9JM3BjEMjLshdUQd9TNyxN1zxr
VzTQh1PdYIuKQhbMUqBPe+cG5KVkGxs0mgpuO5hrqOQUGg5H70tx6F6xw7o6+CO29+U4cWogmmrg
Rg3IU9M248g2MZE/mh2aA2cJ40Vk70pOJzul1IOdv8D9dfBiMdYPvA5yBOCCBpTSMHAwkWHOoN0A
gzo8wAAL0j6oaNCK2AQDIYA3EUFBx9gGTWUNaBwHAzJKRDvJ/aoq2AYWBZGPMWUTcJm+rvC60Ynz
5kEdzwokL2QiMXDRFAdpJpI3F5dwMFsyv3JxfbLwSJQ/PFIsWRgmCFMuecwj1pNVQ7KGSdRTiZqO
R18mq12GyubR+MmGA4fxwWPDJJtCHOYUj1WWbNxxGIg8ZmaysZpo73JZzcnGd6IBz+EFJHsSic4I
l0+T7Bolu1ccPlqin5foKfK4m4k+a6LXy+c7J7rgyW48VzAgOaSQGJbgim5wBEkSAy1c8RqOsE9y
6IgrAsUTx0oKhXFF1JIDc8nBPZ4YYXKokR2q5It2JgZNkwOvHNHbxBBwchiZLxqdGNROjIvzRdcT
g/TJgX6+/YLkbYfkrQueHZDkjRSOzRiePR2eraGk7SW+Xarkza7EDTOufbekvTvmvh/XziHHBmTy
JibHXmjijirPpiyXGw1etJXOzqWvr1J/HGzamfdbjTeSFZ/PJ6bik7w+TMeH/+vPxJeHyMSX/9cz
8RUUCUmZ+Jjsy87EB6qT2Jn4KLoSM/GRgNmZ+MAAIiMTH0SmlJiJr2A6ODMTX8F+mZn4CjxPysRX
MXWMlYmvkpQLViY+5kAlZuLjMrEz8YFdTHYmviphmnRCJr4qoXaIz8QHi0RnZ+KDSawnZuJDI5Od
iY+ZL+xMfGihJGbiQyOTnYkPfoDKzsTH/PrETHxQcSI7Ex9aSOxMfLTAEzPxQd+K7Ex8aKGwM/Fh
YeXETHzMdGdn4quYgsTKxIdlFhMz8QnJMTPxVfgFOxMfiT4xEx81LDsTH1eOmYmvIJkmZeJjIiM7
E5+IOGYmPhrgiZn4QAM6OxMfCMtiZ+KDwSQlZuIDMmR2Jj7QicXOxIcWamImPnhsFjsTH8hKYmfi
w2DVxEx8BSukmJn4Cnq4zEx8QK6SmIkPQ5fZmfgYkGJk4iuYHZiUia+g8mJm4isox5mZ+OiLJGbi
QyOLnYmvoKZlZuLjCBMz8QkTMTPxMQTOzsRHpZOQiU/mw8zEV9DxZGbiKxh9SMrEB70kszPxFayl
Y2XiA7tLiZn4QNgmOxNfwQpDZiY+sKqcmImP6ebsTHz0qZmZ+IANIzETnzRiZuLjxhg7Ex9aaImZ
+ArWfrAy8RUs/WBm4mPabWImPoYF2Jn4CqmaYWXiK+irJWXiK1jDw8zEV9D7ZmbiQw==
	]]>
	<![CDATA[
	CzMxEx99LnYmPiBQZGfiKzDAxEx8BeOszEx8RSPxBEYmPu4wJmbioy3IzsQHJSaxM/HBt9CTMvEV
3IZhZuIrJAjOysRHOZyUia/IGFpmZeLDnER2Jj4aJ4mZ+BiEZWfio5JjZ+IDIC0xEx9mJLIz8RXc
GPMy8fX+THzArZWYia8AV7Ez8QG8xs7EV3BVkzLxAZ7KzsQHP9JiZ+LD3LTETHyQlCo7Ex+RzM7E
Tw4q+DLxiYJMSiEg5gcz6ENasOJG0EBOjD5hrgA7iEWMKWYgTMFtl6R4moKV73EROaLs46N5RNUn
RQRhdXR2YBHDkOzgJIqAxBgnscqZoVIFN6aY4VboQ0mM2uK2Dzv4qxgkTsAIIAOLqolxaIJfZjgb
XQ52SBzkgpoYWYe1s9gBehKqYgb5FYtID/ZegYoql7XjoOIuNHPTAoS0lbj3gXuY7C0UWF2DvQ0D
usxK2MvB3Vn2hhCspcreVMIdwsS9KSSJ+O0teCuzt8fIQJN22aCRyN6sIy2YG37ovCbuG5JwF3P7
kbRg7WCSBkn7oGA6GeztVFhjg70li9okcWcXyE1mbxCT0Chzk1nFhKmkvWoYu8be8saMMva2uYLI
Tth8V9BQZ27hE0+dmQaAMc7EbAIYlMLMSVBwF5OV1QC2ipaUGqEg57LyKxTctmJlaGAKV0KWBzHZ
makixF5nppsomMmVlLWiYLIWM/kFrEGFmT8DmFIScnDAOpHYiTyYGsROBkLPLzGnCMYkMzOTSANm
chN0bvhSpKTIHCmAarEzreiUWdlaIAWMxKQvNDfZuWPgdBns/DMURolpbEid7Gw45Bl2Rp1Cji9J
SMwDvpKi8/oUHdOsWDmBCoaEk1ILFbR+WAmKGEBgpjhi6mxioiRpxMy3JC2YOZukRVLqJzSS47NH
yVtm9ikRWElJrFSqMVJhoYHKzqaFFlpiUi40MpipvSSgxMwOJkG2pCRjWDmdnasMJKay853RPEpM
m1bQCWdmXyuY8cXM4KbuV0IiOPHimPnkdJ+YkZKe7JV6qfjJeQTTJ5WP6nm7UqtjFsFHp/JnNV1p
NJrdSrfaglfpj3a10222q+nOZ/MvfII/cn8wPb11XE798f8BVicetg==
	]]>
</i:pgf>
</svg>
