<?xml version="1.0" encoding="utf-8"?>
<!-- Generator: Adobe Illustrator 22.0.1, SVG Export Plug-In . SVG Version: 6.00 Build 0)  -->
<!DOCTYPE svg PUBLIC "-//W3C//DTD SVG 1.1//EN" "http://www.w3.org/Graphics/SVG/1.1/DTD/svg11.dtd" [
	<!ENTITY ns_extend "http://ns.adobe.com/Extensibility/1.0/">
	<!ENTITY ns_ai "http://ns.adobe.com/AdobeIllustrator/10.0/">
	<!ENTITY ns_graphs "http://ns.adobe.com/Graphs/1.0/">
	<!ENTITY ns_vars "http://ns.adobe.com/Variables/1.0/">
	<!ENTITY ns_imrep "http://ns.adobe.com/ImageReplacement/1.0/">
	<!ENTITY ns_sfw "http://ns.adobe.com/SaveForWeb/1.0/">
	<!ENTITY ns_custom "http://ns.adobe.com/GenericCustomNamespace/1.0/">
	<!ENTITY ns_adobe_xpath "http://ns.adobe.com/XPath/1.0/">
]>
<svg version="1.1" xmlns:x="&ns_extend;" xmlns:i="&ns_ai;" xmlns:graph="&ns_graphs;"
	 xmlns="http://www.w3.org/2000/svg" xmlns:xlink="http://www.w3.org/1999/xlink" x="0px" y="0px" viewBox="0 0 965.404 1113.535"
	 style="enable-background:new 0 0 965.404 1113.535;" xml:space="preserve">
<style type="text/css">
	.st0{fill:#E95328;}
</style>
<switch>
	<foreignObject requiredExtensions="&ns_ai;" x="0" y="0" width="1" height="1">
		<i:pgfRef  xlink:href="#adobe_illustrator_pgf">
		</i:pgfRef>
	</foreignObject>
	<g i:extraneous="self">
		<g id="Layer_1">
			<g>
				<path d="M-853.228,0c85.826,0.832,158.657,16.959,224.439,57.837c22.41,13.926,42.637,31.348,63.99,46.996
					c21.484,15.744,42.702,31.91,64.841,46.684c16.852,11.246,35.782,18.408,56.032,21.544c29.984,4.644,56.383-4.317,80.361-21.567
					c25.478-18.33,43.431-42.41,53.743-72.199c1.398-4.038,4.018-8.089,7.134-10.996c4.884-4.556,10.886-3.425,14.374,2.363
					c2.202,3.653,3.701,7.821,4.981,11.924c17.314,55.502,20.068,111.793,9.602,168.943c-7.427,40.551-19.849,79.162-42.308,114.032
					c-22.293,34.611-50.572,62.708-88.978,79.234c-33.349,14.351-67.834,16.877-103.296,9.615
					c-40.308-8.255-77.679-24.573-115.082-40.953c-16.608-7.273-33.255-14.689-51.523-17.058
					c-39.345-5.102-71.699,20.789-76.957,56.996c-5.585,38.456,6.378,70.035,39.92,91.802c14.858,9.642,31.352,15.324,48.448,19.45
					c29.671,7.161,59.864,9.258,90.269,9.35c3.494,0.011,6.989,0.303,10.481,0.518c5.395,0.331,9.866,2.357,11.699,7.78
					c1.917,5.673,0.743,10.983-3.634,15.159c-2.263,2.159-4.95,3.951-7.655,5.555c-31.247,18.524-58.325,42.044-82.429,69.052
					c-53.553,60.004-88.091,130.09-109.596,207.093c-15.656,56.062-21.403,113.494-24.253,171.358
					c-0.738,14.978-1.571,29.958-2.813,44.9c-0.347,4.171-1.579,8.636-3.681,12.217c-4.677,7.97-14.171,7.888-18.36-0.327
					c-2.578-5.055-3.983-10.951-4.788-16.629c-6.895-48.601-17.303-96.365-32.1-143.216
					c-25.303-80.116-66.322-151.364-119.957-215.707c-39.595-47.5-84.547-89.665-129.833-131.527
					c-29.989-27.721-59.827-55.594-85.41-87.616c-23.404-29.295-40.792-61.78-49.88-98.198c-11.819-47.36-9.39-94.474,4.641-141.133
					c14.983-49.825,41.225-93.36,74.123-133.171c38.916-47.094,85.268-84.589,141.743-108.813
					c33.124-14.208,67.622-23.59,103.429-27.594C-882.504,1.574-863.352,0.749-853.228,0z M-561.638,587.698
					c-1.483-0.684-1.891-1.016-2.322-1.048c-2.823-0.212-5.649-0.486-8.477-0.508c-24.349-0.185-48.656-1.127-72.689-5.35
					c-24.544-4.313-48.515-10.482-70.127-23.597c-41.825-25.382-57.522-65.653-47.417-111.365
					c9.989-45.186,54.572-71.987,100.824-59.031c16.914,4.738,33.32,11.57,49.549,18.416
					c34.998,14.762,69.732,30.097,107.359,37.304c29.777,5.704,59.04,4.497,87.634-5.957c39.389-14.4,68.24-41.624,90.382-76.3
					c32.035-50.17,44.485-106.241,47.14-164.824c1.752-38.647-4.592-76.387-15.695-113.361c-0.255-0.85-0.841-1.601-1.572-2.949
					c-0.664,1.457-1.147,2.294-1.441,3.192c-10.767,32.967-30.717,59.232-58.638,79.456c-27.155,19.67-57.093,28.994-90.851,23.117
					c-23.547-4.099-45.306-13.146-64.629-26.724c-26.961-18.945-53.378-38.756-79.084-59.374
					c-41.684-33.433-87.616-58.008-139.511-71.194c-61.34-15.587-123.226-19.195-185.817-8.892
					c-42.869,7.057-83.189,21.231-120.769,42.997c-41.037,23.769-75.377,55.237-104.874,92.18
					c-32.718,40.977-57.82,85.857-70.391,137.17c-11.159,45.55-10.781,90.85,3.849,135.59c12.329,37.704,33.772,70.028,60.24,99.256
					c28.242,31.187,59.729,58.997,90.629,87.419c39.408,36.249,77.122,74.111,111.098,115.587
					c41.878,51.123,76.423,106.653,101.251,168.029c25.78,63.731,40.744,130.233,50.511,198.055
					c0.213,1.482,0.608,2.938,0.919,4.406c0.433-0.045,0.865-0.09,1.298-0.135c0.686-11.602,1.55-23.197,2.029-34.808
					c2.027-49.162,5.768-98.146,15.545-146.472c15.345-75.844,43.252-146.482,87.6-210.264
					c31.963-45.969,70.735-84.871,118.488-114.497C-567.094,591.673-564.749,589.868-561.638,587.698z"/>
				<path class="st0" d="M-561.638,587.698c-3.111,2.171-5.456,3.976-7.958,5.528c-47.753,29.626-86.525,68.528-118.488,114.497
					c-44.348,63.782-72.255,134.42-87.6,210.264c-9.777,48.325-13.518,97.309-15.545,146.472
					c-0.479,11.611-1.342,23.206-2.029,34.808c-0.432,0.045-0.865,0.09-1.298,0.135c-0.31-1.468-0.705-2.924-0.919-4.406
					c-9.767-67.822-24.731-134.325-50.511-198.055c-24.828-61.377-59.372-116.906-101.251-168.029
					c-33.976-41.476-71.69-79.338-111.098-115.587c-30.9-28.422-62.387-56.232-90.629-87.419
					c-26.467-29.228-47.91-61.553-60.24-99.256c-14.63-44.74-15.007-90.04-3.849-135.59c12.571-51.313,37.673-96.193,70.391-137.17
					c29.497-36.943,63.837-68.412,104.874-92.18c37.58-21.766,77.901-35.941,120.769-42.997
					c62.591-10.303,124.476-6.694,185.817,8.892c51.894,13.187,97.827,37.761,139.511,71.194
					c25.706,20.618,52.123,40.429,79.084,59.374c19.323,13.578,41.083,22.625,64.629,26.724
					c33.758,5.876,63.696-3.448,90.851-23.117c27.921-20.224,47.871-46.489,58.638-79.456c0.293-0.899,0.776-1.735,1.441-3.192
					c0.731,1.349,1.316,2.1,1.572,2.949c11.102,36.974,17.446,74.714,15.695,113.361c-2.655,58.583-15.105,114.654-47.14,164.824
					c-22.141,34.675-50.993,61.9-90.382,76.3c-28.594,10.454-57.857,11.66-87.634,5.957c-37.627-7.207-72.361-22.542-107.359-37.304
					c-16.229-6.846-32.635-13.678-49.549-18.416c-46.251-12.956-90.835,13.845-100.824,59.031
					c-10.105,45.712,5.592,85.983,47.417,111.365c21.612,13.116,45.582,19.284,70.127,23.597c24.033,4.223,48.34,5.164,72.689,5.35
					c2.827,0.021,5.654,0.296,8.477,0.508C-563.529,586.681-563.121,587.013-561.638,587.698z"/>
			</g>
		</g>
		<g id="Layer_2">
			<g>
				<path d="M379.772,0c85.826,0.832,158.657,16.959,224.439,57.837c22.41,13.926,42.637,31.348,63.99,46.996
					c21.484,15.744,42.702,31.91,64.841,46.684c16.852,11.246,35.782,18.408,56.032,21.544c29.984,4.644,56.383-4.317,80.361-21.567
					c25.478-18.33,43.431-42.41,53.743-72.199c1.398-4.038,4.018-8.089,7.134-10.996c4.884-4.556,10.886-3.425,14.374,2.363
					c2.202,3.653,3.701,7.821,4.981,11.924c17.314,55.502,20.068,111.793,9.602,168.943c-7.427,40.551-19.849,79.162-42.308,114.032
					c-22.293,34.611-50.572,62.708-88.978,79.234c-33.349,14.351-67.834,16.877-103.296,9.615
					c-40.308-8.255-77.679-24.573-115.082-40.953c-16.608-7.273-33.255-14.689-51.523-17.058
					c-39.345-5.102-71.699,20.789-76.957,56.996c-5.585,38.456,6.378,70.035,39.92,91.802c14.858,9.642,31.352,15.324,48.448,19.45
					c29.671,7.161,59.864,9.258,90.269,9.35c3.494,0.011,6.989,0.303,10.481,0.518c5.395,0.331,9.866,2.357,11.699,7.78
					c1.917,5.673,0.743,10.983-3.634,15.159c-2.263,2.159-4.95,3.951-7.655,5.555c-31.247,18.524-58.325,42.044-82.429,69.052
					c-53.553,60.004-88.091,130.09-109.596,207.093c-15.656,56.062-21.403,113.494-24.253,171.358
					c-0.738,14.978-1.571,29.958-2.813,44.9c-0.347,4.171-1.579,8.636-3.681,12.217c-4.677,7.97-14.171,7.888-18.36-0.327
					c-2.578-5.055-3.983-10.951-4.788-16.629c-6.895-48.601-17.303-96.365-32.1-143.216
					c-25.303-80.116-66.322-151.364-119.957-215.707c-39.595-47.5-84.547-89.665-129.833-131.527
					c-29.989-27.721-59.827-55.594-85.41-87.616c-23.404-29.295-40.792-61.78-49.88-98.198c-11.819-47.36-9.39-94.474,4.641-141.133
					c14.983-49.825,41.225-93.36,74.123-133.171c38.916-47.094,85.268-84.589,141.743-108.813
					c33.124-14.208,67.622-23.59,103.429-27.594C350.496,1.574,369.648,0.749,379.772,0z M671.362,587.698
					c-1.483-0.684-1.891-1.016-2.322-1.048c-2.823-0.212-5.649-0.486-8.477-0.508c-24.349-0.185-48.656-1.127-72.689-5.35
					c-24.544-4.313-48.515-10.482-70.127-23.597c-41.825-25.382-57.522-65.653-47.417-111.365
					c9.989-45.186,54.572-71.987,100.824-59.031c16.914,4.738,33.32,11.57,49.549,18.416
					c34.998,14.762,69.732,30.097,107.359,37.304c29.777,5.704,59.04,4.497,87.634-5.957c39.389-14.4,68.24-41.624,90.382-76.3
					c32.035-50.17,44.485-106.241,47.14-164.824c1.752-38.647-4.592-76.387-15.695-113.361c-0.255-0.85-0.841-1.601-1.572-2.949
					c-0.664,1.457-1.147,2.294-1.441,3.192c-10.767,32.967-30.717,59.232-58.638,79.456c-27.155,19.67-57.093,28.994-90.851,23.117
					c-23.547-4.099-45.306-13.146-64.629-26.724c-26.961-18.945-53.378-38.756-79.084-59.374
					c-41.684-33.433-87.616-58.008-139.511-71.194c-61.34-15.587-123.226-19.195-185.817-8.892
					c-42.868,7.057-83.189,21.231-120.769,42.997c-41.037,23.769-75.377,55.237-104.874,92.18
					c-32.718,40.977-57.82,85.857-70.391,137.17c-11.159,45.55-10.782,90.85,3.849,135.59c12.329,37.704,33.772,70.028,60.24,99.256
					c28.242,31.187,59.729,58.997,90.629,87.419c39.408,36.249,77.122,74.111,111.098,115.587
					c41.878,51.123,76.423,106.653,101.251,168.029c25.78,63.731,40.744,130.233,50.511,198.055
					c0.213,1.482,0.608,2.938,0.919,4.406c0.433-0.045,0.865-0.09,1.298-0.135c0.686-11.602,1.55-23.197,2.029-34.808
					c2.027-49.162,5.768-98.146,15.545-146.472c15.345-75.844,43.252-146.482,87.6-210.264
					c31.963-45.969,70.735-84.871,118.488-114.497C665.906,591.673,668.251,589.868,671.362,587.698z"/>
			</g>
		</g>
	</g>
</switch>
<i:pgf  id="adobe_illustrator_pgf">
	<![CDATA[
	eJzdvdd6MrmyAHqu5/v8DuCIjWk6B2cbjHP4nbONMbb5jQETZtbsi/Psp0rqTLdahFln9p5ZywO0
WiWVKqtKmkmfnuc235qv1ZwiiKmJP2ZmCu1qudtsL6XIz6m9er3X6bbxp8zZfEoyBBFbbe6Zz3bL
q2q7U2s2llKyLIiChE9L+H7m5K9GtT2fyszjTxe1br0KP3ar5e/Ue7nergqdPz/mXYjQQ7HchRaS
mFfzsihrKWlJlFKbR6RJufFnudOp/Q820BVTwR+3mr3GW63xsdX8DwAXFTElWZqYUmXZSimirmKb
3dpZtdPXUNAUSVV0UbZEhbwkSJpqqYoiGqqGHZiCpWjwH0k3VAM7UwTdEmVdMlXRlLHjYrPS+642
uqftZqXa6RSa9Wa7s5Qq/F1upI7KH/CknLqt1uvNv1Jb9XLlC97Z3NOeS7V6FbDzXe6mJIWgcnNP
kp+3erX623Hv+7UKiJNVi/yuPJNeLzvQHfSMn8nvxvPeN/x0Xu12YVIAlKzI2c6WfyzwK/k3c39W
/aiRFQQUP847Pbebre9y+wveVmSY3cgIwU4vqt+tOiwixbNqWYKWkjVRxP/4vznNARekqaKqpqAr
8I9kAAAzJUuSJSiyrMu6ZZpyShVVRTAVHI5uqpKVkk1LFWA8OGJN0+0OvTWp/lmr/rWUOm42qjbi
N9vdc0o+qiqK9K/96KxXr7YvG7UuIIN2ZVHMHzXfqnV4w+uiVC8ThJN/Je+v3eKi3P6odoHimvVe
l/CE6UKB1T0s/11FIqH4koznLViaBsBqdGHUz7X35z8pLz1/dJckwwZsPZ+0qo2L5hWZkiSbakox
RTMlCsgjsqmkdEVPSSYZDSDPNNzxSd5fB+RmvVttN2CRHLD/AIztxtuzLRWqbwE4GoGDUBxcGAYS
7ynQ80m7BthYcrBpPO+0a28ekRtyyqR/CMYFwCz+A5QiixZwPOcvFvnH0CXNlFSZ5xcbQbD0XZiH
Qw7AtIUjHwuKwtE5zgTmXmh+IxV2iIzCFQa+rDc/7KfeF/IMuui1bNxQcgCiPW3XGtjxxB/H9Jn5
fFrvwcOddrPX2mu8Nyf+yFD5fFhrVFP0YYo8BYFLfiu3u38121/wde+tWvbkjlCuteYTOj3/qnYr
n+Fu7V9H6RiQ2HaGCx2Qr85/ed4vVt8BltcB/XW78We13mz5OqbteHq8qlZAh4FkeEudvP6GLzgv
FK+pi3a5AmsA3902PB2e1suNcttFmrNKf8KTMqyqN0ZsWO3ecPUJrNKCQZBegouS2MD3iAtUufsJ
GqvaeOu4vdOv3shxNvQ3nh4L5Xq99tEutz5rldRWu9f5TF00m3W394jnLiT/M/II3+Si4L+/X5v1
WufbBeP/5RRouFapV8//7nSrXGRyiszfbpw0KH76Z2E3CE8AdAZ9Z6DR/3ehuW9FQYKH/5ugnFcI
ZqJgBB+5cOyf/4VQnEXefquB+IlhfGab87/KILEPa68JjIpofq813mDc571at+rxZvO7hcZz6vyz
3KoSznFanntdakTj+/RWLpeo0Sz6DM2y7t/1KijL/EGj+VeDfEstwaDuQYiXe/Xu43wqf1z+rqYW
oc15DUzMqttITJ3gH88WkVI3ZfzlDP4IhmoZsqSCyWqplq6BatcNS7JU2ZA0HWxOlfwiwjNdlTXT
0nQ0ESxRUjVDskRNUnRJsju/2cRu3W9/47d9+PQbfvsLnJbUUer+UUy9TcBDAE5G8gYDpkJ/eeKP
VB7mgx/I5AFhvqkn4/C0XAdbo0one/o67tmFvQSCzZv/wVUIuw+nFfj/ljdmd2SDLfghdBpY5H7E
0CZD0pck0odU7GNX/4/zO3QW/jUOgj1ox7EADxWoa+Y57/yANIhfaxVET7n9t/3DzdHhMTgPMY+X
U5n/fNcb0CAH7Nuuvfa6VdC2i6TxZrtd/q92MyYovnaVT/Bm29WG3UpO5fcAVe5j/NP9G8UJeZyZ
bXSe/yy3O8vA6OcAofERbPtnud5zG+ODTkzDBkgJu509mk7w6/96VL3WSCBD4sEUoBSci2OCEw50
+Zsv/ism2wD3kWei9Wblq/rGNUmn6TiJYnRESGxE8K11rfxar3JxBs/q/v+++CgUKr1Ot/n9D4qF
f8UsBxN9S3/yzxLbDkTp/yiJLnXKaLuhDgVBw0+p/w2+gQH928bzf4uVO+9//fvV+7+BTTr1WuX/
jhgHfGyBt8uY72uzCzL+sPrepfFfrrXvf+lfIc4lScKdFE2RTE1RFCOVP6uWWZP/rNY+Prkkj9v0
XzFRWbJMQRUVw5IlxVTVxIn+VXvrfnLN027575hmeKswaZr/4ZNc/5Lp9e3zJU3vb67p/f0vMjqI
ND1v9tqVKtkEHptg/T/iUIoRjwMI7JIdTWefa6/IRQH9L/0r6D1zerwjq3SziscWeXe3trhm7W/+
fynoICbqcJh5t9rmdMG9xv8OopgqkX94COIbg+0kM4Brpv7m/4q5Jq9ko3k02ByDL/wvmWWtARRY
L1c4Kdbf/F8xw2SrutsuNzqtMvRY4VPawRf+Nfo7WWL/d/3zoGb7Vwyp2erWvmv/Q/Zn/lUDA5f/
XzGO72q3/FbulscwGGvkwUy92TtHXFzpax2QC76cDkySer7wxqCZlinFNEOHecsbjKqZhhrTtFRv
Nts77ao7dTGmIebNOaPTRMeFCLfaxfSZZmPX78QqsqEbMb2eYTs/+PiuSdOTVrlS6/7N0TOZ2Jkr
yhOb+vFlxg4CM9pgLYu1TrfcqFQTB01CF4Exa6Yo0Gw1UZY0TWJOd/s/XY8oeN9EmIEXTcmSU+C9
y/SN02aNZOk997963iXihbRw+FKLg1Oo1usFcLa6HuVENyT4PXl/71S7LkUyp10CHbzZ+Ki7/rku
S3EEjLMN0S/VmZt7kp56p8l81Xaq3OjWUuV6reyotgxNY/bx59fmXqlXrzt7vnZmIzyN6Fr0dd3s
deuYidfptptfrupMat2t/icZHTi7MDZ0TVMYyPBoPp4s6YoE6DKO78mC+JgDoWusth58zI1IpLhK
2Z2YEjteJDXM6nWskrAlZjgC861VExyk2j9VmnVnARXdAdAqv3mjtNep02p2w2sHBNO3nt/lzpcn
ujf3Upu9bjN1Vu6A9eiN0b/8UsqR76lap4mZ06lXTKsjWYfh1laqVW4BnXRq3706YceQhsQm5Xb3
tVluv6UqPoNc9jXw23mpD8BhquONTZNV2YztLSWnPLfNv9wRTSXo2ye8k/p99egoBj9fjWblC1gE
+iWpTXyDeI2mz8i23twSh+ufmxQY72m72qm2/6ymLoCLSVJW+bVW97iJ1C64XTsShVY3nAeIhDTB
LP3NdrW8SUg+KnQQpngXfXudTXvY59U6sEy1j669FnYOjm/v37Q0LRD5NHTZFBTRMhRT0izJ7GNg
kkQfiMY7kwCl2KqX/z4qtx32yDiAUyhmwYKogOXjSFvfKDxVtnnm6utQsUK4FME3sLNq/aJ5Rsdk
S5lmp+YqMskRCOHqhui4KE+Xcp8h6cyUrFkEyfg1QMshnuaf1XYLE5EcGcOvqYmoJZnFW2SPxK+y
oxxVN7MJHuW3/9Nqtru4/7jZAaXcOagmDblSr7WALXBf9z/AQR/QuzNmSRRdQg+80yYSMfcnSapO
vZbrPouJqW3ItK5qnRplKTRKqgMjCFVhDH5igXukvdd4q/7nvFppNt4SXnLhxAxYVWTHapNErKhQ
JGOA1UXNFzDmDEOSBMuuXDCBaAlKeLBxVW7UOp/Ae0Fc5DRRTB5QFVXRn1ViOER2lLk/qr7Vet8p
ryrmsZ/pifB0k+pITUSq5FIMkardlF8yeDYMSuijaufT1bREN/rAuVZE4JWTXrcF6iThJVM3ZL9x
zYdVskwxaOUjsVKt3QmY6YY1CG1fNFt+qIalubRhWrLMR2xub320FjcLQgVJXMo1E4/QQ1PxyZQ+
gjksNz56WLlx2my5NoLPnjgvXaeoiEtdNFOF8/M4udj3A+gFw5Alz37ArnYvjg5TW+XKF5okjbeU
PwYqJbdM+THjORvRb9CKFEy+jp4WaX/ZqdoNNzu+l/02aVTfXtCIExuZGgLxB5loxxT2ee/1vVnH
VPKgJvcP1xup2zoOemiiJBEcs9LL3dRRuRLdvb8RCJr/JLe6rjXemn91wqjyNakF7LjQqPYalXrv
rZq6OTqNhlVotv7uX5K+ycpqgG7OcfcyhRVW3kiaDSR4DPikHkRRcUz8QV/Uhn1RdV40B3zRsY0k
a8AXpT7W53jPsfr53umkfMb3cnLzSC4v9lrwAjpx3itb1c/yn7VmLHWH0Q+NgZ9iZ2U4yJcHes2M
WeyE1+JoJOE13XlNHOg1Z5kHm5ocvdAJbzlEbHG+FaCPMAEnwFIiiSXpLbGPGOMHF25K2tjtQ8I9
Sm04TVAqe0pR7tdgbkMiuo/KrcNmxR+IEBmv0EqXwPa4ymreKlfAJLiqYp1euc4z+p0mliU6wtoN
HnFAsYPTXT+cxLlfRGzHRbanqsGpCY63D9w3LorXmAMViJUzUUtnsf3d6v6NplofPQSahx/6bSh/
g7ACQ0cPrCbHn3W7AUuu0my/Vd8iJFwqf9zsBp+7S9gX8Pts/rVbe4sIA4EccQd5WvtPtQ6vvpNC
3eBA+3pslFvhNvjb9Sfwx1ET2eMZaOWzb8bhRp3qh3/t3KGdX+2QKjlkxw4uQgSZlv+sHvXq3Ro4
yA7qwjQA3ZSA+sAS6tAlYHtOPpdJTm3uMd2kYNAbQ5IY7d7EaLcHx+/bkx7JWhdsp/4s6NQHol3b
p+cJjT1bHduehOMayVOkLzJdQQ8KGX0fEMkfQ200vehKqtYgsQuM4ESGkCPo1xtc3tsUz7ff2h2B
ViuEGLav1XuvUQmJWH+byreA6Qb9Dk9fR9UGBmocRsz0+9R9b5QbjWY3hLUQ7O/mW1/wrX8K9mp0
3GXsnO1spfa2C7pk6XpOFiLCeiFArXYT86UGChL4u/hPS2gE6LxvNtAC93bKQWKPadlsVZoMzEAL
jHQltGg2gLK6dLfHH6eIavzRDocaYhravfp2hRQxpmm7r8/INWzRFfStn6FFdxiMzfkCKKHuOp9l
8OD8O1x9vWGrajcEN6ZhXaoQLc5uhW0AZoeNQdKw0SWVZKxGjepH2RdjV2JGVv2zGjYS/E1+N1+F
t2qn9tEI2UX9aKu0Wm3hr6Z/9zOBhzvdukDkFp7f8u2xjq9MmsVzzTpuA8CoImRnGMwb7dKGNsDw
Wm8oQer+8SW/RQUnvMs5qlY49hpYJUBrQBJH9YaN7N4c/0GSI4kbF8mXkW5Ysc0CCfqmoJBom46V
AKJsxL1EIilCt9lKEk+d6lA916vvLnUBndQaoMde/04V20DqbfbKYCe+ddRFRdAwtqxppmYpJhtu
24cLwxzkTVrakcg5nyHrOI7BfGvH6CzAhlFrQJqRvdME7ics41dtUUrebfhq56Qndw==
	]]>
	<![CDATA[
	We681rrfrkGbwFX4WoJ6rNTbgmsJveIJZQmNfaZBXBNHA7aarvFlyJGN228COF14SJpPTkZpIWzZ
srfYmOtIevwQPllDhDbvoMY/m+3/4enLqZ6UohUfNutgmoILNLHhnwyZRFtVGh0mHUKjbq3Otmdo
T6165e/EWf6Jia0tgc0ivoZ/MsC2Pr6/QlZpbLMOhgOcRnjGWJRMwIYgpTErxs/HCbRPXqMawG9h
crwEXNPFUwqTBg8TTJ5hC4RZrfHeTGpXaTOFP2nT9h3Bkdgf7i28ltsd1pJ60wDJ51cSHK0Dyiqp
sV8P6LHNyUGEoZFwtPZGwtG4HRFN8bd+b3SFt3qr/d7sj9L0t0sQhtioA/48y9sCc/K1hn4m2yNz
kgIq338zJbTXstn9rIZTf0L2RKfXIrbzX5/g+SYbH2+9BBVFdVOU+8HgIFyVXqdabFa28GuHfy2T
bYQglED7ZTdVB0MAm847KXT8RwoCEF0NXA9Wwgen2MFXnOwi/2txeG5X8YDIKg6lndAU7X1vfzGu
Veer1gLl3/hirJhng9TrnM3KoVBXEOf7zVc8d8qPccPbWrVDPnRjPk+P3ktthbNEQlGoEzt58sJz
k/1dksAQb480itTfYX/sy2l0Hkjw7IunRTcLxuawu5jgnD9IGBV1hkenH+8hhocftxtAdl5Pivfk
tF2t1DoBPnW7wgnTc9eiR9Af8/e9So9/jXh0ExGKvdrBBMkD8Gb7IW1/v1bf6IL1D5/sJVz0FzHC
o+JFMfTjIXTiRF7dSsRA+ghdpJ12+Q0N0lS58WbnkzAzSOhb5KRNPLwO3yI5f31vBWFRwhkYGH2N
A9pyhLjynTkWOsgKe6YnXGFvzsOJP/L4wP8TisHN88LenqkVqyjNSM/ZNe3FyK5fvebFfPYol13/
7Cr4SVZXfi0p7oNf7ifyYFlZv+huFd+tna/dqbPVcvFdvF1zn8rZ1TP9Mz2v7K6mc/m5MwCTzq59
raTnj++s9OJnDZ69vAvpbG/pPL14dFNM58QjWcyv3mYIfC1dmP+lduTOEYyu+KWun7ysKVumYup3
+vfdSu6l1DSuFfHNeyruPlcLAKbdXlt93VxsHe9vHFidNXN35VooNe/Uq+32w51YvCvdXpRWN1cr
0sKm0RDzJ9XL7Nrtoyzun54VxN0XLS+/pHdPpMW5z6vYkQAYjsG02+vp3tbLUe9oc1evnCzNNmoL
O1r3aAMGcXW+ke+KpaXHk2LTejnPbcK7+9/i2+xt0YXaomuzU1+zdqd/k85h0K/b7jrMkqZrrfmV
FnndBl0+27I/veyvk9eEfEf7gU/nrb4mFGkds9S4kDPW7TQMQWog9BNvGdsPnQ9TUA7NXnZtJz3r
IQP6NXeU6+WpdzJOe/h0dIeddnu5c9d+XD49EfPqeQZng+P1AMPL0oN683m4GAn18WNrNxaqLv/O
p6OgEhJY7ry2n/LZawK4D+rx1vzUZat+GAW1M/Wkb8VB3V37ZTSuCFQA0zdddf4mu1w5OYqEOll6
UmOhiqWtg40oqAAGAOtT0432/Go0ktXbJ7H0fnweDXUnvTIr7T9fRELd2ZUvCFRCaf1Ilu/WLl4I
1ADh0aW9bj/01g4R6nz/umZulfu6NA9Q1aYHFcHQpT0UHSSfzs2FoGra93MrDupz+/GzcREDdaOs
G6Vpia6NHzCF+rT+chYHdXdaySw/RENdST92pj6rZyGoCIYC/lWYX/uZ/j6Mgppdri+txUDVp6Z+
endGNFT19l4sHaycIpio6U6Wvq0Z9bj4KwqqWGrW9mOhzh6dVHdCUAkYG3BV3Pk1dReN5ONrceYr
f3UOUI1WmHnmdp4VG+ptLhOCqv18nZ85Mk3afvgqBaZ7tyYe7lkKQl3om+vu14+hbq2rUVDFw+/3
aggqBWMDNo+2n17joD6JJ/WT82ioB3N3B4LQbEdCPT9S8NDz2Oke7qgHagzUe1W82Dufj4Ha654f
7twbHlQA4wN8JXZrsVAvqsf5zzioe+LV09xaNNRDaw7AXGXSx+uR073OXc3GQr3ezCxPxUGtiXeL
q08eVJyND/DxXvV3urKQiYT6+Dp5FAv1a6k+tx8D9WEdCfrpaVONnu5JdrK1AMwZCfVFucnEQp28
fVrIe1CJWvPLinS7XTr9QqjZPuY5kTeyk+ZKBaAu/YTFU09qXNlQv6yFEFQA8/NsfLcJYHluLbMb
1Dyn2aVmdxuhLvaz7EV+5qR2dAZQNzrhuW4ft0Qbanc9i2sTlIsz4vQzZR75sbu0H5RQv8Tt7csS
QhVCUNu9l5n0XDVj3ALUUi8ElSiCfO6aAl6XDnIhqJMX+xdnBKqyfnl46IcqdxtpudCtIFSxb65X
ysPvm+LKAkDdTwOYMJLb7e2so2hPv0NP07K19x7/VKns5aKeOmotu7barMe+DoJ4th37VNxeeVt0
np73aerDjd17T9jsXPXJ+8Ozi2fG07eXSvzTo3T9w3vajzTxSJ0W4l8/6X39jn96fmVZUU8dpInn
n9tb8a9fnDVPYp+2u4uyo+V2bvvY+OrS+PEh7SHMceLVR6EX//R6+nSa8VR/yHhPI5B2vftZjH/9
TrvPxj99/MqcRD11kfaUUW/iX3/6eKrGPgWVv7YW/1S9ypVZSJNWhffL+KdblqrGPz1eU5ospEkn
P0vLsa8vzbaaz7FP07PZguY8fW73Iy09fbT25TR4DQvCtCwWv2OfZlfkwyLj6fJZyYc02qDl9x/V
RWI+nsU4b0cNpvO2u3oBzl9hK79/DWCKU9X98+J69vzCzKVne/Bp5xTcyblC6eah9AbKYbJI3oQ+
puYi/PepfG31dR7oYHIblMP6WUCItifludXTnIO0ztTV7alvumtTyhxxNqk/tFS4v/VEd/7IbMyB
E3/TI84QoON9JQoqKIclKWwL2IBt81VcOIqBCs6QcTb/GAP19iEKKoCh050stZSo6dr+0NTdZSzU
ub1X4cOBulP3Q11JzxOoni2gnk/7kXyqyT6ob7OzUx7Uzpwx61GrEoCqfc5n1u/rIajEVLeR/Oif
bhDqZKksxEIlrkUMVH0K/YoXny0QnK56+8yAujOtx0NFvyIElZrqNkGhnVKOg3oWD9U8PriKh4pG
SlDYAOBpbLDofsrZRtjCap6rnVIQo9qR2QSaii8LS5scXRIDzpMbGAtT6Rv9HDzXHxpas3ZuCvLc
uriHuFHCsbu1xe1F359CbqHghgRAPCnTv/C3M4+rAK8a8k12q9k5puOAT0UME2wT0CExBfAvT+Hr
LDrFvQUHAjWubQi+4ZzOtpwm5xuOt+bJQHFfm5nx/qy1Mm8XtjFOOvI4GBrDUDd+aJNAiJKMeCv/
WS3O4B+0oV0ELUQF92AO90WpPD236+LQj/21te0Z+8/iUTN2TCQuQIdV6jCHNSUtXkqL+OfeH9ux
B3biw/p6ZvsghHUHaX7Ekz/lm6LnukfNUJlePjhMmiH+wQWiwZTYZZyb9JYxdg2RUa/9jlr/DGkE
6vSbYxk51lCs/q5eRVEpgInDF6u3ztf1QDRvC5sosm9K24+dnVHoyyGuZQGRNhbsE4spFvUAZjDs
vxeE+8FlBNE3EYJo+2FtISiFtsNSyJ0/hxTyOeyI89vFdgCH7qCDUqh6KsxSY60ffdvosO+FhhNi
z+feHIj6o0UXfZH7HND4aVt+7G0dRAvxOPak8b9+crvNTY4+ufWlX0eOvmGg+2V+lvBSzEgWWy6n
xc+LSoGDWZsEIsh++6GYG3lKFMxty0/xLj8GhM0s/jmLXSrxXZq8jUUMUQR8uGEp7q2MTTmrR3ln
6jR6FEPQLXnrztofsrcw95Und7KE+9wgJHwpjcKA/uG8yr3QanoegbOg+drU0iL5Y4tEslERQRvl
yefJ5CUlf7w4NA2A99FIqU8k+nvbEKvdy3zfwF6V+ThboDx5JMfSbf6zmV3tt84Yy0INSFco2nba
TpJ1xi2F3nakha3fpZCaonsEfNakb5G/zC5bTYUQ6e1G9S8yDP+pNxajaoeACQrufnwt+HVx/Jiq
k3FjQkXgjohnWFG2njOmkzOXecNr6JkcgWVMsvW419Dy6xuuZWTh6yrHpgg0OQboTRiIvryuQnvS
dm/5IXuL6EocK9KksSJNHivSlFGQZmtqm9wWHUUQ8G4/dsW3ufL2yJazvHXz5pMgtkyL9zSi+aG7
nuY2vWPZ82M3qPeHZ8/u+nQipfW502RjOBJB3Rm2H2Z7BGwEzQ6EoCjs4Gyq5edLTl8i0mKE2Twn
MDSCSR7MIF5g5Egw/ACDSWBinpGErM7gSDyrMwktCSwbdh7Lk90dT2H5zcFdEvMexHXPhmLjPh24
nim2gdPvCwEDSn7sfHQHgRAX/vi9F+WAe5ZNlCSJY5THzk+s3o8ckyM6o4Y1JlEA1sMMX1yARxQ8
djOzA8YF4hGvrF9dHPHLb2dMEfrmsfOZwNNh4o0x8/fItqJrdY5KWuL73M8NW0bQrCHPM4px3YEL
ugNGIgNrGHCjEF/q2PDl5/RE7dmHrxCzS/sdj9nJcJRpq9ULOV5+YTNIJPB7P8jsMcEUJ+LgRqCC
5KZML2WmmY4lr8+xT4x7nmAKRyD3ez9o3IcnR8AE5hczOTUzSiCEhlS/98OaevAgERBDL+h2+qbk
zYZjStaPEutss4NEfkrbJ9vMIwaJADHvS5k7dnQwHC4JeP5BBDFiO/1CgYAJRCWClna+fxOpdRA0
sxMgEDM7jm/WL7NTI6KvdeDpRXtt+kfEqxqXfs1xkIVjDrJVI0xuaQx80zoIasUECRUzkhkpdl7O
bJLDogeeLhx8Sj6CBgoKqcEhRMHSr3RQ/SmxdloSbnSONQ+ZuX47LYigoJkbjSAuMxc3u+zU3jP/
msPPgzNg1NRRHmfDTuEQ0XKsilDZUpCqPzvQxdaA2NsSBw5plDbKFvFLaOxttTuiiLk5J1scHBKa
HcbHlRtYB3qiM9RR0NkcYscFe3H50DUHh+2Itc/h9UK9NWZH/bpwcEXobBaHNxoH6i0YUMcd40zI
EiXhh99VgS0/eENu2JUY1ZXj4g7kmWFvC4xdo7idwhjLAnNOubDpN0wjpZvLnqhM+qUb/DYW6UbW
pvM18l5goS9LIyBBnEAXp32PvR2GnRcO6Ratb7C30/So0u3Sk24jSQFYOU7pliAFsKPRpRtJVB7d
0CDDGcsuLukoKN0CWze/vF2gKPsgkHlP140VVAvsQEaH6Fp+lnmZz0ZG1W+uxrWVu3Pb8pztWFM9
0WLDJY0Uk1ESF2fDFrrQW/y+K6/EdSU09DasY+nj6u2Hh0i3yN7F5WXsq76EKT7x0EdpV6MY/oFe
/CkVtnE7XEf8bnd8SJV0xEhrSrLXA11Rk2NsQW6cYb9yJCnxY7L+Qablx+AUFkCm3LA1WrxyDObc
2r3x52gwI5HY1etUKHI7DLldR1n/Q6g1WNCRI2AOCYxBP8JwmMqRW61hR3zWf1Qvng==
	]]>
	<![CDATA[
	w046Gl4/hhctIQ49uH7M9cfCbm5CyjGwvTqofnxuM4LR/rysRX+iciwKbjCytxuzLH5sepzJ2MIr
AOBXtq3JbQRDV59TXIqAh8+hty929L0/u5uBNB5mZzmgPoJ+bnNxPGsbFjlCiIp5+1KtEjP2gkTG
4tY+JrPXhqmpXjv9muq1M5CaItozVlMVhPjwJU9qXCgu8NqJihxG8VkyvdyOM7UXegvldjFd7Al/
4X90b9LB4ZiCKa8drji0Z3f05zq6q5mPyvSN3WGPsTswQSHeDwiQhX9MMVsRZFicZMFKi7V5w7ah
D41oxyNQume8378bzpEvW4fb7afVZ6+cj13LR2TaOMr52LV8E+SUkTGU80VB9Wr5vNDQiOV87Fq+
CadIdtRyPlffRNby+YIpo5XzsWv5JrzSxdHK+di1fH4beqRyviyzlm/CK10crZwvuK7hgjqHBEYu
52PX8k34iv1GKueLMD0L7H3Pocr52LV81CNgJkDHFyOttpI941DmfXwx0m1uJ8ZL4B8T5ZsC2/2f
Csj7+FrFTmzyjJc7yFmkEA4Qs1CVFCAuhi2AoZfvfDIpB4oXVc2g8o/IYztqkkRlnqK088ZgqAp2
5fdvin0xruFnGEogDNXfOJPkm+EDu3DVN6YJdiHmbDMxgZBrTFyBLgaqOIv32DlQnHS7/bAXW6IT
SFROKONK2kdLzC/xjNvbXHrkcLMzudtwpCw6DS5hcoPnl/QnXGLZXXYMZZIBFhw2QIxldwNs+0zE
1eLeLrYYHgHfbgUipq/Gg8tRiestwRUmfMPqLZjgtdBvWZRLSa47r4QuRTnHA3nGPk+6XBqo7pVR
9Poq/4QYOiShB4sBAL4YG+P+iEogAYYVa1T7Y/9fZjvWxhh00wvmdRO/cchbjDbh1hQmmWP8NYUR
Cc2huAB/PVpC/Q2Sb8YbU/w20dtOMKUyoDgHq3O0pliZ994K8hVoBaOeUZn33KWO4agn5xpORNcU
JtXkDEAR5KCGoC0wUm+sEh07856/t4Rk/gGRxizaGXBgS5m78SGNeVoDB9JC8eLu2k8oj0reunlK
sCdJoIvD+u6u9XjZPjbWmVi6x+4DO0g49IRoz9MbifxJ4POtm594PmdvlPRtr+7y+4PRJtpulKDo
C3cn9ZF4jovnPviMqmDFSnLVXuIqrXXYNexBpyiaPbDYLkkKRKJjIlQex+3nDVatF8gdDKq8OHsG
p8Q+nyXkfYWj6kELM2Lb9PdeUqVu0BWNJ+i9AWNBfIV6fZvFET5tbFnW9tT47LTH7kxCoS3HJqlt
p+0NGAuKr/jLzkWNyZ+cxImqYpcjFhSig+hA196g0RtWVR1Gb4K+Jyd59o8piavDao0xrMGiN/Ep
8eEKvcFQFYzeKNPWV77vlJH9pIxBvuiNMr00GZkKNFga3Pf+kNGbiMx74KDZ8URvYHLS3OjJSd/7
vNEb2/GIrYdLSKlMjt7sOzm3Y6iHS4ze0K2IxFrBUaM3AAZxow1eIBSDoOjqoD6C5quDXzrthktj
1y9n4nN0JtxDGZINaTDzpoakCL+wORg5AuQ0bh2Ewj9RUXXOCBBMLsM7OULQcfVwnImB7DI2fy7H
KCV+PInHJHcwocRv5GPPWgck8374nEAPN2zRPeGW/CZGThFBxpBsbFudoXTATMSe7Pkomi/g33jF
eeOuzOvbI+BO2xuoMs/dxY1L2xtPZR6RAqNyYXJlHncy7GiVeb7cQX9x3kjziuDDkMPO29GglXmx
GyvjrcyboFV44eK8cVfmhSO3Q5t+7Mo8T6aFldlYK/NC4e5wSudwlXn9G8jR3lqh70Dm4erWXNti
Iq5ujT/18pIj9dKTAgknb2BvHKmXyVLgqjly9T/KoyxvwmViR7HHbwywWUw7GuTclfjhuBZ+VA7U
AB0xvOtA6qdPCsTyI9b5xQfQkusYgBmDgS60yfr5EX4bmB+jQ0MFjkQJrrKsGFt/wj1Um58frwZK
hSbMGL+Fh70Nz48ewgkzjmiqo1pfjOLHUC8TSUcdk44G58d+F5d2NDI/kl7iPO6QWkvsiKtyvd/q
jxA2pLf4DdzE1PVgNHuOnHc8Eb72AIvNDhPOwODav9p5+BlPkaw0GZ8oMniRrDTJVdbKWSQrTaoj
uzaA8Gpk1c9g0UFSKDaWItnrsRTJXo+rSPZ6XEWy1/wHXSdFwDAHqv+g60AKRHI2VIgfQwddO2Dg
50u2RuPkR0ZRHk21GqxeaIiiPIq0aISOsSiPIu2T4zyukYryeGOdIxblxfueYy3Ki7UFxluUN+E/
IpyvfHyYojxK0DxZwIXQIckModB/+n2Uki4Io51+H5ymv3Rx2JRdX2/MvMOgZZOQeohldMwzGQey
bArCsCHN/tV8FviOAmMlQ2A1JEMH+sgimD7KGhYnWUTrCjd473EyXqUXSdX2OpAbRDsf6Vzj13N6
8eppO53bVJ7SuX1rGy+oL+Cn2/Ti5+8L/LORzlaEfQCTXiyeFfAPXllqTburOhsatP0pUADX7kgz
bT/zBqqk1El5yQokwwZK0SZnWWV3Qs5PNAGo2RX541cU1An7SnG8jPw+ruzujlV295tV7Pd+fB7c
JgqWouFl5JU4qG+sirCtcx9UtyJswr2n8LPqSchwKRrezu3ONVx2dxsLFTC8yiz2E0uWeBwDVZ+a
PvuWn+LK7pKK/Tpq1HTtsrvFl6tYqHjp7mdcYaPALvYrHc7FQm13LtfSsVDTG4+5i8C6Vi1nj4B8
8RZjvnD39h1qGtnuqffdSGxHr0Z+2r45SWyqfdrUZytTLHx62AyZqE5EJ/MdUrBkNqVe/G1RHPm9
QeM2YovpnuwUDpQ9FV9cdDpXiglSBXY8uO5AS7q1LGZMfRldxbCBPHTJWinxGOqRrteLikVN/DGO
6/V4w3bF5KxtTlQtL0R5ZIzcwSFu1osL2y3E+57JN+vxzzDHyrwfbIbJtyvwD4s7hzU0pnD4IflS
Pf4x+QJHjsnBk1rLWdiXFCAeU2EfT8xmDIV9UVV9ocz7cRT2RU3OTucZZ2Ff/0iKWc59z0EK+4Yv
xBx5T5yszXgL+6IQQ2Yz3sK+xMNMxlPYx6WkRy/s88bkedfscPdQhX1RIRk753achX1RVX2RWUOj
FfZFWYzBqoixFPZFVfVNRJ79MFJhX5Sc9QmbcRX2RY2J6puxFvaxDKgxFvZFma00ZjPWwr6oNZxI
vmxr0MK+qK6G2CxOKuyL6ire6hy6sC8OaWMu7Bsf0hItxgSkjaOwL2oXJiLzftTCvqiqvmDC5VgK
+6Kq+iaiTxwbpbAvyOS0qi9kdY6jsC+qA0Y+9LCFfQGcPOfDcehxFfZFGTrxUmDowr4AOuwdWH+u
+pgK+6LQMRFxWOOIhX0xKSM4LG0Ifgz6iPJj51UI+oh7no/oseewNX2NNAcx+kyO+Jq+RLb3mxyR
kR8qocd6i19izGY8t/hFVYTFba/CsOZGRhWtEEVTg1emJdDBJ8+9uJzD4hYK/WMKmuowLG7GThpT
wCqINtV5UcXN1RPs00dxWIfqw8DyM+gvrXYn+q9AwtKupNwmnlCe//K/4VOtBrr8zyHoOHt9f/Cs
x3hhk3T/38iX/0347vdMqukb4ehzN1GZef/fyJf/RYjOpHrHYS7/Cwcho+//68PNoJf/sQmaK7eK
5/I/v2Uz0PbTQbhyf6gzusBoTYhO8rrdyvqlMTfBU73KYZEfsNONJ/iqiWBy86OEXu1tooMhMxxD
NX2xdU2e78l5bd9wmcYB7YnlfDxVuYnFjn2ZjRORR+glJ6nhpYYDlDRN9F+2FbSNUWDO9ZU0lZ8T
KCKk+Rh5necDMWBsIdc4U62gtzGmWp1+D6n+JsKFmAmZ1HyFmPPhkuP+8ANnRwsDDcdPAqGOxlJg
Or/IlziW3BHPXW18iWPYW0LtHzM1zkWaY4fOz/frwpuLcR5vCL2NxfSzBxYQbIwkcr8yi8Xm26wc
f1VQ7L24zCqK/tOmsShwib1J2Oewx2ZtXzVHrmeZoNfsJEycv4S08xUpRoZy2LE3rlvLkqSAd7Lz
CDULl56B4U8cG64jrhKKhK1v0tHIxxjc0PDD6Dd8k+HE3zO2QShtgCoKzNEQY930YTaL5yKyNbAo
sMDGIXfwPnD13wj1Zb5ZxyRZcPMj571/IZkWx4+j3vs34RViRl/9N2AhZozB31d8kdzRMCVNYRe3
7+q/4eflZ0aGWkvuiP/ev4SoOultDPf+efnQMVf/jVzt6yvBOuM4xyOxvoxl/EwMdJYq3rE3lPEz
EXWWKvY2erXvw4+XPzV8dBA3f3Mc1b6JZ3SRjkYOfpFekARGl8Y4HGYSleetJXbEW30fFQELRaDI
LYIjVt/7N7WxNguZMQwGfh4LP8K87rsMmZZQS9WHzaUMTx7ZhHNKfHJl2igpkv1IG9cZ7tCV590P
FesMIk0fm+8JC3rF48nGFlLReBq5WpKrlopzTGGyCIQfhqi73bq5zYUsxr50j8jjpvjqbl87vJdh
cinp25EvwwzYaTDTL7bfxH8ZZjgPJDYIyVV3u3XT5Yhh81k2tyNfhunl3GLx6eh1t3hJX5wOnAiX
YyfX3cKYBrkMkyArOgfKM+gxl/ewEwHQtgmxVCq9cLAskWpBLDE8Ty8+v12kFy42dfx0SuoMAUw6
d/CsifmbL8PWRavNL/8AnVhUsIIrE1+ZZ57mRT9Kn9uTNBnWvZpuutnyK7/A1XSZ1+mzr7jL/5jX
8D3lQvG0UEngln4SA1Wfmm4oy89x9YBPIai2hHavpktr8VB3dtq3LtRwPeDUj957iKuRewQwjELE
Xxv+GxaDNXLZ5fplXD2g9rmwcb3Q8qDibALTjS9EBCR/iLFQxdLjblztIymPm/nKX73GFSKWGVB3
xKVYqO3Ox/6UB3WC3oXnLwl8mNIv45C8yJrr3mxoXZFHcwT+BC2VzzlVob232Kb+didTVZ52kyer
6dAeQUzTdu/5a8anOHHWfeaow8Hw7mImpEyJfxWMcgSE01nEsROsaxdOZ79D20lewJUrP4196VmL
nTcSFUyJL0Ha4L70LGpMbr4ADCsxt56v5ivKQfHADLTLdTqbkMgaCgITEogrFVrYPOXJcUtcvrlJ
X1R9xPI4Zo74xGDlcdmBUOV1FdI3dm+LY5qhmwPGm6LImKHAMaYJ383lrGHFJIfzjsnZimDHlwdE
VX8OmG/T6+Qy+oKNkOi6XWyERVdybHqC88aY28X4im3+yO322CqinrajfOSQsOF1k29zkwNNLnqb
aHsMR+zeLra8MNjw8TQslOPxrpPO7t4eR0Qa6xHBfYhX0vy44a9bS/RqsLdAXdNgBxN5QUi3lBeP
vAtaJ6WRr3hwhU158ib2IKGBPOlSVAzZJ2wG2kPH2r/4rLy+gIFDAnERmFLs2f+8MT6PPe21zPZn
JLztJJ4MwWWkkNl8mfGXGg9a0HbfjTJS/LtR/DfVJR4PMUil10CXqjDG1F3fj89VTw==
	]]>
	<![CDATA[
	NtWDYwqI/3BRohu55atLnB6ytrTfgILhN9iXEQ2whv35AiP1lnANtOMUcvaWdJFQbFcT4TrpnT4t
M9I0OaqJBugtYQd0QKQlXSk0GNKqkQIjsoo53mwM1CM6+mbIkkTeesRAOs/gJYmxZnasiztUSSJv
PeLQcejBLhqMtjq5SxJ56xEnEq51SyhJ5F2lqASYAUoSY/RCXz3iBLPMJ7EkMZn6445vH6gkkbce
kdeTjtnCY9cj2sPxcgfPQnaVi4wxXVYYTdBjv6yQO2w32mWFJKqebOaNelmhX9j8g5cVJmxIjuuy
wglyUl/sxYDjuqywL5fjn7mscCLq6rDxX1bYZwuMdllhaEzhg2aCpjUdUULFcujCQ6cObDynWsVe
eDhoQdmYTrUK3nYYk3A5+IWHI6X28l94yCwA5L3NJ/nCw9FPteK68DD5VKuxXHjIvu3Q2b8Z+cJD
dmKkl9Q34oWHbGs+mJw0woWHLsDI2w5DEajhLzxk50rR+psxXHjIvu1w1Fine+Ehe14TSZef8F54
yJ4SBTOGCw/Ztx1OcNd7Jlx4yM5omwhXSI5yOnj8bYc+gh7twkN/PUv/bYcTQ5bH9V14yA5ETMQf
njXYhYdM86pASWAMFx6yt2I4KS35wsNB7imMKwweqI40SgdGBu+HufCQ3UtkxcowFx4yxgR+Lofo
5LvwkH3b4QSjEJO/Wu13NeFC6IAtkFStxrrwkH3bYeTaDHPhISvFm1xb3V9yMcyFh1G87yW0eCbH
kGVkfHvM/nyBkS48ZO+V+RXBSBceegiPMu6jtr6HuvCQ3Ut/oGvICw8jexnHnV7VwIWH7F6YpSTV
AS485EntHcOFhwF+7Lvt0LHTxsSPcadH+zckR7rwkG3rT0QWLQ1x4WH8wPoPBByGH+0LD0c01Xkv
PEwuxx7LhYfs2w4nBryncEiPO2jc9l94ONgVheGuwocAjX7hYbg0OHjb4URkIeYQFx6OINMGufCQ
bfxM0CNbR7/w0B1Y5G2HgZ3CUS48HLAWd9gLD9m3HUaTwBAXHrJ7ic/lGPDCQ1Yvz+2JP2J3MgYr
vGLfdjjBdUo8x4WH7NsOI4P3w1x4yL7tMFqtDXHhIfu2w4mEM7r4C6+Ytx1O+M62G+nCQ95Y54gX
HsauZsRBmkMUXjkXHo4nRTHxwkO2xUhk2jguPGRbjP6dwpEuPOzDZuC2w/6NlSEvPGTv+LiJY0mn
cCVdeMjOPg5G1Ue48DACaQYLaUNeeMhW8BN/xNfprg1y4SF7TBNeWeloFx6GdUXwgGUXzGPnIzYS
uUE5OOlk1nmxP1Xi5p6Eg+OFTUK+f7CIshSKgBX8Ia+XmXpws5hac27KMhXTNh7mfbhZ006bHkpD
3ipW4e2aufRsb/t66zoNv523PFP9uVpot1flrbXLx9tMeqZhqOm5JbGUXmie/0rLS+dH2eX60lZ2
bbW9kb08+JwTt49biliytjfE0tbBtriz2DsTD42te/Hw/q4iHi10BPF8eU4Tz5/XidV5+fv1Tbya
a3yKV4fSj3jV2p8Wr9dfi+LjydeB+NgVbsTnvVxDfFk4mxFfVp7m2+3j3Fy7s/motzvN2b12b6l7
35lqbb0LyqHZs0tNP5qna/pc+uhya0Y2AEymPFc9nbq6u1ibbrTzpVlZfT6eezlfMicv9iu57EXp
dG7t10pVz7p1iXO71YftnHE4+xuWJVvCArxcul17zM+c1I7OiDMQHSD2l7zO1+pWOltXfwUuyMTr
NtX52+zKSm4pEl8EHTDhWfHlKPMrNFcAE5pudrmiwuvi+ppYurguiTtTzdN2x7x+I7WtbrnqRXY1
nyNXdU7SCsnt7d/5duehuYy/TfUf3Ey5xbO61lZbPrua2hh2lPbQ8u/pBA1IuiKPpR5eHnpD7xdd
PLq+SWdyZSzBwtLfffyzjNeOnqZz+dknxNwa3kf6gJeNWjhAT8TOUhun2t0wyXptfjcPO5sH19dP
2eLiTK+U2d3bAx/1+6H0PH9/AKx9q9mWzTQKG/DLX6Zy1ENd0x46+DVvi2Rtd879lMGbDesYOMJ7
hXYXaC0yqPBF/Lpofy0IAn4VvLiAtpvPbl/d7OKIHpT1q9ZWoVbOS2J+Tc24Q30U3zKZJefB0oL3
QNp+WlpxHmwseg9A3x2ukQeE0tZKgu/ZY+9pw3npUPQe+OHvLM3jXOf9oHc2sh76/KB3SljA7D0j
5jb8fJinmiK/cyLiiXZZZdr67sLXSxk7XwAR07XsPk4LWWyyCH+MBnzdyzlSpUfLp+C3Q4FmDWmL
5CIf+OVMRBEuwZ83/HpD+1XWLxoCXcP5aWGe+I1i/naPrCaAKUjLNtTbE4GAUbZMxVyuPs2/Fz71
Elo2W3VzyvRRJllfFLC0t7CL6ygC6PIsH9VlVH9kK4Kny0vR61K/XF0qbF7OLr8UPo2D1ubFZuOa
cJW8db/wRMl4vnJT21g+TLeBwi5IZbFDZC/+RX499EimDDwqfMNvZwJiaRELiebpp/LkVY58Aqyf
L9BPW3fKLvL8LVDTyh75BGDs9X390AjfEDUk5r8uBQySSLBy5hx5AJ1vZuin8nRh1R7OV1l2h/MK
EC7XnQcfamlbPkIOvtP8s3lV1i9L6Dy9wDP9LlfMl1dmlz4ac5ellW31t6fobV28c/PLDurRP3aw
0DFcDlc8iiR8073P4yjBtN/cXKCfth/2s/STb+TdD4X8Jm/dZrdDw9HvvnfrxfeZzsXGyvqNunlw
I4L81B41kCq/Mo6wUWZrM7Pbla8fi63UPTNAzJd/TNcqOQ7Escglzd3Z9PzKsQoycu7KFp3F9HTR
XHGF6Do+208v/rRO8ME6ytQ3kLc3u+mFn6l2/9EKeUTaVMYRe0cNm79PqgtkFtS/sWmEkDgemY8F
35pI+lDWr7fLhEbR7RJs0Yml1yA6F4OiMy8Xc/dZMa+tLjqrv5tz7liBnwsCWkw3tnDeOZi3/XKt
lI+OCGt7Yh8JkAcgbPG4FiEkZ+lm8VQGRN3bPRm0tHiYxRTYgxwZpbT4sZov7q80xZCIxTS4+lZ9
slGSctN7nw4rHs+TBaIG3M7hpEBmSGYDshUX+Qip0AAi22gSsYrSTQSUnv1Qcaq9HqAldkyxKe3q
h17ndJWk16eZXMh27DugaTZg8D132QZfYUsQZTD4bo83F1vixmbl13GpuJ7V9jcXmxvzpYt143Zz
V3853no5usbtVWvbrCxut5+WnpbvDhtrO/Wrm4fNXe1e3Mh3Wp/EaPSV9gOG53D5skQ/24cclJ6z
pJ1P7E21CoWtr7nGQ1Ew5joAZrlqtb82z3vpT+Nn9+xwu1yeE7bv3iY/iRXhs/Bmmo+FkG/CCxXA
6FNLh2cbS9vV2tZXJvNre/e0Jm38bOY3i3vftU6pWJe2HDutWANMn3XxgvRjajut9WbTHKAJCfRD
Xz6YLj4Ud3ZWvzYvisrPQBPG/vKeL+VLiUeRrJ5nnAMj8tMYMRMIF8pza5NFR35NdbaztbvPzYur
6/ZAoO3ZyCANpb2AU8QL+louCsLKdem5+yhtLO9/nUVhndrQMYhfX16bHXLNR6C0hY9OX2K7LTrl
OXryh33Ex1EDhWKOcqQ4P42UJoqdYmPr5HTjsVTUtJfNi+XfmeLevb4PoDOToD1KgsuUP0SjEfZc
u3xe2I5a7iiEUwk9NM77Ed6dE9TdzW8QWedqRGiIc/ZDTh0dD2f2/yC5AZjE2T9YvkDAmnb148VV
eWUqgHHE6qVY7JU/r4lY3Xi/aC1vtx9fT7T669M0PDg92ci3u9NbL8fyecma0tZK1vTZW+Fxf2p3
ufextrglqO0rcAEWdqIwQW3o8bN9iAR9FSu86zA9DXL252FJKRSfNy8KTw8cJAhgHLbH43CGWH2u
CaP2jJnzCITXN2EAw5gzkFuukTPBD5lpFNvt9aVfQ86a+J4DrDQIttZ0hMRJmHoCpQ0pcfpEfGAL
j1/KD6rWfZTGr9k5FEwI9UgC/4QpE5owm9LGplHRKUyeMwe5sUFPuEeBjbLSkfw1MqUNbsU5wiZK
xBBX2x9/iwigLRbPZHTtjtPZu8wGBhVLeHDePn6dw8jaI0bKjolT+GtyOZ0zcyfpudblNHUFwTOE
T3LpHP3BNZ9TON9uL6YX0y9z6Ble9cXYTlfBW1u9tY+YwwA18SBtW2BZWb/obhRqpdn2xtXczc9G
c7d9W3pe3J3aPPlYOQTcqNPF91+dMxJI7qQf54r2OqzeTRGbQdlsp4vBWftAE3OwH7oHerv8sv21
0fjJvwD8s1teGyP/OdNc7IvcJszZhfqr+D7bmkIB/wrwK88DWDYAuNEOWhaDmZQcRpWTohhnUo5J
t2F0kFOfO0bV1lzsSsciHIXNCDgfk1obl1oNJVz+I1YU4BrAjMeoYGt0NG4Hlrf/sMMud2f9zhsJ
efHRfLwbNRj2w/BDs7YjUGPXMumFp3rLZTcMQvYhnoSNyj/5sOwJRBj19PzxnYXKZAP/bKHWOKZf
F+amVlCdHKIiOkSdckD0TUUQUAOd4y8lDFAu4S6P+A/pm2FFgSN7/T5tSPZOOCfDjtmnDYEO7eJy
S/6r6sbVweoesOJFevtFP/lkq1qyFeFq2/+2vhmHqvNPGI1b5pxR2JyOHLghMZsBVxqk/NV0kRk/
GJzS5Mrzwsbyw+dzUTh7aRfeVxuvg1tWfaUk/4yN42Q/8PLZkDSHJseoLM5BcwBmID4bksnc4P0Y
BMtIlDaIYIllsmFl2oBMRnNu+flsSCZDShvcg8G9PXnr5jMcRPDn0qx/GEuPp0fW5q6uY0YX/Hdl
a+vleOqY/GJtmz15R+tJ59vXW+eHG/nu+sHmrnYpFO9KV+fwVSwtzTaLS8WpN13kDRYOtkcwdAgn
yuT4B0I4/9QeQcjaGniPINmd/Uc8aT4Lm0ro8dmaMU4OCpuhvUt+JwutzuHClwMRPnc8rZsZTzxt
iF1JftCseNoonsZ/N3Lr+FduPC3CxbPjaV/WwlDxtLl2Ordv3RB/BSkNnBdjjL6My+6bpeev+kJp
s17G8wU4mJ18IumI7d7LoeGmjAi85E5sAR/Fz2UKtfT9PK+c83IHc/PtwtLwwkZfP1t42Ly4/P3E
ReTkU+k5DZ+WF71IxhC7UcNM2KG03MLs3vKwai15wmQrInLO86/DR2/6JgxgxrPIyTGbsSwye8KE
0saxyOwVnqD1nqMvMnuFh40ODjhh104bdZHZE46y04ZaZPaEqVM43CLbATE5sM3vT/CHMZ0W/HsE
c4HxZht+n4Mc9OI7QBw3zW2VkPVXKhCp3Vf06p0P7aalBnLw8789a0esTmp5Dxb5bUY9Lv5yfJN2
1j9O0sHK+nlgK0Lce1gUgn182laUbVJfBm4aIsq3M+Wzemfv5H3f/GlO+cqJ18GvieClQbSPXqCP
3dldf/6jek4vyyGJytm1xWMZr+nFFMHdLH4S3N/y7m/kYLO1xXNQr91MmyRcimJGuA==
	]]>
	<![CDATA[
	Cylket3QzEr6xb6s5mVVJka7e9PTAyyaugMPpKBGzXx7m8Xq/CPSUppm3q8sf5+5THxL8+j77zxy
bqIha7M1f5B1qgx2H4XJ35eORhcwDfEUMyHJiOYz6/d1H0GR64oJ0hTj5MtO65d7kkfa2eXKyRFm
bk46w/FdFLXgQ8J9W3mlOx4ED0uSh4f5wt3bk4MHIRfAg/rjsPH8kx8J8scvFwl3fiTAcEJxAXI+
MRsP5ZVjggcyHOW+LpkeEmhxjw+qXdvwGJBpTDwIHhfcpJv5bYqE9tbtPQcxUE96o+eQeC/t4SGt
du5nXTzcMIgBT8dxEPkQRU02pTH7OG+w+0jswDkBZpQ+bltuB/FsYa9NXB8PPyMOgtxW6rLncH2Q
SsqkiZAOHHOwv49qd8SJfProykbawKRVTw9EmzibPll11RiczwMd3DZDHbhI4+/joTWysDl9jhFY
vCty+tqO6gBnE+jjjtVHtZO4IgvTvg7WCz/NUMLl6eeIpHX61YvtwE7tTe6jmU7GZrwOpKZ6e9Lp
4/bb60PcPbqtBEypB5eCbn3jDV7qh+2ew1QSTWmsed2+DiGAQpR2W40kFH5yv/2MpBIMP3Dz/u3X
sFTiUdptozfiRNrxAoiX0m57k6MMglDa3dRUEtvJnQevj/Tc1ee5fxCvrwkCyNY3LGS8Vn9GHMRn
26+kh1qR168OB1mwlfRrozukEHM6+OkNraTRKcOSIrQd35cyli+Kl7lfUDFsd0PTEhaPbk5cT5qU
FrkFoXgrW952MlZv1eA2UZZUOvmLCEvPz04RzmnTKVU6b0mLHx9rWZIKbl+2Jea/JmldIi2UA8cj
T75iMVTG/vS7SkpI5+06qLkf9KR3s/bXpUyODpZ+hXHS194vl7rEmyFgtD1fWae/ynLNmPdVj/rm
sLaa9T3wlbatFXK+0lG3KI+AWdvL+2uelj82nZdOJK8a1PbVd1YXfNWjPtA7hUXfAx/onT2BpCXM
Li7IWzcPpOxuHqz630AeO2cS+aqsX6bh6+mG1/kzOXEBfiuRes8FcBWqW8QjwFgBOgiHJtjrJyCF
T0/ypJyUbEXc/EzDL5cSLSGllYyn90r+6PxLgdcvYAmmVqZICaldK3l76OHmxQHDKEUM5A76S9H8
NYgWjK1RYHfE7oVG1Q+tQBhkft/8ZZk7pY256kVx782+phXmcCM5JHsheywgz9efp6h7nL8tq74y
0WCF5OsJLQ21y3ZfL/N2te3rjSi9Hu7Nw6d7yS4TfH2S16w9Gdbmtaw4n95U0oG9kF9nOVo6isd5
wNcbgjT6+te96Hx6knyVom6tMzx4U3wPntLKMy2IfTn6mbFn8/WtD1fy6/0J1+d2b7zav4pNG90n
UdqRNjLwqSw5n95Q33hN7cK+7m+1b0Ra96q0ML+2bFzlJo9KL0czpC50S5l97hji/k5Wg/V61O1C
WFpRetQInP1A4iO2rLLrbuedws3Tpo3Im6+sU+v+1KHiqTZ5OuuKp46NNE2gF9rbrKWpGHLTSCYk
rVXUlrLS7vRvlHe7i15JO7x0hQdh7JJTNjbw+HSBUKu08yTg4bG7+ZizgndFchSH/8z7WefZARXw
0qLYeHEk78GCXZJZmGnZg17bIAIgY6MZpJVTP3kg+Kr/F1sFkRRxUpkWEl376/Yig/xyZnic9ddx
PpFYzHEOL1FoSzutpTx+hT/G1W7h5Wuzaleng8giPSMJYOee6HIOTer8v2sTf2i6JackEf/mz3r1
avukXfuoNVIgpJYn/shv7knSZeOtWWpXqxfV/3SLzUrvu9roppZS+c3zwt6eqRWrleZbNUVPtNFe
DFdk5Oyp2BTuP2omEFkkO05bxXdr52t36my1XHwXb9f6zqtQdldxU+xsgtYWr9BcwMXPGjx7eRfS
2d7SOWrZYjonHsmoSSPPWvWFiO/077uV3EupaVwr4lsoHYJYA2urr5uLreP9jQOrs2burlwLpead
erXdfrgTi3el24vS6uZqxRZGJ9VLsA8fZXH/9AzPqtby8kt690RanPu8iqqQDcpof4WsHciOrZBd
02cKPYBfvSlOvfW2C487Zzf6ceFtciPfXdnfyHfelkvW1Nfp9vWGQotiAYxdF6unX4mREIprS9kv
A2/7vn1yKPyo4ak4r54f/KS6YNdb01Mqbtu2CO5m7Hy7567N7sDGzicpg4o1Y6NKM0jNNh5muNci
JdfkK7DvfZuUWjuvlfJuLbbo8RDKAcCqawYdzPv5y+qW3QdZ/4PDbMV9kPM/eDKq7oN8CEyr8OE+
k3wv7Wz9oOF0vOD/7TLz6tZHL/offKhv7gOBSHpg7g3RqWKXdnMlVPrHkl1ovX6GX3/5O3/9yGJ8
8Bc93UOqTBtLtt5YPGpS2VDJrWK49FeeBHWlyvoeYu4X7RTBVH5dkn4Vn22x+9y2DyCZz6koWi5y
fr28vrHs8ujZVl34WNg8rbwfFg/20uceWYrOjemFifBBbaH7Q7bk+d3SykBdRvXn7EfZXf46XPUk
idY9na7uPN6ZH5vnvena9t3bKSqFC8kjY/+hJLdPimuSqL6pF9eNCubb2et2TY1gufirgBL3Ou8w
wDV0/vo4j58kR+Ndk1MSmvhJcT+ptIPt5W88zOfO7u+5UlIo39y5R73cie4nH83JL/KTe87GneJ/
UPyaduyN35p7eIXuTyern+MZMNuL1jywuHg17Zd3dBsBRJJzuIHzxz5VzD6FDmwAnyZTZudPEK+P
8Of2Gm8keJTIJzqbR9nf9OhDxd/U0IhwOL9KL1e3hWLWnC+Vto+uTMfK+dbE6uuSTk66UKZXVl7Q
trrjOAbIPr5qyzkeA8+6cnbNAvluxtzSbFNWt6+3fq5AdC4Us5amrjhCtLUOD44ws5PUwMKz1XUv
mW3tZ/r70DF53X1Jumj737b8ghFTk6g8uU9ON8k6TUjB7qKAaEbMPXTs3Hvf+Tzw1WgT0UmMH/iz
2gqIznPVdsaWMj+O4bSRIzuU6KqBvbN41XbsSGPFPY4enLf7yKPj3p82HsIkgA9Q2OYj5GyWilhn
xI+2OAcfzp5NBjdFvujJFAEpK7rmylvoGCDvWApAkClR9IFgxbNHPk6oYCUCEGSqRikNJSqRmtMb
zvEYOyci9dd8XqJ3DJC9Ocpz7AkhpAnvDH+PZcJi6thnrExvP2neVmPEXmXOv89YMQ+CoS7yc7qb
ceNundO+PtSFHZJj6myrNhf6t1VzR96GkpyxbpXAOfHwsz6VntmadtNGK7N9fWzlfX1IpZsdyeMv
2/VAQwvNhXxt7XKbWPv52uLSGgVz3nJ+vvohPxOLIV87aWRdnj4AEjg+CBgk/JHCqF0C4kjhlOx9
VPvctIWN64Wys6MpCd5OXng7E9kttJ1JzEH+Hc35IXfyfHlD0hCbDH4kfJktBwkbig8JuMtMHSmC
BzXv4QFH9OXb0UQXLGFbd33pq+EgYSG4o36U8+feD7e9vZoc20uID9Jbqvi2t6OIAWNlc6QDJAF7
QzqKoJh9kBtC6GIkdRCzx44nFs3z9hHZwfvcz4LHFk4i3ECcgeckZQcaBIDp62MpszjaRApCLsTf
DtL4J3KoCoMPIphACno0PxJpgb4VozoAMLx9oGrOxPI5m8kdRYCBjfkh+7A7sLoLIwobjKRkI/vg
JAvirR1mFxP78A+iD5uXUo69pEQKsPJA0NAZgrT8HXyskrjASH20CmIiJiTbYY/pIze9J9Hk3smd
3S2nD30Kc3R+fO3AFZ6325V+S147TPt6CVLazuFkPKHwzAsswXgB5KM0Zh9PQjSVcJI7ggHrM4FQ
kgbRWkqgEqpvWH2gwTsS3+7mSqJLaUNOZFc/lDgGEaC0vnGsn8kJg2iv5SW3g121K1yu+Dp4fZpZ
8CnpoZDx+pHN8g7C1jf942hJI5EWhnVyHlnEK2nWilRyq8JAmWxY5RESYhW9kB9GAJHgJrisxHb0
3GNHrZm5dEUtrmefb8Cn3jkET9qasv19cF3dgOMDiWHToNbC5sNm1p/6e52hp0J6rqjvbNiTagOj
HNQbvvnKyc+7b4uYSJujMS48H5JEFOzzIS8nSTRzzjm9ET7hWexkz4H62e6GAw1R0uA+DNZ2cfFQ
7yoNX3oODWp2L2zoH2poD8H3oDDjxg4PFkNByEvJDR8G9xI+Vt99PrX3IHQMJHWYDyfdwOixPzAK
8tAf6Dr2x0ZBTGGM59gNTeFZkBhcBLZH08t3DKTb+a8sbQLMgATyK+d6BPQgg7UMnqH6S7CjlHoB
O/ol0g2Nyu4J+Wr3W7m7l5wDdUtZd3OUxgDkeX3JRcyFEDzdzgkvJUa7+gIhbrTrIh8RrvL15/PW
uLsUfV1K+anOSvZyua2vXarHm8bjW8aOZ96dp53d0PvAJt6LR2TyfO/ty41OLvojl7uraPpeC3bE
8m6PxlHkYuVEsz/VL2X7U+/+yQkNydvz5WdaK7otf+Cm37VmRynvNrDLO/jzKjfl5/ohDV7Lz70z
u/OX+RuX5u78e7svy2+/3QfqROBAXW82L9fpwsBh4Vn3TzjMjDJtprfnhpwe85TjZ+VL1T4Cd/le
sz8Vy25c9VGx2119b4aHc1K4eCwV65OVzbOLh7nt19zGtb35vYKCxTl+utvSaQiWCrbSszbQqbZR
R9rSjOixnmobdaTthHt9/dhOtY060paqtbGeaht1pC3ZWxv5VNtN3CXFs35wK/R5u/Hm3waFn2fg
p/Nqt9ciTbTnrepHrXFY/rvanvhDStF/RfgX/xpWSpLNlKxp8EXDXw9fJ/7IkNYpaT51CMpLTG3i
lQ3P+c12t1irdGvNRrn9d2qJ/HZzdHi5V0wtpeg7z/DOcioDIxOfoTk8mif7sM9SKr/VbNbx0Xnp
OrX9n1az3U1ROBfNVOH8nKPhVa1Te61Xgy8gJp7JKPHPzV/kY3Xij57zYYF8OsE/H/iHzh6a/o3f
9uHTb/jtr5Qkpo5S949i6m0CHp5N/CGrkigooqIYmqyqkppSRF0RdEuUdTBNRFNOfWMjSxck2VJN
XTQVy8RGsmBqJvzHIG/Jmm4KFjyVNFW2dAtaqLpgKKIlSbKmmoB+XVEFQ5UsVVE0S8E+RA36kC1L
NwGYkQJZKOuaIUiaZGqaqpuGloKnkmDJuqVCT4ZlQDeGISiGaQFofGyogiZCY1lXdRWhWCaAlSVJ
1y1LlqGFZgIU6AzW39QsAsWQRUGWdEWEHxQCRVUEGKgKvWuGKaVgVpKgKqooizA80YIWsi5YqiGp
Cg4NfjAATZqhUISogAFLkgXJkE1N0nBoBI4pCiqgRsOx40uWKMJsDFGRVUOEyRiWJUCHMBTNUHG0
pqUIhq5Jim5IZP6mZAm6qIsS4FpXJWwhCroMCyGJ5BWEY6qWoJmWpphON6YmwKgMTDFQFB1+MPAH
S3XRCJ9hPjBWQDBgC3+wYAENGyvOfCwNsCqRPhCQJWuCqmqiCCgmgCxFFDRZU5zlAA==
	]]>
	<![CDATA[
	PAI6dBlGrKkGYl+F4QOhqKpKBgKDFGBYimlKJtAB/GCq8Ioq6ZqIvVAwmiZIQHuSpiiyqGAjE5ZD
VkUFxqMiIKATxLWh64AJ7NeSBdVUdImAxha6KMC6GDBzC1phCw0AiaokKYZuaakKAtI17AaIBkiV
jBexoOqSqAEEAtmQkIxNRUU6QLQAgQGVGwowg4JixQLUyhKg1ZBVSiqwhiKsvU4IX6GAgGpVGbox
gKYU7MaElTdU0zAsmZKGAQwkWYZi4ujInKFfEchAMZHe8QcRFgQm45CCZUqAJsWAZVFNkZIcPBeA
fExNheZkRrBkgCIYLukY2Q6IH7hIFGF1FVx5HYYiiSrwM5IyHRvYSTKOQ5IJEQIpwNzAHoM5ShSQ
KeMEDMJVwM6yAZgCxAHvwWJbSBvQr6XJQO6aSJlKkQVAMCLA5jpAioXzspGNzItiRtM0MkOH5GQR
JwAQEHM6Mh5lB0p0JggnS4Y5OzwD3ATIBjaEMVJ2ABkApA6SCsgecQuyTQB+EQFrLiATAIHUoNSB
eNFFkC2qPRigTOBWYD3AhaTggpAWsiD6hBUgI0gK8EeQAYhExIpChYIEnCdJlH8lbCTBkikaIEGW
VMQ/ijhNhQaiSElXVxSQYQq+aqqIaxiPADLC0lEc6DghDRZVUVTgXAMwRGWpDIgCkaMB4ulbwDQa
4E2TTcpWIFgEYERNEQ0YhIy4hbHBGgMwFGMg1oHxdBB6kgnShAxFNwQQDaLDeAgIaA0oClgLlpwu
gAG0AXIOuJGyFUg4mDPMiYwFpwjaQQPUWcAThOY0CagHqACErk0LoJeQQiykY53KbRi8IBqyLKqa
/RbQHCYVEU2FbwFhCCLwqqFIKllpgCnImkWJH1cVpC3IbQMewlITswBeUUGOgWqycD0IIF0HeaPp
ogFTRfECpAIrAJ8VW2xpQP5AuvBQsrsRQYXotnYjSAA+E6GdBCJIQmJQQbbA/AADQNOGaa8RiHfL
gNFrEuF6FfSdacqw5DYgUB7wgwUrKNM1UoE7DUfLINoRTUAy9iLjYx1GBnwoI5ESKKhVTMCBpVD6
J41MGbhblOjCg9gANSJqSAhIlNhCAW7RHREM8kIwgMBtsUBbAF1DJxbOmYg5AxZIAs3mCm6QOiiF
PY4AVAjAcZIBNEWEGIhRkKegzwjFISAQNiroX5AjFJGggFBDgCInMthlIgU0lOIQKggikOQSUIUt
lg1JQR1vUZZHQAYoY0miop5ocFxTBeQu5StoAasuK/i65ChwmA8Qi2g6YhuMDKBAwINJTBDsRMHl
MRVi+BjYQgZMgkSQVLLK0AKktAlK07IFGCACxQj87rGQjrJSAcyrtshSVRC5oDdlKqaRY9DiAgYT
iTCBFkC3ui2sCCXAd1gfXdJkSgmAH2ggitT8MGzCRmmKNp6lkzkrCjQCIpPJjJA/QKODGIDVNeiK
Qccgniygc5OuGMxEQLvB5TGYHbTQTd2GXCAWIwgfWFMQ/ig+U0iNuKwWVRiIBhNUODAw1bUpVHXA
HihTiTmBDUAYwa8gGkEOYgtYUuAmkEko6ikhYCM/20monwFpuunwIVgFguIYBiCMgAKAMgAJID8l
lQICMQ5d2DQILcCYBQVuOvYhBQSGgApLLwNVmdhGJTYK2IG6zTEiKhlgB7qEsGzAZKriKSowRoAC
QV9TDY4tQJ7pgFWNakgCxwBeBWQCicqg+VNIEjA6SQdjgdIt0iBAAPWlIjvTFhJIFc3R6EhhIugL
k0xRooAUl/9tQKANgGuAZ2BAdNZg84L8NcmyYjc4PBDJIpXb2AJsb+gC6N9eIlR4QEhEoEnYAkYP
BKooaEk4pADDU0B8mDqxyWEdZbQUQLSiwEXXAMwBsD2Bg6hcgxZokpjoVFBfAaaL0lXV4F3EdwoN
fFR48IOHOuBlwYSF1g1bqcCABU8ZwIxApIM4kkEroqoykbhBJVqg2InxCbQMrhBaXYZFbQXKIOB9
QLdoqVEuktFFcuEgFxkWoE70jEIZmRPoDaQN9X5UnDMYwq4dCUgiBqCO3ZBVVQQQ46B8ieQjcCQ0
p2FGYDSBfjSodgCMgXS3tSQoHzAVQFrqoHlFZE7wF4DQLckx40F2AW7BzBKRXDSqAMEQFRFttpgT
gaI0tO9AtIgq0W4iOlkwRlPGdQWNayCJwUtgMhPLBqQ0jB2UOjXbgZ+ATE1gVeAGsGFRYFHbBwxh
oiEJIPCi0IATQa6BfES9owOPgCUESkPEFRJBTIBIw2UGnieeGPADyFaqQHBCIAjBmbOoA2ebZcBW
YK4B3yjU3hbRP3DENhKQiXYAmMVUuOCMQAoAVsHqAhUtohkJP4CA1oAWTGJvI4mBOtFgQTQifyw0
qJCsQWYB5dElAg4wQCxCpwayK5AIyE9AHXi3dAFgSuBbgvgEQgbOQQOcsCu4mhpIfJiijOYpcLht
ekILBe0n8APBLJEMqiEA1eA4QZ9k7UzqYKOrYxHTB4kbkQt40GwnSYGH4PRBNxqKe6Rl0E0irpRG
TU9oAWoHaAUIXHWIG6aH7guYsZKOniHx9dGflomfgXIBTAFgX6AN6gWSFsAwgFniTaaSgwoA6B0j
NUWiZMHkARtCQj+e8Ao6q6AtQQoSjfNNGuEiizphZCpMYfpAITJZYpUaKEBXtjmCCgbMaLqWom0q
gZfsmCZI1KSBGrRlkSBdt4wOBiwjgOnwPzGmwEaG9UTtYXcD8hFMJXshQOiiPrEoTTstVNMV0FTj
IyDNkF1ZCo0M2zNCZQ90ZsFSIRtT1UFjE46qB5kMZiK+LFENBqKI4AvHRFQ9jBNZD7Q6dZFR4cKw
VVN3FDlIWdNeM8JaqLQBIvzXxikMGhUhtLCjKWiBu5YY8FXFtsphVUCKqsSARmwJgHbH7cF+wXYE
aCBWqCcI0xZwIG6cAOQGDhbwjvQiUacIjEJQTEQG0RkBVQH9w4I7/gtQFbABfHZseaB40GAyjaCg
fEFXFuSCZkdLwLwAOQz0L1u2f6wDHQGKSAAGlRFZGwkZEiaESp02QmsMUCITgUhdTOBwz9gCr0oA
k5vaKsRRAjELz3SXTIA8UN8a1FGyw10majGM31ChDwuP4RHFC3BhqMoCp0txnHNw+VA0G7JjfRlE
eig2A+FgQdVIhucPE8PcJDoYiA7lNcGvJjheA40zGWAsKrob+ACzBCgOdCUKKRwaWCRgNhmG6bCP
LoNOwBAWumS2z4mBJ3jToFYcwlHBekQdAhOhARWw3FXHiiXd6Gi3EjlhB5EUFGwu/1Abm3r/jjGG
BppnoyLzawrR467VjbEReOKFf0ywWgGUZoc5sAWgWoV2uh0UMNHqA/tDo8axHeXQ0E9VXUa00GVG
24YEMAy0hB3lhZNTVcAieBiy7TfiQEEMSy7r4rjQLQbXHQWXPRvgfNDxVOqgogF2BrKGBUX/k4RS
kHXBjaLuCR08mNTQUMI1xBY6xr800/FDMK4G9Ank6qlfDHeZYC66fIjdSCIJFdnhViRjRfdkBA4F
yBTQJ8LC0AZgSIgYr9LIDNE7A6kJIpfYqzR+BxYqaEUZJJRMYm8qCizKthQNCvhvqMQdtxWkiwBE
ApKbcAxFNMg4BZjOoH0A51oYBrL1PpI1WLQC+tUg5Kg7Y+JwYXFU+kuKhEZBeIPo1ak/DZyDcTaH
5ZHyYYk1sEGIF4h9gKwFSgLxRYiY8o8FmhPsO2pASBSQ6VrCyIag91EpSSQoQwKqaDg6cSl0BDUM
/qoerkUAjCOxiZhGpkG5AP15mJORXUDtKkTZUk8dI9DUW9EpzQGyoXtdQfsChBWIX/B0qT+GqATz
DhQs0C+1TonkATcPSFdG058sCLhNCuo2av6jCQjdupEgNEpghTDeoaIziyIbjRSFBnZR34K+B3fB
BLoh8SWCNvS5QT6IdtQADQ4JpQrgBb1fNCUsJEAQMnS+xGaB19HRwk5QggpeOBzBCUitYEWAZqdW
Mprs4BoAcxCdjAMBkxdYzATnUTaJCwt6DZUkcqWGUGTC+2imEwMLgIMZB/MGhkDnEo00WD2wtCw7
7EJsPUAJBjdk4AaZMB1QCrClF3cHaxiYAYQtGlREHqCSh5VyQgzghYJqBCFLdxaQCDDWKvtkG6AQ
Vga3PAxwlDQql0w0yZ04JBpT4PagKwyCHSUXUg3GxGTieKXQKQJdYxk0mEGoUwbBhNxLjVsCSLFQ
ZTmbC6hrDL9nQBpgDFWyMKZNtCnYoCbqd6qUAQ6yMdAIiaCjWkSLCgZFLFDFdi5AnPsjGRpuegB/
ujROZgzrCRanrcZB3IHQ9WJeYLWAMAPRBf6GgT+AUoKROOEPxfaWgCVR+8IC6oZOjRXNtm6IvJYM
oGnLkLwYCrI6wDWJO4WmOPAkcDDujFhkBVWyomAJ2rYuMcVVsqkBalqksQ1QXWAhm24IEQgEeAMM
UeiJCi8YKOgWcFEci0JB/xXGDoIGBQT6mUBc8M3ZfyGUrRFPwaQBKegVCJ2yK0gIsBMQ8XQzAzCJ
oXOgTs2JAUhEToAvQGJ8MHk0OMF6Mk0vvqWigwk6mob5oI2I7rsnkmD6QOG2d0xJAtkR7Fa022gw
AhUcIM/AUJxMYycwIomGg+0gDYmnwLzB7MKtAYnqM1g4EJgk6IctwDZRQSYTjSeRnRmQT6JsS2Vs
YYGMAwsRrVMagJEpp/kAgR9O/SFZo03sUASJBKG9CxxEAjSwTPQ5uI+2YqIxQtymkOkuDG0BayZS
QanYERoQaqCnNI1GzSUgOYHGJej+g4oCWEbnikalMeYo6CgoLNv5VzFAjgxsKsSZQw8fDUHZH+0G
tx6ZyyShdeKDmxgHtSOyEqVeZzYEMBA/2obgqkkiDZsAYDB/geXI3kIKxwAizHYAbWuXRK4tpAU7
xg9ikQQVvF0ABY0pHyOBWhJAv8iul6QZuDEI5GXZC6qg76kblqZrnrUrGujDqW6wRUUhC2Yp0Ke9
cwPyUrKNDRpNBbcdzDVUcgoNh6P3pTh0r9hhXR38Edv7cpw4NRBNNXCjBuSpaZtxZJuYyB/NDs2B
s4TxIrJ3JaeSnVLqwS5c4v46eLEY6wdeBzkCcEEDSikYOJjIMGfQboBBHX7AAAvSPqho0IrYBAMh
gDcRQUHH2AZNZQ1oHAcDMkpEO8n9qirYBhYFkY8xZRNwmbop87rRifPmQR3PCiQvZCIxcNEUB2km
kjcXl3AwWzK/cnF9svBIlD88UixZGCYIUy55zCPWk1VDsoZJ1FOJmo5HXyarXYbK5tH4yYYDh/HB
Y8Mkm0Ic5hSPVZZs3HEYiDxmZrKxmmjvclnNycZ3ogHP4QUkexKJzgiXT5PsGiW7Vxw+WqKfl+gp
8ribiT5rotfL5zsnuuDJbjxXMCA5pJAYluCKbnAESRIDLVzxGo6wT3LoiCsCxRPHSgqFcUXUkgNz
ycE9nhhhcqiRHarki3YmBk2TA68c0dvEEHByGJkvGp0Y1E6Mi/NF1xOD9MmBfr79gg==
	]]>
	<![CDATA[
	5G2H5K0Lnh2Q5I0Ujs0Ynj0dnq2hpO0lvl2q5M2uxA0zrn23pL075r4f184hxwZk8iYmx15o4o4q
z6YslxsNXrSVysynbq4n/jjcsnP6txtvJCU+l0tM8id5fZjoD//rz/GXh8jxl/8P5fgrKGyScvwx
jZid4w/0LLFz/FEoJub4I2uwc/yBtURGjj8IYykxx1/BRHNmjr+C/TJz/BX4PSnHX8WkNFaOv0qS
OVg5/phdlZjjj8vEzvEHRjTZOf6qhAnYCTn+qoR6Jz7HH2wdnZ3jD8a2npjjD41Mdo4/5tSwc/yh
hZKY4w+NTHaOP3gYKjvHHzP3E3P8QXmK7Bx/aCGxc/zRtk/M8QdNLrJz/KGFws7xh4WVE3P8MYee
neOvYnITK8cflllMzPEnJMfM8VfhDXaOPxJ9Yo4/6m52jj+uHDPHX0EyTcrxxxRJdo4/EXHMHH80
7RNz/IEGdHaOPxCWxc7xB1NMSszxB2TI7Bx/oBOLneMPLdTEHH/wBS12jj+QlcTO8YfBqok5/grW
XjFz/BX0nZk5/oBcJTHHH4Yus3P8MdTFyPFXMO8wKcdfQeXFzPFXUI4zc/zRy0nM8YdGFjvHX0FN
y8zxxxEm5vgTJmLm+GNwnZ3jj0onIcefzIeZ46+gS8vM8VcwrpGU4w96SWbn+CtYpcfK8Qd2lxJz
/IGwTXaOv4K1i8wcf2BVOTHHHxPZ2Tn+6K0zc/wBG0Zijj9pxMzxxy03do4/tNASc/wVrCph5fgr
WFTCzPHHhN7EHH8MOLBz/BVSj8PK8VfQC0zK8VewOoiZ46+gX8/M8YcWZmKOP3pz7Bx/QKDIzvFX
YICJOf4KRnCZOf6KRiIVjBx/3LtMzPFHW5Cd4w9KTGLn+INvoSfl+Cu4wcPM8VdIeJ2V449yOCnH
X5ExaM3K8Yc5iewcfzROEnP8MbzLzvFHJcfO8QdAWmKOP8xIZOf4K7jl5uX46/05/oBbKzHHXwGu
Yuf4A3iNneOv4Kom5fgDPJWd4w9+pMXO8Ye5aYk5/iApVXaOPyKZneOfHFTw5fgTBZmUnEDMD2Y4
ibRgRaSggZwY18IsBHZ4jBhTzBCbghs6SZE6BWvq42J9RNnHxwmJqk+KNcLq6OyQJQY42WFPFAGJ
0VNilTODsApueTEDudCHkhgPxg0ldlhZMUicgBGaBhZVEyPcBL/MQDm6HOxgO8gFNTFmD2tnsUP/
JFTF3D5QLCI92LsQKqpc1l6GivvbzO0QENJW4q4K7o6yN2dgdQ32Bg/oMithlwj3fdlbTbCWKnu7
CvceE3e9kCTiN87gqczeeCMDTdq/g0YiexuQtGBuJaLzmrgjScJdzI1N0oK1N0oaJO2wgulksDdq
YY0N9mYvapPEPWMgN5m99UxCo8ztaxVTsZJ2wWHsGnszHXPV2BvyCiI7YVtfQUOdmRxAPHVmggHG
OBPzFGBQCjPbQcH9UVa+BNgqWlLShYKcy8rcUHBDjJX7gclhCfkjxGRnJqEQe52ZyKJgjlhSPoyC
aWDMtBqwBhVmZg5gSknI7gHrRGKnCGHSETvNCD2/xGwlGJPMzHkiDZhpU9C54Uu+kiKzrwCqxc7h
olNm5YGBFDAS08nQ3GRnpYHTZbAz21AYJSbIIXWy8+yQZ9i5ego5GCUh5Q/4SorOGFR0TOBiZRsq
GBJOSlpU0PphpT5iAIGZPIlJuYkpmKQRM5OTtGBmg5IWSUml0EiOz0slT5l5rURgJaXHUqnGSLKF
Bio7TxdaaInpvtDIYCYNk4ASM++YBNmS0pdh5XR2FjSQmMrOpEbzKDEhW0EnnJnXrWAuGTM3nLpf
CSnmxItjZqrTfWJGsnuyV+ol+SdnKMyclj+qF+1yrY75CR+d8p/VVLnRaHbL3WoLHqU+2tVOt9mu
pjqfzb/wF3zJfWFmZvukNPHH/wfQTNcT
	]]>
</i:pgf>
</svg>
